<?xml version="1.0" encoding="UTF-8" standalone="no"?>
<!DOCTYPE svg PUBLIC "-//W3C//DTD SVG 1.1//EN"
 "http://www.w3.org/Graphics/SVG/1.1/DTD/svg11.dtd">
<!-- Generated by graphviz version 2.43.0 (0)
 -->
<!-- Title: include/ccf/service/tables/acme_certificates.h Pages: 1 -->
<svg width="1990pt" height="577pt"
 viewBox="0.00 0.00 1990.50 577.00" xmlns="http://www.w3.org/2000/svg" xmlns:xlink="http://www.w3.org/1999/xlink">
<g id="graph0" class="graph" transform="scale(1 1) rotate(0) translate(4 573)">
<title>include/ccf/service/tables/acme_certificates.h</title>
<!-- Node1 -->
<g id="node1" class="node">
<title>Node1</title>
<g id="a_node1"><a xlink:title=" ">
<polygon fill="#999999" stroke="#666666" points="148,-569 0,-569 0,-539 148,-539 148,-569"/>
<text text-anchor="start" x="8" y="-557" font-family="Helvetica,sans-Serif" font-size="10.00">include/ccf/service</text>
<text text-anchor="middle" x="74" y="-546" font-family="Helvetica,sans-Serif" font-size="10.00">/tables/acme_certificates.h</text>
</a>
</g>
</g>
<!-- Node2 -->
<g id="node2" class="node">
<title>Node2</title>
<g id="a_node2"><a xlink:href="ccf__acme__client_8h.html" target="_top" xlink:title=" ">
<polygon fill="white" stroke="#666666" points="190.5,-310.5 41.5,-310.5 41.5,-291.5 190.5,-291.5 190.5,-310.5"/>
<text text-anchor="middle" x="116" y="-298.5" font-family="Helvetica,sans-Serif" font-size="10.00">src/node/ccf_acme_client.h</text>
</a>
</g>
</g>
<!-- Node1&#45;&gt;Node2 -->
<g id="edge1" class="edge">
<title>Node1&#45;&gt;Node2</title>
<path fill="none" stroke="#63b8ff" d="M78.07,-528.69C87.15,-474.42 108.73,-345.45 114.54,-310.73"/>
<polygon fill="#63b8ff" stroke="#63b8ff" points="74.58,-528.35 76.38,-538.79 81.48,-529.5 74.58,-528.35"/>
</g>
<!-- Node3 -->
<g id="node3" class="node">
<title>Node3</title>
<g id="a_node3"><a xlink:href="node__state_8h.html" target="_top" xlink:title=" ">
<polygon fill="white" stroke="#666666" points="691,-184 567,-184 567,-165 691,-165 691,-184"/>
<text text-anchor="middle" x="629" y="-172" font-family="Helvetica,sans-Serif" font-size="10.00">src/node/node_state.h</text>
</a>
</g>
</g>
<!-- Node1&#45;&gt;Node3 -->
<g id="edge7" class="edge">
<title>Node1&#45;&gt;Node3</title>
<path fill="none" stroke="#63b8ff" d="M55.7,-530.73C38.05,-506.95 14,-467.39 14,-428.5 14,-428.5 14,-428.5 14,-300 14,-188 410.78,-175.6 566.93,-175.05"/>
<polygon fill="#63b8ff" stroke="#63b8ff" points="52.99,-532.95 61.86,-538.75 58.55,-528.69 52.99,-532.95"/>
</g>
<!-- Node7 -->
<g id="node7" class="node">
<title>Node7</title>
<g id="a_node7"><a xlink:href="network__tables_8h.html" target="_top" xlink:title=" ">
<polygon fill="white" stroke="#666666" points="214,-503 102,-503 102,-473 214,-473 214,-503"/>
<text text-anchor="start" x="110" y="-491" font-family="Helvetica,sans-Serif" font-size="10.00">src/service/network</text>
<text text-anchor="middle" x="158" y="-480" font-family="Helvetica,sans-Serif" font-size="10.00">_tables.h</text>
</a>
</g>
</g>
<!-- Node1&#45;&gt;Node7 -->
<g id="edge8" class="edge">
<title>Node1&#45;&gt;Node7</title>
<path fill="none" stroke="#63b8ff" d="M100.94,-532.48C113.49,-522.91 128.11,-511.77 139.41,-503.16"/>
<polygon fill="#63b8ff" stroke="#63b8ff" points="98.48,-529.95 92.64,-538.8 102.72,-535.52 98.48,-529.95"/>
</g>
<!-- Node2&#45;&gt;Node3 -->
<g id="edge2" class="edge">
<title>Node2&#45;&gt;Node3</title>
<path fill="none" stroke="#63b8ff" d="M142.14,-287.03C179.37,-269.13 250.23,-237.11 314,-220 400.02,-196.92 502.65,-185.26 566.84,-179.79"/>
<polygon fill="#63b8ff" stroke="#63b8ff" points="140.46,-283.96 132.99,-291.48 143.52,-290.26 140.46,-283.96"/>
</g>
<!-- Node4 -->
<g id="node4" class="node">
<title>Node4</title>
<g id="a_node4"><a xlink:href="src_2enclave_2enclave_8h.html" target="_top" xlink:title=" ">
<polygon fill="white" stroke="#666666" points="690,-74 568,-74 568,-55 690,-55 690,-74"/>
<text text-anchor="middle" x="629" y="-62" font-family="Helvetica,sans-Serif" font-size="10.00">src/enclave/enclave.h</text>
</a>
</g>
</g>
<!-- Node3&#45;&gt;Node4 -->
<g id="edge3" class="edge">
<title>Node3&#45;&gt;Node4</title>
<path fill="none" stroke="#63b8ff" d="M613.14,-157.09C603.03,-144.59 592.74,-126.74 598,-110 602.4,-95.99 612.95,-82.53 620.52,-74.15"/>
<polygon fill="#63b8ff" stroke="#63b8ff" points="610.69,-159.6 619.92,-164.81 615.95,-154.98 610.69,-159.6"/>
</g>
<!-- Node6 -->
<g id="node6" class="node">
<title>Node6</title>
<g id="a_node6"><a xlink:href="gov__effects_8h.html" target="_top" xlink:title=" ">
<polygon fill="white" stroke="#666666" points="751,-129 607,-129 607,-110 751,-110 751,-129"/>
<text text-anchor="middle" x="679" y="-117" font-family="Helvetica,sans-Serif" font-size="10.00">src/node/rpc/gov_effects.h</text>
</a>
</g>
</g>
<!-- Node3&#45;&gt;Node6 -->
<g id="edge5" class="edge">
<title>Node3&#45;&gt;Node6</title>
<path fill="none" stroke="#63b8ff" d="M644.34,-157.24C653.1,-147.95 663.74,-136.68 670.9,-129.09"/>
<polygon fill="#63b8ff" stroke="#63b8ff" points="641.57,-155.07 637.26,-164.75 646.66,-159.88 641.57,-155.07"/>
</g>
<!-- Node5 -->
<g id="node5" class="node">
<title>Node5</title>
<g id="a_node5"><a xlink:href="enclave_2main_8cpp.html" target="_top" xlink:title=" ">
<polygon fill="white" stroke="#666666" points="689,-19 569,-19 569,0 689,0 689,-19"/>
<text text-anchor="middle" x="629" y="-7" font-family="Helvetica,sans-Serif" font-size="10.00">src/enclave/main.cpp</text>
</a>
</g>
</g>
<!-- Node4&#45;&gt;Node5 -->
<g id="edge4" class="edge">
<title>Node4&#45;&gt;Node5</title>
<path fill="none" stroke="#63b8ff" d="M629,-44.66C629,-35.93 629,-25.99 629,-19.09"/>
<polygon fill="#63b8ff" stroke="#63b8ff" points="625.5,-44.75 629,-54.75 632.5,-44.75 625.5,-44.75"/>
</g>
<!-- Node6&#45;&gt;Node4 -->
<g id="edge6" class="edge">
<title>Node6&#45;&gt;Node4</title>
<path fill="none" stroke="#63b8ff" d="M663.66,-102.24C654.9,-92.95 644.26,-81.68 637.1,-74.09"/>
<polygon fill="#63b8ff" stroke="#63b8ff" points="661.34,-104.88 670.74,-109.75 666.43,-100.07 661.34,-104.88"/>
</g>
<!-- Node7&#45;&gt;Node2 -->
<g id="edge9" class="edge">
<title>Node7&#45;&gt;Node2</title>
<path fill="none" stroke="#63b8ff" d="M152.53,-462.92C143.07,-421.22 124.05,-337.44 117.94,-310.53"/>
<polygon fill="#63b8ff" stroke="#63b8ff" points="149.15,-463.81 154.77,-472.79 155.97,-462.26 149.15,-463.81"/>
</g>
<!-- Node8 -->
<g id="node8" class="node">
<title>Node8</title>
<g id="a_node8"><a xlink:href="network__state_8h.html" target="_top" xlink:title=" ">
<polygon fill="white" stroke="#666666" points="672,-437 532,-437 532,-418 672,-418 672,-437"/>
<text text-anchor="middle" x="602" y="-425" font-family="Helvetica,sans-Serif" font-size="10.00">src/node/network_state.h</text>
</a>
</g>
</g>
<!-- Node7&#45;&gt;Node8 -->
<g id="edge10" class="edge">
<title>Node7&#45;&gt;Node8</title>
<path fill="none" stroke="#63b8ff" d="M224.22,-478.28C308.61,-467.16 453.55,-448.06 537.24,-437.03"/>
<polygon fill="#63b8ff" stroke="#63b8ff" points="223.69,-474.81 214.23,-479.59 224.6,-481.75 223.69,-474.81"/>
</g>
<!-- Node8&#45;&gt;Node3 -->
<g id="edge35" class="edge">
<title>Node8&#45;&gt;Node3</title>
<path fill="none" stroke="#63b8ff" d="M636.77,-414.17C676.13,-398.19 738.58,-366.27 768,-316 789.58,-279.13 798.36,-254.38 773,-220 754.21,-194.52 721.01,-183.19 691.22,-178.32"/>
<polygon fill="#63b8ff" stroke="#63b8ff" points="635.33,-410.98 627.3,-417.89 637.89,-417.49 635.33,-410.98"/>
</g>
<!-- Node8&#45;&gt;Node4 -->
<g id="edge11" class="edge">
<title>Node8&#45;&gt;Node4</title>
<path fill="none" stroke="#63b8ff" d="M682.41,-427.16C963.33,-428.42 1884,-423.28 1884,-302 1884,-302 1884,-302 1884,-173.5 1884,-156.97 2244.15,-190.15 1578,-110 1244.55,-69.88 841.15,-65.43 690.04,-65.29"/>
<polygon fill="#63b8ff" stroke="#63b8ff" points="682.31,-423.66 672.29,-427.11 682.28,-430.66 682.31,-423.66"/>
</g>
<!-- Node9 -->
<g id="node9" class="node">
<title>Node9</title>
<g id="a_node9"><a xlink:href="wrap_8h.html" target="_top" xlink:title=" ">
<polygon fill="white" stroke="#666666" points="1329,-376.5 1251,-376.5 1251,-357.5 1329,-357.5 1329,-376.5"/>
<text text-anchor="middle" x="1290" y="-364.5" font-family="Helvetica,sans-Serif" font-size="10.00">src/js/wrap.h</text>
</a>
</g>
</g>
<!-- Node8&#45;&gt;Node9 -->
<g id="edge12" class="edge">
<title>Node8&#45;&gt;Node9</title>
<path fill="none" stroke="#63b8ff" d="M682.45,-419.66C830.6,-407.06 1141.37,-380.64 1250.83,-371.33"/>
<polygon fill="#63b8ff" stroke="#63b8ff" points="681.74,-416.21 672.07,-420.54 682.34,-423.18 681.74,-416.21"/>
</g>
<!-- Node18 -->
<g id="node18" class="node">
<title>Node18</title>
<g id="a_node18"><a xlink:href="node__frontend_8h.html" target="_top" xlink:title=" ">
<polygon fill="white" stroke="#666666" points="759,-310.5 601,-310.5 601,-291.5 759,-291.5 759,-310.5"/>
<text text-anchor="middle" x="680" y="-298.5" font-family="Helvetica,sans-Serif" font-size="10.00">src/node/rpc/node_frontend.h</text>
</a>
</g>
</g>
<!-- Node8&#45;&gt;Node18 -->
<g id="edge36" class="edge">
<title>Node8&#45;&gt;Node18</title>
<path fill="none" stroke="#63b8ff" d="M612.85,-409.18C629.78,-382.15 661.87,-330.93 674.6,-310.62"/>
<polygon fill="#63b8ff" stroke="#63b8ff" points="609.7,-407.61 607.36,-417.94 615.64,-411.33 609.7,-407.61"/>
</g>
<!-- Node20 -->
<g id="node20" class="node">
<title>Node20</title>
<g id="a_node20"><a xlink:href="acme__challenge__frontend_8h.html" target="_top" xlink:title=" ">
<polygon fill="white" stroke="#666666" points="386,-382 246,-382 246,-352 386,-352 386,-382"/>
<text text-anchor="start" x="254" y="-370" font-family="Helvetica,sans-Serif" font-size="10.00">src/node/acme_challenge</text>
<text text-anchor="middle" x="316" y="-359" font-family="Helvetica,sans-Serif" font-size="10.00">_frontend.h</text>
</a>
</g>
</g>
<!-- Node8&#45;&gt;Node20 -->
<g id="edge32" class="edge">
<title>Node8&#45;&gt;Node20</title>
<path fill="none" stroke="#63b8ff" d="M550.57,-415.98C504.16,-406.49 435.53,-392.45 384.48,-382.01"/>
<polygon fill="#63b8ff" stroke="#63b8ff" points="549.91,-419.42 560.41,-417.99 551.32,-412.56 549.91,-419.42"/>
</g>
<!-- Node21 -->
<g id="node21" class="node">
<title>Node21</title>
<g id="a_node21"><a xlink:href="user__frontend_8h.html" target="_top" xlink:title=" ">
<polygon fill="white" stroke="#666666" points="227.5,-184 72.5,-184 72.5,-165 227.5,-165 227.5,-184"/>
<text text-anchor="middle" x="150" y="-172" font-family="Helvetica,sans-Serif" font-size="10.00">src/node/rpc/user_frontend.h</text>
</a>
</g>
</g>
<!-- Node8&#45;&gt;Node21 -->
<g id="edge37" class="edge">
<title>Node8&#45;&gt;Node21</title>
<path fill="none" stroke="#63b8ff" d="M521.92,-426.07C428.16,-423.99 280.14,-415.32 237,-382 200.68,-353.95 216.75,-328.32 199,-286 182.93,-247.68 162.41,-202.54 153.93,-184.05"/>
<polygon fill="#63b8ff" stroke="#63b8ff" points="521.88,-429.57 531.95,-426.27 522.02,-422.57 521.88,-429.57"/>
</g>
<!-- Node22 -->
<g id="node22" class="node">
<title>Node22</title>
<g id="a_node22"><a xlink:href="secret__broadcast_8h.html" target="_top" xlink:title=" ">
<polygon fill="white" stroke="#666666" points="475.5,-244.5 322.5,-244.5 322.5,-225.5 475.5,-225.5 475.5,-244.5"/>
<text text-anchor="middle" x="399" y="-232.5" font-family="Helvetica,sans-Serif" font-size="10.00">src/node/secret_broadcast.h</text>
</a>
</g>
</g>
<!-- Node8&#45;&gt;Node22 -->
<g id="edge39" class="edge">
<title>Node8&#45;&gt;Node22</title>
<path fill="none" stroke="#63b8ff" d="M585.22,-410.76C544.23,-372.29 440.03,-274.5 408.3,-244.73"/>
<polygon fill="#63b8ff" stroke="#63b8ff" points="583.06,-413.53 592.75,-417.82 587.85,-408.42 583.06,-413.53"/>
</g>
<!-- Node23 -->
<g id="node23" class="node">
<title>Node23</title>
<g id="a_node23"><a xlink:href="share__manager_8h.html" target="_top" xlink:title=" ">
<polygon fill="white" stroke="#666666" points="965.5,-376.5 820.5,-376.5 820.5,-357.5 965.5,-357.5 965.5,-376.5"/>
<text text-anchor="middle" x="893" y="-364.5" font-family="Helvetica,sans-Serif" font-size="10.00">src/node/share_manager.h</text>
</a>
</g>
</g>
<!-- Node8&#45;&gt;Node23 -->
<g id="edge41" class="edge">
<title>Node8&#45;&gt;Node23</title>
<path fill="none" stroke="#63b8ff" d="M654.42,-415.96C710.59,-404.67 798.67,-386.96 850.64,-376.52"/>
<polygon fill="#63b8ff" stroke="#63b8ff" points="653.43,-412.59 644.31,-417.99 654.81,-419.45 653.43,-412.59"/>
</g>
<!-- Node24 -->
<g id="node24" class="node">
<title>Node24</title>
<g id="a_node24"><a xlink:href="snapshotter_8h.html" target="_top" xlink:title=" ">
<polygon fill="white" stroke="#666666" points="620.5,-244.5 493.5,-244.5 493.5,-225.5 620.5,-225.5 620.5,-244.5"/>
<text text-anchor="middle" x="557" y="-232.5" font-family="Helvetica,sans-Serif" font-size="10.00">src/node/snapshotter.h</text>
</a>
</g>
</g>
<!-- Node8&#45;&gt;Node24 -->
<g id="edge44" class="edge">
<title>Node8&#45;&gt;Node24</title>
<path fill="none" stroke="#63b8ff" d="M597.63,-408.01C588.14,-367.83 565.93,-273.82 559.06,-244.73"/>
<polygon fill="#63b8ff" stroke="#63b8ff" points="594.24,-408.89 599.95,-417.82 601.06,-407.28 594.24,-408.89"/>
</g>
<!-- Node9&#45;&gt;Node3 -->
<g id="edge25" class="edge">
<title>Node9&#45;&gt;Node3</title>
<path fill="none" stroke="#63b8ff" d="M1240.55,-365.25C1146.04,-362.95 944.08,-353.65 887,-316 845.77,-288.8 870.92,-249.09 831,-220 790.52,-190.5 734.17,-179.93 691.27,-176.43"/>
<polygon fill="#63b8ff" stroke="#63b8ff" points="1240.64,-368.75 1250.71,-365.48 1240.79,-361.75 1240.64,-368.75"/>
</g>
<!-- Node9&#45;&gt;Node4 -->
<g id="edge14" class="edge">
<title>Node9&#45;&gt;Node4</title>
<path fill="none" stroke="#63b8ff" d="M1339.36,-364.64C1465.19,-360.72 1790.6,-347.62 1827,-316 1854.59,-292.03 1846,-272.54 1846,-236 1846,-236 1846,-236 1846,-173.5 1846,-114.84 936.97,-76.9 690.19,-67.69"/>
<polygon fill="#63b8ff" stroke="#63b8ff" points="1339.12,-361.15 1329.23,-364.95 1339.33,-368.14 1339.12,-361.15"/>
</g>
<!-- Node10 -->
<g id="node10" class="node">
<title>Node10</title>
<g id="a_node10"><a xlink:href="js__generic__base_8cpp.html" target="_top" xlink:title=" ">
<polygon fill="white" stroke="#666666" points="1152,-316 1034,-316 1034,-286 1152,-286 1152,-316"/>
<text text-anchor="start" x="1042" y="-304" font-family="Helvetica,sans-Serif" font-size="10.00">src/apps/js_generic</text>
<text text-anchor="middle" x="1093" y="-293" font-family="Helvetica,sans-Serif" font-size="10.00">/js_generic_base.cpp</text>
</a>
</g>
</g>
<!-- Node9&#45;&gt;Node10 -->
<g id="edge13" class="edge">
<title>Node9&#45;&gt;Node10</title>
<path fill="none" stroke="#63b8ff" d="M1253.7,-354.21C1220.59,-343.45 1171.62,-327.54 1136.45,-316.12"/>
<polygon fill="#63b8ff" stroke="#63b8ff" points="1252.84,-357.61 1263.43,-357.37 1255,-350.95 1252.84,-357.61"/>
</g>
<!-- Node11 -->
<g id="node11" class="node">
<title>Node11</title>
<g id="a_node11"><a xlink:href="consensus_8cpp.html" target="_top" xlink:title=" ">
<polygon fill="white" stroke="#666666" points="1414,-310.5 1298,-310.5 1298,-291.5 1414,-291.5 1414,-310.5"/>
<text text-anchor="middle" x="1356" y="-298.5" font-family="Helvetica,sans-Serif" font-size="10.00">src/js/consensus.cpp</text>
</a>
</g>
</g>
<!-- Node9&#45;&gt;Node11 -->
<g id="edge15" class="edge">
<title>Node9&#45;&gt;Node11</title>
<path fill="none" stroke="#63b8ff" d="M1306.16,-350.33C1318.94,-337.94 1336.32,-321.09 1346.82,-310.91"/>
<polygon fill="#63b8ff" stroke="#63b8ff" points="1303.64,-347.89 1298.9,-357.37 1308.52,-352.92 1303.64,-347.89"/>
</g>
<!-- Node12 -->
<g id="node12" class="node">
<title>Node12</title>
<g id="a_node12"><a xlink:href="wrap_8cpp.html" target="_top" xlink:title=" ">
<polygon fill="white" stroke="#666666" points="1486.5,-244.5 1397.5,-244.5 1397.5,-225.5 1486.5,-225.5 1486.5,-244.5"/>
<text text-anchor="middle" x="1442" y="-232.5" font-family="Helvetica,sans-Serif" font-size="10.00">src/js/wrap.cpp</text>
</a>
</g>
</g>
<!-- Node9&#45;&gt;Node12 -->
<g id="edge24" class="edge">
<title>Node9&#45;&gt;Node12</title>
<path fill="none" stroke="#63b8ff" d="M1339.22,-359.14C1367.59,-352.67 1401.72,-340.15 1423,-316 1441.12,-295.43 1442.75,-260.72 1442.43,-244.64"/>
<polygon fill="#63b8ff" stroke="#63b8ff" points="1338.14,-355.79 1329.07,-361.27 1339.58,-362.65 1338.14,-355.79"/>
</g>
<!-- Node13 -->
<g id="node13" class="node">
<title>Node13</title>
<g id="a_node13"><a xlink:href="conv_8cpp.html" target="_top" xlink:title=" ">
<polygon fill="white" stroke="#666666" points="1558,-310.5 1470,-310.5 1470,-291.5 1558,-291.5 1558,-310.5"/>
<text text-anchor="middle" x="1514" y="-298.5" font-family="Helvetica,sans-Serif" font-size="10.00">src/js/conv.cpp</text>
</a>
</g>
</g>
<!-- Node9&#45;&gt;Node13 -->
<g id="edge17" class="edge">
<title>Node9&#45;&gt;Node13</title>
<path fill="none" stroke="#63b8ff" d="M1330.03,-354.56C1374.17,-341.95 1444.2,-321.94 1483.91,-310.6"/>
<polygon fill="#63b8ff" stroke="#63b8ff" points="1328.86,-351.26 1320.21,-357.37 1330.79,-357.99 1328.86,-351.26"/>
</g>
<!-- Node14 -->
<g id="node14" class="node">
<title>Node14</title>
<g id="a_node14"><a xlink:href="crypto_8cpp.html" target="_top" xlink:title=" ">
<polygon fill="white" stroke="#666666" points="1672,-310.5 1576,-310.5 1576,-291.5 1672,-291.5 1672,-310.5"/>
<text text-anchor="middle" x="1624" y="-298.5" font-family="Helvetica,sans-Serif" font-size="10.00">src/js/crypto.cpp</text>
</a>
</g>
</g>
<!-- Node9&#45;&gt;Node14 -->
<g id="edge19" class="edge">
<title>Node9&#45;&gt;Node14</title>
<path fill="none" stroke="#63b8ff" d="M1339.06,-358.09C1394.56,-348.93 1487.58,-332.9 1567,-316 1574.67,-314.37 1582.89,-312.45 1590.62,-310.57"/>
<polygon fill="#63b8ff" stroke="#63b8ff" points="1338.44,-354.65 1329.14,-359.72 1339.58,-361.56 1338.44,-354.65"/>
</g>
<!-- Node15 -->
<g id="node15" class="node">
<title>Node15</title>
<g id="a_node15"><a xlink:href="historical_8cpp.html" target="_top" xlink:title=" ">
<polygon fill="white" stroke="#666666" points="1280,-310.5 1170,-310.5 1170,-291.5 1280,-291.5 1280,-310.5"/>
<text text-anchor="middle" x="1225" y="-298.5" font-family="Helvetica,sans-Serif" font-size="10.00">src/js/historical.cpp</text>
</a>
</g>
</g>
<!-- Node9&#45;&gt;Node15 -->
<g id="edge21" class="edge">
<title>Node9&#45;&gt;Node15</title>
<path fill="none" stroke="#63b8ff" d="M1274.08,-350.33C1261.5,-337.94 1244.38,-321.09 1234.04,-310.91"/>
<polygon fill="#63b8ff" stroke="#63b8ff" points="1271.65,-352.85 1281.23,-357.37 1276.56,-347.86 1271.65,-352.85"/>
</g>
<!-- Node16 -->
<g id="node16" class="node">
<title>Node16</title>
<g id="a_node16"><a xlink:href="openenclave_8cpp.html" target="_top" xlink:title=" ">
<polygon fill="white" stroke="#666666" points="1818,-310.5 1690,-310.5 1690,-291.5 1818,-291.5 1818,-310.5"/>
<text text-anchor="middle" x="1754" y="-298.5" font-family="Helvetica,sans-Serif" font-size="10.00">src/js/openenclave.cpp</text>
</a>
</g>
</g>
<!-- Node9&#45;&gt;Node16 -->
<g id="edge23" class="edge">
<title>Node9&#45;&gt;Node16</title>
<path fill="none" stroke="#63b8ff" d="M1339.24,-360.7C1413.51,-352.48 1558.53,-335.55 1681,-316 1691.07,-314.39 1701.87,-312.44 1712,-310.52"/>
<polygon fill="#63b8ff" stroke="#63b8ff" points="1338.8,-357.23 1329.24,-361.8 1339.56,-364.19 1338.8,-357.23"/>
</g>
<!-- Node17 -->
<g id="node17" class="node">
<title>Node17</title>
<g id="a_node17"><a xlink:href="member__frontend_8h.html" target="_top" xlink:title=" ">
<polygon fill="white" stroke="#666666" points="1016,-316 896,-316 896,-286 1016,-286 1016,-316"/>
<text text-anchor="start" x="904" y="-304" font-family="Helvetica,sans-Serif" font-size="10.00">src/node/rpc/member</text>
<text text-anchor="middle" x="956" y="-293" font-family="Helvetica,sans-Serif" font-size="10.00">_frontend.h</text>
</a>
</g>
</g>
<!-- Node9&#45;&gt;Node17 -->
<g id="edge26" class="edge">
<title>Node9&#45;&gt;Node17</title>
<path fill="none" stroke="#63b8ff" d="M1241.06,-356.97C1187.85,-347.11 1100.32,-330.75 1025,-316 1022.12,-315.44 1019.18,-314.86 1016.2,-314.27"/>
<polygon fill="#63b8ff" stroke="#63b8ff" points="1240.43,-360.42 1250.9,-358.8 1241.71,-353.53 1240.43,-360.42"/>
</g>
<!-- Node9&#45;&gt;Node18 -->
<g id="edge28" class="edge">
<title>Node9&#45;&gt;Node18</title>
<path fill="none" stroke="#63b8ff" d="M1240.87,-360.85C1135.49,-349.79 886.93,-323.71 759.04,-310.29"/>
<polygon fill="#63b8ff" stroke="#63b8ff" points="1240.6,-364.34 1250.91,-361.9 1241.33,-357.37 1240.6,-364.34"/>
</g>
<!-- Node11&#45;&gt;Node12 -->
<g id="edge16" class="edge">
<title>Node11&#45;&gt;Node12</title>
<path fill="none" stroke="#63b8ff" d="M1375.71,-285.33C1392.57,-272.78 1416.29,-255.13 1430.31,-244.7"/>
<polygon fill="#63b8ff" stroke="#63b8ff" points="1373.53,-282.59 1367.6,-291.37 1377.71,-288.21 1373.53,-282.59"/>
</g>
<!-- Node13&#45;&gt;Node12 -->
<g id="edge18" class="edge">
<title>Node13&#45;&gt;Node12</title>
<path fill="none" stroke="#63b8ff" d="M1496.76,-284.68C1482.79,-272.26 1463.58,-255.18 1452.02,-244.91"/>
<polygon fill="#63b8ff" stroke="#63b8ff" points="1494.49,-287.34 1504.29,-291.37 1499.14,-282.11 1494.49,-287.34"/>
</g>
<!-- Node14&#45;&gt;Node12 -->
<g id="edge20" class="edge">
<title>Node14&#45;&gt;Node12</title>
<path fill="none" stroke="#63b8ff" d="M1589.88,-288C1553.94,-275.36 1498.24,-255.78 1466.45,-244.6"/>
<polygon fill="#63b8ff" stroke="#63b8ff" points="1588.86,-291.35 1599.45,-291.37 1591.18,-284.75 1588.86,-291.35"/>
</g>
<!-- Node15&#45;&gt;Node12 -->
<g id="edge22" class="edge">
<title>Node15&#45;&gt;Node12</title>
<path fill="none" stroke="#63b8ff" d="M1264.05,-288.48C1306.83,-275.87 1374.46,-255.92 1412.85,-244.6"/>
<polygon fill="#63b8ff" stroke="#63b8ff" points="1262.87,-285.18 1254.27,-291.37 1264.85,-291.9 1262.87,-285.18"/>
</g>
<!-- Node17&#45;&gt;Node4 -->
<g id="edge27" class="edge">
<title>Node17&#45;&gt;Node4</title>
<path fill="none" stroke="#63b8ff" d="M938.78,-277.78C907.32,-238.58 836.69,-156.88 760,-110 731.62,-92.65 695.6,-81.05 668.52,-74.05"/>
<polygon fill="#63b8ff" stroke="#63b8ff" points="936.28,-280.25 945.23,-285.91 941.76,-275.9 936.28,-280.25"/>
</g>
<!-- Node18&#45;&gt;Node4 -->
<g id="edge29" class="edge">
<title>Node18&#45;&gt;Node4</title>
<path fill="none" stroke="#63b8ff" d="M590.55,-300.7C493.97,-299.31 349.18,-290.31 314,-250 230.14,-153.9 472.8,-94.87 580.43,-74.02"/>
<polygon fill="#63b8ff" stroke="#63b8ff" points="590.57,-304.2 600.61,-300.82 590.66,-297.2 590.57,-304.2"/>
</g>
<!-- Node19 -->
<g id="node19" class="node">
<title>Node19</title>
<g id="a_node19"><a xlink:href="jwt__key__auto__refresh_8h.html" target="_top" xlink:title=" ">
<polygon fill="white" stroke="#666666" points="763.5,-250 638.5,-250 638.5,-220 763.5,-220 763.5,-250"/>
<text text-anchor="start" x="646.5" y="-238" font-family="Helvetica,sans-Serif" font-size="10.00">src/node/jwt_key_auto</text>
<text text-anchor="middle" x="701" y="-227" font-family="Helvetica,sans-Serif" font-size="10.00">_refresh.h</text>
</a>
</g>
</g>
<!-- Node18&#45;&gt;Node19 -->
<g id="edge30" class="edge">
<title>Node18&#45;&gt;Node19</title>
<path fill="none" stroke="#63b8ff" d="M686.02,-281.67C689.28,-271.72 693.25,-259.61 696.29,-250.36"/>
<polygon fill="#63b8ff" stroke="#63b8ff" points="682.62,-280.78 682.83,-291.37 689.28,-282.96 682.62,-280.78"/>
</g>
<!-- Node19&#45;&gt;Node3 -->
<g id="edge31" class="edge">
<title>Node19&#45;&gt;Node3</title>
<path fill="none" stroke="#63b8ff" d="M675.81,-213.53C663.48,-203.51 649.28,-191.98 639.79,-184.27"/>
<polygon fill="#63b8ff" stroke="#63b8ff" points="673.6,-216.25 683.57,-219.84 678.02,-210.82 673.6,-216.25"/>
</g>
<!-- Node20&#45;&gt;Node2 -->
<g id="edge34" class="edge">
<title>Node20&#45;&gt;Node2</title>
<path fill="none" stroke="#63b8ff" d="M262.54,-348.89C223.81,-336.5 173.1,-320.27 142.62,-310.52"/>
<polygon fill="#63b8ff" stroke="#63b8ff" points="261.52,-352.24 272.11,-351.95 263.65,-345.57 261.52,-352.24"/>
</g>
<!-- Node20&#45;&gt;Node4 -->
<g id="edge33" class="edge">
<title>Node20&#45;&gt;Node4</title>
<path fill="none" stroke="#63b8ff" d="M298.28,-343.44C280.59,-318.59 256,-276.73 256,-236 256,-236 256,-236 256,-173.5 256,-109.37 462.01,-80.91 567.82,-70.52"/>
<polygon fill="#63b8ff" stroke="#63b8ff" points="295.68,-345.81 304.43,-351.79 301.32,-341.66 295.68,-345.81"/>
</g>
<!-- Node21&#45;&gt;Node4 -->
<g id="edge38" class="edge">
<title>Node21&#45;&gt;Node4</title>
<path fill="none" stroke="#63b8ff" d="M166.9,-157.97C184.32,-142.95 212.96,-120.91 242,-110 300.17,-88.15 474.21,-74.74 567.82,-68.91"/>
<polygon fill="#63b8ff" stroke="#63b8ff" points="164.46,-155.45 159.29,-164.7 169.1,-160.69 164.46,-155.45"/>
</g>
<!-- Node22&#45;&gt;Node3 -->
<g id="edge40" class="edge">
<title>Node22&#45;&gt;Node3</title>
<path fill="none" stroke="#63b8ff" d="M442.38,-222.97C486.84,-211.66 555.04,-194.31 595.52,-184.02"/>
<polygon fill="#63b8ff" stroke="#63b8ff" points="441.27,-219.64 432.44,-225.49 443,-226.42 441.27,-219.64"/>
</g>
<!-- Node23&#45;&gt;Node3 -->
<g id="edge42" class="edge">
<title>Node23&#45;&gt;Node3</title>
<path fill="none" stroke="#63b8ff" d="M878.69,-349.39C870.9,-339.94 861.38,-327.69 854,-316 828.54,-275.66 843.19,-249.87 806,-220 773.64,-194.01 728.05,-182.96 691.24,-178.38"/>
<polygon fill="#63b8ff" stroke="#63b8ff" points="876.13,-351.78 885.24,-357.18 881.49,-347.28 876.13,-351.78"/>
</g>
<!-- Node23&#45;&gt;Node17 -->
<g id="edge43" class="edge">
<title>Node23&#45;&gt;Node17</title>
<path fill="none" stroke="#63b8ff" d="M908.6,-350.16C918.78,-339.81 931.98,-326.4 941.86,-316.36"/>
<polygon fill="#63b8ff" stroke="#63b8ff" points="906.02,-347.79 901.5,-357.37 911.01,-352.7 906.02,-347.79"/>
</g>
<!-- Node24&#45;&gt;Node3 -->
<g id="edge45" class="edge">
<title>Node24&#45;&gt;Node3</title>
<path fill="none" stroke="#63b8ff" d="M575.42,-219.04C589.01,-207.99 607.04,-193.34 618.33,-184.17"/>
<polygon fill="#63b8ff" stroke="#63b8ff" points="573.18,-216.35 567.62,-225.37 577.59,-221.78 573.18,-216.35"/>
</g>
</g>
</svg>
