<?xml version="1.0" encoding="UTF-8" standalone="no"?>
<!DOCTYPE svg PUBLIC "-//W3C//DTD SVG 1.1//EN"
 "http://www.w3.org/Graphics/SVG/1.1/DTD/svg11.dtd">
<!-- Generated by graphviz version 2.43.0 (0)
 -->
<!-- Title: include/ccf/actors.h Pages: 1 -->
<!--zoomable 566 -->
<svg id="main" version="1.1" xmlns="http://www.w3.org/2000/svg" xmlns:xlink="http://www.w3.org/1999/xlink" xml:space="preserve" onload="init(evt)">
<style type="text/css"><![CDATA[
.edge:hover path { stroke: red; }
.edge:hover polygon { stroke: red; fill: red; }
]]></style>
<script type="text/javascript"><![CDATA[
var edges = document.getElementsByTagName('g');
if (edges && edges.length) {
  for (var i=0;i<edges.length;i++) {
    if (edges[i].id.substr(0,4)=='edge') {
      edges[i].setAttribute('class','edge');
    }
  }
}
]]></script>
        <defs>
                <circle id="rim" cx="0" cy="0" r="7"/>
                <circle id="rim2" cx="0" cy="0" r="3.5"/>
                <g id="zoomPlus">
                        <use xlink:href="#rim" fill="#404040">
                                <set attributeName="fill" to="#808080" begin="zoomplus.mouseover" end="zoomplus.mouseout"/>
                        </use>
                        <path d="M-4,0h8M0,-4v8" fill="none" stroke="white" stroke-width="1.5" pointer-events="none"/>
                </g>
                <g id="zoomMin">
                        <use xlink:href="#rim" fill="#404040">
                                <set attributeName="fill" to="#808080" begin="zoomminus.mouseover" end="zoomminus.mouseout"/>
                        </use>
                        <path d="M-4,0h8" fill="none" stroke="white" stroke-width="1.5" pointer-events="none"/>
                </g>
                <g id="dirArrow">
                        <path fill="none" stroke="white" stroke-width="1.5" d="M0,-3.0v7 M-2.5,-0.5L0,-3.0L2.5,-0.5"/>
                </g>
               <g id="resetDef">
                       <use xlink:href="#rim2" fill="#404040">
                               <set attributeName="fill" to="#808080" begin="reset.mouseover" end="reset.mouseout"/>
                       </use>
               </g>
        </defs>

<script type="text/javascript">
var viewWidth = 2408;
var viewHeight = 566;
var sectionId = 'dynsection-1';
</script>
<script xlink:href="svgpan.js"/>
<svg id="graph" class="graph">
<g id="viewport">
<title>include/ccf/actors.h</title>
<!-- Node1 -->
<g id="node1" class="node">
<title>Node1</title>
<g id="a_node1"><a xlink:title=" ">
<polygon fill="#999999" stroke="#666666" points="1902.39,-558 1791.39,-558 1791.39,-539 1902.39,-539 1902.39,-558"/>
<text text-anchor="middle" x="1846.89" y="-546" font-family="Helvetica,sans-Serif" font-size="10.00">include/ccf/actors.h</text>
</a>
</g>
</g>
<!-- Node2 -->
<g id="node2" class="node">
<title>Node2</title>
<g id="a_node2"><a xlink:href="app__interface_8h.html" target="_top" xlink:title=" ">
<polygon fill="white" stroke="#666666" points="748.89,-393 600.89,-393 600.89,-374 748.89,-374 748.89,-393"/>
<text text-anchor="middle" x="674.89" y="-381" font-family="Helvetica,sans-Serif" font-size="10.00">include/ccf/app_interface.h</text>
</a>
</g>
</g>
<!-- Node1&#45;&gt;Node2 -->
<g id="edge1" class="edge">
<title>Node1&#45;&gt;Node2</title>
<path fill="none" stroke="#63b8ff" d="M1781.03,-538.34C1573.8,-509.52 937,-420.95 736.21,-393.03"/>
<polygon fill="#63b8ff" stroke="#63b8ff" points="1780.76,-541.84 1791.15,-539.75 1781.73,-534.9 1780.76,-541.84"/>
</g>
<!-- Node19 -->
<g id="node19" class="node">
<title>Node19</title>
<g id="a_node19"><a xlink:href="rpc__map_8h.html" target="_top" xlink:title=" ">
<polygon fill="white" stroke="#666666" points="1832.89,-503 1706.89,-503 1706.89,-484 1832.89,-484 1832.89,-503"/>
<text text-anchor="middle" x="1769.89" y="-491" font-family="Helvetica,sans-Serif" font-size="10.00">src/enclave/rpc_map.h</text>
</a>
</g>
</g>
<!-- Node1&#45;&gt;Node19 -->
<g id="edge22" class="edge">
<title>Node1&#45;&gt;Node19</title>
<path fill="none" stroke="#63b8ff" d="M1826.04,-533.15C1812.13,-523.57 1794.28,-511.29 1782.49,-503.17"/>
<polygon fill="#63b8ff" stroke="#63b8ff" points="1824.3,-536.2 1834.52,-538.98 1828.27,-530.43 1824.3,-536.2"/>
</g>
<!-- Node33 -->
<g id="node33" class="node">
<title>Node33</title>
<g id="a_node33"><a xlink:href="acme__challenge__frontend_8h.html" target="_top" xlink:title=" ">
<polygon fill="white" stroke="#666666" points="2376.89,-338 2236.89,-338 2236.89,-308 2376.89,-308 2376.89,-338"/>
<text text-anchor="start" x="2244.89" y="-326" font-family="Helvetica,sans-Serif" font-size="10.00">src/node/acme_challenge</text>
<text text-anchor="middle" x="2306.89" y="-315" font-family="Helvetica,sans-Serif" font-size="10.00">_frontend.h</text>
</a>
</g>
</g>
<!-- Node1&#45;&gt;Node33 -->
<g id="edge65" class="edge">
<title>Node1&#45;&gt;Node33</title>
<path fill="none" stroke="#63b8ff" d="M1912.48,-542.75C1989.31,-534.35 2117.46,-511.24 2206.89,-448 2250.02,-417.5 2284.46,-363.49 2299.16,-338.02"/>
<polygon fill="#63b8ff" stroke="#63b8ff" points="1912.03,-539.27 1902.45,-543.79 1912.76,-546.24 1912.03,-539.27"/>
</g>
<!-- Node37 -->
<g id="node37" class="node">
<title>Node37</title>
<g id="a_node37"><a xlink:href="http__rpc__context_8h.html" target="_top" xlink:title=" ">
<polygon fill="white" stroke="#666666" points="2041.39,-503 1894.39,-503 1894.39,-484 2041.39,-484 2041.39,-503"/>
<text text-anchor="middle" x="1967.89" y="-491" font-family="Helvetica,sans-Serif" font-size="10.00">src/http/http_rpc_context.h</text>
</a>
</g>
</g>
<!-- Node1&#45;&gt;Node37 -->
<g id="edge58" class="edge">
<title>Node1&#45;&gt;Node37</title>
<path fill="none" stroke="#63b8ff" d="M1875.66,-534.9C1898.01,-525.11 1928.41,-511.79 1948.1,-503.17"/>
<polygon fill="#63b8ff" stroke="#63b8ff" points="1874.09,-531.77 1866.33,-538.98 1876.9,-538.18 1874.09,-531.77"/>
</g>
<!-- Node3 -->
<g id="node3" class="node">
<title>Node3</title>
<g id="a_node3"><a xlink:href="basic_8cpp.html" target="_top" xlink:title=" ">
<polygon fill="white" stroke="#666666" points="731.39,-338 618.39,-338 618.39,-308 731.39,-308 731.39,-338"/>
<text text-anchor="start" x="626.39" y="-326" font-family="Helvetica,sans-Serif" font-size="10.00">samples/apps/basic</text>
<text text-anchor="middle" x="674.89" y="-315" font-family="Helvetica,sans-Serif" font-size="10.00">/basic.cpp</text>
</a>
</g>
</g>
<!-- Node2&#45;&gt;Node3 -->
<g id="edge2" class="edge">
<title>Node2&#45;&gt;Node3</title>
<path fill="none" stroke="#63b8ff" d="M674.89,-363.65C674.89,-355.36 674.89,-345.78 674.89,-338.11"/>
<polygon fill="#63b8ff" stroke="#63b8ff" points="671.39,-363.87 674.89,-373.87 678.39,-363.87 671.39,-363.87"/>
</g>
<!-- Node4 -->
<g id="node4" class="node">
<title>Node4</title>
<g id="a_node4"><a xlink:href="logging_8cpp.html" target="_top" xlink:title=" ">
<polygon fill="white" stroke="#666666" points="872.39,-338 749.39,-338 749.39,-308 872.39,-308 872.39,-338"/>
<text text-anchor="start" x="757.39" y="-326" font-family="Helvetica,sans-Serif" font-size="10.00">samples/apps/logging</text>
<text text-anchor="middle" x="810.89" y="-315" font-family="Helvetica,sans-Serif" font-size="10.00">/logging.cpp</text>
</a>
</g>
</g>
<!-- Node2&#45;&gt;Node4 -->
<g id="edge3" class="edge">
<title>Node2&#45;&gt;Node4</title>
<path fill="none" stroke="#63b8ff" d="M704.06,-369.95C725.83,-360.59 755.61,-347.78 778.19,-338.06"/>
<polygon fill="#63b8ff" stroke="#63b8ff" points="702.47,-366.83 694.67,-373.99 705.24,-373.26 702.47,-366.83"/>
</g>
<!-- Node5 -->
<g id="node5" class="node">
<title>Node5</title>
<g id="a_node5"><a xlink:href="nobuiltins_8cpp.html" target="_top" xlink:title=" ">
<polygon fill="white" stroke="#666666" points="1025.39,-338 890.39,-338 890.39,-308 1025.39,-308 1025.39,-338"/>
<text text-anchor="start" x="898.39" y="-326" font-family="Helvetica,sans-Serif" font-size="10.00">samples/apps/nobuiltins</text>
<text text-anchor="middle" x="957.89" y="-315" font-family="Helvetica,sans-Serif" font-size="10.00">/nobuiltins.cpp</text>
</a>
</g>
</g>
<!-- Node2&#45;&gt;Node5 -->
<g id="edge4" class="edge">
<title>Node2&#45;&gt;Node5</title>
<path fill="none" stroke="#63b8ff" d="M726.07,-371.92C771.99,-362.43 839.72,-348.43 890.13,-338.01"/>
<polygon fill="#63b8ff" stroke="#63b8ff" points="725.13,-368.54 716.04,-373.99 726.54,-375.4 725.13,-368.54"/>
</g>
<!-- Node6 -->
<g id="node6" class="node">
<title>Node6</title>
<g id="a_node6"><a xlink:href="executor__auth__policy_8h.html" target="_top" xlink:title=" ">
<polygon fill="white" stroke="#666666" points="1191.89,-338 1043.89,-338 1043.89,-308 1191.89,-308 1191.89,-338"/>
<text text-anchor="start" x="1051.89" y="-326" font-family="Helvetica,sans-Serif" font-size="10.00">src/apps/external_executor</text>
<text text-anchor="middle" x="1117.89" y="-315" font-family="Helvetica,sans-Serif" font-size="10.00">/executor_auth_policy.h</text>
</a>
</g>
</g>
<!-- Node2&#45;&gt;Node6 -->
<g id="edge5" class="edge">
<title>Node2&#45;&gt;Node6</title>
<path fill="none" stroke="#63b8ff" d="M759.2,-373.14C832.25,-364.78 940.71,-351.76 1034.89,-338 1037.78,-337.58 1040.73,-337.14 1043.7,-336.68"/>
<polygon fill="#63b8ff" stroke="#63b8ff" points="758.68,-369.68 749.14,-374.29 759.47,-376.63 758.68,-369.68"/>
</g>
<!-- Node7 -->
<g id="node7" class="node">
<title>Node7</title>
<g id="a_node7"><a xlink:href="external__executor_8cpp.html" target="_top" xlink:title=" ">
<polygon fill="white" stroke="#666666" points="997.89,-206 849.89,-206 849.89,-176 997.89,-176 997.89,-206"/>
<text text-anchor="start" x="857.89" y="-194" font-family="Helvetica,sans-Serif" font-size="10.00">src/apps/external_executor</text>
<text text-anchor="middle" x="923.89" y="-183" font-family="Helvetica,sans-Serif" font-size="10.00">/external_executor.cpp</text>
</a>
</g>
</g>
<!-- Node2&#45;&gt;Node7 -->
<g id="edge10" class="edge">
<title>Node2&#45;&gt;Node7</title>
<path fill="none" stroke="#63b8ff" d="M590.76,-374.53C542.23,-367.99 487.91,-356.69 472.89,-338 457.23,-318.52 473.11,-254.53 486.89,-242 513.16,-218.11 731.95,-202.54 849.63,-195.81"/>
<polygon fill="#63b8ff" stroke="#63b8ff" points="590.33,-378 600.7,-375.81 591.23,-371.06 590.33,-378"/>
</g>
<!-- Node10 -->
<g id="node10" class="node">
<title>Node10</title>
<g id="a_node10"><a xlink:href="js__generic_8cpp.html" target="_top" xlink:title=" ">
<polygon fill="white" stroke="#666666" points="152.89,-272 42.89,-272 42.89,-242 152.89,-242 152.89,-272"/>
<text text-anchor="start" x="50.89" y="-260" font-family="Helvetica,sans-Serif" font-size="10.00">src/apps/js_generic</text>
<text text-anchor="middle" x="97.89" y="-249" font-family="Helvetica,sans-Serif" font-size="10.00">/js_generic.cpp</text>
</a>
</g>
</g>
<!-- Node2&#45;&gt;Node10 -->
<g id="edge11" class="edge">
<title>Node2&#45;&gt;Node10</title>
<path fill="none" stroke="#63b8ff" d="M590.65,-383.16C419.94,-383.61 45.97,-379.77 6.89,-338 -16.54,-312.96 26.76,-287.38 61.31,-272.09"/>
<polygon fill="#63b8ff" stroke="#63b8ff" points="590.87,-386.66 600.86,-383.13 590.84,-379.66 590.87,-386.66"/>
</g>
<!-- Node11 -->
<g id="node11" class="node">
<title>Node11</title>
<g id="a_node11"><a xlink:href="js__generic__base_8cpp.html" target="_top" xlink:title=" ">
<polygon fill="white" stroke="#666666" points="133.89,-338 15.89,-338 15.89,-308 133.89,-308 133.89,-338"/>
<text text-anchor="start" x="23.89" y="-326" font-family="Helvetica,sans-Serif" font-size="10.00">src/apps/js_generic</text>
<text text-anchor="middle" x="74.89" y="-315" font-family="Helvetica,sans-Serif" font-size="10.00">/js_generic_base.cpp</text>
</a>
</g>
</g>
<!-- Node2&#45;&gt;Node11 -->
<g id="edge12" class="edge">
<title>Node2&#45;&gt;Node11</title>
<path fill="none" stroke="#63b8ff" d="M590.31,-378.55C485.07,-372.92 300.03,-360.66 142.89,-338 140.03,-337.59 137.1,-337.13 134.15,-336.64"/>
<polygon fill="#63b8ff" stroke="#63b8ff" points="590.39,-382.06 600.56,-379.09 590.76,-375.07 590.39,-382.06"/>
</g>
<!-- Node12 -->
<g id="node12" class="node">
<title>Node12</title>
<g id="a_node12"><a xlink:href="js__generic__base_8h.html" target="_top" xlink:title=" ">
<polygon fill="white" stroke="#666666" points="261.89,-338 151.89,-338 151.89,-308 261.89,-308 261.89,-338"/>
<text text-anchor="start" x="159.89" y="-326" font-family="Helvetica,sans-Serif" font-size="10.00">src/apps/js_generic</text>
<text text-anchor="middle" x="206.89" y="-315" font-family="Helvetica,sans-Serif" font-size="10.00">/js_generic_base.h</text>
</a>
</g>
</g>
<!-- Node2&#45;&gt;Node12 -->
<g id="edge13" class="edge">
<title>Node2&#45;&gt;Node12</title>
<path fill="none" stroke="#63b8ff" d="M590.84,-375.85C508.88,-368.75 380.85,-356.03 270.89,-338 267.97,-337.52 264.99,-337 261.98,-336.44"/>
<polygon fill="#63b8ff" stroke="#63b8ff" points="590.59,-379.34 600.85,-376.71 591.19,-372.37 590.59,-379.34"/>
</g>
<!-- Node13 -->
<g id="node13" class="node">
<title>Node13</title>
<g id="a_node13"><a xlink:href="tpcc_8cpp.html" target="_top" xlink:title=" ">
<polygon fill="white" stroke="#666666" points="425.39,-332.5 280.39,-332.5 280.39,-313.5 425.39,-313.5 425.39,-332.5"/>
<text text-anchor="middle" x="352.89" y="-320.5" font-family="Helvetica,sans-Serif" font-size="10.00">src/apps/tpcc/app/tpcc.cpp</text>
</a>
</g>
</g>
<!-- Node2&#45;&gt;Node13 -->
<g id="edge15" class="edge">
<title>Node2&#45;&gt;Node13</title>
<path fill="none" stroke="#63b8ff" d="M618.05,-372.17C555.95,-360.89 457.62,-343.03 399.77,-332.52"/>
<polygon fill="#63b8ff" stroke="#63b8ff" points="617.6,-375.65 628.07,-373.99 618.86,-368.76 617.6,-375.65"/>
</g>
<!-- Node14 -->
<g id="node14" class="node">
<title>Node14</title>
<g id="a_node14"><a xlink:href="src_2enclave_2enclave_8h.html" target="_top" xlink:title=" ">
<polygon fill="white" stroke="#666666" points="1785.89,-74 1663.89,-74 1663.89,-55 1785.89,-55 1785.89,-74"/>
<text text-anchor="middle" x="1724.89" y="-62" font-family="Helvetica,sans-Serif" font-size="10.00">src/enclave/enclave.h</text>
</a>
</g>
</g>
<!-- Node2&#45;&gt;Node14 -->
<g id="edge16" class="edge">
<title>Node2&#45;&gt;Node14</title>
<path fill="none" stroke="#63b8ff" d="M759.23,-380.71C899.4,-376.95 1168.22,-366.13 1200.89,-338 1228.58,-314.15 1219.89,-294.54 1219.89,-258 1219.89,-258 1219.89,-258 1219.89,-190 1219.89,-152.88 1215.16,-133.51 1243.89,-110 1275.73,-83.94 1541.43,-71.68 1663.72,-67.38"/>
<polygon fill="#63b8ff" stroke="#63b8ff" points="758.86,-377.22 748.96,-380.98 759.04,-384.21 758.86,-377.22"/>
</g>
<!-- Node16 -->
<g id="node16" class="node">
<title>Node16</title>
<g id="a_node16"><a xlink:href="no__plugins_8cpp.html" target="_top" xlink:title=" ">
<polygon fill="white" stroke="#666666" points="599.89,-332.5 481.89,-332.5 481.89,-313.5 599.89,-313.5 599.89,-332.5"/>
<text text-anchor="middle" x="540.89" y="-320.5" font-family="Helvetica,sans-Serif" font-size="10.00">src/js/no_plugins.cpp</text>
</a>
</g>
</g>
<!-- Node2&#45;&gt;Node16 -->
<g id="edge18" class="edge">
<title>Node2&#45;&gt;Node16</title>
<path fill="none" stroke="#63b8ff" d="M646.1,-369.93C620.23,-358.64 582.94,-342.36 560.4,-332.52"/>
<polygon fill="#63b8ff" stroke="#63b8ff" points="644.84,-373.2 655.41,-373.99 647.64,-366.78 644.84,-373.2"/>
</g>
<!-- Node18 -->
<g id="node18" class="node">
<title>Node18</title>
<g id="a_node18"><a xlink:href="user__frontend_8h.html" target="_top" xlink:title=" ">
<polygon fill="white" stroke="#666666" points="1441.39,-332.5 1286.39,-332.5 1286.39,-313.5 1441.39,-313.5 1441.39,-332.5"/>
<text text-anchor="middle" x="1363.89" y="-320.5" font-family="Helvetica,sans-Serif" font-size="10.00">src/node/rpc/user_frontend.h</text>
</a>
</g>
</g>
<!-- Node2&#45;&gt;Node18 -->
<g id="edge20" class="edge">
<title>Node2&#45;&gt;Node18</title>
<path fill="none" stroke="#63b8ff" d="M759.09,-376.53C868.55,-368.6 1065.64,-353.75 1233.89,-338 1251.41,-336.36 1270.23,-334.43 1287.97,-332.54"/>
<polygon fill="#63b8ff" stroke="#63b8ff" points="758.82,-373.04 749.09,-377.25 759.32,-380.02 758.82,-373.04"/>
</g>
<!-- Node6&#45;&gt;Node7 -->
<g id="edge6" class="edge">
<title>Node6&#45;&gt;Node7</title>
<path fill="none" stroke="#63b8ff" d="M1072.6,-303.87C1053.49,-295.36 1031.43,-284.37 1012.89,-272 983.34,-252.28 953.55,-223.21 937.04,-206.08"/>
<polygon fill="#63b8ff" stroke="#63b8ff" points="1071.44,-307.18 1082,-307.96 1074.23,-300.76 1071.44,-307.18"/>
</g>
<!-- Node8 -->
<g id="node8" class="node">
<title>Node8</title>
<g id="a_node8"><a xlink:href="external__executor__indexing_8h.html" target="_top" xlink:title=" ">
<polygon fill="white" stroke="#666666" points="1185.89,-272 1021.89,-272 1021.89,-242 1185.89,-242 1185.89,-272"/>
<text text-anchor="start" x="1029.89" y="-260" font-family="Helvetica,sans-Serif" font-size="10.00">src/apps/external_executor</text>
<text text-anchor="middle" x="1103.89" y="-249" font-family="Helvetica,sans-Serif" font-size="10.00">/external_executor_indexing.h</text>
</a>
</g>
</g>
<!-- Node6&#45;&gt;Node8 -->
<g id="edge7" class="edge">
<title>Node6&#45;&gt;Node8</title>
<path fill="none" stroke="#63b8ff" d="M1112.6,-297.83C1110.71,-289.17 1108.64,-279.7 1106.99,-272.16"/>
<polygon fill="#63b8ff" stroke="#63b8ff" points="1109.23,-298.78 1114.78,-307.8 1116.07,-297.28 1109.23,-298.78"/>
</g>
<!-- Node8&#45;&gt;Node7 -->
<g id="edge8" class="edge">
<title>Node8&#45;&gt;Node7</title>
<path fill="none" stroke="#63b8ff" d="M1054.92,-238.59C1026.15,-228.36 990.24,-215.59 963.3,-206.01"/>
<polygon fill="#63b8ff" stroke="#63b8ff" points="1053.79,-241.9 1064.39,-241.95 1056.14,-235.31 1053.79,-241.9"/>
</g>
<!-- Node9 -->
<g id="node9" class="node">
<title>Node9</title>
<g id="a_node9"><a xlink:href="external__executor__indexing_8cpp.html" target="_top" xlink:title=" ">
<polygon fill="white" stroke="#666666" points="1191.39,-206 1016.39,-206 1016.39,-176 1191.39,-176 1191.39,-206"/>
<text text-anchor="start" x="1024.39" y="-194" font-family="Helvetica,sans-Serif" font-size="10.00">src/apps/external_executor</text>
<text text-anchor="middle" x="1103.89" y="-183" font-family="Helvetica,sans-Serif" font-size="10.00">/external_executor_indexing.cpp</text>
</a>
</g>
</g>
<!-- Node8&#45;&gt;Node9 -->
<g id="edge9" class="edge">
<title>Node8&#45;&gt;Node9</title>
<path fill="none" stroke="#63b8ff" d="M1103.89,-231.54C1103.89,-222.96 1103.89,-213.61 1103.89,-206.16"/>
<polygon fill="#63b8ff" stroke="#63b8ff" points="1100.39,-231.8 1103.89,-241.8 1107.39,-231.8 1100.39,-231.8"/>
</g>
<!-- Node12&#45;&gt;Node10 -->
<g id="edge14" class="edge">
<title>Node12&#45;&gt;Node10</title>
<path fill="none" stroke="#63b8ff" d="M174.01,-302.69C157.18,-292.82 137.08,-281.01 121.75,-272.01"/>
<polygon fill="#63b8ff" stroke="#63b8ff" points="172.57,-305.91 182.97,-307.95 176.12,-299.87 172.57,-305.91"/>
</g>
<!-- Node15 -->
<g id="node15" class="node">
<title>Node15</title>
<g id="a_node15"><a xlink:href="enclave_2main_8cpp.html" target="_top" xlink:title=" ">
<polygon fill="white" stroke="#666666" points="1784.89,-19 1664.89,-19 1664.89,0 1784.89,0 1784.89,-19"/>
<text text-anchor="middle" x="1724.89" y="-7" font-family="Helvetica,sans-Serif" font-size="10.00">src/enclave/main.cpp</text>
</a>
</g>
</g>
<!-- Node14&#45;&gt;Node15 -->
<g id="edge17" class="edge">
<title>Node14&#45;&gt;Node15</title>
<path fill="none" stroke="#63b8ff" d="M1724.89,-44.66C1724.89,-35.93 1724.89,-25.99 1724.89,-19.09"/>
<polygon fill="#63b8ff" stroke="#63b8ff" points="1721.39,-44.75 1724.89,-54.75 1728.39,-44.75 1721.39,-44.75"/>
</g>
<!-- Node17 -->
<g id="node17" class="node">
<title>Node17</title>
<g id="a_node17"><a xlink:href="wrap_8cpp.html" target="_top" xlink:title=" ">
<polygon fill="white" stroke="#666666" points="585.39,-266.5 496.39,-266.5 496.39,-247.5 585.39,-247.5 585.39,-266.5"/>
<text text-anchor="middle" x="540.89" y="-254.5" font-family="Helvetica,sans-Serif" font-size="10.00">src/js/wrap.cpp</text>
</a>
</g>
</g>
<!-- Node16&#45;&gt;Node17 -->
<g id="edge19" class="edge">
<title>Node16&#45;&gt;Node17</title>
<path fill="none" stroke="#63b8ff" d="M540.89,-303.08C540.89,-291.13 540.89,-276.22 540.89,-266.91"/>
<polygon fill="#63b8ff" stroke="#63b8ff" points="537.39,-303.37 540.89,-313.37 544.39,-303.37 537.39,-303.37"/>
</g>
<!-- Node18&#45;&gt;Node14 -->
<g id="edge21" class="edge">
<title>Node18&#45;&gt;Node14</title>
<path fill="none" stroke="#63b8ff" d="M1360.85,-302.97C1355.37,-261.29 1349,-161.54 1402.89,-110 1439.24,-75.24 1581.08,-67.31 1663.89,-65.7"/>
<polygon fill="#63b8ff" stroke="#63b8ff" points="1357.42,-303.71 1362.32,-313.1 1364.34,-302.7 1357.42,-303.71"/>
</g>
<!-- Node19&#45;&gt;Node14 -->
<g id="edge23" class="edge">
<title>Node19&#45;&gt;Node14</title>
<path fill="none" stroke="#63b8ff" d="M1696.52,-492.11C1554.95,-489.37 1257.89,-473.07 1257.89,-384.5 1257.89,-384.5 1257.89,-384.5 1257.89,-190 1257.89,-126.27 1317.24,-132.42 1376.89,-110 1472.67,-74 1592.61,-66.08 1663.75,-64.9"/>
<polygon fill="#63b8ff" stroke="#63b8ff" points="1696.79,-495.62 1706.85,-492.29 1696.92,-488.62 1696.79,-495.62"/>
</g>
<!-- Node20 -->
<g id="node20" class="node">
<title>Node20</title>
<g id="a_node20"><a xlink:href="http2__session_8h.html" target="_top" xlink:title=" ">
<polygon fill="white" stroke="#666666" points="2189.39,-393 2056.39,-393 2056.39,-374 2189.39,-374 2189.39,-393"/>
<text text-anchor="middle" x="2122.89" y="-381" font-family="Helvetica,sans-Serif" font-size="10.00">src/http/http2_session.h</text>
</a>
</g>
</g>
<!-- Node19&#45;&gt;Node20 -->
<g id="edge24" class="edge">
<title>Node19&#45;&gt;Node20</title>
<path fill="none" stroke="#63b8ff" d="M1830.05,-482.08C1870.37,-474.4 1924.4,-462.73 1970.89,-448 2020.78,-432.19 2077.02,-406.54 2105.03,-393.19"/>
<polygon fill="#63b8ff" stroke="#63b8ff" points="1829.28,-478.67 1820.1,-483.95 1830.58,-485.55 1829.28,-478.67"/>
</g>
<!-- Node26 -->
<g id="node26" class="node">
<title>Node26</title>
<g id="a_node26"><a xlink:href="http__session_8h.html" target="_top" xlink:title=" ">
<polygon fill="white" stroke="#666666" points="1961.39,-448 1834.39,-448 1834.39,-429 1961.39,-429 1961.39,-448"/>
<text text-anchor="middle" x="1897.89" y="-436" font-family="Helvetica,sans-Serif" font-size="10.00">src/http/http_session.h</text>
</a>
</g>
</g>
<!-- Node19&#45;&gt;Node26 -->
<g id="edge35" class="edge">
<title>Node19&#45;&gt;Node26</title>
<path fill="none" stroke="#63b8ff" d="M1800.01,-480.03C1823.68,-470.23 1856.04,-456.83 1876.95,-448.17"/>
<polygon fill="#63b8ff" stroke="#63b8ff" points="1798.36,-476.93 1790.46,-483.98 1801.03,-483.39 1798.36,-476.93"/>
</g>
<!-- Node27 -->
<g id="node27" class="node">
<title>Node27</title>
<g id="a_node27"><a xlink:href="node__client_8h.html" target="_top" xlink:title=" ">
<polygon fill="white" stroke="#666666" points="1716.89,-393 1590.89,-393 1590.89,-374 1716.89,-374 1716.89,-393"/>
<text text-anchor="middle" x="1653.89" y="-381" font-family="Helvetica,sans-Serif" font-size="10.00">src/node/node_client.h</text>
</a>
</g>
</g>
<!-- Node19&#45;&gt;Node27 -->
<g id="edge37" class="edge">
<title>Node19&#45;&gt;Node27</title>
<path fill="none" stroke="#63b8ff" d="M1724.37,-480.63C1706.12,-473.8 1686.29,-463.41 1672.89,-448 1659.15,-432.2 1655.34,-406.77 1654.29,-393.39"/>
<polygon fill="#63b8ff" stroke="#63b8ff" points="1723.42,-484 1734.01,-483.98 1725.72,-477.39 1723.42,-484"/>
</g>
<!-- Node31 -->
<g id="node31" class="node">
<title>Node31</title>
<g id="a_node31"><a xlink:href="forwarder_8h.html" target="_top" xlink:title=" ">
<polygon fill="white" stroke="#666666" points="1815.89,-448 1681.89,-448 1681.89,-429 1815.89,-429 1815.89,-448"/>
<text text-anchor="middle" x="1748.89" y="-436" font-family="Helvetica,sans-Serif" font-size="10.00">src/node/rpc/forwarder.h</text>
</a>
</g>
</g>
<!-- Node19&#45;&gt;Node31 -->
<g id="edge44" class="edge">
<title>Node19&#45;&gt;Node31</title>
<path fill="none" stroke="#63b8ff" d="M1762.66,-474.24C1759.14,-465.37 1755.09,-455.14 1752.29,-448.09"/>
<polygon fill="#63b8ff" stroke="#63b8ff" points="1759.48,-475.74 1766.42,-483.75 1765.99,-473.16 1759.48,-475.74"/>
</g>
<!-- Node21 -->
<g id="node21" class="node">
<title>Node21</title>
<g id="a_node21"><a xlink:href="rpc__sessions_8h.html" target="_top" xlink:title=" ">
<polygon fill="white" stroke="#666666" points="2203.89,-332.5 2057.89,-332.5 2057.89,-313.5 2203.89,-313.5 2203.89,-332.5"/>
<text text-anchor="middle" x="2130.89" y="-320.5" font-family="Helvetica,sans-Serif" font-size="10.00">src/enclave/rpc_sessions.h</text>
</a>
</g>
</g>
<!-- Node20&#45;&gt;Node21 -->
<g id="edge25" class="edge">
<title>Node20&#45;&gt;Node21</title>
<path fill="none" stroke="#63b8ff" d="M2125.47,-363.66C2126.89,-353.24 2128.59,-340.8 2129.7,-332.67"/>
<polygon fill="#63b8ff" stroke="#63b8ff" points="2121.96,-363.49 2124.07,-373.87 2128.89,-364.43 2121.96,-363.49"/>
</g>
<!-- Node21&#45;&gt;Node14 -->
<g id="edge26" class="edge">
<title>Node21&#45;&gt;Node14</title>
<path fill="none" stroke="#63b8ff" d="M2147.81,-305.86C2162.77,-289.53 2180.56,-263.68 2168.89,-242 2118.42,-148.22 2067.72,-149.69 1968.89,-110 1909.35,-86.09 1836.46,-74.94 1785.93,-69.79"/>
<polygon fill="#63b8ff" stroke="#63b8ff" points="2144.88,-303.85 2140.41,-313.45 2149.89,-308.73 2144.88,-303.85"/>
</g>
<!-- Node22 -->
<g id="node22" class="node">
<title>Node22</title>
<g id="a_node22"><a xlink:href="ccf__acme__client_8h.html" target="_top" xlink:title=" ">
<polygon fill="white" stroke="#666666" points="2385.39,-266.5 2236.39,-266.5 2236.39,-247.5 2385.39,-247.5 2385.39,-266.5"/>
<text text-anchor="middle" x="2310.89" y="-254.5" font-family="Helvetica,sans-Serif" font-size="10.00">src/node/ccf_acme_client.h</text>
</a>
</g>
</g>
<!-- Node21&#45;&gt;Node22 -->
<g id="edge27" class="edge">
<title>Node21&#45;&gt;Node22</title>
<path fill="none" stroke="#63b8ff" d="M2164.64,-310C2200.18,-297.36 2255.27,-277.78 2286.71,-266.6"/>
<polygon fill="#63b8ff" stroke="#63b8ff" points="2163.42,-306.72 2155.17,-313.37 2165.76,-313.32 2163.42,-306.72"/>
</g>
<!-- Node23 -->
<g id="node23" class="node">
<title>Node23</title>
<g id="a_node23"><a xlink:href="node__state_8h.html" target="_top" xlink:title=" ">
<polygon fill="white" stroke="#666666" points="2012.89,-200.5 1888.89,-200.5 1888.89,-181.5 2012.89,-181.5 2012.89,-200.5"/>
<text text-anchor="middle" x="1950.89" y="-188.5" font-family="Helvetica,sans-Serif" font-size="10.00">src/node/node_state.h</text>
</a>
</g>
</g>
<!-- Node21&#45;&gt;Node23 -->
<g id="edge32" class="edge">
<title>Node21&#45;&gt;Node23</title>
<path fill="none" stroke="#63b8ff" d="M2143.27,-304.7C2154.13,-287.21 2166.14,-260.23 2151.89,-242 2134.84,-220.19 2065.56,-206.52 2013.07,-199.1"/>
<polygon fill="#63b8ff" stroke="#63b8ff" points="2140.16,-303.06 2137.53,-313.33 2145.99,-306.94 2140.16,-303.06"/>
</g>
<!-- Node25 -->
<g id="node25" class="node">
<title>Node25</title>
<g id="a_node25"><a xlink:href="quote__endorsements__client_8h.html" target="_top" xlink:title=" ">
<polygon fill="white" stroke="#666666" points="2142.89,-272 1978.89,-272 1978.89,-242 2142.89,-242 2142.89,-272"/>
<text text-anchor="start" x="1986.89" y="-260" font-family="Helvetica,sans-Serif" font-size="10.00">src/node/quote_endorsements</text>
<text text-anchor="middle" x="2060.89" y="-249" font-family="Helvetica,sans-Serif" font-size="10.00">_client.h</text>
</a>
</g>
</g>
<!-- Node21&#45;&gt;Node25 -->
<g id="edge33" class="edge">
<title>Node21&#45;&gt;Node25</title>
<path fill="none" stroke="#63b8ff" d="M2113.84,-306.41C2102.39,-295.94 2087.43,-282.26 2076.33,-272.12"/>
<polygon fill="#63b8ff" stroke="#63b8ff" points="2111.71,-309.2 2121.45,-313.37 2116.43,-304.04 2111.71,-309.2"/>
</g>
<!-- Node22&#45;&gt;Node23 -->
<g id="edge28" class="edge">
<title>Node22&#45;&gt;Node23</title>
<path fill="none" stroke="#63b8ff" d="M2252.65,-245.65C2182.04,-233.09 2064.37,-212.17 1998.78,-200.51"/>
<polygon fill="#63b8ff" stroke="#63b8ff" points="2252.25,-249.13 2262.71,-247.44 2253.48,-242.24 2252.25,-249.13"/>
</g>
<!-- Node23&#45;&gt;Node14 -->
<g id="edge29" class="edge">
<title>Node23&#45;&gt;Node14</title>
<path fill="none" stroke="#63b8ff" d="M1956.65,-171.56C1960.98,-153.73 1964.02,-126.98 1949.89,-110 1929.36,-85.32 1845.42,-74.08 1786.1,-69.13"/>
<polygon fill="#63b8ff" stroke="#63b8ff" points="1953.24,-170.77 1953.93,-181.34 1959.98,-172.65 1953.24,-170.77"/>
</g>
<!-- Node24 -->
<g id="node24" class="node">
<title>Node24</title>
<g id="a_node24"><a xlink:href="gov__effects_8h.html" target="_top" xlink:title=" ">
<polygon fill="white" stroke="#666666" points="1940.89,-134.5 1796.89,-134.5 1796.89,-115.5 1940.89,-115.5 1940.89,-134.5"/>
<text text-anchor="middle" x="1868.89" y="-122.5" font-family="Helvetica,sans-Serif" font-size="10.00">src/node/rpc/gov_effects.h</text>
</a>
</g>
</g>
<!-- Node23&#45;&gt;Node24 -->
<g id="edge30" class="edge">
<title>Node23&#45;&gt;Node24</title>
<path fill="none" stroke="#63b8ff" d="M1931.66,-174.99C1915.6,-162.46 1893.28,-145.04 1880.04,-134.7"/>
<polygon fill="#63b8ff" stroke="#63b8ff" points="1929.79,-177.98 1939.83,-181.37 1934.1,-172.46 1929.79,-177.98"/>
</g>
<!-- Node24&#45;&gt;Node14 -->
<g id="edge31" class="edge">
<title>Node24&#45;&gt;Node14</title>
<path fill="none" stroke="#63b8ff" d="M1838.32,-111.58C1810.5,-100.28 1770.18,-83.9 1745.85,-74.02"/>
<polygon fill="#63b8ff" stroke="#63b8ff" points="1837.37,-114.97 1847.95,-115.49 1840,-108.49 1837.37,-114.97"/>
</g>
<!-- Node25&#45;&gt;Node23 -->
<g id="edge34" class="edge">
<title>Node25&#45;&gt;Node23</title>
<path fill="none" stroke="#63b8ff" d="M2027.91,-236.81C2007.15,-224.73 1981.37,-209.73 1965.53,-200.52"/>
<polygon fill="#63b8ff" stroke="#63b8ff" points="2026.35,-239.95 2036.75,-241.95 2029.87,-233.9 2026.35,-239.95"/>
</g>
<!-- Node26&#45;&gt;Node21 -->
<g id="edge36" class="edge">
<title>Node26&#45;&gt;Node21</title>
<path fill="none" stroke="#63b8ff" d="M1924.56,-424.51C1972.64,-401.09 2072.58,-352.41 2113.17,-332.63"/>
<polygon fill="#63b8ff" stroke="#63b8ff" points="1922.86,-421.44 1915.4,-428.97 1925.93,-427.74 1922.86,-421.44"/>
</g>
<!-- Node28 -->
<g id="node28" class="node">
<title>Node28</title>
<g id="a_node28"><a xlink:href="raft_8h.html" target="_top" xlink:title=" ">
<polygon fill="white" stroke="#666666" points="1574.39,-266.5 1445.39,-266.5 1445.39,-247.5 1574.39,-247.5 1574.39,-266.5"/>
<text text-anchor="middle" x="1509.89" y="-254.5" font-family="Helvetica,sans-Serif" font-size="10.00">src/consensus/aft/raft.h</text>
</a>
</g>
</g>
<!-- Node27&#45;&gt;Node28 -->
<g id="edge38" class="edge">
<title>Node27&#45;&gt;Node28</title>
<path fill="none" stroke="#63b8ff" d="M1653.71,-363.92C1652.59,-347.39 1648.48,-323.49 1634.89,-308 1615.55,-285.95 1585.13,-273.5 1559.14,-266.54"/>
<polygon fill="#63b8ff" stroke="#63b8ff" points="1650.21,-364.14 1654.09,-374 1657.21,-363.88 1650.21,-364.14"/>
</g>
<!-- Node29 -->
<g id="node29" class="node">
<title>Node29</title>
<g id="a_node29"><a xlink:href="http__node__client_8h.html" target="_top" xlink:title=" ">
<polygon fill="white" stroke="#666666" points="1702.89,-272 1592.89,-272 1592.89,-242 1702.89,-242 1702.89,-272"/>
<text text-anchor="start" x="1600.89" y="-260" font-family="Helvetica,sans-Serif" font-size="10.00">src/node/http_node</text>
<text text-anchor="middle" x="1647.89" y="-249" font-family="Helvetica,sans-Serif" font-size="10.00">_client.h</text>
</a>
</g>
</g>
<!-- Node27&#45;&gt;Node29 -->
<g id="edge40" class="edge">
<title>Node27&#45;&gt;Node29</title>
<path fill="none" stroke="#63b8ff" d="M1661.04,-364.18C1663.76,-356.26 1666.54,-346.81 1667.89,-338 1669.91,-324.82 1670.41,-321.09 1667.89,-308 1665.45,-295.33 1659.83,-281.79 1655.17,-272"/>
<polygon fill="#63b8ff" stroke="#63b8ff" points="1657.66,-363.23 1657.49,-373.82 1664.23,-365.65 1657.66,-363.23"/>
</g>
<!-- Node30 -->
<g id="node30" class="node">
<title>Node30</title>
<g id="a_node30"><a xlink:href="retired__nodes__cleanup_8h.html" target="_top" xlink:title=" ">
<polygon fill="white" stroke="#666666" points="1625.89,-338 1497.89,-338 1497.89,-308 1625.89,-308 1625.89,-338"/>
<text text-anchor="start" x="1505.89" y="-326" font-family="Helvetica,sans-Serif" font-size="10.00">src/node/retired_nodes</text>
<text text-anchor="middle" x="1561.89" y="-315" font-family="Helvetica,sans-Serif" font-size="10.00">_cleanup.h</text>
</a>
</g>
</g>
<!-- Node27&#45;&gt;Node30 -->
<g id="edge42" class="edge">
<title>Node27&#45;&gt;Node30</title>
<path fill="none" stroke="#63b8ff" d="M1631.55,-368.29C1617.14,-359.13 1598.47,-347.26 1584.09,-338.11"/>
<polygon fill="#63b8ff" stroke="#63b8ff" points="1630,-371.46 1640.32,-373.87 1633.75,-365.55 1630,-371.46"/>
</g>
<!-- Node28&#45;&gt;Node23 -->
<g id="edge39" class="edge">
<title>Node28&#45;&gt;Node23</title>
<path fill="none" stroke="#63b8ff" d="M1563.02,-245.61C1570.03,-244.34 1577.13,-243.1 1583.89,-242 1690.68,-224.64 1815.62,-208.5 1888.73,-199.48"/>
<polygon fill="#63b8ff" stroke="#63b8ff" points="1562.07,-242.22 1552.87,-247.48 1563.34,-249.11 1562.07,-242.22"/>
</g>
<!-- Node29&#45;&gt;Node23 -->
<g id="edge41" class="edge">
<title>Node29&#45;&gt;Node23</title>
<path fill="none" stroke="#63b8ff" d="M1713.24,-242.2C1773.21,-229.53 1860.16,-211.16 1910.57,-200.52"/>
<polygon fill="#63b8ff" stroke="#63b8ff" points="1712.17,-238.84 1703.11,-244.34 1713.62,-245.69 1712.17,-238.84"/>
</g>
<!-- Node30&#45;&gt;Node28 -->
<g id="edge43" class="edge">
<title>Node30&#45;&gt;Node28</title>
<path fill="none" stroke="#63b8ff" d="M1543.97,-299.94C1534.74,-288.58 1523.99,-275.36 1517.08,-266.84"/>
<polygon fill="#63b8ff" stroke="#63b8ff" points="1541.33,-302.24 1550.35,-307.8 1546.76,-297.83 1541.33,-302.24"/>
</g>
<!-- Node31&#45;&gt;Node14 -->
<g id="edge45" class="edge">
<title>Node31&#45;&gt;Node14</title>
<path fill="none" stroke="#63b8ff" d="M1676.72,-427.01C1595.6,-410.57 1470.78,-369.78 1436.89,-272 1396.54,-155.59 1595.54,-94.95 1684.12,-74.05"/>
<polygon fill="#63b8ff" stroke="#63b8ff" points="1676.4,-430.51 1686.88,-428.99 1677.73,-423.64 1676.4,-430.51"/>
</g>
<!-- Node32 -->
<g id="node32" class="node">
<title>Node32</title>
<g id="a_node32"><a xlink:href="frontend_8h.html" target="_top" xlink:title=" ">
<polygon fill="white" stroke="#666666" points="1880.39,-393 1751.39,-393 1751.39,-374 1880.39,-374 1880.39,-393"/>
<text text-anchor="middle" x="1815.89" y="-381" font-family="Helvetica,sans-Serif" font-size="10.00">src/node/rpc/frontend.h</text>
</a>
</g>
</g>
<!-- Node31&#45;&gt;Node32 -->
<g id="edge46" class="edge">
<title>Node31&#45;&gt;Node32</title>
<path fill="none" stroke="#63b8ff" d="M1767.73,-422.6C1779.73,-413.11 1794.86,-401.13 1804.93,-393.17"/>
<polygon fill="#63b8ff" stroke="#63b8ff" points="1765.33,-420.04 1759.65,-428.98 1769.67,-425.53 1765.33,-420.04"/>
</g>
<!-- Node32&#45;&gt;Node18 -->
<g id="edge57" class="edge">
<title>Node32&#45;&gt;Node18</title>
<path fill="none" stroke="#63b8ff" d="M1741.08,-372.82C1654.25,-361.58 1512.4,-343.22 1429.63,-332.51"/>
<polygon fill="#63b8ff" stroke="#63b8ff" points="1740.76,-376.31 1751.13,-374.12 1741.66,-369.36 1740.76,-376.31"/>
</g>
<!-- Node32&#45;&gt;Node23 -->
<g id="edge50" class="edge">
<title>Node32&#45;&gt;Node23</title>
<path fill="none" stroke="#63b8ff" d="M1874.2,-370.96C1893.32,-364.36 1912.96,-354.06 1925.89,-338 1959.6,-296.14 1954.93,-225.32 1952.08,-200.72"/>
<polygon fill="#63b8ff" stroke="#63b8ff" points="1873.07,-367.64 1864.59,-373.99 1875.18,-374.32 1873.07,-367.64"/>
</g>
<!-- Node32&#45;&gt;Node33 -->
<g id="edge47" class="edge">
<title>Node32&#45;&gt;Node33</title>
<path fill="none" stroke="#63b8ff" d="M1890.58,-374.94C1970.45,-366.67 2100.77,-352.63 2212.89,-338 2220.66,-336.99 2228.79,-335.87 2236.86,-334.72"/>
<polygon fill="#63b8ff" stroke="#63b8ff" points="1890.2,-371.46 1880.61,-375.97 1890.92,-378.43 1890.2,-371.46"/>
</g>
<!-- Node34 -->
<g id="node34" class="node">
<title>Node34</title>
<g id="a_node34"><a xlink:href="member__frontend_8h.html" target="_top" xlink:title=" ">
<polygon fill="white" stroke="#666666" points="1740.89,-140 1620.89,-140 1620.89,-110 1740.89,-110 1740.89,-140"/>
<text text-anchor="start" x="1628.89" y="-128" font-family="Helvetica,sans-Serif" font-size="10.00">src/node/rpc/member</text>
<text text-anchor="middle" x="1680.89" y="-117" font-family="Helvetica,sans-Serif" font-size="10.00">_frontend.h</text>
</a>
</g>
</g>
<!-- Node32&#45;&gt;Node34 -->
<g id="edge51" class="edge">
<title>Node32&#45;&gt;Node34</title>
<path fill="none" stroke="#63b8ff" d="M1787.69,-369.05C1774.57,-361.54 1759.73,-351.05 1749.89,-338 1737.45,-321.5 1697.77,-185.07 1684.94,-140.23"/>
<polygon fill="#63b8ff" stroke="#63b8ff" points="1786.37,-372.32 1796.84,-373.99 1789.7,-366.16 1786.37,-372.32"/>
</g>
<!-- Node35 -->
<g id="node35" class="node">
<title>Node35</title>
<g id="a_node35"><a xlink:href="node__frontend_8h.html" target="_top" xlink:title=" ">
<polygon fill="white" stroke="#666666" points="1916.89,-332.5 1758.89,-332.5 1758.89,-313.5 1916.89,-313.5 1916.89,-332.5"/>
<text text-anchor="middle" x="1837.89" y="-320.5" font-family="Helvetica,sans-Serif" font-size="10.00">src/node/rpc/node_frontend.h</text>
</a>
</g>
</g>
<!-- Node32&#45;&gt;Node35 -->
<g id="edge53" class="edge">
<title>Node32&#45;&gt;Node35</title>
<path fill="none" stroke="#63b8ff" d="M1822.73,-364.32C1826.69,-353.78 1831.51,-340.98 1834.63,-332.67"/>
<polygon fill="#63b8ff" stroke="#63b8ff" points="1819.38,-363.28 1819.14,-373.87 1825.93,-365.74 1819.38,-363.28"/>
</g>
<!-- Node33&#45;&gt;Node14 -->
<g id="edge48" class="edge">
<title>Node33&#45;&gt;Node14</title>
<path fill="none" stroke="#63b8ff" d="M2360.14,-303.29C2373.87,-295.77 2386.99,-285.58 2394.89,-272 2401.6,-260.48 2402.59,-252.89 2394.89,-242 2323.81,-141.44 1937.84,-88.83 1786.15,-71.8"/>
<polygon fill="#63b8ff" stroke="#63b8ff" points="2358.44,-300.23 2351.09,-307.85 2361.59,-306.48 2358.44,-300.23"/>
</g>
<!-- Node33&#45;&gt;Node22 -->
<g id="edge49" class="edge">
<title>Node33&#45;&gt;Node22</title>
<path fill="none" stroke="#63b8ff" d="M2308.42,-297.6C2309.09,-286.8 2309.84,-274.78 2310.34,-266.84"/>
<polygon fill="#63b8ff" stroke="#63b8ff" points="2304.91,-297.6 2307.78,-307.8 2311.9,-298.03 2304.91,-297.6"/>
</g>
<!-- Node34&#45;&gt;Node14 -->
<g id="edge52" class="edge">
<title>Node34&#45;&gt;Node14</title>
<path fill="none" stroke="#63b8ff" d="M1697.59,-101.8C1704.8,-92.21 1712.83,-81.54 1718.3,-74.27"/>
<polygon fill="#63b8ff" stroke="#63b8ff" points="1694.76,-99.74 1691.54,-109.84 1700.35,-103.95 1694.76,-99.74"/>
</g>
<!-- Node35&#45;&gt;Node14 -->
<g id="edge54" class="edge">
<title>Node35&#45;&gt;Node14</title>
<path fill="none" stroke="#63b8ff" d="M1818.62,-306.83C1808.34,-297.77 1796.32,-285.42 1788.89,-272 1753.01,-207.21 1776.95,-178.94 1749.89,-110 1744.71,-96.8 1736.24,-82.72 1730.61,-74.01"/>
<polygon fill="#63b8ff" stroke="#63b8ff" points="1816.46,-309.59 1826.36,-313.36 1820.97,-304.24 1816.46,-309.59"/>
</g>
<!-- Node36 -->
<g id="node36" class="node">
<title>Node36</title>
<g id="a_node36"><a xlink:href="jwt__key__auto__refresh_8h.html" target="_top" xlink:title=" ">
<polygon fill="white" stroke="#666666" points="1922.39,-272 1797.39,-272 1797.39,-242 1922.39,-242 1922.39,-272"/>
<text text-anchor="start" x="1805.39" y="-260" font-family="Helvetica,sans-Serif" font-size="10.00">src/node/jwt_key_auto</text>
<text text-anchor="middle" x="1859.89" y="-249" font-family="Helvetica,sans-Serif" font-size="10.00">_refresh.h</text>
</a>
</g>
</g>
<!-- Node35&#45;&gt;Node36 -->
<g id="edge55" class="edge">
<title>Node35&#45;&gt;Node36</title>
<path fill="none" stroke="#63b8ff" d="M1844.19,-303.67C1847.61,-293.72 1851.77,-281.61 1854.95,-272.36"/>
<polygon fill="#63b8ff" stroke="#63b8ff" points="1840.8,-302.77 1840.86,-313.37 1847.42,-305.05 1840.8,-302.77"/>
</g>
<!-- Node36&#45;&gt;Node23 -->
<g id="edge56" class="edge">
<title>Node36&#45;&gt;Node23</title>
<path fill="none" stroke="#63b8ff" d="M1888.51,-235.87C1905.35,-224.03 1925.8,-209.65 1938.58,-200.66"/>
<polygon fill="#63b8ff" stroke="#63b8ff" points="1886.25,-233.18 1880.09,-241.8 1890.28,-238.91 1886.25,-233.18"/>
</g>
<!-- Node37&#45;&gt;Node20 -->
<g id="edge61" class="edge">
<title>Node37&#45;&gt;Node20</title>
<path fill="none" stroke="#63b8ff" d="M2051.81,-486.65C2107.41,-480.83 2173.24,-469.52 2190.89,-448 2208.71,-426.27 2170.89,-404.74 2144.84,-393.18"/>
<polygon fill="#63b8ff" stroke="#63b8ff" points="2051.16,-483.2 2041.56,-487.68 2051.86,-490.17 2051.16,-483.2"/>
</g>
<!-- Node37&#45;&gt;Node26 -->
<g id="edge62" class="edge">
<title>Node37&#45;&gt;Node26</title>
<path fill="none" stroke="#63b8ff" d="M1948.58,-477.88C1935.98,-468.34 1919.96,-456.21 1909.34,-448.17"/>
<polygon fill="#63b8ff" stroke="#63b8ff" points="1946.56,-480.74 1956.64,-483.98 1950.78,-475.16 1946.56,-480.74"/>
</g>
<!-- Node37&#45;&gt;Node31 -->
<g id="edge64" class="edge">
<title>Node37&#45;&gt;Node31</title>
<path fill="none" stroke="#63b8ff" d="M1922.96,-481.63C1881.94,-471.7 1822.1,-457.22 1784.35,-448.08"/>
<polygon fill="#63b8ff" stroke="#63b8ff" points="1922.16,-485.03 1932.7,-483.98 1923.81,-478.23 1922.16,-485.03"/>
</g>
<!-- Node37&#45;&gt;Node36 -->
<g id="edge63" class="edge">
<title>Node37&#45;&gt;Node36</title>
<path fill="none" stroke="#63b8ff" d="M1970.99,-473.54C1972.53,-460.84 1973.55,-443.8 1970.89,-429 1960.73,-372.53 1960.12,-354.05 1925.89,-308 1915,-293.35 1898.67,-280.93 1884.98,-272.13"/>
<polygon fill="#63b8ff" stroke="#63b8ff" points="1967.48,-473.4 1969.52,-483.79 1974.41,-474.39 1967.48,-473.4"/>
</g>
<!-- Node38 -->
<g id="node38" class="node">
<title>Node38</title>
<g id="a_node38"><a xlink:href="http2__parser_8h.html" target="_top" xlink:title=" ">
<polygon fill="white" stroke="#666666" points="2181.89,-448 2055.89,-448 2055.89,-429 2181.89,-429 2181.89,-448"/>
<text text-anchor="middle" x="2118.89" y="-436" font-family="Helvetica,sans-Serif" font-size="10.00">src/http/http2_parser.h</text>
</a>
</g>
</g>
<!-- Node37&#45;&gt;Node38 -->
<g id="edge59" class="edge">
<title>Node37&#45;&gt;Node38</title>
<path fill="none" stroke="#63b8ff" d="M2001.94,-480.55C2029.98,-470.71 2069.07,-456.98 2094.19,-448.17"/>
<polygon fill="#63b8ff" stroke="#63b8ff" points="2000.43,-477.37 1992.15,-483.98 2002.75,-483.98 2000.43,-477.37"/>
</g>
<!-- Node38&#45;&gt;Node20 -->
<g id="edge60" class="edge">
<title>Node38&#45;&gt;Node20</title>
<path fill="none" stroke="#63b8ff" d="M2120.31,-418.66C2120.97,-409.93 2121.72,-399.99 2122.24,-393.09"/>
<polygon fill="#63b8ff" stroke="#63b8ff" points="2116.81,-418.51 2119.55,-428.75 2123.79,-419.04 2116.81,-418.51"/>
</g>
</g>
</svg>
        <g id="navigator" transform="translate(0 0)" fill="#404254">
                <rect fill="#f2f5e9" fill-opacity="0.5" stroke="#606060" stroke-width=".5" x="0" y="0" width="60" height="60"/>
                <use id="zoomplus" xlink:href="#zoomPlus" x="17" y="9" onmousedown="handleZoom(evt,'in')"/>
                <use id="zoomminus" xlink:href="#zoomMin" x="42" y="9" onmousedown="handleZoom(evt,'out')"/>
                <use id="reset" xlink:href="#resetDef" x="30" y="36" onmousedown="handleReset()"/>
                <g id="arrowUp" xlink:href="#dirArrow" transform="translate(30 24)" onmousedown="handlePan(0,-1)">
                  <use xlink:href="#rim" fill="#404040">
                        <set attributeName="fill" to="#808080" begin="arrowUp.mouseover" end="arrowUp.mouseout"/>
                  </use>
                  <path fill="none" stroke="white" stroke-width="1.5" d="M0,-3.0v7 M-2.5,-0.5L0,-3.0L2.5,-0.5"/>
                </g>
                <g id="arrowRight" xlink:href="#dirArrow" transform="rotate(90) translate(36 -43)" onmousedown="handlePan(1,0)">
                  <use xlink:href="#rim" fill="#404040">
                        <set attributeName="fill" to="#808080" begin="arrowRight.mouseover" end="arrowRight.mouseout"/>
                  </use>
                  <path fill="none" stroke="white" stroke-width="1.5" d="M0,-3.0v7 M-2.5,-0.5L0,-3.0L2.5,-0.5"/>
                </g>
                <g id="arrowDown" xlink:href="#dirArrow" transform="rotate(180) translate(-30 -48)" onmousedown="handlePan(0,1)">
                  <use xlink:href="#rim" fill="#404040">
                        <set attributeName="fill" to="#808080" begin="arrowDown.mouseover" end="arrowDown.mouseout"/>
                  </use>
                  <path fill="none" stroke="white" stroke-width="1.5" d="M0,-3.0v7 M-2.5,-0.5L0,-3.0L2.5,-0.5"/>
                </g>
                <g id="arrowLeft" xlink:href="#dirArrow" transform="rotate(270) translate(-36 17)" onmousedown="handlePan(-1,0)">
                  <use xlink:href="#rim" fill="#404040">
                        <set attributeName="fill" to="#808080" begin="arrowLeft.mouseover" end="arrowLeft.mouseout"/>
                  </use>
                  <path fill="none" stroke="white" stroke-width="1.5" d="M0,-3.0v7 M-2.5,-0.5L0,-3.0L2.5,-0.5"/>
                </g>
        </g>
        <svg viewBox="0 0 15 15" width="100%" height="30px" preserveAspectRatio="xMaxYMin meet">
         <g id="arrow_out" transform="scale(0.3 0.3)">
          <a xlink:href="actors_8h__dep__incl_org.svg" target="_base">
           <rect id="button" ry="5" rx="5" y="6" x="6" height="38" width="38"
                fill="#f2f5e9" fill-opacity="0.5" stroke="#606060" stroke-width="1.0"/>
           <path id="arrow"
             d="M 11.500037,31.436501 C 11.940474,20.09759 22.043105,11.32322 32.158766,21.979434 L 37.068811,17.246167 C 37.068811,17.246167 37.088388,32 37.088388,32 L 22.160133,31.978069 C 22.160133,31.978069 26.997745,27.140456 26.997745,27.140456 C 18.528582,18.264221 13.291696,25.230495 11.500037,31.436501 z"
             style="fill:#404040;"/>
          </a>
         </g>
        </svg>
</svg>
