<?xml version="1.0" encoding="UTF-8" standalone="no"?>
<!DOCTYPE svg PUBLIC "-//W3C//DTD SVG 1.1//EN"
 "http://www.w3.org/Graphics/SVG/1.1/DTD/svg11.dtd">
<!-- Generated by graphviz version 2.43.0 (0)
 -->
<!-- Title: include/ccf/app_interface.h Pages: 1 -->
<svg width="1434pt" height="225pt"
 viewBox="0.00 0.00 1433.50 225.00" xmlns="http://www.w3.org/2000/svg" xmlns:xlink="http://www.w3.org/1999/xlink">
<g id="graph0" class="graph" transform="scale(1 1) rotate(0) translate(4 221)">
<title>include/ccf/app_interface.h</title>
<!-- Node1 -->
<g id="node1" class="node">
<title>Node1</title>
<g id="a_node1"><a xlink:title=" ">
<polygon fill="#999999" stroke="#666666" points="756.5,-217 608.5,-217 608.5,-198 756.5,-198 756.5,-217"/>
<text text-anchor="middle" x="682.5" y="-205" font-family="Helvetica,sans-Serif" font-size="10.00">include/ccf/app_interface.h</text>
</a>
</g>
</g>
<!-- Node2 -->
<g id="node2" class="node">
<title>Node2</title>
<g id="a_node2"><a xlink:href="basic_8cpp.html" target="_top" xlink:title=" ">
<polygon fill="white" stroke="#666666" points="113,-162 0,-162 0,-132 113,-132 113,-162"/>
<text text-anchor="start" x="8" y="-150" font-family="Helvetica,sans-Serif" font-size="10.00">samples/apps/basic</text>
<text text-anchor="middle" x="56.5" y="-139" font-family="Helvetica,sans-Serif" font-size="10.00">/basic.cpp</text>
</a>
</g>
</g>
<!-- Node1&#45;&gt;Node2 -->
<g id="edge1" class="edge">
<title>Node1&#45;&gt;Node2</title>
<path fill="none" stroke="#63b8ff" d="M598.13,-203.31C488.02,-198.34 289.53,-186.65 121.5,-162 118.76,-161.6 115.96,-161.15 113.14,-160.66"/>
<polygon fill="#63b8ff" stroke="#63b8ff" points="598.04,-206.81 608.19,-203.75 598.35,-199.81 598.04,-206.81"/>
</g>
<!-- Node3 -->
<g id="node3" class="node">
<title>Node3</title>
<g id="a_node3"><a xlink:href="logging_8cpp.html" target="_top" xlink:title=" ">
<polygon fill="white" stroke="#666666" points="254,-162 131,-162 131,-132 254,-132 254,-162"/>
<text text-anchor="start" x="139" y="-150" font-family="Helvetica,sans-Serif" font-size="10.00">samples/apps/logging</text>
<text text-anchor="middle" x="192.5" y="-139" font-family="Helvetica,sans-Serif" font-size="10.00">/logging.cpp</text>
</a>
</g>
</g>
<!-- Node1&#45;&gt;Node3 -->
<g id="edge2" class="edge">
<title>Node1&#45;&gt;Node3</title>
<path fill="none" stroke="#63b8ff" d="M598.15,-199.86C513.13,-192.62 378.3,-179.68 262.5,-162 259.8,-161.59 257.06,-161.14 254.28,-160.68"/>
<polygon fill="#63b8ff" stroke="#63b8ff" points="598,-203.36 608.26,-200.71 598.59,-196.38 598,-203.36"/>
</g>
<!-- Node4 -->
<g id="node4" class="node">
<title>Node4</title>
<g id="a_node4"><a xlink:href="nobuiltins_8cpp.html" target="_top" xlink:title=" ">
<polygon fill="white" stroke="#666666" points="407,-162 272,-162 272,-132 407,-132 407,-162"/>
<text text-anchor="start" x="280" y="-150" font-family="Helvetica,sans-Serif" font-size="10.00">samples/apps/nobuiltins</text>
<text text-anchor="middle" x="339.5" y="-139" font-family="Helvetica,sans-Serif" font-size="10.00">/nobuiltins.cpp</text>
</a>
</g>
</g>
<!-- Node1&#45;&gt;Node4 -->
<g id="edge3" class="edge">
<title>Node1&#45;&gt;Node4</title>
<path fill="none" stroke="#63b8ff" d="M620.13,-196.32C566.2,-187.46 486.16,-174.16 416.5,-162 413.42,-161.46 410.27,-160.91 407.1,-160.35"/>
<polygon fill="#63b8ff" stroke="#63b8ff" points="619.79,-199.81 630.22,-197.98 620.92,-192.9 619.79,-199.81"/>
</g>
<!-- Node5 -->
<g id="node5" class="node">
<title>Node5</title>
<g id="a_node5"><a xlink:href="executor__auth__policy_8h.html" target="_top" xlink:title=" ">
<polygon fill="white" stroke="#666666" points="573.5,-162 425.5,-162 425.5,-132 573.5,-132 573.5,-162"/>
<text text-anchor="start" x="433.5" y="-150" font-family="Helvetica,sans-Serif" font-size="10.00">src/apps/external_executor</text>
<text text-anchor="middle" x="499.5" y="-139" font-family="Helvetica,sans-Serif" font-size="10.00">/executor_auth_policy.h</text>
</a>
</g>
</g>
<!-- Node1&#45;&gt;Node5 -->
<g id="edge4" class="edge">
<title>Node1&#45;&gt;Node5</title>
<path fill="none" stroke="#63b8ff" d="M646,-194.83C616.49,-185.4 574.84,-172.09 543.5,-162.06"/>
<polygon fill="#63b8ff" stroke="#63b8ff" points="645.3,-198.28 655.89,-197.99 647.43,-191.61 645.3,-198.28"/>
</g>
<!-- Node6 -->
<g id="node6" class="node">
<title>Node6</title>
<g id="a_node6"><a xlink:href="external__executor_8cpp.html" target="_top" xlink:title=" ">
<polygon fill="white" stroke="#666666" points="656.5,-30 508.5,-30 508.5,0 656.5,0 656.5,-30"/>
<text text-anchor="start" x="516.5" y="-18" font-family="Helvetica,sans-Serif" font-size="10.00">src/apps/external_executor</text>
<text text-anchor="middle" x="582.5" y="-7" font-family="Helvetica,sans-Serif" font-size="10.00">/external_executor.cpp</text>
</a>
</g>
</g>
<!-- Node1&#45;&gt;Node6 -->
<g id="edge9" class="edge">
<title>Node1&#45;&gt;Node6</title>
<path fill="none" stroke="#63b8ff" d="M669.5,-189.99C663.35,-181.82 656.15,-171.65 650.5,-162 623.38,-115.67 598.69,-56.71 588.04,-30.13"/>
<polygon fill="#63b8ff" stroke="#63b8ff" points="666.75,-192.17 675.62,-197.96 672.3,-187.9 666.75,-192.17"/>
</g>
<!-- Node9 -->
<g id="node9" class="node">
<title>Node9</title>
<g id="a_node9"><a xlink:href="js__generic_8cpp.html" target="_top" xlink:title=" ">
<polygon fill="white" stroke="#666666" points="826.5,-96 716.5,-96 716.5,-66 826.5,-66 826.5,-96"/>
<text text-anchor="start" x="724.5" y="-84" font-family="Helvetica,sans-Serif" font-size="10.00">src/apps/js_generic</text>
<text text-anchor="middle" x="771.5" y="-73" font-family="Helvetica,sans-Serif" font-size="10.00">/js_generic.cpp</text>
</a>
</g>
</g>
<!-- Node1&#45;&gt;Node9 -->
<g id="edge10" class="edge">
<title>Node1&#45;&gt;Node9</title>
<path fill="none" stroke="#63b8ff" d="M668.97,-189.25C658.3,-173.39 646.97,-149.71 658.5,-132 671.49,-112.04 694.46,-99.99 716.31,-92.74"/>
<polygon fill="#63b8ff" stroke="#63b8ff" points="666.31,-191.54 675,-197.59 671.98,-187.43 666.31,-191.54"/>
</g>
<!-- Node10 -->
<g id="node10" class="node">
<title>Node10</title>
<g id="a_node10"><a xlink:href="js__generic__base_8cpp.html" target="_top" xlink:title=" ">
<polygon fill="white" stroke="#666666" points="785.5,-162 667.5,-162 667.5,-132 785.5,-132 785.5,-162"/>
<text text-anchor="start" x="675.5" y="-150" font-family="Helvetica,sans-Serif" font-size="10.00">src/apps/js_generic</text>
<text text-anchor="middle" x="726.5" y="-139" font-family="Helvetica,sans-Serif" font-size="10.00">/js_generic_base.cpp</text>
</a>
</g>
</g>
<!-- Node1&#45;&gt;Node10 -->
<g id="edge11" class="edge">
<title>Node1&#45;&gt;Node10</title>
<path fill="none" stroke="#63b8ff" d="M695.21,-189.61C701.76,-180.89 709.66,-170.39 715.88,-162.11"/>
<polygon fill="#63b8ff" stroke="#63b8ff" points="692.21,-187.77 688.99,-197.87 697.8,-191.98 692.21,-187.77"/>
</g>
<!-- Node11 -->
<g id="node11" class="node">
<title>Node11</title>
<g id="a_node11"><a xlink:href="js__generic__base_8h.html" target="_top" xlink:title=" ">
<polygon fill="white" stroke="#666666" points="913.5,-162 803.5,-162 803.5,-132 913.5,-132 913.5,-162"/>
<text text-anchor="start" x="811.5" y="-150" font-family="Helvetica,sans-Serif" font-size="10.00">src/apps/js_generic</text>
<text text-anchor="middle" x="858.5" y="-139" font-family="Helvetica,sans-Serif" font-size="10.00">/js_generic_base.h</text>
</a>
</g>
</g>
<!-- Node1&#45;&gt;Node11 -->
<g id="edge12" class="edge">
<title>Node1&#45;&gt;Node11</title>
<path fill="none" stroke="#63b8ff" d="M717.61,-194.83C745.99,-185.4 786.04,-172.09 816.19,-162.06"/>
<polygon fill="#63b8ff" stroke="#63b8ff" points="716.48,-191.52 708.09,-197.99 718.69,-198.16 716.48,-191.52"/>
</g>
<!-- Node12 -->
<g id="node12" class="node">
<title>Node12</title>
<g id="a_node12"><a xlink:href="tpcc_8cpp.html" target="_top" xlink:title=" ">
<polygon fill="white" stroke="#666666" points="1077,-156.5 932,-156.5 932,-137.5 1077,-137.5 1077,-156.5"/>
<text text-anchor="middle" x="1004.5" y="-144.5" font-family="Helvetica,sans-Serif" font-size="10.00">src/apps/tpcc/app/tpcc.cpp</text>
</a>
</g>
</g>
<!-- Node1&#45;&gt;Node12 -->
<g id="edge14" class="edge">
<title>Node1&#45;&gt;Node12</title>
<path fill="none" stroke="#63b8ff" d="M739.34,-196.17C801.44,-184.89 899.77,-167.03 957.62,-156.52"/>
<polygon fill="#63b8ff" stroke="#63b8ff" points="738.53,-192.76 729.32,-197.99 739.79,-199.65 738.53,-192.76"/>
</g>
<!-- Node13 -->
<g id="node13" class="node">
<title>Node13</title>
<g id="a_node13"><a xlink:href="src_2enclave_2enclave_8h.html" target="_top" xlink:title=" ">
<polygon fill="white" stroke="#666666" points="1219.5,-90.5 1097.5,-90.5 1097.5,-71.5 1219.5,-71.5 1219.5,-90.5"/>
<text text-anchor="middle" x="1158.5" y="-78.5" font-family="Helvetica,sans-Serif" font-size="10.00">src/enclave/enclave.h</text>
</a>
</g>
</g>
<!-- Node1&#45;&gt;Node13 -->
<g id="edge15" class="edge">
<title>Node1&#45;&gt;Node13</title>
<path fill="none" stroke="#63b8ff" d="M767.03,-204.12C868.46,-200.08 1031.59,-189.42 1085.5,-162 1118.18,-145.38 1143.43,-107.66 1153.61,-90.63"/>
<polygon fill="#63b8ff" stroke="#63b8ff" points="766.67,-200.64 756.81,-204.52 766.94,-207.63 766.67,-200.64"/>
</g>
<!-- Node15 -->
<g id="node15" class="node">
<title>Node15</title>
<g id="a_node15"><a xlink:href="no__plugins_8cpp.html" target="_top" xlink:title=" ">
<polygon fill="white" stroke="#666666" points="1425.5,-156.5 1307.5,-156.5 1307.5,-137.5 1425.5,-137.5 1425.5,-156.5"/>
<text text-anchor="middle" x="1366.5" y="-144.5" font-family="Helvetica,sans-Serif" font-size="10.00">src/js/no_plugins.cpp</text>
</a>
</g>
</g>
<!-- Node1&#45;&gt;Node15 -->
<g id="edge17" class="edge">
<title>Node1&#45;&gt;Node15</title>
<path fill="none" stroke="#63b8ff" d="M766.92,-203.9C885.94,-199.44 1109.64,-188.15 1298.5,-162 1308.65,-160.59 1319.55,-158.58 1329.6,-156.51"/>
<polygon fill="#63b8ff" stroke="#63b8ff" points="766.65,-200.41 756.79,-204.27 766.91,-207.4 766.65,-200.41"/>
</g>
<!-- Node17 -->
<g id="node17" class="node">
<title>Node17</title>
<g id="a_node17"><a xlink:href="user__frontend_8h.html" target="_top" xlink:title=" ">
<polygon fill="white" stroke="#666666" points="1289,-156.5 1134,-156.5 1134,-137.5 1289,-137.5 1289,-156.5"/>
<text text-anchor="middle" x="1211.5" y="-144.5" font-family="Helvetica,sans-Serif" font-size="10.00">src/node/rpc/user_frontend.h</text>
</a>
</g>
</g>
<!-- Node1&#45;&gt;Node17 -->
<g id="edge19" class="edge">
<title>Node1&#45;&gt;Node17</title>
<path fill="none" stroke="#63b8ff" d="M767.07,-199.14C855.2,-191.18 997.24,-177.52 1119.5,-162 1132.16,-160.39 1145.77,-158.44 1158.53,-156.52"/>
<polygon fill="#63b8ff" stroke="#63b8ff" points="766.5,-195.68 756.86,-200.06 767.13,-202.65 766.5,-195.68"/>
</g>
<!-- Node5&#45;&gt;Node6 -->
<g id="edge5" class="edge">
<title>Node5&#45;&gt;Node6</title>
<path fill="none" stroke="#63b8ff" d="M521.45,-124.39C529.31,-115.98 537.85,-105.97 544.5,-96 558.83,-74.51 570.72,-46.77 577.2,-30.24"/>
<polygon fill="#63b8ff" stroke="#63b8ff" points="518.91,-121.99 514.5,-131.63 523.95,-126.84 518.91,-121.99"/>
</g>
<!-- Node7 -->
<g id="node7" class="node">
<title>Node7</title>
<g id="a_node7"><a xlink:href="external__executor__indexing_8h.html" target="_top" xlink:title=" ">
<polygon fill="white" stroke="#666666" points="535.5,-96 371.5,-96 371.5,-66 535.5,-66 535.5,-96"/>
<text text-anchor="start" x="379.5" y="-84" font-family="Helvetica,sans-Serif" font-size="10.00">src/apps/external_executor</text>
<text text-anchor="middle" x="453.5" y="-73" font-family="Helvetica,sans-Serif" font-size="10.00">/external_executor_indexing.h</text>
</a>
</g>
</g>
<!-- Node5&#45;&gt;Node7 -->
<g id="edge6" class="edge">
<title>Node5&#45;&gt;Node7</title>
<path fill="none" stroke="#63b8ff" d="M483.35,-123.53C476.81,-114.43 469.45,-104.19 463.68,-96.16"/>
<polygon fill="#63b8ff" stroke="#63b8ff" points="480.61,-125.72 489.29,-131.8 486.3,-121.63 480.61,-125.72"/>
</g>
<!-- Node7&#45;&gt;Node6 -->
<g id="edge7" class="edge">
<title>Node7&#45;&gt;Node6</title>
<path fill="none" stroke="#63b8ff" d="M491.04,-61.38C511.22,-51.36 535.7,-39.22 554.26,-30.01"/>
<polygon fill="#63b8ff" stroke="#63b8ff" points="489.21,-58.38 481.81,-65.95 492.32,-64.65 489.21,-58.38"/>
</g>
<!-- Node8 -->
<g id="node8" class="node">
<title>Node8</title>
<g id="a_node8"><a xlink:href="external__executor__indexing_8cpp.html" target="_top" xlink:title=" ">
<polygon fill="white" stroke="#666666" points="490,-30 315,-30 315,0 490,0 490,-30"/>
<text text-anchor="start" x="323" y="-18" font-family="Helvetica,sans-Serif" font-size="10.00">src/apps/external_executor</text>
<text text-anchor="middle" x="402.5" y="-7" font-family="Helvetica,sans-Serif" font-size="10.00">/external_executor_indexing.cpp</text>
</a>
</g>
</g>
<!-- Node7&#45;&gt;Node8 -->
<g id="edge8" class="edge">
<title>Node7&#45;&gt;Node8</title>
<path fill="none" stroke="#63b8ff" d="M435.82,-57.81C428.51,-48.64 420.25,-38.28 413.79,-30.16"/>
<polygon fill="#63b8ff" stroke="#63b8ff" points="433.21,-60.16 442.18,-65.8 438.69,-55.79 433.21,-60.16"/>
</g>
<!-- Node11&#45;&gt;Node9 -->
<g id="edge13" class="edge">
<title>Node11&#45;&gt;Node9</title>
<path fill="none" stroke="#63b8ff" d="M830.98,-125.75C817.89,-116.13 802.57,-104.86 790.75,-96.16"/>
<polygon fill="#63b8ff" stroke="#63b8ff" points="829.06,-128.69 839.19,-131.8 833.21,-123.05 829.06,-128.69"/>
</g>
<!-- Node14 -->
<g id="node14" class="node">
<title>Node14</title>
<g id="a_node14"><a xlink:href="enclave_2main_8cpp.html" target="_top" xlink:title=" ">
<polygon fill="white" stroke="#666666" points="1218.5,-24.5 1098.5,-24.5 1098.5,-5.5 1218.5,-5.5 1218.5,-24.5"/>
<text text-anchor="middle" x="1158.5" y="-12.5" font-family="Helvetica,sans-Serif" font-size="10.00">src/enclave/main.cpp</text>
</a>
</g>
</g>
<!-- Node13&#45;&gt;Node14 -->
<g id="edge16" class="edge">
<title>Node13&#45;&gt;Node14</title>
<path fill="none" stroke="#63b8ff" d="M1158.5,-61.08C1158.5,-49.13 1158.5,-34.22 1158.5,-24.91"/>
<polygon fill="#63b8ff" stroke="#63b8ff" points="1155,-61.37 1158.5,-71.37 1162,-61.37 1155,-61.37"/>
</g>
<!-- Node16 -->
<g id="node16" class="node">
<title>Node16</title>
<g id="a_node16"><a xlink:href="wrap_8cpp.html" target="_top" xlink:title=" ">
<polygon fill="white" stroke="#666666" points="1411,-90.5 1322,-90.5 1322,-71.5 1411,-71.5 1411,-90.5"/>
<text text-anchor="middle" x="1366.5" y="-78.5" font-family="Helvetica,sans-Serif" font-size="10.00">src/js/wrap.cpp</text>
</a>
</g>
</g>
<!-- Node15&#45;&gt;Node16 -->
<g id="edge18" class="edge">
<title>Node15&#45;&gt;Node16</title>
<path fill="none" stroke="#63b8ff" d="M1366.5,-127.08C1366.5,-115.13 1366.5,-100.22 1366.5,-90.91"/>
<polygon fill="#63b8ff" stroke="#63b8ff" points="1363,-127.37 1366.5,-137.37 1370,-127.37 1363,-127.37"/>
</g>
<!-- Node17&#45;&gt;Node13 -->
<g id="edge20" class="edge">
<title>Node17&#45;&gt;Node13</title>
<path fill="none" stroke="#63b8ff" d="M1197.94,-129.62C1187.74,-117.31 1174.15,-100.89 1165.87,-90.91"/>
<polygon fill="#63b8ff" stroke="#63b8ff" points="1195.28,-131.9 1204.35,-137.37 1200.67,-127.43 1195.28,-131.9"/>
</g>
</g>
</svg>
