<?xml version="1.0" encoding="UTF-8" standalone="no"?>
<!DOCTYPE svg PUBLIC "-//W3C//DTD SVG 1.1//EN"
 "http://www.w3.org/Graphics/SVG/1.1/DTD/svg11.dtd">
<!-- Generated by graphviz version 2.43.0 (0)
 -->
<!-- Title: include/ccf/base_endpoint_registry.h Pages: 1 -->
<svg width="2528pt" height="478pt"
 viewBox="0.00 0.00 2527.67 478.00" xmlns="http://www.w3.org/2000/svg" xmlns:xlink="http://www.w3.org/1999/xlink">
<g id="graph0" class="graph" transform="scale(1 1) rotate(0) translate(4 474)">
<title>include/ccf/base_endpoint_registry.h</title>
<!-- Node1 -->
<g id="node1" class="node">
<title>Node1</title>
<g id="a_node1"><a xlink:title=" ">
<polygon fill="#999999" stroke="#666666" points="1598.17,-470 1455.17,-470 1455.17,-440 1598.17,-440 1598.17,-470"/>
<text text-anchor="start" x="1463.17" y="-458" font-family="Helvetica,sans-Serif" font-size="10.00">include/ccf/base_endpoint</text>
<text text-anchor="middle" x="1526.67" y="-447" font-family="Helvetica,sans-Serif" font-size="10.00">_registry.h</text>
</a>
</g>
</g>
<!-- Node2 -->
<g id="node2" class="node">
<title>Node2</title>
<g id="a_node2"><a xlink:href="common__endpoint__registry_8h.html" target="_top" xlink:title=" ">
<polygon fill="white" stroke="#666666" points="1217.17,-404 1102.17,-404 1102.17,-374 1217.17,-374 1217.17,-404"/>
<text text-anchor="start" x="1110.17" y="-392" font-family="Helvetica,sans-Serif" font-size="10.00">include/ccf/common</text>
<text text-anchor="middle" x="1159.67" y="-381" font-family="Helvetica,sans-Serif" font-size="10.00">_endpoint_registry.h</text>
</a>
</g>
</g>
<!-- Node1&#45;&gt;Node2 -->
<g id="edge1" class="edge">
<title>Node1&#45;&gt;Node2</title>
<path fill="none" stroke="#63b8ff" d="M1445.04,-439.77C1375.9,-427.71 1278.51,-410.72 1217.26,-400.04"/>
<polygon fill="#63b8ff" stroke="#63b8ff" points="1444.58,-443.24 1455.03,-441.51 1445.78,-436.34 1444.58,-443.24"/>
</g>
<!-- Node6 -->
<g id="node6" class="node">
<title>Node6</title>
<g id="a_node6"><a xlink:href="nobuiltins_8cpp.html" target="_top" xlink:title=" ">
<polygon fill="white" stroke="#666666" points="196.17,-272 61.17,-272 61.17,-242 196.17,-242 196.17,-272"/>
<text text-anchor="start" x="69.17" y="-260" font-family="Helvetica,sans-Serif" font-size="10.00">samples/apps/nobuiltins</text>
<text text-anchor="middle" x="128.67" y="-249" font-family="Helvetica,sans-Serif" font-size="10.00">/nobuiltins.cpp</text>
</a>
</g>
</g>
<!-- Node1&#45;&gt;Node6 -->
<g id="edge38" class="edge">
<title>Node1&#45;&gt;Node6</title>
<path fill="none" stroke="#63b8ff" d="M1444.38,-454.08C1142.16,-453.54 105.82,-443.93 7.67,-338 -18.95,-309.27 31.41,-285.93 75.06,-272.03"/>
<polygon fill="#63b8ff" stroke="#63b8ff" points="1444.81,-457.58 1454.82,-454.1 1444.82,-450.58 1444.81,-457.58"/>
</g>
<!-- Node28 -->
<g id="node28" class="node">
<title>Node28</title>
<g id="a_node28"><a xlink:href="base__endpoint__registry_8cpp.html" target="_top" xlink:title=" ">
<polygon fill="white" stroke="#666666" points="2026.67,-404 1900.67,-404 1900.67,-374 2026.67,-374 2026.67,-404"/>
<text text-anchor="start" x="1908.67" y="-392" font-family="Helvetica,sans-Serif" font-size="10.00">src/endpoints/base</text>
<text text-anchor="middle" x="1963.67" y="-381" font-family="Helvetica,sans-Serif" font-size="10.00">_endpoint_registry.cpp</text>
</a>
</g>
</g>
<!-- Node1&#45;&gt;Node28 -->
<g id="edge39" class="edge">
<title>Node1&#45;&gt;Node28</title>
<path fill="none" stroke="#63b8ff" d="M1608.38,-444.13C1682.48,-434.87 1794.64,-420.07 1891.67,-404 1894.56,-403.52 1897.51,-403.02 1900.49,-402.49"/>
<polygon fill="#63b8ff" stroke="#63b8ff" points="1607.67,-440.69 1598.18,-445.4 1608.54,-447.64 1607.67,-440.69"/>
</g>
<!-- Node29 -->
<g id="node29" class="node">
<title>Node29</title>
<g id="a_node29"><a xlink:href="wrap_8h.html" target="_top" xlink:title=" ">
<polygon fill="white" stroke="#666666" points="1882.67,-398.5 1804.67,-398.5 1804.67,-379.5 1882.67,-379.5 1882.67,-398.5"/>
<text text-anchor="middle" x="1843.67" y="-386.5" font-family="Helvetica,sans-Serif" font-size="10.00">src/js/wrap.h</text>
</a>
</g>
</g>
<!-- Node1&#45;&gt;Node29 -->
<g id="edge40" class="edge">
<title>Node1&#45;&gt;Node29</title>
<path fill="none" stroke="#63b8ff" d="M1606.19,-437.94C1669.5,-425.16 1755.39,-407.82 1804.63,-397.88"/>
<polygon fill="#63b8ff" stroke="#63b8ff" points="1605.34,-434.55 1596.23,-439.95 1606.73,-441.41 1605.34,-434.55"/>
</g>
<!-- Node3 -->
<g id="node3" class="node">
<title>Node3</title>
<g id="a_node3"><a xlink:href="app__interface_8h.html" target="_top" xlink:title=" ">
<polygon fill="white" stroke="#666666" points="884.67,-332.5 736.67,-332.5 736.67,-313.5 884.67,-313.5 884.67,-332.5"/>
<text text-anchor="middle" x="810.67" y="-320.5" font-family="Helvetica,sans-Serif" font-size="10.00">include/ccf/app_interface.h</text>
</a>
</g>
</g>
<!-- Node2&#45;&gt;Node3 -->
<g id="edge2" class="edge">
<title>Node2&#45;&gt;Node3</title>
<path fill="none" stroke="#63b8ff" d="M1092.11,-375.61C1023.01,-362.94 917.48,-343.59 857.2,-332.53"/>
<polygon fill="#63b8ff" stroke="#63b8ff" points="1091.57,-379.07 1102.04,-377.43 1092.83,-372.19 1091.57,-379.07"/>
</g>
<!-- Node9 -->
<g id="node9" class="node">
<title>Node9</title>
<g id="a_node9"><a xlink:href="external__executor__indexing_8h.html" target="_top" xlink:title=" ">
<polygon fill="white" stroke="#666666" points="434.67,-206 270.67,-206 270.67,-176 434.67,-176 434.67,-206"/>
<text text-anchor="start" x="278.67" y="-194" font-family="Helvetica,sans-Serif" font-size="10.00">src/apps/external_executor</text>
<text text-anchor="middle" x="352.67" y="-183" font-family="Helvetica,sans-Serif" font-size="10.00">/external_executor_indexing.h</text>
</a>
</g>
</g>
<!-- Node2&#45;&gt;Node9 -->
<g id="edge23" class="edge">
<title>Node2&#45;&gt;Node9</title>
<path fill="none" stroke="#63b8ff" d="M1091.68,-383.38C856.03,-367.05 86.72,-310.92 51.67,-272 42.74,-262.09 43.05,-252.17 51.67,-242 79.24,-209.47 191.18,-198.08 270.47,-194.11"/>
<polygon fill="#63b8ff" stroke="#63b8ff" points="1091.61,-386.88 1101.83,-384.08 1092.09,-379.9 1091.61,-386.88"/>
</g>
<!-- Node20 -->
<g id="node20" class="node">
<title>Node20</title>
<g id="a_node20"><a xlink:href="common__endpoint__registry_8cpp.html" target="_top" xlink:title=" ">
<polygon fill="white" stroke="#666666" points="144.67,-338 16.67,-338 16.67,-308 144.67,-308 144.67,-338"/>
<text text-anchor="start" x="24.67" y="-326" font-family="Helvetica,sans-Serif" font-size="10.00">src/endpoints/common</text>
<text text-anchor="middle" x="80.67" y="-315" font-family="Helvetica,sans-Serif" font-size="10.00">_endpoint_registry.cpp</text>
</a>
</g>
</g>
<!-- Node2&#45;&gt;Node20 -->
<g id="edge24" class="edge">
<title>Node2&#45;&gt;Node20</title>
<path fill="none" stroke="#63b8ff" d="M1091.61,-387.59C929.5,-385.97 507.99,-377.91 158.67,-338 154.16,-337.48 149.51,-336.87 144.84,-336.19"/>
<polygon fill="#63b8ff" stroke="#63b8ff" points="1091.87,-391.09 1101.9,-387.69 1091.94,-384.09 1091.87,-391.09"/>
</g>
<!-- Node21 -->
<g id="node21" class="node">
<title>Node21</title>
<g id="a_node21"><a xlink:href="acme__challenge__frontend_8h.html" target="_top" xlink:title=" ">
<polygon fill="white" stroke="#666666" points="1229.67,-338 1089.67,-338 1089.67,-308 1229.67,-308 1229.67,-338"/>
<text text-anchor="start" x="1097.67" y="-326" font-family="Helvetica,sans-Serif" font-size="10.00">src/node/acme_challenge</text>
<text text-anchor="middle" x="1159.67" y="-315" font-family="Helvetica,sans-Serif" font-size="10.00">_frontend.h</text>
</a>
</g>
</g>
<!-- Node2&#45;&gt;Node21 -->
<g id="edge25" class="edge">
<title>Node2&#45;&gt;Node21</title>
<path fill="none" stroke="#63b8ff" d="M1159.67,-363.54C1159.67,-354.96 1159.67,-345.61 1159.67,-338.16"/>
<polygon fill="#63b8ff" stroke="#63b8ff" points="1156.17,-363.8 1159.67,-373.8 1163.17,-363.8 1156.17,-363.8"/>
</g>
<!-- Node25 -->
<g id="node25" class="node">
<title>Node25</title>
<g id="a_node25"><a xlink:href="member__frontend_8h.html" target="_top" xlink:title=" ">
<polygon fill="white" stroke="#666666" points="1509.67,-338 1389.67,-338 1389.67,-308 1509.67,-308 1509.67,-338"/>
<text text-anchor="start" x="1397.67" y="-326" font-family="Helvetica,sans-Serif" font-size="10.00">src/node/rpc/member</text>
<text text-anchor="middle" x="1449.67" y="-315" font-family="Helvetica,sans-Serif" font-size="10.00">_frontend.h</text>
</a>
</g>
</g>
<!-- Node2&#45;&gt;Node25 -->
<g id="edge32" class="edge">
<title>Node2&#45;&gt;Node25</title>
<path fill="none" stroke="#63b8ff" d="M1227.22,-373.09C1276.37,-362.24 1342.33,-347.69 1389.64,-337.25"/>
<polygon fill="#63b8ff" stroke="#63b8ff" points="1226.32,-369.71 1217.31,-375.28 1227.83,-376.54 1226.32,-369.71"/>
</g>
<!-- Node26 -->
<g id="node26" class="node">
<title>Node26</title>
<g id="a_node26"><a xlink:href="node__frontend_8h.html" target="_top" xlink:title=" ">
<polygon fill="white" stroke="#666666" points="1764.67,-332.5 1606.67,-332.5 1606.67,-313.5 1764.67,-313.5 1764.67,-332.5"/>
<text text-anchor="middle" x="1685.67" y="-320.5" font-family="Helvetica,sans-Serif" font-size="10.00">src/node/rpc/node_frontend.h</text>
</a>
</g>
</g>
<!-- Node2&#45;&gt;Node26 -->
<g id="edge34" class="edge">
<title>Node2&#45;&gt;Node26</title>
<path fill="none" stroke="#63b8ff" d="M1227.21,-379.78C1327.31,-367.6 1514.1,-344.87 1615.62,-332.52"/>
<polygon fill="#63b8ff" stroke="#63b8ff" points="1226.71,-376.32 1217.21,-381 1227.56,-383.26 1226.71,-376.32"/>
</g>
<!-- Node4 -->
<g id="node4" class="node">
<title>Node4</title>
<g id="a_node4"><a xlink:href="basic_8cpp.html" target="_top" xlink:title=" ">
<polygon fill="white" stroke="#666666" points="1042.17,-272 929.17,-272 929.17,-242 1042.17,-242 1042.17,-272"/>
<text text-anchor="start" x="937.17" y="-260" font-family="Helvetica,sans-Serif" font-size="10.00">samples/apps/basic</text>
<text text-anchor="middle" x="985.67" y="-249" font-family="Helvetica,sans-Serif" font-size="10.00">/basic.cpp</text>
</a>
</g>
</g>
<!-- Node3&#45;&gt;Node4 -->
<g id="edge3" class="edge">
<title>Node3&#45;&gt;Node4</title>
<path fill="none" stroke="#63b8ff" d="M843.68,-309.93C873.07,-299.18 916.09,-283.44 947.07,-272.12"/>
<polygon fill="#63b8ff" stroke="#63b8ff" points="842.46,-306.65 834.27,-313.37 844.86,-313.22 842.46,-306.65"/>
</g>
<!-- Node5 -->
<g id="node5" class="node">
<title>Node5</title>
<g id="a_node5"><a xlink:href="logging_8cpp.html" target="_top" xlink:title=" ">
<polygon fill="white" stroke="#666666" points="872.17,-272 749.17,-272 749.17,-242 872.17,-242 872.17,-272"/>
<text text-anchor="start" x="757.17" y="-260" font-family="Helvetica,sans-Serif" font-size="10.00">samples/apps/logging</text>
<text text-anchor="middle" x="810.67" y="-249" font-family="Helvetica,sans-Serif" font-size="10.00">/logging.cpp</text>
</a>
</g>
</g>
<!-- Node3&#45;&gt;Node5 -->
<g id="edge4" class="edge">
<title>Node3&#45;&gt;Node5</title>
<path fill="none" stroke="#63b8ff" d="M810.67,-303.35C810.67,-293.47 810.67,-281.51 810.67,-272.36"/>
<polygon fill="#63b8ff" stroke="#63b8ff" points="807.17,-303.37 810.67,-313.37 814.17,-303.37 807.17,-303.37"/>
</g>
<!-- Node3&#45;&gt;Node6 -->
<g id="edge5" class="edge">
<title>Node3&#45;&gt;Node6</title>
<path fill="none" stroke="#63b8ff" d="M726.3,-317.26C609.96,-310.21 393.87,-295.23 210.67,-272 205.94,-271.4 201.07,-270.72 196.17,-270"/>
<polygon fill="#63b8ff" stroke="#63b8ff" points="726.36,-320.77 736.56,-317.88 726.78,-313.79 726.36,-320.77"/>
</g>
<!-- Node7 -->
<g id="node7" class="node">
<title>Node7</title>
<g id="a_node7"><a xlink:href="executor__auth__policy_8h.html" target="_top" xlink:title=" ">
<polygon fill="white" stroke="#666666" points="400.67,-272 252.67,-272 252.67,-242 400.67,-242 400.67,-272"/>
<text text-anchor="start" x="260.67" y="-260" font-family="Helvetica,sans-Serif" font-size="10.00">src/apps/external_executor</text>
<text text-anchor="middle" x="326.67" y="-249" font-family="Helvetica,sans-Serif" font-size="10.00">/executor_auth_policy.h</text>
</a>
</g>
</g>
<!-- Node3&#45;&gt;Node7 -->
<g id="edge6" class="edge">
<title>Node3&#45;&gt;Node7</title>
<path fill="none" stroke="#63b8ff" d="M726.46,-312.57C645.22,-303.22 518.84,-288.01 409.67,-272 406.77,-271.58 403.83,-271.13 400.85,-270.68"/>
<polygon fill="#63b8ff" stroke="#63b8ff" points="726.3,-316.07 736.63,-313.74 727.09,-309.12 726.3,-316.07"/>
</g>
<!-- Node8 -->
<g id="node8" class="node">
<title>Node8</title>
<g id="a_node8"><a xlink:href="external__executor_8cpp.html" target="_top" xlink:title=" ">
<polygon fill="white" stroke="#666666" points="625.67,-140 477.67,-140 477.67,-110 625.67,-110 625.67,-140"/>
<text text-anchor="start" x="485.67" y="-128" font-family="Helvetica,sans-Serif" font-size="10.00">src/apps/external_executor</text>
<text text-anchor="middle" x="551.67" y="-117" font-family="Helvetica,sans-Serif" font-size="10.00">/external_executor.cpp</text>
</a>
</g>
</g>
<!-- Node3&#45;&gt;Node8 -->
<g id="edge11" class="edge">
<title>Node3&#45;&gt;Node8</title>
<path fill="none" stroke="#63b8ff" d="M840.77,-308.84C855.67,-300.59 872.23,-288.39 880.67,-272 886.77,-260.14 888.33,-252.91 880.67,-242 823.4,-160.47 703.89,-135.82 625.76,-128.62"/>
<polygon fill="#63b8ff" stroke="#63b8ff" points="839.08,-305.77 831.79,-313.47 842.29,-312 839.08,-305.77"/>
</g>
<!-- Node11 -->
<g id="node11" class="node">
<title>Node11</title>
<g id="a_node11"><a xlink:href="js__generic_8cpp.html" target="_top" xlink:title=" ">
<polygon fill="white" stroke="#666666" points="688.67,-206 578.67,-206 578.67,-176 688.67,-176 688.67,-206"/>
<text text-anchor="start" x="586.67" y="-194" font-family="Helvetica,sans-Serif" font-size="10.00">src/apps/js_generic</text>
<text text-anchor="middle" x="633.67" y="-183" font-family="Helvetica,sans-Serif" font-size="10.00">/js_generic.cpp</text>
</a>
</g>
</g>
<!-- Node3&#45;&gt;Node11 -->
<g id="edge12" class="edge">
<title>Node3&#45;&gt;Node11</title>
<path fill="none" stroke="#63b8ff" d="M730.18,-311.91C681.7,-304 626.55,-291.09 611.67,-272 596.52,-252.58 611.42,-223.41 622.99,-206.18"/>
<polygon fill="#63b8ff" stroke="#63b8ff" points="729.67,-315.37 740.09,-313.48 730.76,-308.46 729.67,-315.37"/>
</g>
<!-- Node12 -->
<g id="node12" class="node">
<title>Node12</title>
<g id="a_node12"><a xlink:href="js__generic__base_8cpp.html" target="_top" xlink:title=" ">
<polygon fill="white" stroke="#666666" points="1595.67,-272 1477.67,-272 1477.67,-242 1595.67,-242 1595.67,-272"/>
<text text-anchor="start" x="1485.67" y="-260" font-family="Helvetica,sans-Serif" font-size="10.00">src/apps/js_generic</text>
<text text-anchor="middle" x="1536.67" y="-249" font-family="Helvetica,sans-Serif" font-size="10.00">/js_generic_base.cpp</text>
</a>
</g>
</g>
<!-- Node3&#45;&gt;Node12 -->
<g id="edge13" class="edge">
<title>Node3&#45;&gt;Node12</title>
<path fill="none" stroke="#63b8ff" d="M894.91,-316.57C1014.29,-308.56 1239.46,-292.32 1430.67,-272 1445.89,-270.38 1462.32,-268.35 1477.58,-266.34"/>
<polygon fill="#63b8ff" stroke="#63b8ff" points="894.49,-313.09 884.74,-317.25 894.95,-320.07 894.49,-313.09"/>
</g>
<!-- Node13 -->
<g id="node13" class="node">
<title>Node13</title>
<g id="a_node13"><a xlink:href="js__generic__base_8h.html" target="_top" xlink:title=" ">
<polygon fill="white" stroke="#666666" points="730.67,-272 620.67,-272 620.67,-242 730.67,-242 730.67,-272"/>
<text text-anchor="start" x="628.67" y="-260" font-family="Helvetica,sans-Serif" font-size="10.00">src/apps/js_generic</text>
<text text-anchor="middle" x="675.67" y="-249" font-family="Helvetica,sans-Serif" font-size="10.00">/js_generic_base.h</text>
</a>
</g>
</g>
<!-- Node3&#45;&gt;Node13 -->
<g id="edge14" class="edge">
<title>Node3&#45;&gt;Node13</title>
<path fill="none" stroke="#63b8ff" d="M783.41,-309.08C760.8,-298.36 728.71,-283.15 705.44,-272.12"/>
<polygon fill="#63b8ff" stroke="#63b8ff" points="781.92,-312.25 792.46,-313.37 784.92,-305.92 781.92,-312.25"/>
</g>
<!-- Node14 -->
<g id="node14" class="node">
<title>Node14</title>
<g id="a_node14"><a xlink:href="tpcc_8cpp.html" target="_top" xlink:title=" ">
<polygon fill="white" stroke="#666666" points="564.17,-266.5 419.17,-266.5 419.17,-247.5 564.17,-247.5 564.17,-266.5"/>
<text text-anchor="middle" x="491.67" y="-254.5" font-family="Helvetica,sans-Serif" font-size="10.00">src/apps/tpcc/app/tpcc.cpp</text>
</a>
</g>
</g>
<!-- Node3&#45;&gt;Node14 -->
<g id="edge16" class="edge">
<title>Node3&#45;&gt;Node14</title>
<path fill="none" stroke="#63b8ff" d="M757.9,-311.41C695.21,-298.84 591.87,-278.1 534.1,-266.51"/>
<polygon fill="#63b8ff" stroke="#63b8ff" points="757.48,-314.9 767.98,-313.44 758.86,-308.04 757.48,-314.9"/>
</g>
<!-- Node15 -->
<g id="node15" class="node">
<title>Node15</title>
<g id="a_node15"><a xlink:href="src_2enclave_2enclave_8h.html" target="_top" xlink:title=" ">
<polygon fill="white" stroke="#666666" points="1588.67,-74 1466.67,-74 1466.67,-55 1588.67,-55 1588.67,-74"/>
<text text-anchor="middle" x="1527.67" y="-62" font-family="Helvetica,sans-Serif" font-size="10.00">src/enclave/enclave.h</text>
</a>
</g>
</g>
<!-- Node3&#45;&gt;Node15 -->
<g id="edge17" class="edge">
<title>Node3&#45;&gt;Node15</title>
<path fill="none" stroke="#63b8ff" d="M894.93,-315.53C942.7,-309.21 1002.38,-296.71 1050.67,-272 1106.95,-243.19 1106.87,-216.22 1155.67,-176 1193.67,-144.68 1199.25,-129.04 1244.67,-110 1317.02,-79.66 1407.66,-69.82 1466.58,-66.73"/>
<polygon fill="#63b8ff" stroke="#63b8ff" points="894.41,-312.07 884.92,-316.79 895.28,-319.01 894.41,-312.07"/>
</g>
<!-- Node17 -->
<g id="node17" class="node">
<title>Node17</title>
<g id="a_node17"><a xlink:href="no__plugins_8cpp.html" target="_top" xlink:title=" ">
<polygon fill="white" stroke="#666666" points="1421.67,-266.5 1303.67,-266.5 1303.67,-247.5 1421.67,-247.5 1421.67,-266.5"/>
<text text-anchor="middle" x="1362.67" y="-254.5" font-family="Helvetica,sans-Serif" font-size="10.00">src/js/no_plugins.cpp</text>
</a>
</g>
</g>
<!-- Node3&#45;&gt;Node17 -->
<g id="edge19" class="edge">
<title>Node3&#45;&gt;Node17</title>
<path fill="none" stroke="#63b8ff" d="M895.02,-315.76C991.66,-308.04 1154.63,-293.25 1293.67,-272 1303.57,-270.49 1314.21,-268.51 1324.1,-266.51"/>
<polygon fill="#63b8ff" stroke="#63b8ff" points="894.7,-312.28 885.01,-316.56 895.25,-319.26 894.7,-312.28"/>
</g>
<!-- Node19 -->
<g id="node19" class="node">
<title>Node19</title>
<g id="a_node19"><a xlink:href="user__frontend_8h.html" target="_top" xlink:title=" ">
<polygon fill="white" stroke="#666666" points="266.17,-134.5 111.17,-134.5 111.17,-115.5 266.17,-115.5 266.17,-134.5"/>
<text text-anchor="middle" x="188.67" y="-122.5" font-family="Helvetica,sans-Serif" font-size="10.00">src/node/rpc/user_frontend.h</text>
</a>
</g>
</g>
<!-- Node3&#45;&gt;Node19 -->
<g id="edge21" class="edge">
<title>Node3&#45;&gt;Node19</title>
<path fill="none" stroke="#63b8ff" d="M726.52,-319.47C577.96,-314.3 281.23,-300.51 243.67,-272 198.14,-237.45 190.3,-160.67 188.95,-134.74"/>
<polygon fill="#63b8ff" stroke="#63b8ff" points="726.41,-322.97 736.52,-319.82 726.65,-315.98 726.41,-322.97"/>
</g>
<!-- Node7&#45;&gt;Node8 -->
<g id="edge7" class="edge">
<title>Node7&#45;&gt;Node8</title>
<path fill="none" stroke="#63b8ff" d="M375.29,-238.19C396.8,-229.56 422.06,-218.39 443.67,-206 478.28,-186.15 514.84,-157.12 535.3,-140.04"/>
<polygon fill="#63b8ff" stroke="#63b8ff" points="373.71,-235.05 365.69,-241.97 376.28,-241.56 373.71,-235.05"/>
</g>
<!-- Node7&#45;&gt;Node9 -->
<g id="edge8" class="edge">
<title>Node7&#45;&gt;Node9</title>
<path fill="none" stroke="#63b8ff" d="M336.26,-232.39C339.83,-223.59 343.78,-213.86 346.91,-206.16"/>
<polygon fill="#63b8ff" stroke="#63b8ff" points="332.96,-231.21 332.44,-241.8 339.44,-233.85 332.96,-231.21"/>
</g>
<!-- Node9&#45;&gt;Node8 -->
<g id="edge9" class="edge">
<title>Node9&#45;&gt;Node8</title>
<path fill="none" stroke="#63b8ff" d="M405.97,-172.86C437.93,-162.58 478.05,-149.68 508.1,-140.01"/>
<polygon fill="#63b8ff" stroke="#63b8ff" points="404.79,-169.56 396.34,-175.95 406.93,-176.23 404.79,-169.56"/>
</g>
<!-- Node10 -->
<g id="node10" class="node">
<title>Node10</title>
<g id="a_node10"><a xlink:href="external__executor__indexing_8cpp.html" target="_top" xlink:title=" ">
<polygon fill="white" stroke="#666666" points="459.17,-140 284.17,-140 284.17,-110 459.17,-110 459.17,-140"/>
<text text-anchor="start" x="292.17" y="-128" font-family="Helvetica,sans-Serif" font-size="10.00">src/apps/external_executor</text>
<text text-anchor="middle" x="371.67" y="-117" font-family="Helvetica,sans-Serif" font-size="10.00">/external_executor_indexing.cpp</text>
</a>
</g>
</g>
<!-- Node9&#45;&gt;Node10 -->
<g id="edge10" class="edge">
<title>Node9&#45;&gt;Node10</title>
<path fill="none" stroke="#63b8ff" d="M359.76,-166.11C362.35,-157.38 365.2,-147.78 367.46,-140.16"/>
<polygon fill="#63b8ff" stroke="#63b8ff" points="356.37,-165.21 356.88,-175.8 363.08,-167.21 356.37,-165.21"/>
</g>
<!-- Node13&#45;&gt;Node11 -->
<g id="edge15" class="edge">
<title>Node13&#45;&gt;Node11</title>
<path fill="none" stroke="#63b8ff" d="M660.73,-233.24C654.81,-224.21 648.18,-214.11 642.96,-206.16"/>
<polygon fill="#63b8ff" stroke="#63b8ff" points="657.93,-235.36 666.34,-241.8 663.78,-231.52 657.93,-235.36"/>
</g>
<!-- Node16 -->
<g id="node16" class="node">
<title>Node16</title>
<g id="a_node16"><a xlink:href="enclave_2main_8cpp.html" target="_top" xlink:title=" ">
<polygon fill="white" stroke="#666666" points="1587.67,-19 1467.67,-19 1467.67,0 1587.67,0 1587.67,-19"/>
<text text-anchor="middle" x="1527.67" y="-7" font-family="Helvetica,sans-Serif" font-size="10.00">src/enclave/main.cpp</text>
</a>
</g>
</g>
<!-- Node15&#45;&gt;Node16 -->
<g id="edge18" class="edge">
<title>Node15&#45;&gt;Node16</title>
<path fill="none" stroke="#63b8ff" d="M1527.67,-44.66C1527.67,-35.93 1527.67,-25.99 1527.67,-19.09"/>
<polygon fill="#63b8ff" stroke="#63b8ff" points="1524.17,-44.75 1527.67,-54.75 1531.17,-44.75 1524.17,-44.75"/>
</g>
<!-- Node18 -->
<g id="node18" class="node">
<title>Node18</title>
<g id="a_node18"><a xlink:href="wrap_8cpp.html" target="_top" xlink:title=" ">
<polygon fill="white" stroke="#666666" points="2238.17,-200.5 2149.17,-200.5 2149.17,-181.5 2238.17,-181.5 2238.17,-200.5"/>
<text text-anchor="middle" x="2193.67" y="-188.5" font-family="Helvetica,sans-Serif" font-size="10.00">src/js/wrap.cpp</text>
</a>
</g>
</g>
<!-- Node17&#45;&gt;Node18 -->
<g id="edge20" class="edge">
<title>Node17&#45;&gt;Node18</title>
<path fill="none" stroke="#63b8ff" d="M1431.9,-246.22C1444.13,-244.68 1456.76,-243.2 1468.67,-242 1725.7,-216.19 2035.35,-199.68 2149.03,-194.11"/>
<polygon fill="#63b8ff" stroke="#63b8ff" points="1431.21,-242.78 1421.74,-247.53 1432.1,-249.73 1431.21,-242.78"/>
</g>
<!-- Node19&#45;&gt;Node15 -->
<g id="edge22" class="edge">
<title>Node19&#45;&gt;Node15</title>
<path fill="none" stroke="#63b8ff" d="M244.39,-113.88C254.44,-112.36 264.84,-110.97 274.67,-110 730.92,-64.94 1284.59,-63.9 1466.53,-64.95"/>
<polygon fill="#63b8ff" stroke="#63b8ff" points="243.83,-110.43 234.5,-115.44 244.92,-117.34 243.83,-110.43"/>
</g>
<!-- Node21&#45;&gt;Node15 -->
<g id="edge26" class="edge">
<title>Node21&#45;&gt;Node15</title>
<path fill="none" stroke="#63b8ff" d="M1139.43,-299.84C1126.75,-283.14 1114.85,-260.11 1126.67,-242 1202.62,-125.58 1374.48,-85.43 1466.62,-71.99"/>
<polygon fill="#63b8ff" stroke="#63b8ff" points="1136.99,-302.38 1146.02,-307.93 1142.42,-297.96 1136.99,-302.38"/>
</g>
<!-- Node22 -->
<g id="node22" class="node">
<title>Node22</title>
<g id="a_node22"><a xlink:href="ccf__acme__client_8h.html" target="_top" xlink:title=" ">
<polygon fill="white" stroke="#666666" points="1285.17,-266.5 1136.17,-266.5 1136.17,-247.5 1285.17,-247.5 1285.17,-266.5"/>
<text text-anchor="middle" x="1210.67" y="-254.5" font-family="Helvetica,sans-Serif" font-size="10.00">src/node/ccf_acme_client.h</text>
</a>
</g>
</g>
<!-- Node21&#45;&gt;Node22 -->
<g id="edge27" class="edge">
<title>Node21&#45;&gt;Node22</title>
<path fill="none" stroke="#63b8ff" d="M1177.24,-299.94C1186.3,-288.58 1196.83,-275.36 1203.62,-266.84"/>
<polygon fill="#63b8ff" stroke="#63b8ff" points="1174.48,-297.79 1170.98,-307.8 1179.95,-302.16 1174.48,-297.79"/>
</g>
<!-- Node23 -->
<g id="node23" class="node">
<title>Node23</title>
<g id="a_node23"><a xlink:href="node__state_8h.html" target="_top" xlink:title=" ">
<polygon fill="white" stroke="#666666" points="1776.67,-200.5 1652.67,-200.5 1652.67,-181.5 1776.67,-181.5 1776.67,-200.5"/>
<text text-anchor="middle" x="1714.67" y="-188.5" font-family="Helvetica,sans-Serif" font-size="10.00">src/node/node_state.h</text>
</a>
</g>
</g>
<!-- Node22&#45;&gt;Node23 -->
<g id="edge28" class="edge">
<title>Node22&#45;&gt;Node23</title>
<path fill="none" stroke="#63b8ff" d="M1269.61,-245.82C1278.01,-244.47 1286.55,-243.16 1294.67,-242 1421.52,-223.89 1570.58,-207.24 1652.64,-198.47"/>
<polygon fill="#63b8ff" stroke="#63b8ff" points="1268.77,-242.41 1259.47,-247.47 1269.9,-249.32 1268.77,-242.41"/>
</g>
<!-- Node23&#45;&gt;Node15 -->
<g id="edge29" class="edge">
<title>Node23&#45;&gt;Node15</title>
<path fill="none" stroke="#63b8ff" d="M1698.71,-174.39C1680.59,-157.21 1649.63,-129.43 1619.67,-110 1596.89,-95.23 1568.48,-82.22 1549.3,-74.14"/>
<polygon fill="#63b8ff" stroke="#63b8ff" points="1696.45,-177.07 1706.09,-181.48 1701.3,-172.03 1696.45,-177.07"/>
</g>
<!-- Node24 -->
<g id="node24" class="node">
<title>Node24</title>
<g id="a_node24"><a xlink:href="gov__effects_8h.html" target="_top" xlink:title=" ">
<polygon fill="white" stroke="#666666" points="1815.67,-134.5 1671.67,-134.5 1671.67,-115.5 1815.67,-115.5 1815.67,-134.5"/>
<text text-anchor="middle" x="1743.67" y="-122.5" font-family="Helvetica,sans-Serif" font-size="10.00">src/node/rpc/gov_effects.h</text>
</a>
</g>
</g>
<!-- Node23&#45;&gt;Node24 -->
<g id="edge30" class="edge">
<title>Node23&#45;&gt;Node24</title>
<path fill="none" stroke="#63b8ff" d="M1722.74,-172.18C1728.24,-160.05 1735.28,-144.51 1739.63,-134.91"/>
<polygon fill="#63b8ff" stroke="#63b8ff" points="1719.52,-170.82 1718.58,-181.37 1725.89,-173.7 1719.52,-170.82"/>
</g>
<!-- Node24&#45;&gt;Node15 -->
<g id="edge31" class="edge">
<title>Node24&#45;&gt;Node15</title>
<path fill="none" stroke="#63b8ff" d="M1702.4,-112.82C1660.63,-101.51 1596.96,-84.27 1559.11,-74.02"/>
<polygon fill="#63b8ff" stroke="#63b8ff" points="1701.69,-116.26 1712.26,-115.49 1703.52,-109.5 1701.69,-116.26"/>
</g>
<!-- Node25&#45;&gt;Node15 -->
<g id="edge33" class="edge">
<title>Node25&#45;&gt;Node15</title>
<path fill="none" stroke="#63b8ff" d="M1454.85,-297.65C1458.39,-281.73 1463.38,-260.52 1468.67,-242 1487.28,-176.75 1515.06,-99.78 1524.44,-74.23"/>
<polygon fill="#63b8ff" stroke="#63b8ff" points="1451.37,-297.22 1452.65,-307.74 1458.2,-298.72 1451.37,-297.22"/>
</g>
<!-- Node26&#45;&gt;Node15 -->
<g id="edge35" class="edge">
<title>Node26&#45;&gt;Node15</title>
<path fill="none" stroke="#63b8ff" d="M1670.22,-305.76C1661.61,-296.29 1650.98,-283.91 1642.67,-272 1592.18,-199.65 1545.38,-103.17 1531.69,-74.13"/>
<polygon fill="#63b8ff" stroke="#63b8ff" points="1667.79,-308.29 1677.16,-313.24 1672.92,-303.52 1667.79,-308.29"/>
</g>
<!-- Node27 -->
<g id="node27" class="node">
<title>Node27</title>
<g id="a_node27"><a xlink:href="jwt__key__auto__refresh_8h.html" target="_top" xlink:title=" ">
<polygon fill="white" stroke="#666666" points="1777.17,-272 1652.17,-272 1652.17,-242 1777.17,-242 1777.17,-272"/>
<text text-anchor="start" x="1660.17" y="-260" font-family="Helvetica,sans-Serif" font-size="10.00">src/node/jwt_key_auto</text>
<text text-anchor="middle" x="1714.67" y="-249" font-family="Helvetica,sans-Serif" font-size="10.00">_refresh.h</text>
</a>
</g>
</g>
<!-- Node26&#45;&gt;Node27 -->
<g id="edge36" class="edge">
<title>Node26&#45;&gt;Node27</title>
<path fill="none" stroke="#63b8ff" d="M1693.83,-303.98C1698.36,-293.98 1703.92,-281.71 1708.16,-272.36"/>
<polygon fill="#63b8ff" stroke="#63b8ff" points="1690.52,-302.82 1689.58,-313.37 1696.89,-305.7 1690.52,-302.82"/>
</g>
<!-- Node27&#45;&gt;Node23 -->
<g id="edge37" class="edge">
<title>Node27&#45;&gt;Node23</title>
<path fill="none" stroke="#63b8ff" d="M1714.67,-231.6C1714.67,-220.8 1714.67,-208.78 1714.67,-200.84"/>
<polygon fill="#63b8ff" stroke="#63b8ff" points="1711.17,-231.8 1714.67,-241.8 1718.17,-231.8 1711.17,-231.8"/>
</g>
<!-- Node29&#45;&gt;Node12 -->
<g id="edge41" class="edge">
<title>Node29&#45;&gt;Node12</title>
<path fill="none" stroke="#63b8ff" d="M1794.26,-387.96C1741.74,-385.76 1658.08,-375.87 1597.67,-338 1571.77,-321.77 1552.77,-290.34 1543.34,-272.08"/>
<polygon fill="#63b8ff" stroke="#63b8ff" points="1794.22,-391.46 1804.34,-388.31 1794.46,-384.47 1794.22,-391.46"/>
</g>
<!-- Node29&#45;&gt;Node15 -->
<g id="edge42" class="edge">
<title>Node29&#45;&gt;Node15</title>
<path fill="none" stroke="#63b8ff" d="M1843.67,-369.16C1843.67,-343.87 1843.67,-297.55 1843.67,-258 1843.67,-258 1843.67,-258 1843.67,-190 1843.67,-153.46 1851.57,-134.73 1824.67,-110 1791.22,-79.26 1665.7,-69.75 1588.95,-66.81"/>
<polygon fill="#63b8ff" stroke="#63b8ff" points="1840.17,-369.48 1843.67,-379.48 1847.17,-369.48 1840.17,-369.48"/>
</g>
<!-- Node29&#45;&gt;Node18 -->
<g id="edge52" class="edge">
<title>Node29&#45;&gt;Node18</title>
<path fill="none" stroke="#63b8ff" d="M1852.41,-370.2C1862.02,-352.29 1879.02,-324.95 1900.67,-308 1978.2,-247.28 2091.56,-214.6 2152.03,-200.55"/>
<polygon fill="#63b8ff" stroke="#63b8ff" points="1849.2,-368.79 1847.74,-379.29 1855.43,-372 1849.2,-368.79"/>
</g>
<!-- Node29&#45;&gt;Node23 -->
<g id="edge53" class="edge">
<title>Node29&#45;&gt;Node23</title>
<path fill="none" stroke="#63b8ff" d="M1837.84,-369.64C1826.68,-335.23 1801.97,-262.68 1785.67,-242 1771.2,-223.65 1748.22,-209.19 1732.34,-200.64"/>
<polygon fill="#63b8ff" stroke="#63b8ff" points="1834.57,-370.9 1840.95,-379.35 1841.23,-368.76 1834.57,-370.9"/>
</g>
<!-- Node29&#45;&gt;Node25 -->
<g id="edge54" class="edge">
<title>Node29&#45;&gt;Node25</title>
<path fill="none" stroke="#63b8ff" d="M1794.25,-379.97C1722,-368.24 1587.68,-346.42 1509.79,-333.77"/>
<polygon fill="#63b8ff" stroke="#63b8ff" points="1794.02,-383.48 1804.45,-381.63 1795.14,-376.57 1794.02,-383.48"/>
</g>
<!-- Node29&#45;&gt;Node26 -->
<g id="edge55" class="edge">
<title>Node29&#45;&gt;Node26</title>
<path fill="none" stroke="#63b8ff" d="M1812.84,-375.51C1781.61,-362.86 1734.13,-343.63 1706.89,-332.6"/>
<polygon fill="#63b8ff" stroke="#63b8ff" points="1811.78,-378.86 1822.36,-379.37 1814.4,-372.37 1811.78,-378.86"/>
</g>
<!-- Node30 -->
<g id="node30" class="node">
<title>Node30</title>
<g id="a_node30"><a xlink:href="consensus_8cpp.html" target="_top" xlink:title=" ">
<polygon fill="white" stroke="#666666" points="2171.67,-332.5 2055.67,-332.5 2055.67,-313.5 2171.67,-313.5 2171.67,-332.5"/>
<text text-anchor="middle" x="2113.67" y="-320.5" font-family="Helvetica,sans-Serif" font-size="10.00">src/js/consensus.cpp</text>
</a>
</g>
</g>
<!-- Node29&#45;&gt;Node30 -->
<g id="edge43" class="edge">
<title>Node29&#45;&gt;Node30</title>
<path fill="none" stroke="#63b8ff" d="M1881.41,-376.75C1884.87,-375.79 1888.33,-374.86 1891.67,-374 1925.81,-365.19 2020.27,-344.35 2074.33,-332.55"/>
<polygon fill="#63b8ff" stroke="#63b8ff" points="1880.42,-373.39 1871.76,-379.49 1882.33,-380.13 1880.42,-373.39"/>
</g>
<!-- Node31 -->
<g id="node31" class="node">
<title>Node31</title>
<g id="a_node31"><a xlink:href="conv_8cpp.html" target="_top" xlink:title=" ">
<polygon fill="white" stroke="#666666" points="2277.67,-332.5 2189.67,-332.5 2189.67,-313.5 2277.67,-313.5 2277.67,-332.5"/>
<text text-anchor="middle" x="2233.67" y="-320.5" font-family="Helvetica,sans-Serif" font-size="10.00">src/js/conv.cpp</text>
</a>
</g>
</g>
<!-- Node29&#45;&gt;Node31 -->
<g id="edge45" class="edge">
<title>Node29&#45;&gt;Node31</title>
<path fill="none" stroke="#63b8ff" d="M1879.84,-376.78C1883.81,-375.75 1887.81,-374.8 1891.67,-374 2018.42,-347.8 2053.59,-362.58 2180.67,-338 2188.33,-336.52 2196.52,-334.55 2204.11,-332.56"/>
<polygon fill="#63b8ff" stroke="#63b8ff" points="1878.84,-373.43 1870.13,-379.46 1880.7,-380.18 1878.84,-373.43"/>
</g>
<!-- Node32 -->
<g id="node32" class="node">
<title>Node32</title>
<g id="a_node32"><a xlink:href="crypto_8cpp.html" target="_top" xlink:title=" ">
<polygon fill="white" stroke="#666666" points="2391.67,-332.5 2295.67,-332.5 2295.67,-313.5 2391.67,-313.5 2391.67,-332.5"/>
<text text-anchor="middle" x="2343.67" y="-320.5" font-family="Helvetica,sans-Serif" font-size="10.00">src/js/crypto.cpp</text>
</a>
</g>
</g>
<!-- Node29&#45;&gt;Node32 -->
<g id="edge47" class="edge">
<title>Node29&#45;&gt;Node32</title>
<path fill="none" stroke="#63b8ff" d="M1879.53,-376.73C1883.59,-375.69 1887.7,-374.75 1891.67,-374 2064.86,-341.17 2112.8,-367.11 2286.67,-338 2295.11,-336.59 2304.15,-334.59 2312.48,-332.55"/>
<polygon fill="#63b8ff" stroke="#63b8ff" points="1878.32,-373.43 1869.6,-379.44 1880.17,-380.18 1878.32,-373.43"/>
</g>
<!-- Node33 -->
<g id="node33" class="node">
<title>Node33</title>
<g id="a_node33"><a xlink:href="historical_8cpp.html" target="_top" xlink:title=" ">
<polygon fill="white" stroke="#666666" points="2519.67,-332.5 2409.67,-332.5 2409.67,-313.5 2519.67,-313.5 2519.67,-332.5"/>
<text text-anchor="middle" x="2464.67" y="-320.5" font-family="Helvetica,sans-Serif" font-size="10.00">src/js/historical.cpp</text>
</a>
</g>
</g>
<!-- Node29&#45;&gt;Node33 -->
<g id="edge49" class="edge">
<title>Node29&#45;&gt;Node33</title>
<path fill="none" stroke="#63b8ff" d="M1878.87,-376.81C1883.15,-375.72 1887.48,-374.75 1891.67,-374 2114.9,-334.02 2176.19,-370.32 2400.67,-338 2410.24,-336.62 2420.51,-334.62 2429.96,-332.55"/>
<polygon fill="#63b8ff" stroke="#63b8ff" points="1877.8,-373.47 1869.08,-379.49 1879.65,-380.22 1877.8,-373.47"/>
</g>
<!-- Node34 -->
<g id="node34" class="node">
<title>Node34</title>
<g id="a_node34"><a xlink:href="openenclave_8cpp.html" target="_top" xlink:title=" ">
<polygon fill="white" stroke="#666666" points="2037.67,-332.5 1909.67,-332.5 1909.67,-313.5 2037.67,-313.5 2037.67,-332.5"/>
<text text-anchor="middle" x="1973.67" y="-320.5" font-family="Helvetica,sans-Serif" font-size="10.00">src/js/openenclave.cpp</text>
</a>
</g>
</g>
<!-- Node29&#45;&gt;Node34 -->
<g id="edge51" class="edge">
<title>Node29&#45;&gt;Node34</title>
<path fill="none" stroke="#63b8ff" d="M1870.35,-374.86C1895.97,-362.25 1933.93,-343.56 1956,-332.7"/>
<polygon fill="#63b8ff" stroke="#63b8ff" points="1868.62,-371.81 1861.2,-379.37 1871.72,-378.09 1868.62,-371.81"/>
</g>
<!-- Node30&#45;&gt;Node18 -->
<g id="edge44" class="edge">
<title>Node30&#45;&gt;Node18</title>
<path fill="none" stroke="#63b8ff" d="M2124.29,-304.73C2141.59,-276.62 2175.23,-221.97 2188.29,-200.73"/>
<polygon fill="#63b8ff" stroke="#63b8ff" points="2121.18,-303.12 2118.92,-313.47 2127.14,-306.79 2121.18,-303.12"/>
</g>
<!-- Node31&#45;&gt;Node18 -->
<g id="edge46" class="edge">
<title>Node31&#45;&gt;Node18</title>
<path fill="none" stroke="#63b8ff" d="M2228.01,-303.61C2219.26,-275.19 2202.8,-221.69 2196.35,-200.73"/>
<polygon fill="#63b8ff" stroke="#63b8ff" points="2224.76,-304.94 2231.04,-313.47 2231.45,-302.88 2224.76,-304.94"/>
</g>
<!-- Node32&#45;&gt;Node18 -->
<g id="edge48" class="edge">
<title>Node32&#45;&gt;Node18</title>
<path fill="none" stroke="#63b8ff" d="M2326.23,-306.89C2294.63,-279.51 2228.88,-222.52 2203.74,-200.73"/>
<polygon fill="#63b8ff" stroke="#63b8ff" points="2323.98,-309.57 2333.82,-313.47 2328.56,-304.28 2323.98,-309.57"/>
</g>
<!-- Node33&#45;&gt;Node18 -->
<g id="edge50" class="edge">
<title>Node33&#45;&gt;Node18</title>
<path fill="none" stroke="#63b8ff" d="M2437.73,-309.08C2382.53,-282.6 2257.91,-222.82 2211.51,-200.56"/>
<polygon fill="#63b8ff" stroke="#63b8ff" points="2436.35,-312.3 2446.89,-313.47 2439.38,-305.99 2436.35,-312.3"/>
</g>
</g>
</svg>
