<?xml version="1.0" encoding="UTF-8" standalone="no"?>
<!DOCTYPE svg PUBLIC "-//W3C//DTD SVG 1.1//EN"
 "http://www.w3.org/Graphics/SVG/1.1/DTD/svg11.dtd">
<!-- Generated by graphviz version 2.43.0 (0)
 -->
<!-- Title: src/crypto/certs.h Pages: 1 -->
<svg width="1957pt" height="621pt"
 viewBox="0.00 0.00 1957.00 621.00" xmlns="http://www.w3.org/2000/svg" xmlns:xlink="http://www.w3.org/1999/xlink">
<g id="graph0" class="graph" transform="scale(1 1) rotate(0) translate(4 617)">
<title>src/crypto/certs.h</title>
<!-- Node1 -->
<g id="node1" class="node">
<title>Node1</title>
<g id="a_node1"><a xlink:title=" ">
<polygon fill="#999999" stroke="#666666" points="485.5,-613 384.5,-613 384.5,-594 485.5,-594 485.5,-613"/>
<text text-anchor="middle" x="435" y="-601" font-family="Helvetica,sans-Serif" font-size="10.00">src/crypto/certs.h</text>
</a>
</g>
</g>
<!-- Node2 -->
<g id="node2" class="node">
<title>Node2</title>
<g id="a_node2"><a xlink:href="wrap_8cpp.html" target="_top" xlink:title=" ">
<polygon fill="white" stroke="#666666" points="440.5,-244.5 351.5,-244.5 351.5,-225.5 440.5,-225.5 440.5,-244.5"/>
<text text-anchor="middle" x="396" y="-232.5" font-family="Helvetica,sans-Serif" font-size="10.00">src/js/wrap.cpp</text>
</a>
</g>
</g>
<!-- Node1&#45;&gt;Node2 -->
<g id="edge1" class="edge">
<title>Node1&#45;&gt;Node2</title>
<path fill="none" stroke="#63b8ff" d="M379.24,-591.92C296.79,-574.67 152,-537.47 152,-489 152,-489 152,-489 152,-360.5 152,-272.04 280.81,-246.4 351.25,-238.99"/>
<polygon fill="#63b8ff" stroke="#63b8ff" points="378.72,-595.39 389.22,-593.98 380.13,-588.53 378.72,-595.39"/>
</g>
<!-- Node3 -->
<g id="node3" class="node">
<title>Node3</title>
<g id="a_node3"><a xlink:href="identity_8h.html" target="_top" xlink:title=" ">
<polygon fill="white" stroke="#666666" points="1294,-558 1188,-558 1188,-539 1294,-539 1294,-558"/>
<text text-anchor="middle" x="1241" y="-546" font-family="Helvetica,sans-Serif" font-size="10.00">src/node/identity.h</text>
</a>
</g>
</g>
<!-- Node1&#45;&gt;Node3 -->
<g id="edge2" class="edge">
<title>Node1&#45;&gt;Node3</title>
<path fill="none" stroke="#63b8ff" d="M495.83,-598.5C648.14,-588.48 1043.96,-562.46 1187.78,-553"/>
<polygon fill="#63b8ff" stroke="#63b8ff" points="495.47,-595.02 485.72,-599.16 495.93,-602 495.47,-595.02"/>
</g>
<!-- Node15 -->
<g id="node15" class="node">
<title>Node15</title>
<g id="a_node15"><a xlink:href="node__state_8h.html" target="_top" xlink:title=" ">
<polygon fill="white" stroke="#666666" points="1207,-184 1083,-184 1083,-165 1207,-165 1207,-184"/>
<text text-anchor="middle" x="1145" y="-172" font-family="Helvetica,sans-Serif" font-size="10.00">src/node/node_state.h</text>
</a>
</g>
</g>
<!-- Node1&#45;&gt;Node15 -->
<g id="edge60" class="edge">
<title>Node1&#45;&gt;Node15</title>
<path fill="none" stroke="#63b8ff" d="M374.14,-599.3C254.45,-591.33 0,-565.41 0,-489 0,-489 0,-489 0,-421 0,-326.25 82.79,-333.11 165,-286 238.2,-244.05 260.4,-237.2 343,-220 484.05,-190.64 919.88,-179.68 1082.75,-176.55"/>
<polygon fill="#63b8ff" stroke="#63b8ff" points="374.04,-602.8 384.25,-599.95 374.49,-595.81 374.04,-602.8"/>
</g>
<!-- Node18 -->
<g id="node18" class="node">
<title>Node18</title>
<g id="a_node18"><a xlink:href="node__frontend_8h.html" target="_top" xlink:title=" ">
<polygon fill="white" stroke="#666666" points="1178,-310.5 1020,-310.5 1020,-291.5 1178,-291.5 1178,-310.5"/>
<text text-anchor="middle" x="1099" y="-298.5" font-family="Helvetica,sans-Serif" font-size="10.00">src/node/rpc/node_frontend.h</text>
</a>
</g>
</g>
<!-- Node1&#45;&gt;Node18 -->
<g id="edge61" class="edge">
<title>Node1&#45;&gt;Node18</title>
<path fill="none" stroke="#63b8ff" d="M495.81,-601.84C632.47,-598.7 952,-581.47 952,-489 952,-489 952,-489 952,-421 952,-360.58 1027.94,-325.54 1070.66,-310.61"/>
<polygon fill="#63b8ff" stroke="#63b8ff" points="495.44,-598.34 485.51,-602.05 495.59,-605.34 495.44,-598.34"/>
</g>
<!-- Node4 -->
<g id="node4" class="node">
<title>Node4</title>
<g id="a_node4"><a xlink:href="historical__queries__utils_8cpp.html" target="_top" xlink:title=" ">
<polygon fill="white" stroke="#666666" points="1254,-503 1148,-503 1148,-473 1254,-473 1254,-503"/>
<text text-anchor="start" x="1156" y="-491" font-family="Helvetica,sans-Serif" font-size="10.00">src/node/historical</text>
<text text-anchor="middle" x="1201" y="-480" font-family="Helvetica,sans-Serif" font-size="10.00">_queries_utils.cpp</text>
</a>
</g>
</g>
<!-- Node3&#45;&gt;Node4 -->
<g id="edge3" class="edge">
<title>Node3&#45;&gt;Node4</title>
<path fill="none" stroke="#63b8ff" d="M1229.45,-530.61C1223.49,-521.89 1216.31,-511.39 1210.65,-503.11"/>
<polygon fill="#63b8ff" stroke="#63b8ff" points="1226.56,-532.59 1235.1,-538.87 1232.34,-528.64 1226.56,-532.59"/>
</g>
<!-- Node5 -->
<g id="node5" class="node">
<title>Node5</title>
<g id="a_node5"><a xlink:href="network__state_8h.html" target="_top" xlink:title=" ">
<polygon fill="white" stroke="#666666" points="1352,-431.5 1212,-431.5 1212,-412.5 1352,-412.5 1352,-431.5"/>
<text text-anchor="middle" x="1282" y="-419.5" font-family="Helvetica,sans-Serif" font-size="10.00">src/node/network_state.h</text>
</a>
</g>
</g>
<!-- Node3&#45;&gt;Node5 -->
<g id="edge4" class="edge">
<title>Node3&#45;&gt;Node5</title>
<path fill="none" stroke="#63b8ff" d="M1250.75,-530.09C1254.96,-522.03 1259.67,-512.22 1263,-503 1272.11,-477.75 1278.08,-446.44 1280.62,-431.59"/>
<polygon fill="#63b8ff" stroke="#63b8ff" points="1247.67,-528.43 1245.99,-538.89 1253.82,-531.76 1247.67,-528.43"/>
</g>
<!-- Node26 -->
<g id="node26" class="node">
<title>Node26</title>
<g id="a_node26"><a xlink:href="call__types_8h.html" target="_top" xlink:title=" ">
<polygon fill="white" stroke="#666666" points="1618.5,-431.5 1481.5,-431.5 1481.5,-412.5 1618.5,-412.5 1618.5,-431.5"/>
<text text-anchor="middle" x="1550" y="-419.5" font-family="Helvetica,sans-Serif" font-size="10.00">src/node/rpc/call_types.h</text>
</a>
</g>
</g>
<!-- Node3&#45;&gt;Node26 -->
<g id="edge45" class="edge">
<title>Node3&#45;&gt;Node26</title>
<path fill="none" stroke="#63b8ff" d="M1304.31,-544.97C1351.98,-540.81 1417.67,-530.11 1469,-503 1502.9,-485.09 1531.94,-448.38 1544.01,-431.65"/>
<polygon fill="#63b8ff" stroke="#63b8ff" points="1303.81,-541.5 1294.12,-545.79 1304.37,-548.48 1303.81,-541.5"/>
</g>
<!-- Node29 -->
<g id="node29" class="node">
<title>Node29</title>
<g id="a_node29"><a xlink:href="network__identity__subsystem_8h.html" target="_top" xlink:title=" ">
<polygon fill="white" stroke="#666666" points="725.5,-503 598.5,-503 598.5,-473 725.5,-473 725.5,-503"/>
<text text-anchor="start" x="606.5" y="-491" font-family="Helvetica,sans-Serif" font-size="10.00">src/node/rpc/network</text>
<text text-anchor="middle" x="662" y="-480" font-family="Helvetica,sans-Serif" font-size="10.00">_identity_subsystem.h</text>
</a>
</g>
</g>
<!-- Node3&#45;&gt;Node29 -->
<g id="edge54" class="edge">
<title>Node3&#45;&gt;Node29</title>
<path fill="none" stroke="#63b8ff" d="M1177.77,-541.11C1066.61,-529.88 837.41,-506.72 725.83,-495.45"/>
<polygon fill="#63b8ff" stroke="#63b8ff" points="1177.52,-544.6 1187.83,-542.13 1178.23,-537.64 1177.52,-544.6"/>
</g>
<!-- Node32 -->
<g id="node32" class="node">
<title>Node32</title>
<g id="a_node32"><a xlink:href="node__call__types_8h.html" target="_top" xlink:title=" ">
<polygon fill="white" stroke="#666666" points="1459.5,-503 1334.5,-503 1334.5,-473 1459.5,-473 1459.5,-503"/>
<text text-anchor="start" x="1342.5" y="-491" font-family="Helvetica,sans-Serif" font-size="10.00">src/node/rpc/node_call</text>
<text text-anchor="middle" x="1397" y="-480" font-family="Helvetica,sans-Serif" font-size="10.00">_types.h</text>
</a>
</g>
</g>
<!-- Node3&#45;&gt;Node32 -->
<g id="edge58" class="edge">
<title>Node3&#45;&gt;Node32</title>
<path fill="none" stroke="#63b8ff" d="M1273.11,-535.46C1298.2,-526.05 1333.12,-512.95 1359.5,-503.06"/>
<polygon fill="#63b8ff" stroke="#63b8ff" points="1271.82,-532.21 1263.68,-538.99 1274.28,-538.76 1271.82,-532.21"/>
</g>
<!-- Node6 -->
<g id="node6" class="node">
<title>Node6</title>
<g id="a_node6"><a xlink:href="src_2enclave_2enclave_8h.html" target="_top" xlink:title=" ">
<polygon fill="white" stroke="#666666" points="1106,-74 984,-74 984,-55 1106,-55 1106,-74"/>
<text text-anchor="middle" x="1045" y="-62" font-family="Helvetica,sans-Serif" font-size="10.00">src/enclave/enclave.h</text>
</a>
</g>
</g>
<!-- Node5&#45;&gt;Node6 -->
<g id="edge5" class="edge">
<title>Node5&#45;&gt;Node6</title>
<path fill="none" stroke="#63b8ff" d="M1201.34,-418.61C953.99,-410.59 217.86,-381.42 134,-316 109.39,-296.8 117.71,-280.25 110,-250 100.6,-213.14 81.39,-198.18 100,-165 122.93,-124.11 145.22,-123.87 190,-110 265.16,-86.73 800.95,-71.51 983.93,-66.94"/>
<polygon fill="#63b8ff" stroke="#63b8ff" points="1201.58,-422.12 1211.69,-418.94 1201.81,-415.12 1201.58,-422.12"/>
</g>
<!-- Node8 -->
<g id="node8" class="node">
<title>Node8</title>
<g id="a_node8"><a xlink:href="wrap_8h.html" target="_top" xlink:title=" ">
<polygon fill="white" stroke="#666666" points="753,-371 675,-371 675,-352 753,-352 753,-371"/>
<text text-anchor="middle" x="714" y="-359" font-family="Helvetica,sans-Serif" font-size="10.00">src/js/wrap.h</text>
</a>
</g>
</g>
<!-- Node5&#45;&gt;Node8 -->
<g id="edge7" class="edge">
<title>Node5&#45;&gt;Node8</title>
<path fill="none" stroke="#63b8ff" d="M1201.62,-412.72C1077.96,-399.99 845.69,-376.06 753.33,-366.55"/>
<polygon fill="#63b8ff" stroke="#63b8ff" points="1201.48,-416.23 1211.78,-413.77 1202.19,-409.26 1201.48,-416.23"/>
</g>
<!-- Node5&#45;&gt;Node15 -->
<g id="edge34" class="edge">
<title>Node5&#45;&gt;Node15</title>
<path fill="none" stroke="#63b8ff" d="M1273.36,-403.17C1258.93,-375.01 1227.5,-319.93 1187,-286 1158.04,-261.74 1130.28,-281.87 1110,-250 1095.73,-227.58 1120.67,-198.41 1135.38,-184.13"/>
<polygon fill="#63b8ff" stroke="#63b8ff" points="1270.29,-404.86 1277.89,-412.24 1276.55,-401.73 1270.29,-404.86"/>
</g>
<!-- Node5&#45;&gt;Node18 -->
<g id="edge35" class="edge">
<title>Node5&#45;&gt;Node18</title>
<path fill="none" stroke="#63b8ff" d="M1256.13,-407.79C1237.85,-398.18 1212.98,-384.53 1192,-371 1160.91,-350.95 1126.47,-324.08 1109.55,-310.55"/>
<polygon fill="#63b8ff" stroke="#63b8ff" points="1254.54,-410.91 1265.03,-412.42 1257.78,-404.7 1254.54,-410.91"/>
</g>
<!-- Node20 -->
<g id="node20" class="node">
<title>Node20</title>
<g id="a_node20"><a xlink:href="acme__challenge__frontend_8h.html" target="_top" xlink:title=" ">
<polygon fill="white" stroke="#666666" points="1589,-316 1449,-316 1449,-286 1589,-286 1589,-316"/>
<text text-anchor="start" x="1457" y="-304" font-family="Helvetica,sans-Serif" font-size="10.00">src/node/acme_challenge</text>
<text text-anchor="middle" x="1519" y="-293" font-family="Helvetica,sans-Serif" font-size="10.00">_frontend.h</text>
</a>
</g>
</g>
<!-- Node5&#45;&gt;Node20 -->
<g id="edge30" class="edge">
<title>Node5&#45;&gt;Node20</title>
<path fill="none" stroke="#63b8ff" d="M1362.22,-411.87C1417.01,-404 1483.14,-390.75 1503,-371 1517.47,-356.6 1519.9,-331.87 1519.82,-316.25"/>
<polygon fill="#63b8ff" stroke="#63b8ff" points="1361.55,-408.43 1352.13,-413.27 1362.52,-415.36 1361.55,-408.43"/>
</g>
<!-- Node22 -->
<g id="node22" class="node">
<title>Node22</title>
<g id="a_node22"><a xlink:href="user__frontend_8h.html" target="_top" xlink:title=" ">
<polygon fill="white" stroke="#666666" points="1870.5,-184 1715.5,-184 1715.5,-165 1870.5,-165 1870.5,-184"/>
<text text-anchor="middle" x="1793" y="-172" font-family="Helvetica,sans-Serif" font-size="10.00">src/node/rpc/user_frontend.h</text>
</a>
</g>
</g>
<!-- Node5&#45;&gt;Node22 -->
<g id="edge36" class="edge">
<title>Node5&#45;&gt;Node22</title>
<path fill="none" stroke="#63b8ff" d="M1362.7,-414.83C1492.77,-404.53 1735.78,-383.74 1750,-371 1806.18,-320.69 1798.01,-215.2 1794.22,-184.23"/>
<polygon fill="#63b8ff" stroke="#63b8ff" points="1362.08,-411.37 1352.39,-415.64 1362.63,-418.34 1362.08,-411.37"/>
</g>
<!-- Node23 -->
<g id="node23" class="node">
<title>Node23</title>
<g id="a_node23"><a xlink:href="secret__broadcast_8h.html" target="_top" xlink:title=" ">
<polygon fill="white" stroke="#666666" points="1416.5,-244.5 1263.5,-244.5 1263.5,-225.5 1416.5,-225.5 1416.5,-244.5"/>
<text text-anchor="middle" x="1340" y="-232.5" font-family="Helvetica,sans-Serif" font-size="10.00">src/node/secret_broadcast.h</text>
</a>
</g>
</g>
<!-- Node5&#45;&gt;Node23 -->
<g id="edge38" class="edge">
<title>Node5&#45;&gt;Node23</title>
<path fill="none" stroke="#63b8ff" d="M1287.81,-402.47C1300.09,-363.29 1328.29,-273.34 1337.23,-244.83"/>
<polygon fill="#63b8ff" stroke="#63b8ff" points="1284.45,-401.49 1284.8,-412.08 1291.13,-403.58 1284.45,-401.49"/>
</g>
<!-- Node24 -->
<g id="node24" class="node">
<title>Node24</title>
<g id="a_node24"><a xlink:href="share__manager_8h.html" target="_top" xlink:title=" ">
<polygon fill="white" stroke="#666666" points="1493.5,-371 1348.5,-371 1348.5,-352 1493.5,-352 1493.5,-371"/>
<text text-anchor="middle" x="1421" y="-359" font-family="Helvetica,sans-Serif" font-size="10.00">src/node/share_manager.h</text>
</a>
</g>
</g>
<!-- Node5&#45;&gt;Node24 -->
<g id="edge40" class="edge">
<title>Node5&#45;&gt;Node24</title>
<path fill="none" stroke="#63b8ff" d="M1311.51,-408.58C1338.36,-397.28 1377.28,-380.9 1400.76,-371.02"/>
<polygon fill="#63b8ff" stroke="#63b8ff" points="1310.07,-405.39 1302.21,-412.49 1312.79,-411.84 1310.07,-405.39"/>
</g>
<!-- Node25 -->
<g id="node25" class="node">
<title>Node25</title>
<g id="a_node25"><a xlink:href="snapshotter_8h.html" target="_top" xlink:title=" ">
<polygon fill="white" stroke="#666666" points="1245.5,-244.5 1118.5,-244.5 1118.5,-225.5 1245.5,-225.5 1245.5,-244.5"/>
<text text-anchor="middle" x="1182" y="-232.5" font-family="Helvetica,sans-Serif" font-size="10.00">src/node/snapshotter.h</text>
</a>
</g>
</g>
<!-- Node5&#45;&gt;Node25 -->
<g id="edge43" class="edge">
<title>Node5&#45;&gt;Node25</title>
<path fill="none" stroke="#63b8ff" d="M1283.14,-401.95C1283.87,-374.13 1281.6,-321.83 1258,-286 1245.06,-266.35 1221.43,-252.63 1203.95,-244.6"/>
<polygon fill="#63b8ff" stroke="#63b8ff" points="1279.63,-402.11 1282.7,-412.25 1286.62,-402.41 1279.63,-402.11"/>
</g>
<!-- Node7 -->
<g id="node7" class="node">
<title>Node7</title>
<g id="a_node7"><a xlink:href="enclave_2main_8cpp.html" target="_top" xlink:title=" ">
<polygon fill="white" stroke="#666666" points="1105,-19 985,-19 985,0 1105,0 1105,-19"/>
<text text-anchor="middle" x="1045" y="-7" font-family="Helvetica,sans-Serif" font-size="10.00">src/enclave/main.cpp</text>
</a>
</g>
</g>
<!-- Node6&#45;&gt;Node7 -->
<g id="edge6" class="edge">
<title>Node6&#45;&gt;Node7</title>
<path fill="none" stroke="#63b8ff" d="M1045,-44.66C1045,-35.93 1045,-25.99 1045,-19.09"/>
<polygon fill="#63b8ff" stroke="#63b8ff" points="1041.5,-44.75 1045,-54.75 1048.5,-44.75 1041.5,-44.75"/>
</g>
<!-- Node8&#45;&gt;Node2 -->
<g id="edge19" class="edge">
<title>Node8&#45;&gt;Node2</title>
<path fill="none" stroke="#63b8ff" d="M664.67,-359.85C543.6,-357.75 239.39,-349.19 209,-316 164.7,-267.63 283.14,-247.33 351.48,-239.84"/>
<polygon fill="#63b8ff" stroke="#63b8ff" points="664.72,-363.35 674.78,-360.02 664.84,-356.35 664.72,-363.35"/>
</g>
<!-- Node8&#45;&gt;Node6 -->
<g id="edge9" class="edge">
<title>Node8&#45;&gt;Node6</title>
<path fill="none" stroke="#63b8ff" d="M664.74,-360.46C552.02,-359.69 278.67,-353.85 196,-316 149.71,-294.8 114,-286.92 114,-236 114,-236 114,-236 114,-173.5 114,-85.63 776.79,-69.15 983.91,-66.15"/>
<polygon fill="#63b8ff" stroke="#63b8ff" points="664.8,-363.96 674.82,-360.51 664.84,-356.96 664.8,-363.96"/>
</g>
<!-- Node9 -->
<g id="node9" class="node">
<title>Node9</title>
<g id="a_node9"><a xlink:href="js__generic__base_8cpp.html" target="_top" xlink:title=" ">
<polygon fill="white" stroke="#666666" points="836,-316 718,-316 718,-286 836,-286 836,-316"/>
<text text-anchor="start" x="726" y="-304" font-family="Helvetica,sans-Serif" font-size="10.00">src/apps/js_generic</text>
<text text-anchor="middle" x="777" y="-293" font-family="Helvetica,sans-Serif" font-size="10.00">/js_generic_base.cpp</text>
</a>
</g>
</g>
<!-- Node8&#45;&gt;Node9 -->
<g id="edge8" class="edge">
<title>Node8&#45;&gt;Node9</title>
<path fill="none" stroke="#63b8ff" d="M730.73,-344.97C740.38,-336.01 752.42,-324.82 761.8,-316.11"/>
<polygon fill="#63b8ff" stroke="#63b8ff" points="728.24,-342.5 723.3,-351.87 733.01,-347.63 728.24,-342.5"/>
</g>
<!-- Node10 -->
<g id="node10" class="node">
<title>Node10</title>
<g id="a_node10"><a xlink:href="consensus_8cpp.html" target="_top" xlink:title=" ">
<polygon fill="white" stroke="#666666" points="334,-310.5 218,-310.5 218,-291.5 334,-291.5 334,-310.5"/>
<text text-anchor="middle" x="276" y="-298.5" font-family="Helvetica,sans-Serif" font-size="10.00">src/js/consensus.cpp</text>
</a>
</g>
</g>
<!-- Node8&#45;&gt;Node10 -->
<g id="edge10" class="edge">
<title>Node8&#45;&gt;Node10</title>
<path fill="none" stroke="#63b8ff" d="M664.82,-355.97C593.6,-349.1 457.71,-334.83 343,-316 333.62,-314.46 323.56,-312.52 314.16,-310.57"/>
<polygon fill="#63b8ff" stroke="#63b8ff" points="664.56,-359.46 674.85,-356.93 665.23,-352.49 664.56,-359.46"/>
</g>
<!-- Node11 -->
<g id="node11" class="node">
<title>Node11</title>
<g id="a_node11"><a xlink:href="conv_8cpp.html" target="_top" xlink:title=" ">
<polygon fill="white" stroke="#666666" points="440,-310.5 352,-310.5 352,-291.5 440,-291.5 440,-310.5"/>
<text text-anchor="middle" x="396" y="-298.5" font-family="Helvetica,sans-Serif" font-size="10.00">src/js/conv.cpp</text>
</a>
</g>
</g>
<!-- Node8&#45;&gt;Node11 -->
<g id="edge12" class="edge">
<title>Node8&#45;&gt;Node11</title>
<path fill="none" stroke="#63b8ff" d="M664.5,-353.58C611.08,-345.78 523.6,-332.08 449,-316 441.65,-314.42 433.79,-312.48 426.43,-310.55"/>
<polygon fill="#63b8ff" stroke="#63b8ff" points="664.32,-357.09 674.72,-355.06 665.33,-350.16 664.32,-357.09"/>
</g>
<!-- Node12 -->
<g id="node12" class="node">
<title>Node12</title>
<g id="a_node12"><a xlink:href="crypto_8cpp.html" target="_top" xlink:title=" ">
<polygon fill="white" stroke="#666666" points="700,-310.5 604,-310.5 604,-291.5 700,-291.5 700,-310.5"/>
<text text-anchor="middle" x="652" y="-298.5" font-family="Helvetica,sans-Serif" font-size="10.00">src/js/crypto.cpp</text>
</a>
</g>
</g>
<!-- Node8&#45;&gt;Node12 -->
<g id="edge14" class="edge">
<title>Node8&#45;&gt;Node12</title>
<path fill="none" stroke="#63b8ff" d="M697.48,-344.91C685.85,-333.94 670.72,-319.67 661.19,-310.67"/>
<polygon fill="#63b8ff" stroke="#63b8ff" points="695.18,-347.55 704.85,-351.87 699.98,-342.46 695.18,-347.55"/>
</g>
<!-- Node13 -->
<g id="node13" class="node">
<title>Node13</title>
<g id="a_node13"><a xlink:href="historical_8cpp.html" target="_top" xlink:title=" ">
<polygon fill="white" stroke="#666666" points="964,-310.5 854,-310.5 854,-291.5 964,-291.5 964,-310.5"/>
<text text-anchor="middle" x="909" y="-298.5" font-family="Helvetica,sans-Serif" font-size="10.00">src/js/historical.cpp</text>
</a>
</g>
</g>
<!-- Node8&#45;&gt;Node13 -->
<g id="edge16" class="edge">
<title>Node8&#45;&gt;Node13</title>
<path fill="none" stroke="#63b8ff" d="M751.97,-349.11C789.69,-337.79 846.66,-320.7 880.61,-310.52"/>
<polygon fill="#63b8ff" stroke="#63b8ff" points="750.93,-345.77 742.35,-351.99 752.94,-352.47 750.93,-345.77"/>
</g>
<!-- Node14 -->
<g id="node14" class="node">
<title>Node14</title>
<g id="a_node14"><a xlink:href="openenclave_8cpp.html" target="_top" xlink:title=" ">
<polygon fill="white" stroke="#666666" points="586,-310.5 458,-310.5 458,-291.5 586,-291.5 586,-310.5"/>
<text text-anchor="middle" x="522" y="-298.5" font-family="Helvetica,sans-Serif" font-size="10.00">src/js/openenclave.cpp</text>
</a>
</g>
</g>
<!-- Node8&#45;&gt;Node14 -->
<g id="edge18" class="edge">
<title>Node8&#45;&gt;Node14</title>
<path fill="none" stroke="#63b8ff" d="M676.13,-348.96C639,-337.65 583.24,-320.66 549.95,-310.52"/>
<polygon fill="#63b8ff" stroke="#63b8ff" points="675.5,-352.43 686.08,-351.99 677.54,-345.73 675.5,-352.43"/>
</g>
<!-- Node8&#45;&gt;Node15 -->
<g id="edge20" class="edge">
<title>Node8&#45;&gt;Node15</title>
<path fill="none" stroke="#63b8ff" d="M763.41,-359.3C830.94,-356.51 946.73,-347.17 973,-316 981.59,-305.8 978.78,-298.02 973,-286 961.9,-262.92 939.1,-273.08 928,-250 922.22,-237.98 919.57,-230.33 928,-220 947.27,-196.38 1025.86,-184.95 1082.93,-179.67"/>
<polygon fill="#63b8ff" stroke="#63b8ff" points="762.86,-355.82 753,-359.7 763.13,-362.82 762.86,-355.82"/>
</g>
<!-- Node17 -->
<g id="node17" class="node">
<title>Node17</title>
<g id="a_node17"><a xlink:href="member__frontend_8h.html" target="_top" xlink:title=" ">
<polygon fill="white" stroke="#666666" points="1727,-316 1607,-316 1607,-286 1727,-286 1727,-316"/>
<text text-anchor="start" x="1615" y="-304" font-family="Helvetica,sans-Serif" font-size="10.00">src/node/rpc/member</text>
<text text-anchor="middle" x="1667" y="-293" font-family="Helvetica,sans-Serif" font-size="10.00">_frontend.h</text>
</a>
</g>
</g>
<!-- Node8&#45;&gt;Node17 -->
<g id="edge24" class="edge">
<title>Node8&#45;&gt;Node17</title>
<path fill="none" stroke="#63b8ff" d="M763.39,-360.6C897.92,-360.32 1281.87,-355.8 1598,-316 1600.91,-315.63 1603.88,-315.21 1606.88,-314.75"/>
<polygon fill="#63b8ff" stroke="#63b8ff" points="763.39,-357.1 753.39,-360.62 763.4,-364.1 763.39,-357.1"/>
</g>
<!-- Node8&#45;&gt;Node18 -->
<g id="edge26" class="edge">
<title>Node8&#45;&gt;Node18</title>
<path fill="none" stroke="#63b8ff" d="M763.14,-353.03C834.76,-342.15 967.45,-321.99 1042.84,-310.53"/>
<polygon fill="#63b8ff" stroke="#63b8ff" points="762.4,-349.61 753.03,-354.57 763.45,-356.53 762.4,-349.61"/>
</g>
<!-- Node10&#45;&gt;Node2 -->
<g id="edge11" class="edge">
<title>Node10&#45;&gt;Node2</title>
<path fill="none" stroke="#63b8ff" d="M301.26,-286.53C324.9,-273.92 359.5,-255.47 379.69,-244.7"/>
<polygon fill="#63b8ff" stroke="#63b8ff" points="299.36,-283.57 292.18,-291.37 302.65,-289.75 299.36,-283.57"/>
</g>
<!-- Node11&#45;&gt;Node2 -->
<g id="edge13" class="edge">
<title>Node11&#45;&gt;Node2</title>
<path fill="none" stroke="#63b8ff" d="M396,-281.08C396,-269.13 396,-254.22 396,-244.91"/>
<polygon fill="#63b8ff" stroke="#63b8ff" points="392.5,-281.37 396,-291.37 399.5,-281.37 392.5,-281.37"/>
</g>
<!-- Node12&#45;&gt;Node2 -->
<g id="edge15" class="edge">
<title>Node12&#45;&gt;Node2</title>
<path fill="none" stroke="#63b8ff" d="M607.77,-288.94C557.3,-276.32 475.84,-255.96 430.06,-244.51"/>
<polygon fill="#63b8ff" stroke="#63b8ff" points="607.19,-292.41 617.74,-291.44 608.89,-285.61 607.19,-292.41"/>
</g>
<!-- Node13&#45;&gt;Node2 -->
<g id="edge17" class="edge">
<title>Node13&#45;&gt;Node2</title>
<path fill="none" stroke="#63b8ff" d="M863.15,-289.37C857.07,-288.13 850.9,-286.97 845,-286 697.76,-261.77 521.39,-245.94 440.5,-239.4"/>
<polygon fill="#63b8ff" stroke="#63b8ff" points="862.74,-292.86 873.25,-291.49 864.18,-286.01 862.74,-292.86"/>
</g>
<!-- Node15&#45;&gt;Node6 -->
<g id="edge21" class="edge">
<title>Node15&#45;&gt;Node6</title>
<path fill="none" stroke="#63b8ff" d="M1143.17,-154.55C1141,-140.91 1136.28,-122.73 1126,-110 1111.98,-92.65 1089.31,-81.02 1071.51,-74.02"/>
<polygon fill="#63b8ff" stroke="#63b8ff" points="1139.73,-155.25 1144.45,-164.73 1146.68,-154.37 1139.73,-155.25"/>
</g>
<!-- Node16 -->
<g id="node16" class="node">
<title>Node16</title>
<g id="a_node16"><a xlink:href="gov__effects_8h.html" target="_top" xlink:title=" ">
<polygon fill="white" stroke="#666666" points="1117,-129 973,-129 973,-110 1117,-110 1117,-129"/>
<text text-anchor="middle" x="1045" y="-117" font-family="Helvetica,sans-Serif" font-size="10.00">src/node/rpc/gov_effects.h</text>
</a>
</g>
</g>
<!-- Node15&#45;&gt;Node16 -->
<g id="edge22" class="edge">
<title>Node15&#45;&gt;Node16</title>
<path fill="none" stroke="#63b8ff" d="M1119.97,-160.23C1101.63,-150.51 1077.26,-137.6 1061.36,-129.17"/>
<polygon fill="#63b8ff" stroke="#63b8ff" points="1118.46,-163.39 1128.93,-164.98 1121.74,-157.21 1118.46,-163.39"/>
</g>
<!-- Node16&#45;&gt;Node6 -->
<g id="edge23" class="edge">
<title>Node16&#45;&gt;Node6</title>
<path fill="none" stroke="#63b8ff" d="M1045,-99.66C1045,-90.93 1045,-80.99 1045,-74.09"/>
<polygon fill="#63b8ff" stroke="#63b8ff" points="1041.5,-99.75 1045,-109.75 1048.5,-99.75 1041.5,-99.75"/>
</g>
<!-- Node17&#45;&gt;Node6 -->
<g id="edge25" class="edge">
<title>Node17&#45;&gt;Node6</title>
<path fill="none" stroke="#63b8ff" d="M1665.05,-275.8C1662.77,-259.03 1657.8,-236.79 1647,-220 1625.79,-187.01 1612.64,-183.38 1578,-165 1422.51,-82.48 1209.78,-67.42 1106.4,-65.3"/>
<polygon fill="#63b8ff" stroke="#63b8ff" points="1661.59,-276.37 1666.2,-285.91 1668.55,-275.58 1661.59,-276.37"/>
</g>
<!-- Node18&#45;&gt;Node6 -->
<g id="edge27" class="edge">
<title>Node18&#45;&gt;Node6</title>
<path fill="none" stroke="#63b8ff" d="M1035.26,-289.53C992.3,-281.02 941.17,-267.57 928,-250 901.84,-215.1 915.24,-168.8 964,-110 978.24,-92.83 1000.89,-81.19 1018.63,-74.13"/>
<polygon fill="#63b8ff" stroke="#63b8ff" points="1034.64,-292.98 1045.12,-291.43 1035.96,-286.1 1034.64,-292.98"/>
</g>
<!-- Node19 -->
<g id="node19" class="node">
<title>Node19</title>
<g id="a_node19"><a xlink:href="jwt__key__auto__refresh_8h.html" target="_top" xlink:title=" ">
<polygon fill="white" stroke="#666666" points="1061.5,-250 936.5,-250 936.5,-220 1061.5,-220 1061.5,-250"/>
<text text-anchor="start" x="944.5" y="-238" font-family="Helvetica,sans-Serif" font-size="10.00">src/node/jwt_key_auto</text>
<text text-anchor="middle" x="999" y="-227" font-family="Helvetica,sans-Serif" font-size="10.00">_refresh.h</text>
</a>
</g>
</g>
<!-- Node18&#45;&gt;Node19 -->
<g id="edge28" class="edge">
<title>Node18&#45;&gt;Node19</title>
<path fill="none" stroke="#63b8ff" d="M1076.99,-285.91C1060.37,-275.28 1037.68,-260.75 1021.06,-250.12"/>
<polygon fill="#63b8ff" stroke="#63b8ff" points="1075.2,-288.93 1085.51,-291.37 1078.98,-283.03 1075.2,-288.93"/>
</g>
<!-- Node19&#45;&gt;Node15 -->
<g id="edge29" class="edge">
<title>Node19&#45;&gt;Node15</title>
<path fill="none" stroke="#63b8ff" d="M1043.44,-216.19C1069.97,-205.57 1102.46,-192.54 1123.44,-184.14"/>
<polygon fill="#63b8ff" stroke="#63b8ff" points="1041.95,-213.02 1033.97,-219.99 1044.56,-219.52 1041.95,-213.02"/>
</g>
<!-- Node20&#45;&gt;Node6 -->
<g id="edge31" class="edge">
<title>Node20&#45;&gt;Node6</title>
<path fill="none" stroke="#63b8ff" d="M1578.66,-282.34C1615.31,-268.36 1651.62,-246.76 1631,-220 1566.54,-136.35 1242.82,-88.88 1106.1,-72.29"/>
<polygon fill="#63b8ff" stroke="#63b8ff" points="1577.07,-279.19 1568.87,-285.9 1579.46,-285.77 1577.07,-279.19"/>
</g>
<!-- Node21 -->
<g id="node21" class="node">
<title>Node21</title>
<g id="a_node21"><a xlink:href="ccf__acme__client_8h.html" target="_top" xlink:title=" ">
<polygon fill="white" stroke="#666666" points="1621.5,-244.5 1472.5,-244.5 1472.5,-225.5 1621.5,-225.5 1621.5,-244.5"/>
<text text-anchor="middle" x="1547" y="-232.5" font-family="Helvetica,sans-Serif" font-size="10.00">src/node/ccf_acme_client.h</text>
</a>
</g>
</g>
<!-- Node20&#45;&gt;Node21 -->
<g id="edge32" class="edge">
<title>Node20&#45;&gt;Node21</title>
<path fill="none" stroke="#63b8ff" d="M1529.23,-276.61C1534.07,-265.56 1539.55,-253.03 1543.13,-244.84"/>
<polygon fill="#63b8ff" stroke="#63b8ff" points="1526.02,-275.23 1525.21,-285.8 1532.43,-278.04 1526.02,-275.23"/>
</g>
<!-- Node21&#45;&gt;Node15 -->
<g id="edge33" class="edge">
<title>Node21&#45;&gt;Node15</title>
<path fill="none" stroke="#63b8ff" d="M1484.48,-223.92C1475.92,-222.58 1467.25,-221.24 1459,-220 1371.61,-206.86 1270.38,-192.7 1207.01,-183.97"/>
<polygon fill="#63b8ff" stroke="#63b8ff" points="1484.02,-227.39 1494.44,-225.49 1485.11,-220.48 1484.02,-227.39"/>
</g>
<!-- Node22&#45;&gt;Node6 -->
<g id="edge37" class="edge">
<title>Node22&#45;&gt;Node6</title>
<path fill="none" stroke="#63b8ff" d="M1776.76,-158.17C1759.48,-142.92 1730.6,-120.34 1701,-110 1592.29,-72.04 1247.5,-66.27 1106.25,-65.53"/>
<polygon fill="#63b8ff" stroke="#63b8ff" points="1774.51,-160.85 1784.27,-164.99 1779.22,-155.67 1774.51,-160.85"/>
</g>
<!-- Node23&#45;&gt;Node15 -->
<g id="edge39" class="edge">
<title>Node23&#45;&gt;Node15</title>
<path fill="none" stroke="#63b8ff" d="M1302.03,-222.61C1264.31,-211.29 1207.34,-194.2 1173.39,-184.02"/>
<polygon fill="#63b8ff" stroke="#63b8ff" points="1301.06,-225.97 1311.65,-225.49 1303.07,-219.27 1301.06,-225.97"/>
</g>
<!-- Node24&#45;&gt;Node15 -->
<g id="edge41" class="edge">
<title>Node24&#45;&gt;Node15</title>
<path fill="none" stroke="#63b8ff" d="M1424.61,-342.03C1430.77,-308.13 1441.24,-237.84 1426,-220 1398.45,-187.75 1281.39,-178.74 1207.32,-176.31"/>
<polygon fill="#63b8ff" stroke="#63b8ff" points="1421.14,-341.52 1422.73,-352 1428.02,-342.82 1421.14,-341.52"/>
</g>
<!-- Node24&#45;&gt;Node17 -->
<g id="edge42" class="edge">
<title>Node24&#45;&gt;Node17</title>
<path fill="none" stroke="#63b8ff" d="M1466.73,-349.62C1506.55,-340.16 1564.52,-326.37 1607.86,-316.06"/>
<polygon fill="#63b8ff" stroke="#63b8ff" points="1465.69,-346.27 1456.77,-351.99 1467.31,-353.09 1465.69,-346.27"/>
</g>
<!-- Node25&#45;&gt;Node15 -->
<g id="edge44" class="edge">
<title>Node25&#45;&gt;Node15</title>
<path fill="none" stroke="#63b8ff" d="M1171.12,-216.8C1164.34,-206.08 1155.9,-192.73 1150.48,-184.17"/>
<polygon fill="#63b8ff" stroke="#63b8ff" points="1168.24,-218.79 1176.54,-225.37 1174.15,-215.05 1168.24,-218.79"/>
</g>
<!-- Node26&#45;&gt;Node2 -->
<g id="edge47" class="edge">
<title>Node26&#45;&gt;Node2</title>
<path fill="none" stroke="#63b8ff" d="M1486.67,-410.6C1444.27,-402.51 1387.71,-389.53 1340,-371 1267.49,-342.84 1261.65,-307.88 1187,-286 1045.46,-244.52 586.29,-237.45 440.71,-236.25"/>
<polygon fill="#63b8ff" stroke="#63b8ff" points="1486.1,-414.06 1496.58,-412.45 1487.39,-407.18 1486.1,-414.06"/>
</g>
<!-- Node26&#45;&gt;Node17 -->
<g id="edge48" class="edge">
<title>Node26&#45;&gt;Node17</title>
<path fill="none" stroke="#63b8ff" d="M1555.72,-402.79C1561.14,-387.81 1570.47,-366.72 1584,-352 1598,-336.76 1617.71,-324.63 1634.41,-316.13"/>
<polygon fill="#63b8ff" stroke="#63b8ff" points="1552.35,-401.85 1552.47,-412.45 1558.98,-404.09 1552.35,-401.85"/>
</g>
<!-- Node27 -->
<g id="node27" class="node">
<title>Node27</title>
<g id="a_node27"><a xlink:href="common__endpoint__registry_8cpp.html" target="_top" xlink:title=" ">
<polygon fill="white" stroke="#666666" points="1949,-316 1821,-316 1821,-286 1949,-286 1949,-316"/>
<text text-anchor="start" x="1829" y="-304" font-family="Helvetica,sans-Serif" font-size="10.00">src/endpoints/common</text>
<text text-anchor="middle" x="1885" y="-293" font-family="Helvetica,sans-Serif" font-size="10.00">_endpoint_registry.cpp</text>
</a>
</g>
</g>
<!-- Node26&#45;&gt;Node27 -->
<g id="edge46" class="edge">
<title>Node26&#45;&gt;Node27</title>
<path fill="none" stroke="#63b8ff" d="M1628.58,-416.51C1681.31,-410.96 1751.09,-398.58 1807,-371 1834.24,-357.56 1859.32,-332.05 1873.34,-316.09"/>
<polygon fill="#63b8ff" stroke="#63b8ff" points="1628.21,-413.03 1618.61,-417.5 1628.9,-419.99 1628.21,-413.03"/>
</g>
<!-- Node28 -->
<g id="node28" class="node">
<title>Node28</title>
<g id="a_node28"><a xlink:href="serialization_8h.html" target="_top" xlink:title=" ">
<polygon fill="white" stroke="#666666" points="1741,-371 1593,-371 1593,-352 1741,-352 1741,-371"/>
<text text-anchor="middle" x="1667" y="-359" font-family="Helvetica,sans-Serif" font-size="10.00">src/node/rpc/serialization.h</text>
</a>
</g>
</g>
<!-- Node26&#45;&gt;Node28 -->
<g id="edge49" class="edge">
<title>Node26&#45;&gt;Node28</title>
<path fill="none" stroke="#63b8ff" d="M1576.04,-407.98C1598.58,-396.71 1630.55,-380.73 1649.97,-371.02"/>
<polygon fill="#63b8ff" stroke="#63b8ff" points="1574.39,-404.89 1567.01,-412.49 1577.52,-411.15 1574.39,-404.89"/>
</g>
<!-- Node28&#45;&gt;Node15 -->
<g id="edge51" class="edge">
<title>Node28&#45;&gt;Node15</title>
<path fill="none" stroke="#63b8ff" d="M1700.64,-347.43C1714.17,-340.31 1728.35,-330.03 1736,-316 1742.38,-304.29 1742.45,-297.67 1736,-286 1709.34,-237.76 1683.21,-237.66 1631,-220 1554.15,-194 1320.32,-182 1207.37,-177.6"/>
<polygon fill="#63b8ff" stroke="#63b8ff" points="1698.95,-344.36 1691.47,-351.86 1701.99,-350.66 1698.95,-344.36"/>
</g>
<!-- Node28&#45;&gt;Node17 -->
<g id="edge52" class="edge">
<title>Node28&#45;&gt;Node17</title>
<path fill="none" stroke="#63b8ff" d="M1667,-341.65C1667,-333.36 1667,-323.78 1667,-316.11"/>
<polygon fill="#63b8ff" stroke="#63b8ff" points="1663.5,-341.87 1667,-351.87 1670.5,-341.87 1663.5,-341.87"/>
</g>
<!-- Node28&#45;&gt;Node18 -->
<g id="edge53" class="edge">
<title>Node28&#45;&gt;Node18</title>
<path fill="none" stroke="#63b8ff" d="M1582.76,-351.82C1473.68,-340.59 1284.92,-321.15 1178.3,-310.17"/>
<polygon fill="#63b8ff" stroke="#63b8ff" points="1582.44,-355.31 1592.74,-352.85 1583.16,-348.35 1582.44,-355.31"/>
</g>
<!-- Node28&#45;&gt;Node27 -->
<g id="edge50" class="edge">
<title>Node28&#45;&gt;Node27</title>
<path fill="none" stroke="#63b8ff" d="M1708.66,-349.32C1743.9,-339.86 1794.59,-326.26 1832.59,-316.06"/>
<polygon fill="#63b8ff" stroke="#63b8ff" points="1707.45,-346.02 1698.7,-351.99 1709.26,-352.78 1707.45,-346.02"/>
</g>
<!-- Node29&#45;&gt;Node6 -->
<g id="edge56" class="edge">
<title>Node29&#45;&gt;Node6</title>
<path fill="none" stroke="#63b8ff" d="M588.2,-475.15C415.59,-445.35 0,-360.66 0,-236 0,-236 0,-236 0,-173.5 0,-108.8 68.31,-126.01 131,-110 293.01,-68.63 806.56,-65.21 984,-65.3"/>
<polygon fill="#63b8ff" stroke="#63b8ff" points="587.78,-478.63 598.22,-476.86 588.96,-471.73 587.78,-478.63"/>
</g>
<!-- Node30 -->
<g id="node30" class="node">
<title>Node30</title>
<g id="a_node30"><a xlink:href="external__executor_8cpp.html" target="_top" xlink:title=" ">
<polygon fill="white" stroke="#666666" points="812,-437 664,-437 664,-407 812,-407 812,-437"/>
<text text-anchor="start" x="672" y="-425" font-family="Helvetica,sans-Serif" font-size="10.00">src/apps/external_executor</text>
<text text-anchor="middle" x="738" y="-414" font-family="Helvetica,sans-Serif" font-size="10.00">/external_executor.cpp</text>
</a>
</g>
</g>
<!-- Node29&#45;&gt;Node30 -->
<g id="edge55" class="edge">
<title>Node29&#45;&gt;Node30</title>
<path fill="none" stroke="#63b8ff" d="M686.7,-466.2C697.98,-456.7 711.05,-445.69 721.18,-437.16"/>
<polygon fill="#63b8ff" stroke="#63b8ff" points="684.26,-463.68 678.87,-472.8 688.77,-469.03 684.26,-463.68"/>
</g>
<!-- Node31 -->
<g id="node31" class="node">
<title>Node31</title>
<g id="a_node31"><a xlink:href="historical__queries__adapter_8cpp.html" target="_top" xlink:title=" ">
<polygon fill="white" stroke="#666666" points="646,-437 526,-437 526,-407 646,-407 646,-437"/>
<text text-anchor="start" x="534" y="-425" font-family="Helvetica,sans-Serif" font-size="10.00">src/node/historical</text>
<text text-anchor="middle" x="586" y="-414" font-family="Helvetica,sans-Serif" font-size="10.00">_queries_adapter.cpp</text>
</a>
</g>
</g>
<!-- Node29&#45;&gt;Node31 -->
<g id="edge57" class="edge">
<title>Node29&#45;&gt;Node31</title>
<path fill="none" stroke="#63b8ff" d="M637.3,-466.2C626.02,-456.7 612.95,-445.69 602.82,-437.16"/>
<polygon fill="#63b8ff" stroke="#63b8ff" points="635.23,-469.03 645.13,-472.8 639.74,-463.68 635.23,-469.03"/>
</g>
<!-- Node32&#45;&gt;Node26 -->
<g id="edge59" class="edge">
<title>Node32&#45;&gt;Node26</title>
<path fill="none" stroke="#63b8ff" d="M1440.17,-468.94C1469.49,-456.68 1506.91,-441.02 1529.64,-431.52"/>
<polygon fill="#63b8ff" stroke="#63b8ff" points="1438.45,-465.87 1430.58,-472.95 1441.15,-472.32 1438.45,-465.87"/>
</g>
</g>
</svg>
