<?xml version="1.0" encoding="UTF-8" standalone="no"?>
<!DOCTYPE svg PUBLIC "-//W3C//DTD SVG 1.1//EN"
 "http://www.w3.org/Graphics/SVG/1.1/DTD/svg11.dtd">
<!-- Generated by graphviz version 2.43.0 (0)
 -->
<!-- Title: ccf::historical::StateCache Pages: 1 -->
<svg width="3130pt" height="516pt"
 viewBox="0.00 0.00 3130.00 515.50" xmlns="http://www.w3.org/2000/svg" xmlns:xlink="http://www.w3.org/1999/xlink">
<g id="graph0" class="graph" transform="scale(1 1) rotate(0) translate(4 511.5)">
<title>ccf::historical::StateCache</title>
<!-- Node1 -->
<g id="node1" class="node">
<title>Node1</title>
<g id="a_node1"><a xlink:title=" ">
<polygon fill="#999999" stroke="#666666" points="3122,-143.5 2979,-143.5 2979,-124.5 3122,-124.5 3122,-143.5"/>
<text text-anchor="middle" x="3050.5" y="-131.5" font-family="Helvetica,sans-Serif" font-size="10.00">ccf::historical::StateCache</text>
</a>
</g>
</g>
<!-- Node2 -->
<g id="node2" class="node">
<title>Node2</title>
<g id="a_node2"><a xlink:href="classccf_1_1historical_1_1StateCacheImpl.html" target="_top" xlink:title=" ">
<polygon fill="white" stroke="#666666" points="2942,-227.5 2778,-227.5 2778,-208.5 2942,-208.5 2942,-227.5"/>
<text text-anchor="middle" x="2860" y="-215.5" font-family="Helvetica,sans-Serif" font-size="10.00">ccf::historical::StateCacheImpl</text>
</a>
</g>
</g>
<!-- Node2&#45;&gt;Node1 -->
<g id="edge1" class="edge">
<title>Node2&#45;&gt;Node1</title>
<path fill="none" stroke="#63b8ff" d="M2891.78,-204.28C2930.16,-187.18 2994.77,-158.39 3028.13,-143.52"/>
<polygon fill="#63b8ff" stroke="#63b8ff" points="2890.33,-201.1 2882.62,-208.36 2893.18,-207.49 2890.33,-201.1"/>
</g>
<!-- Node3 -->
<g id="node3" class="node">
<title>Node3</title>
<g id="a_node3"><a xlink:href="classkv_1_1Store.html" target="_top" xlink:title=" ">
<polygon fill="white" stroke="#666666" points="928,-156.5 869,-156.5 869,-137.5 928,-137.5 928,-156.5"/>
<text text-anchor="middle" x="898.5" y="-144.5" font-family="Helvetica,sans-Serif" font-size="10.00">kv::Store</text>
</a>
</g>
</g>
<!-- Node3&#45;&gt;Node2 -->
<g id="edge2" class="edge">
<title>Node3&#45;&gt;Node2</title>
<path fill="none" stroke="#9a32cd" stroke-dasharray="5,2" d="M925.98,-132.81C970.5,-110.32 1063.75,-69 1148,-69 1148,-69 1148,-69 2534.5,-69 2635.79,-69 2677.59,-43.1 2760,-102 2774.23,-112.17 2767.69,-122.87 2778,-137 2799.1,-165.92 2830.57,-194.22 2847.4,-208.47"/>
<polygon fill="#9a32cd" stroke="#9a32cd" points="924.28,-129.75 916.99,-137.44 927.48,-135.97 924.28,-129.75"/>
<text text-anchor="middle" x="1891" y="-72" font-family="Helvetica,sans-Serif" font-size="10.00"> source_store</text>
</g>
<!-- Node32 -->
<g id="node32" class="node">
<title>Node32</title>
<g id="a_node32"><a xlink:title=" ">
<polygon fill="white" stroke="#666666" points="1205.5,-187 1092.5,-187 1092.5,-157 1205.5,-157 1205.5,-187"/>
<text text-anchor="start" x="1100.5" y="-175" font-family="Helvetica,sans-Serif" font-size="10.00">std::shared_ptr&lt; kv</text>
<text text-anchor="middle" x="1149" y="-164" font-family="Helvetica,sans-Serif" font-size="10.00">::Store &gt;</text>
</a>
</g>
</g>
<!-- Node3&#45;&gt;Node32 -->
<g id="edge32" class="edge">
<title>Node3&#45;&gt;Node32</title>
<path fill="none" stroke="#9a32cd" stroke-dasharray="5,2" d="M938.21,-150.89C979.51,-155.05 1045.32,-161.67 1092.22,-166.39"/>
<polygon fill="#9a32cd" stroke="#9a32cd" points="938.31,-147.39 928.01,-149.87 937.61,-154.35 938.31,-147.39"/>
<text text-anchor="middle" x="1007.5" y="-163" font-family="Helvetica,sans-Serif" font-size="10.00"> ptr</text>
</g>
<!-- Node4 -->
<g id="node4" class="node">
<title>Node4</title>
<g id="a_node4"><a xlink:href="classkv_1_1AbstractStore.html" target="_top" xlink:title=" ">
<polygon fill="white" stroke="#666666" points="696.5,-169.5 596.5,-169.5 596.5,-150.5 696.5,-150.5 696.5,-169.5"/>
<text text-anchor="middle" x="646.5" y="-157.5" font-family="Helvetica,sans-Serif" font-size="10.00">kv::AbstractStore</text>
</a>
</g>
</g>
<!-- Node4&#45;&gt;Node3 -->
<g id="edge3" class="edge">
<title>Node4&#45;&gt;Node3</title>
<path fill="none" stroke="#63b8ff" d="M706.85,-156.91C757.94,-154.26 829.46,-150.54 868.78,-148.49"/>
<polygon fill="#63b8ff" stroke="#63b8ff" points="706.4,-153.43 696.59,-157.45 706.76,-160.42 706.4,-153.43"/>
</g>
<!-- Node5 -->
<g id="node5" class="node">
<title>Node5</title>
<g id="a_node5"><a xlink:href="classkv_1_1StoreState.html" target="_top" xlink:title=" ">
<polygon fill="white" stroke="#666666" points="689,-132.5 604,-132.5 604,-113.5 689,-113.5 689,-132.5"/>
<text text-anchor="middle" x="646.5" y="-120.5" font-family="Helvetica,sans-Serif" font-size="10.00">kv::StoreState</text>
</a>
</g>
</g>
<!-- Node5&#45;&gt;Node3 -->
<g id="edge4" class="edge">
<title>Node5&#45;&gt;Node3</title>
<path fill="none" stroke="#63b8ff" d="M699.29,-127.97C750.63,-132.9 827.4,-140.27 868.72,-144.24"/>
<polygon fill="#63b8ff" stroke="#63b8ff" points="699.35,-124.46 689.06,-126.99 698.68,-131.43 699.35,-124.46"/>
</g>
<!-- Node6 -->
<g id="node6" class="node">
<title>Node6</title>
<g id="a_node6"><a xlink:title=" ">
<polygon fill="white" stroke="#666666" points="374,-395.5 305,-395.5 305,-376.5 374,-376.5 374,-395.5"/>
<text text-anchor="middle" x="339.5" y="-383.5" font-family="Helvetica,sans-Serif" font-size="10.00">std::mutex</text>
</a>
</g>
</g>
<!-- Node6&#45;&gt;Node2 -->
<g id="edge40" class="edge">
<title>Node6&#45;&gt;Node2</title>
<path fill="none" stroke="#9a32cd" stroke-dasharray="5,2" d="M371.21,-399.49C425.45,-422.05 542.25,-465 645.5,-465 645.5,-465 645.5,-465 2534.5,-465 2639.05,-465 2678.6,-463.61 2760,-398 2818.87,-350.55 2848.13,-258.25 2856.45,-227.92"/>
<polygon fill="#9a32cd" stroke="#9a32cd" points="372.4,-396.19 361.83,-395.53 369.68,-402.64 372.4,-396.19"/>
<text text-anchor="middle" x="1578.5" y="-468" font-family="Helvetica,sans-Serif" font-size="10.00"> requests_lock</text>
</g>
<!-- Node6&#45;&gt;Node5 -->
<g id="edge5" class="edge">
<title>Node6&#45;&gt;Node5</title>
<path fill="none" stroke="#9a32cd" stroke-dasharray="5,2" d="M364.99,-371.09C407.15,-344.14 493.28,-283.15 539,-209 555.18,-182.75 534.65,-163.24 557,-142 569.42,-130.2 587.3,-125 603.75,-122.93"/>
<polygon fill="#9a32cd" stroke="#9a32cd" points="363.05,-368.18 356.46,-376.47 366.78,-374.1 363.05,-368.18"/>
<text text-anchor="middle" x="484" y="-348" font-family="Helvetica,sans-Serif" font-size="10.00"> commit_lock</text>
<text text-anchor="middle" x="484" y="-337" font-family="Helvetica,sans-Serif" font-size="10.00">maps_lock</text>
<text text-anchor="middle" x="484" y="-326" font-family="Helvetica,sans-Serif" font-size="10.00">version_lock</text>
</g>
<!-- Node7 -->
<g id="node7" class="node">
<title>Node7</title>
<g id="a_node7"><a xlink:title=" ">
<polygon fill="white" stroke="#666666" points="411,-52 268,-52 268,0 411,0 411,-52"/>
<text text-anchor="start" x="276" y="-40" font-family="Helvetica,sans-Serif" font-size="10.00">std::map&lt; std::string,</text>
<text text-anchor="start" x="276" y="-29" font-family="Helvetica,sans-Serif" font-size="10.00"> std::pair&lt; kv::Version,</text>
<text text-anchor="start" x="276" y="-18" font-family="Helvetica,sans-Serif" font-size="10.00"> std::shared_ptr&lt; untyped</text>
<text text-anchor="middle" x="339.5" y="-7" font-family="Helvetica,sans-Serif" font-size="10.00">::Map &gt; &gt; &gt;</text>
</a>
</g>
</g>
<!-- Node7&#45;&gt;Node5 -->
<g id="edge6" class="edge">
<title>Node7&#45;&gt;Node5</title>
<path fill="none" stroke="#9a32cd" stroke-dasharray="5,2" d="M421.12,-42.33C458.62,-52.09 502.82,-66.81 539,-88 548.5,-93.56 547.23,-99.93 557,-105 571.33,-112.44 588.46,-116.81 603.81,-119.37"/>
<polygon fill="#9a32cd" stroke="#9a32cd" points="421.79,-38.89 411.24,-39.83 420.08,-45.67 421.79,-38.89"/>
<text text-anchor="middle" x="484" y="-91" font-family="Helvetica,sans-Serif" font-size="10.00"> maps</text>
</g>
<!-- Node8 -->
<g id="node8" class="node">
<title>Node8</title>
<g id="a_node8"><a xlink:title=" ">
<polygon fill="white" stroke="#666666" points="206,-35.5 141,-35.5 141,-16.5 206,-16.5 206,-35.5"/>
<text text-anchor="middle" x="173.5" y="-23.5" font-family="Helvetica,sans-Serif" font-size="10.00">std::string</text>
</a>
</g>
</g>
<!-- Node8&#45;&gt;Node7 -->
<g id="edge7" class="edge">
<title>Node8&#45;&gt;Node7</title>
<path fill="none" stroke="#9a32cd" stroke-dasharray="5,2" d="M216.51,-26C232.17,-26 250.4,-26 267.92,-26"/>
<polygon fill="#9a32cd" stroke="#9a32cd" points="216.12,-22.5 206.12,-26 216.12,-29.5 216.12,-22.5"/>
<text text-anchor="middle" x="237" y="-29" font-family="Helvetica,sans-Serif" font-size="10.00"> keys</text>
</g>
<!-- Node9 -->
<g id="node9" class="node">
<title>Node9</title>
<g id="a_node9"><a xlink:title=" ">
<polygon fill="white" stroke="#666666" points="104,-41 0,-41 0,-11 104,-11 104,-41"/>
<text text-anchor="start" x="8" y="-29" font-family="Helvetica,sans-Serif" font-size="10.00">std::basic_string&lt;</text>
<text text-anchor="middle" x="52" y="-18" font-family="Helvetica,sans-Serif" font-size="10.00"> Char &gt;</text>
</a>
</g>
</g>
<!-- Node9&#45;&gt;Node8 -->
<g id="edge8" class="edge">
<title>Node9&#45;&gt;Node8</title>
<path fill="none" stroke="#63b8ff" d="M114.1,-26C123.41,-26 132.68,-26 141,-26"/>
<polygon fill="#63b8ff" stroke="#63b8ff" points="114.03,-22.5 104.03,-26 114.03,-29.5 114.03,-22.5"/>
</g>
<!-- Node10 -->
<g id="node10" class="node">
<title>Node10</title>
<g id="a_node10"><a xlink:title=" ">
<polygon fill="white" stroke="#666666" points="404.5,-196.5 274.5,-196.5 274.5,-177.5 404.5,-177.5 404.5,-196.5"/>
<text text-anchor="middle" x="339.5" y="-184.5" font-family="Helvetica,sans-Serif" font-size="10.00">std::atomic&lt; Version &gt;</text>
</a>
</g>
</g>
<!-- Node10&#45;&gt;Node5 -->
<g id="edge9" class="edge">
<title>Node10&#45;&gt;Node5</title>
<path fill="none" stroke="#9a32cd" stroke-dasharray="5,2" d="M414.76,-185.28C453.25,-182.07 500.19,-174.44 539,-157 548.5,-152.73 547.64,-146.56 557,-142 571.41,-134.98 588.39,-130.54 603.6,-127.74"/>
<polygon fill="#9a32cd" stroke="#9a32cd" points="414.37,-181.8 404.66,-186.04 414.89,-188.78 414.37,-181.8"/>
<text text-anchor="middle" x="484" y="-197" font-family="Helvetica,sans-Serif" font-size="10.00"> compacted</text>
<text text-anchor="middle" x="484" y="-186" font-family="Helvetica,sans-Serif" font-size="10.00">version</text>
</g>
<!-- Node11 -->
<g id="node11" class="node">
<title>Node11</title>
<g id="a_node11"><a xlink:title=" ">
<polygon fill="white" stroke="#666666" points="398.5,-159.5 280.5,-159.5 280.5,-140.5 398.5,-140.5 398.5,-159.5"/>
<text text-anchor="middle" x="339.5" y="-147.5" font-family="Helvetica,sans-Serif" font-size="10.00">std::atomic&lt; Term &gt;</text>
</a>
</g>
</g>
<!-- Node11&#45;&gt;Node5 -->
<g id="edge10" class="edge">
<title>Node11&#45;&gt;Node5</title>
<path fill="none" stroke="#9a32cd" stroke-dasharray="5,2" d="M408.7,-143.96C468.52,-138.67 553.56,-131.14 603.78,-126.69"/>
<polygon fill="#9a32cd" stroke="#9a32cd" points="408.24,-140.49 398.59,-144.86 408.86,-147.46 408.24,-140.49"/>
<text text-anchor="middle" x="484" y="-145" font-family="Helvetica,sans-Serif" font-size="10.00"> term_of_next_version</text>
</g>
<!-- Node12 -->
<g id="node12" class="node">
<title>Node12</title>
<g id="a_node12"><a xlink:title=" ">
<polygon fill="white" stroke="#666666" points="406.5,-122 272.5,-122 272.5,-70 406.5,-70 406.5,-122"/>
<text text-anchor="start" x="280.5" y="-110" font-family="Helvetica,sans-Serif" font-size="10.00">std::unordered_map</text>
<text text-anchor="start" x="280.5" y="-99" font-family="Helvetica,sans-Serif" font-size="10.00">&lt; Version, std::tuple</text>
<text text-anchor="start" x="280.5" y="-88" font-family="Helvetica,sans-Serif" font-size="10.00">&lt; std::unique_ptr&lt; kv</text>
<text text-anchor="middle" x="339.5" y="-77" font-family="Helvetica,sans-Serif" font-size="10.00">::PendingTx &gt;, bool &gt; &gt;</text>
</a>
</g>
</g>
<!-- Node12&#45;&gt;Node5 -->
<g id="edge11" class="edge">
<title>Node12&#45;&gt;Node5</title>
<path fill="none" stroke="#9a32cd" stroke-dasharray="5,2" d="M416.74,-102.75C475.95,-107.99 555.8,-115.06 603.82,-119.31"/>
<polygon fill="#9a32cd" stroke="#9a32cd" points="416.95,-99.25 406.68,-101.86 416.33,-106.23 416.95,-99.25"/>
<text text-anchor="middle" x="484" y="-116" font-family="Helvetica,sans-Serif" font-size="10.00"> pending_txs</text>
</g>
<!-- Node13 -->
<g id="node13" class="node">
<title>Node13</title>
<g id="a_node13"><a xlink:href="classkv_1_1ExecutionWrapperStore.html" target="_top" xlink:title=" ">
<polygon fill="white" stroke="#666666" points="720.5,-95.5 572.5,-95.5 572.5,-76.5 720.5,-76.5 720.5,-95.5"/>
<text text-anchor="middle" x="646.5" y="-83.5" font-family="Helvetica,sans-Serif" font-size="10.00">kv::ExecutionWrapperStore</text>
</a>
</g>
</g>
<!-- Node13&#45;&gt;Node3 -->
<g id="edge12" class="edge">
<title>Node13&#45;&gt;Node3</title>
<path fill="none" stroke="#63b8ff" d="M704.02,-97.76C714.67,-100.08 725.69,-102.55 736,-105 782.65,-116.07 836.48,-130.38 868.71,-139.11"/>
<polygon fill="#63b8ff" stroke="#63b8ff" points="704.49,-94.28 693.97,-95.59 703.01,-101.12 704.49,-94.28"/>
</g>
<!-- Node14 -->
<g id="node14" class="node">
<title>Node14</title>
<g id="a_node14"><a xlink:href="classkv_1_1ReadOnlyStore.html" target="_top" xlink:title=" ">
<polygon fill="white" stroke="#666666" points="700,-206.5 593,-206.5 593,-187.5 700,-187.5 700,-206.5"/>
<text text-anchor="middle" x="646.5" y="-194.5" font-family="Helvetica,sans-Serif" font-size="10.00">kv::ReadOnlyStore</text>
</a>
</g>
</g>
<!-- Node14&#45;&gt;Node3 -->
<g id="edge13" class="edge">
<title>Node14&#45;&gt;Node3</title>
<path fill="none" stroke="#63b8ff" d="M710.42,-187.32C744.48,-181.76 787.19,-174.24 825,-166 839.49,-162.84 855.46,-158.73 868.7,-155.14"/>
<polygon fill="#63b8ff" stroke="#63b8ff" points="709.46,-183.93 700.15,-188.99 710.58,-190.84 709.46,-183.93"/>
</g>
<!-- Node15 -->
<g id="node15" class="node">
<title>Node15</title>
<g id="a_node15"><a xlink:title=" ">
<polygon fill="white" stroke="#666666" points="2591,-261 2476,-261 2476,-231 2591,-231 2591,-261"/>
<text text-anchor="start" x="2484" y="-249" font-family="Helvetica,sans-Serif" font-size="10.00">std::shared_ptr&lt; ccf</text>
<text text-anchor="middle" x="2533.5" y="-238" font-family="Helvetica,sans-Serif" font-size="10.00">::LedgerSecrets &gt;</text>
</a>
</g>
</g>
<!-- Node15&#45;&gt;Node2 -->
<g id="edge14" class="edge">
<title>Node15&#45;&gt;Node2</title>
<path fill="none" stroke="#9a32cd" stroke-dasharray="5,2" d="M2601,-240.26C2652.23,-235.84 2723.31,-229.71 2777.89,-225"/>
<polygon fill="#9a32cd" stroke="#9a32cd" points="2600.69,-236.78 2591.02,-241.12 2601.29,-243.75 2600.69,-236.78"/>
<text text-anchor="middle" x="2697.5" y="-250" font-family="Helvetica,sans-Serif" font-size="10.00"> historical_ledger_secrets</text>
<text text-anchor="middle" x="2697.5" y="-239" font-family="Helvetica,sans-Serif" font-size="10.00">source_ledger_secrets</text>
</g>
<!-- Node16 -->
<g id="node16" class="node">
<title>Node16</title>
<g id="a_node16"><a xlink:href="classccf_1_1LedgerSecrets.html" target="_top" xlink:title=" ">
<polygon fill="white" stroke="#666666" points="2344,-255.5 2239,-255.5 2239,-236.5 2344,-236.5 2344,-255.5"/>
<text text-anchor="middle" x="2291.5" y="-243.5" font-family="Helvetica,sans-Serif" font-size="10.00">ccf::LedgerSecrets</text>
</a>
</g>
</g>
<!-- Node16&#45;&gt;Node15 -->
<g id="edge15" class="edge">
<title>Node16&#45;&gt;Node15</title>
<path fill="none" stroke="#9a32cd" stroke-dasharray="5,2" d="M2354.56,-246C2392,-246 2439.34,-246 2475.78,-246"/>
<polygon fill="#9a32cd" stroke="#9a32cd" points="2354.28,-242.5 2344.28,-246 2354.28,-249.5 2354.28,-242.5"/>
<text text-anchor="middle" x="2406.5" y="-249" font-family="Helvetica,sans-Serif" font-size="10.00"> ptr</text>
</g>
<!-- Node17 -->
<g id="node17" class="node">
<title>Node17</title>
<g id="a_node17"><a xlink:title=" ">
<polygon fill="white" stroke="#666666" points="2604,-213 2463,-213 2463,-183 2604,-183 2604,-213"/>
<text text-anchor="start" x="2471" y="-201" font-family="Helvetica,sans-Serif" font-size="10.00">std::shared_ptr&lt; Abstract</text>
<text text-anchor="middle" x="2533.5" y="-190" font-family="Helvetica,sans-Serif" font-size="10.00">Writer &gt;</text>
</a>
</g>
</g>
<!-- Node17&#45;&gt;Node2 -->
<g id="edge16" class="edge">
<title>Node17&#45;&gt;Node2</title>
<path fill="none" stroke="#9a32cd" stroke-dasharray="5,2" d="M2614.33,-199.18C2657.51,-200.23 2711.73,-202.23 2760,-206 2768.54,-206.67 2777.49,-207.53 2786.35,-208.48"/>
<polygon fill="#9a32cd" stroke="#9a32cd" points="2614.25,-195.67 2604.17,-198.94 2614.09,-202.67 2614.25,-195.67"/>
<text text-anchor="middle" x="2697.5" y="-209" font-family="Helvetica,sans-Serif" font-size="10.00"> to_host</text>
</g>
<!-- Node18 -->
<g id="node18" class="node">
<title>Node18</title>
<g id="a_node18"><a xlink:title=" ">
<polygon fill="white" stroke="#666666" points="2590,-127 2477,-127 2477,-97 2590,-97 2590,-127"/>
<text text-anchor="start" x="2485" y="-115" font-family="Helvetica,sans-Serif" font-size="10.00">std::shared_ptr&lt; kv</text>
<text text-anchor="middle" x="2533.5" y="-104" font-family="Helvetica,sans-Serif" font-size="10.00">::TxEncryptor &gt;</text>
</a>
</g>
</g>
<!-- Node18&#45;&gt;Node2 -->
<g id="edge17" class="edge">
<title>Node18&#45;&gt;Node2</title>
<path fill="none" stroke="#9a32cd" stroke-dasharray="5,2" d="M2600.37,-106.45C2646.8,-105.07 2709.45,-108.44 2760,-130 2801.25,-147.59 2837.1,-189.44 2851.84,-208.39"/>
<polygon fill="#9a32cd" stroke="#9a32cd" points="2599.99,-102.96 2590.13,-106.84 2600.25,-109.96 2599.99,-102.96"/>
<text text-anchor="middle" x="2697.5" y="-133" font-family="Helvetica,sans-Serif" font-size="10.00"> historical_encryptor</text>
</g>
<!-- Node19 -->
<g id="node19" class="node">
<title>Node19</title>
<g id="a_node19"><a xlink:href="classkv_1_1TxEncryptor.html" target="_top" xlink:title=" ">
<polygon fill="white" stroke="#666666" points="2358,-121.5 2225,-121.5 2225,-102.5 2358,-102.5 2358,-121.5"/>
<text text-anchor="middle" x="2291.5" y="-109.5" font-family="Helvetica,sans-Serif" font-size="10.00">kv::TxEncryptor&lt; T, S &gt;</text>
</a>
</g>
</g>
<!-- Node19&#45;&gt;Node18 -->
<g id="edge18" class="edge">
<title>Node19&#45;&gt;Node18</title>
<path fill="none" stroke="#9a32cd" stroke-dasharray="5,2" d="M2368.31,-112C2403.46,-112 2444.51,-112 2476.76,-112"/>
<polygon fill="#9a32cd" stroke="#9a32cd" points="2368.08,-108.5 2358.08,-112 2368.08,-115.5 2368.08,-108.5"/>
<text text-anchor="middle" x="2406.5" y="-115" font-family="Helvetica,sans-Serif" font-size="10.00"> ptr</text>
</g>
<!-- Node20 -->
<g id="node20" class="node">
<title>Node20</title>
<g id="a_node20"><a xlink:href="classkv_1_1AbstractTxEncryptor.html" target="_top" xlink:title=" ">
<polygon fill="white" stroke="#666666" points="2075,-121.5 1942,-121.5 1942,-102.5 2075,-102.5 2075,-121.5"/>
<text text-anchor="middle" x="2008.5" y="-109.5" font-family="Helvetica,sans-Serif" font-size="10.00">kv::AbstractTxEncryptor</text>
</a>
</g>
</g>
<!-- Node20&#45;&gt;Node19 -->
<g id="edge19" class="edge">
<title>Node20&#45;&gt;Node19</title>
<path fill="none" stroke="#63b8ff" d="M2085.29,-112C2128.89,-112 2183.11,-112 2224.87,-112"/>
<polygon fill="#63b8ff" stroke="#63b8ff" points="2085.03,-108.5 2075.03,-112 2085.03,-115.5 2085.03,-108.5"/>
</g>
<!-- Node21 -->
<g id="node21" class="node">
<title>Node21</title>
<g id="a_node21"><a xlink:href="structccf_1_1historical_1_1StateCacheImpl_1_1VersionedSecret.html" target="_top" xlink:title=" ">
<polygon fill="white" stroke="#666666" points="1650,-308 1507,-308 1507,-278 1650,-278 1650,-308"/>
<text text-anchor="start" x="1515" y="-296" font-family="Helvetica,sans-Serif" font-size="10.00">ccf::historical::StateCache</text>
<text text-anchor="middle" x="1578.5" y="-285" font-family="Helvetica,sans-Serif" font-size="10.00">Impl::VersionedSecret</text>
</a>
</g>
</g>
<!-- Node21&#45;&gt;Node2 -->
<g id="edge20" class="edge">
<title>Node21&#45;&gt;Node2</title>
<path fill="none" stroke="#9a32cd" stroke-dasharray="5,2" d="M1660.56,-296.72C1779.37,-302.21 2007.76,-312.92 2202,-323 2210,-323.42 2211.99,-323.67 2220,-324 2322.17,-328.17 2347.75,-328.67 2450,-330 2524.22,-330.97 2543.1,-336.92 2617,-330 2681.4,-323.97 2701.71,-331.02 2760,-303 2799.2,-284.16 2835.29,-245.77 2850.88,-227.75"/>
<polygon fill="#9a32cd" stroke="#9a32cd" points="1660.61,-293.21 1650.46,-296.25 1660.29,-300.21 1660.61,-293.21"/>
<text text-anchor="middle" x="2147.5" y="-326" font-family="Helvetica,sans-Serif" font-size="10.00"> earliest_secret_</text>
</g>
<!-- Node22 -->
<g id="node22" class="node">
<title>Node22</title>
<g id="a_node22"><a xlink:title=" ">
<polygon fill="white" stroke="#666666" points="1237,-273.5 1061,-273.5 1061,-254.5 1237,-254.5 1237,-273.5"/>
<text text-anchor="middle" x="1149" y="-261.5" font-family="Helvetica,sans-Serif" font-size="10.00">std::shared_ptr&lt; LedgerSecret &gt;</text>
</a>
</g>
</g>
<!-- Node22&#45;&gt;Node21 -->
<g id="edge21" class="edge">
<title>Node22&#45;&gt;Node21</title>
<path fill="none" stroke="#9a32cd" stroke-dasharray="5,2" d="M1247.48,-270.61C1326.53,-275.97 1436.06,-283.41 1506.86,-288.21"/>
<polygon fill="#9a32cd" stroke="#9a32cd" points="1247.24,-267.09 1237.03,-269.9 1246.77,-274.07 1247.24,-267.09"/>
<text text-anchor="middle" x="1291.5" y="-279" font-family="Helvetica,sans-Serif" font-size="10.00"> secret</text>
</g>
<!-- Node23 -->
<g id="node23" class="node">
<title>Node23</title>
<g id="a_node23"><a xlink:href="structccf_1_1LedgerSecret.html" target="_top" xlink:title=" ">
<polygon fill="white" stroke="#666666" points="948.5,-269.5 848.5,-269.5 848.5,-250.5 948.5,-250.5 948.5,-269.5"/>
<text text-anchor="middle" x="898.5" y="-257.5" font-family="Helvetica,sans-Serif" font-size="10.00">ccf::LedgerSecret</text>
</a>
</g>
</g>
<!-- Node23&#45;&gt;Node22 -->
<g id="edge22" class="edge">
<title>Node23&#45;&gt;Node22</title>
<path fill="none" stroke="#9a32cd" stroke-dasharray="5,2" d="M958.65,-260.95C989.16,-261.44 1026.98,-262.05 1060.78,-262.6"/>
<polygon fill="#9a32cd" stroke="#9a32cd" points="958.65,-257.45 948.6,-260.79 958.54,-264.45 958.65,-257.45"/>
<text text-anchor="middle" x="1007.5" y="-265" font-family="Helvetica,sans-Serif" font-size="10.00"> ptr</text>
</g>
<!-- Node24 -->
<g id="node24" class="node">
<title>Node24</title>
<g id="a_node24"><a xlink:title=" ">
<polygon fill="white" stroke="#666666" points="709,-301.5 584,-301.5 584,-282.5 709,-282.5 709,-301.5"/>
<text text-anchor="middle" x="646.5" y="-289.5" font-family="Helvetica,sans-Serif" font-size="10.00">std::vector&lt; uint8_t &gt;</text>
</a>
</g>
</g>
<!-- Node24&#45;&gt;Node23 -->
<g id="edge23" class="edge">
<title>Node24&#45;&gt;Node23</title>
<path fill="none" stroke="#9a32cd" stroke-dasharray="5,2" d="M689.44,-279.65C718.5,-271.12 752.28,-261.25 754,-261 785.18,-256.44 820.59,-256.15 848.43,-257.01"/>
<polygon fill="#9a32cd" stroke="#9a32cd" points="688.43,-276.3 679.82,-282.48 690.4,-283.02 688.43,-276.3"/>
<text text-anchor="middle" x="789.5" y="-264" font-family="Helvetica,sans-Serif" font-size="10.00"> raw_key</text>
</g>
<!-- Node34 -->
<g id="node34" class="node">
<title>Node34</title>
<g id="a_node34"><a xlink:href="structccf_1_1TxReceiptImpl.html" target="_top" xlink:title=" ">
<polygon fill="white" stroke="#666666" points="952,-399.5 845,-399.5 845,-380.5 952,-380.5 952,-399.5"/>
<text text-anchor="middle" x="898.5" y="-387.5" font-family="Helvetica,sans-Serif" font-size="10.00">ccf::TxReceiptImpl</text>
</a>
</g>
</g>
<!-- Node24&#45;&gt;Node34 -->
<g id="edge35" class="edge">
<title>Node24&#45;&gt;Node34</title>
<path fill="none" stroke="#9a32cd" stroke-dasharray="5,2" d="M719.37,-299.27C754.07,-305.73 794.65,-317.94 825,-341 837.38,-350.41 830.94,-361.19 843,-371 847.74,-374.86 853.32,-377.96 859.06,-380.44"/>
<polygon fill="#9a32cd" stroke="#9a32cd" points="719.73,-295.78 709.28,-297.51 718.54,-302.67 719.73,-295.78"/>
<text text-anchor="middle" x="789.5" y="-344" font-family="Helvetica,sans-Serif" font-size="10.00"> signature</text>
</g>
<!-- Node25 -->
<g id="node25" class="node">
<title>Node25</title>
<g id="a_node25"><a xlink:title=" ">
<polygon fill="white" stroke="#666666" points="712,-257 581,-257 581,-227 712,-227 712,-257"/>
<text text-anchor="start" x="589" y="-245" font-family="Helvetica,sans-Serif" font-size="10.00">std::shared_ptr&lt; crypto</text>
<text text-anchor="middle" x="646.5" y="-234" font-family="Helvetica,sans-Serif" font-size="10.00">::KeyAesGcm &gt;</text>
</a>
</g>
</g>
<!-- Node25&#45;&gt;Node23 -->
<g id="edge24" class="edge">
<title>Node25&#45;&gt;Node23</title>
<path fill="none" stroke="#9a32cd" stroke-dasharray="5,2" d="M722.33,-225.9C754.25,-221.55 791.73,-219.78 825,-227 845.68,-231.48 867.54,-242.4 881.78,-250.45"/>
<polygon fill="#9a32cd" stroke="#9a32cd" points="721.56,-222.48 712.18,-227.4 722.58,-229.4 721.56,-222.48"/>
<text text-anchor="middle" x="789.5" y="-230" font-family="Helvetica,sans-Serif" font-size="10.00"> key</text>
</g>
<!-- Node26 -->
<g id="node26" class="node">
<title>Node26</title>
<g id="a_node26"><a xlink:href="classcrypto_1_1KeyAesGcm.html" target="_top" xlink:title=" ">
<polygon fill="white" stroke="#666666" points="395.5,-507.5 283.5,-507.5 283.5,-488.5 395.5,-488.5 395.5,-507.5"/>
<text text-anchor="middle" x="339.5" y="-495.5" font-family="Helvetica,sans-Serif" font-size="10.00">crypto::KeyAesGcm</text>
</a>
</g>
</g>
<!-- Node26&#45;&gt;Node25 -->
<g id="edge25" class="edge">
<title>Node26&#45;&gt;Node25</title>
<path fill="none" stroke="#9a32cd" stroke-dasharray="5,2" d="M370.43,-483.82C414.44,-461.38 496.03,-413.42 539,-348 557.58,-319.71 534.4,-299.19 557,-274 563.55,-266.7 571.89,-261.07 580.82,-256.72"/>
<polygon fill="#9a32cd" stroke="#9a32cd" points="368.76,-480.74 361.38,-488.35 371.89,-487.01 368.76,-480.74"/>
<text text-anchor="middle" x="484" y="-450" font-family="Helvetica,sans-Serif" font-size="10.00"> ptr</text>
</g>
<!-- Node27 -->
<g id="node27" class="node">
<title>Node27</title>
<g id="a_node27"><a xlink:title=" ">
<polygon fill="white" stroke="#666666" points="1840,-372.5 1668,-372.5 1668,-353.5 1840,-353.5 1840,-372.5"/>
<text text-anchor="middle" x="1754" y="-360.5" font-family="Helvetica,sans-Serif" font-size="10.00">std::shared_ptr&lt; StoreDetails &gt;</text>
</a>
</g>
</g>
<!-- Node27&#45;&gt;Node2 -->
<g id="edge26" class="edge">
<title>Node27&#45;&gt;Node2</title>
<path fill="none" stroke="#9a32cd" stroke-dasharray="5,2" d="M1798.83,-375.09C1848.89,-387.8 1933.45,-406 2007.5,-406 2007.5,-406 2007.5,-406 2534.5,-406 2636.53,-406 2674.66,-418.92 2760,-363 2813.03,-328.25 2845.24,-254.25 2855.46,-227.72"/>
<polygon fill="#9a32cd" stroke="#9a32cd" points="1799.55,-371.66 1788.99,-372.54 1797.8,-378.43 1799.55,-371.66"/>
<text text-anchor="middle" x="2291.5" y="-409" font-family="Helvetica,sans-Serif" font-size="10.00"> next_secret_fetch_handle</text>
</g>
<!-- Node43 -->
<g id="node43" class="node">
<title>Node43</title>
<g id="a_node43"><a xlink:title=" ">
<polygon fill="white" stroke="#666666" points="2071,-378 1946,-378 1946,-348 2071,-348 2071,-378"/>
<text text-anchor="start" x="1954" y="-366" font-family="Helvetica,sans-Serif" font-size="10.00">std::map&lt; ccf::SeqNo,</text>
<text text-anchor="middle" x="2008.5" y="-355" font-family="Helvetica,sans-Serif" font-size="10.00"> StoreDetailsPtr &gt;</text>
</a>
</g>
</g>
<!-- Node27&#45;&gt;Node43 -->
<g id="edge47" class="edge">
<title>Node27&#45;&gt;Node43</title>
<path fill="none" stroke="#9a32cd" stroke-dasharray="5,2" d="M1850.4,-363C1882.38,-363 1917.17,-363 1945.86,-363"/>
<polygon fill="#9a32cd" stroke="#9a32cd" points="1850.13,-359.5 1840.13,-363 1850.13,-366.5 1850.13,-359.5"/>
<text text-anchor="middle" x="1891" y="-366" font-family="Helvetica,sans-Serif" font-size="10.00"> elements</text>
</g>
<!-- Node28 -->
<g id="node28" class="node">
<title>Node28</title>
<g id="a_node28"><a xlink:href="structccf_1_1historical_1_1StateCacheImpl_1_1StoreDetails.html" target="_top" xlink:title=" ">
<polygon fill="white" stroke="#666666" points="1489,-363 1346,-363 1346,-333 1489,-333 1489,-363"/>
<text text-anchor="start" x="1354" y="-351" font-family="Helvetica,sans-Serif" font-size="10.00">ccf::historical::StateCache</text>
<text text-anchor="middle" x="1417.5" y="-340" font-family="Helvetica,sans-Serif" font-size="10.00">Impl::StoreDetails</text>
</a>
</g>
</g>
<!-- Node28&#45;&gt;Node27 -->
<g id="edge27" class="edge">
<title>Node28&#45;&gt;Node27</title>
<path fill="none" stroke="#9a32cd" stroke-dasharray="5,2" d="M1499.02,-351.61C1550.01,-353.9 1615.87,-356.85 1667.74,-359.18"/>
<polygon fill="#9a32cd" stroke="#9a32cd" points="1499.18,-348.11 1489.03,-351.16 1498.86,-355.11 1499.18,-348.11"/>
<text text-anchor="middle" x="1578.5" y="-361" font-family="Helvetica,sans-Serif" font-size="10.00"> ptr</text>
</g>
<!-- Node29 -->
<g id="node29" class="node">
<title>Node29</title>
<g id="a_node29"><a xlink:href="classcrypto_1_1Sha256Hash.html" target="_top" xlink:title=" ">
<polygon fill="white" stroke="#666666" points="1206,-351.5 1092,-351.5 1092,-332.5 1206,-332.5 1206,-351.5"/>
<text text-anchor="middle" x="1149" y="-339.5" font-family="Helvetica,sans-Serif" font-size="10.00">crypto::Sha256Hash</text>
</a>
</g>
</g>
<!-- Node29&#45;&gt;Node28 -->
<g id="edge28" class="edge">
<title>Node29&#45;&gt;Node28</title>
<path fill="none" stroke="#9a32cd" stroke-dasharray="5,2" d="M1216.25,-343.49C1249.75,-344.24 1291.03,-345.17 1328,-346 1333.84,-346.13 1339.89,-346.27 1345.97,-346.41"/>
<polygon fill="#9a32cd" stroke="#9a32cd" points="1216.19,-339.98 1206.12,-343.26 1216.04,-346.98 1216.19,-339.98"/>
<text text-anchor="middle" x="1291.5" y="-349" font-family="Helvetica,sans-Serif" font-size="10.00"> entry_digest</text>
</g>
<!-- Node30 -->
<g id="node30" class="node">
<title>Node30</title>
<g id="a_node30"><a xlink:title=" ">
<polygon fill="white" stroke="#666666" points="954,-362 843,-362 843,-332 954,-332 954,-362"/>
<text text-anchor="start" x="851" y="-350" font-family="Helvetica,sans-Serif" font-size="10.00">std::array&lt; uint8_t,</text>
<text text-anchor="middle" x="898.5" y="-339" font-family="Helvetica,sans-Serif" font-size="10.00"> SIZE &gt;</text>
</a>
</g>
</g>
<!-- Node30&#45;&gt;Node29 -->
<g id="edge29" class="edge">
<title>Node30&#45;&gt;Node29</title>
<path fill="none" stroke="#9a32cd" stroke-dasharray="5,2" d="M964.12,-345.7C1003.73,-344.9 1053.93,-343.89 1091.87,-343.13"/>
<polygon fill="#9a32cd" stroke="#9a32cd" points="963.96,-342.2 954.03,-345.9 964.1,-349.2 963.96,-342.2"/>
<text text-anchor="middle" x="1007.5" y="-348" font-family="Helvetica,sans-Serif" font-size="10.00"> h</text>
</g>
<!-- Node31 -->
<g id="node31" class="node">
<title>Node31</title>
<g id="a_node31"><a xlink:href="classccf_1_1ClaimsDigest.html" target="_top" xlink:title=" ">
<polygon fill="white" stroke="#666666" points="697,-345.5 596,-345.5 596,-326.5 697,-326.5 697,-345.5"/>
<text text-anchor="middle" x="646.5" y="-333.5" font-family="Helvetica,sans-Serif" font-size="10.00">ccf::ClaimsDigest</text>
</a>
</g>
</g>
<!-- Node31&#45;&gt;Node28 -->
<g id="edge30" class="edge">
<title>Node31&#45;&gt;Node28</title>
<path fill="none" stroke="#9a32cd" stroke-dasharray="5,2" d="M707.32,-330.99C746,-328.01 797.44,-324.51 843,-323 920.44,-320.43 1163.1,-318.95 1237,-324 1273.07,-326.46 1312.96,-331.56 1345.95,-336.42"/>
<polygon fill="#9a32cd" stroke="#9a32cd" points="706.97,-327.51 697.27,-331.78 707.52,-334.48 706.97,-327.51"/>
<text text-anchor="middle" x="1007.5" y="-323" font-family="Helvetica,sans-Serif" font-size="10.00"> claims_digest</text>
</g>
<!-- Node31&#45;&gt;Node34 -->
<g id="edge38" class="edge">
<title>Node31&#45;&gt;Node34</title>
<path fill="none" stroke="#9a32cd" stroke-dasharray="5,2" d="M706.96,-346.78C741.52,-353.28 785.85,-362.02 825,-371 837.43,-373.85 850.97,-377.3 862.94,-380.48"/>
<polygon fill="#9a32cd" stroke="#9a32cd" points="707.5,-343.32 697.02,-344.92 706.21,-350.2 707.5,-343.32"/>
<text text-anchor="middle" x="789.5" y="-374" font-family="Helvetica,sans-Serif" font-size="10.00"> claims_digest</text>
</g>
<!-- Node32&#45;&gt;Node28 -->
<g id="edge31" class="edge">
<title>Node32&#45;&gt;Node28</title>
<path fill="none" stroke="#9a32cd" stroke-dasharray="5,2" d="M1215.67,-187.19C1251.19,-197.56 1294.51,-213.88 1328,-238 1364.4,-264.21 1393.98,-309.16 1407.89,-332.66"/>
<polygon fill="#9a32cd" stroke="#9a32cd" points="1216.45,-183.77 1205.88,-184.42 1214.55,-190.51 1216.45,-183.77"/>
<text text-anchor="middle" x="1291.5" y="-241" font-family="Helvetica,sans-Serif" font-size="10.00"> store</text>
</g>
<!-- Node33 -->
<g id="node33" class="node">
<title>Node33</title>
<g id="a_node33"><a xlink:title=" ">
<polygon fill="white" stroke="#666666" points="1223.5,-437 1074.5,-437 1074.5,-407 1223.5,-407 1223.5,-437"/>
<text text-anchor="start" x="1082.5" y="-425" font-family="Helvetica,sans-Serif" font-size="10.00">std::shared_ptr&lt; TxReceipt</text>
<text text-anchor="middle" x="1149" y="-414" font-family="Helvetica,sans-Serif" font-size="10.00">Impl &gt;</text>
</a>
</g>
</g>
<!-- Node33&#45;&gt;Node28 -->
<g id="edge33" class="edge">
<title>Node33&#45;&gt;Node28</title>
<path fill="none" stroke="#9a32cd" stroke-dasharray="5,2" d="M1233.74,-405.07C1263.7,-398.4 1297.57,-390.13 1328,-381 1345.12,-375.86 1363.7,-369.12 1379.4,-363.06"/>
<polygon fill="#9a32cd" stroke="#9a32cd" points="1232.76,-401.71 1223.74,-407.28 1234.26,-408.54 1232.76,-401.71"/>
<text text-anchor="middle" x="1291.5" y="-403" font-family="Helvetica,sans-Serif" font-size="10.00"> receipt</text>
</g>
<!-- Node34&#45;&gt;Node33 -->
<g id="edge34" class="edge">
<title>Node34&#45;&gt;Node33</title>
<path fill="none" stroke="#9a32cd" stroke-dasharray="5,2" d="M962.47,-398.11C996.47,-402.49 1038.63,-407.92 1074.17,-412.49"/>
<polygon fill="#9a32cd" stroke="#9a32cd" points="962.57,-394.59 952.2,-396.79 961.67,-401.53 962.57,-394.59"/>
<text text-anchor="middle" x="1007.5" y="-410" font-family="Helvetica,sans-Serif" font-size="10.00"> ptr</text>
</g>
<!-- Node35 -->
<g id="node35" class="node">
<title>Node35</title>
<g id="a_node35"><a xlink:title=" ">
<polygon fill="white" stroke="#666666" points="704.5,-399 588.5,-399 588.5,-369 704.5,-369 704.5,-399"/>
<text text-anchor="start" x="596.5" y="-387" font-family="Helvetica,sans-Serif" font-size="10.00">std::shared_ptr&lt; ccf</text>
<text text-anchor="middle" x="646.5" y="-376" font-family="Helvetica,sans-Serif" font-size="10.00">::HistoryTree::Path &gt;</text>
</a>
</g>
</g>
<!-- Node35&#45;&gt;Node34 -->
<g id="edge36" class="edge">
<title>Node35&#45;&gt;Node34</title>
<path fill="none" stroke="#9a32cd" stroke-dasharray="5,2" d="M714.7,-385.61C755.59,-386.59 807.07,-387.83 844.97,-388.74"/>
<polygon fill="#9a32cd" stroke="#9a32cd" points="714.62,-382.11 704.54,-385.37 714.45,-389.11 714.62,-382.11"/>
<text text-anchor="middle" x="789.5" y="-391" font-family="Helvetica,sans-Serif" font-size="10.00"> path</text>
</g>
<!-- Node36 -->
<g id="node36" class="node">
<title>Node36</title>
<g id="a_node36"><a xlink:href="structccf_1_1EntityId.html" target="_top" xlink:title=" ">
<polygon fill="white" stroke="#666666" points="736,-436.5 557,-436.5 557,-417.5 736,-417.5 736,-436.5"/>
<text text-anchor="middle" x="646.5" y="-424.5" font-family="Helvetica,sans-Serif" font-size="10.00">ccf::EntityId&lt; NodeIdFormatter &gt;</text>
</a>
</g>
</g>
<!-- Node36&#45;&gt;Node34 -->
<g id="edge37" class="edge">
<title>Node36&#45;&gt;Node34</title>
<path fill="none" stroke="#9a32cd" stroke-dasharray="5,2" d="M733.33,-416.15C762.46,-412.27 795.18,-407.69 825,-403 831.82,-401.93 838.99,-400.73 846.06,-399.51"/>
<polygon fill="#9a32cd" stroke="#9a32cd" points="732.63,-412.71 723.18,-417.5 733.55,-419.65 732.63,-412.71"/>
<text text-anchor="middle" x="789.5" y="-415" font-family="Helvetica,sans-Serif" font-size="10.00"> node_id</text>
</g>
<!-- Node37 -->
<g id="node37" class="node">
<title>Node37</title>
<g id="a_node37"><a xlink:href="structccf_1_1TxID.html" target="_top" xlink:title=" ">
<polygon fill="white" stroke="#666666" points="1178.5,-388.5 1119.5,-388.5 1119.5,-369.5 1178.5,-369.5 1178.5,-388.5"/>
<text text-anchor="middle" x="1149" y="-376.5" font-family="Helvetica,sans-Serif" font-size="10.00">ccf::TxID</text>
</a>
</g>
</g>
<!-- Node37&#45;&gt;Node28 -->
<g id="edge39" class="edge">
<title>Node37&#45;&gt;Node28</title>
<path fill="none" stroke="#9a32cd" stroke-dasharray="5,2" d="M1188.65,-374.5C1229.7,-369.73 1295.48,-362.08 1345.84,-356.22"/>
<polygon fill="#9a32cd" stroke="#9a32cd" points="1188.05,-371.05 1178.52,-375.68 1188.86,-378 1188.05,-371.05"/>
<text text-anchor="middle" x="1291.5" y="-369" font-family="Helvetica,sans-Serif" font-size="10.00"> transaction_id</text>
</g>
<!-- Node38 -->
<g id="node38" class="node">
<title>Node38</title>
<g id="a_node38"><a xlink:title=" ">
<polygon fill="white" stroke="#666666" points="2617,-320.5 2450,-320.5 2450,-279.5 2617,-279.5 2617,-320.5"/>
<text text-anchor="start" x="2458" y="-308.5" font-family="Helvetica,sans-Serif" font-size="10.00">std::map&lt; CompoundHandle,</text>
<text text-anchor="start" x="2458" y="-297.5" font-family="Helvetica,sans-Serif" font-size="10.00"> ccf::historical::StateCacheImpl</text>
<text text-anchor="middle" x="2533.5" y="-286.5" font-family="Helvetica,sans-Serif" font-size="10.00">::Request &gt;</text>
</a>
</g>
</g>
<!-- Node38&#45;&gt;Node2 -->
<g id="edge41" class="edge">
<title>Node38&#45;&gt;Node2</title>
<path fill="none" stroke="#9a32cd" stroke-dasharray="5,2" d="M2627.09,-289.74C2668.33,-283.81 2717.16,-274.91 2760,-262 2789.54,-253.1 2821.86,-237.55 2841.28,-227.52"/>
<polygon fill="#9a32cd" stroke="#9a32cd" points="2626.47,-286.29 2617.05,-291.15 2627.44,-293.23 2626.47,-286.29"/>
<text text-anchor="middle" x="2697.5" y="-291" font-family="Helvetica,sans-Serif" font-size="10.00"> requests</text>
</g>
<!-- Node39 -->
<g id="node39" class="node">
<title>Node39</title>
<g id="a_node39"><a xlink:href="structccf_1_1historical_1_1StateCacheImpl_1_1Request.html" target="_top" xlink:title=" ">
<polygon fill="white" stroke="#666666" points="2363,-315 2220,-315 2220,-285 2363,-285 2363,-315"/>
<text text-anchor="start" x="2228" y="-303" font-family="Helvetica,sans-Serif" font-size="10.00">ccf::historical::StateCache</text>
<text text-anchor="middle" x="2291.5" y="-292" font-family="Helvetica,sans-Serif" font-size="10.00">Impl::Request</text>
</a>
</g>
</g>
<!-- Node39&#45;&gt;Node38 -->
<g id="edge42" class="edge">
<title>Node39&#45;&gt;Node38</title>
<path fill="none" stroke="#9a32cd" stroke-dasharray="5,2" d="M2373.22,-300C2397.81,-300 2424.88,-300 2449.61,-300"/>
<polygon fill="#9a32cd" stroke="#9a32cd" points="2373.21,-296.5 2363.21,-300 2373.21,-303.5 2373.21,-296.5"/>
<text text-anchor="middle" x="2406.5" y="-303" font-family="Helvetica,sans-Serif" font-size="10.00"> elements</text>
</g>
<!-- Node40 -->
<g id="node40" class="node">
<title>Node40</title>
<g id="a_node40"><a xlink:title=" ">
<polygon fill="white" stroke="#666666" points="2074,-202 1943,-202 1943,-172 2074,-172 2074,-202"/>
<text text-anchor="start" x="1951" y="-190" font-family="Helvetica,sans-Serif" font-size="10.00">std::map&lt; ccf::SeqNo,</text>
<text text-anchor="middle" x="2008.5" y="-179" font-family="Helvetica,sans-Serif" font-size="10.00"> WeakStoreDetailsPtr &gt;</text>
</a>
</g>
</g>
<!-- Node40&#45;&gt;Node2 -->
<g id="edge48" class="edge">
<title>Node40&#45;&gt;Node2</title>
<path fill="none" stroke="#9a32cd" stroke-dasharray="5,2" d="M2084.42,-180.86C2199.23,-172.49 2425.51,-160.01 2617,-174 2681.07,-178.68 2696.88,-183.05 2760,-195 2780.28,-198.84 2802.71,-203.97 2821.08,-208.42"/>
<polygon fill="#9a32cd" stroke="#9a32cd" points="2084.05,-177.38 2074.34,-181.61 2084.57,-184.36 2084.05,-177.38"/>
<text text-anchor="middle" x="2406.5" y="-170" font-family="Helvetica,sans-Serif" font-size="10.00"> all_stores</text>
</g>
<!-- Node40&#45;&gt;Node39 -->
<g id="edge43" class="edge">
<title>Node40&#45;&gt;Node39</title>
<path fill="none" stroke="#9a32cd" stroke-dasharray="5,2" d="M2056.36,-205.85C2111.59,-228.05 2202.25,-264.51 2253.03,-284.93"/>
<polygon fill="#9a32cd" stroke="#9a32cd" points="2057.4,-202.49 2046.81,-202.01 2054.79,-208.98 2057.4,-202.49"/>
<text text-anchor="middle" x="2147.5" y="-266" font-family="Helvetica,sans-Serif" font-size="10.00"> all_stores</text>
</g>
<!-- Node41 -->
<g id="node41" class="node">
<title>Node41</title>
<g id="a_node41"><a xlink:title=" ">
<polygon fill="white" stroke="#666666" points="1809.5,-196.5 1698.5,-196.5 1698.5,-177.5 1809.5,-177.5 1809.5,-196.5"/>
<text text-anchor="middle" x="1754" y="-184.5" font-family="Helvetica,sans-Serif" font-size="10.00">std::weak_ptr&lt; T &gt;</text>
</a>
</g>
</g>
<!-- Node41&#45;&gt;Node40 -->
<g id="edge44" class="edge">
<title>Node41&#45;&gt;Node40</title>
<path fill="none" stroke="#9a32cd" stroke-dasharray="5,2" d="M1820.17,-187C1857.95,-187 1905.33,-187 1942.99,-187"/>
<polygon fill="#9a32cd" stroke="#9a32cd" points="1819.79,-183.5 1809.79,-187 1819.79,-190.5 1819.79,-183.5"/>
<text text-anchor="middle" x="1891" y="-190" font-family="Helvetica,sans-Serif" font-size="10.00"> elements</text>
</g>
<!-- Node42 -->
<g id="node42" class="node">
<title>Node42</title>
<g id="a_node42"><a xlink:title=" ">
<polygon fill="white" stroke="#666666" points="1432,-196.5 1403,-196.5 1403,-177.5 1432,-177.5 1432,-196.5"/>
<text text-anchor="middle" x="1417.5" y="-184.5" font-family="Helvetica,sans-Serif" font-size="10.00">T</text>
</a>
</g>
</g>
<!-- Node42&#45;&gt;Node41 -->
<g id="edge45" class="edge">
<title>Node42&#45;&gt;Node41</title>
<path fill="none" stroke="#9a32cd" stroke-dasharray="5,2" d="M1442.11,-187C1494.98,-187 1624.07,-187 1698.22,-187"/>
<polygon fill="#9a32cd" stroke="#9a32cd" points="1442.03,-183.5 1432.03,-187 1442.03,-190.5 1442.03,-183.5"/>
<text text-anchor="middle" x="1578.5" y="-190" font-family="Helvetica,sans-Serif" font-size="10.00"> ptr</text>
</g>
<!-- Node43&#45;&gt;Node39 -->
<g id="edge46" class="edge">
<title>Node43&#45;&gt;Node39</title>
<path fill="none" stroke="#9a32cd" stroke-dasharray="5,2" d="M2081.14,-358.43C2117.77,-354.91 2162.78,-348.74 2202,-338 2222.32,-332.43 2244.08,-323.14 2260.93,-315.14"/>
<polygon fill="#9a32cd" stroke="#9a32cd" points="2080.68,-354.96 2071.04,-359.36 2081.32,-361.93 2080.68,-354.96"/>
<text text-anchor="middle" x="2147.5" y="-371" font-family="Helvetica,sans-Serif" font-size="10.00"> my_stores</text>
<text text-anchor="middle" x="2147.5" y="-360" font-family="Helvetica,sans-Serif" font-size="10.00">supporting_signatures</text>
</g>
<!-- Node44 -->
<g id="node44" class="node">
<title>Node44</title>
<g id="a_node44"><a xlink:href="classccf_1_1historical_1_1AbstractStateCache.html" target="_top" xlink:title=" ">
<polygon fill="white" stroke="#666666" points="2924,-128 2796,-128 2796,-98 2924,-98 2924,-128"/>
<text text-anchor="start" x="2804" y="-116" font-family="Helvetica,sans-Serif" font-size="10.00">ccf::historical::Abstract</text>
<text text-anchor="middle" x="2860" y="-105" font-family="Helvetica,sans-Serif" font-size="10.00">StateCache</text>
</a>
</g>
</g>
<!-- Node44&#45;&gt;Node1 -->
<g id="edge49" class="edge">
<title>Node44&#45;&gt;Node1</title>
<path fill="none" stroke="#63b8ff" d="M2934.06,-121.14C2948.73,-122.77 2964.13,-124.49 2978.73,-126.12"/>
<polygon fill="#63b8ff" stroke="#63b8ff" points="2934.36,-117.65 2924.03,-120.02 2933.58,-124.61 2934.36,-117.65"/>
</g>
<!-- Node45 -->
<g id="node45" class="node">
<title>Node45</title>
<g id="a_node45"><a xlink:href="classccf_1_1AbstractNodeSubSystem.html" target="_top" xlink:title=" ">
<polygon fill="white" stroke="#666666" points="2612,-40.5 2455,-40.5 2455,-21.5 2612,-21.5 2612,-40.5"/>
<text text-anchor="middle" x="2533.5" y="-28.5" font-family="Helvetica,sans-Serif" font-size="10.00">ccf::AbstractNodeSubSystem</text>
</a>
</g>
</g>
<!-- Node45&#45;&gt;Node44 -->
<g id="edge50" class="edge">
<title>Node45&#45;&gt;Node44</title>
<path fill="none" stroke="#63b8ff" d="M2622.18,-31.75C2664.68,-34.26 2715.94,-40.5 2760,-55 2789.52,-64.72 2819.82,-84.13 2838.99,-97.81"/>
<polygon fill="#63b8ff" stroke="#63b8ff" points="2622.3,-28.25 2612.13,-31.22 2621.93,-35.25 2622.3,-28.25"/>
</g>
</g>
</svg>
