<?xml version="1.0" encoding="UTF-8" standalone="no"?>
<!DOCTYPE svg PUBLIC "-//W3C//DTD SVG 1.1//EN"
 "http://www.w3.org/Graphics/SVG/1.1/DTD/svg11.dtd">
<!-- Generated by graphviz version 2.43.0 (0)
 -->
<!-- Title: ccf::CustomProtocolSubsystem Pages: 1 -->
<svg width="874pt" height="124pt"
 viewBox="0.00 0.00 874.00 124.00" xmlns="http://www.w3.org/2000/svg" xmlns:xlink="http://www.w3.org/1999/xlink">
<g id="graph0" class="graph" transform="scale(1 1) rotate(0) translate(4 120)">
<title>ccf::CustomProtocolSubsystem</title>
<!-- Node1 -->
<g id="node1" class="node">
<title>Node1</title>
<g id="a_node1"><a xlink:title=" ">
<polygon fill="#999999" stroke="#666666" points="866,-67.5 699,-67.5 699,-48.5 866,-48.5 866,-67.5"/>
<text text-anchor="middle" x="782.5" y="-55.5" font-family="Helvetica,sans-Serif" font-size="10.00">ccf::CustomProtocolSubsystem</text>
</a>
</g>
</g>
<!-- Node2 -->
<g id="node2" class="node">
<title>Node2</title>
<g id="a_node2"><a xlink:href="classccf_1_1CustomProtocolSubsystemInterface.html" target="_top" xlink:title=" ">
<polygon fill="white" stroke="#666666" points="527,-116 360,-116 360,-86 527,-86 527,-116"/>
<text text-anchor="start" x="368" y="-104" font-family="Helvetica,sans-Serif" font-size="10.00">ccf::CustomProtocolSubsystem</text>
<text text-anchor="middle" x="443.5" y="-93" font-family="Helvetica,sans-Serif" font-size="10.00">Interface</text>
</a>
</g>
</g>
<!-- Node2&#45;&gt;Node1 -->
<g id="edge1" class="edge">
<title>Node2&#45;&gt;Node1</title>
<path fill="none" stroke="#63b8ff" d="M537.24,-90.68C580.9,-85.65 633.67,-79.33 681,-73 693.5,-71.33 706.86,-69.42 719.62,-67.54"/>
<polygon fill="#63b8ff" stroke="#63b8ff" points="536.75,-87.21 527.21,-91.83 537.55,-94.17 536.75,-87.21"/>
</g>
<!-- Node3 -->
<g id="node3" class="node">
<title>Node3</title>
<g id="a_node3"><a xlink:href="classccf_1_1AbstractNodeSubSystem.html" target="_top" xlink:title=" ">
<polygon fill="white" stroke="#666666" points="298,-110.5 141,-110.5 141,-91.5 298,-91.5 298,-110.5"/>
<text text-anchor="middle" x="219.5" y="-98.5" font-family="Helvetica,sans-Serif" font-size="10.00">ccf::AbstractNodeSubSystem</text>
</a>
</g>
</g>
<!-- Node3&#45;&gt;Node2 -->
<g id="edge2" class="edge">
<title>Node3&#45;&gt;Node2</title>
<path fill="none" stroke="#63b8ff" d="M308.59,-101C325.54,-101 343.23,-101 359.99,-101"/>
<polygon fill="#63b8ff" stroke="#63b8ff" points="308.14,-97.5 298.14,-101 308.14,-104.5 308.14,-97.5"/>
</g>
<!-- Node4 -->
<g id="node4" class="node">
<title>Node4</title>
<g id="a_node4"><a xlink:href="classccf_1_1AbstractNodeState.html" target="_top" xlink:title=" ">
<polygon fill="white" stroke="#666666" points="507.5,-67.5 379.5,-67.5 379.5,-48.5 507.5,-48.5 507.5,-67.5"/>
<text text-anchor="middle" x="443.5" y="-55.5" font-family="Helvetica,sans-Serif" font-size="10.00">ccf::AbstractNodeState</text>
</a>
</g>
</g>
<!-- Node4&#45;&gt;Node1 -->
<g id="edge3" class="edge">
<title>Node4&#45;&gt;Node1</title>
<path fill="none" stroke="#9a32cd" stroke-dasharray="5,2" d="M517.96,-58C571.33,-58 643.59,-58 698.95,-58"/>
<polygon fill="#9a32cd" stroke="#9a32cd" points="517.89,-54.5 507.89,-58 517.89,-61.5 517.89,-54.5"/>
<text text-anchor="middle" x="613" y="-61" font-family="Helvetica,sans-Serif" font-size="10.00"> node_state</text>
</g>
<!-- Node5 -->
<g id="node5" class="node">
<title>Node5</title>
<g id="a_node5"><a xlink:title=" ">
<polygon fill="white" stroke="#666666" points="504.5,-30 382.5,-30 382.5,0 504.5,0 504.5,-30"/>
<text text-anchor="start" x="390.5" y="-18" font-family="Helvetica,sans-Serif" font-size="10.00">std::map&lt; std::string,</text>
<text text-anchor="middle" x="443.5" y="-7" font-family="Helvetica,sans-Serif" font-size="10.00"> CreateSessionFn &gt;</text>
</a>
</g>
</g>
<!-- Node5&#45;&gt;Node1 -->
<g id="edge4" class="edge">
<title>Node5&#45;&gt;Node1</title>
<path fill="none" stroke="#9a32cd" stroke-dasharray="5,2" d="M514.92,-22.77C561.98,-28.1 625.26,-35.54 681,-43 693.5,-44.67 706.86,-46.58 719.62,-48.46"/>
<polygon fill="#9a32cd" stroke="#9a32cd" points="515.16,-19.28 504.83,-21.63 514.37,-26.23 515.16,-19.28"/>
<text text-anchor="middle" x="613" y="-46" font-family="Helvetica,sans-Serif" font-size="10.00"> session_creation_functions</text>
</g>
<!-- Node6 -->
<g id="node6" class="node">
<title>Node6</title>
<g id="a_node6"><a xlink:title=" ">
<polygon fill="white" stroke="#666666" points="252,-24.5 187,-24.5 187,-5.5 252,-5.5 252,-24.5"/>
<text text-anchor="middle" x="219.5" y="-12.5" font-family="Helvetica,sans-Serif" font-size="10.00">std::string</text>
</a>
</g>
</g>
<!-- Node6&#45;&gt;Node5 -->
<g id="edge5" class="edge">
<title>Node6&#45;&gt;Node5</title>
<path fill="none" stroke="#9a32cd" stroke-dasharray="5,2" d="M262.33,-15C296.18,-15 344.31,-15 382.31,-15"/>
<polygon fill="#9a32cd" stroke="#9a32cd" points="262.31,-11.5 252.31,-15 262.31,-18.5 262.31,-11.5"/>
<text text-anchor="middle" x="329" y="-18" font-family="Helvetica,sans-Serif" font-size="10.00"> keys</text>
</g>
<!-- Node7 -->
<g id="node7" class="node">
<title>Node7</title>
<g id="a_node7"><a xlink:title=" ">
<polygon fill="white" stroke="#666666" points="104,-30 0,-30 0,0 104,0 104,-30"/>
<text text-anchor="start" x="8" y="-18" font-family="Helvetica,sans-Serif" font-size="10.00">std::basic_string&lt;</text>
<text text-anchor="middle" x="52" y="-7" font-family="Helvetica,sans-Serif" font-size="10.00"> Char &gt;</text>
</a>
</g>
</g>
<!-- Node7&#45;&gt;Node6 -->
<g id="edge6" class="edge">
<title>Node7&#45;&gt;Node6</title>
<path fill="none" stroke="#63b8ff" d="M114.01,-15C138.67,-15 166.09,-15 186.65,-15"/>
<polygon fill="#63b8ff" stroke="#63b8ff" points="114.01,-11.5 104.01,-15 114.01,-18.5 114.01,-11.5"/>
</g>
</g>
</svg>
