<?xml version="1.0" encoding="UTF-8" standalone="no"?>
<!DOCTYPE svg PUBLIC "-//W3C//DTD SVG 1.1//EN"
 "http://www.w3.org/Graphics/SVG/1.1/DTD/svg11.dtd">
<!-- Generated by graphviz version 2.43.0 (0)
 -->
<!-- Title: src/enclave/client_session.h Pages: 1 -->
<svg width="1633pt" height="313pt"
 viewBox="0.00 0.00 1633.44 313.00" xmlns="http://www.w3.org/2000/svg" xmlns:xlink="http://www.w3.org/1999/xlink">
<g id="graph0" class="graph" transform="scale(1 1) rotate(0) translate(4 309)">
<title>src/enclave/client_session.h</title>
<!-- Node1 -->
<g id="node1" class="node">
<title>Node1</title>
<g id="a_node1"><a xlink:title=" ">
<polygon fill="#999999" stroke="#666666" points="785.44,-305 683.44,-305 683.44,-275 785.44,-275 785.44,-305"/>
<text text-anchor="start" x="691.44" y="-293" font-family="Helvetica,sans-Serif" font-size="10.00">src/enclave/client</text>
<text text-anchor="middle" x="734.44" y="-282" font-family="Helvetica,sans-Serif" font-size="10.00">_session.h</text>
</a>
</g>
</g>
<!-- Node2 -->
<g id="node2" class="node">
<title>Node2</title>
<g id="a_node2"><a xlink:href="http__builder_8h.html" target="_top" xlink:title=" ">
<polygon fill="white" stroke="#666666" points="472.44,-129 366.44,-129 366.44,-110 472.44,-110 472.44,-129"/>
<text text-anchor="middle" x="419.44" y="-117" font-family="Helvetica,sans-Serif" font-size="10.00">http/http_builder.h</text>
</a>
</g>
</g>
<!-- Node1&#45;&gt;Node2 -->
<g id="edge1" class="edge">
<title>Node1&#45;&gt;Node2</title>
<path fill="none" stroke="#63b8ff" d="M708.12,-274.92C648.31,-242.93 502.83,-165.11 444.37,-133.84"/>
<polygon fill="#63b8ff" stroke="#63b8ff" points="445.91,-130.69 435.44,-129.06 442.61,-136.87 445.91,-130.69"/>
</g>
<!-- Node17 -->
<g id="node17" class="node">
<title>Node17</title>
<g id="a_node17"><a xlink:href="tls_2msg__types_8h.html" target="_top" xlink:title=" ">
<polygon fill="white" stroke="#666666" points="827.44,-239 733.44,-239 733.44,-220 827.44,-220 827.44,-239"/>
<text text-anchor="middle" x="780.44" y="-227" font-family="Helvetica,sans-Serif" font-size="10.00">tls/msg_types.h</text>
</a>
</g>
</g>
<!-- Node1&#45;&gt;Node17 -->
<g id="edge20" class="edge">
<title>Node1&#45;&gt;Node17</title>
<path fill="none" stroke="#63b8ff" d="M745.57,-274.84C752.11,-266.52 760.42,-255.96 767.28,-247.23"/>
<polygon fill="#63b8ff" stroke="#63b8ff" points="770.11,-249.29 773.54,-239.27 764.61,-244.96 770.11,-249.29"/>
</g>
<!-- Node3 -->
<g id="node3" class="node">
<title>Node3</title>
<g id="a_node3"><a xlink:href="nonstd_8h.html" target="_top" xlink:title=" ">
<polygon fill="white" stroke="#666666" points="756.44,-74 666.44,-74 666.44,-55 756.44,-55 756.44,-74"/>
<text text-anchor="middle" x="711.44" y="-62" font-family="Helvetica,sans-Serif" font-size="10.00">ccf/ds/nonstd.h</text>
</a>
</g>
</g>
<!-- Node2&#45;&gt;Node3 -->
<g id="edge2" class="edge">
<title>Node2&#45;&gt;Node3</title>
<path fill="none" stroke="#63b8ff" d="M466.35,-109.98C518.11,-100.59 601.31,-85.49 656.18,-75.53"/>
<polygon fill="#63b8ff" stroke="#63b8ff" points="656.87,-78.96 666.08,-73.73 655.62,-72.07 656.87,-78.96"/>
</g>
<!-- Node7 -->
<g id="node7" class="node">
<title>Node7</title>
<g id="a_node7"><a xlink:title=" ">
<polygon fill="#e0e0e0" stroke="#999999" points="580.44,-19 536.44,-19 536.44,0 580.44,0 580.44,-19"/>
<text text-anchor="middle" x="558.44" y="-7" font-family="Helvetica,sans-Serif" font-size="10.00">string</text>
</a>
</g>
</g>
<!-- Node2&#45;&gt;Node7 -->
<g id="edge18" class="edge">
<title>Node2&#45;&gt;Node7</title>
<path fill="none" stroke="#63b8ff" d="M366.19,-115.82C305.37,-111.51 211.41,-100.63 189.44,-74 184.06,-67.49 183.84,-61.32 189.44,-55 211.63,-29.97 440.02,-16.29 525.97,-12"/>
<polygon fill="#63b8ff" stroke="#63b8ff" points="526.37,-15.48 536.18,-11.5 526.03,-8.49 526.37,-15.48"/>
</g>
<!-- Node10 -->
<g id="node10" class="node">
<title>Node10</title>
<g id="a_node10"><a xlink:title=" ">
<polygon fill="#e0e0e0" stroke="#999999" points="1163.94,-19 1116.94,-19 1116.94,0 1163.94,0 1163.94,-19"/>
<text text-anchor="middle" x="1140.44" y="-7" font-family="Helvetica,sans-Serif" font-size="10.00">vector</text>
</a>
</g>
</g>
<!-- Node2&#45;&gt;Node10 -->
<g id="edge19" class="edge">
<title>Node2&#45;&gt;Node10</title>
<path fill="none" stroke="#63b8ff" d="M472.58,-112.33C540.58,-104.29 661.95,-89.41 765.44,-74 782.36,-71.48 1017.82,-31.39 1106.75,-16.24"/>
<polygon fill="#63b8ff" stroke="#63b8ff" points="1107.58,-19.65 1116.85,-14.52 1106.4,-12.75 1107.58,-19.65"/>
</g>
<!-- Node11 -->
<g id="node11" class="node">
<title>Node11</title>
<g id="a_node11"><a xlink:href="http__consts_8h.html" target="_top" xlink:title=" ">
<polygon fill="white" stroke="#666666" points="297.94,-74 198.94,-74 198.94,-55 297.94,-55 297.94,-74"/>
<text text-anchor="middle" x="248.44" y="-62" font-family="Helvetica,sans-Serif" font-size="10.00">ccf/http_consts.h</text>
</a>
</g>
</g>
<!-- Node2&#45;&gt;Node11 -->
<g id="edge10" class="edge">
<title>Node2&#45;&gt;Node11</title>
<path fill="none" stroke="#63b8ff" d="M391.96,-109.98C363.25,-101.09 318.02,-87.07 286.02,-77.15"/>
<polygon fill="#63b8ff" stroke="#63b8ff" points="286.72,-73.7 276.13,-74.08 284.64,-80.39 286.72,-73.7"/>
</g>
<!-- Node12 -->
<g id="node12" class="node">
<title>Node12</title>
<g id="a_node12"><a xlink:href="http__header__map_8h.html" target="_top" xlink:title=" ">
<polygon fill="white" stroke="#666666" points="142.44,-74 14.44,-74 14.44,-55 142.44,-55 142.44,-74"/>
<text text-anchor="middle" x="78.44" y="-62" font-family="Helvetica,sans-Serif" font-size="10.00">ccf/http_header_map.h</text>
</a>
</g>
</g>
<!-- Node2&#45;&gt;Node12 -->
<g id="edge11" class="edge">
<title>Node2&#45;&gt;Node12</title>
<path fill="none" stroke="#63b8ff" d="M366.16,-110.22C305.97,-100.86 208.01,-85.64 143.39,-75.6"/>
<polygon fill="#63b8ff" stroke="#63b8ff" points="143.74,-72.11 133.32,-74.03 142.66,-79.02 143.74,-72.11"/>
</g>
<!-- Node13 -->
<g id="node13" class="node">
<title>Node13</title>
<g id="a_node13"><a xlink:title=" ">
<polygon fill="#e0e0e0" stroke="#999999" points="51.44,-19 13.44,-19 13.44,0 51.44,0 51.44,-19"/>
<text text-anchor="middle" x="32.44" y="-7" font-family="Helvetica,sans-Serif" font-size="10.00">map</text>
</a>
</g>
</g>
<!-- Node2&#45;&gt;Node13 -->
<g id="edge17" class="edge">
<title>Node2&#45;&gt;Node13</title>
<path fill="none" stroke="#63b8ff" d="M366.18,-116.67C259.8,-112.47 29.14,-100.38 5.44,-74 -6.63,-60.57 4.87,-40.94 16.37,-27.07"/>
<polygon fill="#63b8ff" stroke="#63b8ff" points="19.27,-29.08 23.32,-19.28 14.05,-24.41 19.27,-29.08"/>
</g>
<!-- Node14 -->
<g id="node14" class="node">
<title>Node14</title>
<g id="a_node14"><a xlink:href="http__status_8h.html" target="_top" xlink:title=" ">
<polygon fill="white" stroke="#666666" points="414.44,-74 316.44,-74 316.44,-55 414.44,-55 414.44,-74"/>
<text text-anchor="middle" x="365.44" y="-62" font-family="Helvetica,sans-Serif" font-size="10.00">ccf/http_status.h</text>
</a>
</g>
</g>
<!-- Node2&#45;&gt;Node14 -->
<g id="edge14" class="edge">
<title>Node2&#45;&gt;Node14</title>
<path fill="none" stroke="#63b8ff" d="M410.52,-109.75C402.66,-102.03 391.01,-90.6 381.52,-81.28"/>
<polygon fill="#63b8ff" stroke="#63b8ff" points="383.78,-78.6 374.19,-74.09 378.87,-83.59 383.78,-78.6"/>
</g>
<!-- Node15 -->
<g id="node15" class="node">
<title>Node15</title>
<g id="a_node15"><a xlink:title=" ">
<polygon fill="#e0e0e0" stroke="#999999" points="609.94,-74 530.94,-74 530.94,-55 609.94,-55 609.94,-74"/>
<text text-anchor="middle" x="570.44" y="-62" font-family="Helvetica,sans-Serif" font-size="10.00">fmt/format.h</text>
</a>
</g>
</g>
<!-- Node2&#45;&gt;Node15 -->
<g id="edge15" class="edge">
<title>Node2&#45;&gt;Node15</title>
<path fill="none" stroke="#63b8ff" d="M443.7,-109.98C468.76,-101.19 508.07,-87.39 536.27,-77.49"/>
<polygon fill="#63b8ff" stroke="#63b8ff" points="537.46,-80.78 545.74,-74.17 535.14,-74.18 537.46,-80.78"/>
</g>
<!-- Node16 -->
<g id="node16" class="node">
<title>Node16</title>
<g id="a_node16"><a xlink:title=" ">
<polygon fill="#e0e0e0" stroke="#999999" points="512.44,-74 432.44,-74 432.44,-55 512.44,-55 512.44,-74"/>
<text text-anchor="middle" x="472.44" y="-62" font-family="Helvetica,sans-Serif" font-size="10.00">llhttp/llhttp.h</text>
</a>
</g>
</g>
<!-- Node2&#45;&gt;Node16 -->
<g id="edge16" class="edge">
<title>Node2&#45;&gt;Node16</title>
<path fill="none" stroke="#63b8ff" d="M428.19,-109.75C435.91,-102.03 447.34,-90.6 456.65,-81.28"/>
<polygon fill="#63b8ff" stroke="#63b8ff" points="459.25,-83.64 463.85,-74.09 454.3,-78.69 459.25,-83.64"/>
</g>
<!-- Node4 -->
<g id="node4" class="node">
<title>Node4</title>
<g id="a_node4"><a xlink:title=" ">
<polygon fill="#e0e0e0" stroke="#999999" points="662.44,-19 598.44,-19 598.44,0 662.44,0 662.44,-19"/>
<text text-anchor="middle" x="630.44" y="-7" font-family="Helvetica,sans-Serif" font-size="10.00">algorithm</text>
</a>
</g>
</g>
<!-- Node3&#45;&gt;Node4 -->
<g id="edge3" class="edge">
<title>Node3&#45;&gt;Node4</title>
<path fill="none" stroke="#63b8ff" d="M698.42,-54.98C685.98,-46.84 666.98,-34.41 652.23,-24.76"/>
<polygon fill="#63b8ff" stroke="#63b8ff" points="653.97,-21.72 643.69,-19.17 650.14,-27.57 653.97,-21.72"/>
</g>
<!-- Node5 -->
<g id="node5" class="node">
<title>Node5</title>
<g id="a_node5"><a xlink:title=" ">
<polygon fill="#e0e0e0" stroke="#999999" points="881.44,-19 839.44,-19 839.44,0 881.44,0 881.44,-19"/>
<text text-anchor="middle" x="860.44" y="-7" font-family="Helvetica,sans-Serif" font-size="10.00">array</text>
</a>
</g>
</g>
<!-- Node3&#45;&gt;Node5 -->
<g id="edge4" class="edge">
<title>Node3&#45;&gt;Node5</title>
<path fill="none" stroke="#63b8ff" d="M735.38,-54.98C760.87,-45.92 801.33,-31.53 829.29,-21.58"/>
<polygon fill="#63b8ff" stroke="#63b8ff" points="830.73,-24.78 838.98,-18.13 828.38,-18.19 830.73,-24.78"/>
</g>
<!-- Node6 -->
<g id="node6" class="node">
<title>Node6</title>
<g id="a_node6"><a xlink:title=" ">
<polygon fill="#e0e0e0" stroke="#999999" points="729.94,-19 680.94,-19 680.94,0 729.94,0 729.94,-19"/>
<text text-anchor="middle" x="705.44" y="-7" font-family="Helvetica,sans-Serif" font-size="10.00">cctype</text>
</a>
</g>
</g>
<!-- Node3&#45;&gt;Node6 -->
<g id="edge5" class="edge">
<title>Node3&#45;&gt;Node6</title>
<path fill="none" stroke="#63b8ff" d="M710.45,-54.75C709.66,-47.8 708.53,-37.85 707.55,-29.13"/>
<polygon fill="#63b8ff" stroke="#63b8ff" points="711.01,-28.63 706.41,-19.09 704.06,-29.42 711.01,-28.63"/>
</g>
<!-- Node3&#45;&gt;Node7 -->
<g id="edge6" class="edge">
<title>Node3&#45;&gt;Node7</title>
<path fill="none" stroke="#63b8ff" d="M686.86,-54.98C660.56,-45.88 618.77,-31.4 590.04,-21.45"/>
<polygon fill="#63b8ff" stroke="#63b8ff" points="591.07,-18.1 580.48,-18.13 588.78,-24.71 591.07,-18.1"/>
</g>
<!-- Node8 -->
<g id="node8" class="node">
<title>Node8</title>
<g id="a_node8"><a xlink:title=" ">
<polygon fill="#e0e0e0" stroke="#999999" points="820.94,-19 747.94,-19 747.94,0 820.94,0 820.94,-19"/>
<text text-anchor="middle" x="784.44" y="-7" font-family="Helvetica,sans-Serif" font-size="10.00">string_view</text>
</a>
</g>
</g>
<!-- Node3&#45;&gt;Node8 -->
<g id="edge7" class="edge">
<title>Node3&#45;&gt;Node8</title>
<path fill="none" stroke="#63b8ff" d="M723.17,-54.98C734.17,-47 750.86,-34.88 764.04,-25.31"/>
<polygon fill="#63b8ff" stroke="#63b8ff" points="766.46,-27.88 772.5,-19.17 762.35,-22.21 766.46,-27.88"/>
</g>
<!-- Node9 -->
<g id="node9" class="node">
<title>Node9</title>
<g id="a_node9"><a xlink:title=" ">
<polygon fill="#e0e0e0" stroke="#999999" points="1033.94,-19 964.94,-19 964.94,0 1033.94,0 1033.94,-19"/>
<text text-anchor="middle" x="999.44" y="-7" font-family="Helvetica,sans-Serif" font-size="10.00">type_traits</text>
</a>
</g>
</g>
<!-- Node3&#45;&gt;Node9 -->
<g id="edge8" class="edge">
<title>Node3&#45;&gt;Node9</title>
<path fill="none" stroke="#63b8ff" d="M756.75,-55.16C810.92,-45.19 900.99,-28.62 954.84,-18.71"/>
<polygon fill="#63b8ff" stroke="#63b8ff" points="955.58,-22.13 964.78,-16.88 954.31,-15.25 955.58,-22.13"/>
</g>
<!-- Node3&#45;&gt;Node10 -->
<g id="edge9" class="edge">
<title>Node3&#45;&gt;Node10</title>
<path fill="none" stroke="#63b8ff" d="M756.54,-57.93C842.83,-47.27 1029.55,-24.2 1106.37,-14.71"/>
<polygon fill="#63b8ff" stroke="#63b8ff" points="1106.96,-18.16 1116.46,-13.46 1106.1,-11.22 1106.96,-18.16"/>
</g>
<!-- Node12&#45;&gt;Node7 -->
<g id="edge13" class="edge">
<title>Node12&#45;&gt;Node7</title>
<path fill="none" stroke="#63b8ff" d="M142.67,-56.41C246.61,-44.93 447.91,-22.7 526.19,-14.06"/>
<polygon fill="#63b8ff" stroke="#63b8ff" points="526.84,-17.51 536.4,-12.93 526.08,-10.55 526.84,-17.51"/>
</g>
<!-- Node12&#45;&gt;Node13 -->
<g id="edge12" class="edge">
<title>Node12&#45;&gt;Node13</title>
<path fill="none" stroke="#63b8ff" d="M70.84,-54.75C64.28,-47.18 54.61,-36.05 46.62,-26.84"/>
<polygon fill="#63b8ff" stroke="#63b8ff" points="49.09,-24.35 39.89,-19.09 43.8,-28.94 49.09,-24.35"/>
</g>
<!-- Node18 -->
<g id="node18" class="node">
<title>Node18</title>
<g id="a_node18"><a xlink:href="ring__buffer__types_8h.html" target="_top" xlink:title=" ">
<polygon fill="white" stroke="#666666" points="1033.94,-184 908.94,-184 908.94,-165 1033.94,-165 1033.94,-184"/>
<text text-anchor="middle" x="971.44" y="-172" font-family="Helvetica,sans-Serif" font-size="10.00">ds/ring_buffer_types.h</text>
</a>
</g>
</g>
<!-- Node17&#45;&gt;Node18 -->
<g id="edge21" class="edge">
<title>Node17&#45;&gt;Node18</title>
<path fill="none" stroke="#63b8ff" d="M811.13,-219.98C843.61,-210.97 895.03,-196.7 930.85,-186.76"/>
<polygon fill="#63b8ff" stroke="#63b8ff" points="931.81,-190.13 940.51,-184.08 929.94,-183.38 931.81,-190.13"/>
</g>
<!-- Node18&#45;&gt;Node3 -->
<g id="edge32" class="edge">
<title>Node18&#45;&gt;Node3</title>
<path fill="none" stroke="#63b8ff" d="M950.6,-164.84C904.66,-145.76 794.52,-100.01 741.27,-77.89"/>
<polygon fill="#63b8ff" stroke="#63b8ff" points="742.59,-74.65 732.01,-74.05 739.91,-81.12 742.59,-74.65"/>
</g>
<!-- Node18&#45;&gt;Node7 -->
<g id="edge50" class="edge">
<title>Node18&#45;&gt;Node7</title>
<path fill="none" stroke="#63b8ff" d="M932.92,-164.99C872.37,-150.81 752.07,-119.35 657.44,-74 628.35,-60.06 597.46,-39.14 578.07,-25.17"/>
<polygon fill="#63b8ff" stroke="#63b8ff" points="579.92,-22.18 569.78,-19.11 575.79,-27.83 579.92,-22.18"/>
</g>
<!-- Node18&#45;&gt;Node10 -->
<g id="edge51" class="edge">
<title>Node18&#45;&gt;Node10</title>
<path fill="none" stroke="#63b8ff" d="M1034.11,-170.09C1064.76,-165.08 1099.66,-153.8 1121.44,-129 1145.87,-101.18 1145.54,-54.88 1143.05,-29.17"/>
<polygon fill="#63b8ff" stroke="#63b8ff" points="1146.52,-28.75 1141.88,-19.23 1139.57,-29.57 1146.52,-28.75"/>
</g>
<!-- Node18&#45;&gt;Node15 -->
<g id="edge47" class="edge">
<title>Node18&#45;&gt;Node15</title>
<path fill="none" stroke="#63b8ff" d="M908.75,-170.86C822.42,-166.31 672.16,-154.87 624.44,-129 605.03,-118.48 589.57,-97.94 580.25,-83.06"/>
<polygon fill="#63b8ff" stroke="#63b8ff" points="583.15,-81.08 575.03,-74.27 577.13,-84.66 583.15,-81.08"/>
</g>
<!-- Node19 -->
<g id="node19" class="node">
<title>Node19</title>
<g id="a_node19"><a xlink:href="include_2ccf_2ds_2hash_8h.html" target="_top" xlink:title=" ">
<polygon fill="white" stroke="#666666" points="970.44,-129 890.44,-129 890.44,-110 970.44,-110 970.44,-129"/>
<text text-anchor="middle" x="930.44" y="-117" font-family="Helvetica,sans-Serif" font-size="10.00">ccf/ds/hash.h</text>
</a>
</g>
</g>
<!-- Node18&#45;&gt;Node19 -->
<g id="edge22" class="edge">
<title>Node18&#45;&gt;Node19</title>
<path fill="none" stroke="#63b8ff" d="M964.67,-164.75C958.88,-157.26 950.38,-146.28 943.3,-137.13"/>
<polygon fill="#63b8ff" stroke="#63b8ff" points="945.97,-134.86 937.08,-129.09 940.43,-139.14 945.97,-134.86"/>
</g>
<!-- Node24 -->
<g id="node24" class="node">
<title>Node24</title>
<g id="a_node24"><a xlink:href="serializer_8h.html" target="_top" xlink:title=" ">
<polygon fill="white" stroke="#666666" points="1326.44,-129 1256.44,-129 1256.44,-110 1326.44,-110 1326.44,-129"/>
<text text-anchor="middle" x="1291.44" y="-117" font-family="Helvetica,sans-Serif" font-size="10.00">serializer.h</text>
</a>
</g>
</g>
<!-- Node18&#45;&gt;Node24 -->
<g id="edge33" class="edge">
<title>Node18&#45;&gt;Node24</title>
<path fill="none" stroke="#63b8ff" d="M1022.85,-164.98C1084.52,-154.77 1186.93,-137.81 1245.87,-128.05"/>
<polygon fill="#63b8ff" stroke="#63b8ff" points="1246.71,-131.46 1256,-126.37 1245.57,-124.55 1246.71,-131.46"/>
</g>
<!-- Node29 -->
<g id="node29" class="node">
<title>Node29</title>
<g id="a_node29"><a xlink:title=" ">
<polygon fill="#e0e0e0" stroke="#999999" points="1625.44,-74 1585.44,-74 1585.44,-55 1625.44,-55 1625.44,-74"/>
<text text-anchor="middle" x="1605.44" y="-62" font-family="Helvetica,sans-Serif" font-size="10.00">span</text>
</a>
</g>
</g>
<!-- Node18&#45;&gt;Node29 -->
<g id="edge49" class="edge">
<title>Node18&#45;&gt;Node29</title>
<path fill="none" stroke="#63b8ff" d="M1034.2,-167.8C1106.98,-160.74 1230.39,-147.36 1335.44,-129 1440.49,-110.64 1468.5,-102.19 1575.31,-74.19"/>
<polygon fill="#63b8ff" stroke="#63b8ff" points="1576.41,-77.52 1585.2,-71.6 1574.64,-70.75 1576.41,-77.52"/>
</g>
<!-- Node31 -->
<g id="node31" class="node">
<title>Node31</title>
<g id="a_node31"><a xlink:title=" ">
<polygon fill="#e0e0e0" stroke="#999999" points="1038.44,-129 988.44,-129 988.44,-110 1038.44,-110 1038.44,-129"/>
<text text-anchor="middle" x="1013.44" y="-117" font-family="Helvetica,sans-Serif" font-size="10.00">atomic</text>
</a>
</g>
</g>
<!-- Node18&#45;&gt;Node31 -->
<g id="edge46" class="edge">
<title>Node18&#45;&gt;Node31</title>
<path fill="none" stroke="#63b8ff" d="M978.37,-164.75C984.31,-157.26 993.01,-146.28 1000.26,-137.13"/>
<polygon fill="#63b8ff" stroke="#63b8ff" points="1003.16,-139.1 1006.63,-129.09 997.68,-134.75 1003.16,-139.1"/>
</g>
<!-- Node32 -->
<g id="node32" class="node">
<title>Node32</title>
<g id="a_node32"><a xlink:title=" ">
<polygon fill="#e0e0e0" stroke="#999999" points="1112.44,-129 1056.44,-129 1056.44,-110 1112.44,-110 1112.44,-129"/>
<text text-anchor="middle" x="1084.44" y="-117" font-family="Helvetica,sans-Serif" font-size="10.00">optional</text>
</a>
</g>
</g>
<!-- Node18&#45;&gt;Node32 -->
<g id="edge48" class="edge">
<title>Node18&#45;&gt;Node32</title>
<path fill="none" stroke="#63b8ff" d="M989.59,-164.98C1007.69,-156.5 1035.72,-143.35 1056.63,-133.54"/>
<polygon fill="#63b8ff" stroke="#63b8ff" points="1058.38,-136.59 1065.95,-129.17 1055.41,-130.25 1058.38,-136.59"/>
</g>
<!-- Node19&#45;&gt;Node5 -->
<g id="edge27" class="edge">
<title>Node19&#45;&gt;Node5</title>
<path fill="none" stroke="#63b8ff" d="M916.81,-109.87C905.27,-101.89 889.11,-89.02 879.44,-74 870.68,-60.39 865.81,-42.58 863.2,-29.28"/>
<polygon fill="#63b8ff" stroke="#63b8ff" points="866.64,-28.63 861.5,-19.36 859.74,-29.81 866.64,-28.63"/>
</g>
<!-- Node19&#45;&gt;Node8 -->
<g id="edge30" class="edge">
<title>Node19&#45;&gt;Node8</title>
<path fill="none" stroke="#63b8ff" d="M917.55,-109.83C904.53,-100.99 883.89,-86.81 866.44,-74 844.52,-57.91 819.92,-38.7 803.43,-25.66"/>
<polygon fill="#63b8ff" stroke="#63b8ff" points="805.19,-22.58 795.18,-19.1 800.83,-28.06 805.19,-22.58"/>
</g>
<!-- Node19&#45;&gt;Node10 -->
<g id="edge31" class="edge">
<title>Node19&#45;&gt;Node10</title>
<path fill="none" stroke="#63b8ff" d="M957.92,-109.93C981.92,-101.99 1017.36,-89.15 1046.44,-74 1073.76,-59.77 1102.78,-39.23 1121.23,-25.39"/>
<polygon fill="#63b8ff" stroke="#63b8ff" points="1123.54,-28.04 1129.38,-19.2 1119.3,-22.46 1123.54,-28.04"/>
</g>
<!-- Node20 -->
<g id="node20" class="node">
<title>Node20</title>
<g id="a_node20"><a xlink:href="siphash_8h.html" target="_top" xlink:title=" ">
<polygon fill="white" stroke="#666666" points="1301.94,-74 1206.94,-74 1206.94,-55 1301.94,-55 1301.94,-74"/>
<text text-anchor="middle" x="1254.44" y="-62" font-family="Helvetica,sans-Serif" font-size="10.00">ccf/ds/siphash.h</text>
</a>
</g>
</g>
<!-- Node19&#45;&gt;Node20 -->
<g id="edge23" class="edge">
<title>Node19&#45;&gt;Node20</title>
<path fill="none" stroke="#63b8ff" d="M970.54,-111.5C973.55,-110.99 976.54,-110.49 979.44,-110 1054.43,-97.43 1141.03,-83.52 1196.69,-74.65"/>
<polygon fill="#63b8ff" stroke="#63b8ff" points="1197.39,-78.08 1206.72,-73.05 1196.29,-71.17 1197.39,-78.08"/>
</g>
<!-- Node22 -->
<g id="node22" class="node">
<title>Node22</title>
<g id="a_node22"><a xlink:title=" ">
<polygon fill="#e0e0e0" stroke="#999999" points="1355.44,-19 1305.44,-19 1305.44,0 1355.44,0 1355.44,-19"/>
<text text-anchor="middle" x="1330.44" y="-7" font-family="Helvetica,sans-Serif" font-size="10.00">cstdint</text>
</a>
</g>
</g>
<!-- Node19&#45;&gt;Node22 -->
<g id="edge28" class="edge">
<title>Node19&#45;&gt;Node22</title>
<path fill="none" stroke="#63b8ff" d="M970.52,-111.33C973.53,-110.86 976.53,-110.41 979.44,-110 1052.92,-99.65 1254.39,-121.47 1311.44,-74 1324.42,-63.2 1328.76,-43.91 1330.1,-29.42"/>
<polygon fill="#63b8ff" stroke="#63b8ff" points="1333.62,-29.25 1330.64,-19.08 1326.63,-28.88 1333.62,-29.25"/>
</g>
<!-- Node23 -->
<g id="node23" class="node">
<title>Node23</title>
<g id="a_node23"><a xlink:title=" ">
<polygon fill="#e0e0e0" stroke="#999999" points="1036.94,-74 887.94,-74 887.94,-55 1036.94,-55 1036.94,-74"/>
<text text-anchor="middle" x="962.44" y="-62" font-family="Helvetica,sans-Serif" font-size="10.00">small_vector/SmallVector.h</text>
</a>
</g>
</g>
<!-- Node19&#45;&gt;Node23 -->
<g id="edge29" class="edge">
<title>Node19&#45;&gt;Node23</title>
<path fill="none" stroke="#63b8ff" d="M935.72,-109.75C940.15,-102.42 946.6,-91.73 952.06,-82.7"/>
<polygon fill="#63b8ff" stroke="#63b8ff" points="955.08,-84.46 957.25,-74.09 949.09,-80.84 955.08,-84.46"/>
</g>
<!-- Node20&#45;&gt;Node10 -->
<g id="edge26" class="edge">
<title>Node20&#45;&gt;Node10</title>
<path fill="none" stroke="#63b8ff" d="M1236.12,-54.98C1217.78,-46.46 1189.33,-33.23 1168.21,-23.41"/>
<polygon fill="#63b8ff" stroke="#63b8ff" points="1169.63,-20.21 1159.09,-19.17 1166.68,-26.56 1169.63,-20.21"/>
</g>
<!-- Node21 -->
<g id="node21" class="node">
<title>Node21</title>
<g id="a_node21"><a xlink:title=" ">
<polygon fill="#e0e0e0" stroke="#999999" points="1280.94,-19 1227.94,-19 1227.94,0 1280.94,0 1280.94,-19"/>
<text text-anchor="middle" x="1254.44" y="-7" font-family="Helvetica,sans-Serif" font-size="10.00">cstddef</text>
</a>
</g>
</g>
<!-- Node20&#45;&gt;Node21 -->
<g id="edge24" class="edge">
<title>Node20&#45;&gt;Node21</title>
<path fill="none" stroke="#63b8ff" d="M1254.44,-54.75C1254.44,-47.8 1254.44,-37.85 1254.44,-29.13"/>
<polygon fill="#63b8ff" stroke="#63b8ff" points="1257.94,-29.09 1254.44,-19.09 1250.94,-29.09 1257.94,-29.09"/>
</g>
<!-- Node20&#45;&gt;Node22 -->
<g id="edge25" class="edge">
<title>Node20&#45;&gt;Node22</title>
<path fill="none" stroke="#63b8ff" d="M1266.65,-54.98C1278.21,-46.92 1295.81,-34.65 1309.6,-25.03"/>
<polygon fill="#63b8ff" stroke="#63b8ff" points="1311.8,-27.76 1318,-19.17 1307.8,-22.02 1311.8,-27.76"/>
</g>
<!-- Node24&#45;&gt;Node3 -->
<g id="edge34" class="edge">
<title>Node24&#45;&gt;Node3</title>
<path fill="none" stroke="#63b8ff" d="M1256.03,-115.26C1158.38,-106.34 884.72,-81.33 766.72,-70.55"/>
<polygon fill="#63b8ff" stroke="#63b8ff" points="766.75,-67.04 756.48,-69.62 766.12,-74.01 766.75,-67.04"/>
</g>
<!-- Node24&#45;&gt;Node9 -->
<g id="edge44" class="edge">
<title>Node24&#45;&gt;Node9</title>
<path fill="none" stroke="#63b8ff" d="M1268.04,-109.84C1216.22,-90.68 1091.71,-44.63 1032.2,-22.62"/>
<polygon fill="#63b8ff" stroke="#63b8ff" points="1033.14,-19.23 1022.55,-19.05 1030.71,-25.8 1033.14,-19.23"/>
</g>
<!-- Node24&#45;&gt;Node10 -->
<g id="edge45" class="edge">
<title>Node24&#45;&gt;Node10</title>
<path fill="none" stroke="#63b8ff" d="M1267.11,-109.85C1247.47,-102.19 1219.71,-89.79 1198.44,-74 1180.54,-60.72 1163.79,-41.33 1152.94,-27.48"/>
<polygon fill="#63b8ff" stroke="#63b8ff" points="1155.55,-25.13 1146.7,-19.29 1149.98,-29.37 1155.55,-25.13"/>
</g>
<!-- Node25 -->
<g id="node25" class="node">
<title>Node25</title>
<g id="a_node25"><a xlink:href="serialized_8h.html" target="_top" xlink:title=" ">
<polygon fill="white" stroke="#666666" points="1490.94,-74 1417.94,-74 1417.94,-55 1490.94,-55 1490.94,-74"/>
<text text-anchor="middle" x="1454.44" y="-62" font-family="Helvetica,sans-Serif" font-size="10.00">serialized.h</text>
</a>
</g>
</g>
<!-- Node24&#45;&gt;Node25 -->
<g id="edge35" class="edge">
<title>Node24&#45;&gt;Node25</title>
<path fill="none" stroke="#63b8ff" d="M1317.63,-109.98C1344.87,-101.13 1387.74,-87.19 1418.22,-77.28"/>
<polygon fill="#63b8ff" stroke="#63b8ff" points="1419.62,-80.5 1428.04,-74.08 1417.45,-73.85 1419.62,-80.5"/>
</g>
<!-- Node28 -->
<g id="node28" class="node">
<title>Node28</title>
<g id="a_node28"><a xlink:title=" ">
<polygon fill="#e0e0e0" stroke="#999999" points="1567.44,-74 1509.44,-74 1509.44,-55 1567.44,-55 1567.44,-74"/>
<text text-anchor="middle" x="1538.44" y="-62" font-family="Helvetica,sans-Serif" font-size="10.00">memory</text>
</a>
</g>
</g>
<!-- Node24&#45;&gt;Node28 -->
<g id="edge41" class="edge">
<title>Node24&#45;&gt;Node28</title>
<path fill="none" stroke="#63b8ff" d="M1326.59,-111.13C1366.2,-102.8 1432.75,-88.73 1499.55,-74.18"/>
<polygon fill="#63b8ff" stroke="#63b8ff" points="1500.37,-77.58 1509.4,-72.03 1498.88,-70.74 1500.37,-77.58"/>
</g>
<!-- Node24&#45;&gt;Node29 -->
<g id="edge42" class="edge">
<title>Node24&#45;&gt;Node29</title>
<path fill="none" stroke="#63b8ff" d="M1326.82,-114.48C1379.17,-108.21 1480.48,-94.82 1575.48,-73.96"/>
<polygon fill="#63b8ff" stroke="#63b8ff" points="1576.24,-77.37 1585.24,-71.78 1574.72,-70.54 1576.24,-77.37"/>
</g>
<!-- Node30 -->
<g id="node30" class="node">
<title>Node30</title>
<g id="a_node30"><a xlink:title=" ">
<polygon fill="#e0e0e0" stroke="#999999" points="1399.94,-74 1358.94,-74 1358.94,-55 1399.94,-55 1399.94,-74"/>
<text text-anchor="middle" x="1379.44" y="-62" font-family="Helvetica,sans-Serif" font-size="10.00">tuple</text>
</a>
</g>
</g>
<!-- Node24&#45;&gt;Node30 -->
<g id="edge43" class="edge">
<title>Node24&#45;&gt;Node30</title>
<path fill="none" stroke="#63b8ff" d="M1305.58,-109.98C1319.22,-101.77 1340.12,-89.18 1356.22,-79.49"/>
<polygon fill="#63b8ff" stroke="#63b8ff" points="1358.28,-82.33 1365.04,-74.17 1354.67,-76.33 1358.28,-82.33"/>
</g>
<!-- Node25&#45;&gt;Node7 -->
<g id="edge39" class="edge">
<title>Node25&#45;&gt;Node7</title>
<path fill="none" stroke="#63b8ff" d="M1417.67,-56.11C1414.89,-55.69 1412.12,-55.31 1409.44,-55 1050.34,-13.42 951.6,-74.46 590.6,-18.78"/>
<polygon fill="#63b8ff" stroke="#63b8ff" points="591.08,-15.32 580.66,-17.23 590,-22.23 591.08,-15.32"/>
</g>
<!-- Node25&#45;&gt;Node10 -->
<g id="edge40" class="edge">
<title>Node25&#45;&gt;Node10</title>
<path fill="none" stroke="#63b8ff" d="M1417.61,-56.47C1414.85,-55.97 1412.1,-55.47 1409.44,-55 1325.02,-40.05 1225.4,-23.98 1174.35,-15.86"/>
<polygon fill="#63b8ff" stroke="#63b8ff" points="1174.64,-12.36 1164.22,-14.25 1173.55,-19.27 1174.64,-12.36"/>
</g>
<!-- Node25&#45;&gt;Node22 -->
<g id="edge36" class="edge">
<title>Node25&#45;&gt;Node22</title>
<path fill="none" stroke="#63b8ff" d="M1434.51,-54.98C1414.39,-46.38 1383.06,-32.99 1360.03,-23.15"/>
<polygon fill="#63b8ff" stroke="#63b8ff" points="1361.29,-19.88 1350.72,-19.17 1358.54,-26.32 1361.29,-19.88"/>
</g>
<!-- Node26 -->
<g id="node26" class="node">
<title>Node26</title>
<g id="a_node26"><a xlink:title=" ">
<polygon fill="#e0e0e0" stroke="#999999" points="1451.44,-19 1401.44,-19 1401.44,0 1451.44,0 1451.44,-19"/>
<text text-anchor="middle" x="1426.44" y="-7" font-family="Helvetica,sans-Serif" font-size="10.00">cstring</text>
</a>
</g>
</g>
<!-- Node25&#45;&gt;Node26 -->
<g id="edge37" class="edge">
<title>Node25&#45;&gt;Node26</title>
<path fill="none" stroke="#63b8ff" d="M1449.81,-54.75C1445.98,-47.49 1440.41,-36.95 1435.67,-27.98"/>
<polygon fill="#63b8ff" stroke="#63b8ff" points="1438.74,-26.3 1430.98,-19.09 1432.55,-29.57 1438.74,-26.3"/>
</g>
<!-- Node27 -->
<g id="node27" class="node">
<title>Node27</title>
<g id="a_node27"><a xlink:title=" ">
<polygon fill="#e0e0e0" stroke="#999999" points="1534.94,-19 1469.94,-19 1469.94,0 1534.94,0 1534.94,-19"/>
<text text-anchor="middle" x="1502.44" y="-7" font-family="Helvetica,sans-Serif" font-size="10.00">stdexcept</text>
</a>
</g>
</g>
<!-- Node25&#45;&gt;Node27 -->
<g id="edge38" class="edge">
<title>Node25&#45;&gt;Node27</title>
<path fill="none" stroke="#63b8ff" d="M1462.36,-54.75C1469.28,-47.11 1479.5,-35.82 1487.89,-26.56"/>
<polygon fill="#63b8ff" stroke="#63b8ff" points="1490.54,-28.85 1494.66,-19.09 1485.35,-24.15 1490.54,-28.85"/>
</g>
</g>
</svg>
