<?xml version="1.0" encoding="UTF-8" standalone="no"?>
<!DOCTYPE svg PUBLIC "-//W3C//DTD SVG 1.1//EN"
 "http://www.w3.org/Graphics/SVG/1.1/DTD/svg11.dtd">
<!-- Generated by graphviz version 2.43.0 (0)
 -->
<!-- Title: include/ccf/common_endpoint_registry.h Pages: 1 -->
<!--zoomable 412 -->
<svg id="main" version="1.1" xmlns="http://www.w3.org/2000/svg" xmlns:xlink="http://www.w3.org/1999/xlink" xml:space="preserve" onload="init(evt)">
<style type="text/css"><![CDATA[
.edge:hover path { stroke: red; }
.edge:hover polygon { stroke: red; fill: red; }
]]></style>
<script type="text/javascript"><![CDATA[
var edges = document.getElementsByTagName('g');
if (edges && edges.length) {
  for (var i=0;i<edges.length;i++) {
    if (edges[i].id.substr(0,4)=='edge') {
      edges[i].setAttribute('class','edge');
    }
  }
}
]]></script>
        <defs>
                <circle id="rim" cx="0" cy="0" r="7"/>
                <circle id="rim2" cx="0" cy="0" r="3.5"/>
                <g id="zoomPlus">
                        <use xlink:href="#rim" fill="#404040">
                                <set attributeName="fill" to="#808080" begin="zoomplus.mouseover" end="zoomplus.mouseout"/>
                        </use>
                        <path d="M-4,0h8M0,-4v8" fill="none" stroke="white" stroke-width="1.5" pointer-events="none"/>
                </g>
                <g id="zoomMin">
                        <use xlink:href="#rim" fill="#404040">
                                <set attributeName="fill" to="#808080" begin="zoomminus.mouseover" end="zoomminus.mouseout"/>
                        </use>
                        <path d="M-4,0h8" fill="none" stroke="white" stroke-width="1.5" pointer-events="none"/>
                </g>
                <g id="dirArrow">
                        <path fill="none" stroke="white" stroke-width="1.5" d="M0,-3.0v7 M-2.5,-0.5L0,-3.0L2.5,-0.5"/>
                </g>
               <g id="resetDef">
                       <use xlink:href="#rim2" fill="#404040">
                               <set attributeName="fill" to="#808080" begin="reset.mouseover" end="reset.mouseout"/>
                       </use>
               </g>
        </defs>

<script type="text/javascript">
var viewWidth = 1815;
var viewHeight = 412;
var sectionId = 'dynsection-1';
</script>
<script xlink:href="svgpan.js"/>
<svg id="graph" class="graph">
<g id="viewport">
<title>include/ccf/common_endpoint_registry.h</title>
<!-- Node1 -->
<g id="node1" class="node">
<title>Node1</title>
<g id="a_node1"><a xlink:title=" ">
<polygon fill="#999999" stroke="#666666" points="501.5,-404 386.5,-404 386.5,-374 501.5,-374 501.5,-404"/>
<text text-anchor="start" x="394.5" y="-392" font-family="Helvetica,sans-Serif" font-size="10.00">include/ccf/common</text>
<text text-anchor="middle" x="444" y="-381" font-family="Helvetica,sans-Serif" font-size="10.00">_endpoint_registry.h</text>
</a>
</g>
</g>
<!-- Node2 -->
<g id="node2" class="node">
<title>Node2</title>
<g id="a_node2"><a xlink:href="app__interface_8h.html" target="_top" xlink:title=" ">
<polygon fill="white" stroke="#666666" points="981,-332.5 833,-332.5 833,-313.5 981,-313.5 981,-332.5"/>
<text text-anchor="middle" x="907" y="-320.5" font-family="Helvetica,sans-Serif" font-size="10.00">include/ccf/app_interface.h</text>
</a>
</g>
</g>
<!-- Node1&#45;&gt;Node2 -->
<g id="edge1" class="edge">
<title>Node1&#45;&gt;Node2</title>
<path fill="none" stroke="#63b8ff" d="M511.77,-378.63C601.55,-366.22 758.61,-344.51 845.25,-332.54"/>
<polygon fill="#63b8ff" stroke="#63b8ff" points="511.13,-375.19 501.7,-380.02 512.09,-382.12 511.13,-375.19"/>
</g>
<!-- Node8 -->
<g id="node8" class="node">
<title>Node8</title>
<g id="a_node8"><a xlink:href="external__executor__indexing_8h.html" target="_top" xlink:title=" ">
<polygon fill="white" stroke="#666666" points="575,-206 411,-206 411,-176 575,-176 575,-206"/>
<text text-anchor="start" x="419" y="-194" font-family="Helvetica,sans-Serif" font-size="10.00">src/apps/external_executor</text>
<text text-anchor="middle" x="493" y="-183" font-family="Helvetica,sans-Serif" font-size="10.00">/external_executor_indexing.h</text>
</a>
</g>
</g>
<!-- Node1&#45;&gt;Node8 -->
<g id="edge22" class="edge">
<title>Node1&#45;&gt;Node8</title>
<path fill="none" stroke="#63b8ff" d="M458.84,-365.15C463.5,-356.91 468.17,-347.33 471,-338 483.43,-296.99 472.58,-284.21 480,-242 482.14,-229.81 485.75,-216.23 488.63,-206.31"/>
<polygon fill="#63b8ff" stroke="#63b8ff" points="455.79,-363.42 453.67,-373.8 461.8,-367.01 455.79,-363.42"/>
</g>
<!-- Node19 -->
<g id="node19" class="node">
<title>Node19</title>
<g id="a_node19"><a xlink:href="common__endpoint__registry_8cpp.html" target="_top" xlink:title=" ">
<polygon fill="white" stroke="#666666" points="462,-338 334,-338 334,-308 462,-308 462,-338"/>
<text text-anchor="start" x="342" y="-326" font-family="Helvetica,sans-Serif" font-size="10.00">src/endpoints/common</text>
<text text-anchor="middle" x="398" y="-315" font-family="Helvetica,sans-Serif" font-size="10.00">_endpoint_registry.cpp</text>
</a>
</g>
</g>
<!-- Node1&#45;&gt;Node19 -->
<g id="edge23" class="edge">
<title>Node1&#45;&gt;Node19</title>
<path fill="none" stroke="#63b8ff" d="M427.85,-365.53C421.31,-356.43 413.95,-346.19 408.18,-338.16"/>
<polygon fill="#63b8ff" stroke="#63b8ff" points="425.11,-367.72 433.79,-373.8 430.8,-363.63 425.11,-367.72"/>
</g>
<!-- Node20 -->
<g id="node20" class="node">
<title>Node20</title>
<g id="a_node20"><a xlink:href="acme__challenge__frontend_8h.html" target="_top" xlink:title=" ">
<polygon fill="white" stroke="#666666" points="140,-338 0,-338 0,-308 140,-308 140,-338"/>
<text text-anchor="start" x="8" y="-326" font-family="Helvetica,sans-Serif" font-size="10.00">src/node/acme_challenge</text>
<text text-anchor="middle" x="70" y="-315" font-family="Helvetica,sans-Serif" font-size="10.00">_frontend.h</text>
</a>
</g>
</g>
<!-- Node1&#45;&gt;Node20 -->
<g id="edge24" class="edge">
<title>Node1&#45;&gt;Node20</title>
<path fill="none" stroke="#63b8ff" d="M376.25,-376.66C316.44,-366.62 226.9,-351.5 149,-338 146.12,-337.5 143.18,-336.99 140.21,-336.47"/>
<polygon fill="#63b8ff" stroke="#63b8ff" points="375.88,-380.15 386.32,-378.36 377.04,-373.25 375.88,-380.15"/>
</g>
<!-- Node24 -->
<g id="node24" class="node">
<title>Node24</title>
<g id="a_node24"><a xlink:href="member__frontend_8h.html" target="_top" xlink:title=" ">
<polygon fill="white" stroke="#666666" points="1478,-140 1358,-140 1358,-110 1478,-110 1478,-140"/>
<text text-anchor="start" x="1366" y="-128" font-family="Helvetica,sans-Serif" font-size="10.00">src/node/rpc/member</text>
<text text-anchor="middle" x="1418" y="-117" font-family="Helvetica,sans-Serif" font-size="10.00">_frontend.h</text>
</a>
</g>
</g>
<!-- Node1&#45;&gt;Node24 -->
<g id="edge31" class="edge">
<title>Node1&#45;&gt;Node24</title>
<path fill="none" stroke="#63b8ff" d="M511.76,-387.39C772.51,-384.33 1701,-366.84 1788,-272 1881.02,-170.61 1605.1,-138.6 1478.2,-129.4"/>
<polygon fill="#63b8ff" stroke="#63b8ff" points="511.63,-383.89 501.67,-387.5 511.71,-390.89 511.63,-383.89"/>
</g>
<!-- Node25 -->
<g id="node25" class="node">
<title>Node25</title>
<g id="a_node25"><a xlink:href="node__frontend_8h.html" target="_top" xlink:title=" ">
<polygon fill="white" stroke="#666666" points="316,-332.5 158,-332.5 158,-313.5 316,-313.5 316,-332.5"/>
<text text-anchor="middle" x="237" y="-320.5" font-family="Helvetica,sans-Serif" font-size="10.00">src/node/rpc/node_frontend.h</text>
</a>
</g>
</g>
<!-- Node1&#45;&gt;Node25 -->
<g id="edge33" class="edge">
<title>Node1&#45;&gt;Node25</title>
<path fill="none" stroke="#63b8ff" d="M388.92,-370.97C348.81,-358.57 296.16,-342.29 264.55,-332.52"/>
<polygon fill="#63b8ff" stroke="#63b8ff" points="387.99,-374.34 398.57,-373.95 390.05,-367.66 387.99,-374.34"/>
</g>
<!-- Node3 -->
<g id="node3" class="node">
<title>Node3</title>
<g id="a_node3"><a xlink:href="basic_8cpp.html" target="_top" xlink:title=" ">
<polygon fill="white" stroke="#666666" points="1484.5,-272 1371.5,-272 1371.5,-242 1484.5,-242 1484.5,-272"/>
<text text-anchor="start" x="1379.5" y="-260" font-family="Helvetica,sans-Serif" font-size="10.00">samples/apps/basic</text>
<text text-anchor="middle" x="1428" y="-249" font-family="Helvetica,sans-Serif" font-size="10.00">/basic.cpp</text>
</a>
</g>
</g>
<!-- Node2&#45;&gt;Node3 -->
<g id="edge2" class="edge">
<title>Node2&#45;&gt;Node3</title>
<path fill="none" stroke="#63b8ff" d="M991.44,-315.26C1083.04,-307.35 1233.43,-292.65 1362,-272 1365.01,-271.52 1368.08,-270.99 1371.19,-270.43"/>
<polygon fill="#63b8ff" stroke="#63b8ff" points="991.05,-311.78 981.39,-316.12 991.65,-318.75 991.05,-311.78"/>
</g>
<!-- Node4 -->
<g id="node4" class="node">
<title>Node4</title>
<g id="a_node4"><a xlink:href="logging_8cpp.html" target="_top" xlink:title=" ">
<polygon fill="white" stroke="#666666" points="1625.5,-272 1502.5,-272 1502.5,-242 1625.5,-242 1625.5,-272"/>
<text text-anchor="start" x="1510.5" y="-260" font-family="Helvetica,sans-Serif" font-size="10.00">samples/apps/logging</text>
<text text-anchor="middle" x="1564" y="-249" font-family="Helvetica,sans-Serif" font-size="10.00">/logging.cpp</text>
</a>
</g>
</g>
<!-- Node2&#45;&gt;Node4 -->
<g id="edge3" class="edge">
<title>Node2&#45;&gt;Node4</title>
<path fill="none" stroke="#63b8ff" d="M991.52,-317.79C1105.89,-311.42 1316.09,-297.29 1494,-272 1496.7,-271.62 1499.45,-271.2 1502.23,-270.75"/>
<polygon fill="#63b8ff" stroke="#63b8ff" points="991.23,-314.3 981.43,-318.35 991.61,-321.29 991.23,-314.3"/>
</g>
<!-- Node5 -->
<g id="node5" class="node">
<title>Node5</title>
<g id="a_node5"><a xlink:href="nobuiltins_8cpp.html" target="_top" xlink:title=" ">
<polygon fill="white" stroke="#666666" points="1778.5,-272 1643.5,-272 1643.5,-242 1778.5,-242 1778.5,-272"/>
<text text-anchor="start" x="1651.5" y="-260" font-family="Helvetica,sans-Serif" font-size="10.00">samples/apps/nobuiltins</text>
<text text-anchor="middle" x="1711" y="-249" font-family="Helvetica,sans-Serif" font-size="10.00">/nobuiltins.cpp</text>
</a>
</g>
</g>
<!-- Node2&#45;&gt;Node5 -->
<g id="edge4" class="edge">
<title>Node2&#45;&gt;Node5</title>
<path fill="none" stroke="#63b8ff" d="M991.5,-319.31C1127.49,-314.29 1403.17,-301.22 1635,-272 1637.66,-271.66 1640.37,-271.3 1643.11,-270.9"/>
<polygon fill="#63b8ff" stroke="#63b8ff" points="991.02,-315.83 981.16,-319.69 991.28,-322.82 991.02,-315.83"/>
</g>
<!-- Node6 -->
<g id="node6" class="node">
<title>Node6</title>
<g id="a_node6"><a xlink:href="executor__auth__policy_8h.html" target="_top" xlink:title=" ">
<polygon fill="white" stroke="#666666" points="637,-272 489,-272 489,-242 637,-242 637,-272"/>
<text text-anchor="start" x="497" y="-260" font-family="Helvetica,sans-Serif" font-size="10.00">src/apps/external_executor</text>
<text text-anchor="middle" x="563" y="-249" font-family="Helvetica,sans-Serif" font-size="10.00">/executor_auth_policy.h</text>
</a>
</g>
</g>
<!-- Node2&#45;&gt;Node6 -->
<g id="edge5" class="edge">
<title>Node2&#45;&gt;Node6</title>
<path fill="none" stroke="#63b8ff" d="M850.84,-311.55C792.59,-300.71 701.21,-283.71 637.08,-271.78"/>
<polygon fill="#63b8ff" stroke="#63b8ff" points="850.49,-315.05 860.96,-313.44 851.77,-308.16 850.49,-315.05"/>
</g>
<!-- Node7 -->
<g id="node7" class="node">
<title>Node7</title>
<g id="a_node7"><a xlink:href="external__executor_8cpp.html" target="_top" xlink:title=" ">
<polygon fill="white" stroke="#666666" points="739,-140 591,-140 591,-110 739,-110 739,-140"/>
<text text-anchor="start" x="599" y="-128" font-family="Helvetica,sans-Serif" font-size="10.00">src/apps/external_executor</text>
<text text-anchor="middle" x="665" y="-117" font-family="Helvetica,sans-Serif" font-size="10.00">/external_executor.cpp</text>
</a>
</g>
</g>
<!-- Node2&#45;&gt;Node7 -->
<g id="edge10" class="edge">
<title>Node2&#45;&gt;Node7</title>
<path fill="none" stroke="#63b8ff" d="M822.71,-313.15C767.69,-305.55 702.73,-292.52 684,-272 650.23,-235 657.03,-169.07 662.08,-140.2"/>
<polygon fill="#63b8ff" stroke="#63b8ff" points="822.47,-316.65 832.85,-314.5 823.4,-309.71 822.47,-316.65"/>
</g>
<!-- Node10 -->
<g id="node10" class="node">
<title>Node10</title>
<g id="a_node10"><a xlink:href="js__generic_8cpp.html" target="_top" xlink:title=" ">
<polygon fill="white" stroke="#666666" points="822,-206 712,-206 712,-176 822,-176 822,-206"/>
<text text-anchor="start" x="720" y="-194" font-family="Helvetica,sans-Serif" font-size="10.00">src/apps/js_generic</text>
<text text-anchor="middle" x="767" y="-183" font-family="Helvetica,sans-Serif" font-size="10.00">/js_generic.cpp</text>
</a>
</g>
</g>
<!-- Node2&#45;&gt;Node10 -->
<g id="edge11" class="edge">
<title>Node2&#45;&gt;Node10</title>
<path fill="none" stroke="#63b8ff" d="M890.2,-306.4C862.7,-280.87 808.53,-230.56 782.15,-206.07"/>
<polygon fill="#63b8ff" stroke="#63b8ff" points="888.1,-309.23 897.81,-313.47 892.87,-304.1 888.1,-309.23"/>
</g>
<!-- Node11 -->
<g id="node11" class="node">
<title>Node11</title>
<g id="a_node11"><a xlink:href="js__generic__base_8cpp.html" target="_top" xlink:title=" ">
<polygon fill="white" stroke="#666666" points="1053,-272 935,-272 935,-242 1053,-242 1053,-272"/>
<text text-anchor="start" x="943" y="-260" font-family="Helvetica,sans-Serif" font-size="10.00">src/apps/js_generic</text>
<text text-anchor="middle" x="994" y="-249" font-family="Helvetica,sans-Serif" font-size="10.00">/js_generic_base.cpp</text>
</a>
</g>
</g>
<!-- Node2&#45;&gt;Node11 -->
<g id="edge12" class="edge">
<title>Node2&#45;&gt;Node11</title>
<path fill="none" stroke="#63b8ff" d="M926.96,-307.32C941.33,-296.74 960.62,-282.56 974.81,-272.12"/>
<polygon fill="#63b8ff" stroke="#63b8ff" points="924.71,-304.62 918.73,-313.37 928.86,-310.26 924.71,-304.62"/>
</g>
<!-- Node12 -->
<g id="node12" class="node">
<title>Node12</title>
<g id="a_node12"><a xlink:href="js__generic__base_8h.html" target="_top" xlink:title=" ">
<polygon fill="white" stroke="#666666" points="803,-272 693,-272 693,-242 803,-242 803,-272"/>
<text text-anchor="start" x="701" y="-260" font-family="Helvetica,sans-Serif" font-size="10.00">src/apps/js_generic</text>
<text text-anchor="middle" x="748" y="-249" font-family="Helvetica,sans-Serif" font-size="10.00">/js_generic_base.h</text>
</a>
</g>
</g>
<!-- Node2&#45;&gt;Node12 -->
<g id="edge13" class="edge">
<title>Node2&#45;&gt;Node12</title>
<path fill="none" stroke="#63b8ff" d="M875.96,-309.5C849.28,-298.77 810.85,-283.3 783.07,-272.12"/>
<polygon fill="#63b8ff" stroke="#63b8ff" points="874.97,-312.88 885.56,-313.37 877.59,-306.39 874.97,-312.88"/>
</g>
<!-- Node13 -->
<g id="node13" class="node">
<title>Node13</title>
<g id="a_node13"><a xlink:href="tpcc_8cpp.html" target="_top" xlink:title=" ">
<polygon fill="white" stroke="#666666" points="1216.5,-266.5 1071.5,-266.5 1071.5,-247.5 1216.5,-247.5 1216.5,-266.5"/>
<text text-anchor="middle" x="1144" y="-254.5" font-family="Helvetica,sans-Serif" font-size="10.00">src/apps/tpcc/app/tpcc.cpp</text>
</a>
</g>
</g>
<!-- Node2&#45;&gt;Node13 -->
<g id="edge15" class="edge">
<title>Node2&#45;&gt;Node13</title>
<path fill="none" stroke="#63b8ff" d="M948.76,-310.72C995.43,-298.12 1069.97,-277.99 1112.17,-266.6"/>
<polygon fill="#63b8ff" stroke="#63b8ff" points="947.7,-307.38 938.96,-313.37 949.53,-314.14 947.7,-307.38"/>
</g>
<!-- Node14 -->
<g id="node14" class="node">
<title>Node14</title>
<g id="a_node14"><a xlink:href="src_2enclave_2enclave_8h.html" target="_top" xlink:title=" ">
<polygon fill="white" stroke="#666666" points="430,-74 308,-74 308,-55 430,-55 430,-74"/>
<text text-anchor="middle" x="369" y="-62" font-family="Helvetica,sans-Serif" font-size="10.00">src/enclave/enclave.h</text>
</a>
</g>
</g>
<!-- Node2&#45;&gt;Node14 -->
<g id="edge16" class="edge">
<title>Node2&#45;&gt;Node14</title>
<path fill="none" stroke="#63b8ff" d="M900.36,-303.69C889.19,-274.52 864.53,-216.67 831,-176 801.02,-139.64 791.51,-128.11 748,-110 692.03,-86.71 522.41,-73.98 430.23,-68.61"/>
<polygon fill="#63b8ff" stroke="#63b8ff" points="897.2,-305.22 903.97,-313.36 903.76,-302.77 897.2,-305.22"/>
</g>
<!-- Node16 -->
<g id="node16" class="node">
<title>Node16</title>
<g id="a_node16"><a xlink:href="no__plugins_8cpp.html" target="_top" xlink:title=" ">
<polygon fill="white" stroke="#666666" points="1353,-266.5 1235,-266.5 1235,-247.5 1353,-247.5 1353,-266.5"/>
<text text-anchor="middle" x="1294" y="-254.5" font-family="Helvetica,sans-Serif" font-size="10.00">src/js/no_plugins.cpp</text>
</a>
</g>
</g>
<!-- Node2&#45;&gt;Node16 -->
<g id="edge18" class="edge">
<title>Node2&#45;&gt;Node16</title>
<path fill="none" stroke="#63b8ff" d="M976.91,-312.02C1041.65,-302.55 1140.52,-287.49 1226,-272 1235.13,-270.35 1244.92,-268.42 1254.15,-266.54"/>
<polygon fill="#63b8ff" stroke="#63b8ff" points="976.21,-308.58 966.82,-313.49 977.22,-315.51 976.21,-308.58"/>
</g>
<!-- Node18 -->
<g id="node18" class="node">
<title>Node18</title>
<g id="a_node18"><a xlink:href="user__frontend_8h.html" target="_top" xlink:title=" ">
<polygon fill="white" stroke="#666666" points="1052.5,-200.5 897.5,-200.5 897.5,-181.5 1052.5,-181.5 1052.5,-200.5"/>
<text text-anchor="middle" x="975" y="-188.5" font-family="Helvetica,sans-Serif" font-size="10.00">src/node/rpc/user_frontend.h</text>
</a>
</g>
</g>
<!-- Node2&#45;&gt;Node18 -->
<g id="edge20" class="edge">
<title>Node2&#45;&gt;Node18</title>
<path fill="none" stroke="#63b8ff" d="M908.64,-302.77C910.74,-285.88 915.46,-261.09 926,-242 935.4,-224.97 952.19,-209.7 963.46,-200.64"/>
<polygon fill="#63b8ff" stroke="#63b8ff" points="905.12,-302.73 907.56,-313.04 912.09,-303.46 905.12,-302.73"/>
</g>
<!-- Node6&#45;&gt;Node7 -->
<g id="edge6" class="edge">
<title>Node6&#45;&gt;Node7</title>
<path fill="none" stroke="#63b8ff" d="M580.42,-233.8C601.45,-206.99 636.21,-162.7 653.9,-140.14"/>
<polygon fill="#63b8ff" stroke="#63b8ff" points="577.53,-231.81 574.11,-241.84 583.04,-236.13 577.53,-231.81"/>
</g>
<!-- Node6&#45;&gt;Node8 -->
<g id="edge7" class="edge">
<title>Node6&#45;&gt;Node8</title>
<path fill="none" stroke="#63b8ff" d="M539.95,-234.92C529.63,-225.49 517.73,-214.61 508.49,-206.16"/>
<polygon fill="#63b8ff" stroke="#63b8ff" points="537.72,-237.63 547.46,-241.8 542.45,-232.47 537.72,-237.63"/>
</g>
<!-- Node8&#45;&gt;Node7 -->
<g id="edge8" class="edge">
<title>Node8&#45;&gt;Node7</title>
<path fill="none" stroke="#63b8ff" d="M540.15,-172.46C567.59,-162.25 601.71,-149.55 627.34,-140.01"/>
<polygon fill="#63b8ff" stroke="#63b8ff" points="538.9,-169.19 530.75,-175.95 541.34,-175.75 538.9,-169.19"/>
</g>
<!-- Node9 -->
<g id="node9" class="node">
<title>Node9</title>
<g id="a_node9"><a xlink:href="external__executor__indexing_8cpp.html" target="_top" xlink:title=" ">
<polygon fill="white" stroke="#666666" points="572.5,-140 397.5,-140 397.5,-110 572.5,-110 572.5,-140"/>
<text text-anchor="start" x="405.5" y="-128" font-family="Helvetica,sans-Serif" font-size="10.00">src/apps/external_executor</text>
<text text-anchor="middle" x="485" y="-117" font-family="Helvetica,sans-Serif" font-size="10.00">/external_executor_indexing.cpp</text>
</a>
</g>
</g>
<!-- Node8&#45;&gt;Node9 -->
<g id="edge9" class="edge">
<title>Node8&#45;&gt;Node9</title>
<path fill="none" stroke="#63b8ff" d="M489.98,-165.83C488.9,-157.17 487.71,-147.7 486.77,-140.16"/>
<polygon fill="#63b8ff" stroke="#63b8ff" points="486.51,-166.31 491.22,-175.8 493.46,-165.44 486.51,-166.31"/>
</g>
<!-- Node12&#45;&gt;Node10 -->
<g id="edge14" class="edge">
<title>Node12&#45;&gt;Node10</title>
<path fill="none" stroke="#63b8ff" d="M755.09,-232.11C757.69,-223.38 760.53,-213.78 762.8,-206.16"/>
<polygon fill="#63b8ff" stroke="#63b8ff" points="751.71,-231.21 752.22,-241.8 758.42,-233.21 751.71,-231.21"/>
</g>
<!-- Node15 -->
<g id="node15" class="node">
<title>Node15</title>
<g id="a_node15"><a xlink:href="enclave_2main_8cpp.html" target="_top" xlink:title=" ">
<polygon fill="white" stroke="#666666" points="429,-19 309,-19 309,0 429,0 429,-19"/>
<text text-anchor="middle" x="369" y="-7" font-family="Helvetica,sans-Serif" font-size="10.00">src/enclave/main.cpp</text>
</a>
</g>
</g>
<!-- Node14&#45;&gt;Node15 -->
<g id="edge17" class="edge">
<title>Node14&#45;&gt;Node15</title>
<path fill="none" stroke="#63b8ff" d="M369,-44.66C369,-35.93 369,-25.99 369,-19.09"/>
<polygon fill="#63b8ff" stroke="#63b8ff" points="365.5,-44.75 369,-54.75 372.5,-44.75 365.5,-44.75"/>
</g>
<!-- Node17 -->
<g id="node17" class="node">
<title>Node17</title>
<g id="a_node17"><a xlink:href="wrap_8cpp.html" target="_top" xlink:title=" ">
<polygon fill="white" stroke="#666666" points="1338.5,-200.5 1249.5,-200.5 1249.5,-181.5 1338.5,-181.5 1338.5,-200.5"/>
<text text-anchor="middle" x="1294" y="-188.5" font-family="Helvetica,sans-Serif" font-size="10.00">src/js/wrap.cpp</text>
</a>
</g>
</g>
<!-- Node16&#45;&gt;Node17 -->
<g id="edge19" class="edge">
<title>Node16&#45;&gt;Node17</title>
<path fill="none" stroke="#63b8ff" d="M1294,-237.08C1294,-225.13 1294,-210.22 1294,-200.91"/>
<polygon fill="#63b8ff" stroke="#63b8ff" points="1290.5,-237.37 1294,-247.37 1297.5,-237.37 1290.5,-237.37"/>
</g>
<!-- Node18&#45;&gt;Node14 -->
<g id="edge21" class="edge">
<title>Node18&#45;&gt;Node14</title>
<path fill="none" stroke="#63b8ff" d="M961.79,-173.43C945.51,-154.39 915.95,-123.97 883,-110 802.91,-76.04 548.42,-67.99 430.31,-66.09"/>
<polygon fill="#63b8ff" stroke="#63b8ff" points="959.21,-175.82 968.29,-181.28 964.6,-171.35 959.21,-175.82"/>
</g>
<!-- Node20&#45;&gt;Node14 -->
<g id="edge25" class="edge">
<title>Node20&#45;&gt;Node14</title>
<path fill="none" stroke="#63b8ff" d="M45.42,-300.27C38.04,-292.21 30.88,-282.47 27,-272 22.36,-259.5 22.12,-254.41 27,-242 56.38,-167.39 80.04,-149.19 150,-110 198.74,-82.7 261.94,-72.03 307.91,-67.92"/>
<polygon fill="#63b8ff" stroke="#63b8ff" points="43.26,-303.06 52.77,-307.73 48.24,-298.15 43.26,-303.06"/>
</g>
<!-- Node21 -->
<g id="node21" class="node">
<title>Node21</title>
<g id="a_node21"><a xlink:href="ccf__acme__client_8h.html" target="_top" xlink:title=" ">
<polygon fill="white" stroke="#666666" points="185.5,-266.5 36.5,-266.5 36.5,-247.5 185.5,-247.5 185.5,-266.5"/>
<text text-anchor="middle" x="111" y="-254.5" font-family="Helvetica,sans-Serif" font-size="10.00">src/node/ccf_acme_client.h</text>
</a>
</g>
</g>
<!-- Node20&#45;&gt;Node21 -->
<g id="edge26" class="edge">
<title>Node20&#45;&gt;Node21</title>
<path fill="none" stroke="#63b8ff" d="M84.56,-299.28C91.74,-288.07 99.99,-275.19 105.33,-266.84"/>
<polygon fill="#63b8ff" stroke="#63b8ff" points="81.55,-297.49 79.1,-307.8 87.44,-301.26 81.55,-297.49"/>
</g>
<!-- Node22 -->
<g id="node22" class="node">
<title>Node22</title>
<g id="a_node22"><a xlink:href="node__state_8h.html" target="_top" xlink:title=" ">
<polygon fill="white" stroke="#666666" points="316,-200.5 192,-200.5 192,-181.5 316,-181.5 316,-200.5"/>
<text text-anchor="middle" x="254" y="-188.5" font-family="Helvetica,sans-Serif" font-size="10.00">src/node/node_state.h</text>
</a>
</g>
</g>
<!-- Node21&#45;&gt;Node22 -->
<g id="edge27" class="edge">
<title>Node21&#45;&gt;Node22</title>
<path fill="none" stroke="#63b8ff" d="M139.61,-243.19C167.8,-230.58 210.08,-211.66 234.56,-200.7"/>
<polygon fill="#63b8ff" stroke="#63b8ff" points="137.98,-240.09 130.29,-247.37 140.84,-246.48 137.98,-240.09"/>
</g>
<!-- Node22&#45;&gt;Node14 -->
<g id="edge28" class="edge">
<title>Node22&#45;&gt;Node14</title>
<path fill="none" stroke="#63b8ff" d="M273.17,-175.15C284.92,-165.65 299.96,-152.76 312,-140 332.78,-117.97 353.46,-88.62 363.21,-74.22"/>
<polygon fill="#63b8ff" stroke="#63b8ff" points="270.94,-172.45 265.29,-181.41 275.3,-177.93 270.94,-172.45"/>
</g>
<!-- Node23 -->
<g id="node23" class="node">
<title>Node23</title>
<g id="a_node23"><a xlink:href="gov__effects_8h.html" target="_top" xlink:title=" ">
<polygon fill="white" stroke="#666666" points="303,-134.5 159,-134.5 159,-115.5 303,-115.5 303,-134.5"/>
<text text-anchor="middle" x="231" y="-122.5" font-family="Helvetica,sans-Serif" font-size="10.00">src/node/rpc/gov_effects.h</text>
</a>
</g>
</g>
<!-- Node22&#45;&gt;Node23 -->
<g id="edge29" class="edge">
<title>Node22&#45;&gt;Node23</title>
<path fill="none" stroke="#63b8ff" d="M247.47,-171.82C243.13,-159.74 237.62,-144.41 234.2,-134.91"/>
<polygon fill="#63b8ff" stroke="#63b8ff" points="244.22,-173.14 250.9,-181.37 250.81,-170.77 244.22,-173.14"/>
</g>
<!-- Node23&#45;&gt;Node14 -->
<g id="edge30" class="edge">
<title>Node23&#45;&gt;Node14</title>
<path fill="none" stroke="#63b8ff" d="M260.29,-111.58C286.95,-100.28 325.6,-83.9 348.91,-74.02"/>
<polygon fill="#63b8ff" stroke="#63b8ff" points="258.91,-108.37 251.07,-115.49 261.64,-114.81 258.91,-108.37"/>
</g>
<!-- Node24&#45;&gt;Node14 -->
<g id="edge32" class="edge">
<title>Node24&#45;&gt;Node14</title>
<path fill="none" stroke="#63b8ff" d="M1347.76,-120.08C1153.78,-109.27 612.98,-79.11 430.23,-68.91"/>
<polygon fill="#63b8ff" stroke="#63b8ff" points="1347.65,-123.58 1357.83,-120.64 1348.04,-116.59 1347.65,-123.58"/>
</g>
<!-- Node25&#45;&gt;Node14 -->
<g id="edge34" class="edge">
<title>Node25&#45;&gt;Node14</title>
<path fill="none" stroke="#63b8ff" d="M281.65,-309.99C301.62,-302.34 323.63,-290.32 337,-272 383.19,-208.7 374.22,-105.21 370.28,-74.41"/>
<polygon fill="#63b8ff" stroke="#63b8ff" points="280.31,-306.75 272.06,-313.4 282.66,-313.34 280.31,-306.75"/>
</g>
<!-- Node26 -->
<g id="node26" class="node">
<title>Node26</title>
<g id="a_node26"><a xlink:href="jwt__key__auto__refresh_8h.html" target="_top" xlink:title=" ">
<polygon fill="white" stroke="#666666" points="328.5,-272 203.5,-272 203.5,-242 328.5,-242 328.5,-272"/>
<text text-anchor="start" x="211.5" y="-260" font-family="Helvetica,sans-Serif" font-size="10.00">src/node/jwt_key_auto</text>
<text text-anchor="middle" x="266" y="-249" font-family="Helvetica,sans-Serif" font-size="10.00">_refresh.h</text>
</a>
</g>
</g>
<!-- Node25&#45;&gt;Node26 -->
<g id="edge35" class="edge">
<title>Node25&#45;&gt;Node26</title>
<path fill="none" stroke="#63b8ff" d="M245.16,-303.98C249.7,-293.98 255.26,-281.71 259.49,-272.36"/>
<polygon fill="#63b8ff" stroke="#63b8ff" points="241.85,-302.82 240.91,-313.37 248.23,-305.7 241.85,-302.82"/>
</g>
<!-- Node26&#45;&gt;Node22 -->
<g id="edge36" class="edge">
<title>Node26&#45;&gt;Node22</title>
<path fill="none" stroke="#63b8ff" d="M261.49,-231.94C259.45,-221.06 257.16,-208.86 255.66,-200.84"/>
<polygon fill="#63b8ff" stroke="#63b8ff" points="258.05,-232.61 263.34,-241.8 264.93,-231.32 258.05,-232.61"/>
</g>
</g>
</svg>
        <g id="navigator" transform="translate(0 0)" fill="#404254">
                <rect fill="#f2f5e9" fill-opacity="0.5" stroke="#606060" stroke-width=".5" x="0" y="0" width="60" height="60"/>
                <use id="zoomplus" xlink:href="#zoomPlus" x="17" y="9" onmousedown="handleZoom(evt,'in')"/>
                <use id="zoomminus" xlink:href="#zoomMin" x="42" y="9" onmousedown="handleZoom(evt,'out')"/>
                <use id="reset" xlink:href="#resetDef" x="30" y="36" onmousedown="handleReset()"/>
                <g id="arrowUp" xlink:href="#dirArrow" transform="translate(30 24)" onmousedown="handlePan(0,-1)">
                  <use xlink:href="#rim" fill="#404040">
                        <set attributeName="fill" to="#808080" begin="arrowUp.mouseover" end="arrowUp.mouseout"/>
                  </use>
                  <path fill="none" stroke="white" stroke-width="1.5" d="M0,-3.0v7 M-2.5,-0.5L0,-3.0L2.5,-0.5"/>
                </g>
                <g id="arrowRight" xlink:href="#dirArrow" transform="rotate(90) translate(36 -43)" onmousedown="handlePan(1,0)">
                  <use xlink:href="#rim" fill="#404040">
                        <set attributeName="fill" to="#808080" begin="arrowRight.mouseover" end="arrowRight.mouseout"/>
                  </use>
                  <path fill="none" stroke="white" stroke-width="1.5" d="M0,-3.0v7 M-2.5,-0.5L0,-3.0L2.5,-0.5"/>
                </g>
                <g id="arrowDown" xlink:href="#dirArrow" transform="rotate(180) translate(-30 -48)" onmousedown="handlePan(0,1)">
                  <use xlink:href="#rim" fill="#404040">
                        <set attributeName="fill" to="#808080" begin="arrowDown.mouseover" end="arrowDown.mouseout"/>
                  </use>
                  <path fill="none" stroke="white" stroke-width="1.5" d="M0,-3.0v7 M-2.5,-0.5L0,-3.0L2.5,-0.5"/>
                </g>
                <g id="arrowLeft" xlink:href="#dirArrow" transform="rotate(270) translate(-36 17)" onmousedown="handlePan(-1,0)">
                  <use xlink:href="#rim" fill="#404040">
                        <set attributeName="fill" to="#808080" begin="arrowLeft.mouseover" end="arrowLeft.mouseout"/>
                  </use>
                  <path fill="none" stroke="white" stroke-width="1.5" d="M0,-3.0v7 M-2.5,-0.5L0,-3.0L2.5,-0.5"/>
                </g>
        </g>
        <svg viewBox="0 0 15 15" width="100%" height="30px" preserveAspectRatio="xMaxYMin meet">
         <g id="arrow_out" transform="scale(0.3 0.3)">
          <a xlink:href="common__endpoint__registry_8h__dep__incl_org.svg" target="_base">
           <rect id="button" ry="5" rx="5" y="6" x="6" height="38" width="38"
                fill="#f2f5e9" fill-opacity="0.5" stroke="#606060" stroke-width="1.0"/>
           <path id="arrow"
             d="M 11.500037,31.436501 C 11.940474,20.09759 22.043105,11.32322 32.158766,21.979434 L 37.068811,17.246167 C 37.068811,17.246167 37.088388,32 37.088388,32 L 22.160133,31.978069 C 22.160133,31.978069 26.997745,27.140456 26.997745,27.140456 C 18.528582,18.264221 13.291696,25.230495 11.500037,31.436501 z"
             style="fill:#404040;"/>
          </a>
         </g>
        </svg>
</svg>
