<?xml version="1.0" encoding="UTF-8" standalone="no"?>
<!DOCTYPE svg PUBLIC "-//W3C//DTD SVG 1.1//EN"
 "http://www.w3.org/Graphics/SVG/1.1/DTD/svg11.dtd">
<!-- Generated by graphviz version 2.43.0 (0)
 -->
<!-- Title: src/common/configuration.h Pages: 1 -->
<!--zoomable 599 -->
<svg id="main" version="1.1" xmlns="http://www.w3.org/2000/svg" xmlns:xlink="http://www.w3.org/1999/xlink" xml:space="preserve" onload="init(evt)">
<style type="text/css"><![CDATA[
.edge:hover path { stroke: red; }
.edge:hover polygon { stroke: red; fill: red; }
]]></style>
<script type="text/javascript"><![CDATA[
var edges = document.getElementsByTagName('g');
if (edges && edges.length) {
  for (var i=0;i<edges.length;i++) {
    if (edges[i].id.substr(0,4)=='edge') {
      edges[i].setAttribute('class','edge');
    }
  }
}
]]></script>
        <defs>
                <circle id="rim" cx="0" cy="0" r="7"/>
                <circle id="rim2" cx="0" cy="0" r="3.5"/>
                <g id="zoomPlus">
                        <use xlink:href="#rim" fill="#404040">
                                <set attributeName="fill" to="#808080" begin="zoomplus.mouseover" end="zoomplus.mouseout"/>
                        </use>
                        <path d="M-4,0h8M0,-4v8" fill="none" stroke="white" stroke-width="1.5" pointer-events="none"/>
                </g>
                <g id="zoomMin">
                        <use xlink:href="#rim" fill="#404040">
                                <set attributeName="fill" to="#808080" begin="zoomminus.mouseover" end="zoomminus.mouseout"/>
                        </use>
                        <path d="M-4,0h8" fill="none" stroke="white" stroke-width="1.5" pointer-events="none"/>
                </g>
                <g id="dirArrow">
                        <path fill="none" stroke="white" stroke-width="1.5" d="M0,-3.0v7 M-2.5,-0.5L0,-3.0L2.5,-0.5"/>
                </g>
               <g id="resetDef">
                       <use xlink:href="#rim2" fill="#404040">
                               <set attributeName="fill" to="#808080" begin="reset.mouseover" end="reset.mouseout"/>
                       </use>
               </g>
        </defs>

<script type="text/javascript">
var viewWidth = 2322;
var viewHeight = 599;
var sectionId = 'dynsection-1';
</script>
<script xlink:href="svgpan.js"/>
<svg id="graph" class="graph">
<g id="viewport">
<title>src/common/configuration.h</title>
<!-- Node1 -->
<g id="node1" class="node">
<title>Node1</title>
<g id="a_node1"><a xlink:title=" ">
<polygon fill="#999999" stroke="#666666" points="1116,-591 964,-591 964,-572 1116,-572 1116,-591"/>
<text text-anchor="middle" x="1040" y="-579" font-family="Helvetica,sans-Serif" font-size="10.00">src/common/configuration.h</text>
</a>
</g>
</g>
<!-- Node2 -->
<g id="node2" class="node">
<title>Node2</title>
<g id="a_node2"><a xlink:href="host_2configuration_8h.html" target="_top" xlink:title=" ">
<polygon fill="white" stroke="#666666" points="453.5,-530.5 322.5,-530.5 322.5,-511.5 453.5,-511.5 453.5,-530.5"/>
<text text-anchor="middle" x="388" y="-518.5" font-family="Helvetica,sans-Serif" font-size="10.00">src/host/configuration.h</text>
</a>
</g>
</g>
<!-- Node1&#45;&gt;Node2 -->
<g id="edge1" class="edge">
<title>Node1&#45;&gt;Node2</title>
<path fill="none" stroke="#63b8ff" d="M953.67,-575.75C843.01,-569.19 645.31,-555.86 477,-536 464.26,-534.5 450.55,-532.52 437.8,-530.53"/>
<polygon fill="#63b8ff" stroke="#63b8ff" points="953.59,-579.25 963.78,-576.35 954,-572.26 953.59,-579.25"/>
</g>
<!-- Node4 -->
<g id="node4" class="node">
<title>Node4</title>
<g id="a_node4"><a xlink:href="frontend_8h.html" target="_top" xlink:title=" ">
<polygon fill="white" stroke="#666666" points="1507.5,-398.5 1378.5,-398.5 1378.5,-379.5 1507.5,-379.5 1507.5,-398.5"/>
<text text-anchor="middle" x="1443" y="-386.5" font-family="Helvetica,sans-Serif" font-size="10.00">src/node/rpc/frontend.h</text>
</a>
</g>
</g>
<!-- Node1&#45;&gt;Node4 -->
<g id="edge3" class="edge">
<title>Node1&#45;&gt;Node4</title>
<path fill="none" stroke="#63b8ff" d="M1126.53,-579.39C1195.69,-576.07 1294.1,-565.82 1375,-536 1425.66,-517.32 1451.2,-517.43 1477,-470 1490.56,-445.08 1465.87,-413.62 1451.79,-398.66"/>
<polygon fill="#63b8ff" stroke="#63b8ff" points="1125.95,-575.91 1116.12,-579.85 1126.26,-582.9 1125.95,-575.91"/>
</g>
<!-- Node15 -->
<g id="node15" class="node">
<title>Node15</title>
<g id="a_node15"><a xlink:href="node__call__types_8h.html" target="_top" xlink:title=" ">
<polygon fill="white" stroke="#666666" points="611.5,-536 486.5,-536 486.5,-506 611.5,-506 611.5,-536"/>
<text text-anchor="start" x="494.5" y="-524" font-family="Helvetica,sans-Serif" font-size="10.00">src/node/rpc/node_call</text>
<text text-anchor="middle" x="549" y="-513" font-family="Helvetica,sans-Serif" font-size="10.00">_types.h</text>
</a>
</g>
</g>
<!-- Node1&#45;&gt;Node15 -->
<g id="edge21" class="edge">
<title>Node1&#45;&gt;Node15</title>
<path fill="none" stroke="#63b8ff" d="M958.49,-570.79C860.96,-559.17 699.78,-539.96 611.53,-529.45"/>
<polygon fill="#63b8ff" stroke="#63b8ff" points="958.26,-574.29 968.6,-571.99 959.09,-567.34 958.26,-574.29"/>
</g>
<!-- Node20 -->
<g id="node20" class="node">
<title>Node20</title>
<g id="a_node20"><a xlink:href="node__interface_8h.html" target="_top" xlink:title=" ">
<polygon fill="white" stroke="#666666" points="1366.5,-530.5 1205.5,-530.5 1205.5,-511.5 1366.5,-511.5 1366.5,-530.5"/>
<text text-anchor="middle" x="1286" y="-518.5" font-family="Helvetica,sans-Serif" font-size="10.00">src/node/rpc/node_interface.h</text>
</a>
</g>
</g>
<!-- Node1&#45;&gt;Node20 -->
<g id="edge31" class="edge">
<title>Node1&#45;&gt;Node20</title>
<path fill="none" stroke="#63b8ff" d="M1085.8,-569.61C1133.34,-558.3 1206.71,-540.85 1250.19,-530.52"/>
<polygon fill="#63b8ff" stroke="#63b8ff" points="1084.69,-566.27 1075.77,-571.99 1086.31,-573.09 1084.69,-566.27"/>
</g>
<!-- Node3 -->
<g id="node3" class="node">
<title>Node3</title>
<g id="a_node3"><a xlink:href="host_2main_8cpp.html" target="_top" xlink:title=" ">
<polygon fill="white" stroke="#666666" points="177.5,-464.5 74.5,-464.5 74.5,-445.5 177.5,-445.5 177.5,-464.5"/>
<text text-anchor="middle" x="126" y="-452.5" font-family="Helvetica,sans-Serif" font-size="10.00">src/host/main.cpp</text>
</a>
</g>
</g>
<!-- Node2&#45;&gt;Node3 -->
<g id="edge2" class="edge">
<title>Node2&#45;&gt;Node3</title>
<path fill="none" stroke="#63b8ff" d="M343.06,-509.02C291.43,-496.41 207.81,-475.98 160.86,-464.51"/>
<polygon fill="#63b8ff" stroke="#63b8ff" points="342.39,-512.46 352.94,-511.44 344.05,-505.66 342.39,-512.46"/>
</g>
<!-- Node5 -->
<g id="node5" class="node">
<title>Node5</title>
<g id="a_node5"><a xlink:href="acme__challenge__frontend_8h.html" target="_top" xlink:title=" ">
<polygon fill="white" stroke="#666666" points="1910,-338 1770,-338 1770,-308 1910,-308 1910,-338"/>
<text text-anchor="start" x="1778" y="-326" font-family="Helvetica,sans-Serif" font-size="10.00">src/node/acme_challenge</text>
<text text-anchor="middle" x="1840" y="-315" font-family="Helvetica,sans-Serif" font-size="10.00">_frontend.h</text>
</a>
</g>
</g>
<!-- Node4&#45;&gt;Node5 -->
<g id="edge4" class="edge">
<title>Node4&#45;&gt;Node5</title>
<path fill="none" stroke="#63b8ff" d="M1496.41,-377.63C1503.33,-376.36 1510.33,-375.12 1517,-374 1625.1,-355.81 1652.8,-355.57 1761,-338 1763.89,-337.53 1766.83,-337.05 1769.81,-336.55"/>
<polygon fill="#63b8ff" stroke="#63b8ff" points="1495.58,-374.22 1486.38,-379.49 1496.85,-381.11 1495.58,-374.22"/>
</g>
<!-- Node9 -->
<g id="node9" class="node">
<title>Node9</title>
<g id="a_node9"><a xlink:href="node__state_8h.html" target="_top" xlink:title=" ">
<polygon fill="white" stroke="#666666" points="1598,-200.5 1474,-200.5 1474,-181.5 1598,-181.5 1598,-200.5"/>
<text text-anchor="middle" x="1536" y="-188.5" font-family="Helvetica,sans-Serif" font-size="10.00">src/node/node_state.h</text>
</a>
</g>
</g>
<!-- Node4&#45;&gt;Node9 -->
<g id="edge12" class="edge">
<title>Node4&#45;&gt;Node9</title>
<path fill="none" stroke="#63b8ff" d="M1457.53,-371.4C1464.59,-362.23 1472.33,-350.23 1476,-338 1488.32,-296.96 1447.52,-280.17 1467,-242 1477.02,-222.37 1498.75,-208.65 1515.17,-200.61"/>
<polygon fill="#63b8ff" stroke="#63b8ff" points="1454.73,-369.29 1451.12,-379.25 1460.16,-373.72 1454.73,-369.29"/>
</g>
<!-- Node11 -->
<g id="node11" class="node">
<title>Node11</title>
<g id="a_node11"><a xlink:href="member__frontend_8h.html" target="_top" xlink:title=" ">
<polygon fill="white" stroke="#666666" points="266,-338 146,-338 146,-308 266,-308 266,-338"/>
<text text-anchor="start" x="154" y="-326" font-family="Helvetica,sans-Serif" font-size="10.00">src/node/rpc/member</text>
<text text-anchor="middle" x="206" y="-315" font-family="Helvetica,sans-Serif" font-size="10.00">_frontend.h</text>
</a>
</g>
</g>
<!-- Node4&#45;&gt;Node11 -->
<g id="edge13" class="edge">
<title>Node4&#45;&gt;Node11</title>
<path fill="none" stroke="#63b8ff" d="M1367.89,-384.23C1203.97,-376 801.83,-355.71 465,-338 396.87,-334.42 318.67,-330.17 266.18,-327.3"/>
<polygon fill="#63b8ff" stroke="#63b8ff" points="1368.18,-387.75 1378.34,-384.76 1368.53,-380.76 1368.18,-387.75"/>
</g>
<!-- Node12 -->
<g id="node12" class="node">
<title>Node12</title>
<g id="a_node12"><a xlink:href="node__frontend_8h.html" target="_top" xlink:title=" ">
<polygon fill="white" stroke="#666666" points="1434,-332.5 1276,-332.5 1276,-313.5 1434,-313.5 1434,-332.5"/>
<text text-anchor="middle" x="1355" y="-320.5" font-family="Helvetica,sans-Serif" font-size="10.00">src/node/rpc/node_frontend.h</text>
</a>
</g>
</g>
<!-- Node4&#45;&gt;Node12 -->
<g id="edge15" class="edge">
<title>Node4&#45;&gt;Node12</title>
<path fill="none" stroke="#63b8ff" d="M1422.83,-373.33C1405.57,-360.78 1381.31,-343.13 1366.96,-332.7"/>
<polygon fill="#63b8ff" stroke="#63b8ff" points="1420.99,-376.32 1431.13,-379.37 1425.1,-370.66 1420.99,-376.32"/>
</g>
<!-- Node14 -->
<g id="node14" class="node">
<title>Node14</title>
<g id="a_node14"><a xlink:href="user__frontend_8h.html" target="_top" xlink:title=" ">
<polygon fill="white" stroke="#666666" points="1957.5,-200.5 1802.5,-200.5 1802.5,-181.5 1957.5,-181.5 1957.5,-200.5"/>
<text text-anchor="middle" x="1880" y="-188.5" font-family="Helvetica,sans-Serif" font-size="10.00">src/node/rpc/user_frontend.h</text>
</a>
</g>
</g>
<!-- Node4&#45;&gt;Node14 -->
<g id="edge19" class="edge">
<title>Node4&#45;&gt;Node14</title>
<path fill="none" stroke="#63b8ff" d="M1494.24,-377.63C1501.85,-376.29 1509.62,-375.03 1517,-374 1561.42,-367.82 1887.51,-369.93 1919,-338 1949,-307.58 1939.08,-281.97 1924,-242 1917.47,-224.69 1901.91,-209.49 1891.17,-200.52"/>
<polygon fill="#63b8ff" stroke="#63b8ff" points="1493.58,-374.2 1484.37,-379.44 1494.83,-381.08 1493.58,-374.2"/>
</g>
<!-- Node6 -->
<g id="node6" class="node">
<title>Node6</title>
<g id="a_node6"><a xlink:href="src_2enclave_2enclave_8h.html" target="_top" xlink:title=" ">
<polygon fill="white" stroke="#666666" points="1747,-74 1625,-74 1625,-55 1747,-55 1747,-74"/>
<text text-anchor="middle" x="1686" y="-62" font-family="Helvetica,sans-Serif" font-size="10.00">src/enclave/enclave.h</text>
</a>
</g>
</g>
<!-- Node5&#45;&gt;Node6 -->
<g id="edge5" class="edge">
<title>Node5&#45;&gt;Node6</title>
<path fill="none" stroke="#63b8ff" d="M1860.17,-299.88C1872.81,-283.21 1884.7,-260.18 1873,-242 1852.13,-209.55 1822.72,-231.77 1794,-206 1757.07,-172.86 1768.76,-148.12 1737,-110 1725.27,-95.92 1708.9,-82.47 1697.9,-74.12"/>
<polygon fill="#63b8ff" stroke="#63b8ff" points="1857.19,-297.99 1853.6,-307.96 1862.62,-302.4 1857.19,-297.99"/>
</g>
<!-- Node8 -->
<g id="node8" class="node">
<title>Node8</title>
<g id="a_node8"><a xlink:href="ccf__acme__client_8h.html" target="_top" xlink:title=" ">
<polygon fill="white" stroke="#666666" points="1844.5,-266.5 1695.5,-266.5 1695.5,-247.5 1844.5,-247.5 1844.5,-266.5"/>
<text text-anchor="middle" x="1770" y="-254.5" font-family="Helvetica,sans-Serif" font-size="10.00">src/node/ccf_acme_client.h</text>
</a>
</g>
</g>
<!-- Node5&#45;&gt;Node8 -->
<g id="edge7" class="edge">
<title>Node5&#45;&gt;Node8</title>
<path fill="none" stroke="#63b8ff" d="M1816.96,-300.93C1804.29,-289.35 1789.26,-275.61 1779.67,-266.84"/>
<polygon fill="#63b8ff" stroke="#63b8ff" points="1814.72,-303.63 1824.46,-307.8 1819.45,-298.47 1814.72,-303.63"/>
</g>
<!-- Node7 -->
<g id="node7" class="node">
<title>Node7</title>
<g id="a_node7"><a xlink:href="enclave_2main_8cpp.html" target="_top" xlink:title=" ">
<polygon fill="white" stroke="#666666" points="1746,-19 1626,-19 1626,0 1746,0 1746,-19"/>
<text text-anchor="middle" x="1686" y="-7" font-family="Helvetica,sans-Serif" font-size="10.00">src/enclave/main.cpp</text>
</a>
</g>
</g>
<!-- Node6&#45;&gt;Node7 -->
<g id="edge6" class="edge">
<title>Node6&#45;&gt;Node7</title>
<path fill="none" stroke="#63b8ff" d="M1686,-44.66C1686,-35.93 1686,-25.99 1686,-19.09"/>
<polygon fill="#63b8ff" stroke="#63b8ff" points="1682.5,-44.75 1686,-54.75 1689.5,-44.75 1682.5,-44.75"/>
</g>
<!-- Node8&#45;&gt;Node9 -->
<g id="edge8" class="edge">
<title>Node8&#45;&gt;Node9</title>
<path fill="none" stroke="#63b8ff" d="M1728.77,-244.72C1682.68,-232.12 1609.09,-211.99 1567.43,-200.6"/>
<polygon fill="#63b8ff" stroke="#63b8ff" points="1727.87,-248.11 1738.44,-247.37 1729.72,-241.35 1727.87,-248.11"/>
</g>
<!-- Node9&#45;&gt;Node6 -->
<g id="edge9" class="edge">
<title>Node9&#45;&gt;Node6</title>
<path fill="none" stroke="#63b8ff" d="M1535.55,-171.22C1536.13,-153.33 1539.8,-126.71 1555,-110 1572.94,-90.28 1599.95,-79.29 1624.8,-73.18"/>
<polygon fill="#63b8ff" stroke="#63b8ff" points="1532.04,-171.29 1535.51,-181.3 1539.04,-171.31 1532.04,-171.29"/>
</g>
<!-- Node10 -->
<g id="node10" class="node">
<title>Node10</title>
<g id="a_node10"><a xlink:href="gov__effects_8h.html" target="_top" xlink:title=" ">
<polygon fill="white" stroke="#666666" points="1708,-134.5 1564,-134.5 1564,-115.5 1708,-115.5 1708,-134.5"/>
<text text-anchor="middle" x="1636" y="-122.5" font-family="Helvetica,sans-Serif" font-size="10.00">src/node/rpc/gov_effects.h</text>
</a>
</g>
</g>
<!-- Node9&#45;&gt;Node10 -->
<g id="edge10" class="edge">
<title>Node9&#45;&gt;Node10</title>
<path fill="none" stroke="#63b8ff" d="M1558.11,-175.85C1577.77,-163.27 1605.88,-145.28 1622.41,-134.7"/>
<polygon fill="#63b8ff" stroke="#63b8ff" points="1556.02,-173.03 1549.49,-181.37 1559.8,-178.93 1556.02,-173.03"/>
</g>
<!-- Node10&#45;&gt;Node6 -->
<g id="edge11" class="edge">
<title>Node10&#45;&gt;Node6</title>
<path fill="none" stroke="#63b8ff" d="M1650.14,-107.45C1659.4,-96.62 1671.12,-82.91 1678.59,-74.17"/>
<polygon fill="#63b8ff" stroke="#63b8ff" points="1647.21,-105.49 1643.38,-115.37 1652.54,-110.04 1647.21,-105.49"/>
</g>
<!-- Node11&#45;&gt;Node6 -->
<g id="edge14" class="edge">
<title>Node11&#45;&gt;Node6</title>
<path fill="none" stroke="#63b8ff" d="M202.93,-297.97C198.7,-252.96 197.08,-156.33 253,-110 306.52,-65.66 1357.67,-64.82 1624.72,-65.32"/>
<polygon fill="#63b8ff" stroke="#63b8ff" points="199.46,-298.42 204,-307.99 206.42,-297.68 199.46,-298.42"/>
</g>
<!-- Node12&#45;&gt;Node6 -->
<g id="edge16" class="edge">
<title>Node12&#45;&gt;Node6</title>
<path fill="none" stroke="#63b8ff" d="M1301.18,-310.29C1280.59,-302.9 1259.15,-291.01 1247,-272 1239.82,-260.76 1239.79,-253.22 1247,-242 1329.82,-113.12 1524.96,-78.35 1624.81,-68.97"/>
<polygon fill="#63b8ff" stroke="#63b8ff" points="1300.26,-313.67 1310.86,-313.47 1302.45,-307.02 1300.26,-313.67"/>
</g>
<!-- Node13 -->
<g id="node13" class="node">
<title>Node13</title>
<g id="a_node13"><a xlink:href="jwt__key__auto__refresh_8h.html" target="_top" xlink:title=" ">
<polygon fill="white" stroke="#666666" points="1381.5,-272 1256.5,-272 1256.5,-242 1381.5,-242 1381.5,-272"/>
<text text-anchor="start" x="1264.5" y="-260" font-family="Helvetica,sans-Serif" font-size="10.00">src/node/jwt_key_auto</text>
<text text-anchor="middle" x="1319" y="-249" font-family="Helvetica,sans-Serif" font-size="10.00">_refresh.h</text>
</a>
</g>
</g>
<!-- Node12&#45;&gt;Node13 -->
<g id="edge17" class="edge">
<title>Node12&#45;&gt;Node13</title>
<path fill="none" stroke="#63b8ff" d="M1345.22,-304.61C1339.53,-294.5 1332.45,-281.91 1327.08,-272.36"/>
<polygon fill="#63b8ff" stroke="#63b8ff" points="1342.19,-306.37 1350.14,-313.37 1348.29,-302.94 1342.19,-306.37"/>
</g>
<!-- Node13&#45;&gt;Node9 -->
<g id="edge18" class="edge">
<title>Node13&#45;&gt;Node9</title>
<path fill="none" stroke="#63b8ff" d="M1376.47,-239.05C1418.56,-226.64 1473.91,-210.31 1507.12,-200.52"/>
<polygon fill="#63b8ff" stroke="#63b8ff" points="1375.22,-235.77 1366.62,-241.95 1377.2,-242.48 1375.22,-235.77"/>
</g>
<!-- Node14&#45;&gt;Node6 -->
<g id="edge20" class="edge">
<title>Node14&#45;&gt;Node6</title>
<path fill="none" stroke="#63b8ff" d="M1864.78,-174.13C1847.44,-156.71 1817.64,-128.73 1788,-110 1763.5,-94.52 1732.69,-81.9 1711.38,-74.11"/>
<polygon fill="#63b8ff" stroke="#63b8ff" points="1862.33,-176.63 1871.83,-181.32 1867.33,-171.73 1862.33,-176.63"/>
</g>
<!-- Node16 -->
<g id="node16" class="node">
<title>Node16</title>
<g id="a_node16"><a xlink:href="call__types_8h.html" target="_top" xlink:title=" ">
<polygon fill="white" stroke="#666666" points="371.5,-464.5 234.5,-464.5 234.5,-445.5 371.5,-445.5 371.5,-464.5"/>
<text text-anchor="middle" x="303" y="-452.5" font-family="Helvetica,sans-Serif" font-size="10.00">src/node/rpc/call_types.h</text>
</a>
</g>
</g>
<!-- Node15&#45;&gt;Node16 -->
<g id="edge22" class="edge">
<title>Node15&#45;&gt;Node16</title>
<path fill="none" stroke="#63b8ff" d="M485.05,-503.36C437.2,-490.91 373.71,-474.4 335.74,-464.52"/>
<polygon fill="#63b8ff" stroke="#63b8ff" points="484.46,-506.82 495.01,-505.95 486.22,-500.05 484.46,-506.82"/>
</g>
<!-- Node16&#45;&gt;Node11 -->
<g id="edge25" class="edge">
<title>Node16&#45;&gt;Node11</title>
<path fill="none" stroke="#63b8ff" d="M290.61,-437.4C271.34,-411.57 234.54,-362.25 216.5,-338.07"/>
<polygon fill="#63b8ff" stroke="#63b8ff" points="287.85,-439.55 296.64,-445.47 293.46,-435.36 287.85,-439.55"/>
</g>
<!-- Node17 -->
<g id="node17" class="node">
<title>Node17</title>
<g id="a_node17"><a xlink:href="common__endpoint__registry_8cpp.html" target="_top" xlink:title=" ">
<polygon fill="white" stroke="#666666" points="128,-338 0,-338 0,-308 128,-308 128,-338"/>
<text text-anchor="start" x="8" y="-326" font-family="Helvetica,sans-Serif" font-size="10.00">src/endpoints/common</text>
<text text-anchor="middle" x="64" y="-315" font-family="Helvetica,sans-Serif" font-size="10.00">_endpoint_registry.cpp</text>
</a>
</g>
</g>
<!-- Node16&#45;&gt;Node17 -->
<g id="edge23" class="edge">
<title>Node16&#45;&gt;Node17</title>
<path fill="none" stroke="#63b8ff" d="M278.44,-440.64C233.01,-415.93 136.25,-363.3 89.86,-338.07"/>
<polygon fill="#63b8ff" stroke="#63b8ff" points="276.86,-443.77 287.32,-445.47 280.21,-437.62 276.86,-443.77"/>
</g>
<!-- Node18 -->
<g id="node18" class="node">
<title>Node18</title>
<g id="a_node18"><a xlink:href="wrap_8cpp.html" target="_top" xlink:title=" ">
<polygon fill="white" stroke="#666666" points="696.5,-266.5 607.5,-266.5 607.5,-247.5 696.5,-247.5 696.5,-266.5"/>
<text text-anchor="middle" x="652" y="-254.5" font-family="Helvetica,sans-Serif" font-size="10.00">src/js/wrap.cpp</text>
</a>
</g>
</g>
<!-- Node16&#45;&gt;Node18 -->
<g id="edge24" class="edge">
<title>Node16&#45;&gt;Node18</title>
<path fill="none" stroke="#63b8ff" d="M296.95,-435.44C292.5,-418.1 289.08,-392.22 301,-374 335.22,-321.7 520.51,-281.84 607.21,-265.76"/>
<polygon fill="#63b8ff" stroke="#63b8ff" points="293.71,-436.82 299.87,-445.44 300.42,-434.86 293.71,-436.82"/>
</g>
<!-- Node19 -->
<g id="node19" class="node">
<title>Node19</title>
<g id="a_node19"><a xlink:href="serialization_8h.html" target="_top" xlink:title=" ">
<polygon fill="white" stroke="#666666" points="458,-398.5 310,-398.5 310,-379.5 458,-379.5 458,-398.5"/>
<text text-anchor="middle" x="384" y="-386.5" font-family="Helvetica,sans-Serif" font-size="10.00">src/node/rpc/serialization.h</text>
</a>
</g>
</g>
<!-- Node16&#45;&gt;Node19 -->
<g id="edge26" class="edge">
<title>Node16&#45;&gt;Node19</title>
<path fill="none" stroke="#63b8ff" d="M322,-438.99C337.86,-426.46 359.91,-409.04 372.99,-398.7"/>
<polygon fill="#63b8ff" stroke="#63b8ff" points="319.6,-436.42 313.92,-445.37 323.94,-441.92 319.6,-436.42"/>
</g>
<!-- Node19&#45;&gt;Node9 -->
<g id="edge28" class="edge">
<title>Node19&#45;&gt;Node9</title>
<path fill="none" stroke="#63b8ff" d="M395.23,-370.75C407.45,-353.08 428.41,-325.76 452,-308 508.89,-265.16 528.81,-258.85 598,-242 764.86,-201.36 1292.11,-193.75 1473.77,-192.33"/>
<polygon fill="#63b8ff" stroke="#63b8ff" points="392.06,-369.2 389.38,-379.45 397.87,-373.1 392.06,-369.2"/>
</g>
<!-- Node19&#45;&gt;Node11 -->
<g id="edge29" class="edge">
<title>Node19&#45;&gt;Node11</title>
<path fill="none" stroke="#63b8ff" d="M350.42,-375.93C320.53,-365.18 276.77,-349.44 245.26,-338.12"/>
<polygon fill="#63b8ff" stroke="#63b8ff" points="349.4,-379.28 359.99,-379.37 351.77,-372.69 349.4,-379.28"/>
</g>
<!-- Node19&#45;&gt;Node12 -->
<g id="edge30" class="edge">
<title>Node19&#45;&gt;Node12</title>
<path fill="none" stroke="#63b8ff" d="M468.33,-384.45C620.48,-377.73 950.95,-361.66 1229,-338 1246.87,-336.48 1266.14,-334.51 1284.09,-332.53"/>
<polygon fill="#63b8ff" stroke="#63b8ff" points="467.96,-380.96 458.13,-384.9 468.27,-387.96 467.96,-380.96"/>
</g>
<!-- Node19&#45;&gt;Node17 -->
<g id="edge27" class="edge">
<title>Node19&#45;&gt;Node17</title>
<path fill="none" stroke="#63b8ff" d="M331.16,-377.43C275.48,-366.3 187.73,-348.75 128.12,-336.82"/>
<polygon fill="#63b8ff" stroke="#63b8ff" points="330.68,-380.91 341.18,-379.44 332.06,-374.04 330.68,-380.91"/>
</g>
<!-- Node20&#45;&gt;Node11 -->
<g id="edge65" class="edge">
<title>Node20&#45;&gt;Node11</title>
<path fill="none" stroke="#63b8ff" d="M1194.91,-518.86C944.24,-515.29 260.41,-502.61 225,-470 187.96,-435.89 196.67,-367.82 202.66,-338.25"/>
<polygon fill="#63b8ff" stroke="#63b8ff" points="1195.03,-522.36 1205.08,-519 1195.13,-515.36 1195.03,-522.36"/>
</g>
<!-- Node20&#45;&gt;Node12 -->
<g id="edge70" class="edge">
<title>Node20&#45;&gt;Node12</title>
<path fill="none" stroke="#63b8ff" d="M1289.43,-501.56C1292.7,-485.18 1298.14,-460.7 1305,-440 1318.73,-398.58 1341.33,-351.46 1350.71,-332.53"/>
<polygon fill="#63b8ff" stroke="#63b8ff" points="1285.98,-500.98 1287.52,-511.46 1292.85,-502.3 1285.98,-500.98"/>
</g>
<!-- Node20&#45;&gt;Node18 -->
<g id="edge32" class="edge">
<title>Node20&#45;&gt;Node18</title>
<path fill="none" stroke="#63b8ff" d="M1287.39,-501.14C1289.36,-458.99 1287.49,-356.99 1229,-308 1188.49,-274.06 825.32,-262.14 696.82,-258.97"/>
<polygon fill="#63b8ff" stroke="#63b8ff" points="1283.89,-501.16 1286.78,-511.35 1290.87,-501.58 1283.89,-501.16"/>
</g>
<!-- Node21 -->
<g id="node21" class="node">
<title>Node21</title>
<g id="a_node21"><a xlink:href="wrap_8h.html" target="_top" xlink:title=" ">
<polygon fill="white" stroke="#666666" points="863,-398.5 785,-398.5 785,-379.5 863,-379.5 863,-398.5"/>
<text text-anchor="middle" x="824" y="-386.5" font-family="Helvetica,sans-Serif" font-size="10.00">src/js/wrap.h</text>
</a>
</g>
</g>
<!-- Node20&#45;&gt;Node21 -->
<g id="edge33" class="edge">
<title>Node20&#45;&gt;Node21</title>
<path fill="none" stroke="#63b8ff" d="M1246.04,-508.76C1155.28,-483.22 935.24,-421.3 854.42,-398.56"/>
<polygon fill="#63b8ff" stroke="#63b8ff" points="1245.11,-512.13 1255.69,-511.47 1247.01,-505.39 1245.11,-512.13"/>
</g>
<!-- Node28 -->
<g id="node28" class="node">
<title>Node28</title>
<g id="a_node28"><a xlink:href="historical__queries_8h.html" target="_top" xlink:title=" ">
<polygon fill="white" stroke="#666666" points="385,-206 279,-206 279,-176 385,-176 385,-206"/>
<text text-anchor="start" x="287" y="-194" font-family="Helvetica,sans-Serif" font-size="10.00">src/node/historical</text>
<text text-anchor="middle" x="332" y="-183" font-family="Helvetica,sans-Serif" font-size="10.00">_queries.h</text>
</a>
</g>
</g>
<!-- Node20&#45;&gt;Node28 -->
<g id="edge49" class="edge">
<title>Node20&#45;&gt;Node28</title>
<path fill="none" stroke="#63b8ff" d="M1206.55,-510.2C1021.73,-486.24 569,-420.62 442,-338 389.59,-303.91 352.7,-235.83 338.48,-206.26"/>
<polygon fill="#63b8ff" stroke="#63b8ff" points="1206.11,-513.67 1216.48,-511.48 1207.01,-506.73 1206.11,-513.67"/>
</g>
<!-- Node30 -->
<g id="node30" class="node">
<title>Node30</title>
<g id="a_node30"><a xlink:href="node__configuration__subsystem_8h.html" target="_top" xlink:title=" ">
<polygon fill="white" stroke="#666666" points="1468,-470 1314,-470 1314,-440 1468,-440 1468,-470"/>
<text text-anchor="start" x="1322" y="-458" font-family="Helvetica,sans-Serif" font-size="10.00">src/node/node_configuration</text>
<text text-anchor="middle" x="1391" y="-447" font-family="Helvetica,sans-Serif" font-size="10.00">_subsystem.h</text>
</a>
</g>
</g>
<!-- Node20&#45;&gt;Node30 -->
<g id="edge53" class="edge">
<title>Node20&#45;&gt;Node30</title>
<path fill="none" stroke="#63b8ff" d="M1309.11,-505.91C1326.56,-495.28 1350.39,-480.75 1367.84,-470.12"/>
<polygon fill="#63b8ff" stroke="#63b8ff" points="1306.88,-503.18 1300.16,-511.37 1310.52,-509.15 1306.88,-503.18"/>
</g>
<!-- Node31 -->
<g id="node31" class="node">
<title>Node31</title>
<g id="a_node31"><a xlink:href="acme__subsystem_8h.html" target="_top" xlink:title=" ">
<polygon fill="white" stroke="#666666" points="2225.5,-200.5 2052.5,-200.5 2052.5,-181.5 2225.5,-181.5 2225.5,-200.5"/>
<text text-anchor="middle" x="2139" y="-188.5" font-family="Helvetica,sans-Serif" font-size="10.00">src/node/rpc/acme_subsystem.h</text>
</a>
</g>
</g>
<!-- Node20&#45;&gt;Node31 -->
<g id="edge55" class="edge">
<title>Node20&#45;&gt;Node31</title>
<path fill="none" stroke="#63b8ff" d="M1376.84,-514.89C1589.15,-501.74 2100,-462.56 2100,-390 2100,-390 2100,-390 2100,-322 2100,-274.4 2124.28,-220.98 2134.53,-200.56"/>
<polygon fill="#63b8ff" stroke="#63b8ff" points="1376.42,-511.41 1366.65,-515.52 1376.85,-518.4 1376.42,-511.41"/>
</g>
<!-- Node32 -->
<g id="node32" class="node">
<title>Node32</title>
<g id="a_node32"><a xlink:href="custom__protocol__subsystem_8h.html" target="_top" xlink:title=" ">
<polygon fill="white" stroke="#666666" points="1959.5,-404 1830.5,-404 1830.5,-374 1959.5,-374 1959.5,-404"/>
<text text-anchor="start" x="1838.5" y="-392" font-family="Helvetica,sans-Serif" font-size="10.00">src/node/rpc/custom</text>
<text text-anchor="middle" x="1895" y="-381" font-family="Helvetica,sans-Serif" font-size="10.00">_protocol_subsystem.h</text>
</a>
</g>
</g>
<!-- Node20&#45;&gt;Node32 -->
<g id="edge57" class="edge">
<title>Node20&#45;&gt;Node32</title>
<path fill="none" stroke="#63b8ff" d="M1376.68,-519.3C1468.91,-516.42 1615.06,-505.88 1736,-470 1788.14,-454.53 1843.74,-422.52 1873.4,-404.02"/>
<polygon fill="#63b8ff" stroke="#63b8ff" points="1376.43,-515.8 1366.54,-519.59 1376.64,-522.8 1376.43,-515.8"/>
</g>
<!-- Node35 -->
<g id="node35" class="node">
<title>Node35</title>
<g id="a_node35"><a xlink:href="network__identity__subsystem_8h.html" target="_top" xlink:title=" ">
<polygon fill="white" stroke="#666666" points="1726.5,-470 1599.5,-470 1599.5,-440 1726.5,-440 1726.5,-470"/>
<text text-anchor="start" x="1607.5" y="-458" font-family="Helvetica,sans-Serif" font-size="10.00">src/node/rpc/network</text>
<text text-anchor="middle" x="1663" y="-447" font-family="Helvetica,sans-Serif" font-size="10.00">_identity_subsystem.h</text>
</a>
</g>
</g>
<!-- Node20&#45;&gt;Node35 -->
<g id="edge66" class="edge">
<title>Node20&#45;&gt;Node35</title>
<path fill="none" stroke="#63b8ff" d="M1346.34,-509.76C1415.6,-498 1528.69,-478.8 1599.32,-466.81"/>
<polygon fill="#63b8ff" stroke="#63b8ff" points="1345.73,-506.31 1336.45,-511.44 1346.9,-513.21 1345.73,-506.31"/>
</g>
<!-- Node38 -->
<g id="node38" class="node">
<title>Node38</title>
<g id="a_node38"><a xlink:href="node__operation_8h.html" target="_top" xlink:title=" ">
<polygon fill="white" stroke="#666666" points="2314,-134.5 2150,-134.5 2150,-115.5 2314,-115.5 2314,-134.5"/>
<text text-anchor="middle" x="2232" y="-122.5" font-family="Helvetica,sans-Serif" font-size="10.00">src/node/rpc/node_operation.h</text>
</a>
</g>
</g>
<!-- Node20&#45;&gt;Node38 -->
<g id="edge71" class="edge">
<title>Node20&#45;&gt;Node38</title>
<path fill="none" stroke="#63b8ff" d="M1377,-517.24C1617.92,-508.74 2254,-477.97 2254,-390 2254,-390 2254,-390 2254,-256 2254,-209.76 2240.3,-155.55 2234.52,-134.74"/>
<polygon fill="#63b8ff" stroke="#63b8ff" points="1376.74,-513.75 1366.87,-517.6 1376.98,-520.75 1376.74,-513.75"/>
</g>
<!-- Node21&#45;&gt;Node6 -->
<g id="edge35" class="edge">
<title>Node21&#45;&gt;Node6</title>
<path fill="none" stroke="#63b8ff" d="M774.83,-384.95C678.61,-378.47 472.95,-361.96 452,-338 443.22,-327.96 444.77,-319.2 452,-308 581.71,-107.01 1393.47,-72.43 1624.64,-66.63"/>
<polygon fill="#63b8ff" stroke="#63b8ff" points="774.69,-388.45 784.9,-385.62 775.15,-381.46 774.69,-388.45"/>
</g>
<!-- Node21&#45;&gt;Node9 -->
<g id="edge46" class="edge">
<title>Node21&#45;&gt;Node9</title>
<path fill="none" stroke="#63b8ff" d="M873.67,-387.45C1013.26,-385.45 1401.61,-376.42 1443,-338 1474.65,-308.62 1434.41,-278.17 1458,-242 1471,-222.06 1495.04,-208.46 1513.01,-200.54"/>
<polygon fill="#63b8ff" stroke="#63b8ff" points="873.23,-383.96 863.28,-387.6 873.33,-390.96 873.23,-383.96"/>
</g>
<!-- Node21&#45;&gt;Node11 -->
<g id="edge47" class="edge">
<title>Node21&#45;&gt;Node11</title>
<path fill="none" stroke="#63b8ff" d="M774.86,-382.91C662.8,-371.31 388.62,-342.91 266.45,-330.26"/>
<polygon fill="#63b8ff" stroke="#63b8ff" points="774.57,-386.4 784.87,-383.95 775.29,-379.44 774.57,-386.4"/>
</g>
<!-- Node21&#45;&gt;Node12 -->
<g id="edge48" class="edge">
<title>Node21&#45;&gt;Node12</title>
<path fill="none" stroke="#63b8ff" d="M873.19,-382.07C967.7,-370.68 1174.98,-345.7 1284.3,-332.52"/>
<polygon fill="#63b8ff" stroke="#63b8ff" points="872.56,-378.62 863.05,-383.29 873.39,-385.57 872.56,-378.62"/>
</g>
<!-- Node21&#45;&gt;Node18 -->
<g id="edge45" class="edge">
<title>Node21&#45;&gt;Node18</title>
<path fill="none" stroke="#63b8ff" d="M774.87,-388.73C686.13,-388.89 504.59,-383.49 465,-338 422,-288.59 539.5,-268.78 607.48,-261.62"/>
<polygon fill="#63b8ff" stroke="#63b8ff" points="774.98,-392.23 784.96,-388.69 774.95,-385.23 774.98,-392.23"/>
</g>
<!-- Node22 -->
<g id="node22" class="node">
<title>Node22</title>
<g id="a_node22"><a xlink:href="js__generic__base_8cpp.html" target="_top" xlink:title=" ">
<polygon fill="white" stroke="#666666" points="946,-338 828,-338 828,-308 946,-308 946,-338"/>
<text text-anchor="start" x="836" y="-326" font-family="Helvetica,sans-Serif" font-size="10.00">src/apps/js_generic</text>
<text text-anchor="middle" x="887" y="-315" font-family="Helvetica,sans-Serif" font-size="10.00">/js_generic_base.cpp</text>
</a>
</g>
</g>
<!-- Node21&#45;&gt;Node22 -->
<g id="edge34" class="edge">
<title>Node21&#45;&gt;Node22</title>
<path fill="none" stroke="#63b8ff" d="M839.6,-372.16C849.78,-361.81 862.98,-348.4 872.86,-338.36"/>
<polygon fill="#63b8ff" stroke="#63b8ff" points="837.02,-369.79 832.5,-379.37 842.01,-374.7 837.02,-369.79"/>
</g>
<!-- Node23 -->
<g id="node23" class="node">
<title>Node23</title>
<g id="a_node23"><a xlink:href="consensus_8cpp.html" target="_top" xlink:title=" ">
<polygon fill="white" stroke="#666666" points="590,-332.5 474,-332.5 474,-313.5 590,-313.5 590,-332.5"/>
<text text-anchor="middle" x="532" y="-320.5" font-family="Helvetica,sans-Serif" font-size="10.00">src/js/consensus.cpp</text>
</a>
</g>
</g>
<!-- Node21&#45;&gt;Node23 -->
<g id="edge36" class="edge">
<title>Node21&#45;&gt;Node23</title>
<path fill="none" stroke="#63b8ff" d="M774.99,-377.26C717.54,-364.67 623.5,-344.06 570.85,-332.51"/>
<polygon fill="#63b8ff" stroke="#63b8ff" points="774.41,-380.71 784.92,-379.44 775.9,-373.88 774.41,-380.71"/>
</g>
<!-- Node24 -->
<g id="node24" class="node">
<title>Node24</title>
<g id="a_node24"><a xlink:href="conv_8cpp.html" target="_top" xlink:title=" ">
<polygon fill="white" stroke="#666666" points="696,-332.5 608,-332.5 608,-313.5 696,-313.5 696,-332.5"/>
<text text-anchor="middle" x="652" y="-320.5" font-family="Helvetica,sans-Serif" font-size="10.00">src/js/conv.cpp</text>
</a>
</g>
</g>
<!-- Node21&#45;&gt;Node24 -->
<g id="edge38" class="edge">
<title>Node21&#45;&gt;Node24</title>
<path fill="none" stroke="#63b8ff" d="M791.32,-375.84C757.34,-363.2 705.02,-343.73 675.1,-332.6"/>
<polygon fill="#63b8ff" stroke="#63b8ff" points="790.21,-379.16 800.8,-379.37 792.65,-372.6 790.21,-379.16"/>
</g>
<!-- Node25 -->
<g id="node25" class="node">
<title>Node25</title>
<g id="a_node25"><a xlink:href="crypto_8cpp.html" target="_top" xlink:title=" ">
<polygon fill="white" stroke="#666666" points="810,-332.5 714,-332.5 714,-313.5 810,-313.5 810,-332.5"/>
<text text-anchor="middle" x="762" y="-320.5" font-family="Helvetica,sans-Serif" font-size="10.00">src/js/crypto.cpp</text>
</a>
</g>
</g>
<!-- Node21&#45;&gt;Node25 -->
<g id="edge40" class="edge">
<title>Node21&#45;&gt;Node25</title>
<path fill="none" stroke="#63b8ff" d="M808.48,-371.98C796.51,-359.62 780.4,-342.99 770.63,-332.91"/>
<polygon fill="#63b8ff" stroke="#63b8ff" points="806.17,-374.62 815.64,-379.37 811.19,-369.75 806.17,-374.62"/>
</g>
<!-- Node26 -->
<g id="node26" class="node">
<title>Node26</title>
<g id="a_node26"><a xlink:href="historical_8cpp.html" target="_top" xlink:title=" ">
<polygon fill="white" stroke="#666666" points="1074,-332.5 964,-332.5 964,-313.5 1074,-313.5 1074,-332.5"/>
<text text-anchor="middle" x="1019" y="-320.5" font-family="Helvetica,sans-Serif" font-size="10.00">src/js/historical.cpp</text>
</a>
</g>
</g>
<!-- Node21&#45;&gt;Node26 -->
<g id="edge42" class="edge">
<title>Node21&#45;&gt;Node26</title>
<path fill="none" stroke="#63b8ff" d="M860.07,-376.16C898.56,-363.53 958.6,-343.82 992.81,-332.6"/>
<polygon fill="#63b8ff" stroke="#63b8ff" points="858.71,-372.92 850.3,-379.37 860.89,-379.58 858.71,-372.92"/>
</g>
<!-- Node27 -->
<g id="node27" class="node">
<title>Node27</title>
<g id="a_node27"><a xlink:href="openenclave_8cpp.html" target="_top" xlink:title=" ">
<polygon fill="white" stroke="#666666" points="1220,-332.5 1092,-332.5 1092,-313.5 1220,-313.5 1220,-332.5"/>
<text text-anchor="middle" x="1156" y="-320.5" font-family="Helvetica,sans-Serif" font-size="10.00">src/js/openenclave.cpp</text>
</a>
</g>
</g>
<!-- Node21&#45;&gt;Node27 -->
<g id="edge44" class="edge">
<title>Node21&#45;&gt;Node27</title>
<path fill="none" stroke="#63b8ff" d="M872.98,-378.56C937.45,-366.13 1049.84,-344.46 1111.82,-332.52"/>
<polygon fill="#63b8ff" stroke="#63b8ff" points="872.22,-375.14 863.06,-380.47 873.54,-382.01 872.22,-375.14"/>
</g>
<!-- Node23&#45;&gt;Node18 -->
<g id="edge37" class="edge">
<title>Node23&#45;&gt;Node18</title>
<path fill="none" stroke="#63b8ff" d="M557.26,-308.53C580.9,-295.92 615.5,-277.47 635.69,-266.7"/>
<polygon fill="#63b8ff" stroke="#63b8ff" points="555.36,-305.57 548.18,-313.37 558.65,-311.75 555.36,-305.57"/>
</g>
<!-- Node24&#45;&gt;Node18 -->
<g id="edge39" class="edge">
<title>Node24&#45;&gt;Node18</title>
<path fill="none" stroke="#63b8ff" d="M652,-303.08C652,-291.13 652,-276.22 652,-266.91"/>
<polygon fill="#63b8ff" stroke="#63b8ff" points="648.5,-303.37 652,-313.37 655.5,-303.37 648.5,-303.37"/>
</g>
<!-- Node25&#45;&gt;Node18 -->
<g id="edge41" class="edge">
<title>Node25&#45;&gt;Node18</title>
<path fill="none" stroke="#63b8ff" d="M738.26,-308.19C716.62,-295.59 685.29,-277.37 666.95,-266.7"/>
<polygon fill="#63b8ff" stroke="#63b8ff" points="736.76,-311.36 747.16,-313.37 740.28,-305.31 736.76,-311.36"/>
</g>
<!-- Node26&#45;&gt;Node18 -->
<g id="edge43" class="edge">
<title>Node26&#45;&gt;Node18</title>
<path fill="none" stroke="#63b8ff" d="M971.57,-311.34C965.99,-310.17 960.38,-309.03 955,-308 863.5,-290.45 755.73,-273.56 696.54,-264.61"/>
<polygon fill="#63b8ff" stroke="#63b8ff" points="970.99,-314.79 981.5,-313.46 972.45,-307.95 970.99,-314.79"/>
</g>
<!-- Node28&#45;&gt;Node6 -->
<g id="edge50" class="edge">
<title>Node28&#45;&gt;Node6</title>
<path fill="none" stroke="#63b8ff" d="M296.94,-170.68C271.17,-154.13 243.73,-129.88 263,-110 287.04,-85.19 1354.92,-69.77 1624.63,-66.26"/>
<polygon fill="#63b8ff" stroke="#63b8ff" points="295.19,-173.72 305.54,-175.98 298.87,-167.76 295.19,-173.72"/>
</g>
<!-- Node29 -->
<g id="node29" class="node">
<title>Node29</title>
<g id="a_node29"><a xlink:href="historical__transaction__fetcher_8h.html" target="_top" xlink:title=" ">
<polygon fill="white" stroke="#666666" points="397.5,-140 272.5,-140 272.5,-110 397.5,-110 397.5,-140"/>
<text text-anchor="start" x="280.5" y="-128" font-family="Helvetica,sans-Serif" font-size="10.00">src/indexing/historical</text>
<text text-anchor="middle" x="335" y="-117" font-family="Helvetica,sans-Serif" font-size="10.00">_transaction_fetcher.h</text>
</a>
</g>
</g>
<!-- Node28&#45;&gt;Node29 -->
<g id="edge51" class="edge">
<title>Node28&#45;&gt;Node29</title>
<path fill="none" stroke="#63b8ff" d="M333.15,-165.54C333.55,-156.96 333.99,-147.61 334.34,-140.16"/>
<polygon fill="#63b8ff" stroke="#63b8ff" points="329.64,-165.64 332.67,-175.8 336.63,-165.97 329.64,-165.64"/>
</g>
<!-- Node29&#45;&gt;Node6 -->
<g id="edge52" class="edge">
<title>Node29&#45;&gt;Node6</title>
<path fill="none" stroke="#63b8ff" d="M407.53,-110.51C409.03,-110.33 410.52,-110.16 412,-110 651.43,-84.19 1404.46,-70.1 1624.84,-66.46"/>
<polygon fill="#63b8ff" stroke="#63b8ff" points="406.95,-107.06 397.5,-111.85 407.88,-114 406.95,-107.06"/>
</g>
<!-- Node30&#45;&gt;Node4 -->
<g id="edge54" class="edge">
<title>Node30&#45;&gt;Node4</title>
<path fill="none" stroke="#63b8ff" d="M1408.92,-431.94C1418.15,-420.58 1428.9,-407.36 1435.81,-398.84"/>
<polygon fill="#63b8ff" stroke="#63b8ff" points="1406.13,-429.83 1402.54,-439.8 1411.56,-434.24 1406.13,-429.83"/>
</g>
<!-- Node31&#45;&gt;Node6 -->
<g id="edge56" class="edge">
<title>Node31&#45;&gt;Node6</title>
<path fill="none" stroke="#63b8ff" d="M2124.29,-173.92C2106.04,-155.13 2073.03,-124.72 2038,-110 1986.89,-88.52 1833.63,-75.25 1747.14,-69.26"/>
<polygon fill="#63b8ff" stroke="#63b8ff" points="2121.96,-176.56 2131.38,-181.42 2127.05,-171.75 2121.96,-176.56"/>
</g>
<!-- Node32&#45;&gt;Node6 -->
<g id="edge58" class="edge">
<title>Node32&#45;&gt;Node6</title>
<path fill="none" stroke="#63b8ff" d="M1921.8,-367.22C1948.64,-343.84 1986,-303.19 1986,-258 1986,-258 1986,-258 1986,-190 1986,-87.51 1834.79,-67.79 1747.07,-64.98"/>
<polygon fill="#63b8ff" stroke="#63b8ff" points="1919.25,-364.79 1913.86,-373.9 1923.76,-370.14 1919.25,-364.79"/>
</g>
<!-- Node33 -->
<g id="node33" class="node">
<title>Node33</title>
<g id="a_node33"><a xlink:href="rpc__sessions_8h.html" target="_top" xlink:title=" ">
<polygon fill="white" stroke="#666666" points="1752,-332.5 1606,-332.5 1606,-313.5 1752,-313.5 1752,-332.5"/>
<text text-anchor="middle" x="1679" y="-320.5" font-family="Helvetica,sans-Serif" font-size="10.00">src/enclave/rpc_sessions.h</text>
</a>
</g>
</g>
<!-- Node32&#45;&gt;Node33 -->
<g id="edge59" class="edge">
<title>Node32&#45;&gt;Node33</title>
<path fill="none" stroke="#63b8ff" d="M1837.8,-371.05C1795.9,-358.64 1740.8,-342.31 1707.75,-332.52"/>
<polygon fill="#63b8ff" stroke="#63b8ff" points="1837.02,-374.47 1847.6,-373.95 1839,-367.76 1837.02,-374.47"/>
</g>
<!-- Node33&#45;&gt;Node6 -->
<g id="edge60" class="edge">
<title>Node33&#45;&gt;Node6</title>
<path fill="none" stroke="#63b8ff" d="M1727.79,-311.22C1776.81,-299.89 1846.21,-282.33 1854,-272 1901.48,-209.06 1781.52,-226.36 1760,-206 1726.04,-173.87 1740.02,-150.69 1717,-110 1709.58,-96.89 1699.33,-82.78 1692.68,-74.05"/>
<polygon fill="#63b8ff" stroke="#63b8ff" points="1726.94,-307.82 1717.97,-313.47 1728.5,-314.65 1726.94,-307.82"/>
</g>
<!-- Node33&#45;&gt;Node8 -->
<g id="edge61" class="edge">
<title>Node33&#45;&gt;Node8</title>
<path fill="none" stroke="#63b8ff" d="M1699.85,-307.33C1717.7,-294.78 1742.8,-277.13 1757.63,-266.7"/>
<polygon fill="#63b8ff" stroke="#63b8ff" points="1697.44,-304.75 1691.27,-313.37 1701.47,-310.48 1697.44,-304.75"/>
</g>
<!-- Node33&#45;&gt;Node9 -->
<g id="edge62" class="edge">
<title>Node33&#45;&gt;Node9</title>
<path fill="none" stroke="#63b8ff" d="M1676.27,-303.38C1672.77,-285.61 1665.11,-259.07 1649,-242 1628.83,-220.63 1597.88,-207.81 1573.47,-200.51"/>
<polygon fill="#63b8ff" stroke="#63b8ff" points="1672.84,-304.12 1677.98,-313.38 1679.74,-302.94 1672.84,-304.12"/>
</g>
<!-- Node34 -->
<g id="node34" class="node">
<title>Node34</title>
<g id="a_node34"><a xlink:href="quote__endorsements__client_8h.html" target="_top" xlink:title=" ">
<polygon fill="white" stroke="#666666" points="1640,-272 1476,-272 1476,-242 1640,-242 1640,-272"/>
<text text-anchor="start" x="1484" y="-260" font-family="Helvetica,sans-Serif" font-size="10.00">src/node/quote_endorsements</text>
<text text-anchor="middle" x="1558" y="-249" font-family="Helvetica,sans-Serif" font-size="10.00">_client.h</text>
</a>
</g>
</g>
<!-- Node33&#45;&gt;Node34 -->
<g id="edge63" class="edge">
<title>Node33&#45;&gt;Node34</title>
<path fill="none" stroke="#63b8ff" d="M1653.75,-308.64C1633.54,-297.95 1605.27,-283 1584.69,-272.12"/>
<polygon fill="#63b8ff" stroke="#63b8ff" points="1652.21,-311.79 1662.68,-313.37 1655.48,-305.6 1652.21,-311.79"/>
</g>
<!-- Node34&#45;&gt;Node9 -->
<g id="edge64" class="edge">
<title>Node34&#45;&gt;Node9</title>
<path fill="none" stroke="#63b8ff" d="M1549.85,-232.28C1546.07,-221.31 1541.82,-208.94 1539.04,-200.84"/>
<polygon fill="#63b8ff" stroke="#63b8ff" points="1546.56,-233.48 1553.12,-241.8 1553.18,-231.2 1546.56,-233.48"/>
</g>
<!-- Node35&#45;&gt;Node6 -->
<g id="edge68" class="edge">
<title>Node35&#45;&gt;Node6</title>
<path fill="none" stroke="#63b8ff" d="M1736.83,-448.6C1814.76,-441.74 1931.42,-427.83 1969,-404 2005.44,-380.89 2024,-367.15 2024,-324 2024,-324 2024,-324 2024,-190 2024,-147.1 2006.2,-133.01 1970,-110 1933.99,-87.11 1819.37,-74.94 1747.23,-69.39"/>
<polygon fill="#63b8ff" stroke="#63b8ff" points="1736.24,-445.13 1726.58,-449.48 1736.84,-452.11 1736.24,-445.13"/>
</g>
<!-- Node36 -->
<g id="node36" class="node">
<title>Node36</title>
<g id="a_node36"><a xlink:href="external__executor_8cpp.html" target="_top" xlink:title=" ">
<polygon fill="white" stroke="#666666" points="1812,-404 1664,-404 1664,-374 1812,-374 1812,-404"/>
<text text-anchor="start" x="1672" y="-392" font-family="Helvetica,sans-Serif" font-size="10.00">src/apps/external_executor</text>
<text text-anchor="middle" x="1738" y="-381" font-family="Helvetica,sans-Serif" font-size="10.00">/external_executor.cpp</text>
</a>
</g>
</g>
<!-- Node35&#45;&gt;Node36 -->
<g id="edge67" class="edge">
<title>Node35&#45;&gt;Node36</title>
<path fill="none" stroke="#63b8ff" d="M1687.37,-433.2C1698.51,-423.7 1711.41,-412.69 1721.4,-404.16"/>
<polygon fill="#63b8ff" stroke="#63b8ff" points="1684.98,-430.64 1679.64,-439.8 1689.52,-435.97 1684.98,-430.64"/>
</g>
<!-- Node37 -->
<g id="node37" class="node">
<title>Node37</title>
<g id="a_node37"><a xlink:href="historical__queries__adapter_8cpp.html" target="_top" xlink:title=" ">
<polygon fill="white" stroke="#666666" points="1646,-404 1526,-404 1526,-374 1646,-374 1646,-404"/>
<text text-anchor="start" x="1534" y="-392" font-family="Helvetica,sans-Serif" font-size="10.00">src/node/historical</text>
<text text-anchor="middle" x="1586" y="-381" font-family="Helvetica,sans-Serif" font-size="10.00">_queries_adapter.cpp</text>
</a>
</g>
</g>
<!-- Node35&#45;&gt;Node37 -->
<g id="edge69" class="edge">
<title>Node35&#45;&gt;Node37</title>
<path fill="none" stroke="#63b8ff" d="M1637.98,-433.2C1626.55,-423.7 1613.3,-412.69 1603.04,-404.16"/>
<polygon fill="#63b8ff" stroke="#63b8ff" points="1635.98,-436.1 1645.91,-439.8 1640.46,-430.71 1635.98,-436.1"/>
</g>
<!-- Node38&#45;&gt;Node6 -->
<g id="edge72" class="edge">
<title>Node38&#45;&gt;Node6</title>
<path fill="none" stroke="#63b8ff" d="M2151.52,-114.29C2138.96,-112.82 2126.13,-111.35 2114,-110 1983.51,-95.48 1830.47,-79.92 1747.34,-71.6"/>
<polygon fill="#63b8ff" stroke="#63b8ff" points="2151.17,-117.78 2161.51,-115.47 2151.99,-110.82 2151.17,-117.78"/>
</g>
</g>
</svg>
        <g id="navigator" transform="translate(0 0)" fill="#404254">
                <rect fill="#f2f5e9" fill-opacity="0.5" stroke="#606060" stroke-width=".5" x="0" y="0" width="60" height="60"/>
                <use id="zoomplus" xlink:href="#zoomPlus" x="17" y="9" onmousedown="handleZoom(evt,'in')"/>
                <use id="zoomminus" xlink:href="#zoomMin" x="42" y="9" onmousedown="handleZoom(evt,'out')"/>
                <use id="reset" xlink:href="#resetDef" x="30" y="36" onmousedown="handleReset()"/>
                <g id="arrowUp" xlink:href="#dirArrow" transform="translate(30 24)" onmousedown="handlePan(0,-1)">
                  <use xlink:href="#rim" fill="#404040">
                        <set attributeName="fill" to="#808080" begin="arrowUp.mouseover" end="arrowUp.mouseout"/>
                  </use>
                  <path fill="none" stroke="white" stroke-width="1.5" d="M0,-3.0v7 M-2.5,-0.5L0,-3.0L2.5,-0.5"/>
                </g>
                <g id="arrowRight" xlink:href="#dirArrow" transform="rotate(90) translate(36 -43)" onmousedown="handlePan(1,0)">
                  <use xlink:href="#rim" fill="#404040">
                        <set attributeName="fill" to="#808080" begin="arrowRight.mouseover" end="arrowRight.mouseout"/>
                  </use>
                  <path fill="none" stroke="white" stroke-width="1.5" d="M0,-3.0v7 M-2.5,-0.5L0,-3.0L2.5,-0.5"/>
                </g>
                <g id="arrowDown" xlink:href="#dirArrow" transform="rotate(180) translate(-30 -48)" onmousedown="handlePan(0,1)">
                  <use xlink:href="#rim" fill="#404040">
                        <set attributeName="fill" to="#808080" begin="arrowDown.mouseover" end="arrowDown.mouseout"/>
                  </use>
                  <path fill="none" stroke="white" stroke-width="1.5" d="M0,-3.0v7 M-2.5,-0.5L0,-3.0L2.5,-0.5"/>
                </g>
                <g id="arrowLeft" xlink:href="#dirArrow" transform="rotate(270) translate(-36 17)" onmousedown="handlePan(-1,0)">
                  <use xlink:href="#rim" fill="#404040">
                        <set attributeName="fill" to="#808080" begin="arrowLeft.mouseover" end="arrowLeft.mouseout"/>
                  </use>
                  <path fill="none" stroke="white" stroke-width="1.5" d="M0,-3.0v7 M-2.5,-0.5L0,-3.0L2.5,-0.5"/>
                </g>
        </g>
        <svg viewBox="0 0 15 15" width="100%" height="30px" preserveAspectRatio="xMaxYMin meet">
         <g id="arrow_out" transform="scale(0.3 0.3)">
          <a xlink:href="common_2configuration_8h__dep__incl_org.svg" target="_base">
           <rect id="button" ry="5" rx="5" y="6" x="6" height="38" width="38"
                fill="#f2f5e9" fill-opacity="0.5" stroke="#606060" stroke-width="1.0"/>
           <path id="arrow"
             d="M 11.500037,31.436501 C 11.940474,20.09759 22.043105,11.32322 32.158766,21.979434 L 37.068811,17.246167 C 37.068811,17.246167 37.088388,32 37.088388,32 L 22.160133,31.978069 C 22.160133,31.978069 26.997745,27.140456 26.997745,27.140456 C 18.528582,18.264221 13.291696,25.230495 11.500037,31.436501 z"
             style="fill:#404040;"/>
          </a>
         </g>
        </svg>
</svg>
