<?xml version="1.0" encoding="UTF-8" standalone="no"?>
<!DOCTYPE svg PUBLIC "-//W3C//DTD SVG 1.1//EN"
 "http://www.w3.org/Graphics/SVG/1.1/DTD/svg11.dtd">
<!-- Generated by graphviz version 2.43.0 (0)
 -->
<!-- Title: include/ccf/research/custom_protocol_subsystem_interface.h Pages: 1 -->
<svg width="452pt" height="456pt"
 viewBox="0.00 0.00 451.50 456.00" xmlns="http://www.w3.org/2000/svg" xmlns:xlink="http://www.w3.org/1999/xlink">
<g id="graph0" class="graph" transform="scale(1 1) rotate(0) translate(4 452)">
<title>include/ccf/research/custom_protocol_subsystem_interface.h</title>
<!-- Node1 -->
<g id="node1" class="node">
<title>Node1</title>
<g id="a_node1"><a xlink:title=" ">
<polygon fill="#999999" stroke="#666666" points="159,-448 0,-448 0,-407 159,-407 159,-448"/>
<text text-anchor="start" x="8" y="-436" font-family="Helvetica,sans-Serif" font-size="10.00">include/ccf/research</text>
<text text-anchor="start" x="8" y="-425" font-family="Helvetica,sans-Serif" font-size="10.00">/custom_protocol_subsystem</text>
<text text-anchor="middle" x="79.5" y="-414" font-family="Helvetica,sans-Serif" font-size="10.00">_interface.h</text>
</a>
</g>
</g>
<!-- Node2 -->
<g id="node2" class="node">
<title>Node2</title>
<g id="a_node2"><a xlink:href="custom__protocol__subsystem_8h.html" target="_top" xlink:title=" ">
<polygon fill="white" stroke="#666666" points="144,-371 15,-371 15,-341 144,-341 144,-371"/>
<text text-anchor="start" x="23" y="-359" font-family="Helvetica,sans-Serif" font-size="10.00">src/node/rpc/custom</text>
<text text-anchor="middle" x="79.5" y="-348" font-family="Helvetica,sans-Serif" font-size="10.00">_protocol_subsystem.h</text>
</a>
</g>
</g>
<!-- Node1&#45;&gt;Node2 -->
<g id="edge1" class="edge">
<title>Node1&#45;&gt;Node2</title>
<path fill="none" stroke="#63b8ff" d="M79.5,-396.66C79.5,-387.76 79.5,-378.42 79.5,-371.04"/>
<polygon fill="#63b8ff" stroke="#63b8ff" points="76,-396.77 79.5,-406.77 83,-396.77 76,-396.77"/>
</g>
<!-- Node3 -->
<g id="node3" class="node">
<title>Node3</title>
<g id="a_node3"><a xlink:href="src_2enclave_2enclave_8h.html" target="_top" xlink:title=" ">
<polygon fill="white" stroke="#666666" points="127.5,-74 5.5,-74 5.5,-55 127.5,-55 127.5,-74"/>
<text text-anchor="middle" x="66.5" y="-62" font-family="Helvetica,sans-Serif" font-size="10.00">src/enclave/enclave.h</text>
</a>
</g>
</g>
<!-- Node2&#45;&gt;Node3 -->
<g id="edge2" class="edge">
<title>Node2&#45;&gt;Node3</title>
<path fill="none" stroke="#63b8ff" d="M57.4,-333.58C36.89,-311.3 9.5,-274.38 9.5,-236 9.5,-236 9.5,-236 9.5,-173.5 9.5,-132.37 42.23,-91.56 58.09,-74.2"/>
<polygon fill="#63b8ff" stroke="#63b8ff" points="54.88,-336 64.31,-340.82 59.94,-331.17 54.88,-336"/>
</g>
<!-- Node5 -->
<g id="node5" class="node">
<title>Node5</title>
<g id="a_node5"><a xlink:href="rpc__sessions_8h.html" target="_top" xlink:title=" ">
<polygon fill="white" stroke="#666666" points="222.5,-305 76.5,-305 76.5,-286 222.5,-286 222.5,-305"/>
<text text-anchor="middle" x="149.5" y="-293" font-family="Helvetica,sans-Serif" font-size="10.00">src/enclave/rpc_sessions.h</text>
</a>
</g>
</g>
<!-- Node2&#45;&gt;Node5 -->
<g id="edge4" class="edge">
<title>Node2&#45;&gt;Node5</title>
<path fill="none" stroke="#63b8ff" d="M104.34,-334.24C116.24,-324.29 129.87,-312.91 139.01,-305.27"/>
<polygon fill="#63b8ff" stroke="#63b8ff" points="101.87,-331.74 96.45,-340.84 106.36,-337.11 101.87,-331.74"/>
</g>
<!-- Node4 -->
<g id="node4" class="node">
<title>Node4</title>
<g id="a_node4"><a xlink:href="enclave_2main_8cpp.html" target="_top" xlink:title=" ">
<polygon fill="white" stroke="#666666" points="126.5,-19 6.5,-19 6.5,0 126.5,0 126.5,-19"/>
<text text-anchor="middle" x="66.5" y="-7" font-family="Helvetica,sans-Serif" font-size="10.00">src/enclave/main.cpp</text>
</a>
</g>
</g>
<!-- Node3&#45;&gt;Node4 -->
<g id="edge3" class="edge">
<title>Node3&#45;&gt;Node4</title>
<path fill="none" stroke="#63b8ff" d="M66.5,-44.66C66.5,-35.93 66.5,-25.99 66.5,-19.09"/>
<polygon fill="#63b8ff" stroke="#63b8ff" points="63,-44.75 66.5,-54.75 70,-44.75 63,-44.75"/>
</g>
<!-- Node5&#45;&gt;Node3 -->
<g id="edge5" class="edge">
<title>Node5&#45;&gt;Node3</title>
<path fill="none" stroke="#63b8ff" d="M106.93,-282.05C91.41,-275.22 75.47,-264.99 66.5,-250 31.3,-191.18 54.95,-101.77 63.66,-74.02"/>
<polygon fill="#63b8ff" stroke="#63b8ff" points="105.9,-285.4 116.48,-285.87 108.5,-278.9 105.9,-285.4"/>
</g>
<!-- Node6 -->
<g id="node6" class="node">
<title>Node6</title>
<g id="a_node6"><a xlink:href="ccf__acme__client_8h.html" target="_top" xlink:title=" ">
<polygon fill="white" stroke="#666666" points="224,-244.5 75,-244.5 75,-225.5 224,-225.5 224,-244.5"/>
<text text-anchor="middle" x="149.5" y="-232.5" font-family="Helvetica,sans-Serif" font-size="10.00">src/node/ccf_acme_client.h</text>
</a>
</g>
</g>
<!-- Node5&#45;&gt;Node6 -->
<g id="edge6" class="edge">
<title>Node5&#45;&gt;Node6</title>
<path fill="none" stroke="#63b8ff" d="M149.5,-275.66C149.5,-265.24 149.5,-252.8 149.5,-244.67"/>
<polygon fill="#63b8ff" stroke="#63b8ff" points="146,-275.87 149.5,-285.87 153,-275.87 146,-275.87"/>
</g>
<!-- Node7 -->
<g id="node7" class="node">
<title>Node7</title>
<g id="a_node7"><a xlink:href="node__state_8h.html" target="_top" xlink:title=" ">
<polygon fill="white" stroke="#666666" points="247.5,-184 123.5,-184 123.5,-165 247.5,-165 247.5,-184"/>
<text text-anchor="middle" x="185.5" y="-172" font-family="Helvetica,sans-Serif" font-size="10.00">src/node/node_state.h</text>
</a>
</g>
</g>
<!-- Node5&#45;&gt;Node7 -->
<g id="edge11" class="edge">
<title>Node5&#45;&gt;Node7</title>
<path fill="none" stroke="#63b8ff" d="M192.56,-282.17C208.28,-275.35 224.41,-265.11 233.5,-250 240.38,-238.58 238.83,-232.22 233.5,-220 226.68,-204.38 211.37,-191.79 199.87,-184.04"/>
<polygon fill="#63b8ff" stroke="#63b8ff" points="190.92,-279.05 182.9,-285.98 193.49,-285.56 190.92,-279.05"/>
</g>
<!-- Node9 -->
<g id="node9" class="node">
<title>Node9</title>
<g id="a_node9"><a xlink:href="quote__endorsements__client_8h.html" target="_top" xlink:title=" ">
<polygon fill="white" stroke="#666666" points="443.5,-250 279.5,-250 279.5,-220 443.5,-220 443.5,-250"/>
<text text-anchor="start" x="287.5" y="-238" font-family="Helvetica,sans-Serif" font-size="10.00">src/node/quote_endorsements</text>
<text text-anchor="middle" x="361.5" y="-227" font-family="Helvetica,sans-Serif" font-size="10.00">_client.h</text>
</a>
</g>
</g>
<!-- Node5&#45;&gt;Node9 -->
<g id="edge12" class="edge">
<title>Node5&#45;&gt;Node9</title>
<path fill="none" stroke="#63b8ff" d="M190.01,-283.32C224.29,-273.86 273.58,-260.26 310.53,-250.06"/>
<polygon fill="#63b8ff" stroke="#63b8ff" points="189.04,-279.96 180.33,-285.99 190.9,-286.71 189.04,-279.96"/>
</g>
<!-- Node6&#45;&gt;Node7 -->
<g id="edge7" class="edge">
<title>Node6&#45;&gt;Node7</title>
<path fill="none" stroke="#63b8ff" d="M160.08,-216.8C166.68,-206.08 174.89,-192.73 180.17,-184.17"/>
<polygon fill="#63b8ff" stroke="#63b8ff" points="157.07,-215.02 154.81,-225.37 163.03,-218.69 157.07,-215.02"/>
</g>
<!-- Node7&#45;&gt;Node3 -->
<g id="edge8" class="edge">
<title>Node7&#45;&gt;Node3</title>
<path fill="none" stroke="#63b8ff" d="M153.31,-160.65C137.31,-153.13 118.47,-142.46 104.5,-129 87.66,-112.77 75.56,-87.52 69.97,-74.28"/>
<polygon fill="#63b8ff" stroke="#63b8ff" points="152.27,-164.02 162.83,-164.92 155.14,-157.63 152.27,-164.02"/>
</g>
<!-- Node8 -->
<g id="node8" class="node">
<title>Node8</title>
<g id="a_node8"><a xlink:href="gov__effects_8h.html" target="_top" xlink:title=" ">
<polygon fill="white" stroke="#666666" points="257.5,-129 113.5,-129 113.5,-110 257.5,-110 257.5,-129"/>
<text text-anchor="middle" x="185.5" y="-117" font-family="Helvetica,sans-Serif" font-size="10.00">src/node/rpc/gov_effects.h</text>
</a>
</g>
</g>
<!-- Node7&#45;&gt;Node8 -->
<g id="edge9" class="edge">
<title>Node7&#45;&gt;Node8</title>
<path fill="none" stroke="#63b8ff" d="M185.5,-154.66C185.5,-145.93 185.5,-135.99 185.5,-129.09"/>
<polygon fill="#63b8ff" stroke="#63b8ff" points="182,-154.75 185.5,-164.75 189,-154.75 182,-154.75"/>
</g>
<!-- Node8&#45;&gt;Node3 -->
<g id="edge10" class="edge">
<title>Node8&#45;&gt;Node3</title>
<path fill="none" stroke="#63b8ff" d="M157.2,-105.9C135.22,-96.11 105.32,-82.79 85.97,-74.17"/>
<polygon fill="#63b8ff" stroke="#63b8ff" points="155.82,-109.11 166.38,-109.98 158.67,-102.72 155.82,-109.11"/>
</g>
<!-- Node9&#45;&gt;Node7 -->
<g id="edge13" class="edge">
<title>Node9&#45;&gt;Node7</title>
<path fill="none" stroke="#63b8ff" d="M309.57,-216.74C277.2,-205.98 236.95,-192.6 211.23,-184.05"/>
<polygon fill="#63b8ff" stroke="#63b8ff" points="308.75,-220.15 319.34,-219.99 310.96,-213.51 308.75,-220.15"/>
</g>
</g>
</svg>
