<?xml version="1.0" encoding="UTF-8" standalone="no"?>
<!DOCTYPE svg PUBLIC "-//W3C//DTD SVG 1.1//EN"
 "http://www.w3.org/Graphics/SVG/1.1/DTD/svg11.dtd">
<!-- Generated by graphviz version 2.43.0 (0)
 -->
<!-- Title: src/node/rpc/custom_protocol_subsystem.h Pages: 1 -->
<svg width="446pt" height="379pt"
 viewBox="0.00 0.00 446.00 379.00" xmlns="http://www.w3.org/2000/svg" xmlns:xlink="http://www.w3.org/1999/xlink">
<g id="graph0" class="graph" transform="scale(1 1) rotate(0) translate(4 375)">
<title>src/node/rpc/custom_protocol_subsystem.h</title>
<!-- Node1 -->
<g id="node1" class="node">
<title>Node1</title>
<g id="a_node1"><a xlink:title=" ">
<polygon fill="#999999" stroke="#666666" points="138.5,-371 9.5,-371 9.5,-341 138.5,-341 138.5,-371"/>
<text text-anchor="start" x="17.5" y="-359" font-family="Helvetica,sans-Serif" font-size="10.00">src/node/rpc/custom</text>
<text text-anchor="middle" x="74" y="-348" font-family="Helvetica,sans-Serif" font-size="10.00">_protocol_subsystem.h</text>
</a>
</g>
</g>
<!-- Node2 -->
<g id="node2" class="node">
<title>Node2</title>
<g id="a_node2"><a xlink:href="src_2enclave_2enclave_8h.html" target="_top" xlink:title=" ">
<polygon fill="white" stroke="#666666" points="122,-74 0,-74 0,-55 122,-55 122,-74"/>
<text text-anchor="middle" x="61" y="-62" font-family="Helvetica,sans-Serif" font-size="10.00">src/enclave/enclave.h</text>
</a>
</g>
</g>
<!-- Node1&#45;&gt;Node2 -->
<g id="edge1" class="edge">
<title>Node1&#45;&gt;Node2</title>
<path fill="none" stroke="#63b8ff" d="M51.9,-333.58C31.39,-311.3 4,-274.38 4,-236 4,-236 4,-236 4,-173.5 4,-132.37 36.73,-91.56 52.59,-74.2"/>
<polygon fill="#63b8ff" stroke="#63b8ff" points="49.38,-336 58.81,-340.82 54.44,-331.17 49.38,-336"/>
</g>
<!-- Node4 -->
<g id="node4" class="node">
<title>Node4</title>
<g id="a_node4"><a xlink:href="rpc__sessions_8h.html" target="_top" xlink:title=" ">
<polygon fill="white" stroke="#666666" points="217,-305 71,-305 71,-286 217,-286 217,-305"/>
<text text-anchor="middle" x="144" y="-293" font-family="Helvetica,sans-Serif" font-size="10.00">src/enclave/rpc_sessions.h</text>
</a>
</g>
</g>
<!-- Node1&#45;&gt;Node4 -->
<g id="edge3" class="edge">
<title>Node1&#45;&gt;Node4</title>
<path fill="none" stroke="#63b8ff" d="M98.84,-334.24C110.74,-324.29 124.37,-312.91 133.51,-305.27"/>
<polygon fill="#63b8ff" stroke="#63b8ff" points="96.37,-331.74 90.95,-340.84 100.86,-337.11 96.37,-331.74"/>
</g>
<!-- Node3 -->
<g id="node3" class="node">
<title>Node3</title>
<g id="a_node3"><a xlink:href="enclave_2main_8cpp.html" target="_top" xlink:title=" ">
<polygon fill="white" stroke="#666666" points="121,-19 1,-19 1,0 121,0 121,-19"/>
<text text-anchor="middle" x="61" y="-7" font-family="Helvetica,sans-Serif" font-size="10.00">src/enclave/main.cpp</text>
</a>
</g>
</g>
<!-- Node2&#45;&gt;Node3 -->
<g id="edge2" class="edge">
<title>Node2&#45;&gt;Node3</title>
<path fill="none" stroke="#63b8ff" d="M61,-44.66C61,-35.93 61,-25.99 61,-19.09"/>
<polygon fill="#63b8ff" stroke="#63b8ff" points="57.5,-44.75 61,-54.75 64.5,-44.75 57.5,-44.75"/>
</g>
<!-- Node4&#45;&gt;Node2 -->
<g id="edge4" class="edge">
<title>Node4&#45;&gt;Node2</title>
<path fill="none" stroke="#63b8ff" d="M101.43,-282.05C85.91,-275.22 69.97,-264.99 61,-250 25.8,-191.18 49.45,-101.77 58.16,-74.02"/>
<polygon fill="#63b8ff" stroke="#63b8ff" points="100.4,-285.4 110.98,-285.87 103,-278.9 100.4,-285.4"/>
</g>
<!-- Node5 -->
<g id="node5" class="node">
<title>Node5</title>
<g id="a_node5"><a xlink:href="ccf__acme__client_8h.html" target="_top" xlink:title=" ">
<polygon fill="white" stroke="#666666" points="218.5,-244.5 69.5,-244.5 69.5,-225.5 218.5,-225.5 218.5,-244.5"/>
<text text-anchor="middle" x="144" y="-232.5" font-family="Helvetica,sans-Serif" font-size="10.00">src/node/ccf_acme_client.h</text>
</a>
</g>
</g>
<!-- Node4&#45;&gt;Node5 -->
<g id="edge5" class="edge">
<title>Node4&#45;&gt;Node5</title>
<path fill="none" stroke="#63b8ff" d="M144,-275.66C144,-265.24 144,-252.8 144,-244.67"/>
<polygon fill="#63b8ff" stroke="#63b8ff" points="140.5,-275.87 144,-285.87 147.5,-275.87 140.5,-275.87"/>
</g>
<!-- Node6 -->
<g id="node6" class="node">
<title>Node6</title>
<g id="a_node6"><a xlink:href="node__state_8h.html" target="_top" xlink:title=" ">
<polygon fill="white" stroke="#666666" points="242,-184 118,-184 118,-165 242,-165 242,-184"/>
<text text-anchor="middle" x="180" y="-172" font-family="Helvetica,sans-Serif" font-size="10.00">src/node/node_state.h</text>
</a>
</g>
</g>
<!-- Node4&#45;&gt;Node6 -->
<g id="edge10" class="edge">
<title>Node4&#45;&gt;Node6</title>
<path fill="none" stroke="#63b8ff" d="M187.06,-282.17C202.78,-275.35 218.91,-265.11 228,-250 234.88,-238.58 233.33,-232.22 228,-220 221.18,-204.38 205.87,-191.79 194.37,-184.04"/>
<polygon fill="#63b8ff" stroke="#63b8ff" points="185.42,-279.05 177.4,-285.98 187.99,-285.56 185.42,-279.05"/>
</g>
<!-- Node8 -->
<g id="node8" class="node">
<title>Node8</title>
<g id="a_node8"><a xlink:href="quote__endorsements__client_8h.html" target="_top" xlink:title=" ">
<polygon fill="white" stroke="#666666" points="438,-250 274,-250 274,-220 438,-220 438,-250"/>
<text text-anchor="start" x="282" y="-238" font-family="Helvetica,sans-Serif" font-size="10.00">src/node/quote_endorsements</text>
<text text-anchor="middle" x="356" y="-227" font-family="Helvetica,sans-Serif" font-size="10.00">_client.h</text>
</a>
</g>
</g>
<!-- Node4&#45;&gt;Node8 -->
<g id="edge11" class="edge">
<title>Node4&#45;&gt;Node8</title>
<path fill="none" stroke="#63b8ff" d="M184.51,-283.32C218.79,-273.86 268.08,-260.26 305.03,-250.06"/>
<polygon fill="#63b8ff" stroke="#63b8ff" points="183.54,-279.96 174.83,-285.99 185.4,-286.71 183.54,-279.96"/>
</g>
<!-- Node5&#45;&gt;Node6 -->
<g id="edge6" class="edge">
<title>Node5&#45;&gt;Node6</title>
<path fill="none" stroke="#63b8ff" d="M154.58,-216.8C161.18,-206.08 169.39,-192.73 174.67,-184.17"/>
<polygon fill="#63b8ff" stroke="#63b8ff" points="151.57,-215.02 149.31,-225.37 157.53,-218.69 151.57,-215.02"/>
</g>
<!-- Node6&#45;&gt;Node2 -->
<g id="edge7" class="edge">
<title>Node6&#45;&gt;Node2</title>
<path fill="none" stroke="#63b8ff" d="M147.81,-160.65C131.81,-153.13 112.97,-142.46 99,-129 82.16,-112.77 70.06,-87.52 64.47,-74.28"/>
<polygon fill="#63b8ff" stroke="#63b8ff" points="146.77,-164.02 157.33,-164.92 149.64,-157.63 146.77,-164.02"/>
</g>
<!-- Node7 -->
<g id="node7" class="node">
<title>Node7</title>
<g id="a_node7"><a xlink:href="gov__effects_8h.html" target="_top" xlink:title=" ">
<polygon fill="white" stroke="#666666" points="252,-129 108,-129 108,-110 252,-110 252,-129"/>
<text text-anchor="middle" x="180" y="-117" font-family="Helvetica,sans-Serif" font-size="10.00">src/node/rpc/gov_effects.h</text>
</a>
</g>
</g>
<!-- Node6&#45;&gt;Node7 -->
<g id="edge8" class="edge">
<title>Node6&#45;&gt;Node7</title>
<path fill="none" stroke="#63b8ff" d="M180,-154.66C180,-145.93 180,-135.99 180,-129.09"/>
<polygon fill="#63b8ff" stroke="#63b8ff" points="176.5,-154.75 180,-164.75 183.5,-154.75 176.5,-154.75"/>
</g>
<!-- Node7&#45;&gt;Node2 -->
<g id="edge9" class="edge">
<title>Node7&#45;&gt;Node2</title>
<path fill="none" stroke="#63b8ff" d="M151.7,-105.9C129.72,-96.11 99.82,-82.79 80.47,-74.17"/>
<polygon fill="#63b8ff" stroke="#63b8ff" points="150.32,-109.11 160.88,-109.98 153.17,-102.72 150.32,-109.11"/>
</g>
<!-- Node8&#45;&gt;Node6 -->
<g id="edge12" class="edge">
<title>Node8&#45;&gt;Node6</title>
<path fill="none" stroke="#63b8ff" d="M304.07,-216.74C271.7,-205.98 231.45,-192.6 205.73,-184.05"/>
<polygon fill="#63b8ff" stroke="#63b8ff" points="303.25,-220.15 313.84,-219.99 305.46,-213.51 303.25,-220.15"/>
</g>
</g>
</svg>
