<?xml version="1.0" encoding="UTF-8" standalone="no"?>
<!DOCTYPE svg PUBLIC "-//W3C//DTD SVG 1.1//EN"
 "http://www.w3.org/Graphics/SVG/1.1/DTD/svg11.dtd">
<!-- Generated by graphviz version 2.43.0 (0)
 -->
<!-- Title: samples/apps Pages: 1 -->
<svg width="311pt" height="125pt"
 viewBox="0.00 0.00 311.00 125.00" xmlns="http://www.w3.org/2000/svg" xmlns:xlink="http://www.w3.org/1999/xlink">
<g id="graph0" class="graph" transform="scale(1 1) rotate(0) translate(4 121)">
<title>samples/apps</title>
<g id="clust1" class="cluster">
<title>clusterdir_6f9635d4fbfa321d4c00f29df5cd540c</title>
<g id="a_clust1"><a xlink:href="dir_6f9635d4fbfa321d4c00f29df5cd540c.html" target="_top" xlink:title="samples">
<polygon fill="#edf0f7" stroke="#404040" stroke-dasharray="5,2" points="8,-39 8,-109 295,-109 295,-39 8,-39"/>
<text text-anchor="middle" x="151.5" y="-97" font-family="Helvetica,sans-Serif" font-size="10.00">samples</text>
</a>
</g>
</g>
<g id="clust2" class="cluster">
<title>clusterdir_d1de75ca768829a455e0479b9defe0bf</title>
<g id="a_clust2"><a xlink:href="dir_d1de75ca768829a455e0479b9defe0bf.html" target="_top">
<polygon fill="#edf0f7" stroke="#404040" stroke-width="2" points="16,-47 16,-82 287,-82 287,-47 16,-47"/>
</a>
</g>
</g>
<!-- dir_d1de75ca768829a455e0479b9defe0bf -->
<g id="node1" class="node">
<title>dir_d1de75ca768829a455e0479b9defe0bf</title>
<text text-anchor="middle" x="259" y="-62" font-family="Helvetica,sans-Serif" font-size="10.00">apps</text>
</g>
<!-- dir_ee4a273e5e7e5308469b9e53c7a3e4a0 -->
<g id="node2" class="node">
<title>dir_ee4a273e5e7e5308469b9e53c7a3e4a0</title>
<g id="a_node2"><a xlink:href="dir_ee4a273e5e7e5308469b9e53c7a3e4a0.html" target="_top" xlink:title="basic">
<polygon fill="#a2b4d6" stroke="#404040" points="221,-74 179,-74 179,-55 221,-55 221,-74"/>
<text text-anchor="middle" x="200" y="-62" font-family="Helvetica,sans-Serif" font-size="10.00">basic</text>
</a>
</g>
</g>
<!-- dir_d44c64559bbebec7f509842c48db8b23 -->
<g id="node5" class="node">
<title>dir_d44c64559bbebec7f509842c48db8b23</title>
<g id="a_node5"><a xlink:href="dir_d44c64559bbebec7f509842c48db8b23.html" target="_top" xlink:title="include">
<polygon fill="#edf0f7" stroke="red" points="160,-19 108,-19 108,0 160,0 160,-19"/>
<text text-anchor="middle" x="134" y="-7" font-family="Helvetica,sans-Serif" font-size="10.00">include</text>
</a>
</g>
</g>
<!-- dir_ee4a273e5e7e5308469b9e53c7a3e4a0&#45;&gt;dir_d44c64559bbebec7f509842c48db8b23 -->
<g id="edge1" class="edge">
<title>dir_ee4a273e5e7e5308469b9e53c7a3e4a0&#45;&gt;dir_d44c64559bbebec7f509842c48db8b23</title>
<path fill="none" stroke="#63b8ff" d="M189.48,-54.84C183.74,-50.14 176.5,-44.23 170,-39 164.54,-34.61 158.58,-29.87 153.11,-25.54"/>
<polygon fill="#63b8ff" stroke="#63b8ff" points="155.08,-22.64 145.06,-19.19 150.74,-28.13 155.08,-22.64"/>
<g id="a_edge1&#45;headlabel"><a xlink:href="dir_000006_000024.html" target="_top" xlink:title="5">
<text text-anchor="middle" x="159.66" y="-20.14" font-family="Helvetica,sans-Serif" font-size="10.00" fill="#63b8ff">5</text>
</a>
</g>
</g>
<!-- dir_c77e81b65094ae1cb4ca380a9fe244d9 -->
<g id="node3" class="node">
<title>dir_c77e81b65094ae1cb4ca380a9fe244d9</title>
<g id="a_node3"><a xlink:href="dir_c77e81b65094ae1cb4ca380a9fe244d9.html" target="_top" xlink:title="logging">
<polygon fill="#a2b4d6" stroke="#404040" points="160.5,-74 107.5,-74 107.5,-55 160.5,-55 160.5,-74"/>
<text text-anchor="middle" x="134" y="-62" font-family="Helvetica,sans-Serif" font-size="10.00">logging</text>
</a>
</g>
</g>
<!-- dir_c77e81b65094ae1cb4ca380a9fe244d9&#45;&gt;dir_d44c64559bbebec7f509842c48db8b23 -->
<g id="edge2" class="edge">
<title>dir_c77e81b65094ae1cb4ca380a9fe244d9&#45;&gt;dir_d44c64559bbebec7f509842c48db8b23</title>
<path fill="none" stroke="#63b8ff" d="M134,-54.75C134,-47.8 134,-37.85 134,-29.13"/>
<polygon fill="#63b8ff" stroke="#63b8ff" points="137.5,-29.09 134,-19.09 130.5,-29.09 137.5,-29.09"/>
<g id="a_edge2&#45;headlabel"><a xlink:href="dir_000031_000024.html" target="_top" xlink:title="11">
<text text-anchor="middle" x="140.34" y="-30.18" font-family="Helvetica,sans-Serif" font-size="10.00" fill="#63b8ff">11</text>
</a>
</g>
</g>
<!-- dir_e70a801a409ac3719a287aa713eb9647 -->
<g id="node4" class="node">
<title>dir_e70a801a409ac3719a287aa713eb9647</title>
<g id="a_node4"><a xlink:href="dir_e70a801a409ac3719a287aa713eb9647.html" target="_top" xlink:title="nobuiltins">
<polygon fill="#a2b4d6" stroke="#404040" points="89.5,-74 24.5,-74 24.5,-55 89.5,-55 89.5,-74"/>
<text text-anchor="middle" x="57" y="-62" font-family="Helvetica,sans-Serif" font-size="10.00">nobuiltins</text>
</a>
</g>
</g>
<!-- dir_e70a801a409ac3719a287aa713eb9647&#45;&gt;dir_d44c64559bbebec7f509842c48db8b23 -->
<g id="edge3" class="edge">
<title>dir_e70a801a409ac3719a287aa713eb9647&#45;&gt;dir_d44c64559bbebec7f509842c48db8b23</title>
<path fill="none" stroke="#63b8ff" d="M69.37,-54.98C81.09,-46.92 98.92,-34.65 112.89,-25.03"/>
<polygon fill="#63b8ff" stroke="#63b8ff" points="115.15,-27.72 121.4,-19.17 111.18,-21.96 115.15,-27.72"/>
<g id="a_edge3&#45;headlabel"><a xlink:href="dir_000032_000024.html" target="_top" xlink:title="6">
<text text-anchor="middle" x="113.8" y="-29.6" font-family="Helvetica,sans-Serif" font-size="10.00" fill="#63b8ff">6</text>
</a>
</g>
</g>
</g>
</svg>
