<?xml version="1.0" encoding="UTF-8" standalone="no"?>
<!DOCTYPE svg PUBLIC "-//W3C//DTD SVG 1.1//EN"
 "http://www.w3.org/Graphics/SVG/1.1/DTD/svg11.dtd">
<!-- Generated by graphviz version 2.43.0 (0)
 -->
<!-- Title: src/node/rpc Pages: 1 -->
<svg width="626pt" height="117pt"
 viewBox="0.00 0.00 626.00 117.00" xmlns="http://www.w3.org/2000/svg" xmlns:xlink="http://www.w3.org/1999/xlink">
<g id="graph0" class="graph" transform="scale(1 1) rotate(0) translate(4 113)">
<title>src/node/rpc</title>
<g id="clust1" class="cluster">
<title>clusterdir_18ae7af74d885898b85cbb543ae51b63</title>
<g id="a_clust1"><a xlink:href="dir_18ae7af74d885898b85cbb543ae51b63.html" target="_top" xlink:title="node">
<polygon fill="#edf0f7" stroke="#7f7f7f" stroke-dasharray="5,2" points="233.5,-47 233.5,-101 281.5,-101 281.5,-47 233.5,-47"/>
<text text-anchor="middle" x="257.5" y="-89" font-family="Helvetica,sans-Serif" font-size="10.00">node</text>
</a>
</g>
</g>
<!-- dir_188b878fa4ae0872503cd2ce8b484e62 -->
<g id="node1" class="node">
<title>dir_188b878fa4ae0872503cd2ce8b484e62</title>
<g id="a_node1"><a xlink:href="dir_188b878fa4ae0872503cd2ce8b484e62.html" target="_top" xlink:title="rpc">
<polygon fill="#edf0f7" stroke="#404040" stroke-width="2" points="273.5,-74 241.5,-74 241.5,-55 273.5,-55 273.5,-74"/>
<text text-anchor="middle" x="257.5" y="-62" font-family="Helvetica,sans-Serif" font-size="10.00">rpc</text>
</a>
</g>
</g>
<!-- dir_122f4add68bb94b3fee614989bbbd8f9 -->
<g id="node2" class="node">
<title>dir_122f4add68bb94b3fee614989bbbd8f9</title>
<g id="a_node2"><a xlink:href="dir_122f4add68bb94b3fee614989bbbd8f9.html" target="_top" xlink:title="ds">
<polygon fill="#edf0f7" stroke="#7f7f7f" points="29,-19 0,-19 0,0 29,0 29,-19"/>
<text text-anchor="middle" x="14.5" y="-7" font-family="Helvetica,sans-Serif" font-size="10.00">ds</text>
</a>
</g>
</g>
<!-- dir_188b878fa4ae0872503cd2ce8b484e62&#45;&gt;dir_122f4add68bb94b3fee614989bbbd8f9 -->
<g id="edge1" class="edge">
<title>dir_188b878fa4ae0872503cd2ce8b484e62&#45;&gt;dir_122f4add68bb94b3fee614989bbbd8f9</title>
<path fill="none" stroke="#63b8ff" d="M241.38,-61.02C206.31,-55.46 120.35,-40.93 39.01,-18.78"/>
<polygon fill="#63b8ff" stroke="#63b8ff" points="39.69,-15.34 29.12,-16.04 37.82,-22.08 39.69,-15.34"/>
<g id="a_edge1&#45;headlabel"><a xlink:href="dir_000040_000015.html" target="_top" xlink:title="1">
<text text-anchor="middle" x="43.91" y="-11.06" font-family="Helvetica,sans-Serif" font-size="10.00" fill="#63b8ff">1</text>
</a>
</g>
</g>
<!-- dir_2d29d7dff7c7baf1180920f6796c23ae -->
<g id="node3" class="node">
<title>dir_2d29d7dff7c7baf1180920f6796c23ae</title>
<g id="a_node3"><a xlink:href="dir_2d29d7dff7c7baf1180920f6796c23ae.html" target="_top" xlink:title="http">
<polygon fill="#edf0f7" stroke="#7f7f7f" points="83.5,-19 47.5,-19 47.5,0 83.5,0 83.5,-19"/>
<text text-anchor="middle" x="65.5" y="-7" font-family="Helvetica,sans-Serif" font-size="10.00">http</text>
</a>
</g>
</g>
<!-- dir_188b878fa4ae0872503cd2ce8b484e62&#45;&gt;dir_2d29d7dff7c7baf1180920f6796c23ae -->
<g id="edge2" class="edge">
<title>dir_188b878fa4ae0872503cd2ce8b484e62&#45;&gt;dir_2d29d7dff7c7baf1180920f6796c23ae</title>
<path fill="none" stroke="#63b8ff" d="M241.04,-59.3C212.86,-52.07 153.33,-36.56 93.72,-19.27"/>
<polygon fill="#63b8ff" stroke="#63b8ff" points="94.35,-15.8 83.77,-16.36 92.39,-22.52 94.35,-15.8"/>
<g id="a_edge2&#45;headlabel"><a xlink:href="dir_000040_000022.html" target="_top" xlink:title="5">
<text text-anchor="middle" x="98.59" y="-11.59" font-family="Helvetica,sans-Serif" font-size="10.00" fill="#63b8ff">5</text>
</a>
</g>
</g>
<!-- dir_3dcea8250b5ce8d5bc595fbbad3e8f21 -->
<g id="node4" class="node">
<title>dir_3dcea8250b5ce8d5bc595fbbad3e8f21</title>
<g id="a_node4"><a xlink:href="dir_3dcea8250b5ce8d5bc595fbbad3e8f21.html" target="_top" xlink:title="js">
<polygon fill="#edf0f7" stroke="#7f7f7f" points="131,-19 102,-19 102,0 131,0 131,-19"/>
<text text-anchor="middle" x="116.5" y="-7" font-family="Helvetica,sans-Serif" font-size="10.00">js</text>
</a>
</g>
</g>
<!-- dir_188b878fa4ae0872503cd2ce8b484e62&#45;&gt;dir_3dcea8250b5ce8d5bc595fbbad3e8f21 -->
<g id="edge3" class="edge">
<title>dir_188b878fa4ae0872503cd2ce8b484e62&#45;&gt;dir_3dcea8250b5ce8d5bc595fbbad3e8f21</title>
<path fill="none" stroke="#63b8ff" d="M241.33,-57.42C216.72,-48.17 169.7,-30.5 140.91,-19.68"/>
<polygon fill="#63b8ff" stroke="#63b8ff" points="141.8,-16.27 131.21,-16.03 139.34,-22.82 141.8,-16.27"/>
<g id="a_edge3&#45;headlabel"><a xlink:href="dir_000040_000027.html" target="_top" xlink:title="2">
<text text-anchor="middle" x="146.17" y="-12.38" font-family="Helvetica,sans-Serif" font-size="10.00" fill="#63b8ff">2</text>
</a>
</g>
</g>
<!-- dir_4261af1259721e3e39e0d2dd7354b511 -->
<g id="node5" class="node">
<title>dir_4261af1259721e3e39e0d2dd7354b511</title>
<g id="a_node5"><a xlink:href="dir_4261af1259721e3e39e0d2dd7354b511.html" target="_top" xlink:title="crypto">
<polygon fill="#edf0f7" stroke="red" stroke-dasharray="5,2" points="196,-19 149,-19 149,0 196,0 196,-19"/>
<text text-anchor="middle" x="172.5" y="-7" font-family="Helvetica,sans-Serif" font-size="10.00">crypto</text>
</a>
</g>
</g>
<!-- dir_188b878fa4ae0872503cd2ce8b484e62&#45;&gt;dir_4261af1259721e3e39e0d2dd7354b511 -->
<g id="edge4" class="edge">
<title>dir_188b878fa4ae0872503cd2ce8b484e62&#45;&gt;dir_4261af1259721e3e39e0d2dd7354b511</title>
<path fill="none" stroke="#63b8ff" d="M243.84,-54.98C230.66,-46.77 210.47,-34.18 194.93,-24.49"/>
<polygon fill="#63b8ff" stroke="#63b8ff" points="196.74,-21.49 186.41,-19.17 193.04,-27.43 196.74,-21.49"/>
<g id="a_edge4&#45;headlabel"><a xlink:href="dir_000040_000013.html" target="_top" xlink:title="2">
<text text-anchor="middle" x="201.3" y="-18.48" font-family="Helvetica,sans-Serif" font-size="10.00" fill="#63b8ff">2</text>
</a>
</g>
</g>
<!-- dir_4c8befd6991d7a2e9d66c427274b8c22 -->
<g id="node6" class="node">
<title>dir_4c8befd6991d7a2e9d66c427274b8c22</title>
<g id="a_node6"><a xlink:href="dir_4c8befd6991d7a2e9d66c427274b8c22.html" target="_top" xlink:title="kv">
<polygon fill="#edf0f7" stroke="#7f7f7f" points="243,-19 214,-19 214,0 243,0 243,-19"/>
<text text-anchor="middle" x="228.5" y="-7" font-family="Helvetica,sans-Serif" font-size="10.00">kv</text>
</a>
</g>
</g>
<!-- dir_188b878fa4ae0872503cd2ce8b484e62&#45;&gt;dir_4c8befd6991d7a2e9d66c427274b8c22 -->
<g id="edge5" class="edge">
<title>dir_188b878fa4ae0872503cd2ce8b484e62&#45;&gt;dir_4c8befd6991d7a2e9d66c427274b8c22</title>
<path fill="none" stroke="#63b8ff" d="M252.71,-54.75C248.74,-47.49 242.97,-36.95 238.07,-27.98"/>
<polygon fill="#63b8ff" stroke="#63b8ff" points="241.07,-26.18 233.2,-19.09 234.93,-29.54 241.07,-26.18"/>
<g id="a_edge5&#45;headlabel"><a xlink:href="dir_000040_000030.html" target="_top" xlink:title="5">
<text text-anchor="middle" x="245.29" y="-25.47" font-family="Helvetica,sans-Serif" font-size="10.00" fill="#63b8ff">5</text>
</a>
</g>
</g>
<!-- dir_4f691f982165d1317925cee58b4b4f56 -->
<g id="node7" class="node">
<title>dir_4f691f982165d1317925cee58b4b4f56</title>
<g id="a_node7"><a xlink:href="dir_4f691f982165d1317925cee58b4b4f56.html" target="_top" xlink:title="service">
<polygon fill="#edf0f7" stroke="red" stroke-dasharray="5,2" points="313.5,-19 261.5,-19 261.5,0 313.5,0 313.5,-19"/>
<text text-anchor="middle" x="287.5" y="-7" font-family="Helvetica,sans-Serif" font-size="10.00">service</text>
</a>
</g>
</g>
<!-- dir_188b878fa4ae0872503cd2ce8b484e62&#45;&gt;dir_4f691f982165d1317925cee58b4b4f56 -->
<g id="edge6" class="edge">
<title>dir_188b878fa4ae0872503cd2ce8b484e62&#45;&gt;dir_4f691f982165d1317925cee58b4b4f56</title>
<path fill="none" stroke="#63b8ff" d="M262.45,-54.75C266.56,-47.49 272.53,-36.95 277.6,-27.98"/>
<polygon fill="#63b8ff" stroke="#63b8ff" points="280.76,-29.52 282.64,-19.09 274.67,-26.07 280.76,-29.52"/>
<g id="a_edge6&#45;headlabel"><a xlink:href="dir_000040_000044.html" target="_top" xlink:title="5">
<text text-anchor="middle" x="281.46" y="-31.54" font-family="Helvetica,sans-Serif" font-size="10.00" fill="#63b8ff">5</text>
</a>
</g>
</g>
<!-- dir_5427940bb9029915fc0c11c1284afde6 -->
<g id="node8" class="node">
<title>dir_5427940bb9029915fc0c11c1284afde6</title>
<g id="a_node8"><a xlink:href="dir_5427940bb9029915fc0c11c1284afde6.html" target="_top" xlink:title="enclave">
<polygon fill="#edf0f7" stroke="#7f7f7f" points="387,-19 332,-19 332,0 387,0 387,-19"/>
<text text-anchor="middle" x="359.5" y="-7" font-family="Helvetica,sans-Serif" font-size="10.00">enclave</text>
</a>
</g>
</g>
<!-- dir_188b878fa4ae0872503cd2ce8b484e62&#45;&gt;dir_5427940bb9029915fc0c11c1284afde6 -->
<g id="edge7" class="edge">
<title>dir_188b878fa4ae0872503cd2ce8b484e62&#45;&gt;dir_5427940bb9029915fc0c11c1284afde6</title>
<path fill="none" stroke="#63b8ff" d="M273.89,-54.98C290.07,-46.57 315.07,-33.59 333.88,-23.81"/>
<polygon fill="#63b8ff" stroke="#63b8ff" points="335.55,-26.89 342.81,-19.17 332.33,-20.68 335.55,-26.89"/>
<g id="a_edge7&#45;headlabel"><a xlink:href="dir_000040_000016.html" target="_top" xlink:title="7">
<text text-anchor="middle" x="333.67" y="-28.56" font-family="Helvetica,sans-Serif" font-size="10.00" fill="#63b8ff">7</text>
</a>
</g>
</g>
<!-- dir_a2b23ad3d4048fef2ffce6bed40d1385 -->
<g id="node9" class="node">
<title>dir_a2b23ad3d4048fef2ffce6bed40d1385</title>
<g id="a_node9"><a xlink:href="dir_a2b23ad3d4048fef2ffce6bed40d1385.html" target="_top" xlink:title="endpoints">
<polygon fill="#edf0f7" stroke="red" stroke-dasharray="5,2" points="470,-19 405,-19 405,0 470,0 470,-19"/>
<text text-anchor="middle" x="437.5" y="-7" font-family="Helvetica,sans-Serif" font-size="10.00">endpoints</text>
</a>
</g>
</g>
<!-- dir_188b878fa4ae0872503cd2ce8b484e62&#45;&gt;dir_a2b23ad3d4048fef2ffce6bed40d1385 -->
<g id="edge8" class="edge">
<title>dir_188b878fa4ae0872503cd2ce8b484e62&#45;&gt;dir_a2b23ad3d4048fef2ffce6bed40d1385</title>
<path fill="none" stroke="#63b8ff" d="M273.79,-58.7C301.75,-50.47 359.63,-33.43 398.52,-21.98"/>
<polygon fill="#63b8ff" stroke="#63b8ff" points="399.85,-25.23 408.45,-19.05 397.87,-18.52 399.85,-25.23"/>
<g id="a_edge8&#45;headlabel"><a xlink:href="dir_000040_000018.html" target="_top" xlink:title="2">
<text text-anchor="middle" x="397.2" y="-26.47" font-family="Helvetica,sans-Serif" font-size="10.00" fill="#63b8ff">2</text>
</a>
</g>
</g>
<!-- dir_d44c64559bbebec7f509842c48db8b23 -->
<g id="node10" class="node">
<title>dir_d44c64559bbebec7f509842c48db8b23</title>
<g id="a_node10"><a xlink:href="dir_d44c64559bbebec7f509842c48db8b23.html" target="_top" xlink:title="include">
<polygon fill="#edf0f7" stroke="red" points="540.5,-19 488.5,-19 488.5,0 540.5,0 540.5,-19"/>
<text text-anchor="middle" x="514.5" y="-7" font-family="Helvetica,sans-Serif" font-size="10.00">include</text>
</a>
</g>
</g>
<!-- dir_188b878fa4ae0872503cd2ce8b484e62&#45;&gt;dir_d44c64559bbebec7f509842c48db8b23 -->
<g id="edge9" class="edge">
<title>dir_188b878fa4ae0872503cd2ce8b484e62&#45;&gt;dir_d44c64559bbebec7f509842c48db8b23</title>
<path fill="none" stroke="#63b8ff" d="M273.7,-60.48C309.02,-53.86 395.79,-37.33 478.37,-19.18"/>
<polygon fill="#63b8ff" stroke="#63b8ff" points="479.14,-22.6 488.15,-17.02 477.63,-15.76 479.14,-22.6"/>
<g id="a_edge9&#45;headlabel"><a xlink:href="dir_000040_000024.html" target="_top" xlink:title="83">
<text text-anchor="middle" x="476.25" y="-23.64" font-family="Helvetica,sans-Serif" font-size="10.00" fill="#63b8ff">83</text>
</a>
</g>
</g>
<!-- dir_fdedb0aba14d44ce9d99bc100e026e6a -->
<g id="node11" class="node">
<title>dir_fdedb0aba14d44ce9d99bc100e026e6a</title>
<g id="a_node11"><a xlink:href="dir_fdedb0aba14d44ce9d99bc100e026e6a.html" target="_top" xlink:title="common">
<polygon fill="#edf0f7" stroke="#7f7f7f" points="618,-19 559,-19 559,0 618,0 618,-19"/>
<text text-anchor="middle" x="588.5" y="-7" font-family="Helvetica,sans-Serif" font-size="10.00">common</text>
</a>
</g>
</g>
<!-- dir_188b878fa4ae0872503cd2ce8b484e62&#45;&gt;dir_fdedb0aba14d44ce9d99bc100e026e6a -->
<g id="edge10" class="edge">
<title>dir_188b878fa4ae0872503cd2ce8b484e62&#45;&gt;dir_fdedb0aba14d44ce9d99bc100e026e6a</title>
<path fill="none" stroke="#63b8ff" d="M273.7,-61.4C316.72,-55.74 437.51,-39.35 548.69,-19.04"/>
<polygon fill="#63b8ff" stroke="#63b8ff" points="549.53,-22.45 558.73,-17.19 548.26,-15.56 549.53,-22.45"/>
<g id="a_edge10&#45;headlabel"><a xlink:href="dir_000040_000010.html" target="_top" xlink:title="3">
<text text-anchor="middle" x="546.51" y="-23.39" font-family="Helvetica,sans-Serif" font-size="10.00" fill="#63b8ff">3</text>
</a>
</g>
</g>
</g>
</svg>
