<?xml version="1.0" encoding="UTF-8" standalone="no"?>
<!DOCTYPE svg PUBLIC "-//W3C//DTD SVG 1.1//EN"
 "http://www.w3.org/Graphics/SVG/1.1/DTD/svg11.dtd">
<!-- Generated by graphviz version 2.43.0 (0)
 -->
<!-- Title: src/kv Pages: 1 -->
<svg width="327pt" height="133pt"
 viewBox="0.00 0.00 327.00 133.00" xmlns="http://www.w3.org/2000/svg" xmlns:xlink="http://www.w3.org/1999/xlink">
<g id="graph0" class="graph" transform="scale(1 1) rotate(0) translate(4 129)">
<title>src/kv</title>
<g id="clust1" class="cluster">
<title>clusterdir_68267d1309a1af8e8297ef4c3efbcdba</title>
<g id="a_clust1"><a xlink:href="dir_68267d1309a1af8e8297ef4c3efbcdba.html" target="_top" xlink:title="src">
<polygon fill="#edf0f7" stroke="#404040" stroke-dasharray="5,2" points="8,-8 8,-117 257,-117 257,-8 8,-8"/>
<text text-anchor="middle" x="132.5" y="-105" font-family="Helvetica,sans-Serif" font-size="10.00">src</text>
</a>
</g>
</g>
<!-- dir_122f4add68bb94b3fee614989bbbd8f9 -->
<g id="node1" class="node">
<title>dir_122f4add68bb94b3fee614989bbbd8f9</title>
<g id="a_node1"><a xlink:href="dir_122f4add68bb94b3fee614989bbbd8f9.html" target="_top" xlink:title="ds">
<polygon fill="#a2b4d6" stroke="#404040" points="45.5,-35 16.5,-35 16.5,-16 45.5,-16 45.5,-35"/>
<text text-anchor="middle" x="31" y="-23" font-family="Helvetica,sans-Serif" font-size="10.00">ds</text>
</a>
</g>
</g>
<!-- dir_18ae7af74d885898b85cbb543ae51b63 -->
<g id="node2" class="node">
<title>dir_18ae7af74d885898b85cbb543ae51b63</title>
<g id="a_node2"><a xlink:href="dir_18ae7af74d885898b85cbb543ae51b63.html" target="_top" xlink:title="node">
<polygon fill="#a2b4d6" stroke="red" points="104.5,-35 63.5,-35 63.5,-16 104.5,-16 104.5,-35"/>
<text text-anchor="middle" x="84" y="-23" font-family="Helvetica,sans-Serif" font-size="10.00">node</text>
</a>
</g>
</g>
<!-- dir_4f691f982165d1317925cee58b4b4f56 -->
<g id="node3" class="node">
<title>dir_4f691f982165d1317925cee58b4b4f56</title>
<g id="a_node3"><a xlink:href="dir_4f691f982165d1317925cee58b4b4f56.html" target="_top" xlink:title="service">
<polygon fill="#a2b4d6" stroke="red" points="175,-35 123,-35 123,-16 175,-16 175,-35"/>
<text text-anchor="middle" x="149" y="-23" font-family="Helvetica,sans-Serif" font-size="10.00">service</text>
</a>
</g>
</g>
<!-- dir_5427940bb9029915fc0c11c1284afde6 -->
<g id="node4" class="node">
<title>dir_5427940bb9029915fc0c11c1284afde6</title>
<g id="a_node4"><a xlink:href="dir_5427940bb9029915fc0c11c1284afde6.html" target="_top" xlink:title="enclave">
<polygon fill="#a2b4d6" stroke="#404040" points="248.5,-35 193.5,-35 193.5,-16 248.5,-16 248.5,-35"/>
<text text-anchor="middle" x="221" y="-23" font-family="Helvetica,sans-Serif" font-size="10.00">enclave</text>
</a>
</g>
</g>
<!-- dir_4c8befd6991d7a2e9d66c427274b8c22 -->
<g id="node5" class="node">
<title>dir_4c8befd6991d7a2e9d66c427274b8c22</title>
<g id="a_node5"><a xlink:href="dir_4c8befd6991d7a2e9d66c427274b8c22.html" target="_top" xlink:title="kv">
<polygon fill="#edf0f7" stroke="#404040" stroke-width="2" points="163.5,-90 134.5,-90 134.5,-71 163.5,-71 163.5,-90"/>
<text text-anchor="middle" x="149" y="-78" font-family="Helvetica,sans-Serif" font-size="10.00">kv</text>
</a>
</g>
</g>
<!-- dir_4c8befd6991d7a2e9d66c427274b8c22&#45;&gt;dir_122f4add68bb94b3fee614989bbbd8f9 -->
<g id="edge1" class="edge">
<title>dir_4c8befd6991d7a2e9d66c427274b8c22&#45;&gt;dir_122f4add68bb94b3fee614989bbbd8f9</title>
<path fill="none" stroke="#63b8ff" d="M134.06,-72.79C114.19,-63.87 78.86,-48 55.18,-37.36"/>
<polygon fill="#63b8ff" stroke="#63b8ff" points="56.38,-34.06 45.82,-33.16 53.51,-40.45 56.38,-34.06"/>
<g id="a_edge1&#45;headlabel"><a xlink:href="dir_000030_000015.html" target="_top" xlink:title="3">
<text text-anchor="middle" x="60.82" y="-30.45" font-family="Helvetica,sans-Serif" font-size="10.00" fill="#63b8ff">3</text>
</a>
</g>
</g>
<!-- dir_4c8befd6991d7a2e9d66c427274b8c22&#45;&gt;dir_18ae7af74d885898b85cbb543ae51b63 -->
<g id="edge2" class="edge">
<title>dir_4c8befd6991d7a2e9d66c427274b8c22&#45;&gt;dir_18ae7af74d885898b85cbb543ae51b63</title>
<path fill="none" stroke="#63b8ff" d="M138.56,-70.98C128.85,-63.07 114.18,-51.11 102.5,-41.58"/>
<polygon fill="#63b8ff" stroke="#63b8ff" points="104.6,-38.78 94.63,-35.17 100.17,-44.2 104.6,-38.78"/>
<g id="a_edge2&#45;headlabel"><a xlink:href="dir_000030_000034.html" target="_top" xlink:title="2">
<text text-anchor="middle" x="109.18" y="-36.35" font-family="Helvetica,sans-Serif" font-size="10.00" fill="#63b8ff">2</text>
</a>
</g>
</g>
<!-- dir_4c8befd6991d7a2e9d66c427274b8c22&#45;&gt;dir_4f691f982165d1317925cee58b4b4f56 -->
<g id="edge3" class="edge">
<title>dir_4c8befd6991d7a2e9d66c427274b8c22&#45;&gt;dir_4f691f982165d1317925cee58b4b4f56</title>
<path fill="none" stroke="#63b8ff" d="M149,-70.75C149,-63.8 149,-53.85 149,-45.13"/>
<polygon fill="#63b8ff" stroke="#63b8ff" points="152.5,-45.09 149,-35.09 145.5,-45.09 152.5,-45.09"/>
<g id="a_edge3&#45;headlabel"><a xlink:href="dir_000030_000044.html" target="_top" xlink:title="3">
<text text-anchor="middle" x="155.34" y="-46.18" font-family="Helvetica,sans-Serif" font-size="10.00" fill="#63b8ff">3</text>
</a>
</g>
</g>
<!-- dir_4c8befd6991d7a2e9d66c427274b8c22&#45;&gt;dir_5427940bb9029915fc0c11c1284afde6 -->
<g id="edge4" class="edge">
<title>dir_4c8befd6991d7a2e9d66c427274b8c22&#45;&gt;dir_5427940bb9029915fc0c11c1284afde6</title>
<path fill="none" stroke="#63b8ff" d="M160.57,-70.98C171.42,-63 187.88,-50.88 200.88,-41.31"/>
<polygon fill="#63b8ff" stroke="#63b8ff" points="203.24,-43.92 209.22,-35.17 199.09,-38.28 203.24,-43.92"/>
<g id="a_edge4&#45;headlabel"><a xlink:href="dir_000030_000016.html" target="_top" xlink:title="2">
<text text-anchor="middle" x="202.03" y="-45.83" font-family="Helvetica,sans-Serif" font-size="10.00" fill="#63b8ff">2</text>
</a>
</g>
</g>
<!-- dir_d44c64559bbebec7f509842c48db8b23 -->
<g id="node6" class="node">
<title>dir_d44c64559bbebec7f509842c48db8b23</title>
<g id="a_node6"><a xlink:href="dir_d44c64559bbebec7f509842c48db8b23.html" target="_top" xlink:title="include">
<polygon fill="#edf0f7" stroke="red" points="319,-35 267,-35 267,-16 319,-16 319,-35"/>
<text text-anchor="middle" x="293" y="-23" font-family="Helvetica,sans-Serif" font-size="10.00">include</text>
</a>
</g>
</g>
<!-- dir_4c8befd6991d7a2e9d66c427274b8c22&#45;&gt;dir_d44c64559bbebec7f509842c48db8b23 -->
<g id="edge5" class="edge">
<title>dir_4c8befd6991d7a2e9d66c427274b8c22&#45;&gt;dir_d44c64559bbebec7f509842c48db8b23</title>
<path fill="none" stroke="#63b8ff" d="M163.6,-74.13C186.08,-65.85 229.76,-49.78 260.12,-38.6"/>
<polygon fill="#63b8ff" stroke="#63b8ff" points="261.67,-41.76 269.85,-35.02 259.26,-35.19 261.67,-41.76"/>
<g id="a_edge5&#45;headlabel"><a xlink:href="dir_000030_000024.html" target="_top" xlink:title="31">
<text text-anchor="middle" x="259.28" y="-43.17" font-family="Helvetica,sans-Serif" font-size="10.00" fill="#63b8ff">31</text>
</a>
</g>
</g>
</g>
</svg>
