<?xml version="1.0" encoding="UTF-8" standalone="no"?>
<!DOCTYPE svg PUBLIC "-//W3C//DTD SVG 1.1//EN"
 "http://www.w3.org/Graphics/SVG/1.1/DTD/svg11.dtd">
<!-- Generated by graphviz version 2.43.0 (0)
 -->
<!-- Title: src/node Pages: 1 -->
<!--zoomable 196 -->
<svg id="main" version="1.1" xmlns="http://www.w3.org/2000/svg" xmlns:xlink="http://www.w3.org/1999/xlink" xml:space="preserve" onload="init(evt)">
<style type="text/css"><![CDATA[
.edge:hover path { stroke: red; }
.edge:hover polygon { stroke: red; fill: red; }
]]></style>
<script type="text/javascript"><![CDATA[
var edges = document.getElementsByTagName('g');
if (edges && edges.length) {
  for (var i=0;i<edges.length;i++) {
    if (edges[i].id.substr(0,4)=='edge') {
      edges[i].setAttribute('class','edge');
    }
  }
}
]]></script>
        <defs>
                <circle id="rim" cx="0" cy="0" r="7"/>
                <circle id="rim2" cx="0" cy="0" r="3.5"/>
                <g id="zoomPlus">
                        <use xlink:href="#rim" fill="#404040">
                                <set attributeName="fill" to="#808080" begin="zoomplus.mouseover" end="zoomplus.mouseout"/>
                        </use>
                        <path d="M-4,0h8M0,-4v8" fill="none" stroke="white" stroke-width="1.5" pointer-events="none"/>
                </g>
                <g id="zoomMin">
                        <use xlink:href="#rim" fill="#404040">
                                <set attributeName="fill" to="#808080" begin="zoomminus.mouseover" end="zoomminus.mouseout"/>
                        </use>
                        <path d="M-4,0h8" fill="none" stroke="white" stroke-width="1.5" pointer-events="none"/>
                </g>
                <g id="dirArrow">
                        <path fill="none" stroke="white" stroke-width="1.5" d="M0,-3.0v7 M-2.5,-0.5L0,-3.0L2.5,-0.5"/>
                </g>
               <g id="resetDef">
                       <use xlink:href="#rim2" fill="#404040">
                               <set attributeName="fill" to="#808080" begin="reset.mouseover" end="reset.mouseout"/>
                       </use>
               </g>
        </defs>

<script type="text/javascript">
var viewWidth = 642;
var viewHeight = 196;
var sectionId = 'dynsection-0';
</script>
<script xlink:href="svgpan.js"/>
<svg id="graph" class="graph">
<g id="viewport">
<title>src/node</title>
<g id="clust1" class="cluster">
<title>clusterdir_68267d1309a1af8e8297ef4c3efbcdba</title>
<g id="a_clust1"><a xlink:href="dir_68267d1309a1af8e8297ef4c3efbcdba.html" target="_top" xlink:title="src">
<polygon fill="#edf0f7" stroke="#404040" stroke-dasharray="5,2" points="8,-8 8,-180 572,-180 572,-8 8,-8"/>
<text text-anchor="middle" x="290" y="-168" font-family="Helvetica,sans-Serif" font-size="10.00">src</text>
</a>
</g>
</g>
<g id="clust2" class="cluster">
<title>clusterdir_18ae7af74d885898b85cbb543ae51b63</title>
<g id="a_clust2"><a xlink:href="dir_18ae7af74d885898b85cbb543ae51b63.html" target="_top">
<polygon fill="#edf0f7" stroke="#404040" stroke-width="2" points="297,-63 297,-153 355,-153 355,-63 297,-63"/>
</a>
</g>
</g>
<!-- dir_122f4add68bb94b3fee614989bbbd8f9 -->
<g id="node1" class="node">
<title>dir_122f4add68bb94b3fee614989bbbd8f9</title>
<g id="a_node1"><a xlink:href="dir_122f4add68bb94b3fee614989bbbd8f9.html" target="_top" xlink:title="ds">
<polygon fill="#a2b4d6" stroke="#404040" points="92.5,-35 63.5,-35 63.5,-16 92.5,-16 92.5,-35"/>
<text text-anchor="middle" x="78" y="-23" font-family="Helvetica,sans-Serif" font-size="10.00">ds</text>
</a>
</g>
</g>
<!-- dir_1af0ddd77af1c20f0c9558f89bd86ab0 -->
<g id="node2" class="node">
<title>dir_1af0ddd77af1c20f0c9558f89bd86ab0</title>
<g id="a_node2"><a xlink:href="dir_1af0ddd77af1c20f0c9558f89bd86ab0.html" target="_top" xlink:title="indexing">
<polygon fill="#a2b4d6" stroke="red" points="226.5,-90 167.5,-90 167.5,-71 226.5,-71 226.5,-90"/>
<text text-anchor="middle" x="197" y="-78" font-family="Helvetica,sans-Serif" font-size="10.00">indexing</text>
</a>
</g>
</g>
<!-- dir_2d29d7dff7c7baf1180920f6796c23ae -->
<g id="node3" class="node">
<title>dir_2d29d7dff7c7baf1180920f6796c23ae</title>
<g id="a_node3"><a xlink:href="dir_2d29d7dff7c7baf1180920f6796c23ae.html" target="_top" xlink:title="http">
<polygon fill="#a2b4d6" stroke="#404040" points="147,-35 111,-35 111,-16 147,-16 147,-35"/>
<text text-anchor="middle" x="129" y="-23" font-family="Helvetica,sans-Serif" font-size="10.00">http</text>
</a>
</g>
</g>
<!-- dir_3dcea8250b5ce8d5bc595fbbad3e8f21 -->
<g id="node4" class="node">
<title>dir_3dcea8250b5ce8d5bc595fbbad3e8f21</title>
<g id="a_node4"><a xlink:href="dir_3dcea8250b5ce8d5bc595fbbad3e8f21.html" target="_top" xlink:title="js">
<polygon fill="#a2b4d6" stroke="#404040" points="45.5,-35 16.5,-35 16.5,-16 45.5,-16 45.5,-35"/>
<text text-anchor="middle" x="31" y="-23" font-family="Helvetica,sans-Serif" font-size="10.00">js</text>
</a>
</g>
</g>
<!-- dir_4261af1259721e3e39e0d2dd7354b511 -->
<g id="node5" class="node">
<title>dir_4261af1259721e3e39e0d2dd7354b511</title>
<g id="a_node5"><a xlink:href="dir_4261af1259721e3e39e0d2dd7354b511.html" target="_top" xlink:title="crypto">
<polygon fill="#a2b4d6" stroke="red" points="516.5,-35 469.5,-35 469.5,-16 516.5,-16 516.5,-35"/>
<text text-anchor="middle" x="493" y="-23" font-family="Helvetica,sans-Serif" font-size="10.00">crypto</text>
</a>
</g>
</g>
<!-- dir_4c8befd6991d7a2e9d66c427274b8c22 -->
<g id="node6" class="node">
<title>dir_4c8befd6991d7a2e9d66c427274b8c22</title>
<g id="a_node6"><a xlink:href="dir_4c8befd6991d7a2e9d66c427274b8c22.html" target="_top" xlink:title="kv">
<polygon fill="#a2b4d6" stroke="#404040" points="563.5,-35 534.5,-35 534.5,-16 563.5,-16 563.5,-35"/>
<text text-anchor="middle" x="549" y="-23" font-family="Helvetica,sans-Serif" font-size="10.00">kv</text>
</a>
</g>
</g>
<!-- dir_4f691f982165d1317925cee58b4b4f56 -->
<g id="node7" class="node">
<title>dir_4f691f982165d1317925cee58b4b4f56</title>
<g id="a_node7"><a xlink:href="dir_4f691f982165d1317925cee58b4b4f56.html" target="_top" xlink:title="service">
<polygon fill="#a2b4d6" stroke="red" points="378,-35 326,-35 326,-16 378,-16 378,-35"/>
<text text-anchor="middle" x="352" y="-23" font-family="Helvetica,sans-Serif" font-size="10.00">service</text>
</a>
</g>
</g>
<!-- dir_5427940bb9029915fc0c11c1284afde6 -->
<g id="node8" class="node">
<title>dir_5427940bb9029915fc0c11c1284afde6</title>
<g id="a_node8"><a xlink:href="dir_5427940bb9029915fc0c11c1284afde6.html" target="_top" xlink:title="enclave">
<polygon fill="#a2b4d6" stroke="#404040" points="451.5,-35 396.5,-35 396.5,-16 451.5,-16 451.5,-35"/>
<text text-anchor="middle" x="424" y="-23" font-family="Helvetica,sans-Serif" font-size="10.00">enclave</text>
</a>
</g>
</g>
<!-- dir_dee301ab18d354d094fb7852349ef839 -->
<g id="node9" class="node">
<title>dir_dee301ab18d354d094fb7852349ef839</title>
<g id="a_node9"><a xlink:href="dir_dee301ab18d354d094fb7852349ef839.html" target="_top" xlink:title="consensus">
<polygon fill="#a2b4d6" stroke="red" points="463,-90 395,-90 395,-71 463,-71 463,-90"/>
<text text-anchor="middle" x="429" y="-78" font-family="Helvetica,sans-Serif" font-size="10.00">consensus</text>
</a>
</g>
</g>
<!-- dir_fdedb0aba14d44ce9d99bc100e026e6a -->
<g id="node10" class="node">
<title>dir_fdedb0aba14d44ce9d99bc100e026e6a</title>
<g id="a_node10"><a xlink:href="dir_fdedb0aba14d44ce9d99bc100e026e6a.html" target="_top" xlink:title="common">
<polygon fill="#a2b4d6" stroke="#404040" points="224.5,-35 165.5,-35 165.5,-16 224.5,-16 224.5,-35"/>
<text text-anchor="middle" x="195" y="-23" font-family="Helvetica,sans-Serif" font-size="10.00">common</text>
</a>
</g>
</g>
<!-- dir_a2b23ad3d4048fef2ffce6bed40d1385 -->
<g id="node11" class="node">
<title>dir_a2b23ad3d4048fef2ffce6bed40d1385</title>
<g id="a_node11"><a xlink:href="dir_a2b23ad3d4048fef2ffce6bed40d1385.html" target="_top" xlink:title="endpoints">
<polygon fill="#a2b4d6" stroke="red" points="307.5,-35 242.5,-35 242.5,-16 307.5,-16 307.5,-35"/>
<text text-anchor="middle" x="275" y="-23" font-family="Helvetica,sans-Serif" font-size="10.00">endpoints</text>
</a>
</g>
</g>
<!-- dir_18ae7af74d885898b85cbb543ae51b63 -->
<g id="node12" class="node">
<title>dir_18ae7af74d885898b85cbb543ae51b63</title>
<text text-anchor="middle" x="326" y="-133" font-family="Helvetica,sans-Serif" font-size="10.00">node</text>
</g>
<!-- dir_18ae7af74d885898b85cbb543ae51b63&#45;&gt;dir_122f4add68bb94b3fee614989bbbd8f9 -->
<g id="edge1" class="edge">
<title>dir_18ae7af74d885898b85cbb543ae51b63&#45;&gt;dir_122f4add68bb94b3fee614989bbbd8f9</title>
<path fill="none" stroke="#63b8ff" d="M313.45,-125.77C301.78,-117.33 284.26,-103.84 271,-90 260.67,-79.22 263.66,-70.93 251,-63 196.46,-28.84 169.53,-50.37 102.36,-34.57"/>
<polygon fill="#63b8ff" stroke="#63b8ff" points="103.16,-31.16 92.61,-32.08 101.43,-37.94 103.16,-31.16"/>
<g id="a_edge1&#45;headlabel"><a xlink:href="dir_000034_000015.html" target="_top" xlink:title="14">
<text text-anchor="middle" x="107.35" y="-26.8" font-family="Helvetica,sans-Serif" font-size="10.00" fill="#63b8ff">14</text>
</a>
</g>
</g>
<!-- dir_18ae7af74d885898b85cbb543ae51b63&#45;&gt;dir_1af0ddd77af1c20f0c9558f89bd86ab0 -->
<g id="edge3" class="edge">
<title>dir_18ae7af74d885898b85cbb543ae51b63&#45;&gt;dir_1af0ddd77af1c20f0c9558f89bd86ab0</title>
<path fill="none" stroke="#63b8ff" d="M305.27,-125.98C284.24,-117.34 251.45,-103.87 227.46,-94.02"/>
<polygon fill="#63b8ff" stroke="#63b8ff" points="228.68,-90.73 218.1,-90.17 226.02,-97.21 228.68,-90.73"/>
<g id="a_edge3&#45;headlabel"><a xlink:href="dir_000034_000026.html" target="_top" xlink:title="1">
<text text-anchor="middle" x="233.09" y="-86.97" font-family="Helvetica,sans-Serif" font-size="10.00" fill="#63b8ff">1</text>
</a>
</g>
</g>
<!-- dir_18ae7af74d885898b85cbb543ae51b63&#45;&gt;dir_2d29d7dff7c7baf1180920f6796c23ae -->
<g id="edge4" class="edge">
<title>dir_18ae7af74d885898b85cbb543ae51b63&#45;&gt;dir_2d29d7dff7c7baf1180920f6796c23ae</title>
<path fill="none" stroke="#63b8ff" d="M320.47,-125.94C309.27,-108.84 283.86,-71.37 271,-63 229.41,-35.93 209.04,-47.59 156.98,-34.97"/>
<polygon fill="#63b8ff" stroke="#63b8ff" points="157.81,-31.57 147.25,-32.43 156.04,-38.34 157.81,-31.57"/>
<g id="a_edge4&#45;headlabel"><a xlink:href="dir_000034_000022.html" target="_top" xlink:title="10">
<text text-anchor="middle" x="162.01" y="-27.24" font-family="Helvetica,sans-Serif" font-size="10.00" fill="#63b8ff">10</text>
</a>
</g>
</g>
<!-- dir_18ae7af74d885898b85cbb543ae51b63&#45;&gt;dir_3dcea8250b5ce8d5bc595fbbad3e8f21 -->
<g id="edge5" class="edge">
<title>dir_18ae7af74d885898b85cbb543ae51b63&#45;&gt;dir_3dcea8250b5ce8d5bc595fbbad3e8f21</title>
<path fill="none" stroke="#63b8ff" d="M305.68,-125.88C289.43,-118.25 266.84,-105.85 251,-90 241.14,-80.13 246.55,-70.81 235,-63 170.21,-19.18 135.56,-52.59 55.9,-34.93"/>
<polygon fill="#63b8ff" stroke="#63b8ff" points="56.5,-31.48 45.96,-32.52 54.85,-38.28 56.5,-31.48"/>
<g id="a_edge5&#45;headlabel"><a xlink:href="dir_000034_000027.html" target="_top" xlink:title="3">
<text text-anchor="middle" x="60.66" y="-27.07" font-family="Helvetica,sans-Serif" font-size="10.00" fill="#63b8ff">3</text>
</a>
</g>
</g>
<!-- dir_18ae7af74d885898b85cbb543ae51b63&#45;&gt;dir_4261af1259721e3e39e0d2dd7354b511 -->
<g id="edge6" class="edge">
<title>dir_18ae7af74d885898b85cbb543ae51b63&#45;&gt;dir_4261af1259721e3e39e0d2dd7354b511</title>
<path fill="none" stroke="#63b8ff" d="M346.64,-133.96C377.94,-132.02 437.4,-123.79 472,-90 484.06,-78.22 489.2,-59.38 491.38,-45.27"/>
<polygon fill="#63b8ff" stroke="#63b8ff" points="494.87,-45.54 492.58,-35.2 487.92,-44.72 494.87,-45.54"/>
<g id="a_edge6&#45;headlabel"><a xlink:href="dir_000034_000013.html" target="_top" xlink:title="7">
<text text-anchor="middle" x="497.27" y="-46.95" font-family="Helvetica,sans-Serif" font-size="10.00" fill="#63b8ff">7</text>
</a>
</g>
</g>
<!-- dir_18ae7af74d885898b85cbb543ae51b63&#45;&gt;dir_4c8befd6991d7a2e9d66c427274b8c22 -->
<g id="edge7" class="edge">
<title>dir_18ae7af74d885898b85cbb543ae51b63&#45;&gt;dir_4c8befd6991d7a2e9d66c427274b8c22</title>
<path fill="none" stroke="#63b8ff" d="M346.72,-132C378.18,-127.5 439.1,-115.96 484,-90 504.81,-77.97 523.88,-57.76 535.9,-43.38"/>
<polygon fill="#63b8ff" stroke="#63b8ff" points="538.87,-45.27 542.43,-35.3 533.42,-40.87 538.87,-45.27"/>
<g id="a_edge7&#45;headlabel"><a xlink:href="dir_000034_000030.html" target="_top" xlink:title="19">
<text text-anchor="middle" x="538.82" y="-47.35" font-family="Helvetica,sans-Serif" font-size="10.00" fill="#63b8ff">19</text>
</a>
</g>
</g>
<!-- dir_18ae7af74d885898b85cbb543ae51b63&#45;&gt;dir_4f691f982165d1317925cee58b4b4f56 -->
<g id="edge8" class="edge">
<title>dir_18ae7af74d885898b85cbb543ae51b63&#45;&gt;dir_4f691f982165d1317925cee58b4b4f56</title>
<path fill="none" stroke="#63b8ff" d="M330.87,-125.95C335.59,-117.21 342.54,-103.1 346,-90 349.85,-75.41 351.31,-58.36 351.82,-45.6"/>
<polygon fill="#63b8ff" stroke="#63b8ff" points="355.33,-45.37 352.07,-35.29 348.33,-45.2 355.33,-45.37"/>
<g id="a_edge8&#45;headlabel"><a xlink:href="dir_000034_000044.html" target="_top" xlink:title="19">
<text text-anchor="middle" x="358.08" y="-46.53" font-family="Helvetica,sans-Serif" font-size="10.00" fill="#63b8ff">19</text>
</a>
</g>
</g>
<!-- dir_18ae7af74d885898b85cbb543ae51b63&#45;&gt;dir_5427940bb9029915fc0c11c1284afde6 -->
<g id="edge9" class="edge">
<title>dir_18ae7af74d885898b85cbb543ae51b63&#45;&gt;dir_5427940bb9029915fc0c11c1284afde6</title>
<path fill="none" stroke="#63b8ff" d="M332.74,-125.88C343.55,-112.19 365.64,-84.78 386,-63 392.5,-56.05 400,-48.72 406.6,-42.46"/>
<polygon fill="#63b8ff" stroke="#63b8ff" points="409.43,-44.61 414.35,-35.23 404.66,-39.49 409.43,-44.61"/>
<g id="a_edge9&#45;headlabel"><a xlink:href="dir_000034_000016.html" target="_top" xlink:title="15">
<text text-anchor="middle" x="408.74" y="-46.64" font-family="Helvetica,sans-Serif" font-size="10.00" fill="#63b8ff">15</text>
</a>
</g>
</g>
<!-- dir_18ae7af74d885898b85cbb543ae51b63&#45;&gt;dir_dee301ab18d354d094fb7852349ef839 -->
<g id="edge11" class="edge">
<title>dir_18ae7af74d885898b85cbb543ae51b63&#45;&gt;dir_dee301ab18d354d094fb7852349ef839</title>
<path fill="none" stroke="#63b8ff" d="M342.55,-125.98C358.89,-117.57 384.13,-104.59 403.13,-94.81"/>
<polygon fill="#63b8ff" stroke="#63b8ff" points="404.86,-97.86 412.15,-90.17 401.66,-91.63 404.86,-97.86"/>
<g id="a_edge11&#45;headlabel"><a xlink:href="dir_000034_000011.html" target="_top" xlink:title="5">
<text text-anchor="middle" x="402.96" y="-99.53" font-family="Helvetica,sans-Serif" font-size="10.00" fill="#63b8ff">5</text>
</a>
</g>
</g>
<!-- dir_188b878fa4ae0872503cd2ce8b484e62 -->
<g id="node13" class="node">
<title>dir_188b878fa4ae0872503cd2ce8b484e62</title>
<g id="a_node13"><a xlink:href="dir_188b878fa4ae0872503cd2ce8b484e62.html" target="_top" xlink:title="rpc">
<polygon fill="#a2b4d6" stroke="#404040" points="337,-90 305,-90 305,-71 337,-71 337,-90"/>
<text text-anchor="middle" x="321" y="-78" font-family="Helvetica,sans-Serif" font-size="10.00">rpc</text>
</a>
</g>
</g>
<!-- dir_18ae7af74d885898b85cbb543ae51b63&#45;&gt;dir_188b878fa4ae0872503cd2ce8b484e62 -->
<g id="edge2" class="edge">
<title>dir_18ae7af74d885898b85cbb543ae51b63&#45;&gt;dir_188b878fa4ae0872503cd2ce8b484e62</title>
<path fill="none" stroke="#63b8ff" d="M325.17,-125.75C324.52,-118.8 323.58,-108.85 322.76,-100.13"/>
<polygon fill="#63b8ff" stroke="#63b8ff" points="326.23,-99.72 321.81,-90.09 319.27,-100.37 326.23,-99.72"/>
<g id="a_edge2&#45;headlabel"><a xlink:href="dir_000034_000040.html" target="_top" xlink:title="7">
<text text-anchor="middle" x="329.4" y="-100.53" font-family="Helvetica,sans-Serif" font-size="10.00" fill="#63b8ff">7</text>
</a>
</g>
</g>
<!-- dir_d44c64559bbebec7f509842c48db8b23 -->
<g id="node14" class="node">
<title>dir_d44c64559bbebec7f509842c48db8b23</title>
<g id="a_node14"><a xlink:href="dir_d44c64559bbebec7f509842c48db8b23.html" target="_top" xlink:title="include">
<polygon fill="#edf0f7" stroke="red" points="634,-35 582,-35 582,-16 634,-16 634,-35"/>
<text text-anchor="middle" x="608" y="-23" font-family="Helvetica,sans-Serif" font-size="10.00">include</text>
</a>
</g>
</g>
<!-- dir_18ae7af74d885898b85cbb543ae51b63&#45;&gt;dir_d44c64559bbebec7f509842c48db8b23 -->
<g id="edge10" class="edge">
<title>dir_18ae7af74d885898b85cbb543ae51b63&#45;&gt;dir_d44c64559bbebec7f509842c48db8b23</title>
<path fill="none" stroke="#63b8ff" d="M346.7,-133C399.13,-128.85 535.63,-115.8 572,-90 587.47,-79.03 597.16,-59.18 602.53,-44.58"/>
<polygon fill="#63b8ff" stroke="#63b8ff" points="605.86,-45.68 605.71,-35.09 599.22,-43.46 605.86,-45.68"/>
<g id="a_edge10&#45;headlabel"><a xlink:href="dir_000034_000024.html" target="_top" xlink:title="188">
<text text-anchor="middle" x="607.41" y="-47.49" font-family="Helvetica,sans-Serif" font-size="10.00" fill="#63b8ff">188</text>
</a>
</g>
</g>
<!-- dir_188b878fa4ae0872503cd2ce8b484e62&#45;&gt;dir_122f4add68bb94b3fee614989bbbd8f9 -->
<g id="edge12" class="edge">
<title>dir_188b878fa4ae0872503cd2ce8b484e62&#45;&gt;dir_122f4add68bb94b3fee614989bbbd8f9</title>
<path fill="none" stroke="#63b8ff" d="M312.75,-70.95C309.39,-67.96 305.28,-64.89 301,-63 222.13,-28.27 190.96,-54.26 102.49,-34.53"/>
<polygon fill="#63b8ff" stroke="#63b8ff" points="103.12,-31.09 92.58,-32.19 101.51,-37.9 103.12,-31.09"/>
<g id="a_edge12&#45;headlabel"><a xlink:href="dir_000040_000015.html" target="_top" xlink:title="1">
<text text-anchor="middle" x="107.27" y="-26.65" font-family="Helvetica,sans-Serif" font-size="10.00" fill="#63b8ff">1</text>
</a>
</g>
</g>
<!-- dir_188b878fa4ae0872503cd2ce8b484e62&#45;&gt;dir_2d29d7dff7c7baf1180920f6796c23ae -->
<g id="edge13" class="edge">
<title>dir_188b878fa4ae0872503cd2ce8b484e62&#45;&gt;dir_2d29d7dff7c7baf1180920f6796c23ae</title>
<path fill="none" stroke="#63b8ff" d="M312.31,-70.72C309.01,-67.86 305.07,-64.92 301,-63 244.41,-36.34 221.77,-49.69 157.08,-34.94"/>
<polygon fill="#63b8ff" stroke="#63b8ff" points="157.76,-31.5 147.22,-32.55 156.11,-38.3 157.76,-31.5"/>
<g id="a_edge13&#45;headlabel"><a xlink:href="dir_000040_000022.html" target="_top" xlink:title="5">
<text text-anchor="middle" x="161.92" y="-27.09" font-family="Helvetica,sans-Serif" font-size="10.00" fill="#63b8ff">5</text>
</a>
</g>
</g>
<!-- dir_188b878fa4ae0872503cd2ce8b484e62&#45;&gt;dir_3dcea8250b5ce8d5bc595fbbad3e8f21 -->
<g id="edge14" class="edge">
<title>dir_188b878fa4ae0872503cd2ce8b484e62&#45;&gt;dir_3dcea8250b5ce8d5bc595fbbad3e8f21</title>
<path fill="none" stroke="#63b8ff" d="M312.78,-70.89C309.42,-67.89 305.31,-64.83 301,-63 202.28,-21.1 163.75,-58.24 55.89,-34.89"/>
<polygon fill="#63b8ff" stroke="#63b8ff" points="56.46,-31.43 45.93,-32.61 54.9,-38.25 56.46,-31.43"/>
<g id="a_edge14&#45;headlabel"><a xlink:href="dir_000040_000027.html" target="_top" xlink:title="2">
<text text-anchor="middle" x="60.6" y="-26.97" font-family="Helvetica,sans-Serif" font-size="10.00" fill="#63b8ff">2</text>
</a>
</g>
</g>
<!-- dir_188b878fa4ae0872503cd2ce8b484e62&#45;&gt;dir_4261af1259721e3e39e0d2dd7354b511 -->
<g id="edge15" class="edge">
<title>dir_188b878fa4ae0872503cd2ce8b484e62&#45;&gt;dir_4261af1259721e3e39e0d2dd7354b511</title>
<path fill="none" stroke="#63b8ff" d="M329.73,-70.81C333.03,-67.95 336.97,-65 341,-63 387.3,-40.09 405.75,-47.28 459.23,-35.27"/>
<polygon fill="#63b8ff" stroke="#63b8ff" points="460.33,-38.61 469.26,-32.89 458.72,-31.8 460.33,-38.61"/>
<g id="a_edge15&#45;headlabel"><a xlink:href="dir_000040_000013.html" target="_top" xlink:title="2">
<text text-anchor="middle" x="457.49" y="-39.7" font-family="Helvetica,sans-Serif" font-size="10.00" fill="#63b8ff">2</text>
</a>
</g>
</g>
<!-- dir_188b878fa4ae0872503cd2ce8b484e62&#45;&gt;dir_4c8befd6991d7a2e9d66c427274b8c22 -->
<g id="edge16" class="edge">
<title>dir_188b878fa4ae0872503cd2ce8b484e62&#45;&gt;dir_4c8befd6991d7a2e9d66c427274b8c22</title>
<path fill="none" stroke="#63b8ff" d="M329.26,-70.98C332.62,-67.99 336.73,-64.91 341,-63 413.96,-30.42 443.17,-53.75 523.93,-35.02"/>
<polygon fill="#63b8ff" stroke="#63b8ff" points="525.18,-38.32 534.05,-32.53 523.5,-31.53 525.18,-38.32"/>
<g id="a_edge16&#45;headlabel"><a xlink:href="dir_000040_000030.html" target="_top" xlink:title="5">
<text text-anchor="middle" x="522.37" y="-39.44" font-family="Helvetica,sans-Serif" font-size="10.00" fill="#63b8ff">5</text>
</a>
</g>
</g>
<!-- dir_188b878fa4ae0872503cd2ce8b484e62&#45;&gt;dir_4f691f982165d1317925cee58b4b4f56 -->
<g id="edge17" class="edge">
<title>dir_188b878fa4ae0872503cd2ce8b484e62&#45;&gt;dir_4f691f982165d1317925cee58b4b4f56</title>
<path fill="none" stroke="#63b8ff" d="M326.12,-70.75C330.36,-63.49 336.53,-52.95 341.78,-43.98"/>
<polygon fill="#63b8ff" stroke="#63b8ff" points="344.95,-45.49 346.98,-35.09 338.91,-41.95 344.95,-45.49"/>
<g id="a_edge17&#45;headlabel"><a xlink:href="dir_000040_000044.html" target="_top" xlink:title="5">
<text text-anchor="middle" x="345.58" y="-47.52" font-family="Helvetica,sans-Serif" font-size="10.00" fill="#63b8ff">5</text>
</a>
</g>
</g>
<!-- dir_188b878fa4ae0872503cd2ce8b484e62&#45;&gt;dir_5427940bb9029915fc0c11c1284afde6 -->
<g id="edge18" class="edge">
<title>dir_188b878fa4ae0872503cd2ce8b484e62&#45;&gt;dir_5427940bb9029915fc0c11c1284afde6</title>
<path fill="none" stroke="#63b8ff" d="M330.36,-70.88C333.59,-68.15 337.32,-65.27 341,-63 356.39,-53.52 374.68,-45.2 390.16,-38.91"/>
<polygon fill="#63b8ff" stroke="#63b8ff" points="391.86,-42 399.88,-35.07 389.29,-35.49 391.86,-42"/>
<g id="a_edge18&#45;headlabel"><a xlink:href="dir_000040_000016.html" target="_top" xlink:title="7">
<text text-anchor="middle" x="389.56" y="-43.46" font-family="Helvetica,sans-Serif" font-size="10.00" fill="#63b8ff">7</text>
</a>
</g>
</g>
<!-- dir_188b878fa4ae0872503cd2ce8b484e62&#45;&gt;dir_fdedb0aba14d44ce9d99bc100e026e6a -->
<g id="edge21" class="edge">
<title>dir_188b878fa4ae0872503cd2ce8b484e62&#45;&gt;dir_fdedb0aba14d44ce9d99bc100e026e6a</title>
<path fill="none" stroke="#63b8ff" d="M311.75,-70.7C308.52,-67.96 304.77,-65.11 301,-63 280.13,-51.31 254.87,-42.43 234.25,-36.36"/>
<polygon fill="#63b8ff" stroke="#63b8ff" points="235.11,-32.97 224.53,-33.6 233.2,-39.7 235.11,-32.97"/>
<g id="a_edge21&#45;headlabel"><a xlink:href="dir_000040_000010.html" target="_top" xlink:title="3">
<text text-anchor="middle" x="239.34" y="-28.72" font-family="Helvetica,sans-Serif" font-size="10.00" fill="#63b8ff">3</text>
</a>
</g>
</g>
<!-- dir_188b878fa4ae0872503cd2ce8b484e62&#45;&gt;dir_a2b23ad3d4048fef2ffce6bed40d1385 -->
<g id="edge19" class="edge">
<title>dir_188b878fa4ae0872503cd2ce8b484e62&#45;&gt;dir_a2b23ad3d4048fef2ffce6bed40d1385</title>
<path fill="none" stroke="#63b8ff" d="M313.4,-70.75C306.84,-63.18 297.18,-52.05 289.19,-42.84"/>
<polygon fill="#63b8ff" stroke="#63b8ff" points="291.65,-40.35 282.45,-35.09 286.37,-44.94 291.65,-40.35"/>
<g id="a_edge19&#45;headlabel"><a xlink:href="dir_000040_000018.html" target="_top" xlink:title="2">
<text text-anchor="middle" x="296.15" y="-38.7" font-family="Helvetica,sans-Serif" font-size="10.00" fill="#63b8ff">2</text>
</a>
</g>
</g>
<!-- dir_188b878fa4ae0872503cd2ce8b484e62&#45;&gt;dir_d44c64559bbebec7f509842c48db8b23 -->
<g id="edge20" class="edge">
<title>dir_188b878fa4ae0872503cd2ce8b484e62&#45;&gt;dir_d44c64559bbebec7f509842c48db8b23</title>
<path fill="none" stroke="#63b8ff" d="M329.23,-70.9C332.59,-67.91 336.7,-64.84 341,-63 434.69,-22.93 470.45,-52.77 571.85,-35.58"/>
<polygon fill="#63b8ff" stroke="#63b8ff" points="572.66,-38.99 581.87,-33.76 571.41,-32.1 572.66,-38.99"/>
<g id="a_edge20&#45;headlabel"><a xlink:href="dir_000040_000024.html" target="_top" xlink:title="83">
<text text-anchor="middle" x="569.63" y="-39.92" font-family="Helvetica,sans-Serif" font-size="10.00" fill="#63b8ff">83</text>
</a>
</g>
</g>
</g>
</svg>
        <g id="navigator" transform="translate(0 0)" fill="#404254">
                <rect fill="#f2f5e9" fill-opacity="0.5" stroke="#606060" stroke-width=".5" x="0" y="0" width="60" height="60"/>
                <use id="zoomplus" xlink:href="#zoomPlus" x="17" y="9" onmousedown="handleZoom(evt,'in')"/>
                <use id="zoomminus" xlink:href="#zoomMin" x="42" y="9" onmousedown="handleZoom(evt,'out')"/>
                <use id="reset" xlink:href="#resetDef" x="30" y="36" onmousedown="handleReset()"/>
                <g id="arrowUp" xlink:href="#dirArrow" transform="translate(30 24)" onmousedown="handlePan(0,-1)">
                  <use xlink:href="#rim" fill="#404040">
                        <set attributeName="fill" to="#808080" begin="arrowUp.mouseover" end="arrowUp.mouseout"/>
                  </use>
                  <path fill="none" stroke="white" stroke-width="1.5" d="M0,-3.0v7 M-2.5,-0.5L0,-3.0L2.5,-0.5"/>
                </g>
                <g id="arrowRight" xlink:href="#dirArrow" transform="rotate(90) translate(36 -43)" onmousedown="handlePan(1,0)">
                  <use xlink:href="#rim" fill="#404040">
                        <set attributeName="fill" to="#808080" begin="arrowRight.mouseover" end="arrowRight.mouseout"/>
                  </use>
                  <path fill="none" stroke="white" stroke-width="1.5" d="M0,-3.0v7 M-2.5,-0.5L0,-3.0L2.5,-0.5"/>
                </g>
                <g id="arrowDown" xlink:href="#dirArrow" transform="rotate(180) translate(-30 -48)" onmousedown="handlePan(0,1)">
                  <use xlink:href="#rim" fill="#404040">
                        <set attributeName="fill" to="#808080" begin="arrowDown.mouseover" end="arrowDown.mouseout"/>
                  </use>
                  <path fill="none" stroke="white" stroke-width="1.5" d="M0,-3.0v7 M-2.5,-0.5L0,-3.0L2.5,-0.5"/>
                </g>
                <g id="arrowLeft" xlink:href="#dirArrow" transform="rotate(270) translate(-36 17)" onmousedown="handlePan(-1,0)">
                  <use xlink:href="#rim" fill="#404040">
                        <set attributeName="fill" to="#808080" begin="arrowLeft.mouseover" end="arrowLeft.mouseout"/>
                  </use>
                  <path fill="none" stroke="white" stroke-width="1.5" d="M0,-3.0v7 M-2.5,-0.5L0,-3.0L2.5,-0.5"/>
                </g>
        </g>
        <svg viewBox="0 0 15 15" width="100%" height="30px" preserveAspectRatio="xMaxYMin meet">
         <g id="arrow_out" transform="scale(0.3 0.3)">
          <a xlink:href="dir_18ae7af74d885898b85cbb543ae51b63_dep_org.svg" target="_base">
           <rect id="button" ry="5" rx="5" y="6" x="6" height="38" width="38"
                fill="#f2f5e9" fill-opacity="0.5" stroke="#606060" stroke-width="1.0"/>
           <path id="arrow"
             d="M 11.500037,31.436501 C 11.940474,20.09759 22.043105,11.32322 32.158766,21.979434 L 37.068811,17.246167 C 37.068811,17.246167 37.088388,32 37.088388,32 L 22.160133,31.978069 C 22.160133,31.978069 26.997745,27.140456 26.997745,27.140456 C 18.528582,18.264221 13.291696,25.230495 11.500037,31.436501 z"
             style="fill:#404040;"/>
          </a>
         </g>
        </svg>
</svg>
