<?xml version="1.0" encoding="UTF-8" standalone="no"?>
<!DOCTYPE svg PUBLIC "-//W3C//DTD SVG 1.1//EN"
 "http://www.w3.org/Graphics/SVG/1.1/DTD/svg11.dtd">
<!-- Generated by graphviz version 2.43.0 (0)
 -->
<!-- Title: include/ccf Pages: 1 -->
<svg width="326pt" height="424pt"
 viewBox="0.00 0.00 326.00 424.00" xmlns="http://www.w3.org/2000/svg" xmlns:xlink="http://www.w3.org/1999/xlink">
<g id="graph0" class="graph" transform="scale(1 1) rotate(0) translate(4 420)">
<title>include/ccf</title>
<g id="clust1" class="cluster">
<title>clusterdir_d44c64559bbebec7f509842c48db8b23</title>
<g id="a_clust1"><a xlink:href="dir_d44c64559bbebec7f509842c48db8b23.html" target="_top" xlink:title="include">
<polygon fill="#edf0f7" stroke="#404040" stroke-dasharray="5,2" points="8,-8 8,-408 310,-408 310,-8 8,-8"/>
<text text-anchor="middle" x="159" y="-396" font-family="Helvetica,sans-Serif" font-size="10.00">include</text>
</a>
</g>
</g>
<g id="clust2" class="cluster">
<title>clusterdir_c3d33925c9fc81f340cd5350e8f8562d</title>
<g id="a_clust2"><a xlink:href="dir_c3d33925c9fc81f340cd5350e8f8562d.html" target="_top">
<polygon fill="#edf0f7" stroke="#404040" stroke-width="2" points="16,-16 16,-381 302,-381 302,-16 16,-16"/>
</a>
</g>
</g>
<!-- dir_c3d33925c9fc81f340cd5350e8f8562d -->
<g id="node1" class="node">
<title>dir_c3d33925c9fc81f340cd5350e8f8562d</title>
<text text-anchor="middle" x="229" y="-361" font-family="Helvetica,sans-Serif" font-size="10.00">ccf</text>
</g>
<!-- dir_718cb05e94fb01aeb88649f9185845a8 -->
<g id="node2" class="node">
<title>dir_718cb05e94fb01aeb88649f9185845a8</title>
<g id="a_node2"><a xlink:href="dir_718cb05e94fb01aeb88649f9185845a8.html" target="_top" xlink:title="crypto">
<polygon fill="#a2b4d6" stroke="#404040" points="111.5,-263 64.5,-263 64.5,-244 111.5,-244 111.5,-263"/>
<text text-anchor="middle" x="88" y="-251" font-family="Helvetica,sans-Serif" font-size="10.00">crypto</text>
</a>
</g>
</g>
<!-- dir_c3d33925c9fc81f340cd5350e8f8562d&#45;&gt;dir_718cb05e94fb01aeb88649f9185845a8 -->
<g id="edge3" class="edge">
<title>dir_c3d33925c9fc81f340cd5350e8f8562d&#45;&gt;dir_718cb05e94fb01aeb88649f9185845a8</title>
<path fill="none" stroke="#63b8ff" d="M213.46,-360.23C189.61,-355.98 143.83,-344.73 116,-318 103.38,-305.88 96.07,-287.08 92.11,-273.08"/>
<polygon fill="#63b8ff" stroke="#63b8ff" points="95.43,-271.95 89.6,-263.1 88.64,-273.65 95.43,-271.95"/>
<g id="a_edge3&#45;headlabel"><a xlink:href="dir_000007_000012.html" target="_top" xlink:title="26">
<text text-anchor="middle" x="99.06" y="-272.25" font-family="Helvetica,sans-Serif" font-size="10.00" fill="#63b8ff">26</text>
</a>
</g>
</g>
<!-- dir_cabae42bbc2bbaf21b45af6b92ef62e9 -->
<g id="node3" class="node">
<title>dir_cabae42bbc2bbaf21b45af6b92ef62e9</title>
<g id="a_node3"><a xlink:href="dir_cabae42bbc2bbaf21b45af6b92ef62e9.html" target="_top" xlink:title="ds">
<polygon fill="#a2b4d6" stroke="#404040" points="94.5,-43 65.5,-43 65.5,-24 94.5,-24 94.5,-43"/>
<text text-anchor="middle" x="80" y="-31" font-family="Helvetica,sans-Serif" font-size="10.00">ds</text>
</a>
</g>
</g>
<!-- dir_c3d33925c9fc81f340cd5350e8f8562d&#45;&gt;dir_cabae42bbc2bbaf21b45af6b92ef62e9 -->
<g id="edge7" class="edge">
<title>dir_c3d33925c9fc81f340cd5350e8f8562d&#45;&gt;dir_cabae42bbc2bbaf21b45af6b92ef62e9</title>
<path fill="none" stroke="#63b8ff" d="M238.72,-353.74C256.62,-336.59 293,-296.56 293,-254.5 293,-254.5 293,-254.5 293,-142.5 293,-58.93 160.96,-40.01 104.8,-35.74"/>
<polygon fill="#63b8ff" stroke="#63b8ff" points="104.85,-32.23 94.64,-35.06 104.39,-39.22 104.85,-32.23"/>
<g id="a_edge7&#45;headlabel"><a xlink:href="dir_000007_000014.html" target="_top" xlink:title="53">
<text text-anchor="middle" x="108.62" y="-27.14" font-family="Helvetica,sans-Serif" font-size="10.00" fill="#63b8ff">53</text>
</a>
</g>
</g>
<!-- dir_4a0fc6681dca2b862f3992ee55641a58 -->
<g id="node4" class="node">
<title>dir_4a0fc6681dca2b862f3992ee55641a58</title>
<g id="a_node4"><a xlink:href="dir_4a0fc6681dca2b862f3992ee55641a58.html" target="_top" xlink:title="endpoints">
<polygon fill="#a2b4d6" stroke="#404040" points="189.5,-318 124.5,-318 124.5,-299 189.5,-299 189.5,-318"/>
<text text-anchor="middle" x="157" y="-306" font-family="Helvetica,sans-Serif" font-size="10.00">endpoints</text>
</a>
</g>
</g>
<!-- dir_c3d33925c9fc81f340cd5350e8f8562d&#45;&gt;dir_4a0fc6681dca2b862f3992ee55641a58 -->
<g id="edge2" class="edge">
<title>dir_c3d33925c9fc81f340cd5350e8f8562d&#45;&gt;dir_4a0fc6681dca2b862f3992ee55641a58</title>
<path fill="none" stroke="#63b8ff" d="M217.43,-353.98C206.58,-346 190.12,-333.88 177.12,-324.31"/>
<polygon fill="#63b8ff" stroke="#63b8ff" points="178.91,-321.28 168.78,-318.17 174.76,-326.92 178.91,-321.28"/>
<g id="a_edge2&#45;headlabel"><a xlink:href="dir_000007_000017.html" target="_top" xlink:title="5">
<text text-anchor="middle" x="183.48" y="-318.62" font-family="Helvetica,sans-Serif" font-size="10.00" fill="#63b8ff">5</text>
</a>
</g>
</g>
<!-- dir_819655030cf20c915c390b67ba1c0d03 -->
<g id="node5" class="node">
<title>dir_819655030cf20c915c390b67ba1c0d03</title>
<g id="a_node5"><a xlink:href="dir_819655030cf20c915c390b67ba1c0d03.html" target="_top" xlink:title="indexing">
<polygon fill="#a2b4d6" stroke="#404040" points="253.5,-208 194.5,-208 194.5,-189 253.5,-189 253.5,-208"/>
<text text-anchor="middle" x="224" y="-196" font-family="Helvetica,sans-Serif" font-size="10.00">indexing</text>
</a>
</g>
</g>
<!-- dir_c3d33925c9fc81f340cd5350e8f8562d&#45;&gt;dir_819655030cf20c915c390b67ba1c0d03 -->
<g id="edge4" class="edge">
<title>dir_c3d33925c9fc81f340cd5350e8f8562d&#45;&gt;dir_819655030cf20c915c390b67ba1c0d03</title>
<path fill="none" stroke="#63b8ff" d="M230.27,-353.85C232.94,-334.23 238.54,-284.93 234,-244 233.04,-235.34 231.06,-225.91 229.11,-217.97"/>
<polygon fill="#63b8ff" stroke="#63b8ff" points="232.49,-217.06 226.57,-208.27 225.72,-218.83 232.49,-217.06"/>
<g id="a_edge4&#45;headlabel"><a xlink:href="dir_000007_000025.html" target="_top" xlink:title="1">
<text text-anchor="middle" x="236.15" y="-217.32" font-family="Helvetica,sans-Serif" font-size="10.00" fill="#63b8ff">1</text>
</a>
</g>
</g>
<!-- dir_9101985d24c2f692df501a09f2c284d0 -->
<g id="node6" class="node">
<title>dir_9101985d24c2f692df501a09f2c284d0</title>
<g id="a_node6"><a xlink:href="dir_9101985d24c2f692df501a09f2c284d0.html" target="_top" xlink:title="kv">
<polygon fill="#a2b4d6" stroke="#404040" points="164.5,-98 135.5,-98 135.5,-79 164.5,-79 164.5,-98"/>
<text text-anchor="middle" x="150" y="-86" font-family="Helvetica,sans-Serif" font-size="10.00">kv</text>
</a>
</g>
</g>
<!-- dir_c3d33925c9fc81f340cd5350e8f8562d&#45;&gt;dir_9101985d24c2f692df501a09f2c284d0 -->
<g id="edge5" class="edge">
<title>dir_c3d33925c9fc81f340cd5350e8f8562d&#45;&gt;dir_9101985d24c2f692df501a09f2c284d0</title>
<path fill="none" stroke="#63b8ff" d="M235.3,-353.75C247.47,-335.98 273,-293.98 273,-254.5 273,-254.5 273,-254.5 273,-197.5 273,-145.51 210.19,-112.67 174.34,-98.17"/>
<polygon fill="#63b8ff" stroke="#63b8ff" points="175.18,-94.74 164.59,-94.4 172.66,-101.27 175.18,-94.74"/>
<g id="a_edge5&#45;headlabel"><a xlink:href="dir_000007_000029.html" target="_top" xlink:title="21">
<text text-anchor="middle" x="179.56" y="-90.89" font-family="Helvetica,sans-Serif" font-size="10.00" fill="#63b8ff">21</text>
</a>
</g>
</g>
<!-- dir_36f22bdf0117f38e86252516d12afdac -->
<g id="node8" class="node">
<title>dir_36f22bdf0117f38e86252516d12afdac</title>
<g id="a_node8"><a xlink:href="dir_36f22bdf0117f38e86252516d12afdac.html" target="_top" xlink:title="pal">
<polygon fill="#a2b4d6" stroke="#404040" points="131,-153 99,-153 99,-134 131,-134 131,-153"/>
<text text-anchor="middle" x="115" y="-141" font-family="Helvetica,sans-Serif" font-size="10.00">pal</text>
</a>
</g>
</g>
<!-- dir_c3d33925c9fc81f340cd5350e8f8562d&#45;&gt;dir_36f22bdf0117f38e86252516d12afdac -->
<g id="edge1" class="edge">
<title>dir_c3d33925c9fc81f340cd5350e8f8562d&#45;&gt;dir_36f22bdf0117f38e86252516d12afdac</title>
<path fill="none" stroke="#63b8ff" d="M227.42,-353.84C222.26,-327.19 203.88,-244.86 165,-189 157.09,-177.64 145.72,-167.22 135.82,-159.32"/>
<polygon fill="#63b8ff" stroke="#63b8ff" points="137.69,-156.35 127.62,-153.07 133.45,-161.92 137.69,-156.35"/>
<g id="a_edge1&#45;headlabel"><a xlink:href="dir_000007_000036.html" target="_top" xlink:title="9">
<text text-anchor="middle" x="142.27" y="-153.77" font-family="Helvetica,sans-Serif" font-size="10.00" fill="#63b8ff">9</text>
</a>
</g>
</g>
<!-- dir_a0bd5b61e2f393f7cb26e530f5604320 -->
<g id="node10" class="node">
<title>dir_a0bd5b61e2f393f7cb26e530f5604320</title>
<g id="a_node10"><a xlink:href="dir_a0bd5b61e2f393f7cb26e530f5604320.html" target="_top" xlink:title="service">
<polygon fill="#a2b4d6" stroke="#404040" points="156,-208 104,-208 104,-189 156,-189 156,-208"/>
<text text-anchor="middle" x="130" y="-196" font-family="Helvetica,sans-Serif" font-size="10.00">service</text>
</a>
</g>
</g>
<!-- dir_c3d33925c9fc81f340cd5350e8f8562d&#45;&gt;dir_a0bd5b61e2f393f7cb26e530f5604320 -->
<g id="edge6" class="edge">
<title>dir_c3d33925c9fc81f340cd5350e8f8562d&#45;&gt;dir_a0bd5b61e2f393f7cb26e530f5604320</title>
<path fill="none" stroke="#63b8ff" d="M225.33,-353.66C220.04,-341.2 209.72,-317.87 199,-299 184.44,-273.39 178.82,-268.18 162,-244 155.61,-234.82 148.35,-224.69 142.36,-216.42"/>
<polygon fill="#63b8ff" stroke="#63b8ff" points="145.17,-214.34 136.46,-208.31 139.51,-218.45 145.17,-214.34"/>
<g id="a_edge6&#45;headlabel"><a xlink:href="dir_000007_000043.html" target="_top" xlink:title="14">
<text text-anchor="middle" x="149.58" y="-213.07" font-family="Helvetica,sans-Serif" font-size="10.00" fill="#63b8ff">14</text>
</a>
</g>
</g>
<!-- dir_718cb05e94fb01aeb88649f9185845a8&#45;&gt;dir_cabae42bbc2bbaf21b45af6b92ef62e9 -->
<g id="edge10" class="edge">
<title>dir_718cb05e94fb01aeb88649f9185845a8&#45;&gt;dir_cabae42bbc2bbaf21b45af6b92ef62e9</title>
<path fill="none" stroke="#63b8ff" d="M82.21,-243.84C72.32,-218.5 59.05,-142.3 64,-79 64.67,-70.42 66.06,-61 68.13,-53.04"/>
<polygon fill="#63b8ff" stroke="#63b8ff" points="71.54,-53.91 71.39,-43.32 64.9,-51.69 71.54,-53.91"/>
<g id="a_edge10&#45;headlabel"><a xlink:href="dir_000012_000014.html" target="_top" xlink:title="9">
<text text-anchor="middle" x="73.09" y="-55.72" font-family="Helvetica,sans-Serif" font-size="10.00" fill="#63b8ff">9</text>
</a>
</g>
</g>
<!-- dir_718cb05e94fb01aeb88649f9185845a8&#45;&gt;dir_36f22bdf0117f38e86252516d12afdac -->
<g id="edge8" class="edge">
<title>dir_718cb05e94fb01aeb88649f9185845a8&#45;&gt;dir_36f22bdf0117f38e86252516d12afdac</title>
<path fill="none" stroke="#63b8ff" d="M82.13,-243.71C79.45,-231.31 80.81,-208.05 86,-189 88.56,-179.6 92.86,-169.67 97.63,-161.58"/>
<polygon fill="#63b8ff" stroke="#63b8ff" points="100.68,-163.31 103.37,-153.06 94.88,-159.4 100.68,-163.31"/>
<g id="a_edge8&#45;headlabel"><a xlink:href="dir_000012_000036.html" target="_top" xlink:title="1">
<text text-anchor="middle" x="101.02" y="-165.38" font-family="Helvetica,sans-Serif" font-size="10.00" fill="#63b8ff">1</text>
</a>
</g>
</g>
<!-- dir_718cb05e94fb01aeb88649f9185845a8&#45;&gt;dir_a0bd5b61e2f393f7cb26e530f5604320 -->
<g id="edge9" class="edge">
<title>dir_718cb05e94fb01aeb88649f9185845a8&#45;&gt;dir_a0bd5b61e2f393f7cb26e530f5604320</title>
<path fill="none" stroke="#63b8ff" d="M89.77,-243.75C94.18,-236.11 102.76,-224.82 111.01,-215.56"/>
<polygon fill="#63b8ff" stroke="#63b8ff" points="113.74,-217.76 118.06,-208.09 108.65,-212.96 113.74,-217.76"/>
<g id="a_edge9&#45;headlabel"><a xlink:href="dir_000012_000043.html" target="_top" xlink:title="1">
<text text-anchor="middle" x="113.34" y="-219.83" font-family="Helvetica,sans-Serif" font-size="10.00" fill="#63b8ff">1</text>
</a>
</g>
</g>
<!-- dir_cabae42bbc2bbaf21b45af6b92ef62e9&#45;&gt;dir_718cb05e94fb01aeb88649f9185845a8 -->
<g id="edge11" class="edge">
<title>dir_cabae42bbc2bbaf21b45af6b92ef62e9&#45;&gt;dir_718cb05e94fb01aeb88649f9185845a8</title>
<path fill="none" stroke="#63b8ff" d="M85,-43.32C85.47,-52.26 82.98,-66.52 82,-79 77.59,-135.37 87.63,-201.98 89.85,-233.78"/>
<polygon fill="#63b8ff" stroke="#63b8ff" points="86.36,-233.99 90.27,-243.84 93.35,-233.7 86.36,-233.99"/>
<g id="a_edge11&#45;headlabel"><a xlink:href="dir_000014_000012.html" target="_top" xlink:title="1">
<text text-anchor="middle" x="83.37" y="-228.02" font-family="Helvetica,sans-Serif" font-size="10.00" fill="#63b8ff">1</text>
</a>
</g>
</g>
<!-- dir_4a0fc6681dca2b862f3992ee55641a58&#45;&gt;dir_718cb05e94fb01aeb88649f9185845a8 -->
<g id="edge12" class="edge">
<title>dir_4a0fc6681dca2b862f3992ee55641a58&#45;&gt;dir_718cb05e94fb01aeb88649f9185845a8</title>
<path fill="none" stroke="#63b8ff" d="M145.91,-298.98C135.51,-291 119.74,-278.88 107.28,-269.31"/>
<polygon fill="#63b8ff" stroke="#63b8ff" points="109.35,-266.49 99.29,-263.17 105.09,-272.04 109.35,-266.49"/>
<g id="a_edge12&#45;headlabel"><a xlink:href="dir_000017_000012.html" target="_top" xlink:title="1">
<text text-anchor="middle" x="113.93" y="-263.92" font-family="Helvetica,sans-Serif" font-size="10.00" fill="#63b8ff">1</text>
</a>
</g>
</g>
<!-- dir_4a0fc6681dca2b862f3992ee55641a58&#45;&gt;dir_a0bd5b61e2f393f7cb26e530f5604320 -->
<g id="edge13" class="edge">
<title>dir_4a0fc6681dca2b862f3992ee55641a58&#45;&gt;dir_a0bd5b61e2f393f7cb26e530f5604320</title>
<path fill="none" stroke="#63b8ff" d="M158.25,-298.67C159.7,-286.22 161.28,-262.9 156,-244 153.27,-234.21 147.84,-224.35 142.65,-216.41"/>
<polygon fill="#63b8ff" stroke="#63b8ff" points="145.44,-214.28 136.84,-208.08 139.7,-218.29 145.44,-214.28"/>
<g id="a_edge13&#45;headlabel"><a xlink:href="dir_000017_000043.html" target="_top" xlink:title="1">
<text text-anchor="middle" x="149.82" y="-213.1" font-family="Helvetica,sans-Serif" font-size="10.00" fill="#63b8ff">1</text>
</a>
</g>
</g>
<!-- dir_819655030cf20c915c390b67ba1c0d03&#45;&gt;dir_9101985d24c2f692df501a09f2c284d0 -->
<g id="edge14" class="edge">
<title>dir_819655030cf20c915c390b67ba1c0d03&#45;&gt;dir_9101985d24c2f692df501a09f2c284d0</title>
<path fill="none" stroke="#63b8ff" d="M217.94,-188.66C205.69,-170.77 177.75,-130 161.78,-106.69"/>
<polygon fill="#63b8ff" stroke="#63b8ff" points="164.47,-104.43 155.93,-98.16 158.7,-108.39 164.47,-104.43"/>
<g id="a_edge14&#45;headlabel"><a xlink:href="dir_000025_000029.html" target="_top" xlink:title="1">
<text text-anchor="middle" x="168.85" y="-103.29" font-family="Helvetica,sans-Serif" font-size="10.00" fill="#63b8ff">1</text>
</a>
</g>
</g>
<!-- dir_819655030cf20c915c390b67ba1c0d03&#45;&gt;dir_36f22bdf0117f38e86252516d12afdac -->
<g id="edge15" class="edge">
<title>dir_819655030cf20c915c390b67ba1c0d03&#45;&gt;dir_36f22bdf0117f38e86252516d12afdac</title>
<path fill="none" stroke="#63b8ff" d="M206.49,-188.98C188.51,-180.24 160.37,-166.56 140.05,-156.68"/>
<polygon fill="#63b8ff" stroke="#63b8ff" points="141.57,-153.53 131.05,-152.3 138.51,-159.82 141.57,-153.53"/>
<g id="a_edge15&#45;headlabel"><a xlink:href="dir_000025_000036.html" target="_top" xlink:title="2">
<text text-anchor="middle" x="146.05" y="-150.05" font-family="Helvetica,sans-Serif" font-size="10.00" fill="#63b8ff">2</text>
</a>
</g>
</g>
<!-- dir_9101985d24c2f692df501a09f2c284d0&#45;&gt;dir_cabae42bbc2bbaf21b45af6b92ef62e9 -->
<g id="edge16" class="edge">
<title>dir_9101985d24c2f692df501a09f2c284d0&#45;&gt;dir_cabae42bbc2bbaf21b45af6b92ef62e9</title>
<path fill="none" stroke="#63b8ff" d="M138.75,-78.98C128.2,-71 112.2,-58.88 99.56,-49.31"/>
<polygon fill="#63b8ff" stroke="#63b8ff" points="101.54,-46.42 91.45,-43.17 97.31,-52 101.54,-46.42"/>
<g id="a_edge16&#45;headlabel"><a xlink:href="dir_000029_000014.html" target="_top" xlink:title="1">
<text text-anchor="middle" x="106.12" y="-43.82" font-family="Helvetica,sans-Serif" font-size="10.00" fill="#63b8ff">1</text>
</a>
</g>
</g>
<!-- dir_e4d7f7a88037af12eae8bd997a8823fc -->
<g id="node7" class="node">
<title>dir_e4d7f7a88037af12eae8bd997a8823fc</title>
<g id="a_node7"><a xlink:href="dir_e4d7f7a88037af12eae8bd997a8823fc.html" target="_top" xlink:title="node">
<polygon fill="#a2b4d6" stroke="#404040" points="65.5,-318 24.5,-318 24.5,-299 65.5,-299 65.5,-318"/>
<text text-anchor="middle" x="45" y="-306" font-family="Helvetica,sans-Serif" font-size="10.00">node</text>
</a>
</g>
</g>
<!-- dir_e4d7f7a88037af12eae8bd997a8823fc&#45;&gt;dir_718cb05e94fb01aeb88649f9185845a8 -->
<g id="edge18" class="edge">
<title>dir_e4d7f7a88037af12eae8bd997a8823fc&#45;&gt;dir_718cb05e94fb01aeb88649f9185845a8</title>
<path fill="none" stroke="#63b8ff" d="M52.1,-298.75C58.17,-291.26 67.09,-280.28 74.51,-271.13"/>
<polygon fill="#63b8ff" stroke="#63b8ff" points="77.45,-273.06 81.03,-263.09 72.01,-268.65 77.45,-273.06"/>
<g id="a_edge18&#45;headlabel"><a xlink:href="dir_000033_000012.html" target="_top" xlink:title="2">
<text text-anchor="middle" x="77.39" y="-275.14" font-family="Helvetica,sans-Serif" font-size="10.00" fill="#63b8ff">2</text>
</a>
</g>
</g>
<!-- dir_e4d7f7a88037af12eae8bd997a8823fc&#45;&gt;dir_cabae42bbc2bbaf21b45af6b92ef62e9 -->
<g id="edge20" class="edge">
<title>dir_e4d7f7a88037af12eae8bd997a8823fc&#45;&gt;dir_cabae42bbc2bbaf21b45af6b92ef62e9</title>
<path fill="none" stroke="#63b8ff" d="M42.3,-298.92C36.84,-280.77 25,-237.07 25,-199.5 25,-199.5 25,-199.5 25,-142.5 25,-106.94 48.97,-71.27 65.26,-51.12"/>
<polygon fill="#63b8ff" stroke="#63b8ff" points="68.12,-53.16 71.88,-43.25 62.77,-48.65 68.12,-53.16"/>
<g id="a_edge20&#45;headlabel"><a xlink:href="dir_000033_000014.html" target="_top" xlink:title="2">
<text text-anchor="middle" x="67.98" y="-55.24" font-family="Helvetica,sans-Serif" font-size="10.00" fill="#63b8ff">2</text>
</a>
</g>
</g>
<!-- dir_e4d7f7a88037af12eae8bd997a8823fc&#45;&gt;dir_36f22bdf0117f38e86252516d12afdac -->
<g id="edge17" class="edge">
<title>dir_e4d7f7a88037af12eae8bd997a8823fc&#45;&gt;dir_36f22bdf0117f38e86252516d12afdac</title>
<path fill="none" stroke="#63b8ff" d="M45.58,-298.63C46.61,-286.13 49.31,-262.76 56,-244 67.13,-212.79 88.42,-180.47 102.15,-161.45"/>
<polygon fill="#63b8ff" stroke="#63b8ff" points="105.09,-163.36 108.21,-153.24 99.46,-159.21 105.09,-163.36"/>
<g id="a_edge17&#45;headlabel"><a xlink:href="dir_000033_000036.html" target="_top" xlink:title="2">
<text text-anchor="middle" x="105.24" y="-165.44" font-family="Helvetica,sans-Serif" font-size="10.00" fill="#63b8ff">2</text>
</a>
</g>
</g>
<!-- dir_e4d7f7a88037af12eae8bd997a8823fc&#45;&gt;dir_a0bd5b61e2f393f7cb26e530f5604320 -->
<g id="edge19" class="edge">
<title>dir_e4d7f7a88037af12eae8bd997a8823fc&#45;&gt;dir_a0bd5b61e2f393f7cb26e530f5604320</title>
<path fill="none" stroke="#63b8ff" d="M65.68,-301.12C83.37,-294.53 107.97,-282.43 121,-263 129.82,-249.85 131.62,-231.72 131.48,-218.2"/>
<polygon fill="#63b8ff" stroke="#63b8ff" points="134.97,-217.96 131.01,-208.13 127.98,-218.28 134.97,-217.96"/>
<g id="a_edge19&#45;headlabel"><a xlink:href="dir_000033_000043.html" target="_top" xlink:title="9">
<text text-anchor="middle" x="137.97" y="-218.92" font-family="Helvetica,sans-Serif" font-size="10.00" fill="#63b8ff">9</text>
</a>
</g>
</g>
<!-- dir_36f22bdf0117f38e86252516d12afdac&#45;&gt;dir_718cb05e94fb01aeb88649f9185845a8 -->
<g id="edge21" class="edge">
<title>dir_36f22bdf0117f38e86252516d12afdac&#45;&gt;dir_718cb05e94fb01aeb88649f9185845a8</title>
<path fill="none" stroke="#63b8ff" d="M116.98,-153.06C114.49,-161.81 107.56,-175.92 104,-189 99.98,-203.73 98.26,-220.98 96.13,-233.78"/>
<polygon fill="#63b8ff" stroke="#63b8ff" points="92.68,-233.21 94.08,-243.71 99.53,-234.63 92.68,-233.21"/>
<g id="a_edge21&#45;headlabel"><a xlink:href="dir_000036_000012.html" target="_top" xlink:title="4">
<text text-anchor="middle" x="90.62" y="-226.62" font-family="Helvetica,sans-Serif" font-size="10.00" fill="#63b8ff">4</text>
</a>
</g>
</g>
<!-- dir_36f22bdf0117f38e86252516d12afdac&#45;&gt;dir_cabae42bbc2bbaf21b45af6b92ef62e9 -->
<g id="edge23" class="edge">
<title>dir_36f22bdf0117f38e86252516d12afdac&#45;&gt;dir_cabae42bbc2bbaf21b45af6b92ef62e9</title>
<path fill="none" stroke="#63b8ff" d="M112.14,-133.66C106.44,-116.09 93.59,-76.45 85.98,-52.95"/>
<polygon fill="#63b8ff" stroke="#63b8ff" points="89.22,-51.59 82.81,-43.16 82.56,-53.75 89.22,-51.59"/>
<g id="a_edge23&#45;headlabel"><a xlink:href="dir_000036_000014.html" target="_top" xlink:title="7">
<text text-anchor="middle" x="93.03" y="-51.64" font-family="Helvetica,sans-Serif" font-size="10.00" fill="#63b8ff">7</text>
</a>
</g>
</g>
<!-- dir_36f22bdf0117f38e86252516d12afdac&#45;&gt;dir_9101985d24c2f692df501a09f2c284d0 -->
<g id="edge22" class="edge">
<title>dir_36f22bdf0117f38e86252516d12afdac&#45;&gt;dir_9101985d24c2f692df501a09f2c284d0</title>
<path fill="none" stroke="#63b8ff" d="M120.78,-133.75C125.62,-126.42 132.68,-115.73 138.64,-106.7"/>
<polygon fill="#63b8ff" stroke="#63b8ff" points="141.74,-108.36 144.33,-98.09 135.9,-104.5 141.74,-108.36"/>
<g id="a_edge22&#45;headlabel"><a xlink:href="dir_000036_000029.html" target="_top" xlink:title="1">
<text text-anchor="middle" x="142.13" y="-110.43" font-family="Helvetica,sans-Serif" font-size="10.00" fill="#63b8ff">1</text>
</a>
</g>
</g>
<!-- dir_f631a8fd28da89c56f89379403be3702 -->
<g id="node9" class="node">
<title>dir_f631a8fd28da89c56f89379403be3702</title>
<g id="a_node9"><a xlink:href="dir_f631a8fd28da89c56f89379403be3702.html" target="_top" xlink:title="research">
<polygon fill="#a2b4d6" stroke="#404040" points="99.5,-373 40.5,-373 40.5,-354 99.5,-354 99.5,-373"/>
<text text-anchor="middle" x="70" y="-361" font-family="Helvetica,sans-Serif" font-size="10.00">research</text>
</a>
</g>
</g>
<!-- dir_f631a8fd28da89c56f89379403be3702&#45;&gt;dir_e4d7f7a88037af12eae8bd997a8823fc -->
<g id="edge25" class="edge">
<title>dir_f631a8fd28da89c56f89379403be3702&#45;&gt;dir_e4d7f7a88037af12eae8bd997a8823fc</title>
<path fill="none" stroke="#63b8ff" d="M65.87,-353.75C62.49,-346.57 57.58,-336.18 53.38,-327.27"/>
<polygon fill="#63b8ff" stroke="#63b8ff" points="56.48,-325.64 49.05,-318.09 50.15,-328.63 56.48,-325.64"/>
<g id="a_edge25&#45;headlabel"><a xlink:href="dir_000039_000033.html" target="_top" xlink:title="1">
<text text-anchor="middle" x="60.58" y="-325.18" font-family="Helvetica,sans-Serif" font-size="10.00" fill="#63b8ff">1</text>
</a>
</g>
</g>
<!-- dir_f631a8fd28da89c56f89379403be3702&#45;&gt;dir_a0bd5b61e2f393f7cb26e530f5604320 -->
<g id="edge24" class="edge">
<title>dir_f631a8fd28da89c56f89379403be3702&#45;&gt;dir_a0bd5b61e2f393f7cb26e530f5604320</title>
<path fill="none" stroke="#63b8ff" d="M77.25,-353.91C90.57,-337.52 118.51,-300.11 129,-263 133.13,-248.39 133.11,-231.13 132.2,-218.3"/>
<polygon fill="#63b8ff" stroke="#63b8ff" points="135.69,-217.96 131.26,-208.33 128.72,-218.62 135.69,-217.96"/>
<g id="a_edge24&#45;headlabel"><a xlink:href="dir_000039_000043.html" target="_top" xlink:title="1">
<text text-anchor="middle" x="138.85" y="-218.77" font-family="Helvetica,sans-Serif" font-size="10.00" fill="#63b8ff">1</text>
</a>
</g>
</g>
<!-- dir_a0bd5b61e2f393f7cb26e530f5604320&#45;&gt;dir_718cb05e94fb01aeb88649f9185845a8 -->
<g id="edge27" class="edge">
<title>dir_a0bd5b61e2f393f7cb26e530f5604320&#45;&gt;dir_718cb05e94fb01aeb88649f9185845a8</title>
<path fill="none" stroke="#63b8ff" d="M128.32,-208.09C123.97,-215.68 115.42,-226.95 107.17,-236.24"/>
<polygon fill="#63b8ff" stroke="#63b8ff" points="104.41,-234.07 100.1,-243.75 109.5,-238.86 104.41,-234.07"/>
<g id="a_edge27&#45;headlabel"><a xlink:href="dir_000043_000012.html" target="_top" xlink:title="13">
<text text-anchor="middle" x="104.8" y="-227" font-family="Helvetica,sans-Serif" font-size="10.00" fill="#63b8ff">13</text>
</a>
</g>
</g>
<!-- dir_a0bd5b61e2f393f7cb26e530f5604320&#45;&gt;dir_cabae42bbc2bbaf21b45af6b92ef62e9 -->
<g id="edge29" class="edge">
<title>dir_a0bd5b61e2f393f7cb26e530f5604320&#45;&gt;dir_cabae42bbc2bbaf21b45af6b92ef62e9</title>
<path fill="none" stroke="#63b8ff" d="M119.03,-188.93C109.54,-180.8 96.35,-167.68 90,-153 75.84,-120.27 76.24,-77.76 77.99,-53.57"/>
<polygon fill="#63b8ff" stroke="#63b8ff" points="81.51,-53.55 78.91,-43.28 74.53,-52.94 81.51,-53.55"/>
<g id="a_edge29&#45;headlabel"><a xlink:href="dir_000043_000014.html" target="_top" xlink:title="14">
<text text-anchor="middle" x="84.02" y="-54.89" font-family="Helvetica,sans-Serif" font-size="10.00" fill="#63b8ff">14</text>
</a>
</g>
</g>
<!-- dir_a0bd5b61e2f393f7cb26e530f5604320&#45;&gt;dir_9101985d24c2f692df501a09f2c284d0 -->
<g id="edge28" class="edge">
<title>dir_a0bd5b61e2f393f7cb26e530f5604320&#45;&gt;dir_9101985d24c2f692df501a09f2c284d0</title>
<path fill="none" stroke="#63b8ff" d="M132.16,-188.67C134.31,-179.72 137.62,-165.44 140,-153 142.85,-138.06 145.5,-121.03 147.36,-108.37"/>
<polygon fill="#63b8ff" stroke="#63b8ff" points="150.87,-108.55 148.82,-98.16 143.94,-107.56 150.87,-108.55"/>
<g id="a_edge28&#45;headlabel"><a xlink:href="dir_000043_000029.html" target="_top" xlink:title="7">
<text text-anchor="middle" x="153.17" y="-110.01" font-family="Helvetica,sans-Serif" font-size="10.00" fill="#63b8ff">7</text>
</a>
</g>
</g>
<!-- dir_a0bd5b61e2f393f7cb26e530f5604320&#45;&gt;dir_36f22bdf0117f38e86252516d12afdac -->
<g id="edge26" class="edge">
<title>dir_a0bd5b61e2f393f7cb26e530f5604320&#45;&gt;dir_36f22bdf0117f38e86252516d12afdac</title>
<path fill="none" stroke="#63b8ff" d="M127.52,-188.75C125.54,-181.72 122.68,-171.62 120.19,-162.84"/>
<polygon fill="#63b8ff" stroke="#63b8ff" points="123.52,-161.76 117.43,-153.09 116.79,-163.66 123.52,-161.76"/>
<g id="a_edge26&#45;headlabel"><a xlink:href="dir_000043_000036.html" target="_top" xlink:title="3">
<text text-anchor="middle" x="127.23" y="-161.94" font-family="Helvetica,sans-Serif" font-size="10.00" fill="#63b8ff">3</text>
</a>
</g>
</g>
</g>
</svg>
