<?xml version="1.0" encoding="UTF-8" standalone="no"?>
<!DOCTYPE svg PUBLIC "-//W3C//DTD SVG 1.1//EN"
 "http://www.w3.org/Graphics/SVG/1.1/DTD/svg11.dtd">
<!-- Generated by graphviz version 2.43.0 (0)
 -->
<!-- Title: src/service Pages: 1 -->
<svg width="230pt" height="196pt"
 viewBox="0.00 0.00 230.00 196.00" xmlns="http://www.w3.org/2000/svg" xmlns:xlink="http://www.w3.org/1999/xlink">
<g id="graph0" class="graph" transform="scale(1 1) rotate(0) translate(4 192)">
<title>src/service</title>
<g id="clust1" class="cluster">
<title>clusterdir_68267d1309a1af8e8297ef4c3efbcdba</title>
<g id="a_clust1"><a xlink:href="dir_68267d1309a1af8e8297ef4c3efbcdba.html" target="_top" xlink:title="src">
<polygon fill="#edf0f7" stroke="#404040" stroke-dasharray="5,2" points="8,-8 8,-180 162,-180 162,-8 8,-8"/>
<text text-anchor="middle" x="85" y="-168" font-family="Helvetica,sans-Serif" font-size="10.00">src</text>
</a>
</g>
</g>
<g id="clust2" class="cluster">
<title>clusterdir_4f691f982165d1317925cee58b4b4f56</title>
<g id="a_clust2"><a xlink:href="dir_4f691f982165d1317925cee58b4b4f56.html" target="_top">
<polygon fill="#edf0f7" stroke="#404040" stroke-width="2" points="86,-63 86,-153 154,-153 154,-63 86,-63"/>
</a>
</g>
</g>
<!-- dir_18ae7af74d885898b85cbb543ae51b63 -->
<g id="node1" class="node">
<title>dir_18ae7af74d885898b85cbb543ae51b63</title>
<g id="a_node1"><a xlink:href="dir_18ae7af74d885898b85cbb543ae51b63.html" target="_top" xlink:title="node">
<polygon fill="#a2b4d6" stroke="red" points="77.5,-90 36.5,-90 36.5,-71 77.5,-71 77.5,-90"/>
<text text-anchor="middle" x="57" y="-78" font-family="Helvetica,sans-Serif" font-size="10.00">node</text>
</a>
</g>
</g>
<!-- dir_4c8befd6991d7a2e9d66c427274b8c22 -->
<g id="node2" class="node">
<title>dir_4c8befd6991d7a2e9d66c427274b8c22</title>
<g id="a_node2"><a xlink:href="dir_4c8befd6991d7a2e9d66c427274b8c22.html" target="_top" xlink:title="kv">
<polygon fill="#a2b4d6" stroke="#404040" points="66.5,-35 37.5,-35 37.5,-16 66.5,-16 66.5,-35"/>
<text text-anchor="middle" x="52" y="-23" font-family="Helvetica,sans-Serif" font-size="10.00">kv</text>
</a>
</g>
</g>
<!-- dir_122f4add68bb94b3fee614989bbbd8f9 -->
<g id="node3" class="node">
<title>dir_122f4add68bb94b3fee614989bbbd8f9</title>
<g id="a_node3"><a xlink:href="dir_122f4add68bb94b3fee614989bbbd8f9.html" target="_top" xlink:title="ds">
<polygon fill="#a2b4d6" stroke="#404040" points="134.5,-35 105.5,-35 105.5,-16 134.5,-16 134.5,-35"/>
<text text-anchor="middle" x="120" y="-23" font-family="Helvetica,sans-Serif" font-size="10.00">ds</text>
</a>
</g>
</g>
<!-- dir_4f691f982165d1317925cee58b4b4f56 -->
<g id="node4" class="node">
<title>dir_4f691f982165d1317925cee58b4b4f56</title>
<text text-anchor="middle" x="120" y="-133" font-family="Helvetica,sans-Serif" font-size="10.00">service</text>
</g>
<!-- dir_4f691f982165d1317925cee58b4b4f56&#45;&gt;dir_18ae7af74d885898b85cbb543ae51b63 -->
<g id="edge1" class="edge">
<title>dir_4f691f982165d1317925cee58b4b4f56&#45;&gt;dir_18ae7af74d885898b85cbb543ae51b63</title>
<path fill="none" stroke="#63b8ff" d="M109.88,-125.98C100.56,-118.15 86.53,-106.34 75.26,-96.86"/>
<polygon fill="#63b8ff" stroke="#63b8ff" points="77.21,-93.93 67.31,-90.17 72.71,-99.29 77.21,-93.93"/>
<g id="a_edge1&#45;headlabel"><a xlink:href="dir_000044_000034.html" target="_top" xlink:title="2">
<text text-anchor="middle" x="81.79" y="-91.57" font-family="Helvetica,sans-Serif" font-size="10.00" fill="#63b8ff">2</text>
</a>
</g>
</g>
<!-- dir_4f691f982165d1317925cee58b4b4f56&#45;&gt;dir_4c8befd6991d7a2e9d66c427274b8c22 -->
<g id="edge3" class="edge">
<title>dir_4f691f982165d1317925cee58b4b4f56&#45;&gt;dir_4c8befd6991d7a2e9d66c427274b8c22</title>
<path fill="none" stroke="#63b8ff" d="M93.61,-129.83C71.57,-124.39 41.5,-113.02 27,-90 17.67,-75.2 27.42,-56.35 37.35,-43.04"/>
<polygon fill="#63b8ff" stroke="#63b8ff" points="40.12,-45.17 43.69,-35.2 34.68,-40.77 40.12,-45.17"/>
<g id="a_edge3&#45;headlabel"><a xlink:href="dir_000044_000030.html" target="_top" xlink:title="3">
<text text-anchor="middle" x="40.07" y="-47.25" font-family="Helvetica,sans-Serif" font-size="10.00" fill="#63b8ff">3</text>
</a>
</g>
</g>
<!-- dir_190b1a7091905d6645ff11527a73ae33 -->
<g id="node5" class="node">
<title>dir_190b1a7091905d6645ff11527a73ae33</title>
<g id="a_node5"><a xlink:href="dir_190b1a7091905d6645ff11527a73ae33.html" target="_top" xlink:title="tables">
<polygon fill="#a2b4d6" stroke="#404040" points="143.5,-90 96.5,-90 96.5,-71 143.5,-71 143.5,-90"/>
<text text-anchor="middle" x="120" y="-78" font-family="Helvetica,sans-Serif" font-size="10.00">tables</text>
</a>
</g>
</g>
<!-- dir_4f691f982165d1317925cee58b4b4f56&#45;&gt;dir_190b1a7091905d6645ff11527a73ae33 -->
<g id="edge2" class="edge">
<title>dir_4f691f982165d1317925cee58b4b4f56&#45;&gt;dir_190b1a7091905d6645ff11527a73ae33</title>
<path fill="none" stroke="#63b8ff" d="M120,-125.75C120,-118.8 120,-108.85 120,-100.13"/>
<polygon fill="#63b8ff" stroke="#63b8ff" points="123.5,-100.09 120,-90.09 116.5,-100.09 123.5,-100.09"/>
<g id="a_edge2&#45;headlabel"><a xlink:href="dir_000044_000049.html" target="_top" xlink:title="10">
<text text-anchor="middle" x="126.34" y="-101.18" font-family="Helvetica,sans-Serif" font-size="10.00" fill="#63b8ff">10</text>
</a>
</g>
</g>
<!-- dir_d44c64559bbebec7f509842c48db8b23 -->
<g id="node6" class="node">
<title>dir_d44c64559bbebec7f509842c48db8b23</title>
<g id="a_node6"><a xlink:href="dir_d44c64559bbebec7f509842c48db8b23.html" target="_top" xlink:title="include">
<polygon fill="#edf0f7" stroke="red" points="222,-35 170,-35 170,-16 222,-16 222,-35"/>
<text text-anchor="middle" x="196" y="-23" font-family="Helvetica,sans-Serif" font-size="10.00">include</text>
</a>
</g>
</g>
<!-- dir_4f691f982165d1317925cee58b4b4f56&#45;&gt;dir_d44c64559bbebec7f509842c48db8b23 -->
<g id="edge4" class="edge">
<title>dir_4f691f982165d1317925cee58b4b4f56&#45;&gt;dir_d44c64559bbebec7f509842c48db8b23</title>
<path fill="none" stroke="#63b8ff" d="M126.42,-125.67C132.91,-116.71 143.22,-102.44 152,-90 163.08,-74.31 175.53,-56.29 184.36,-43.47"/>
<polygon fill="#63b8ff" stroke="#63b8ff" points="187.29,-45.38 190.07,-35.16 181.52,-41.42 187.29,-45.38"/>
<g id="a_edge4&#45;headlabel"><a xlink:href="dir_000044_000024.html" target="_top" xlink:title="45">
<text text-anchor="middle" x="187.6" y="-47.46" font-family="Helvetica,sans-Serif" font-size="10.00" fill="#63b8ff">45</text>
</a>
</g>
</g>
<!-- dir_190b1a7091905d6645ff11527a73ae33&#45;&gt;dir_4c8befd6991d7a2e9d66c427274b8c22 -->
<g id="edge6" class="edge">
<title>dir_190b1a7091905d6645ff11527a73ae33&#45;&gt;dir_4c8befd6991d7a2e9d66c427274b8c22</title>
<path fill="none" stroke="#63b8ff" d="M109.07,-70.98C98.92,-63.07 83.58,-51.11 71.35,-41.58"/>
<polygon fill="#63b8ff" stroke="#63b8ff" points="73.16,-38.56 63.12,-35.17 68.86,-44.08 73.16,-38.56"/>
<g id="a_edge6&#45;headlabel"><a xlink:href="dir_000049_000030.html" target="_top" xlink:title="2">
<text text-anchor="middle" x="77.74" y="-36.03" font-family="Helvetica,sans-Serif" font-size="10.00" fill="#63b8ff">2</text>
</a>
</g>
</g>
<!-- dir_190b1a7091905d6645ff11527a73ae33&#45;&gt;dir_122f4add68bb94b3fee614989bbbd8f9 -->
<g id="edge5" class="edge">
<title>dir_190b1a7091905d6645ff11527a73ae33&#45;&gt;dir_122f4add68bb94b3fee614989bbbd8f9</title>
<path fill="none" stroke="#63b8ff" d="M120,-70.75C120,-63.8 120,-53.85 120,-45.13"/>
<polygon fill="#63b8ff" stroke="#63b8ff" points="123.5,-45.09 120,-35.09 116.5,-45.09 123.5,-45.09"/>
<g id="a_edge5&#45;headlabel"><a xlink:href="dir_000049_000015.html" target="_top" xlink:title="1">
<text text-anchor="middle" x="126.34" y="-46.18" font-family="Helvetica,sans-Serif" font-size="10.00" fill="#63b8ff">1</text>
</a>
</g>
</g>
<!-- dir_190b1a7091905d6645ff11527a73ae33&#45;&gt;dir_d44c64559bbebec7f509842c48db8b23 -->
<g id="edge7" class="edge">
<title>dir_190b1a7091905d6645ff11527a73ae33&#45;&gt;dir_d44c64559bbebec7f509842c48db8b23</title>
<path fill="none" stroke="#63b8ff" d="M132.21,-70.98C143.78,-62.92 161.38,-50.65 175.16,-41.03"/>
<polygon fill="#63b8ff" stroke="#63b8ff" points="177.37,-43.76 183.57,-35.17 173.36,-38.02 177.37,-43.76"/>
<g id="a_edge7&#45;headlabel"><a xlink:href="dir_000049_000024.html" target="_top" xlink:title="20">
<text text-anchor="middle" x="176.04" y="-45.65" font-family="Helvetica,sans-Serif" font-size="10.00" fill="#63b8ff">20</text>
</a>
</g>
</g>
</g>
</svg>
