<?xml version="1.0" encoding="UTF-8" standalone="no"?>
<!DOCTYPE svg PUBLIC "-//W3C//DTD SVG 1.1//EN"
 "http://www.w3.org/Graphics/SVG/1.1/DTD/svg11.dtd">
<!-- Generated by graphviz version 2.43.0 (0)
 -->
<!-- Title: include/ccf/endpoints/authentication/empty_auth.h Pages: 1 -->
<!--zoomable 489 -->
<svg id="main" version="1.1" xmlns="http://www.w3.org/2000/svg" xmlns:xlink="http://www.w3.org/1999/xlink" xml:space="preserve" onload="init(evt)">
<style type="text/css"><![CDATA[
.edge:hover path { stroke: red; }
.edge:hover polygon { stroke: red; fill: red; }
]]></style>
<script type="text/javascript"><![CDATA[
var edges = document.getElementsByTagName('g');
if (edges && edges.length) {
  for (var i=0;i<edges.length;i++) {
    if (edges[i].id.substr(0,4)=='edge') {
      edges[i].setAttribute('class','edge');
    }
  }
}
]]></script>
        <defs>
                <circle id="rim" cx="0" cy="0" r="7"/>
                <circle id="rim2" cx="0" cy="0" r="3.5"/>
                <g id="zoomPlus">
                        <use xlink:href="#rim" fill="#404040">
                                <set attributeName="fill" to="#808080" begin="zoomplus.mouseover" end="zoomplus.mouseout"/>
                        </use>
                        <path d="M-4,0h8M0,-4v8" fill="none" stroke="white" stroke-width="1.5" pointer-events="none"/>
                </g>
                <g id="zoomMin">
                        <use xlink:href="#rim" fill="#404040">
                                <set attributeName="fill" to="#808080" begin="zoomminus.mouseover" end="zoomminus.mouseout"/>
                        </use>
                        <path d="M-4,0h8" fill="none" stroke="white" stroke-width="1.5" pointer-events="none"/>
                </g>
                <g id="dirArrow">
                        <path fill="none" stroke="white" stroke-width="1.5" d="M0,-3.0v7 M-2.5,-0.5L0,-3.0L2.5,-0.5"/>
                </g>
               <g id="resetDef">
                       <use xlink:href="#rim2" fill="#404040">
                               <set attributeName="fill" to="#808080" begin="reset.mouseover" end="reset.mouseout"/>
                       </use>
               </g>
        </defs>

<script type="text/javascript">
var viewWidth = 1708;
var viewHeight = 489;
var sectionId = 'dynsection-1';
</script>
<script xlink:href="svgpan.js"/>
<svg id="graph" class="graph">
<g id="viewport">
<title>include/ccf/endpoints/authentication/empty_auth.h</title>
<!-- Node1 -->
<g id="node1" class="node">
<title>Node1</title>
<g id="a_node1"><a xlink:title=" ">
<polygon fill="#999999" stroke="#666666" points="912,-481 787,-481 787,-440 912,-440 912,-481"/>
<text text-anchor="start" x="795" y="-469" font-family="Helvetica,sans-Serif" font-size="10.00">include/ccf/endpoints</text>
<text text-anchor="start" x="795" y="-458" font-family="Helvetica,sans-Serif" font-size="10.00">/authentication/empty</text>
<text text-anchor="middle" x="849.5" y="-447" font-family="Helvetica,sans-Serif" font-size="10.00">_auth.h</text>
</a>
</g>
</g>
<!-- Node2 -->
<g id="node2" class="node">
<title>Node2</title>
<g id="a_node2"><a xlink:href="common__auth__policies_8h.html" target="_top" xlink:title=" ">
<polygon fill="white" stroke="#666666" points="831,-404 716,-404 716,-374 831,-374 831,-404"/>
<text text-anchor="start" x="724" y="-392" font-family="Helvetica,sans-Serif" font-size="10.00">include/ccf/common</text>
<text text-anchor="middle" x="773.5" y="-381" font-family="Helvetica,sans-Serif" font-size="10.00">_auth_policies.h</text>
</a>
</g>
</g>
<!-- Node1&#45;&gt;Node2 -->
<g id="edge1" class="edge">
<title>Node1&#45;&gt;Node2</title>
<path fill="none" stroke="#63b8ff" d="M820.34,-432.83C809.61,-423.02 797.89,-412.3 788.85,-404.04"/>
<polygon fill="#63b8ff" stroke="#63b8ff" points="818.18,-435.6 827.92,-439.77 822.91,-430.44 818.18,-435.6"/>
</g>
<!-- Node24 -->
<g id="node24" class="node">
<title>Node24</title>
<g id="a_node24"><a xlink:href="empty__auth_8cpp.html" target="_top" xlink:title=" ">
<polygon fill="white" stroke="#666666" points="1004,-404 849,-404 849,-374 1004,-374 1004,-404"/>
<text text-anchor="start" x="857" y="-392" font-family="Helvetica,sans-Serif" font-size="10.00">src/endpoints/authentication</text>
<text text-anchor="middle" x="926.5" y="-381" font-family="Helvetica,sans-Serif" font-size="10.00">/empty_auth.cpp</text>
</a>
</g>
</g>
<!-- Node1&#45;&gt;Node24 -->
<g id="edge30" class="edge">
<title>Node1&#45;&gt;Node24</title>
<path fill="none" stroke="#63b8ff" d="M879.04,-432.83C889.91,-423.02 901.79,-412.3 910.95,-404.04"/>
<polygon fill="#63b8ff" stroke="#63b8ff" points="876.44,-430.47 871.36,-439.77 881.13,-435.67 876.44,-430.47"/>
</g>
<!-- Node3 -->
<g id="node3" class="node">
<title>Node3</title>
<g id="a_node3"><a xlink:href="basic_8cpp.html" target="_top" xlink:title=" ">
<polygon fill="white" stroke="#666666" points="113,-338 0,-338 0,-308 113,-308 113,-338"/>
<text text-anchor="start" x="8" y="-326" font-family="Helvetica,sans-Serif" font-size="10.00">samples/apps/basic</text>
<text text-anchor="middle" x="56.5" y="-315" font-family="Helvetica,sans-Serif" font-size="10.00">/basic.cpp</text>
</a>
</g>
</g>
<!-- Node2&#45;&gt;Node3 -->
<g id="edge2" class="edge">
<title>Node2&#45;&gt;Node3</title>
<path fill="none" stroke="#63b8ff" d="M705.6,-385.83C586.69,-381.34 333.28,-368.78 121.5,-338 118.76,-337.6 115.96,-337.15 113.14,-336.67"/>
<polygon fill="#63b8ff" stroke="#63b8ff" points="705.52,-389.32 715.65,-386.2 705.78,-382.33 705.52,-389.32"/>
</g>
<!-- Node4 -->
<g id="node4" class="node">
<title>Node4</title>
<g id="a_node4"><a xlink:href="logging_8cpp.html" target="_top" xlink:title=" ">
<polygon fill="white" stroke="#666666" points="254,-338 131,-338 131,-308 254,-308 254,-338"/>
<text text-anchor="start" x="139" y="-326" font-family="Helvetica,sans-Serif" font-size="10.00">samples/apps/logging</text>
<text text-anchor="middle" x="192.5" y="-315" font-family="Helvetica,sans-Serif" font-size="10.00">/logging.cpp</text>
</a>
</g>
</g>
<!-- Node2&#45;&gt;Node4 -->
<g id="edge3" class="edge">
<title>Node2&#45;&gt;Node4</title>
<path fill="none" stroke="#63b8ff" d="M705.72,-383.53C607.61,-376.58 420.47,-361.47 262.5,-338 259.8,-337.6 257.05,-337.16 254.28,-336.7"/>
<polygon fill="#63b8ff" stroke="#63b8ff" points="705.57,-387.03 715.8,-384.24 706.07,-380.05 705.57,-387.03"/>
</g>
<!-- Node5 -->
<g id="node5" class="node">
<title>Node5</title>
<g id="a_node5"><a xlink:href="nobuiltins_8cpp.html" target="_top" xlink:title=" ">
<polygon fill="white" stroke="#666666" points="407,-338 272,-338 272,-308 407,-308 407,-338"/>
<text text-anchor="start" x="280" y="-326" font-family="Helvetica,sans-Serif" font-size="10.00">samples/apps/nobuiltins</text>
<text text-anchor="middle" x="339.5" y="-315" font-family="Helvetica,sans-Serif" font-size="10.00">/nobuiltins.cpp</text>
</a>
</g>
</g>
<!-- Node2&#45;&gt;Node5 -->
<g id="edge4" class="edge">
<title>Node2&#45;&gt;Node5</title>
<path fill="none" stroke="#63b8ff" d="M705.61,-379.33C633.7,-369.95 516.91,-354.15 416.5,-338 413.41,-337.5 410.26,-336.98 407.08,-336.45"/>
<polygon fill="#63b8ff" stroke="#63b8ff" points="705.52,-382.85 715.89,-380.66 706.42,-375.9 705.52,-382.85"/>
</g>
<!-- Node6 -->
<g id="node6" class="node">
<title>Node6</title>
<g id="a_node6"><a xlink:href="executor__auth__policy_8h.html" target="_top" xlink:title=" ">
<polygon fill="white" stroke="#666666" points="573.5,-338 425.5,-338 425.5,-308 573.5,-308 573.5,-338"/>
<text text-anchor="start" x="433.5" y="-326" font-family="Helvetica,sans-Serif" font-size="10.00">src/apps/external_executor</text>
<text text-anchor="middle" x="499.5" y="-315" font-family="Helvetica,sans-Serif" font-size="10.00">/executor_auth_policy.h</text>
</a>
</g>
</g>
<!-- Node2&#45;&gt;Node6 -->
<g id="edge5" class="edge">
<title>Node2&#45;&gt;Node6</title>
<path fill="none" stroke="#63b8ff" d="M705.8,-372.19C660.98,-361.72 602.73,-348.11 559.56,-338.03"/>
<polygon fill="#63b8ff" stroke="#63b8ff" points="705.19,-375.64 715.73,-374.51 706.78,-368.82 705.19,-375.64"/>
</g>
<!-- Node7 -->
<g id="node7" class="node">
<title>Node7</title>
<g id="a_node7"><a xlink:href="external__executor_8cpp.html" target="_top" xlink:title=" ">
<polygon fill="white" stroke="#666666" points="656.5,-206 508.5,-206 508.5,-176 656.5,-176 656.5,-206"/>
<text text-anchor="start" x="516.5" y="-194" font-family="Helvetica,sans-Serif" font-size="10.00">src/apps/external_executor</text>
<text text-anchor="middle" x="582.5" y="-183" font-family="Helvetica,sans-Serif" font-size="10.00">/external_executor.cpp</text>
</a>
</g>
</g>
<!-- Node2&#45;&gt;Node7 -->
<g id="edge10" class="edge">
<title>Node2&#45;&gt;Node7</title>
<path fill="none" stroke="#63b8ff" d="M705.77,-380.59C675.89,-373.97 642.6,-361.5 620.5,-338 585.33,-300.61 581.74,-234.89 581.99,-206.14"/>
<polygon fill="#63b8ff" stroke="#63b8ff" points="705.26,-384.05 715.76,-382.61 706.65,-377.19 705.26,-384.05"/>
</g>
<!-- Node10 -->
<g id="node10" class="node">
<title>Node10</title>
<g id="a_node10"><a xlink:href="named__auth__policies_8h.html" target="_top" xlink:title=" ">
<polygon fill="white" stroke="#666666" points="761.5,-338 629.5,-338 629.5,-308 761.5,-308 761.5,-338"/>
<text text-anchor="start" x="637.5" y="-326" font-family="Helvetica,sans-Serif" font-size="10.00">src/apps/js_generic</text>
<text text-anchor="middle" x="695.5" y="-315" font-family="Helvetica,sans-Serif" font-size="10.00">/named_auth_policies.h</text>
</a>
</g>
</g>
<!-- Node2&#45;&gt;Node10 -->
<g id="edge11" class="edge">
<title>Node2&#45;&gt;Node10</title>
<path fill="none" stroke="#63b8ff" d="M748.15,-367.2C736.57,-357.7 723.15,-346.69 712.76,-338.16"/>
<polygon fill="#63b8ff" stroke="#63b8ff" points="746.24,-370.16 756.19,-373.8 750.68,-364.75 746.24,-370.16"/>
</g>
<!-- Node12 -->
<g id="node12" class="node">
<title>Node12</title>
<g id="a_node12"><a xlink:href="tpcc_8cpp.html" target="_top" xlink:title=" ">
<polygon fill="white" stroke="#666666" points="925,-332.5 780,-332.5 780,-313.5 925,-313.5 925,-332.5"/>
<text text-anchor="middle" x="852.5" y="-320.5" font-family="Helvetica,sans-Serif" font-size="10.00">src/apps/tpcc/app/tpcc.cpp</text>
</a>
</g>
</g>
<!-- Node2&#45;&gt;Node12 -->
<g id="edge13" class="edge">
<title>Node2&#45;&gt;Node12</title>
<path fill="none" stroke="#63b8ff" d="M799.1,-367.26C813.48,-355.61 830.67,-341.69 841.58,-332.84"/>
<polygon fill="#63b8ff" stroke="#63b8ff" points="796.6,-364.78 791.03,-373.8 801.01,-370.22 796.6,-364.78"/>
</g>
<!-- Node13 -->
<g id="node13" class="node">
<title>Node13</title>
<g id="a_node13"><a xlink:href="common__endpoint__registry_8cpp.html" target="_top" xlink:title=" ">
<polygon fill="white" stroke="#666666" points="1071.5,-338 943.5,-338 943.5,-308 1071.5,-308 1071.5,-338"/>
<text text-anchor="start" x="951.5" y="-326" font-family="Helvetica,sans-Serif" font-size="10.00">src/endpoints/common</text>
<text text-anchor="middle" x="1007.5" y="-315" font-family="Helvetica,sans-Serif" font-size="10.00">_endpoint_registry.cpp</text>
</a>
</g>
</g>
<!-- Node2&#45;&gt;Node13 -->
<g id="edge14" class="edge">
<title>Node2&#45;&gt;Node13</title>
<path fill="none" stroke="#63b8ff" d="M834.73,-371.25C872.53,-360.91 920.48,-347.8 956.27,-338.01"/>
<polygon fill="#63b8ff" stroke="#63b8ff" points="833.57,-367.94 824.85,-373.95 835.42,-374.69 833.57,-367.94"/>
</g>
<!-- Node14 -->
<g id="node14" class="node">
<title>Node14</title>
<g id="a_node14"><a xlink:href="endpoint__registry_8cpp.html" target="_top" xlink:title=" ">
<polygon fill="white" stroke="#666666" points="1217.5,-338 1089.5,-338 1089.5,-308 1217.5,-308 1217.5,-338"/>
<text text-anchor="start" x="1097.5" y="-326" font-family="Helvetica,sans-Serif" font-size="10.00">src/endpoints/endpoint</text>
<text text-anchor="middle" x="1153.5" y="-315" font-family="Helvetica,sans-Serif" font-size="10.00">_registry.cpp</text>
</a>
</g>
</g>
<!-- Node2&#45;&gt;Node14 -->
<g id="edge15" class="edge">
<title>Node2&#45;&gt;Node14</title>
<path fill="none" stroke="#63b8ff" d="M840.94,-373.8C947.76,-354.82 976.87,-355.67 1080.5,-338 1083.43,-337.5 1086.42,-336.98 1089.43,-336.44"/>
<polygon fill="#63b8ff" stroke="#63b8ff" points="840.28,-370.37 831.05,-375.58 841.51,-377.26 840.28,-370.37"/>
</g>
<!-- Node15 -->
<g id="node15" class="node">
<title>Node15</title>
<g id="a_node15"><a xlink:href="acme__challenge__frontend_8h.html" target="_top" xlink:title=" ">
<polygon fill="white" stroke="#666666" points="1375.5,-338 1235.5,-338 1235.5,-308 1375.5,-308 1375.5,-338"/>
<text text-anchor="start" x="1243.5" y="-326" font-family="Helvetica,sans-Serif" font-size="10.00">src/node/acme_challenge</text>
<text text-anchor="middle" x="1305.5" y="-315" font-family="Helvetica,sans-Serif" font-size="10.00">_frontend.h</text>
</a>
</g>
</g>
<!-- Node2&#45;&gt;Node15 -->
<g id="edge16" class="edge">
<title>Node2&#45;&gt;Node15</title>
<path fill="none" stroke="#63b8ff" d="M841.12,-373.87C1012.04,-348.52 1058.57,-360.65 1226.5,-338 1229.4,-337.61 1232.35,-337.19 1235.34,-336.74"/>
<polygon fill="#63b8ff" stroke="#63b8ff" points="840.39,-370.44 831.02,-375.39 841.43,-377.36 840.39,-370.44"/>
</g>
<!-- Node21 -->
<g id="node21" class="node">
<title>Node21</title>
<g id="a_node21"><a xlink:href="member__frontend_8h.html" target="_top" xlink:title=" ">
<polygon fill="white" stroke="#666666" points="1699.5,-140 1579.5,-140 1579.5,-110 1699.5,-110 1699.5,-140"/>
<text text-anchor="start" x="1587.5" y="-128" font-family="Helvetica,sans-Serif" font-size="10.00">src/node/rpc/member</text>
<text text-anchor="middle" x="1639.5" y="-117" font-family="Helvetica,sans-Serif" font-size="10.00">_frontend.h</text>
</a>
</g>
</g>
<!-- Node2&#45;&gt;Node21 -->
<g id="edge24" class="edge">
<title>Node2&#45;&gt;Node21</title>
<path fill="none" stroke="#63b8ff" d="M841,-374.22C955.68,-364.97 1497.87,-383.86 1560.5,-338 1626.58,-289.62 1637.42,-179.42 1639.17,-140.19"/>
<polygon fill="#63b8ff" stroke="#63b8ff" points="840.59,-370.74 831,-375.24 841.3,-377.71 840.59,-370.74"/>
</g>
<!-- Node22 -->
<g id="node22" class="node">
<title>Node22</title>
<g id="a_node22"><a xlink:href="node__frontend_8h.html" target="_top" xlink:title=" ">
<polygon fill="white" stroke="#666666" points="1551.5,-332.5 1393.5,-332.5 1393.5,-313.5 1551.5,-313.5 1551.5,-332.5"/>
<text text-anchor="middle" x="1472.5" y="-320.5" font-family="Helvetica,sans-Serif" font-size="10.00">src/node/rpc/node_frontend.h</text>
</a>
</g>
</g>
<!-- Node2&#45;&gt;Node22 -->
<g id="edge26" class="edge">
<title>Node2&#45;&gt;Node22</title>
<path fill="none" stroke="#63b8ff" d="M841.12,-373.91C1081.72,-341.39 1146.57,-364.73 1384.5,-338 1397.41,-336.55 1411.33,-334.54 1424.19,-332.5"/>
<polygon fill="#63b8ff" stroke="#63b8ff" points="840.44,-370.47 831.01,-375.3 841.39,-377.41 840.44,-370.47"/>
</g>
<!-- Node6&#45;&gt;Node7 -->
<g id="edge6" class="edge">
<title>Node6&#45;&gt;Node7</title>
<path fill="none" stroke="#63b8ff" d="M521.45,-300.39C529.31,-291.98 537.85,-281.97 544.5,-272 558.83,-250.51 570.72,-222.77 577.2,-206.24"/>
<polygon fill="#63b8ff" stroke="#63b8ff" points="518.91,-297.99 514.5,-307.63 523.95,-302.84 518.91,-297.99"/>
</g>
<!-- Node8 -->
<g id="node8" class="node">
<title>Node8</title>
<g id="a_node8"><a xlink:href="external__executor__indexing_8h.html" target="_top" xlink:title=" ">
<polygon fill="white" stroke="#666666" points="535.5,-272 371.5,-272 371.5,-242 535.5,-242 535.5,-272"/>
<text text-anchor="start" x="379.5" y="-260" font-family="Helvetica,sans-Serif" font-size="10.00">src/apps/external_executor</text>
<text text-anchor="middle" x="453.5" y="-249" font-family="Helvetica,sans-Serif" font-size="10.00">/external_executor_indexing.h</text>
</a>
</g>
</g>
<!-- Node6&#45;&gt;Node8 -->
<g id="edge7" class="edge">
<title>Node6&#45;&gt;Node8</title>
<path fill="none" stroke="#63b8ff" d="M483.35,-299.53C476.81,-290.43 469.45,-280.19 463.68,-272.16"/>
<polygon fill="#63b8ff" stroke="#63b8ff" points="480.61,-301.72 489.29,-307.8 486.3,-297.63 480.61,-301.72"/>
</g>
<!-- Node8&#45;&gt;Node7 -->
<g id="edge8" class="edge">
<title>Node8&#45;&gt;Node7</title>
<path fill="none" stroke="#63b8ff" d="M491.04,-237.38C511.22,-227.36 535.7,-215.22 554.26,-206.01"/>
<polygon fill="#63b8ff" stroke="#63b8ff" points="489.21,-234.38 481.81,-241.95 492.32,-240.65 489.21,-234.38"/>
</g>
<!-- Node9 -->
<g id="node9" class="node">
<title>Node9</title>
<g id="a_node9"><a xlink:href="external__executor__indexing_8cpp.html" target="_top" xlink:title=" ">
<polygon fill="white" stroke="#666666" points="490,-206 315,-206 315,-176 490,-176 490,-206"/>
<text text-anchor="start" x="323" y="-194" font-family="Helvetica,sans-Serif" font-size="10.00">src/apps/external_executor</text>
<text text-anchor="middle" x="402.5" y="-183" font-family="Helvetica,sans-Serif" font-size="10.00">/external_executor_indexing.cpp</text>
</a>
</g>
</g>
<!-- Node8&#45;&gt;Node9 -->
<g id="edge9" class="edge">
<title>Node8&#45;&gt;Node9</title>
<path fill="none" stroke="#63b8ff" d="M435.82,-233.81C428.51,-224.64 420.25,-214.28 413.79,-206.16"/>
<polygon fill="#63b8ff" stroke="#63b8ff" points="433.21,-236.16 442.18,-241.8 438.69,-231.79 433.21,-236.16"/>
</g>
<!-- Node11 -->
<g id="node11" class="node">
<title>Node11</title>
<g id="a_node11"><a xlink:href="js__generic__base_8cpp.html" target="_top" xlink:title=" ">
<polygon fill="white" stroke="#666666" points="754.5,-272 636.5,-272 636.5,-242 754.5,-242 754.5,-272"/>
<text text-anchor="start" x="644.5" y="-260" font-family="Helvetica,sans-Serif" font-size="10.00">src/apps/js_generic</text>
<text text-anchor="middle" x="695.5" y="-249" font-family="Helvetica,sans-Serif" font-size="10.00">/js_generic_base.cpp</text>
</a>
</g>
</g>
<!-- Node10&#45;&gt;Node11 -->
<g id="edge12" class="edge">
<title>Node10&#45;&gt;Node11</title>
<path fill="none" stroke="#63b8ff" d="M695.5,-297.54C695.5,-288.96 695.5,-279.61 695.5,-272.16"/>
<polygon fill="#63b8ff" stroke="#63b8ff" points="692,-297.8 695.5,-307.8 699,-297.8 692,-297.8"/>
</g>
<!-- Node16 -->
<g id="node16" class="node">
<title>Node16</title>
<g id="a_node16"><a xlink:href="src_2enclave_2enclave_8h.html" target="_top" xlink:title=" ">
<polygon fill="white" stroke="#666666" points="1574.5,-74 1452.5,-74 1452.5,-55 1574.5,-55 1574.5,-74"/>
<text text-anchor="middle" x="1513.5" y="-62" font-family="Helvetica,sans-Serif" font-size="10.00">src/enclave/enclave.h</text>
</a>
</g>
</g>
<!-- Node15&#45;&gt;Node16 -->
<g id="edge17" class="edge">
<title>Node15&#45;&gt;Node16</title>
<path fill="none" stroke="#63b8ff" d="M1254.95,-302.99C1241.72,-295.44 1229.06,-285.31 1221.5,-272 1214.91,-260.41 1216.93,-254.53 1221.5,-242 1247.75,-169.98 1267.41,-150.48 1332.5,-110 1368.64,-87.53 1415.41,-76.4 1452.35,-70.89"/>
<polygon fill="#63b8ff" stroke="#63b8ff" points="1253.66,-306.27 1264.14,-307.81 1256.91,-300.07 1253.66,-306.27"/>
</g>
<!-- Node18 -->
<g id="node18" class="node">
<title>Node18</title>
<g id="a_node18"><a xlink:href="ccf__acme__client_8h.html" target="_top" xlink:title=" ">
<polygon fill="white" stroke="#666666" points="1380,-266.5 1231,-266.5 1231,-247.5 1380,-247.5 1380,-266.5"/>
<text text-anchor="middle" x="1305.5" y="-254.5" font-family="Helvetica,sans-Serif" font-size="10.00">src/node/ccf_acme_client.h</text>
</a>
</g>
</g>
<!-- Node15&#45;&gt;Node18 -->
<g id="edge19" class="edge">
<title>Node15&#45;&gt;Node18</title>
<path fill="none" stroke="#63b8ff" d="M1305.5,-297.6C1305.5,-286.8 1305.5,-274.78 1305.5,-266.84"/>
<polygon fill="#63b8ff" stroke="#63b8ff" points="1302,-297.8 1305.5,-307.8 1309,-297.8 1302,-297.8"/>
</g>
<!-- Node17 -->
<g id="node17" class="node">
<title>Node17</title>
<g id="a_node17"><a xlink:href="enclave_2main_8cpp.html" target="_top" xlink:title=" ">
<polygon fill="white" stroke="#666666" points="1573.5,-19 1453.5,-19 1453.5,0 1573.5,0 1573.5,-19"/>
<text text-anchor="middle" x="1513.5" y="-7" font-family="Helvetica,sans-Serif" font-size="10.00">src/enclave/main.cpp</text>
</a>
</g>
</g>
<!-- Node16&#45;&gt;Node17 -->
<g id="edge18" class="edge">
<title>Node16&#45;&gt;Node17</title>
<path fill="none" stroke="#63b8ff" d="M1513.5,-44.66C1513.5,-35.93 1513.5,-25.99 1513.5,-19.09"/>
<polygon fill="#63b8ff" stroke="#63b8ff" points="1510,-44.75 1513.5,-54.75 1517,-44.75 1510,-44.75"/>
</g>
<!-- Node19 -->
<g id="node19" class="node">
<title>Node19</title>
<g id="a_node19"><a xlink:href="node__state_8h.html" target="_top" xlink:title=" ">
<polygon fill="white" stroke="#666666" points="1498.5,-200.5 1374.5,-200.5 1374.5,-181.5 1498.5,-181.5 1498.5,-200.5"/>
<text text-anchor="middle" x="1436.5" y="-188.5" font-family="Helvetica,sans-Serif" font-size="10.00">src/node/node_state.h</text>
</a>
</g>
</g>
<!-- Node18&#45;&gt;Node19 -->
<g id="edge20" class="edge">
<title>Node18&#45;&gt;Node19</title>
<path fill="none" stroke="#63b8ff" d="M1332.39,-242.86C1358.2,-230.25 1396.46,-211.56 1418.69,-200.7"/>
<polygon fill="#63b8ff" stroke="#63b8ff" points="1330.62,-239.83 1323.17,-247.37 1333.69,-246.12 1330.62,-239.83"/>
</g>
<!-- Node19&#45;&gt;Node16 -->
<g id="edge21" class="edge">
<title>Node19&#45;&gt;Node16</title>
<path fill="none" stroke="#63b8ff" d="M1459.03,-175.67C1471.23,-166.8 1485.6,-154.37 1494.5,-140 1507.57,-118.89 1511.68,-89.13 1512.95,-74.43"/>
<polygon fill="#63b8ff" stroke="#63b8ff" points="1456.86,-172.91 1450.63,-181.48 1460.84,-178.67 1456.86,-172.91"/>
</g>
<!-- Node20 -->
<g id="node20" class="node">
<title>Node20</title>
<g id="a_node20"><a xlink:href="gov__effects_8h.html" target="_top" xlink:title=" ">
<polygon fill="white" stroke="#666666" points="1485.5,-134.5 1341.5,-134.5 1341.5,-115.5 1485.5,-115.5 1485.5,-134.5"/>
<text text-anchor="middle" x="1413.5" y="-122.5" font-family="Helvetica,sans-Serif" font-size="10.00">src/node/rpc/gov_effects.h</text>
</a>
</g>
</g>
<!-- Node19&#45;&gt;Node20 -->
<g id="edge22" class="edge">
<title>Node19&#45;&gt;Node20</title>
<path fill="none" stroke="#63b8ff" d="M1429.97,-171.82C1425.63,-159.74 1420.12,-144.41 1416.7,-134.91"/>
<polygon fill="#63b8ff" stroke="#63b8ff" points="1426.72,-173.14 1433.4,-181.37 1433.31,-170.77 1426.72,-173.14"/>
</g>
<!-- Node20&#45;&gt;Node16 -->
<g id="edge23" class="edge">
<title>Node20&#45;&gt;Node16</title>
<path fill="none" stroke="#63b8ff" d="M1436.97,-110.27C1456.06,-99.1 1482.41,-83.69 1498.68,-74.17"/>
<polygon fill="#63b8ff" stroke="#63b8ff" points="1435.12,-107.3 1428.26,-115.37 1438.65,-113.34 1435.12,-107.3"/>
</g>
<!-- Node21&#45;&gt;Node16 -->
<g id="edge25" class="edge">
<title>Node21&#45;&gt;Node16</title>
<path fill="none" stroke="#63b8ff" d="M1600.24,-105.77C1577.52,-95.22 1549.97,-82.43 1532.11,-74.14"/>
<polygon fill="#63b8ff" stroke="#63b8ff" points="1598.78,-108.95 1609.32,-109.99 1601.72,-102.6 1598.78,-108.95"/>
</g>
<!-- Node22&#45;&gt;Node16 -->
<g id="edge27" class="edge">
<title>Node22&#45;&gt;Node16</title>
<path fill="none" stroke="#63b8ff" d="M1498.12,-308.04C1511,-299.49 1525.35,-287.26 1532.5,-272 1565.33,-201.9 1529.61,-103.89 1517.33,-74.3"/>
<polygon fill="#63b8ff" stroke="#63b8ff" points="1496.2,-305.11 1489.55,-313.35 1499.89,-311.06 1496.2,-305.11"/>
</g>
<!-- Node23 -->
<g id="node23" class="node">
<title>Node23</title>
<g id="a_node23"><a xlink:href="jwt__key__auto__refresh_8h.html" target="_top" xlink:title=" ">
<polygon fill="white" stroke="#666666" points="1523,-272 1398,-272 1398,-242 1523,-242 1523,-272"/>
<text text-anchor="start" x="1406" y="-260" font-family="Helvetica,sans-Serif" font-size="10.00">src/node/jwt_key_auto</text>
<text text-anchor="middle" x="1460.5" y="-249" font-family="Helvetica,sans-Serif" font-size="10.00">_refresh.h</text>
</a>
</g>
</g>
<!-- Node22&#45;&gt;Node23 -->
<g id="edge28" class="edge">
<title>Node22&#45;&gt;Node23</title>
<path fill="none" stroke="#63b8ff" d="M1469,-303.35C1467.15,-293.47 1464.91,-281.51 1463.19,-272.36"/>
<polygon fill="#63b8ff" stroke="#63b8ff" points="1465.6,-304.18 1470.88,-313.37 1472.48,-302.89 1465.6,-304.18"/>
</g>
<!-- Node23&#45;&gt;Node19 -->
<g id="edge29" class="edge">
<title>Node23&#45;&gt;Node19</title>
<path fill="none" stroke="#63b8ff" d="M1451.6,-232.28C1447.49,-221.31 1442.85,-208.94 1439.82,-200.84"/>
<polygon fill="#63b8ff" stroke="#63b8ff" points="1448.39,-233.66 1455.17,-241.8 1454.94,-231.2 1448.39,-233.66"/>
</g>
</g>
</svg>
        <g id="navigator" transform="translate(0 0)" fill="#404254">
                <rect fill="#f2f5e9" fill-opacity="0.5" stroke="#606060" stroke-width=".5" x="0" y="0" width="60" height="60"/>
                <use id="zoomplus" xlink:href="#zoomPlus" x="17" y="9" onmousedown="handleZoom(evt,'in')"/>
                <use id="zoomminus" xlink:href="#zoomMin" x="42" y="9" onmousedown="handleZoom(evt,'out')"/>
                <use id="reset" xlink:href="#resetDef" x="30" y="36" onmousedown="handleReset()"/>
                <g id="arrowUp" xlink:href="#dirArrow" transform="translate(30 24)" onmousedown="handlePan(0,-1)">
                  <use xlink:href="#rim" fill="#404040">
                        <set attributeName="fill" to="#808080" begin="arrowUp.mouseover" end="arrowUp.mouseout"/>
                  </use>
                  <path fill="none" stroke="white" stroke-width="1.5" d="M0,-3.0v7 M-2.5,-0.5L0,-3.0L2.5,-0.5"/>
                </g>
                <g id="arrowRight" xlink:href="#dirArrow" transform="rotate(90) translate(36 -43)" onmousedown="handlePan(1,0)">
                  <use xlink:href="#rim" fill="#404040">
                        <set attributeName="fill" to="#808080" begin="arrowRight.mouseover" end="arrowRight.mouseout"/>
                  </use>
                  <path fill="none" stroke="white" stroke-width="1.5" d="M0,-3.0v7 M-2.5,-0.5L0,-3.0L2.5,-0.5"/>
                </g>
                <g id="arrowDown" xlink:href="#dirArrow" transform="rotate(180) translate(-30 -48)" onmousedown="handlePan(0,1)">
                  <use xlink:href="#rim" fill="#404040">
                        <set attributeName="fill" to="#808080" begin="arrowDown.mouseover" end="arrowDown.mouseout"/>
                  </use>
                  <path fill="none" stroke="white" stroke-width="1.5" d="M0,-3.0v7 M-2.5,-0.5L0,-3.0L2.5,-0.5"/>
                </g>
                <g id="arrowLeft" xlink:href="#dirArrow" transform="rotate(270) translate(-36 17)" onmousedown="handlePan(-1,0)">
                  <use xlink:href="#rim" fill="#404040">
                        <set attributeName="fill" to="#808080" begin="arrowLeft.mouseover" end="arrowLeft.mouseout"/>
                  </use>
                  <path fill="none" stroke="white" stroke-width="1.5" d="M0,-3.0v7 M-2.5,-0.5L0,-3.0L2.5,-0.5"/>
                </g>
        </g>
        <svg viewBox="0 0 15 15" width="100%" height="30px" preserveAspectRatio="xMaxYMin meet">
         <g id="arrow_out" transform="scale(0.3 0.3)">
          <a xlink:href="empty__auth_8h__dep__incl_org.svg" target="_base">
           <rect id="button" ry="5" rx="5" y="6" x="6" height="38" width="38"
                fill="#f2f5e9" fill-opacity="0.5" stroke="#606060" stroke-width="1.0"/>
           <path id="arrow"
             d="M 11.500037,31.436501 C 11.940474,20.09759 22.043105,11.32322 32.158766,21.979434 L 37.068811,17.246167 C 37.068811,17.246167 37.088388,32 37.088388,32 L 22.160133,31.978069 C 22.160133,31.978069 26.997745,27.140456 26.997745,27.140456 C 18.528582,18.264221 13.291696,25.230495 11.500037,31.436501 z"
             style="fill:#404040;"/>
          </a>
         </g>
        </svg>
</svg>
