<?xml version="1.0" encoding="UTF-8" standalone="no"?>
<!DOCTYPE svg PUBLIC "-//W3C//DTD SVG 1.1//EN"
 "http://www.w3.org/Graphics/SVG/1.1/DTD/svg11.dtd">
<!-- Generated by graphviz version 2.43.0 (0)
 -->
<!-- Title: src/common/enclave_interface_types.h Pages: 1 -->
<svg width="2353pt" height="676pt"
 viewBox="0.00 0.00 2353.02 676.00" xmlns="http://www.w3.org/2000/svg" xmlns:xlink="http://www.w3.org/1999/xlink">
<g id="graph0" class="graph" transform="scale(1 1) rotate(0) translate(4 672)">
<title>src/common/enclave_interface_types.h</title>
<!-- Node1 -->
<g id="node1" class="node">
<title>Node1</title>
<g id="a_node1"><a xlink:title=" ">
<polygon fill="#999999" stroke="#666666" points="2268.52,-668 2150.52,-668 2150.52,-638 2268.52,-638 2268.52,-668"/>
<text text-anchor="start" x="2158.52" y="-656" font-family="Helvetica,sans-Serif" font-size="10.00">src/common/enclave</text>
<text text-anchor="middle" x="2209.52" y="-645" font-family="Helvetica,sans-Serif" font-size="10.00">_interface_types.h</text>
</a>
</g>
</g>
<!-- Node2 -->
<g id="node2" class="node">
<title>Node2</title>
<g id="a_node2"><a xlink:href="common_2configuration_8h.html" target="_top" xlink:title=" ">
<polygon fill="white" stroke="#666666" points="928.52,-596.5 776.52,-596.5 776.52,-577.5 928.52,-577.5 928.52,-596.5"/>
<text text-anchor="middle" x="852.52" y="-584.5" font-family="Helvetica,sans-Serif" font-size="10.00">src/common/configuration.h</text>
</a>
</g>
</g>
<!-- Node1&#45;&gt;Node2 -->
<g id="edge1" class="edge">
<title>Node1&#45;&gt;Node2</title>
<path fill="none" stroke="#63b8ff" d="M2140.06,-648.72C1909.26,-637.84 1168.98,-602.93 928.65,-591.59"/>
<polygon fill="#63b8ff" stroke="#63b8ff" points="2140.18,-652.23 2150.33,-649.21 2140.51,-645.24 2140.18,-652.23"/>
</g>
<!-- Node8 -->
<g id="node8" class="node">
<title>Node8</title>
<g id="a_node8"><a xlink:href="enclave_2main_8cpp.html" target="_top" xlink:title=" ">
<polygon fill="white" stroke="#666666" points="1914.52,-19 1794.52,-19 1794.52,0 1914.52,0 1914.52,-19"/>
<text text-anchor="middle" x="1854.52" y="-7" font-family="Helvetica,sans-Serif" font-size="10.00">src/enclave/main.cpp</text>
</a>
</g>
</g>
<!-- Node1&#45;&gt;Node8 -->
<g id="edge74" class="edge">
<title>Node1&#45;&gt;Node8</title>
<path fill="none" stroke="#63b8ff" d="M2209.52,-627.86C2209.52,-601.76 2209.52,-558.93 2209.52,-522 2209.52,-522 2209.52,-522 2209.52,-124 2209.52,-62.85 2016.02,-30.13 1914.74,-17.19"/>
<polygon fill="#63b8ff" stroke="#63b8ff" points="2206.02,-627.96 2209.52,-637.96 2213.02,-627.96 2206.02,-627.96"/>
</g>
<!-- Node40 -->
<g id="node40" class="node">
<title>Node40</title>
<g id="a_node40"><a xlink:href="virtual__enclave_8h.html" target="_top" xlink:title=" ">
<polygon fill="white" stroke="#666666" points="2345.02,-602 2238.02,-602 2238.02,-572 2345.02,-572 2345.02,-602"/>
<text text-anchor="start" x="2246.02" y="-590" font-family="Helvetica,sans-Serif" font-size="10.00">src/enclave/virtual</text>
<text text-anchor="middle" x="2291.52" y="-579" font-family="Helvetica,sans-Serif" font-size="10.00">_enclave.h</text>
</a>
</g>
</g>
<!-- Node1&#45;&gt;Node40 -->
<g id="edge75" class="edge">
<title>Node1&#45;&gt;Node40</title>
<path fill="none" stroke="#63b8ff" d="M2235.81,-631.48C2248.06,-621.91 2262.34,-610.77 2273.37,-602.16"/>
<polygon fill="#63b8ff" stroke="#63b8ff" points="2233.44,-628.88 2227.71,-637.8 2237.75,-634.4 2233.44,-628.88"/>
</g>
<!-- Node3 -->
<g id="node3" class="node">
<title>Node3</title>
<g id="a_node3"><a xlink:href="host_2configuration_8h.html" target="_top" xlink:title=" ">
<polygon fill="white" stroke="#666666" points="1789.02,-530.5 1658.02,-530.5 1658.02,-511.5 1789.02,-511.5 1789.02,-530.5"/>
<text text-anchor="middle" x="1723.52" y="-518.5" font-family="Helvetica,sans-Serif" font-size="10.00">src/host/configuration.h</text>
</a>
</g>
</g>
<!-- Node2&#45;&gt;Node3 -->
<g id="edge2" class="edge">
<title>Node2&#45;&gt;Node3</title>
<path fill="none" stroke="#63b8ff" d="M938.81,-579.66C1112.89,-566.87 1502.72,-538.22 1657.93,-526.82"/>
<polygon fill="#63b8ff" stroke="#63b8ff" points="938.38,-576.18 928.67,-580.4 938.9,-583.16 938.38,-576.18"/>
</g>
<!-- Node5 -->
<g id="node5" class="node">
<title>Node5</title>
<g id="a_node5"><a xlink:href="frontend_8h.html" target="_top" xlink:title=" ">
<polygon fill="white" stroke="#666666" points="512.02,-398.5 383.02,-398.5 383.02,-379.5 512.02,-379.5 512.02,-398.5"/>
<text text-anchor="middle" x="447.52" y="-386.5" font-family="Helvetica,sans-Serif" font-size="10.00">src/node/rpc/frontend.h</text>
</a>
</g>
</g>
<!-- Node2&#45;&gt;Node5 -->
<g id="edge4" class="edge">
<title>Node2&#45;&gt;Node5</title>
<path fill="none" stroke="#63b8ff" d="M766.32,-576.59C687.23,-564.05 570.67,-535.25 491.52,-470 468.03,-450.64 455.02,-415.32 449.99,-398.87"/>
<polygon fill="#63b8ff" stroke="#63b8ff" points="765.84,-580.06 776.26,-578.11 766.9,-573.14 765.84,-580.06"/>
</g>
<!-- Node16 -->
<g id="node16" class="node">
<title>Node16</title>
<g id="a_node16"><a xlink:href="node__call__types_8h.html" target="_top" xlink:title=" ">
<polygon fill="white" stroke="#666666" points="283.02,-536 158.02,-536 158.02,-506 283.02,-506 283.02,-536"/>
<text text-anchor="start" x="166.02" y="-524" font-family="Helvetica,sans-Serif" font-size="10.00">src/node/rpc/node_call</text>
<text text-anchor="middle" x="220.52" y="-513" font-family="Helvetica,sans-Serif" font-size="10.00">_types.h</text>
</a>
</g>
</g>
<!-- Node2&#45;&gt;Node16 -->
<g id="edge22" class="edge">
<title>Node2&#45;&gt;Node16</title>
<path fill="none" stroke="#63b8ff" d="M765.9,-578.04C664.04,-568.57 489.9,-552.01 340.52,-536 321.85,-534 301.57,-531.69 283.08,-529.52"/>
<polygon fill="#63b8ff" stroke="#63b8ff" points="765.85,-581.55 776.14,-578.99 766.5,-574.58 765.85,-581.55"/>
</g>
<!-- Node21 -->
<g id="node21" class="node">
<title>Node21</title>
<g id="a_node21"><a xlink:href="node__interface_8h.html" target="_top" xlink:title=" ">
<polygon fill="white" stroke="#666666" points="933.02,-530.5 772.02,-530.5 772.02,-511.5 933.02,-511.5 933.02,-530.5"/>
<text text-anchor="middle" x="852.52" y="-518.5" font-family="Helvetica,sans-Serif" font-size="10.00">src/node/rpc/node_interface.h</text>
</a>
</g>
</g>
<!-- Node2&#45;&gt;Node21 -->
<g id="edge32" class="edge">
<title>Node2&#45;&gt;Node21</title>
<path fill="none" stroke="#63b8ff" d="M852.52,-567.08C852.52,-555.13 852.52,-540.22 852.52,-530.91"/>
<polygon fill="#63b8ff" stroke="#63b8ff" points="849.02,-567.37 852.52,-577.37 856.02,-567.37 849.02,-567.37"/>
</g>
<!-- Node4 -->
<g id="node4" class="node">
<title>Node4</title>
<g id="a_node4"><a xlink:href="host_2main_8cpp.html" target="_top" xlink:title=" ">
<polygon fill="white" stroke="#666666" points="2181.02,-464.5 2078.02,-464.5 2078.02,-445.5 2181.02,-445.5 2181.02,-464.5"/>
<text text-anchor="middle" x="2129.52" y="-452.5" font-family="Helvetica,sans-Serif" font-size="10.00">src/host/main.cpp</text>
</a>
</g>
</g>
<!-- Node3&#45;&gt;Node4 -->
<g id="edge3" class="edge">
<title>Node3&#45;&gt;Node4</title>
<path fill="none" stroke="#63b8ff" d="M1799.13,-510.27C1868.18,-501.06 1972.98,-486.24 2063.52,-470 2072.51,-468.39 2082.15,-466.46 2091.21,-464.55"/>
<polygon fill="#63b8ff" stroke="#63b8ff" points="1798.66,-506.8 1789.21,-511.59 1799.59,-513.74 1798.66,-506.8"/>
</g>
<!-- Node6 -->
<g id="node6" class="node">
<title>Node6</title>
<g id="a_node6"><a xlink:href="acme__challenge__frontend_8h.html" target="_top" xlink:title=" ">
<polygon fill="white" stroke="#666666" points="597.52,-338 457.52,-338 457.52,-308 597.52,-308 597.52,-338"/>
<text text-anchor="start" x="465.52" y="-326" font-family="Helvetica,sans-Serif" font-size="10.00">src/node/acme_challenge</text>
<text text-anchor="middle" x="527.52" y="-315" font-family="Helvetica,sans-Serif" font-size="10.00">_frontend.h</text>
</a>
</g>
</g>
<!-- Node5&#45;&gt;Node6 -->
<g id="edge5" class="edge">
<title>Node5&#45;&gt;Node6</title>
<path fill="none" stroke="#63b8ff" d="M466.25,-373.02C479.42,-362.48 496.94,-348.46 509.87,-338.12"/>
<polygon fill="#63b8ff" stroke="#63b8ff" points="463.93,-370.39 458.31,-379.37 468.3,-375.85 463.93,-370.39"/>
</g>
<!-- Node10 -->
<g id="node10" class="node">
<title>Node10</title>
<g id="a_node10"><a xlink:href="node__state_8h.html" target="_top" xlink:title=" ">
<polygon fill="white" stroke="#666666" points="1546.52,-200.5 1422.52,-200.5 1422.52,-181.5 1546.52,-181.5 1546.52,-200.5"/>
<text text-anchor="middle" x="1484.52" y="-188.5" font-family="Helvetica,sans-Serif" font-size="10.00">src/node/node_state.h</text>
</a>
</g>
</g>
<!-- Node5&#45;&gt;Node10 -->
<g id="edge13" class="edge">
<title>Node5&#45;&gt;Node10</title>
<path fill="none" stroke="#63b8ff" d="M441.9,-369.68C437.68,-351.93 434.72,-325.25 448.52,-308 527.57,-209.17 600.38,-260.89 725.52,-242 982.1,-203.26 1291.97,-194.53 1422.15,-192.57"/>
<polygon fill="#63b8ff" stroke="#63b8ff" points="438.54,-370.68 444.55,-379.4 445.29,-368.84 438.54,-370.68"/>
</g>
<!-- Node12 -->
<g id="node12" class="node">
<title>Node12</title>
<g id="a_node12"><a xlink:href="member__frontend_8h.html" target="_top" xlink:title=" ">
<polygon fill="white" stroke="#666666" points="325.52,-338 205.52,-338 205.52,-308 325.52,-308 325.52,-338"/>
<text text-anchor="start" x="213.52" y="-326" font-family="Helvetica,sans-Serif" font-size="10.00">src/node/rpc/member</text>
<text text-anchor="middle" x="265.52" y="-315" font-family="Helvetica,sans-Serif" font-size="10.00">_frontend.h</text>
</a>
</g>
</g>
<!-- Node5&#45;&gt;Node12 -->
<g id="edge14" class="edge">
<title>Node5&#45;&gt;Node12</title>
<path fill="none" stroke="#63b8ff" d="M413.19,-375.93C382.62,-365.18 337.87,-349.44 305.66,-338.12"/>
<polygon fill="#63b8ff" stroke="#63b8ff" points="412.38,-379.35 422.97,-379.37 414.7,-372.75 412.38,-379.35"/>
</g>
<!-- Node13 -->
<g id="node13" class="node">
<title>Node13</title>
<g id="a_node13"><a xlink:href="node__frontend_8h.html" target="_top" xlink:title=" ">
<polygon fill="white" stroke="#666666" points="773.52,-332.5 615.52,-332.5 615.52,-313.5 773.52,-313.5 773.52,-332.5"/>
<text text-anchor="middle" x="694.52" y="-320.5" font-family="Helvetica,sans-Serif" font-size="10.00">src/node/rpc/node_frontend.h</text>
</a>
</g>
</g>
<!-- Node5&#45;&gt;Node13 -->
<g id="edge16" class="edge">
<title>Node5&#45;&gt;Node13</title>
<path fill="none" stroke="#63b8ff" d="M490.49,-376.86C539.22,-364.24 617.58,-343.94 661.66,-332.51"/>
<polygon fill="#63b8ff" stroke="#63b8ff" points="489.37,-373.54 480.57,-379.44 491.13,-380.31 489.37,-373.54"/>
</g>
<!-- Node15 -->
<g id="node15" class="node">
<title>Node15</title>
<g id="a_node15"><a xlink:href="user__frontend_8h.html" target="_top" xlink:title=" ">
<polygon fill="white" stroke="#666666" points="578.02,-200.5 423.02,-200.5 423.02,-181.5 578.02,-181.5 578.02,-200.5"/>
<text text-anchor="middle" x="500.52" y="-188.5" font-family="Helvetica,sans-Serif" font-size="10.00">src/node/rpc/user_frontend.h</text>
</a>
</g>
</g>
<!-- Node5&#45;&gt;Node15 -->
<g id="edge20" class="edge">
<title>Node5&#45;&gt;Node15</title>
<path fill="none" stroke="#63b8ff" d="M433.42,-371.33C426.57,-362.14 419.07,-350.14 415.52,-338 403.53,-297.05 394.33,-279.04 415.52,-242 427.5,-221.05 452.07,-208.01 471.72,-200.52"/>
<polygon fill="#63b8ff" stroke="#63b8ff" points="430.69,-373.53 439.64,-379.21 436.19,-369.19 430.69,-373.53"/>
</g>
<!-- Node7 -->
<g id="node7" class="node">
<title>Node7</title>
<g id="a_node7"><a xlink:href="src_2enclave_2enclave_8h.html" target="_top" xlink:title=" ">
<polygon fill="white" stroke="#666666" points="1645.52,-74 1523.52,-74 1523.52,-55 1645.52,-55 1645.52,-74"/>
<text text-anchor="middle" x="1584.52" y="-62" font-family="Helvetica,sans-Serif" font-size="10.00">src/enclave/enclave.h</text>
</a>
</g>
</g>
<!-- Node6&#45;&gt;Node7 -->
<g id="edge6" class="edge">
<title>Node6&#45;&gt;Node7</title>
<path fill="none" stroke="#63b8ff" d="M557.28,-302.37C604.72,-271.81 701.14,-212.56 789.52,-176 888.97,-134.86 916.58,-129.01 1022.52,-110 1202.67,-77.68 1419.5,-68.83 1523.3,-66.41"/>
<polygon fill="#63b8ff" stroke="#63b8ff" points="555.22,-299.54 548.74,-307.91 559.03,-305.41 555.22,-299.54"/>
</g>
<!-- Node9 -->
<g id="node9" class="node">
<title>Node9</title>
<g id="a_node9"><a xlink:href="ccf__acme__client_8h.html" target="_top" xlink:title=" ">
<polygon fill="white" stroke="#666666" points="1508.02,-266.5 1359.02,-266.5 1359.02,-247.5 1508.02,-247.5 1508.02,-266.5"/>
<text text-anchor="middle" x="1433.52" y="-254.5" font-family="Helvetica,sans-Serif" font-size="10.00">src/node/ccf_acme_client.h</text>
</a>
</g>
</g>
<!-- Node6&#45;&gt;Node9 -->
<g id="edge8" class="edge">
<title>Node6&#45;&gt;Node9</title>
<path fill="none" stroke="#63b8ff" d="M607.71,-307.96C890.46,-275.01 1215.23,-263.42 1358.85,-259.64"/>
<polygon fill="#63b8ff" stroke="#63b8ff" points="607.19,-304.49 597.67,-309.14 608.01,-311.44 607.19,-304.49"/>
</g>
<!-- Node7&#45;&gt;Node8 -->
<g id="edge7" class="edge">
<title>Node7&#45;&gt;Node8</title>
<path fill="none" stroke="#63b8ff" d="M1637.99,-53C1688.61,-43.07 1763.66,-28.33 1810.8,-19.08"/>
<polygon fill="#63b8ff" stroke="#63b8ff" points="1637.03,-49.62 1627.9,-54.98 1638.38,-56.49 1637.03,-49.62"/>
</g>
<!-- Node9&#45;&gt;Node10 -->
<g id="edge9" class="edge">
<title>Node9&#45;&gt;Node10</title>
<path fill="none" stroke="#63b8ff" d="M1446.85,-239.27C1456.63,-226.99 1469.54,-210.8 1477.42,-200.91"/>
<polygon fill="#63b8ff" stroke="#63b8ff" points="1443.89,-237.37 1440.39,-247.37 1449.36,-241.73 1443.89,-237.37"/>
</g>
<!-- Node10&#45;&gt;Node7 -->
<g id="edge10" class="edge">
<title>Node10&#45;&gt;Node7</title>
<path fill="none" stroke="#63b8ff" d="M1484.76,-171.25C1485.88,-153.77 1489.97,-127.79 1503.52,-110 1516.83,-92.51 1539.09,-81 1556.91,-74.07"/>
<polygon fill="#63b8ff" stroke="#63b8ff" points="1481.26,-171.22 1484.37,-181.34 1488.25,-171.48 1481.26,-171.22"/>
</g>
<!-- Node11 -->
<g id="node11" class="node">
<title>Node11</title>
<g id="a_node11"><a xlink:href="gov__effects_8h.html" target="_top" xlink:title=" ">
<polygon fill="white" stroke="#666666" points="1656.52,-134.5 1512.52,-134.5 1512.52,-115.5 1656.52,-115.5 1656.52,-134.5"/>
<text text-anchor="middle" x="1584.52" y="-122.5" font-family="Helvetica,sans-Serif" font-size="10.00">src/node/rpc/gov_effects.h</text>
</a>
</g>
</g>
<!-- Node10&#45;&gt;Node11 -->
<g id="edge11" class="edge">
<title>Node10&#45;&gt;Node11</title>
<path fill="none" stroke="#63b8ff" d="M1506.63,-175.85C1526.28,-163.27 1554.4,-145.28 1570.92,-134.7"/>
<polygon fill="#63b8ff" stroke="#63b8ff" points="1504.54,-173.03 1498,-181.37 1508.31,-178.93 1504.54,-173.03"/>
</g>
<!-- Node11&#45;&gt;Node7 -->
<g id="edge12" class="edge">
<title>Node11&#45;&gt;Node7</title>
<path fill="none" stroke="#63b8ff" d="M1584.52,-105.16C1584.52,-94.74 1584.52,-82.3 1584.52,-74.17"/>
<polygon fill="#63b8ff" stroke="#63b8ff" points="1581.02,-105.37 1584.52,-115.37 1588.02,-105.37 1581.02,-105.37"/>
</g>
<!-- Node12&#45;&gt;Node7 -->
<g id="edge15" class="edge">
<title>Node12&#45;&gt;Node7</title>
<path fill="none" stroke="#63b8ff" d="M263.16,-297.6C260.2,-250.74 261.71,-149.31 324.52,-110 375.77,-77.92 1277.55,-68.06 1523.17,-65.97"/>
<polygon fill="#63b8ff" stroke="#63b8ff" points="259.69,-298.05 263.93,-307.76 266.67,-297.52 259.69,-298.05"/>
</g>
<!-- Node13&#45;&gt;Node7 -->
<g id="edge17" class="edge">
<title>Node13&#45;&gt;Node7</title>
<path fill="none" stroke="#63b8ff" d="M696.61,-303.4C699.7,-285.02 707.24,-257.45 725.52,-242 847.66,-138.72 1348.01,-86.08 1523.42,-70.52"/>
<polygon fill="#63b8ff" stroke="#63b8ff" points="693.12,-303.09 695.21,-313.48 700.05,-304.06 693.12,-303.09"/>
</g>
<!-- Node14 -->
<g id="node14" class="node">
<title>Node14</title>
<g id="a_node14"><a xlink:href="jwt__key__auto__refresh_8h.html" target="_top" xlink:title=" ">
<polygon fill="white" stroke="#666666" points="859.02,-272 734.02,-272 734.02,-242 859.02,-242 859.02,-272"/>
<text text-anchor="start" x="742.02" y="-260" font-family="Helvetica,sans-Serif" font-size="10.00">src/node/jwt_key_auto</text>
<text text-anchor="middle" x="796.52" y="-249" font-family="Helvetica,sans-Serif" font-size="10.00">_refresh.h</text>
</a>
</g>
</g>
<!-- Node13&#45;&gt;Node14 -->
<g id="edge18" class="edge">
<title>Node13&#45;&gt;Node14</title>
<path fill="none" stroke="#63b8ff" d="M716.97,-307.91C733.92,-297.28 757.06,-282.75 774.02,-272.12"/>
<polygon fill="#63b8ff" stroke="#63b8ff" points="714.88,-305.09 708.27,-313.37 718.6,-311.02 714.88,-305.09"/>
</g>
<!-- Node14&#45;&gt;Node10 -->
<g id="edge19" class="edge">
<title>Node14&#45;&gt;Node10</title>
<path fill="none" stroke="#63b8ff" d="M869.2,-242.45C870.31,-242.3 871.42,-242.15 872.52,-242 1072.51,-215.48 1311.27,-200.84 1422.18,-195.02"/>
<polygon fill="#63b8ff" stroke="#63b8ff" points="868.44,-239.03 859.06,-243.96 869.47,-245.95 868.44,-239.03"/>
</g>
<!-- Node15&#45;&gt;Node7 -->
<g id="edge21" class="edge">
<title>Node15&#45;&gt;Node7</title>
<path fill="none" stroke="#63b8ff" d="M513.38,-173.49C529.51,-154.24 559.11,-123.35 592.52,-110 678.61,-75.58 1320.52,-67.59 1523.31,-65.91"/>
<polygon fill="#63b8ff" stroke="#63b8ff" points="510.54,-171.44 506.96,-181.41 515.98,-175.85 510.54,-171.44"/>
</g>
<!-- Node17 -->
<g id="node17" class="node">
<title>Node17</title>
<g id="a_node17"><a xlink:href="call__types_8h.html" target="_top" xlink:title=" ">
<polygon fill="white" stroke="#666666" points="245.02,-464.5 108.02,-464.5 108.02,-445.5 245.02,-445.5 245.02,-464.5"/>
<text text-anchor="middle" x="176.52" y="-452.5" font-family="Helvetica,sans-Serif" font-size="10.00">src/node/rpc/call_types.h</text>
</a>
</g>
</g>
<!-- Node16&#45;&gt;Node17 -->
<g id="edge23" class="edge">
<title>Node16&#45;&gt;Node17</title>
<path fill="none" stroke="#63b8ff" d="M204.9,-497.28C197.19,-486.07 188.34,-473.19 182.6,-464.84"/>
<polygon fill="#63b8ff" stroke="#63b8ff" points="202.2,-499.54 210.75,-505.8 207.97,-495.57 202.2,-499.54"/>
</g>
<!-- Node17&#45;&gt;Node12 -->
<g id="edge26" class="edge">
<title>Node17&#45;&gt;Node12</title>
<path fill="none" stroke="#63b8ff" d="M212.66,-441.35C229.83,-433.38 248.88,-421.29 259.52,-404 271.93,-383.84 270.5,-355.17 268.14,-338.19"/>
<polygon fill="#63b8ff" stroke="#63b8ff" points="211.18,-438.17 203.38,-445.35 213.95,-444.6 211.18,-438.17"/>
</g>
<!-- Node18 -->
<g id="node18" class="node">
<title>Node18</title>
<g id="a_node18"><a xlink:href="common__endpoint__registry_8cpp.html" target="_top" xlink:title=" ">
<polygon fill="white" stroke="#666666" points="149.52,-338 21.52,-338 21.52,-308 149.52,-308 149.52,-338"/>
<text text-anchor="start" x="29.52" y="-326" font-family="Helvetica,sans-Serif" font-size="10.00">src/endpoints/common</text>
<text text-anchor="middle" x="85.52" y="-315" font-family="Helvetica,sans-Serif" font-size="10.00">_endpoint_registry.cpp</text>
</a>
</g>
</g>
<!-- Node17&#45;&gt;Node18 -->
<g id="edge24" class="edge">
<title>Node17&#45;&gt;Node18</title>
<path fill="none" stroke="#63b8ff" d="M140.91,-441.4C123.7,-433.41 104.44,-421.27 93.52,-404 80.83,-383.95 81.46,-355.25 83.32,-338.23"/>
<polygon fill="#63b8ff" stroke="#63b8ff" points="139.63,-444.66 150.19,-445.42 142.41,-438.24 139.63,-444.66"/>
</g>
<!-- Node19 -->
<g id="node19" class="node">
<title>Node19</title>
<g id="a_node19"><a xlink:href="wrap_8cpp.html" target="_top" xlink:title=" ">
<polygon fill="white" stroke="#666666" points="970.02,-266.5 881.02,-266.5 881.02,-247.5 970.02,-247.5 970.02,-266.5"/>
<text text-anchor="middle" x="925.52" y="-254.5" font-family="Helvetica,sans-Serif" font-size="10.00">src/js/wrap.cpp</text>
</a>
</g>
</g>
<!-- Node17&#45;&gt;Node19 -->
<g id="edge25" class="edge">
<title>Node17&#45;&gt;Node19</title>
<path fill="none" stroke="#63b8ff" d="M143.04,-441.74C81.55,-417.54 -38.59,-361.3 12.52,-308 45.46,-273.64 821.39,-278.71 868.52,-272 877.39,-270.74 886.9,-268.69 895.56,-266.54"/>
<polygon fill="#63b8ff" stroke="#63b8ff" points="142.14,-445.15 152.72,-445.48 144.66,-438.62 142.14,-445.15"/>
</g>
<!-- Node20 -->
<g id="node20" class="node">
<title>Node20</title>
<g id="a_node20"><a xlink:href="serialization_8h.html" target="_top" xlink:title=" ">
<polygon fill="white" stroke="#666666" points="250.52,-398.5 102.52,-398.5 102.52,-379.5 250.52,-379.5 250.52,-398.5"/>
<text text-anchor="middle" x="176.52" y="-386.5" font-family="Helvetica,sans-Serif" font-size="10.00">src/node/rpc/serialization.h</text>
</a>
</g>
</g>
<!-- Node17&#45;&gt;Node20 -->
<g id="edge27" class="edge">
<title>Node17&#45;&gt;Node20</title>
<path fill="none" stroke="#63b8ff" d="M176.52,-435.08C176.52,-423.13 176.52,-408.22 176.52,-398.91"/>
<polygon fill="#63b8ff" stroke="#63b8ff" points="173.02,-435.37 176.52,-445.37 180.02,-435.37 173.02,-435.37"/>
</g>
<!-- Node20&#45;&gt;Node10 -->
<g id="edge29" class="edge">
<title>Node20&#45;&gt;Node10</title>
<path fill="none" stroke="#63b8ff" d="M175.97,-368.86C176.53,-350.7 180.36,-323.88 196.52,-308 289.25,-216.87 352.75,-259.97 481.52,-242 834.85,-192.68 1264.16,-190.26 1422.24,-191.27"/>
<polygon fill="#63b8ff" stroke="#63b8ff" points="172.47,-369.11 175.97,-379.11 179.47,-369.11 172.47,-369.11"/>
</g>
<!-- Node20&#45;&gt;Node12 -->
<g id="edge30" class="edge">
<title>Node20&#45;&gt;Node12</title>
<path fill="none" stroke="#63b8ff" d="M196.93,-373.32C211.64,-362.74 231.37,-348.56 245.89,-338.12"/>
<polygon fill="#63b8ff" stroke="#63b8ff" points="194.59,-370.69 188.52,-379.37 198.68,-376.37 194.59,-370.69"/>
</g>
<!-- Node20&#45;&gt;Node13 -->
<g id="edge31" class="edge">
<title>Node20&#45;&gt;Node13</title>
<path fill="none" stroke="#63b8ff" d="M260.89,-379.25C347.68,-370 486.73,-354.48 606.52,-338 618.47,-336.35 631.31,-334.41 643.38,-332.51"/>
<polygon fill="#63b8ff" stroke="#63b8ff" points="260.4,-375.78 250.83,-380.32 261.14,-382.74 260.4,-375.78"/>
</g>
<!-- Node20&#45;&gt;Node18 -->
<g id="edge28" class="edge">
<title>Node20&#45;&gt;Node18</title>
<path fill="none" stroke="#63b8ff" d="M156.06,-373.62C140.98,-363.01 120.57,-348.66 105.59,-338.12"/>
<polygon fill="#63b8ff" stroke="#63b8ff" points="154.05,-376.48 164.24,-379.37 158.08,-370.75 154.05,-376.48"/>
</g>
<!-- Node21&#45;&gt;Node12 -->
<g id="edge66" class="edge">
<title>Node21&#45;&gt;Node12</title>
<path fill="none" stroke="#63b8ff" d="M761.45,-518.8C642.57,-515.81 442.16,-505.48 378.52,-470 323.09,-439.1 285.8,-368.66 271.75,-338.33"/>
<polygon fill="#63b8ff" stroke="#63b8ff" points="761.55,-522.3 771.63,-519.04 761.72,-515.3 761.55,-522.3"/>
</g>
<!-- Node21&#45;&gt;Node13 -->
<g id="edge71" class="edge">
<title>Node21&#45;&gt;Node13</title>
<path fill="none" stroke="#63b8ff" d="M830.11,-505.68C816.79,-496.49 800.09,-483.74 787.52,-470 745.31,-423.89 710.3,-356.32 698.65,-332.61"/>
<polygon fill="#63b8ff" stroke="#63b8ff" points="828.44,-508.78 838.7,-511.44 832.34,-502.96 828.44,-508.78"/>
</g>
<!-- Node21&#45;&gt;Node19 -->
<g id="edge33" class="edge">
<title>Node21&#45;&gt;Node19</title>
<path fill="none" stroke="#63b8ff" d="M846.39,-501.32C834.85,-462.54 813.98,-371.6 848.52,-308 859.54,-287.69 882.78,-274.35 900.86,-266.59"/>
<polygon fill="#63b8ff" stroke="#63b8ff" points="843.15,-502.7 849.47,-511.21 849.84,-500.62 843.15,-502.7"/>
</g>
<!-- Node22 -->
<g id="node22" class="node">
<title>Node22</title>
<g id="a_node22"><a xlink:href="wrap_8h.html" target="_top" xlink:title=" ">
<polygon fill="white" stroke="#666666" points="1155.52,-398.5 1077.52,-398.5 1077.52,-379.5 1155.52,-379.5 1155.52,-398.5"/>
<text text-anchor="middle" x="1116.52" y="-386.5" font-family="Helvetica,sans-Serif" font-size="10.00">src/js/wrap.h</text>
</a>
</g>
</g>
<!-- Node21&#45;&gt;Node22 -->
<g id="edge34" class="edge">
<title>Node21&#45;&gt;Node22</title>
<path fill="none" stroke="#63b8ff" d="M879.09,-506.91C933.03,-480.35 1054.03,-420.77 1099.13,-398.56"/>
<polygon fill="#63b8ff" stroke="#63b8ff" points="877.26,-503.91 869.84,-511.47 880.36,-510.19 877.26,-503.91"/>
</g>
<!-- Node29 -->
<g id="node29" class="node">
<title>Node29</title>
<g id="a_node29"><a xlink:href="historical__queries_8h.html" target="_top" xlink:title=" ">
<polygon fill="white" stroke="#666666" points="404.52,-206 298.52,-206 298.52,-176 404.52,-176 404.52,-206"/>
<text text-anchor="start" x="306.52" y="-194" font-family="Helvetica,sans-Serif" font-size="10.00">src/node/historical</text>
<text text-anchor="middle" x="351.52" y="-183" font-family="Helvetica,sans-Serif" font-size="10.00">_queries.h</text>
</a>
</g>
</g>
<!-- Node21&#45;&gt;Node29 -->
<g id="edge50" class="edge">
<title>Node21&#45;&gt;Node29</title>
<path fill="none" stroke="#63b8ff" d="M761.43,-516.72C687.13,-511.86 580.31,-499.8 491.52,-470 434.55,-450.88 406.55,-454.19 373.52,-404 331.71,-340.48 342.85,-242.33 348.87,-206.08"/>
<polygon fill="#63b8ff" stroke="#63b8ff" points="761.5,-520.23 771.7,-517.36 761.93,-513.25 761.5,-520.23"/>
</g>
<!-- Node31 -->
<g id="node31" class="node">
<title>Node31</title>
<g id="a_node31"><a xlink:href="node__configuration__subsystem_8h.html" target="_top" xlink:title=" ">
<polygon fill="white" stroke="#666666" points="654.52,-470 500.52,-470 500.52,-440 654.52,-440 654.52,-470"/>
<text text-anchor="start" x="508.52" y="-458" font-family="Helvetica,sans-Serif" font-size="10.00">src/node/node_configuration</text>
<text text-anchor="middle" x="577.52" y="-447" font-family="Helvetica,sans-Serif" font-size="10.00">_subsystem.h</text>
</a>
</g>
</g>
<!-- Node21&#45;&gt;Node31 -->
<g id="edge54" class="edge">
<title>Node21&#45;&gt;Node31</title>
<path fill="none" stroke="#63b8ff" d="M805.94,-509.16C759.63,-498.38 688.38,-481.8 637.78,-470.02"/>
<polygon fill="#63b8ff" stroke="#63b8ff" points="805.18,-512.58 815.71,-511.44 806.77,-505.76 805.18,-512.58"/>
</g>
<!-- Node32 -->
<g id="node32" class="node">
<title>Node32</title>
<g id="a_node32"><a xlink:href="acme__subsystem_8h.html" target="_top" xlink:title=" ">
<polygon fill="white" stroke="#666666" points="2121.02,-200.5 1948.02,-200.5 1948.02,-181.5 2121.02,-181.5 2121.02,-200.5"/>
<text text-anchor="middle" x="2034.52" y="-188.5" font-family="Helvetica,sans-Serif" font-size="10.00">src/node/rpc/acme_subsystem.h</text>
</a>
</g>
</g>
<!-- Node21&#45;&gt;Node32 -->
<g id="edge56" class="edge">
<title>Node21&#45;&gt;Node32</title>
<path fill="none" stroke="#63b8ff" d="M943.23,-519.84C1152.27,-518.76 1662.59,-511.78 1828.52,-470 1909.1,-449.71 1997.52,-473.1 1997.52,-390 1997.52,-390 1997.52,-390 1997.52,-322 1997.52,-274.6 2020.55,-221.06 2030.27,-200.59"/>
<polygon fill="#63b8ff" stroke="#63b8ff" points="943.19,-516.34 933.21,-519.89 943.23,-523.34 943.19,-516.34"/>
</g>
<!-- Node33 -->
<g id="node33" class="node">
<title>Node33</title>
<g id="a_node33"><a xlink:href="custom__protocol__subsystem_8h.html" target="_top" xlink:title=" ">
<polygon fill="white" stroke="#666666" points="1587.02,-404 1458.02,-404 1458.02,-374 1587.02,-374 1587.02,-404"/>
<text text-anchor="start" x="1466.02" y="-392" font-family="Helvetica,sans-Serif" font-size="10.00">src/node/rpc/custom</text>
<text text-anchor="middle" x="1522.52" y="-381" font-family="Helvetica,sans-Serif" font-size="10.00">_protocol_subsystem.h</text>
</a>
</g>
</g>
<!-- Node21&#45;&gt;Node33 -->
<g id="edge58" class="edge">
<title>Node21&#45;&gt;Node33</title>
<path fill="none" stroke="#63b8ff" d="M906.35,-509.55C1028.48,-485.86 1326.13,-428.1 1457.91,-402.54"/>
<polygon fill="#63b8ff" stroke="#63b8ff" points="905.63,-506.13 896.48,-511.47 906.96,-513 905.63,-506.13"/>
</g>
<!-- Node36 -->
<g id="node36" class="node">
<title>Node36</title>
<g id="a_node36"><a xlink:href="network__identity__subsystem_8h.html" target="_top" xlink:title=" ">
<polygon fill="white" stroke="#666666" points="1819.02,-470 1692.02,-470 1692.02,-440 1819.02,-440 1819.02,-470"/>
<text text-anchor="start" x="1700.02" y="-458" font-family="Helvetica,sans-Serif" font-size="10.00">src/node/rpc/network</text>
<text text-anchor="middle" x="1755.52" y="-447" font-family="Helvetica,sans-Serif" font-size="10.00">_identity_subsystem.h</text>
</a>
</g>
</g>
<!-- Node21&#45;&gt;Node36 -->
<g id="edge67" class="edge">
<title>Node21&#45;&gt;Node36</title>
<path fill="none" stroke="#63b8ff" d="M943.17,-513.58C1125.93,-500.62 1534.56,-471.66 1691.99,-460.5"/>
<polygon fill="#63b8ff" stroke="#63b8ff" points="942.78,-510.09 933.05,-514.29 943.27,-517.08 942.78,-510.09"/>
</g>
<!-- Node39 -->
<g id="node39" class="node">
<title>Node39</title>
<g id="a_node39"><a xlink:href="node__operation_8h.html" target="_top" xlink:title=" ">
<polygon fill="white" stroke="#666666" points="2173.52,-134.5 2009.52,-134.5 2009.52,-115.5 2173.52,-115.5 2173.52,-134.5"/>
<text text-anchor="middle" x="2091.52" y="-122.5" font-family="Helvetica,sans-Serif" font-size="10.00">src/node/rpc/node_operation.h</text>
</a>
</g>
</g>
<!-- Node21&#45;&gt;Node39 -->
<g id="edge72" class="edge">
<title>Node21&#45;&gt;Node39</title>
<path fill="none" stroke="#63b8ff" d="M943.54,-518.6C1184.16,-514.49 1824.86,-500.76 1915.52,-470 2058.81,-421.38 2089.8,-351.74 2130.52,-206 2134.1,-193.16 2134.85,-188.61 2130.52,-176 2124.79,-159.34 2110.99,-143.98 2101.44,-134.79"/>
<polygon fill="#63b8ff" stroke="#63b8ff" points="943.36,-515.1 933.42,-518.77 943.48,-522.1 943.36,-515.1"/>
</g>
<!-- Node22&#45;&gt;Node7 -->
<g id="edge36" class="edge">
<title>Node22&#45;&gt;Node7</title>
<path fill="none" stroke="#63b8ff" d="M1166.3,-386.09C1323.35,-379.86 1799.44,-359.3 1824.52,-338 1852.37,-314.34 1843.52,-294.54 1843.52,-258 1843.52,-258 1843.52,-258 1843.52,-190 1843.52,-102.57 1722.14,-76.5 1645.57,-68.75"/>
<polygon fill="#63b8ff" stroke="#63b8ff" points="1165.84,-382.61 1155.99,-386.5 1166.12,-389.6 1165.84,-382.61"/>
</g>
<!-- Node22&#45;&gt;Node10 -->
<g id="edge47" class="edge">
<title>Node22&#45;&gt;Node10</title>
<path fill="none" stroke="#63b8ff" d="M1165.96,-386.81C1287.32,-383.37 1592.21,-371.45 1622.52,-338 1631.47,-328.12 1629.39,-319.42 1622.52,-308 1604.88,-278.7 1581.33,-293.22 1554.52,-272 1526.87,-250.13 1501.51,-216.36 1490.42,-200.62"/>
<polygon fill="#63b8ff" stroke="#63b8ff" points="1165.73,-383.31 1155.83,-387.09 1165.92,-390.31 1165.73,-383.31"/>
</g>
<!-- Node22&#45;&gt;Node12 -->
<g id="edge48" class="edge">
<title>Node22&#45;&gt;Node12</title>
<path fill="none" stroke="#63b8ff" d="M1067.18,-384.33C956.49,-376.11 679.94,-355.51 448.52,-338 407.53,-334.9 361.38,-331.37 325.68,-328.63"/>
<polygon fill="#63b8ff" stroke="#63b8ff" points="1067.13,-387.84 1077.36,-385.09 1067.65,-380.86 1067.13,-387.84"/>
</g>
<!-- Node22&#45;&gt;Node13 -->
<g id="edge49" class="edge">
<title>Node22&#45;&gt;Node13</title>
<path fill="none" stroke="#63b8ff" d="M1067.02,-380.49C988.01,-368.51 833.86,-345.13 750.79,-332.53"/>
<polygon fill="#63b8ff" stroke="#63b8ff" points="1066.78,-384 1077.19,-382.04 1067.83,-377.08 1066.78,-384"/>
</g>
<!-- Node22&#45;&gt;Node19 -->
<g id="edge46" class="edge">
<title>Node22&#45;&gt;Node19</title>
<path fill="none" stroke="#63b8ff" d="M1066.97,-385.66C999.58,-381.32 884.42,-369.41 858.52,-338 836.96,-311.87 882.65,-281.22 908.84,-266.61"/>
<polygon fill="#63b8ff" stroke="#63b8ff" points="1067.16,-389.18 1077.35,-386.29 1067.58,-382.19 1067.16,-389.18"/>
</g>
<!-- Node23 -->
<g id="node23" class="node">
<title>Node23</title>
<g id="a_node23"><a xlink:href="js__generic__base_8cpp.html" target="_top" xlink:title=" ">
<polygon fill="white" stroke="#666666" points="1225.52,-338 1107.52,-338 1107.52,-308 1225.52,-308 1225.52,-338"/>
<text text-anchor="start" x="1115.52" y="-326" font-family="Helvetica,sans-Serif" font-size="10.00">src/apps/js_generic</text>
<text text-anchor="middle" x="1166.52" y="-315" font-family="Helvetica,sans-Serif" font-size="10.00">/js_generic_base.cpp</text>
</a>
</g>
</g>
<!-- Node22&#45;&gt;Node23 -->
<g id="edge35" class="edge">
<title>Node22&#45;&gt;Node23</title>
<path fill="none" stroke="#63b8ff" d="M1129.61,-371.24C1137.59,-361.02 1147.69,-348.1 1155.3,-338.36"/>
<polygon fill="#63b8ff" stroke="#63b8ff" points="1126.66,-369.33 1123.26,-379.37 1132.17,-373.64 1126.66,-369.33"/>
</g>
<!-- Node24 -->
<g id="node24" class="node">
<title>Node24</title>
<g id="a_node24"><a xlink:href="consensus_8cpp.html" target="_top" xlink:title=" ">
<polygon fill="white" stroke="#666666" points="983.52,-332.5 867.52,-332.5 867.52,-313.5 983.52,-313.5 983.52,-332.5"/>
<text text-anchor="middle" x="925.52" y="-320.5" font-family="Helvetica,sans-Serif" font-size="10.00">src/js/consensus.cpp</text>
</a>
</g>
</g>
<!-- Node22&#45;&gt;Node24 -->
<g id="edge37" class="edge">
<title>Node22&#45;&gt;Node24</title>
<path fill="none" stroke="#63b8ff" d="M1081.19,-376.16C1043.49,-363.53 984.68,-343.82 951.17,-332.6"/>
<polygon fill="#63b8ff" stroke="#63b8ff" points="1080.16,-379.51 1090.76,-379.37 1082.39,-372.87 1080.16,-379.51"/>
</g>
<!-- Node25 -->
<g id="node25" class="node">
<title>Node25</title>
<g id="a_node25"><a xlink:href="conv_8cpp.html" target="_top" xlink:title=" ">
<polygon fill="white" stroke="#666666" points="1089.52,-332.5 1001.52,-332.5 1001.52,-313.5 1089.52,-313.5 1089.52,-332.5"/>
<text text-anchor="middle" x="1045.52" y="-320.5" font-family="Helvetica,sans-Serif" font-size="10.00">src/js/conv.cpp</text>
</a>
</g>
</g>
<!-- Node22&#45;&gt;Node25 -->
<g id="edge39" class="edge">
<title>Node22&#45;&gt;Node25</title>
<path fill="none" stroke="#63b8ff" d="M1099.13,-372.33C1085.39,-359.94 1066.69,-343.09 1055.4,-332.91"/>
<polygon fill="#63b8ff" stroke="#63b8ff" points="1097.17,-375.27 1106.94,-379.37 1101.86,-370.07 1097.17,-375.27"/>
</g>
<!-- Node26 -->
<g id="node26" class="node">
<title>Node26</title>
<g id="a_node26"><a xlink:href="crypto_8cpp.html" target="_top" xlink:title=" ">
<polygon fill="white" stroke="#666666" points="1339.52,-332.5 1243.52,-332.5 1243.52,-313.5 1339.52,-313.5 1339.52,-332.5"/>
<text text-anchor="middle" x="1291.52" y="-320.5" font-family="Helvetica,sans-Serif" font-size="10.00">src/js/crypto.cpp</text>
</a>
</g>
</g>
<!-- Node22&#45;&gt;Node26 -->
<g id="edge41" class="edge">
<title>Node22&#45;&gt;Node26</title>
<path fill="none" stroke="#63b8ff" d="M1149.77,-375.84C1184.34,-363.2 1237.57,-343.73 1268.01,-332.6"/>
<polygon fill="#63b8ff" stroke="#63b8ff" points="1148.31,-372.65 1140.12,-379.37 1150.71,-379.22 1148.31,-372.65"/>
</g>
<!-- Node27 -->
<g id="node27" class="node">
<title>Node27</title>
<g id="a_node27"><a xlink:href="historical_8cpp.html" target="_top" xlink:title=" ">
<polygon fill="white" stroke="#666666" points="1467.52,-332.5 1357.52,-332.5 1357.52,-313.5 1467.52,-313.5 1467.52,-332.5"/>
<text text-anchor="middle" x="1412.52" y="-320.5" font-family="Helvetica,sans-Serif" font-size="10.00">src/js/historical.cpp</text>
</a>
</g>
</g>
<!-- Node22&#45;&gt;Node27 -->
<g id="edge43" class="edge">
<title>Node22&#45;&gt;Node27</title>
<path fill="none" stroke="#63b8ff" d="M1165.42,-377.51C1212.38,-367.42 1285.31,-351.72 1348.52,-338 1356.63,-336.24 1365.32,-334.34 1373.6,-332.53"/>
<polygon fill="#63b8ff" stroke="#63b8ff" points="1164.56,-374.11 1155.52,-379.63 1166.03,-380.95 1164.56,-374.11"/>
</g>
<!-- Node28 -->
<g id="node28" class="node">
<title>Node28</title>
<g id="a_node28"><a xlink:href="openenclave_8cpp.html" target="_top" xlink:title=" ">
<polygon fill="white" stroke="#666666" points="1613.52,-332.5 1485.52,-332.5 1485.52,-313.5 1613.52,-313.5 1613.52,-332.5"/>
<text text-anchor="middle" x="1549.52" y="-320.5" font-family="Helvetica,sans-Serif" font-size="10.00">src/js/openenclave.cpp</text>
</a>
</g>
</g>
<!-- Node22&#45;&gt;Node28 -->
<g id="edge45" class="edge">
<title>Node22&#45;&gt;Node28</title>
<path fill="none" stroke="#63b8ff" d="M1165.98,-381.95C1235.48,-373.26 1365.93,-356.27 1476.52,-338 1486.45,-336.36 1497.1,-334.42 1507.12,-332.51"/>
<polygon fill="#63b8ff" stroke="#63b8ff" points="1165.26,-378.51 1155.77,-383.22 1166.13,-385.46 1165.26,-378.51"/>
</g>
<!-- Node24&#45;&gt;Node19 -->
<g id="edge38" class="edge">
<title>Node24&#45;&gt;Node19</title>
<path fill="none" stroke="#63b8ff" d="M925.52,-303.08C925.52,-291.13 925.52,-276.22 925.52,-266.91"/>
<polygon fill="#63b8ff" stroke="#63b8ff" points="922.02,-303.37 925.52,-313.37 929.02,-303.37 922.02,-303.37"/>
</g>
<!-- Node25&#45;&gt;Node19 -->
<g id="edge40" class="edge">
<title>Node25&#45;&gt;Node19</title>
<path fill="none" stroke="#63b8ff" d="M1020.25,-308.53C996.62,-295.92 962.02,-277.47 941.83,-266.7"/>
<polygon fill="#63b8ff" stroke="#63b8ff" points="1018.86,-311.75 1029.33,-313.37 1022.16,-305.57 1018.86,-311.75"/>
</g>
<!-- Node26&#45;&gt;Node19 -->
<g id="edge42" class="edge">
<title>Node26&#45;&gt;Node19</title>
<path fill="none" stroke="#63b8ff" d="M1248.93,-311.14C1244.08,-310.03 1239.2,-308.95 1234.52,-308 1141.06,-288.99 1030.52,-272.55 970.24,-264.08"/>
<polygon fill="#63b8ff" stroke="#63b8ff" points="1248.23,-314.57 1258.76,-313.48 1249.84,-307.76 1248.23,-314.57"/>
</g>
<!-- Node27&#45;&gt;Node19 -->
<g id="edge44" class="edge">
<title>Node27&#45;&gt;Node19</title>
<path fill="none" stroke="#63b8ff" d="M1366.44,-311.36C1360.43,-310.14 1354.34,-308.98 1348.52,-308 1211.42,-284.96 1047.55,-268.79 970.18,-261.83"/>
<polygon fill="#63b8ff" stroke="#63b8ff" points="1365.91,-314.82 1376.42,-313.46 1367.36,-307.97 1365.91,-314.82"/>
</g>
<!-- Node29&#45;&gt;Node7 -->
<g id="edge51" class="edge">
<title>Node29&#45;&gt;Node7</title>
<path fill="none" stroke="#63b8ff" d="M393.83,-171.93C447.98,-148.86 535.76,-111.72 543.52,-110 731.91,-68.12 1329.45,-65.14 1523.21,-65.31"/>
<polygon fill="#63b8ff" stroke="#63b8ff" points="392.3,-168.78 384.47,-175.92 395.04,-175.22 392.3,-168.78"/>
</g>
<!-- Node30 -->
<g id="node30" class="node">
<title>Node30</title>
<g id="a_node30"><a xlink:href="historical__transaction__fetcher_8h.html" target="_top" xlink:title=" ">
<polygon fill="white" stroke="#666666" points="459.02,-140 334.02,-140 334.02,-110 459.02,-110 459.02,-140"/>
<text text-anchor="start" x="342.02" y="-128" font-family="Helvetica,sans-Serif" font-size="10.00">src/indexing/historical</text>
<text text-anchor="middle" x="396.52" y="-117" font-family="Helvetica,sans-Serif" font-size="10.00">_transaction_fetcher.h</text>
</a>
</g>
</g>
<!-- Node29&#45;&gt;Node30 -->
<g id="edge52" class="edge">
<title>Node29&#45;&gt;Node30</title>
<path fill="none" stroke="#63b8ff" d="M367.32,-167.53C373.72,-158.43 380.91,-148.19 386.56,-140.16"/>
<polygon fill="#63b8ff" stroke="#63b8ff" points="364.39,-165.6 361.5,-175.8 370.12,-169.63 364.39,-165.6"/>
</g>
<!-- Node30&#45;&gt;Node7 -->
<g id="edge53" class="edge">
<title>Node30&#45;&gt;Node7</title>
<path fill="none" stroke="#63b8ff" d="M469.54,-111.15C472.91,-110.73 476.25,-110.34 479.52,-110 875.77,-68.77 1355.63,-65.14 1523.23,-65.25"/>
<polygon fill="#63b8ff" stroke="#63b8ff" points="468.83,-107.72 459.39,-112.53 469.77,-114.66 468.83,-107.72"/>
</g>
<!-- Node31&#45;&gt;Node5 -->
<g id="edge55" class="edge">
<title>Node31&#45;&gt;Node5</title>
<path fill="none" stroke="#63b8ff" d="M539.85,-435.46C515.1,-423.27 483.87,-407.9 464.82,-398.52"/>
<polygon fill="#63b8ff" stroke="#63b8ff" points="538.47,-438.68 548.99,-439.95 541.56,-432.4 538.47,-438.68"/>
</g>
<!-- Node32&#45;&gt;Node7 -->
<g id="edge57" class="edge">
<title>Node32&#45;&gt;Node7</title>
<path fill="none" stroke="#63b8ff" d="M2019.8,-173.93C2001.55,-155.14 1968.54,-124.74 1933.52,-110 1882.99,-88.74 1731.73,-75.41 1645.85,-69.35"/>
<polygon fill="#63b8ff" stroke="#63b8ff" points="2017.48,-176.56 2026.89,-181.42 2022.56,-171.75 2017.48,-176.56"/>
</g>
<!-- Node33&#45;&gt;Node7 -->
<g id="edge59" class="edge">
<title>Node33&#45;&gt;Node7</title>
<path fill="none" stroke="#63b8ff" d="M1597.09,-374.18C1668.93,-365.53 1815.13,-374.3 1857.52,-338 1885.71,-313.85 1881.52,-295.12 1881.52,-258 1881.52,-258 1881.52,-258 1881.52,-190 1881.52,-152.88 1885.41,-134.49 1857.52,-110 1826.8,-83.03 1716.19,-72.25 1645.55,-68.06"/>
<polygon fill="#63b8ff" stroke="#63b8ff" points="1596.47,-370.74 1587.06,-375.59 1597.45,-377.67 1596.47,-370.74"/>
</g>
<!-- Node34 -->
<g id="node34" class="node">
<title>Node34</title>
<g id="a_node34"><a xlink:href="rpc__sessions_8h.html" target="_top" xlink:title=" ">
<polygon fill="white" stroke="#666666" points="1815.52,-332.5 1669.52,-332.5 1669.52,-313.5 1815.52,-313.5 1815.52,-332.5"/>
<text text-anchor="middle" x="1742.52" y="-320.5" font-family="Helvetica,sans-Serif" font-size="10.00">src/enclave/rpc_sessions.h</text>
</a>
</g>
</g>
<!-- Node33&#45;&gt;Node34 -->
<g id="edge60" class="edge">
<title>Node33&#45;&gt;Node34</title>
<path fill="none" stroke="#63b8ff" d="M1580.51,-371.13C1623.21,-358.71 1679.5,-342.33 1713.24,-332.52"/>
<polygon fill="#63b8ff" stroke="#63b8ff" points="1579.42,-367.8 1570.8,-373.95 1581.38,-374.52 1579.42,-367.8"/>
</g>
<!-- Node34&#45;&gt;Node7 -->
<g id="edge61" class="edge">
<title>Node34&#45;&gt;Node7</title>
<path fill="none" stroke="#63b8ff" d="M1750.08,-303.95C1755.88,-287.52 1761.91,-262.74 1755.52,-242 1734.59,-174.15 1718.08,-157.74 1665.52,-110 1647.94,-94.03 1623.61,-81.66 1606.22,-74.05"/>
<polygon fill="#63b8ff" stroke="#63b8ff" points="1746.76,-302.83 1746.43,-313.42 1753.29,-305.34 1746.76,-302.83"/>
</g>
<!-- Node34&#45;&gt;Node9 -->
<g id="edge62" class="edge">
<title>Node34&#45;&gt;Node9</title>
<path fill="none" stroke="#63b8ff" d="M1691.03,-311.34C1630.27,-298.75 1530.46,-278.08 1474.62,-266.51"/>
<polygon fill="#63b8ff" stroke="#63b8ff" points="1690.66,-314.83 1701.16,-313.44 1692.08,-307.98 1690.66,-314.83"/>
</g>
<!-- Node34&#45;&gt;Node10 -->
<g id="edge63" class="edge">
<title>Node34&#45;&gt;Node10</title>
<path fill="none" stroke="#63b8ff" d="M1746.91,-303.39C1749.96,-285.42 1751.2,-258.58 1736.52,-242 1711.93,-214.25 1613,-201.45 1546.65,-195.89"/>
<polygon fill="#63b8ff" stroke="#63b8ff" points="1743.47,-302.76 1744.9,-313.25 1750.33,-304.15 1743.47,-302.76"/>
</g>
<!-- Node35 -->
<g id="node35" class="node">
<title>Node35</title>
<g id="a_node35"><a xlink:href="quote__endorsements__client_8h.html" target="_top" xlink:title=" ">
<polygon fill="white" stroke="#666666" points="1727.52,-272 1563.52,-272 1563.52,-242 1727.52,-242 1727.52,-272"/>
<text text-anchor="start" x="1571.52" y="-260" font-family="Helvetica,sans-Serif" font-size="10.00">src/node/quote_endorsements</text>
<text text-anchor="middle" x="1645.52" y="-249" font-family="Helvetica,sans-Serif" font-size="10.00">_client.h</text>
</a>
</g>
</g>
<!-- Node34&#45;&gt;Node35 -->
<g id="edge64" class="edge">
<title>Node34&#45;&gt;Node35</title>
<path fill="none" stroke="#63b8ff" d="M1720.71,-307.62C1704.64,-297.01 1682.89,-282.66 1666.91,-272.12"/>
<polygon fill="#63b8ff" stroke="#63b8ff" points="1719.16,-310.78 1729.43,-313.37 1723.01,-304.94 1719.16,-310.78"/>
</g>
<!-- Node35&#45;&gt;Node10 -->
<g id="edge65" class="edge">
<title>Node35&#45;&gt;Node10</title>
<path fill="none" stroke="#63b8ff" d="M1600.89,-238.26C1569.93,-225.95 1530.06,-210.11 1505.94,-200.52"/>
<polygon fill="#63b8ff" stroke="#63b8ff" points="1599.6,-241.51 1610.18,-241.95 1602.18,-235.01 1599.6,-241.51"/>
</g>
<!-- Node36&#45;&gt;Node7 -->
<g id="edge69" class="edge">
<title>Node36&#45;&gt;Node7</title>
<path fill="none" stroke="#63b8ff" d="M1823.88,-437.22C1855.98,-428.03 1889.58,-416.07 1900.52,-404 1925.05,-376.91 1919.52,-360.54 1919.52,-324 1919.52,-324 1919.52,-324 1919.52,-190 1919.52,-150.64 1913.13,-133.45 1881.52,-110 1845.13,-83.02 1721.32,-72.17 1645.52,-67.97"/>
<polygon fill="#63b8ff" stroke="#63b8ff" points="1822.68,-433.92 1813.99,-439.98 1824.56,-440.66 1822.68,-433.92"/>
</g>
<!-- Node37 -->
<g id="node37" class="node">
<title>Node37</title>
<g id="a_node37"><a xlink:href="external__executor_8cpp.html" target="_top" xlink:title=" ">
<polygon fill="white" stroke="#666666" points="1753.52,-404 1605.52,-404 1605.52,-374 1753.52,-374 1753.52,-404"/>
<text text-anchor="start" x="1613.52" y="-392" font-family="Helvetica,sans-Serif" font-size="10.00">src/apps/external_executor</text>
<text text-anchor="middle" x="1679.52" y="-381" font-family="Helvetica,sans-Serif" font-size="10.00">/external_executor.cpp</text>
</a>
</g>
</g>
<!-- Node36&#45;&gt;Node37 -->
<g id="edge68" class="edge">
<title>Node36&#45;&gt;Node37</title>
<path fill="none" stroke="#63b8ff" d="M1730.82,-433.2C1719.53,-423.7 1706.46,-412.69 1696.34,-404.16"/>
<polygon fill="#63b8ff" stroke="#63b8ff" points="1728.75,-436.03 1738.65,-439.8 1733.25,-430.68 1728.75,-436.03"/>
</g>
<!-- Node38 -->
<g id="node38" class="node">
<title>Node38</title>
<g id="a_node38"><a xlink:href="historical__queries__adapter_8cpp.html" target="_top" xlink:title=" ">
<polygon fill="white" stroke="#666666" points="1891.52,-404 1771.52,-404 1771.52,-374 1891.52,-374 1891.52,-404"/>
<text text-anchor="start" x="1779.52" y="-392" font-family="Helvetica,sans-Serif" font-size="10.00">src/node/historical</text>
<text text-anchor="middle" x="1831.52" y="-381" font-family="Helvetica,sans-Serif" font-size="10.00">_queries_adapter.cpp</text>
</a>
</g>
</g>
<!-- Node36&#45;&gt;Node38 -->
<g id="edge70" class="edge">
<title>Node36&#45;&gt;Node38</title>
<path fill="none" stroke="#63b8ff" d="M1780.21,-433.2C1791.5,-423.7 1804.57,-412.69 1814.7,-404.16"/>
<polygon fill="#63b8ff" stroke="#63b8ff" points="1777.78,-430.68 1772.38,-439.8 1782.29,-436.03 1777.78,-430.68"/>
</g>
<!-- Node39&#45;&gt;Node7 -->
<g id="edge73" class="edge">
<title>Node39&#45;&gt;Node7</title>
<path fill="none" stroke="#63b8ff" d="M2014.18,-114.21C2002.57,-112.77 1990.73,-111.33 1979.52,-110 1861.48,-95.97 1723.45,-80.68 1645.78,-72.17"/>
<polygon fill="#63b8ff" stroke="#63b8ff" points="2013.96,-117.71 2024.31,-115.46 2014.82,-110.76 2013.96,-117.71"/>
</g>
</g>
</svg>
