<?xml version="1.0" encoding="UTF-8" standalone="no"?>
<!DOCTYPE svg PUBLIC "-//W3C//DTD SVG 1.1//EN"
 "http://www.w3.org/Graphics/SVG/1.1/DTD/svg11.dtd">
<!-- Generated by graphviz version 2.43.0 (0)
 -->
<!-- Title: include/ccf/endpoint_registry.h Pages: 1 -->
<svg width="3052pt" height="588pt"
 viewBox="0.00 0.00 3052.29 588.00" xmlns="http://www.w3.org/2000/svg" xmlns:xlink="http://www.w3.org/1999/xlink">
<g id="graph0" class="graph" transform="scale(1 1) rotate(0) translate(4 584)">
<title>include/ccf/endpoint_registry.h</title>
<!-- Node1 -->
<g id="node1" class="node">
<title>Node1</title>
<g id="a_node1"><a xlink:title=" ">
<polygon fill="#999999" stroke="#666666" points="1976.5,-580 1861.5,-580 1861.5,-550 1976.5,-550 1976.5,-580"/>
<text text-anchor="start" x="1869.5" y="-568" font-family="Helvetica,sans-Serif" font-size="10.00">include/ccf/endpoint</text>
<text text-anchor="middle" x="1919" y="-557" font-family="Helvetica,sans-Serif" font-size="10.00">_registry.h</text>
</a>
</g>
</g>
<!-- Node2 -->
<g id="node2" class="node">
<title>Node2</title>
<g id="a_node2"><a xlink:href="base__endpoint__registry_8h.html" target="_top" xlink:title=" ">
<polygon fill="white" stroke="#666666" points="1871.5,-514 1728.5,-514 1728.5,-484 1871.5,-484 1871.5,-514"/>
<text text-anchor="start" x="1736.5" y="-502" font-family="Helvetica,sans-Serif" font-size="10.00">include/ccf/base_endpoint</text>
<text text-anchor="middle" x="1800" y="-491" font-family="Helvetica,sans-Serif" font-size="10.00">_registry.h</text>
</a>
</g>
</g>
<!-- Node1&#45;&gt;Node2 -->
<g id="edge1" class="edge">
<title>Node1&#45;&gt;Node2</title>
<path fill="none" stroke="#63b8ff" d="M1883.87,-545.11C1865.35,-535.14 1843.01,-523.13 1826.05,-514.01"/>
<polygon fill="#63b8ff" stroke="#63b8ff" points="1882.42,-548.3 1892.88,-549.95 1885.74,-542.14 1882.42,-548.3"/>
</g>
<!-- Node22 -->
<g id="node22" class="node">
<title>Node22</title>
<g id="a_node22"><a xlink:href="acme__challenge__frontend_8h.html" target="_top" xlink:title=" ">
<polygon fill="white" stroke="#666666" points="3024,-327 2884,-327 2884,-297 3024,-297 3024,-327"/>
<text text-anchor="start" x="2892" y="-315" font-family="Helvetica,sans-Serif" font-size="10.00">src/node/acme_challenge</text>
<text text-anchor="middle" x="2954" y="-304" font-family="Helvetica,sans-Serif" font-size="10.00">_frontend.h</text>
</a>
</g>
</g>
<!-- Node1&#45;&gt;Node22 -->
<g id="edge69" class="edge">
<title>Node1&#45;&gt;Node22</title>
<path fill="none" stroke="#63b8ff" d="M1986.78,-547.56C2177.77,-501.24 2718.08,-370.21 2896.23,-327.01"/>
<polygon fill="#63b8ff" stroke="#63b8ff" points="1985.76,-544.21 1976.86,-549.97 1987.41,-551.01 1985.76,-544.21"/>
</g>
<!-- Node36 -->
<g id="node36" class="node">
<title>Node36</title>
<g id="a_node36"><a xlink:href="json__handler_8h.html" target="_top" xlink:title=" ">
<polygon fill="white" stroke="#666666" points="594.5,-382 451.5,-382 451.5,-363 594.5,-363 594.5,-382"/>
<text text-anchor="middle" x="523" y="-370" font-family="Helvetica,sans-Serif" font-size="10.00">include/ccf/json_handler.h</text>
</a>
</g>
</g>
<!-- Node1&#45;&gt;Node36 -->
<g id="edge57" class="edge">
<title>Node1&#45;&gt;Node36</title>
<path fill="none" stroke="#63b8ff" d="M1851.34,-560.49C1677.27,-550.69 1200.13,-518.96 809,-448 712.57,-430.51 600.83,-397.65 550.3,-382.09"/>
<polygon fill="#63b8ff" stroke="#63b8ff" points="1851.2,-563.99 1861.38,-561.05 1851.59,-557 1851.2,-563.99"/>
</g>
<!-- Node38 -->
<g id="node38" class="node">
<title>Node38</title>
<g id="a_node38"><a xlink:href="named__auth__policies_8h.html" target="_top" xlink:title=" ">
<polygon fill="white" stroke="#666666" points="2071,-448 1939,-448 1939,-418 2071,-418 2071,-448"/>
<text text-anchor="start" x="1947" y="-436" font-family="Helvetica,sans-Serif" font-size="10.00">src/apps/js_generic</text>
<text text-anchor="middle" x="2005" y="-425" font-family="Helvetica,sans-Serif" font-size="10.00">/named_auth_policies.h</text>
</a>
</g>
</g>
<!-- Node1&#45;&gt;Node38 -->
<g id="edge66" class="edge">
<title>Node1&#45;&gt;Node38</title>
<path fill="none" stroke="#63b8ff" d="M1927.81,-540.5C1934.56,-523.97 1944.77,-501.71 1957,-484 1966.16,-470.73 1978.88,-457.65 1988.93,-448.2"/>
<polygon fill="#63b8ff" stroke="#63b8ff" points="1924.49,-539.38 1924.07,-549.97 1931,-541.96 1924.49,-539.38"/>
</g>
<!-- Node39 -->
<g id="node39" class="node">
<title>Node39</title>
<g id="a_node39"><a xlink:href="endpoint__registry_8cpp.html" target="_top" xlink:title=" ">
<polygon fill="white" stroke="#666666" points="2094,-514 1966,-514 1966,-484 2094,-484 2094,-514"/>
<text text-anchor="start" x="1974" y="-502" font-family="Helvetica,sans-Serif" font-size="10.00">src/endpoints/endpoint</text>
<text text-anchor="middle" x="2030" y="-491" font-family="Helvetica,sans-Serif" font-size="10.00">_registry.cpp</text>
</a>
</g>
</g>
<!-- Node1&#45;&gt;Node39 -->
<g id="edge68" class="edge">
<title>Node1&#45;&gt;Node39</title>
<path fill="none" stroke="#63b8ff" d="M1952.48,-544.69C1969.62,-534.82 1990.09,-523.01 2005.7,-514.01"/>
<polygon fill="#63b8ff" stroke="#63b8ff" points="1950.27,-541.93 1943.36,-549.95 1953.77,-547.99 1950.27,-541.93"/>
</g>
<!-- Node40 -->
<g id="node40" class="node">
<title>Node40</title>
<g id="a_node40"><a xlink:href="frontend_8h.html" target="_top" xlink:title=" ">
<polygon fill="white" stroke="#666666" points="1954.5,-382 1825.5,-382 1825.5,-363 1954.5,-363 1954.5,-382"/>
<text text-anchor="middle" x="1890" y="-370" font-family="Helvetica,sans-Serif" font-size="10.00">src/node/rpc/frontend.h</text>
</a>
</g>
</g>
<!-- Node1&#45;&gt;Node40 -->
<g id="edge70" class="edge">
<title>Node1&#45;&gt;Node40</title>
<path fill="none" stroke="#63b8ff" d="M1915.34,-539.93C1908.84,-497.28 1895.6,-410.31 1891.35,-382.36"/>
<polygon fill="#63b8ff" stroke="#63b8ff" points="1911.9,-540.63 1916.87,-549.99 1918.82,-539.58 1911.9,-540.63"/>
</g>
<!-- Node3 -->
<g id="node3" class="node">
<title>Node3</title>
<g id="a_node3"><a xlink:href="common__endpoint__registry_8h.html" target="_top" xlink:title=" ">
<polygon fill="white" stroke="#666666" points="1722.5,-448 1607.5,-448 1607.5,-418 1722.5,-418 1722.5,-448"/>
<text text-anchor="start" x="1615.5" y="-436" font-family="Helvetica,sans-Serif" font-size="10.00">include/ccf/common</text>
<text text-anchor="middle" x="1665" y="-425" font-family="Helvetica,sans-Serif" font-size="10.00">_endpoint_registry.h</text>
</a>
</g>
</g>
<!-- Node2&#45;&gt;Node3 -->
<g id="edge2" class="edge">
<title>Node2&#45;&gt;Node3</title>
<path fill="none" stroke="#63b8ff" d="M1761.29,-479.65C1740.06,-469.58 1714.15,-457.3 1694.56,-448.01"/>
<polygon fill="#63b8ff" stroke="#63b8ff" points="1759.84,-482.83 1770.37,-483.95 1762.84,-476.51 1759.84,-482.83"/>
</g>
<!-- Node7 -->
<g id="node7" class="node">
<title>Node7</title>
<g id="a_node7"><a xlink:href="nobuiltins_8cpp.html" target="_top" xlink:title=" ">
<polygon fill="white" stroke="#666666" points="443.5,-327 308.5,-327 308.5,-297 443.5,-297 443.5,-327"/>
<text text-anchor="start" x="316.5" y="-315" font-family="Helvetica,sans-Serif" font-size="10.00">samples/apps/nobuiltins</text>
<text text-anchor="middle" x="376" y="-304" font-family="Helvetica,sans-Serif" font-size="10.00">/nobuiltins.cpp</text>
</a>
</g>
</g>
<!-- Node2&#45;&gt;Node7 -->
<g id="edge39" class="edge">
<title>Node2&#45;&gt;Node7</title>
<path fill="none" stroke="#63b8ff" d="M1718.15,-489.23C1507.6,-466.33 930.19,-401.31 452,-327 449.22,-326.57 446.38,-326.11 443.51,-325.64"/>
<polygon fill="#63b8ff" stroke="#63b8ff" points="1717.88,-492.72 1728.19,-490.32 1718.63,-485.77 1717.88,-492.72"/>
</g>
<!-- Node29 -->
<g id="node29" class="node">
<title>Node29</title>
<g id="a_node29"><a xlink:href="base__endpoint__registry_8cpp.html" target="_top" xlink:title=" ">
<polygon fill="white" stroke="#666666" points="1867,-448 1741,-448 1741,-418 1867,-418 1867,-448"/>
<text text-anchor="start" x="1749" y="-436" font-family="Helvetica,sans-Serif" font-size="10.00">src/endpoints/base</text>
<text text-anchor="middle" x="1804" y="-425" font-family="Helvetica,sans-Serif" font-size="10.00">_endpoint_registry.cpp</text>
</a>
</g>
</g>
<!-- Node2&#45;&gt;Node29 -->
<g id="edge40" class="edge">
<title>Node2&#45;&gt;Node29</title>
<path fill="none" stroke="#63b8ff" d="M1801.53,-473.54C1802.06,-464.96 1802.65,-455.61 1803.11,-448.16"/>
<polygon fill="#63b8ff" stroke="#63b8ff" points="1798.02,-473.6 1800.89,-483.8 1805,-474.03 1798.02,-473.6"/>
</g>
<!-- Node30 -->
<g id="node30" class="node">
<title>Node30</title>
<g id="a_node30"><a xlink:href="wrap_8h.html" target="_top" xlink:title=" ">
<polygon fill="white" stroke="#666666" points="2272,-382 2194,-382 2194,-363 2272,-363 2272,-382"/>
<text text-anchor="middle" x="2233" y="-370" font-family="Helvetica,sans-Serif" font-size="10.00">src/js/wrap.h</text>
</a>
</g>
</g>
<!-- Node2&#45;&gt;Node30 -->
<g id="edge41" class="edge">
<title>Node2&#45;&gt;Node30</title>
<path fill="none" stroke="#63b8ff" d="M1881.5,-489.49C1938.16,-482.11 2014.89,-469.21 2080,-448 2133.65,-430.52 2192.41,-397.65 2218.79,-382.09"/>
<polygon fill="#63b8ff" stroke="#63b8ff" points="1881,-486.02 1871.52,-490.75 1881.88,-492.96 1881,-486.02"/>
</g>
<!-- Node4 -->
<g id="node4" class="node">
<title>Node4</title>
<g id="a_node4"><a xlink:href="app__interface_8h.html" target="_top" xlink:title=" ">
<polygon fill="white" stroke="#666666" points="1086,-382 938,-382 938,-363 1086,-363 1086,-382"/>
<text text-anchor="middle" x="1012" y="-370" font-family="Helvetica,sans-Serif" font-size="10.00">include/ccf/app_interface.h</text>
</a>
</g>
</g>
<!-- Node3&#45;&gt;Node4 -->
<g id="edge3" class="edge">
<title>Node3&#45;&gt;Node4</title>
<path fill="none" stroke="#63b8ff" d="M1597.27,-425.93C1474.02,-414.89 1214.02,-391.6 1086.17,-380.14"/>
<polygon fill="#63b8ff" stroke="#63b8ff" points="1597.06,-429.43 1607.34,-426.83 1597.69,-422.46 1597.06,-429.43"/>
</g>
<!-- Node10 -->
<g id="node10" class="node">
<title>Node10</title>
<g id="a_node10"><a xlink:href="external__executor__indexing_8h.html" target="_top" xlink:title=" ">
<polygon fill="white" stroke="#666666" points="1102,-261 938,-261 938,-231 1102,-231 1102,-261"/>
<text text-anchor="start" x="946" y="-249" font-family="Helvetica,sans-Serif" font-size="10.00">src/apps/external_executor</text>
<text text-anchor="middle" x="1020" y="-238" font-family="Helvetica,sans-Serif" font-size="10.00">/external_executor_indexing.h</text>
</a>
</g>
</g>
<!-- Node3&#45;&gt;Node10 -->
<g id="edge24" class="edge">
<title>Node3&#45;&gt;Node10</title>
<path fill="none" stroke="#63b8ff" d="M1608.06,-415.01C1542.18,-395.08 1430.62,-360.49 1336,-327 1301.38,-314.74 1294.21,-307.46 1259,-297 1207.6,-281.72 1148.64,-269.34 1102.14,-260.71"/>
<polygon fill="#63b8ff" stroke="#63b8ff" points="1607.25,-418.42 1617.84,-417.96 1609.27,-411.72 1607.25,-418.42"/>
</g>
<!-- Node21 -->
<g id="node21" class="node">
<title>Node21</title>
<g id="a_node21"><a xlink:href="common__endpoint__registry_8cpp.html" target="_top" xlink:title=" ">
<polygon fill="white" stroke="#666666" points="128,-327 0,-327 0,-297 128,-297 128,-327"/>
<text text-anchor="start" x="8" y="-315" font-family="Helvetica,sans-Serif" font-size="10.00">src/endpoints/common</text>
<text text-anchor="middle" x="64" y="-304" font-family="Helvetica,sans-Serif" font-size="10.00">_endpoint_registry.cpp</text>
</a>
</g>
</g>
<!-- Node3&#45;&gt;Node21 -->
<g id="edge25" class="edge">
<title>Node3&#45;&gt;Node21</title>
<path fill="none" stroke="#63b8ff" d="M1597.34,-432.49C1411.96,-433.13 880.46,-430.26 442,-382 329.61,-369.63 200.34,-343.39 125.81,-327.07"/>
<polygon fill="#63b8ff" stroke="#63b8ff" points="1597.5,-435.99 1607.48,-432.45 1597.47,-428.99 1597.5,-435.99"/>
</g>
<!-- Node3&#45;&gt;Node22 -->
<g id="edge26" class="edge">
<title>Node3&#45;&gt;Node22</title>
<path fill="none" stroke="#63b8ff" d="M1732.87,-418.03C1976.03,-385.35 2040.58,-401.1 2281,-382 2543.09,-361.17 2609.27,-360.86 2870,-327 2874.55,-326.41 2879.22,-325.76 2883.93,-325.07"/>
<polygon fill="#63b8ff" stroke="#63b8ff" points="1732.09,-414.6 1722.65,-419.42 1733.03,-421.54 1732.09,-414.6"/>
</g>
<!-- Node26 -->
<g id="node26" class="node">
<title>Node26</title>
<g id="a_node26"><a xlink:href="member__frontend_8h.html" target="_top" xlink:title=" ">
<polygon fill="white" stroke="#666666" points="1774,-327 1654,-327 1654,-297 1774,-297 1774,-327"/>
<text text-anchor="start" x="1662" y="-315" font-family="Helvetica,sans-Serif" font-size="10.00">src/node/rpc/member</text>
<text text-anchor="middle" x="1714" y="-304" font-family="Helvetica,sans-Serif" font-size="10.00">_frontend.h</text>
</a>
</g>
</g>
<!-- Node3&#45;&gt;Node26 -->
<g id="edge33" class="edge">
<title>Node3&#45;&gt;Node26</title>
<path fill="none" stroke="#63b8ff" d="M1674.74,-408.34C1684.73,-384.08 1699.95,-347.13 1708.19,-327.1"/>
<polygon fill="#63b8ff" stroke="#63b8ff" points="1671.38,-407.3 1670.81,-417.88 1677.86,-409.97 1671.38,-407.3"/>
</g>
<!-- Node27 -->
<g id="node27" class="node">
<title>Node27</title>
<g id="a_node27"><a xlink:href="node__frontend_8h.html" target="_top" xlink:title=" ">
<polygon fill="white" stroke="#666666" points="1950,-321.5 1792,-321.5 1792,-302.5 1950,-302.5 1950,-321.5"/>
<text text-anchor="middle" x="1871" y="-309.5" font-family="Helvetica,sans-Serif" font-size="10.00">src/node/rpc/node_frontend.h</text>
</a>
</g>
</g>
<!-- Node3&#45;&gt;Node27 -->
<g id="edge35" class="edge">
<title>Node3&#45;&gt;Node27</title>
<path fill="none" stroke="#63b8ff" d="M1698.32,-412.75C1743.79,-386.49 1823.35,-340.53 1856.18,-321.56"/>
<polygon fill="#63b8ff" stroke="#63b8ff" points="1696.35,-409.85 1689.44,-417.88 1699.85,-415.91 1696.35,-409.85"/>
</g>
<!-- Node5 -->
<g id="node5" class="node">
<title>Node5</title>
<g id="a_node5"><a xlink:href="basic_8cpp.html" target="_top" xlink:title=" ">
<polygon fill="white" stroke="#666666" points="715.5,-327 602.5,-327 602.5,-297 715.5,-297 715.5,-327"/>
<text text-anchor="start" x="610.5" y="-315" font-family="Helvetica,sans-Serif" font-size="10.00">samples/apps/basic</text>
<text text-anchor="middle" x="659" y="-304" font-family="Helvetica,sans-Serif" font-size="10.00">/basic.cpp</text>
</a>
</g>
</g>
<!-- Node4&#45;&gt;Node5 -->
<g id="edge4" class="edge">
<title>Node4&#45;&gt;Node5</title>
<path fill="none" stroke="#63b8ff" d="M943.83,-361.49C886.64,-352.91 802.85,-339.93 730,-327 725.3,-326.17 720.43,-325.27 715.54,-324.35"/>
<polygon fill="#63b8ff" stroke="#63b8ff" points="943.42,-364.97 953.83,-362.98 944.46,-358.04 943.42,-364.97"/>
</g>
<!-- Node6 -->
<g id="node6" class="node">
<title>Node6</title>
<g id="a_node6"><a xlink:href="logging_8cpp.html" target="_top" xlink:title=" ">
<polygon fill="white" stroke="#666666" points="584.5,-327 461.5,-327 461.5,-297 584.5,-297 584.5,-327"/>
<text text-anchor="start" x="469.5" y="-315" font-family="Helvetica,sans-Serif" font-size="10.00">samples/apps/logging</text>
<text text-anchor="middle" x="523" y="-304" font-family="Helvetica,sans-Serif" font-size="10.00">/logging.cpp</text>
</a>
</g>
</g>
<!-- Node4&#45;&gt;Node6 -->
<g id="edge5" class="edge">
<title>Node4&#45;&gt;Node6</title>
<path fill="none" stroke="#63b8ff" d="M927.85,-364.84C843.04,-357.6 708.52,-344.65 593,-327 590.3,-326.59 587.56,-326.14 584.78,-325.68"/>
<polygon fill="#63b8ff" stroke="#63b8ff" points="927.68,-368.34 937.94,-365.7 928.27,-361.37 927.68,-368.34"/>
</g>
<!-- Node4&#45;&gt;Node7 -->
<g id="edge6" class="edge">
<title>Node4&#45;&gt;Node7</title>
<path fill="none" stroke="#63b8ff" d="M927.89,-367.52C818.09,-361.7 620.08,-349.1 452,-327 449.34,-326.65 446.63,-326.27 443.9,-325.87"/>
<polygon fill="#63b8ff" stroke="#63b8ff" points="927.75,-371.02 937.92,-368.04 928.11,-364.03 927.75,-371.02"/>
</g>
<!-- Node8 -->
<g id="node8" class="node">
<title>Node8</title>
<g id="a_node8"><a xlink:href="executor__auth__policy_8h.html" target="_top" xlink:title=" ">
<polygon fill="white" stroke="#666666" points="1086,-327 938,-327 938,-297 1086,-297 1086,-327"/>
<text text-anchor="start" x="946" y="-315" font-family="Helvetica,sans-Serif" font-size="10.00">src/apps/external_executor</text>
<text text-anchor="middle" x="1012" y="-304" font-family="Helvetica,sans-Serif" font-size="10.00">/executor_auth_policy.h</text>
</a>
</g>
</g>
<!-- Node4&#45;&gt;Node8 -->
<g id="edge7" class="edge">
<title>Node4&#45;&gt;Node8</title>
<path fill="none" stroke="#63b8ff" d="M1012,-352.65C1012,-344.36 1012,-334.78 1012,-327.11"/>
<polygon fill="#63b8ff" stroke="#63b8ff" points="1008.5,-352.87 1012,-362.87 1015.5,-352.87 1008.5,-352.87"/>
</g>
<!-- Node9 -->
<g id="node9" class="node">
<title>Node9</title>
<g id="a_node9"><a xlink:href="external__executor_8cpp.html" target="_top" xlink:title=" ">
<polygon fill="white" stroke="#666666" points="866,-195 718,-195 718,-165 866,-165 866,-195"/>
<text text-anchor="start" x="726" y="-183" font-family="Helvetica,sans-Serif" font-size="10.00">src/apps/external_executor</text>
<text text-anchor="middle" x="792" y="-172" font-family="Helvetica,sans-Serif" font-size="10.00">/external_executor.cpp</text>
</a>
</g>
</g>
<!-- Node4&#45;&gt;Node9 -->
<g id="edge12" class="edge">
<title>Node4&#45;&gt;Node9</title>
<path fill="none" stroke="#63b8ff" d="M927.68,-367.73C863.91,-362.91 783.87,-351.93 763,-327 735.61,-294.28 751.92,-272.2 763,-231 766.49,-218.01 774.28,-204.92 780.9,-195.4"/>
<polygon fill="#63b8ff" stroke="#63b8ff" points="927.54,-371.23 937.76,-368.46 928.04,-364.25 927.54,-371.23"/>
</g>
<!-- Node12 -->
<g id="node12" class="node">
<title>Node12</title>
<g id="a_node12"><a xlink:href="js__generic_8cpp.html" target="_top" xlink:title=" ">
<polygon fill="white" stroke="#666666" points="882,-261 772,-261 772,-231 882,-231 882,-261"/>
<text text-anchor="start" x="780" y="-249" font-family="Helvetica,sans-Serif" font-size="10.00">src/apps/js_generic</text>
<text text-anchor="middle" x="827" y="-238" font-family="Helvetica,sans-Serif" font-size="10.00">/js_generic.cpp</text>
</a>
</g>
</g>
<!-- Node4&#45;&gt;Node12 -->
<g id="edge13" class="edge">
<title>Node4&#45;&gt;Node12</title>
<path fill="none" stroke="#63b8ff" d="M984.86,-358.48C968.31,-350.16 946.95,-338.76 929,-327 911,-315.2 907.92,-310.29 891,-297 875.59,-284.89 858.04,-271.19 845.23,-261.2"/>
<polygon fill="#63b8ff" stroke="#63b8ff" points="983.48,-361.7 993.99,-363 986.58,-355.42 983.48,-361.7"/>
</g>
<!-- Node13 -->
<g id="node13" class="node">
<title>Node13</title>
<g id="a_node13"><a xlink:href="js__generic__base_8cpp.html" target="_top" xlink:title=" ">
<polygon fill="white" stroke="#666666" points="2124,-327 2006,-327 2006,-297 2124,-297 2124,-327"/>
<text text-anchor="start" x="2014" y="-315" font-family="Helvetica,sans-Serif" font-size="10.00">src/apps/js_generic</text>
<text text-anchor="middle" x="2065" y="-304" font-family="Helvetica,sans-Serif" font-size="10.00">/js_generic_base.cpp</text>
</a>
</g>
</g>
<!-- Node4&#45;&gt;Node13 -->
<g id="edge14" class="edge">
<title>Node4&#45;&gt;Node13</title>
<path fill="none" stroke="#63b8ff" d="M1096.24,-369.93C1261.82,-366.3 1641.26,-355.4 1959,-327 1974.25,-325.64 1990.68,-323.7 2005.95,-321.7"/>
<polygon fill="#63b8ff" stroke="#63b8ff" points="1096.04,-366.43 1086.12,-370.14 1096.19,-373.43 1096.04,-366.43"/>
</g>
<!-- Node14 -->
<g id="node14" class="node">
<title>Node14</title>
<g id="a_node14"><a xlink:href="js__generic__base_8h.html" target="_top" xlink:title=" ">
<polygon fill="white" stroke="#666666" points="882,-327 772,-327 772,-297 882,-297 882,-327"/>
<text text-anchor="start" x="780" y="-315" font-family="Helvetica,sans-Serif" font-size="10.00">src/apps/js_generic</text>
<text text-anchor="middle" x="827" y="-304" font-family="Helvetica,sans-Serif" font-size="10.00">/js_generic_base.h</text>
</a>
</g>
</g>
<!-- Node4&#45;&gt;Node14 -->
<g id="edge15" class="edge">
<title>Node4&#45;&gt;Node14</title>
<path fill="none" stroke="#63b8ff" d="M975.49,-359.95C945.63,-350.51 903.31,-337.13 871.48,-327.06"/>
<polygon fill="#63b8ff" stroke="#63b8ff" points="974.51,-363.32 985.1,-362.99 976.62,-356.64 974.51,-363.32"/>
</g>
<!-- Node15 -->
<g id="node15" class="node">
<title>Node15</title>
<g id="a_node15"><a xlink:href="tpcc_8cpp.html" target="_top" xlink:title=" ">
<polygon fill="white" stroke="#666666" points="1249.5,-321.5 1104.5,-321.5 1104.5,-302.5 1249.5,-302.5 1249.5,-321.5"/>
<text text-anchor="middle" x="1177" y="-309.5" font-family="Helvetica,sans-Serif" font-size="10.00">src/apps/tpcc/app/tpcc.cpp</text>
</a>
</g>
</g>
<!-- Node4&#45;&gt;Node15 -->
<g id="edge17" class="edge">
<title>Node4&#45;&gt;Node15</title>
<path fill="none" stroke="#63b8ff" d="M1045.78,-359.52C1077.68,-348.21 1124.74,-331.53 1152.98,-321.52"/>
<polygon fill="#63b8ff" stroke="#63b8ff" points="1044.25,-356.35 1035.99,-362.99 1046.59,-362.95 1044.25,-356.35"/>
</g>
<!-- Node16 -->
<g id="node16" class="node">
<title>Node16</title>
<g id="a_node16"><a xlink:href="src_2enclave_2enclave_8h.html" target="_top" xlink:title=" ">
<polygon fill="white" stroke="#666666" points="1921,-74 1799,-74 1799,-55 1921,-55 1921,-74"/>
<text text-anchor="middle" x="1860" y="-62" font-family="Helvetica,sans-Serif" font-size="10.00">src/enclave/enclave.h</text>
</a>
</g>
</g>
<!-- Node4&#45;&gt;Node16 -->
<g id="edge18" class="edge">
<title>Node4&#45;&gt;Node16</title>
<path fill="none" stroke="#63b8ff" d="M1096.38,-366.07C1158.44,-360.32 1235.84,-348.92 1259,-327 1285.54,-301.88 1278,-283.54 1278,-247 1278,-247 1278,-247 1278,-179 1278,-73.74 1649.39,-64.22 1798.82,-64.65"/>
<polygon fill="#63b8ff" stroke="#63b8ff" points="1095.82,-362.6 1086.17,-366.97 1096.44,-369.57 1095.82,-362.6"/>
</g>
<!-- Node18 -->
<g id="node18" class="node">
<title>Node18</title>
<g id="a_node18"><a xlink:href="no__plugins_8cpp.html" target="_top" xlink:title=" ">
<polygon fill="white" stroke="#666666" points="1636,-321.5 1518,-321.5 1518,-302.5 1636,-302.5 1636,-321.5"/>
<text text-anchor="middle" x="1577" y="-309.5" font-family="Helvetica,sans-Serif" font-size="10.00">src/js/no_plugins.cpp</text>
</a>
</g>
</g>
<!-- Node4&#45;&gt;Node18 -->
<g id="edge20" class="edge">
<title>Node4&#45;&gt;Node18</title>
<path fill="none" stroke="#63b8ff" d="M1096.67,-366.86C1195.86,-360.75 1364.97,-348.2 1509,-327 1518.9,-325.54 1529.53,-323.56 1539.37,-321.54"/>
<polygon fill="#63b8ff" stroke="#63b8ff" points="1096.18,-363.38 1086.41,-367.49 1096.6,-370.37 1096.18,-363.38"/>
</g>
<!-- Node20 -->
<g id="node20" class="node">
<title>Node20</title>
<g id="a_node20"><a xlink:href="user__frontend_8h.html" target="_top" xlink:title=" ">
<polygon fill="white" stroke="#666666" points="1499.5,-321.5 1344.5,-321.5 1344.5,-302.5 1499.5,-302.5 1499.5,-321.5"/>
<text text-anchor="middle" x="1422" y="-309.5" font-family="Helvetica,sans-Serif" font-size="10.00">src/node/rpc/user_frontend.h</text>
</a>
</g>
</g>
<!-- Node4&#45;&gt;Node20 -->
<g id="edge22" class="edge">
<title>Node4&#45;&gt;Node20</title>
<path fill="none" stroke="#63b8ff" d="M1081.95,-361.52C1160.86,-350.26 1287.88,-332.14 1362.31,-321.52"/>
<polygon fill="#63b8ff" stroke="#63b8ff" points="1081.02,-358.12 1071.62,-362.99 1082.01,-365.05 1081.02,-358.12"/>
</g>
<!-- Node8&#45;&gt;Node9 -->
<g id="edge8" class="edge">
<title>Node8&#45;&gt;Node9</title>
<path fill="none" stroke="#63b8ff" d="M977.72,-291.66C962.52,-282.75 944.58,-271.78 929,-261 911.3,-248.76 909.14,-242.58 891,-231 869.57,-217.33 843.92,-204.46 824.1,-195.2"/>
<polygon fill="#63b8ff" stroke="#63b8ff" points="976.38,-294.93 986.79,-296.92 979.89,-288.88 976.38,-294.93"/>
</g>
<!-- Node8&#45;&gt;Node10 -->
<g id="edge9" class="edge">
<title>Node8&#45;&gt;Node10</title>
<path fill="none" stroke="#63b8ff" d="M1015.02,-286.83C1016.1,-278.17 1017.29,-268.7 1018.23,-261.16"/>
<polygon fill="#63b8ff" stroke="#63b8ff" points="1011.54,-286.44 1013.78,-296.8 1018.49,-287.31 1011.54,-286.44"/>
</g>
<!-- Node10&#45;&gt;Node9 -->
<g id="edge10" class="edge">
<title>Node10&#45;&gt;Node9</title>
<path fill="none" stroke="#63b8ff" d="M959.87,-228.12C923.11,-217.8 876.64,-204.76 841.92,-195.01"/>
<polygon fill="#63b8ff" stroke="#63b8ff" points="959.39,-231.62 969.96,-230.95 961.28,-224.88 959.39,-231.62"/>
</g>
<!-- Node11 -->
<g id="node11" class="node">
<title>Node11</title>
<g id="a_node11"><a xlink:href="external__executor__indexing_8cpp.html" target="_top" xlink:title=" ">
<polygon fill="white" stroke="#666666" points="1107.5,-195 932.5,-195 932.5,-165 1107.5,-165 1107.5,-195"/>
<text text-anchor="start" x="940.5" y="-183" font-family="Helvetica,sans-Serif" font-size="10.00">src/apps/external_executor</text>
<text text-anchor="middle" x="1020" y="-172" font-family="Helvetica,sans-Serif" font-size="10.00">/external_executor_indexing.cpp</text>
</a>
</g>
</g>
<!-- Node10&#45;&gt;Node11 -->
<g id="edge11" class="edge">
<title>Node10&#45;&gt;Node11</title>
<path fill="none" stroke="#63b8ff" d="M1020,-220.54C1020,-211.96 1020,-202.61 1020,-195.16"/>
<polygon fill="#63b8ff" stroke="#63b8ff" points="1016.5,-220.8 1020,-230.8 1023.5,-220.8 1016.5,-220.8"/>
</g>
<!-- Node14&#45;&gt;Node12 -->
<g id="edge16" class="edge">
<title>Node14&#45;&gt;Node12</title>
<path fill="none" stroke="#63b8ff" d="M827,-286.54C827,-277.96 827,-268.61 827,-261.16"/>
<polygon fill="#63b8ff" stroke="#63b8ff" points="823.5,-286.8 827,-296.8 830.5,-286.8 823.5,-286.8"/>
</g>
<!-- Node17 -->
<g id="node17" class="node">
<title>Node17</title>
<g id="a_node17"><a xlink:href="enclave_2main_8cpp.html" target="_top" xlink:title=" ">
<polygon fill="white" stroke="#666666" points="1920,-19 1800,-19 1800,0 1920,0 1920,-19"/>
<text text-anchor="middle" x="1860" y="-7" font-family="Helvetica,sans-Serif" font-size="10.00">src/enclave/main.cpp</text>
</a>
</g>
</g>
<!-- Node16&#45;&gt;Node17 -->
<g id="edge19" class="edge">
<title>Node16&#45;&gt;Node17</title>
<path fill="none" stroke="#63b8ff" d="M1860,-44.66C1860,-35.93 1860,-25.99 1860,-19.09"/>
<polygon fill="#63b8ff" stroke="#63b8ff" points="1856.5,-44.75 1860,-54.75 1863.5,-44.75 1856.5,-44.75"/>
</g>
<!-- Node19 -->
<g id="node19" class="node">
<title>Node19</title>
<g id="a_node19"><a xlink:href="wrap_8cpp.html" target="_top" xlink:title=" ">
<polygon fill="white" stroke="#666666" points="2453.5,-255.5 2364.5,-255.5 2364.5,-236.5 2453.5,-236.5 2453.5,-255.5"/>
<text text-anchor="middle" x="2409" y="-243.5" font-family="Helvetica,sans-Serif" font-size="10.00">src/js/wrap.cpp</text>
</a>
</g>
</g>
<!-- Node18&#45;&gt;Node19 -->
<g id="edge21" class="edge">
<title>Node18&#45;&gt;Node19</title>
<path fill="none" stroke="#63b8ff" d="M1624.01,-300.45C1631.02,-299.13 1638.18,-297.92 1645,-297 1785.62,-278.02 2223.07,-255.92 2364.45,-249.11"/>
<polygon fill="#63b8ff" stroke="#63b8ff" points="1623.03,-297.07 1613.9,-302.44 1624.39,-303.94 1623.03,-297.07"/>
</g>
<!-- Node20&#45;&gt;Node16 -->
<g id="edge23" class="edge">
<title>Node20&#45;&gt;Node16</title>
<path fill="none" stroke="#63b8ff" d="M1446.17,-297.45C1525.93,-252.75 1779.33,-110.72 1844.57,-74.15"/>
<polygon fill="#63b8ff" stroke="#63b8ff" points="1444.34,-294.46 1437.33,-302.41 1447.77,-300.57 1444.34,-294.46"/>
</g>
<!-- Node22&#45;&gt;Node16 -->
<g id="edge27" class="edge">
<title>Node22&#45;&gt;Node16</title>
<path fill="none" stroke="#63b8ff" d="M2996.57,-292.36C3026.35,-276.77 3057.58,-253.52 3038,-231 2963.73,-145.57 2152.62,-85.08 1921.27,-69.47"/>
<polygon fill="#63b8ff" stroke="#63b8ff" points="2994.81,-289.33 2987.44,-296.95 2997.94,-295.59 2994.81,-289.33"/>
</g>
<!-- Node23 -->
<g id="node23" class="node">
<title>Node23</title>
<g id="a_node23"><a xlink:href="ccf__acme__client_8h.html" target="_top" xlink:title=" ">
<polygon fill="white" stroke="#666666" points="3028.5,-255.5 2879.5,-255.5 2879.5,-236.5 3028.5,-236.5 3028.5,-255.5"/>
<text text-anchor="middle" x="2954" y="-243.5" font-family="Helvetica,sans-Serif" font-size="10.00">src/node/ccf_acme_client.h</text>
</a>
</g>
</g>
<!-- Node22&#45;&gt;Node23 -->
<g id="edge28" class="edge">
<title>Node22&#45;&gt;Node23</title>
<path fill="none" stroke="#63b8ff" d="M2954,-286.6C2954,-275.8 2954,-263.78 2954,-255.84"/>
<polygon fill="#63b8ff" stroke="#63b8ff" points="2950.5,-286.8 2954,-296.8 2957.5,-286.8 2950.5,-286.8"/>
</g>
<!-- Node24 -->
<g id="node24" class="node">
<title>Node24</title>
<g id="a_node24"><a xlink:href="node__state_8h.html" target="_top" xlink:title=" ">
<polygon fill="white" stroke="#666666" points="2101,-189.5 1977,-189.5 1977,-170.5 2101,-170.5 2101,-189.5"/>
<text text-anchor="middle" x="2039" y="-177.5" font-family="Helvetica,sans-Serif" font-size="10.00">src/node/node_state.h</text>
</a>
</g>
</g>
<!-- Node23&#45;&gt;Node24 -->
<g id="edge29" class="edge">
<title>Node23&#45;&gt;Node24</title>
<path fill="none" stroke="#63b8ff" d="M2895.57,-234.89C2885.72,-233.42 2875.59,-232.05 2866,-231 2581.28,-199.82 2239.14,-186.89 2101.16,-182.69"/>
<polygon fill="#63b8ff" stroke="#63b8ff" points="2895.28,-238.39 2905.7,-236.45 2896.35,-231.47 2895.28,-238.39"/>
</g>
<!-- Node24&#45;&gt;Node16 -->
<g id="edge30" class="edge">
<title>Node24&#45;&gt;Node16</title>
<path fill="none" stroke="#63b8ff" d="M2014.65,-165.47C1997.27,-155.66 1973.46,-141.91 1953,-129 1923.24,-110.22 1889.35,-86.46 1871.85,-74"/>
<polygon fill="#63b8ff" stroke="#63b8ff" points="2013.14,-168.63 2023.58,-170.48 2016.57,-162.53 2013.14,-168.63"/>
</g>
<!-- Node25 -->
<g id="node25" class="node">
<title>Node25</title>
<g id="a_node25"><a xlink:href="gov__effects_8h.html" target="_top" xlink:title=" ">
<polygon fill="white" stroke="#666666" points="2106,-129 1962,-129 1962,-110 2106,-110 2106,-129"/>
<text text-anchor="middle" x="2034" y="-117" font-family="Helvetica,sans-Serif" font-size="10.00">src/node/rpc/gov_effects.h</text>
</a>
</g>
</g>
<!-- Node24&#45;&gt;Node25 -->
<g id="edge31" class="edge">
<title>Node24&#45;&gt;Node25</title>
<path fill="none" stroke="#63b8ff" d="M2037.39,-160.16C2036.5,-149.74 2035.44,-137.3 2034.74,-129.17"/>
<polygon fill="#63b8ff" stroke="#63b8ff" points="2033.92,-160.7 2038.26,-170.37 2040.9,-160.11 2033.92,-160.7"/>
</g>
<!-- Node25&#45;&gt;Node16 -->
<g id="edge32" class="edge">
<title>Node25&#45;&gt;Node16</title>
<path fill="none" stroke="#63b8ff" d="M1996.43,-107.06C1963.91,-97.15 1917.6,-83.04 1888.18,-74.08"/>
<polygon fill="#63b8ff" stroke="#63b8ff" points="1995.46,-110.42 2006.04,-109.98 1997.5,-103.72 1995.46,-110.42"/>
</g>
<!-- Node26&#45;&gt;Node16 -->
<g id="edge34" class="edge">
<title>Node26&#45;&gt;Node16</title>
<path fill="none" stroke="#63b8ff" d="M1727.59,-288.14C1758.77,-235.72 1834.31,-108.71 1854.8,-74.25"/>
<polygon fill="#63b8ff" stroke="#63b8ff" points="1724.58,-286.36 1722.48,-296.74 1730.6,-289.93 1724.58,-286.36"/>
</g>
<!-- Node27&#45;&gt;Node16 -->
<g id="edge36" class="edge">
<title>Node27&#45;&gt;Node16</title>
<path fill="none" stroke="#63b8ff" d="M1868.3,-292.05C1867.08,-282.72 1865.75,-271.29 1865,-261 1859.76,-188.87 1859.78,-101.43 1859.93,-74.09"/>
<polygon fill="#63b8ff" stroke="#63b8ff" points="1864.86,-292.74 1869.69,-302.17 1871.8,-291.79 1864.86,-292.74"/>
</g>
<!-- Node28 -->
<g id="node28" class="node">
<title>Node28</title>
<g id="a_node28"><a xlink:href="jwt__key__auto__refresh_8h.html" target="_top" xlink:title=" ">
<polygon fill="white" stroke="#666666" points="2032.5,-261 1907.5,-261 1907.5,-231 2032.5,-231 2032.5,-261"/>
<text text-anchor="start" x="1915.5" y="-249" font-family="Helvetica,sans-Serif" font-size="10.00">src/node/jwt_key_auto</text>
<text text-anchor="middle" x="1970" y="-238" font-family="Helvetica,sans-Serif" font-size="10.00">_refresh.h</text>
</a>
</g>
</g>
<!-- Node27&#45;&gt;Node28 -->
<g id="edge37" class="edge">
<title>Node27&#45;&gt;Node28</title>
<path fill="none" stroke="#63b8ff" d="M1892.79,-296.91C1909.24,-286.28 1931.71,-271.75 1948.16,-261.12"/>
<polygon fill="#63b8ff" stroke="#63b8ff" points="1890.85,-294 1884.35,-302.37 1894.65,-299.88 1890.85,-294"/>
</g>
<!-- Node28&#45;&gt;Node24 -->
<g id="edge38" class="edge">
<title>Node28&#45;&gt;Node24</title>
<path fill="none" stroke="#63b8ff" d="M1992.71,-223.93C2005.2,-212.35 2020.02,-198.61 2029.46,-189.84"/>
<polygon fill="#63b8ff" stroke="#63b8ff" points="1990.26,-221.43 1985.31,-230.8 1995.03,-226.56 1990.26,-221.43"/>
</g>
<!-- Node30&#45;&gt;Node13 -->
<g id="edge42" class="edge">
<title>Node30&#45;&gt;Node13</title>
<path fill="none" stroke="#63b8ff" d="M2198.78,-359.58C2171.73,-350.16 2133.92,-337 2105.39,-327.06"/>
<polygon fill="#63b8ff" stroke="#63b8ff" points="2197.98,-363.01 2208.57,-362.99 2200.28,-356.4 2197.98,-363.01"/>
</g>
<!-- Node30&#45;&gt;Node16 -->
<g id="edge43" class="edge">
<title>Node30&#45;&gt;Node16</title>
<path fill="none" stroke="#63b8ff" d="M2217.32,-355.89C2198.84,-338.49 2166.4,-310.98 2133,-297 2035.94,-256.37 1975.03,-333.74 1899,-261 1885.12,-247.72 1865.98,-110.45 1861.15,-74.23"/>
<polygon fill="#63b8ff" stroke="#63b8ff" points="2214.93,-358.45 2224.56,-362.87 2219.79,-353.41 2214.93,-358.45"/>
</g>
<!-- Node30&#45;&gt;Node19 -->
<g id="edge53" class="edge">
<title>Node30&#45;&gt;Node19</title>
<path fill="none" stroke="#63b8ff" d="M2219.47,-354.74C2208.12,-338.53 2195.73,-313.99 2209,-297 2227.89,-272.81 2311.23,-258.59 2364.19,-251.84"/>
<polygon fill="#63b8ff" stroke="#63b8ff" points="2216.7,-356.88 2225.49,-362.79 2222.3,-352.68 2216.7,-356.88"/>
</g>
<!-- Node30&#45;&gt;Node24 -->
<g id="edge54" class="edge">
<title>Node30&#45;&gt;Node24</title>
<path fill="none" stroke="#63b8ff" d="M2282.43,-362.55C2426.14,-349.22 2915.57,-390.65 2837,-297 2789.65,-240.56 2280.62,-198.51 2101.18,-185.34"/>
<polygon fill="#63b8ff" stroke="#63b8ff" points="2281.86,-359.09 2272.3,-363.65 2282.62,-366.05 2281.86,-359.09"/>
</g>
<!-- Node30&#45;&gt;Node26 -->
<g id="edge55" class="edge">
<title>Node30&#45;&gt;Node26</title>
<path fill="none" stroke="#63b8ff" d="M2183.55,-368.26C2100.49,-362.45 1927.8,-348.79 1783,-327 1780.1,-326.56 1777.14,-326.09 1774.15,-325.58"/>
<polygon fill="#63b8ff" stroke="#63b8ff" points="2183.49,-371.77 2193.71,-368.96 2183.97,-364.78 2183.49,-371.77"/>
</g>
<!-- Node30&#45;&gt;Node27 -->
<g id="edge56" class="edge">
<title>Node30&#45;&gt;Node27</title>
<path fill="none" stroke="#63b8ff" d="M2183.88,-363.56C2115.85,-352.57 1993.45,-332.79 1923.61,-321.5"/>
<polygon fill="#63b8ff" stroke="#63b8ff" points="2183.49,-367.04 2193.92,-365.18 2184.6,-360.13 2183.49,-367.04"/>
</g>
<!-- Node31 -->
<g id="node31" class="node">
<title>Node31</title>
<g id="a_node31"><a xlink:href="consensus_8cpp.html" target="_top" xlink:title=" ">
<polygon fill="white" stroke="#666666" points="2334,-321.5 2218,-321.5 2218,-302.5 2334,-302.5 2334,-321.5"/>
<text text-anchor="middle" x="2276" y="-309.5" font-family="Helvetica,sans-Serif" font-size="10.00">src/js/consensus.cpp</text>
</a>
</g>
</g>
<!-- Node30&#45;&gt;Node31 -->
<g id="edge44" class="edge">
<title>Node30&#45;&gt;Node31</title>
<path fill="none" stroke="#63b8ff" d="M2245.4,-354.63C2253.32,-343.85 2263.27,-330.32 2269.63,-321.67"/>
<polygon fill="#63b8ff" stroke="#63b8ff" points="2242.45,-352.74 2239.34,-362.87 2248.09,-356.88 2242.45,-352.74"/>
</g>
<!-- Node32 -->
<g id="node32" class="node">
<title>Node32</title>
<g id="a_node32"><a xlink:href="conv_8cpp.html" target="_top" xlink:title=" ">
<polygon fill="white" stroke="#666666" points="2586,-321.5 2498,-321.5 2498,-302.5 2586,-302.5 2586,-321.5"/>
<text text-anchor="middle" x="2542" y="-309.5" font-family="Helvetica,sans-Serif" font-size="10.00">src/js/conv.cpp</text>
</a>
</g>
</g>
<!-- Node30&#45;&gt;Node32 -->
<g id="edge46" class="edge">
<title>Node30&#45;&gt;Node32</title>
<path fill="none" stroke="#63b8ff" d="M2282.14,-364.25C2333.86,-356.31 2417.52,-342.62 2489,-327 2496.35,-325.39 2504.2,-323.45 2511.56,-321.52"/>
<polygon fill="#63b8ff" stroke="#63b8ff" points="2281.6,-360.79 2272.24,-365.75 2282.65,-367.71 2281.6,-360.79"/>
</g>
<!-- Node33 -->
<g id="node33" class="node">
<title>Node33</title>
<g id="a_node33"><a xlink:href="crypto_8cpp.html" target="_top" xlink:title=" ">
<polygon fill="white" stroke="#666666" points="2700,-321.5 2604,-321.5 2604,-302.5 2700,-302.5 2700,-321.5"/>
<text text-anchor="middle" x="2652" y="-309.5" font-family="Helvetica,sans-Serif" font-size="10.00">src/js/crypto.cpp</text>
</a>
</g>
</g>
<!-- Node30&#45;&gt;Node33 -->
<g id="edge48" class="edge">
<title>Node30&#45;&gt;Node33</title>
<path fill="none" stroke="#63b8ff" d="M2282.34,-367.3C2352.28,-360.93 2484.08,-347.37 2595,-327 2603.22,-325.49 2612.02,-323.51 2620.19,-321.52"/>
<polygon fill="#63b8ff" stroke="#63b8ff" points="2281.72,-363.85 2272.07,-368.23 2282.34,-370.82 2281.72,-363.85"/>
</g>
<!-- Node34 -->
<g id="node34" class="node">
<title>Node34</title>
<g id="a_node34"><a xlink:href="historical_8cpp.html" target="_top" xlink:title=" ">
<polygon fill="white" stroke="#666666" points="2828,-321.5 2718,-321.5 2718,-302.5 2828,-302.5 2828,-321.5"/>
<text text-anchor="middle" x="2773" y="-309.5" font-family="Helvetica,sans-Serif" font-size="10.00">src/js/historical.cpp</text>
</a>
</g>
</g>
<!-- Node30&#45;&gt;Node34 -->
<g id="edge50" class="edge">
<title>Node30&#45;&gt;Node34</title>
<path fill="none" stroke="#63b8ff" d="M2282.14,-368.89C2368.76,-363.85 2554.14,-351.08 2709,-327 2718.33,-325.55 2728.34,-323.57 2737.6,-321.55"/>
<polygon fill="#63b8ff" stroke="#63b8ff" points="2281.85,-365.4 2272.07,-369.47 2282.25,-372.39 2281.85,-365.4"/>
</g>
<!-- Node35 -->
<g id="node35" class="node">
<title>Node35</title>
<g id="a_node35"><a xlink:href="openenclave_8cpp.html" target="_top" xlink:title=" ">
<polygon fill="white" stroke="#666666" points="2480,-321.5 2352,-321.5 2352,-302.5 2480,-302.5 2480,-321.5"/>
<text text-anchor="middle" x="2416" y="-309.5" font-family="Helvetica,sans-Serif" font-size="10.00">src/js/openenclave.cpp</text>
</a>
</g>
</g>
<!-- Node30&#45;&gt;Node35 -->
<g id="edge52" class="edge">
<title>Node30&#45;&gt;Node35</title>
<path fill="none" stroke="#63b8ff" d="M2269.55,-359.82C2304.94,-348.5 2357.77,-331.62 2389.36,-321.52"/>
<polygon fill="#63b8ff" stroke="#63b8ff" points="2268.07,-356.61 2259.61,-362.99 2270.2,-363.28 2268.07,-356.61"/>
</g>
<!-- Node31&#45;&gt;Node19 -->
<g id="edge45" class="edge">
<title>Node31&#45;&gt;Node19</title>
<path fill="none" stroke="#63b8ff" d="M2302.96,-298.03C2329.17,-285.42 2368.25,-266.61 2390.92,-255.7"/>
<polygon fill="#63b8ff" stroke="#63b8ff" points="2301.43,-294.88 2293.94,-302.37 2304.47,-301.19 2301.43,-294.88"/>
</g>
<!-- Node32&#45;&gt;Node19 -->
<g id="edge47" class="edge">
<title>Node32&#45;&gt;Node19</title>
<path fill="none" stroke="#63b8ff" d="M2515.04,-298.03C2488.83,-285.42 2449.75,-266.61 2427.08,-255.7"/>
<polygon fill="#63b8ff" stroke="#63b8ff" points="2513.53,-301.19 2524.06,-302.37 2516.57,-294.88 2513.53,-301.19"/>
</g>
<!-- Node33&#45;&gt;Node19 -->
<g id="edge49" class="edge">
<title>Node33&#45;&gt;Node19</title>
<path fill="none" stroke="#63b8ff" d="M2609.72,-299.86C2561.78,-287.24 2484.69,-266.94 2441.33,-255.51"/>
<polygon fill="#63b8ff" stroke="#63b8ff" points="2608.92,-303.27 2619.48,-302.44 2610.7,-296.5 2608.92,-303.27"/>
</g>
<!-- Node34&#45;&gt;Node19 -->
<g id="edge51" class="edge">
<title>Node34&#45;&gt;Node19</title>
<path fill="none" stroke="#63b8ff" d="M2725.57,-300.35C2719.99,-299.18 2714.37,-298.04 2709,-297 2618.65,-279.6 2512.31,-262.72 2453.6,-253.72"/>
<polygon fill="#63b8ff" stroke="#63b8ff" points="2724.99,-303.8 2735.5,-302.47 2726.45,-296.96 2724.99,-303.8"/>
</g>
<!-- Node36&#45;&gt;Node5 -->
<g id="edge58" class="edge">
<title>Node36&#45;&gt;Node5</title>
<path fill="none" stroke="#63b8ff" d="M552.17,-358.95C573.94,-349.59 603.72,-336.78 626.3,-327.06"/>
<polygon fill="#63b8ff" stroke="#63b8ff" points="550.58,-355.83 542.78,-362.99 553.34,-362.26 550.58,-355.83"/>
</g>
<!-- Node36&#45;&gt;Node6 -->
<g id="edge59" class="edge">
<title>Node36&#45;&gt;Node6</title>
<path fill="none" stroke="#63b8ff" d="M523,-352.65C523,-344.36 523,-334.78 523,-327.11"/>
<polygon fill="#63b8ff" stroke="#63b8ff" points="519.5,-352.87 523,-362.87 526.5,-352.87 519.5,-352.87"/>
</g>
<!-- Node36&#45;&gt;Node7 -->
<g id="edge60" class="edge">
<title>Node36&#45;&gt;Node7</title>
<path fill="none" stroke="#63b8ff" d="M492.11,-359.21C468.52,-349.82 435.97,-336.87 411.34,-327.06"/>
<polygon fill="#63b8ff" stroke="#63b8ff" points="491.04,-362.55 501.62,-362.99 493.63,-356.04 491.04,-362.55"/>
</g>
<!-- Node36&#45;&gt;Node9 -->
<g id="edge61" class="edge">
<title>Node36&#45;&gt;Node9</title>
<path fill="none" stroke="#63b8ff" d="M441.29,-365.97C384.92,-360.25 317.01,-348.94 299,-327 290.54,-316.69 290.72,-307.45 299,-297 350.45,-232.04 593.43,-199.85 717.98,-187.39"/>
<polygon fill="#63b8ff" stroke="#63b8ff" points="441.02,-369.46 451.31,-366.94 441.69,-362.49 441.02,-369.46"/>
</g>
<!-- Node36&#45;&gt;Node21 -->
<g id="edge62" class="edge">
<title>Node36&#45;&gt;Node21</title>
<path fill="none" stroke="#63b8ff" d="M441.01,-363.84C362.7,-356.1 241.49,-343.02 137,-327 134.07,-326.55 131.07,-326.07 128.05,-325.56"/>
<polygon fill="#63b8ff" stroke="#63b8ff" points="440.99,-367.36 451.29,-364.85 441.68,-360.39 440.99,-367.36"/>
</g>
<!-- Node36&#45;&gt;Node26 -->
<g id="edge64" class="edge">
<title>Node36&#45;&gt;Node26</title>
<path fill="none" stroke="#63b8ff" d="M604.75,-369.96C827.78,-365.5 1443.54,-351.27 1645,-327 1647.91,-326.65 1650.89,-326.24 1653.88,-325.79"/>
<polygon fill="#63b8ff" stroke="#63b8ff" points="604.68,-366.46 594.75,-370.16 604.81,-373.46 604.68,-366.46"/>
</g>
<!-- Node36&#45;&gt;Node27 -->
<g id="edge65" class="edge">
<title>Node36&#45;&gt;Node27</title>
<path fill="none" stroke="#63b8ff" d="M604.91,-369.92C846.43,-365.05 1553.18,-349.25 1783,-327 1796.4,-325.7 1810.85,-323.67 1824.1,-321.55"/>
<polygon fill="#63b8ff" stroke="#63b8ff" points="604.72,-366.42 594.79,-370.12 604.86,-373.42 604.72,-366.42"/>
</g>
<!-- Node37 -->
<g id="node37" class="node">
<title>Node37</title>
<g id="a_node37"><a xlink:href="json__handler_8cpp.html" target="_top" xlink:title=" ">
<polygon fill="white" stroke="#666666" points="251.5,-327 146.5,-327 146.5,-297 251.5,-297 251.5,-327"/>
<text text-anchor="start" x="154.5" y="-315" font-family="Helvetica,sans-Serif" font-size="10.00">src/endpoints/json</text>
<text text-anchor="middle" x="199" y="-304" font-family="Helvetica,sans-Serif" font-size="10.00">_handler.cpp</text>
</a>
</g>
</g>
<!-- Node36&#45;&gt;Node37 -->
<g id="edge63" class="edge">
<title>Node36&#45;&gt;Node37</title>
<path fill="none" stroke="#63b8ff" d="M460.64,-361.32C408.52,-352.67 332.3,-339.66 266,-327 261.33,-326.11 256.49,-325.15 251.63,-324.18"/>
<polygon fill="#63b8ff" stroke="#63b8ff" points="460.29,-364.81 470.73,-362.99 461.44,-357.91 460.29,-364.81"/>
</g>
<!-- Node38&#45;&gt;Node13 -->
<g id="edge67" class="edge">
<title>Node38&#45;&gt;Node13</title>
<path fill="none" stroke="#63b8ff" d="M2016.76,-408.67C2029,-384.41 2047.75,-347.22 2057.89,-327.1"/>
<polygon fill="#63b8ff" stroke="#63b8ff" points="2013.5,-407.38 2012.12,-417.88 2019.75,-410.53 2013.5,-407.38"/>
</g>
<!-- Node40&#45;&gt;Node20 -->
<g id="edge75" class="edge">
<title>Node40&#45;&gt;Node20</title>
<path fill="none" stroke="#63b8ff" d="M1815.1,-363.72C1738.18,-355.5 1615.06,-341.72 1509,-327 1497.18,-325.36 1484.49,-323.42 1472.55,-321.51"/>
<polygon fill="#63b8ff" stroke="#63b8ff" points="1814.86,-367.21 1825.17,-364.79 1815.6,-360.25 1814.86,-367.21"/>
</g>
<!-- Node40&#45;&gt;Node22 -->
<g id="edge71" class="edge">
<title>Node40&#45;&gt;Node22</title>
<path fill="none" stroke="#63b8ff" d="M1964.75,-368.69C2157.49,-361.32 2668,-341.06 2837,-327 2852.19,-325.74 2868.45,-324.02 2883.86,-322.23"/>
<polygon fill="#63b8ff" stroke="#63b8ff" points="1964.58,-365.19 1954.72,-369.07 1964.84,-372.19 1964.58,-365.19"/>
</g>
<!-- Node40&#45;&gt;Node24 -->
<g id="edge72" class="edge">
<title>Node40&#45;&gt;Node24</title>
<path fill="none" stroke="#63b8ff" d="M1913.01,-357.46C1926.6,-348.97 1944.04,-337.73 1959,-327 1959.6,-326.57 2041.68,-261.66 2042,-261 2053.35,-237.47 2046.41,-205.35 2041.93,-189.95"/>
<polygon fill="#63b8ff" stroke="#63b8ff" points="1910.94,-354.62 1904.28,-362.87 1914.62,-360.58 1910.94,-354.62"/>
</g>
<!-- Node40&#45;&gt;Node26 -->
<g id="edge73" class="edge">
<title>Node40&#45;&gt;Node26</title>
<path fill="none" stroke="#63b8ff" d="M1854.89,-359.83C1826.51,-350.4 1786.46,-337.09 1756.31,-327.06"/>
<polygon fill="#63b8ff" stroke="#63b8ff" points="1853.81,-363.16 1864.41,-362.99 1856.02,-356.52 1853.81,-363.16"/>
</g>
<!-- Node40&#45;&gt;Node27 -->
<g id="edge74" class="edge">
<title>Node40&#45;&gt;Node27</title>
<path fill="none" stroke="#63b8ff" d="M1884.1,-353.32C1880.67,-342.78 1876.51,-329.98 1873.82,-321.67"/>
<polygon fill="#63b8ff" stroke="#63b8ff" points="1880.78,-354.44 1887.2,-362.87 1887.44,-352.28 1880.78,-354.44"/>
</g>
</g>
</svg>
