<?xml version="1.0" encoding="UTF-8" standalone="no"?>
<!DOCTYPE svg PUBLIC "-//W3C//DTD SVG 1.1//EN"
 "http://www.w3.org/Graphics/SVG/1.1/DTD/svg11.dtd">
<!-- Generated by graphviz version 2.43.0 (0)
 -->
<!-- Title: src/node/rpc/gov_effects_interface.h Pages: 1 -->
<!--zoomable 599 -->
<svg id="main" version="1.1" xmlns="http://www.w3.org/2000/svg" xmlns:xlink="http://www.w3.org/1999/xlink" xml:space="preserve" onload="init(evt)">
<style type="text/css"><![CDATA[
.edge:hover path { stroke: red; }
.edge:hover polygon { stroke: red; fill: red; }
]]></style>
<script type="text/javascript"><![CDATA[
var edges = document.getElementsByTagName('g');
if (edges && edges.length) {
  for (var i=0;i<edges.length;i++) {
    if (edges[i].id.substr(0,4)=='edge') {
      edges[i].setAttribute('class','edge');
    }
  }
}
]]></script>
        <defs>
                <circle id="rim" cx="0" cy="0" r="7"/>
                <circle id="rim2" cx="0" cy="0" r="3.5"/>
                <g id="zoomPlus">
                        <use xlink:href="#rim" fill="#404040">
                                <set attributeName="fill" to="#808080" begin="zoomplus.mouseover" end="zoomplus.mouseout"/>
                        </use>
                        <path d="M-4,0h8M0,-4v8" fill="none" stroke="white" stroke-width="1.5" pointer-events="none"/>
                </g>
                <g id="zoomMin">
                        <use xlink:href="#rim" fill="#404040">
                                <set attributeName="fill" to="#808080" begin="zoomminus.mouseover" end="zoomminus.mouseout"/>
                        </use>
                        <path d="M-4,0h8" fill="none" stroke="white" stroke-width="1.5" pointer-events="none"/>
                </g>
                <g id="dirArrow">
                        <path fill="none" stroke="white" stroke-width="1.5" d="M0,-3.0v7 M-2.5,-0.5L0,-3.0L2.5,-0.5"/>
                </g>
               <g id="resetDef">
                       <use xlink:href="#rim2" fill="#404040">
                               <set attributeName="fill" to="#808080" begin="reset.mouseover" end="reset.mouseout"/>
                       </use>
               </g>
        </defs>

<script type="text/javascript">
var viewWidth = 2303;
var viewHeight = 599;
var sectionId = 'dynsection-1';
</script>
<script xlink:href="svgpan.js"/>
<svg id="graph" class="graph">
<g id="viewport">
<title>src/node/rpc/gov_effects_interface.h</title>
<!-- Node1 -->
<g id="node1" class="node">
<title>Node1</title>
<g id="a_node1"><a xlink:title=" ">
<polygon fill="#999999" stroke="#666666" points="983.5,-591 848.5,-591 848.5,-561 983.5,-561 983.5,-591"/>
<text text-anchor="start" x="856.5" y="-579" font-family="Helvetica,sans-Serif" font-size="10.00">src/node/rpc/gov_effects</text>
<text text-anchor="middle" x="916" y="-568" font-family="Helvetica,sans-Serif" font-size="10.00">_interface.h</text>
</a>
</g>
</g>
<!-- Node2 -->
<g id="node2" class="node">
<title>Node2</title>
<g id="a_node2"><a xlink:href="wrap_8cpp.html" target="_top" xlink:title=" ">
<polygon fill="white" stroke="#666666" points="264.5,-332.5 175.5,-332.5 175.5,-313.5 264.5,-313.5 264.5,-332.5"/>
<text text-anchor="middle" x="220" y="-320.5" font-family="Helvetica,sans-Serif" font-size="10.00">src/js/wrap.cpp</text>
</a>
</g>
</g>
<!-- Node1&#45;&gt;Node2 -->
<g id="edge1" class="edge">
<title>Node1&#45;&gt;Node2</title>
<path fill="none" stroke="#63b8ff" d="M838.25,-571.88C643.91,-562.28 145.4,-526.02 45,-404 6.26,-356.92 111.69,-336.31 175.43,-328.35"/>
<polygon fill="#63b8ff" stroke="#63b8ff" points="838.22,-575.38 848.38,-572.37 838.56,-568.39 838.22,-575.38"/>
</g>
<!-- Node3 -->
<g id="node3" class="node">
<title>Node3</title>
<g id="a_node3"><a xlink:href="wrap_8h.html" target="_top" xlink:title=" ">
<polygon fill="white" stroke="#666666" points="651,-464.5 573,-464.5 573,-445.5 651,-445.5 651,-464.5"/>
<text text-anchor="middle" x="612" y="-452.5" font-family="Helvetica,sans-Serif" font-size="10.00">src/js/wrap.h</text>
</a>
</g>
</g>
<!-- Node1&#45;&gt;Node3 -->
<g id="edge2" class="edge">
<title>Node1&#45;&gt;Node3</title>
<path fill="none" stroke="#63b8ff" d="M870.87,-557.33C804.57,-531.38 683.4,-483.95 633.92,-464.58"/>
<polygon fill="#63b8ff" stroke="#63b8ff" points="869.65,-560.61 880.23,-561 872.2,-554.09 869.65,-560.61"/>
</g>
<!-- Node13 -->
<g id="node13" class="node">
<title>Node13</title>
<g id="a_node13"><a xlink:href="gov__effects_8h.html" target="_top" xlink:title=" ">
<polygon fill="white" stroke="#666666" points="1335,-134.5 1191,-134.5 1191,-115.5 1335,-115.5 1335,-134.5"/>
<text text-anchor="middle" x="1263" y="-122.5" font-family="Helvetica,sans-Serif" font-size="10.00">src/node/rpc/gov_effects.h</text>
</a>
</g>
</g>
<!-- Node1&#45;&gt;Node13 -->
<g id="edge26" class="edge">
<title>Node1&#45;&gt;Node13</title>
<path fill="none" stroke="#63b8ff" d="M916.98,-550.61C920.19,-482.09 932.52,-289.76 971,-242 1024.98,-174.99 1123.31,-146.52 1190.84,-134.53"/>
<polygon fill="#63b8ff" stroke="#63b8ff" points="913.47,-550.71 916.53,-560.86 920.47,-551.02 913.47,-550.71"/>
</g>
<!-- Node14 -->
<g id="node14" class="node">
<title>Node14</title>
<g id="a_node14"><a xlink:href="member__frontend_8h.html" target="_top" xlink:title=" ">
<polygon fill="white" stroke="#666666" points="926,-338 806,-338 806,-308 926,-308 926,-338"/>
<text text-anchor="start" x="814" y="-326" font-family="Helvetica,sans-Serif" font-size="10.00">src/node/rpc/member</text>
<text text-anchor="middle" x="866" y="-315" font-family="Helvetica,sans-Serif" font-size="10.00">_frontend.h</text>
</a>
</g>
</g>
<!-- Node1&#45;&gt;Node14 -->
<g id="edge27" class="edge">
<title>Node1&#45;&gt;Node14</title>
<path fill="none" stroke="#63b8ff" d="M911.19,-550.84C900.89,-499.13 876.98,-379.1 868.8,-338.06"/>
<polygon fill="#63b8ff" stroke="#63b8ff" points="907.78,-551.66 913.17,-560.79 914.65,-550.29 907.78,-551.66"/>
</g>
<!-- Node17 -->
<g id="node17" class="node">
<title>Node17</title>
<g id="a_node17"><a xlink:href="node__interface_8h.html" target="_top" xlink:title=" ">
<polygon fill="white" stroke="#666666" points="1465.5,-525 1304.5,-525 1304.5,-506 1465.5,-506 1465.5,-525"/>
<text text-anchor="middle" x="1385" y="-513" font-family="Helvetica,sans-Serif" font-size="10.00">src/node/rpc/node_interface.h</text>
</a>
</g>
</g>
<!-- Node1&#45;&gt;Node17 -->
<g id="edge28" class="edge">
<title>Node1&#45;&gt;Node17</title>
<path fill="none" stroke="#63b8ff" d="M993.85,-565.29C1083.89,-554.06 1230.72,-535.74 1316.56,-525.04"/>
<polygon fill="#63b8ff" stroke="#63b8ff" points="993.19,-561.85 983.7,-566.56 994.05,-568.79 993.19,-561.85"/>
</g>
<!-- Node3&#45;&gt;Node2 -->
<g id="edge15" class="edge">
<title>Node3&#45;&gt;Node2</title>
<path fill="none" stroke="#63b8ff" d="M562.76,-453.27C433.27,-450.85 90.8,-440.98 57,-404 18.72,-362.12 114.86,-339.58 175.31,-329.89"/>
<polygon fill="#63b8ff" stroke="#63b8ff" points="562.74,-456.77 572.8,-453.45 562.87,-449.77 562.74,-456.77"/>
</g>
<!-- Node4 -->
<g id="node4" class="node">
<title>Node4</title>
<g id="a_node4"><a xlink:href="js__generic__base_8cpp.html" target="_top" xlink:title=" ">
<polygon fill="white" stroke="#666666" points="812,-404 694,-404 694,-374 812,-374 812,-404"/>
<text text-anchor="start" x="702" y="-392" font-family="Helvetica,sans-Serif" font-size="10.00">src/apps/js_generic</text>
<text text-anchor="middle" x="753" y="-381" font-family="Helvetica,sans-Serif" font-size="10.00">/js_generic_base.cpp</text>
</a>
</g>
</g>
<!-- Node3&#45;&gt;Node4 -->
<g id="edge3" class="edge">
<title>Node3&#45;&gt;Node4</title>
<path fill="none" stroke="#63b8ff" d="M640.16,-441.22C663.78,-430.5 697.49,-415.2 721.9,-404.12"/>
<polygon fill="#63b8ff" stroke="#63b8ff" points="638.68,-438.05 631.02,-445.37 641.57,-444.42 638.68,-438.05"/>
</g>
<!-- Node5 -->
<g id="node5" class="node">
<title>Node5</title>
<g id="a_node5"><a xlink:href="src_2enclave_2enclave_8h.html" target="_top" xlink:title=" ">
<polygon fill="white" stroke="#666666" points="1686,-74 1564,-74 1564,-55 1686,-55 1686,-74"/>
<text text-anchor="middle" x="1625" y="-62" font-family="Helvetica,sans-Serif" font-size="10.00">src/enclave/enclave.h</text>
</a>
</g>
</g>
<!-- Node3&#45;&gt;Node5 -->
<g id="edge4" class="edge">
<title>Node3&#45;&gt;Node5</title>
<path fill="none" stroke="#63b8ff" d="M562.62,-452.26C432.63,-447.33 88,-431.75 45,-404 10.73,-381.88 0,-364.79 0,-324 0,-324 0,-324 0,-190 0,-110.02 1267.86,-74.2 1563.77,-66.92"/>
<polygon fill="#63b8ff" stroke="#63b8ff" points="562.57,-455.76 572.7,-452.64 562.84,-448.77 562.57,-455.76"/>
</g>
<!-- Node7 -->
<g id="node7" class="node">
<title>Node7</title>
<g id="a_node7"><a xlink:href="consensus_8cpp.html" target="_top" xlink:title=" ">
<polygon fill="white" stroke="#666666" points="402,-398.5 286,-398.5 286,-379.5 402,-379.5 402,-398.5"/>
<text text-anchor="middle" x="344" y="-386.5" font-family="Helvetica,sans-Serif" font-size="10.00">src/js/consensus.cpp</text>
</a>
</g>
</g>
<!-- Node3&#45;&gt;Node7 -->
<g id="edge6" class="edge">
<title>Node3&#45;&gt;Node7</title>
<path fill="none" stroke="#63b8ff" d="M566.36,-443.1C513.57,-430.49 427.78,-410.01 379.65,-398.51"/>
<polygon fill="#63b8ff" stroke="#63b8ff" points="565.59,-446.52 576.13,-445.44 567.22,-439.71 565.59,-446.52"/>
</g>
<!-- Node8 -->
<g id="node8" class="node">
<title>Node8</title>
<g id="a_node8"><a xlink:href="conv_8cpp.html" target="_top" xlink:title=" ">
<polygon fill="white" stroke="#666666" points="154,-398.5 66,-398.5 66,-379.5 154,-379.5 154,-398.5"/>
<text text-anchor="middle" x="110" y="-386.5" font-family="Helvetica,sans-Serif" font-size="10.00">src/js/conv.cpp</text>
</a>
</g>
</g>
<!-- Node3&#45;&gt;Node8 -->
<g id="edge8" class="edge">
<title>Node3&#45;&gt;Node8</title>
<path fill="none" stroke="#63b8ff" d="M562.83,-450.91C479.86,-445.15 307,-430.88 163,-404 155.24,-402.55 146.93,-400.57 139.26,-398.55"/>
<polygon fill="#63b8ff" stroke="#63b8ff" points="562.76,-454.41 572.98,-451.6 563.24,-447.43 562.76,-454.41"/>
</g>
<!-- Node9 -->
<g id="node9" class="node">
<title>Node9</title>
<g id="a_node9"><a xlink:href="crypto_8cpp.html" target="_top" xlink:title=" ">
<polygon fill="white" stroke="#666666" points="268,-398.5 172,-398.5 172,-379.5 268,-379.5 268,-398.5"/>
<text text-anchor="middle" x="220" y="-386.5" font-family="Helvetica,sans-Serif" font-size="10.00">src/js/crypto.cpp</text>
</a>
</g>
</g>
<!-- Node3&#45;&gt;Node9 -->
<g id="edge10" class="edge">
<title>Node3&#45;&gt;Node9</title>
<path fill="none" stroke="#63b8ff" d="M562.81,-448.11C497.29,-439.93 377.91,-423.88 277,-404 269,-402.42 260.44,-400.47 252.44,-398.52"/>
<polygon fill="#63b8ff" stroke="#63b8ff" points="562.5,-451.6 572.86,-449.35 563.36,-444.65 562.5,-451.6"/>
</g>
<!-- Node10 -->
<g id="node10" class="node">
<title>Node10</title>
<g id="a_node10"><a xlink:href="historical_8cpp.html" target="_top" xlink:title=" ">
<polygon fill="white" stroke="#666666" points="530,-398.5 420,-398.5 420,-379.5 530,-379.5 530,-398.5"/>
<text text-anchor="middle" x="475" y="-386.5" font-family="Helvetica,sans-Serif" font-size="10.00">src/js/historical.cpp</text>
</a>
</g>
</g>
<!-- Node3&#45;&gt;Node10 -->
<g id="edge12" class="edge">
<title>Node3&#45;&gt;Node10</title>
<path fill="none" stroke="#63b8ff" d="M584.23,-441.03C557.23,-428.42 516.98,-409.61 493.62,-398.7"/>
<polygon fill="#63b8ff" stroke="#63b8ff" points="582.98,-444.31 593.52,-445.37 585.94,-437.97 582.98,-444.31"/>
</g>
<!-- Node11 -->
<g id="node11" class="node">
<title>Node11</title>
<g id="a_node11"><a xlink:href="openenclave_8cpp.html" target="_top" xlink:title=" ">
<polygon fill="white" stroke="#666666" points="676,-398.5 548,-398.5 548,-379.5 676,-379.5 676,-398.5"/>
<text text-anchor="middle" x="612" y="-386.5" font-family="Helvetica,sans-Serif" font-size="10.00">src/js/openenclave.cpp</text>
</a>
</g>
</g>
<!-- Node3&#45;&gt;Node11 -->
<g id="edge14" class="edge">
<title>Node3&#45;&gt;Node11</title>
<path fill="none" stroke="#63b8ff" d="M612,-435.08C612,-423.13 612,-408.22 612,-398.91"/>
<polygon fill="#63b8ff" stroke="#63b8ff" points="608.5,-435.37 612,-445.37 615.5,-435.37 608.5,-435.37"/>
</g>
<!-- Node12 -->
<g id="node12" class="node">
<title>Node12</title>
<g id="a_node12"><a xlink:href="node__state_8h.html" target="_top" xlink:title=" ">
<polygon fill="white" stroke="#666666" points="1466,-200.5 1342,-200.5 1342,-181.5 1466,-181.5 1466,-200.5"/>
<text text-anchor="middle" x="1404" y="-188.5" font-family="Helvetica,sans-Serif" font-size="10.00">src/node/node_state.h</text>
</a>
</g>
</g>
<!-- Node3&#45;&gt;Node12 -->
<g id="edge16" class="edge">
<title>Node3&#45;&gt;Node12</title>
<path fill="none" stroke="#63b8ff" d="M661.05,-449.79C709.97,-444.19 786.38,-431.55 847,-404 891.51,-383.77 905.68,-377.12 935,-338 962.32,-301.53 935.1,-270.06 971,-242 1027.27,-198.02 1235.95,-191.71 1341.71,-191.43"/>
<polygon fill="#63b8ff" stroke="#63b8ff" points="660.6,-446.32 651.04,-450.88 661.36,-453.28 660.6,-446.32"/>
</g>
<!-- Node3&#45;&gt;Node14 -->
<g id="edge20" class="edge">
<title>Node3&#45;&gt;Node14</title>
<path fill="none" stroke="#63b8ff" d="M661.62,-453.12C707.22,-449.94 774.59,-439.03 821,-404 843.13,-387.29 855.97,-356.34 861.92,-338.22"/>
<polygon fill="#63b8ff" stroke="#63b8ff" points="661.15,-449.64 651.38,-453.72 661.57,-456.62 661.15,-449.64"/>
</g>
<!-- Node15 -->
<g id="node15" class="node">
<title>Node15</title>
<g id="a_node15"><a xlink:href="node__frontend_8h.html" target="_top" xlink:title=" ">
<polygon fill="white" stroke="#666666" points="1464,-332.5 1306,-332.5 1306,-313.5 1464,-313.5 1464,-332.5"/>
<text text-anchor="middle" x="1385" y="-320.5" font-family="Helvetica,sans-Serif" font-size="10.00">src/node/rpc/node_frontend.h</text>
</a>
</g>
</g>
<!-- Node3&#45;&gt;Node15 -->
<g id="edge22" class="edge">
<title>Node3&#45;&gt;Node15</title>
<path fill="none" stroke="#63b8ff" d="M661.58,-452.83C790.64,-449.33 1134.5,-437.1 1243,-404 1295.78,-387.9 1350.54,-349.91 1373.64,-332.72"/>
<polygon fill="#63b8ff" stroke="#63b8ff" points="661.12,-449.34 651.21,-453.1 661.3,-456.33 661.12,-449.34"/>
</g>
<!-- Node6 -->
<g id="node6" class="node">
<title>Node6</title>
<g id="a_node6"><a xlink:href="enclave_2main_8cpp.html" target="_top" xlink:title=" ">
<polygon fill="white" stroke="#666666" points="1685,-19 1565,-19 1565,0 1685,0 1685,-19"/>
<text text-anchor="middle" x="1625" y="-7" font-family="Helvetica,sans-Serif" font-size="10.00">src/enclave/main.cpp</text>
</a>
</g>
</g>
<!-- Node5&#45;&gt;Node6 -->
<g id="edge5" class="edge">
<title>Node5&#45;&gt;Node6</title>
<path fill="none" stroke="#63b8ff" d="M1625,-44.66C1625,-35.93 1625,-25.99 1625,-19.09"/>
<polygon fill="#63b8ff" stroke="#63b8ff" points="1621.5,-44.75 1625,-54.75 1628.5,-44.75 1621.5,-44.75"/>
</g>
<!-- Node7&#45;&gt;Node2 -->
<g id="edge7" class="edge">
<title>Node7&#45;&gt;Node2</title>
<path fill="none" stroke="#63b8ff" d="M318.22,-374.69C293.79,-362.09 257.81,-343.51 236.85,-332.7"/>
<polygon fill="#63b8ff" stroke="#63b8ff" points="316.79,-377.89 327.28,-379.37 320,-371.67 316.79,-377.89"/>
</g>
<!-- Node8&#45;&gt;Node2 -->
<g id="edge9" class="edge">
<title>Node8&#45;&gt;Node2</title>
<path fill="none" stroke="#63b8ff" d="M133.74,-374.19C155.38,-361.59 186.71,-343.37 205.05,-332.7"/>
<polygon fill="#63b8ff" stroke="#63b8ff" points="131.72,-371.31 124.84,-379.37 135.24,-377.36 131.72,-371.31"/>
</g>
<!-- Node9&#45;&gt;Node2 -->
<g id="edge11" class="edge">
<title>Node9&#45;&gt;Node2</title>
<path fill="none" stroke="#63b8ff" d="M220,-369.08C220,-357.13 220,-342.22 220,-332.91"/>
<polygon fill="#63b8ff" stroke="#63b8ff" points="216.5,-369.37 220,-379.37 223.5,-369.37 216.5,-369.37"/>
</g>
<!-- Node10&#45;&gt;Node2 -->
<g id="edge13" class="edge">
<title>Node10&#45;&gt;Node2</title>
<path fill="none" stroke="#63b8ff" d="M430.94,-376.94C380.67,-364.32 299.53,-343.96 253.92,-332.51"/>
<polygon fill="#63b8ff" stroke="#63b8ff" points="430.32,-380.4 440.87,-379.44 432.03,-373.61 430.32,-380.4"/>
</g>
<!-- Node12&#45;&gt;Node5 -->
<g id="edge17" class="edge">
<title>Node12&#45;&gt;Node5</title>
<path fill="none" stroke="#63b8ff" d="M1428.11,-176.42C1473.82,-150.67 1571.9,-95.41 1609.7,-74.12"/>
<polygon fill="#63b8ff" stroke="#63b8ff" points="1426.18,-173.48 1419.19,-181.44 1429.62,-179.58 1426.18,-173.48"/>
</g>
<!-- Node12&#45;&gt;Node13 -->
<g id="edge18" class="edge">
<title>Node12&#45;&gt;Node13</title>
<path fill="none" stroke="#63b8ff" d="M1375.79,-177.19C1348,-164.58 1306.31,-145.66 1282.16,-134.7"/>
<polygon fill="#63b8ff" stroke="#63b8ff" points="1374.43,-180.42 1384.98,-181.37 1377.32,-174.05 1374.43,-180.42"/>
</g>
<!-- Node13&#45;&gt;Node5 -->
<g id="edge19" class="edge">
<title>Node13&#45;&gt;Node5</title>
<path fill="none" stroke="#63b8ff" d="M1325.32,-113.84C1333.29,-112.55 1341.34,-111.24 1349,-110 1426.62,-97.43 1516.52,-82.95 1572.09,-74.01"/>
<polygon fill="#63b8ff" stroke="#63b8ff" points="1324.61,-110.41 1315.3,-115.47 1325.73,-117.32 1324.61,-110.41"/>
</g>
<!-- Node14&#45;&gt;Node5 -->
<g id="edge21" class="edge">
<title>Node14&#45;&gt;Node5</title>
<path fill="none" stroke="#63b8ff" d="M864.55,-297.61C864.03,-265.56 868.07,-209.45 899,-176 988.32,-79.41 1405.44,-66.74 1563.8,-65.46"/>
<polygon fill="#63b8ff" stroke="#63b8ff" points="861.06,-297.98 864.89,-307.86 868.06,-297.75 861.06,-297.98"/>
</g>
<!-- Node15&#45;&gt;Node5 -->
<g id="edge23" class="edge">
<title>Node15&#45;&gt;Node5</title>
<path fill="none" stroke="#63b8ff" d="M1316.21,-310.56C1294.22,-303.3 1272.19,-291.42 1259,-272 1251.51,-260.97 1253.55,-254.17 1259,-242 1311.43,-124.99 1473.89,-85.16 1563.72,-71.9"/>
<polygon fill="#63b8ff" stroke="#63b8ff" points="1315.36,-313.96 1325.94,-313.49 1317.38,-307.26 1315.36,-313.96"/>
</g>
<!-- Node16 -->
<g id="node16" class="node">
<title>Node16</title>
<g id="a_node16"><a xlink:href="jwt__key__auto__refresh_8h.html" target="_top" xlink:title=" ">
<polygon fill="white" stroke="#666666" points="1392.5,-272 1267.5,-272 1267.5,-242 1392.5,-242 1392.5,-272"/>
<text text-anchor="start" x="1275.5" y="-260" font-family="Helvetica,sans-Serif" font-size="10.00">src/node/jwt_key_auto</text>
<text text-anchor="middle" x="1330" y="-249" font-family="Helvetica,sans-Serif" font-size="10.00">_refresh.h</text>
</a>
</g>
</g>
<!-- Node15&#45;&gt;Node16 -->
<g id="edge24" class="edge">
<title>Node15&#45;&gt;Node16</title>
<path fill="none" stroke="#63b8ff" d="M1370.86,-305.54C1362.04,-295.28 1350.8,-282.2 1342.34,-272.36"/>
<polygon fill="#63b8ff" stroke="#63b8ff" points="1368.41,-308.07 1377.58,-313.37 1373.72,-303.5 1368.41,-308.07"/>
</g>
<!-- Node16&#45;&gt;Node12 -->
<g id="edge25" class="edge">
<title>Node16&#45;&gt;Node12</title>
<path fill="none" stroke="#63b8ff" d="M1354.36,-234.93C1367.75,-223.35 1383.64,-209.61 1393.77,-200.84"/>
<polygon fill="#63b8ff" stroke="#63b8ff" points="1351.7,-232.61 1346.42,-241.8 1356.28,-237.9 1351.7,-232.61"/>
</g>
<!-- Node17&#45;&gt;Node2 -->
<g id="edge29" class="edge">
<title>Node17&#45;&gt;Node2</title>
<path fill="none" stroke="#63b8ff" d="M1294.02,-507.89C1228.66,-501.71 1138.89,-490.29 1062,-470 950.52,-440.58 933.23,-400.4 821,-374 617.42,-326.11 365.63,-322.51 264.81,-323.24"/>
<polygon fill="#63b8ff" stroke="#63b8ff" points="1294.02,-511.4 1304.29,-508.84 1294.66,-504.43 1294.02,-511.4"/>
</g>
<!-- Node17&#45;&gt;Node3 -->
<g id="edge30" class="edge">
<title>Node17&#45;&gt;Node3</title>
<path fill="none" stroke="#63b8ff" d="M1294.36,-507.64C1125.68,-494.87 769.93,-467.95 651.38,-458.98"/>
<polygon fill="#63b8ff" stroke="#63b8ff" points="1294.23,-511.14 1304.46,-508.41 1294.76,-504.16 1294.23,-511.14"/>
</g>
<!-- Node17&#45;&gt;Node14 -->
<g id="edge56" class="edge">
<title>Node17&#45;&gt;Node14</title>
<path fill="none" stroke="#63b8ff" d="M1294.54,-505.01C1247.28,-498.34 1189.03,-487.42 1139,-470 1039,-435.19 931.24,-367.49 886.88,-338.14"/>
<polygon fill="#63b8ff" stroke="#63b8ff" points="1294.07,-508.48 1304.45,-506.37 1295.02,-501.54 1294.07,-508.48"/>
</g>
<!-- Node17&#45;&gt;Node15 -->
<g id="edge61" class="edge">
<title>Node17&#45;&gt;Node15</title>
<path fill="none" stroke="#63b8ff" d="M1385,-495.75C1385,-455.43 1385,-361.75 1385,-332.73"/>
<polygon fill="#63b8ff" stroke="#63b8ff" points="1381.5,-495.82 1385,-505.82 1388.5,-495.82 1381.5,-495.82"/>
</g>
<!-- Node18 -->
<g id="node18" class="node">
<title>Node18</title>
<g id="a_node18"><a xlink:href="historical__queries_8h.html" target="_top" xlink:title=" ">
<polygon fill="white" stroke="#666666" points="2247,-206 2141,-206 2141,-176 2247,-176 2247,-206"/>
<text text-anchor="start" x="2149" y="-194" font-family="Helvetica,sans-Serif" font-size="10.00">src/node/historical</text>
<text text-anchor="middle" x="2194" y="-183" font-family="Helvetica,sans-Serif" font-size="10.00">_queries.h</text>
</a>
</g>
</g>
<!-- Node17&#45;&gt;Node18 -->
<g id="edge31" class="edge">
<title>Node17&#45;&gt;Node18</title>
<path fill="none" stroke="#63b8ff" d="M1475.79,-513.88C1661.74,-511.91 2073.05,-503.76 2127,-470 2161.58,-448.36 2172,-430.79 2172,-390 2172,-390 2172,-390 2172,-322 2172,-279.42 2183.61,-230.09 2189.96,-206.29"/>
<polygon fill="#63b8ff" stroke="#63b8ff" points="1475.72,-510.38 1465.76,-513.98 1475.79,-517.38 1475.72,-510.38"/>
</g>
<!-- Node20 -->
<g id="node20" class="node">
<title>Node20</title>
<g id="a_node20"><a xlink:href="node__configuration__subsystem_8h.html" target="_top" xlink:title=" ">
<polygon fill="white" stroke="#666666" points="1302,-470 1148,-470 1148,-440 1302,-440 1302,-470"/>
<text text-anchor="start" x="1156" y="-458" font-family="Helvetica,sans-Serif" font-size="10.00">src/node/node_configuration</text>
<text text-anchor="middle" x="1225" y="-447" font-family="Helvetica,sans-Serif" font-size="10.00">_subsystem.h</text>
</a>
</g>
</g>
<!-- Node17&#45;&gt;Node20 -->
<g id="edge35" class="edge">
<title>Node17&#45;&gt;Node20</title>
<path fill="none" stroke="#63b8ff" d="M1352.06,-502.46C1326.33,-493.05 1290.52,-479.95 1263.47,-470.06"/>
<polygon fill="#63b8ff" stroke="#63b8ff" points="1351.14,-505.85 1361.73,-505.99 1353.54,-499.27 1351.14,-505.85"/>
</g>
<!-- Node25 -->
<g id="node25" class="node">
<title>Node25</title>
<g id="a_node25"><a xlink:href="acme__subsystem_8h.html" target="_top" xlink:title=" ">
<polygon fill="white" stroke="#666666" points="2084.5,-200.5 1911.5,-200.5 1911.5,-181.5 2084.5,-181.5 2084.5,-200.5"/>
<text text-anchor="middle" x="1998" y="-188.5" font-family="Helvetica,sans-Serif" font-size="10.00">src/node/rpc/acme_subsystem.h</text>
</a>
</g>
</g>
<!-- Node17&#45;&gt;Node25 -->
<g id="edge46" class="edge">
<title>Node17&#45;&gt;Node25</title>
<path fill="none" stroke="#63b8ff" d="M1476.15,-513.36C1638.07,-508.85 1959,-487.6 1959,-390 1959,-390 1959,-390 1959,-322 1959,-274.4 1983.28,-220.98 1993.53,-200.56"/>
<polygon fill="#63b8ff" stroke="#63b8ff" points="1475.62,-509.87 1465.72,-513.63 1475.81,-516.87 1475.62,-509.87"/>
</g>
<!-- Node26 -->
<g id="node26" class="node">
<title>Node26</title>
<g id="a_node26"><a xlink:href="custom__protocol__subsystem_8h.html" target="_top" xlink:title=" ">
<polygon fill="white" stroke="#666666" points="1550.5,-404 1421.5,-404 1421.5,-374 1550.5,-374 1550.5,-404"/>
<text text-anchor="start" x="1429.5" y="-392" font-family="Helvetica,sans-Serif" font-size="10.00">src/node/rpc/custom</text>
<text text-anchor="middle" x="1486" y="-381" font-family="Helvetica,sans-Serif" font-size="10.00">_protocol_subsystem.h</text>
</a>
</g>
</g>
<!-- Node17&#45;&gt;Node26 -->
<g id="edge48" class="edge">
<title>Node17&#45;&gt;Node26</title>
<path fill="none" stroke="#63b8ff" d="M1398.47,-497.9C1418.48,-473.23 1455.72,-427.33 1474.51,-404.16"/>
<polygon fill="#63b8ff" stroke="#63b8ff" points="1395.52,-495.97 1391.94,-505.94 1400.96,-500.38 1395.52,-495.97"/>
</g>
<!-- Node29 -->
<g id="node29" class="node">
<title>Node29</title>
<g id="a_node29"><a xlink:href="network__identity__subsystem_8h.html" target="_top" xlink:title=" ">
<polygon fill="white" stroke="#666666" points="1782.5,-470 1655.5,-470 1655.5,-440 1782.5,-440 1782.5,-470"/>
<text text-anchor="start" x="1663.5" y="-458" font-family="Helvetica,sans-Serif" font-size="10.00">src/node/rpc/network</text>
<text text-anchor="middle" x="1719" y="-447" font-family="Helvetica,sans-Serif" font-size="10.00">_identity_subsystem.h</text>
</a>
</g>
</g>
<!-- Node17&#45;&gt;Node29 -->
<g id="edge57" class="edge">
<title>Node17&#45;&gt;Node29</title>
<path fill="none" stroke="#63b8ff" d="M1443.52,-504.25C1502.77,-493.87 1594.15,-477.87 1655.22,-467.17"/>
<polygon fill="#63b8ff" stroke="#63b8ff" points="1442.81,-500.82 1433.57,-505.99 1444.02,-507.72 1442.81,-500.82"/>
</g>
<!-- Node32 -->
<g id="node32" class="node">
<title>Node32</title>
<g id="a_node32"><a xlink:href="node__operation_8h.html" target="_top" xlink:title=" ">
<polygon fill="white" stroke="#666666" points="2113,-134.5 1949,-134.5 1949,-115.5 2113,-115.5 2113,-134.5"/>
<text text-anchor="middle" x="2031" y="-122.5" font-family="Helvetica,sans-Serif" font-size="10.00">src/node/rpc/node_operation.h</text>
</a>
</g>
</g>
<!-- Node17&#45;&gt;Node32 -->
<g id="edge62" class="edge">
<title>Node17&#45;&gt;Node32</title>
<path fill="none" stroke="#63b8ff" d="M1476.04,-514.42C1580.8,-512.56 1757.38,-503.98 1905,-470 2001.52,-447.78 2113,-489.05 2113,-390 2113,-390 2113,-390 2113,-256 2113,-219.46 2113.61,-206.83 2094,-176 2082.31,-157.62 2061.47,-143.07 2046.98,-134.51"/>
<polygon fill="#63b8ff" stroke="#63b8ff" points="1475.76,-510.92 1465.81,-514.58 1475.87,-517.92 1475.76,-510.92"/>
</g>
<!-- Node18&#45;&gt;Node5 -->
<g id="edge32" class="edge">
<title>Node18&#45;&gt;Node5</title>
<path fill="none" stroke="#63b8ff" d="M2180.4,-167.13C2167.82,-148.27 2147.28,-122.64 2122,-110 2047.03,-72.52 1801.45,-66.27 1686,-65.46"/>
<polygon fill="#63b8ff" stroke="#63b8ff" points="2177.58,-169.22 2185.92,-175.75 2183.48,-165.44 2177.58,-169.22"/>
</g>
<!-- Node19 -->
<g id="node19" class="node">
<title>Node19</title>
<g id="a_node19"><a xlink:href="historical__transaction__fetcher_8h.html" target="_top" xlink:title=" ">
<polygon fill="white" stroke="#666666" points="2294.5,-140 2169.5,-140 2169.5,-110 2294.5,-110 2294.5,-140"/>
<text text-anchor="start" x="2177.5" y="-128" font-family="Helvetica,sans-Serif" font-size="10.00">src/indexing/historical</text>
<text text-anchor="middle" x="2232" y="-117" font-family="Helvetica,sans-Serif" font-size="10.00">_transaction_fetcher.h</text>
</a>
</g>
</g>
<!-- Node18&#45;&gt;Node19 -->
<g id="edge33" class="edge">
<title>Node18&#45;&gt;Node19</title>
<path fill="none" stroke="#63b8ff" d="M2207.68,-166.96C2213,-158 2218.92,-148.03 2223.59,-140.16"/>
<polygon fill="#63b8ff" stroke="#63b8ff" points="2204.53,-165.41 2202.43,-175.8 2210.55,-168.98 2204.53,-165.41"/>
</g>
<!-- Node19&#45;&gt;Node5 -->
<g id="edge34" class="edge">
<title>Node19&#45;&gt;Node5</title>
<path fill="none" stroke="#63b8ff" d="M2159.46,-110.61C2157.96,-110.4 2156.47,-110.2 2155,-110 1985.89,-87.58 1784.83,-74.34 1686.01,-68.71"/>
<polygon fill="#63b8ff" stroke="#63b8ff" points="2159.06,-114.09 2169.46,-112.11 2160.09,-107.17 2159.06,-114.09"/>
</g>
<!-- Node21 -->
<g id="node21" class="node">
<title>Node21</title>
<g id="a_node21"><a xlink:href="frontend_8h.html" target="_top" xlink:title=" ">
<polygon fill="white" stroke="#666666" points="1233.5,-398.5 1104.5,-398.5 1104.5,-379.5 1233.5,-379.5 1233.5,-398.5"/>
<text text-anchor="middle" x="1169" y="-386.5" font-family="Helvetica,sans-Serif" font-size="10.00">src/node/rpc/frontend.h</text>
</a>
</g>
</g>
<!-- Node20&#45;&gt;Node21 -->
<g id="edge36" class="edge">
<title>Node20&#45;&gt;Node21</title>
<path fill="none" stroke="#63b8ff" d="M1205.7,-431.94C1195.76,-420.58 1184.19,-407.36 1176.74,-398.84"/>
<polygon fill="#63b8ff" stroke="#63b8ff" points="1203.35,-434.58 1212.57,-439.8 1208.62,-429.97 1203.35,-434.58"/>
</g>
<!-- Node21&#45;&gt;Node12 -->
<g id="edge41" class="edge">
<title>Node21&#45;&gt;Node12</title>
<path fill="none" stroke="#63b8ff" d="M1154.43,-371.34C1141.68,-354.6 1126.91,-328.44 1139,-308 1180.86,-237.21 1277.59,-209.52 1341.87,-198.76"/>
<polygon fill="#63b8ff" stroke="#63b8ff" points="1151.75,-373.58 1160.77,-379.15 1157.19,-369.18 1151.75,-373.58"/>
</g>
<!-- Node21&#45;&gt;Node14 -->
<g id="edge42" class="edge">
<title>Node21&#45;&gt;Node14</title>
<path fill="none" stroke="#63b8ff" d="M1118.61,-377.36C1065.69,-366.18 982.48,-348.6 926.15,-336.71"/>
<polygon fill="#63b8ff" stroke="#63b8ff" points="1117.94,-380.79 1128.45,-379.44 1119.39,-373.94 1117.94,-380.79"/>
</g>
<!-- Node21&#45;&gt;Node15 -->
<g id="edge43" class="edge">
<title>Node21&#45;&gt;Node15</title>
<path fill="none" stroke="#63b8ff" d="M1207.87,-376.48C1250.45,-363.87 1317.77,-343.92 1355.99,-332.6"/>
<polygon fill="#63b8ff" stroke="#63b8ff" points="1206.72,-373.17 1198.13,-379.37 1208.71,-379.88 1206.72,-373.17"/>
</g>
<!-- Node22 -->
<g id="node22" class="node">
<title>Node22</title>
<g id="a_node22"><a xlink:href="acme__challenge__frontend_8h.html" target="_top" xlink:title=" ">
<polygon fill="white" stroke="#666666" points="1288,-338 1148,-338 1148,-308 1288,-308 1288,-338"/>
<text text-anchor="start" x="1156" y="-326" font-family="Helvetica,sans-Serif" font-size="10.00">src/node/acme_challenge</text>
<text text-anchor="middle" x="1218" y="-315" font-family="Helvetica,sans-Serif" font-size="10.00">_frontend.h</text>
</a>
</g>
</g>
<!-- Node21&#45;&gt;Node22 -->
<g id="edge37" class="edge">
<title>Node21&#45;&gt;Node22</title>
<path fill="none" stroke="#63b8ff" d="M1181.84,-371.24C1189.66,-361.02 1199.55,-348.1 1207.01,-338.36"/>
<polygon fill="#63b8ff" stroke="#63b8ff" points="1178.91,-369.3 1175.61,-379.37 1184.47,-373.56 1178.91,-369.3"/>
</g>
<!-- Node24 -->
<g id="node24" class="node">
<title>Node24</title>
<g id="a_node24"><a xlink:href="user__frontend_8h.html" target="_top" xlink:title=" ">
<polygon fill="white" stroke="#666666" points="1134.5,-266.5 979.5,-266.5 979.5,-247.5 1134.5,-247.5 1134.5,-266.5"/>
<text text-anchor="middle" x="1057" y="-254.5" font-family="Helvetica,sans-Serif" font-size="10.00">src/node/rpc/user_frontend.h</text>
</a>
</g>
</g>
<!-- Node21&#45;&gt;Node24 -->
<g id="edge44" class="edge">
<title>Node21&#45;&gt;Node24</title>
<path fill="none" stroke="#63b8ff" d="M1146.98,-373.46C1134.09,-364.27 1118.03,-351.59 1106,-338 1085.48,-314.83 1068.43,-281.99 1061,-266.59"/>
<polygon fill="#63b8ff" stroke="#63b8ff" points="1145.1,-376.42 1155.31,-379.24 1149.09,-370.66 1145.1,-376.42"/>
</g>
<!-- Node22&#45;&gt;Node5 -->
<g id="edge38" class="edge">
<title>Node22&#45;&gt;Node5</title>
<path fill="none" stroke="#63b8ff" d="M1203.53,-299.14C1178.41,-256.26 1133.8,-163.28 1182,-110 1207.12,-82.23 1447.97,-71.01 1563.61,-67.19"/>
<polygon fill="#63b8ff" stroke="#63b8ff" points="1200.69,-301.21 1208.85,-307.97 1206.69,-297.6 1200.69,-301.21"/>
</g>
<!-- Node23 -->
<g id="node23" class="node">
<title>Node23</title>
<g id="a_node23"><a xlink:href="ccf__acme__client_8h.html" target="_top" xlink:title=" ">
<polygon fill="white" stroke="#666666" points="1559.5,-266.5 1410.5,-266.5 1410.5,-247.5 1559.5,-247.5 1559.5,-266.5"/>
<text text-anchor="middle" x="1485" y="-254.5" font-family="Helvetica,sans-Serif" font-size="10.00">src/node/ccf_acme_client.h</text>
</a>
</g>
</g>
<!-- Node22&#45;&gt;Node23 -->
<g id="edge39" class="edge">
<title>Node22&#45;&gt;Node23</title>
<path fill="none" stroke="#63b8ff" d="M1286.43,-305.6C1338.48,-293.12 1408,-276.46 1449.47,-266.52"/>
<polygon fill="#63b8ff" stroke="#63b8ff" points="1285.5,-302.22 1276.59,-307.95 1287.13,-309.03 1285.5,-302.22"/>
</g>
<!-- Node23&#45;&gt;Node12 -->
<g id="edge40" class="edge">
<title>Node23&#45;&gt;Node12</title>
<path fill="none" stroke="#63b8ff" d="M1466,-240.99C1450.14,-228.46 1428.09,-211.04 1415.01,-200.7"/>
<polygon fill="#63b8ff" stroke="#63b8ff" points="1464.06,-243.92 1474.08,-247.37 1468.4,-238.42 1464.06,-243.92"/>
</g>
<!-- Node24&#45;&gt;Node5 -->
<g id="edge45" class="edge">
<title>Node24&#45;&gt;Node5</title>
<path fill="none" stroke="#63b8ff" d="M1062.58,-237.65C1073.42,-205.54 1100.59,-139.74 1149,-110 1216.98,-68.24 1451.31,-64.1 1563.79,-64.64"/>
<polygon fill="#63b8ff" stroke="#63b8ff" points="1059.15,-236.9 1059.42,-247.49 1065.81,-239.04 1059.15,-236.9"/>
</g>
<!-- Node25&#45;&gt;Node5 -->
<g id="edge47" class="edge">
<title>Node25&#45;&gt;Node5</title>
<path fill="none" stroke="#63b8ff" d="M1981.02,-174.8C1957.35,-153.94 1915.3,-118.09 1897,-110 1828.83,-79.88 1742.93,-69.94 1686.1,-66.77"/>
<polygon fill="#63b8ff" stroke="#63b8ff" points="1978.75,-177.47 1988.55,-181.49 1983.39,-172.23 1978.75,-177.47"/>
</g>
<!-- Node26&#45;&gt;Node5 -->
<g id="edge49" class="edge">
<title>Node26&#45;&gt;Node5</title>
<path fill="none" stroke="#63b8ff" d="M1556.85,-371.46C1591.13,-362.74 1632.63,-351.14 1669,-338 1749.81,-308.81 1845,-343.92 1845,-258 1845,-258 1845,-258 1845,-190 1845,-116.71 1751.38,-86.06 1686.28,-73.61"/>
<polygon fill="#63b8ff" stroke="#63b8ff" points="1555.77,-368.12 1546.92,-373.95 1557.48,-374.91 1555.77,-368.12"/>
</g>
<!-- Node27 -->
<g id="node27" class="node">
<title>Node27</title>
<g id="a_node27"><a xlink:href="rpc__sessions_8h.html" target="_top" xlink:title=" ">
<polygon fill="white" stroke="#666666" points="1660,-332.5 1514,-332.5 1514,-313.5 1660,-313.5 1660,-332.5"/>
<text text-anchor="middle" x="1587" y="-320.5" font-family="Helvetica,sans-Serif" font-size="10.00">src/enclave/rpc_sessions.h</text>
</a>
</g>
</g>
<!-- Node26&#45;&gt;Node27 -->
<g id="edge50" class="edge">
<title>Node26&#45;&gt;Node27</title>
<path fill="none" stroke="#63b8ff" d="M1516.99,-368.36C1535.83,-356.42 1558.95,-341.77 1573.34,-332.66"/>
<polygon fill="#63b8ff" stroke="#63b8ff" points="1514.99,-365.49 1508.42,-373.8 1518.74,-371.4 1514.99,-365.49"/>
</g>
<!-- Node27&#45;&gt;Node5 -->
<g id="edge51" class="edge">
<title>Node27&#45;&gt;Node5</title>
<path fill="none" stroke="#63b8ff" d="M1668.79,-311.94C1717.63,-304.06 1773,-291.18 1788,-272 1848.2,-194.99 1693.85,-102.43 1641.58,-74.13"/>
<polygon fill="#63b8ff" stroke="#63b8ff" points="1668.15,-308.5 1658.8,-313.5 1669.22,-315.41 1668.15,-308.5"/>
</g>
<!-- Node27&#45;&gt;Node12 -->
<g id="edge53" class="edge">
<title>Node27&#45;&gt;Node12</title>
<path fill="none" stroke="#63b8ff" d="M1587.84,-303.13C1587.59,-285.17 1584.34,-258.5 1569,-242 1542.71,-213.72 1501.02,-201.24 1466.12,-195.83"/>
<polygon fill="#63b8ff" stroke="#63b8ff" points="1584.34,-303.2 1587.68,-313.25 1591.34,-303.31 1584.34,-303.2"/>
</g>
<!-- Node27&#45;&gt;Node23 -->
<g id="edge52" class="edge">
<title>Node27&#45;&gt;Node23</title>
<path fill="none" stroke="#63b8ff" d="M1564.72,-308.02C1544.66,-295.43 1515.8,-277.32 1498.86,-266.7"/>
<polygon fill="#63b8ff" stroke="#63b8ff" points="1562.91,-311.02 1573.24,-313.37 1566.63,-305.09 1562.91,-311.02"/>
</g>
<!-- Node28 -->
<g id="node28" class="node">
<title>Node28</title>
<g id="a_node28"><a xlink:href="quote__endorsements__client_8h.html" target="_top" xlink:title=" ">
<polygon fill="white" stroke="#666666" points="1779,-272 1615,-272 1615,-242 1779,-242 1779,-272"/>
<text text-anchor="start" x="1623" y="-260" font-family="Helvetica,sans-Serif" font-size="10.00">src/node/quote_endorsements</text>
<text text-anchor="middle" x="1697" y="-249" font-family="Helvetica,sans-Serif" font-size="10.00">_client.h</text>
</a>
</g>
</g>
<!-- Node27&#45;&gt;Node28 -->
<g id="edge54" class="edge">
<title>Node27&#45;&gt;Node28</title>
<path fill="none" stroke="#63b8ff" d="M1610.71,-308.21C1629.03,-297.55 1654.28,-282.85 1672.74,-272.12"/>
<polygon fill="#63b8ff" stroke="#63b8ff" points="1608.72,-305.31 1601.84,-313.37 1612.24,-311.36 1608.72,-305.31"/>
</g>
<!-- Node28&#45;&gt;Node12 -->
<g id="edge55" class="edge">
<title>Node28&#45;&gt;Node12</title>
<path fill="none" stroke="#63b8ff" d="M1622.62,-239.75C1565.42,-227.26 1488.69,-210.5 1442.99,-200.52"/>
<polygon fill="#63b8ff" stroke="#63b8ff" points="1622.18,-243.24 1632.7,-241.95 1623.68,-236.4 1622.18,-243.24"/>
</g>
<!-- Node29&#45;&gt;Node5 -->
<g id="edge59" class="edge">
<title>Node29&#45;&gt;Node5</title>
<path fill="none" stroke="#63b8ff" d="M1792.51,-443.62C1818.36,-436.46 1845.53,-424.39 1864,-404 1888.53,-376.91 1883,-360.54 1883,-324 1883,-324 1883,-324 1883,-190 1883,-102.97 1762.44,-76.74 1686.14,-68.86"/>
<polygon fill="#63b8ff" stroke="#63b8ff" points="1791.52,-440.26 1782.69,-446.12 1793.25,-447.04 1791.52,-440.26"/>
</g>
<!-- Node30 -->
<g id="node30" class="node">
<title>Node30</title>
<g id="a_node30"><a xlink:href="external__executor_8cpp.html" target="_top" xlink:title=" ">
<polygon fill="white" stroke="#666666" points="1717,-404 1569,-404 1569,-374 1717,-374 1717,-404"/>
<text text-anchor="start" x="1577" y="-392" font-family="Helvetica,sans-Serif" font-size="10.00">src/apps/external_executor</text>
<text text-anchor="middle" x="1643" y="-381" font-family="Helvetica,sans-Serif" font-size="10.00">/external_executor.cpp</text>
</a>
</g>
</g>
<!-- Node29&#45;&gt;Node30 -->
<g id="edge58" class="edge">
<title>Node29&#45;&gt;Node30</title>
<path fill="none" stroke="#63b8ff" d="M1694.3,-433.2C1683.02,-423.7 1669.95,-412.69 1659.82,-404.16"/>
<polygon fill="#63b8ff" stroke="#63b8ff" points="1692.23,-436.03 1702.13,-439.8 1696.74,-430.68 1692.23,-436.03"/>
</g>
<!-- Node31 -->
<g id="node31" class="node">
<title>Node31</title>
<g id="a_node31"><a xlink:href="historical__queries__adapter_8cpp.html" target="_top" xlink:title=" ">
<polygon fill="white" stroke="#666666" points="1855,-404 1735,-404 1735,-374 1855,-374 1855,-404"/>
<text text-anchor="start" x="1743" y="-392" font-family="Helvetica,sans-Serif" font-size="10.00">src/node/historical</text>
<text text-anchor="middle" x="1795" y="-381" font-family="Helvetica,sans-Serif" font-size="10.00">_queries_adapter.cpp</text>
</a>
</g>
</g>
<!-- Node29&#45;&gt;Node31 -->
<g id="edge60" class="edge">
<title>Node29&#45;&gt;Node31</title>
<path fill="none" stroke="#63b8ff" d="M1743.7,-433.2C1754.98,-423.7 1768.05,-412.69 1778.18,-404.16"/>
<polygon fill="#63b8ff" stroke="#63b8ff" points="1741.26,-430.68 1735.87,-439.8 1745.77,-436.03 1741.26,-430.68"/>
</g>
<!-- Node32&#45;&gt;Node5 -->
<g id="edge63" class="edge">
<title>Node32&#45;&gt;Node5</title>
<path fill="none" stroke="#63b8ff" d="M1962.62,-114.01C1953.34,-112.66 1943.94,-111.29 1935,-110 1847.96,-97.41 1747.15,-82.96 1684.72,-74.03"/>
<polygon fill="#63b8ff" stroke="#63b8ff" points="1962.22,-117.49 1972.62,-115.47 1963.23,-110.56 1962.22,-117.49"/>
</g>
</g>
</svg>
        <g id="navigator" transform="translate(0 0)" fill="#404254">
                <rect fill="#f2f5e9" fill-opacity="0.5" stroke="#606060" stroke-width=".5" x="0" y="0" width="60" height="60"/>
                <use id="zoomplus" xlink:href="#zoomPlus" x="17" y="9" onmousedown="handleZoom(evt,'in')"/>
                <use id="zoomminus" xlink:href="#zoomMin" x="42" y="9" onmousedown="handleZoom(evt,'out')"/>
                <use id="reset" xlink:href="#resetDef" x="30" y="36" onmousedown="handleReset()"/>
                <g id="arrowUp" xlink:href="#dirArrow" transform="translate(30 24)" onmousedown="handlePan(0,-1)">
                  <use xlink:href="#rim" fill="#404040">
                        <set attributeName="fill" to="#808080" begin="arrowUp.mouseover" end="arrowUp.mouseout"/>
                  </use>
                  <path fill="none" stroke="white" stroke-width="1.5" d="M0,-3.0v7 M-2.5,-0.5L0,-3.0L2.5,-0.5"/>
                </g>
                <g id="arrowRight" xlink:href="#dirArrow" transform="rotate(90) translate(36 -43)" onmousedown="handlePan(1,0)">
                  <use xlink:href="#rim" fill="#404040">
                        <set attributeName="fill" to="#808080" begin="arrowRight.mouseover" end="arrowRight.mouseout"/>
                  </use>
                  <path fill="none" stroke="white" stroke-width="1.5" d="M0,-3.0v7 M-2.5,-0.5L0,-3.0L2.5,-0.5"/>
                </g>
                <g id="arrowDown" xlink:href="#dirArrow" transform="rotate(180) translate(-30 -48)" onmousedown="handlePan(0,1)">
                  <use xlink:href="#rim" fill="#404040">
                        <set attributeName="fill" to="#808080" begin="arrowDown.mouseover" end="arrowDown.mouseout"/>
                  </use>
                  <path fill="none" stroke="white" stroke-width="1.5" d="M0,-3.0v7 M-2.5,-0.5L0,-3.0L2.5,-0.5"/>
                </g>
                <g id="arrowLeft" xlink:href="#dirArrow" transform="rotate(270) translate(-36 17)" onmousedown="handlePan(-1,0)">
                  <use xlink:href="#rim" fill="#404040">
                        <set attributeName="fill" to="#808080" begin="arrowLeft.mouseover" end="arrowLeft.mouseout"/>
                  </use>
                  <path fill="none" stroke="white" stroke-width="1.5" d="M0,-3.0v7 M-2.5,-0.5L0,-3.0L2.5,-0.5"/>
                </g>
        </g>
        <svg viewBox="0 0 15 15" width="100%" height="30px" preserveAspectRatio="xMaxYMin meet">
         <g id="arrow_out" transform="scale(0.3 0.3)">
          <a xlink:href="gov__effects__interface_8h__dep__incl_org.svg" target="_base">
           <rect id="button" ry="5" rx="5" y="6" x="6" height="38" width="38"
                fill="#f2f5e9" fill-opacity="0.5" stroke="#606060" stroke-width="1.0"/>
           <path id="arrow"
             d="M 11.500037,31.436501 C 11.940474,20.09759 22.043105,11.32322 32.158766,21.979434 L 37.068811,17.246167 C 37.068811,17.246167 37.088388,32 37.088388,32 L 22.160133,31.978069 C 22.160133,31.978069 26.997745,27.140456 26.997745,27.140456 C 18.528582,18.264221 13.291696,25.230495 11.500037,31.436501 z"
             style="fill:#404040;"/>
          </a>
         </g>
        </svg>
</svg>
