<?xml version="1.0" encoding="UTF-8" standalone="no"?>
<!DOCTYPE svg PUBLIC "-//W3C//DTD SVG 1.1//EN"
 "http://www.w3.org/Graphics/SVG/1.1/DTD/svg11.dtd">
<!-- Generated by graphviz version 2.43.0 (0)
 -->
<!-- Title: include/ccf/http_query.h Pages: 1 -->
<svg width="735pt" height="379pt"
 viewBox="0.00 0.00 734.50 379.00" xmlns="http://www.w3.org/2000/svg" xmlns:xlink="http://www.w3.org/1999/xlink">
<g id="graph0" class="graph" transform="scale(1 1) rotate(0) translate(4 375)">
<title>include/ccf/http_query.h</title>
<!-- Node1 -->
<g id="node1" class="node">
<title>Node1</title>
<g id="a_node1"><a xlink:title=" ">
<polygon fill="#999999" stroke="#666666" points="402.5,-371 270.5,-371 270.5,-352 402.5,-352 402.5,-371"/>
<text text-anchor="middle" x="336.5" y="-359" font-family="Helvetica,sans-Serif" font-size="10.00">include/ccf/http_query.h</text>
</a>
</g>
</g>
<!-- Node2 -->
<g id="node2" class="node">
<title>Node2</title>
<g id="a_node2"><a xlink:href="basic_8cpp.html" target="_top" xlink:title=" ">
<polygon fill="white" stroke="#666666" points="113,-316 0,-316 0,-286 113,-286 113,-316"/>
<text text-anchor="start" x="8" y="-304" font-family="Helvetica,sans-Serif" font-size="10.00">samples/apps/basic</text>
<text text-anchor="middle" x="56.5" y="-293" font-family="Helvetica,sans-Serif" font-size="10.00">/basic.cpp</text>
</a>
</g>
</g>
<!-- Node1&#45;&gt;Node2 -->
<g id="edge1" class="edge">
<title>Node1&#45;&gt;Node2</title>
<path fill="none" stroke="#63b8ff" d="M284.79,-349.92C241.23,-340.98 177.26,-327.78 121.5,-316 118.79,-315.43 116.02,-314.84 113.21,-314.24"/>
<polygon fill="#63b8ff" stroke="#63b8ff" points="284.36,-353.4 294.86,-351.99 285.77,-346.55 284.36,-353.4"/>
</g>
<!-- Node3 -->
<g id="node3" class="node">
<title>Node3</title>
<g id="a_node3"><a xlink:href="logging_8cpp.html" target="_top" xlink:title=" ">
<polygon fill="white" stroke="#666666" points="254,-316 131,-316 131,-286 254,-286 254,-316"/>
<text text-anchor="start" x="139" y="-304" font-family="Helvetica,sans-Serif" font-size="10.00">samples/apps/logging</text>
<text text-anchor="middle" x="192.5" y="-293" font-family="Helvetica,sans-Serif" font-size="10.00">/logging.cpp</text>
</a>
</g>
</g>
<!-- Node1&#45;&gt;Node3 -->
<g id="edge2" class="edge">
<title>Node1&#45;&gt;Node3</title>
<path fill="none" stroke="#63b8ff" d="M306.24,-348.21C283.13,-338.82 251.25,-325.87 227.12,-316.06"/>
<polygon fill="#63b8ff" stroke="#63b8ff" points="304.98,-351.47 315.56,-351.99 307.61,-344.99 304.98,-351.47"/>
</g>
<!-- Node4 -->
<g id="node4" class="node">
<title>Node4</title>
<g id="a_node4"><a xlink:href="common__endpoint__registry_8cpp.html" target="_top" xlink:title=" ">
<polygon fill="white" stroke="#666666" points="400.5,-316 272.5,-316 272.5,-286 400.5,-286 400.5,-316"/>
<text text-anchor="start" x="280.5" y="-304" font-family="Helvetica,sans-Serif" font-size="10.00">src/endpoints/common</text>
<text text-anchor="middle" x="336.5" y="-293" font-family="Helvetica,sans-Serif" font-size="10.00">_endpoint_registry.cpp</text>
</a>
</g>
</g>
<!-- Node1&#45;&gt;Node4 -->
<g id="edge3" class="edge">
<title>Node1&#45;&gt;Node4</title>
<path fill="none" stroke="#63b8ff" d="M336.5,-341.65C336.5,-333.36 336.5,-323.78 336.5,-316.11"/>
<polygon fill="#63b8ff" stroke="#63b8ff" points="333,-341.87 336.5,-351.87 340,-341.87 333,-341.87"/>
</g>
<!-- Node5 -->
<g id="node5" class="node">
<title>Node5</title>
<g id="a_node5"><a xlink:href="member__frontend_8h.html" target="_top" xlink:title=" ">
<polygon fill="white" stroke="#666666" points="488.5,-250 368.5,-250 368.5,-220 488.5,-220 488.5,-250"/>
<text text-anchor="start" x="376.5" y="-238" font-family="Helvetica,sans-Serif" font-size="10.00">src/node/rpc/member</text>
<text text-anchor="middle" x="428.5" y="-227" font-family="Helvetica,sans-Serif" font-size="10.00">_frontend.h</text>
</a>
</g>
</g>
<!-- Node1&#45;&gt;Node5 -->
<g id="edge4" class="edge">
<title>Node1&#45;&gt;Node5</title>
<path fill="none" stroke="#63b8ff" d="M369.16,-347.57C383.54,-340.31 399.41,-329.89 409.5,-316 423.85,-296.25 427.5,-267.19 428.35,-250.07"/>
<polygon fill="#63b8ff" stroke="#63b8ff" points="367.57,-344.45 360.01,-351.88 370.55,-350.78 367.57,-344.45"/>
</g>
<!-- Node8 -->
<g id="node8" class="node">
<title>Node8</title>
<g id="a_node8"><a xlink:href="node__frontend_8h.html" target="_top" xlink:title=" ">
<polygon fill="white" stroke="#666666" points="614.5,-310.5 456.5,-310.5 456.5,-291.5 614.5,-291.5 614.5,-310.5"/>
<text text-anchor="middle" x="535.5" y="-298.5" font-family="Helvetica,sans-Serif" font-size="10.00">src/node/rpc/node_frontend.h</text>
</a>
</g>
</g>
<!-- Node1&#45;&gt;Node8 -->
<g id="edge7" class="edge">
<title>Node1&#45;&gt;Node8</title>
<path fill="none" stroke="#63b8ff" d="M375.25,-349.11C413.74,-337.79 471.88,-320.7 506.53,-310.52"/>
<polygon fill="#63b8ff" stroke="#63b8ff" points="374.04,-345.82 365.44,-351.99 376.02,-352.53 374.04,-345.82"/>
</g>
<!-- Node6 -->
<g id="node6" class="node">
<title>Node6</title>
<g id="a_node6"><a xlink:href="src_2enclave_2enclave_8h.html" target="_top" xlink:title=" ">
<polygon fill="white" stroke="#666666" points="596.5,-74 474.5,-74 474.5,-55 596.5,-55 596.5,-74"/>
<text text-anchor="middle" x="535.5" y="-62" font-family="Helvetica,sans-Serif" font-size="10.00">src/enclave/enclave.h</text>
</a>
</g>
</g>
<!-- Node5&#45;&gt;Node6 -->
<g id="edge5" class="edge">
<title>Node5&#45;&gt;Node6</title>
<path fill="none" stroke="#63b8ff" d="M441.22,-211.15C455.47,-185.94 479.56,-144.4 502.5,-110 511.04,-97.2 521.79,-83.01 528.66,-74.18"/>
<polygon fill="#63b8ff" stroke="#63b8ff" points="438.12,-209.53 436.27,-219.96 444.22,-212.96 438.12,-209.53"/>
</g>
<!-- Node7 -->
<g id="node7" class="node">
<title>Node7</title>
<g id="a_node7"><a xlink:href="enclave_2main_8cpp.html" target="_top" xlink:title=" ">
<polygon fill="white" stroke="#666666" points="595.5,-19 475.5,-19 475.5,0 595.5,0 595.5,-19"/>
<text text-anchor="middle" x="535.5" y="-7" font-family="Helvetica,sans-Serif" font-size="10.00">src/enclave/main.cpp</text>
</a>
</g>
</g>
<!-- Node6&#45;&gt;Node7 -->
<g id="edge6" class="edge">
<title>Node6&#45;&gt;Node7</title>
<path fill="none" stroke="#63b8ff" d="M535.5,-44.66C535.5,-35.93 535.5,-25.99 535.5,-19.09"/>
<polygon fill="#63b8ff" stroke="#63b8ff" points="532,-44.75 535.5,-54.75 539,-44.75 532,-44.75"/>
</g>
<!-- Node8&#45;&gt;Node6 -->
<g id="edge8" class="edge">
<title>Node8&#45;&gt;Node6</title>
<path fill="none" stroke="#63b8ff" d="M535.5,-281.24C535.5,-233.53 535.5,-108.93 535.5,-74.45"/>
<polygon fill="#63b8ff" stroke="#63b8ff" points="532,-281.38 535.5,-291.38 539,-281.38 532,-281.38"/>
</g>
<!-- Node9 -->
<g id="node9" class="node">
<title>Node9</title>
<g id="a_node9"><a xlink:href="jwt__key__auto__refresh_8h.html" target="_top" xlink:title=" ">
<polygon fill="white" stroke="#666666" points="670,-250 545,-250 545,-220 670,-220 670,-250"/>
<text text-anchor="start" x="553" y="-238" font-family="Helvetica,sans-Serif" font-size="10.00">src/node/jwt_key_auto</text>
<text text-anchor="middle" x="607.5" y="-227" font-family="Helvetica,sans-Serif" font-size="10.00">_refresh.h</text>
</a>
</g>
</g>
<!-- Node8&#45;&gt;Node9 -->
<g id="edge9" class="edge">
<title>Node8&#45;&gt;Node9</title>
<path fill="none" stroke="#63b8ff" d="M552.7,-284.71C564.52,-274.21 580.09,-260.36 591.62,-250.12"/>
<polygon fill="#63b8ff" stroke="#63b8ff" points="550.36,-282.11 545.21,-291.37 555.01,-287.34 550.36,-282.11"/>
</g>
<!-- Node10 -->
<g id="node10" class="node">
<title>Node10</title>
<g id="a_node10"><a xlink:href="node__state_8h.html" target="_top" xlink:title=" ">
<polygon fill="white" stroke="#666666" points="669.5,-184 545.5,-184 545.5,-165 669.5,-165 669.5,-184"/>
<text text-anchor="middle" x="607.5" y="-172" font-family="Helvetica,sans-Serif" font-size="10.00">src/node/node_state.h</text>
</a>
</g>
</g>
<!-- Node9&#45;&gt;Node10 -->
<g id="edge10" class="edge">
<title>Node9&#45;&gt;Node10</title>
<path fill="none" stroke="#63b8ff" d="M607.5,-209.75C607.5,-200.72 607.5,-191.03 607.5,-184.27"/>
<polygon fill="#63b8ff" stroke="#63b8ff" points="604,-209.84 607.5,-219.84 611,-209.84 604,-209.84"/>
</g>
<!-- Node10&#45;&gt;Node6 -->
<g id="edge11" class="edge">
<title>Node10&#45;&gt;Node6</title>
<path fill="none" stroke="#63b8ff" d="M594.04,-156.82C587.6,-148.61 579.91,-138.46 573.5,-129 560.67,-110.07 547.31,-86.77 540.36,-74.32"/>
<polygon fill="#63b8ff" stroke="#63b8ff" points="591.46,-159.2 600.43,-164.85 596.94,-154.85 591.46,-159.2"/>
</g>
<!-- Node11 -->
<g id="node11" class="node">
<title>Node11</title>
<g id="a_node11"><a xlink:href="gov__effects_8h.html" target="_top" xlink:title=" ">
<polygon fill="white" stroke="#666666" points="726.5,-129 582.5,-129 582.5,-110 726.5,-110 726.5,-129"/>
<text text-anchor="middle" x="654.5" y="-117" font-family="Helvetica,sans-Serif" font-size="10.00">src/node/rpc/gov_effects.h</text>
</a>
</g>
</g>
<!-- Node10&#45;&gt;Node11 -->
<g id="edge12" class="edge">
<title>Node10&#45;&gt;Node11</title>
<path fill="none" stroke="#63b8ff" d="M621.92,-157.24C630.16,-147.95 640.15,-136.68 646.88,-129.09"/>
<polygon fill="#63b8ff" stroke="#63b8ff" points="619.28,-154.94 615.26,-164.75 624.51,-159.59 619.28,-154.94"/>
</g>
<!-- Node11&#45;&gt;Node6 -->
<g id="edge13" class="edge">
<title>Node11&#45;&gt;Node6</title>
<path fill="none" stroke="#63b8ff" d="M626.2,-105.9C604.22,-96.11 574.32,-82.79 554.97,-74.17"/>
<polygon fill="#63b8ff" stroke="#63b8ff" points="624.82,-109.11 635.38,-109.98 627.67,-102.72 624.82,-109.11"/>
</g>
</g>
</svg>
