<?xml version="1.0" encoding="UTF-8" standalone="no"?>
<!DOCTYPE svg PUBLIC "-//W3C//DTD SVG 1.1//EN"
 "http://www.w3.org/Graphics/SVG/1.1/DTD/svg11.dtd">
<!-- Generated by graphviz version 2.43.0 (0)
 -->
<!-- Title: src/node/identity.h Pages: 1 -->
<!--zoomable 566 -->
<svg id="main" version="1.1" xmlns="http://www.w3.org/2000/svg" xmlns:xlink="http://www.w3.org/1999/xlink" xml:space="preserve" onload="init(evt)">
<style type="text/css"><![CDATA[
.edge:hover path { stroke: red; }
.edge:hover polygon { stroke: red; fill: red; }
]]></style>
<script type="text/javascript"><![CDATA[
var edges = document.getElementsByTagName('g');
if (edges && edges.length) {
  for (var i=0;i<edges.length;i++) {
    if (edges[i].id.substr(0,4)=='edge') {
      edges[i].setAttribute('class','edge');
    }
  }
}
]]></script>
        <defs>
                <circle id="rim" cx="0" cy="0" r="7"/>
                <circle id="rim2" cx="0" cy="0" r="3.5"/>
                <g id="zoomPlus">
                        <use xlink:href="#rim" fill="#404040">
                                <set attributeName="fill" to="#808080" begin="zoomplus.mouseover" end="zoomplus.mouseout"/>
                        </use>
                        <path d="M-4,0h8M0,-4v8" fill="none" stroke="white" stroke-width="1.5" pointer-events="none"/>
                </g>
                <g id="zoomMin">
                        <use xlink:href="#rim" fill="#404040">
                                <set attributeName="fill" to="#808080" begin="zoomminus.mouseover" end="zoomminus.mouseout"/>
                        </use>
                        <path d="M-4,0h8" fill="none" stroke="white" stroke-width="1.5" pointer-events="none"/>
                </g>
                <g id="dirArrow">
                        <path fill="none" stroke="white" stroke-width="1.5" d="M0,-3.0v7 M-2.5,-0.5L0,-3.0L2.5,-0.5"/>
                </g>
               <g id="resetDef">
                       <use xlink:href="#rim2" fill="#404040">
                               <set attributeName="fill" to="#808080" begin="reset.mouseover" end="reset.mouseout"/>
                       </use>
               </g>
        </defs>

<script type="text/javascript">
var viewWidth = 2130;
var viewHeight = 566;
var sectionId = 'dynsection-1';
</script>
<script xlink:href="svgpan.js"/>
<svg id="graph" class="graph">
<g id="viewport">
<title>src/node/identity.h</title>
<!-- Node1 -->
<g id="node1" class="node">
<title>Node1</title>
<g id="a_node1"><a xlink:title=" ">
<polygon fill="#999999" stroke="#666666" points="1718.5,-558 1612.5,-558 1612.5,-539 1718.5,-539 1718.5,-558"/>
<text text-anchor="middle" x="1665.5" y="-546" font-family="Helvetica,sans-Serif" font-size="10.00">src/node/identity.h</text>
</a>
</g>
</g>
<!-- Node2 -->
<g id="node2" class="node">
<title>Node2</title>
<g id="a_node2"><a xlink:href="historical__queries__utils_8cpp.html" target="_top" xlink:title=" ">
<polygon fill="white" stroke="#666666" points="1546.5,-503 1440.5,-503 1440.5,-473 1546.5,-473 1546.5,-503"/>
<text text-anchor="start" x="1448.5" y="-491" font-family="Helvetica,sans-Serif" font-size="10.00">src/node/historical</text>
<text text-anchor="middle" x="1493.5" y="-480" font-family="Helvetica,sans-Serif" font-size="10.00">_queries_utils.cpp</text>
</a>
</g>
</g>
<!-- Node1&#45;&gt;Node2 -->
<g id="edge1" class="edge">
<title>Node1&#45;&gt;Node2</title>
<path fill="none" stroke="#63b8ff" d="M1630.83,-535.71C1603.11,-526.28 1564.19,-513.04 1534.85,-503.06"/>
<polygon fill="#63b8ff" stroke="#63b8ff" points="1629.9,-539.09 1640.49,-538.99 1632.15,-532.46 1629.9,-539.09"/>
</g>
<!-- Node3 -->
<g id="node3" class="node">
<title>Node3</title>
<g id="a_node3"><a xlink:href="network__state_8h.html" target="_top" xlink:title=" ">
<polygon fill="white" stroke="#666666" points="1264.5,-431.5 1124.5,-431.5 1124.5,-412.5 1264.5,-412.5 1264.5,-431.5"/>
<text text-anchor="middle" x="1194.5" y="-419.5" font-family="Helvetica,sans-Serif" font-size="10.00">src/node/network_state.h</text>
</a>
</g>
</g>
<!-- Node1&#45;&gt;Node3 -->
<g id="edge2" class="edge">
<title>Node1&#45;&gt;Node3</title>
<path fill="none" stroke="#63b8ff" d="M1641.86,-533.82C1627.59,-525.34 1609.2,-513.99 1593.5,-503 1575.87,-490.66 1575.29,-481.44 1555.5,-473 1504.57,-451.29 1354.58,-435.9 1264.76,-428.33"/>
<polygon fill="#63b8ff" stroke="#63b8ff" points="1640.17,-536.89 1650.57,-538.95 1643.72,-530.86 1640.17,-536.89"/>
</g>
<!-- Node25 -->
<g id="node25" class="node">
<title>Node25</title>
<g id="a_node25"><a xlink:href="call__types_8h.html" target="_top" xlink:title=" ">
<polygon fill="white" stroke="#666666" points="1761,-431.5 1624,-431.5 1624,-412.5 1761,-412.5 1761,-431.5"/>
<text text-anchor="middle" x="1692.5" y="-419.5" font-family="Helvetica,sans-Serif" font-size="10.00">src/node/rpc/call_types.h</text>
</a>
</g>
</g>
<!-- Node1&#45;&gt;Node25 -->
<g id="edge43" class="edge">
<title>Node1&#45;&gt;Node25</title>
<path fill="none" stroke="#63b8ff" d="M1700.39,-534.5C1714.21,-527.43 1728.66,-517.17 1736.5,-503 1750.85,-477.07 1720.76,-446.33 1703.49,-431.65"/>
<polygon fill="#63b8ff" stroke="#63b8ff" points="1698.58,-531.48 1691.01,-538.9 1701.55,-537.82 1698.58,-531.48"/>
</g>
<!-- Node28 -->
<g id="node28" class="node">
<title>Node28</title>
<g id="a_node28"><a xlink:href="network__identity__subsystem_8h.html" target="_top" xlink:title=" ">
<polygon fill="white" stroke="#666666" points="1948,-503 1821,-503 1821,-473 1948,-473 1948,-503"/>
<text text-anchor="start" x="1829" y="-491" font-family="Helvetica,sans-Serif" font-size="10.00">src/node/rpc/network</text>
<text text-anchor="middle" x="1884.5" y="-480" font-family="Helvetica,sans-Serif" font-size="10.00">_identity_subsystem.h</text>
</a>
</g>
</g>
<!-- Node1&#45;&gt;Node28 -->
<g id="edge52" class="edge">
<title>Node1&#45;&gt;Node28</title>
<path fill="none" stroke="#63b8ff" d="M1707.35,-536.32C1742.76,-526.86 1793.68,-513.26 1831.85,-503.06"/>
<polygon fill="#63b8ff" stroke="#63b8ff" points="1706.1,-533.03 1697.34,-538.99 1707.91,-539.79 1706.1,-533.03"/>
</g>
<!-- Node31 -->
<g id="node31" class="node">
<title>Node31</title>
<g id="a_node31"><a xlink:href="node__call__types_8h.html" target="_top" xlink:title=" ">
<polygon fill="white" stroke="#666666" points="1728,-503 1603,-503 1603,-473 1728,-473 1728,-503"/>
<text text-anchor="start" x="1611" y="-491" font-family="Helvetica,sans-Serif" font-size="10.00">src/node/rpc/node_call</text>
<text text-anchor="middle" x="1665.5" y="-480" font-family="Helvetica,sans-Serif" font-size="10.00">_types.h</text>
</a>
</g>
</g>
<!-- Node1&#45;&gt;Node31 -->
<g id="edge56" class="edge">
<title>Node1&#45;&gt;Node31</title>
<path fill="none" stroke="#63b8ff" d="M1665.5,-528.65C1665.5,-520.36 1665.5,-510.78 1665.5,-503.11"/>
<polygon fill="#63b8ff" stroke="#63b8ff" points="1662,-528.87 1665.5,-538.87 1669,-528.87 1662,-528.87"/>
</g>
<!-- Node4 -->
<g id="node4" class="node">
<title>Node4</title>
<g id="a_node4"><a xlink:href="src_2enclave_2enclave_8h.html" target="_top" xlink:title=" ">
<polygon fill="white" stroke="#666666" points="1378.5,-74 1256.5,-74 1256.5,-55 1378.5,-55 1378.5,-74"/>
<text text-anchor="middle" x="1317.5" y="-62" font-family="Helvetica,sans-Serif" font-size="10.00">src/enclave/enclave.h</text>
</a>
</g>
</g>
<!-- Node3&#45;&gt;Node4 -->
<g id="edge3" class="edge">
<title>Node3&#45;&gt;Node4</title>
<path fill="none" stroke="#63b8ff" d="M1114.18,-419.95C874.93,-415.75 183.5,-395.54 183.5,-302 183.5,-302 183.5,-302 183.5,-173.5 183.5,-117.05 239.3,-125.79 293.5,-110 385.65,-83.15 1049.79,-69.95 1256.35,-66.46"/>
<polygon fill="#63b8ff" stroke="#63b8ff" points="1114.15,-423.45 1124.21,-420.12 1114.27,-416.45 1114.15,-423.45"/>
</g>
<!-- Node6 -->
<g id="node6" class="node">
<title>Node6</title>
<g id="a_node6"><a xlink:href="wrap_8h.html" target="_top" xlink:title=" ">
<polygon fill="white" stroke="#666666" points="858.5,-371 780.5,-371 780.5,-352 858.5,-352 858.5,-371"/>
<text text-anchor="middle" x="819.5" y="-359" font-family="Helvetica,sans-Serif" font-size="10.00">src/js/wrap.h</text>
</a>
</g>
</g>
<!-- Node3&#45;&gt;Node6 -->
<g id="edge5" class="edge">
<title>Node3&#45;&gt;Node6</title>
<path fill="none" stroke="#63b8ff" d="M1129.77,-410.9C1051.7,-398.72 922.95,-378.64 858.62,-368.6"/>
<polygon fill="#63b8ff" stroke="#63b8ff" points="1129.55,-414.41 1139.97,-412.49 1130.63,-407.49 1129.55,-414.41"/>
</g>
<!-- Node14 -->
<g id="node14" class="node">
<title>Node14</title>
<g id="a_node14"><a xlink:href="node__state_8h.html" target="_top" xlink:title=" ">
<polygon fill="white" stroke="#666666" points="1328.5,-184 1204.5,-184 1204.5,-165 1328.5,-165 1328.5,-184"/>
<text text-anchor="middle" x="1266.5" y="-172" font-family="Helvetica,sans-Serif" font-size="10.00">src/node/node_state.h</text>
</a>
</g>
</g>
<!-- Node3&#45;&gt;Node14 -->
<g id="edge32" class="edge">
<title>Node3&#45;&gt;Node14</title>
<path fill="none" stroke="#63b8ff" d="M1195,-401.87C1196.59,-365.05 1203.3,-282.44 1231.5,-220 1237.81,-206.03 1249.43,-192.56 1257.54,-184.17"/>
<polygon fill="#63b8ff" stroke="#63b8ff" points="1191.49,-402.02 1194.64,-412.13 1198.48,-402.26 1191.49,-402.02"/>
</g>
<!-- Node17 -->
<g id="node17" class="node">
<title>Node17</title>
<g id="a_node17"><a xlink:href="node__frontend_8h.html" target="_top" xlink:title=" ">
<polygon fill="white" stroke="#666666" points="1557.5,-310.5 1399.5,-310.5 1399.5,-291.5 1557.5,-291.5 1557.5,-310.5"/>
<text text-anchor="middle" x="1478.5" y="-298.5" font-family="Helvetica,sans-Serif" font-size="10.00">src/node/rpc/node_frontend.h</text>
</a>
</g>
</g>
<!-- Node3&#45;&gt;Node17 -->
<g id="edge33" class="edge">
<title>Node3&#45;&gt;Node17</title>
<path fill="none" stroke="#63b8ff" d="M1224.24,-408.54C1282.06,-384.31 1408.26,-331.43 1457.88,-310.64"/>
<polygon fill="#63b8ff" stroke="#63b8ff" points="1222.8,-405.35 1214.92,-412.44 1225.5,-411.81 1222.8,-405.35"/>
</g>
<!-- Node19 -->
<g id="node19" class="node">
<title>Node19</title>
<g id="a_node19"><a xlink:href="acme__challenge__frontend_8h.html" target="_top" xlink:title=" ">
<polygon fill="white" stroke="#666666" points="1381.5,-316 1241.5,-316 1241.5,-286 1381.5,-286 1381.5,-316"/>
<text text-anchor="start" x="1249.5" y="-304" font-family="Helvetica,sans-Serif" font-size="10.00">src/node/acme_challenge</text>
<text text-anchor="middle" x="1311.5" y="-293" font-family="Helvetica,sans-Serif" font-size="10.00">_frontend.h</text>
</a>
</g>
</g>
<!-- Node3&#45;&gt;Node19 -->
<g id="edge28" class="edge">
<title>Node3&#45;&gt;Node19</title>
<path fill="none" stroke="#63b8ff" d="M1210.16,-405.07C1233.12,-381.72 1275.58,-338.53 1297.54,-316.2"/>
<polygon fill="#63b8ff" stroke="#63b8ff" points="1207.43,-402.86 1202.91,-412.44 1212.42,-407.76 1207.43,-402.86"/>
</g>
<!-- Node21 -->
<g id="node21" class="node">
<title>Node21</title>
<g id="a_node21"><a xlink:href="user__frontend_8h.html" target="_top" xlink:title=" ">
<polygon fill="white" stroke="#666666" points="155,-184 0,-184 0,-165 155,-165 155,-184"/>
<text text-anchor="middle" x="77.5" y="-172" font-family="Helvetica,sans-Serif" font-size="10.00">src/node/rpc/user_frontend.h</text>
</a>
</g>
</g>
<!-- Node3&#45;&gt;Node21 -->
<g id="edge34" class="edge">
<title>Node3&#45;&gt;Node21</title>
<path fill="none" stroke="#63b8ff" d="M1114.2,-419.33C879.47,-414.15 208.55,-397.14 169.5,-371 101.54,-325.51 82.61,-215.73 78.49,-184.14"/>
<polygon fill="#63b8ff" stroke="#63b8ff" points="1114.3,-422.83 1124.38,-419.55 1114.46,-415.83 1114.3,-422.83"/>
</g>
<!-- Node22 -->
<g id="node22" class="node">
<title>Node22</title>
<g id="a_node22"><a xlink:href="secret__broadcast_8h.html" target="_top" xlink:title=" ">
<polygon fill="white" stroke="#666666" points="1185,-244.5 1032,-244.5 1032,-225.5 1185,-225.5 1185,-244.5"/>
<text text-anchor="middle" x="1108.5" y="-232.5" font-family="Helvetica,sans-Serif" font-size="10.00">src/node/secret_broadcast.h</text>
</a>
</g>
</g>
<!-- Node3&#45;&gt;Node22 -->
<g id="edge36" class="edge">
<title>Node3&#45;&gt;Node22</title>
<path fill="none" stroke="#63b8ff" d="M1186.12,-402.97C1168.03,-364.06 1125.91,-273.46 1112.61,-244.83"/>
<polygon fill="#63b8ff" stroke="#63b8ff" points="1182.96,-404.48 1190.35,-412.08 1189.31,-401.53 1182.96,-404.48"/>
</g>
<!-- Node23 -->
<g id="node23" class="node">
<title>Node23</title>
<g id="a_node23"><a xlink:href="share__manager_8h.html" target="_top" xlink:title=" ">
<polygon fill="white" stroke="#666666" points="1626,-371 1481,-371 1481,-352 1626,-352 1626,-371"/>
<text text-anchor="middle" x="1553.5" y="-359" font-family="Helvetica,sans-Serif" font-size="10.00">src/node/share_manager.h</text>
</a>
</g>
</g>
<!-- Node3&#45;&gt;Node23 -->
<g id="edge38" class="edge">
<title>Node3&#45;&gt;Node23</title>
<path fill="none" stroke="#63b8ff" d="M1256.59,-410.88C1325.75,-399.61 1436.33,-381.59 1501.24,-371.02"/>
<polygon fill="#63b8ff" stroke="#63b8ff" points="1256.01,-407.43 1246.7,-412.49 1257.13,-414.34 1256.01,-407.43"/>
</g>
<!-- Node24 -->
<g id="node24" class="node">
<title>Node24</title>
<g id="a_node24"><a xlink:href="snapshotter_8h.html" target="_top" xlink:title=" ">
<polygon fill="white" stroke="#666666" points="537,-244.5 410,-244.5 410,-225.5 537,-225.5 537,-244.5"/>
<text text-anchor="middle" x="473.5" y="-232.5" font-family="Helvetica,sans-Serif" font-size="10.00">src/node/snapshotter.h</text>
</a>
</g>
</g>
<!-- Node3&#45;&gt;Node24 -->
<g id="edge41" class="edge">
<title>Node3&#45;&gt;Node24</title>
<path fill="none" stroke="#63b8ff" d="M1114.21,-417.79C901.12,-408.46 333.76,-377.96 278.5,-316 236.79,-269.23 338.14,-249.24 409.82,-241.12"/>
<polygon fill="#63b8ff" stroke="#63b8ff" points="1114.24,-421.3 1124.39,-418.23 1114.55,-414.3 1114.24,-421.3"/>
</g>
<!-- Node5 -->
<g id="node5" class="node">
<title>Node5</title>
<g id="a_node5"><a xlink:href="enclave_2main_8cpp.html" target="_top" xlink:title=" ">
<polygon fill="white" stroke="#666666" points="1377.5,-19 1257.5,-19 1257.5,0 1377.5,0 1377.5,-19"/>
<text text-anchor="middle" x="1317.5" y="-7" font-family="Helvetica,sans-Serif" font-size="10.00">src/enclave/main.cpp</text>
</a>
</g>
</g>
<!-- Node4&#45;&gt;Node5 -->
<g id="edge4" class="edge">
<title>Node4&#45;&gt;Node5</title>
<path fill="none" stroke="#63b8ff" d="M1317.5,-44.66C1317.5,-35.93 1317.5,-25.99 1317.5,-19.09"/>
<polygon fill="#63b8ff" stroke="#63b8ff" points="1314,-44.75 1317.5,-54.75 1321,-44.75 1314,-44.75"/>
</g>
<!-- Node6&#45;&gt;Node4 -->
<g id="edge7" class="edge">
<title>Node6&#45;&gt;Node4</title>
<path fill="none" stroke="#63b8ff" d="M770.4,-358.81C645.16,-354.18 320.69,-339.98 278.5,-316 240.55,-294.43 221.5,-279.66 221.5,-236 221.5,-236 221.5,-236 221.5,-173.5 221.5,-68.7 1025.41,-64.19 1256.23,-65.06"/>
<polygon fill="#63b8ff" stroke="#63b8ff" points="770.36,-362.31 780.48,-359.18 770.62,-355.32 770.36,-362.31"/>
</g>
<!-- Node7 -->
<g id="node7" class="node">
<title>Node7</title>
<g id="a_node7"><a xlink:href="js__generic__base_8cpp.html" target="_top" xlink:title=" ">
<polygon fill="white" stroke="#666666" points="1071.5,-316 953.5,-316 953.5,-286 1071.5,-286 1071.5,-316"/>
<text text-anchor="start" x="961.5" y="-304" font-family="Helvetica,sans-Serif" font-size="10.00">src/apps/js_generic</text>
<text text-anchor="middle" x="1012.5" y="-293" font-family="Helvetica,sans-Serif" font-size="10.00">/js_generic_base.cpp</text>
</a>
</g>
</g>
<!-- Node6&#45;&gt;Node7 -->
<g id="edge6" class="edge">
<title>Node6&#45;&gt;Node7</title>
<path fill="none" stroke="#63b8ff" d="M857.19,-349.08C888.35,-339.63 932.75,-326.17 966.1,-316.06"/>
<polygon fill="#63b8ff" stroke="#63b8ff" points="856.12,-345.74 847.56,-351.99 858.15,-352.44 856.12,-345.74"/>
</g>
<!-- Node8 -->
<g id="node8" class="node">
<title>Node8</title>
<g id="a_node8"><a xlink:href="consensus_8cpp.html" target="_top" xlink:title=" ">
<polygon fill="white" stroke="#666666" points="509.5,-310.5 393.5,-310.5 393.5,-291.5 509.5,-291.5 509.5,-310.5"/>
<text text-anchor="middle" x="451.5" y="-298.5" font-family="Helvetica,sans-Serif" font-size="10.00">src/js/consensus.cpp</text>
</a>
</g>
</g>
<!-- Node6&#45;&gt;Node8 -->
<g id="edge8" class="edge">
<title>Node6&#45;&gt;Node8</title>
<path fill="none" stroke="#63b8ff" d="M770.02,-353.72C711.16,-345.51 609.98,-330.9 523.5,-316 513.84,-314.33 503.47,-312.41 493.7,-310.52"/>
<polygon fill="#63b8ff" stroke="#63b8ff" points="769.77,-357.22 780.15,-355.13 770.73,-350.29 769.77,-357.22"/>
</g>
<!-- Node9 -->
<g id="node9" class="node">
<title>Node9</title>
<g id="a_node9"><a xlink:href="wrap_8cpp.html" target="_top" xlink:title=" ">
<polygon fill="white" stroke="#666666" points="693,-244.5 604,-244.5 604,-225.5 693,-225.5 693,-244.5"/>
<text text-anchor="middle" x="648.5" y="-232.5" font-family="Helvetica,sans-Serif" font-size="10.00">src/js/wrap.cpp</text>
</a>
</g>
</g>
<!-- Node6&#45;&gt;Node9 -->
<g id="edge17" class="edge">
<title>Node6&#45;&gt;Node9</title>
<path fill="none" stroke="#63b8ff" d="M770.3,-359.46C701.88,-356.85 583.33,-347.75 556.5,-316 531.5,-286.41 589.25,-258.25 624.23,-244.59"/>
<polygon fill="#63b8ff" stroke="#63b8ff" points="770.31,-362.96 780.43,-359.81 770.56,-355.97 770.31,-362.96"/>
</g>
<!-- Node10 -->
<g id="node10" class="node">
<title>Node10</title>
<g id="a_node10"><a xlink:href="conv_8cpp.html" target="_top" xlink:title=" ">
<polygon fill="white" stroke="#666666" points="375.5,-310.5 287.5,-310.5 287.5,-291.5 375.5,-291.5 375.5,-310.5"/>
<text text-anchor="middle" x="331.5" y="-298.5" font-family="Helvetica,sans-Serif" font-size="10.00">src/js/conv.cpp</text>
</a>
</g>
</g>
<!-- Node6&#45;&gt;Node10 -->
<g id="edge10" class="edge">
<title>Node6&#45;&gt;Node10</title>
<path fill="none" stroke="#63b8ff" d="M769.81,-357.95C688.65,-353.22 522.81,-341.18 384.5,-316 376.64,-314.57 368.23,-312.57 360.47,-310.53"/>
<polygon fill="#63b8ff" stroke="#63b8ff" points="770.04,-361.47 780.22,-358.54 770.43,-354.48 770.04,-361.47"/>
</g>
<!-- Node11 -->
<g id="node11" class="node">
<title>Node11</title>
<g id="a_node11"><a xlink:href="crypto_8cpp.html" target="_top" xlink:title=" ">
<polygon fill="white" stroke="#666666" points="807.5,-310.5 711.5,-310.5 711.5,-291.5 807.5,-291.5 807.5,-310.5"/>
<text text-anchor="middle" x="759.5" y="-298.5" font-family="Helvetica,sans-Serif" font-size="10.00">src/js/crypto.cpp</text>
</a>
</g>
</g>
<!-- Node6&#45;&gt;Node11 -->
<g id="edge12" class="edge">
<title>Node6&#45;&gt;Node11</title>
<path fill="none" stroke="#63b8ff" d="M803.18,-344.59C791.98,-333.67 777.53,-319.58 768.39,-310.67"/>
<polygon fill="#63b8ff" stroke="#63b8ff" points="801.04,-347.39 810.65,-351.87 805.93,-342.38 801.04,-347.39"/>
</g>
<!-- Node12 -->
<g id="node12" class="node">
<title>Node12</title>
<g id="a_node12"><a xlink:href="historical_8cpp.html" target="_top" xlink:title=" ">
<polygon fill="white" stroke="#666666" points="935.5,-310.5 825.5,-310.5 825.5,-291.5 935.5,-291.5 935.5,-310.5"/>
<text text-anchor="middle" x="880.5" y="-298.5" font-family="Helvetica,sans-Serif" font-size="10.00">src/js/historical.cpp</text>
</a>
</g>
</g>
<!-- Node6&#45;&gt;Node12 -->
<g id="edge14" class="edge">
<title>Node6&#45;&gt;Node12</title>
<path fill="none" stroke="#63b8ff" d="M835.76,-344.91C847.2,-333.94 862.08,-319.67 871.46,-310.67"/>
<polygon fill="#63b8ff" stroke="#63b8ff" points="833.3,-342.42 828.5,-351.87 838.14,-347.47 833.3,-342.42"/>
</g>
<!-- Node13 -->
<g id="node13" class="node">
<title>Node13</title>
<g id="a_node13"><a xlink:href="openenclave_8cpp.html" target="_top" xlink:title=" ">
<polygon fill="white" stroke="#666666" points="693.5,-310.5 565.5,-310.5 565.5,-291.5 693.5,-291.5 693.5,-310.5"/>
<text text-anchor="middle" x="629.5" y="-298.5" font-family="Helvetica,sans-Serif" font-size="10.00">src/js/openenclave.cpp</text>
</a>
</g>
</g>
<!-- Node6&#45;&gt;Node13 -->
<g id="edge16" class="edge">
<title>Node6&#45;&gt;Node13</title>
<path fill="none" stroke="#63b8ff" d="M782.03,-348.96C745.28,-337.65 690.1,-320.66 657.16,-310.52"/>
<polygon fill="#63b8ff" stroke="#63b8ff" points="781.29,-352.4 791.87,-351.99 783.35,-345.71 781.29,-352.4"/>
</g>
<!-- Node6&#45;&gt;Node14 -->
<g id="edge18" class="edge">
<title>Node6&#45;&gt;Node14</title>
<path fill="none" stroke="#63b8ff" d="M868.59,-359.39C936.55,-356.7 1053.92,-347.49 1080.5,-316 1089.1,-305.81 1086.98,-297.65 1080.5,-286 1065.75,-259.49 1037.25,-276.51 1022.5,-250 1016.02,-238.35 1013.96,-230.24 1022.5,-220 1045.22,-192.76 1139.75,-182.15 1204.26,-178.05"/>
<polygon fill="#63b8ff" stroke="#63b8ff" points="868.41,-355.9 858.54,-359.76 868.66,-362.89 868.41,-355.9"/>
</g>
<!-- Node16 -->
<g id="node16" class="node">
<title>Node16</title>
<g id="a_node16"><a xlink:href="member__frontend_8h.html" target="_top" xlink:title=" ">
<polygon fill="white" stroke="#666666" points="1733.5,-316 1613.5,-316 1613.5,-286 1733.5,-286 1733.5,-316"/>
<text text-anchor="start" x="1621.5" y="-304" font-family="Helvetica,sans-Serif" font-size="10.00">src/node/rpc/member</text>
<text text-anchor="middle" x="1673.5" y="-293" font-family="Helvetica,sans-Serif" font-size="10.00">_frontend.h</text>
</a>
</g>
</g>
<!-- Node6&#45;&gt;Node16 -->
<g id="edge22" class="edge">
<title>Node6&#45;&gt;Node16</title>
<path fill="none" stroke="#63b8ff" d="M869.18,-358.75C989.21,-354.27 1304.42,-340.92 1566.5,-316 1581.7,-314.55 1598.07,-312.61 1613.32,-310.63"/>
<polygon fill="#63b8ff" stroke="#63b8ff" points="868.72,-355.27 858.86,-359.14 868.98,-362.26 868.72,-355.27"/>
</g>
<!-- Node6&#45;&gt;Node17 -->
<g id="edge24" class="edge">
<title>Node6&#45;&gt;Node17</title>
<path fill="none" stroke="#63b8ff" d="M868.73,-357.99C967.78,-352.66 1198.09,-338.77 1390.5,-316 1403.1,-314.51 1416.65,-312.54 1429.26,-310.55"/>
<polygon fill="#63b8ff" stroke="#63b8ff" points="868.52,-354.5 858.72,-358.53 868.89,-361.49 868.52,-354.5"/>
</g>
<!-- Node8&#45;&gt;Node9 -->
<g id="edge9" class="edge">
<title>Node8&#45;&gt;Node9</title>
<path fill="none" stroke="#63b8ff" d="M487.94,-288.16C526.82,-275.53 587.48,-255.82 622.04,-244.6"/>
<polygon fill="#63b8ff" stroke="#63b8ff" points="486.5,-284.95 478.07,-291.37 488.66,-291.61 486.5,-284.95"/>
</g>
<!-- Node10&#45;&gt;Node9 -->
<g id="edge11" class="edge">
<title>Node10&#45;&gt;Node9</title>
<path fill="none" stroke="#63b8ff" d="M371.97,-288.99C376.19,-287.94 380.43,-286.92 384.5,-286 461.16,-268.64 551.28,-252.47 603.93,-243.45"/>
<polygon fill="#63b8ff" stroke="#63b8ff" points="371.06,-285.61 362.24,-291.49 372.79,-292.4 371.06,-285.61"/>
</g>
<!-- Node11&#45;&gt;Node9 -->
<g id="edge13" class="edge">
<title>Node11&#45;&gt;Node9</title>
<path fill="none" stroke="#63b8ff" d="M735.84,-286.36C713.99,-273.76 682.18,-255.42 663.59,-244.7"/>
<polygon fill="#63b8ff" stroke="#63b8ff" points="734.12,-289.41 744.53,-291.37 737.62,-283.34 734.12,-289.41"/>
</g>
<!-- Node12&#45;&gt;Node9 -->
<g id="edge15" class="edge">
<title>Node12&#45;&gt;Node9</title>
<path fill="none" stroke="#63b8ff" d="M839.33,-288.64C793.62,-276.03 720.88,-255.97 679.66,-244.6"/>
<polygon fill="#63b8ff" stroke="#63b8ff" points="838.64,-292.08 849.21,-291.37 840.5,-285.34 838.64,-292.08"/>
</g>
<!-- Node14&#45;&gt;Node4 -->
<g id="edge19" class="edge">
<title>Node14&#45;&gt;Node4</title>
<path fill="none" stroke="#63b8ff" d="M1249.95,-157.27C1238.68,-144.18 1227.35,-125.47 1236.5,-110 1247.2,-91.91 1268.16,-80.68 1286.08,-74.03"/>
<polygon fill="#63b8ff" stroke="#63b8ff" points="1247.4,-159.66 1256.76,-164.61 1252.52,-154.9 1247.4,-159.66"/>
</g>
<!-- Node15 -->
<g id="node15" class="node">
<title>Node15</title>
<g id="a_node15"><a xlink:href="gov__effects_8h.html" target="_top" xlink:title=" ">
<polygon fill="white" stroke="#666666" points="1389.5,-129 1245.5,-129 1245.5,-110 1389.5,-110 1389.5,-129"/>
<text text-anchor="middle" x="1317.5" y="-117" font-family="Helvetica,sans-Serif" font-size="10.00">src/node/rpc/gov_effects.h</text>
</a>
</g>
</g>
<!-- Node14&#45;&gt;Node15 -->
<g id="edge20" class="edge">
<title>Node14&#45;&gt;Node15</title>
<path fill="none" stroke="#63b8ff" d="M1281.88,-157.52C1290.87,-148.18 1301.86,-136.75 1309.24,-129.09"/>
<polygon fill="#63b8ff" stroke="#63b8ff" points="1279.33,-155.12 1274.92,-164.75 1284.38,-159.97 1279.33,-155.12"/>
</g>
<!-- Node15&#45;&gt;Node4 -->
<g id="edge21" class="edge">
<title>Node15&#45;&gt;Node4</title>
<path fill="none" stroke="#63b8ff" d="M1317.5,-99.66C1317.5,-90.93 1317.5,-80.99 1317.5,-74.09"/>
<polygon fill="#63b8ff" stroke="#63b8ff" points="1314,-99.75 1317.5,-109.75 1321,-99.75 1314,-99.75"/>
</g>
<!-- Node16&#45;&gt;Node4 -->
<g id="edge23" class="edge">
<title>Node16&#45;&gt;Node4</title>
<path fill="none" stroke="#63b8ff" d="M1658.86,-277.41C1630.53,-235.88 1563.76,-148.14 1482.5,-110 1445.44,-92.61 1400.38,-81.03 1366.73,-74.06"/>
<polygon fill="#63b8ff" stroke="#63b8ff" points="1655.99,-279.42 1664.47,-285.77 1661.81,-275.52 1655.99,-279.42"/>
</g>
<!-- Node17&#45;&gt;Node4 -->
<g id="edge25" class="edge">
<title>Node17&#45;&gt;Node4</title>
<path fill="none" stroke="#63b8ff" d="M1527.14,-288.13C1546.95,-280.64 1567.88,-268.71 1579.5,-250 1586.53,-238.67 1585.72,-231.79 1579.5,-220 1533.4,-132.67 1414.85,-90.49 1354.29,-74.09"/>
<polygon fill="#63b8ff" stroke="#63b8ff" points="1525.85,-284.87 1517.56,-291.45 1528.15,-291.48 1525.85,-284.87"/>
</g>
<!-- Node18 -->
<g id="node18" class="node">
<title>Node18</title>
<g id="a_node18"><a xlink:href="jwt__key__auto__refresh_8h.html" target="_top" xlink:title=" ">
<polygon fill="white" stroke="#666666" points="1571,-250 1446,-250 1446,-220 1571,-220 1571,-250"/>
<text text-anchor="start" x="1454" y="-238" font-family="Helvetica,sans-Serif" font-size="10.00">src/node/jwt_key_auto</text>
<text text-anchor="middle" x="1508.5" y="-227" font-family="Helvetica,sans-Serif" font-size="10.00">_refresh.h</text>
</a>
</g>
</g>
<!-- Node17&#45;&gt;Node18 -->
<g id="edge26" class="edge">
<title>Node17&#45;&gt;Node18</title>
<path fill="none" stroke="#63b8ff" d="M1486.8,-282.3C1491.51,-272.24 1497.34,-259.81 1501.77,-250.36"/>
<polygon fill="#63b8ff" stroke="#63b8ff" points="1483.62,-280.83 1482.55,-291.37 1489.96,-283.8 1483.62,-280.83"/>
</g>
<!-- Node18&#45;&gt;Node14 -->
<g id="edge27" class="edge">
<title>Node18&#45;&gt;Node14</title>
<path fill="none" stroke="#63b8ff" d="M1440.53,-217.57C1395.46,-206.67 1338.15,-192.82 1301.88,-184.05"/>
<polygon fill="#63b8ff" stroke="#63b8ff" points="1439.99,-221.04 1450.53,-219.99 1441.64,-214.24 1439.99,-221.04"/>
</g>
<!-- Node19&#45;&gt;Node4 -->
<g id="edge29" class="edge">
<title>Node19&#45;&gt;Node4</title>
<path fill="none" stroke="#63b8ff" d="M1363.79,-281.37C1377.49,-273.83 1390.63,-263.61 1398.5,-250 1429.66,-196.14 1430.18,-163.55 1398.5,-110 1387.8,-91.91 1366.84,-80.68 1348.92,-74.03"/>
<polygon fill="#63b8ff" stroke="#63b8ff" points="1362.09,-278.31 1354.75,-285.95 1365.25,-284.55 1362.09,-278.31"/>
</g>
<!-- Node20 -->
<g id="node20" class="node">
<title>Node20</title>
<g id="a_node20"><a xlink:href="ccf__acme__client_8h.html" target="_top" xlink:title=" ">
<polygon fill="white" stroke="#666666" points="1390,-244.5 1241,-244.5 1241,-225.5 1390,-225.5 1390,-244.5"/>
<text text-anchor="middle" x="1315.5" y="-232.5" font-family="Helvetica,sans-Serif" font-size="10.00">src/node/ccf_acme_client.h</text>
</a>
</g>
</g>
<!-- Node19&#45;&gt;Node20 -->
<g id="edge30" class="edge">
<title>Node19&#45;&gt;Node20</title>
<path fill="none" stroke="#63b8ff" d="M1313.02,-275.6C1313.7,-264.8 1314.45,-252.78 1314.95,-244.84"/>
<polygon fill="#63b8ff" stroke="#63b8ff" points="1309.52,-275.6 1312.39,-285.8 1316.5,-276.03 1309.52,-275.6"/>
</g>
<!-- Node20&#45;&gt;Node14 -->
<g id="edge31" class="edge">
<title>Node20&#45;&gt;Node14</title>
<path fill="none" stroke="#63b8ff" d="M1301.64,-217.45C1292.57,-206.62 1281.08,-192.91 1273.76,-184.17"/>
<polygon fill="#63b8ff" stroke="#63b8ff" points="1299.17,-219.95 1308.27,-225.37 1304.53,-215.45 1299.17,-219.95"/>
</g>
<!-- Node21&#45;&gt;Node4 -->
<g id="edge35" class="edge">
<title>Node21&#45;&gt;Node4</title>
<path fill="none" stroke="#63b8ff" d="M93.68,-158C110.91,-142.6 139.75,-119.91 169.5,-110 272.69,-75.64 1033.47,-67.53 1256.33,-65.88"/>
<polygon fill="#63b8ff" stroke="#63b8ff" points="91.19,-155.53 86.2,-164.88 95.93,-160.68 91.19,-155.53"/>
</g>
<!-- Node22&#45;&gt;Node14 -->
<g id="edge37" class="edge">
<title>Node22&#45;&gt;Node14</title>
<path fill="none" stroke="#63b8ff" d="M1141.24,-221.88C1171.78,-210.57 1216.57,-193.99 1243.5,-184.02"/>
<polygon fill="#63b8ff" stroke="#63b8ff" points="1139.64,-218.74 1131.47,-225.49 1142.07,-225.3 1139.64,-218.74"/>
</g>
<!-- Node23&#45;&gt;Node14 -->
<g id="edge39" class="edge">
<title>Node23&#45;&gt;Node14</title>
<path fill="none" stroke="#63b8ff" d="M1564.56,-343.38C1581.79,-314.34 1610.03,-255.18 1579.5,-220 1547.71,-183.37 1410.61,-176.11 1328.78,-175.12"/>
<polygon fill="#63b8ff" stroke="#63b8ff" points="1561.52,-341.64 1559.24,-351.99 1567.47,-345.32 1561.52,-341.64"/>
</g>
<!-- Node23&#45;&gt;Node16 -->
<g id="edge40" class="edge">
<title>Node23&#45;&gt;Node16</title>
<path fill="none" stroke="#63b8ff" d="M1579.98,-347.59C1599.06,-338.29 1624.78,-325.75 1644.42,-316.18"/>
<polygon fill="#63b8ff" stroke="#63b8ff" points="1578.4,-344.47 1570.95,-351.99 1581.47,-350.76 1578.4,-344.47"/>
</g>
<!-- Node24&#45;&gt;Node14 -->
<g id="edge42" class="edge">
<title>Node24&#45;&gt;Node14</title>
<path fill="none" stroke="#63b8ff" d="M547.28,-224.88C562.86,-223.12 579.21,-221.39 594.5,-220 818.65,-199.62 1085.67,-184.73 1204.35,-178.59"/>
<polygon fill="#63b8ff" stroke="#63b8ff" points="546.71,-221.42 537.18,-226.04 547.51,-228.38 546.71,-221.42"/>
</g>
<!-- Node25&#45;&gt;Node9 -->
<g id="edge45" class="edge">
<title>Node25&#45;&gt;Node9</title>
<path fill="none" stroke="#63b8ff" d="M1644.9,-410.21C1510.93,-379.87 1136.71,-295.43 1080.5,-286 939.96,-262.43 771.82,-246.43 693.18,-239.66"/>
<polygon fill="#63b8ff" stroke="#63b8ff" points="1644.35,-413.67 1654.87,-412.47 1645.89,-406.84 1644.35,-413.67"/>
</g>
<!-- Node25&#45;&gt;Node16 -->
<g id="edge46" class="edge">
<title>Node25&#45;&gt;Node16</title>
<path fill="none" stroke="#63b8ff" d="M1683.88,-403.08C1679.86,-393.75 1675.52,-382.02 1673.5,-371 1670.06,-352.27 1670.89,-330.19 1672.02,-316.14"/>
<polygon fill="#63b8ff" stroke="#63b8ff" points="1680.8,-404.78 1688.14,-412.43 1687.17,-401.88 1680.8,-404.78"/>
</g>
<!-- Node26 -->
<g id="node26" class="node">
<title>Node26</title>
<g id="a_node26"><a xlink:href="common__endpoint__registry_8cpp.html" target="_top" xlink:title=" ">
<polygon fill="white" stroke="#666666" points="1917.5,-316 1789.5,-316 1789.5,-286 1917.5,-286 1917.5,-316"/>
<text text-anchor="start" x="1797.5" y="-304" font-family="Helvetica,sans-Serif" font-size="10.00">src/endpoints/common</text>
<text text-anchor="middle" x="1853.5" y="-293" font-family="Helvetica,sans-Serif" font-size="10.00">_endpoint_registry.cpp</text>
</a>
</g>
</g>
<!-- Node25&#45;&gt;Node26 -->
<g id="edge44" class="edge">
<title>Node25&#45;&gt;Node26</title>
<path fill="none" stroke="#63b8ff" d="M1771.09,-410.13C1796.19,-402.92 1821.97,-390.92 1839.5,-371 1852.82,-355.86 1854.79,-331.57 1854.5,-316.22"/>
<polygon fill="#63b8ff" stroke="#63b8ff" points="1769.93,-406.82 1761.16,-412.76 1771.72,-413.59 1769.93,-406.82"/>
</g>
<!-- Node27 -->
<g id="node27" class="node">
<title>Node27</title>
<g id="a_node27"><a xlink:href="serialization_8h.html" target="_top" xlink:title=" ">
<polygon fill="white" stroke="#666666" points="1830.5,-371 1682.5,-371 1682.5,-352 1830.5,-352 1830.5,-371"/>
<text text-anchor="middle" x="1756.5" y="-359" font-family="Helvetica,sans-Serif" font-size="10.00">src/node/rpc/serialization.h</text>
</a>
</g>
</g>
<!-- Node25&#45;&gt;Node27 -->
<g id="edge47" class="edge">
<title>Node25&#45;&gt;Node27</title>
<path fill="none" stroke="#63b8ff" d="M1709.56,-405.41C1721.56,-394.44 1737.17,-380.17 1747.02,-371.17"/>
<polygon fill="#63b8ff" stroke="#63b8ff" points="1706.96,-403.04 1701.94,-412.37 1711.69,-408.2 1706.96,-403.04"/>
</g>
<!-- Node27&#45;&gt;Node14 -->
<g id="edge49" class="edge">
<title>Node27&#45;&gt;Node14</title>
<path fill="none" stroke="#63b8ff" d="M1757.52,-341.19C1757.38,-324.88 1754.72,-301.72 1742.5,-286 1699.79,-231.05 1667.31,-239.48 1600.5,-220 1508.12,-193.06 1396.55,-182.37 1328.6,-178.17"/>
<polygon fill="#63b8ff" stroke="#63b8ff" points="1754.01,-341.58 1757.28,-351.66 1761.01,-341.74 1754.01,-341.58"/>
</g>
<!-- Node27&#45;&gt;Node16 -->
<g id="edge50" class="edge">
<title>Node27&#45;&gt;Node16</title>
<path fill="none" stroke="#63b8ff" d="M1735.97,-346.03C1723.02,-336.9 1706.38,-325.17 1693.53,-316.11"/>
<polygon fill="#63b8ff" stroke="#63b8ff" points="1734.06,-348.97 1744.25,-351.87 1738.1,-343.25 1734.06,-348.97"/>
</g>
<!-- Node27&#45;&gt;Node17 -->
<g id="edge51" class="edge">
<title>Node27&#45;&gt;Node17</title>
<path fill="none" stroke="#63b8ff" d="M1706.09,-349.89C1652.41,-338.6 1568.51,-320.94 1518.97,-310.52"/>
<polygon fill="#63b8ff" stroke="#63b8ff" points="1705.57,-353.36 1716.08,-351.99 1707.01,-346.51 1705.57,-353.36"/>
</g>
<!-- Node27&#45;&gt;Node26 -->
<g id="edge48" class="edge">
<title>Node27&#45;&gt;Node26</title>
<path fill="none" stroke="#63b8ff" d="M1779.62,-346.55C1794.88,-337.36 1814.79,-325.35 1830.1,-316.11"/>
<polygon fill="#63b8ff" stroke="#63b8ff" points="1777.57,-343.71 1770.81,-351.87 1781.18,-349.7 1777.57,-343.71"/>
</g>
<!-- Node28&#45;&gt;Node4 -->
<g id="edge54" class="edge">
<title>Node28&#45;&gt;Node4</title>
<path fill="none" stroke="#63b8ff" d="M1906.18,-465.54C1913.55,-457.23 1921.24,-447.24 1926.5,-437 1942.1,-406.6 1945.5,-396.67 1945.5,-362.5 1945.5,-362.5 1945.5,-362.5 1945.5,-173.5 1945.5,-116.35 1536.38,-81.1 1378.57,-69.63"/>
<polygon fill="#63b8ff" stroke="#63b8ff" points="1903.53,-463.25 1899.3,-472.96 1908.66,-468.01 1903.53,-463.25"/>
</g>
<!-- Node29 -->
<g id="node29" class="node">
<title>Node29</title>
<g id="a_node29"><a xlink:href="external__executor_8cpp.html" target="_top" xlink:title=" ">
<polygon fill="white" stroke="#666666" points="2121.5,-437 1973.5,-437 1973.5,-407 2121.5,-407 2121.5,-437"/>
<text text-anchor="start" x="1981.5" y="-425" font-family="Helvetica,sans-Serif" font-size="10.00">src/apps/external_executor</text>
<text text-anchor="middle" x="2047.5" y="-414" font-family="Helvetica,sans-Serif" font-size="10.00">/external_executor.cpp</text>
</a>
</g>
</g>
<!-- Node28&#45;&gt;Node29 -->
<g id="edge53" class="edge">
<title>Node28&#45;&gt;Node29</title>
<path fill="none" stroke="#63b8ff" d="M1929.86,-469.19C1955.75,-459.02 1987.73,-446.47 2011.81,-437.01"/>
<polygon fill="#63b8ff" stroke="#63b8ff" points="1928.3,-466.04 1920.27,-472.95 1930.86,-472.56 1928.3,-466.04"/>
</g>
<!-- Node30 -->
<g id="node30" class="node">
<title>Node30</title>
<g id="a_node30"><a xlink:href="historical__queries__adapter_8cpp.html" target="_top" xlink:title=" ">
<polygon fill="white" stroke="#666666" points="1917.5,-437 1797.5,-437 1797.5,-407 1917.5,-407 1917.5,-437"/>
<text text-anchor="start" x="1805.5" y="-425" font-family="Helvetica,sans-Serif" font-size="10.00">src/node/historical</text>
<text text-anchor="middle" x="1857.5" y="-414" font-family="Helvetica,sans-Serif" font-size="10.00">_queries_adapter.cpp</text>
</a>
</g>
</g>
<!-- Node28&#45;&gt;Node30 -->
<g id="edge55" class="edge">
<title>Node28&#45;&gt;Node30</title>
<path fill="none" stroke="#63b8ff" d="M1874.54,-463.39C1870.83,-454.59 1866.72,-444.86 1863.48,-437.16"/>
<polygon fill="#63b8ff" stroke="#63b8ff" points="1871.4,-464.94 1878.51,-472.8 1877.85,-462.22 1871.4,-464.94"/>
</g>
<!-- Node31&#45;&gt;Node25 -->
<g id="edge57" class="edge">
<title>Node31&#45;&gt;Node25</title>
<path fill="none" stroke="#63b8ff" d="M1675.51,-463.28C1680.14,-452.31 1685.35,-439.94 1688.77,-431.84"/>
<polygon fill="#63b8ff" stroke="#63b8ff" points="1672.15,-462.22 1671.49,-472.8 1678.6,-464.94 1672.15,-462.22"/>
</g>
</g>
</svg>
        <g id="navigator" transform="translate(0 0)" fill="#404254">
                <rect fill="#f2f5e9" fill-opacity="0.5" stroke="#606060" stroke-width=".5" x="0" y="0" width="60" height="60"/>
                <use id="zoomplus" xlink:href="#zoomPlus" x="17" y="9" onmousedown="handleZoom(evt,'in')"/>
                <use id="zoomminus" xlink:href="#zoomMin" x="42" y="9" onmousedown="handleZoom(evt,'out')"/>
                <use id="reset" xlink:href="#resetDef" x="30" y="36" onmousedown="handleReset()"/>
                <g id="arrowUp" xlink:href="#dirArrow" transform="translate(30 24)" onmousedown="handlePan(0,-1)">
                  <use xlink:href="#rim" fill="#404040">
                        <set attributeName="fill" to="#808080" begin="arrowUp.mouseover" end="arrowUp.mouseout"/>
                  </use>
                  <path fill="none" stroke="white" stroke-width="1.5" d="M0,-3.0v7 M-2.5,-0.5L0,-3.0L2.5,-0.5"/>
                </g>
                <g id="arrowRight" xlink:href="#dirArrow" transform="rotate(90) translate(36 -43)" onmousedown="handlePan(1,0)">
                  <use xlink:href="#rim" fill="#404040">
                        <set attributeName="fill" to="#808080" begin="arrowRight.mouseover" end="arrowRight.mouseout"/>
                  </use>
                  <path fill="none" stroke="white" stroke-width="1.5" d="M0,-3.0v7 M-2.5,-0.5L0,-3.0L2.5,-0.5"/>
                </g>
                <g id="arrowDown" xlink:href="#dirArrow" transform="rotate(180) translate(-30 -48)" onmousedown="handlePan(0,1)">
                  <use xlink:href="#rim" fill="#404040">
                        <set attributeName="fill" to="#808080" begin="arrowDown.mouseover" end="arrowDown.mouseout"/>
                  </use>
                  <path fill="none" stroke="white" stroke-width="1.5" d="M0,-3.0v7 M-2.5,-0.5L0,-3.0L2.5,-0.5"/>
                </g>
                <g id="arrowLeft" xlink:href="#dirArrow" transform="rotate(270) translate(-36 17)" onmousedown="handlePan(-1,0)">
                  <use xlink:href="#rim" fill="#404040">
                        <set attributeName="fill" to="#808080" begin="arrowLeft.mouseover" end="arrowLeft.mouseout"/>
                  </use>
                  <path fill="none" stroke="white" stroke-width="1.5" d="M0,-3.0v7 M-2.5,-0.5L0,-3.0L2.5,-0.5"/>
                </g>
        </g>
        <svg viewBox="0 0 15 15" width="100%" height="30px" preserveAspectRatio="xMaxYMin meet">
         <g id="arrow_out" transform="scale(0.3 0.3)">
          <a xlink:href="identity_8h__dep__incl_org.svg" target="_base">
           <rect id="button" ry="5" rx="5" y="6" x="6" height="38" width="38"
                fill="#f2f5e9" fill-opacity="0.5" stroke="#606060" stroke-width="1.0"/>
           <path id="arrow"
             d="M 11.500037,31.436501 C 11.940474,20.09759 22.043105,11.32322 32.158766,21.979434 L 37.068811,17.246167 C 37.068811,17.246167 37.088388,32 37.088388,32 L 22.160133,31.978069 C 22.160133,31.978069 26.997745,27.140456 26.997745,27.140456 C 18.528582,18.264221 13.291696,25.230495 11.500037,31.436501 z"
             style="fill:#404040;"/>
          </a>
         </g>
        </svg>
</svg>
