<?xml version="1.0" encoding="UTF-8" standalone="no"?>
<!DOCTYPE svg PUBLIC "-//W3C//DTD SVG 1.1//EN"
 "http://www.w3.org/Graphics/SVG/1.1/DTD/svg11.dtd">
<!-- Generated by graphviz version 2.43.0 (0)
 -->
<!-- Title: include/ccf/pal/enclave.h Pages: 1 -->
<svg width="258pt" height="302pt"
 viewBox="0.00 0.00 257.64 302.00" xmlns="http://www.w3.org/2000/svg" xmlns:xlink="http://www.w3.org/1999/xlink">
<g id="graph0" class="graph" transform="scale(1 1) rotate(0) translate(4 298)">
<title>include/ccf/pal/enclave.h</title>
<!-- Node1 -->
<g id="node1" class="node">
<title>Node1</title>
<g id="a_node1"><a xlink:title=" ">
<polygon fill="#999999" stroke="#666666" points="199.5,-294 62.5,-294 62.5,-275 199.5,-275 199.5,-294"/>
<text text-anchor="middle" x="131" y="-282" font-family="Helvetica,sans-Serif" font-size="10.00">include/ccf/pal/enclave.h</text>
</a>
</g>
</g>
<!-- Node2 -->
<g id="node2" class="node">
<title>Node2</title>
<g id="a_node2"><a xlink:href="src_2enclave_2enclave_8h.html" target="_top" xlink:title=" ">
<polygon fill="white" stroke="#666666" points="190,-74 68,-74 68,-55 190,-55 190,-74"/>
<text text-anchor="middle" x="129" y="-62" font-family="Helvetica,sans-Serif" font-size="10.00">src/enclave/enclave.h</text>
</a>
</g>
</g>
<!-- Node1&#45;&gt;Node2 -->
<g id="edge1" class="edge">
<title>Node1&#45;&gt;Node2</title>
<path fill="none" stroke="#63b8ff" d="M163.1,-270.53C177.5,-263.23 193.55,-252.77 204,-239 239.64,-192.02 267.64,-159.11 235,-110 222.51,-91.22 200.4,-80.35 179.59,-74.06"/>
<polygon fill="#63b8ff" stroke="#63b8ff" points="161.49,-267.42 153.96,-274.88 164.49,-273.74 161.49,-267.42"/>
</g>
<!-- Node3 -->
<g id="node3" class="node">
<title>Node3</title>
<g id="a_node3"><a xlink:href="enclave_2main_8cpp.html" target="_top" xlink:title=" ">
<polygon fill="white" stroke="#666666" points="120,-19 0,-19 0,0 120,0 120,-19"/>
<text text-anchor="middle" x="60" y="-7" font-family="Helvetica,sans-Serif" font-size="10.00">src/enclave/main.cpp</text>
</a>
</g>
</g>
<!-- Node1&#45;&gt;Node3 -->
<g id="edge3" class="edge">
<title>Node1&#45;&gt;Node3</title>
<path fill="none" stroke="#63b8ff" d="M100.52,-270.76C66.45,-254.24 16,-221.94 16,-175.5 16,-175.5 16,-175.5 16,-118.5 16,-79.02 41.53,-37.02 53.7,-19.25"/>
<polygon fill="#63b8ff" stroke="#63b8ff" points="99.1,-273.96 109.64,-275 102.05,-267.61 99.1,-273.96"/>
</g>
<!-- Node4 -->
<g id="node4" class="node">
<title>Node4</title>
<g id="a_node4"><a xlink:href="snapshotter_8h.html" target="_top" xlink:title=" ">
<polygon fill="white" stroke="#666666" points="194.5,-239 67.5,-239 67.5,-220 194.5,-220 194.5,-239"/>
<text text-anchor="middle" x="131" y="-227" font-family="Helvetica,sans-Serif" font-size="10.00">src/node/snapshotter.h</text>
</a>
</g>
</g>
<!-- Node1&#45;&gt;Node4 -->
<g id="edge4" class="edge">
<title>Node1&#45;&gt;Node4</title>
<path fill="none" stroke="#63b8ff" d="M131,-264.66C131,-255.93 131,-245.99 131,-239.09"/>
<polygon fill="#63b8ff" stroke="#63b8ff" points="127.5,-264.75 131,-274.75 134.5,-264.75 127.5,-264.75"/>
</g>
<!-- Node2&#45;&gt;Node3 -->
<g id="edge2" class="edge">
<title>Node2&#45;&gt;Node3</title>
<path fill="none" stroke="#63b8ff" d="M109.96,-48.88C97.54,-39.34 81.76,-27.21 71.29,-19.17"/>
<polygon fill="#63b8ff" stroke="#63b8ff" points="107.85,-51.67 117.91,-54.98 112.12,-46.12 107.85,-51.67"/>
</g>
<!-- Node5 -->
<g id="node5" class="node">
<title>Node5</title>
<g id="a_node5"><a xlink:href="node__state_8h.html" target="_top" xlink:title=" ">
<polygon fill="white" stroke="#666666" points="193,-184 69,-184 69,-165 193,-165 193,-184"/>
<text text-anchor="middle" x="131" y="-172" font-family="Helvetica,sans-Serif" font-size="10.00">src/node/node_state.h</text>
</a>
</g>
</g>
<!-- Node4&#45;&gt;Node5 -->
<g id="edge5" class="edge">
<title>Node4&#45;&gt;Node5</title>
<path fill="none" stroke="#63b8ff" d="M131,-209.66C131,-200.93 131,-190.99 131,-184.09"/>
<polygon fill="#63b8ff" stroke="#63b8ff" points="127.5,-209.75 131,-219.75 134.5,-209.75 127.5,-209.75"/>
</g>
<!-- Node5&#45;&gt;Node2 -->
<g id="edge6" class="edge">
<title>Node5&#45;&gt;Node2</title>
<path fill="none" stroke="#63b8ff" d="M103.64,-159.89C91.93,-152.5 79.49,-142.15 73,-129 61.75,-106.19 91.28,-85.21 111.61,-74"/>
<polygon fill="#63b8ff" stroke="#63b8ff" points="101.93,-162.95 112.33,-164.97 105.46,-156.9 101.93,-162.95"/>
</g>
<!-- Node6 -->
<g id="node6" class="node">
<title>Node6</title>
<g id="a_node6"><a xlink:href="gov__effects_8h.html" target="_top" xlink:title=" ">
<polygon fill="white" stroke="#666666" points="226,-129 82,-129 82,-110 226,-110 226,-129"/>
<text text-anchor="middle" x="154" y="-117" font-family="Helvetica,sans-Serif" font-size="10.00">src/node/rpc/gov_effects.h</text>
</a>
</g>
</g>
<!-- Node5&#45;&gt;Node6 -->
<g id="edge7" class="edge">
<title>Node5&#45;&gt;Node6</title>
<path fill="none" stroke="#63b8ff" d="M138.8,-155.53C142.68,-146.6 147.18,-136.22 150.27,-129.09"/>
<polygon fill="#63b8ff" stroke="#63b8ff" points="135.57,-154.18 134.8,-164.75 141.99,-156.97 135.57,-154.18"/>
</g>
<!-- Node6&#45;&gt;Node2 -->
<g id="edge8" class="edge">
<title>Node6&#45;&gt;Node2</title>
<path fill="none" stroke="#63b8ff" d="M145.52,-100.53C141.31,-91.6 136.41,-81.22 133.05,-74.09"/>
<polygon fill="#63b8ff" stroke="#63b8ff" points="142.44,-102.2 149.87,-109.75 148.77,-99.21 142.44,-102.2"/>
</g>
</g>
</svg>
