<?xml version="1.0" encoding="UTF-8" standalone="no"?>
<!DOCTYPE svg PUBLIC "-//W3C//DTD SVG 1.1//EN"
 "http://www.w3.org/Graphics/SVG/1.1/DTD/svg11.dtd">
<!-- Generated by graphviz version 2.43.0 (0)
 -->
<!-- Title: include/ccf/service/tables/uvm_endorsements.h Pages: 1 -->
<svg width="1993pt" height="643pt"
 viewBox="0.00 0.00 1992.50 643.00" xmlns="http://www.w3.org/2000/svg" xmlns:xlink="http://www.w3.org/1999/xlink">
<g id="graph0" class="graph" transform="scale(1 1) rotate(0) translate(4 639)">
<title>include/ccf/service/tables/uvm_endorsements.h</title>
<!-- Node1 -->
<g id="node1" class="node">
<title>Node1</title>
<g id="a_node1"><a xlink:title=" ">
<polygon fill="#999999" stroke="#666666" points="340,-635 182,-635 182,-605 340,-605 340,-635"/>
<text text-anchor="start" x="190" y="-623" font-family="Helvetica,sans-Serif" font-size="10.00">include/ccf/service</text>
<text text-anchor="middle" x="261" y="-612" font-family="Helvetica,sans-Serif" font-size="10.00">/tables/uvm_endorsements.h</text>
</a>
</g>
</g>
<!-- Node2 -->
<g id="node2" class="node">
<title>Node2</title>
<g id="a_node2"><a xlink:href="quote_8cpp.html" target="_top" xlink:title=" ">
<polygon fill="white" stroke="#666666" points="135.5,-508.5 26.5,-508.5 26.5,-489.5 135.5,-489.5 135.5,-508.5"/>
<text text-anchor="middle" x="81" y="-496.5" font-family="Helvetica,sans-Serif" font-size="10.00">src/node/quote.cpp</text>
</a>
</g>
</g>
<!-- Node1&#45;&gt;Node2 -->
<g id="edge1" class="edge">
<title>Node1&#45;&gt;Node2</title>
<path fill="none" stroke="#63b8ff" d="M222.59,-600.3C205.48,-591.47 185.31,-580.39 168,-569 138.37,-549.5 106.39,-522.39 90.74,-508.68"/>
<polygon fill="#63b8ff" stroke="#63b8ff" points="221.25,-603.54 231.75,-604.96 224.42,-597.3 221.25,-603.54"/>
</g>
<!-- Node3 -->
<g id="node3" class="node">
<title>Node3</title>
<g id="a_node3"><a xlink:href="src_2node_2uvm__endorsements_8h.html" target="_top" xlink:title=" ">
<polygon fill="white" stroke="#666666" points="344.5,-569 177.5,-569 177.5,-550 344.5,-550 344.5,-569"/>
<text text-anchor="middle" x="261" y="-557" font-family="Helvetica,sans-Serif" font-size="10.00">src/node/uvm_endorsements.h</text>
</a>
</g>
</g>
<!-- Node1&#45;&gt;Node3 -->
<g id="edge2" class="edge">
<title>Node1&#45;&gt;Node3</title>
<path fill="none" stroke="#63b8ff" d="M261,-594.75C261,-585.72 261,-576.03 261,-569.27"/>
<polygon fill="#63b8ff" stroke="#63b8ff" points="257.5,-594.84 261,-604.84 264.5,-594.84 257.5,-594.84"/>
</g>
<!-- Node19 -->
<g id="node19" class="node">
<title>Node19</title>
<g id="a_node19"><a xlink:href="network__tables_8h.html" target="_top" xlink:title=" ">
<polygon fill="white" stroke="#666666" points="1163,-514 1051,-514 1051,-484 1163,-484 1163,-514"/>
<text text-anchor="start" x="1059" y="-502" font-family="Helvetica,sans-Serif" font-size="10.00">src/service/network</text>
<text text-anchor="middle" x="1107" y="-491" font-family="Helvetica,sans-Serif" font-size="10.00">_tables.h</text>
</a>
</g>
</g>
<!-- Node1&#45;&gt;Node19 -->
<g id="edge32" class="edge">
<title>Node1&#45;&gt;Node19</title>
<path fill="none" stroke="#63b8ff" d="M350.14,-606.46C524.69,-581.91 907.05,-528.12 1050.84,-507.9"/>
<polygon fill="#63b8ff" stroke="#63b8ff" points="349.62,-603 340.21,-607.86 350.6,-609.93 349.62,-603"/>
</g>
<!-- Node3&#45;&gt;Node2 -->
<g id="edge8" class="edge">
<title>Node3&#45;&gt;Node2</title>
<path fill="none" stroke="#63b8ff" d="M225.05,-546.82C190.24,-535.5 138.28,-518.62 107.21,-508.52"/>
<polygon fill="#63b8ff" stroke="#63b8ff" points="224.23,-550.23 234.83,-549.99 226.4,-543.57 224.23,-550.23"/>
</g>
<!-- Node4 -->
<g id="node4" class="node">
<title>Node4</title>
<g id="a_node4"><a xlink:href="node__state_8h.html" target="_top" xlink:title=" ">
<polygon fill="white" stroke="#666666" points="678,-184 554,-184 554,-165 678,-165 678,-184"/>
<text text-anchor="middle" x="616" y="-172" font-family="Helvetica,sans-Serif" font-size="10.00">src/node/node_state.h</text>
</a>
</g>
</g>
<!-- Node3&#45;&gt;Node4 -->
<g id="edge3" class="edge">
<title>Node3&#45;&gt;Node4</title>
<path fill="none" stroke="#63b8ff" d="M273.7,-541.61C278.9,-533.66 284.32,-523.8 287,-514 287.83,-510.95 286.17,-288.58 288,-286 348.16,-201.22 476.8,-180.56 553.89,-176.08"/>
<polygon fill="#63b8ff" stroke="#63b8ff" points="270.75,-539.73 267.88,-549.92 276.48,-543.74 270.75,-539.73"/>
</g>
<!-- Node8 -->
<g id="node8" class="node">
<title>Node8</title>
<g id="a_node8"><a xlink:href="node__call__types_8h.html" target="_top" xlink:title=" ">
<polygon fill="white" stroke="#666666" points="278.5,-514 153.5,-514 153.5,-484 278.5,-484 278.5,-514"/>
<text text-anchor="start" x="161.5" y="-502" font-family="Helvetica,sans-Serif" font-size="10.00">src/node/rpc/node_call</text>
<text text-anchor="middle" x="216" y="-491" font-family="Helvetica,sans-Serif" font-size="10.00">_types.h</text>
</a>
</g>
</g>
<!-- Node3&#45;&gt;Node8 -->
<g id="edge9" class="edge">
<title>Node3&#45;&gt;Node8</title>
<path fill="none" stroke="#63b8ff" d="M248.22,-541.88C241.47,-533.11 233.29,-522.48 226.86,-514.11"/>
<polygon fill="#63b8ff" stroke="#63b8ff" points="245.49,-544.08 254.36,-549.87 251.04,-539.81 245.49,-544.08"/>
</g>
<!-- Node16 -->
<g id="node16" class="node">
<title>Node16</title>
<g id="a_node16"><a xlink:href="internal__tables__access_8h.html" target="_top" xlink:title=" ">
<polygon fill="white" stroke="#666666" points="501,-448 391,-448 391,-418 501,-418 501,-448"/>
<text text-anchor="start" x="399" y="-436" font-family="Helvetica,sans-Serif" font-size="10.00">src/service/internal</text>
<text text-anchor="middle" x="446" y="-425" font-family="Helvetica,sans-Serif" font-size="10.00">_tables_access.h</text>
</a>
</g>
</g>
<!-- Node3&#45;&gt;Node16 -->
<g id="edge23" class="edge">
<title>Node3&#45;&gt;Node16</title>
<path fill="none" stroke="#63b8ff" d="M282.39,-544.11C318.1,-520.07 389.47,-472.04 424.96,-448.16"/>
<polygon fill="#63b8ff" stroke="#63b8ff" points="280.06,-541.46 273.72,-549.94 283.97,-547.26 280.06,-541.46"/>
</g>
<!-- Node5 -->
<g id="node5" class="node">
<title>Node5</title>
<g id="a_node5"><a xlink:href="src_2enclave_2enclave_8h.html" target="_top" xlink:title=" ">
<polygon fill="white" stroke="#666666" points="1020,-74 898,-74 898,-55 1020,-55 1020,-74"/>
<text text-anchor="middle" x="959" y="-62" font-family="Helvetica,sans-Serif" font-size="10.00">src/enclave/enclave.h</text>
</a>
</g>
</g>
<!-- Node4&#45;&gt;Node5 -->
<g id="edge4" class="edge">
<title>Node4&#45;&gt;Node5</title>
<path fill="none" stroke="#63b8ff" d="M582.28,-160.98C554.8,-148.95 523.24,-129.75 541,-110 564.39,-83.99 787.25,-71.98 897.65,-67.59"/>
<polygon fill="#63b8ff" stroke="#63b8ff" points="581.16,-164.31 591.74,-164.92 583.85,-157.84 581.16,-164.31"/>
</g>
<!-- Node7 -->
<g id="node7" class="node">
<title>Node7</title>
<g id="a_node7"><a xlink:href="gov__effects_8h.html" target="_top" xlink:title=" ">
<polygon fill="white" stroke="#666666" points="694,-129 550,-129 550,-110 694,-110 694,-129"/>
<text text-anchor="middle" x="622" y="-117" font-family="Helvetica,sans-Serif" font-size="10.00">src/node/rpc/gov_effects.h</text>
</a>
</g>
</g>
<!-- Node4&#45;&gt;Node7 -->
<g id="edge6" class="edge">
<title>Node4&#45;&gt;Node7</title>
<path fill="none" stroke="#63b8ff" d="M618.13,-154.66C619.12,-145.93 620.25,-135.99 621.03,-129.09"/>
<polygon fill="#63b8ff" stroke="#63b8ff" points="614.64,-154.42 616.99,-164.75 621.59,-155.21 614.64,-154.42"/>
</g>
<!-- Node6 -->
<g id="node6" class="node">
<title>Node6</title>
<g id="a_node6"><a xlink:href="enclave_2main_8cpp.html" target="_top" xlink:title=" ">
<polygon fill="white" stroke="#666666" points="1019,-19 899,-19 899,0 1019,0 1019,-19"/>
<text text-anchor="middle" x="959" y="-7" font-family="Helvetica,sans-Serif" font-size="10.00">src/enclave/main.cpp</text>
</a>
</g>
</g>
<!-- Node5&#45;&gt;Node6 -->
<g id="edge5" class="edge">
<title>Node5&#45;&gt;Node6</title>
<path fill="none" stroke="#63b8ff" d="M959,-44.66C959,-35.93 959,-25.99 959,-19.09"/>
<polygon fill="#63b8ff" stroke="#63b8ff" points="955.5,-44.75 959,-54.75 962.5,-44.75 955.5,-44.75"/>
</g>
<!-- Node7&#45;&gt;Node5 -->
<g id="edge7" class="edge">
<title>Node7&#45;&gt;Node5</title>
<path fill="none" stroke="#63b8ff" d="M686.4,-108.37C749.68,-98.42 845.17,-83.4 904.71,-74.04"/>
<polygon fill="#63b8ff" stroke="#63b8ff" points="685.48,-104.97 676.14,-109.98 686.57,-111.89 685.48,-104.97"/>
</g>
<!-- Node9 -->
<g id="node9" class="node">
<title>Node9</title>
<g id="a_node9"><a xlink:href="call__types_8h.html" target="_top" xlink:title=" ">
<polygon fill="white" stroke="#666666" points="278.5,-442.5 141.5,-442.5 141.5,-423.5 278.5,-423.5 278.5,-442.5"/>
<text text-anchor="middle" x="210" y="-430.5" font-family="Helvetica,sans-Serif" font-size="10.00">src/node/rpc/call_types.h</text>
</a>
</g>
</g>
<!-- Node8&#45;&gt;Node9 -->
<g id="edge10" class="edge">
<title>Node8&#45;&gt;Node9</title>
<path fill="none" stroke="#63b8ff" d="M213.71,-473.6C212.7,-462.8 211.57,-450.78 210.83,-442.84"/>
<polygon fill="#63b8ff" stroke="#63b8ff" points="210.25,-474.17 214.67,-483.8 217.22,-473.51 210.25,-474.17"/>
</g>
<!-- Node10 -->
<g id="node10" class="node">
<title>Node10</title>
<g id="a_node10"><a xlink:href="common__endpoint__registry_8cpp.html" target="_top" xlink:title=" ">
<polygon fill="white" stroke="#666666" points="128,-316 0,-316 0,-286 128,-286 128,-316"/>
<text text-anchor="start" x="8" y="-304" font-family="Helvetica,sans-Serif" font-size="10.00">src/endpoints/common</text>
<text text-anchor="middle" x="64" y="-293" font-family="Helvetica,sans-Serif" font-size="10.00">_endpoint_registry.cpp</text>
</a>
</g>
</g>
<!-- Node9&#45;&gt;Node10 -->
<g id="edge11" class="edge">
<title>Node9&#45;&gt;Node10</title>
<path fill="none" stroke="#63b8ff" d="M131.06,-427.68C99.37,-421.58 65.74,-408.66 46,-382 31.51,-362.44 44.41,-333.31 54.57,-316.13"/>
<polygon fill="#63b8ff" stroke="#63b8ff" points="130.81,-431.18 141.26,-429.42 131.99,-424.29 130.81,-431.18"/>
</g>
<!-- Node11 -->
<g id="node11" class="node">
<title>Node11</title>
<g id="a_node11"><a xlink:href="wrap_8cpp.html" target="_top" xlink:title=" ">
<polygon fill="white" stroke="#666666" points="1379.5,-244.5 1290.5,-244.5 1290.5,-225.5 1379.5,-225.5 1379.5,-244.5"/>
<text text-anchor="middle" x="1335" y="-232.5" font-family="Helvetica,sans-Serif" font-size="10.00">src/js/wrap.cpp</text>
</a>
</g>
</g>
<!-- Node9&#45;&gt;Node11 -->
<g id="edge12" class="edge">
<title>Node9&#45;&gt;Node11</title>
<path fill="none" stroke="#63b8ff" d="M213.72,-413.53C221.32,-381.22 241.94,-315.13 288,-286 309.51,-272.4 1093.24,-244.38 1290.36,-237.53"/>
<polygon fill="#63b8ff" stroke="#63b8ff" points="210.27,-412.91 211.56,-423.43 217.11,-414.41 210.27,-412.91"/>
</g>
<!-- Node12 -->
<g id="node12" class="node">
<title>Node12</title>
<g id="a_node12"><a xlink:href="member__frontend_8h.html" target="_top" xlink:title=" ">
<polygon fill="white" stroke="#666666" points="417,-316 297,-316 297,-286 417,-286 417,-316"/>
<text text-anchor="start" x="305" y="-304" font-family="Helvetica,sans-Serif" font-size="10.00">src/node/rpc/member</text>
<text text-anchor="middle" x="357" y="-293" font-family="Helvetica,sans-Serif" font-size="10.00">_frontend.h</text>
</a>
</g>
</g>
<!-- Node9&#45;&gt;Node12 -->
<g id="edge13" class="edge">
<title>Node9&#45;&gt;Node12</title>
<path fill="none" stroke="#63b8ff" d="M227.27,-416.73C256.02,-391.3 313.28,-340.67 341.09,-316.07"/>
<polygon fill="#63b8ff" stroke="#63b8ff" points="224.82,-414.22 219.65,-423.47 229.45,-419.47 224.82,-414.22"/>
</g>
<!-- Node13 -->
<g id="node13" class="node">
<title>Node13</title>
<g id="a_node13"><a xlink:href="serialization_8h.html" target="_top" xlink:title=" ">
<polygon fill="white" stroke="#666666" points="203,-376.5 55,-376.5 55,-357.5 203,-357.5 203,-376.5"/>
<text text-anchor="middle" x="129" y="-364.5" font-family="Helvetica,sans-Serif" font-size="10.00">src/node/rpc/serialization.h</text>
</a>
</g>
</g>
<!-- Node9&#45;&gt;Node13 -->
<g id="edge15" class="edge">
<title>Node9&#45;&gt;Node13</title>
<path fill="none" stroke="#63b8ff" d="M191,-416.99C175.14,-404.46 153.09,-387.04 140.01,-376.7"/>
<polygon fill="#63b8ff" stroke="#63b8ff" points="189.06,-419.92 199.08,-423.37 193.4,-414.42 189.06,-419.92"/>
</g>
<!-- Node12&#45;&gt;Node5 -->
<g id="edge14" class="edge">
<title>Node12&#45;&gt;Node5</title>
<path fill="none" stroke="#63b8ff" d="M370.15,-276.98C395.32,-235.38 454.65,-148.44 531,-110 593.72,-78.42 795.14,-69.22 897.72,-66.57"/>
<polygon fill="#63b8ff" stroke="#63b8ff" points="366.99,-275.44 364.9,-285.83 373.01,-279.02 366.99,-275.44"/>
</g>
<!-- Node13&#45;&gt;Node4 -->
<g id="edge17" class="edge">
<title>Node13&#45;&gt;Node4</title>
<path fill="none" stroke="#63b8ff" d="M138.51,-348.07C156.49,-316.15 198.78,-250.04 255,-220 305.34,-193.1 464.55,-182 553.81,-177.8"/>
<polygon fill="#63b8ff" stroke="#63b8ff" points="135.27,-346.69 133.54,-357.14 141.41,-350.05 135.27,-346.69"/>
</g>
<!-- Node13&#45;&gt;Node10 -->
<g id="edge16" class="edge">
<title>Node13&#45;&gt;Node10</title>
<path fill="none" stroke="#63b8ff" d="M112.91,-350.16C102.4,-339.81 88.78,-326.4 78.58,-316.36"/>
<polygon fill="#63b8ff" stroke="#63b8ff" points="110.65,-352.85 120.23,-357.37 115.56,-347.86 110.65,-352.85"/>
</g>
<!-- Node13&#45;&gt;Node12 -->
<g id="edge18" class="edge">
<title>Node13&#45;&gt;Node12</title>
<path fill="none" stroke="#63b8ff" d="M169.54,-354.62C207.86,-343.86 265.48,-327.69 306.71,-316.12"/>
<polygon fill="#63b8ff" stroke="#63b8ff" points="168.43,-351.3 159.75,-357.37 170.32,-358.04 168.43,-351.3"/>
</g>
<!-- Node14 -->
<g id="node14" class="node">
<title>Node14</title>
<g id="a_node14"><a xlink:href="node__frontend_8h.html" target="_top" xlink:title=" ">
<polygon fill="white" stroke="#666666" points="707,-310.5 549,-310.5 549,-291.5 707,-291.5 707,-310.5"/>
<text text-anchor="middle" x="628" y="-298.5" font-family="Helvetica,sans-Serif" font-size="10.00">src/node/rpc/node_frontend.h</text>
</a>
</g>
</g>
<!-- Node13&#45;&gt;Node14 -->
<g id="edge19" class="edge">
<title>Node13&#45;&gt;Node14</title>
<path fill="none" stroke="#63b8ff" d="M205.59,-356.18C302.92,-343.69 469.31,-322.35 561.54,-310.52"/>
<polygon fill="#63b8ff" stroke="#63b8ff" points="204.99,-352.72 195.52,-357.47 205.89,-359.67 204.99,-352.72"/>
</g>
<!-- Node14&#45;&gt;Node5 -->
<g id="edge20" class="edge">
<title>Node14&#45;&gt;Node5</title>
<path fill="none" stroke="#63b8ff" d="M648.43,-285.52C710.73,-241.39 897.04,-109.39 946.72,-74.2"/>
<polygon fill="#63b8ff" stroke="#63b8ff" points="646.31,-282.74 640.17,-291.38 650.36,-288.45 646.31,-282.74"/>
</g>
<!-- Node15 -->
<g id="node15" class="node">
<title>Node15</title>
<g id="a_node15"><a xlink:href="jwt__key__auto__refresh_8h.html" target="_top" xlink:title=" ">
<polygon fill="white" stroke="#666666" points="684.5,-250 559.5,-250 559.5,-220 684.5,-220 684.5,-250"/>
<text text-anchor="start" x="567.5" y="-238" font-family="Helvetica,sans-Serif" font-size="10.00">src/node/jwt_key_auto</text>
<text text-anchor="middle" x="622" y="-227" font-family="Helvetica,sans-Serif" font-size="10.00">_refresh.h</text>
</a>
</g>
</g>
<!-- Node14&#45;&gt;Node15 -->
<g id="edge21" class="edge">
<title>Node14&#45;&gt;Node15</title>
<path fill="none" stroke="#63b8ff" d="M626.25,-281.35C625.32,-271.47 624.2,-259.51 623.35,-250.36"/>
<polygon fill="#63b8ff" stroke="#63b8ff" points="622.77,-281.74 627.19,-291.37 629.74,-281.09 622.77,-281.74"/>
</g>
<!-- Node15&#45;&gt;Node4 -->
<g id="edge22" class="edge">
<title>Node15&#45;&gt;Node4</title>
<path fill="none" stroke="#63b8ff" d="M619.51,-209.75C618.59,-200.72 617.59,-191.03 616.9,-184.27"/>
<polygon fill="#63b8ff" stroke="#63b8ff" points="616.05,-210.25 620.55,-219.84 623.01,-209.53 616.05,-210.25"/>
</g>
<!-- Node16&#45;&gt;Node4 -->
<g id="edge24" class="edge">
<title>Node16&#45;&gt;Node4</title>
<path fill="none" stroke="#63b8ff" d="M428.35,-409.47C422.97,-401.29 417.75,-391.67 415,-382 411.35,-369.18 410.75,-364.64 415,-352 438.44,-282.23 457.25,-265.63 515,-220 536.35,-203.13 565.09,-191.28 586.45,-184.08"/>
<polygon fill="#63b8ff" stroke="#63b8ff" points="425.53,-411.55 434.14,-417.72 431.26,-407.53 425.53,-411.55"/>
</g>
<!-- Node16&#45;&gt;Node12 -->
<g id="edge25" class="edge">
<title>Node16&#45;&gt;Node12</title>
<path fill="none" stroke="#63b8ff" d="M412.14,-412.09C400.86,-404 389.11,-393.77 381,-382 367.01,-361.7 361.02,-333.08 358.57,-316.15"/>
<polygon fill="#63b8ff" stroke="#63b8ff" points="410.37,-415.12 420.61,-417.84 414.31,-409.33 410.37,-415.12"/>
</g>
<!-- Node16&#45;&gt;Node14 -->
<g id="edge26" class="edge">
<title>Node16&#45;&gt;Node14</title>
<path fill="none" stroke="#63b8ff" d="M510.9,-416.69C533.83,-409 558.69,-397.85 578,-382 602.31,-362.05 618.28,-327.03 624.75,-310.76"/>
<polygon fill="#63b8ff" stroke="#63b8ff" points="509.68,-413.4 501.21,-419.77 511.8,-420.07 509.68,-413.4"/>
</g>
<!-- Node17 -->
<g id="node17" class="node">
<title>Node17</title>
<g id="a_node17"><a xlink:href="secret__broadcast_8h.html" target="_top" xlink:title=" ">
<polygon fill="white" stroke="#666666" points="778.5,-376.5 625.5,-376.5 625.5,-357.5 778.5,-357.5 778.5,-376.5"/>
<text text-anchor="middle" x="702" y="-364.5" font-family="Helvetica,sans-Serif" font-size="10.00">src/node/secret_broadcast.h</text>
</a>
</g>
</g>
<!-- Node16&#45;&gt;Node17 -->
<g id="edge27" class="edge">
<title>Node16&#45;&gt;Node17</title>
<path fill="none" stroke="#63b8ff" d="M510.97,-415.76C560.83,-403.29 627.71,-386.57 667.67,-376.58"/>
<polygon fill="#63b8ff" stroke="#63b8ff" points="510.09,-412.37 501.23,-418.19 511.78,-419.16 510.09,-412.37"/>
</g>
<!-- Node18 -->
<g id="node18" class="node">
<title>Node18</title>
<g id="a_node18"><a xlink:href="share__manager_8h.html" target="_top" xlink:title=" ">
<polygon fill="white" stroke="#666666" points="568.5,-376.5 423.5,-376.5 423.5,-357.5 568.5,-357.5 568.5,-376.5"/>
<text text-anchor="middle" x="496" y="-364.5" font-family="Helvetica,sans-Serif" font-size="10.00">src/node/share_manager.h</text>
</a>
</g>
</g>
<!-- Node16&#45;&gt;Node18 -->
<g id="edge29" class="edge">
<title>Node16&#45;&gt;Node18</title>
<path fill="none" stroke="#63b8ff" d="M463.49,-409.61C472.31,-398.32 482.5,-385.28 489.09,-376.84"/>
<polygon fill="#63b8ff" stroke="#63b8ff" points="460.5,-407.76 457.1,-417.8 466.01,-412.07 460.5,-407.76"/>
</g>
<!-- Node17&#45;&gt;Node4 -->
<g id="edge28" class="edge">
<title>Node17&#45;&gt;Node4</title>
<path fill="none" stroke="#63b8ff" d="M615.23,-359.53C586.64,-352.77 557.67,-339.94 540,-316 527.6,-299.2 540.21,-236.92 551,-220 561.59,-203.4 580.83,-191.39 595.64,-184.07"/>
<polygon fill="#63b8ff" stroke="#63b8ff" points="614.8,-363.02 625.31,-361.68 616.26,-356.17 614.8,-363.02"/>
</g>
<!-- Node18&#45;&gt;Node4 -->
<g id="edge30" class="edge">
<title>Node18&#45;&gt;Node4</title>
<path fill="none" stroke="#63b8ff" d="M496.61,-347.13C498.5,-317.15 506.07,-258.15 536,-220 549.54,-202.74 571.73,-191.16 589.31,-184.15"/>
<polygon fill="#63b8ff" stroke="#63b8ff" points="493.1,-347.26 496.12,-357.41 500.09,-347.59 493.1,-347.26"/>
</g>
<!-- Node18&#45;&gt;Node12 -->
<g id="edge31" class="edge">
<title>Node18&#45;&gt;Node12</title>
<path fill="none" stroke="#63b8ff" d="M467.93,-353.08C444.66,-342.36 411.62,-327.15 387.66,-316.12"/>
<polygon fill="#63b8ff" stroke="#63b8ff" points="466.71,-356.37 477.25,-357.37 469.63,-350.01 466.71,-356.37"/>
</g>
<!-- Node20 -->
<g id="node20" class="node">
<title>Node20</title>
<g id="a_node20"><a xlink:href="ccf__acme__client_8h.html" target="_top" xlink:title=" ">
<polygon fill="white" stroke="#666666" points="1984.5,-310.5 1835.5,-310.5 1835.5,-291.5 1984.5,-291.5 1984.5,-310.5"/>
<text text-anchor="middle" x="1910" y="-298.5" font-family="Helvetica,sans-Serif" font-size="10.00">src/node/ccf_acme_client.h</text>
</a>
</g>
</g>
<!-- Node19&#45;&gt;Node20 -->
<g id="edge33" class="edge">
<title>Node19&#45;&gt;Node20</title>
<path fill="none" stroke="#63b8ff" d="M1173.44,-498.51C1346.66,-498.32 1805.46,-487.66 1904,-382 1922.24,-362.44 1916.49,-327.22 1912.48,-310.83"/>
<polygon fill="#63b8ff" stroke="#63b8ff" points="1173.19,-495.01 1163.19,-498.51 1173.19,-502.01 1173.19,-495.01"/>
</g>
<!-- Node21 -->
<g id="node21" class="node">
<title>Node21</title>
<g id="a_node21"><a xlink:href="network__state_8h.html" target="_top" xlink:title=" ">
<polygon fill="white" stroke="#666666" points="1177,-442.5 1037,-442.5 1037,-423.5 1177,-423.5 1177,-442.5"/>
<text text-anchor="middle" x="1107" y="-430.5" font-family="Helvetica,sans-Serif" font-size="10.00">src/node/network_state.h</text>
</a>
</g>
</g>
<!-- Node19&#45;&gt;Node21 -->
<g id="edge35" class="edge">
<title>Node19&#45;&gt;Node21</title>
<path fill="none" stroke="#63b8ff" d="M1107,-473.6C1107,-462.8 1107,-450.78 1107,-442.84"/>
<polygon fill="#63b8ff" stroke="#63b8ff" points="1103.5,-473.8 1107,-483.8 1110.5,-473.8 1103.5,-473.8"/>
</g>
<!-- Node20&#45;&gt;Node4 -->
<g id="edge34" class="edge">
<title>Node20&#45;&gt;Node4</title>
<path fill="none" stroke="#63b8ff" d="M1887.92,-285.96C1856.65,-266.93 1797,-233.75 1741,-220 1637.84,-194.67 898.74,-180.27 678.06,-176.5"/>
<polygon fill="#63b8ff" stroke="#63b8ff" points="1886.34,-289.1 1896.68,-291.38 1890.02,-283.14 1886.34,-289.1"/>
</g>
<!-- Node21&#45;&gt;Node4 -->
<g id="edge56" class="edge">
<title>Node21&#45;&gt;Node4</title>
<path fill="none" stroke="#63b8ff" d="M1187.38,-431.17C1342.03,-428.73 1668.8,-419.19 1703,-382 1712.03,-372.19 1708.33,-364.22 1703,-352 1642.53,-213.22 1538.42,-244.32 1389,-220 1127.29,-177.4 809.96,-174.03 678.1,-174.72"/>
<polygon fill="#63b8ff" stroke="#63b8ff" points="1186.95,-427.68 1177,-431.33 1187.05,-434.68 1186.95,-427.68"/>
</g>
<!-- Node21&#45;&gt;Node5 -->
<g id="edge36" class="edge">
<title>Node21&#45;&gt;Node5</title>
<path fill="none" stroke="#63b8ff" d="M1187.51,-424.45C1347.16,-407.74 1684.18,-362.88 1632,-286 1559.58,-179.31 1154.04,-99.43 1009.87,-74.04"/>
<polygon fill="#63b8ff" stroke="#63b8ff" points="1186.84,-421 1177.26,-425.51 1187.56,-427.97 1186.84,-421"/>
</g>
<!-- Node21&#45;&gt;Node14 -->
<g id="edge57" class="edge">
<title>Node21&#45;&gt;Node14</title>
<path fill="none" stroke="#63b8ff" d="M1026.94,-426.61C970.43,-420.66 893.88,-408.16 831,-382 809.48,-373.05 808.92,-362.26 788,-352 748.55,-332.65 699.97,-318.73 666.76,-310.57"/>
<polygon fill="#63b8ff" stroke="#63b8ff" points="1026.6,-430.1 1036.9,-427.62 1027.3,-423.13 1026.6,-430.1"/>
</g>
<!-- Node21&#45;&gt;Node17 -->
<g id="edge60" class="edge">
<title>Node21&#45;&gt;Node17</title>
<path fill="none" stroke="#63b8ff" d="M1042.45,-421.8C963.13,-409.26 829.97,-388.22 755.88,-376.51"/>
<polygon fill="#63b8ff" stroke="#63b8ff" points="1042.38,-425.33 1052.8,-423.44 1043.47,-418.42 1042.38,-425.33"/>
</g>
<!-- Node21&#45;&gt;Node18 -->
<g id="edge61" class="edge">
<title>Node21&#45;&gt;Node18</title>
<path fill="none" stroke="#63b8ff" d="M1026.75,-424.15C929.67,-414.57 761.3,-397.71 617,-382 601.23,-380.28 584.32,-378.37 568.28,-376.52"/>
<polygon fill="#63b8ff" stroke="#63b8ff" points="1026.48,-427.64 1036.78,-425.14 1027.17,-420.67 1026.48,-427.64"/>
</g>
<!-- Node22 -->
<g id="node22" class="node">
<title>Node22</title>
<g id="a_node22"><a xlink:href="wrap_8h.html" target="_top" xlink:title=" ">
<polygon fill="white" stroke="#666666" points="1146,-376.5 1068,-376.5 1068,-357.5 1146,-357.5 1146,-376.5"/>
<text text-anchor="middle" x="1107" y="-364.5" font-family="Helvetica,sans-Serif" font-size="10.00">src/js/wrap.h</text>
</a>
</g>
</g>
<!-- Node21&#45;&gt;Node22 -->
<g id="edge37" class="edge">
<title>Node21&#45;&gt;Node22</title>
<path fill="none" stroke="#63b8ff" d="M1107,-413.08C1107,-401.13 1107,-386.22 1107,-376.91"/>
<polygon fill="#63b8ff" stroke="#63b8ff" points="1103.5,-413.37 1107,-423.37 1110.5,-413.37 1103.5,-413.37"/>
</g>
<!-- Node29 -->
<g id="node29" class="node">
<title>Node29</title>
<g id="a_node29"><a xlink:href="acme__challenge__frontend_8h.html" target="_top" xlink:title=" ">
<polygon fill="white" stroke="#666666" points="1895,-382 1755,-382 1755,-352 1895,-352 1895,-382"/>
<text text-anchor="start" x="1763" y="-370" font-family="Helvetica,sans-Serif" font-size="10.00">src/node/acme_challenge</text>
<text text-anchor="middle" x="1825" y="-359" font-family="Helvetica,sans-Serif" font-size="10.00">_frontend.h</text>
</a>
</g>
</g>
<!-- Node21&#45;&gt;Node29 -->
<g id="edge53" class="edge">
<title>Node21&#45;&gt;Node29</title>
<path fill="none" stroke="#63b8ff" d="M1187.34,-427.9C1307.9,-421.23 1542.67,-406.3 1741,-382 1745.55,-381.44 1750.23,-380.81 1754.94,-380.14"/>
<polygon fill="#63b8ff" stroke="#63b8ff" points="1186.88,-424.42 1177.09,-428.46 1187.27,-431.4 1186.88,-424.42"/>
</g>
<!-- Node30 -->
<g id="node30" class="node">
<title>Node30</title>
<g id="a_node30"><a xlink:href="user__frontend_8h.html" target="_top" xlink:title=" ">
<polygon fill="white" stroke="#666666" points="1779.5,-184 1624.5,-184 1624.5,-165 1779.5,-165 1779.5,-184"/>
<text text-anchor="middle" x="1702" y="-172" font-family="Helvetica,sans-Serif" font-size="10.00">src/node/rpc/user_frontend.h</text>
</a>
</g>
</g>
<!-- Node21&#45;&gt;Node30 -->
<g id="edge58" class="edge">
<title>Node21&#45;&gt;Node30</title>
<path fill="none" stroke="#63b8ff" d="M1187.42,-430.11C1333.48,-425.91 1630.54,-413.55 1665,-382 1723.56,-328.38 1709.21,-216.34 1703.67,-184.25"/>
<polygon fill="#63b8ff" stroke="#63b8ff" points="1187.06,-426.62 1177.17,-430.4 1187.26,-433.61 1187.06,-426.62"/>
</g>
<!-- Node31 -->
<g id="node31" class="node">
<title>Node31</title>
<g id="a_node31"><a xlink:href="snapshotter_8h.html" target="_top" xlink:title=" ">
<polygon fill="white" stroke="#666666" points="877.5,-244.5 750.5,-244.5 750.5,-225.5 877.5,-225.5 877.5,-244.5"/>
<text text-anchor="middle" x="814" y="-232.5" font-family="Helvetica,sans-Serif" font-size="10.00">src/node/snapshotter.h</text>
</a>
</g>
</g>
<!-- Node21&#45;&gt;Node31 -->
<g id="edge62" class="edge">
<title>Node21&#45;&gt;Node31</title>
<path fill="none" stroke="#63b8ff" d="M1063.89,-420.86C973.88,-397.18 772.74,-341.88 754,-316 734.96,-289.7 775.75,-259.14 799.12,-244.57"/>
<polygon fill="#63b8ff" stroke="#63b8ff" points="1063.23,-424.3 1073.79,-423.45 1065,-417.53 1063.23,-424.3"/>
</g>
<!-- Node22&#45;&gt;Node4 -->
<g id="edge50" class="edge">
<title>Node22&#45;&gt;Node4</title>
<path fill="none" stroke="#63b8ff" d="M1057.68,-363.64C1018.31,-359.31 963.97,-347.53 928,-316 893.11,-285.42 923.51,-248.63 887,-220 855.39,-195.21 747.99,-183.78 678.26,-178.86"/>
<polygon fill="#63b8ff" stroke="#63b8ff" points="1057.56,-367.15 1067.85,-364.63 1058.24,-360.18 1057.56,-367.15"/>
</g>
<!-- Node22&#45;&gt;Node5 -->
<g id="edge39" class="edge">
<title>Node22&#45;&gt;Node5</title>
<path fill="none" stroke="#63b8ff" d="M1135.92,-352.73C1151.22,-344.29 1169.05,-331.94 1180,-316 1200.69,-285.87 1199,-272.54 1199,-236 1199,-236 1199,-236 1199,-173.5 1199,-95.14 1091.29,-73.3 1020.18,-67.42"/>
<polygon fill="#63b8ff" stroke="#63b8ff" points="1134.06,-349.76 1126.81,-357.48 1137.3,-355.96 1134.06,-349.76"/>
</g>
<!-- Node22&#45;&gt;Node11 -->
<g id="edge49" class="edge">
<title>Node22&#45;&gt;Node11</title>
<path fill="none" stroke="#63b8ff" d="M1156.24,-366.6C1243.84,-366.5 1421.25,-360.63 1460,-316 1489.73,-281.76 1419.5,-256.79 1372.7,-244.52"/>
<polygon fill="#63b8ff" stroke="#63b8ff" points="1156.02,-363.1 1146.02,-366.58 1156.01,-370.1 1156.02,-363.1"/>
</g>
<!-- Node22&#45;&gt;Node12 -->
<g id="edge51" class="edge">
<title>Node22&#45;&gt;Node12</title>
<path fill="none" stroke="#63b8ff" d="M1057.75,-361.8C925.22,-350.49 561.37,-319.44 417.09,-307.13"/>
<polygon fill="#63b8ff" stroke="#63b8ff" points="1057.73,-365.31 1067.99,-362.67 1058.33,-358.33 1057.73,-365.31"/>
</g>
<!-- Node22&#45;&gt;Node14 -->
<g id="edge52" class="edge">
<title>Node22&#45;&gt;Node14</title>
<path fill="none" stroke="#63b8ff" d="M1057.89,-359.44C970.57,-347.77 788.43,-323.44 691.65,-310.5"/>
<polygon fill="#63b8ff" stroke="#63b8ff" points="1057.43,-362.91 1067.8,-360.76 1058.35,-355.97 1057.43,-362.91"/>
</g>
<!-- Node23 -->
<g id="node23" class="node">
<title>Node23</title>
<g id="a_node23"><a xlink:href="js__generic__base_8cpp.html" target="_top" xlink:title=" ">
<polygon fill="white" stroke="#666666" points="881,-316 763,-316 763,-286 881,-286 881,-316"/>
<text text-anchor="start" x="771" y="-304" font-family="Helvetica,sans-Serif" font-size="10.00">src/apps/js_generic</text>
<text text-anchor="middle" x="822" y="-293" font-family="Helvetica,sans-Serif" font-size="10.00">/js_generic_base.cpp</text>
</a>
</g>
</g>
<!-- Node22&#45;&gt;Node23 -->
<g id="edge38" class="edge">
<title>Node22&#45;&gt;Node23</title>
<path fill="none" stroke="#63b8ff" d="M1058.83,-355.18C1009.85,-344.18 933.86,-327.12 881.22,-315.3"/>
<polygon fill="#63b8ff" stroke="#63b8ff" points="1058.34,-358.66 1068.86,-357.44 1059.87,-351.83 1058.34,-358.66"/>
</g>
<!-- Node24 -->
<g id="node24" class="node">
<title>Node24</title>
<g id="a_node24"><a xlink:href="consensus_8cpp.html" target="_top" xlink:title=" ">
<polygon fill="white" stroke="#666666" points="1623,-310.5 1507,-310.5 1507,-291.5 1623,-291.5 1623,-310.5"/>
<text text-anchor="middle" x="1565" y="-298.5" font-family="Helvetica,sans-Serif" font-size="10.00">src/js/consensus.cpp</text>
</a>
</g>
</g>
<!-- Node22&#45;&gt;Node24 -->
<g id="edge40" class="edge">
<title>Node22&#45;&gt;Node24</title>
<path fill="none" stroke="#63b8ff" d="M1156.36,-360.62C1229.9,-352.37 1372.52,-335.5 1493,-316 1502.93,-314.39 1513.59,-312.44 1523.58,-310.52"/>
<polygon fill="#63b8ff" stroke="#63b8ff" points="1155.57,-357.18 1146.02,-361.77 1156.34,-364.14 1155.57,-357.18"/>
</g>
<!-- Node25 -->
<g id="node25" class="node">
<title>Node25</title>
<g id="a_node25"><a xlink:href="conv_8cpp.html" target="_top" xlink:title=" ">
<polygon fill="white" stroke="#666666" points="1025,-310.5 937,-310.5 937,-291.5 1025,-291.5 1025,-310.5"/>
<text text-anchor="middle" x="981" y="-298.5" font-family="Helvetica,sans-Serif" font-size="10.00">src/js/conv.cpp</text>
</a>
</g>
</g>
<!-- Node22&#45;&gt;Node25 -->
<g id="edge42" class="edge">
<title>Node22&#45;&gt;Node25</title>
<path fill="none" stroke="#63b8ff" d="M1080.81,-352.69C1055.98,-340.09 1019.42,-321.51 998.13,-310.7"/>
<polygon fill="#63b8ff" stroke="#63b8ff" points="1079.51,-355.96 1090.01,-357.37 1082.68,-349.72 1079.51,-355.96"/>
</g>
<!-- Node26 -->
<g id="node26" class="node">
<title>Node26</title>
<g id="a_node26"><a xlink:href="crypto_8cpp.html" target="_top" xlink:title=" ">
<polygon fill="white" stroke="#666666" points="1323,-310.5 1227,-310.5 1227,-291.5 1323,-291.5 1323,-310.5"/>
<text text-anchor="middle" x="1275" y="-298.5" font-family="Helvetica,sans-Serif" font-size="10.00">src/js/crypto.cpp</text>
</a>
</g>
</g>
<!-- Node22&#45;&gt;Node26 -->
<g id="edge44" class="edge">
<title>Node22&#45;&gt;Node26</title>
<path fill="none" stroke="#63b8ff" d="M1139.35,-353.68C1172.55,-341.03 1223.34,-321.68 1252.43,-310.6"/>
<polygon fill="#63b8ff" stroke="#63b8ff" points="1137.76,-350.54 1129.66,-357.37 1140.25,-357.08 1137.76,-350.54"/>
</g>
<!-- Node27 -->
<g id="node27" class="node">
<title>Node27</title>
<g id="a_node27"><a xlink:href="historical_8cpp.html" target="_top" xlink:title=" ">
<polygon fill="white" stroke="#666666" points="1451,-310.5 1341,-310.5 1341,-291.5 1451,-291.5 1451,-310.5"/>
<text text-anchor="middle" x="1396" y="-298.5" font-family="Helvetica,sans-Serif" font-size="10.00">src/js/historical.cpp</text>
</a>
</g>
</g>
<!-- Node22&#45;&gt;Node27 -->
<g id="edge46" class="edge">
<title>Node22&#45;&gt;Node27</title>
<path fill="none" stroke="#63b8ff" d="M1155.51,-355.26C1212.37,-342.67 1305.44,-322.06 1357.55,-310.51"/>
<polygon fill="#63b8ff" stroke="#63b8ff" points="1154.68,-351.86 1145.68,-357.44 1156.2,-358.69 1154.68,-351.86"/>
</g>
<!-- Node28 -->
<g id="node28" class="node">
<title>Node28</title>
<g id="a_node28"><a xlink:href="openenclave_8cpp.html" target="_top" xlink:title=" ">
<polygon fill="white" stroke="#666666" points="1171,-310.5 1043,-310.5 1043,-291.5 1171,-291.5 1171,-310.5"/>
<text text-anchor="middle" x="1107" y="-298.5" font-family="Helvetica,sans-Serif" font-size="10.00">src/js/openenclave.cpp</text>
</a>
</g>
</g>
<!-- Node22&#45;&gt;Node28 -->
<g id="edge48" class="edge">
<title>Node22&#45;&gt;Node28</title>
<path fill="none" stroke="#63b8ff" d="M1107,-347.08C1107,-335.13 1107,-320.22 1107,-310.91"/>
<polygon fill="#63b8ff" stroke="#63b8ff" points="1103.5,-347.37 1107,-357.37 1110.5,-347.37 1103.5,-347.37"/>
</g>
<!-- Node24&#45;&gt;Node11 -->
<g id="edge41" class="edge">
<title>Node24&#45;&gt;Node11</title>
<path fill="none" stroke="#63b8ff" d="M1524.19,-288.64C1478.87,-276.03 1406.75,-255.97 1365.89,-244.6"/>
<polygon fill="#63b8ff" stroke="#63b8ff" points="1523.41,-292.06 1533.98,-291.37 1525.29,-285.32 1523.41,-292.06"/>
</g>
<!-- Node25&#45;&gt;Node11 -->
<g id="edge43" class="edge">
<title>Node25&#45;&gt;Node11</title>
<path fill="none" stroke="#63b8ff" d="M1021.29,-288.94C1025.57,-287.89 1029.87,-286.89 1034,-286 1124.38,-266.6 1231.4,-250.42 1290.38,-242.08"/>
<polygon fill="#63b8ff" stroke="#63b8ff" points="1020.26,-285.59 1011.43,-291.44 1021.98,-292.37 1020.26,-285.59"/>
</g>
<!-- Node26&#45;&gt;Node11 -->
<g id="edge45" class="edge">
<title>Node26&#45;&gt;Node11</title>
<path fill="none" stroke="#63b8ff" d="M1290.02,-283.98C1301.6,-271.62 1317.2,-254.99 1326.65,-244.91"/>
<polygon fill="#63b8ff" stroke="#63b8ff" points="1287.38,-281.68 1283.09,-291.37 1292.48,-286.47 1287.38,-281.68"/>
</g>
<!-- Node27&#45;&gt;Node11 -->
<g id="edge47" class="edge">
<title>Node27&#45;&gt;Node11</title>
<path fill="none" stroke="#63b8ff" d="M1380.73,-283.98C1368.95,-271.62 1353.1,-254.99 1343.49,-244.91"/>
<polygon fill="#63b8ff" stroke="#63b8ff" points="1378.34,-286.54 1387.77,-291.37 1383.41,-281.72 1378.34,-286.54"/>
</g>
<!-- Node29&#45;&gt;Node5 -->
<g id="edge54" class="edge">
<title>Node29&#45;&gt;Node5</title>
<path fill="none" stroke="#63b8ff" d="M1819.88,-341.57C1814.87,-315.53 1808,-273.04 1808,-236 1808,-236 1808,-236 1808,-173.5 1808,-156.9 2113.05,-210.85 1641,-110 1523.44,-84.88 1164.72,-71.65 1020.25,-67.22"/>
<polygon fill="#63b8ff" stroke="#63b8ff" points="1816.5,-342.53 1821.88,-351.65 1823.36,-341.16 1816.5,-342.53"/>
</g>
<!-- Node29&#45;&gt;Node20 -->
<g id="edge55" class="edge">
<title>Node29&#45;&gt;Node20</title>
<path fill="none" stroke="#63b8ff" d="M1852.11,-345.58C1867.67,-333.87 1886.4,-319.77 1898.25,-310.84"/>
<polygon fill="#63b8ff" stroke="#63b8ff" points="1849.75,-342.99 1843.86,-351.8 1853.96,-348.58 1849.75,-342.99"/>
</g>
<!-- Node30&#45;&gt;Node5 -->
<g id="edge59" class="edge">
<title>Node30&#45;&gt;Node5</title>
<path fill="none" stroke="#63b8ff" d="M1685.76,-158.17C1668.48,-142.92 1639.6,-120.34 1610,-110 1502.19,-72.32 1160.38,-66.39 1020.04,-65.57"/>
<polygon fill="#63b8ff" stroke="#63b8ff" points="1683.51,-160.86 1693.27,-164.99 1688.21,-155.67 1683.51,-160.86"/>
</g>
<!-- Node31&#45;&gt;Node4 -->
<g id="edge63" class="edge">
<title>Node31&#45;&gt;Node4</title>
<path fill="none" stroke="#63b8ff" d="M775.44,-222.61C737.15,-211.29 679.3,-194.2 644.83,-184.02"/>
<polygon fill="#63b8ff" stroke="#63b8ff" points="774.63,-226.02 785.21,-225.49 776.61,-219.3 774.63,-226.02"/>
</g>
</g>
</svg>
