<?xml version="1.0" encoding="UTF-8" standalone="no"?>
<!DOCTYPE svg PUBLIC "-//W3C//DTD SVG 1.1//EN"
 "http://www.w3.org/Graphics/SVG/1.1/DTD/svg11.dtd">
<!-- Generated by graphviz version 2.43.0 (0)
 -->
<!-- Title: Graphical Class Hierarchy Pages: 1 -->
<svg width="594pt" height="432pt"
 viewBox="0.00 0.00 594.00 432.00" xmlns="http://www.w3.org/2000/svg" xmlns:xlink="http://www.w3.org/1999/xlink">
<g id="graph0" class="graph" transform="scale(1 1) rotate(0) translate(4 428)">
<title>Graphical Class Hierarchy</title>
<!-- Node0 -->
<g id="node1" class="node">
<title>Node0</title>
<g id="a_node1"><a xlink:href="classccf_1_1AbstractNodeSubSystem.html" target="_top" xlink:title=" ">
<polygon fill="white" stroke="#666666" points="157,-246 0,-246 0,-227 157,-227 157,-246"/>
<text text-anchor="middle" x="78.5" y="-234" font-family="Helvetica,sans-Serif" font-size="10.00">ccf::AbstractNodeSubSystem</text>
</a>
</g>
</g>
<!-- Node1 -->
<g id="node2" class="node">
<title>Node1</title>
<g id="a_node2"><a xlink:href="classccf_1_1ACMESubsystemInterface.html" target="_top" xlink:title=" ">
<polygon fill="white" stroke="#666666" points="362,-424 200,-424 200,-405 362,-405 362,-424"/>
<text text-anchor="middle" x="281" y="-412" font-family="Helvetica,sans-Serif" font-size="10.00">ccf::ACMESubsystemInterface</text>
</a>
</g>
</g>
<!-- Node0&#45;&gt;Node1 -->
<g id="edge1" class="edge">
<title>Node0&#45;&gt;Node1</title>
<path fill="none" stroke="#63b8ff" d="M87.37,-255.69C102.43,-289.88 138.75,-361.04 193,-396.5 198.16,-399.88 203.84,-402.64 209.74,-404.89"/>
<polygon fill="#63b8ff" stroke="#63b8ff" points="90.52,-254.17 83.38,-246.35 84.09,-256.92 90.52,-254.17"/>
</g>
<!-- Node3 -->
<g id="node4" class="node">
<title>Node3</title>
<g id="a_node4"><a xlink:href="classccf_1_1AbstractGovernanceEffects.html" target="_top" xlink:title=" ">
<polygon fill="white" stroke="#666666" points="365,-387 197,-387 197,-368 365,-368 365,-387"/>
<text text-anchor="middle" x="281" y="-375" font-family="Helvetica,sans-Serif" font-size="10.00">ccf::AbstractGovernanceEffects</text>
</a>
</g>
</g>
<!-- Node0&#45;&gt;Node3 -->
<g id="edge3" class="edge">
<title>Node0&#45;&gt;Node3</title>
<path fill="none" stroke="#63b8ff" d="M90.79,-254.65C108.82,-282.01 146.85,-333.39 193,-359.5 199.04,-362.92 205.65,-365.69 212.43,-367.94"/>
<polygon fill="#63b8ff" stroke="#63b8ff" points="93.61,-252.57 85.26,-246.05 87.72,-256.36 93.61,-252.57"/>
</g>
<!-- Node5 -->
<g id="node6" class="node">
<title>Node5</title>
<g id="a_node6"><a xlink:href="classccf_1_1AbstractHostProcesses.html" target="_top" xlink:title=" ">
<polygon fill="white" stroke="#666666" points="355,-350 207,-350 207,-331 355,-331 355,-350"/>
<text text-anchor="middle" x="281" y="-338" font-family="Helvetica,sans-Serif" font-size="10.00">ccf::AbstractHostProcesses</text>
</a>
</g>
</g>
<!-- Node0&#45;&gt;Node5 -->
<g id="edge5" class="edge">
<title>Node0&#45;&gt;Node5</title>
<path fill="none" stroke="#63b8ff" d="M96.55,-253.39C117.46,-273.09 154.84,-305.18 193,-322.5 200.58,-325.94 208.84,-328.74 217.15,-331"/>
<polygon fill="#63b8ff" stroke="#63b8ff" points="98.77,-250.66 89.13,-246.26 93.92,-255.71 98.77,-250.66"/>
</g>
<!-- Node7 -->
<g id="node8" class="node">
<title>Node7</title>
<g id="a_node8"><a xlink:href="classccf_1_1AbstractNodeOperation.html" target="_top" xlink:title=" ">
<polygon fill="white" stroke="#666666" points="356,-313 206,-313 206,-294 356,-294 356,-313"/>
<text text-anchor="middle" x="281" y="-301" font-family="Helvetica,sans-Serif" font-size="10.00">ccf::AbstractNodeOperation</text>
</a>
</g>
</g>
<!-- Node0&#45;&gt;Node7 -->
<g id="edge7" class="edge">
<title>Node0&#45;&gt;Node7</title>
<path fill="none" stroke="#63b8ff" d="M108.52,-250.54C131.13,-261.03 163.51,-275.13 193,-284.5 204.35,-288.1 216.74,-291.26 228.52,-293.91"/>
<polygon fill="#63b8ff" stroke="#63b8ff" points="109.71,-247.23 99.17,-246.14 106.73,-253.56 109.71,-247.23"/>
</g>
<!-- Node9 -->
<g id="node10" class="node">
<title>Node9</title>
<g id="a_node10"><a xlink:href="classccf_1_1CustomProtocolSubsystemInterface.html" target="_top" xlink:title=" ">
<polygon fill="white" stroke="#666666" points="364.5,-275.5 197.5,-275.5 197.5,-245.5 364.5,-245.5 364.5,-275.5"/>
<text text-anchor="start" x="205.5" y="-263.5" font-family="Helvetica,sans-Serif" font-size="10.00">ccf::CustomProtocolSubsystem</text>
<text text-anchor="middle" x="281" y="-252.5" font-family="Helvetica,sans-Serif" font-size="10.00">Interface</text>
</a>
</g>
</g>
<!-- Node0&#45;&gt;Node9 -->
<g id="edge9" class="edge">
<title>Node0&#45;&gt;Node9</title>
<path fill="none" stroke="#63b8ff" d="M167.03,-246.98C177.11,-248.18 187.36,-249.41 197.37,-250.61"/>
<polygon fill="#63b8ff" stroke="#63b8ff" points="167.36,-243.49 157.02,-245.78 166.53,-250.44 167.36,-243.49"/>
</g>
<!-- Node11 -->
<g id="node12" class="node">
<title>Node11</title>
<g id="a_node12"><a xlink:href="classccf_1_1NetworkIdentitySubsystemInterface.html" target="_top" xlink:title=" ">
<polygon fill="white" stroke="#666666" points="365.5,-227.5 196.5,-227.5 196.5,-197.5 365.5,-197.5 365.5,-227.5"/>
<text text-anchor="start" x="204.5" y="-215.5" font-family="Helvetica,sans-Serif" font-size="10.00">ccf::NetworkIdentitySubsystem</text>
<text text-anchor="middle" x="281" y="-204.5" font-family="Helvetica,sans-Serif" font-size="10.00">Interface</text>
</a>
</g>
</g>
<!-- Node0&#45;&gt;Node11 -->
<g id="edge11" class="edge">
<title>Node0&#45;&gt;Node11</title>
<path fill="none" stroke="#63b8ff" d="M167.08,-226.02C176.81,-224.85 186.7,-223.67 196.37,-222.51"/>
<polygon fill="#63b8ff" stroke="#63b8ff" points="166.53,-222.56 157.02,-227.22 167.36,-229.51 166.53,-222.56"/>
</g>
<!-- Node13 -->
<g id="node14" class="node">
<title>Node13</title>
<g id="a_node14"><a xlink:href="classccf_1_1NodeConfigurationInterface.html" target="_top" xlink:title=" ">
<polygon fill="white" stroke="#666666" points="366,-179 196,-179 196,-160 366,-160 366,-179"/>
<text text-anchor="middle" x="281" y="-167" font-family="Helvetica,sans-Serif" font-size="10.00">ccf::NodeConfigurationInterface</text>
</a>
</g>
</g>
<!-- Node0&#45;&gt;Node13 -->
<g id="edge13" class="edge">
<title>Node0&#45;&gt;Node13</title>
<path fill="none" stroke="#63b8ff" d="M108.52,-222.46C131.13,-211.97 163.51,-197.87 193,-188.5 204.35,-184.9 216.74,-181.74 228.52,-179.09"/>
<polygon fill="#63b8ff" stroke="#63b8ff" points="106.73,-219.44 99.17,-226.86 109.71,-225.77 106.73,-219.44"/>
</g>
<!-- Node15 -->
<g id="node16" class="node">
<title>Node15</title>
<g id="a_node16"><a xlink:href="classccf_1_1historical_1_1AbstractStateCache.html" target="_top" xlink:title=" ">
<polygon fill="white" stroke="#666666" points="345,-141.5 217,-141.5 217,-111.5 345,-111.5 345,-141.5"/>
<text text-anchor="start" x="225" y="-129.5" font-family="Helvetica,sans-Serif" font-size="10.00">ccf::historical::Abstract</text>
<text text-anchor="middle" x="281" y="-118.5" font-family="Helvetica,sans-Serif" font-size="10.00">StateCache</text>
</a>
</g>
</g>
<!-- Node0&#45;&gt;Node15 -->
<g id="edge15" class="edge">
<title>Node0&#45;&gt;Node15</title>
<path fill="none" stroke="#63b8ff" d="M97.15,-220.01C118.38,-200.99 155.83,-169.98 193,-151.5 200.6,-147.72 208.86,-144.43 217.17,-141.58"/>
<polygon fill="#63b8ff" stroke="#63b8ff" points="94.63,-217.57 89.59,-226.89 99.34,-222.75 94.63,-217.57"/>
</g>
<!-- Node18 -->
<g id="node18" class="node">
<title>Node18</title>
<g id="a_node18"><a xlink:href="classccf_1_1indexing_1_1AbstractLFSAccess.html" target="_top" xlink:title=" ">
<polygon fill="white" stroke="#666666" points="369,-56 193,-56 193,-37 369,-37 369,-56"/>
<text text-anchor="middle" x="281" y="-44" font-family="Helvetica,sans-Serif" font-size="10.00">ccf::indexing::AbstractLFSAccess</text>
</a>
</g>
</g>
<!-- Node0&#45;&gt;Node18 -->
<g id="edge17" class="edge">
<title>Node0&#45;&gt;Node18</title>
<path fill="none" stroke="#63b8ff" d="M86.62,-217.09C100.88,-181.1 136.5,-104.15 193,-65.5 198.61,-61.66 204.87,-58.58 211.38,-56.11"/>
<polygon fill="#63b8ff" stroke="#63b8ff" points="83.19,-216.27 82.88,-226.86 89.72,-218.77 83.19,-216.27"/>
</g>
<!-- Node20 -->
<g id="node20" class="node">
<title>Node20</title>
<g id="a_node20"><a xlink:href="classccf_1_1indexing_1_1IndexingStrategies.html" target="_top" xlink:title=" ">
<polygon fill="white" stroke="#666666" points="369,-19 193,-19 193,0 369,0 369,-19"/>
<text text-anchor="middle" x="281" y="-7" font-family="Helvetica,sans-Serif" font-size="10.00">ccf::indexing::IndexingStrategies</text>
</a>
</g>
</g>
<!-- Node0&#45;&gt;Node20 -->
<g id="edge19" class="edge">
<title>Node0&#45;&gt;Node20</title>
<path fill="none" stroke="#63b8ff" d="M84.18,-216.86C95.27,-174.89 127.27,-76.3 193,-27.5 197.58,-24.1 202.66,-21.3 207.99,-19.01"/>
<polygon fill="#63b8ff" stroke="#63b8ff" points="80.76,-216.13 81.7,-226.68 87.54,-217.84 80.76,-216.13"/>
</g>
<!-- Node2 -->
<g id="node3" class="node">
<title>Node2</title>
<g id="a_node3"><a xlink:href="classccf_1_1ACMESubsystem.html" target="_top" xlink:title=" ">
<polygon fill="white" stroke="#666666" points="555,-424 436,-424 436,-405 555,-405 555,-424"/>
<text text-anchor="middle" x="495.5" y="-412" font-family="Helvetica,sans-Serif" font-size="10.00">ccf::ACMESubsystem</text>
</a>
</g>
</g>
<!-- Node1&#45;&gt;Node2 -->
<g id="edge2" class="edge">
<title>Node1&#45;&gt;Node2</title>
<path fill="none" stroke="#63b8ff" d="M372.17,-414.5C393.67,-414.5 416.07,-414.5 435.74,-414.5"/>
<polygon fill="#63b8ff" stroke="#63b8ff" points="372.03,-411 362.03,-414.5 372.03,-418 372.03,-411"/>
</g>
<!-- Node4 -->
<g id="node5" class="node">
<title>Node4</title>
<g id="a_node5"><a xlink:href="classccf_1_1GovernanceEffects.html" target="_top" xlink:title=" ">
<polygon fill="white" stroke="#666666" points="559.5,-387 431.5,-387 431.5,-368 559.5,-368 559.5,-387"/>
<text text-anchor="middle" x="495.5" y="-375" font-family="Helvetica,sans-Serif" font-size="10.00">ccf::GovernanceEffects</text>
</a>
</g>
</g>
<!-- Node3&#45;&gt;Node4 -->
<g id="edge4" class="edge">
<title>Node3&#45;&gt;Node4</title>
<path fill="none" stroke="#63b8ff" d="M375.21,-377.5C394.14,-377.5 413.63,-377.5 431.23,-377.5"/>
<polygon fill="#63b8ff" stroke="#63b8ff" points="375.07,-374 365.07,-377.5 375.07,-381 375.07,-374"/>
</g>
<!-- Node6 -->
<g id="node7" class="node">
<title>Node6</title>
<g id="a_node7"><a xlink:href="classccf_1_1HostProcesses.html" target="_top" xlink:title=" ">
<polygon fill="white" stroke="#666666" points="549,-350 442,-350 442,-331 549,-331 549,-350"/>
<text text-anchor="middle" x="495.5" y="-338" font-family="Helvetica,sans-Serif" font-size="10.00">ccf::HostProcesses</text>
</a>
</g>
</g>
<!-- Node5&#45;&gt;Node6 -->
<g id="edge6" class="edge">
<title>Node5&#45;&gt;Node6</title>
<path fill="none" stroke="#63b8ff" d="M365.26,-340.5C391,-340.5 418.62,-340.5 441.7,-340.5"/>
<polygon fill="#63b8ff" stroke="#63b8ff" points="365.13,-337 355.13,-340.5 365.13,-344 365.13,-337"/>
</g>
<!-- Node8 -->
<g id="node9" class="node">
<title>Node8</title>
<g id="a_node9"><a xlink:href="classccf_1_1NodeOperation.html" target="_top" xlink:title=" ">
<polygon fill="white" stroke="#666666" points="550.5,-313 440.5,-313 440.5,-294 550.5,-294 550.5,-313"/>
<text text-anchor="middle" x="495.5" y="-301" font-family="Helvetica,sans-Serif" font-size="10.00">ccf::NodeOperation</text>
</a>
</g>
</g>
<!-- Node7&#45;&gt;Node8 -->
<g id="edge8" class="edge">
<title>Node7&#45;&gt;Node8</title>
<path fill="none" stroke="#63b8ff" d="M366.25,-303.5C391.25,-303.5 417.95,-303.5 440.49,-303.5"/>
<polygon fill="#63b8ff" stroke="#63b8ff" points="366.02,-300 356.02,-303.5 366.02,-307 366.02,-300"/>
</g>
<!-- Node10 -->
<g id="node11" class="node">
<title>Node10</title>
<g id="a_node11"><a xlink:href="classccf_1_1CustomProtocolSubsystem.html" target="_top" xlink:title=" ">
<polygon fill="white" stroke="#666666" points="579,-270 412,-270 412,-251 579,-251 579,-270"/>
<text text-anchor="middle" x="495.5" y="-258" font-family="Helvetica,sans-Serif" font-size="10.00">ccf::CustomProtocolSubsystem</text>
</a>
</g>
</g>
<!-- Node9&#45;&gt;Node10 -->
<g id="edge10" class="edge">
<title>Node9&#45;&gt;Node10</title>
<path fill="none" stroke="#63b8ff" d="M375.02,-260.5C387.32,-260.5 399.86,-260.5 411.96,-260.5"/>
<polygon fill="#63b8ff" stroke="#63b8ff" points="374.77,-257 364.77,-260.5 374.77,-264 374.77,-257"/>
</g>
<!-- Node12 -->
<g id="node13" class="node">
<title>Node12</title>
<g id="a_node13"><a xlink:href="classccf_1_1NetworkIdentitySubsystem.html" target="_top" xlink:title=" ">
<polygon fill="white" stroke="#666666" points="580,-222 411,-222 411,-203 580,-203 580,-222"/>
<text text-anchor="middle" x="495.5" y="-210" font-family="Helvetica,sans-Serif" font-size="10.00">ccf::NetworkIdentitySubsystem</text>
</a>
</g>
</g>
<!-- Node11&#45;&gt;Node12 -->
<g id="edge12" class="edge">
<title>Node11&#45;&gt;Node12</title>
<path fill="none" stroke="#63b8ff" d="M375.87,-212.5C387.53,-212.5 399.4,-212.5 410.9,-212.5"/>
<polygon fill="#63b8ff" stroke="#63b8ff" points="375.68,-209 365.68,-212.5 375.68,-216 375.68,-209"/>
</g>
<!-- Node14 -->
<g id="node15" class="node">
<title>Node14</title>
<g id="a_node15"><a xlink:href="classccf_1_1NodeConfigurationSubsystem.html" target="_top" xlink:title=" ">
<polygon fill="white" stroke="#666666" points="586,-179 405,-179 405,-160 586,-160 586,-179"/>
<text text-anchor="middle" x="495.5" y="-167" font-family="Helvetica,sans-Serif" font-size="10.00">ccf::NodeConfigurationSubsystem</text>
</a>
</g>
</g>
<!-- Node13&#45;&gt;Node14 -->
<g id="edge14" class="edge">
<title>Node13&#45;&gt;Node14</title>
<path fill="none" stroke="#63b8ff" d="M376.43,-169.5C385.84,-169.5 395.37,-169.5 404.72,-169.5"/>
<polygon fill="#63b8ff" stroke="#63b8ff" points="376.29,-166 366.29,-169.5 376.29,-173 376.29,-166"/>
</g>
<!-- Node16 -->
<g id="node17" class="node">
<title>Node16</title>
<g id="a_node17"><a xlink:href="classccf_1_1historical_1_1StateCache.html" target="_top" xlink:title=" ">
<polygon fill="white" stroke="#666666" points="567,-115 424,-115 424,-96 567,-96 567,-115"/>
<text text-anchor="middle" x="495.5" y="-103" font-family="Helvetica,sans-Serif" font-size="10.00">ccf::historical::StateCache</text>
</a>
</g>
</g>
<!-- Node15&#45;&gt;Node16 -->
<g id="edge16" class="edge">
<title>Node15&#45;&gt;Node16</title>
<path fill="none" stroke="#63b8ff" d="M355.21,-119.27C377.4,-117.07 401.72,-114.67 423.75,-112.49"/>
<polygon fill="#63b8ff" stroke="#63b8ff" points="354.79,-115.79 345.18,-120.26 355.48,-122.76 354.79,-115.79"/>
</g>
<!-- Node19 -->
<g id="node19" class="node">
<title>Node19</title>
<g id="a_node19"><a xlink:href="classccf_1_1indexing_1_1EnclaveLFSAccess.html" target="_top" xlink:title=" ">
<polygon fill="white" stroke="#666666" points="582,-56 409,-56 409,-37 582,-37 582,-56"/>
<text text-anchor="middle" x="495.5" y="-44" font-family="Helvetica,sans-Serif" font-size="10.00">ccf::indexing::EnclaveLFSAccess</text>
</a>
</g>
</g>
<!-- Node18&#45;&gt;Node19 -->
<g id="edge18" class="edge">
<title>Node18&#45;&gt;Node19</title>
<path fill="none" stroke="#63b8ff" d="M379.31,-46.5C389.2,-46.5 399.21,-46.5 408.96,-46.5"/>
<polygon fill="#63b8ff" stroke="#63b8ff" points="379.05,-43 369.05,-46.5 379.04,-50 379.05,-43"/>
</g>
<!-- Node21 -->
<g id="node21" class="node">
<title>Node21</title>
<g id="a_node21"><a xlink:href="classccf_1_1indexing_1_1Indexer.html" target="_top" xlink:title=" ">
<polygon fill="white" stroke="#666666" points="555.5,-19 435.5,-19 435.5,0 555.5,0 555.5,-19"/>
<text text-anchor="middle" x="495.5" y="-7" font-family="Helvetica,sans-Serif" font-size="10.00">ccf::indexing::Indexer</text>
</a>
</g>
</g>
<!-- Node20&#45;&gt;Node21 -->
<g id="edge20" class="edge">
<title>Node20&#45;&gt;Node21</title>
<path fill="none" stroke="#63b8ff" d="M379.06,-9.5C398.31,-9.5 417.97,-9.5 435.48,-9.5"/>
<polygon fill="#63b8ff" stroke="#63b8ff" points="379.05,-6 369.05,-9.5 379.04,-13 379.05,-6"/>
</g>
<!-- Node17 -->
<g id="node22" class="node">
<title>Node17</title>
<g id="a_node22"><a xlink:href="classccf_1_1historical_1_1StateCacheImpl.html" target="_top" xlink:title=" ">
<polygon fill="white" stroke="#666666" points="363,-93 199,-93 199,-74 363,-74 363,-93"/>
<text text-anchor="middle" x="281" y="-81" font-family="Helvetica,sans-Serif" font-size="10.00">ccf::historical::StateCacheImpl</text>
</a>
</g>
</g>
<!-- Node17&#45;&gt;Node16 -->
<g id="edge21" class="edge">
<title>Node17&#45;&gt;Node16</title>
<path fill="none" stroke="#63b8ff" d="M373.61,-92.98C390.39,-94.72 407.66,-96.51 423.71,-98.17"/>
<polygon fill="#63b8ff" stroke="#63b8ff" points="373.55,-89.46 363.25,-91.91 372.83,-96.42 373.55,-89.46"/>
</g>
</g>
</svg>
