<?xml version="1.0" encoding="UTF-8" standalone="no"?>
<!DOCTYPE svg PUBLIC "-//W3C//DTD SVG 1.1//EN"
 "http://www.w3.org/Graphics/SVG/1.1/DTD/svg11.dtd">
<!-- Generated by graphviz version 2.43.0 (0)
 -->
<!-- Title: Graphical Class Hierarchy Pages: 1 -->
<svg width="1056pt" height="224pt"
 viewBox="0.00 0.00 1056.00 224.00" xmlns="http://www.w3.org/2000/svg" xmlns:xlink="http://www.w3.org/1999/xlink">
<g id="graph0" class="graph" transform="scale(1 1) rotate(0) translate(4 220)">
<title>Graphical Class Hierarchy</title>
<!-- Node0 -->
<g id="node1" class="node">
<title>Node0</title>
<g id="a_node1"><a xlink:href="structccf_1_1endpoints_1_1Endpoint_1_1Installer.html" target="_top" xlink:title=" ">
<polygon fill="white" stroke="#666666" points="133,-146.5 0,-146.5 0,-116.5 133,-116.5 133,-146.5"/>
<text text-anchor="start" x="8" y="-134.5" font-family="Helvetica,sans-Serif" font-size="10.00">ccf::endpoints::Endpoint</text>
<text text-anchor="middle" x="66.5" y="-123.5" font-family="Helvetica,sans-Serif" font-size="10.00">::Installer</text>
</a>
</g>
</g>
<!-- Node1 -->
<g id="node2" class="node">
<title>Node1</title>
<g id="a_node2"><a xlink:href="classccf_1_1endpoints_1_1EndpointRegistry.html" target="_top" xlink:title=" ">
<polygon fill="white" stroke="#666666" points="302,-146.5 169,-146.5 169,-116.5 302,-116.5 302,-146.5"/>
<text text-anchor="start" x="177" y="-134.5" font-family="Helvetica,sans-Serif" font-size="10.00">ccf::endpoints::Endpoint</text>
<text text-anchor="middle" x="235.5" y="-123.5" font-family="Helvetica,sans-Serif" font-size="10.00">Registry</text>
</a>
</g>
</g>
<!-- Node0&#45;&gt;Node1 -->
<g id="edge1" class="edge">
<title>Node0&#45;&gt;Node1</title>
<path fill="none" stroke="#63b8ff" d="M143.07,-131.5C151.68,-131.5 160.42,-131.5 168.89,-131.5"/>
<polygon fill="#63b8ff" stroke="#63b8ff" points="143.02,-128 133.02,-131.5 143.02,-135 143.02,-128"/>
</g>
<!-- Node2 -->
<g id="node3" class="node">
<title>Node2</title>
<g id="a_node3"><a xlink:href="classccf_1_1BaseEndpointRegistry.html" target="_top" xlink:title=" ">
<polygon fill="white" stroke="#666666" points="481,-141 338,-141 338,-122 481,-122 481,-141"/>
<text text-anchor="middle" x="409.5" y="-129" font-family="Helvetica,sans-Serif" font-size="10.00">ccf::BaseEndpointRegistry</text>
</a>
</g>
</g>
<!-- Node1&#45;&gt;Node2 -->
<g id="edge2" class="edge">
<title>Node1&#45;&gt;Node2</title>
<path fill="none" stroke="#63b8ff" d="M312.25,-131.5C320.72,-131.5 329.32,-131.5 337.72,-131.5"/>
<polygon fill="#63b8ff" stroke="#63b8ff" points="312.02,-128 302.02,-131.5 312.02,-135 312.02,-128"/>
</g>
<!-- Node3 -->
<g id="node4" class="node">
<title>Node3</title>
<g id="a_node4"><a xlink:href="classccf_1_1CommonEndpointRegistry.html" target="_top" xlink:title=" ">
<polygon fill="white" stroke="#666666" points="681,-160 517,-160 517,-141 681,-141 681,-160"/>
<text text-anchor="middle" x="599" y="-148" font-family="Helvetica,sans-Serif" font-size="10.00">ccf::CommonEndpointRegistry</text>
</a>
</g>
</g>
<!-- Node2&#45;&gt;Node3 -->
<g id="edge3" class="edge">
<title>Node2&#45;&gt;Node3</title>
<path fill="none" stroke="#63b8ff" d="M491.31,-139.69C499.74,-140.54 508.31,-141.41 516.74,-142.27"/>
<polygon fill="#63b8ff" stroke="#63b8ff" points="491.42,-136.18 481.12,-138.66 490.71,-143.15 491.42,-136.18"/>
</g>
<!-- Node13 -->
<g id="node14" class="node">
<title>Node13</title>
<g id="a_node14"><a xlink:href="classnobuiltins_1_1NoBuiltinsRegistry.html" target="_top" xlink:title=" ">
<polygon fill="white" stroke="#666666" points="679.5,-123 518.5,-123 518.5,-104 679.5,-104 679.5,-123"/>
<text text-anchor="middle" x="599" y="-111" font-family="Helvetica,sans-Serif" font-size="10.00">nobuiltins::NoBuiltinsRegistry</text>
</a>
</g>
</g>
<!-- Node2&#45;&gt;Node13 -->
<g id="edge13" class="edge">
<title>Node2&#45;&gt;Node13</title>
<path fill="none" stroke="#63b8ff" d="M491.19,-123.75C500.18,-122.89 509.34,-122.01 518.33,-121.15"/>
<polygon fill="#63b8ff" stroke="#63b8ff" points="490.74,-120.28 481.12,-124.72 491.41,-127.25 490.74,-120.28"/>
</g>
<!-- Node4 -->
<g id="node5" class="node">
<title>Node4</title>
<g id="a_node5"><a xlink:href="classccf_1_1ACMERpcEndpoints.html" target="_top" xlink:title=" ">
<polygon fill="white" stroke="#666666" points="853.5,-216 722.5,-216 722.5,-197 853.5,-197 853.5,-216"/>
<text text-anchor="middle" x="788" y="-204" font-family="Helvetica,sans-Serif" font-size="10.00">ccf::ACMERpcEndpoints</text>
</a>
</g>
</g>
<!-- Node3&#45;&gt;Node4 -->
<g id="edge4" class="edge">
<title>Node3&#45;&gt;Node4</title>
<path fill="none" stroke="#63b8ff" d="M637.4,-163.31C660.28,-170.97 690.2,-180.71 717,-188.5 727,-191.41 737.88,-194.32 748.01,-196.93"/>
<polygon fill="#63b8ff" stroke="#63b8ff" points="638.34,-159.93 627.74,-160.05 636.1,-166.56 638.34,-159.93"/>
</g>
<!-- Node5 -->
<g id="node6" class="node">
<title>Node5</title>
<g id="a_node6"><a xlink:href="classccf_1_1MemberEndpoints.html" target="_top" xlink:title=" ">
<polygon fill="white" stroke="#666666" points="850.5,-179 725.5,-179 725.5,-160 850.5,-160 850.5,-179"/>
<text text-anchor="middle" x="788" y="-167" font-family="Helvetica,sans-Serif" font-size="10.00">ccf::MemberEndpoints</text>
</a>
</g>
</g>
<!-- Node3&#45;&gt;Node5 -->
<g id="edge5" class="edge">
<title>Node3&#45;&gt;Node5</title>
<path fill="none" stroke="#63b8ff" d="M691.3,-159.78C702.82,-160.95 714.39,-162.12 725.3,-163.23"/>
<polygon fill="#63b8ff" stroke="#63b8ff" points="691.51,-156.28 681.21,-158.75 690.8,-163.24 691.51,-156.28"/>
</g>
<!-- Node6 -->
<g id="node7" class="node">
<title>Node6</title>
<g id="a_node7"><a xlink:href="classccf_1_1NodeEndpoints.html" target="_top" xlink:title=" ">
<polygon fill="white" stroke="#666666" points="843,-142 733,-142 733,-123 843,-123 843,-142"/>
<text text-anchor="middle" x="788" y="-130" font-family="Helvetica,sans-Serif" font-size="10.00">ccf::NodeEndpoints</text>
</a>
</g>
</g>
<!-- Node3&#45;&gt;Node6 -->
<g id="edge6" class="edge">
<title>Node3&#45;&gt;Node6</title>
<path fill="none" stroke="#63b8ff" d="M691.48,-141.69C705.62,-140.33 719.83,-138.97 732.8,-137.72"/>
<polygon fill="#63b8ff" stroke="#63b8ff" points="690.82,-138.24 681.21,-142.68 691.49,-145.21 690.82,-138.24"/>
</g>
<!-- Node7 -->
<g id="node8" class="node">
<title>Node7</title>
<g id="a_node8"><a xlink:href="classccf_1_1UserEndpointRegistry.html" target="_top" xlink:title=" ">
<polygon fill="white" stroke="#666666" points="859,-105 717,-105 717,-86 859,-86 859,-105"/>
<text text-anchor="middle" x="788" y="-93" font-family="Helvetica,sans-Serif" font-size="10.00">ccf::UserEndpointRegistry</text>
</a>
</g>
</g>
<!-- Node3&#45;&gt;Node7 -->
<g id="edge7" class="edge">
<title>Node3&#45;&gt;Node7</title>
<path fill="none" stroke="#63b8ff" d="M662.08,-138.35C668.53,-136.6 674.94,-134.65 681,-132.5 697.86,-126.51 700.29,-120.87 717,-114.5 726.41,-110.91 736.78,-107.71 746.58,-105"/>
<polygon fill="#63b8ff" stroke="#63b8ff" points="660.78,-135.07 651.96,-140.94 662.51,-141.85 660.78,-135.07"/>
</g>
<!-- Node8 -->
<g id="node9" class="node">
<title>Node8</title>
<g id="a_node9"><a xlink:href="classbasicapp_1_1BasicHandlers.html" target="_top" xlink:title=" ">
<polygon fill="white" stroke="#666666" points="1039.5,-179 903.5,-179 903.5,-160 1039.5,-160 1039.5,-179"/>
<text text-anchor="middle" x="971.5" y="-167" font-family="Helvetica,sans-Serif" font-size="10.00">basicapp::BasicHandlers</text>
</a>
</g>
</g>
<!-- Node7&#45;&gt;Node8 -->
<g id="edge8" class="edge">
<title>Node7&#45;&gt;Node8</title>
<path fill="none" stroke="#63b8ff" d="M847.39,-108.72C851.42,-110.43 855.34,-112.34 859,-114.5 878.77,-126.14 875.05,-140.17 895,-151.5 900.98,-154.89 907.57,-157.65 914.29,-159.89"/>
<polygon fill="#63b8ff" stroke="#63b8ff" points="848.41,-105.37 837.82,-105.12 845.94,-111.92 848.41,-105.37"/>
</g>
<!-- Node9 -->
<g id="node10" class="node">
<title>Node9</title>
<g id="a_node10"><a xlink:href="classccfapp_1_1JSHandlers.html" target="_top" xlink:title=" ">
<polygon fill="white" stroke="#666666" points="1025,-142 918,-142 918,-123 1025,-123 1025,-142"/>
<text text-anchor="middle" x="971.5" y="-130" font-family="Helvetica,sans-Serif" font-size="10.00">ccfapp::JSHandlers</text>
</a>
</g>
</g>
<!-- Node7&#45;&gt;Node9 -->
<g id="edge9" class="edge">
<title>Node7&#45;&gt;Node9</title>
<path fill="none" stroke="#63b8ff" d="M845.82,-107.08C870.83,-112.18 899.85,-118.1 923.6,-122.94"/>
<polygon fill="#63b8ff" stroke="#63b8ff" points="846.24,-103.6 835.74,-105.03 844.84,-110.46 846.24,-103.6"/>
</g>
<!-- Node10 -->
<g id="node11" class="node">
<title>Node10</title>
<g id="a_node11"><a xlink:href="classccfapp_1_1TpccHandlers.html" target="_top" xlink:title=" ">
<polygon fill="white" stroke="#666666" points="1032,-105 911,-105 911,-86 1032,-86 1032,-105"/>
<text text-anchor="middle" x="971.5" y="-93" font-family="Helvetica,sans-Serif" font-size="10.00">ccfapp::TpccHandlers</text>
</a>
</g>
</g>
<!-- Node7&#45;&gt;Node10 -->
<g id="edge10" class="edge">
<title>Node7&#45;&gt;Node10</title>
<path fill="none" stroke="#63b8ff" d="M869.27,-95.5C883.23,-95.5 897.54,-95.5 910.83,-95.5"/>
<polygon fill="#63b8ff" stroke="#63b8ff" points="869.17,-92 859.17,-95.5 869.17,-99 869.17,-92"/>
</g>
<!-- Node11 -->
<g id="node12" class="node">
<title>Node11</title>
<g id="a_node12"><a xlink:href="classexternalexecutor_1_1EndpointRegistry.html" target="_top" xlink:title=" ">
<polygon fill="white" stroke="#666666" points="1045.5,-67.5 897.5,-67.5 897.5,-37.5 1045.5,-37.5 1045.5,-67.5"/>
<text text-anchor="start" x="905.5" y="-55.5" font-family="Helvetica,sans-Serif" font-size="10.00">externalexecutor::Endpoint</text>
<text text-anchor="middle" x="971.5" y="-44.5" font-family="Helvetica,sans-Serif" font-size="10.00">Registry</text>
</a>
</g>
</g>
<!-- Node7&#45;&gt;Node11 -->
<g id="edge11" class="edge">
<title>Node7&#45;&gt;Node11</title>
<path fill="none" stroke="#63b8ff" d="M839.28,-83.59C860.28,-78.61 884.93,-72.77 907.16,-67.51"/>
<polygon fill="#63b8ff" stroke="#63b8ff" points="838.2,-80.25 829.28,-85.96 839.82,-87.06 838.2,-80.25"/>
</g>
<!-- Node12 -->
<g id="node13" class="node">
<title>Node12</title>
<g id="a_node13"><a xlink:href="classloggingapp_1_1LoggerHandlers.html" target="_top" xlink:title=" ">
<polygon fill="white" stroke="#666666" points="1048,-19 895,-19 895,0 1048,0 1048,-19"/>
<text text-anchor="middle" x="971.5" y="-7" font-family="Helvetica,sans-Serif" font-size="10.00">loggingapp::LoggerHandlers</text>
</a>
</g>
</g>
<!-- Node7&#45;&gt;Node12 -->
<g id="edge12" class="edge">
<title>Node7&#45;&gt;Node12</title>
<path fill="none" stroke="#63b8ff" d="M809.6,-79.68C830.19,-64.55 863.28,-42.1 895,-28.5 903.82,-24.72 913.55,-21.57 923.02,-19"/>
<polygon fill="#63b8ff" stroke="#63b8ff" points="807.24,-77.07 801.32,-85.86 811.43,-82.68 807.24,-77.07"/>
</g>
</g>
</svg>
