<?xml version="1.0" encoding="UTF-8" standalone="no"?>
<!DOCTYPE svg PUBLIC "-//W3C//DTD SVG 1.1//EN"
 "http://www.w3.org/Graphics/SVG/1.1/DTD/svg11.dtd">
<!-- Generated by graphviz version 2.43.0 (0)
 -->
<!-- Title: include/ccf/js_plugin.h Pages: 1 -->
<!--zoomable 467 -->
<svg id="main" version="1.1" xmlns="http://www.w3.org/2000/svg" xmlns:xlink="http://www.w3.org/1999/xlink" xml:space="preserve" onload="init(evt)">
<style type="text/css"><![CDATA[
.edge:hover path { stroke: red; }
.edge:hover polygon { stroke: red; fill: red; }
]]></style>
<script type="text/javascript"><![CDATA[
var edges = document.getElementsByTagName('g');
if (edges && edges.length) {
  for (var i=0;i<edges.length;i++) {
    if (edges[i].id.substr(0,4)=='edge') {
      edges[i].setAttribute('class','edge');
    }
  }
}
]]></script>
        <defs>
                <circle id="rim" cx="0" cy="0" r="7"/>
                <circle id="rim2" cx="0" cy="0" r="3.5"/>
                <g id="zoomPlus">
                        <use xlink:href="#rim" fill="#404040">
                                <set attributeName="fill" to="#808080" begin="zoomplus.mouseover" end="zoomplus.mouseout"/>
                        </use>
                        <path d="M-4,0h8M0,-4v8" fill="none" stroke="white" stroke-width="1.5" pointer-events="none"/>
                </g>
                <g id="zoomMin">
                        <use xlink:href="#rim" fill="#404040">
                                <set attributeName="fill" to="#808080" begin="zoomminus.mouseover" end="zoomminus.mouseout"/>
                        </use>
                        <path d="M-4,0h8" fill="none" stroke="white" stroke-width="1.5" pointer-events="none"/>
                </g>
                <g id="dirArrow">
                        <path fill="none" stroke="white" stroke-width="1.5" d="M0,-3.0v7 M-2.5,-0.5L0,-3.0L2.5,-0.5"/>
                </g>
               <g id="resetDef">
                       <use xlink:href="#rim2" fill="#404040">
                               <set attributeName="fill" to="#808080" begin="reset.mouseover" end="reset.mouseout"/>
                       </use>
               </g>
        </defs>

<script type="text/javascript">
var viewWidth = 2447;
var viewHeight = 467;
var sectionId = 'dynsection-1';
</script>
<script xlink:href="svgpan.js"/>
<svg id="graph" class="graph">
<g id="viewport">
<title>include/ccf/js_plugin.h</title>
<!-- Node1 -->
<g id="node1" class="node">
<title>Node1</title>
<g id="a_node1"><a xlink:title=" ">
<polygon fill="#999999" stroke="#666666" points="1356,-459 1231,-459 1231,-440 1356,-440 1356,-459"/>
<text text-anchor="middle" x="1293.5" y="-447" font-family="Helvetica,sans-Serif" font-size="10.00">include/ccf/js_plugin.h</text>
</a>
</g>
</g>
<!-- Node2 -->
<g id="node2" class="node">
<title>Node2</title>
<g id="a_node2"><a xlink:href="app__interface_8h.html" target="_top" xlink:title=" ">
<polygon fill="white" stroke="#666666" points="782.5,-398.5 634.5,-398.5 634.5,-379.5 782.5,-379.5 782.5,-398.5"/>
<text text-anchor="middle" x="708.5" y="-386.5" font-family="Helvetica,sans-Serif" font-size="10.00">include/ccf/app_interface.h</text>
</a>
</g>
</g>
<!-- Node1&#45;&gt;Node2 -->
<g id="edge1" class="edge">
<title>Node1&#45;&gt;Node2</title>
<path fill="none" stroke="#63b8ff" d="M1220.71,-441.22C1108.71,-430.02 895.28,-408.68 782.54,-397.4"/>
<polygon fill="#63b8ff" stroke="#63b8ff" points="1220.6,-444.73 1230.89,-442.24 1221.29,-437.76 1220.6,-444.73"/>
</g>
<!-- Node16 -->
<g id="node16" class="node">
<title>Node16</title>
<g id="a_node16"><a xlink:href="no__plugins_8cpp.html" target="_top" xlink:title=" ">
<polygon fill="white" stroke="#666666" points="1225.5,-332.5 1107.5,-332.5 1107.5,-313.5 1225.5,-313.5 1225.5,-332.5"/>
<text text-anchor="middle" x="1166.5" y="-320.5" font-family="Helvetica,sans-Serif" font-size="10.00">src/js/no_plugins.cpp</text>
</a>
</g>
</g>
<!-- Node1&#45;&gt;Node16 -->
<g id="edge25" class="edge">
<title>Node1&#45;&gt;Node16</title>
<path fill="none" stroke="#63b8ff" d="M1293.08,-429.57C1291.78,-413.17 1287.53,-389.68 1274.5,-374 1256.67,-352.55 1227.61,-339.82 1204.13,-332.57"/>
<polygon fill="#63b8ff" stroke="#63b8ff" points="1289.59,-429.8 1293.59,-439.61 1296.58,-429.44 1289.59,-429.8"/>
</g>
<!-- Node19 -->
<g id="node19" class="node">
<title>Node19</title>
<g id="a_node19"><a xlink:href="js__openenclave__plugin_8h.html" target="_top" xlink:title=" ">
<polygon fill="white" stroke="#666666" points="1265.5,-404 1117.5,-404 1117.5,-374 1265.5,-374 1265.5,-404"/>
<text text-anchor="start" x="1125.5" y="-392" font-family="Helvetica,sans-Serif" font-size="10.00">include/ccf/js_openenclave</text>
<text text-anchor="middle" x="1191.5" y="-381" font-family="Helvetica,sans-Serif" font-size="10.00">_plugin.h</text>
</a>
</g>
</g>
<!-- Node1&#45;&gt;Node19 -->
<g id="edge22" class="edge">
<title>Node1&#45;&gt;Node19</title>
<path fill="none" stroke="#63b8ff" d="M1269.64,-434.81C1253.54,-425.58 1232.36,-413.43 1216.11,-404.11"/>
<polygon fill="#63b8ff" stroke="#63b8ff" points="1268.03,-437.93 1278.45,-439.87 1271.52,-431.86 1268.03,-437.93"/>
</g>
<!-- Node20 -->
<g id="node20" class="node">
<title>Node20</title>
<g id="a_node20"><a xlink:href="openenclave_8cpp.html" target="_top" xlink:title=" ">
<polygon fill="white" stroke="#666666" points="1507.5,-332.5 1379.5,-332.5 1379.5,-313.5 1507.5,-313.5 1507.5,-332.5"/>
<text text-anchor="middle" x="1443.5" y="-320.5" font-family="Helvetica,sans-Serif" font-size="10.00">src/js/openenclave.cpp</text>
</a>
</g>
</g>
<!-- Node1&#45;&gt;Node20 -->
<g id="edge26" class="edge">
<title>Node1&#45;&gt;Node20</title>
<path fill="none" stroke="#63b8ff" d="M1311.86,-433.26C1343.66,-406.87 1407.99,-353.47 1433.12,-332.62"/>
<polygon fill="#63b8ff" stroke="#63b8ff" points="1309.27,-430.86 1303.81,-439.94 1313.74,-436.25 1309.27,-430.86"/>
</g>
<!-- Node21 -->
<g id="node21" class="node">
<title>Node21</title>
<g id="a_node21"><a xlink:href="wrap_8h.html" target="_top" xlink:title=" ">
<polygon fill="white" stroke="#666666" points="1848.5,-398.5 1770.5,-398.5 1770.5,-379.5 1848.5,-379.5 1848.5,-398.5"/>
<text text-anchor="middle" x="1809.5" y="-386.5" font-family="Helvetica,sans-Serif" font-size="10.00">src/js/wrap.h</text>
</a>
</g>
</g>
<!-- Node1&#45;&gt;Node21 -->
<g id="edge27" class="edge">
<title>Node1&#45;&gt;Node21</title>
<path fill="none" stroke="#63b8ff" d="M1366.34,-440.24C1477.14,-427.68 1684.21,-404.2 1770.35,-394.44"/>
<polygon fill="#63b8ff" stroke="#63b8ff" points="1365.8,-436.78 1356.26,-441.39 1366.59,-443.74 1365.8,-436.78"/>
</g>
<!-- Node3 -->
<g id="node3" class="node">
<title>Node3</title>
<g id="a_node3"><a xlink:href="basic_8cpp.html" target="_top" xlink:title=" ">
<polygon fill="white" stroke="#666666" points="850,-338 737,-338 737,-308 850,-308 850,-338"/>
<text text-anchor="start" x="745" y="-326" font-family="Helvetica,sans-Serif" font-size="10.00">samples/apps/basic</text>
<text text-anchor="middle" x="793.5" y="-315" font-family="Helvetica,sans-Serif" font-size="10.00">/basic.cpp</text>
</a>
</g>
</g>
<!-- Node2&#45;&gt;Node3 -->
<g id="edge2" class="edge">
<title>Node2&#45;&gt;Node3</title>
<path fill="none" stroke="#63b8ff" d="M728,-373.32C742.05,-362.74 760.88,-348.56 774.75,-338.12"/>
<polygon fill="#63b8ff" stroke="#63b8ff" points="725.85,-370.56 719.96,-379.37 730.06,-376.15 725.85,-370.56"/>
</g>
<!-- Node4 -->
<g id="node4" class="node">
<title>Node4</title>
<g id="a_node4"><a xlink:href="logging_8cpp.html" target="_top" xlink:title=" ">
<polygon fill="white" stroke="#666666" points="123,-338 0,-338 0,-308 123,-308 123,-338"/>
<text text-anchor="start" x="8" y="-326" font-family="Helvetica,sans-Serif" font-size="10.00">samples/apps/logging</text>
<text text-anchor="middle" x="61.5" y="-315" font-family="Helvetica,sans-Serif" font-size="10.00">/logging.cpp</text>
</a>
</g>
</g>
<!-- Node2&#45;&gt;Node4 -->
<g id="edge3" class="edge">
<title>Node2&#45;&gt;Node4</title>
<path fill="none" stroke="#63b8ff" d="M624.14,-383.63C511.45,-377.12 305.73,-362.89 131.5,-338 128.8,-337.61 126.05,-337.19 123.27,-336.74"/>
<polygon fill="#63b8ff" stroke="#63b8ff" points="624.24,-387.14 634.42,-384.22 624.64,-380.15 624.24,-387.14"/>
</g>
<!-- Node5 -->
<g id="node5" class="node">
<title>Node5</title>
<g id="a_node5"><a xlink:href="nobuiltins_8cpp.html" target="_top" xlink:title=" ">
<polygon fill="white" stroke="#666666" points="276,-338 141,-338 141,-308 276,-308 276,-338"/>
<text text-anchor="start" x="149" y="-326" font-family="Helvetica,sans-Serif" font-size="10.00">samples/apps/nobuiltins</text>
<text text-anchor="middle" x="208.5" y="-315" font-family="Helvetica,sans-Serif" font-size="10.00">/nobuiltins.cpp</text>
</a>
</g>
</g>
<!-- Node2&#45;&gt;Node5 -->
<g id="edge4" class="edge">
<title>Node2&#45;&gt;Node5</title>
<path fill="none" stroke="#63b8ff" d="M624.3,-379.18C539.76,-370.03 405.88,-354.74 290.5,-338 285.78,-337.32 280.92,-336.58 276.03,-335.8"/>
<polygon fill="#63b8ff" stroke="#63b8ff" points="624.04,-382.67 634.36,-380.26 624.79,-375.71 624.04,-382.67"/>
</g>
<!-- Node6 -->
<g id="node6" class="node">
<title>Node6</title>
<g id="a_node6"><a xlink:href="executor__auth__policy_8h.html" target="_top" xlink:title=" ">
<polygon fill="white" stroke="#666666" points="514.5,-338 366.5,-338 366.5,-308 514.5,-308 514.5,-338"/>
<text text-anchor="start" x="374.5" y="-326" font-family="Helvetica,sans-Serif" font-size="10.00">src/apps/external_executor</text>
<text text-anchor="middle" x="440.5" y="-315" font-family="Helvetica,sans-Serif" font-size="10.00">/executor_auth_policy.h</text>
</a>
</g>
</g>
<!-- Node2&#45;&gt;Node6 -->
<g id="edge5" class="edge">
<title>Node2&#45;&gt;Node6</title>
<path fill="none" stroke="#63b8ff" d="M662.83,-377.09C617.69,-366.31 548.44,-349.78 499.23,-338.02"/>
<polygon fill="#63b8ff" stroke="#63b8ff" points="662.09,-380.52 672.63,-379.44 663.72,-373.71 662.09,-380.52"/>
</g>
<!-- Node7 -->
<g id="node7" class="node">
<title>Node7</title>
<g id="a_node7"><a xlink:href="external__executor_8cpp.html" target="_top" xlink:title=" ">
<polygon fill="white" stroke="#666666" points="674.5,-206 526.5,-206 526.5,-176 674.5,-176 674.5,-206"/>
<text text-anchor="start" x="534.5" y="-194" font-family="Helvetica,sans-Serif" font-size="10.00">src/apps/external_executor</text>
<text text-anchor="middle" x="600.5" y="-183" font-family="Helvetica,sans-Serif" font-size="10.00">/external_executor.cpp</text>
</a>
</g>
</g>
<!-- Node2&#45;&gt;Node7 -->
<g id="edge10" class="edge">
<title>Node2&#45;&gt;Node7</title>
<path fill="none" stroke="#63b8ff" d="M624.48,-378.13C600.22,-370.93 576.33,-358.7 561.5,-338 531.87,-296.62 569.54,-234.11 589.53,-206.26"/>
<polygon fill="#63b8ff" stroke="#63b8ff" points="623.57,-381.51 634.14,-380.74 625.4,-374.75 623.57,-381.51"/>
</g>
<!-- Node10 -->
<g id="node10" class="node">
<title>Node10</title>
<g id="a_node10"><a xlink:href="js__generic_8cpp.html" target="_top" xlink:title=" ">
<polygon fill="white" stroke="#666666" points="763.5,-272 653.5,-272 653.5,-242 763.5,-242 763.5,-272"/>
<text text-anchor="start" x="661.5" y="-260" font-family="Helvetica,sans-Serif" font-size="10.00">src/apps/js_generic</text>
<text text-anchor="middle" x="708.5" y="-249" font-family="Helvetica,sans-Serif" font-size="10.00">/js_generic.cpp</text>
</a>
</g>
</g>
<!-- Node2&#45;&gt;Node10 -->
<g id="edge11" class="edge">
<title>Node2&#45;&gt;Node10</title>
<path fill="none" stroke="#63b8ff" d="M708.5,-369.32C708.5,-343 708.5,-295.61 708.5,-272.07"/>
<polygon fill="#63b8ff" stroke="#63b8ff" points="705,-369.47 708.5,-379.47 712,-369.47 705,-369.47"/>
</g>
<!-- Node11 -->
<g id="node11" class="node">
<title>Node11</title>
<g id="a_node11"><a xlink:href="js__generic__base_8cpp.html" target="_top" xlink:title=" ">
<polygon fill="white" stroke="#666666" points="1361.5,-338 1243.5,-338 1243.5,-308 1361.5,-308 1361.5,-338"/>
<text text-anchor="start" x="1251.5" y="-326" font-family="Helvetica,sans-Serif" font-size="10.00">src/apps/js_generic</text>
<text text-anchor="middle" x="1302.5" y="-315" font-family="Helvetica,sans-Serif" font-size="10.00">/js_generic_base.cpp</text>
</a>
</g>
</g>
<!-- Node2&#45;&gt;Node11 -->
<g id="edge12" class="edge">
<title>Node2&#45;&gt;Node11</title>
<path fill="none" stroke="#63b8ff" d="M793,-382.8C897.2,-375.73 1079.55,-361.25 1234.5,-338 1237.36,-337.57 1240.28,-337.1 1243.23,-336.6"/>
<polygon fill="#63b8ff" stroke="#63b8ff" points="792.59,-379.32 782.85,-383.48 793.06,-386.3 792.59,-379.32"/>
</g>
<!-- Node12 -->
<g id="node12" class="node">
<title>Node12</title>
<g id="a_node12"><a xlink:href="js__generic__base_8h.html" target="_top" xlink:title=" ">
<polygon fill="white" stroke="#666666" points="680.5,-338 570.5,-338 570.5,-308 680.5,-308 680.5,-338"/>
<text text-anchor="start" x="578.5" y="-326" font-family="Helvetica,sans-Serif" font-size="10.00">src/apps/js_generic</text>
<text text-anchor="middle" x="625.5" y="-315" font-family="Helvetica,sans-Serif" font-size="10.00">/js_generic_base.h</text>
</a>
</g>
</g>
<!-- Node2&#45;&gt;Node12 -->
<g id="edge13" class="edge">
<title>Node2&#45;&gt;Node12</title>
<path fill="none" stroke="#63b8ff" d="M689.07,-373.02C675.4,-362.48 657.22,-348.46 643.81,-338.12"/>
<polygon fill="#63b8ff" stroke="#63b8ff" points="687.25,-376.03 697.31,-379.37 691.52,-370.49 687.25,-376.03"/>
</g>
<!-- Node13 -->
<g id="node13" class="node">
<title>Node13</title>
<g id="a_node13"><a xlink:href="tpcc_8cpp.html" target="_top" xlink:title=" ">
<polygon fill="white" stroke="#666666" points="1013,-332.5 868,-332.5 868,-313.5 1013,-313.5 1013,-332.5"/>
<text text-anchor="middle" x="940.5" y="-320.5" font-family="Helvetica,sans-Serif" font-size="10.00">src/apps/tpcc/app/tpcc.cpp</text>
</a>
</g>
</g>
<!-- Node2&#45;&gt;Node13 -->
<g id="edge15" class="edge">
<title>Node2&#45;&gt;Node13</title>
<path fill="none" stroke="#63b8ff" d="M749.67,-376.64C795.38,-364.03 868.12,-343.97 909.34,-332.6"/>
<polygon fill="#63b8ff" stroke="#63b8ff" points="748.5,-373.34 739.79,-379.37 750.36,-380.08 748.5,-373.34"/>
</g>
<!-- Node14 -->
<g id="node14" class="node">
<title>Node14</title>
<g id="a_node14"><a xlink:href="src_2enclave_2enclave_8h.html" target="_top" xlink:title=" ">
<polygon fill="white" stroke="#666666" points="2151.5,-74 2029.5,-74 2029.5,-55 2151.5,-55 2151.5,-74"/>
<text text-anchor="middle" x="2090.5" y="-62" font-family="Helvetica,sans-Serif" font-size="10.00">src/enclave/enclave.h</text>
</a>
</g>
</g>
<!-- Node2&#45;&gt;Node14 -->
<g id="edge16" class="edge">
<title>Node2&#45;&gt;Node14</title>
<path fill="none" stroke="#63b8ff" d="M792.89,-384.79C874,-379.94 988.93,-367.87 1021.5,-338 1048.51,-313.23 1041.5,-294.65 1041.5,-258 1041.5,-258 1041.5,-258 1041.5,-190 1041.5,-89.88 1804.81,-69.98 2029.18,-66.29"/>
<polygon fill="#63b8ff" stroke="#63b8ff" points="792.46,-381.31 782.68,-385.37 792.86,-388.3 792.46,-381.31"/>
</g>
<!-- Node2&#45;&gt;Node16 -->
<g id="edge18" class="edge">
<title>Node2&#45;&gt;Node16</title>
<path fill="none" stroke="#63b8ff" d="M779.93,-378.02C870.08,-365.42 1023.49,-343.98 1107.38,-332.26"/>
<polygon fill="#63b8ff" stroke="#63b8ff" points="779.21,-374.58 769.79,-379.44 780.18,-381.52 779.21,-374.58"/>
</g>
<!-- Node18 -->
<g id="node18" class="node">
<title>Node18</title>
<g id="a_node18"><a xlink:href="user__frontend_8h.html" target="_top" xlink:title=" ">
<polygon fill="white" stroke="#666666" points="709,-134.5 554,-134.5 554,-115.5 709,-115.5 709,-134.5"/>
<text text-anchor="middle" x="631.5" y="-122.5" font-family="Helvetica,sans-Serif" font-size="10.00">src/node/rpc/user_frontend.h</text>
</a>
</g>
</g>
<!-- Node2&#45;&gt;Node18 -->
<g id="edge20" class="edge">
<title>Node2&#45;&gt;Node18</title>
<path fill="none" stroke="#63b8ff" d="M624.25,-385.07C534.13,-380.39 398.61,-368.39 357.5,-338 331.44,-318.73 334.27,-303.46 326.5,-272 316.26,-230.56 295.84,-208.51 323.5,-176 352.5,-141.91 472.4,-131 553.76,-127.54"/>
<polygon fill="#63b8ff" stroke="#63b8ff" points="624.3,-388.58 634.46,-385.58 624.65,-381.59 624.3,-388.58"/>
</g>
<!-- Node6&#45;&gt;Node7 -->
<g id="edge6" class="edge">
<title>Node6&#45;&gt;Node7</title>
<path fill="none" stroke="#63b8ff" d="M468.64,-302.1C481.04,-293.13 495.67,-282.27 508.5,-272 536.1,-249.91 566.84,-222.6 584.88,-206.28"/>
<polygon fill="#63b8ff" stroke="#63b8ff" points="466.54,-299.3 460.46,-307.98 470.62,-304.98 466.54,-299.3"/>
</g>
<!-- Node8 -->
<g id="node8" class="node">
<title>Node8</title>
<g id="a_node8"><a xlink:href="external__executor__indexing_8h.html" target="_top" xlink:title=" ">
<polygon fill="white" stroke="#666666" points="499.5,-272 335.5,-272 335.5,-242 499.5,-242 499.5,-272"/>
<text text-anchor="start" x="343.5" y="-260" font-family="Helvetica,sans-Serif" font-size="10.00">src/apps/external_executor</text>
<text text-anchor="middle" x="417.5" y="-249" font-family="Helvetica,sans-Serif" font-size="10.00">/external_executor_indexing.h</text>
</a>
</g>
</g>
<!-- Node6&#45;&gt;Node8 -->
<g id="edge7" class="edge">
<title>Node6&#45;&gt;Node8</title>
<path fill="none" stroke="#63b8ff" d="M431.91,-298.11C428.78,-289.38 425.33,-279.78 422.59,-272.16"/>
<polygon fill="#63b8ff" stroke="#63b8ff" points="428.72,-299.57 435.4,-307.8 435.31,-297.2 428.72,-299.57"/>
</g>
<!-- Node8&#45;&gt;Node7 -->
<g id="edge8" class="edge">
<title>Node8&#45;&gt;Node7</title>
<path fill="none" stroke="#63b8ff" d="M467.28,-238.59C496.54,-228.36 533.04,-215.59 560.43,-206.01"/>
<polygon fill="#63b8ff" stroke="#63b8ff" points="465.94,-235.35 457.66,-241.95 468.25,-241.96 465.94,-235.35"/>
</g>
<!-- Node9 -->
<g id="node9" class="node">
<title>Node9</title>
<g id="a_node9"><a xlink:href="external__executor__indexing_8cpp.html" target="_top" xlink:title=" ">
<polygon fill="white" stroke="#666666" points="508,-206 333,-206 333,-176 508,-176 508,-206"/>
<text text-anchor="start" x="341" y="-194" font-family="Helvetica,sans-Serif" font-size="10.00">src/apps/external_executor</text>
<text text-anchor="middle" x="420.5" y="-183" font-family="Helvetica,sans-Serif" font-size="10.00">/external_executor_indexing.cpp</text>
</a>
</g>
</g>
<!-- Node8&#45;&gt;Node9 -->
<g id="edge9" class="edge">
<title>Node8&#45;&gt;Node9</title>
<path fill="none" stroke="#63b8ff" d="M418.65,-231.54C419.05,-222.96 419.49,-213.61 419.84,-206.16"/>
<polygon fill="#63b8ff" stroke="#63b8ff" points="415.14,-231.64 418.17,-241.8 422.13,-231.97 415.14,-231.64"/>
</g>
<!-- Node12&#45;&gt;Node10 -->
<g id="edge14" class="edge">
<title>Node12&#45;&gt;Node10</title>
<path fill="none" stroke="#63b8ff" d="M652.11,-301.48C664.52,-291.91 678.97,-280.77 690.13,-272.16"/>
<polygon fill="#63b8ff" stroke="#63b8ff" points="649.7,-298.92 643.92,-307.8 653.98,-304.46 649.7,-298.92"/>
</g>
<!-- Node15 -->
<g id="node15" class="node">
<title>Node15</title>
<g id="a_node15"><a xlink:href="enclave_2main_8cpp.html" target="_top" xlink:title=" ">
<polygon fill="white" stroke="#666666" points="2150.5,-19 2030.5,-19 2030.5,0 2150.5,0 2150.5,-19"/>
<text text-anchor="middle" x="2090.5" y="-7" font-family="Helvetica,sans-Serif" font-size="10.00">src/enclave/main.cpp</text>
</a>
</g>
</g>
<!-- Node14&#45;&gt;Node15 -->
<g id="edge17" class="edge">
<title>Node14&#45;&gt;Node15</title>
<path fill="none" stroke="#63b8ff" d="M2090.5,-44.66C2090.5,-35.93 2090.5,-25.99 2090.5,-19.09"/>
<polygon fill="#63b8ff" stroke="#63b8ff" points="2087,-44.75 2090.5,-54.75 2094,-44.75 2087,-44.75"/>
</g>
<!-- Node17 -->
<g id="node17" class="node">
<title>Node17</title>
<g id="a_node17"><a xlink:href="wrap_8cpp.html" target="_top" xlink:title=" ">
<polygon fill="white" stroke="#666666" points="1751,-266.5 1662,-266.5 1662,-247.5 1751,-247.5 1751,-266.5"/>
<text text-anchor="middle" x="1706.5" y="-254.5" font-family="Helvetica,sans-Serif" font-size="10.00">src/js/wrap.cpp</text>
</a>
</g>
</g>
<!-- Node16&#45;&gt;Node17 -->
<g id="edge19" class="edge">
<title>Node16&#45;&gt;Node17</title>
<path fill="none" stroke="#63b8ff" d="M1214.76,-311.46C1221.37,-310.19 1228.09,-309 1234.5,-308 1390.63,-283.72 1577.68,-267.76 1661.73,-261.28"/>
<polygon fill="#63b8ff" stroke="#63b8ff" points="1213.63,-308.12 1204.5,-313.49 1214.99,-314.98 1213.63,-308.12"/>
</g>
<!-- Node18&#45;&gt;Node14 -->
<g id="edge21" class="edge">
<title>Node18&#45;&gt;Node14</title>
<path fill="none" stroke="#63b8ff" d="M719.29,-120.48C988.75,-109.68 1799.58,-77.16 2029.26,-67.96"/>
<polygon fill="#63b8ff" stroke="#63b8ff" points="719.02,-116.99 709.17,-120.89 719.3,-123.98 719.02,-116.99"/>
</g>
<!-- Node19&#45;&gt;Node10 -->
<g id="edge23" class="edge">
<title>Node19&#45;&gt;Node10</title>
<path fill="none" stroke="#63b8ff" d="M1158.44,-369C1124.98,-350.61 1071.22,-323.33 1021.5,-308 933.55,-280.88 826.92,-267.85 763.56,-262.08"/>
<polygon fill="#63b8ff" stroke="#63b8ff" points="1156.88,-372.14 1167.32,-373.94 1160.28,-366.02 1156.88,-372.14"/>
</g>
<!-- Node19&#45;&gt;Node20 -->
<g id="edge24" class="edge">
<title>Node19&#45;&gt;Node20</title>
<path fill="none" stroke="#63b8ff" d="M1256.7,-371.44C1305.76,-358.98 1370.99,-342.42 1409.96,-332.52"/>
<polygon fill="#63b8ff" stroke="#63b8ff" points="1255.63,-368.1 1246.8,-373.95 1257.36,-374.89 1255.63,-368.1"/>
</g>
<!-- Node21&#45;&gt;Node11 -->
<g id="edge28" class="edge">
<title>Node21&#45;&gt;Node11</title>
<path fill="none" stroke="#63b8ff" d="M1759.83,-383.8C1678.26,-376.59 1510.96,-360.41 1370.5,-338 1367.64,-337.54 1364.72,-337.05 1361.78,-336.53"/>
<polygon fill="#63b8ff" stroke="#63b8ff" points="1760.02,-387.34 1770.29,-384.72 1760.63,-380.36 1760.02,-387.34"/>
</g>
<!-- Node21&#45;&gt;Node14 -->
<g id="edge29" class="edge">
<title>Node21&#45;&gt;Node14</title>
<path fill="none" stroke="#63b8ff" d="M1858.79,-383.43C1917.96,-376.91 2012.26,-362.88 2036.5,-338 2108.51,-264.08 2059.41,-211.02 2080.5,-110 2083.12,-97.44 2086.43,-82.96 2088.51,-74.01"/>
<polygon fill="#63b8ff" stroke="#63b8ff" points="1858.11,-379.98 1848.54,-384.52 1858.85,-386.94 1858.11,-379.98"/>
</g>
<!-- Node21&#45;&gt;Node17 -->
<g id="edge39" class="edge">
<title>Node21&#45;&gt;Node17</title>
<path fill="none" stroke="#63b8ff" d="M1760.39,-382.16C1732.56,-376.05 1699.9,-363.55 1682.5,-338 1666.99,-315.23 1687.72,-282.19 1699.44,-266.67"/>
<polygon fill="#63b8ff" stroke="#63b8ff" points="1759.91,-385.63 1770.4,-384.13 1761.26,-378.76 1759.91,-385.63"/>
</g>
<!-- Node21&#45;&gt;Node20 -->
<g id="edge38" class="edge">
<title>Node21&#45;&gt;Node20</title>
<path fill="none" stroke="#63b8ff" d="M1760.08,-379.88C1701.79,-370.24 1602,-353.49 1516.5,-338 1506.98,-336.27 1496.77,-334.36 1487.09,-332.51"/>
<polygon fill="#63b8ff" stroke="#63b8ff" points="1759.68,-383.37 1770.12,-381.54 1760.82,-376.46 1759.68,-383.37"/>
</g>
<!-- Node22 -->
<g id="node22" class="node">
<title>Node22</title>
<g id="a_node22"><a xlink:href="consensus_8cpp.html" target="_top" xlink:title=" ">
<polygon fill="white" stroke="#666666" points="1807.5,-332.5 1691.5,-332.5 1691.5,-313.5 1807.5,-313.5 1807.5,-332.5"/>
<text text-anchor="middle" x="1749.5" y="-320.5" font-family="Helvetica,sans-Serif" font-size="10.00">src/js/consensus.cpp</text>
</a>
</g>
</g>
<!-- Node21&#45;&gt;Node22 -->
<g id="edge30" class="edge">
<title>Node21&#45;&gt;Node22</title>
<path fill="none" stroke="#63b8ff" d="M1794.48,-371.98C1782.9,-359.62 1767.3,-342.99 1757.85,-332.91"/>
<polygon fill="#63b8ff" stroke="#63b8ff" points="1792.02,-374.47 1801.41,-379.37 1797.12,-369.68 1792.02,-374.47"/>
</g>
<!-- Node23 -->
<g id="node23" class="node">
<title>Node23</title>
<g id="a_node23"><a xlink:href="conv_8cpp.html" target="_top" xlink:title=" ">
<polygon fill="white" stroke="#666666" points="1913.5,-332.5 1825.5,-332.5 1825.5,-313.5 1913.5,-313.5 1913.5,-332.5"/>
<text text-anchor="middle" x="1869.5" y="-320.5" font-family="Helvetica,sans-Serif" font-size="10.00">src/js/conv.cpp</text>
</a>
</g>
</g>
<!-- Node21&#45;&gt;Node23 -->
<g id="edge32" class="edge">
<title>Node21&#45;&gt;Node23</title>
<path fill="none" stroke="#63b8ff" d="M1824.52,-371.98C1836.1,-359.62 1851.7,-342.99 1861.15,-332.91"/>
<polygon fill="#63b8ff" stroke="#63b8ff" points="1821.88,-369.68 1817.59,-379.37 1826.98,-374.47 1821.88,-369.68"/>
</g>
<!-- Node24 -->
<g id="node24" class="node">
<title>Node24</title>
<g id="a_node24"><a xlink:href="crypto_8cpp.html" target="_top" xlink:title=" ">
<polygon fill="white" stroke="#666666" points="2027.5,-332.5 1931.5,-332.5 1931.5,-313.5 2027.5,-313.5 2027.5,-332.5"/>
<text text-anchor="middle" x="1979.5" y="-320.5" font-family="Helvetica,sans-Serif" font-size="10.00">src/js/crypto.cpp</text>
</a>
</g>
</g>
<!-- Node21&#45;&gt;Node24 -->
<g id="edge34" class="edge">
<title>Node21&#45;&gt;Node24</title>
<path fill="none" stroke="#63b8ff" d="M1841.8,-375.84C1875.39,-363.2 1927.1,-343.73 1956.67,-332.6"/>
<polygon fill="#63b8ff" stroke="#63b8ff" points="1840.55,-372.57 1832.43,-379.37 1843.02,-379.12 1840.55,-372.57"/>
</g>
<!-- Node25 -->
<g id="node25" class="node">
<title>Node25</title>
<g id="a_node25"><a xlink:href="historical_8cpp.html" target="_top" xlink:title=" ">
<polygon fill="white" stroke="#666666" points="1635.5,-332.5 1525.5,-332.5 1525.5,-313.5 1635.5,-313.5 1635.5,-332.5"/>
<text text-anchor="middle" x="1580.5" y="-320.5" font-family="Helvetica,sans-Serif" font-size="10.00">src/js/historical.cpp</text>
</a>
</g>
</g>
<!-- Node21&#45;&gt;Node25 -->
<g id="edge36" class="edge">
<title>Node21&#45;&gt;Node25</title>
<path fill="none" stroke="#63b8ff" d="M1768.86,-376.64C1723.75,-364.03 1651.94,-343.97 1611.26,-332.6"/>
<polygon fill="#63b8ff" stroke="#63b8ff" points="1768.04,-380.05 1778.62,-379.37 1769.93,-373.31 1768.04,-380.05"/>
</g>
<!-- Node26 -->
<g id="node26" class="node">
<title>Node26</title>
<g id="a_node26"><a xlink:href="node__state_8h.html" target="_top" xlink:title=" ">
<polygon fill="white" stroke="#666666" points="2293.5,-200.5 2169.5,-200.5 2169.5,-181.5 2293.5,-181.5 2293.5,-200.5"/>
<text text-anchor="middle" x="2231.5" y="-188.5" font-family="Helvetica,sans-Serif" font-size="10.00">src/node/node_state.h</text>
</a>
</g>
</g>
<!-- Node21&#45;&gt;Node26 -->
<g id="edge40" class="edge">
<title>Node21&#45;&gt;Node26</title>
<path fill="none" stroke="#63b8ff" d="M1858.92,-385.95C1968.47,-380.91 2224.12,-366.22 2250.5,-338 2287.15,-298.79 2250.89,-225.66 2236.67,-200.65"/>
<polygon fill="#63b8ff" stroke="#63b8ff" points="1858.62,-382.46 1848.79,-386.41 1858.94,-389.45 1858.62,-382.46"/>
</g>
<!-- Node28 -->
<g id="node28" class="node">
<title>Node28</title>
<g id="a_node28"><a xlink:href="member__frontend_8h.html" target="_top" xlink:title=" ">
<polygon fill="white" stroke="#666666" points="2438.5,-140 2318.5,-140 2318.5,-110 2438.5,-110 2438.5,-140"/>
<text text-anchor="start" x="2326.5" y="-128" font-family="Helvetica,sans-Serif" font-size="10.00">src/node/rpc/member</text>
<text text-anchor="middle" x="2378.5" y="-117" font-family="Helvetica,sans-Serif" font-size="10.00">_frontend.h</text>
</a>
</g>
</g>
<!-- Node21&#45;&gt;Node28 -->
<g id="edge44" class="edge">
<title>Node21&#45;&gt;Node28</title>
<path fill="none" stroke="#63b8ff" d="M1858.77,-388.46C1963.83,-388.54 2205.62,-383.61 2271.5,-338 2342.17,-289.07 2368.7,-179.21 2376.12,-140.13"/>
<polygon fill="#63b8ff" stroke="#63b8ff" points="1858.75,-384.96 1848.75,-388.44 1858.74,-391.96 1858.75,-384.96"/>
</g>
<!-- Node29 -->
<g id="node29" class="node">
<title>Node29</title>
<g id="a_node29"><a xlink:href="node__frontend_8h.html" target="_top" xlink:title=" ">
<polygon fill="white" stroke="#666666" points="2241.5,-332.5 2083.5,-332.5 2083.5,-313.5 2241.5,-313.5 2241.5,-332.5"/>
<text text-anchor="middle" x="2162.5" y="-320.5" font-family="Helvetica,sans-Serif" font-size="10.00">src/node/rpc/node_frontend.h</text>
</a>
</g>
</g>
<!-- Node21&#45;&gt;Node29 -->
<g id="edge46" class="edge">
<title>Node21&#45;&gt;Node29</title>
<path fill="none" stroke="#63b8ff" d="M1858.65,-379.09C1926.62,-366.77 2048.48,-344.67 2115.36,-332.55"/>
<polygon fill="#63b8ff" stroke="#63b8ff" points="1857.84,-375.68 1848.63,-380.91 1859.09,-382.57 1857.84,-375.68"/>
</g>
<!-- Node22&#45;&gt;Node17 -->
<g id="edge31" class="edge">
<title>Node22&#45;&gt;Node17</title>
<path fill="none" stroke="#63b8ff" d="M1738.02,-304.91C1729.8,-292.68 1719.06,-276.7 1712.48,-266.91"/>
<polygon fill="#63b8ff" stroke="#63b8ff" points="1735.22,-307.02 1743.7,-313.37 1741.03,-303.12 1735.22,-307.02"/>
</g>
<!-- Node23&#45;&gt;Node17 -->
<g id="edge33" class="edge">
<title>Node23&#45;&gt;Node17</title>
<path fill="none" stroke="#63b8ff" d="M1838.11,-309.68C1805.9,-297.03 1756.62,-277.68 1728.39,-266.6"/>
<polygon fill="#63b8ff" stroke="#63b8ff" points="1836.93,-312.97 1847.52,-313.37 1839.49,-306.46 1836.93,-312.97"/>
</g>
<!-- Node24&#45;&gt;Node17 -->
<g id="edge35" class="edge">
<title>Node24&#45;&gt;Node17</title>
<path fill="none" stroke="#63b8ff" d="M1935.21,-311.06C1930.92,-310.02 1926.63,-308.98 1922.5,-308 1859.97,-293.09 1787.11,-276.35 1744,-266.52"/>
<polygon fill="#63b8ff" stroke="#63b8ff" points="1934.61,-314.52 1945.16,-313.49 1936.27,-307.72 1934.61,-314.52"/>
</g>
<!-- Node25&#45;&gt;Node17 -->
<g id="edge37" class="edge">
<title>Node25&#45;&gt;Node17</title>
<path fill="none" stroke="#63b8ff" d="M1606.69,-308.69C1631.52,-296.09 1668.08,-277.51 1689.37,-266.7"/>
<polygon fill="#63b8ff" stroke="#63b8ff" points="1604.82,-305.72 1597.49,-313.37 1607.99,-311.96 1604.82,-305.72"/>
</g>
<!-- Node26&#45;&gt;Node14 -->
<g id="edge41" class="edge">
<title>Node26&#45;&gt;Node14</title>
<path fill="none" stroke="#63b8ff" d="M2249.13,-174.43C2266.18,-157.49 2287.28,-130.14 2271.5,-110 2256.68,-91.09 2198.15,-79.15 2151.6,-72.45"/>
<polygon fill="#63b8ff" stroke="#63b8ff" points="2246.6,-172.01 2241.73,-181.42 2251.41,-177.1 2246.6,-172.01"/>
</g>
<!-- Node27 -->
<g id="node27" class="node">
<title>Node27</title>
<g id="a_node27"><a xlink:href="gov__effects_8h.html" target="_top" xlink:title=" ">
<polygon fill="white" stroke="#666666" points="2262.5,-134.5 2118.5,-134.5 2118.5,-115.5 2262.5,-115.5 2262.5,-134.5"/>
<text text-anchor="middle" x="2190.5" y="-122.5" font-family="Helvetica,sans-Serif" font-size="10.00">src/node/rpc/gov_effects.h</text>
</a>
</g>
</g>
<!-- Node26&#45;&gt;Node27 -->
<g id="edge42" class="edge">
<title>Node26&#45;&gt;Node27</title>
<path fill="none" stroke="#63b8ff" d="M2220.55,-172.91C2212.71,-160.68 2202.48,-144.7 2196.2,-134.91"/>
<polygon fill="#63b8ff" stroke="#63b8ff" points="2217.63,-174.84 2225.97,-181.37 2223.52,-171.06 2217.63,-174.84"/>
</g>
<!-- Node27&#45;&gt;Node14 -->
<g id="edge43" class="edge">
<title>Node27&#45;&gt;Node14</title>
<path fill="none" stroke="#63b8ff" d="M2167.03,-110.27C2147.94,-99.1 2121.59,-83.69 2105.32,-74.17"/>
<polygon fill="#63b8ff" stroke="#63b8ff" points="2165.35,-113.34 2175.74,-115.37 2168.88,-107.3 2165.35,-113.34"/>
</g>
<!-- Node28&#45;&gt;Node14 -->
<g id="edge45" class="edge">
<title>Node28&#45;&gt;Node14</title>
<path fill="none" stroke="#63b8ff" d="M2308.46,-109.77C2253.52,-98.61 2178.86,-83.45 2132.72,-74.08"/>
<polygon fill="#63b8ff" stroke="#63b8ff" points="2307.98,-113.25 2318.48,-111.81 2309.37,-106.39 2307.98,-113.25"/>
</g>
<!-- Node29&#45;&gt;Node14 -->
<g id="edge47" class="edge">
<title>Node29&#45;&gt;Node14</title>
<path fill="none" stroke="#63b8ff" d="M2141.18,-307.38C2130.06,-298.52 2117.37,-286.19 2110.5,-272 2076.76,-202.3 2085.59,-104.02 2089.28,-74.33"/>
<polygon fill="#63b8ff" stroke="#63b8ff" points="2139.17,-310.25 2149.26,-313.46 2143.37,-304.65 2139.17,-310.25"/>
</g>
<!-- Node30 -->
<g id="node30" class="node">
<title>Node30</title>
<g id="a_node30"><a xlink:href="jwt__key__auto__refresh_8h.html" target="_top" xlink:title=" ">
<polygon fill="white" stroke="#666666" points="2244,-272 2119,-272 2119,-242 2244,-242 2244,-272"/>
<text text-anchor="start" x="2127" y="-260" font-family="Helvetica,sans-Serif" font-size="10.00">src/node/jwt_key_auto</text>
<text text-anchor="middle" x="2181.5" y="-249" font-family="Helvetica,sans-Serif" font-size="10.00">_refresh.h</text>
</a>
</g>
</g>
<!-- Node29&#45;&gt;Node30 -->
<g id="edge48" class="edge">
<title>Node29&#45;&gt;Node30</title>
<path fill="none" stroke="#63b8ff" d="M2167.94,-303.67C2170.89,-293.72 2174.49,-281.61 2177.24,-272.36"/>
<polygon fill="#63b8ff" stroke="#63b8ff" points="2164.55,-302.79 2165.06,-313.37 2171.26,-304.78 2164.55,-302.79"/>
</g>
<!-- Node30&#45;&gt;Node26 -->
<g id="edge49" class="edge">
<title>Node30&#45;&gt;Node26</title>
<path fill="none" stroke="#63b8ff" d="M2198.99,-233.61C2207.81,-222.32 2218,-209.28 2224.59,-200.84"/>
<polygon fill="#63b8ff" stroke="#63b8ff" points="2196,-231.76 2192.6,-241.8 2201.51,-236.07 2196,-231.76"/>
</g>
</g>
</svg>
        <g id="navigator" transform="translate(0 0)" fill="#404254">
                <rect fill="#f2f5e9" fill-opacity="0.5" stroke="#606060" stroke-width=".5" x="0" y="0" width="60" height="60"/>
                <use id="zoomplus" xlink:href="#zoomPlus" x="17" y="9" onmousedown="handleZoom(evt,'in')"/>
                <use id="zoomminus" xlink:href="#zoomMin" x="42" y="9" onmousedown="handleZoom(evt,'out')"/>
                <use id="reset" xlink:href="#resetDef" x="30" y="36" onmousedown="handleReset()"/>
                <g id="arrowUp" xlink:href="#dirArrow" transform="translate(30 24)" onmousedown="handlePan(0,-1)">
                  <use xlink:href="#rim" fill="#404040">
                        <set attributeName="fill" to="#808080" begin="arrowUp.mouseover" end="arrowUp.mouseout"/>
                  </use>
                  <path fill="none" stroke="white" stroke-width="1.5" d="M0,-3.0v7 M-2.5,-0.5L0,-3.0L2.5,-0.5"/>
                </g>
                <g id="arrowRight" xlink:href="#dirArrow" transform="rotate(90) translate(36 -43)" onmousedown="handlePan(1,0)">
                  <use xlink:href="#rim" fill="#404040">
                        <set attributeName="fill" to="#808080" begin="arrowRight.mouseover" end="arrowRight.mouseout"/>
                  </use>
                  <path fill="none" stroke="white" stroke-width="1.5" d="M0,-3.0v7 M-2.5,-0.5L0,-3.0L2.5,-0.5"/>
                </g>
                <g id="arrowDown" xlink:href="#dirArrow" transform="rotate(180) translate(-30 -48)" onmousedown="handlePan(0,1)">
                  <use xlink:href="#rim" fill="#404040">
                        <set attributeName="fill" to="#808080" begin="arrowDown.mouseover" end="arrowDown.mouseout"/>
                  </use>
                  <path fill="none" stroke="white" stroke-width="1.5" d="M0,-3.0v7 M-2.5,-0.5L0,-3.0L2.5,-0.5"/>
                </g>
                <g id="arrowLeft" xlink:href="#dirArrow" transform="rotate(270) translate(-36 17)" onmousedown="handlePan(-1,0)">
                  <use xlink:href="#rim" fill="#404040">
                        <set attributeName="fill" to="#808080" begin="arrowLeft.mouseover" end="arrowLeft.mouseout"/>
                  </use>
                  <path fill="none" stroke="white" stroke-width="1.5" d="M0,-3.0v7 M-2.5,-0.5L0,-3.0L2.5,-0.5"/>
                </g>
        </g>
        <svg viewBox="0 0 15 15" width="100%" height="30px" preserveAspectRatio="xMaxYMin meet">
         <g id="arrow_out" transform="scale(0.3 0.3)">
          <a xlink:href="js__plugin_8h__dep__incl_org.svg" target="_base">
           <rect id="button" ry="5" rx="5" y="6" x="6" height="38" width="38"
                fill="#f2f5e9" fill-opacity="0.5" stroke="#606060" stroke-width="1.0"/>
           <path id="arrow"
             d="M 11.500037,31.436501 C 11.940474,20.09759 22.043105,11.32322 32.158766,21.979434 L 37.068811,17.246167 C 37.068811,17.246167 37.088388,32 37.088388,32 L 22.160133,31.978069 C 22.160133,31.978069 26.997745,27.140456 26.997745,27.140456 C 18.528582,18.264221 13.291696,25.230495 11.500037,31.436501 z"
             style="fill:#404040;"/>
          </a>
         </g>
        </svg>
</svg>
