<?xml version="1.0" encoding="UTF-8" standalone="no"?>
<!DOCTYPE svg PUBLIC "-//W3C//DTD SVG 1.1//EN"
 "http://www.w3.org/Graphics/SVG/1.1/DTD/svg11.dtd">
<!-- Generated by graphviz version 2.43.0 (0)
 -->
<!-- Title: include/ccf/service/tables/jwt.h Pages: 1 -->
<svg width="1952pt" height="566pt"
 viewBox="0.00 0.00 1951.50 566.00" xmlns="http://www.w3.org/2000/svg" xmlns:xlink="http://www.w3.org/1999/xlink">
<g id="graph0" class="graph" transform="scale(1 1) rotate(0) translate(4 562)">
<title>include/ccf/service/tables/jwt.h</title>
<!-- Node1 -->
<g id="node1" class="node">
<title>Node1</title>
<g id="a_node1"><a xlink:title=" ">
<polygon fill="#999999" stroke="#666666" points="700,-558 593,-558 593,-528 700,-528 700,-558"/>
<text text-anchor="start" x="601" y="-546" font-family="Helvetica,sans-Serif" font-size="10.00">include/ccf/service</text>
<text text-anchor="middle" x="646.5" y="-535" font-family="Helvetica,sans-Serif" font-size="10.00">/tables/jwt.h</text>
</a>
</g>
</g>
<!-- Node2 -->
<g id="node2" class="node">
<title>Node2</title>
<g id="a_node2"><a xlink:href="jwt__auth_8cpp.html" target="_top" xlink:title=" ">
<polygon fill="white" stroke="#666666" points="303,-492 148,-492 148,-462 303,-462 303,-492"/>
<text text-anchor="start" x="156" y="-480" font-family="Helvetica,sans-Serif" font-size="10.00">src/endpoints/authentication</text>
<text text-anchor="middle" x="225.5" y="-469" font-family="Helvetica,sans-Serif" font-size="10.00">/jwt_auth.cpp</text>
</a>
</g>
</g>
<!-- Node1&#45;&gt;Node2 -->
<g id="edge1" class="edge">
<title>Node1&#45;&gt;Node2</title>
<path fill="none" stroke="#63b8ff" d="M582.65,-532.3C516.36,-522.23 409.67,-506.02 317.5,-492 312.87,-491.3 308.1,-490.57 303.3,-489.84"/>
<polygon fill="#63b8ff" stroke="#63b8ff" points="582.52,-535.82 592.93,-533.86 583.57,-528.9 582.52,-535.82"/>
</g>
<!-- Node3 -->
<g id="node3" class="node">
<title>Node3</title>
<g id="a_node3"><a xlink:href="wrap_8cpp.html" target="_top" xlink:title=" ">
<polygon fill="white" stroke="#666666" points="1764,-244.5 1675,-244.5 1675,-225.5 1764,-225.5 1764,-244.5"/>
<text text-anchor="middle" x="1719.5" y="-232.5" font-family="Helvetica,sans-Serif" font-size="10.00">src/js/wrap.cpp</text>
</a>
</g>
</g>
<!-- Node1&#45;&gt;Node3 -->
<g id="edge2" class="edge">
<title>Node1&#45;&gt;Node3</title>
<path fill="none" stroke="#63b8ff" d="M710.24,-542.65C971.09,-544.47 1943.5,-542.86 1943.5,-417.5 1943.5,-417.5 1943.5,-417.5 1943.5,-360.5 1943.5,-323.13 1933.65,-309.39 1904.5,-286 1864.28,-253.72 1804.94,-242.2 1764.39,-238.14"/>
<polygon fill="#63b8ff" stroke="#63b8ff" points="710.2,-539.15 700.17,-542.57 710.14,-546.15 710.2,-539.15"/>
</g>
<!-- Node4 -->
<g id="node4" class="node">
<title>Node4</title>
<g id="a_node4"><a xlink:href="jwt__key__auto__refresh_8h.html" target="_top" xlink:title=" ">
<polygon fill="white" stroke="#666666" points="999,-250 874,-250 874,-220 999,-220 999,-250"/>
<text text-anchor="start" x="882" y="-238" font-family="Helvetica,sans-Serif" font-size="10.00">src/node/jwt_key_auto</text>
<text text-anchor="middle" x="936.5" y="-227" font-family="Helvetica,sans-Serif" font-size="10.00">_refresh.h</text>
</a>
</g>
</g>
<!-- Node1&#45;&gt;Node4 -->
<g id="edge3" class="edge">
<title>Node1&#45;&gt;Node4</title>
<path fill="none" stroke="#63b8ff" d="M679.24,-522.05C690.62,-513.86 702.72,-503.57 711.5,-492 771.16,-413.36 723.17,-354.23 794.5,-286 807.58,-273.49 848.07,-259.88 882.48,-250.02"/>
<polygon fill="#63b8ff" stroke="#63b8ff" points="677,-519.34 670.74,-527.89 680.96,-525.11 677,-519.34"/>
</g>
<!-- Node9 -->
<g id="node9" class="node">
<title>Node9</title>
<g id="a_node9"><a xlink:href="frontend_8h.html" target="_top" xlink:title=" ">
<polygon fill="white" stroke="#666666" points="489,-371 360,-371 360,-352 489,-352 489,-371"/>
<text text-anchor="middle" x="424.5" y="-359" font-family="Helvetica,sans-Serif" font-size="10.00">src/node/rpc/frontend.h</text>
</a>
</g>
</g>
<!-- Node1&#45;&gt;Node9 -->
<g id="edge9" class="edge">
<title>Node1&#45;&gt;Node9</title>
<path fill="none" stroke="#63b8ff" d="M619.73,-521.73C607.94,-512.72 593.96,-501.92 581.5,-492 525.4,-447.31 459.55,-392.07 434.69,-371.11"/>
<polygon fill="#63b8ff" stroke="#63b8ff" points="617.8,-524.66 627.88,-527.94 622.05,-519.1 617.8,-524.66"/>
</g>
<!-- Node12 -->
<g id="node12" class="node">
<title>Node12</title>
<g id="a_node12"><a xlink:href="member__frontend_8h.html" target="_top" xlink:title=" ">
<polygon fill="white" stroke="#666666" points="331.5,-316 211.5,-316 211.5,-286 331.5,-286 331.5,-316"/>
<text text-anchor="start" x="219.5" y="-304" font-family="Helvetica,sans-Serif" font-size="10.00">src/node/rpc/member</text>
<text text-anchor="middle" x="271.5" y="-293" font-family="Helvetica,sans-Serif" font-size="10.00">_frontend.h</text>
</a>
</g>
</g>
<!-- Node1&#45;&gt;Node12 -->
<g id="edge25" class="edge">
<title>Node1&#45;&gt;Node12</title>
<path fill="none" stroke="#63b8ff" d="M606.31,-523.73C587.06,-514.66 563.82,-503.26 543.5,-492 454.94,-442.93 431.77,-431.38 350.5,-371 326.97,-353.52 301.79,-330.73 286.34,-316.23"/>
<polygon fill="#63b8ff" stroke="#63b8ff" points="604.87,-526.92 615.41,-527.98 607.83,-520.57 604.87,-526.92"/>
</g>
<!-- Node15 -->
<g id="node15" class="node">
<title>Node15</title>
<g id="a_node15"><a xlink:href="jwt__management_8h.html" target="_top" xlink:title=" ">
<polygon fill="white" stroke="#666666" points="1442,-371 1269,-371 1269,-352 1442,-352 1442,-371"/>
<text text-anchor="middle" x="1355.5" y="-359" font-family="Helvetica,sans-Serif" font-size="10.00">src/node/rpc/jwt_management.h</text>
</a>
</g>
</g>
<!-- Node1&#45;&gt;Node15 -->
<g id="edge22" class="edge">
<title>Node1&#45;&gt;Node15</title>
<path fill="none" stroke="#63b8ff" d="M709.79,-525.98C855.59,-489.06 1211.07,-399.07 1321.92,-371"/>
<polygon fill="#63b8ff" stroke="#63b8ff" points="708.92,-522.59 700.08,-528.43 710.63,-529.37 708.92,-522.59"/>
</g>
<!-- Node16 -->
<g id="node16" class="node">
<title>Node16</title>
<g id="a_node16"><a xlink:href="network__tables_8h.html" target="_top" xlink:title=" ">
<polygon fill="white" stroke="#666666" points="702.5,-492 590.5,-492 590.5,-462 702.5,-462 702.5,-492"/>
<text text-anchor="start" x="598.5" y="-480" font-family="Helvetica,sans-Serif" font-size="10.00">src/service/network</text>
<text text-anchor="middle" x="646.5" y="-469" font-family="Helvetica,sans-Serif" font-size="10.00">_tables.h</text>
</a>
</g>
</g>
<!-- Node1&#45;&gt;Node16 -->
<g id="edge26" class="edge">
<title>Node1&#45;&gt;Node16</title>
<path fill="none" stroke="#63b8ff" d="M646.5,-517.54C646.5,-508.96 646.5,-499.61 646.5,-492.16"/>
<polygon fill="#63b8ff" stroke="#63b8ff" points="643,-517.8 646.5,-527.8 650,-517.8 643,-517.8"/>
</g>
<!-- Node5 -->
<g id="node5" class="node">
<title>Node5</title>
<g id="a_node5"><a xlink:href="node__state_8h.html" target="_top" xlink:title=" ">
<polygon fill="white" stroke="#666666" points="575.5,-184 451.5,-184 451.5,-165 575.5,-165 575.5,-184"/>
<text text-anchor="middle" x="513.5" y="-172" font-family="Helvetica,sans-Serif" font-size="10.00">src/node/node_state.h</text>
</a>
</g>
</g>
<!-- Node4&#45;&gt;Node5 -->
<g id="edge4" class="edge">
<title>Node4&#45;&gt;Node5</title>
<path fill="none" stroke="#63b8ff" d="M863.71,-219.94C756.74,-203.01 644,-189.7 575.81,-182.14"/>
<polygon fill="#63b8ff" stroke="#63b8ff" points="863.29,-223.42 873.71,-221.54 864.39,-216.51 863.29,-223.42"/>
</g>
<!-- Node6 -->
<g id="node6" class="node">
<title>Node6</title>
<g id="a_node6"><a xlink:href="src_2enclave_2enclave_8h.html" target="_top" xlink:title=" ">
<polygon fill="white" stroke="#666666" points="571.5,-74 449.5,-74 449.5,-55 571.5,-55 571.5,-74"/>
<text text-anchor="middle" x="510.5" y="-62" font-family="Helvetica,sans-Serif" font-size="10.00">src/enclave/enclave.h</text>
</a>
</g>
</g>
<!-- Node5&#45;&gt;Node6 -->
<g id="edge5" class="edge">
<title>Node5&#45;&gt;Node6</title>
<path fill="none" stroke="#63b8ff" d="M528.33,-156.55C537.5,-143.98 546.61,-126.28 541.5,-110 537.1,-95.99 526.55,-82.53 518.98,-74.15"/>
<polygon fill="#63b8ff" stroke="#63b8ff" points="525.34,-154.69 521.86,-164.7 530.82,-159.05 525.34,-154.69"/>
</g>
<!-- Node8 -->
<g id="node8" class="node">
<title>Node8</title>
<g id="a_node8"><a xlink:href="gov__effects_8h.html" target="_top" xlink:title=" ">
<polygon fill="white" stroke="#666666" points="532.5,-129 388.5,-129 388.5,-110 532.5,-110 532.5,-129"/>
<text text-anchor="middle" x="460.5" y="-117" font-family="Helvetica,sans-Serif" font-size="10.00">src/node/rpc/gov_effects.h</text>
</a>
</g>
</g>
<!-- Node5&#45;&gt;Node8 -->
<g id="edge7" class="edge">
<title>Node5&#45;&gt;Node8</title>
<path fill="none" stroke="#63b8ff" d="M497.52,-157.52C488.18,-148.18 476.75,-136.75 469.09,-129.09"/>
<polygon fill="#63b8ff" stroke="#63b8ff" points="495.2,-160.15 504.75,-164.75 500.15,-155.2 495.2,-160.15"/>
</g>
<!-- Node7 -->
<g id="node7" class="node">
<title>Node7</title>
<g id="a_node7"><a xlink:href="enclave_2main_8cpp.html" target="_top" xlink:title=" ">
<polygon fill="white" stroke="#666666" points="570.5,-19 450.5,-19 450.5,0 570.5,0 570.5,-19"/>
<text text-anchor="middle" x="510.5" y="-7" font-family="Helvetica,sans-Serif" font-size="10.00">src/enclave/main.cpp</text>
</a>
</g>
</g>
<!-- Node6&#45;&gt;Node7 -->
<g id="edge6" class="edge">
<title>Node6&#45;&gt;Node7</title>
<path fill="none" stroke="#63b8ff" d="M510.5,-44.66C510.5,-35.93 510.5,-25.99 510.5,-19.09"/>
<polygon fill="#63b8ff" stroke="#63b8ff" points="507,-44.75 510.5,-54.75 514,-44.75 507,-44.75"/>
</g>
<!-- Node8&#45;&gt;Node6 -->
<g id="edge8" class="edge">
<title>Node8&#45;&gt;Node6</title>
<path fill="none" stroke="#63b8ff" d="M475.84,-102.24C484.6,-92.95 495.24,-81.68 502.4,-74.09"/>
<polygon fill="#63b8ff" stroke="#63b8ff" points="473.07,-100.07 468.76,-109.75 478.16,-104.88 473.07,-100.07"/>
</g>
<!-- Node9&#45;&gt;Node5 -->
<g id="edge14" class="edge">
<title>Node9&#45;&gt;Node5</title>
<path fill="none" stroke="#63b8ff" d="M405.3,-345.24C373.82,-318.37 317.74,-261.53 349.5,-220 362.31,-203.24 411.99,-191.32 453.34,-184.06"/>
<polygon fill="#63b8ff" stroke="#63b8ff" points="403.15,-348 413.07,-351.69 407.62,-342.61 403.15,-348"/>
</g>
<!-- Node10 -->
<g id="node10" class="node">
<title>Node10</title>
<g id="a_node10"><a xlink:href="acme__challenge__frontend_8h.html" target="_top" xlink:title=" ">
<polygon fill="white" stroke="#666666" points="527.5,-316 387.5,-316 387.5,-286 527.5,-286 527.5,-316"/>
<text text-anchor="start" x="395.5" y="-304" font-family="Helvetica,sans-Serif" font-size="10.00">src/node/acme_challenge</text>
<text text-anchor="middle" x="457.5" y="-293" font-family="Helvetica,sans-Serif" font-size="10.00">_frontend.h</text>
</a>
</g>
</g>
<!-- Node9&#45;&gt;Node10 -->
<g id="edge10" class="edge">
<title>Node9&#45;&gt;Node10</title>
<path fill="none" stroke="#63b8ff" d="M434.34,-343.05C439.19,-334.45 444.97,-324.21 449.54,-316.11"/>
<polygon fill="#63b8ff" stroke="#63b8ff" points="431.23,-341.44 429.37,-351.87 437.33,-344.88 431.23,-341.44"/>
</g>
<!-- Node9&#45;&gt;Node12 -->
<g id="edge15" class="edge">
<title>Node9&#45;&gt;Node12</title>
<path fill="none" stroke="#63b8ff" d="M392.68,-348.33C368.09,-338.93 334.03,-325.91 308.28,-316.06"/>
<polygon fill="#63b8ff" stroke="#63b8ff" points="391.66,-351.69 402.25,-351.99 394.16,-345.15 391.66,-351.69"/>
</g>
<!-- Node13 -->
<g id="node13" class="node">
<title>Node13</title>
<g id="a_node13"><a xlink:href="node__frontend_8h.html" target="_top" xlink:title=" ">
<polygon fill="white" stroke="#666666" points="961.5,-310.5 803.5,-310.5 803.5,-291.5 961.5,-291.5 961.5,-310.5"/>
<text text-anchor="middle" x="882.5" y="-298.5" font-family="Helvetica,sans-Serif" font-size="10.00">src/node/rpc/node_frontend.h</text>
</a>
</g>
</g>
<!-- Node9&#45;&gt;Node13 -->
<g id="edge17" class="edge">
<title>Node9&#45;&gt;Node13</title>
<path fill="none" stroke="#63b8ff" d="M499.32,-350.94C587.24,-339.71 731.78,-321.25 815.95,-310.5"/>
<polygon fill="#63b8ff" stroke="#63b8ff" points="498.62,-347.5 489.15,-352.24 499.51,-354.45 498.62,-347.5"/>
</g>
<!-- Node14 -->
<g id="node14" class="node">
<title>Node14</title>
<g id="a_node14"><a xlink:href="user__frontend_8h.html" target="_top" xlink:title=" ">
<polygon fill="white" stroke="#666666" points="155,-310.5 0,-310.5 0,-291.5 155,-291.5 155,-310.5"/>
<text text-anchor="middle" x="77.5" y="-298.5" font-family="Helvetica,sans-Serif" font-size="10.00">src/node/rpc/user_frontend.h</text>
</a>
</g>
</g>
<!-- Node9&#45;&gt;Node14 -->
<g id="edge20" class="edge">
<title>Node9&#45;&gt;Node14</title>
<path fill="none" stroke="#63b8ff" d="M364.07,-350.31C297.2,-339.04 190.62,-321.07 128.02,-310.52"/>
<polygon fill="#63b8ff" stroke="#63b8ff" points="363.6,-353.78 374.04,-351.99 364.76,-346.88 363.6,-353.78"/>
</g>
<!-- Node10&#45;&gt;Node6 -->
<g id="edge11" class="edge">
<title>Node10&#45;&gt;Node6</title>
<path fill="none" stroke="#63b8ff" d="M388.05,-281.77C372.83,-274.43 358.58,-264.2 349.5,-250 342.32,-238.76 347.73,-233.22 349.5,-220 356.23,-169.77 344.78,-146.91 379.5,-110 397.68,-90.67 424.58,-79.73 449.27,-73.55"/>
<polygon fill="#63b8ff" stroke="#63b8ff" points="387.04,-285.16 397.61,-285.98 389.87,-278.75 387.04,-285.16"/>
</g>
<!-- Node11 -->
<g id="node11" class="node">
<title>Node11</title>
<g id="a_node11"><a xlink:href="ccf__acme__client_8h.html" target="_top" xlink:title=" ">
<polygon fill="white" stroke="#666666" points="540,-244.5 391,-244.5 391,-225.5 540,-225.5 540,-244.5"/>
<text text-anchor="middle" x="465.5" y="-232.5" font-family="Helvetica,sans-Serif" font-size="10.00">src/node/ccf_acme_client.h</text>
</a>
</g>
</g>
<!-- Node10&#45;&gt;Node11 -->
<g id="edge12" class="edge">
<title>Node10&#45;&gt;Node11</title>
<path fill="none" stroke="#63b8ff" d="M460.55,-275.6C461.9,-264.8 463.4,-252.78 464.39,-244.84"/>
<polygon fill="#63b8ff" stroke="#63b8ff" points="457.04,-275.44 459.28,-285.8 463.99,-276.31 457.04,-275.44"/>
</g>
<!-- Node11&#45;&gt;Node5 -->
<g id="edge13" class="edge">
<title>Node11&#45;&gt;Node5</title>
<path fill="none" stroke="#63b8ff" d="M479.08,-217.45C487.96,-206.62 499.22,-192.91 506.39,-184.17"/>
<polygon fill="#63b8ff" stroke="#63b8ff" points="476.22,-215.42 472.58,-225.37 481.63,-219.86 476.22,-215.42"/>
</g>
<!-- Node12&#45;&gt;Node6 -->
<g id="edge16" class="edge">
<title>Node12&#45;&gt;Node6</title>
<path fill="none" stroke="#63b8ff" d="M276.25,-275.93C285.47,-235.63 309.62,-154.53 361.5,-110 385.98,-88.99 420.07,-77.9 449.47,-72.04"/>
<polygon fill="#63b8ff" stroke="#63b8ff" points="272.79,-275.41 274.08,-285.93 279.63,-276.9 272.79,-275.41"/>
</g>
<!-- Node13&#45;&gt;Node4 -->
<g id="edge19" class="edge">
<title>Node13&#45;&gt;Node4</title>
<path fill="none" stroke="#63b8ff" d="M896.38,-283.54C905.04,-273.28 916.08,-260.2 924.38,-250.36"/>
<polygon fill="#63b8ff" stroke="#63b8ff" points="893.56,-281.47 889.78,-291.37 898.91,-285.98 893.56,-281.47"/>
</g>
<!-- Node13&#45;&gt;Node6 -->
<g id="edge18" class="edge">
<title>Node13&#45;&gt;Node6</title>
<path fill="none" stroke="#63b8ff" d="M932.05,-288.78C976.75,-276.25 1032,-253.27 1007.5,-220 953.99,-147.33 681.4,-94 564.19,-74.07"/>
<polygon fill="#63b8ff" stroke="#63b8ff" points="930.88,-285.47 922.13,-291.44 932.7,-292.23 930.88,-285.47"/>
</g>
<!-- Node14&#45;&gt;Node6 -->
<g id="edge21" class="edge">
<title>Node14&#45;&gt;Node6</title>
<path fill="none" stroke="#63b8ff" d="M94.13,-284.5C133.69,-248.47 237.77,-158.47 340.5,-110 377.89,-92.36 423.32,-80.93 457.81,-74.07"/>
<polygon fill="#63b8ff" stroke="#63b8ff" points="91.69,-281.99 86.7,-291.34 96.43,-287.15 91.69,-281.99"/>
</g>
<!-- Node15&#45;&gt;Node3 -->
<g id="edge23" class="edge">
<title>Node15&#45;&gt;Node3</title>
<path fill="none" stroke="#63b8ff" d="M1452.3,-359.33C1597.48,-356.55 1857.78,-347.23 1886.5,-316 1925.89,-273.17 1826.1,-250.91 1764.25,-241.55"/>
<polygon fill="#63b8ff" stroke="#63b8ff" points="1451.98,-355.83 1442.05,-359.52 1452.11,-362.83 1451.98,-355.83"/>
</g>
<!-- Node15&#45;&gt;Node13 -->
<g id="edge24" class="edge">
<title>Node15&#45;&gt;Node13</title>
<path fill="none" stroke="#63b8ff" d="M1276.75,-350.76C1185.86,-339.52 1037.84,-321.21 951.36,-310.52"/>
<polygon fill="#63b8ff" stroke="#63b8ff" points="1276.37,-354.24 1286.72,-351.99 1277.23,-347.29 1276.37,-354.24"/>
</g>
<!-- Node16&#45;&gt;Node11 -->
<g id="edge27" class="edge">
<title>Node16&#45;&gt;Node11</title>
<path fill="none" stroke="#63b8ff" d="M673.53,-454.97C686.93,-441.84 698.83,-424.21 691.5,-407 653.31,-317.38 539,-264.1 489.16,-244.55"/>
<polygon fill="#63b8ff" stroke="#63b8ff" points="671.09,-452.46 666.04,-461.78 675.8,-457.64 671.09,-452.46"/>
</g>
<!-- Node17 -->
<g id="node17" class="node">
<title>Node17</title>
<g id="a_node17"><a xlink:href="network__state_8h.html" target="_top" xlink:title=" ">
<polygon fill="white" stroke="#666666" points="682.5,-426 542.5,-426 542.5,-407 682.5,-407 682.5,-426"/>
<text text-anchor="middle" x="612.5" y="-414" font-family="Helvetica,sans-Serif" font-size="10.00">src/node/network_state.h</text>
</a>
</g>
</g>
<!-- Node16&#45;&gt;Node17 -->
<g id="edge28" class="edge">
<title>Node16&#45;&gt;Node17</title>
<path fill="none" stroke="#63b8ff" d="M633.09,-452.92C627.65,-443.56 621.69,-433.32 617.59,-426.27"/>
<polygon fill="#63b8ff" stroke="#63b8ff" points="630.22,-454.95 638.27,-461.84 636.27,-451.43 630.22,-454.95"/>
</g>
<!-- Node17&#45;&gt;Node5 -->
<g id="edge47" class="edge">
<title>Node17&#45;&gt;Node5</title>
<path fill="none" stroke="#63b8ff" d="M606.96,-397.1C597.41,-368.66 575.06,-314.36 536.5,-286 479.53,-244.1 425.49,-305.38 381.5,-250 354.41,-215.9 417.52,-194.75 465.52,-184.06"/>
<polygon fill="#63b8ff" stroke="#63b8ff" points="603.72,-398.47 610.09,-406.94 610.39,-396.35 603.72,-398.47"/>
</g>
<!-- Node17&#45;&gt;Node6 -->
<g id="edge29" class="edge">
<title>Node17&#45;&gt;Node6</title>
<path fill="none" stroke="#63b8ff" d="M692.79,-410.34C830.65,-397.8 1091.56,-355.91 1025.5,-220 1008.2,-184.41 990.27,-183.88 955.5,-165 830.28,-96.99 661.15,-75.43 571.77,-68.62"/>
<polygon fill="#63b8ff" stroke="#63b8ff" points="692.33,-406.87 682.67,-411.23 692.94,-413.84 692.33,-406.87"/>
</g>
<!-- Node17&#45;&gt;Node10 -->
<g id="edge46" class="edge">
<title>Node17&#45;&gt;Node10</title>
<path fill="none" stroke="#63b8ff" d="M589.13,-401.88C575.04,-393.42 556.9,-382.08 541.5,-371 516.84,-353.25 489.97,-330.54 473.43,-316.12"/>
<polygon fill="#63b8ff" stroke="#63b8ff" points="587.35,-404.9 597.73,-406.99 590.92,-398.88 587.35,-404.9"/>
</g>
<!-- Node17&#45;&gt;Node13 -->
<g id="edge48" class="edge">
<title>Node17&#45;&gt;Node13</title>
<path fill="none" stroke="#63b8ff" d="M628.72,-399.48C644.16,-385.08 668.66,-364.36 693.5,-352 735.89,-330.91 788.2,-317.95 827.04,-310.53"/>
<polygon fill="#63b8ff" stroke="#63b8ff" points="625.94,-397.29 621.13,-406.73 630.78,-402.35 625.94,-397.29"/>
</g>
<!-- Node17&#45;&gt;Node14 -->
<g id="edge49" class="edge">
<title>Node17&#45;&gt;Node14</title>
<path fill="none" stroke="#63b8ff" d="M532.16,-414.16C417.84,-411.19 214.71,-401.64 148.5,-371 118.86,-357.29 94.11,-325.92 83.31,-310.66"/>
<polygon fill="#63b8ff" stroke="#63b8ff" points="532.18,-417.67 542.26,-414.42 532.35,-410.67 532.18,-417.67"/>
</g>
<!-- Node18 -->
<g id="node18" class="node">
<title>Node18</title>
<g id="a_node18"><a xlink:href="wrap_8h.html" target="_top" xlink:title=" ">
<polygon fill="white" stroke="#666666" points="1250.5,-371 1172.5,-371 1172.5,-352 1250.5,-352 1250.5,-371"/>
<text text-anchor="middle" x="1211.5" y="-359" font-family="Helvetica,sans-Serif" font-size="10.00">src/js/wrap.h</text>
</a>
</g>
</g>
<!-- Node17&#45;&gt;Node18 -->
<g id="edge30" class="edge">
<title>Node17&#45;&gt;Node18</title>
<path fill="none" stroke="#63b8ff" d="M692.99,-408.38C823.27,-396.85 1075.52,-374.53 1172.34,-365.96"/>
<polygon fill="#63b8ff" stroke="#63b8ff" points="692.33,-404.92 682.68,-409.29 692.95,-411.9 692.33,-404.92"/>
</g>
<!-- Node25 -->
<g id="node25" class="node">
<title>Node25</title>
<g id="a_node25"><a xlink:href="secret__broadcast_8h.html" target="_top" xlink:title=" ">
<polygon fill="white" stroke="#666666" points="711,-244.5 558,-244.5 558,-225.5 711,-225.5 711,-244.5"/>
<text text-anchor="middle" x="634.5" y="-232.5" font-family="Helvetica,sans-Serif" font-size="10.00">src/node/secret_broadcast.h</text>
</a>
</g>
</g>
<!-- Node17&#45;&gt;Node25 -->
<g id="edge50" class="edge">
<title>Node17&#45;&gt;Node25</title>
<path fill="none" stroke="#63b8ff" d="M613.65,-396.65C614.51,-384 615.81,-366.98 617.5,-352 622.03,-311.75 629.79,-263.98 633.02,-244.71"/>
<polygon fill="#63b8ff" stroke="#63b8ff" points="610.15,-396.65 613,-406.85 617.13,-397.1 610.15,-396.65"/>
</g>
<!-- Node26 -->
<g id="node26" class="node">
<title>Node26</title>
<g id="a_node26"><a xlink:href="share__manager_8h.html" target="_top" xlink:title=" ">
<polygon fill="white" stroke="#666666" points="303,-371 158,-371 158,-352 303,-352 303,-371"/>
<text text-anchor="middle" x="230.5" y="-359" font-family="Helvetica,sans-Serif" font-size="10.00">src/node/share_manager.h</text>
</a>
</g>
</g>
<!-- Node17&#45;&gt;Node26 -->
<g id="edge52" class="edge">
<title>Node17&#45;&gt;Node26</title>
<path fill="none" stroke="#63b8ff" d="M540.83,-405.56C469.11,-395.61 359.95,-380.46 292.04,-371.04"/>
<polygon fill="#63b8ff" stroke="#63b8ff" points="540.74,-409.08 551.13,-406.98 541.7,-402.14 540.74,-409.08"/>
</g>
<!-- Node27 -->
<g id="node27" class="node">
<title>Node27</title>
<g id="a_node27"><a xlink:href="snapshotter_8h.html" target="_top" xlink:title=" ">
<polygon fill="white" stroke="#666666" points="856,-244.5 729,-244.5 729,-225.5 856,-225.5 856,-244.5"/>
<text text-anchor="middle" x="792.5" y="-232.5" font-family="Helvetica,sans-Serif" font-size="10.00">src/node/snapshotter.h</text>
</a>
</g>
</g>
<!-- Node17&#45;&gt;Node27 -->
<g id="edge55" class="edge">
<title>Node17&#45;&gt;Node27</title>
<path fill="none" stroke="#63b8ff" d="M624.13,-398.7C633.58,-385.48 647.59,-366.88 661.5,-352 702.36,-308.28 757.91,-263.15 781.34,-244.68"/>
<polygon fill="#63b8ff" stroke="#63b8ff" points="621.27,-396.68 618.37,-406.87 626.99,-400.72 621.27,-396.68"/>
</g>
<!-- Node18&#45;&gt;Node3 -->
<g id="edge42" class="edge">
<title>Node18&#45;&gt;Node3</title>
<path fill="none" stroke="#63b8ff" d="M1260.84,-350.46C1290.26,-343.29 1327.73,-332.06 1358.5,-316 1377.57,-306.04 1376.77,-294.6 1396.5,-286 1489.75,-245.37 1610.77,-237.12 1674.96,-235.83"/>
<polygon fill="#63b8ff" stroke="#63b8ff" points="1259.73,-347.12 1250.8,-352.82 1261.33,-353.93 1259.73,-347.12"/>
</g>
<!-- Node18&#45;&gt;Node5 -->
<g id="edge43" class="edge">
<title>Node18&#45;&gt;Node5</title>
<path fill="none" stroke="#63b8ff" d="M1161.93,-358.56C1125.97,-354.68 1078.26,-344.09 1046.5,-316 1012,-285.49 1044.51,-247.41 1007.5,-220 973.5,-194.83 700.64,-182.08 575.64,-177.51"/>
<polygon fill="#63b8ff" stroke="#63b8ff" points="1161.93,-362.08 1172.21,-359.53 1162.58,-355.11 1161.93,-362.08"/>
</g>
<!-- Node18&#45;&gt;Node6 -->
<g id="edge32" class="edge">
<title>Node18&#45;&gt;Node6</title>
<path fill="none" stroke="#63b8ff" d="M1211.5,-341.74C1211.5,-317.37 1211.5,-273.51 1211.5,-236 1211.5,-236 1211.5,-236 1211.5,-173.5 1211.5,-123.08 1165.14,-126.51 1117.5,-110 1017.91,-75.48 704.91,-67.74 571.6,-66"/>
<polygon fill="#63b8ff" stroke="#63b8ff" points="1208,-341.75 1211.5,-351.75 1215,-341.75 1208,-341.75"/>
</g>
<!-- Node18&#45;&gt;Node12 -->
<g id="edge44" class="edge">
<title>Node18&#45;&gt;Node12</title>
<path fill="none" stroke="#63b8ff" d="M1162.05,-359.18C1032.95,-355.46 675.18,-343.29 378.5,-316 363.3,-314.6 346.93,-312.67 331.68,-310.7"/>
<polygon fill="#63b8ff" stroke="#63b8ff" points="1162.29,-362.69 1172.39,-359.48 1162.49,-355.69 1162.29,-362.69"/>
</g>
<!-- Node18&#45;&gt;Node13 -->
<g id="edge45" class="edge">
<title>Node18&#45;&gt;Node13</title>
<path fill="none" stroke="#63b8ff" d="M1162.46,-351.78C1099.94,-340.66 992.56,-321.57 930.53,-310.54"/>
<polygon fill="#63b8ff" stroke="#63b8ff" points="1162.01,-355.25 1172.47,-353.56 1163.23,-348.36 1162.01,-355.25"/>
</g>
<!-- Node19 -->
<g id="node19" class="node">
<title>Node19</title>
<g id="a_node19"><a xlink:href="js__generic__base_8cpp.html" target="_top" xlink:title=" ">
<polygon fill="white" stroke="#666666" points="1657.5,-316 1539.5,-316 1539.5,-286 1657.5,-286 1657.5,-316"/>
<text text-anchor="start" x="1547.5" y="-304" font-family="Helvetica,sans-Serif" font-size="10.00">src/apps/js_generic</text>
<text text-anchor="middle" x="1598.5" y="-293" font-family="Helvetica,sans-Serif" font-size="10.00">/js_generic_base.cpp</text>
</a>
</g>
</g>
<!-- Node18&#45;&gt;Node19 -->
<g id="edge31" class="edge">
<title>Node18&#45;&gt;Node19</title>
<path fill="none" stroke="#63b8ff" d="M1260.2,-352.05C1260.3,-352.03 1260.4,-352.02 1260.5,-352 1380.16,-333.65 1411.14,-336.22 1530.5,-316 1533.35,-315.52 1536.27,-315 1539.21,-314.46"/>
<polygon fill="#63b8ff" stroke="#63b8ff" points="1259.85,-348.56 1250.53,-353.59 1260.95,-355.47 1259.85,-348.56"/>
</g>
<!-- Node20 -->
<g id="node20" class="node">
<title>Node20</title>
<g id="a_node20"><a xlink:href="consensus_8cpp.html" target="_top" xlink:title=" ">
<polygon fill="white" stroke="#666666" points="1521.5,-310.5 1405.5,-310.5 1405.5,-291.5 1521.5,-291.5 1521.5,-310.5"/>
<text text-anchor="middle" x="1463.5" y="-298.5" font-family="Helvetica,sans-Serif" font-size="10.00">src/js/consensus.cpp</text>
</a>
</g>
</g>
<!-- Node18&#45;&gt;Node20 -->
<g id="edge33" class="edge">
<title>Node18&#45;&gt;Node20</title>
<path fill="none" stroke="#63b8ff" d="M1258.11,-349.68C1306.8,-338.38 1382.19,-320.88 1426.81,-310.52"/>
<polygon fill="#63b8ff" stroke="#63b8ff" points="1257.09,-346.32 1248.14,-351.99 1258.68,-353.14 1257.09,-346.32"/>
</g>
<!-- Node21 -->
<g id="node21" class="node">
<title>Node21</title>
<g id="a_node21"><a xlink:href="conv_8cpp.html" target="_top" xlink:title=" ">
<polygon fill="white" stroke="#666666" points="1763.5,-310.5 1675.5,-310.5 1675.5,-291.5 1763.5,-291.5 1763.5,-310.5"/>
<text text-anchor="middle" x="1719.5" y="-298.5" font-family="Helvetica,sans-Serif" font-size="10.00">src/js/conv.cpp</text>
</a>
</g>
</g>
<!-- Node18&#45;&gt;Node21 -->
<g id="edge35" class="edge">
<title>Node18&#45;&gt;Node21</title>
<path fill="none" stroke="#63b8ff" d="M1260.19,-352.04C1260.3,-352.03 1260.4,-352.01 1260.5,-352 1440.12,-328.5 1488.06,-347.24 1666.5,-316 1674.47,-314.6 1682.99,-312.59 1690.81,-310.53"/>
<polygon fill="#63b8ff" stroke="#63b8ff" points="1259.9,-348.55 1250.5,-353.43 1260.9,-355.47 1259.9,-348.55"/>
</g>
<!-- Node22 -->
<g id="node22" class="node">
<title>Node22</title>
<g id="a_node22"><a xlink:href="crypto_8cpp.html" target="_top" xlink:title=" ">
<polygon fill="white" stroke="#666666" points="1877.5,-310.5 1781.5,-310.5 1781.5,-291.5 1877.5,-291.5 1877.5,-310.5"/>
<text text-anchor="middle" x="1829.5" y="-298.5" font-family="Helvetica,sans-Serif" font-size="10.00">src/js/crypto.cpp</text>
</a>
</g>
</g>
<!-- Node18&#45;&gt;Node22 -->
<g id="edge37" class="edge">
<title>Node18&#45;&gt;Node22</title>
<path fill="none" stroke="#63b8ff" d="M1261.03,-352.1C1488.75,-325.24 1550.44,-350.82 1772.5,-316 1781.16,-314.64 1790.43,-312.62 1798.93,-310.53"/>
<polygon fill="#63b8ff" stroke="#63b8ff" points="1260.27,-348.66 1250.76,-353.33 1261.11,-355.61 1260.27,-348.66"/>
</g>
<!-- Node23 -->
<g id="node23" class="node">
<title>Node23</title>
<g id="a_node23"><a xlink:href="historical_8cpp.html" target="_top" xlink:title=" ">
<polygon fill="white" stroke="#666666" points="1349.5,-310.5 1239.5,-310.5 1239.5,-291.5 1349.5,-291.5 1349.5,-310.5"/>
<text text-anchor="middle" x="1294.5" y="-298.5" font-family="Helvetica,sans-Serif" font-size="10.00">src/js/historical.cpp</text>
</a>
</g>
</g>
<!-- Node18&#45;&gt;Node23 -->
<g id="edge39" class="edge">
<title>Node18&#45;&gt;Node23</title>
<path fill="none" stroke="#63b8ff" d="M1232.29,-345.85C1248.01,-334.77 1269.06,-319.93 1282.2,-310.67"/>
<polygon fill="#63b8ff" stroke="#63b8ff" points="1229.9,-343.25 1223.75,-351.87 1233.94,-348.97 1229.9,-343.25"/>
</g>
<!-- Node24 -->
<g id="node24" class="node">
<title>Node24</title>
<g id="a_node24"><a xlink:href="openenclave_8cpp.html" target="_top" xlink:title=" ">
<polygon fill="white" stroke="#666666" points="1183.5,-310.5 1055.5,-310.5 1055.5,-291.5 1183.5,-291.5 1183.5,-310.5"/>
<text text-anchor="middle" x="1119.5" y="-298.5" font-family="Helvetica,sans-Serif" font-size="10.00">src/js/openenclave.cpp</text>
</a>
</g>
</g>
<!-- Node18&#45;&gt;Node24 -->
<g id="edge41" class="edge">
<title>Node18&#45;&gt;Node24</title>
<path fill="none" stroke="#63b8ff" d="M1189.43,-346.47C1171.91,-335.32 1147.97,-320.1 1133.13,-310.67"/>
<polygon fill="#63b8ff" stroke="#63b8ff" points="1187.61,-349.46 1197.93,-351.87 1191.36,-343.55 1187.61,-349.46"/>
</g>
<!-- Node20&#45;&gt;Node3 -->
<g id="edge34" class="edge">
<title>Node20&#45;&gt;Node3</title>
<path fill="none" stroke="#63b8ff" d="M1507.73,-288.94C1558.2,-276.32 1639.66,-255.96 1685.44,-244.51"/>
<polygon fill="#63b8ff" stroke="#63b8ff" points="1506.61,-285.61 1497.76,-291.44 1508.31,-292.41 1506.61,-285.61"/>
</g>
<!-- Node21&#45;&gt;Node3 -->
<g id="edge36" class="edge">
<title>Node21&#45;&gt;Node3</title>
<path fill="none" stroke="#63b8ff" d="M1719.5,-281.08C1719.5,-269.13 1719.5,-254.22 1719.5,-244.91"/>
<polygon fill="#63b8ff" stroke="#63b8ff" points="1716,-281.37 1719.5,-291.37 1723,-281.37 1716,-281.37"/>
</g>
<!-- Node22&#45;&gt;Node3 -->
<g id="edge38" class="edge">
<title>Node22&#45;&gt;Node3</title>
<path fill="none" stroke="#63b8ff" d="M1805.76,-286.19C1784.12,-273.59 1752.79,-255.37 1734.45,-244.7"/>
<polygon fill="#63b8ff" stroke="#63b8ff" points="1804.26,-289.36 1814.66,-291.37 1807.78,-283.31 1804.26,-289.36"/>
</g>
<!-- Node23&#45;&gt;Node3 -->
<g id="edge40" class="edge">
<title>Node23&#45;&gt;Node3</title>
<path fill="none" stroke="#63b8ff" d="M1344.49,-289.49C1350.87,-288.25 1357.33,-287.06 1363.5,-286 1475.15,-266.85 1607.43,-249.72 1674.97,-241.37"/>
<polygon fill="#63b8ff" stroke="#63b8ff" points="1343.69,-286.08 1334.56,-291.44 1345.05,-292.94 1343.69,-286.08"/>
</g>
<!-- Node25&#45;&gt;Node5 -->
<g id="edge51" class="edge">
<title>Node25&#45;&gt;Node5</title>
<path fill="none" stroke="#63b8ff" d="M607.89,-221.13C584.55,-209.85 551.29,-193.77 531.12,-184.02"/>
<polygon fill="#63b8ff" stroke="#63b8ff" points="606.38,-224.29 616.91,-225.49 609.43,-217.99 606.38,-224.29"/>
</g>
<!-- Node26&#45;&gt;Node5 -->
<g id="edge53" class="edge">
<title>Node26&#45;&gt;Node5</title>
<path fill="none" stroke="#63b8ff" d="M216.02,-343.94C204.16,-328.25 191.04,-304.41 202.5,-286 254.41,-202.56 376.35,-181.33 451.18,-176.4"/>
<polygon fill="#63b8ff" stroke="#63b8ff" points="213.31,-346.15 222.32,-351.73 218.75,-341.75 213.31,-346.15"/>
</g>
<!-- Node26&#45;&gt;Node12 -->
<g id="edge54" class="edge">
<title>Node26&#45;&gt;Node12</title>
<path fill="none" stroke="#63b8ff" d="M242.34,-343.61C248.45,-334.89 255.81,-324.39 261.61,-316.11"/>
<polygon fill="#63b8ff" stroke="#63b8ff" points="239.42,-341.67 236.55,-351.87 245.16,-345.69 239.42,-341.67"/>
</g>
<!-- Node27&#45;&gt;Node5 -->
<g id="edge56" class="edge">
<title>Node27&#45;&gt;Node5</title>
<path fill="none" stroke="#63b8ff" d="M741.91,-223.39C688.04,-212.1 603.83,-194.44 554.12,-184.02"/>
<polygon fill="#63b8ff" stroke="#63b8ff" points="741.43,-226.87 751.93,-225.49 742.86,-220.02 741.43,-226.87"/>
</g>
</g>
</svg>
