<?xml version="1.0" encoding="UTF-8" standalone="no"?>
<!DOCTYPE svg PUBLIC "-//W3C//DTD SVG 1.1//EN"
 "http://www.w3.org/Graphics/SVG/1.1/DTD/svg11.dtd">
<!-- Generated by graphviz version 2.43.0 (0)
 -->
<!-- Title: src/indexing/lfs_ringbuffer_types.h Pages: 1 -->
<svg width="1125pt" height="269pt"
 viewBox="0.00 0.00 1124.82 269.00" xmlns="http://www.w3.org/2000/svg" xmlns:xlink="http://www.w3.org/1999/xlink">
<g id="graph0" class="graph" transform="scale(1 1) rotate(0) translate(4 265)">
<title>src/indexing/lfs_ringbuffer_types.h</title>
<!-- Node1 -->
<g id="node1" class="node">
<title>Node1</title>
<g id="a_node1"><a xlink:title=" ">
<polygon fill="#999999" stroke="#666666" points="391.82,-261 248.82,-261 248.82,-231 391.82,-231 391.82,-261"/>
<text text-anchor="start" x="256.82" y="-249" font-family="Helvetica,sans-Serif" font-size="10.00">src/indexing/lfs_ringbuffer</text>
<text text-anchor="middle" x="320.32" y="-238" font-family="Helvetica,sans-Serif" font-size="10.00">_types.h</text>
</a>
</g>
</g>
<!-- Node2 -->
<g id="node2" class="node">
<title>Node2</title>
<g id="a_node2"><a xlink:href="ring__buffer__types_8h.html" target="_top" xlink:title=" ">
<polygon fill="white" stroke="#666666" points="492.82,-195 367.82,-195 367.82,-176 492.82,-176 492.82,-195"/>
<text text-anchor="middle" x="430.32" y="-183" font-family="Helvetica,sans-Serif" font-size="10.00">ds/ring_buffer_types.h</text>
</a>
</g>
</g>
<!-- Node1&#45;&gt;Node2 -->
<g id="edge1" class="edge">
<title>Node1&#45;&gt;Node2</title>
<path fill="none" stroke="#63b8ff" d="M346.67,-230.99C364.36,-221.58 387.55,-209.24 405.03,-199.95"/>
<polygon fill="#63b8ff" stroke="#63b8ff" points="406.89,-202.92 414.07,-195.14 403.6,-196.74 406.89,-202.92"/>
</g>
<!-- Node26 -->
<g id="node26" class="node">
<title>Node26</title>
<g id="a_node26"><a xlink:href="lfs__interface_8h.html" target="_top" xlink:title=" ">
<polygon fill="white" stroke="#666666" points="249.82,-140 118.82,-140 118.82,-121 249.82,-121 249.82,-140"/>
<text text-anchor="middle" x="184.32" y="-128" font-family="Helvetica,sans-Serif" font-size="10.00">indexing/lfs_interface.h</text>
</a>
</g>
</g>
<!-- Node1&#45;&gt;Node26 -->
<g id="edge39" class="edge">
<title>Node1&#45;&gt;Node26</title>
<path fill="none" stroke="#63b8ff" d="M303.37,-230.85C277.67,-209.41 229.04,-168.82 202.58,-146.74"/>
<polygon fill="#63b8ff" stroke="#63b8ff" points="204.75,-143.99 194.83,-140.27 200.26,-149.37 204.75,-143.99"/>
</g>
<!-- Node3 -->
<g id="node3" class="node">
<title>Node3</title>
<g id="a_node3"><a xlink:href="include_2ccf_2ds_2hash_8h.html" target="_top" xlink:title=" ">
<polygon fill="white" stroke="#666666" points="893.32,-140 813.32,-140 813.32,-121 893.32,-121 893.32,-140"/>
<text text-anchor="middle" x="853.32" y="-128" font-family="Helvetica,sans-Serif" font-size="10.00">ccf/ds/hash.h</text>
</a>
</g>
</g>
<!-- Node2&#45;&gt;Node3 -->
<g id="edge2" class="edge">
<title>Node2&#45;&gt;Node3</title>
<path fill="none" stroke="#63b8ff" d="M493.19,-176.62C577.55,-166.05 725.69,-147.49 803.06,-137.8"/>
<polygon fill="#63b8ff" stroke="#63b8ff" points="803.56,-141.26 813.04,-136.55 802.68,-134.32 803.56,-141.26"/>
</g>
<!-- Node7 -->
<g id="node7" class="node">
<title>Node7</title>
<g id="a_node7"><a xlink:title=" ">
<polygon fill="#e0e0e0" stroke="#999999" points="698.82,-19 651.82,-19 651.82,0 698.82,0 698.82,-19"/>
<text text-anchor="middle" x="675.32" y="-7" font-family="Helvetica,sans-Serif" font-size="10.00">vector</text>
</a>
</g>
</g>
<!-- Node2&#45;&gt;Node7 -->
<g id="edge38" class="edge">
<title>Node2&#45;&gt;Node7</title>
<path fill="none" stroke="#63b8ff" d="M492.97,-180.75C553.76,-175.72 640.01,-164.4 662.32,-140 690.06,-109.66 684.94,-57.04 679.65,-29.13"/>
<polygon fill="#63b8ff" stroke="#63b8ff" points="683.03,-28.19 677.54,-19.12 676.18,-29.63 683.03,-28.19"/>
</g>
<!-- Node11 -->
<g id="node11" class="node">
<title>Node11</title>
<g id="a_node11"><a xlink:href="nonstd_8h.html" target="_top" xlink:title=" ">
<polygon fill="white" stroke="#666666" points="323.32,-79.5 233.32,-79.5 233.32,-60.5 323.32,-60.5 323.32,-79.5"/>
<text text-anchor="middle" x="278.32" y="-67.5" font-family="Helvetica,sans-Serif" font-size="10.00">ccf/ds/nonstd.h</text>
</a>
</g>
</g>
<!-- Node2&#45;&gt;Node11 -->
<g id="edge12" class="edge">
<title>Node2&#45;&gt;Node11</title>
<path fill="none" stroke="#63b8ff" d="M367.52,-176.48C342.64,-170.3 315.65,-159.36 297.32,-140 284.65,-126.63 280.29,-105.61 278.85,-90.28"/>
<polygon fill="#63b8ff" stroke="#63b8ff" points="282.32,-89.67 278.24,-79.89 275.33,-90.08 282.32,-89.67"/>
</g>
<!-- Node14 -->
<g id="node14" class="node">
<title>Node14</title>
<g id="a_node14"><a xlink:title=" ">
<polygon fill="#e0e0e0" stroke="#999999" points="56.32,-19 12.32,-19 12.32,0 56.32,0 56.32,-19"/>
<text text-anchor="middle" x="34.32" y="-7" font-family="Helvetica,sans-Serif" font-size="10.00">string</text>
</a>
</g>
</g>
<!-- Node2&#45;&gt;Node14 -->
<g id="edge37" class="edge">
<title>Node2&#45;&gt;Node14</title>
<path fill="none" stroke="#63b8ff" d="M367.59,-182.06C302.05,-178.08 196.9,-167.58 110.32,-140 59.75,-123.89 31.88,-130.36 4.32,-85 -7.05,-66.3 6.8,-42.53 19.21,-26.93"/>
<polygon fill="#63b8ff" stroke="#63b8ff" points="21.98,-29.08 25.8,-19.19 16.65,-24.54 21.98,-29.08"/>
</g>
<!-- Node16 -->
<g id="node16" class="node">
<title>Node16</title>
<g id="a_node16"><a xlink:href="serializer_8h.html" target="_top" xlink:title=" ">
<polygon fill="white" stroke="#666666" points="376.32,-140 306.32,-140 306.32,-121 376.32,-121 376.32,-140"/>
<text text-anchor="middle" x="341.32" y="-128" font-family="Helvetica,sans-Serif" font-size="10.00">serializer.h</text>
</a>
</g>
</g>
<!-- Node2&#45;&gt;Node16 -->
<g id="edge20" class="edge">
<title>Node2&#45;&gt;Node16</title>
<path fill="none" stroke="#63b8ff" d="M416.02,-175.98C402.22,-167.77 381.08,-155.18 364.81,-145.49"/>
<polygon fill="#63b8ff" stroke="#63b8ff" points="366.26,-142.28 355.88,-140.17 362.68,-148.29 366.26,-142.28"/>
</g>
<!-- Node21 -->
<g id="node21" class="node">
<title>Node21</title>
<g id="a_node21"><a xlink:title=" ">
<polygon fill="#e0e0e0" stroke="#999999" points="647.32,-79.5 607.32,-79.5 607.32,-60.5 647.32,-60.5 647.32,-79.5"/>
<text text-anchor="middle" x="627.32" y="-67.5" font-family="Helvetica,sans-Serif" font-size="10.00">span</text>
</a>
</g>
</g>
<!-- Node2&#45;&gt;Node21 -->
<g id="edge36" class="edge">
<title>Node2&#45;&gt;Node21</title>
<path fill="none" stroke="#63b8ff" d="M425.72,-175.58C419.51,-162.16 410.61,-136.68 423.32,-121 471.95,-61 519.53,-107.8 593.32,-85 595,-84.48 596.71,-83.91 598.42,-83.31"/>
<polygon fill="#63b8ff" stroke="#63b8ff" points="600.02,-86.45 608.12,-79.62 597.53,-79.9 600.02,-86.45"/>
</g>
<!-- Node23 -->
<g id="node23" class="node">
<title>Node23</title>
<g id="a_node23"><a xlink:title=" ">
<polygon fill="#e0e0e0" stroke="#999999" points="482.32,-140 432.32,-140 432.32,-121 482.32,-121 482.32,-140"/>
<text text-anchor="middle" x="457.32" y="-128" font-family="Helvetica,sans-Serif" font-size="10.00">atomic</text>
</a>
</g>
</g>
<!-- Node2&#45;&gt;Node23 -->
<g id="edge33" class="edge">
<title>Node2&#45;&gt;Node23</title>
<path fill="none" stroke="#63b8ff" d="M434.78,-175.75C438.43,-168.57 443.73,-158.18 448.27,-149.27"/>
<polygon fill="#63b8ff" stroke="#63b8ff" points="451.52,-150.59 452.94,-140.09 445.29,-147.41 451.52,-150.59"/>
</g>
<!-- Node24 -->
<g id="node24" class="node">
<title>Node24</title>
<g id="a_node24"><a xlink:title=" ">
<polygon fill="#e0e0e0" stroke="#999999" points="579.82,-140 500.82,-140 500.82,-121 579.82,-121 579.82,-140"/>
<text text-anchor="middle" x="540.32" y="-128" font-family="Helvetica,sans-Serif" font-size="10.00">fmt/format.h</text>
</a>
</g>
</g>
<!-- Node2&#45;&gt;Node24 -->
<g id="edge34" class="edge">
<title>Node2&#45;&gt;Node24</title>
<path fill="none" stroke="#63b8ff" d="M447.99,-175.98C465.61,-167.5 492.9,-154.35 513.25,-144.54"/>
<polygon fill="#63b8ff" stroke="#63b8ff" points="514.83,-147.66 522.32,-140.17 511.8,-141.36 514.83,-147.66"/>
</g>
<!-- Node25 -->
<g id="node25" class="node">
<title>Node25</title>
<g id="a_node25"><a xlink:title=" ">
<polygon fill="#e0e0e0" stroke="#999999" points="653.32,-140 597.32,-140 597.32,-121 653.32,-121 653.32,-140"/>
<text text-anchor="middle" x="625.32" y="-128" font-family="Helvetica,sans-Serif" font-size="10.00">optional</text>
</a>
</g>
</g>
<!-- Node2&#45;&gt;Node25 -->
<g id="edge35" class="edge">
<title>Node2&#45;&gt;Node25</title>
<path fill="none" stroke="#63b8ff" d="M461.65,-175.98C495.9,-166.68 550.76,-151.76 587.41,-141.8"/>
<polygon fill="#63b8ff" stroke="#63b8ff" points="588.5,-145.13 597.23,-139.13 586.66,-138.38 588.5,-145.13"/>
</g>
<!-- Node4 -->
<g id="node4" class="node">
<title>Node4</title>
<g id="a_node4"><a xlink:href="siphash_8h.html" target="_top" xlink:title=" ">
<polygon fill="white" stroke="#666666" points="1116.82,-79.5 1021.82,-79.5 1021.82,-60.5 1116.82,-60.5 1116.82,-79.5"/>
<text text-anchor="middle" x="1069.32" y="-67.5" font-family="Helvetica,sans-Serif" font-size="10.00">ccf/ds/siphash.h</text>
</a>
</g>
</g>
<!-- Node3&#45;&gt;Node4 -->
<g id="edge3" class="edge">
<title>Node3&#45;&gt;Node4</title>
<path fill="none" stroke="#63b8ff" d="M884.73,-120.99C922.56,-110.75 986.23,-93.5 1028.01,-82.19"/>
<polygon fill="#63b8ff" stroke="#63b8ff" points="1029.14,-85.51 1037.87,-79.52 1027.31,-78.75 1029.14,-85.51"/>
</g>
<!-- Node6 -->
<g id="node6" class="node">
<title>Node6</title>
<g id="a_node6"><a xlink:title=" ">
<polygon fill="#e0e0e0" stroke="#999999" points="1018.32,-19 968.32,-19 968.32,0 1018.32,0 1018.32,-19"/>
<text text-anchor="middle" x="993.32" y="-7" font-family="Helvetica,sans-Serif" font-size="10.00">cstdint</text>
</a>
</g>
</g>
<!-- Node3&#45;&gt;Node6 -->
<g id="edge8" class="edge">
<title>Node3&#45;&gt;Node6</title>
<path fill="none" stroke="#63b8ff" d="M893.43,-123.18C918.37,-117.28 949.37,-106.07 969.32,-85 983.74,-69.77 989.5,-45.81 991.79,-29.2"/>
<polygon fill="#63b8ff" stroke="#63b8ff" points="995.29,-29.38 992.9,-19.06 988.34,-28.63 995.29,-29.38"/>
</g>
<!-- Node3&#45;&gt;Node7 -->
<g id="edge11" class="edge">
<title>Node3&#45;&gt;Node7</title>
<path fill="none" stroke="#63b8ff" d="M835.32,-120.98C818.16,-112.59 791.81,-99.04 770.32,-85 741.86,-66.41 711.34,-41.48 692.78,-25.7"/>
<polygon fill="#63b8ff" stroke="#63b8ff" points="695.02,-23.01 685.15,-19.15 690.46,-28.32 695.02,-23.01"/>
</g>
<!-- Node8 -->
<g id="node8" class="node">
<title>Node8</title>
<g id="a_node8"><a xlink:title=" ">
<polygon fill="#e0e0e0" stroke="#999999" points="459.32,-19 417.32,-19 417.32,0 459.32,0 459.32,-19"/>
<text text-anchor="middle" x="438.32" y="-7" font-family="Helvetica,sans-Serif" font-size="10.00">array</text>
</a>
</g>
</g>
<!-- Node3&#45;&gt;Node8 -->
<g id="edge7" class="edge">
<title>Node3&#45;&gt;Node8</title>
<path fill="none" stroke="#63b8ff" d="M827.57,-120.91C801.99,-112.27 761.71,-98.33 727.32,-85 695.38,-72.62 689.1,-64.96 656.32,-55 575.34,-30.39 551.75,-38.2 469.32,-19 469.22,-18.98 469.12,-18.95 469.02,-18.93"/>
<polygon fill="#63b8ff" stroke="#63b8ff" points="470.16,-15.61 459.61,-16.57 468.46,-22.4 470.16,-15.61"/>
</g>
<!-- Node9 -->
<g id="node9" class="node">
<title>Node9</title>
<g id="a_node9"><a xlink:title=" ">
<polygon fill="#e0e0e0" stroke="#999999" points="927.82,-79.5 778.82,-79.5 778.82,-60.5 927.82,-60.5 927.82,-79.5"/>
<text text-anchor="middle" x="853.32" y="-67.5" font-family="Helvetica,sans-Serif" font-size="10.00">small_vector/SmallVector.h</text>
</a>
</g>
</g>
<!-- Node3&#45;&gt;Node9 -->
<g id="edge9" class="edge">
<title>Node3&#45;&gt;Node9</title>
<path fill="none" stroke="#63b8ff" d="M853.32,-120.87C853.32,-112.75 853.32,-100.31 853.32,-89.89"/>
<polygon fill="#63b8ff" stroke="#63b8ff" points="856.82,-89.67 853.32,-79.67 849.82,-89.67 856.82,-89.67"/>
</g>
<!-- Node10 -->
<g id="node10" class="node">
<title>Node10</title>
<g id="a_node10"><a xlink:title=" ">
<polygon fill="#e0e0e0" stroke="#999999" points="550.82,-19 477.82,-19 477.82,0 550.82,0 550.82,-19"/>
<text text-anchor="middle" x="514.32" y="-7" font-family="Helvetica,sans-Serif" font-size="10.00">string_view</text>
</a>
</g>
</g>
<!-- Node3&#45;&gt;Node10 -->
<g id="edge10" class="edge">
<title>Node3&#45;&gt;Node10</title>
<path fill="none" stroke="#63b8ff" d="M886.72,-120.98C905.1,-114.4 926.34,-103.24 937.32,-85 944.2,-73.58 946.29,-64.87 937.32,-55 910.51,-25.51 633.6,-24.82 561.07,-18.65"/>
<polygon fill="#63b8ff" stroke="#63b8ff" points="561.25,-15.15 550.93,-17.56 560.5,-22.11 561.25,-15.15"/>
</g>
<!-- Node5 -->
<g id="node5" class="node">
<title>Node5</title>
<g id="a_node5"><a xlink:title=" ">
<polygon fill="#e0e0e0" stroke="#999999" points="1095.82,-19 1042.82,-19 1042.82,0 1095.82,0 1095.82,-19"/>
<text text-anchor="middle" x="1069.32" y="-7" font-family="Helvetica,sans-Serif" font-size="10.00">cstddef</text>
</a>
</g>
</g>
<!-- Node4&#45;&gt;Node5 -->
<g id="edge4" class="edge">
<title>Node4&#45;&gt;Node5</title>
<path fill="none" stroke="#63b8ff" d="M1069.32,-60.37C1069.32,-52.25 1069.32,-39.81 1069.32,-29.39"/>
<polygon fill="#63b8ff" stroke="#63b8ff" points="1072.82,-29.17 1069.32,-19.17 1065.82,-29.17 1072.82,-29.17"/>
</g>
<!-- Node4&#45;&gt;Node6 -->
<g id="edge5" class="edge">
<title>Node4&#45;&gt;Node6</title>
<path fill="none" stroke="#63b8ff" d="M1058.11,-60.37C1046.21,-51.21 1027.18,-36.56 1012.81,-25.51"/>
<polygon fill="#63b8ff" stroke="#63b8ff" points="1014.64,-22.49 1004.58,-19.17 1010.37,-28.04 1014.64,-22.49"/>
</g>
<!-- Node4&#45;&gt;Node7 -->
<g id="edge6" class="edge">
<title>Node4&#45;&gt;Node7</title>
<path fill="none" stroke="#63b8ff" d="M1021.79,-61.94C941.2,-49.98 779.63,-25.99 709.31,-15.55"/>
<polygon fill="#63b8ff" stroke="#63b8ff" points="709.63,-12.06 699.23,-14.05 708.61,-18.98 709.63,-12.06"/>
</g>
<!-- Node11&#45;&gt;Node7 -->
<g id="edge19" class="edge">
<title>Node11&#45;&gt;Node7</title>
<path fill="none" stroke="#63b8ff" d="M323.71,-62C338.84,-59.71 355.8,-57.2 371.32,-55 488.88,-38.37 521.97,-42.46 641.71,-19.11"/>
<polygon fill="#63b8ff" stroke="#63b8ff" points="642.5,-22.52 651.63,-17.15 641.14,-15.66 642.5,-22.52"/>
</g>
<!-- Node11&#45;&gt;Node8 -->
<g id="edge14" class="edge">
<title>Node11&#45;&gt;Node8</title>
<path fill="none" stroke="#63b8ff" d="M301.58,-60.49C329.58,-50.26 376.68,-33.04 407.63,-21.72"/>
<polygon fill="#63b8ff" stroke="#63b8ff" points="408.88,-24.99 417.07,-18.27 406.48,-18.42 408.88,-24.99"/>
</g>
<!-- Node11&#45;&gt;Node10 -->
<g id="edge17" class="edge">
<title>Node11&#45;&gt;Node10</title>
<path fill="none" stroke="#63b8ff" d="M312.64,-60.49C354.23,-50.18 424.42,-32.78 470.05,-21.47"/>
<polygon fill="#63b8ff" stroke="#63b8ff" points="471.1,-24.82 479.96,-19.02 469.41,-18.03 471.1,-24.82"/>
</g>
<!-- Node12 -->
<g id="node12" class="node">
<title>Node12</title>
<g id="a_node12"><a xlink:title=" ">
<polygon fill="#e0e0e0" stroke="#999999" points="176.32,-19 112.32,-19 112.32,0 176.32,0 176.32,-19"/>
<text text-anchor="middle" x="144.32" y="-7" font-family="Helvetica,sans-Serif" font-size="10.00">algorithm</text>
</a>
</g>
</g>
<!-- Node11&#45;&gt;Node12 -->
<g id="edge13" class="edge">
<title>Node11&#45;&gt;Node12</title>
<path fill="none" stroke="#63b8ff" d="M258.83,-60.49C236.31,-50.66 199.01,-34.38 173.13,-23.08"/>
<polygon fill="#63b8ff" stroke="#63b8ff" points="174.39,-19.81 163.83,-19.02 171.59,-26.23 174.39,-19.81"/>
</g>
<!-- Node13 -->
<g id="node13" class="node">
<title>Node13</title>
<g id="a_node13"><a xlink:title=" ">
<polygon fill="#e0e0e0" stroke="#999999" points="243.82,-19 194.82,-19 194.82,0 243.82,0 243.82,-19"/>
<text text-anchor="middle" x="219.32" y="-7" font-family="Helvetica,sans-Serif" font-size="10.00">cctype</text>
</a>
</g>
</g>
<!-- Node11&#45;&gt;Node13 -->
<g id="edge15" class="edge">
<title>Node11&#45;&gt;Node13</title>
<path fill="none" stroke="#63b8ff" d="M269.61,-60.37C260.64,-51.47 246.44,-37.39 235.41,-26.45"/>
<polygon fill="#63b8ff" stroke="#63b8ff" points="237.63,-23.72 228.06,-19.17 232.7,-28.69 237.63,-23.72"/>
</g>
<!-- Node11&#45;&gt;Node14 -->
<g id="edge16" class="edge">
<title>Node11&#45;&gt;Node14</title>
<path fill="none" stroke="#63b8ff" d="M245.8,-60.44C238.73,-58.61 231.28,-56.72 224.32,-55 169,-41.35 104.36,-26.43 66.52,-17.8"/>
<polygon fill="#63b8ff" stroke="#63b8ff" points="67.12,-14.34 56.59,-15.54 65.56,-21.17 67.12,-14.34"/>
</g>
<!-- Node15 -->
<g id="node15" class="node">
<title>Node15</title>
<g id="a_node15"><a xlink:title=" ">
<polygon fill="#e0e0e0" stroke="#999999" points="330.82,-19 261.82,-19 261.82,0 330.82,0 330.82,-19"/>
<text text-anchor="middle" x="296.32" y="-7" font-family="Helvetica,sans-Serif" font-size="10.00">type_traits</text>
</a>
</g>
</g>
<!-- Node11&#45;&gt;Node15 -->
<g id="edge18" class="edge">
<title>Node11&#45;&gt;Node15</title>
<path fill="none" stroke="#63b8ff" d="M280.98,-60.37C283.5,-52.16 287.38,-39.54 290.61,-29.05"/>
<polygon fill="#63b8ff" stroke="#63b8ff" points="294.06,-29.75 293.65,-19.17 287.37,-27.7 294.06,-29.75"/>
</g>
<!-- Node16&#45;&gt;Node7 -->
<g id="edge32" class="edge">
<title>Node16&#45;&gt;Node7</title>
<path fill="none" stroke="#63b8ff" d="M376.73,-124.35C430.04,-116.26 528.12,-99.94 560.32,-85 579.84,-75.94 580.51,-67.08 598.32,-55 615.04,-43.66 634.78,-32.28 650.09,-23.88"/>
<polygon fill="#63b8ff" stroke="#63b8ff" points="651.86,-26.9 658.98,-19.05 648.52,-20.74 651.86,-26.9"/>
</g>
<!-- Node16&#45;&gt;Node11 -->
<g id="edge21" class="edge">
<title>Node16&#45;&gt;Node11</title>
<path fill="none" stroke="#63b8ff" d="M332.02,-120.87C322.35,-111.88 306.98,-97.61 295.16,-86.64"/>
<polygon fill="#63b8ff" stroke="#63b8ff" points="297.36,-83.91 287.65,-79.67 292.6,-89.04 297.36,-83.91"/>
</g>
<!-- Node16&#45;&gt;Node15 -->
<g id="edge31" class="edge">
<title>Node16&#45;&gt;Node15</title>
<path fill="none" stroke="#63b8ff" d="M341.79,-120.84C342.23,-106.53 341.76,-77.32 332.32,-55 327.84,-44.4 320.04,-34.29 312.85,-26.39"/>
<polygon fill="#63b8ff" stroke="#63b8ff" points="315.21,-23.79 305.74,-19.03 310.17,-28.65 315.21,-23.79"/>
</g>
<!-- Node17 -->
<g id="node17" class="node">
<title>Node17</title>
<g id="a_node17"><a xlink:href="serialized_8h.html" target="_top" xlink:title=" ">
<polygon fill="white" stroke="#666666" points="452.82,-79.5 379.82,-79.5 379.82,-60.5 452.82,-60.5 452.82,-79.5"/>
<text text-anchor="middle" x="416.32" y="-67.5" font-family="Helvetica,sans-Serif" font-size="10.00">serialized.h</text>
</a>
</g>
</g>
<!-- Node16&#45;&gt;Node17 -->
<g id="edge22" class="edge">
<title>Node16&#45;&gt;Node17</title>
<path fill="none" stroke="#63b8ff" d="M352.39,-120.87C364.13,-111.71 382.91,-97.06 397.08,-86.01"/>
<polygon fill="#63b8ff" stroke="#63b8ff" points="399.47,-88.58 405.21,-79.67 395.17,-83.06 399.47,-88.58"/>
</g>
<!-- Node20 -->
<g id="node20" class="node">
<title>Node20</title>
<g id="a_node20"><a xlink:title=" ">
<polygon fill="#e0e0e0" stroke="#999999" points="215.32,-79.5 157.32,-79.5 157.32,-60.5 215.32,-60.5 215.32,-79.5"/>
<text text-anchor="middle" x="186.32" y="-67.5" font-family="Helvetica,sans-Serif" font-size="10.00">memory</text>
</a>
</g>
</g>
<!-- Node16&#45;&gt;Node20 -->
<g id="edge28" class="edge">
<title>Node16&#45;&gt;Node20</title>
<path fill="none" stroke="#63b8ff" d="M318.78,-120.99C292.38,-111.03 248.44,-94.45 218.47,-83.13"/>
<polygon fill="#63b8ff" stroke="#63b8ff" points="219.48,-79.77 208.88,-79.52 217,-86.32 219.48,-79.77"/>
</g>
<!-- Node16&#45;&gt;Node21 -->
<g id="edge29" class="edge">
<title>Node16&#45;&gt;Node21</title>
<path fill="none" stroke="#63b8ff" d="M376.54,-123.38C444.63,-111.54 588.12,-86.51 593.32,-85 595.2,-84.45 597.13,-83.83 599.05,-83.17"/>
<polygon fill="#63b8ff" stroke="#63b8ff" points="600.4,-86.4 608.52,-79.59 597.93,-79.85 600.4,-86.4"/>
</g>
<!-- Node22 -->
<g id="node22" class="node">
<title>Node22</title>
<g id="a_node22"><a xlink:title=" ">
<polygon fill="#e0e0e0" stroke="#999999" points="550.82,-79.5 509.82,-79.5 509.82,-60.5 550.82,-60.5 550.82,-79.5"/>
<text text-anchor="middle" x="530.32" y="-67.5" font-family="Helvetica,sans-Serif" font-size="10.00">tuple</text>
</a>
</g>
</g>
<!-- Node16&#45;&gt;Node22 -->
<g id="edge30" class="edge">
<title>Node16&#45;&gt;Node22</title>
<path fill="none" stroke="#63b8ff" d="M374.36,-120.97C405.75,-112.63 454.13,-99.15 495.32,-85 496.94,-84.44 498.59,-83.86 500.25,-83.25"/>
<polygon fill="#63b8ff" stroke="#63b8ff" points="501.62,-86.47 509.72,-79.63 499.13,-79.93 501.62,-86.47"/>
</g>
<!-- Node17&#45;&gt;Node6 -->
<g id="edge23" class="edge">
<title>Node17&#45;&gt;Node6</title>
<path fill="none" stroke="#63b8ff" d="M453.05,-62.35C467.99,-59.8 485.44,-57.02 501.32,-55 671.9,-33.27 877.07,-18.28 958.02,-12.8"/>
<polygon fill="#63b8ff" stroke="#63b8ff" points="958.42,-16.29 968.16,-12.12 957.95,-9.3 958.42,-16.29"/>
</g>
<!-- Node17&#45;&gt;Node7 -->
<g id="edge27" class="edge">
<title>Node17&#45;&gt;Node7</title>
<path fill="none" stroke="#63b8ff" d="M446.17,-60.45C453.09,-58.57 460.44,-56.65 467.32,-55 541.94,-37.15 563.89,-37.22 641.81,-19.25"/>
<polygon fill="#63b8ff" stroke="#63b8ff" points="642.65,-22.65 651.59,-16.97 641.06,-15.83 642.65,-22.65"/>
</g>
<!-- Node17&#45;&gt;Node14 -->
<g id="edge26" class="edge">
<title>Node17&#45;&gt;Node14</title>
<path fill="none" stroke="#63b8ff" d="M379.54,-62.73C364.86,-60.27 347.8,-57.45 332.32,-55 235.68,-39.73 121.19,-23.02 66.51,-15.12"/>
<polygon fill="#63b8ff" stroke="#63b8ff" points="66.79,-11.63 56.4,-13.67 65.79,-18.56 66.79,-11.63"/>
</g>
<!-- Node18 -->
<g id="node18" class="node">
<title>Node18</title>
<g id="a_node18"><a xlink:title=" ">
<polygon fill="#e0e0e0" stroke="#999999" points="399.32,-19 349.32,-19 349.32,0 399.32,0 399.32,-19"/>
<text text-anchor="middle" x="374.32" y="-7" font-family="Helvetica,sans-Serif" font-size="10.00">cstring</text>
</a>
</g>
</g>
<!-- Node17&#45;&gt;Node18 -->
<g id="edge24" class="edge">
<title>Node17&#45;&gt;Node18</title>
<path fill="none" stroke="#63b8ff" d="M410.12,-60.37C403.92,-51.73 394.21,-38.2 386.46,-27.42"/>
<polygon fill="#63b8ff" stroke="#63b8ff" points="389.22,-25.25 380.54,-19.17 383.53,-29.33 389.22,-25.25"/>
</g>
<!-- Node19 -->
<g id="node19" class="node">
<title>Node19</title>
<g id="a_node19"><a xlink:title=" ">
<polygon fill="#e0e0e0" stroke="#999999" points="633.82,-19 568.82,-19 568.82,0 633.82,0 633.82,-19"/>
<text text-anchor="middle" x="601.32" y="-7" font-family="Helvetica,sans-Serif" font-size="10.00">stdexcept</text>
</a>
</g>
</g>
<!-- Node17&#45;&gt;Node19 -->
<g id="edge25" class="edge">
<title>Node17&#45;&gt;Node19</title>
<path fill="none" stroke="#63b8ff" d="M443.22,-60.49C475.28,-50.36 529,-33.37 564.8,-22.05"/>
<polygon fill="#63b8ff" stroke="#63b8ff" points="565.91,-25.37 574.39,-19.02 563.8,-18.69 565.91,-25.37"/>
</g>
<!-- Node26&#45;&gt;Node7 -->
<g id="edge43" class="edge">
<title>Node26&#45;&gt;Node7</title>
<path fill="none" stroke="#63b8ff" d="M250.06,-122.75C319.87,-114.92 425.18,-101.02 462.32,-85 482.4,-76.34 481.65,-64.55 501.32,-55 557.03,-27.95 578.22,-34.59 641.48,-19.37"/>
<polygon fill="#63b8ff" stroke="#63b8ff" points="642.71,-22.67 651.56,-16.84 641.01,-15.88 642.71,-22.67"/>
</g>
<!-- Node26&#45;&gt;Node14 -->
<g id="edge42" class="edge">
<title>Node26&#45;&gt;Node14</title>
<path fill="none" stroke="#63b8ff" d="M120.18,-120.94C77.7,-113.8 27.46,-102.03 14.32,-85 1.46,-68.34 11.93,-44.06 21.93,-27.79"/>
<polygon fill="#63b8ff" stroke="#63b8ff" points="24.97,-29.53 27.58,-19.26 19.14,-25.66 24.97,-29.53"/>
</g>
<!-- Node26&#45;&gt;Node20 -->
<g id="edge41" class="edge">
<title>Node26&#45;&gt;Node20</title>
<path fill="none" stroke="#63b8ff" d="M184.61,-120.87C184.89,-112.75 185.32,-100.31 185.67,-89.89"/>
<polygon fill="#63b8ff" stroke="#63b8ff" points="189.18,-89.78 186.02,-79.67 182.18,-89.54 189.18,-89.78"/>
</g>
<!-- Node27 -->
<g id="node27" class="node">
<title>Node27</title>
<g id="a_node27"><a xlink:href="node__subsystem__interface_8h.html" target="_top" xlink:title=" ">
<polygon fill="white" stroke="#666666" points="139.32,-85 23.32,-85 23.32,-55 139.32,-55 139.32,-85"/>
<text text-anchor="start" x="31.32" y="-73" font-family="Helvetica,sans-Serif" font-size="10.00">ccf/node_subsystem</text>
<text text-anchor="middle" x="81.32" y="-62" font-family="Helvetica,sans-Serif" font-size="10.00">_interface.h</text>
</a>
</g>
</g>
<!-- Node26&#45;&gt;Node27 -->
<g id="edge40" class="edge">
<title>Node26&#45;&gt;Node27</title>
<path fill="none" stroke="#63b8ff" d="M169.12,-120.87C155.02,-112.86 133.52,-100.65 115.33,-90.31"/>
<polygon fill="#63b8ff" stroke="#63b8ff" points="116.59,-87.01 106.17,-85.11 113.14,-93.1 116.59,-87.01"/>
</g>
</g>
</svg>
