<?xml version="1.0" encoding="UTF-8" standalone="no"?>
<!DOCTYPE svg PUBLIC "-//W3C//DTD SVG 1.1//EN"
 "http://www.w3.org/Graphics/SVG/1.1/DTD/svg11.dtd">
<!-- Generated by graphviz version 2.43.0 (0)
 -->
<!-- Title: src/host/lfs_file_handler.h Pages: 1 -->
<svg width="1572pt" height="379pt"
 viewBox="0.00 0.00 1571.50 379.00" xmlns="http://www.w3.org/2000/svg" xmlns:xlink="http://www.w3.org/1999/xlink">
<g id="graph0" class="graph" transform="scale(1 1) rotate(0) translate(4 375)">
<title>src/host/lfs_file_handler.h</title>
<!-- Node1 -->
<g id="node1" class="node">
<title>Node1</title>
<g id="a_node1"><a xlink:title=" ">
<polygon fill="#999999" stroke="#666666" points="1172,-371 1032,-371 1032,-352 1172,-352 1172,-371"/>
<text text-anchor="middle" x="1102" y="-359" font-family="Helvetica,sans-Serif" font-size="10.00">src/host/lfs_file_handler.h</text>
</a>
</g>
</g>
<!-- Node2 -->
<g id="node2" class="node">
<title>Node2</title>
<g id="a_node2"><a xlink:href="messaging_8h.html" target="_top" xlink:title=" ">
<polygon fill="white" stroke="#666666" points="1099.5,-316 1006.5,-316 1006.5,-297 1099.5,-297 1099.5,-316"/>
<text text-anchor="middle" x="1053" y="-304" font-family="Helvetica,sans-Serif" font-size="10.00">ds/messaging.h</text>
</a>
</g>
</g>
<!-- Node1&#45;&gt;Node2 -->
<g id="edge1" class="edge">
<title>Node1&#45;&gt;Node2</title>
<path fill="none" stroke="#63b8ff" d="M1093.91,-351.75C1086.84,-344.11 1076.41,-332.82 1067.85,-323.56"/>
<polygon fill="#63b8ff" stroke="#63b8ff" points="1070.3,-321.06 1060.94,-316.09 1065.16,-325.81 1070.3,-321.06"/>
</g>
<!-- Node44 -->
<g id="node44" class="node">
<title>Node44</title>
<g id="a_node44"><a xlink:href="lfs__ringbuffer__types_8h.html" target="_top" xlink:title=" ">
<polygon fill="white" stroke="#666666" points="126,-261 0,-261 0,-231 126,-231 126,-261"/>
<text text-anchor="start" x="8" y="-249" font-family="Helvetica,sans-Serif" font-size="10.00">indexing/lfs_ringbuffer</text>
<text text-anchor="middle" x="63" y="-238" font-family="Helvetica,sans-Serif" font-size="10.00">_types.h</text>
</a>
</g>
</g>
<!-- Node1&#45;&gt;Node44 -->
<g id="edge69" class="edge">
<title>Node1&#45;&gt;Node44</title>
<path fill="none" stroke="#63b8ff" d="M1031.77,-355.1C872.61,-342.44 472.46,-308.34 140,-261 138.89,-260.84 137.77,-260.68 136.65,-260.51"/>
<polygon fill="#63b8ff" stroke="#63b8ff" points="136.8,-257 126.39,-258.92 135.73,-263.91 136.8,-257"/>
</g>
<!-- Node47 -->
<g id="node47" class="node">
<title>Node47</title>
<g id="a_node47"><a xlink:title=" ">
<polygon fill="#e0e0e0" stroke="#999999" points="1186,-316 1118,-316 1118,-297 1186,-297 1186,-316"/>
<text text-anchor="middle" x="1152" y="-304" font-family="Helvetica,sans-Serif" font-size="10.00">filesystem</text>
</a>
</g>
</g>
<!-- Node1&#45;&gt;Node47 -->
<g id="edge76" class="edge">
<title>Node1&#45;&gt;Node47</title>
<path fill="none" stroke="#63b8ff" d="M1110.26,-351.75C1117.46,-344.11 1128.11,-332.82 1136.85,-323.56"/>
<polygon fill="#63b8ff" stroke="#63b8ff" points="1139.58,-325.76 1143.9,-316.09 1134.49,-320.96 1139.58,-325.76"/>
</g>
<!-- Node48 -->
<g id="node48" class="node">
<title>Node48</title>
<g id="a_node48"><a xlink:title=" ">
<polygon fill="#e0e0e0" stroke="#999999" points="1259.5,-316 1204.5,-316 1204.5,-297 1259.5,-297 1259.5,-316"/>
<text text-anchor="middle" x="1232" y="-304" font-family="Helvetica,sans-Serif" font-size="10.00">fstream</text>
</a>
</g>
</g>
<!-- Node1&#45;&gt;Node48 -->
<g id="edge77" class="edge">
<title>Node1&#45;&gt;Node48</title>
<path fill="none" stroke="#63b8ff" d="M1122.89,-351.98C1144.08,-343.34 1177.13,-329.87 1201.3,-320.02"/>
<polygon fill="#63b8ff" stroke="#63b8ff" points="1202.79,-323.19 1210.73,-316.17 1200.15,-316.7 1202.79,-323.19"/>
</g>
<!-- Node3 -->
<g id="node3" class="node">
<title>Node3</title>
<g id="a_node3"><a xlink:href="logger_8h.html" target="_top" xlink:title=" ">
<polygon fill="white" stroke="#666666" points="568.5,-255.5 481.5,-255.5 481.5,-236.5 568.5,-236.5 568.5,-255.5"/>
<text text-anchor="middle" x="525" y="-243.5" font-family="Helvetica,sans-Serif" font-size="10.00">ccf/ds/logger.h</text>
</a>
</g>
</g>
<!-- Node2&#45;&gt;Node3 -->
<g id="edge2" class="edge">
<title>Node2&#45;&gt;Node3</title>
<path fill="none" stroke="#63b8ff" d="M1006.14,-300.31C908.3,-289.47 682.77,-264.48 579.02,-252.98"/>
<polygon fill="#63b8ff" stroke="#63b8ff" points="579.09,-249.47 568.77,-251.85 578.32,-256.43 579.09,-249.47"/>
</g>
<!-- Node10 -->
<g id="node10" class="node">
<title>Node10</title>
<g id="a_node10"><a xlink:title=" ">
<polygon fill="#e0e0e0" stroke="#999999" points="215,-140 177,-140 177,-121 215,-121 215,-140"/>
<text text-anchor="middle" x="196" y="-128" font-family="Helvetica,sans-Serif" font-size="10.00">map</text>
</a>
</g>
</g>
<!-- Node2&#45;&gt;Node10 -->
<g id="edge67" class="edge">
<title>Node2&#45;&gt;Node10</title>
<path fill="none" stroke="#63b8ff" d="M1006.14,-304.13C907.18,-300.74 669.82,-290.05 473,-261 337.94,-241.06 258.54,-301.4 173,-195 162.03,-181.36 171.68,-162.03 181.63,-148.29"/>
<polygon fill="#63b8ff" stroke="#63b8ff" points="184.57,-150.21 187.99,-140.18 179.07,-145.88 184.57,-150.21"/>
</g>
<!-- Node18 -->
<g id="node18" class="node">
<title>Node18</title>
<g id="a_node18"><a xlink:href="ring__buffer_8h.html" target="_top" xlink:title=" ">
<polygon fill="white" stroke="#666666" points="1283.5,-255.5 1206.5,-255.5 1206.5,-236.5 1283.5,-236.5 1283.5,-255.5"/>
<text text-anchor="middle" x="1245" y="-243.5" font-family="Helvetica,sans-Serif" font-size="10.00">ring_buffer.h</text>
</a>
</g>
</g>
<!-- Node2&#45;&gt;Node18 -->
<g id="edge19" class="edge">
<title>Node2&#45;&gt;Node18</title>
<path fill="none" stroke="#63b8ff" d="M1080.92,-296.99C1114.19,-286.86 1169.95,-269.87 1207.1,-258.55"/>
<polygon fill="#63b8ff" stroke="#63b8ff" points="1208.5,-261.78 1217.05,-255.52 1206.46,-255.08 1208.5,-261.78"/>
</g>
<!-- Node37 -->
<g id="node37" class="node">
<title>Node37</title>
<g id="a_node37"><a xlink:title=" ">
<polygon fill="#e0e0e0" stroke="#999999" points="1563.5,-19 1498.5,-19 1498.5,0 1563.5,0 1563.5,-19"/>
<text text-anchor="middle" x="1531" y="-7" font-family="Helvetica,sans-Serif" font-size="10.00">stdexcept</text>
</a>
</g>
</g>
<!-- Node2&#45;&gt;Node37 -->
<g id="edge68" class="edge">
<title>Node2&#45;&gt;Node37</title>
<path fill="none" stroke="#63b8ff" d="M1099.58,-297.55C1158.64,-287.35 1257.12,-269.91 1293,-261 1400.57,-234.29 1531,-297.34 1531,-186.5 1531,-186.5 1531,-186.5 1531,-129.5 1531,-94.15 1531,-52.9 1531,-29.42"/>
<polygon fill="#63b8ff" stroke="#63b8ff" points="1534.5,-29.16 1531,-19.16 1527.5,-29.16 1534.5,-29.16"/>
</g>
<!-- Node41 -->
<g id="node41" class="node">
<title>Node41</title>
<g id="a_node41"><a xlink:title=" ">
<polygon fill="#e0e0e0" stroke="#999999" points="1146,-140 1096,-140 1096,-121 1146,-121 1146,-140"/>
<text text-anchor="middle" x="1121" y="-128" font-family="Helvetica,sans-Serif" font-size="10.00">atomic</text>
</a>
</g>
</g>
<!-- Node2&#45;&gt;Node41 -->
<g id="edge65" class="edge">
<title>Node2&#45;&gt;Node41</title>
<path fill="none" stroke="#63b8ff" d="M1054.82,-296.62C1057.84,-282.48 1064.41,-254.1 1073,-231 1084.04,-201.3 1100.82,-168.5 1111.33,-148.96"/>
<polygon fill="#63b8ff" stroke="#63b8ff" points="1114.48,-150.5 1116.2,-140.04 1108.34,-147.15 1114.48,-150.5"/>
</g>
<!-- Node43 -->
<g id="node43" class="node">
<title>Node43</title>
<g id="a_node43"><a xlink:title=" ">
<polygon fill="#e0e0e0" stroke="#999999" points="1188.5,-255.5 1081.5,-255.5 1081.5,-236.5 1188.5,-236.5 1188.5,-255.5"/>
<text text-anchor="middle" x="1135" y="-243.5" font-family="Helvetica,sans-Serif" font-size="10.00">condition_variable</text>
</a>
</g>
</g>
<!-- Node2&#45;&gt;Node43 -->
<g id="edge66" class="edge">
<title>Node2&#45;&gt;Node43</title>
<path fill="none" stroke="#63b8ff" d="M1065.1,-296.87C1078.06,-287.62 1098.86,-272.78 1114.4,-261.69"/>
<polygon fill="#63b8ff" stroke="#63b8ff" points="1116.74,-264.32 1122.85,-255.67 1112.68,-258.63 1116.74,-264.32"/>
</g>
<!-- Node4 -->
<g id="node4" class="node">
<title>Node4</title>
<g id="a_node4"><a xlink:href="enum__formatter_8h.html" target="_top" xlink:title=" ">
<polygon fill="white" stroke="#666666" points="859,-195 723,-195 723,-176 859,-176 859,-195"/>
<text text-anchor="middle" x="791" y="-183" font-family="Helvetica,sans-Serif" font-size="10.00">ccf/ds/enum_formatter.h</text>
</a>
</g>
</g>
<!-- Node3&#45;&gt;Node4 -->
<g id="edge3" class="edge">
<title>Node3&#45;&gt;Node4</title>
<path fill="none" stroke="#63b8ff" d="M563.68,-236.49C610.96,-226.1 691,-208.49 742.4,-197.19"/>
<polygon fill="#63b8ff" stroke="#63b8ff" points="743.26,-200.58 752.27,-195.02 741.76,-193.75 743.26,-200.58"/>
</g>
<!-- Node5 -->
<g id="node5" class="node">
<title>Node5</title>
<g id="a_node5"><a xlink:title=" ">
<polygon fill="#e0e0e0" stroke="#999999" points="561.5,-140 482.5,-140 482.5,-121 561.5,-121 561.5,-140"/>
<text text-anchor="middle" x="522" y="-128" font-family="Helvetica,sans-Serif" font-size="10.00">fmt/format.h</text>
</a>
</g>
</g>
<!-- Node3&#45;&gt;Node5 -->
<g id="edge13" class="edge">
<title>Node3&#45;&gt;Node5</title>
<path fill="none" stroke="#63b8ff" d="M481.32,-239.47C431.7,-232.19 355.34,-217.59 338,-195 332.86,-188.3 332.78,-182.64 338,-176 342.25,-170.6 419.46,-153.27 472.5,-141.9"/>
<polygon fill="#63b8ff" stroke="#63b8ff" points="473.38,-145.29 482.42,-139.78 471.91,-138.44 473.38,-145.29"/>
</g>
<!-- Node6 -->
<g id="node6" class="node">
<title>Node6</title>
<g id="a_node6"><a xlink:href="thread__ids_8h.html" target="_top" xlink:title=" ">
<polygon fill="white" stroke="#666666" points="290,-195 182,-195 182,-176 290,-176 290,-195"/>
<text text-anchor="middle" x="236" y="-183" font-family="Helvetica,sans-Serif" font-size="10.00">ccf/ds/thread_ids.h</text>
</a>
</g>
</g>
<!-- Node3&#45;&gt;Node6 -->
<g id="edge5" class="edge">
<title>Node3&#45;&gt;Node6</title>
<path fill="none" stroke="#63b8ff" d="M482.98,-236.49C431.4,-226.05 343.92,-208.35 288.11,-197.05"/>
<polygon fill="#63b8ff" stroke="#63b8ff" points="288.57,-193.57 278.07,-195.02 287.18,-200.43 288.57,-193.57"/>
</g>
<!-- Node12 -->
<g id="node12" class="node">
<title>Node12</title>
<g id="a_node12"><a xlink:title=" ">
<polygon fill="#e0e0e0" stroke="#999999" points="425.5,-195 346.5,-195 346.5,-176 425.5,-176 425.5,-195"/>
<text text-anchor="middle" x="386" y="-183" font-family="Helvetica,sans-Serif" font-size="10.00">fmt/chrono.h</text>
</a>
</g>
</g>
<!-- Node3&#45;&gt;Node12 -->
<g id="edge12" class="edge">
<title>Node3&#45;&gt;Node12</title>
<path fill="none" stroke="#63b8ff" d="M504.79,-236.49C481.32,-226.62 442.39,-210.23 415.54,-198.93"/>
<polygon fill="#63b8ff" stroke="#63b8ff" points="416.81,-195.67 406.24,-195.02 414.1,-202.12 416.81,-195.67"/>
</g>
<!-- Node13 -->
<g id="node13" class="node">
<title>Node13</title>
<g id="a_node13"><a xlink:title=" ">
<polygon fill="#e0e0e0" stroke="#999999" points="503,-195 443,-195 443,-176 503,-176 503,-195"/>
<text text-anchor="middle" x="473" y="-183" font-family="Helvetica,sans-Serif" font-size="10.00">iostream</text>
</a>
</g>
</g>
<!-- Node3&#45;&gt;Node13 -->
<g id="edge14" class="edge">
<title>Node3&#45;&gt;Node13</title>
<path fill="none" stroke="#63b8ff" d="M517.33,-236.37C509.49,-227.55 497.14,-213.66 487.46,-202.77"/>
<polygon fill="#63b8ff" stroke="#63b8ff" points="489.96,-200.32 480.7,-195.17 484.73,-204.97 489.96,-200.32"/>
</g>
<!-- Node14 -->
<g id="node14" class="node">
<title>Node14</title>
<g id="a_node14"><a xlink:title=" ">
<polygon fill="#e0e0e0" stroke="#999999" points="631,-195 521,-195 521,-176 631,-176 631,-195"/>
<text text-anchor="middle" x="576" y="-183" font-family="Helvetica,sans-Serif" font-size="10.00">nlohmann/json.hpp</text>
</a>
</g>
</g>
<!-- Node3&#45;&gt;Node14 -->
<g id="edge15" class="edge">
<title>Node3&#45;&gt;Node14</title>
<path fill="none" stroke="#63b8ff" d="M532.53,-236.37C540.21,-227.55 552.32,-213.66 561.81,-202.77"/>
<polygon fill="#63b8ff" stroke="#63b8ff" points="564.51,-205.01 568.44,-195.17 559.23,-200.41 564.51,-205.01"/>
</g>
<!-- Node15 -->
<g id="node15" class="node">
<title>Node15</title>
<g id="a_node15"><a xlink:title=" ">
<polygon fill="#e0e0e0" stroke="#999999" points="635,-140 579,-140 579,-121 635,-121 635,-140"/>
<text text-anchor="middle" x="607" y="-128" font-family="Helvetica,sans-Serif" font-size="10.00">optional</text>
</a>
</g>
</g>
<!-- Node3&#45;&gt;Node15 -->
<g id="edge16" class="edge">
<title>Node3&#45;&gt;Node15</title>
<path fill="none" stroke="#63b8ff" d="M568.57,-245.39C652.07,-245.12 829.77,-239.21 868,-195 873.52,-188.61 873.48,-182.43 868,-176 837.03,-139.65 708.14,-148.52 645.12,-139.82"/>
<polygon fill="#63b8ff" stroke="#63b8ff" points="645.68,-136.36 635.24,-138.19 644.54,-143.27 645.68,-136.36"/>
</g>
<!-- Node16 -->
<g id="node16" class="node">
<title>Node16</title>
<g id="a_node16"><a xlink:title=" ">
<polygon fill="#e0e0e0" stroke="#999999" points="705,-195 649,-195 649,-176 705,-176 705,-195"/>
<text text-anchor="middle" x="677" y="-183" font-family="Helvetica,sans-Serif" font-size="10.00">sstream</text>
</a>
</g>
</g>
<!-- Node3&#45;&gt;Node16 -->
<g id="edge17" class="edge">
<title>Node3&#45;&gt;Node16</title>
<path fill="none" stroke="#63b8ff" d="M547.1,-236.49C572.99,-226.53 616.08,-209.95 645.47,-198.63"/>
<polygon fill="#63b8ff" stroke="#63b8ff" points="646.8,-201.88 654.87,-195.02 644.28,-195.34 646.8,-201.88"/>
</g>
<!-- Node17 -->
<g id="node17" class="node">
<title>Node17</title>
<g id="a_node17"><a xlink:title=" ">
<polygon fill="#e0e0e0" stroke="#999999" points="552.5,-19 483.5,-19 483.5,0 552.5,0 552.5,-19"/>
<text text-anchor="middle" x="518" y="-7" font-family="Helvetica,sans-Serif" font-size="10.00">type_traits</text>
</a>
</g>
</g>
<!-- Node3&#45;&gt;Node17 -->
<g id="edge18" class="edge">
<title>Node3&#45;&gt;Node17</title>
<path fill="none" stroke="#63b8ff" d="M481.47,-243.24C368.59,-237.64 71.54,-215.81 18,-140 5.19,-121.86 -7.16,-87.16 26,-55 57.75,-24.2 357.86,-14.14 473.17,-11.4"/>
<polygon fill="#63b8ff" stroke="#63b8ff" points="473.5,-14.89 483.42,-11.16 473.34,-7.89 473.5,-14.89"/>
</g>
<!-- Node4&#45;&gt;Node5 -->
<g id="edge4" class="edge">
<title>Node4&#45;&gt;Node5</title>
<path fill="none" stroke="#63b8ff" d="M747.78,-175.98C699.71,-166.51 622.17,-151.24 571.65,-141.28"/>
<polygon fill="#63b8ff" stroke="#63b8ff" points="572.09,-137.8 561.61,-139.3 570.74,-144.67 572.09,-137.8"/>
</g>
<!-- Node6&#45;&gt;Node5 -->
<g id="edge6" class="edge">
<title>Node6&#45;&gt;Node5</title>
<path fill="none" stroke="#63b8ff" d="M281.95,-175.98C334.02,-166.34 418.59,-150.66 472.2,-140.73"/>
<polygon fill="#63b8ff" stroke="#63b8ff" points="472.97,-144.15 482.16,-138.88 471.69,-137.26 472.97,-144.15"/>
</g>
<!-- Node7 -->
<g id="node7" class="node">
<title>Node7</title>
<g id="a_node7"><a xlink:title=" ">
<polygon fill="#e0e0e0" stroke="#999999" points="385,-140 299,-140 299,-121 385,-121 385,-140"/>
<text text-anchor="middle" x="342" y="-128" font-family="Helvetica,sans-Serif" font-size="10.00">fmt/ostream.h</text>
</a>
</g>
</g>
<!-- Node6&#45;&gt;Node7 -->
<g id="edge7" class="edge">
<title>Node6&#45;&gt;Node7</title>
<path fill="none" stroke="#63b8ff" d="M253.03,-175.98C269.93,-167.54 296.06,-154.47 315.64,-144.68"/>
<polygon fill="#63b8ff" stroke="#63b8ff" points="317.28,-147.77 324.66,-140.17 314.15,-141.51 317.28,-147.77"/>
</g>
<!-- Node8 -->
<g id="node8" class="node">
<title>Node8</title>
<g id="a_node8"><a xlink:title=" ">
<polygon fill="#e0e0e0" stroke="#999999" points="464.5,-140 403.5,-140 403.5,-121 464.5,-121 464.5,-140"/>
<text text-anchor="middle" x="434" y="-128" font-family="Helvetica,sans-Serif" font-size="10.00">fmt/std.h</text>
</a>
</g>
</g>
<!-- Node6&#45;&gt;Node8 -->
<g id="edge8" class="edge">
<title>Node6&#45;&gt;Node8</title>
<path fill="none" stroke="#63b8ff" d="M267.81,-175.98C301.89,-166.86 356.06,-152.36 393.24,-142.41"/>
<polygon fill="#63b8ff" stroke="#63b8ff" points="394.49,-145.7 403.24,-139.73 392.68,-138.94 394.49,-145.7"/>
</g>
<!-- Node9 -->
<g id="node9" class="node">
<title>Node9</title>
<g id="a_node9"><a xlink:title=" ">
<polygon fill="#e0e0e0" stroke="#999999" points="697,-140 653,-140 653,-121 697,-121 697,-140"/>
<text text-anchor="middle" x="675" y="-128" font-family="Helvetica,sans-Serif" font-size="10.00">limits</text>
</a>
</g>
</g>
<!-- Node6&#45;&gt;Node9 -->
<g id="edge9" class="edge">
<title>Node6&#45;&gt;Node9</title>
<path fill="none" stroke="#63b8ff" d="M290.11,-179.68C381.08,-171.39 561.87,-154.15 642.91,-139.87"/>
<polygon fill="#63b8ff" stroke="#63b8ff" points="643.55,-143.31 652.75,-138.06 642.28,-136.43 643.55,-143.31"/>
</g>
<!-- Node6&#45;&gt;Node10 -->
<g id="edge10" class="edge">
<title>Node6&#45;&gt;Node10</title>
<path fill="none" stroke="#63b8ff" d="M229.39,-175.75C223.74,-168.26 215.46,-157.28 208.55,-148.13"/>
<polygon fill="#63b8ff" stroke="#63b8ff" points="211.3,-145.96 202.48,-140.09 205.71,-150.18 211.3,-145.96"/>
</g>
<!-- Node11 -->
<g id="node11" class="node">
<title>Node11</title>
<g id="a_node11"><a xlink:title=" ">
<polygon fill="#e0e0e0" stroke="#999999" points="281,-140 233,-140 233,-121 281,-121 281,-140"/>
<text text-anchor="middle" x="257" y="-128" font-family="Helvetica,sans-Serif" font-size="10.00">thread</text>
</a>
</g>
</g>
<!-- Node6&#45;&gt;Node11 -->
<g id="edge11" class="edge">
<title>Node6&#45;&gt;Node11</title>
<path fill="none" stroke="#63b8ff" d="M239.47,-175.75C242.28,-168.65 246.34,-158.4 249.85,-149.56"/>
<polygon fill="#63b8ff" stroke="#63b8ff" points="253.17,-150.68 253.6,-140.09 246.66,-148.1 253.17,-150.68"/>
</g>
<!-- Node19 -->
<g id="node19" class="node">
<title>Node19</title>
<g id="a_node19"><a xlink:href="mem_8h.html" target="_top" xlink:title=" ">
<polygon fill="white" stroke="#666666" points="1324,-195 1238,-195 1238,-176 1324,-176 1324,-195"/>
<text text-anchor="middle" x="1281" y="-183" font-family="Helvetica,sans-Serif" font-size="10.00">ccf/pal/mem.h</text>
</a>
</g>
</g>
<!-- Node18&#45;&gt;Node19 -->
<g id="edge20" class="edge">
<title>Node18&#45;&gt;Node19</title>
<path fill="none" stroke="#63b8ff" d="M1250.31,-236.37C1255.58,-227.81 1263.79,-214.47 1270.39,-203.74"/>
<polygon fill="#63b8ff" stroke="#63b8ff" points="1273.41,-205.52 1275.67,-195.17 1267.44,-201.85 1273.41,-205.52"/>
</g>
<!-- Node21 -->
<g id="node21" class="node">
<title>Node21</title>
<g id="a_node21"><a xlink:title=" ">
<polygon fill="#e0e0e0" stroke="#999999" points="1480,-19 1430,-19 1430,0 1480,0 1480,-19"/>
<text text-anchor="middle" x="1455" y="-7" font-family="Helvetica,sans-Serif" font-size="10.00">cstring</text>
</a>
</g>
</g>
<!-- Node18&#45;&gt;Node21 -->
<g id="edge63" class="edge">
<title>Node18&#45;&gt;Node21</title>
<path fill="none" stroke="#63b8ff" d="M1263.5,-236.41C1304.07,-216.46 1400.46,-162.69 1441,-85 1450.11,-67.54 1453.36,-45.03 1454.48,-29.34"/>
<polygon fill="#63b8ff" stroke="#63b8ff" points="1457.98,-29.46 1454.97,-19.3 1450.98,-29.11 1457.98,-29.46"/>
</g>
<!-- Node22 -->
<g id="node22" class="node">
<title>Node22</title>
<g id="a_node22"><a xlink:href="ring__buffer__types_8h.html" target="_top" xlink:title=" ">
<polygon fill="white" stroke="#666666" points="1025,-195 915,-195 915,-176 1025,-176 1025,-195"/>
<text text-anchor="middle" x="970" y="-183" font-family="Helvetica,sans-Serif" font-size="10.00">ring_buffer_types.h</text>
</a>
</g>
</g>
<!-- Node18&#45;&gt;Node22 -->
<g id="edge24" class="edge">
<title>Node18&#45;&gt;Node22</title>
<path fill="none" stroke="#63b8ff" d="M1217.78,-236.41C1211.33,-234.5 1204.45,-232.59 1198,-231 1141.93,-217.21 1077.26,-204.93 1031.15,-196.78"/>
<polygon fill="#63b8ff" stroke="#63b8ff" points="1031.47,-193.28 1021.02,-195 1030.26,-200.18 1031.47,-193.28"/>
</g>
<!-- Node18&#45;&gt;Node41 -->
<g id="edge62" class="edge">
<title>Node18&#45;&gt;Node41</title>
<path fill="none" stroke="#63b8ff" d="M1239.51,-236.16C1230.56,-222.22 1211.73,-194.8 1191,-176 1177.74,-163.98 1160.85,-153.14 1146.98,-145.17"/>
<polygon fill="#63b8ff" stroke="#63b8ff" points="1148.39,-141.94 1137.95,-140.13 1144.98,-148.05 1148.39,-141.94"/>
</g>
<!-- Node42 -->
<g id="node42" class="node">
<title>Node42</title>
<g id="a_node42"><a xlink:title=" ">
<polygon fill="#e0e0e0" stroke="#999999" points="1181.5,-195 1116.5,-195 1116.5,-176 1181.5,-176 1181.5,-195"/>
<text text-anchor="middle" x="1149" y="-183" font-family="Helvetica,sans-Serif" font-size="10.00">functional</text>
</a>
</g>
</g>
<!-- Node18&#45;&gt;Node42 -->
<g id="edge64" class="edge">
<title>Node18&#45;&gt;Node42</title>
<path fill="none" stroke="#63b8ff" d="M1230.83,-236.37C1215.31,-226.91 1190.17,-211.59 1171.85,-200.42"/>
<polygon fill="#63b8ff" stroke="#63b8ff" points="1173.58,-197.38 1163.22,-195.17 1169.94,-203.36 1173.58,-197.38"/>
</g>
<!-- Node19&#45;&gt;Node9 -->
<g id="edge23" class="edge">
<title>Node19&#45;&gt;Node9</title>
<path fill="none" stroke="#63b8ff" d="M1237.97,-180.36C1223.1,-178.95 1206.32,-177.38 1191,-176 1008.02,-159.47 788.42,-140.98 707.22,-134.19"/>
<polygon fill="#63b8ff" stroke="#63b8ff" points="707.39,-130.69 697.13,-133.34 706.81,-137.66 707.39,-130.69"/>
</g>
<!-- Node20 -->
<g id="node20" class="node">
<title>Node20</title>
<g id="a_node20"><a xlink:title=" ">
<polygon fill="#e0e0e0" stroke="#999999" points="1307.5,-140 1254.5,-140 1254.5,-121 1307.5,-121 1307.5,-140"/>
<text text-anchor="middle" x="1281" y="-128" font-family="Helvetica,sans-Serif" font-size="10.00">stdlib.h</text>
</a>
</g>
</g>
<!-- Node19&#45;&gt;Node20 -->
<g id="edge21" class="edge">
<title>Node19&#45;&gt;Node20</title>
<path fill="none" stroke="#63b8ff" d="M1281,-175.75C1281,-168.8 1281,-158.85 1281,-150.13"/>
<polygon fill="#63b8ff" stroke="#63b8ff" points="1284.5,-150.09 1281,-140.09 1277.5,-150.09 1284.5,-150.09"/>
</g>
<!-- Node19&#45;&gt;Node21 -->
<g id="edge22" class="edge">
<title>Node19&#45;&gt;Node21</title>
<path fill="none" stroke="#63b8ff" d="M1297.76,-175.86C1325.77,-160.72 1382.51,-126.98 1418,-85 1432.24,-68.15 1442.66,-44.89 1448.75,-28.86"/>
<polygon fill="#63b8ff" stroke="#63b8ff" points="1452.17,-29.68 1452.27,-19.09 1445.59,-27.31 1452.17,-29.68"/>
</g>
<!-- Node22&#45;&gt;Node5 -->
<g id="edge57" class="edge">
<title>Node22&#45;&gt;Node5</title>
<path fill="none" stroke="#63b8ff" d="M914.86,-179.5C839.55,-172.42 700.07,-158.41 571.54,-140.14"/>
<polygon fill="#63b8ff" stroke="#63b8ff" points="571.92,-136.66 561.52,-138.71 570.92,-143.59 571.92,-136.66"/>
</g>
<!-- Node22&#45;&gt;Node15 -->
<g id="edge58" class="edge">
<title>Node22&#45;&gt;Node15</title>
<path fill="none" stroke="#63b8ff" d="M914.89,-177.59C840.14,-168.12 709.44,-151.18 645.3,-140.06"/>
<polygon fill="#63b8ff" stroke="#63b8ff" points="645.69,-136.57 635.23,-138.26 644.46,-143.47 645.69,-136.57"/>
</g>
<!-- Node23 -->
<g id="node23" class="node">
<title>Node23</title>
<g id="a_node23"><a xlink:href="include_2ccf_2ds_2hash_8h.html" target="_top" xlink:title=" ">
<polygon fill="white" stroke="#666666" points="1078,-140 998,-140 998,-121 1078,-121 1078,-140"/>
<text text-anchor="middle" x="1038" y="-128" font-family="Helvetica,sans-Serif" font-size="10.00">ccf/ds/hash.h</text>
</a>
</g>
</g>
<!-- Node22&#45;&gt;Node23 -->
<g id="edge25" class="edge">
<title>Node22&#45;&gt;Node23</title>
<path fill="none" stroke="#63b8ff" d="M980.93,-175.98C991.08,-168.07 1006.42,-156.11 1018.65,-146.58"/>
<polygon fill="#63b8ff" stroke="#63b8ff" points="1021.14,-149.08 1026.88,-140.17 1016.84,-143.56 1021.14,-149.08"/>
</g>
<!-- Node27 -->
<g id="node27" class="node">
<title>Node27</title>
<g id="a_node27"><a xlink:title=" ">
<polygon fill="#e0e0e0" stroke="#999999" points="993.5,-19 946.5,-19 946.5,0 993.5,0 993.5,-19"/>
<text text-anchor="middle" x="970" y="-7" font-family="Helvetica,sans-Serif" font-size="10.00">vector</text>
</a>
</g>
</g>
<!-- Node22&#45;&gt;Node27 -->
<g id="edge61" class="edge">
<title>Node22&#45;&gt;Node27</title>
<path fill="none" stroke="#63b8ff" d="M970,-175.63C970,-148.64 970,-67.03 970,-29.61"/>
<polygon fill="#63b8ff" stroke="#63b8ff" points="973.5,-29.14 970,-19.14 966.5,-29.14 973.5,-29.14"/>
</g>
<!-- Node31 -->
<g id="node31" class="node">
<title>Node31</title>
<g id="a_node31"><a xlink:href="nonstd_8h.html" target="_top" xlink:title=" ">
<polygon fill="white" stroke="#666666" points="710,-79.5 620,-79.5 620,-60.5 710,-60.5 710,-79.5"/>
<text text-anchor="middle" x="665" y="-67.5" font-family="Helvetica,sans-Serif" font-size="10.00">ccf/ds/nonstd.h</text>
</a>
</g>
</g>
<!-- Node22&#45;&gt;Node31 -->
<g id="edge35" class="edge">
<title>Node22&#45;&gt;Node31</title>
<path fill="none" stroke="#63b8ff" d="M914.78,-175.94C876.59,-168.95 825.09,-157.34 782,-140 745.85,-125.45 707.63,-100.94 685.06,-85.38"/>
<polygon fill="#63b8ff" stroke="#63b8ff" points="686.87,-82.38 676.67,-79.52 682.86,-88.12 686.87,-82.38"/>
</g>
<!-- Node34 -->
<g id="node34" class="node">
<title>Node34</title>
<g id="a_node34"><a xlink:title=" ">
<polygon fill="#e0e0e0" stroke="#999999" points="615,-19 571,-19 571,0 615,0 615,-19"/>
<text text-anchor="middle" x="593" y="-7" font-family="Helvetica,sans-Serif" font-size="10.00">string</text>
</a>
</g>
</g>
<!-- Node22&#45;&gt;Node34 -->
<g id="edge60" class="edge">
<title>Node22&#45;&gt;Node34</title>
<path fill="none" stroke="#63b8ff" d="M914.61,-178.55C867.43,-172.35 798.37,-160.59 741,-140 724.34,-134.02 722.72,-126.8 706,-121 616.95,-90.1 557.73,-157.08 497,-85 488.41,-74.8 489.82,-66.24 497,-55 504.42,-43.38 536.13,-30.09 561.11,-21.08"/>
<polygon fill="#63b8ff" stroke="#63b8ff" points="562.35,-24.36 570.62,-17.74 560.03,-17.75 562.35,-24.36"/>
</g>
<!-- Node35 -->
<g id="node35" class="node">
<title>Node35</title>
<g id="a_node35"><a xlink:href="serializer_8h.html" target="_top" xlink:title=" ">
<polygon fill="white" stroke="#666666" points="861,-140 791,-140 791,-121 861,-121 861,-140"/>
<text text-anchor="middle" x="826" y="-128" font-family="Helvetica,sans-Serif" font-size="10.00">serializer.h</text>
</a>
</g>
</g>
<!-- Node22&#45;&gt;Node35 -->
<g id="edge43" class="edge">
<title>Node22&#45;&gt;Node35</title>
<path fill="none" stroke="#63b8ff" d="M946.86,-175.98C923.18,-167.27 886.13,-153.63 859.29,-143.75"/>
<polygon fill="#63b8ff" stroke="#63b8ff" points="860.15,-140.34 849.56,-140.17 857.73,-146.91 860.15,-140.34"/>
</g>
<!-- Node39 -->
<g id="node39" class="node">
<title>Node39</title>
<g id="a_node39"><a xlink:title=" ">
<polygon fill="#e0e0e0" stroke="#999999" points="866,-79.5 826,-79.5 826,-60.5 866,-60.5 866,-79.5"/>
<text text-anchor="middle" x="846" y="-67.5" font-family="Helvetica,sans-Serif" font-size="10.00">span</text>
</a>
</g>
</g>
<!-- Node22&#45;&gt;Node39 -->
<g id="edge59" class="edge">
<title>Node22&#45;&gt;Node39</title>
<path fill="none" stroke="#63b8ff" d="M960.68,-175.97C939.85,-156.91 889.3,-110.63 862.82,-86.39"/>
<polygon fill="#63b8ff" stroke="#63b8ff" points="865.17,-83.8 855.43,-79.63 860.44,-88.96 865.17,-83.8"/>
</g>
<!-- Node22&#45;&gt;Node41 -->
<g id="edge56" class="edge">
<title>Node22&#45;&gt;Node41</title>
<path fill="none" stroke="#63b8ff" d="M994.26,-175.98C1019.32,-167.19 1058.63,-153.39 1086.83,-143.49"/>
<polygon fill="#63b8ff" stroke="#63b8ff" points="1088.02,-146.78 1096.3,-140.17 1085.7,-140.18 1088.02,-146.78"/>
</g>
<!-- Node24 -->
<g id="node24" class="node">
<title>Node24</title>
<g id="a_node24"><a xlink:href="siphash_8h.html" target="_top" xlink:title=" ">
<polygon fill="white" stroke="#666666" points="1131.5,-79.5 1036.5,-79.5 1036.5,-60.5 1131.5,-60.5 1131.5,-79.5"/>
<text text-anchor="middle" x="1084" y="-67.5" font-family="Helvetica,sans-Serif" font-size="10.00">ccf/ds/siphash.h</text>
</a>
</g>
</g>
<!-- Node23&#45;&gt;Node24 -->
<g id="edge26" class="edge">
<title>Node23&#45;&gt;Node24</title>
<path fill="none" stroke="#63b8ff" d="M1044.79,-120.87C1051.65,-112.14 1062.43,-98.43 1070.95,-87.59"/>
<polygon fill="#63b8ff" stroke="#63b8ff" points="1073.75,-89.69 1077.18,-79.67 1068.25,-85.36 1073.75,-89.69"/>
</g>
<!-- Node26 -->
<g id="node26" class="node">
<title>Node26</title>
<g id="a_node26"><a xlink:title=" ">
<polygon fill="#e0e0e0" stroke="#999999" points="1211,-19 1161,-19 1161,0 1211,0 1211,-19"/>
<text text-anchor="middle" x="1186" y="-7" font-family="Helvetica,sans-Serif" font-size="10.00">cstdint</text>
</a>
</g>
</g>
<!-- Node23&#45;&gt;Node26 -->
<g id="edge31" class="edge">
<title>Node23&#45;&gt;Node26</title>
<path fill="none" stroke="#63b8ff" d="M1078.08,-122.36C1081.1,-121.88 1084.09,-121.42 1087,-121 1156.08,-111.03 1352.56,-137.1 1399,-85 1450.68,-27.02 1294.57,-14.16 1221.52,-11.31"/>
<polygon fill="#63b8ff" stroke="#63b8ff" points="1221.49,-7.81 1211.37,-10.96 1221.25,-14.8 1221.49,-7.81"/>
</g>
<!-- Node23&#45;&gt;Node27 -->
<g id="edge34" class="edge">
<title>Node23&#45;&gt;Node27</title>
<path fill="none" stroke="#63b8ff" d="M1033.11,-120.94C1022.04,-101.57 994.87,-54.02 980.05,-28.08"/>
<polygon fill="#63b8ff" stroke="#63b8ff" points="983.03,-26.25 975.03,-19.3 976.95,-29.72 983.03,-26.25"/>
</g>
<!-- Node28 -->
<g id="node28" class="node">
<title>Node28</title>
<g id="a_node28"><a xlink:title=" ">
<polygon fill="#e0e0e0" stroke="#999999" points="828,-19 786,-19 786,0 828,0 828,-19"/>
<text text-anchor="middle" x="807" y="-7" font-family="Helvetica,sans-Serif" font-size="10.00">array</text>
</a>
</g>
</g>
<!-- Node23&#45;&gt;Node28 -->
<g id="edge30" class="edge">
<title>Node23&#45;&gt;Node28</title>
<path fill="none" stroke="#63b8ff" d="M1018.09,-120.91C998.33,-112.25 967.28,-98.31 941,-85 901.66,-65.08 857.13,-39.74 830.59,-24.34"/>
<polygon fill="#63b8ff" stroke="#63b8ff" points="832.07,-21.16 821.67,-19.15 828.55,-27.21 832.07,-21.16"/>
</g>
<!-- Node29 -->
<g id="node29" class="node">
<title>Node29</title>
<g id="a_node29"><a xlink:title=" ">
<polygon fill="#e0e0e0" stroke="#999999" points="1389.5,-79.5 1240.5,-79.5 1240.5,-60.5 1389.5,-60.5 1389.5,-79.5"/>
<text text-anchor="middle" x="1315" y="-67.5" font-family="Helvetica,sans-Serif" font-size="10.00">small_vector/SmallVector.h</text>
</a>
</g>
</g>
<!-- Node23&#45;&gt;Node29 -->
<g id="edge32" class="edge">
<title>Node23&#45;&gt;Node29</title>
<path fill="none" stroke="#63b8ff" d="M1078.28,-120.99C1127.62,-110.57 1211.21,-92.92 1264.72,-81.62"/>
<polygon fill="#63b8ff" stroke="#63b8ff" points="1265.61,-85.01 1274.67,-79.52 1264.17,-78.16 1265.61,-85.01"/>
</g>
<!-- Node30 -->
<g id="node30" class="node">
<title>Node30</title>
<g id="a_node30"><a xlink:title=" ">
<polygon fill="#e0e0e0" stroke="#999999" points="925.5,-19 852.5,-19 852.5,0 925.5,0 925.5,-19"/>
<text text-anchor="middle" x="889" y="-7" font-family="Helvetica,sans-Serif" font-size="10.00">string_view</text>
</a>
</g>
</g>
<!-- Node23&#45;&gt;Node30 -->
<g id="edge33" class="edge">
<title>Node23&#45;&gt;Node30</title>
<path fill="none" stroke="#63b8ff" d="M1027.28,-120.94C1002.28,-100.97 939.79,-51.06 908.09,-25.75"/>
<polygon fill="#63b8ff" stroke="#63b8ff" points="910.02,-22.81 900.02,-19.3 905.65,-28.28 910.02,-22.81"/>
</g>
<!-- Node25 -->
<g id="node25" class="node">
<title>Node25</title>
<g id="a_node25"><a xlink:title=" ">
<polygon fill="#e0e0e0" stroke="#999999" points="1110.5,-19 1057.5,-19 1057.5,0 1110.5,0 1110.5,-19"/>
<text text-anchor="middle" x="1084" y="-7" font-family="Helvetica,sans-Serif" font-size="10.00">cstddef</text>
</a>
</g>
</g>
<!-- Node24&#45;&gt;Node25 -->
<g id="edge27" class="edge">
<title>Node24&#45;&gt;Node25</title>
<path fill="none" stroke="#63b8ff" d="M1084,-60.37C1084,-52.25 1084,-39.81 1084,-29.39"/>
<polygon fill="#63b8ff" stroke="#63b8ff" points="1087.5,-29.17 1084,-19.17 1080.5,-29.17 1087.5,-29.17"/>
</g>
<!-- Node24&#45;&gt;Node26 -->
<g id="edge28" class="edge">
<title>Node24&#45;&gt;Node26</title>
<path fill="none" stroke="#63b8ff" d="M1099.05,-60.37C1115.62,-50.86 1142.5,-35.45 1161.99,-24.27"/>
<polygon fill="#63b8ff" stroke="#63b8ff" points="1163.95,-27.18 1170.89,-19.17 1160.47,-21.11 1163.95,-27.18"/>
</g>
<!-- Node24&#45;&gt;Node27 -->
<g id="edge29" class="edge">
<title>Node24&#45;&gt;Node27</title>
<path fill="none" stroke="#63b8ff" d="M1067.18,-60.37C1048.4,-50.73 1017.8,-35.03 995.95,-23.81"/>
<polygon fill="#63b8ff" stroke="#63b8ff" points="997.39,-20.62 986.89,-19.17 994.19,-26.85 997.39,-20.62"/>
</g>
<!-- Node31&#45;&gt;Node17 -->
<g id="edge41" class="edge">
<title>Node31&#45;&gt;Node17</title>
<path fill="none" stroke="#63b8ff" d="M643.62,-60.49C618.69,-50.57 577.28,-34.09 548.86,-22.78"/>
<polygon fill="#63b8ff" stroke="#63b8ff" points="549.99,-19.46 539.4,-19.02 547.4,-25.97 549.99,-19.46"/>
</g>
<!-- Node31&#45;&gt;Node27 -->
<g id="edge42" class="edge">
<title>Node31&#45;&gt;Node27</title>
<path fill="none" stroke="#63b8ff" d="M696.6,-60.48C704.23,-58.55 712.38,-56.6 720,-55 814.81,-35.03 840.09,-38.45 935,-19 935.46,-18.91 935.92,-18.81 936.39,-18.71"/>
<polygon fill="#63b8ff" stroke="#63b8ff" points="937.33,-22.09 946.33,-16.49 935.81,-15.26 937.33,-22.09"/>
</g>
<!-- Node31&#45;&gt;Node28 -->
<g id="edge37" class="edge">
<title>Node31&#45;&gt;Node28</title>
<path fill="none" stroke="#63b8ff" d="M685.65,-60.49C709.63,-50.62 749.39,-34.23 776.83,-22.93"/>
<polygon fill="#63b8ff" stroke="#63b8ff" points="778.41,-26.06 786.33,-19.02 775.75,-19.59 778.41,-26.06"/>
</g>
<!-- Node31&#45;&gt;Node30 -->
<g id="edge40" class="edge">
<title>Node31&#45;&gt;Node30</title>
<path fill="none" stroke="#63b8ff" d="M697.57,-60.49C736.97,-50.2 803.39,-32.86 846.71,-21.54"/>
<polygon fill="#63b8ff" stroke="#63b8ff" points="847.6,-24.93 856.39,-19.02 845.83,-18.16 847.6,-24.93"/>
</g>
<!-- Node32 -->
<g id="node32" class="node">
<title>Node32</title>
<g id="a_node32"><a xlink:title=" ">
<polygon fill="#e0e0e0" stroke="#999999" points="697,-19 633,-19 633,0 697,0 697,-19"/>
<text text-anchor="middle" x="665" y="-7" font-family="Helvetica,sans-Serif" font-size="10.00">algorithm</text>
</a>
</g>
</g>
<!-- Node31&#45;&gt;Node32 -->
<g id="edge36" class="edge">
<title>Node31&#45;&gt;Node32</title>
<path fill="none" stroke="#63b8ff" d="M665,-60.37C665,-52.25 665,-39.81 665,-29.39"/>
<polygon fill="#63b8ff" stroke="#63b8ff" points="668.5,-29.17 665,-19.17 661.5,-29.17 668.5,-29.17"/>
</g>
<!-- Node33 -->
<g id="node33" class="node">
<title>Node33</title>
<g id="a_node33"><a xlink:title=" ">
<polygon fill="#e0e0e0" stroke="#999999" points="764.5,-19 715.5,-19 715.5,0 764.5,0 764.5,-19"/>
<text text-anchor="middle" x="740" y="-7" font-family="Helvetica,sans-Serif" font-size="10.00">cctype</text>
</a>
</g>
</g>
<!-- Node31&#45;&gt;Node33 -->
<g id="edge38" class="edge">
<title>Node31&#45;&gt;Node33</title>
<path fill="none" stroke="#63b8ff" d="M676.07,-60.37C687.81,-51.21 706.59,-36.56 720.76,-25.51"/>
<polygon fill="#63b8ff" stroke="#63b8ff" points="723.16,-28.08 728.89,-19.17 718.85,-22.56 723.16,-28.08"/>
</g>
<!-- Node31&#45;&gt;Node34 -->
<g id="edge39" class="edge">
<title>Node31&#45;&gt;Node34</title>
<path fill="none" stroke="#63b8ff" d="M654.38,-60.37C643.1,-51.21 625.08,-36.56 611.47,-25.51"/>
<polygon fill="#63b8ff" stroke="#63b8ff" points="613.64,-22.76 603.67,-19.17 609.22,-28.19 613.64,-22.76"/>
</g>
<!-- Node35&#45;&gt;Node17 -->
<g id="edge54" class="edge">
<title>Node35&#45;&gt;Node17</title>
<path fill="none" stroke="#63b8ff" d="M790.91,-127.29C746.99,-123.4 670.32,-112.91 611,-85 608.88,-84 563.08,-47.02 536.56,-25.55"/>
<polygon fill="#63b8ff" stroke="#63b8ff" points="538.68,-22.76 528.71,-19.19 534.27,-28.2 538.68,-22.76"/>
</g>
<!-- Node35&#45;&gt;Node27 -->
<g id="edge55" class="edge">
<title>Node35&#45;&gt;Node27</title>
<path fill="none" stroke="#63b8ff" d="M821.32,-120.67C814.04,-105.58 802.3,-74.59 817,-55 820.68,-50.1 892.57,-30.66 936.48,-19.16"/>
<polygon fill="#63b8ff" stroke="#63b8ff" points="937.39,-22.54 946.18,-16.63 935.62,-15.77 937.39,-22.54"/>
</g>
<!-- Node35&#45;&gt;Node31 -->
<g id="edge44" class="edge">
<title>Node35&#45;&gt;Node31</title>
<path fill="none" stroke="#63b8ff" d="M802.59,-120.99C775.05,-110.99 729.13,-94.3 697.99,-82.99"/>
<polygon fill="#63b8ff" stroke="#63b8ff" points="699.03,-79.64 688.44,-79.52 696.64,-86.22 699.03,-79.64"/>
</g>
<!-- Node36 -->
<g id="node36" class="node">
<title>Node36</title>
<g id="a_node36"><a xlink:href="serialized_8h.html" target="_top" xlink:title=" ">
<polygon fill="white" stroke="#666666" points="1222.5,-79.5 1149.5,-79.5 1149.5,-60.5 1222.5,-60.5 1222.5,-79.5"/>
<text text-anchor="middle" x="1186" y="-67.5" font-family="Helvetica,sans-Serif" font-size="10.00">serialized.h</text>
</a>
</g>
</g>
<!-- Node35&#45;&gt;Node36 -->
<g id="edge45" class="edge">
<title>Node35&#45;&gt;Node36</title>
<path fill="none" stroke="#63b8ff" d="M861.29,-126.39C919.9,-120.81 1040.77,-107.52 1141,-85 1144.38,-84.24 1147.86,-83.35 1151.33,-82.4"/>
<polygon fill="#63b8ff" stroke="#63b8ff" points="1152.35,-85.74 1160.97,-79.57 1150.38,-79.03 1152.35,-85.74"/>
</g>
<!-- Node38 -->
<g id="node38" class="node">
<title>Node38</title>
<g id="a_node38"><a xlink:title=" ">
<polygon fill="#e0e0e0" stroke="#999999" points="564,-79.5 506,-79.5 506,-60.5 564,-60.5 564,-79.5"/>
<text text-anchor="middle" x="535" y="-67.5" font-family="Helvetica,sans-Serif" font-size="10.00">memory</text>
</a>
</g>
</g>
<!-- Node35&#45;&gt;Node38 -->
<g id="edge51" class="edge">
<title>Node35&#45;&gt;Node38</title>
<path fill="none" stroke="#63b8ff" d="M790.77,-124.73C742.39,-117.84 652.88,-103.81 578,-85 575.05,-84.26 572.01,-83.42 568.97,-82.53"/>
<polygon fill="#63b8ff" stroke="#63b8ff" points="569.98,-79.18 559.39,-79.58 567.92,-85.87 569.98,-79.18"/>
</g>
<!-- Node35&#45;&gt;Node39 -->
<g id="edge52" class="edge">
<title>Node35&#45;&gt;Node39</title>
<path fill="none" stroke="#63b8ff" d="M828.95,-120.87C831.79,-112.57 836.16,-99.78 839.77,-89.22"/>
<polygon fill="#63b8ff" stroke="#63b8ff" points="843.11,-90.26 843.04,-79.67 836.49,-88 843.11,-90.26"/>
</g>
<!-- Node40 -->
<g id="node40" class="node">
<title>Node40</title>
<g id="a_node40"><a xlink:title=" ">
<polygon fill="#e0e0e0" stroke="#999999" points="769.5,-79.5 728.5,-79.5 728.5,-60.5 769.5,-60.5 769.5,-79.5"/>
<text text-anchor="middle" x="749" y="-67.5" font-family="Helvetica,sans-Serif" font-size="10.00">tuple</text>
</a>
</g>
</g>
<!-- Node35&#45;&gt;Node40 -->
<g id="edge53" class="edge">
<title>Node35&#45;&gt;Node40</title>
<path fill="none" stroke="#63b8ff" d="M814.64,-120.87C802.58,-111.71 783.3,-97.06 768.75,-86.01"/>
<polygon fill="#63b8ff" stroke="#63b8ff" points="770.49,-82.93 760.41,-79.67 766.25,-88.5 770.49,-82.93"/>
</g>
<!-- Node36&#45;&gt;Node21 -->
<g id="edge47" class="edge">
<title>Node36&#45;&gt;Node21</title>
<path fill="none" stroke="#63b8ff" d="M1212.63,-60.41C1218.95,-58.51 1225.69,-56.59 1232,-55 1297.75,-38.48 1375.64,-24.1 1419.79,-16.42"/>
<polygon fill="#63b8ff" stroke="#63b8ff" points="1420.48,-19.85 1429.74,-14.7 1419.29,-12.96 1420.48,-19.85"/>
</g>
<!-- Node36&#45;&gt;Node26 -->
<g id="edge46" class="edge">
<title>Node36&#45;&gt;Node26</title>
<path fill="none" stroke="#63b8ff" d="M1186,-60.37C1186,-52.25 1186,-39.81 1186,-29.39"/>
<polygon fill="#63b8ff" stroke="#63b8ff" points="1189.5,-29.17 1186,-19.17 1182.5,-29.17 1189.5,-29.17"/>
</g>
<!-- Node36&#45;&gt;Node27 -->
<g id="edge50" class="edge">
<title>Node36&#45;&gt;Node27</title>
<path fill="none" stroke="#63b8ff" d="M1158.93,-60.35C1153.04,-58.53 1146.82,-56.66 1141,-55 1093.55,-41.45 1038.21,-27.36 1003.64,-18.76"/>
<polygon fill="#63b8ff" stroke="#63b8ff" points="1004.15,-15.28 993.61,-16.27 1002.47,-22.07 1004.15,-15.28"/>
</g>
<!-- Node36&#45;&gt;Node34 -->
<g id="edge49" class="edge">
<title>Node36&#45;&gt;Node34</title>
<path fill="none" stroke="#63b8ff" d="M1161.97,-60.4C1155.26,-58.3 1147.92,-56.3 1141,-55 917.83,-13.1 852.9,-56.38 625.15,-18.83"/>
<polygon fill="#63b8ff" stroke="#63b8ff" points="625.67,-15.37 615.23,-17.16 624.51,-22.27 625.67,-15.37"/>
</g>
<!-- Node36&#45;&gt;Node37 -->
<g id="edge48" class="edge">
<title>Node36&#45;&gt;Node37</title>
<path fill="none" stroke="#63b8ff" d="M1211.6,-60.43C1218.19,-58.44 1225.32,-56.48 1232,-55 1341.55,-30.81 1373.57,-38.02 1488.58,-18.96"/>
<polygon fill="#63b8ff" stroke="#63b8ff" points="1489.2,-22.4 1498.48,-17.28 1488.03,-15.5 1489.2,-22.4"/>
</g>
<!-- Node44&#45;&gt;Node22 -->
<g id="edge70" class="edge">
<title>Node44&#45;&gt;Node22</title>
<path fill="none" stroke="#63b8ff" d="M126.17,-241.53C261.98,-233.97 591.83,-215.08 868,-195 879.91,-194.13 892.59,-193.14 904.82,-192.14"/>
<polygon fill="#63b8ff" stroke="#63b8ff" points="905.29,-195.61 914.96,-191.3 904.71,-188.64 905.29,-195.61"/>
</g>
<!-- Node45 -->
<g id="node45" class="node">
<title>Node45</title>
<g id="a_node45"><a xlink:href="lfs__interface_8h.html" target="_top" xlink:title=" ">
<polygon fill="white" stroke="#666666" points="158.5,-140 27.5,-140 27.5,-121 158.5,-121 158.5,-140"/>
<text text-anchor="middle" x="93" y="-128" font-family="Helvetica,sans-Serif" font-size="10.00">indexing/lfs_interface.h</text>
</a>
</g>
</g>
<!-- Node44&#45;&gt;Node45 -->
<g id="edge71" class="edge">
<title>Node44&#45;&gt;Node45</title>
<path fill="none" stroke="#63b8ff" d="M66.8,-230.63C72.22,-210.12 82.17,-172.47 88.13,-149.93"/>
<polygon fill="#63b8ff" stroke="#63b8ff" points="91.52,-150.79 90.69,-140.23 84.75,-149 91.52,-150.79"/>
</g>
<!-- Node45&#45;&gt;Node27 -->
<g id="edge75" class="edge">
<title>Node45&#45;&gt;Node27</title>
<path fill="none" stroke="#63b8ff" d="M138.47,-120.99C240.31,-101.94 479.24,-57.36 497,-55 690.62,-29.26 742.18,-50.14 935,-19 935.46,-18.93 935.93,-18.85 936.4,-18.77"/>
<polygon fill="#63b8ff" stroke="#63b8ff" points="937.26,-22.16 946.38,-16.77 935.89,-15.3 937.26,-22.16"/>
</g>
<!-- Node45&#45;&gt;Node34 -->
<g id="edge74" class="edge">
<title>Node45&#45;&gt;Node34</title>
<path fill="none" stroke="#63b8ff" d="M122.88,-120.89C174.18,-106.26 282.43,-76.11 375,-55 454.46,-36.88 477.85,-38.08 560.83,-19.12"/>
<polygon fill="#63b8ff" stroke="#63b8ff" points="561.75,-22.5 570.7,-16.84 560.17,-15.68 561.75,-22.5"/>
</g>
<!-- Node45&#45;&gt;Node38 -->
<g id="edge73" class="edge">
<title>Node45&#45;&gt;Node38</title>
<path fill="none" stroke="#63b8ff" d="M157.27,-120.99C250.23,-108.69 419.4,-86.3 495.75,-76.19"/>
<polygon fill="#63b8ff" stroke="#63b8ff" points="496.44,-79.63 505.89,-74.85 495.52,-72.69 496.44,-79.63"/>
</g>
<!-- Node46 -->
<g id="node46" class="node">
<title>Node46</title>
<g id="a_node46"><a xlink:href="node__subsystem__interface_8h.html" target="_top" xlink:title=" ">
<polygon fill="white" stroke="#666666" points="151,-85 35,-85 35,-55 151,-55 151,-85"/>
<text text-anchor="start" x="43" y="-73" font-family="Helvetica,sans-Serif" font-size="10.00">ccf/node_subsystem</text>
<text text-anchor="middle" x="93" y="-62" font-family="Helvetica,sans-Serif" font-size="10.00">_interface.h</text>
</a>
</g>
</g>
<!-- Node45&#45;&gt;Node46 -->
<g id="edge72" class="edge">
<title>Node45&#45;&gt;Node46</title>
<path fill="none" stroke="#63b8ff" d="M93,-120.87C93,-114.11 93,-104.35 93,-95.26"/>
<polygon fill="#63b8ff" stroke="#63b8ff" points="96.5,-95.11 93,-85.11 89.5,-95.11 96.5,-95.11"/>
</g>
</g>
</svg>
