<?xml version="1.0" encoding="UTF-8" standalone="no"?>
<!DOCTYPE svg PUBLIC "-//W3C//DTD SVG 1.1//EN"
 "http://www.w3.org/Graphics/SVG/1.1/DTD/svg11.dtd">
<!-- Generated by graphviz version 2.43.0 (0)
 -->
<!-- Title: src/ds/messaging.h Pages: 1 -->
<!--zoomable 302 -->
<svg id="main" version="1.1" xmlns="http://www.w3.org/2000/svg" xmlns:xlink="http://www.w3.org/1999/xlink" xml:space="preserve" onload="init(evt)">
<style type="text/css"><![CDATA[
.edge:hover path { stroke: red; }
.edge:hover polygon { stroke: red; fill: red; }
]]></style>
<script type="text/javascript"><![CDATA[
var edges = document.getElementsByTagName('g');
if (edges && edges.length) {
  for (var i=0;i<edges.length;i++) {
    if (edges[i].id.substr(0,4)=='edge') {
      edges[i].setAttribute('class','edge');
    }
  }
}
]]></script>
        <defs>
                <circle id="rim" cx="0" cy="0" r="7"/>
                <circle id="rim2" cx="0" cy="0" r="3.5"/>
                <g id="zoomPlus">
                        <use xlink:href="#rim" fill="#404040">
                                <set attributeName="fill" to="#808080" begin="zoomplus.mouseover" end="zoomplus.mouseout"/>
                        </use>
                        <path d="M-4,0h8M0,-4v8" fill="none" stroke="white" stroke-width="1.5" pointer-events="none"/>
                </g>
                <g id="zoomMin">
                        <use xlink:href="#rim" fill="#404040">
                                <set attributeName="fill" to="#808080" begin="zoomminus.mouseover" end="zoomminus.mouseout"/>
                        </use>
                        <path d="M-4,0h8" fill="none" stroke="white" stroke-width="1.5" pointer-events="none"/>
                </g>
                <g id="dirArrow">
                        <path fill="none" stroke="white" stroke-width="1.5" d="M0,-3.0v7 M-2.5,-0.5L0,-3.0L2.5,-0.5"/>
                </g>
               <g id="resetDef">
                       <use xlink:href="#rim2" fill="#404040">
                               <set attributeName="fill" to="#808080" begin="reset.mouseover" end="reset.mouseout"/>
                       </use>
               </g>
        </defs>

<script type="text/javascript">
var viewWidth = 1436;
var viewHeight = 302;
var sectionId = 'dynsection-0';
</script>
<script xlink:href="svgpan.js"/>
<svg id="graph" class="graph">
<g id="viewport">
<title>src/ds/messaging.h</title>
<!-- Node1 -->
<g id="node1" class="node">
<title>Node1</title>
<g id="a_node1"><a xlink:title=" ">
<polygon fill="#999999" stroke="#666666" points="959.3,-294 849.3,-294 849.3,-275 959.3,-275 959.3,-294"/>
<text text-anchor="middle" x="904.3" y="-282" font-family="Helvetica,sans-Serif" font-size="10.00">src/ds/messaging.h</text>
</a>
</g>
</g>
<!-- Node2 -->
<g id="node2" class="node">
<title>Node2</title>
<g id="a_node2"><a xlink:href="logger_8h.html" target="_top" xlink:title=" ">
<polygon fill="white" stroke="#666666" points="464.8,-239 377.8,-239 377.8,-220 464.8,-220 464.8,-239"/>
<text text-anchor="middle" x="421.3" y="-227" font-family="Helvetica,sans-Serif" font-size="10.00">ccf/ds/logger.h</text>
</a>
</g>
</g>
<!-- Node1&#45;&gt;Node2 -->
<g id="edge1" class="edge">
<title>Node1&#45;&gt;Node2</title>
<path fill="none" stroke="#63b8ff" d="M848.9,-277.42C755.39,-267.16 567.45,-246.54 475.07,-236.4"/>
<polygon fill="#63b8ff" stroke="#63b8ff" points="475.41,-232.92 465.09,-235.3 474.65,-239.87 475.41,-232.92"/>
</g>
<!-- Node9 -->
<g id="node9" class="node">
<title>Node9</title>
<g id="a_node9"><a xlink:title=" ">
<polygon fill="#e0e0e0" stroke="#999999" points="50.3,-129 12.3,-129 12.3,-110 50.3,-110 50.3,-129"/>
<text text-anchor="middle" x="31.3" y="-117" font-family="Helvetica,sans-Serif" font-size="10.00">map</text>
</a>
</g>
</g>
<!-- Node1&#45;&gt;Node9 -->
<g id="edge66" class="edge">
<title>Node1&#45;&gt;Node9</title>
<path fill="none" stroke="#63b8ff" d="M849.29,-280.71C669.93,-271.11 110.23,-237.14 50.3,-184 37.8,-172.92 33.37,-153.98 31.87,-139.66"/>
<polygon fill="#63b8ff" stroke="#63b8ff" points="35.35,-139.16 31.21,-129.41 28.36,-139.62 35.35,-139.16"/>
</g>
<!-- Node17 -->
<g id="node17" class="node">
<title>Node17</title>
<g id="a_node17"><a xlink:href="ring__buffer_8h.html" target="_top" xlink:title=" ">
<polygon fill="white" stroke="#666666" points="1203.8,-239 1126.8,-239 1126.8,-220 1203.8,-220 1203.8,-239"/>
<text text-anchor="middle" x="1165.3" y="-227" font-family="Helvetica,sans-Serif" font-size="10.00">ring_buffer.h</text>
</a>
</g>
</g>
<!-- Node1&#45;&gt;Node17 -->
<g id="edge18" class="edge">
<title>Node1&#45;&gt;Node17</title>
<path fill="none" stroke="#63b8ff" d="M946.24,-274.98C992.65,-265.56 1067.36,-250.39 1116.4,-240.43"/>
<polygon fill="#63b8ff" stroke="#63b8ff" points="1117.35,-243.81 1126.46,-238.39 1115.96,-236.95 1117.35,-243.81"/>
</g>
<!-- Node36 -->
<g id="node36" class="node">
<title>Node36</title>
<g id="a_node36"><a xlink:title=" ">
<polygon fill="#e0e0e0" stroke="#999999" points="1247.8,-19 1182.8,-19 1182.8,0 1247.8,0 1247.8,-19"/>
<text text-anchor="middle" x="1215.3" y="-7" font-family="Helvetica,sans-Serif" font-size="10.00">stdexcept</text>
</a>
</g>
</g>
<!-- Node1&#45;&gt;Node36 -->
<g id="edge67" class="edge">
<title>Node1&#45;&gt;Node36</title>
<path fill="none" stroke="#63b8ff" d="M912.55,-274.92C940.58,-246.32 1035.97,-153.53 1134.3,-110 1212.89,-75.21 1269.48,-140.19 1324.3,-74 1329.69,-67.5 1329.01,-62.01 1324.3,-55 1316.23,-42.99 1283.74,-30.65 1256.31,-22.02"/>
<polygon fill="#63b8ff" stroke="#63b8ff" points="1257.07,-18.59 1246.49,-19.02 1255.03,-25.29 1257.07,-18.59"/>
</g>
<!-- Node40 -->
<g id="node40" class="node">
<title>Node40</title>
<g id="a_node40"><a xlink:title=" ">
<polygon fill="#e0e0e0" stroke="#999999" points="550.3,-129 500.3,-129 500.3,-110 550.3,-110 550.3,-129"/>
<text text-anchor="middle" x="525.3" y="-117" font-family="Helvetica,sans-Serif" font-size="10.00">atomic</text>
</a>
</g>
</g>
<!-- Node1&#45;&gt;Node40 -->
<g id="edge64" class="edge">
<title>Node1&#45;&gt;Node40</title>
<path fill="none" stroke="#63b8ff" d="M898.44,-274.84C882.76,-252.42 837.33,-192.37 783.3,-165 695.31,-120.42 661.19,-147.51 564.3,-129 563.04,-128.76 561.75,-128.51 560.46,-128.25"/>
<polygon fill="#63b8ff" stroke="#63b8ff" points="560.94,-124.78 550.44,-126.18 559.52,-131.63 560.94,-124.78"/>
</g>
<!-- Node42 -->
<g id="node42" class="node">
<title>Node42</title>
<g id="a_node42"><a xlink:title=" ">
<polygon fill="#e0e0e0" stroke="#999999" points="1328.8,-239 1221.8,-239 1221.8,-220 1328.8,-220 1328.8,-239"/>
<text text-anchor="middle" x="1275.3" y="-227" font-family="Helvetica,sans-Serif" font-size="10.00">condition_variable</text>
</a>
</g>
</g>
<!-- Node1&#45;&gt;Node42 -->
<g id="edge65" class="edge">
<title>Node1&#45;&gt;Node42</title>
<path fill="none" stroke="#63b8ff" d="M959.44,-275.62C1026.78,-266 1140.46,-249.76 1211.51,-239.61"/>
<polygon fill="#63b8ff" stroke="#63b8ff" points="1212.26,-243.04 1221.67,-238.16 1211.27,-236.11 1212.26,-243.04"/>
</g>
<!-- Node3 -->
<g id="node3" class="node">
<title>Node3</title>
<g id="a_node3"><a xlink:href="enum__formatter_8h.html" target="_top" xlink:title=" ">
<polygon fill="white" stroke="#666666" points="321.3,-184 185.3,-184 185.3,-165 321.3,-165 321.3,-184"/>
<text text-anchor="middle" x="253.3" y="-172" font-family="Helvetica,sans-Serif" font-size="10.00">ccf/ds/enum_formatter.h</text>
</a>
</g>
</g>
<!-- Node2&#45;&gt;Node3 -->
<g id="edge2" class="edge">
<title>Node2&#45;&gt;Node3</title>
<path fill="none" stroke="#63b8ff" d="M394.31,-219.98C366.11,-211.09 321.66,-197.07 290.22,-187.15"/>
<polygon fill="#63b8ff" stroke="#63b8ff" points="291.1,-183.75 280.51,-184.08 288.99,-190.43 291.1,-183.75"/>
</g>
<!-- Node4 -->
<g id="node4" class="node">
<title>Node4</title>
<g id="a_node4"><a xlink:title=" ">
<polygon fill="#e0e0e0" stroke="#999999" points="397.8,-129 318.8,-129 318.8,-110 397.8,-110 397.8,-129"/>
<text text-anchor="middle" x="358.3" y="-117" font-family="Helvetica,sans-Serif" font-size="10.00">fmt/format.h</text>
</a>
</g>
</g>
<!-- Node2&#45;&gt;Node4 -->
<g id="edge12" class="edge">
<title>Node2&#45;&gt;Node4</title>
<path fill="none" stroke="#63b8ff" d="M416.15,-219.66C405.76,-201.85 382.14,-161.37 368.51,-138.01"/>
<polygon fill="#63b8ff" stroke="#63b8ff" points="371.42,-136.03 363.35,-129.16 365.37,-139.56 371.42,-136.03"/>
</g>
<!-- Node5 -->
<g id="node5" class="node">
<title>Node5</title>
<g id="a_node5"><a xlink:href="thread__ids_8h.html" target="_top" xlink:title=" ">
<polygon fill="white" stroke="#666666" points="167.3,-184 59.3,-184 59.3,-165 167.3,-165 167.3,-184"/>
<text text-anchor="middle" x="113.3" y="-172" font-family="Helvetica,sans-Serif" font-size="10.00">ccf/ds/thread_ids.h</text>
</a>
</g>
</g>
<!-- Node2&#45;&gt;Node5 -->
<g id="edge4" class="edge">
<title>Node2&#45;&gt;Node5</title>
<path fill="none" stroke="#63b8ff" d="M377.5,-220.96C323.89,-211.74 232.85,-196.07 172.9,-185.75"/>
<polygon fill="#63b8ff" stroke="#63b8ff" points="173.26,-182.27 162.82,-184.02 172.08,-189.17 173.26,-182.27"/>
</g>
<!-- Node11 -->
<g id="node11" class="node">
<title>Node11</title>
<g id="a_node11"><a xlink:title=" ">
<polygon fill="#e0e0e0" stroke="#999999" points="494.8,-184 415.8,-184 415.8,-165 494.8,-165 494.8,-184"/>
<text text-anchor="middle" x="455.3" y="-172" font-family="Helvetica,sans-Serif" font-size="10.00">fmt/chrono.h</text>
</a>
</g>
</g>
<!-- Node2&#45;&gt;Node11 -->
<g id="edge11" class="edge">
<title>Node2&#45;&gt;Node11</title>
<path fill="none" stroke="#63b8ff" d="M426.92,-219.75C431.62,-212.42 438.48,-201.73 444.27,-192.7"/>
<polygon fill="#63b8ff" stroke="#63b8ff" points="447.34,-194.4 449.79,-184.09 441.45,-190.62 447.34,-194.4"/>
</g>
<!-- Node12 -->
<g id="node12" class="node">
<title>Node12</title>
<g id="a_node12"><a xlink:title=" ">
<polygon fill="#e0e0e0" stroke="#999999" points="572.3,-184 512.3,-184 512.3,-165 572.3,-165 572.3,-184"/>
<text text-anchor="middle" x="542.3" y="-172" font-family="Helvetica,sans-Serif" font-size="10.00">iostream</text>
</a>
</g>
</g>
<!-- Node2&#45;&gt;Node12 -->
<g id="edge13" class="edge">
<title>Node2&#45;&gt;Node12</title>
<path fill="none" stroke="#63b8ff" d="M440.74,-219.98C460.3,-211.42 490.68,-198.11 513.13,-188.28"/>
<polygon fill="#63b8ff" stroke="#63b8ff" points="514.75,-191.39 522.51,-184.17 511.94,-184.98 514.75,-191.39"/>
</g>
<!-- Node13 -->
<g id="node13" class="node">
<title>Node13</title>
<g id="a_node13"><a xlink:title=" ">
<polygon fill="#e0e0e0" stroke="#999999" points="700.3,-184 590.3,-184 590.3,-165 700.3,-165 700.3,-184"/>
<text text-anchor="middle" x="645.3" y="-172" font-family="Helvetica,sans-Serif" font-size="10.00">nlohmann/json.hpp</text>
</a>
</g>
</g>
<!-- Node2&#45;&gt;Node13 -->
<g id="edge14" class="edge">
<title>Node2&#45;&gt;Node13</title>
<path fill="none" stroke="#63b8ff" d="M457.29,-219.98C495.8,-210.87 556.99,-196.4 599.04,-186.45"/>
<polygon fill="#63b8ff" stroke="#63b8ff" points="600.11,-189.79 609.03,-184.08 598.49,-182.98 600.11,-189.79"/>
</g>
<!-- Node14 -->
<g id="node14" class="node">
<title>Node14</title>
<g id="a_node14"><a xlink:title=" ">
<polygon fill="#e0e0e0" stroke="#999999" points="478.3,-129 422.3,-129 422.3,-110 478.3,-110 478.3,-129"/>
<text text-anchor="middle" x="450.3" y="-117" font-family="Helvetica,sans-Serif" font-size="10.00">optional</text>
</a>
</g>
</g>
<!-- Node2&#45;&gt;Node14 -->
<g id="edge15" class="edge">
<title>Node2&#45;&gt;Node14</title>
<path fill="none" stroke="#63b8ff" d="M416.1,-219.6C409.48,-207.05 399.77,-183.63 407.3,-165 411.99,-153.41 421.3,-143.16 430.06,-135.43"/>
<polygon fill="#63b8ff" stroke="#63b8ff" points="432.3,-138.12 437.81,-129.07 427.86,-132.71 432.3,-138.12"/>
</g>
<!-- Node15 -->
<g id="node15" class="node">
<title>Node15</title>
<g id="a_node15"><a xlink:title=" ">
<polygon fill="#e0e0e0" stroke="#999999" points="774.3,-184 718.3,-184 718.3,-165 774.3,-165 774.3,-184"/>
<text text-anchor="middle" x="746.3" y="-172" font-family="Helvetica,sans-Serif" font-size="10.00">sstream</text>
</a>
</g>
</g>
<!-- Node2&#45;&gt;Node15 -->
<g id="edge16" class="edge">
<title>Node2&#45;&gt;Node15</title>
<path fill="none" stroke="#63b8ff" d="M464.9,-222.77C519.47,-215.37 616.01,-201.55 708.03,-184.13"/>
<polygon fill="#63b8ff" stroke="#63b8ff" points="708.9,-187.52 718.07,-182.21 707.59,-180.65 708.9,-187.52"/>
</g>
<!-- Node16 -->
<g id="node16" class="node">
<title>Node16</title>
<g id="a_node16"><a xlink:title=" ">
<polygon fill="#e0e0e0" stroke="#999999" points="410.8,-19 341.8,-19 341.8,0 410.8,0 410.8,-19"/>
<text text-anchor="middle" x="376.3" y="-7" font-family="Helvetica,sans-Serif" font-size="10.00">type_traits</text>
</a>
</g>
</g>
<!-- Node2&#45;&gt;Node16 -->
<g id="edge17" class="edge">
<title>Node2&#45;&gt;Node16</title>
<path fill="none" stroke="#63b8ff" d="M377.65,-227.21C292.14,-224.05 106.06,-213.85 50.3,-184 21.96,-168.82 14.44,-159.17 3.3,-129 0.38,-121.08 -1.84,-116.7 3.3,-110 43.36,-57.85 241.17,-27.19 331.35,-15.71"/>
<polygon fill="#63b8ff" stroke="#63b8ff" points="332.05,-19.15 341.54,-14.44 331.18,-12.2 332.05,-19.15"/>
</g>
<!-- Node3&#45;&gt;Node4 -->
<g id="edge3" class="edge">
<title>Node3&#45;&gt;Node4</title>
<path fill="none" stroke="#63b8ff" d="M270.17,-164.98C286.91,-156.54 312.8,-143.47 332.2,-133.68"/>
<polygon fill="#63b8ff" stroke="#63b8ff" points="333.78,-136.8 341.13,-129.17 330.62,-130.55 333.78,-136.8"/>
</g>
<!-- Node5&#45;&gt;Node4 -->
<g id="edge5" class="edge">
<title>Node5&#45;&gt;Node4</title>
<path fill="none" stroke="#63b8ff" d="M152.67,-164.98C195.05,-155.82 262.56,-141.21 308.58,-131.26"/>
<polygon fill="#63b8ff" stroke="#63b8ff" points="309.6,-134.62 318.63,-129.08 308.12,-127.78 309.6,-134.62"/>
</g>
<!-- Node6 -->
<g id="node6" class="node">
<title>Node6</title>
<g id="a_node6"><a xlink:title=" ">
<polygon fill="#e0e0e0" stroke="#999999" points="300.3,-129 214.3,-129 214.3,-110 300.3,-110 300.3,-129"/>
<text text-anchor="middle" x="257.3" y="-117" font-family="Helvetica,sans-Serif" font-size="10.00">fmt/ostream.h</text>
</a>
</g>
</g>
<!-- Node5&#45;&gt;Node6 -->
<g id="edge6" class="edge">
<title>Node5&#45;&gt;Node6</title>
<path fill="none" stroke="#63b8ff" d="M136.44,-164.98C160.13,-156.27 197.17,-142.63 224.01,-132.75"/>
<polygon fill="#63b8ff" stroke="#63b8ff" points="225.57,-135.91 233.75,-129.17 223.15,-129.34 225.57,-135.91"/>
</g>
<!-- Node7 -->
<g id="node7" class="node">
<title>Node7</title>
<g id="a_node7"><a xlink:title=" ">
<polygon fill="#e0e0e0" stroke="#999999" points="129.8,-129 68.8,-129 68.8,-110 129.8,-110 129.8,-129"/>
<text text-anchor="middle" x="99.3" y="-117" font-family="Helvetica,sans-Serif" font-size="10.00">fmt/std.h</text>
</a>
</g>
</g>
<!-- Node5&#45;&gt;Node7 -->
<g id="edge7" class="edge">
<title>Node5&#45;&gt;Node7</title>
<path fill="none" stroke="#63b8ff" d="M110.99,-164.75C109.14,-157.72 106.47,-147.62 104.15,-138.84"/>
<polygon fill="#63b8ff" stroke="#63b8ff" points="107.51,-137.86 101.57,-129.09 100.74,-139.65 107.51,-137.86"/>
</g>
<!-- Node8 -->
<g id="node8" class="node">
<title>Node8</title>
<g id="a_node8"><a xlink:title=" ">
<polygon fill="#e0e0e0" stroke="#999999" points="806.3,-129 762.3,-129 762.3,-110 806.3,-110 806.3,-129"/>
<text text-anchor="middle" x="784.3" y="-117" font-family="Helvetica,sans-Serif" font-size="10.00">limits</text>
</a>
</g>
</g>
<!-- Node5&#45;&gt;Node8 -->
<g id="edge8" class="edge">
<title>Node5&#45;&gt;Node8</title>
<path fill="none" stroke="#63b8ff" d="M167.57,-165.94C170.52,-165.6 173.45,-165.29 176.3,-165 420.05,-140.61 482.7,-154.78 726.3,-129 734.63,-128.12 743.59,-126.93 751.93,-125.71"/>
<polygon fill="#63b8ff" stroke="#63b8ff" points="752.68,-129.14 762.05,-124.19 751.64,-122.22 752.68,-129.14"/>
</g>
<!-- Node5&#45;&gt;Node9 -->
<g id="edge9" class="edge">
<title>Node5&#45;&gt;Node9</title>
<path fill="none" stroke="#63b8ff" d="M100.13,-164.98C87.53,-156.84 68.3,-144.41 53.36,-134.76"/>
<polygon fill="#63b8ff" stroke="#63b8ff" points="55.02,-131.66 44.72,-129.17 51.22,-137.54 55.02,-131.66"/>
</g>
<!-- Node10 -->
<g id="node10" class="node">
<title>Node10</title>
<g id="a_node10"><a xlink:title=" ">
<polygon fill="#e0e0e0" stroke="#999999" points="196.3,-129 148.3,-129 148.3,-110 196.3,-110 196.3,-129"/>
<text text-anchor="middle" x="172.3" y="-117" font-family="Helvetica,sans-Serif" font-size="10.00">thread</text>
</a>
</g>
</g>
<!-- Node5&#45;&gt;Node10 -->
<g id="edge10" class="edge">
<title>Node5&#45;&gt;Node10</title>
<path fill="none" stroke="#63b8ff" d="M122.78,-164.98C131.5,-157.15 144.65,-145.34 155.2,-135.86"/>
<polygon fill="#63b8ff" stroke="#63b8ff" points="157.55,-138.46 162.65,-129.17 152.87,-133.25 157.55,-138.46"/>
</g>
<!-- Node18 -->
<g id="node18" class="node">
<title>Node18</title>
<g id="a_node18"><a xlink:href="mem_8h.html" target="_top" xlink:title=" ">
<polygon fill="white" stroke="#666666" points="1212.3,-184 1126.3,-184 1126.3,-165 1212.3,-165 1212.3,-184"/>
<text text-anchor="middle" x="1169.3" y="-172" font-family="Helvetica,sans-Serif" font-size="10.00">ccf/pal/mem.h</text>
</a>
</g>
</g>
<!-- Node17&#45;&gt;Node18 -->
<g id="edge19" class="edge">
<title>Node17&#45;&gt;Node18</title>
<path fill="none" stroke="#63b8ff" d="M1165.96,-219.75C1166.49,-212.8 1167.24,-202.85 1167.9,-194.13"/>
<polygon fill="#63b8ff" stroke="#63b8ff" points="1171.39,-194.32 1168.65,-184.09 1164.41,-193.8 1171.39,-194.32"/>
</g>
<!-- Node20 -->
<g id="node20" class="node">
<title>Node20</title>
<g id="a_node20"><a xlink:title=" ">
<polygon fill="#e0e0e0" stroke="#999999" points="1428.3,-19 1378.3,-19 1378.3,0 1428.3,0 1428.3,-19"/>
<text text-anchor="middle" x="1403.3" y="-7" font-family="Helvetica,sans-Serif" font-size="10.00">cstring</text>
</a>
</g>
</g>
<!-- Node17&#45;&gt;Node20 -->
<g id="edge62" class="edge">
<title>Node17&#45;&gt;Node20</title>
<path fill="none" stroke="#63b8ff" d="M1199.47,-219.95C1235,-210.66 1287.82,-195.6 1305.3,-184 1358.89,-148.45 1375.15,-133.6 1399.3,-74 1405.08,-59.75 1405.76,-42.22 1405.17,-29.19"/>
<polygon fill="#63b8ff" stroke="#63b8ff" points="1408.65,-28.81 1404.43,-19.09 1401.67,-29.32 1408.65,-28.81"/>
</g>
<!-- Node21 -->
<g id="node21" class="node">
<title>Node21</title>
<g id="a_node21"><a xlink:href="ring__buffer__types_8h.html" target="_top" xlink:title=" ">
<polygon fill="white" stroke="#666666" points="978.3,-184 868.3,-184 868.3,-165 978.3,-165 978.3,-184"/>
<text text-anchor="middle" x="923.3" y="-172" font-family="Helvetica,sans-Serif" font-size="10.00">ring_buffer_types.h</text>
</a>
</g>
</g>
<!-- Node17&#45;&gt;Node21 -->
<g id="edge23" class="edge">
<title>Node17&#45;&gt;Node21</title>
<path fill="none" stroke="#63b8ff" d="M1126.69,-220.04C1084.76,-210.86 1017.69,-196.17 972.13,-186.19"/>
<polygon fill="#63b8ff" stroke="#63b8ff" points="972.7,-182.73 962.18,-184.01 971.2,-189.57 972.7,-182.73"/>
</g>
<!-- Node17&#45;&gt;Node40 -->
<g id="edge61" class="edge">
<title>Node17&#45;&gt;Node40</title>
<path fill="none" stroke="#63b8ff" d="M1126.43,-226.23C1067.62,-222.05 952.94,-210.95 859.3,-184 839.22,-178.22 836.39,-170.75 816.3,-165 707.54,-133.84 675.65,-149.06 564.3,-129 563.04,-128.77 561.75,-128.53 560.45,-128.28"/>
<polygon fill="#63b8ff" stroke="#63b8ff" points="560.92,-124.81 550.42,-126.26 559.53,-131.67 560.92,-124.81"/>
</g>
<!-- Node41 -->
<g id="node41" class="node">
<title>Node41</title>
<g id="a_node41"><a xlink:title=" ">
<polygon fill="#e0e0e0" stroke="#999999" points="1295.8,-184 1230.8,-184 1230.8,-165 1295.8,-165 1295.8,-184"/>
<text text-anchor="middle" x="1263.3" y="-172" font-family="Helvetica,sans-Serif" font-size="10.00">functional</text>
</a>
</g>
</g>
<!-- Node17&#45;&gt;Node41 -->
<g id="edge63" class="edge">
<title>Node17&#45;&gt;Node41</title>
<path fill="none" stroke="#63b8ff" d="M1181.05,-219.98C1196.53,-211.61 1220.4,-198.7 1238.44,-188.95"/>
<polygon fill="#63b8ff" stroke="#63b8ff" points="1240.14,-192.01 1247.27,-184.17 1236.81,-185.85 1240.14,-192.01"/>
</g>
<!-- Node18&#45;&gt;Node8 -->
<g id="edge22" class="edge">
<title>Node18&#45;&gt;Node8</title>
<path fill="none" stroke="#63b8ff" d="M1126.26,-167.57C1048.4,-156.86 885.86,-134.48 816.64,-124.95"/>
<polygon fill="#63b8ff" stroke="#63b8ff" points="816.74,-121.43 806.36,-123.54 815.78,-128.37 816.74,-121.43"/>
</g>
<!-- Node19 -->
<g id="node19" class="node">
<title>Node19</title>
<g id="a_node19"><a xlink:title=" ">
<polygon fill="#e0e0e0" stroke="#999999" points="1195.8,-129 1142.8,-129 1142.8,-110 1195.8,-110 1195.8,-129"/>
<text text-anchor="middle" x="1169.3" y="-117" font-family="Helvetica,sans-Serif" font-size="10.00">stdlib.h</text>
</a>
</g>
</g>
<!-- Node18&#45;&gt;Node19 -->
<g id="edge20" class="edge">
<title>Node18&#45;&gt;Node19</title>
<path fill="none" stroke="#63b8ff" d="M1169.3,-164.75C1169.3,-157.8 1169.3,-147.85 1169.3,-139.13"/>
<polygon fill="#63b8ff" stroke="#63b8ff" points="1172.8,-139.09 1169.3,-129.09 1165.8,-139.09 1172.8,-139.09"/>
</g>
<!-- Node18&#45;&gt;Node20 -->
<g id="edge21" class="edge">
<title>Node18&#45;&gt;Node20</title>
<path fill="none" stroke="#63b8ff" d="M1206.7,-164.98C1253.18,-152.55 1332.13,-125.16 1379.3,-74 1390.78,-61.56 1396.93,-43.09 1400.12,-29.28"/>
<polygon fill="#63b8ff" stroke="#63b8ff" points="1403.57,-29.89 1402.09,-19.4 1396.7,-28.52 1403.57,-29.89"/>
</g>
<!-- Node21&#45;&gt;Node4 -->
<g id="edge56" class="edge">
<title>Node21&#45;&gt;Node4</title>
<path fill="none" stroke="#63b8ff" d="M868.09,-169.89C774.38,-163.49 578.31,-148.93 413.3,-129 411.59,-128.79 409.85,-128.57 408.09,-128.34"/>
<polygon fill="#63b8ff" stroke="#63b8ff" points="408.3,-124.84 397.91,-126.94 407.34,-131.77 408.3,-124.84"/>
</g>
<!-- Node21&#45;&gt;Node14 -->
<g id="edge57" class="edge">
<title>Node21&#45;&gt;Node14</title>
<path fill="none" stroke="#63b8ff" d="M868.18,-169.63C785.84,-163.44 625.98,-149.84 491.3,-129 490.39,-128.86 489.47,-128.71 488.54,-128.56"/>
<polygon fill="#63b8ff" stroke="#63b8ff" points="488.93,-125.07 478.47,-126.73 487.68,-131.96 488.93,-125.07"/>
</g>
<!-- Node22 -->
<g id="node22" class="node">
<title>Node22</title>
<g id="a_node22"><a xlink:href="include_2ccf_2ds_2hash_8h.html" target="_top" xlink:title=" ">
<polygon fill="white" stroke="#666666" points="987.3,-129 907.3,-129 907.3,-110 987.3,-110 987.3,-129"/>
<text text-anchor="middle" x="947.3" y="-117" font-family="Helvetica,sans-Serif" font-size="10.00">ccf/ds/hash.h</text>
</a>
</g>
</g>
<!-- Node21&#45;&gt;Node22 -->
<g id="edge24" class="edge">
<title>Node21&#45;&gt;Node22</title>
<path fill="none" stroke="#63b8ff" d="M927.27,-164.75C930.52,-157.57 935.22,-147.18 939.26,-138.27"/>
<polygon fill="#63b8ff" stroke="#63b8ff" points="942.48,-139.64 943.41,-129.09 936.1,-136.75 942.48,-139.64"/>
</g>
<!-- Node26 -->
<g id="node26" class="node">
<title>Node26</title>
<g id="a_node26"><a xlink:title=" ">
<polygon fill="#e0e0e0" stroke="#999999" points="921.8,-19 874.8,-19 874.8,0 921.8,0 921.8,-19"/>
<text text-anchor="middle" x="898.3" y="-7" font-family="Helvetica,sans-Serif" font-size="10.00">vector</text>
</a>
</g>
</g>
<!-- Node21&#45;&gt;Node26 -->
<g id="edge60" class="edge">
<title>Node21&#45;&gt;Node26</title>
<path fill="none" stroke="#63b8ff" d="M916.68,-164.88C910.54,-156.32 901.85,-142.54 898.3,-129 889.31,-94.62 892.45,-52.69 895.45,-29.04"/>
<polygon fill="#63b8ff" stroke="#63b8ff" points="898.93,-29.41 896.85,-19.02 892,-28.44 898.93,-29.41"/>
</g>
<!-- Node30 -->
<g id="node30" class="node">
<title>Node30</title>
<g id="a_node30"><a xlink:href="nonstd_8h.html" target="_top" xlink:title=" ">
<polygon fill="white" stroke="#666666" points="543.3,-74 453.3,-74 453.3,-55 543.3,-55 543.3,-74"/>
<text text-anchor="middle" x="498.3" y="-62" font-family="Helvetica,sans-Serif" font-size="10.00">ccf/ds/nonstd.h</text>
</a>
</g>
</g>
<!-- Node21&#45;&gt;Node30 -->
<g id="edge34" class="edge">
<title>Node21&#45;&gt;Node30</title>
<path fill="none" stroke="#63b8ff" d="M868.07,-166.68C797.72,-157.69 680.23,-141.53 638.3,-129 626.89,-125.59 563.3,-96.05 525.86,-78.48"/>
<polygon fill="#63b8ff" stroke="#63b8ff" points="527.05,-75.17 516.51,-74.09 524.07,-81.51 527.05,-75.17"/>
</g>
<!-- Node33 -->
<g id="node33" class="node">
<title>Node33</title>
<g id="a_node33"><a xlink:title=" ">
<polygon fill="#e0e0e0" stroke="#999999" points="540.3,-19 496.3,-19 496.3,0 540.3,0 540.3,-19"/>
<text text-anchor="middle" x="518.3" y="-7" font-family="Helvetica,sans-Serif" font-size="10.00">string</text>
</a>
</g>
</g>
<!-- Node21&#45;&gt;Node33 -->
<g id="edge59" class="edge">
<title>Node21&#45;&gt;Node33</title>
<path fill="none" stroke="#63b8ff" d="M868.02,-166.63C777.21,-155.27 605.19,-133.38 592.3,-129 576.28,-123.55 574.8,-116.79 559.3,-110 510.25,-88.51 476.02,-117.16 444.3,-74 428.59,-52.62 459.86,-33.61 486.47,-22.09"/>
<polygon fill="#63b8ff" stroke="#63b8ff" points="488.05,-25.23 495.97,-18.19 485.39,-18.75 488.05,-25.23"/>
</g>
<!-- Node34 -->
<g id="node34" class="node">
<title>Node34</title>
<g id="a_node34"><a xlink:href="serializer_8h.html" target="_top" xlink:title=" ">
<polygon fill="white" stroke="#666666" points="717.3,-129 647.3,-129 647.3,-110 717.3,-110 717.3,-129"/>
<text text-anchor="middle" x="682.3" y="-117" font-family="Helvetica,sans-Serif" font-size="10.00">serializer.h</text>
</a>
</g>
</g>
<!-- Node21&#45;&gt;Node34 -->
<g id="edge42" class="edge">
<title>Node21&#45;&gt;Node34</title>
<path fill="none" stroke="#63b8ff" d="M884.58,-164.98C841.66,-155.54 772.52,-140.34 727.24,-130.38"/>
<polygon fill="#63b8ff" stroke="#63b8ff" points="727.92,-126.95 717.4,-128.22 726.42,-133.78 727.92,-126.95"/>
</g>
<!-- Node38 -->
<g id="node38" class="node">
<title>Node38</title>
<g id="a_node38"><a xlink:title=" ">
<polygon fill="#e0e0e0" stroke="#999999" points="775.3,-74 735.3,-74 735.3,-55 775.3,-55 775.3,-74"/>
<text text-anchor="middle" x="755.3" y="-62" font-family="Helvetica,sans-Serif" font-size="10.00">span</text>
</a>
</g>
</g>
<!-- Node21&#45;&gt;Node38 -->
<g id="edge58" class="edge">
<title>Node21&#45;&gt;Node38</title>
<path fill="none" stroke="#63b8ff" d="M909.84,-164.84C880.96,-146.28 812.84,-102.49 777.48,-79.75"/>
<polygon fill="#63b8ff" stroke="#63b8ff" points="779.14,-76.66 768.83,-74.2 775.35,-82.55 779.14,-76.66"/>
</g>
<!-- Node21&#45;&gt;Node40 -->
<g id="edge55" class="edge">
<title>Node21&#45;&gt;Node40</title>
<path fill="none" stroke="#63b8ff" d="M868.3,-166.71C768.62,-154.41 568.02,-129.63 564.3,-129 563.04,-128.78 561.75,-128.55 560.45,-128.31"/>
<polygon fill="#63b8ff" stroke="#63b8ff" points="560.9,-124.84 550.41,-126.33 559.54,-131.7 560.9,-124.84"/>
</g>
<!-- Node23 -->
<g id="node23" class="node">
<title>Node23</title>
<g id="a_node23"><a xlink:href="siphash_8h.html" target="_top" xlink:title=" ">
<polygon fill="white" stroke="#666666" points="1298.8,-74 1203.8,-74 1203.8,-55 1298.8,-55 1298.8,-74"/>
<text text-anchor="middle" x="1251.3" y="-62" font-family="Helvetica,sans-Serif" font-size="10.00">ccf/ds/siphash.h</text>
</a>
</g>
</g>
<!-- Node22&#45;&gt;Node23 -->
<g id="edge25" class="edge">
<title>Node22&#45;&gt;Node23</title>
<path fill="none" stroke="#63b8ff" d="M987.36,-111.52C1040.09,-102.32 1133.17,-86.1 1193.52,-75.57"/>
<polygon fill="#63b8ff" stroke="#63b8ff" points="1194.4,-78.97 1203.65,-73.81 1193.2,-72.08 1194.4,-78.97"/>
</g>
<!-- Node25 -->
<g id="node25" class="node">
<title>Node25</title>
<g id="a_node25"><a xlink:title=" ">
<polygon fill="#e0e0e0" stroke="#999999" points="1164.3,-19 1114.3,-19 1114.3,0 1164.3,0 1164.3,-19"/>
<text text-anchor="middle" x="1139.3" y="-7" font-family="Helvetica,sans-Serif" font-size="10.00">cstdint</text>
</a>
</g>
</g>
<!-- Node22&#45;&gt;Node25 -->
<g id="edge30" class="edge">
<title>Node22&#45;&gt;Node25</title>
<path fill="none" stroke="#63b8ff" d="M987.56,-116.49C1077.25,-111.61 1287.31,-97.74 1308.3,-74 1313.9,-67.67 1313.46,-61.69 1308.3,-55 1306.22,-52.29 1223.35,-31.35 1174.44,-19.19"/>
<polygon fill="#63b8ff" stroke="#63b8ff" points="1175.11,-15.75 1164.56,-16.73 1173.43,-22.54 1175.11,-15.75"/>
</g>
<!-- Node22&#45;&gt;Node26 -->
<g id="edge33" class="edge">
<title>Node22&#45;&gt;Node26</title>
<path fill="none" stroke="#63b8ff" d="M943.29,-109.66C935.25,-91.93 917.01,-51.73 906.39,-28.32"/>
<polygon fill="#63b8ff" stroke="#63b8ff" points="909.55,-26.82 902.23,-19.16 903.18,-29.71 909.55,-26.82"/>
</g>
<!-- Node27 -->
<g id="node27" class="node">
<title>Node27</title>
<g id="a_node27"><a xlink:title=" ">
<polygon fill="#e0e0e0" stroke="#999999" points="702.3,-19 660.3,-19 660.3,0 702.3,0 702.3,-19"/>
<text text-anchor="middle" x="681.3" y="-7" font-family="Helvetica,sans-Serif" font-size="10.00">array</text>
</a>
</g>
</g>
<!-- Node22&#45;&gt;Node27 -->
<g id="edge29" class="edge">
<title>Node22&#45;&gt;Node27</title>
<path fill="none" stroke="#63b8ff" d="M925.98,-109.84C878.98,-90.76 766.3,-45.01 711.82,-22.89"/>
<polygon fill="#63b8ff" stroke="#63b8ff" points="712.94,-19.57 702.35,-19.05 710.3,-26.05 712.94,-19.57"/>
</g>
<!-- Node28 -->
<g id="node28" class="node">
<title>Node28</title>
<g id="a_node28"><a xlink:title=" ">
<polygon fill="#e0e0e0" stroke="#999999" points="1185.8,-74 1036.8,-74 1036.8,-55 1185.8,-55 1185.8,-74"/>
<text text-anchor="middle" x="1111.3" y="-62" font-family="Helvetica,sans-Serif" font-size="10.00">small_vector/SmallVector.h</text>
</a>
</g>
</g>
<!-- Node22&#45;&gt;Node28 -->
<g id="edge31" class="edge">
<title>Node22&#45;&gt;Node28</title>
<path fill="none" stroke="#63b8ff" d="M973.65,-109.98C1001.07,-101.13 1044.19,-87.19 1074.86,-77.28"/>
<polygon fill="#63b8ff" stroke="#63b8ff" points="1076.31,-80.49 1084.75,-74.08 1074.16,-73.83 1076.31,-80.49"/>
</g>
<!-- Node29 -->
<g id="node29" class="node">
<title>Node29</title>
<g id="a_node29"><a xlink:title=" ">
<polygon fill="#e0e0e0" stroke="#999999" points="835.8,-19 762.8,-19 762.8,0 835.8,0 835.8,-19"/>
<text text-anchor="middle" x="799.3" y="-7" font-family="Helvetica,sans-Serif" font-size="10.00">string_view</text>
</a>
</g>
</g>
<!-- Node22&#45;&gt;Node29 -->
<g id="edge32" class="edge">
<title>Node22&#45;&gt;Node29</title>
<path fill="none" stroke="#63b8ff" d="M935.44,-109.84C910.22,-91.44 851.01,-48.23 819.64,-25.34"/>
<polygon fill="#63b8ff" stroke="#63b8ff" points="821.36,-22.26 811.22,-19.2 817.24,-27.92 821.36,-22.26"/>
</g>
<!-- Node24 -->
<g id="node24" class="node">
<title>Node24</title>
<g id="a_node24"><a xlink:title=" ">
<polygon fill="#e0e0e0" stroke="#999999" points="1318.8,-19 1265.8,-19 1265.8,0 1318.8,0 1318.8,-19"/>
<text text-anchor="middle" x="1292.3" y="-7" font-family="Helvetica,sans-Serif" font-size="10.00">cstddef</text>
</a>
</g>
</g>
<!-- Node23&#45;&gt;Node24 -->
<g id="edge26" class="edge">
<title>Node23&#45;&gt;Node24</title>
<path fill="none" stroke="#63b8ff" d="M1258.07,-54.75C1263.86,-47.26 1272.36,-36.28 1279.44,-27.13"/>
<polygon fill="#63b8ff" stroke="#63b8ff" points="1282.31,-29.14 1285.66,-19.09 1276.77,-24.86 1282.31,-29.14"/>
</g>
<!-- Node23&#45;&gt;Node25 -->
<g id="edge27" class="edge">
<title>Node23&#45;&gt;Node25</title>
<path fill="none" stroke="#63b8ff" d="M1233.31,-54.98C1215.37,-46.5 1187.59,-33.35 1166.87,-23.54"/>
<polygon fill="#63b8ff" stroke="#63b8ff" points="1168.16,-20.28 1157.63,-19.17 1165.17,-26.61 1168.16,-20.28"/>
</g>
<!-- Node23&#45;&gt;Node26 -->
<g id="edge28" class="edge">
<title>Node23&#45;&gt;Node26</title>
<path fill="none" stroke="#63b8ff" d="M1203.65,-56.26C1200.82,-55.83 1198.03,-55.41 1195.3,-55 1099.89,-40.61 987.21,-23.77 932.09,-15.54"/>
<polygon fill="#63b8ff" stroke="#63b8ff" points="932.58,-12.08 922.17,-14.06 931.55,-19 932.58,-12.08"/>
</g>
<!-- Node30&#45;&gt;Node16 -->
<g id="edge40" class="edge">
<title>Node30&#45;&gt;Node16</title>
<path fill="none" stroke="#63b8ff" d="M478.7,-54.98C458.99,-46.42 428.35,-33.11 405.72,-23.28"/>
<polygon fill="#63b8ff" stroke="#63b8ff" points="406.83,-19.94 396.26,-19.17 404.04,-26.37 406.83,-19.94"/>
</g>
<!-- Node30&#45;&gt;Node26 -->
<g id="edge41" class="edge">
<title>Node30&#45;&gt;Node26</title>
<path fill="none" stroke="#63b8ff" d="M543.37,-56.29C546.39,-55.84 549.39,-55.41 552.3,-55 682.24,-36.8 715.4,-37.39 845.3,-19 851.45,-18.13 857.99,-17.14 864.3,-16.14"/>
<polygon fill="#63b8ff" stroke="#63b8ff" points="865.27,-19.53 874.59,-14.49 864.16,-12.62 865.27,-19.53"/>
</g>
<!-- Node30&#45;&gt;Node27 -->
<g id="edge36" class="edge">
<title>Node30&#45;&gt;Node27</title>
<path fill="none" stroke="#63b8ff" d="M527.71,-54.98C561.31,-45.25 616.07,-29.39 650.32,-19.47"/>
<polygon fill="#63b8ff" stroke="#63b8ff" points="651.61,-22.74 660.25,-16.6 649.67,-16.02 651.61,-22.74"/>
</g>
<!-- Node30&#45;&gt;Node29 -->
<g id="edge39" class="edge">
<title>Node30&#45;&gt;Node29</title>
<path fill="none" stroke="#63b8ff" d="M543.37,-55.57C599.56,-45.67 695.18,-28.83 752.28,-18.78"/>
<polygon fill="#63b8ff" stroke="#63b8ff" points="753.23,-22.17 762.47,-16.98 752.02,-15.27 753.23,-22.17"/>
</g>
<!-- Node31 -->
<g id="node31" class="node">
<title>Node31</title>
<g id="a_node31"><a xlink:title=" ">
<polygon fill="#e0e0e0" stroke="#999999" points="622.3,-19 558.3,-19 558.3,0 622.3,0 622.3,-19"/>
<text text-anchor="middle" x="590.3" y="-7" font-family="Helvetica,sans-Serif" font-size="10.00">algorithm</text>
</a>
</g>
</g>
<!-- Node30&#45;&gt;Node31 -->
<g id="edge35" class="edge">
<title>Node30&#45;&gt;Node31</title>
<path fill="none" stroke="#63b8ff" d="M513.08,-54.98C527.48,-46.69 549.61,-33.94 566.5,-24.22"/>
<polygon fill="#63b8ff" stroke="#63b8ff" points="568.33,-27.19 575.25,-19.17 564.84,-21.13 568.33,-27.19"/>
</g>
<!-- Node32 -->
<g id="node32" class="node">
<title>Node32</title>
<g id="a_node32"><a xlink:title=" ">
<polygon fill="#e0e0e0" stroke="#999999" points="477.8,-19 428.8,-19 428.8,0 477.8,0 477.8,-19"/>
<text text-anchor="middle" x="453.3" y="-7" font-family="Helvetica,sans-Serif" font-size="10.00">cctype</text>
</a>
</g>
</g>
<!-- Node30&#45;&gt;Node32 -->
<g id="edge37" class="edge">
<title>Node30&#45;&gt;Node32</title>
<path fill="none" stroke="#63b8ff" d="M490.87,-54.75C484.45,-47.18 475,-36.05 467.18,-26.84"/>
<polygon fill="#63b8ff" stroke="#63b8ff" points="469.74,-24.45 460.6,-19.09 464.4,-28.98 469.74,-24.45"/>
</g>
<!-- Node30&#45;&gt;Node33 -->
<g id="edge38" class="edge">
<title>Node30&#45;&gt;Node33</title>
<path fill="none" stroke="#63b8ff" d="M501.61,-54.75C504.29,-47.65 508.15,-37.4 511.49,-28.56"/>
<polygon fill="#63b8ff" stroke="#63b8ff" points="514.81,-29.68 515.06,-19.09 508.26,-27.21 514.81,-29.68"/>
</g>
<!-- Node34&#45;&gt;Node16 -->
<g id="edge53" class="edge">
<title>Node34&#45;&gt;Node16</title>
<path fill="none" stroke="#63b8ff" d="M647.27,-117.99C599.06,-115.99 510.71,-107.56 444.3,-74 421.89,-62.67 401.62,-41.68 389.15,-26.94"/>
<polygon fill="#63b8ff" stroke="#63b8ff" points="391.8,-24.64 382.76,-19.11 386.37,-29.07 391.8,-24.64"/>
</g>
<!-- Node34&#45;&gt;Node26 -->
<g id="edge54" class="edge">
<title>Node34&#45;&gt;Node26</title>
<path fill="none" stroke="#63b8ff" d="M685.98,-109.61C692.19,-95.75 706.06,-69.12 726.3,-55 748.51,-39.51 821.12,-24.34 864.58,-16.34"/>
<polygon fill="#63b8ff" stroke="#63b8ff" points="865.48,-19.73 874.69,-14.51 864.23,-12.84 865.48,-19.73"/>
</g>
<!-- Node34&#45;&gt;Node30 -->
<g id="edge43" class="edge">
<title>Node34&#45;&gt;Node30</title>
<path fill="none" stroke="#63b8ff" d="M652.74,-109.98C621.58,-101.01 572.33,-86.82 537.85,-76.89"/>
<polygon fill="#63b8ff" stroke="#63b8ff" points="538.68,-73.49 528.1,-74.08 536.74,-80.21 538.68,-73.49"/>
</g>
<!-- Node35 -->
<g id="node35" class="node">
<title>Node35</title>
<g id="a_node35"><a xlink:href="serialized_8h.html" target="_top" xlink:title=" ">
<polygon fill="white" stroke="#666666" points="1018.8,-74 945.8,-74 945.8,-55 1018.8,-55 1018.8,-74"/>
<text text-anchor="middle" x="982.3" y="-62" font-family="Helvetica,sans-Serif" font-size="10.00">serialized.h</text>
</a>
</g>
</g>
<!-- Node34&#45;&gt;Node35 -->
<g id="edge44" class="edge">
<title>Node34&#45;&gt;Node35</title>
<path fill="none" stroke="#63b8ff" d="M717.3,-112.32C771.37,-102.77 875.23,-84.42 935.63,-73.75"/>
<polygon fill="#63b8ff" stroke="#63b8ff" points="936.42,-77.16 945.66,-71.97 935.2,-70.27 936.42,-77.16"/>
</g>
<!-- Node37 -->
<g id="node37" class="node">
<title>Node37</title>
<g id="a_node37"><a xlink:title=" ">
<polygon fill="#e0e0e0" stroke="#999999" points="619.3,-74 561.3,-74 561.3,-55 619.3,-55 619.3,-74"/>
<text text-anchor="middle" x="590.3" y="-62" font-family="Helvetica,sans-Serif" font-size="10.00">memory</text>
</a>
</g>
</g>
<!-- Node34&#45;&gt;Node37 -->
<g id="edge50" class="edge">
<title>Node34&#45;&gt;Node37</title>
<path fill="none" stroke="#63b8ff" d="M667.52,-109.98C653.12,-101.69 630.99,-88.94 614.11,-79.22"/>
<polygon fill="#63b8ff" stroke="#63b8ff" points="615.77,-76.13 605.35,-74.17 612.27,-82.19 615.77,-76.13"/>
</g>
<!-- Node34&#45;&gt;Node38 -->
<g id="edge51" class="edge">
<title>Node34&#45;&gt;Node38</title>
<path fill="none" stroke="#63b8ff" d="M694.03,-109.98C705.03,-102 721.72,-89.88 734.91,-80.31"/>
<polygon fill="#63b8ff" stroke="#63b8ff" points="737.33,-82.88 743.36,-74.17 733.21,-77.21 737.33,-82.88"/>
</g>
<!-- Node39 -->
<g id="node39" class="node">
<title>Node39</title>
<g id="a_node39"><a xlink:title=" ">
<polygon fill="#e0e0e0" stroke="#999999" points="678.8,-74 637.8,-74 637.8,-55 678.8,-55 678.8,-74"/>
<text text-anchor="middle" x="658.3" y="-62" font-family="Helvetica,sans-Serif" font-size="10.00">tuple</text>
</a>
</g>
</g>
<!-- Node34&#45;&gt;Node39 -->
<g id="edge52" class="edge">
<title>Node34&#45;&gt;Node39</title>
<path fill="none" stroke="#63b8ff" d="M678.34,-109.75C675.09,-102.57 670.38,-92.18 666.35,-83.27"/>
<polygon fill="#63b8ff" stroke="#63b8ff" points="669.51,-81.75 662.19,-74.09 663.13,-84.64 669.51,-81.75"/>
</g>
<!-- Node35&#45;&gt;Node20 -->
<g id="edge46" class="edge">
<title>Node35&#45;&gt;Node20</title>
<path fill="none" stroke="#63b8ff" d="M1018.93,-56.51C1022.09,-55.97 1025.25,-55.46 1028.3,-55 1061.44,-49.98 1280.87,-24.59 1367.87,-14.57"/>
<polygon fill="#63b8ff" stroke="#63b8ff" points="1368.5,-18.02 1378.04,-13.4 1367.7,-11.07 1368.5,-18.02"/>
</g>
<!-- Node35&#45;&gt;Node25 -->
<g id="edge45" class="edge">
<title>Node35&#45;&gt;Node25</title>
<path fill="none" stroke="#63b8ff" d="M1007.53,-54.98C1033.74,-46.14 1074.94,-32.23 1104.3,-22.32"/>
<polygon fill="#63b8ff" stroke="#63b8ff" points="1105.79,-25.51 1114.14,-18.99 1103.55,-18.88 1105.79,-25.51"/>
</g>
<!-- Node35&#45;&gt;Node26 -->
<g id="edge49" class="edge">
<title>Node35&#45;&gt;Node26</title>
<path fill="none" stroke="#63b8ff" d="M968.81,-54.98C955.9,-46.84 936.2,-34.41 920.9,-24.76"/>
<polygon fill="#63b8ff" stroke="#63b8ff" points="922.37,-21.55 912.04,-19.17 918.63,-27.47 922.37,-21.55"/>
</g>
<!-- Node35&#45;&gt;Node33 -->
<g id="edge48" class="edge">
<title>Node35&#45;&gt;Node33</title>
<path fill="none" stroke="#63b8ff" d="M945.8,-61.79C872.52,-57.91 702.23,-46.71 550.52,-18.93"/>
<polygon fill="#63b8ff" stroke="#63b8ff" points="551.02,-15.46 540.55,-17.07 549.74,-22.34 551.02,-15.46"/>
</g>
<!-- Node35&#45;&gt;Node36 -->
<g id="edge47" class="edge">
<title>Node35&#45;&gt;Node36</title>
<path fill="none" stroke="#63b8ff" d="M1018.97,-55.16C1060.7,-45.67 1128.77,-30.18 1172.79,-20.17"/>
<polygon fill="#63b8ff" stroke="#63b8ff" points="1173.64,-23.57 1182.61,-17.94 1172.09,-16.74 1173.64,-23.57"/>
</g>
</g>
</svg>
        <g id="navigator" transform="translate(0 0)" fill="#404254">
                <rect fill="#f2f5e9" fill-opacity="0.5" stroke="#606060" stroke-width=".5" x="0" y="0" width="60" height="60"/>
                <use id="zoomplus" xlink:href="#zoomPlus" x="17" y="9" onmousedown="handleZoom(evt,'in')"/>
                <use id="zoomminus" xlink:href="#zoomMin" x="42" y="9" onmousedown="handleZoom(evt,'out')"/>
                <use id="reset" xlink:href="#resetDef" x="30" y="36" onmousedown="handleReset()"/>
                <g id="arrowUp" xlink:href="#dirArrow" transform="translate(30 24)" onmousedown="handlePan(0,-1)">
                  <use xlink:href="#rim" fill="#404040">
                        <set attributeName="fill" to="#808080" begin="arrowUp.mouseover" end="arrowUp.mouseout"/>
                  </use>
                  <path fill="none" stroke="white" stroke-width="1.5" d="M0,-3.0v7 M-2.5,-0.5L0,-3.0L2.5,-0.5"/>
                </g>
                <g id="arrowRight" xlink:href="#dirArrow" transform="rotate(90) translate(36 -43)" onmousedown="handlePan(1,0)">
                  <use xlink:href="#rim" fill="#404040">
                        <set attributeName="fill" to="#808080" begin="arrowRight.mouseover" end="arrowRight.mouseout"/>
                  </use>
                  <path fill="none" stroke="white" stroke-width="1.5" d="M0,-3.0v7 M-2.5,-0.5L0,-3.0L2.5,-0.5"/>
                </g>
                <g id="arrowDown" xlink:href="#dirArrow" transform="rotate(180) translate(-30 -48)" onmousedown="handlePan(0,1)">
                  <use xlink:href="#rim" fill="#404040">
                        <set attributeName="fill" to="#808080" begin="arrowDown.mouseover" end="arrowDown.mouseout"/>
                  </use>
                  <path fill="none" stroke="white" stroke-width="1.5" d="M0,-3.0v7 M-2.5,-0.5L0,-3.0L2.5,-0.5"/>
                </g>
                <g id="arrowLeft" xlink:href="#dirArrow" transform="rotate(270) translate(-36 17)" onmousedown="handlePan(-1,0)">
                  <use xlink:href="#rim" fill="#404040">
                        <set attributeName="fill" to="#808080" begin="arrowLeft.mouseover" end="arrowLeft.mouseout"/>
                  </use>
                  <path fill="none" stroke="white" stroke-width="1.5" d="M0,-3.0v7 M-2.5,-0.5L0,-3.0L2.5,-0.5"/>
                </g>
        </g>
        <svg viewBox="0 0 15 15" width="100%" height="30px" preserveAspectRatio="xMaxYMin meet">
         <g id="arrow_out" transform="scale(0.3 0.3)">
          <a xlink:href="messaging_8h__incl_org.svg" target="_base">
           <rect id="button" ry="5" rx="5" y="6" x="6" height="38" width="38"
                fill="#f2f5e9" fill-opacity="0.5" stroke="#606060" stroke-width="1.0"/>
           <path id="arrow"
             d="M 11.500037,31.436501 C 11.940474,20.09759 22.043105,11.32322 32.158766,21.979434 L 37.068811,17.246167 C 37.068811,17.246167 37.088388,32 37.088388,32 L 22.160133,31.978069 C 22.160133,31.978069 26.997745,27.140456 26.997745,27.140456 C 18.528582,18.264221 13.291696,25.230495 11.500037,31.436501 z"
             style="fill:#404040;"/>
          </a>
         </g>
        </svg>
</svg>
