<?xml version="1.0" encoding="UTF-8" standalone="no"?>
<!DOCTYPE svg PUBLIC "-//W3C//DTD SVG 1.1//EN"
 "http://www.w3.org/Graphics/SVG/1.1/DTD/svg11.dtd">
<!-- Generated by graphviz version 2.43.0 (0)
 -->
<!-- Title: include/ccf/network_identity_interface.h Pages: 1 -->
<svg width="558pt" height="225pt"
 viewBox="0.00 0.00 558.00 225.00" xmlns="http://www.w3.org/2000/svg" xmlns:xlink="http://www.w3.org/1999/xlink">
<g id="graph0" class="graph" transform="scale(1 1) rotate(0) translate(4 221)">
<title>include/ccf/network_identity_interface.h</title>
<!-- Node1 -->
<g id="node1" class="node">
<title>Node1</title>
<g id="a_node1"><a xlink:title=" ">
<polygon fill="#999999" stroke="#666666" points="348.5,-217 231.5,-217 231.5,-187 348.5,-187 348.5,-217"/>
<text text-anchor="start" x="239.5" y="-205" font-family="Helvetica,sans-Serif" font-size="10.00">include/ccf/network</text>
<text text-anchor="middle" x="290" y="-194" font-family="Helvetica,sans-Serif" font-size="10.00">_identity_interface.h</text>
</a>
</g>
</g>
<!-- Node2 -->
<g id="node2" class="node">
<title>Node2</title>
<g id="a_node2"><a xlink:href="historical__queries__utils_8h.html" target="_top" xlink:title=" ">
<polygon fill="white" stroke="#666666" points="421.5,-151 304.5,-151 304.5,-121 421.5,-121 421.5,-151"/>
<text text-anchor="start" x="312.5" y="-139" font-family="Helvetica,sans-Serif" font-size="10.00">include/ccf/historical</text>
<text text-anchor="middle" x="363" y="-128" font-family="Helvetica,sans-Serif" font-size="10.00">_queries_utils.h</text>
</a>
</g>
</g>
<!-- Node1&#45;&gt;Node2 -->
<g id="edge1" class="edge">
<title>Node1&#45;&gt;Node2</title>
<path fill="none" stroke="#63b8ff" d="M313.72,-180.2C324.56,-170.7 337.12,-159.69 346.84,-151.16"/>
<polygon fill="#63b8ff" stroke="#63b8ff" points="311.41,-177.57 306.2,-186.8 316.03,-182.84 311.41,-177.57"/>
</g>
<!-- Node6 -->
<g id="node6" class="node">
<title>Node6</title>
<g id="a_node6"><a xlink:href="network__identity__subsystem_8h.html" target="_top" xlink:title=" ">
<polygon fill="white" stroke="#666666" points="283.5,-151 156.5,-151 156.5,-121 283.5,-121 283.5,-151"/>
<text text-anchor="start" x="164.5" y="-139" font-family="Helvetica,sans-Serif" font-size="10.00">src/node/rpc/network</text>
<text text-anchor="middle" x="220" y="-128" font-family="Helvetica,sans-Serif" font-size="10.00">_identity_subsystem.h</text>
</a>
</g>
</g>
<!-- Node1&#45;&gt;Node6 -->
<g id="edge5" class="edge">
<title>Node1&#45;&gt;Node6</title>
<path fill="none" stroke="#63b8ff" d="M266.95,-179.92C256.63,-170.49 244.73,-159.61 235.49,-151.16"/>
<polygon fill="#63b8ff" stroke="#63b8ff" points="264.72,-182.63 274.46,-186.8 269.45,-177.47 264.72,-182.63"/>
</g>
<!-- Node3 -->
<g id="node3" class="node">
<title>Node3</title>
<g id="a_node3"><a xlink:href="external__executor_8cpp.html" target="_top" xlink:title=" ">
<polygon fill="white" stroke="#666666" points="288,-85 140,-85 140,-55 288,-55 288,-85"/>
<text text-anchor="start" x="148" y="-73" font-family="Helvetica,sans-Serif" font-size="10.00">src/apps/external_executor</text>
<text text-anchor="middle" x="214" y="-62" font-family="Helvetica,sans-Serif" font-size="10.00">/external_executor.cpp</text>
</a>
</g>
</g>
<!-- Node2&#45;&gt;Node3 -->
<g id="edge2" class="edge">
<title>Node2&#45;&gt;Node3</title>
<path fill="none" stroke="#63b8ff" d="M320.91,-116.92C297.36,-106.8 268.44,-94.38 246.62,-85.01"/>
<polygon fill="#63b8ff" stroke="#63b8ff" points="319.73,-120.22 330.3,-120.95 322.49,-113.79 319.73,-120.22"/>
</g>
<!-- Node4 -->
<g id="node4" class="node">
<title>Node4</title>
<g id="a_node4"><a xlink:href="historical__queries__adapter_8cpp.html" target="_top" xlink:title=" ">
<polygon fill="white" stroke="#666666" points="426,-85 306,-85 306,-55 426,-55 426,-85"/>
<text text-anchor="start" x="314" y="-73" font-family="Helvetica,sans-Serif" font-size="10.00">src/node/historical</text>
<text text-anchor="middle" x="366" y="-62" font-family="Helvetica,sans-Serif" font-size="10.00">_queries_adapter.cpp</text>
</a>
</g>
</g>
<!-- Node2&#45;&gt;Node4 -->
<g id="edge3" class="edge">
<title>Node2&#45;&gt;Node4</title>
<path fill="none" stroke="#63b8ff" d="M364.15,-110.54C364.55,-101.96 364.99,-92.61 365.34,-85.16"/>
<polygon fill="#63b8ff" stroke="#63b8ff" points="360.64,-110.64 363.67,-120.8 367.63,-110.97 360.64,-110.64"/>
</g>
<!-- Node5 -->
<g id="node5" class="node">
<title>Node5</title>
<g id="a_node5"><a xlink:href="historical__queries__utils_8cpp.html" target="_top" xlink:title=" ">
<polygon fill="white" stroke="#666666" points="550,-85 444,-85 444,-55 550,-55 550,-85"/>
<text text-anchor="start" x="452" y="-73" font-family="Helvetica,sans-Serif" font-size="10.00">src/node/historical</text>
<text text-anchor="middle" x="497" y="-62" font-family="Helvetica,sans-Serif" font-size="10.00">_queries_utils.cpp</text>
</a>
</g>
</g>
<!-- Node2&#45;&gt;Node5 -->
<g id="edge4" class="edge">
<title>Node2&#45;&gt;Node5</title>
<path fill="none" stroke="#63b8ff" d="M401.71,-116.51C422.73,-106.47 448.3,-94.26 467.66,-85.01"/>
<polygon fill="#63b8ff" stroke="#63b8ff" points="399.92,-113.49 392.41,-120.95 402.94,-119.8 399.92,-113.49"/>
</g>
<!-- Node6&#45;&gt;Node3 -->
<g id="edge6" class="edge">
<title>Node6&#45;&gt;Node3</title>
<path fill="none" stroke="#63b8ff" d="M217.73,-110.83C216.92,-102.17 216.03,-92.7 215.33,-85.16"/>
<polygon fill="#63b8ff" stroke="#63b8ff" points="214.25,-111.17 218.67,-120.8 221.22,-110.51 214.25,-111.17"/>
</g>
<!-- Node6&#45;&gt;Node4 -->
<g id="edge9" class="edge">
<title>Node6&#45;&gt;Node4</title>
<path fill="none" stroke="#63b8ff" d="M261.25,-116.92C284.32,-106.8 312.66,-94.38 334.03,-85.01"/>
<polygon fill="#63b8ff" stroke="#63b8ff" points="259.79,-113.73 252.04,-120.95 262.6,-120.15 259.79,-113.73"/>
</g>
<!-- Node7 -->
<g id="node7" class="node">
<title>Node7</title>
<g id="a_node7"><a xlink:href="src_2enclave_2enclave_8h.html" target="_top" xlink:title=" ">
<polygon fill="white" stroke="#666666" points="122,-79.5 0,-79.5 0,-60.5 122,-60.5 122,-79.5"/>
<text text-anchor="middle" x="61" y="-67.5" font-family="Helvetica,sans-Serif" font-size="10.00">src/enclave/enclave.h</text>
</a>
</g>
</g>
<!-- Node6&#45;&gt;Node7 -->
<g id="edge7" class="edge">
<title>Node6&#45;&gt;Node7</title>
<path fill="none" stroke="#63b8ff" d="M175.53,-117.1C145.01,-104.82 105.88,-89.06 82.16,-79.52"/>
<polygon fill="#63b8ff" stroke="#63b8ff" points="174.52,-120.47 185.11,-120.95 177.14,-113.97 174.52,-120.47"/>
</g>
<!-- Node8 -->
<g id="node8" class="node">
<title>Node8</title>
<g id="a_node8"><a xlink:href="enclave_2main_8cpp.html" target="_top" xlink:title=" ">
<polygon fill="white" stroke="#666666" points="121,-19 1,-19 1,0 121,0 121,-19"/>
<text text-anchor="middle" x="61" y="-7" font-family="Helvetica,sans-Serif" font-size="10.00">src/enclave/main.cpp</text>
</a>
</g>
</g>
<!-- Node7&#45;&gt;Node8 -->
<g id="edge8" class="edge">
<title>Node7&#45;&gt;Node8</title>
<path fill="none" stroke="#63b8ff" d="M61,-50.16C61,-39.74 61,-27.3 61,-19.17"/>
<polygon fill="#63b8ff" stroke="#63b8ff" points="57.5,-50.37 61,-60.37 64.5,-50.37 57.5,-50.37"/>
</g>
</g>
</svg>
