<?xml version="1.0" encoding="UTF-8" standalone="no"?>
<!DOCTYPE svg PUBLIC "-//W3C//DTD SVG 1.1//EN"
 "http://www.w3.org/Graphics/SVG/1.1/DTD/svg11.dtd">
<!-- Generated by graphviz version 2.43.0 (0)
 -->
<!-- Title: src/service/network_tables.h Pages: 1 -->
<!--zoomable 511 -->
<svg id="main" version="1.1" xmlns="http://www.w3.org/2000/svg" xmlns:xlink="http://www.w3.org/1999/xlink" xml:space="preserve" onload="init(evt)">
<style type="text/css"><![CDATA[
.edge:hover path { stroke: red; }
.edge:hover polygon { stroke: red; fill: red; }
]]></style>
<script type="text/javascript"><![CDATA[
var edges = document.getElementsByTagName('g');
if (edges && edges.length) {
  for (var i=0;i<edges.length;i++) {
    if (edges[i].id.substr(0,4)=='edge') {
      edges[i].setAttribute('class','edge');
    }
  }
}
]]></script>
        <defs>
                <circle id="rim" cx="0" cy="0" r="7"/>
                <circle id="rim2" cx="0" cy="0" r="3.5"/>
                <g id="zoomPlus">
                        <use xlink:href="#rim" fill="#404040">
                                <set attributeName="fill" to="#808080" begin="zoomplus.mouseover" end="zoomplus.mouseout"/>
                        </use>
                        <path d="M-4,0h8M0,-4v8" fill="none" stroke="white" stroke-width="1.5" pointer-events="none"/>
                </g>
                <g id="zoomMin">
                        <use xlink:href="#rim" fill="#404040">
                                <set attributeName="fill" to="#808080" begin="zoomminus.mouseover" end="zoomminus.mouseout"/>
                        </use>
                        <path d="M-4,0h8" fill="none" stroke="white" stroke-width="1.5" pointer-events="none"/>
                </g>
                <g id="dirArrow">
                        <path fill="none" stroke="white" stroke-width="1.5" d="M0,-3.0v7 M-2.5,-0.5L0,-3.0L2.5,-0.5"/>
                </g>
               <g id="resetDef">
                       <use xlink:href="#rim2" fill="#404040">
                               <set attributeName="fill" to="#808080" begin="reset.mouseover" end="reset.mouseout"/>
                       </use>
               </g>
        </defs>

<script type="text/javascript">
var viewWidth = 1783;
var viewHeight = 511;
var sectionId = 'dynsection-1';
</script>
<script xlink:href="svgpan.js"/>
<svg id="graph" class="graph">
<g id="viewport">
<title>src/service/network_tables.h</title>
<!-- Node1 -->
<g id="node1" class="node">
<title>Node1</title>
<g id="a_node1"><a xlink:title=" ">
<polygon fill="#999999" stroke="#666666" points="1390,-503 1278,-503 1278,-473 1390,-473 1390,-503"/>
<text text-anchor="start" x="1286" y="-491" font-family="Helvetica,sans-Serif" font-size="10.00">src/service/network</text>
<text text-anchor="middle" x="1334" y="-480" font-family="Helvetica,sans-Serif" font-size="10.00">_tables.h</text>
</a>
</g>
</g>
<!-- Node2 -->
<g id="node2" class="node">
<title>Node2</title>
<g id="a_node2"><a xlink:href="ccf__acme__client_8h.html" target="_top" xlink:title=" ">
<polygon fill="white" stroke="#666666" points="1509.5,-310.5 1360.5,-310.5 1360.5,-291.5 1509.5,-291.5 1509.5,-310.5"/>
<text text-anchor="middle" x="1435" y="-298.5" font-family="Helvetica,sans-Serif" font-size="10.00">src/node/ccf_acme_client.h</text>
</a>
</g>
</g>
<!-- Node1&#45;&gt;Node2 -->
<g id="edge1" class="edge">
<title>Node1&#45;&gt;Node2</title>
<path fill="none" stroke="#63b8ff" d="M1352.13,-464.78C1368.19,-444.26 1391.45,-412.45 1407,-382 1419.58,-357.36 1428.78,-325.77 1432.79,-310.72"/>
<polygon fill="#63b8ff" stroke="#63b8ff" points="1349.2,-462.83 1345.73,-472.84 1354.68,-467.19 1349.2,-462.83"/>
</g>
<!-- Node7 -->
<g id="node7" class="node">
<title>Node7</title>
<g id="a_node7"><a xlink:href="network__state_8h.html" target="_top" xlink:title=" ">
<polygon fill="white" stroke="#666666" points="1355,-437 1215,-437 1215,-418 1355,-418 1355,-437"/>
<text text-anchor="middle" x="1285" y="-425" font-family="Helvetica,sans-Serif" font-size="10.00">src/node/network_state.h</text>
</a>
</g>
</g>
<!-- Node1&#45;&gt;Node7 -->
<g id="edge7" class="edge">
<title>Node1&#45;&gt;Node7</title>
<path fill="none" stroke="#63b8ff" d="M1315.65,-465.09C1307.55,-455.42 1298.5,-444.61 1292.34,-437.27"/>
<polygon fill="#63b8ff" stroke="#63b8ff" points="1313.03,-467.42 1322.14,-472.84 1318.4,-462.93 1313.03,-467.42"/>
</g>
<!-- Node3 -->
<g id="node3" class="node">
<title>Node3</title>
<g id="a_node3"><a xlink:href="node__state_8h.html" target="_top" xlink:title=" ">
<polygon fill="white" stroke="#666666" points="1458,-184 1334,-184 1334,-165 1458,-165 1458,-184"/>
<text text-anchor="middle" x="1396" y="-172" font-family="Helvetica,sans-Serif" font-size="10.00">src/node/node_state.h</text>
</a>
</g>
</g>
<!-- Node2&#45;&gt;Node3 -->
<g id="edge2" class="edge">
<title>Node2&#45;&gt;Node3</title>
<path fill="none" stroke="#63b8ff" d="M1429.16,-281.29C1424.1,-265.07 1416.58,-240.98 1410,-220 1406.07,-207.48 1401.51,-192.99 1398.69,-184.03"/>
<polygon fill="#63b8ff" stroke="#63b8ff" points="1425.91,-282.62 1432.23,-291.12 1432.59,-280.53 1425.91,-282.62"/>
</g>
<!-- Node4 -->
<g id="node4" class="node">
<title>Node4</title>
<g id="a_node4"><a xlink:href="src_2enclave_2enclave_8h.html" target="_top" xlink:title=" ">
<polygon fill="white" stroke="#666666" points="1099,-74 977,-74 977,-55 1099,-55 1099,-74"/>
<text text-anchor="middle" x="1038" y="-62" font-family="Helvetica,sans-Serif" font-size="10.00">src/enclave/enclave.h</text>
</a>
</g>
</g>
<!-- Node3&#45;&gt;Node4 -->
<g id="edge3" class="edge">
<title>Node3&#45;&gt;Node4</title>
<path fill="none" stroke="#63b8ff" d="M1366.3,-160.91C1333.04,-147.14 1277.33,-125.03 1228,-110 1178.58,-94.94 1120.61,-82.03 1081.82,-74.06"/>
<polygon fill="#63b8ff" stroke="#63b8ff" points="1365.29,-164.29 1375.87,-164.9 1367.98,-157.82 1365.29,-164.29"/>
</g>
<!-- Node6 -->
<g id="node6" class="node">
<title>Node6</title>
<g id="a_node6"><a xlink:href="gov__effects_8h.html" target="_top" xlink:title=" ">
<polygon fill="white" stroke="#666666" points="1457,-129 1313,-129 1313,-110 1457,-110 1457,-129"/>
<text text-anchor="middle" x="1385" y="-117" font-family="Helvetica,sans-Serif" font-size="10.00">src/node/rpc/gov_effects.h</text>
</a>
</g>
</g>
<!-- Node3&#45;&gt;Node6 -->
<g id="edge5" class="edge">
<title>Node3&#45;&gt;Node6</title>
<path fill="none" stroke="#63b8ff" d="M1392.15,-154.95C1390.32,-146.15 1388.23,-136.06 1386.78,-129.09"/>
<polygon fill="#63b8ff" stroke="#63b8ff" points="1388.72,-155.67 1394.18,-164.75 1395.58,-154.25 1388.72,-155.67"/>
</g>
<!-- Node5 -->
<g id="node5" class="node">
<title>Node5</title>
<g id="a_node5"><a xlink:href="enclave_2main_8cpp.html" target="_top" xlink:title=" ">
<polygon fill="white" stroke="#666666" points="1098,-19 978,-19 978,0 1098,0 1098,-19"/>
<text text-anchor="middle" x="1038" y="-7" font-family="Helvetica,sans-Serif" font-size="10.00">src/enclave/main.cpp</text>
</a>
</g>
</g>
<!-- Node4&#45;&gt;Node5 -->
<g id="edge4" class="edge">
<title>Node4&#45;&gt;Node5</title>
<path fill="none" stroke="#63b8ff" d="M1038,-44.66C1038,-35.93 1038,-25.99 1038,-19.09"/>
<polygon fill="#63b8ff" stroke="#63b8ff" points="1034.5,-44.75 1038,-54.75 1041.5,-44.75 1034.5,-44.75"/>
</g>
<!-- Node6&#45;&gt;Node4 -->
<g id="edge6" class="edge">
<title>Node6&#45;&gt;Node4</title>
<path fill="none" stroke="#63b8ff" d="M1319.09,-108.43C1253.93,-98.48 1155.34,-83.42 1093.9,-74.04"/>
<polygon fill="#63b8ff" stroke="#63b8ff" points="1318.83,-111.93 1329.25,-109.98 1319.89,-105.01 1318.83,-111.93"/>
</g>
<!-- Node7&#45;&gt;Node3 -->
<g id="edge32" class="edge">
<title>Node7&#45;&gt;Node3</title>
<path fill="none" stroke="#63b8ff" d="M1365.45,-425.48C1480.02,-419.03 1685.51,-387.72 1769,-250 1775.91,-238.6 1777.85,-229.97 1769,-220 1748.76,-197.2 1559.06,-183.96 1458.27,-178.49"/>
<polygon fill="#63b8ff" stroke="#63b8ff" points="1365.14,-421.99 1355.33,-426 1365.5,-428.98 1365.14,-421.99"/>
</g>
<!-- Node7&#45;&gt;Node4 -->
<g id="edge8" class="edge">
<title>Node7&#45;&gt;Node4</title>
<path fill="none" stroke="#63b8ff" d="M1204.4,-427.18C922.82,-428.5 0,-423.56 0,-302 0,-302 0,-302 0,-173.5 0,-119.72 51.62,-125.89 103,-110 185.96,-84.34 782.23,-70.51 976.78,-66.64"/>
<polygon fill="#63b8ff" stroke="#63b8ff" points="1204.56,-430.68 1214.54,-427.13 1204.52,-423.68 1204.56,-430.68"/>
</g>
<!-- Node8 -->
<g id="node8" class="node">
<title>Node8</title>
<g id="a_node8"><a xlink:href="wrap_8h.html" target="_top" xlink:title=" ">
<polygon fill="white" stroke="#666666" points="639,-376.5 561,-376.5 561,-357.5 639,-357.5 639,-376.5"/>
<text text-anchor="middle" x="600" y="-364.5" font-family="Helvetica,sans-Serif" font-size="10.00">src/js/wrap.h</text>
</a>
</g>
</g>
<!-- Node7&#45;&gt;Node8 -->
<g id="edge9" class="edge">
<title>Node7&#45;&gt;Node8</title>
<path fill="none" stroke="#63b8ff" d="M1204.58,-419.63C1057.12,-407.04 748.57,-380.69 639.35,-371.36"/>
<polygon fill="#63b8ff" stroke="#63b8ff" points="1204.65,-423.15 1214.91,-420.51 1205.25,-416.18 1204.65,-423.15"/>
</g>
<!-- Node17 -->
<g id="node17" class="node">
<title>Node17</title>
<g id="a_node17"><a xlink:href="node__frontend_8h.html" target="_top" xlink:title=" ">
<polygon fill="white" stroke="#666666" points="1202,-310.5 1044,-310.5 1044,-291.5 1202,-291.5 1202,-310.5"/>
<text text-anchor="middle" x="1123" y="-298.5" font-family="Helvetica,sans-Serif" font-size="10.00">src/node/rpc/node_frontend.h</text>
</a>
</g>
</g>
<!-- Node7&#45;&gt;Node17 -->
<g id="edge33" class="edge">
<title>Node7&#45;&gt;Node17</title>
<path fill="none" stroke="#63b8ff" d="M1204.87,-422.25C1143.81,-417.14 1066.94,-406.01 1047,-382 1024.24,-354.59 1074.67,-324.78 1103.95,-310.52"/>
<polygon fill="#63b8ff" stroke="#63b8ff" points="1204.66,-425.74 1214.91,-423.05 1205.22,-418.77 1204.66,-425.74"/>
</g>
<!-- Node19 -->
<g id="node19" class="node">
<title>Node19</title>
<g id="a_node19"><a xlink:href="acme__challenge__frontend_8h.html" target="_top" xlink:title=" ">
<polygon fill="white" stroke="#666666" points="1398,-382 1258,-382 1258,-352 1398,-352 1398,-382"/>
<text text-anchor="start" x="1266" y="-370" font-family="Helvetica,sans-Serif" font-size="10.00">src/node/acme_challenge</text>
<text text-anchor="middle" x="1328" y="-359" font-family="Helvetica,sans-Serif" font-size="10.00">_frontend.h</text>
</a>
</g>
</g>
<!-- Node7&#45;&gt;Node19 -->
<g id="edge29" class="edge">
<title>Node7&#45;&gt;Node19</title>
<path fill="none" stroke="#63b8ff" d="M1297.42,-409.61C1303.82,-400.89 1311.54,-390.39 1317.63,-382.11"/>
<polygon fill="#63b8ff" stroke="#63b8ff" points="1294.45,-407.74 1291.34,-417.87 1300.09,-411.88 1294.45,-407.74"/>
</g>
<!-- Node20 -->
<g id="node20" class="node">
<title>Node20</title>
<g id="a_node20"><a xlink:href="user__frontend_8h.html" target="_top" xlink:title=" ">
<polygon fill="white" stroke="#666666" points="1185.5,-184 1030.5,-184 1030.5,-165 1185.5,-165 1185.5,-184"/>
<text text-anchor="middle" x="1108" y="-172" font-family="Helvetica,sans-Serif" font-size="10.00">src/node/rpc/user_frontend.h</text>
</a>
</g>
</g>
<!-- Node7&#45;&gt;Node20 -->
<g id="edge34" class="edge">
<title>Node7&#45;&gt;Node20</title>
<path fill="none" stroke="#63b8ff" d="M1269.92,-410.32C1262.92,-402.24 1254.88,-392.06 1249,-382 1225.86,-342.37 1235.51,-324.79 1211,-286 1183.82,-242.99 1138.68,-201.71 1118.42,-184.24"/>
<polygon fill="#63b8ff" stroke="#63b8ff" points="1267.41,-412.77 1276.69,-417.89 1272.63,-408.1 1267.41,-412.77"/>
</g>
<!-- Node21 -->
<g id="node21" class="node">
<title>Node21</title>
<g id="a_node21"><a xlink:href="secret__broadcast_8h.html" target="_top" xlink:title=" ">
<polygon fill="white" stroke="#666666" points="1615.5,-244.5 1462.5,-244.5 1462.5,-225.5 1615.5,-225.5 1615.5,-244.5"/>
<text text-anchor="middle" x="1539" y="-232.5" font-family="Helvetica,sans-Serif" font-size="10.00">src/node/secret_broadcast.h</text>
</a>
</g>
</g>
<!-- Node7&#45;&gt;Node21 -->
<g id="edge36" class="edge">
<title>Node7&#45;&gt;Node21</title>
<path fill="none" stroke="#63b8ff" d="M1340.98,-415.57C1395.1,-401.92 1475.02,-373.06 1518,-316 1534.5,-294.09 1538.07,-260.34 1538.82,-244.62"/>
<polygon fill="#63b8ff" stroke="#63b8ff" points="1340.08,-412.18 1331.19,-417.94 1341.73,-418.98 1340.08,-412.18"/>
</g>
<!-- Node22 -->
<g id="node22" class="node">
<title>Node22</title>
<g id="a_node22"><a xlink:href="share__manager_8h.html" target="_top" xlink:title=" ">
<polygon fill="white" stroke="#666666" points="1201.5,-376.5 1056.5,-376.5 1056.5,-357.5 1201.5,-357.5 1201.5,-376.5"/>
<text text-anchor="middle" x="1129" y="-364.5" font-family="Helvetica,sans-Serif" font-size="10.00">src/node/share_manager.h</text>
</a>
</g>
</g>
<!-- Node7&#45;&gt;Node22 -->
<g id="edge38" class="edge">
<title>Node7&#45;&gt;Node22</title>
<path fill="none" stroke="#63b8ff" d="M1252.67,-414.38C1222.52,-403.07 1178.3,-386.49 1151.71,-376.52"/>
<polygon fill="#63b8ff" stroke="#63b8ff" points="1251.72,-417.76 1262.32,-417.99 1254.18,-411.21 1251.72,-417.76"/>
</g>
<!-- Node23 -->
<g id="node23" class="node">
<title>Node23</title>
<g id="a_node23"><a xlink:href="snapshotter_8h.html" target="_top" xlink:title=" ">
<polygon fill="white" stroke="#666666" points="1760.5,-244.5 1633.5,-244.5 1633.5,-225.5 1760.5,-225.5 1760.5,-244.5"/>
<text text-anchor="middle" x="1697" y="-232.5" font-family="Helvetica,sans-Serif" font-size="10.00">src/node/snapshotter.h</text>
</a>
</g>
</g>
<!-- Node7&#45;&gt;Node23 -->
<g id="edge41" class="edge">
<title>Node7&#45;&gt;Node23</title>
<path fill="none" stroke="#63b8ff" d="M1353.85,-416.1C1390.24,-409.15 1435.1,-398.25 1473,-382 1562.6,-343.59 1655.93,-269.95 1686.58,-244.73"/>
<polygon fill="#63b8ff" stroke="#63b8ff" points="1353.02,-412.69 1343.83,-417.96 1354.3,-419.58 1353.02,-412.69"/>
</g>
<!-- Node8&#45;&gt;Node3 -->
<g id="edge22" class="edge">
<title>Node8&#45;&gt;Node3</title>
<path fill="none" stroke="#63b8ff" d="M649.33,-363.43C703.06,-359.07 790.5,-347.38 859,-316 878.56,-307.04 877.56,-295.23 897,-286 1044.1,-216.19 1236.7,-189.68 1334,-180.27"/>
<polygon fill="#63b8ff" stroke="#63b8ff" points="648.76,-359.96 639.05,-364.21 649.28,-366.94 648.76,-359.96"/>
</g>
<!-- Node8&#45;&gt;Node4 -->
<g id="edge11" class="edge">
<title>Node8&#45;&gt;Node4</title>
<path fill="none" stroke="#63b8ff" d="M550.54,-364.69C423.64,-360.88 93.86,-347.99 57,-316 29.4,-292.05 38,-272.54 38,-236 38,-236 38,-236 38,-173.5 38,-78.55 759.84,-66.98 976.95,-65.65"/>
<polygon fill="#63b8ff" stroke="#63b8ff" points="550.65,-368.2 560.75,-364.99 550.86,-361.2 550.65,-368.2"/>
</g>
<!-- Node9 -->
<g id="node9" class="node">
<title>Node9</title>
<g id="a_node9"><a xlink:href="js__generic__base_8cpp.html" target="_top" xlink:title=" ">
<polygon fill="white" stroke="#666666" points="474,-316 356,-316 356,-286 474,-286 474,-316"/>
<text text-anchor="start" x="364" y="-304" font-family="Helvetica,sans-Serif" font-size="10.00">src/apps/js_generic</text>
<text text-anchor="middle" x="415" y="-293" font-family="Helvetica,sans-Serif" font-size="10.00">/js_generic_base.cpp</text>
</a>
</g>
</g>
<!-- Node8&#45;&gt;Node9 -->
<g id="edge10" class="edge">
<title>Node8&#45;&gt;Node9</title>
<path fill="none" stroke="#63b8ff" d="M565.51,-354.07C534.43,-343.31 488.69,-327.49 455.8,-316.12"/>
<polygon fill="#63b8ff" stroke="#63b8ff" points="564.46,-357.41 575.05,-357.37 566.74,-350.79 564.46,-357.41"/>
</g>
<!-- Node10 -->
<g id="node10" class="node">
<title>Node10</title>
<g id="a_node10"><a xlink:href="consensus_8cpp.html" target="_top" xlink:title=" ">
<polygon fill="white" stroke="#666666" points="850,-310.5 734,-310.5 734,-291.5 850,-291.5 850,-310.5"/>
<text text-anchor="middle" x="792" y="-298.5" font-family="Helvetica,sans-Serif" font-size="10.00">src/js/consensus.cpp</text>
</a>
</g>
</g>
<!-- Node8&#45;&gt;Node10 -->
<g id="edge12" class="edge">
<title>Node8&#45;&gt;Node10</title>
<path fill="none" stroke="#63b8ff" d="M635.51,-354.16C673.41,-341.53 732.53,-321.82 766.21,-310.6"/>
<polygon fill="#63b8ff" stroke="#63b8ff" points="634.27,-350.89 625.89,-357.37 636.49,-357.53 634.27,-350.89"/>
</g>
<!-- Node11 -->
<g id="node11" class="node">
<title>Node11</title>
<g id="a_node11"><a xlink:href="wrap_8cpp.html" target="_top" xlink:title=" ">
<polygon fill="white" stroke="#666666" points="584.5,-244.5 495.5,-244.5 495.5,-225.5 584.5,-225.5 584.5,-244.5"/>
<text text-anchor="middle" x="540" y="-232.5" font-family="Helvetica,sans-Serif" font-size="10.00">src/js/wrap.cpp</text>
</a>
</g>
</g>
<!-- Node8&#45;&gt;Node11 -->
<g id="edge21" class="edge">
<title>Node8&#45;&gt;Node11</title>
<path fill="none" stroke="#63b8ff" d="M550.87,-366.73C462.13,-366.89 280.59,-361.49 241,-316 232.25,-305.94 232.38,-296.18 241,-286 273.05,-248.14 420.01,-238.93 495.29,-236.7"/>
<polygon fill="#63b8ff" stroke="#63b8ff" points="550.98,-370.23 560.96,-366.69 550.95,-363.23 550.98,-370.23"/>
</g>
<!-- Node12 -->
<g id="node12" class="node">
<title>Node12</title>
<g id="a_node12"><a xlink:href="conv_8cpp.html" target="_top" xlink:title=" ">
<polygon fill="white" stroke="#666666" points="338,-310.5 250,-310.5 250,-291.5 338,-291.5 338,-310.5"/>
<text text-anchor="middle" x="294" y="-298.5" font-family="Helvetica,sans-Serif" font-size="10.00">src/js/conv.cpp</text>
</a>
</g>
</g>
<!-- Node8&#45;&gt;Node12 -->
<g id="edge14" class="edge">
<title>Node8&#45;&gt;Node12</title>
<path fill="none" stroke="#63b8ff" d="M550.72,-357.21C499.59,-347.87 417.41,-332.24 347,-316 339.86,-314.35 332.22,-312.43 325.03,-310.55"/>
<polygon fill="#63b8ff" stroke="#63b8ff" points="550.36,-360.71 560.83,-359.05 551.62,-353.82 550.36,-360.71"/>
</g>
<!-- Node13 -->
<g id="node13" class="node">
<title>Node13</title>
<g id="a_node13"><a xlink:href="crypto_8cpp.html" target="_top" xlink:title=" ">
<polygon fill="white" stroke="#666666" points="588,-310.5 492,-310.5 492,-291.5 588,-291.5 588,-310.5"/>
<text text-anchor="middle" x="540" y="-298.5" font-family="Helvetica,sans-Serif" font-size="10.00">src/js/crypto.cpp</text>
</a>
</g>
</g>
<!-- Node8&#45;&gt;Node13 -->
<g id="edge16" class="edge">
<title>Node8&#45;&gt;Node13</title>
<path fill="none" stroke="#63b8ff" d="M584.98,-349.98C573.4,-337.62 557.8,-320.99 548.35,-310.91"/>
<polygon fill="#63b8ff" stroke="#63b8ff" points="582.52,-352.47 591.91,-357.37 587.62,-347.68 582.52,-352.47"/>
</g>
<!-- Node14 -->
<g id="node14" class="node">
<title>Node14</title>
<g id="a_node14"><a xlink:href="historical_8cpp.html" target="_top" xlink:title=" ">
<polygon fill="white" stroke="#666666" points="716,-310.5 606,-310.5 606,-291.5 716,-291.5 716,-310.5"/>
<text text-anchor="middle" x="661" y="-298.5" font-family="Helvetica,sans-Serif" font-size="10.00">src/js/historical.cpp</text>
</a>
</g>
</g>
<!-- Node8&#45;&gt;Node14 -->
<g id="edge18" class="edge">
<title>Node8&#45;&gt;Node14</title>
<path fill="none" stroke="#63b8ff" d="M615.27,-349.98C627.05,-337.62 642.9,-320.99 652.51,-310.91"/>
<polygon fill="#63b8ff" stroke="#63b8ff" points="612.59,-347.72 608.23,-357.37 617.66,-352.54 612.59,-347.72"/>
</g>
<!-- Node15 -->
<g id="node15" class="node">
<title>Node15</title>
<g id="a_node15"><a xlink:href="openenclave_8cpp.html" target="_top" xlink:title=" ">
<polygon fill="white" stroke="#666666" points="194,-310.5 66,-310.5 66,-291.5 194,-291.5 194,-310.5"/>
<text text-anchor="middle" x="130" y="-298.5" font-family="Helvetica,sans-Serif" font-size="10.00">src/js/openenclave.cpp</text>
</a>
</g>
</g>
<!-- Node8&#45;&gt;Node15 -->
<g id="edge20" class="edge">
<title>Node8&#45;&gt;Node15</title>
<path fill="none" stroke="#63b8ff" d="M550.96,-360.55C476.62,-352.12 331.06,-334.88 208,-316 197.39,-314.37 186.01,-312.44 175.3,-310.53"/>
<polygon fill="#63b8ff" stroke="#63b8ff" points="550.63,-364.04 560.96,-361.69 551.42,-357.08 550.63,-364.04"/>
</g>
<!-- Node16 -->
<g id="node16" class="node">
<title>Node16</title>
<g id="a_node16"><a xlink:href="member__frontend_8h.html" target="_top" xlink:title=" ">
<polygon fill="white" stroke="#666666" points="1026,-316 906,-316 906,-286 1026,-286 1026,-316"/>
<text text-anchor="start" x="914" y="-304" font-family="Helvetica,sans-Serif" font-size="10.00">src/node/rpc/member</text>
<text text-anchor="middle" x="966" y="-293" font-family="Helvetica,sans-Serif" font-size="10.00">_frontend.h</text>
</a>
</g>
</g>
<!-- Node8&#45;&gt;Node16 -->
<g id="edge23" class="edge">
<title>Node8&#45;&gt;Node16</title>
<path fill="none" stroke="#63b8ff" d="M649.24,-357.84C707.32,-348.15 806.77,-331.36 892,-316 896.5,-315.19 901.16,-314.34 905.84,-313.47"/>
<polygon fill="#63b8ff" stroke="#63b8ff" points="648.53,-354.41 639.24,-359.5 649.68,-361.31 648.53,-354.41"/>
</g>
<!-- Node8&#45;&gt;Node17 -->
<g id="edge25" class="edge">
<title>Node8&#45;&gt;Node17</title>
<path fill="none" stroke="#63b8ff" d="M649.42,-361.02C730.21,-352.73 895.53,-335.1 1035,-316 1046.95,-314.36 1059.79,-312.42 1071.87,-310.52"/>
<polygon fill="#63b8ff" stroke="#63b8ff" points="648.66,-357.58 639.06,-362.08 649.37,-364.55 648.66,-357.58"/>
</g>
<!-- Node10&#45;&gt;Node11 -->
<g id="edge13" class="edge">
<title>Node10&#45;&gt;Node11</title>
<path fill="none" stroke="#63b8ff" d="M748.46,-288.94C698.78,-276.32 618.59,-255.96 573.52,-244.51"/>
<polygon fill="#63b8ff" stroke="#63b8ff" points="747.72,-292.37 758.28,-291.44 749.44,-285.58 747.72,-292.37"/>
</g>
<!-- Node12&#45;&gt;Node11 -->
<g id="edge15" class="edge">
<title>Node12&#45;&gt;Node11</title>
<path fill="none" stroke="#63b8ff" d="M336.01,-288.88C339.72,-287.91 343.43,-286.93 347,-286 403.09,-271.33 468.4,-254.45 506.86,-244.53"/>
<polygon fill="#63b8ff" stroke="#63b8ff" points="335,-285.53 326.23,-291.46 336.79,-292.3 335,-285.53"/>
</g>
<!-- Node13&#45;&gt;Node11 -->
<g id="edge17" class="edge">
<title>Node13&#45;&gt;Node11</title>
<path fill="none" stroke="#63b8ff" d="M540,-281.08C540,-269.13 540,-254.22 540,-244.91"/>
<polygon fill="#63b8ff" stroke="#63b8ff" points="536.5,-281.37 540,-291.37 543.5,-281.37 536.5,-281.37"/>
</g>
<!-- Node14&#45;&gt;Node11 -->
<g id="edge19" class="edge">
<title>Node14&#45;&gt;Node11</title>
<path fill="none" stroke="#63b8ff" d="M635.53,-286.53C611.7,-273.92 576.8,-255.47 556.45,-244.7"/>
<polygon fill="#63b8ff" stroke="#63b8ff" points="634.21,-289.79 644.68,-291.37 637.48,-283.6 634.21,-289.79"/>
</g>
<!-- Node16&#45;&gt;Node4 -->
<g id="edge24" class="edge">
<title>Node16&#45;&gt;Node4</title>
<path fill="none" stroke="#63b8ff" d="M963.51,-275.58C960.77,-237.79 959.98,-163.9 988,-110 996.04,-94.53 1011.82,-81.91 1023.52,-74.12"/>
<polygon fill="#63b8ff" stroke="#63b8ff" points="960.03,-275.98 964.35,-285.66 967,-275.4 960.03,-275.98"/>
</g>
<!-- Node17&#45;&gt;Node4 -->
<g id="edge26" class="edge">
<title>Node17&#45;&gt;Node4</title>
<path fill="none" stroke="#63b8ff" d="M1103.18,-285.2C1078.45,-265.36 1037.42,-227.54 1021,-184 1006.26,-144.91 1025.15,-94.15 1033.94,-74.15"/>
<polygon fill="#63b8ff" stroke="#63b8ff" points="1101.14,-288.05 1111.18,-291.45 1105.45,-282.54 1101.14,-288.05"/>
</g>
<!-- Node18 -->
<g id="node18" class="node">
<title>Node18</title>
<g id="a_node18"><a xlink:href="jwt__key__auto__refresh_8h.html" target="_top" xlink:title=" ">
<polygon fill="white" stroke="#666666" points="1367.5,-250 1242.5,-250 1242.5,-220 1367.5,-220 1367.5,-250"/>
<text text-anchor="start" x="1250.5" y="-238" font-family="Helvetica,sans-Serif" font-size="10.00">src/node/jwt_key_auto</text>
<text text-anchor="middle" x="1305" y="-227" font-family="Helvetica,sans-Serif" font-size="10.00">_refresh.h</text>
</a>
</g>
</g>
<!-- Node17&#45;&gt;Node18 -->
<g id="edge27" class="edge">
<title>Node17&#45;&gt;Node18</title>
<path fill="none" stroke="#63b8ff" d="M1157.33,-287.93C1187.9,-277.18 1232.64,-261.44 1264.86,-250.12"/>
<polygon fill="#63b8ff" stroke="#63b8ff" points="1155.82,-284.75 1147.55,-291.37 1158.14,-291.35 1155.82,-284.75"/>
</g>
<!-- Node18&#45;&gt;Node3 -->
<g id="edge28" class="edge">
<title>Node18&#45;&gt;Node3</title>
<path fill="none" stroke="#63b8ff" d="M1335.57,-214.35C1351.55,-204.07 1370.3,-192.02 1382.63,-184.09"/>
<polygon fill="#63b8ff" stroke="#63b8ff" points="1333.55,-211.49 1327.03,-219.84 1337.33,-217.38 1333.55,-211.49"/>
</g>
<!-- Node19&#45;&gt;Node2 -->
<g id="edge31" class="edge">
<title>Node19&#45;&gt;Node2</title>
<path fill="none" stroke="#63b8ff" d="M1360.08,-346.81C1380.28,-334.73 1405.35,-319.73 1420.76,-310.52"/>
<polygon fill="#63b8ff" stroke="#63b8ff" points="1358.27,-343.82 1351.48,-351.95 1361.86,-349.83 1358.27,-343.82"/>
</g>
<!-- Node19&#45;&gt;Node4 -->
<g id="edge30" class="edge">
<title>Node19&#45;&gt;Node4</title>
<path fill="none" stroke="#63b8ff" d="M1307.37,-344.33C1286.78,-321.95 1255.1,-285.4 1233,-250 1210.99,-214.74 1221.3,-196.34 1194,-165 1155.18,-120.43 1091.57,-88.53 1058.87,-74.11"/>
<polygon fill="#63b8ff" stroke="#63b8ff" points="1305.04,-346.97 1314.41,-351.91 1310.17,-342.2 1305.04,-346.97"/>
</g>
<!-- Node20&#45;&gt;Node4 -->
<g id="edge35" class="edge">
<title>Node20&#45;&gt;Node4</title>
<path fill="none" stroke="#63b8ff" d="M1096.7,-156.07C1081.52,-132.64 1055.11,-91.89 1043.61,-74.16"/>
<polygon fill="#63b8ff" stroke="#63b8ff" points="1093.9,-158.17 1102.27,-164.66 1099.77,-154.37 1093.9,-158.17"/>
</g>
<!-- Node21&#45;&gt;Node3 -->
<g id="edge37" class="edge">
<title>Node21&#45;&gt;Node3</title>
<path fill="none" stroke="#63b8ff" d="M1508.64,-221.58C1481.02,-210.28 1440.98,-193.9 1416.82,-184.02"/>
<polygon fill="#63b8ff" stroke="#63b8ff" points="1507.63,-224.95 1518.21,-225.49 1510.28,-218.47 1507.63,-224.95"/>
</g>
<!-- Node22&#45;&gt;Node3 -->
<g id="edge39" class="edge">
<title>Node22&#45;&gt;Node3</title>
<path fill="none" stroke="#63b8ff" d="M1181.81,-355.07C1238.13,-340.66 1325.94,-309.8 1376,-250 1392.16,-230.7 1395.37,-199.57 1395.94,-184.39"/>
<polygon fill="#63b8ff" stroke="#63b8ff" points="1180.89,-351.69 1172.03,-357.49 1182.57,-358.49 1180.89,-351.69"/>
</g>
<!-- Node22&#45;&gt;Node16 -->
<g id="edge40" class="edge">
<title>Node22&#45;&gt;Node16</title>
<path fill="none" stroke="#63b8ff" d="M1097.54,-353.65C1070.18,-342.9 1030.55,-327.35 1001.95,-316.12"/>
<polygon fill="#63b8ff" stroke="#63b8ff" points="1096.43,-356.97 1107.02,-357.37 1098.99,-350.46 1096.43,-356.97"/>
</g>
<!-- Node23&#45;&gt;Node3 -->
<g id="edge42" class="edge">
<title>Node23&#45;&gt;Node3</title>
<path fill="none" stroke="#63b8ff" d="M1643.14,-223.53C1585.06,-212.24 1493.68,-194.48 1439.82,-184.02"/>
<polygon fill="#63b8ff" stroke="#63b8ff" points="1642.75,-227.02 1653.23,-225.49 1644.08,-220.15 1642.75,-227.02"/>
</g>
</g>
</svg>
        <g id="navigator" transform="translate(0 0)" fill="#404254">
                <rect fill="#f2f5e9" fill-opacity="0.5" stroke="#606060" stroke-width=".5" x="0" y="0" width="60" height="60"/>
                <use id="zoomplus" xlink:href="#zoomPlus" x="17" y="9" onmousedown="handleZoom(evt,'in')"/>
                <use id="zoomminus" xlink:href="#zoomMin" x="42" y="9" onmousedown="handleZoom(evt,'out')"/>
                <use id="reset" xlink:href="#resetDef" x="30" y="36" onmousedown="handleReset()"/>
                <g id="arrowUp" xlink:href="#dirArrow" transform="translate(30 24)" onmousedown="handlePan(0,-1)">
                  <use xlink:href="#rim" fill="#404040">
                        <set attributeName="fill" to="#808080" begin="arrowUp.mouseover" end="arrowUp.mouseout"/>
                  </use>
                  <path fill="none" stroke="white" stroke-width="1.5" d="M0,-3.0v7 M-2.5,-0.5L0,-3.0L2.5,-0.5"/>
                </g>
                <g id="arrowRight" xlink:href="#dirArrow" transform="rotate(90) translate(36 -43)" onmousedown="handlePan(1,0)">
                  <use xlink:href="#rim" fill="#404040">
                        <set attributeName="fill" to="#808080" begin="arrowRight.mouseover" end="arrowRight.mouseout"/>
                  </use>
                  <path fill="none" stroke="white" stroke-width="1.5" d="M0,-3.0v7 M-2.5,-0.5L0,-3.0L2.5,-0.5"/>
                </g>
                <g id="arrowDown" xlink:href="#dirArrow" transform="rotate(180) translate(-30 -48)" onmousedown="handlePan(0,1)">
                  <use xlink:href="#rim" fill="#404040">
                        <set attributeName="fill" to="#808080" begin="arrowDown.mouseover" end="arrowDown.mouseout"/>
                  </use>
                  <path fill="none" stroke="white" stroke-width="1.5" d="M0,-3.0v7 M-2.5,-0.5L0,-3.0L2.5,-0.5"/>
                </g>
                <g id="arrowLeft" xlink:href="#dirArrow" transform="rotate(270) translate(-36 17)" onmousedown="handlePan(-1,0)">
                  <use xlink:href="#rim" fill="#404040">
                        <set attributeName="fill" to="#808080" begin="arrowLeft.mouseover" end="arrowLeft.mouseout"/>
                  </use>
                  <path fill="none" stroke="white" stroke-width="1.5" d="M0,-3.0v7 M-2.5,-0.5L0,-3.0L2.5,-0.5"/>
                </g>
        </g>
        <svg viewBox="0 0 15 15" width="100%" height="30px" preserveAspectRatio="xMaxYMin meet">
         <g id="arrow_out" transform="scale(0.3 0.3)">
          <a xlink:href="network__tables_8h__dep__incl_org.svg" target="_base">
           <rect id="button" ry="5" rx="5" y="6" x="6" height="38" width="38"
                fill="#f2f5e9" fill-opacity="0.5" stroke="#606060" stroke-width="1.0"/>
           <path id="arrow"
             d="M 11.500037,31.436501 C 11.940474,20.09759 22.043105,11.32322 32.158766,21.979434 L 37.068811,17.246167 C 37.068811,17.246167 37.088388,32 37.088388,32 L 22.160133,31.978069 C 22.160133,31.978069 26.997745,27.140456 26.997745,27.140456 C 18.528582,18.264221 13.291696,25.230495 11.500037,31.436501 z"
             style="fill:#404040;"/>
          </a>
         </g>
        </svg>
</svg>
