<?xml version="1.0" encoding="UTF-8" standalone="no"?>
<!DOCTYPE svg PUBLIC "-//W3C//DTD SVG 1.1//EN"
 "http://www.w3.org/Graphics/SVG/1.1/DTD/svg11.dtd">
<!-- Generated by graphviz version 2.43.0 (0)
 -->
<!-- Title: include/ccf/node_startup_state.h Pages: 1 -->
<svg width="2219pt" height="665pt"
 viewBox="0.00 0.00 2218.50 665.00" xmlns="http://www.w3.org/2000/svg" xmlns:xlink="http://www.w3.org/1999/xlink">
<g id="graph0" class="graph" transform="scale(1 1) rotate(0) translate(4 661)">
<title>include/ccf/node_startup_state.h</title>
<!-- Node1 -->
<g id="node1" class="node">
<title>Node1</title>
<g id="a_node1"><a xlink:title=" ">
<polygon fill="#999999" stroke="#666666" points="521,-657 385,-657 385,-627 521,-627 521,-657"/>
<text text-anchor="start" x="393" y="-645" font-family="Helvetica,sans-Serif" font-size="10.00">include/ccf/node_startup</text>
<text text-anchor="middle" x="453" y="-634" font-family="Helvetica,sans-Serif" font-size="10.00">_state.h</text>
</a>
</g>
</g>
<!-- Node2 -->
<g id="node2" class="node">
<title>Node2</title>
<g id="a_node2"><a xlink:href="node__call__types_8h.html" target="_top" xlink:title=" ">
<polygon fill="white" stroke="#666666" points="348.5,-591 223.5,-591 223.5,-561 348.5,-561 348.5,-591"/>
<text text-anchor="start" x="231.5" y="-579" font-family="Helvetica,sans-Serif" font-size="10.00">src/node/rpc/node_call</text>
<text text-anchor="middle" x="286" y="-568" font-family="Helvetica,sans-Serif" font-size="10.00">_types.h</text>
</a>
</g>
</g>
<!-- Node1&#45;&gt;Node2 -->
<g id="edge1" class="edge">
<title>Node1&#45;&gt;Node2</title>
<path fill="none" stroke="#63b8ff" d="M406.87,-623.32C380.29,-613.14 347.34,-600.51 322.56,-591.01"/>
<polygon fill="#63b8ff" stroke="#63b8ff" points="405.76,-626.64 416.35,-626.95 408.27,-620.11 405.76,-626.64"/>
</g>
<!-- Node14 -->
<g id="node14" class="node">
<title>Node14</title>
<g id="a_node14"><a xlink:href="node__interface_8h.html" target="_top" xlink:title=" ">
<polygon fill="white" stroke="#666666" points="889.5,-525 728.5,-525 728.5,-506 889.5,-506 889.5,-525"/>
<text text-anchor="middle" x="809" y="-513" font-family="Helvetica,sans-Serif" font-size="10.00">src/node/rpc/node_interface.h</text>
</a>
</g>
</g>
<!-- Node1&#45;&gt;Node14 -->
<g id="edge19" class="edge">
<title>Node1&#45;&gt;Node14</title>
<path fill="none" stroke="#63b8ff" d="M502.68,-623.63C580.02,-596.58 726.34,-545.41 784.38,-525.11"/>
<polygon fill="#63b8ff" stroke="#63b8ff" points="501.43,-620.36 493.15,-626.96 503.74,-626.96 501.43,-620.36"/>
</g>
<!-- Node37 -->
<g id="node37" class="node">
<title>Node37</title>
<g id="a_node37"><a xlink:href="node__operation__interface_8h.html" target="_top" xlink:title=" ">
<polygon fill="white" stroke="#666666" points="530.5,-591 375.5,-591 375.5,-561 530.5,-561 530.5,-591"/>
<text text-anchor="start" x="383.5" y="-579" font-family="Helvetica,sans-Serif" font-size="10.00">src/node/rpc/node_operation</text>
<text text-anchor="middle" x="453" y="-568" font-family="Helvetica,sans-Serif" font-size="10.00">_interface.h</text>
</a>
</g>
</g>
<!-- Node1&#45;&gt;Node37 -->
<g id="edge70" class="edge">
<title>Node1&#45;&gt;Node37</title>
<path fill="none" stroke="#63b8ff" d="M453,-616.54C453,-607.96 453,-598.61 453,-591.16"/>
<polygon fill="#63b8ff" stroke="#63b8ff" points="449.5,-616.8 453,-626.8 456.5,-616.8 449.5,-616.8"/>
</g>
<!-- Node3 -->
<g id="node3" class="node">
<title>Node3</title>
<g id="a_node3"><a xlink:href="call__types_8h.html" target="_top" xlink:title=" ">
<polygon fill="white" stroke="#666666" points="344.5,-464.5 207.5,-464.5 207.5,-445.5 344.5,-445.5 344.5,-464.5"/>
<text text-anchor="middle" x="276" y="-452.5" font-family="Helvetica,sans-Serif" font-size="10.00">src/node/rpc/call_types.h</text>
</a>
</g>
</g>
<!-- Node2&#45;&gt;Node3 -->
<g id="edge2" class="edge">
<title>Node2&#45;&gt;Node3</title>
<path fill="none" stroke="#63b8ff" d="M283.97,-550.8C281.72,-524.12 278.24,-482.62 276.73,-464.71"/>
<polygon fill="#63b8ff" stroke="#63b8ff" points="280.49,-551.21 284.81,-560.88 287.46,-550.62 280.49,-551.21"/>
</g>
<!-- Node4 -->
<g id="node4" class="node">
<title>Node4</title>
<g id="a_node4"><a xlink:href="common__endpoint__registry_8cpp.html" target="_top" xlink:title=" ">
<polygon fill="white" stroke="#666666" points="266,-338 138,-338 138,-308 266,-308 266,-338"/>
<text text-anchor="start" x="146" y="-326" font-family="Helvetica,sans-Serif" font-size="10.00">src/endpoints/common</text>
<text text-anchor="middle" x="202" y="-315" font-family="Helvetica,sans-Serif" font-size="10.00">_endpoint_registry.cpp</text>
</a>
</g>
</g>
<!-- Node3&#45;&gt;Node4 -->
<g id="edge3" class="edge">
<title>Node3&#45;&gt;Node4</title>
<path fill="none" stroke="#63b8ff" d="M238.94,-441.5C221.73,-433.62 202.91,-421.55 193,-404 181.31,-383.31 189.12,-354.82 195.68,-338.02"/>
<polygon fill="#63b8ff" stroke="#63b8ff" points="237.7,-444.78 248.27,-445.46 240.43,-438.33 237.7,-444.78"/>
</g>
<!-- Node5 -->
<g id="node5" class="node">
<title>Node5</title>
<g id="a_node5"><a xlink:href="wrap_8cpp.html" target="_top" xlink:title=" ">
<polygon fill="white" stroke="#666666" points="1440.5,-266.5 1351.5,-266.5 1351.5,-247.5 1440.5,-247.5 1440.5,-266.5"/>
<text text-anchor="middle" x="1396" y="-254.5" font-family="Helvetica,sans-Serif" font-size="10.00">src/js/wrap.cpp</text>
</a>
</g>
</g>
<!-- Node3&#45;&gt;Node5 -->
<g id="edge4" class="edge">
<title>Node3&#45;&gt;Node5</title>
<path fill="none" stroke="#63b8ff" d="M333.09,-443.88C342.72,-442.41 352.63,-441.05 362,-440 492.54,-425.43 826.54,-442.9 952,-404 1031.21,-379.44 1034.31,-337.01 1112,-308 1193.14,-277.7 1294.31,-265.52 1351.39,-260.81"/>
<polygon fill="#63b8ff" stroke="#63b8ff" points="332.53,-440.43 323.2,-445.44 333.62,-447.34 332.53,-440.43"/>
</g>
<!-- Node6 -->
<g id="node6" class="node">
<title>Node6</title>
<g id="a_node6"><a xlink:href="member__frontend_8h.html" target="_top" xlink:title=" ">
<polygon fill="white" stroke="#666666" points="120,-338 0,-338 0,-308 120,-308 120,-338"/>
<text text-anchor="start" x="8" y="-326" font-family="Helvetica,sans-Serif" font-size="10.00">src/node/rpc/member</text>
<text text-anchor="middle" x="60" y="-315" font-family="Helvetica,sans-Serif" font-size="10.00">_frontend.h</text>
</a>
</g>
</g>
<!-- Node3&#45;&gt;Node6 -->
<g id="edge5" class="edge">
<title>Node3&#45;&gt;Node6</title>
<path fill="none" stroke="#63b8ff" d="M249.82,-440.67C231.01,-430.91 205.16,-417.13 183,-404 146.18,-382.18 104.72,-354.55 80.56,-338.13"/>
<polygon fill="#63b8ff" stroke="#63b8ff" points="248.47,-443.91 258.96,-445.38 251.68,-437.69 248.47,-443.91"/>
</g>
<!-- Node9 -->
<g id="node9" class="node">
<title>Node9</title>
<g id="a_node9"><a xlink:href="serialization_8h.html" target="_top" xlink:title=" ">
<polygon fill="white" stroke="#666666" points="350,-398.5 202,-398.5 202,-379.5 350,-379.5 350,-398.5"/>
<text text-anchor="middle" x="276" y="-386.5" font-family="Helvetica,sans-Serif" font-size="10.00">src/node/rpc/serialization.h</text>
</a>
</g>
</g>
<!-- Node3&#45;&gt;Node9 -->
<g id="edge8" class="edge">
<title>Node3&#45;&gt;Node9</title>
<path fill="none" stroke="#63b8ff" d="M276,-435.08C276,-423.13 276,-408.22 276,-398.91"/>
<polygon fill="#63b8ff" stroke="#63b8ff" points="272.5,-435.37 276,-445.37 279.5,-435.37 272.5,-435.37"/>
</g>
<!-- Node7 -->
<g id="node7" class="node">
<title>Node7</title>
<g id="a_node7"><a xlink:href="src_2enclave_2enclave_8h.html" target="_top" xlink:title=" ">
<polygon fill="white" stroke="#666666" points="1037,-74 915,-74 915,-55 1037,-55 1037,-74"/>
<text text-anchor="middle" x="976" y="-62" font-family="Helvetica,sans-Serif" font-size="10.00">src/enclave/enclave.h</text>
</a>
</g>
</g>
<!-- Node6&#45;&gt;Node7 -->
<g id="edge6" class="edge">
<title>Node6&#45;&gt;Node7</title>
<path fill="none" stroke="#63b8ff" d="M71.6,-298.88C95.95,-253.18 157.23,-152.1 242,-110 301.49,-80.45 749.39,-69.54 914.83,-66.49"/>
<polygon fill="#63b8ff" stroke="#63b8ff" points="68.5,-297.26 66.97,-307.75 74.7,-300.5 68.5,-297.26"/>
</g>
<!-- Node8 -->
<g id="node8" class="node">
<title>Node8</title>
<g id="a_node8"><a xlink:href="enclave_2main_8cpp.html" target="_top" xlink:title=" ">
<polygon fill="white" stroke="#666666" points="1036,-19 916,-19 916,0 1036,0 1036,-19"/>
<text text-anchor="middle" x="976" y="-7" font-family="Helvetica,sans-Serif" font-size="10.00">src/enclave/main.cpp</text>
</a>
</g>
</g>
<!-- Node7&#45;&gt;Node8 -->
<g id="edge7" class="edge">
<title>Node7&#45;&gt;Node8</title>
<path fill="none" stroke="#63b8ff" d="M976,-44.66C976,-35.93 976,-25.99 976,-19.09"/>
<polygon fill="#63b8ff" stroke="#63b8ff" points="972.5,-44.75 976,-54.75 979.5,-44.75 972.5,-44.75"/>
</g>
<!-- Node9&#45;&gt;Node4 -->
<g id="edge9" class="edge">
<title>Node9&#45;&gt;Node4</title>
<path fill="none" stroke="#63b8ff" d="M258.33,-372.71C246.18,-362.21 230.17,-348.36 218.32,-338.12"/>
<polygon fill="#63b8ff" stroke="#63b8ff" points="256.17,-375.47 266.02,-379.37 260.75,-370.18 256.17,-375.47"/>
</g>
<!-- Node9&#45;&gt;Node6 -->
<g id="edge14" class="edge">
<title>Node9&#45;&gt;Node6</title>
<path fill="none" stroke="#63b8ff" d="M237.13,-376.48C200.83,-365.73 146.54,-349.64 107.64,-338.12"/>
<polygon fill="#63b8ff" stroke="#63b8ff" points="236.29,-379.88 246.87,-379.37 238.28,-373.17 236.29,-379.88"/>
</g>
<!-- Node10 -->
<g id="node10" class="node">
<title>Node10</title>
<g id="a_node10"><a xlink:href="node__state_8h.html" target="_top" xlink:title=" ">
<polygon fill="white" stroke="#666666" points="862,-200.5 738,-200.5 738,-181.5 862,-181.5 862,-200.5"/>
<text text-anchor="middle" x="800" y="-188.5" font-family="Helvetica,sans-Serif" font-size="10.00">src/node/node_state.h</text>
</a>
</g>
</g>
<!-- Node9&#45;&gt;Node10 -->
<g id="edge10" class="edge">
<title>Node9&#45;&gt;Node10</title>
<path fill="none" stroke="#63b8ff" d="M285.97,-370.08C304.79,-338.19 348.83,-272.11 406,-242 462.2,-212.4 641.6,-199.51 737.74,-194.61"/>
<polygon fill="#63b8ff" stroke="#63b8ff" points="282.71,-368.73 280.77,-379.15 288.78,-372.22 282.71,-368.73"/>
</g>
<!-- Node12 -->
<g id="node12" class="node">
<title>Node12</title>
<g id="a_node12"><a xlink:href="node__frontend_8h.html" target="_top" xlink:title=" ">
<polygon fill="white" stroke="#666666" points="786,-332.5 628,-332.5 628,-313.5 786,-313.5 786,-332.5"/>
<text text-anchor="middle" x="707" y="-320.5" font-family="Helvetica,sans-Serif" font-size="10.00">src/node/rpc/node_frontend.h</text>
</a>
</g>
</g>
<!-- Node9&#45;&gt;Node12 -->
<g id="edge15" class="edge">
<title>Node9&#45;&gt;Node12</title>
<path fill="none" stroke="#63b8ff" d="M343.66,-377.95C427.95,-365.44 570.49,-344.27 649.66,-332.51"/>
<polygon fill="#63b8ff" stroke="#63b8ff" points="343.06,-374.5 333.68,-379.44 344.09,-381.43 343.06,-374.5"/>
</g>
<!-- Node10&#45;&gt;Node7 -->
<g id="edge11" class="edge">
<title>Node10&#45;&gt;Node7</title>
<path fill="none" stroke="#63b8ff" d="M823.87,-176.22C840.24,-166.54 862.3,-153.04 881,-140 912.98,-117.7 948.64,-88.48 965.75,-74.16"/>
<polygon fill="#63b8ff" stroke="#63b8ff" points="821.81,-173.37 814.95,-181.45 825.35,-179.41 821.81,-173.37"/>
</g>
<!-- Node11 -->
<g id="node11" class="node">
<title>Node11</title>
<g id="a_node11"><a xlink:href="gov__effects_8h.html" target="_top" xlink:title=" ">
<polygon fill="white" stroke="#666666" points="872,-134.5 728,-134.5 728,-115.5 872,-115.5 872,-134.5"/>
<text text-anchor="middle" x="800" y="-122.5" font-family="Helvetica,sans-Serif" font-size="10.00">src/node/rpc/gov_effects.h</text>
</a>
</g>
</g>
<!-- Node10&#45;&gt;Node11 -->
<g id="edge12" class="edge">
<title>Node10&#45;&gt;Node11</title>
<path fill="none" stroke="#63b8ff" d="M800,-171.08C800,-159.13 800,-144.22 800,-134.91"/>
<polygon fill="#63b8ff" stroke="#63b8ff" points="796.5,-171.37 800,-181.37 803.5,-171.37 796.5,-171.37"/>
</g>
<!-- Node11&#45;&gt;Node7 -->
<g id="edge13" class="edge">
<title>Node11&#45;&gt;Node7</title>
<path fill="none" stroke="#63b8ff" d="M835.15,-112.32C869.19,-101 919.99,-84.12 950.38,-74.02"/>
<polygon fill="#63b8ff" stroke="#63b8ff" points="833.98,-109.02 825.59,-115.49 836.19,-115.66 833.98,-109.02"/>
</g>
<!-- Node12&#45;&gt;Node7 -->
<g id="edge16" class="edge">
<title>Node12&#45;&gt;Node7</title>
<path fill="none" stroke="#63b8ff" d="M764.36,-311.58C823.23,-300.4 907.78,-282.8 919,-272 933.94,-257.62 966.1,-111.6 974.15,-74.19"/>
<polygon fill="#63b8ff" stroke="#63b8ff" points="763.6,-308.16 754.42,-313.46 764.89,-315.04 763.6,-308.16"/>
</g>
<!-- Node13 -->
<g id="node13" class="node">
<title>Node13</title>
<g id="a_node13"><a xlink:href="jwt__key__auto__refresh_8h.html" target="_top" xlink:title=" ">
<polygon fill="white" stroke="#666666" points="727.5,-272 602.5,-272 602.5,-242 727.5,-242 727.5,-272"/>
<text text-anchor="start" x="610.5" y="-260" font-family="Helvetica,sans-Serif" font-size="10.00">src/node/jwt_key_auto</text>
<text text-anchor="middle" x="665" y="-249" font-family="Helvetica,sans-Serif" font-size="10.00">_refresh.h</text>
</a>
</g>
</g>
<!-- Node12&#45;&gt;Node13 -->
<g id="edge17" class="edge">
<title>Node12&#45;&gt;Node13</title>
<path fill="none" stroke="#63b8ff" d="M695.79,-304.92C689.12,-294.76 680.75,-282.01 674.42,-272.36"/>
<polygon fill="#63b8ff" stroke="#63b8ff" points="692.92,-306.93 701.34,-313.37 698.78,-303.09 692.92,-306.93"/>
</g>
<!-- Node13&#45;&gt;Node10 -->
<g id="edge18" class="edge">
<title>Node13&#45;&gt;Node10</title>
<path fill="none" stroke="#63b8ff" d="M703.77,-237.62C729.53,-225.41 762.16,-209.94 782.03,-200.52"/>
<polygon fill="#63b8ff" stroke="#63b8ff" points="702.16,-234.51 694.63,-241.95 705.16,-240.83 702.16,-234.51"/>
</g>
<!-- Node14&#45;&gt;Node5 -->
<g id="edge20" class="edge">
<title>Node14&#45;&gt;Node5</title>
<path fill="none" stroke="#63b8ff" d="M899.8,-513.58C1121.96,-510.86 1680.54,-500.98 1759,-470 1843.16,-436.76 1876.06,-420.15 1914,-338 1919.59,-325.9 1922.96,-317.87 1914,-308 1882.45,-273.26 1560.97,-261.98 1440.91,-258.96"/>
<polygon fill="#63b8ff" stroke="#63b8ff" points="899.75,-510.08 889.8,-513.7 899.84,-517.08 899.75,-510.08"/>
</g>
<!-- Node14&#45;&gt;Node6 -->
<g id="edge62" class="edge">
<title>Node14&#45;&gt;Node6</title>
<path fill="none" stroke="#63b8ff" d="M718.07,-511.37C559.32,-505.4 244.02,-491.05 198,-470 134.88,-441.13 86.51,-368.92 68.09,-338.2"/>
<polygon fill="#63b8ff" stroke="#63b8ff" points="718.17,-514.88 728.3,-511.75 718.44,-507.88 718.17,-514.88"/>
</g>
<!-- Node14&#45;&gt;Node12 -->
<g id="edge67" class="edge">
<title>Node14&#45;&gt;Node12</title>
<path fill="none" stroke="#63b8ff" d="M799.51,-496.78C778.23,-457.04 727.35,-362 711.68,-332.73"/>
<polygon fill="#63b8ff" stroke="#63b8ff" points="796.55,-498.66 804.35,-505.82 802.72,-495.35 796.55,-498.66"/>
</g>
<!-- Node15 -->
<g id="node15" class="node">
<title>Node15</title>
<g id="a_node15"><a xlink:href="wrap_8h.html" target="_top" xlink:title=" ">
<polygon fill="white" stroke="#666666" points="1375,-398.5 1297,-398.5 1297,-379.5 1375,-379.5 1375,-398.5"/>
<text text-anchor="middle" x="1336" y="-386.5" font-family="Helvetica,sans-Serif" font-size="10.00">src/js/wrap.h</text>
</a>
</g>
</g>
<!-- Node14&#45;&gt;Node15 -->
<g id="edge21" class="edge">
<title>Node14&#45;&gt;Node15</title>
<path fill="none" stroke="#63b8ff" d="M865.38,-504.15C910.37,-495.66 974.92,-482.96 1031,-470 1132.34,-446.57 1251.26,-413.85 1305.84,-398.54"/>
<polygon fill="#63b8ff" stroke="#63b8ff" points="864.7,-500.71 855.52,-506 865.99,-507.59 864.7,-500.71"/>
</g>
<!-- Node22 -->
<g id="node22" class="node">
<title>Node22</title>
<g id="a_node22"><a xlink:href="historical__queries_8h.html" target="_top" xlink:title=" ">
<polygon fill="white" stroke="#666666" points="1196,-206 1090,-206 1090,-176 1196,-176 1196,-206"/>
<text text-anchor="start" x="1098" y="-194" font-family="Helvetica,sans-Serif" font-size="10.00">src/node/historical</text>
<text text-anchor="middle" x="1143" y="-183" font-family="Helvetica,sans-Serif" font-size="10.00">_queries.h</text>
</a>
</g>
</g>
<!-- Node14&#45;&gt;Node22 -->
<g id="edge37" class="edge">
<title>Node14&#45;&gt;Node22</title>
<path fill="none" stroke="#63b8ff" d="M830.33,-499.86C859.13,-479.68 911.52,-441.54 952,-404 1026.11,-335.28 1103.39,-241.46 1131.73,-206.18"/>
<polygon fill="#63b8ff" stroke="#63b8ff" points="828.06,-497.17 821.85,-505.75 832.05,-502.92 828.06,-497.17"/>
</g>
<!-- Node24 -->
<g id="node24" class="node">
<title>Node24</title>
<g id="a_node24"><a xlink:href="node__configuration__subsystem_8h.html" target="_top" xlink:title=" ">
<polygon fill="white" stroke="#666666" points="711,-470 557,-470 557,-440 711,-440 711,-470"/>
<text text-anchor="start" x="565" y="-458" font-family="Helvetica,sans-Serif" font-size="10.00">src/node/node_configuration</text>
<text text-anchor="middle" x="634" y="-447" font-family="Helvetica,sans-Serif" font-size="10.00">_subsystem.h</text>
</a>
</g>
</g>
<!-- Node14&#45;&gt;Node24 -->
<g id="edge41" class="edge">
<title>Node14&#45;&gt;Node24</title>
<path fill="none" stroke="#63b8ff" d="M773.72,-502.71C745.52,-493.28 705.92,-480.04 676.07,-470.06"/>
<polygon fill="#63b8ff" stroke="#63b8ff" points="772.96,-506.14 783.55,-505.99 775.18,-499.5 772.96,-506.14"/>
</g>
<!-- Node29 -->
<g id="node29" class="node">
<title>Node29</title>
<g id="a_node29"><a xlink:href="acme__subsystem_8h.html" target="_top" xlink:title=" ">
<polygon fill="white" stroke="#666666" points="2210.5,-200.5 2037.5,-200.5 2037.5,-181.5 2210.5,-181.5 2210.5,-200.5"/>
<text text-anchor="middle" x="2124" y="-188.5" font-family="Helvetica,sans-Serif" font-size="10.00">src/node/rpc/acme_subsystem.h</text>
</a>
</g>
</g>
<!-- Node14&#45;&gt;Node29 -->
<g id="edge52" class="edge">
<title>Node14&#45;&gt;Node29</title>
<path fill="none" stroke="#63b8ff" d="M899.91,-515.16C1191.59,-516.09 2085,-509.2 2085,-390 2085,-390 2085,-390 2085,-322 2085,-274.4 2109.28,-220.98 2119.53,-200.56"/>
<polygon fill="#63b8ff" stroke="#63b8ff" points="899.8,-511.66 889.79,-515.12 899.77,-518.66 899.8,-511.66"/>
</g>
<!-- Node30 -->
<g id="node30" class="node">
<title>Node30</title>
<g id="a_node30"><a xlink:href="custom__protocol__subsystem_8h.html" target="_top" xlink:title=" ">
<polygon fill="white" stroke="#666666" points="942.5,-404 813.5,-404 813.5,-374 942.5,-374 942.5,-404"/>
<text text-anchor="start" x="821.5" y="-392" font-family="Helvetica,sans-Serif" font-size="10.00">src/node/rpc/custom</text>
<text text-anchor="middle" x="878" y="-381" font-family="Helvetica,sans-Serif" font-size="10.00">_protocol_subsystem.h</text>
</a>
</g>
</g>
<!-- Node14&#45;&gt;Node30 -->
<g id="edge54" class="edge">
<title>Node14&#45;&gt;Node30</title>
<path fill="none" stroke="#63b8ff" d="M818.75,-496.91C832.54,-472.03 857.48,-427.03 870.15,-404.16"/>
<polygon fill="#63b8ff" stroke="#63b8ff" points="815.53,-495.5 813.74,-505.94 821.65,-498.89 815.53,-495.5"/>
</g>
<!-- Node33 -->
<g id="node33" class="node">
<title>Node33</title>
<g id="a_node33"><a xlink:href="network__identity__subsystem_8h.html" target="_top" xlink:title=" ">
<polygon fill="white" stroke="#666666" points="1749.5,-470 1622.5,-470 1622.5,-440 1749.5,-440 1749.5,-470"/>
<text text-anchor="start" x="1630.5" y="-458" font-family="Helvetica,sans-Serif" font-size="10.00">src/node/rpc/network</text>
<text text-anchor="middle" x="1686" y="-447" font-family="Helvetica,sans-Serif" font-size="10.00">_identity_subsystem.h</text>
</a>
</g>
</g>
<!-- Node14&#45;&gt;Node33 -->
<g id="edge63" class="edge">
<title>Node14&#45;&gt;Node33</title>
<path fill="none" stroke="#63b8ff" d="M899.67,-508.45C1077.7,-496.58 1468.96,-470.48 1622.44,-460.24"/>
<polygon fill="#63b8ff" stroke="#63b8ff" points="899.29,-504.97 889.54,-509.13 899.75,-511.95 899.29,-504.97"/>
</g>
<!-- Node36 -->
<g id="node36" class="node">
<title>Node36</title>
<g id="a_node36"><a xlink:href="node__operation_8h.html" target="_top" xlink:title=" ">
<polygon fill="white" stroke="#666666" points="535,-464.5 371,-464.5 371,-445.5 535,-445.5 535,-464.5"/>
<text text-anchor="middle" x="453" y="-452.5" font-family="Helvetica,sans-Serif" font-size="10.00">src/node/rpc/node_operation.h</text>
</a>
</g>
</g>
<!-- Node14&#45;&gt;Node36 -->
<g id="edge68" class="edge">
<title>Node14&#45;&gt;Node36</title>
<path fill="none" stroke="#63b8ff" d="M747,-504.31C678.39,-493.04 569.06,-475.07 504.83,-464.52"/>
<polygon fill="#63b8ff" stroke="#63b8ff" points="746.8,-507.83 757.23,-505.99 747.93,-500.92 746.8,-507.83"/>
</g>
<!-- Node15&#45;&gt;Node5 -->
<g id="edge33" class="edge">
<title>Node15&#45;&gt;Node5</title>
<path fill="none" stroke="#63b8ff" d="M1385.17,-381.55C1412.1,-375.24 1443.3,-362.74 1460,-338 1467.46,-326.95 1465.85,-319.98 1460,-308 1450.6,-288.74 1429.8,-274.72 1414.45,-266.51"/>
<polygon fill="#63b8ff" stroke="#63b8ff" points="1384.16,-378.19 1375.1,-383.69 1385.61,-385.04 1384.16,-378.19"/>
</g>
<!-- Node15&#45;&gt;Node6 -->
<g id="edge35" class="edge">
<title>Node15&#45;&gt;Node6</title>
<path fill="none" stroke="#63b8ff" d="M1286.74,-386.18C1067.35,-378.04 187.28,-345.07 129,-338 126.09,-337.65 123.12,-337.24 120.12,-336.78"/>
<polygon fill="#63b8ff" stroke="#63b8ff" points="1286.86,-389.69 1296.98,-386.56 1287.12,-382.69 1286.86,-389.69"/>
</g>
<!-- Node15&#45;&gt;Node7 -->
<g id="edge23" class="edge">
<title>Node15&#45;&gt;Node7</title>
<path fill="none" stroke="#63b8ff" d="M1385.71,-384.08C1524.94,-373.06 1909.01,-342.31 1914,-338 1941.67,-314.12 1933,-294.54 1933,-258 1933,-258 1933,-258 1933,-190 1933,-99.32 1248.54,-72.97 1037.32,-67"/>
<polygon fill="#63b8ff" stroke="#63b8ff" points="1385.03,-380.63 1375.33,-384.9 1385.58,-387.6 1385.03,-380.63"/>
</g>
<!-- Node15&#45;&gt;Node10 -->
<g id="edge34" class="edge">
<title>Node15&#45;&gt;Node10</title>
<path fill="none" stroke="#63b8ff" d="M1286.56,-381.01C1240.41,-373.55 1170.11,-359.76 1112,-338 1028.19,-306.62 1016.5,-278.97 935,-242 898.13,-225.27 853.86,-209.69 826.32,-200.51"/>
<polygon fill="#63b8ff" stroke="#63b8ff" points="1286.18,-384.49 1296.61,-382.6 1287.28,-377.58 1286.18,-384.49"/>
</g>
<!-- Node15&#45;&gt;Node12 -->
<g id="edge36" class="edge">
<title>Node15&#45;&gt;Node12</title>
<path fill="none" stroke="#63b8ff" d="M1286.77,-384.5C1191.7,-377.5 976.33,-360.51 796,-338 783.58,-336.45 770.24,-334.5 757.75,-332.56"/>
<polygon fill="#63b8ff" stroke="#63b8ff" points="1286.71,-388 1296.94,-385.24 1287.23,-381.02 1286.71,-388"/>
</g>
<!-- Node16 -->
<g id="node16" class="node">
<title>Node16</title>
<g id="a_node16"><a xlink:href="js__generic__base_8cpp.html" target="_top" xlink:title=" ">
<polygon fill="white" stroke="#666666" points="1625,-338 1507,-338 1507,-308 1625,-308 1625,-338"/>
<text text-anchor="start" x="1515" y="-326" font-family="Helvetica,sans-Serif" font-size="10.00">src/apps/js_generic</text>
<text text-anchor="middle" x="1566" y="-315" font-family="Helvetica,sans-Serif" font-size="10.00">/js_generic_base.cpp</text>
</a>
</g>
</g>
<!-- Node15&#45;&gt;Node16 -->
<g id="edge22" class="edge">
<title>Node15&#45;&gt;Node16</title>
<path fill="none" stroke="#63b8ff" d="M1376.89,-376.62C1415.55,-365.86 1473.67,-349.69 1515.27,-338.12"/>
<polygon fill="#63b8ff" stroke="#63b8ff" points="1375.71,-373.32 1367.02,-379.37 1377.59,-380.06 1375.71,-373.32"/>
</g>
<!-- Node17 -->
<g id="node17" class="node">
<title>Node17</title>
<g id="a_node17"><a xlink:href="consensus_8cpp.html" target="_top" xlink:title=" ">
<polygon fill="white" stroke="#666666" points="1905,-332.5 1789,-332.5 1789,-313.5 1905,-313.5 1905,-332.5"/>
<text text-anchor="middle" x="1847" y="-320.5" font-family="Helvetica,sans-Serif" font-size="10.00">src/js/consensus.cpp</text>
</a>
</g>
</g>
<!-- Node15&#45;&gt;Node17 -->
<g id="edge24" class="edge">
<title>Node15&#45;&gt;Node17</title>
<path fill="none" stroke="#63b8ff" d="M1385.11,-383.99C1467.19,-376.94 1637.32,-360.89 1780,-338 1789.5,-336.48 1799.7,-334.51 1809.2,-332.54"/>
<polygon fill="#63b8ff" stroke="#63b8ff" points="1384.74,-380.51 1375.07,-384.84 1385.33,-387.48 1384.74,-380.51"/>
</g>
<!-- Node18 -->
<g id="node18" class="node">
<title>Node18</title>
<g id="a_node18"><a xlink:href="conv_8cpp.html" target="_top" xlink:title=" ">
<polygon fill="white" stroke="#666666" points="1209,-332.5 1121,-332.5 1121,-313.5 1209,-313.5 1209,-332.5"/>
<text text-anchor="middle" x="1165" y="-320.5" font-family="Helvetica,sans-Serif" font-size="10.00">src/js/conv.cpp</text>
</a>
</g>
</g>
<!-- Node15&#45;&gt;Node18 -->
<g id="edge26" class="edge">
<title>Node15&#45;&gt;Node18</title>
<path fill="none" stroke="#63b8ff" d="M1303.51,-375.84C1269.72,-363.2 1217.71,-343.73 1187.97,-332.6"/>
<polygon fill="#63b8ff" stroke="#63b8ff" points="1302.35,-379.14 1312.94,-379.37 1304.8,-372.59 1302.35,-379.14"/>
</g>
<!-- Node19 -->
<g id="node19" class="node">
<title>Node19</title>
<g id="a_node19"><a xlink:href="crypto_8cpp.html" target="_top" xlink:title=" ">
<polygon fill="white" stroke="#666666" points="1323,-332.5 1227,-332.5 1227,-313.5 1323,-313.5 1323,-332.5"/>
<text text-anchor="middle" x="1275" y="-320.5" font-family="Helvetica,sans-Serif" font-size="10.00">src/js/crypto.cpp</text>
</a>
</g>
</g>
<!-- Node15&#45;&gt;Node19 -->
<g id="edge28" class="edge">
<title>Node15&#45;&gt;Node19</title>
<path fill="none" stroke="#63b8ff" d="M1320.73,-371.98C1308.95,-359.62 1293.1,-342.99 1283.49,-332.91"/>
<polygon fill="#63b8ff" stroke="#63b8ff" points="1318.34,-374.54 1327.77,-379.37 1323.41,-369.72 1318.34,-374.54"/>
</g>
<!-- Node20 -->
<g id="node20" class="node">
<title>Node20</title>
<g id="a_node20"><a xlink:href="historical_8cpp.html" target="_top" xlink:title=" ">
<polygon fill="white" stroke="#666666" points="1451,-332.5 1341,-332.5 1341,-313.5 1451,-313.5 1451,-332.5"/>
<text text-anchor="middle" x="1396" y="-320.5" font-family="Helvetica,sans-Serif" font-size="10.00">src/js/historical.cpp</text>
</a>
</g>
</g>
<!-- Node15&#45;&gt;Node20 -->
<g id="edge30" class="edge">
<title>Node15&#45;&gt;Node20</title>
<path fill="none" stroke="#63b8ff" d="M1351.02,-371.98C1362.6,-359.62 1378.2,-342.99 1387.65,-332.91"/>
<polygon fill="#63b8ff" stroke="#63b8ff" points="1348.38,-369.68 1344.09,-379.37 1353.48,-374.47 1348.38,-369.68"/>
</g>
<!-- Node21 -->
<g id="node21" class="node">
<title>Node21</title>
<g id="a_node21"><a xlink:href="openenclave_8cpp.html" target="_top" xlink:title=" ">
<polygon fill="white" stroke="#666666" points="1771,-332.5 1643,-332.5 1643,-313.5 1771,-313.5 1771,-332.5"/>
<text text-anchor="middle" x="1707" y="-320.5" font-family="Helvetica,sans-Serif" font-size="10.00">src/js/openenclave.cpp</text>
</a>
</g>
</g>
<!-- Node15&#45;&gt;Node21 -->
<g id="edge32" class="edge">
<title>Node15&#45;&gt;Node21</title>
<path fill="none" stroke="#63b8ff" d="M1385.28,-380.09C1444.42,-370.52 1546.57,-353.72 1634,-338 1643.53,-336.29 1653.74,-334.38 1663.41,-332.53"/>
<polygon fill="#63b8ff" stroke="#63b8ff" points="1384.41,-376.69 1375.1,-381.74 1385.53,-383.6 1384.41,-376.69"/>
</g>
<!-- Node17&#45;&gt;Node5 -->
<g id="edge25" class="edge">
<title>Node17&#45;&gt;Node5</title>
<path fill="none" stroke="#63b8ff" d="M1798.96,-311.5C1792.6,-310.24 1786.15,-309.04 1780,-308 1657.7,-287.29 1512.23,-270.46 1440.51,-262.68"/>
<polygon fill="#63b8ff" stroke="#63b8ff" points="1798.33,-314.94 1808.83,-313.5 1799.72,-308.08 1798.33,-314.94"/>
</g>
<!-- Node18&#45;&gt;Node5 -->
<g id="edge27" class="edge">
<title>Node18&#45;&gt;Node5</title>
<path fill="none" stroke="#63b8ff" d="M1205.99,-310.64C1251.5,-298.03 1323.93,-277.97 1364.97,-266.6"/>
<polygon fill="#63b8ff" stroke="#63b8ff" points="1204.86,-307.33 1196.15,-313.37 1206.73,-314.07 1204.86,-307.33"/>
</g>
<!-- Node19&#45;&gt;Node5 -->
<g id="edge29" class="edge">
<title>Node19&#45;&gt;Node5</title>
<path fill="none" stroke="#63b8ff" d="M1300.47,-308.53C1324.3,-295.92 1359.2,-277.47 1379.55,-266.7"/>
<polygon fill="#63b8ff" stroke="#63b8ff" points="1298.52,-305.6 1291.32,-313.37 1301.79,-311.79 1298.52,-305.6"/>
</g>
<!-- Node20&#45;&gt;Node5 -->
<g id="edge31" class="edge">
<title>Node20&#45;&gt;Node5</title>
<path fill="none" stroke="#63b8ff" d="M1396,-303.08C1396,-291.13 1396,-276.22 1396,-266.91"/>
<polygon fill="#63b8ff" stroke="#63b8ff" points="1392.5,-303.37 1396,-313.37 1399.5,-303.37 1392.5,-303.37"/>
</g>
<!-- Node22&#45;&gt;Node7 -->
<g id="edge38" class="edge">
<title>Node22&#45;&gt;Node7</title>
<path fill="none" stroke="#63b8ff" d="M1179.71,-170.88C1205.6,-154.9 1232.76,-131.37 1215,-110 1192.81,-83.3 1100.46,-72.54 1037.27,-68.26"/>
<polygon fill="#63b8ff" stroke="#63b8ff" points="1177.88,-167.9 1171.04,-175.99 1181.43,-173.92 1177.88,-167.9"/>
</g>
<!-- Node23 -->
<g id="node23" class="node">
<title>Node23</title>
<g id="a_node23"><a xlink:href="historical__transaction__fetcher_8h.html" target="_top" xlink:title=" ">
<polygon fill="white" stroke="#666666" points="1205.5,-140 1080.5,-140 1080.5,-110 1205.5,-110 1205.5,-140"/>
<text text-anchor="start" x="1088.5" y="-128" font-family="Helvetica,sans-Serif" font-size="10.00">src/indexing/historical</text>
<text text-anchor="middle" x="1143" y="-117" font-family="Helvetica,sans-Serif" font-size="10.00">_transaction_fetcher.h</text>
</a>
</g>
</g>
<!-- Node22&#45;&gt;Node23 -->
<g id="edge39" class="edge">
<title>Node22&#45;&gt;Node23</title>
<path fill="none" stroke="#63b8ff" d="M1143,-165.54C1143,-156.96 1143,-147.61 1143,-140.16"/>
<polygon fill="#63b8ff" stroke="#63b8ff" points="1139.5,-165.8 1143,-175.8 1146.5,-165.8 1139.5,-165.8"/>
</g>
<!-- Node23&#45;&gt;Node7 -->
<g id="edge40" class="edge">
<title>Node23&#45;&gt;Node7</title>
<path fill="none" stroke="#63b8ff" d="M1093.36,-106.61C1062.81,-95.91 1024.97,-82.65 1000.66,-74.14"/>
<polygon fill="#63b8ff" stroke="#63b8ff" points="1092.4,-109.98 1103,-109.99 1094.72,-103.38 1092.4,-109.98"/>
</g>
<!-- Node25 -->
<g id="node25" class="node">
<title>Node25</title>
<g id="a_node25"><a xlink:href="frontend_8h.html" target="_top" xlink:title=" ">
<polygon fill="white" stroke="#666666" points="553.5,-398.5 424.5,-398.5 424.5,-379.5 553.5,-379.5 553.5,-398.5"/>
<text text-anchor="middle" x="489" y="-386.5" font-family="Helvetica,sans-Serif" font-size="10.00">src/node/rpc/frontend.h</text>
</a>
</g>
</g>
<!-- Node24&#45;&gt;Node25 -->
<g id="edge42" class="edge">
<title>Node24&#45;&gt;Node25</title>
<path fill="none" stroke="#63b8ff" d="M592.72,-435.78C565,-423.54 529.74,-407.98 508.3,-398.52"/>
<polygon fill="#63b8ff" stroke="#63b8ff" points="591.62,-439.12 602.18,-439.95 594.44,-432.71 591.62,-439.12"/>
</g>
<!-- Node25&#45;&gt;Node6 -->
<g id="edge48" class="edge">
<title>Node25&#45;&gt;Node6</title>
<path fill="none" stroke="#63b8ff" d="M414.42,-379.02C341.47,-369.9 227.32,-354.78 129,-338 126.11,-337.51 123.15,-336.98 120.17,-336.44"/>
<polygon fill="#63b8ff" stroke="#63b8ff" points="414.08,-382.5 424.43,-380.26 414.94,-375.55 414.08,-382.5"/>
</g>
<!-- Node25&#45;&gt;Node10 -->
<g id="edge47" class="edge">
<title>Node25&#45;&gt;Node10</title>
<path fill="none" stroke="#63b8ff" d="M462.29,-374.06C449.06,-365.58 434.37,-353.41 427,-338 408.59,-299.51 398.91,-274.11 427,-242 447.11,-219.01 636.87,-202.93 737.7,-195.93"/>
<polygon fill="#63b8ff" stroke="#63b8ff" points="460.73,-377.21 471.11,-379.34 464.32,-371.2 460.73,-377.21"/>
</g>
<!-- Node25&#45;&gt;Node12 -->
<g id="edge49" class="edge">
<title>Node25&#45;&gt;Node12</title>
<path fill="none" stroke="#63b8ff" d="M528.23,-376.48C571.21,-363.87 639.15,-343.92 677.72,-332.6"/>
<polygon fill="#63b8ff" stroke="#63b8ff" points="527.01,-373.19 518.4,-379.37 528.98,-379.91 527.01,-373.19"/>
</g>
<!-- Node26 -->
<g id="node26" class="node">
<title>Node26</title>
<g id="a_node26"><a xlink:href="acme__challenge__frontend_8h.html" target="_top" xlink:title=" ">
<polygon fill="white" stroke="#666666" points="576,-338 436,-338 436,-308 576,-308 576,-338"/>
<text text-anchor="start" x="444" y="-326" font-family="Helvetica,sans-Serif" font-size="10.00">src/node/acme_challenge</text>
<text text-anchor="middle" x="506" y="-315" font-family="Helvetica,sans-Serif" font-size="10.00">_frontend.h</text>
</a>
</g>
</g>
<!-- Node25&#45;&gt;Node26 -->
<g id="edge43" class="edge">
<title>Node25&#45;&gt;Node26</title>
<path fill="none" stroke="#63b8ff" d="M493.87,-369.67C496.51,-359.72 499.73,-347.61 502.19,-338.36"/>
<polygon fill="#63b8ff" stroke="#63b8ff" points="490.48,-368.81 491.29,-379.37 497.24,-370.6 490.48,-368.81"/>
</g>
<!-- Node28 -->
<g id="node28" class="node">
<title>Node28</title>
<g id="a_node28"><a xlink:href="user__frontend_8h.html" target="_top" xlink:title=" ">
<polygon fill="white" stroke="#666666" points="439.5,-134.5 284.5,-134.5 284.5,-115.5 439.5,-115.5 439.5,-134.5"/>
<text text-anchor="middle" x="362" y="-122.5" font-family="Helvetica,sans-Serif" font-size="10.00">src/node/rpc/user_frontend.h</text>
</a>
</g>
</g>
<!-- Node25&#45;&gt;Node28 -->
<g id="edge50" class="edge">
<title>Node25&#45;&gt;Node28</title>
<path fill="none" stroke="#63b8ff" d="M457.13,-375.05C440.67,-366.8 421.66,-354.52 410,-338 362.78,-271.1 361.12,-165.29 361.71,-134.6"/>
<polygon fill="#63b8ff" stroke="#63b8ff" points="455.91,-378.35 466.44,-379.45 458.89,-372.02 455.91,-378.35"/>
</g>
<!-- Node26&#45;&gt;Node7 -->
<g id="edge44" class="edge">
<title>Node26&#45;&gt;Node7</title>
<path fill="none" stroke="#63b8ff" d="M459.4,-302.99C446.6,-295.36 434.25,-285.17 427,-272 420.57,-260.32 419.77,-253.2 427,-242 504.23,-122.33 582.86,-151.82 719,-110 784.36,-89.92 862.03,-78.05 914.75,-71.69"/>
<polygon fill="#63b8ff" stroke="#63b8ff" points="457.83,-306.12 468.28,-307.88 461.21,-299.99 457.83,-306.12"/>
</g>
<!-- Node27 -->
<g id="node27" class="node">
<title>Node27</title>
<g id="a_node27"><a xlink:href="ccf__acme__client_8h.html" target="_top" xlink:title=" ">
<polygon fill="white" stroke="#666666" points="584.5,-266.5 435.5,-266.5 435.5,-247.5 584.5,-247.5 584.5,-266.5"/>
<text text-anchor="middle" x="510" y="-254.5" font-family="Helvetica,sans-Serif" font-size="10.00">src/node/ccf_acme_client.h</text>
</a>
</g>
</g>
<!-- Node26&#45;&gt;Node27 -->
<g id="edge45" class="edge">
<title>Node26&#45;&gt;Node27</title>
<path fill="none" stroke="#63b8ff" d="M507.52,-297.6C508.2,-286.8 508.95,-274.78 509.45,-266.84"/>
<polygon fill="#63b8ff" stroke="#63b8ff" points="504.02,-297.6 506.89,-307.8 511,-298.03 504.02,-297.6"/>
</g>
<!-- Node27&#45;&gt;Node10 -->
<g id="edge46" class="edge">
<title>Node27&#45;&gt;Node10</title>
<path fill="none" stroke="#63b8ff" d="M558.68,-245.26C615.74,-232.67 709.12,-212.06 761.42,-200.51"/>
<polygon fill="#63b8ff" stroke="#63b8ff" points="557.82,-241.86 548.81,-247.44 559.33,-248.7 557.82,-241.86"/>
</g>
<!-- Node28&#45;&gt;Node7 -->
<g id="edge51" class="edge">
<title>Node28&#45;&gt;Node7</title>
<path fill="none" stroke="#63b8ff" d="M423.91,-114.01C433.95,-112.55 444.25,-111.16 454,-110 620.19,-90.29 817.15,-75.93 914.79,-69.4"/>
<polygon fill="#63b8ff" stroke="#63b8ff" points="423.36,-110.55 413.98,-115.48 424.38,-117.48 423.36,-110.55"/>
</g>
<!-- Node29&#45;&gt;Node7 -->
<g id="edge53" class="edge">
<title>Node29&#45;&gt;Node7</title>
<path fill="none" stroke="#63b8ff" d="M2110,-173.98C2092.06,-154.73 2058.95,-123.38 2023,-110 1930.81,-75.7 1247.27,-67.6 1037.22,-65.9"/>
<polygon fill="#63b8ff" stroke="#63b8ff" points="2107.42,-176.34 2116.73,-181.4 2112.61,-171.64 2107.42,-176.34"/>
</g>
<!-- Node30&#45;&gt;Node7 -->
<g id="edge55" class="edge">
<title>Node30&#45;&gt;Node7</title>
<path fill="none" stroke="#63b8ff" d="M924.09,-369.27C937.69,-361.55 951.26,-351.24 960,-338 1008.94,-263.81 981.98,-228.67 988,-140 988.9,-126.7 989.75,-123.22 988,-110 986.32,-97.31 982.05,-83.1 979.09,-74.23"/>
<polygon fill="#63b8ff" stroke="#63b8ff" points="922.4,-366.21 915.19,-373.98 925.67,-372.4 922.4,-366.21"/>
</g>
<!-- Node31 -->
<g id="node31" class="node">
<title>Node31</title>
<g id="a_node31"><a xlink:href="rpc__sessions_8h.html" target="_top" xlink:title=" ">
<polygon fill="white" stroke="#666666" points="951,-332.5 805,-332.5 805,-313.5 951,-313.5 951,-332.5"/>
<text text-anchor="middle" x="878" y="-320.5" font-family="Helvetica,sans-Serif" font-size="10.00">src/enclave/rpc_sessions.h</text>
</a>
</g>
</g>
<!-- Node30&#45;&gt;Node31 -->
<g id="edge56" class="edge">
<title>Node30&#45;&gt;Node31</title>
<path fill="none" stroke="#63b8ff" d="M878,-363.6C878,-352.8 878,-340.78 878,-332.84"/>
<polygon fill="#63b8ff" stroke="#63b8ff" points="874.5,-363.8 878,-373.8 881.5,-363.8 874.5,-363.8"/>
</g>
<!-- Node31&#45;&gt;Node7 -->
<g id="edge57" class="edge">
<title>Node31&#45;&gt;Node7</title>
<path fill="none" stroke="#63b8ff" d="M900.12,-307.58C912.11,-298.68 926.23,-286.26 935,-272 976.36,-204.75 977.11,-103.97 976.34,-74.12"/>
<polygon fill="#63b8ff" stroke="#63b8ff" points="898.02,-304.79 891.87,-313.42 902.06,-310.5 898.02,-304.79"/>
</g>
<!-- Node31&#45;&gt;Node10 -->
<g id="edge59" class="edge">
<title>Node31&#45;&gt;Node10</title>
<path fill="none" stroke="#63b8ff" d="M896.05,-306.21C912.75,-289.64 933.03,-263.11 919,-242 904.24,-219.79 877.49,-207.42 853.08,-200.55"/>
<polygon fill="#63b8ff" stroke="#63b8ff" points="893.21,-304.08 888.31,-313.48 898,-309.19 893.21,-304.08"/>
</g>
<!-- Node31&#45;&gt;Node27 -->
<g id="edge58" class="edge">
<title>Node31&#45;&gt;Node27</title>
<path fill="none" stroke="#63b8ff" d="M818.46,-311.65C746.29,-299.09 626,-278.17 558.96,-266.51"/>
<polygon fill="#63b8ff" stroke="#63b8ff" points="818.3,-315.17 828.75,-313.44 819.5,-308.27 818.3,-315.17"/>
</g>
<!-- Node32 -->
<g id="node32" class="node">
<title>Node32</title>
<g id="a_node32"><a xlink:href="quote__endorsements__client_8h.html" target="_top" xlink:title=" ">
<polygon fill="white" stroke="#666666" points="910,-272 746,-272 746,-242 910,-242 910,-272"/>
<text text-anchor="start" x="754" y="-260" font-family="Helvetica,sans-Serif" font-size="10.00">src/node/quote_endorsements</text>
<text text-anchor="middle" x="828" y="-249" font-family="Helvetica,sans-Serif" font-size="10.00">_client.h</text>
</a>
</g>
</g>
<!-- Node31&#45;&gt;Node32 -->
<g id="edge60" class="edge">
<title>Node31&#45;&gt;Node32</title>
<path fill="none" stroke="#63b8ff" d="M864.9,-305.24C856.92,-295.02 846.83,-282.1 839.22,-272.36"/>
<polygon fill="#63b8ff" stroke="#63b8ff" points="862.34,-307.64 871.26,-313.37 867.86,-303.33 862.34,-307.64"/>
</g>
<!-- Node32&#45;&gt;Node10 -->
<g id="edge61" class="edge">
<title>Node32&#45;&gt;Node10</title>
<path fill="none" stroke="#63b8ff" d="M817.77,-232.61C812.93,-221.56 807.45,-209.03 803.87,-200.84"/>
<polygon fill="#63b8ff" stroke="#63b8ff" points="814.57,-234.04 821.79,-241.8 820.98,-231.23 814.57,-234.04"/>
</g>
<!-- Node33&#45;&gt;Node7 -->
<g id="edge65" class="edge">
<title>Node33&#45;&gt;Node7</title>
<path fill="none" stroke="#63b8ff" d="M1759.71,-442.61C1855.04,-423.21 2009,-373.93 2009,-258 2009,-258 2009,-258 2009,-190 2009,-82.61 1886.33,-130.95 1781,-110 1638.83,-81.72 1199.75,-70.07 1037.28,-66.65"/>
<polygon fill="#63b8ff" stroke="#63b8ff" points="1758.95,-439.19 1749.81,-444.56 1760.3,-446.06 1758.95,-439.19"/>
</g>
<!-- Node34 -->
<g id="node34" class="node">
<title>Node34</title>
<g id="a_node34"><a xlink:href="external__executor_8cpp.html" target="_top" xlink:title=" ">
<polygon fill="white" stroke="#666666" points="1684,-404 1536,-404 1536,-374 1684,-374 1684,-404"/>
<text text-anchor="start" x="1544" y="-392" font-family="Helvetica,sans-Serif" font-size="10.00">src/apps/external_executor</text>
<text text-anchor="middle" x="1610" y="-381" font-family="Helvetica,sans-Serif" font-size="10.00">/external_executor.cpp</text>
</a>
</g>
</g>
<!-- Node33&#45;&gt;Node34 -->
<g id="edge64" class="edge">
<title>Node33&#45;&gt;Node34</title>
<path fill="none" stroke="#63b8ff" d="M1661.3,-433.2C1650.02,-423.7 1636.95,-412.69 1626.82,-404.16"/>
<polygon fill="#63b8ff" stroke="#63b8ff" points="1659.23,-436.03 1669.13,-439.8 1663.74,-430.68 1659.23,-436.03"/>
</g>
<!-- Node35 -->
<g id="node35" class="node">
<title>Node35</title>
<g id="a_node35"><a xlink:href="historical__queries__adapter_8cpp.html" target="_top" xlink:title=" ">
<polygon fill="white" stroke="#666666" points="1822,-404 1702,-404 1702,-374 1822,-374 1822,-404"/>
<text text-anchor="start" x="1710" y="-392" font-family="Helvetica,sans-Serif" font-size="10.00">src/node/historical</text>
<text text-anchor="middle" x="1762" y="-381" font-family="Helvetica,sans-Serif" font-size="10.00">_queries_adapter.cpp</text>
</a>
</g>
</g>
<!-- Node33&#45;&gt;Node35 -->
<g id="edge66" class="edge">
<title>Node33&#45;&gt;Node35</title>
<path fill="none" stroke="#63b8ff" d="M1710.7,-433.2C1721.98,-423.7 1735.05,-412.69 1745.18,-404.16"/>
<polygon fill="#63b8ff" stroke="#63b8ff" points="1708.26,-430.68 1702.87,-439.8 1712.77,-436.03 1708.26,-430.68"/>
</g>
<!-- Node36&#45;&gt;Node7 -->
<g id="edge69" class="edge">
<title>Node36&#45;&gt;Node7</title>
<path fill="none" stroke="#63b8ff" d="M433.98,-439.07C370.71,-387.71 176.79,-215.71 276,-110 297.72,-86.86 748.39,-71.89 914.89,-67.14"/>
<polygon fill="#63b8ff" stroke="#63b8ff" points="432.01,-441.97 442,-445.49 436.38,-436.51 432.01,-441.97"/>
</g>
<!-- Node37&#45;&gt;Node6 -->
<g id="edge71" class="edge">
<title>Node37&#45;&gt;Node6</title>
<path fill="none" stroke="#63b8ff" d="M371.41,-558.56C307.17,-542.96 217.37,-515.07 149,-470 115.9,-448.18 109.48,-437.94 89,-404 76.1,-382.62 67.6,-354.6 63.3,-338.03"/>
<polygon fill="#63b8ff" stroke="#63b8ff" points="370.96,-562.05 381.5,-560.96 372.58,-555.24 370.96,-562.05"/>
</g>
<!-- Node37&#45;&gt;Node14 -->
<g id="edge72" class="edge">
<title>Node37&#45;&gt;Node14</title>
<path fill="none" stroke="#63b8ff" d="M540.94,-560.55C608.82,-549.39 700.42,-534.34 757.05,-525.04"/>
<polygon fill="#63b8ff" stroke="#63b8ff" points="539.99,-557.16 530.69,-562.23 541.12,-564.07 539.99,-557.16"/>
</g>
<!-- Node37&#45;&gt;Node36 -->
<g id="edge73" class="edge">
<title>Node37&#45;&gt;Node36</title>
<path fill="none" stroke="#63b8ff" d="M453,-550.8C453,-524.12 453,-482.62 453,-464.71"/>
<polygon fill="#63b8ff" stroke="#63b8ff" points="449.5,-550.88 453,-560.88 456.5,-550.88 449.5,-550.88"/>
</g>
</g>
</svg>
