<?xml version="1.0" encoding="UTF-8" standalone="no"?>
<!DOCTYPE svg PUBLIC "-//W3C//DTD SVG 1.1//EN"
 "http://www.w3.org/Graphics/SVG/1.1/DTD/svg11.dtd">
<!-- Generated by graphviz version 2.43.0 (0)
 -->
<!-- Title: include/ccf/node_context.h Pages: 1 -->
<svg width="3096pt" height="544pt"
 viewBox="0.00 0.00 3096.23 544.00" xmlns="http://www.w3.org/2000/svg" xmlns:xlink="http://www.w3.org/1999/xlink">
<g id="graph0" class="graph" transform="scale(1 1) rotate(0) translate(4 540)">
<title>include/ccf/node_context.h</title>
<!-- Node1 -->
<g id="node1" class="node">
<title>Node1</title>
<g id="a_node1"><a xlink:title=" ">
<polygon fill="#999999" stroke="#666666" points="2360.5,-536 2213.5,-536 2213.5,-517 2360.5,-517 2360.5,-536"/>
<text text-anchor="middle" x="2287" y="-524" font-family="Helvetica,sans-Serif" font-size="10.00">include/ccf/node_context.h</text>
</a>
</g>
</g>
<!-- Node2 -->
<g id="node2" class="node">
<title>Node2</title>
<g id="a_node2"><a xlink:href="app__interface_8h.html" target="_top" xlink:title=" ">
<polygon fill="white" stroke="#666666" points="2167,-332.5 2019,-332.5 2019,-313.5 2167,-313.5 2167,-332.5"/>
<text text-anchor="middle" x="2093" y="-320.5" font-family="Helvetica,sans-Serif" font-size="10.00">include/ccf/app_interface.h</text>
</a>
</g>
</g>
<!-- Node1&#45;&gt;Node2 -->
<g id="edge1" class="edge">
<title>Node1&#45;&gt;Node2</title>
<path fill="none" stroke="#63b8ff" d="M2271.55,-509.45C2232.63,-469.03 2131.54,-364.03 2101.52,-332.85"/>
<polygon fill="#63b8ff" stroke="#63b8ff" points="2269.21,-512.07 2278.66,-516.84 2274.25,-507.21 2269.21,-512.07"/>
</g>
<!-- Node5 -->
<g id="node5" class="node">
<title>Node5</title>
<g id="a_node5"><a xlink:href="nobuiltins_8cpp.html" target="_top" xlink:title=" ">
<polygon fill="white" stroke="#666666" points="2673.5,-272 2538.5,-272 2538.5,-242 2673.5,-242 2673.5,-272"/>
<text text-anchor="start" x="2546.5" y="-260" font-family="Helvetica,sans-Serif" font-size="10.00">samples/apps/nobuiltins</text>
<text text-anchor="middle" x="2606" y="-249" font-family="Helvetica,sans-Serif" font-size="10.00">/nobuiltins.cpp</text>
</a>
</g>
</g>
<!-- Node1&#45;&gt;Node5 -->
<g id="edge70" class="edge">
<title>Node1&#45;&gt;Node5</title>
<path fill="none" stroke="#63b8ff" d="M2296.56,-508.04C2313.81,-477.75 2352.71,-414.81 2399,-374 2452.15,-327.15 2527.33,-290.89 2570.93,-272.14"/>
<polygon fill="#63b8ff" stroke="#63b8ff" points="2293.39,-506.55 2291.56,-516.98 2299.49,-509.96 2293.39,-506.55"/>
</g>
<!-- Node14 -->
<g id="node14" class="node">
<title>Node14</title>
<g id="a_node14"><a xlink:href="src_2enclave_2enclave_8h.html" target="_top" xlink:title=" ">
<polygon fill="white" stroke="#666666" points="1033,-74 911,-74 911,-55 1033,-55 1033,-74"/>
<text text-anchor="middle" x="972" y="-62" font-family="Helvetica,sans-Serif" font-size="10.00">src/enclave/enclave.h</text>
</a>
</g>
</g>
<!-- Node1&#45;&gt;Node14 -->
<g id="edge71" class="edge">
<title>Node1&#45;&gt;Node14</title>
<path fill="none" stroke="#63b8ff" d="M2370.6,-523.74C2534.45,-518.01 2882,-493.64 2882,-390 2882,-390 2882,-390 2882,-190 2882,-36.06 2697.63,-130.06 2545,-110 2244.84,-70.55 1285.47,-66.05 1033.23,-65.56"/>
<polygon fill="#63b8ff" stroke="#63b8ff" points="2370.43,-520.24 2360.56,-524.07 2370.67,-527.24 2370.43,-520.24"/>
</g>
<!-- Node18 -->
<g id="node18" class="node">
<title>Node18</title>
<g id="a_node18"><a xlink:href="user__frontend_8h.html" target="_top" xlink:title=" ">
<polygon fill="white" stroke="#666666" points="1505.5,-266.5 1350.5,-266.5 1350.5,-247.5 1505.5,-247.5 1505.5,-266.5"/>
<text text-anchor="middle" x="1428" y="-254.5" font-family="Helvetica,sans-Serif" font-size="10.00">src/node/rpc/user_frontend.h</text>
</a>
</g>
</g>
<!-- Node1&#45;&gt;Node18 -->
<g id="edge79" class="edge">
<title>Node1&#45;&gt;Node18</title>
<path fill="none" stroke="#63b8ff" d="M2249.62,-513.86C2104.69,-468.73 1581.63,-305.84 1455.5,-266.57"/>
<polygon fill="#63b8ff" stroke="#63b8ff" points="2248.8,-517.27 2259.39,-516.9 2250.89,-510.59 2248.8,-517.27"/>
</g>
<!-- Node19 -->
<g id="node19" class="node">
<title>Node19</title>
<g id="a_node19"><a xlink:href="base__endpoint__registry_8h.html" target="_top" xlink:title=" ">
<polygon fill="white" stroke="#666666" points="1485.5,-475.5 1342.5,-475.5 1342.5,-445.5 1485.5,-445.5 1485.5,-475.5"/>
<text text-anchor="start" x="1350.5" y="-463.5" font-family="Helvetica,sans-Serif" font-size="10.00">include/ccf/base_endpoint</text>
<text text-anchor="middle" x="1414" y="-452.5" font-family="Helvetica,sans-Serif" font-size="10.00">_registry.h</text>
</a>
</g>
</g>
<!-- Node1&#45;&gt;Node19 -->
<g id="edge22" class="edge">
<title>Node1&#45;&gt;Node19</title>
<path fill="none" stroke="#63b8ff" d="M2203.25,-525.33C2058.95,-524.02 1754.42,-516.78 1500,-481 1490.15,-479.61 1479.75,-477.67 1469.73,-475.55"/>
<polygon fill="#63b8ff" stroke="#63b8ff" points="2203.33,-528.83 2213.36,-525.41 2203.39,-521.83 2203.33,-528.83"/>
</g>
<!-- Node21 -->
<g id="node21" class="node">
<title>Node21</title>
<g id="a_node21"><a xlink:href="common__endpoint__registry_8cpp.html" target="_top" xlink:title=" ">
<polygon fill="white" stroke="#666666" points="2351,-338 2223,-338 2223,-308 2351,-308 2351,-338"/>
<text text-anchor="start" x="2231" y="-326" font-family="Helvetica,sans-Serif" font-size="10.00">src/endpoints/common</text>
<text text-anchor="middle" x="2287" y="-315" font-family="Helvetica,sans-Serif" font-size="10.00">_endpoint_registry.cpp</text>
</a>
</g>
</g>
<!-- Node1&#45;&gt;Node21 -->
<g id="edge72" class="edge">
<title>Node1&#45;&gt;Node21</title>
<path fill="none" stroke="#63b8ff" d="M2287,-506.62C2287,-466.55 2287,-373.76 2287,-338.21"/>
<polygon fill="#63b8ff" stroke="#63b8ff" points="2283.5,-506.84 2287,-516.84 2290.5,-506.84 2283.5,-506.84"/>
</g>
<!-- Node36 -->
<g id="node36" class="node">
<title>Node36</title>
<g id="a_node36"><a xlink:href="historical__queries__adapter_8h.html" target="_top" xlink:title=" ">
<polygon fill="white" stroke="#666666" points="2524.5,-404 2407.5,-404 2407.5,-374 2524.5,-374 2524.5,-404"/>
<text text-anchor="start" x="2415.5" y="-392" font-family="Helvetica,sans-Serif" font-size="10.00">include/ccf/historical</text>
<text text-anchor="middle" x="2466" y="-381" font-family="Helvetica,sans-Serif" font-size="10.00">_queries_adapter.h</text>
</a>
</g>
</g>
<!-- Node1&#45;&gt;Node36 -->
<g id="edge58" class="edge">
<title>Node1&#45;&gt;Node36</title>
<path fill="none" stroke="#63b8ff" d="M2327.89,-513.69C2348.69,-506.4 2373.6,-495.63 2393,-481 2421.79,-459.29 2445.83,-423.78 2457.82,-404.15"/>
<polygon fill="#63b8ff" stroke="#63b8ff" points="2326.72,-510.39 2318.35,-516.89 2328.94,-517.02 2326.72,-510.39"/>
</g>
<!-- Node40 -->
<g id="node40" class="node">
<title>Node40</title>
<g id="a_node40"><a xlink:href="seqnos__by__key__bucketed_8h.html" target="_top" xlink:title=" ">
<polygon fill="white" stroke="#666666" points="3053.5,-481 2930.5,-481 2930.5,-440 3053.5,-440 3053.5,-481"/>
<text text-anchor="start" x="2938.5" y="-469" font-family="Helvetica,sans-Serif" font-size="10.00">include/ccf/indexing</text>
<text text-anchor="start" x="2938.5" y="-458" font-family="Helvetica,sans-Serif" font-size="10.00">/strategies/seqnos_by</text>
<text text-anchor="middle" x="2992" y="-447" font-family="Helvetica,sans-Serif" font-size="10.00">_key_bucketed.h</text>
</a>
</g>
</g>
<!-- Node1&#45;&gt;Node40 -->
<g id="edge67" class="edge">
<title>Node1&#45;&gt;Node40</title>
<path fill="none" stroke="#63b8ff" d="M2370.94,-522.75C2488.71,-518.13 2709.51,-506.65 2896,-481 2907.2,-479.46 2919.07,-477.4 2930.49,-475.2"/>
<polygon fill="#63b8ff" stroke="#63b8ff" points="2370.76,-519.26 2360.91,-523.14 2371.03,-526.25 2370.76,-519.26"/>
</g>
<!-- Node42 -->
<g id="node42" class="node">
<title>Node42</title>
<g id="a_node42"><a xlink:href="frontend_8h.html" target="_top" xlink:title=" ">
<polygon fill="white" stroke="#666666" points="1143.5,-398.5 1014.5,-398.5 1014.5,-379.5 1143.5,-379.5 1143.5,-398.5"/>
<text text-anchor="middle" x="1079" y="-386.5" font-family="Helvetica,sans-Serif" font-size="10.00">src/node/rpc/frontend.h</text>
</a>
</g>
</g>
<!-- Node1&#45;&gt;Node42 -->
<g id="edge73" class="edge">
<title>Node1&#45;&gt;Node42</title>
<path fill="none" stroke="#63b8ff" d="M2203.13,-524.77C2002.31,-522.52 1498.27,-513.7 1333,-481 1241.1,-462.82 1137.76,-417.5 1096.95,-398.55"/>
<polygon fill="#63b8ff" stroke="#63b8ff" points="2203.29,-528.28 2213.33,-524.89 2203.37,-521.28 2203.29,-528.28"/>
</g>
<!-- Node3 -->
<g id="node3" class="node">
<title>Node3</title>
<g id="a_node3"><a xlink:href="basic_8cpp.html" target="_top" xlink:title=" ">
<polygon fill="white" stroke="#666666" points="2149.5,-272 2036.5,-272 2036.5,-242 2149.5,-242 2149.5,-272"/>
<text text-anchor="start" x="2044.5" y="-260" font-family="Helvetica,sans-Serif" font-size="10.00">samples/apps/basic</text>
<text text-anchor="middle" x="2093" y="-249" font-family="Helvetica,sans-Serif" font-size="10.00">/basic.cpp</text>
</a>
</g>
</g>
<!-- Node2&#45;&gt;Node3 -->
<g id="edge2" class="edge">
<title>Node2&#45;&gt;Node3</title>
<path fill="none" stroke="#63b8ff" d="M2093,-303.35C2093,-293.47 2093,-281.51 2093,-272.36"/>
<polygon fill="#63b8ff" stroke="#63b8ff" points="2089.5,-303.37 2093,-313.37 2096.5,-303.37 2089.5,-303.37"/>
</g>
<!-- Node4 -->
<g id="node4" class="node">
<title>Node4</title>
<g id="a_node4"><a xlink:href="logging_8cpp.html" target="_top" xlink:title=" ">
<polygon fill="white" stroke="#666666" points="2853.5,-272 2730.5,-272 2730.5,-242 2853.5,-242 2853.5,-272"/>
<text text-anchor="start" x="2738.5" y="-260" font-family="Helvetica,sans-Serif" font-size="10.00">samples/apps/logging</text>
<text text-anchor="middle" x="2792" y="-249" font-family="Helvetica,sans-Serif" font-size="10.00">/logging.cpp</text>
</a>
</g>
</g>
<!-- Node2&#45;&gt;Node4 -->
<g id="edge3" class="edge">
<title>Node2&#45;&gt;Node4</title>
<path fill="none" stroke="#63b8ff" d="M2172.64,-312.34C2186.42,-310.8 2200.62,-309.29 2214,-308 2422.1,-287.98 2475.03,-293.32 2683,-272 2698.37,-270.42 2714.93,-268.44 2730.38,-266.47"/>
<polygon fill="#63b8ff" stroke="#63b8ff" points="2172.24,-308.87 2162.69,-313.47 2173.03,-315.82 2172.24,-308.87"/>
</g>
<!-- Node2&#45;&gt;Node5 -->
<g id="edge4" class="edge">
<title>Node2&#45;&gt;Node5</title>
<path fill="none" stroke="#63b8ff" d="M2153.82,-311.89C2162.92,-310.51 2172.2,-309.16 2181,-308 2332.97,-287.95 2372.15,-292.91 2524,-272 2528.72,-271.35 2533.59,-270.63 2538.48,-269.88"/>
<polygon fill="#63b8ff" stroke="#63b8ff" points="2153,-308.48 2143.66,-313.47 2154.07,-315.39 2153,-308.48"/>
</g>
<!-- Node6 -->
<g id="node6" class="node">
<title>Node6</title>
<g id="a_node6"><a xlink:href="executor__auth__policy_8h.html" target="_top" xlink:title=" ">
<polygon fill="white" stroke="#666666" points="2316,-272 2168,-272 2168,-242 2316,-242 2316,-272"/>
<text text-anchor="start" x="2176" y="-260" font-family="Helvetica,sans-Serif" font-size="10.00">src/apps/external_executor</text>
<text text-anchor="middle" x="2242" y="-249" font-family="Helvetica,sans-Serif" font-size="10.00">/executor_auth_policy.h</text>
</a>
</g>
</g>
<!-- Node2&#45;&gt;Node6 -->
<g id="edge5" class="edge">
<title>Node2&#45;&gt;Node6</title>
<path fill="none" stroke="#63b8ff" d="M2122.42,-309.36C2147.4,-298.63 2183.22,-283.25 2209.14,-272.12"/>
<polygon fill="#63b8ff" stroke="#63b8ff" points="2120.9,-306.21 2113.09,-313.37 2123.66,-312.64 2120.9,-306.21"/>
</g>
<!-- Node7 -->
<g id="node7" class="node">
<title>Node7</title>
<g id="a_node7"><a xlink:href="external__executor_8cpp.html" target="_top" xlink:title=" ">
<polygon fill="white" stroke="#666666" points="2536,-140 2388,-140 2388,-110 2536,-110 2536,-140"/>
<text text-anchor="start" x="2396" y="-128" font-family="Helvetica,sans-Serif" font-size="10.00">src/apps/external_executor</text>
<text text-anchor="middle" x="2462" y="-117" font-family="Helvetica,sans-Serif" font-size="10.00">/external_executor.cpp</text>
</a>
</g>
</g>
<!-- Node2&#45;&gt;Node7 -->
<g id="edge10" class="edge">
<title>Node2&#45;&gt;Node7</title>
<path fill="none" stroke="#63b8ff" d="M2154.53,-311.94C2163.4,-310.57 2172.43,-309.21 2181,-308 2245.08,-298.91 2420.22,-313.36 2470,-272 2503.59,-244.09 2502.35,-218.18 2491,-176 2487.51,-163.01 2479.72,-149.92 2473.1,-140.4"/>
<polygon fill="#63b8ff" stroke="#63b8ff" points="2153.95,-308.49 2144.61,-313.49 2155.03,-315.4 2153.95,-308.49"/>
</g>
<!-- Node10 -->
<g id="node10" class="node">
<title>Node10</title>
<g id="a_node10"><a xlink:href="js__generic_8cpp.html" target="_top" xlink:title=" ">
<polygon fill="white" stroke="#666666" points="2482,-206 2372,-206 2372,-176 2482,-176 2482,-206"/>
<text text-anchor="start" x="2380" y="-194" font-family="Helvetica,sans-Serif" font-size="10.00">src/apps/js_generic</text>
<text text-anchor="middle" x="2427" y="-183" font-family="Helvetica,sans-Serif" font-size="10.00">/js_generic.cpp</text>
</a>
</g>
</g>
<!-- Node2&#45;&gt;Node10 -->
<g id="edge11" class="edge">
<title>Node2&#45;&gt;Node10</title>
<path fill="none" stroke="#63b8ff" d="M2155.17,-311.9C2163.84,-310.55 2172.64,-309.22 2181,-308 2241.33,-299.21 2412.81,-317.85 2453,-272 2469.56,-253.11 2452.13,-223.49 2438.91,-206.09"/>
<polygon fill="#63b8ff" stroke="#63b8ff" points="2154.42,-308.48 2145.08,-313.48 2155.5,-315.39 2154.42,-308.48"/>
</g>
<!-- Node11 -->
<g id="node11" class="node">
<title>Node11</title>
<g id="a_node11"><a xlink:href="js__generic__base_8cpp.html" target="_top" xlink:title=" ">
<polygon fill="white" stroke="#666666" points="1816,-272 1698,-272 1698,-242 1816,-242 1816,-272"/>
<text text-anchor="start" x="1706" y="-260" font-family="Helvetica,sans-Serif" font-size="10.00">src/apps/js_generic</text>
<text text-anchor="middle" x="1757" y="-249" font-family="Helvetica,sans-Serif" font-size="10.00">/js_generic_base.cpp</text>
</a>
</g>
</g>
<!-- Node2&#45;&gt;Node11 -->
<g id="edge12" class="edge">
<title>Node2&#45;&gt;Node11</title>
<path fill="none" stroke="#63b8ff" d="M2035.38,-311.57C1981.07,-301.66 1897.43,-286.21 1825,-272 1822.16,-271.44 1819.26,-270.87 1816.33,-270.28"/>
<polygon fill="#63b8ff" stroke="#63b8ff" points="2035.04,-315.07 2045.51,-313.41 2036.3,-308.18 2035.04,-315.07"/>
</g>
<!-- Node12 -->
<g id="node12" class="node">
<title>Node12</title>
<g id="a_node12"><a xlink:href="js__generic__base_8h.html" target="_top" xlink:title=" ">
<polygon fill="white" stroke="#666666" points="2444,-272 2334,-272 2334,-242 2444,-242 2444,-272"/>
<text text-anchor="start" x="2342" y="-260" font-family="Helvetica,sans-Serif" font-size="10.00">src/apps/js_generic</text>
<text text-anchor="middle" x="2389" y="-249" font-family="Helvetica,sans-Serif" font-size="10.00">/js_generic_base.h</text>
</a>
</g>
</g>
<!-- Node2&#45;&gt;Node12 -->
<g id="edge13" class="edge">
<title>Node2&#45;&gt;Node12</title>
<path fill="none" stroke="#63b8ff" d="M2142.75,-311.33C2189.73,-301.23 2262.17,-285.64 2325,-272 2327.89,-271.37 2330.85,-270.73 2333.84,-270.08"/>
<polygon fill="#63b8ff" stroke="#63b8ff" points="2141.87,-307.93 2132.83,-313.46 2143.34,-314.78 2141.87,-307.93"/>
</g>
<!-- Node13 -->
<g id="node13" class="node">
<title>Node13</title>
<g id="a_node13"><a xlink:href="tpcc_8cpp.html" target="_top" xlink:title=" ">
<polygon fill="white" stroke="#666666" points="1979.5,-266.5 1834.5,-266.5 1834.5,-247.5 1979.5,-247.5 1979.5,-266.5"/>
<text text-anchor="middle" x="1907" y="-254.5" font-family="Helvetica,sans-Serif" font-size="10.00">src/apps/tpcc/app/tpcc.cpp</text>
</a>
</g>
</g>
<!-- Node2&#45;&gt;Node13 -->
<g id="edge15" class="edge">
<title>Node2&#45;&gt;Node13</title>
<path fill="none" stroke="#63b8ff" d="M2058.13,-310C2021.4,-297.36 1964.47,-277.78 1931.98,-266.6"/>
<polygon fill="#63b8ff" stroke="#63b8ff" points="2057.32,-313.42 2067.92,-313.37 2059.6,-306.81 2057.32,-313.42"/>
</g>
<!-- Node2&#45;&gt;Node14 -->
<g id="edge16" class="edge">
<title>Node2&#45;&gt;Node14</title>
<path fill="none" stroke="#63b8ff" d="M2073.01,-306.91C2059.9,-297.01 2042.41,-283.76 2027,-272 2009.62,-258.73 2007.85,-251.17 1988,-242 1651.95,-86.83 1196.02,-67.18 1033.03,-65.36"/>
<polygon fill="#63b8ff" stroke="#63b8ff" points="2071.21,-309.94 2081.3,-313.17 2075.43,-304.35 2071.21,-309.94"/>
</g>
<!-- Node16 -->
<g id="node16" class="node">
<title>Node16</title>
<g id="a_node16"><a xlink:href="no__plugins_8cpp.html" target="_top" xlink:title=" ">
<polygon fill="white" stroke="#666666" points="1680,-266.5 1562,-266.5 1562,-247.5 1680,-247.5 1680,-266.5"/>
<text text-anchor="middle" x="1621" y="-254.5" font-family="Helvetica,sans-Serif" font-size="10.00">src/js/no_plugins.cpp</text>
</a>
</g>
</g>
<!-- Node2&#45;&gt;Node16 -->
<g id="edge18" class="edge">
<title>Node2&#45;&gt;Node16</title>
<path fill="none" stroke="#63b8ff" d="M2008.65,-313.55C1926.72,-304.87 1798.96,-290.09 1689,-272 1679.49,-270.43 1669.28,-268.48 1659.74,-266.53"/>
<polygon fill="#63b8ff" stroke="#63b8ff" points="2008.34,-317.03 2018.65,-314.6 2009.08,-310.07 2008.34,-317.03"/>
</g>
<!-- Node2&#45;&gt;Node18 -->
<g id="edge20" class="edge">
<title>Node2&#45;&gt;Node18</title>
<path fill="none" stroke="#63b8ff" d="M2008.68,-314.7C1902.38,-305.38 1714.06,-288.47 1553,-272 1536.49,-270.31 1518.77,-268.39 1502,-266.53"/>
<polygon fill="#63b8ff" stroke="#63b8ff" points="2008.44,-318.19 2018.71,-315.58 2009.05,-311.22 2008.44,-318.19"/>
</g>
<!-- Node6&#45;&gt;Node7 -->
<g id="edge6" class="edge">
<title>Node6&#45;&gt;Node7</title>
<path fill="none" stroke="#63b8ff" d="M2276.28,-236.66C2291.48,-227.75 2309.42,-216.78 2325,-206 2342.7,-193.76 2344.86,-187.58 2363,-176 2384.43,-162.33 2410.08,-149.46 2429.9,-140.2"/>
<polygon fill="#63b8ff" stroke="#63b8ff" points="2274.11,-233.88 2267.21,-241.92 2277.62,-239.93 2274.11,-233.88"/>
</g>
<!-- Node8 -->
<g id="node8" class="node">
<title>Node8</title>
<g id="a_node8"><a xlink:href="external__executor__indexing_8h.html" target="_top" xlink:title=" ">
<polygon fill="white" stroke="#666666" points="2316,-206 2152,-206 2152,-176 2316,-176 2316,-206"/>
<text text-anchor="start" x="2160" y="-194" font-family="Helvetica,sans-Serif" font-size="10.00">src/apps/external_executor</text>
<text text-anchor="middle" x="2234" y="-183" font-family="Helvetica,sans-Serif" font-size="10.00">/external_executor_indexing.h</text>
</a>
</g>
</g>
<!-- Node6&#45;&gt;Node8 -->
<g id="edge7" class="edge">
<title>Node6&#45;&gt;Node8</title>
<path fill="none" stroke="#63b8ff" d="M2238.98,-231.83C2237.9,-223.17 2236.71,-213.7 2235.77,-206.16"/>
<polygon fill="#63b8ff" stroke="#63b8ff" points="2235.51,-232.31 2240.22,-241.8 2242.46,-231.44 2235.51,-232.31"/>
</g>
<!-- Node8&#45;&gt;Node7 -->
<g id="edge8" class="edge">
<title>Node8&#45;&gt;Node7</title>
<path fill="none" stroke="#63b8ff" d="M2294.13,-173.12C2330.89,-162.8 2377.36,-149.76 2412.08,-140.01"/>
<polygon fill="#63b8ff" stroke="#63b8ff" points="2292.72,-169.88 2284.04,-175.95 2294.61,-176.62 2292.72,-169.88"/>
</g>
<!-- Node9 -->
<g id="node9" class="node">
<title>Node9</title>
<g id="a_node9"><a xlink:href="external__executor__indexing_8cpp.html" target="_top" xlink:title=" ">
<polygon fill="white" stroke="#666666" points="2321.5,-140 2146.5,-140 2146.5,-110 2321.5,-110 2321.5,-140"/>
<text text-anchor="start" x="2154.5" y="-128" font-family="Helvetica,sans-Serif" font-size="10.00">src/apps/external_executor</text>
<text text-anchor="middle" x="2234" y="-117" font-family="Helvetica,sans-Serif" font-size="10.00">/external_executor_indexing.cpp</text>
</a>
</g>
</g>
<!-- Node8&#45;&gt;Node9 -->
<g id="edge9" class="edge">
<title>Node8&#45;&gt;Node9</title>
<path fill="none" stroke="#63b8ff" d="M2234,-165.54C2234,-156.96 2234,-147.61 2234,-140.16"/>
<polygon fill="#63b8ff" stroke="#63b8ff" points="2230.5,-165.8 2234,-175.8 2237.5,-165.8 2230.5,-165.8"/>
</g>
<!-- Node12&#45;&gt;Node10 -->
<g id="edge14" class="edge">
<title>Node12&#45;&gt;Node10</title>
<path fill="none" stroke="#63b8ff" d="M2402.68,-232.96C2408,-224 2413.92,-214.03 2418.59,-206.16"/>
<polygon fill="#63b8ff" stroke="#63b8ff" points="2399.53,-231.41 2397.43,-241.8 2405.55,-234.98 2399.53,-231.41"/>
</g>
<!-- Node15 -->
<g id="node15" class="node">
<title>Node15</title>
<g id="a_node15"><a xlink:href="enclave_2main_8cpp.html" target="_top" xlink:title=" ">
<polygon fill="white" stroke="#666666" points="1032,-19 912,-19 912,0 1032,0 1032,-19"/>
<text text-anchor="middle" x="972" y="-7" font-family="Helvetica,sans-Serif" font-size="10.00">src/enclave/main.cpp</text>
</a>
</g>
</g>
<!-- Node14&#45;&gt;Node15 -->
<g id="edge17" class="edge">
<title>Node14&#45;&gt;Node15</title>
<path fill="none" stroke="#63b8ff" d="M972,-44.66C972,-35.93 972,-25.99 972,-19.09"/>
<polygon fill="#63b8ff" stroke="#63b8ff" points="968.5,-44.75 972,-54.75 975.5,-44.75 968.5,-44.75"/>
</g>
<!-- Node17 -->
<g id="node17" class="node">
<title>Node17</title>
<g id="a_node17"><a xlink:href="wrap_8cpp.html" target="_top" xlink:title=" ">
<polygon fill="white" stroke="#666666" points="571.5,-200.5 482.5,-200.5 482.5,-181.5 571.5,-181.5 571.5,-200.5"/>
<text text-anchor="middle" x="527" y="-188.5" font-family="Helvetica,sans-Serif" font-size="10.00">src/js/wrap.cpp</text>
</a>
</g>
</g>
<!-- Node16&#45;&gt;Node17 -->
<g id="edge19" class="edge">
<title>Node16&#45;&gt;Node17</title>
<path fill="none" stroke="#63b8ff" d="M1552.41,-246.2C1539.66,-244.62 1526.44,-243.13 1514,-242 1490.22,-239.85 761.38,-203.63 571.74,-194.22"/>
<polygon fill="#63b8ff" stroke="#63b8ff" points="1552.14,-249.7 1562.5,-247.49 1553.03,-242.75 1552.14,-249.7"/>
</g>
<!-- Node18&#45;&gt;Node14 -->
<g id="edge21" class="edge">
<title>Node18&#45;&gt;Node14</title>
<path fill="none" stroke="#63b8ff" d="M1422.18,-237.33C1411.1,-205.28 1383.76,-140.28 1336,-110 1287,-78.93 1123.29,-69.55 1033.02,-66.72"/>
<polygon fill="#63b8ff" stroke="#63b8ff" points="1418.97,-238.79 1425.42,-247.19 1425.62,-236.6 1418.97,-238.79"/>
</g>
<!-- Node19&#45;&gt;Node5 -->
<g id="edge40" class="edge">
<title>Node19&#45;&gt;Node5</title>
<path fill="none" stroke="#63b8ff" d="M1495.69,-459.78C1639.4,-457.43 1944.16,-439.65 2176,-338 2195.71,-329.36 2194.16,-316.33 2214,-308 2214.93,-307.61 2426.46,-280.76 2538.36,-266.57"/>
<polygon fill="#63b8ff" stroke="#63b8ff" points="1495.58,-456.28 1485.63,-459.92 1495.68,-463.28 1495.58,-456.28"/>
</g>
<!-- Node20 -->
<g id="node20" class="node">
<title>Node20</title>
<g id="a_node20"><a xlink:href="common__endpoint__registry_8h.html" target="_top" xlink:title=" ">
<polygon fill="white" stroke="#666666" points="1478.5,-404 1363.5,-404 1363.5,-374 1478.5,-374 1478.5,-404"/>
<text text-anchor="start" x="1371.5" y="-392" font-family="Helvetica,sans-Serif" font-size="10.00">include/ccf/common</text>
<text text-anchor="middle" x="1421" y="-381" font-family="Helvetica,sans-Serif" font-size="10.00">_endpoint_registry.h</text>
</a>
</g>
</g>
<!-- Node19&#45;&gt;Node20 -->
<g id="edge23" class="edge">
<title>Node19&#45;&gt;Node20</title>
<path fill="none" stroke="#63b8ff" d="M1416.44,-435.25C1417.49,-424.81 1418.68,-412.99 1419.59,-404.04"/>
<polygon fill="#63b8ff" stroke="#63b8ff" points="1412.94,-435.14 1415.42,-445.44 1419.9,-435.84 1412.94,-435.14"/>
</g>
<!-- Node29 -->
<g id="node29" class="node">
<title>Node29</title>
<g id="a_node29"><a xlink:href="base__endpoint__registry_8cpp.html" target="_top" xlink:title=" ">
<polygon fill="white" stroke="#666666" points="1345,-404 1219,-404 1219,-374 1345,-374 1345,-404"/>
<text text-anchor="start" x="1227" y="-392" font-family="Helvetica,sans-Serif" font-size="10.00">src/endpoints/base</text>
<text text-anchor="middle" x="1282" y="-381" font-family="Helvetica,sans-Serif" font-size="10.00">_endpoint_registry.cpp</text>
</a>
</g>
</g>
<!-- Node19&#45;&gt;Node29 -->
<g id="edge41" class="edge">
<title>Node19&#45;&gt;Node29</title>
<path fill="none" stroke="#63b8ff" d="M1378.27,-440.69C1356.34,-429.14 1328.7,-414.59 1308.67,-404.04"/>
<polygon fill="#63b8ff" stroke="#63b8ff" points="1376.81,-443.87 1387.29,-445.44 1380.07,-437.68 1376.81,-443.87"/>
</g>
<!-- Node30 -->
<g id="node30" class="node">
<title>Node30</title>
<g id="a_node30"><a xlink:href="wrap_8h.html" target="_top" xlink:title=" ">
<polygon fill="white" stroke="#666666" points="696,-398.5 618,-398.5 618,-379.5 696,-379.5 696,-398.5"/>
<text text-anchor="middle" x="657" y="-386.5" font-family="Helvetica,sans-Serif" font-size="10.00">src/js/wrap.h</text>
</a>
</g>
</g>
<!-- Node19&#45;&gt;Node30 -->
<g id="edge42" class="edge">
<title>Node19&#45;&gt;Node30</title>
<path fill="none" stroke="#63b8ff" d="M1332.06,-451.98C1170.07,-437.1 814.32,-404.44 696.08,-393.59"/>
<polygon fill="#63b8ff" stroke="#63b8ff" points="1332.16,-455.5 1342.44,-452.93 1332.8,-448.53 1332.16,-455.5"/>
</g>
<!-- Node20&#45;&gt;Node2 -->
<g id="edge24" class="edge">
<title>Node20&#45;&gt;Node2</title>
<path fill="none" stroke="#63b8ff" d="M1488.55,-381.57C1615.18,-369.51 1887.31,-343.59 2018.83,-331.06"/>
<polygon fill="#63b8ff" stroke="#63b8ff" points="1488.21,-378.08 1478.58,-382.52 1488.87,-385.05 1488.21,-378.08"/>
</g>
<!-- Node20&#45;&gt;Node8 -->
<g id="edge25" class="edge">
<title>Node20&#45;&gt;Node8</title>
<path fill="none" stroke="#63b8ff" d="M1456.23,-368.61C1469.37,-360.29 1483.8,-349.78 1495,-338 1529.34,-301.87 1510.51,-268.07 1553,-242 1602.92,-211.37 1981.6,-198.23 2151.71,-193.84"/>
<polygon fill="#63b8ff" stroke="#63b8ff" points="1454.11,-365.8 1447.39,-374 1457.75,-371.78 1454.11,-365.8"/>
</g>
<!-- Node20&#45;&gt;Node21 -->
<g id="edge26" class="edge">
<title>Node20&#45;&gt;Node21</title>
<path fill="none" stroke="#63b8ff" d="M1488.87,-384.86C1621.23,-378.43 1923.03,-362.31 2176,-338 2191.18,-336.54 2207.48,-334.66 2222.8,-332.75"/>
<polygon fill="#63b8ff" stroke="#63b8ff" points="1488.69,-381.36 1478.87,-385.34 1489.03,-388.35 1488.69,-381.36"/>
</g>
<!-- Node22 -->
<g id="node22" class="node">
<title>Node22</title>
<g id="a_node22"><a xlink:href="acme__challenge__frontend_8h.html" target="_top" xlink:title=" ">
<polygon fill="white" stroke="#666666" points="1240,-338 1100,-338 1100,-308 1240,-308 1240,-338"/>
<text text-anchor="start" x="1108" y="-326" font-family="Helvetica,sans-Serif" font-size="10.00">src/node/acme_challenge</text>
<text text-anchor="middle" x="1170" y="-315" font-family="Helvetica,sans-Serif" font-size="10.00">_frontend.h</text>
</a>
</g>
</g>
<!-- Node20&#45;&gt;Node22 -->
<g id="edge27" class="edge">
<title>Node20&#45;&gt;Node22</title>
<path fill="none" stroke="#63b8ff" d="M1356.1,-371.45C1315.43,-361.08 1263.59,-347.86 1224.95,-338.01"/>
<polygon fill="#63b8ff" stroke="#63b8ff" points="1355.36,-374.88 1365.92,-373.95 1357.09,-368.09 1355.36,-374.88"/>
</g>
<!-- Node26 -->
<g id="node26" class="node">
<title>Node26</title>
<g id="a_node26"><a xlink:href="member__frontend_8h.html" target="_top" xlink:title=" ">
<polygon fill="white" stroke="#666666" points="1082,-338 962,-338 962,-308 1082,-308 1082,-338"/>
<text text-anchor="start" x="970" y="-326" font-family="Helvetica,sans-Serif" font-size="10.00">src/node/rpc/member</text>
<text text-anchor="middle" x="1022" y="-315" font-family="Helvetica,sans-Serif" font-size="10.00">_frontend.h</text>
</a>
</g>
</g>
<!-- Node20&#45;&gt;Node26 -->
<g id="edge34" class="edge">
<title>Node20&#45;&gt;Node26</title>
<path fill="none" stroke="#63b8ff" d="M1353.22,-373.95C1236.01,-354.11 1204.14,-357.2 1091,-338 1088.11,-337.51 1085.15,-336.99 1082.17,-336.44"/>
<polygon fill="#63b8ff" stroke="#63b8ff" points="1352.86,-377.44 1363.31,-375.68 1354.04,-370.54 1352.86,-377.44"/>
</g>
<!-- Node27 -->
<g id="node27" class="node">
<title>Node27</title>
<g id="a_node27"><a xlink:href="node__frontend_8h.html" target="_top" xlink:title=" ">
<polygon fill="white" stroke="#666666" points="906,-332.5 748,-332.5 748,-313.5 906,-313.5 906,-332.5"/>
<text text-anchor="middle" x="827" y="-320.5" font-family="Helvetica,sans-Serif" font-size="10.00">src/node/rpc/node_frontend.h</text>
</a>
</g>
</g>
<!-- Node20&#45;&gt;Node27 -->
<g id="edge36" class="edge">
<title>Node20&#45;&gt;Node27</title>
<path fill="none" stroke="#63b8ff" d="M1353.37,-374.03C1175.31,-347.94 1127.83,-355.56 953,-338 936.25,-336.32 918.25,-334.39 901.26,-332.52"/>
<polygon fill="#63b8ff" stroke="#63b8ff" points="1352.93,-377.5 1363.33,-375.51 1353.95,-370.58 1352.93,-377.5"/>
</g>
<!-- Node22&#45;&gt;Node14 -->
<g id="edge28" class="edge">
<title>Node22&#45;&gt;Node14</title>
<path fill="none" stroke="#63b8ff" d="M1246.67,-304.92C1285.11,-292.33 1320.03,-272.09 1302,-242 1239.22,-137.22 1090.68,-91.15 1016.19,-74.07"/>
<polygon fill="#63b8ff" stroke="#63b8ff" points="1245.37,-301.65 1236.85,-307.95 1247.44,-308.34 1245.37,-301.65"/>
</g>
<!-- Node23 -->
<g id="node23" class="node">
<title>Node23</title>
<g id="a_node23"><a xlink:href="ccf__acme__client_8h.html" target="_top" xlink:title=" ">
<polygon fill="white" stroke="#666666" points="1148.5,-266.5 999.5,-266.5 999.5,-247.5 1148.5,-247.5 1148.5,-266.5"/>
<text text-anchor="middle" x="1074" y="-254.5" font-family="Helvetica,sans-Serif" font-size="10.00">src/node/ccf_acme_client.h</text>
</a>
</g>
</g>
<!-- Node22&#45;&gt;Node23 -->
<g id="edge29" class="edge">
<title>Node22&#45;&gt;Node23</title>
<path fill="none" stroke="#63b8ff" d="M1140.3,-302.2C1122.43,-290.29 1100.6,-275.73 1086.99,-266.66"/>
<polygon fill="#63b8ff" stroke="#63b8ff" points="1138.43,-305.16 1148.69,-307.8 1142.32,-299.34 1138.43,-305.16"/>
</g>
<!-- Node24 -->
<g id="node24" class="node">
<title>Node24</title>
<g id="a_node24"><a xlink:href="node__state_8h.html" target="_top" xlink:title=" ">
<polygon fill="white" stroke="#666666" points="944,-200.5 820,-200.5 820,-181.5 944,-181.5 944,-200.5"/>
<text text-anchor="middle" x="882" y="-188.5" font-family="Helvetica,sans-Serif" font-size="10.00">src/node/node_state.h</text>
</a>
</g>
</g>
<!-- Node23&#45;&gt;Node24 -->
<g id="edge30" class="edge">
<title>Node23&#45;&gt;Node24</title>
<path fill="none" stroke="#63b8ff" d="M1038.49,-244.16C1000.59,-231.53 941.47,-211.82 907.79,-200.6"/>
<polygon fill="#63b8ff" stroke="#63b8ff" points="1037.51,-247.53 1048.11,-247.37 1039.73,-240.89 1037.51,-247.53"/>
</g>
<!-- Node24&#45;&gt;Node14 -->
<g id="edge31" class="edge">
<title>Node24&#45;&gt;Node14</title>
<path fill="none" stroke="#63b8ff" d="M894.26,-173.04C913.73,-146.1 951.02,-94.52 965.77,-74.12"/>
<polygon fill="#63b8ff" stroke="#63b8ff" points="891.21,-171.29 888.19,-181.44 896.88,-175.39 891.21,-171.29"/>
</g>
<!-- Node25 -->
<g id="node25" class="node">
<title>Node25</title>
<g id="a_node25"><a xlink:href="gov__effects_8h.html" target="_top" xlink:title=" ">
<polygon fill="white" stroke="#666666" points="906,-134.5 762,-134.5 762,-115.5 906,-115.5 906,-134.5"/>
<text text-anchor="middle" x="834" y="-122.5" font-family="Helvetica,sans-Serif" font-size="10.00">src/node/rpc/gov_effects.h</text>
</a>
</g>
</g>
<!-- Node24&#45;&gt;Node25 -->
<g id="edge32" class="edge">
<title>Node24&#45;&gt;Node25</title>
<path fill="none" stroke="#63b8ff" d="M869.45,-173.27C860.24,-160.99 848.1,-144.8 840.68,-134.91"/>
<polygon fill="#63b8ff" stroke="#63b8ff" points="866.73,-175.47 875.53,-181.37 872.33,-171.27 866.73,-175.47"/>
</g>
<!-- Node25&#45;&gt;Node14 -->
<g id="edge33" class="edge">
<title>Node25&#45;&gt;Node14</title>
<path fill="none" stroke="#63b8ff" d="M863.29,-111.58C889.95,-100.28 928.6,-83.9 951.91,-74.02"/>
<polygon fill="#63b8ff" stroke="#63b8ff" points="861.91,-108.37 854.07,-115.49 864.64,-114.81 861.91,-108.37"/>
</g>
<!-- Node26&#45;&gt;Node14 -->
<g id="edge35" class="edge">
<title>Node26&#45;&gt;Node14</title>
<path fill="none" stroke="#63b8ff" d="M1004.27,-299.4C998.75,-291.21 993.27,-281.6 990,-272 965.07,-198.76 969.32,-102.89 971.32,-74.06"/>
<polygon fill="#63b8ff" stroke="#63b8ff" points="1001.5,-301.55 1010.16,-307.66 1007.2,-297.49 1001.5,-301.55"/>
</g>
<!-- Node27&#45;&gt;Node14 -->
<g id="edge37" class="edge">
<title>Node27&#45;&gt;Node14</title>
<path fill="none" stroke="#63b8ff" d="M804.4,-307.7C792.47,-298.9 778.73,-286.54 771,-272 736.99,-208.04 707.16,-166.09 753,-110 772.64,-85.97 853.28,-74.59 910.99,-69.44"/>
<polygon fill="#63b8ff" stroke="#63b8ff" points="802.46,-310.61 812.66,-313.46 806.46,-304.87 802.46,-310.61"/>
</g>
<!-- Node28 -->
<g id="node28" class="node">
<title>Node28</title>
<g id="a_node28"><a xlink:href="jwt__key__auto__refresh_8h.html" target="_top" xlink:title=" ">
<polygon fill="white" stroke="#666666" points="905.5,-272 780.5,-272 780.5,-242 905.5,-242 905.5,-272"/>
<text text-anchor="start" x="788.5" y="-260" font-family="Helvetica,sans-Serif" font-size="10.00">src/node/jwt_key_auto</text>
<text text-anchor="middle" x="843" y="-249" font-family="Helvetica,sans-Serif" font-size="10.00">_refresh.h</text>
</a>
</g>
</g>
<!-- Node27&#45;&gt;Node28 -->
<g id="edge38" class="edge">
<title>Node27&#45;&gt;Node28</title>
<path fill="none" stroke="#63b8ff" d="M831.66,-303.35C834.13,-293.47 837.12,-281.51 839.41,-272.36"/>
<polygon fill="#63b8ff" stroke="#63b8ff" points="828.19,-302.82 829.16,-313.37 834.98,-304.52 828.19,-302.82"/>
</g>
<!-- Node28&#45;&gt;Node24 -->
<g id="edge39" class="edge">
<title>Node28&#45;&gt;Node24</title>
<path fill="none" stroke="#63b8ff" d="M857.05,-232.95C863.83,-221.81 871.57,-209.11 876.61,-200.84"/>
<polygon fill="#63b8ff" stroke="#63b8ff" points="853.87,-231.44 851.66,-241.8 859.85,-235.08 853.87,-231.44"/>
</g>
<!-- Node30&#45;&gt;Node11 -->
<g id="edge43" class="edge">
<title>Node30&#45;&gt;Node11</title>
<path fill="none" stroke="#63b8ff" d="M706.26,-385.69C829.04,-379.63 1146.17,-362.09 1249,-338 1284.36,-329.72 1289.7,-316.54 1325,-308 1483.01,-269.79 1528.28,-296.42 1689,-272 1691.86,-271.57 1694.78,-271.09 1697.73,-270.58"/>
<polygon fill="#63b8ff" stroke="#63b8ff" points="705.85,-382.21 696.03,-386.19 706.19,-389.2 705.85,-382.21"/>
</g>
<!-- Node30&#45;&gt;Node14 -->
<g id="edge44" class="edge">
<title>Node30&#45;&gt;Node14</title>
<path fill="none" stroke="#63b8ff" d="M661.49,-369.25C667.1,-344.1 676,-297.96 676,-258 676,-258 676,-258 676,-190 676,-89.09 823.97,-68.64 910.67,-65.31"/>
<polygon fill="#63b8ff" stroke="#63b8ff" points="658.02,-368.71 659.18,-379.24 664.84,-370.28 658.02,-368.71"/>
</g>
<!-- Node30&#45;&gt;Node17 -->
<g id="edge54" class="edge">
<title>Node30&#45;&gt;Node17</title>
<path fill="none" stroke="#63b8ff" d="M649.7,-369.66C642.76,-353.04 631.54,-328.13 619,-308 592.1,-264.8 551.77,-219.03 534.88,-200.51"/>
<polygon fill="#63b8ff" stroke="#63b8ff" points="646.6,-371.32 653.62,-379.26 653.08,-368.68 646.6,-371.32"/>
</g>
<!-- Node30&#45;&gt;Node24 -->
<g id="edge55" class="edge">
<title>Node30&#45;&gt;Node24</title>
<path fill="none" stroke="#63b8ff" d="M668.91,-370.7C692.77,-336.4 746.26,-261.42 771,-242 795.94,-222.42 829.76,-208.62 853.49,-200.55"/>
<polygon fill="#63b8ff" stroke="#63b8ff" points="665.83,-369 663.01,-379.22 671.58,-372.99 665.83,-369"/>
</g>
<!-- Node30&#45;&gt;Node26 -->
<g id="edge56" class="edge">
<title>Node30&#45;&gt;Node26</title>
<path fill="none" stroke="#63b8ff" d="M706.24,-379.37C772.53,-367.74 890.36,-347.08 961.82,-334.55"/>
<polygon fill="#63b8ff" stroke="#63b8ff" points="705.31,-375.98 696.06,-381.15 706.52,-382.87 705.31,-375.98"/>
</g>
<!-- Node30&#45;&gt;Node27 -->
<g id="edge57" class="edge">
<title>Node30&#45;&gt;Node27</title>
<path fill="none" stroke="#63b8ff" d="M689.3,-375.84C722.89,-363.2 774.6,-343.73 804.17,-332.6"/>
<polygon fill="#63b8ff" stroke="#63b8ff" points="688.05,-372.57 679.93,-379.37 690.52,-379.12 688.05,-372.57"/>
</g>
<!-- Node31 -->
<g id="node31" class="node">
<title>Node31</title>
<g id="a_node31"><a xlink:href="consensus_8cpp.html" target="_top" xlink:title=" ">
<polygon fill="white" stroke="#666666" points="230,-332.5 114,-332.5 114,-313.5 230,-313.5 230,-332.5"/>
<text text-anchor="middle" x="172" y="-320.5" font-family="Helvetica,sans-Serif" font-size="10.00">src/js/consensus.cpp</text>
</a>
</g>
</g>
<!-- Node30&#45;&gt;Node31 -->
<g id="edge45" class="edge">
<title>Node30&#45;&gt;Node31</title>
<path fill="none" stroke="#63b8ff" d="M607.88,-383.52C529.57,-376.07 371.7,-359.76 239,-338 229.62,-336.46 219.56,-334.52 210.16,-332.57"/>
<polygon fill="#63b8ff" stroke="#63b8ff" points="607.66,-387.02 617.94,-384.47 608.32,-380.05 607.66,-387.02"/>
</g>
<!-- Node32 -->
<g id="node32" class="node">
<title>Node32</title>
<g id="a_node32"><a xlink:href="conv_8cpp.html" target="_top" xlink:title=" ">
<polygon fill="white" stroke="#666666" points="610,-332.5 522,-332.5 522,-313.5 610,-313.5 610,-332.5"/>
<text text-anchor="middle" x="566" y="-320.5" font-family="Helvetica,sans-Serif" font-size="10.00">src/js/conv.cpp</text>
</a>
</g>
</g>
<!-- Node30&#45;&gt;Node32 -->
<g id="edge47" class="edge">
<title>Node30&#45;&gt;Node32</title>
<path fill="none" stroke="#63b8ff" d="M636.15,-373.33C618.3,-360.78 593.2,-343.13 578.37,-332.7"/>
<polygon fill="#63b8ff" stroke="#63b8ff" points="634.53,-376.48 644.73,-379.37 638.56,-370.75 634.53,-376.48"/>
</g>
<!-- Node33 -->
<g id="node33" class="node">
<title>Node33</title>
<g id="a_node33"><a xlink:href="crypto_8cpp.html" target="_top" xlink:title=" ">
<polygon fill="white" stroke="#666666" points="96,-332.5 0,-332.5 0,-313.5 96,-313.5 96,-332.5"/>
<text text-anchor="middle" x="48" y="-320.5" font-family="Helvetica,sans-Serif" font-size="10.00">src/js/crypto.cpp</text>
</a>
</g>
</g>
<!-- Node30&#45;&gt;Node33 -->
<g id="edge49" class="edge">
<title>Node30&#45;&gt;Node33</title>
<path fill="none" stroke="#63b8ff" d="M607.85,-386.03C511.04,-381.61 289.06,-368.76 105,-338 96.56,-336.59 87.52,-334.6 79.18,-332.56"/>
<polygon fill="#63b8ff" stroke="#63b8ff" points="607.78,-389.53 617.93,-386.48 608.09,-382.54 607.78,-389.53"/>
</g>
<!-- Node34 -->
<g id="node34" class="node">
<title>Node34</title>
<g id="a_node34"><a xlink:href="historical_8cpp.html" target="_top" xlink:title=" ">
<polygon fill="white" stroke="#666666" points="504,-332.5 394,-332.5 394,-313.5 504,-313.5 504,-332.5"/>
<text text-anchor="middle" x="449" y="-320.5" font-family="Helvetica,sans-Serif" font-size="10.00">src/js/historical.cpp</text>
</a>
</g>
</g>
<!-- Node30&#45;&gt;Node34 -->
<g id="edge51" class="edge">
<title>Node30&#45;&gt;Node34</title>
<path fill="none" stroke="#63b8ff" d="M619.31,-376.4C578.29,-363.78 513.66,-343.89 476.94,-332.6"/>
<polygon fill="#63b8ff" stroke="#63b8ff" points="618.36,-379.77 628.95,-379.37 620.42,-373.08 618.36,-379.77"/>
</g>
<!-- Node35 -->
<g id="node35" class="node">
<title>Node35</title>
<g id="a_node35"><a xlink:href="openenclave_8cpp.html" target="_top" xlink:title=" ">
<polygon fill="white" stroke="#666666" points="376,-332.5 248,-332.5 248,-313.5 376,-313.5 376,-332.5"/>
<text text-anchor="middle" x="312" y="-320.5" font-family="Helvetica,sans-Serif" font-size="10.00">src/js/openenclave.cpp</text>
</a>
</g>
</g>
<!-- Node30&#45;&gt;Node35 -->
<g id="edge53" class="edge">
<title>Node30&#45;&gt;Node35</title>
<path fill="none" stroke="#63b8ff" d="M607.72,-379.06C553.21,-369.14 462.8,-352.61 385,-338 375.74,-336.26 365.83,-334.38 356.38,-332.57"/>
<polygon fill="#63b8ff" stroke="#63b8ff" points="607.33,-382.55 617.79,-380.89 608.58,-375.66 607.33,-382.55"/>
</g>
<!-- Node31&#45;&gt;Node17 -->
<g id="edge46" class="edge">
<title>Node31&#45;&gt;Node17</title>
<path fill="none" stroke="#63b8ff" d="M205.07,-309.89C276.2,-283.84 442.22,-223.05 503.62,-200.56"/>
<polygon fill="#63b8ff" stroke="#63b8ff" points="203.48,-306.75 195.29,-313.47 205.89,-313.32 203.48,-306.75"/>
</g>
<!-- Node32&#45;&gt;Node17 -->
<g id="edge48" class="edge">
<title>Node32&#45;&gt;Node17</title>
<path fill="none" stroke="#63b8ff" d="M560.48,-303.61C551.96,-275.19 535.91,-221.69 529.62,-200.73"/>
<polygon fill="#63b8ff" stroke="#63b8ff" points="557.22,-304.9 563.44,-313.47 563.92,-302.89 557.22,-304.9"/>
</g>
<!-- Node33&#45;&gt;Node17 -->
<g id="edge50" class="edge">
<title>Node33&#45;&gt;Node17</title>
<path fill="none" stroke="#63b8ff" d="M84.24,-310.33C135.24,-294.08 231.24,-264.14 314,-242 374,-225.95 444.24,-210.01 487.17,-200.58"/>
<polygon fill="#63b8ff" stroke="#63b8ff" points="83.11,-307.01 74.65,-313.39 85.24,-313.68 83.11,-307.01"/>
</g>
<!-- Node34&#45;&gt;Node17 -->
<g id="edge52" class="edge">
<title>Node34&#45;&gt;Node17</title>
<path fill="none" stroke="#63b8ff" d="M459.36,-304.73C476.23,-276.62 509.02,-221.97 521.76,-200.73"/>
<polygon fill="#63b8ff" stroke="#63b8ff" points="456.26,-303.09 454.12,-313.47 462.26,-306.7 456.26,-303.09"/>
</g>
<!-- Node36&#45;&gt;Node4 -->
<g id="edge59" class="edge">
<title>Node36&#45;&gt;Node4</title>
<path fill="none" stroke="#63b8ff" d="M2534.79,-387.79C2622.16,-385.9 2765.61,-376.78 2799,-338 2814.74,-319.72 2806.01,-289.61 2798.69,-272.01"/>
<polygon fill="#63b8ff" stroke="#63b8ff" points="2534.62,-384.3 2524.69,-387.99 2534.75,-391.3 2534.62,-384.3"/>
</g>
<!-- Node36&#45;&gt;Node7 -->
<g id="edge60" class="edge">
<title>Node36&#45;&gt;Node7</title>
<path fill="none" stroke="#63b8ff" d="M2534.16,-371.74C2585,-355.64 2650.97,-325.44 2683,-272 2689.85,-260.56 2689.9,-253.41 2683,-242 2648.98,-185.73 2577.64,-155.41 2525.17,-140.05"/>
<polygon fill="#63b8ff" stroke="#63b8ff" points="2533.08,-368.41 2524.53,-374.67 2535.12,-375.1 2533.08,-368.41"/>
</g>
<!-- Node36&#45;&gt;Node11 -->
<g id="edge61" class="edge">
<title>Node36&#45;&gt;Node11</title>
<path fill="none" stroke="#63b8ff" d="M2445.64,-366.76C2425.8,-347.61 2393.76,-320.58 2360,-308 2248.35,-266.38 1943.07,-288.05 1825,-272 1822.13,-271.61 1819.21,-271.17 1816.26,-270.69"/>
<polygon fill="#63b8ff" stroke="#63b8ff" points="2443.3,-369.37 2452.87,-373.92 2448.23,-364.4 2443.3,-369.37"/>
</g>
<!-- Node36&#45;&gt;Node21 -->
<g id="edge62" class="edge">
<title>Node36&#45;&gt;Node21</title>
<path fill="none" stroke="#63b8ff" d="M2416.93,-370.46C2388.38,-360.25 2352.87,-347.55 2326.19,-338.01"/>
<polygon fill="#63b8ff" stroke="#63b8ff" points="2416.12,-373.88 2426.72,-373.95 2418.48,-367.29 2416.12,-373.88"/>
</g>
<!-- Node37 -->
<g id="node37" class="node">
<title>Node37</title>
<g id="a_node37"><a xlink:href="historical__queries__adapter_8cpp.html" target="_top" xlink:title=" ">
<polygon fill="white" stroke="#666666" points="2790,-338 2670,-338 2670,-308 2790,-308 2790,-338"/>
<text text-anchor="start" x="2678" y="-326" font-family="Helvetica,sans-Serif" font-size="10.00">src/node/historical</text>
<text text-anchor="middle" x="2730" y="-315" font-family="Helvetica,sans-Serif" font-size="10.00">_queries_adapter.cpp</text>
</a>
</g>
</g>
<!-- Node36&#45;&gt;Node37 -->
<g id="edge63" class="edge">
<title>Node36&#45;&gt;Node37</title>
<path fill="none" stroke="#63b8ff" d="M2533.72,-371.58C2576.58,-361.19 2631.39,-347.9 2672.2,-338.01"/>
<polygon fill="#63b8ff" stroke="#63b8ff" points="2532.83,-368.2 2523.94,-373.95 2534.48,-375 2532.83,-368.2"/>
</g>
<!-- Node38 -->
<g id="node38" class="node">
<title>Node38</title>
<g id="a_node38"><a xlink:href="snapshot__serdes_8h.html" target="_top" xlink:title=" ">
<polygon fill="white" stroke="#666666" points="1486,-332.5 1334,-332.5 1334,-313.5 1486,-313.5 1486,-332.5"/>
<text text-anchor="middle" x="1410" y="-320.5" font-family="Helvetica,sans-Serif" font-size="10.00">src/node/snapshot_serdes.h</text>
</a>
</g>
</g>
<!-- Node36&#45;&gt;Node38 -->
<g id="edge64" class="edge">
<title>Node36&#45;&gt;Node38</title>
<path fill="none" stroke="#63b8ff" d="M2397.27,-383.83C2208.61,-372.4 1683.6,-340.58 1486.27,-328.62"/>
<polygon fill="#63b8ff" stroke="#63b8ff" points="2397.15,-387.33 2407.34,-384.44 2397.57,-380.35 2397.15,-387.33"/>
</g>
<!-- Node39 -->
<g id="node39" class="node">
<title>Node39</title>
<g id="a_node39"><a xlink:href="snapshotter_8h.html" target="_top" xlink:title=" ">
<polygon fill="white" stroke="#666666" points="1293.5,-266.5 1166.5,-266.5 1166.5,-247.5 1293.5,-247.5 1293.5,-266.5"/>
<text text-anchor="middle" x="1230" y="-254.5" font-family="Helvetica,sans-Serif" font-size="10.00">src/node/snapshotter.h</text>
</a>
</g>
</g>
<!-- Node38&#45;&gt;Node39 -->
<g id="edge65" class="edge">
<title>Node38&#45;&gt;Node39</title>
<path fill="none" stroke="#63b8ff" d="M1376.25,-310C1340.71,-297.36 1285.62,-277.78 1254.18,-266.6"/>
<polygon fill="#63b8ff" stroke="#63b8ff" points="1375.13,-313.32 1385.72,-313.37 1377.47,-306.72 1375.13,-313.32"/>
</g>
<!-- Node39&#45;&gt;Node24 -->
<g id="edge66" class="edge">
<title>Node39&#45;&gt;Node24</title>
<path fill="none" stroke="#63b8ff" d="M1176.02,-245.59C1169.61,-244.37 1163.16,-243.15 1157,-242 1077.34,-227.12 984.58,-210.38 929.72,-200.53"/>
<polygon fill="#63b8ff" stroke="#63b8ff" points="1175.53,-249.06 1186.01,-247.49 1176.84,-242.18 1175.53,-249.06"/>
</g>
<!-- Node40&#45;&gt;Node4 -->
<g id="edge68" class="edge">
<title>Node40&#45;&gt;Node4</title>
<path fill="none" stroke="#63b8ff" d="M3047.4,-435.01C3074.79,-419.29 3098.92,-397.48 3083,-374 3031.81,-298.48 2922.75,-272.13 2853.65,-262.93"/>
<polygon fill="#63b8ff" stroke="#63b8ff" points="3045.54,-432.03 3038.44,-439.89 3048.89,-438.18 3045.54,-432.03"/>
</g>
<!-- Node41 -->
<g id="node41" class="node">
<title>Node41</title>
<g id="a_node41"><a xlink:href="seqnos__by__key__bucketed_8cpp.html" target="_top" xlink:title=" ">
<polygon fill="white" stroke="#666666" points="3074,-404 2910,-404 2910,-374 3074,-374 3074,-404"/>
<text text-anchor="start" x="2918" y="-392" font-family="Helvetica,sans-Serif" font-size="10.00">src/indexing/strategies</text>
<text text-anchor="middle" x="2992" y="-381" font-family="Helvetica,sans-Serif" font-size="10.00">/seqnos_by_key_bucketed.cpp</text>
</a>
</g>
</g>
<!-- Node40&#45;&gt;Node41 -->
<g id="edge69" class="edge">
<title>Node40&#45;&gt;Node41</title>
<path fill="none" stroke="#63b8ff" d="M2992,-429.66C2992,-420.76 2992,-411.42 2992,-404.04"/>
<polygon fill="#63b8ff" stroke="#63b8ff" points="2988.5,-429.77 2992,-439.77 2995.5,-429.77 2988.5,-429.77"/>
</g>
<!-- Node42&#45;&gt;Node18 -->
<g id="edge78" class="edge">
<title>Node42&#45;&gt;Node18</title>
<path fill="none" stroke="#63b8ff" d="M1122.79,-376.86C1157.44,-367.63 1206.83,-353.54 1249,-338 1310,-315.51 1379.62,-282.05 1411.04,-266.5"/>
<polygon fill="#63b8ff" stroke="#63b8ff" points="1121.76,-373.51 1112.98,-379.45 1123.54,-380.28 1121.76,-373.51"/>
</g>
<!-- Node42&#45;&gt;Node22 -->
<g id="edge74" class="edge">
<title>Node42&#45;&gt;Node22</title>
<path fill="none" stroke="#63b8ff" d="M1099.45,-373.62C1114.53,-363.01 1134.94,-348.66 1149.93,-338.12"/>
<polygon fill="#63b8ff" stroke="#63b8ff" points="1097.44,-370.75 1091.27,-379.37 1101.47,-376.48 1097.44,-370.75"/>
</g>
<!-- Node42&#45;&gt;Node24 -->
<g id="edge75" class="edge">
<title>Node42&#45;&gt;Node24</title>
<path fill="none" stroke="#63b8ff" d="M1024.29,-376.66C999.87,-369.21 972.31,-357.16 953,-338 920.3,-305.57 935.17,-282.9 914,-242 906.14,-226.81 895.02,-210.29 888.17,-200.56"/>
<polygon fill="#63b8ff" stroke="#63b8ff" points="1023.6,-380.1 1034.17,-379.49 1025.52,-373.37 1023.6,-380.1"/>
</g>
<!-- Node42&#45;&gt;Node26 -->
<g id="edge76" class="edge">
<title>Node42&#45;&gt;Node26</title>
<path fill="none" stroke="#63b8ff" d="M1064.62,-371.85C1055.44,-361.54 1043.64,-348.3 1034.79,-338.36"/>
<polygon fill="#63b8ff" stroke="#63b8ff" points="1062.05,-374.23 1071.31,-379.37 1067.28,-369.57 1062.05,-374.23"/>
</g>
<!-- Node42&#45;&gt;Node27 -->
<g id="edge77" class="edge">
<title>Node42&#45;&gt;Node27</title>
<path fill="none" stroke="#63b8ff" d="M1035.46,-376.94C985.78,-364.32 905.59,-343.96 860.52,-332.51"/>
<polygon fill="#63b8ff" stroke="#63b8ff" points="1034.72,-380.37 1045.28,-379.44 1036.44,-373.58 1034.72,-380.37"/>
</g>
</g>
</svg>
