<?xml version="1.0" encoding="UTF-8" standalone="no"?>
<!DOCTYPE svg PUBLIC "-//W3C//DTD SVG 1.1//EN"
 "http://www.w3.org/Graphics/SVG/1.1/DTD/svg11.dtd">
<!-- Generated by graphviz version 2.43.0 (0)
 -->
<!-- Title: src/node/rpc/node_interface.h Pages: 1 -->
<svg width="2353pt" height="533pt"
 viewBox="0.00 0.00 2353.48 533.00" xmlns="http://www.w3.org/2000/svg" xmlns:xlink="http://www.w3.org/1999/xlink">
<g id="graph0" class="graph" transform="scale(1 1) rotate(0) translate(4 529)">
<title>src/node/rpc/node_interface.h</title>
<!-- Node1 -->
<g id="node1" class="node">
<title>Node1</title>
<g id="a_node1"><a xlink:title=" ">
<polygon fill="#999999" stroke="#666666" points="1496.98,-525 1335.98,-525 1335.98,-506 1496.98,-506 1496.98,-525"/>
<text text-anchor="middle" x="1416.48" y="-513" font-family="Helvetica,sans-Serif" font-size="10.00">src/node/rpc/node_interface.h</text>
</a>
</g>
</g>
<!-- Node2 -->
<g id="node2" class="node">
<title>Node2</title>
<g id="a_node2"><a xlink:href="wrap_8cpp.html" target="_top" xlink:title=" ">
<polygon fill="white" stroke="#666666" points="330.98,-266.5 241.98,-266.5 241.98,-247.5 330.98,-247.5 330.98,-266.5"/>
<text text-anchor="middle" x="286.48" y="-254.5" font-family="Helvetica,sans-Serif" font-size="10.00">src/js/wrap.cpp</text>
</a>
</g>
</g>
<!-- Node1&#45;&gt;Node2 -->
<g id="edge1" class="edge">
<title>Node1&#45;&gt;Node2</title>
<path fill="none" stroke="#63b8ff" d="M1325.49,-510.08C1027.14,-494.65 92.7,-438.61 6.48,-338 -2.2,-327.88 -2.08,-318.22 6.48,-308 35.96,-272.79 170.41,-262.35 241.73,-259.27"/>
<polygon fill="#63b8ff" stroke="#63b8ff" points="1325.66,-513.59 1335.83,-510.61 1326.02,-506.6 1325.66,-513.59"/>
</g>
<!-- Node3 -->
<g id="node3" class="node">
<title>Node3</title>
<g id="a_node3"><a xlink:href="wrap_8h.html" target="_top" xlink:title=" ">
<polygon fill="white" stroke="#666666" points="704.48,-398.5 626.48,-398.5 626.48,-379.5 704.48,-379.5 704.48,-398.5"/>
<text text-anchor="middle" x="665.48" y="-386.5" font-family="Helvetica,sans-Serif" font-size="10.00">src/js/wrap.h</text>
</a>
</g>
</g>
<!-- Node1&#45;&gt;Node3 -->
<g id="edge2" class="edge">
<title>Node1&#45;&gt;Node3</title>
<path fill="none" stroke="#63b8ff" d="M1325.71,-508C1241.73,-501.22 1113.61,-488.89 1003.48,-470 888.77,-450.32 754.91,-414.85 695.97,-398.58"/>
<polygon fill="#63b8ff" stroke="#63b8ff" points="1325.49,-511.5 1335.73,-508.8 1326.04,-504.52 1325.49,-511.5"/>
</g>
<!-- Node14 -->
<g id="node14" class="node">
<title>Node14</title>
<g id="a_node14"><a xlink:href="member__frontend_8h.html" target="_top" xlink:title=" ">
<polygon fill="white" stroke="#666666" points="1013.48,-338 893.48,-338 893.48,-308 1013.48,-308 1013.48,-338"/>
<text text-anchor="start" x="901.48" y="-326" font-family="Helvetica,sans-Serif" font-size="10.00">src/node/rpc/member</text>
<text text-anchor="middle" x="953.48" y="-315" font-family="Helvetica,sans-Serif" font-size="10.00">_frontend.h</text>
</a>
</g>
</g>
<!-- Node1&#45;&gt;Node14 -->
<g id="edge51" class="edge">
<title>Node1&#45;&gt;Node14</title>
<path fill="none" stroke="#63b8ff" d="M1325.95,-510.75C1271.5,-505.84 1201.86,-494.77 1144.48,-470 1068.6,-437.26 995.84,-367.82 966.76,-338.04"/>
<polygon fill="#63b8ff" stroke="#63b8ff" points="1325.67,-514.24 1335.93,-511.6 1326.26,-507.27 1325.67,-514.24"/>
</g>
<!-- Node15 -->
<g id="node15" class="node">
<title>Node15</title>
<g id="a_node15"><a xlink:href="node__frontend_8h.html" target="_top" xlink:title=" ">
<polygon fill="white" stroke="#666666" points="1189.48,-332.5 1031.48,-332.5 1031.48,-313.5 1189.48,-313.5 1189.48,-332.5"/>
<text text-anchor="middle" x="1110.48" y="-320.5" font-family="Helvetica,sans-Serif" font-size="10.00">src/node/rpc/node_frontend.h</text>
</a>
</g>
</g>
<!-- Node1&#45;&gt;Node15 -->
<g id="edge56" class="edge">
<title>Node1&#45;&gt;Node15</title>
<path fill="none" stroke="#63b8ff" d="M1325.98,-506.57C1267.72,-499.84 1198.7,-488.29 1175.48,-470 1129.49,-433.77 1115.15,-358.08 1111.53,-332.59"/>
<polygon fill="#63b8ff" stroke="#63b8ff" points="1325.64,-510.06 1335.97,-507.69 1326.42,-503.1 1325.64,-510.06"/>
</g>
<!-- Node17 -->
<g id="node17" class="node">
<title>Node17</title>
<g id="a_node17"><a xlink:href="historical__queries_8h.html" target="_top" xlink:title=" ">
<polygon fill="white" stroke="#666666" points="1725.48,-206 1619.48,-206 1619.48,-176 1725.48,-176 1725.48,-206"/>
<text text-anchor="start" x="1627.48" y="-194" font-family="Helvetica,sans-Serif" font-size="10.00">src/node/historical</text>
<text text-anchor="middle" x="1672.48" y="-183" font-family="Helvetica,sans-Serif" font-size="10.00">_queries.h</text>
</a>
</g>
</g>
<!-- Node1&#45;&gt;Node17 -->
<g id="edge26" class="edge">
<title>Node1&#45;&gt;Node17</title>
<path fill="none" stroke="#63b8ff" d="M1480.32,-504.18C1577.53,-486.63 1751.48,-447.23 1751.48,-390 1751.48,-390 1751.48,-390 1751.48,-322 1751.48,-273.93 1711.55,-228.51 1688.46,-206.26"/>
<polygon fill="#63b8ff" stroke="#63b8ff" points="1479.53,-500.76 1470.3,-505.96 1480.76,-507.65 1479.53,-500.76"/>
</g>
<!-- Node19 -->
<g id="node19" class="node">
<title>Node19</title>
<g id="a_node19"><a xlink:href="node__configuration__subsystem_8h.html" target="_top" xlink:title=" ">
<polygon fill="white" stroke="#666666" points="1338.48,-470 1184.48,-470 1184.48,-440 1338.48,-440 1338.48,-470"/>
<text text-anchor="start" x="1192.48" y="-458" font-family="Helvetica,sans-Serif" font-size="10.00">src/node/node_configuration</text>
<text text-anchor="middle" x="1261.48" y="-447" font-family="Helvetica,sans-Serif" font-size="10.00">_subsystem.h</text>
</a>
</g>
</g>
<!-- Node1&#45;&gt;Node19 -->
<g id="edge30" class="edge">
<title>Node1&#45;&gt;Node19</title>
<path fill="none" stroke="#63b8ff" d="M1384.57,-502.46C1359.64,-493.05 1324.95,-479.95 1298.74,-470.06"/>
<polygon fill="#63b8ff" stroke="#63b8ff" points="1383.35,-505.74 1393.94,-505.99 1385.82,-499.19 1383.35,-505.74"/>
</g>
<!-- Node24 -->
<g id="node24" class="node">
<title>Node24</title>
<g id="a_node24"><a xlink:href="acme__subsystem_8h.html" target="_top" xlink:title=" ">
<polygon fill="white" stroke="#666666" points="1916.98,-200.5 1743.98,-200.5 1743.98,-181.5 1916.98,-181.5 1916.98,-200.5"/>
<text text-anchor="middle" x="1830.48" y="-188.5" font-family="Helvetica,sans-Serif" font-size="10.00">src/node/rpc/acme_subsystem.h</text>
</a>
</g>
</g>
<!-- Node1&#45;&gt;Node24 -->
<g id="edge41" class="edge">
<title>Node1&#45;&gt;Node24</title>
<path fill="none" stroke="#63b8ff" d="M1503.11,-504.69C1618.83,-489.13 1809.48,-453.81 1809.48,-390 1809.48,-390 1809.48,-390 1809.48,-322 1809.48,-275.82 1822.55,-221.58 1828.07,-200.75"/>
<polygon fill="#63b8ff" stroke="#63b8ff" points="1502.64,-501.22 1493.19,-506 1503.56,-508.16 1502.64,-501.22"/>
</g>
<!-- Node25 -->
<g id="node25" class="node">
<title>Node25</title>
<g id="a_node25"><a xlink:href="custom__protocol__subsystem_8h.html" target="_top" xlink:title=" ">
<polygon fill="white" stroke="#666666" points="1604.98,-404 1475.98,-404 1475.98,-374 1604.98,-374 1604.98,-404"/>
<text text-anchor="start" x="1483.98" y="-392" font-family="Helvetica,sans-Serif" font-size="10.00">src/node/rpc/custom</text>
<text text-anchor="middle" x="1540.48" y="-381" font-family="Helvetica,sans-Serif" font-size="10.00">_protocol_subsystem.h</text>
</a>
</g>
</g>
<!-- Node1&#45;&gt;Node25 -->
<g id="edge43" class="edge">
<title>Node1&#45;&gt;Node25</title>
<path fill="none" stroke="#63b8ff" d="M1432.37,-498.54C1456.78,-474.04 1503.09,-427.53 1526.37,-404.16"/>
<polygon fill="#63b8ff" stroke="#63b8ff" points="1429.58,-496.39 1425,-505.94 1434.54,-501.33 1429.58,-496.39"/>
</g>
<!-- Node28 -->
<g id="node28" class="node">
<title>Node28</title>
<g id="a_node28"><a xlink:href="network__identity__subsystem_8h.html" target="_top" xlink:title=" ">
<polygon fill="white" stroke="#666666" points="2148.98,-470 2021.98,-470 2021.98,-440 2148.98,-440 2148.98,-470"/>
<text text-anchor="start" x="2029.98" y="-458" font-family="Helvetica,sans-Serif" font-size="10.00">src/node/rpc/network</text>
<text text-anchor="middle" x="2085.48" y="-447" font-family="Helvetica,sans-Serif" font-size="10.00">_identity_subsystem.h</text>
</a>
</g>
</g>
<!-- Node1&#45;&gt;Node28 -->
<g id="edge52" class="edge">
<title>Node1&#45;&gt;Node28</title>
<path fill="none" stroke="#63b8ff" d="M1507.24,-507.87C1615.12,-499.8 1800.55,-485.34 1959.48,-470 1979.74,-468.04 2001.81,-465.67 2021.74,-463.44"/>
<polygon fill="#63b8ff" stroke="#63b8ff" points="1506.75,-504.39 1497.04,-508.63 1507.28,-511.37 1506.75,-504.39"/>
</g>
<!-- Node31 -->
<g id="node31" class="node">
<title>Node31</title>
<g id="a_node31"><a xlink:href="node__operation_8h.html" target="_top" xlink:title=" ">
<polygon fill="white" stroke="#666666" points="2003.48,-134.5 1839.48,-134.5 1839.48,-115.5 2003.48,-115.5 2003.48,-134.5"/>
<text text-anchor="middle" x="1921.48" y="-122.5" font-family="Helvetica,sans-Serif" font-size="10.00">src/node/rpc/node_operation.h</text>
</a>
</g>
</g>
<!-- Node1&#45;&gt;Node31 -->
<g id="edge57" class="edge">
<title>Node1&#45;&gt;Node31</title>
<path fill="none" stroke="#63b8ff" d="M1507.31,-511.65C1658.53,-504.41 1945.48,-478.94 1945.48,-390 1945.48,-390 1945.48,-390 1945.48,-256 1945.48,-209.64 1930.54,-155.5 1924.23,-134.72"/>
<polygon fill="#63b8ff" stroke="#63b8ff" points="1506.94,-508.16 1497.11,-512.12 1507.26,-515.16 1506.94,-508.16"/>
</g>
<!-- Node3&#45;&gt;Node2 -->
<g id="edge15" class="edge">
<title>Node3&#45;&gt;Node2</title>
<path fill="none" stroke="#63b8ff" d="M616.32,-385.03C564.14,-380.34 480.29,-368.38 414.48,-338 394.94,-328.98 394.39,-319.93 376.48,-308 352.23,-291.85 322.37,-275.99 303.88,-266.61"/>
<polygon fill="#63b8ff" stroke="#63b8ff" points="616.07,-388.52 626.32,-385.87 616.65,-381.54 616.07,-388.52"/>
</g>
<!-- Node4 -->
<g id="node4" class="node">
<title>Node4</title>
<g id="a_node4"><a xlink:href="js__generic__base_8cpp.html" target="_top" xlink:title=" ">
<polygon fill="white" stroke="#666666" points="367.48,-338 249.48,-338 249.48,-308 367.48,-308 367.48,-338"/>
<text text-anchor="start" x="257.48" y="-326" font-family="Helvetica,sans-Serif" font-size="10.00">src/apps/js_generic</text>
<text text-anchor="middle" x="308.48" y="-315" font-family="Helvetica,sans-Serif" font-size="10.00">/js_generic_base.cpp</text>
</a>
</g>
</g>
<!-- Node3&#45;&gt;Node4 -->
<g id="edge3" class="edge">
<title>Node3&#45;&gt;Node4</title>
<path fill="none" stroke="#63b8ff" d="M616.28,-379.57C559.62,-369.81 463.75,-353.13 381.48,-338 377.04,-337.18 372.44,-336.33 367.83,-335.46"/>
<polygon fill="#63b8ff" stroke="#63b8ff" points="615.95,-383.07 626.4,-381.31 617.13,-376.17 615.95,-383.07"/>
</g>
<!-- Node5 -->
<g id="node5" class="node">
<title>Node5</title>
<g id="a_node5"><a xlink:href="src_2enclave_2enclave_8h.html" target="_top" xlink:title=" ">
<polygon fill="white" stroke="#666666" points="1564.48,-74 1442.48,-74 1442.48,-55 1564.48,-55 1564.48,-74"/>
<text text-anchor="middle" x="1503.48" y="-62" font-family="Helvetica,sans-Serif" font-size="10.00">src/enclave/enclave.h</text>
</a>
</g>
</g>
<!-- Node3&#45;&gt;Node5 -->
<g id="edge4" class="edge">
<title>Node3&#45;&gt;Node5</title>
<path fill="none" stroke="#63b8ff" d="M714.72,-382.81C745.85,-376.95 784.58,-364.5 808.48,-338 832.95,-310.86 827.48,-294.54 827.48,-258 827.48,-258 827.48,-258 827.48,-190 827.48,-130.27 879.53,-130.92 935.48,-110 1026.97,-75.79 1315.36,-67.88 1442.38,-66.05"/>
<polygon fill="#63b8ff" stroke="#63b8ff" points="713.76,-379.42 704.49,-384.55 714.94,-386.32 713.76,-379.42"/>
</g>
<!-- Node7 -->
<g id="node7" class="node">
<title>Node7</title>
<g id="a_node7"><a xlink:href="consensus_8cpp.html" target="_top" xlink:title=" ">
<polygon fill="white" stroke="#666666" points="653.48,-332.5 537.48,-332.5 537.48,-313.5 653.48,-313.5 653.48,-332.5"/>
<text text-anchor="middle" x="595.48" y="-320.5" font-family="Helvetica,sans-Serif" font-size="10.00">src/js/consensus.cpp</text>
</a>
</g>
</g>
<!-- Node3&#45;&gt;Node7 -->
<g id="edge6" class="edge">
<title>Node3&#45;&gt;Node7</title>
<path fill="none" stroke="#63b8ff" d="M648.34,-372.33C634.79,-359.94 616.35,-343.09 605.22,-332.91"/>
<polygon fill="#63b8ff" stroke="#63b8ff" points="646.3,-375.2 656.04,-379.37 651.02,-370.04 646.3,-375.2"/>
</g>
<!-- Node8 -->
<g id="node8" class="node">
<title>Node8</title>
<g id="a_node8"><a xlink:href="conv_8cpp.html" target="_top" xlink:title=" ">
<polygon fill="white" stroke="#666666" points="103.48,-332.5 15.48,-332.5 15.48,-313.5 103.48,-313.5 103.48,-332.5"/>
<text text-anchor="middle" x="59.48" y="-320.5" font-family="Helvetica,sans-Serif" font-size="10.00">src/js/conv.cpp</text>
</a>
</g>
</g>
<!-- Node3&#45;&gt;Node8 -->
<g id="edge8" class="edge">
<title>Node3&#45;&gt;Node8</title>
<path fill="none" stroke="#63b8ff" d="M616.19,-386.32C519.12,-382.41 296.6,-370.4 112.48,-338 104.51,-336.6 95.99,-334.58 88.17,-332.52"/>
<polygon fill="#63b8ff" stroke="#63b8ff" points="616.17,-389.82 626.29,-386.72 616.44,-382.83 616.17,-389.82"/>
</g>
<!-- Node9 -->
<g id="node9" class="node">
<title>Node9</title>
<g id="a_node9"><a xlink:href="crypto_8cpp.html" target="_top" xlink:title=" ">
<polygon fill="white" stroke="#666666" points="519.48,-332.5 423.48,-332.5 423.48,-313.5 519.48,-313.5 519.48,-332.5"/>
<text text-anchor="middle" x="471.48" y="-320.5" font-family="Helvetica,sans-Serif" font-size="10.00">src/js/crypto.cpp</text>
</a>
</g>
</g>
<!-- Node3&#45;&gt;Node9 -->
<g id="edge10" class="edge">
<title>Node3&#45;&gt;Node9</title>
<path fill="none" stroke="#63b8ff" d="M629.6,-376.16C591.3,-363.53 531.57,-343.82 497.54,-332.6"/>
<polygon fill="#63b8ff" stroke="#63b8ff" points="628.72,-379.56 639.31,-379.37 630.91,-372.91 628.72,-379.56"/>
</g>
<!-- Node10 -->
<g id="node10" class="node">
<title>Node10</title>
<g id="a_node10"><a xlink:href="historical_8cpp.html" target="_top" xlink:title=" ">
<polygon fill="white" stroke="#666666" points="231.48,-332.5 121.48,-332.5 121.48,-313.5 231.48,-313.5 231.48,-332.5"/>
<text text-anchor="middle" x="176.48" y="-320.5" font-family="Helvetica,sans-Serif" font-size="10.00">src/js/historical.cpp</text>
</a>
</g>
</g>
<!-- Node3&#45;&gt;Node10 -->
<g id="edge12" class="edge">
<title>Node3&#45;&gt;Node10</title>
<path fill="none" stroke="#63b8ff" d="M616.13,-383.78C536.68,-376.63 375.64,-360.68 240.48,-338 231.39,-336.48 221.65,-334.51 212.57,-332.55"/>
<polygon fill="#63b8ff" stroke="#63b8ff" points="616.06,-387.29 626.33,-384.69 616.68,-380.32 616.06,-387.29"/>
</g>
<!-- Node11 -->
<g id="node11" class="node">
<title>Node11</title>
<g id="a_node11"><a xlink:href="openenclave_8cpp.html" target="_top" xlink:title=" ">
<polygon fill="white" stroke="#666666" points="799.48,-332.5 671.48,-332.5 671.48,-313.5 799.48,-313.5 799.48,-332.5"/>
<text text-anchor="middle" x="735.48" y="-320.5" font-family="Helvetica,sans-Serif" font-size="10.00">src/js/openenclave.cpp</text>
</a>
</g>
</g>
<!-- Node3&#45;&gt;Node11 -->
<g id="edge14" class="edge">
<title>Node3&#45;&gt;Node11</title>
<path fill="none" stroke="#63b8ff" d="M682.62,-372.33C696.17,-359.94 714.6,-343.09 725.74,-332.91"/>
<polygon fill="#63b8ff" stroke="#63b8ff" points="679.94,-370.04 674.92,-379.37 684.66,-375.2 679.94,-370.04"/>
</g>
<!-- Node12 -->
<g id="node12" class="node">
<title>Node12</title>
<g id="a_node12"><a xlink:href="node__state_8h.html" target="_top" xlink:title=" ">
<polygon fill="white" stroke="#666666" points="1415.48,-200.5 1291.48,-200.5 1291.48,-181.5 1415.48,-181.5 1415.48,-200.5"/>
<text text-anchor="middle" x="1353.48" y="-188.5" font-family="Helvetica,sans-Serif" font-size="10.00">src/node/node_state.h</text>
</a>
</g>
</g>
<!-- Node3&#45;&gt;Node12 -->
<g id="edge16" class="edge">
<title>Node3&#45;&gt;Node12</title>
<path fill="none" stroke="#63b8ff" d="M714.4,-378.69C750.62,-370.71 800.56,-357.41 841.48,-338 862.53,-328.01 863.6,-318.35 884.48,-308 970.23,-265.48 996.72,-265.62 1089.48,-242 1160.56,-223.9 1243.93,-209.17 1297.67,-200.5"/>
<polygon fill="#63b8ff" stroke="#63b8ff" points="713.61,-375.28 704.57,-380.8 715.08,-382.12 713.61,-375.28"/>
</g>
<!-- Node3&#45;&gt;Node14 -->
<g id="edge20" class="edge">
<title>Node3&#45;&gt;Node14</title>
<path fill="none" stroke="#63b8ff" d="M713.82,-377.26C763.23,-366.28 840.06,-349.2 893.36,-337.36"/>
<polygon fill="#63b8ff" stroke="#63b8ff" points="713.02,-373.85 704.02,-379.44 714.54,-380.68 713.02,-373.85"/>
</g>
<!-- Node3&#45;&gt;Node15 -->
<g id="edge22" class="edge">
<title>Node3&#45;&gt;Node15</title>
<path fill="none" stroke="#63b8ff" d="M714.73,-381.4C783.63,-372.09 912.68,-354.42 1022.48,-338 1033.95,-336.28 1046.26,-334.37 1057.92,-332.53"/>
<polygon fill="#63b8ff" stroke="#63b8ff" points="714.05,-377.96 704.6,-382.76 714.98,-384.89 714.05,-377.96"/>
</g>
<!-- Node6 -->
<g id="node6" class="node">
<title>Node6</title>
<g id="a_node6"><a xlink:href="enclave_2main_8cpp.html" target="_top" xlink:title=" ">
<polygon fill="white" stroke="#666666" points="1563.48,-19 1443.48,-19 1443.48,0 1563.48,0 1563.48,-19"/>
<text text-anchor="middle" x="1503.48" y="-7" font-family="Helvetica,sans-Serif" font-size="10.00">src/enclave/main.cpp</text>
</a>
</g>
</g>
<!-- Node5&#45;&gt;Node6 -->
<g id="edge5" class="edge">
<title>Node5&#45;&gt;Node6</title>
<path fill="none" stroke="#63b8ff" d="M1503.48,-44.66C1503.48,-35.93 1503.48,-25.99 1503.48,-19.09"/>
<polygon fill="#63b8ff" stroke="#63b8ff" points="1499.98,-44.75 1503.48,-54.75 1506.98,-44.75 1499.98,-44.75"/>
</g>
<!-- Node7&#45;&gt;Node2 -->
<g id="edge7" class="edge">
<title>Node7&#45;&gt;Node2</title>
<path fill="none" stroke="#63b8ff" d="M544.86,-311.41C539.33,-310.26 533.79,-309.1 528.48,-308 458.12,-293.38 376.23,-276.49 328.02,-266.55"/>
<polygon fill="#63b8ff" stroke="#63b8ff" points="544.23,-314.85 554.74,-313.47 545.66,-308 544.23,-314.85"/>
</g>
<!-- Node8&#45;&gt;Node2 -->
<g id="edge9" class="edge">
<title>Node8&#45;&gt;Node2</title>
<path fill="none" stroke="#63b8ff" d="M99.76,-310.64C144.48,-298.03 215.66,-277.97 255.99,-266.6"/>
<polygon fill="#63b8ff" stroke="#63b8ff" points="98.77,-307.29 90.09,-313.37 100.67,-314.02 98.77,-307.29"/>
</g>
<!-- Node9&#45;&gt;Node2 -->
<g id="edge11" class="edge">
<title>Node9&#45;&gt;Node2</title>
<path fill="none" stroke="#63b8ff" d="M436.79,-310C400.26,-297.36 343.64,-277.78 311.33,-266.6"/>
<polygon fill="#63b8ff" stroke="#63b8ff" points="435.93,-313.41 446.53,-313.37 438.22,-306.79 435.93,-313.41"/>
</g>
<!-- Node10&#45;&gt;Node2 -->
<g id="edge13" class="edge">
<title>Node10&#45;&gt;Node2</title>
<path fill="none" stroke="#63b8ff" d="M200.21,-308.19C221.86,-295.59 253.18,-277.37 271.53,-266.7"/>
<polygon fill="#63b8ff" stroke="#63b8ff" points="198.2,-305.31 191.31,-313.37 201.72,-311.36 198.2,-305.31"/>
</g>
<!-- Node12&#45;&gt;Node5 -->
<g id="edge17" class="edge">
<title>Node12&#45;&gt;Node5</title>
<path fill="none" stroke="#63b8ff" d="M1353.02,-171.22C1353.61,-153.33 1357.27,-126.71 1372.48,-110 1390.42,-90.28 1417.43,-79.29 1442.28,-73.18"/>
<polygon fill="#63b8ff" stroke="#63b8ff" points="1349.52,-171.29 1352.99,-181.3 1356.52,-171.31 1349.52,-171.29"/>
</g>
<!-- Node13 -->
<g id="node13" class="node">
<title>Node13</title>
<g id="a_node13"><a xlink:href="gov__effects_8h.html" target="_top" xlink:title=" ">
<polygon fill="white" stroke="#666666" points="1525.48,-134.5 1381.48,-134.5 1381.48,-115.5 1525.48,-115.5 1525.48,-134.5"/>
<text text-anchor="middle" x="1453.48" y="-122.5" font-family="Helvetica,sans-Serif" font-size="10.00">src/node/rpc/gov_effects.h</text>
</a>
</g>
</g>
<!-- Node12&#45;&gt;Node13 -->
<g id="edge18" class="edge">
<title>Node12&#45;&gt;Node13</title>
<path fill="none" stroke="#63b8ff" d="M1375.59,-175.85C1395.25,-163.27 1423.36,-145.28 1439.89,-134.7"/>
<polygon fill="#63b8ff" stroke="#63b8ff" points="1373.5,-173.03 1366.96,-181.37 1377.27,-178.93 1373.5,-173.03"/>
</g>
<!-- Node13&#45;&gt;Node5 -->
<g id="edge19" class="edge">
<title>Node13&#45;&gt;Node5</title>
<path fill="none" stroke="#63b8ff" d="M1467.62,-107.45C1476.88,-96.62 1488.6,-82.91 1496.07,-74.17"/>
<polygon fill="#63b8ff" stroke="#63b8ff" points="1464.69,-105.49 1460.86,-115.37 1470.01,-110.04 1464.69,-105.49"/>
</g>
<!-- Node14&#45;&gt;Node5 -->
<g id="edge21" class="edge">
<title>Node14&#45;&gt;Node5</title>
<path fill="none" stroke="#63b8ff" d="M940.88,-298.95C926.63,-269.71 907.26,-218.03 922.48,-176 935.48,-140.1 943.61,-127.64 977.48,-110 1056.83,-68.67 1321.11,-64.5 1442.08,-64.85"/>
<polygon fill="#63b8ff" stroke="#63b8ff" points="937.81,-300.63 945.46,-307.96 944.05,-297.46 937.81,-300.63"/>
</g>
<!-- Node15&#45;&gt;Node5 -->
<g id="edge23" class="edge">
<title>Node15&#45;&gt;Node5</title>
<path fill="none" stroke="#63b8ff" d="M1072,-310.19C1009.21,-288.78 895.45,-239.81 934.48,-176 987.12,-89.94 1306.33,-70.9 1442.27,-66.69"/>
<polygon fill="#63b8ff" stroke="#63b8ff" points="1071.01,-313.55 1081.61,-313.39 1073.22,-306.91 1071.01,-313.55"/>
</g>
<!-- Node16 -->
<g id="node16" class="node">
<title>Node16</title>
<g id="a_node16"><a xlink:href="jwt__key__auto__refresh_8h.html" target="_top" xlink:title=" ">
<polygon fill="white" stroke="#666666" points="1222.98,-272 1097.98,-272 1097.98,-242 1222.98,-242 1222.98,-272"/>
<text text-anchor="start" x="1105.98" y="-260" font-family="Helvetica,sans-Serif" font-size="10.00">src/node/jwt_key_auto</text>
<text text-anchor="middle" x="1160.48" y="-249" font-family="Helvetica,sans-Serif" font-size="10.00">_refresh.h</text>
</a>
</g>
</g>
<!-- Node15&#45;&gt;Node16 -->
<g id="edge24" class="edge">
<title>Node15&#45;&gt;Node16</title>
<path fill="none" stroke="#63b8ff" d="M1123.58,-305.24C1131.56,-295.02 1141.65,-282.1 1149.26,-272.36"/>
<polygon fill="#63b8ff" stroke="#63b8ff" points="1120.62,-303.33 1117.22,-313.37 1126.14,-307.64 1120.62,-303.33"/>
</g>
<!-- Node16&#45;&gt;Node12 -->
<g id="edge25" class="edge">
<title>Node16&#45;&gt;Node12</title>
<path fill="none" stroke="#63b8ff" d="M1212.54,-238.74C1249.85,-226.36 1298.5,-210.23 1327.79,-200.52"/>
<polygon fill="#63b8ff" stroke="#63b8ff" points="1211.22,-235.49 1202.83,-241.95 1213.43,-242.13 1211.22,-235.49"/>
</g>
<!-- Node17&#45;&gt;Node5 -->
<g id="edge27" class="edge">
<title>Node17&#45;&gt;Node5</title>
<path fill="none" stroke="#63b8ff" d="M1657.84,-167.33C1645.59,-149.79 1626.72,-125.9 1605.48,-110 1583.2,-93.33 1553.72,-81.33 1532.18,-74.03"/>
<polygon fill="#63b8ff" stroke="#63b8ff" points="1655.11,-169.54 1663.63,-175.84 1660.9,-165.6 1655.11,-169.54"/>
</g>
<!-- Node18 -->
<g id="node18" class="node">
<title>Node18</title>
<g id="a_node18"><a xlink:href="historical__transaction__fetcher_8h.html" target="_top" xlink:title=" ">
<polygon fill="white" stroke="#666666" points="1782.98,-140 1657.98,-140 1657.98,-110 1782.98,-110 1782.98,-140"/>
<text text-anchor="start" x="1665.98" y="-128" font-family="Helvetica,sans-Serif" font-size="10.00">src/indexing/historical</text>
<text text-anchor="middle" x="1720.48" y="-117" font-family="Helvetica,sans-Serif" font-size="10.00">_transaction_fetcher.h</text>
</a>
</g>
</g>
<!-- Node17&#45;&gt;Node18 -->
<g id="edge28" class="edge">
<title>Node17&#45;&gt;Node18</title>
<path fill="none" stroke="#63b8ff" d="M1689.33,-167.53C1696.16,-158.43 1703.83,-148.19 1709.86,-140.16"/>
<polygon fill="#63b8ff" stroke="#63b8ff" points="1686.33,-165.7 1683.13,-175.8 1691.93,-169.9 1686.33,-165.7"/>
</g>
<!-- Node18&#45;&gt;Node5 -->
<g id="edge29" class="edge">
<title>Node18&#45;&gt;Node5</title>
<path fill="none" stroke="#63b8ff" d="M1658.77,-107.36C1618.47,-96.5 1567.52,-82.77 1535.21,-74.05"/>
<polygon fill="#63b8ff" stroke="#63b8ff" points="1657.93,-110.76 1668.5,-109.99 1659.76,-104.01 1657.93,-110.76"/>
</g>
<!-- Node20 -->
<g id="node20" class="node">
<title>Node20</title>
<g id="a_node20"><a xlink:href="frontend_8h.html" target="_top" xlink:title=" ">
<polygon fill="white" stroke="#666666" points="1309.98,-398.5 1180.98,-398.5 1180.98,-379.5 1309.98,-379.5 1309.98,-398.5"/>
<text text-anchor="middle" x="1245.48" y="-386.5" font-family="Helvetica,sans-Serif" font-size="10.00">src/node/rpc/frontend.h</text>
</a>
</g>
</g>
<!-- Node19&#45;&gt;Node20 -->
<g id="edge31" class="edge">
<title>Node19&#45;&gt;Node20</title>
<path fill="none" stroke="#63b8ff" d="M1255.46,-429.94C1252.74,-419.06 1249.69,-406.86 1247.69,-398.84"/>
<polygon fill="#63b8ff" stroke="#63b8ff" points="1252.11,-430.94 1257.93,-439.8 1258.9,-429.25 1252.11,-430.94"/>
</g>
<!-- Node20&#45;&gt;Node12 -->
<g id="edge36" class="edge">
<title>Node20&#45;&gt;Node12</title>
<path fill="none" stroke="#63b8ff" d="M1243.96,-368.94C1242.56,-339.17 1243.85,-281 1270.48,-242 1284.33,-221.72 1309.38,-208.31 1328.35,-200.53"/>
<polygon fill="#63b8ff" stroke="#63b8ff" points="1240.48,-369.43 1244.6,-379.19 1247.47,-368.98 1240.48,-369.43"/>
</g>
<!-- Node20&#45;&gt;Node14 -->
<g id="edge37" class="edge">
<title>Node20&#45;&gt;Node14</title>
<path fill="none" stroke="#63b8ff" d="M1196.41,-377.25C1146.06,-366.21 1067.66,-349.03 1013.61,-337.18"/>
<polygon fill="#63b8ff" stroke="#63b8ff" points="1195.88,-380.71 1206.4,-379.44 1197.38,-373.88 1195.88,-380.71"/>
</g>
<!-- Node20&#45;&gt;Node15 -->
<g id="edge38" class="edge">
<title>Node20&#45;&gt;Node15</title>
<path fill="none" stroke="#63b8ff" d="M1218.12,-375.03C1191.51,-362.42 1151.84,-343.61 1128.83,-332.7"/>
<polygon fill="#63b8ff" stroke="#63b8ff" points="1216.74,-378.25 1227.27,-379.37 1219.73,-371.92 1216.74,-378.25"/>
</g>
<!-- Node21 -->
<g id="node21" class="node">
<title>Node21</title>
<g id="a_node21"><a xlink:href="acme__challenge__frontend_8h.html" target="_top" xlink:title=" ">
<polygon fill="white" stroke="#666666" points="1423.48,-338 1283.48,-338 1283.48,-308 1423.48,-308 1423.48,-338"/>
<text text-anchor="start" x="1291.48" y="-326" font-family="Helvetica,sans-Serif" font-size="10.00">src/node/acme_challenge</text>
<text text-anchor="middle" x="1353.48" y="-315" font-family="Helvetica,sans-Serif" font-size="10.00">_frontend.h</text>
</a>
</g>
</g>
<!-- Node20&#45;&gt;Node21 -->
<g id="edge32" class="edge">
<title>Node20&#45;&gt;Node21</title>
<path fill="none" stroke="#63b8ff" d="M1268.76,-374.21C1286.74,-363.55 1311.54,-348.85 1329.66,-338.12"/>
<polygon fill="#63b8ff" stroke="#63b8ff" points="1266.86,-371.26 1260.04,-379.37 1270.43,-377.28 1266.86,-371.26"/>
</g>
<!-- Node23 -->
<g id="node23" class="node">
<title>Node23</title>
<g id="a_node23"><a xlink:href="user__frontend_8h.html" target="_top" xlink:title=" ">
<polygon fill="white" stroke="#666666" points="1097.98,-200.5 942.98,-200.5 942.98,-181.5 1097.98,-181.5 1097.98,-200.5"/>
<text text-anchor="middle" x="1020.48" y="-188.5" font-family="Helvetica,sans-Serif" font-size="10.00">src/node/rpc/user_frontend.h</text>
</a>
</g>
</g>
<!-- Node20&#45;&gt;Node23 -->
<g id="edge39" class="edge">
<title>Node20&#45;&gt;Node23</title>
<path fill="none" stroke="#63b8ff" d="M1239.59,-369.95C1232.66,-351.59 1219.38,-323.67 1198.48,-308 1146.03,-268.7 1105.5,-314.35 1055.48,-272 1033.15,-253.1 1024.59,-217.23 1021.74,-200.72"/>
<polygon fill="#63b8ff" stroke="#63b8ff" points="1236.33,-371.22 1242.94,-379.49 1242.93,-368.9 1236.33,-371.22"/>
</g>
<!-- Node21&#45;&gt;Node5 -->
<g id="edge33" class="edge">
<title>Node21&#45;&gt;Node5</title>
<path fill="none" stroke="#63b8ff" d="M1273.29,-312.01C1200.01,-302.07 1101.29,-286.26 1089.48,-272 1080.97,-261.73 1082.47,-253.34 1089.48,-242 1165.27,-119.37 1346.85,-81.82 1442.37,-70.42"/>
<polygon fill="#63b8ff" stroke="#63b8ff" points="1273.07,-315.52 1283.45,-313.38 1274,-308.58 1273.07,-315.52"/>
</g>
<!-- Node22 -->
<g id="node22" class="node">
<title>Node22</title>
<g id="a_node22"><a xlink:href="ccf__acme__client_8h.html" target="_top" xlink:title=" ">
<polygon fill="white" stroke="#666666" points="1427.98,-266.5 1278.98,-266.5 1278.98,-247.5 1427.98,-247.5 1427.98,-266.5"/>
<text text-anchor="middle" x="1353.48" y="-254.5" font-family="Helvetica,sans-Serif" font-size="10.00">src/node/ccf_acme_client.h</text>
</a>
</g>
</g>
<!-- Node21&#45;&gt;Node22 -->
<g id="edge34" class="edge">
<title>Node21&#45;&gt;Node22</title>
<path fill="none" stroke="#63b8ff" d="M1353.48,-297.6C1353.48,-286.8 1353.48,-274.78 1353.48,-266.84"/>
<polygon fill="#63b8ff" stroke="#63b8ff" points="1349.98,-297.8 1353.48,-307.8 1356.98,-297.8 1349.98,-297.8"/>
</g>
<!-- Node22&#45;&gt;Node12 -->
<g id="edge35" class="edge">
<title>Node22&#45;&gt;Node12</title>
<path fill="none" stroke="#63b8ff" d="M1353.48,-237.08C1353.48,-225.13 1353.48,-210.22 1353.48,-200.91"/>
<polygon fill="#63b8ff" stroke="#63b8ff" points="1349.98,-237.37 1353.48,-247.37 1356.98,-237.37 1349.98,-237.37"/>
</g>
<!-- Node23&#45;&gt;Node5 -->
<g id="edge40" class="edge">
<title>Node23&#45;&gt;Node5</title>
<path fill="none" stroke="#63b8ff" d="M1033.76,-173.59C1050.09,-154.69 1079.72,-124.42 1112.48,-110 1170.09,-84.65 1347.31,-72.74 1442.13,-68.05"/>
<polygon fill="#63b8ff" stroke="#63b8ff" points="1030.97,-171.46 1027.22,-181.37 1036.34,-175.96 1030.97,-171.46"/>
</g>
<!-- Node24&#45;&gt;Node5 -->
<g id="edge42" class="edge">
<title>Node24&#45;&gt;Node5</title>
<path fill="none" stroke="#63b8ff" d="M1826.9,-171.38C1822.3,-152.76 1812.38,-124.82 1792.48,-110 1757.41,-83.89 1638.7,-72.77 1564.77,-68.29"/>
<polygon fill="#63b8ff" stroke="#63b8ff" points="1823.52,-172.31 1829.08,-181.33 1830.36,-170.81 1823.52,-172.31"/>
</g>
<!-- Node25&#45;&gt;Node5 -->
<g id="edge44" class="edge">
<title>Node25&#45;&gt;Node5</title>
<path fill="none" stroke="#63b8ff" d="M1580.15,-369.27C1629.11,-343.4 1702.43,-294.03 1672.48,-242 1656.58,-214.39 1633.03,-228.51 1610.48,-206 1575.52,-171.11 1585.95,-148.07 1554.48,-110 1542.8,-95.87 1526.42,-82.44 1515.4,-74.1"/>
<polygon fill="#63b8ff" stroke="#63b8ff" points="1578.31,-366.28 1571.03,-373.97 1581.52,-372.5 1578.31,-366.28"/>
</g>
<!-- Node26 -->
<g id="node26" class="node">
<title>Node26</title>
<g id="a_node26"><a xlink:href="rpc__sessions_8h.html" target="_top" xlink:title=" ">
<polygon fill="white" stroke="#666666" points="1613.48,-332.5 1467.48,-332.5 1467.48,-313.5 1613.48,-313.5 1613.48,-332.5"/>
<text text-anchor="middle" x="1540.48" y="-320.5" font-family="Helvetica,sans-Serif" font-size="10.00">src/enclave/rpc_sessions.h</text>
</a>
</g>
</g>
<!-- Node25&#45;&gt;Node26 -->
<g id="edge45" class="edge">
<title>Node25&#45;&gt;Node26</title>
<path fill="none" stroke="#63b8ff" d="M1540.48,-363.6C1540.48,-352.8 1540.48,-340.78 1540.48,-332.84"/>
<polygon fill="#63b8ff" stroke="#63b8ff" points="1536.98,-363.8 1540.48,-373.8 1543.98,-363.8 1536.98,-363.8"/>
</g>
<!-- Node26&#45;&gt;Node5 -->
<g id="edge46" class="edge">
<title>Node26&#45;&gt;Node5</title>
<path fill="none" stroke="#63b8ff" d="M1585.99,-310.61C1626.95,-297.99 1677.67,-274.95 1656.48,-242 1635.6,-209.55 1604.67,-233.37 1577.48,-206 1544.53,-172.84 1557.5,-150.69 1534.48,-110 1527.06,-96.89 1516.81,-82.78 1510.16,-74.05"/>
<polygon fill="#63b8ff" stroke="#63b8ff" points="1584.97,-307.26 1576.37,-313.45 1586.95,-313.98 1584.97,-307.26"/>
</g>
<!-- Node26&#45;&gt;Node12 -->
<g id="edge48" class="edge">
<title>Node26&#45;&gt;Node12</title>
<path fill="none" stroke="#63b8ff" d="M1520.38,-307.05C1507.24,-297.2 1489.74,-283.96 1474.48,-272 1457.82,-258.94 1454.84,-254.11 1437.48,-242 1414.65,-226.08 1386.6,-210.03 1369.38,-200.56"/>
<polygon fill="#63b8ff" stroke="#63b8ff" points="1518.6,-310.08 1528.71,-313.26 1522.79,-304.47 1518.6,-310.08"/>
</g>
<!-- Node26&#45;&gt;Node22 -->
<g id="edge47" class="edge">
<title>Node26&#45;&gt;Node22</title>
<path fill="none" stroke="#63b8ff" d="M1505.42,-310C1468.49,-297.36 1411.26,-277.78 1378.6,-266.6"/>
<polygon fill="#63b8ff" stroke="#63b8ff" points="1504.66,-313.44 1515.26,-313.37 1506.93,-306.82 1504.66,-313.44"/>
</g>
<!-- Node27 -->
<g id="node27" class="node">
<title>Node27</title>
<g id="a_node27"><a xlink:href="quote__endorsements__client_8h.html" target="_top" xlink:title=" ">
<polygon fill="white" stroke="#666666" points="1647.48,-272 1483.48,-272 1483.48,-242 1647.48,-242 1647.48,-272"/>
<text text-anchor="start" x="1491.48" y="-260" font-family="Helvetica,sans-Serif" font-size="10.00">src/node/quote_endorsements</text>
<text text-anchor="middle" x="1565.48" y="-249" font-family="Helvetica,sans-Serif" font-size="10.00">_client.h</text>
</a>
</g>
</g>
<!-- Node26&#45;&gt;Node27 -->
<g id="edge49" class="edge">
<title>Node26&#45;&gt;Node27</title>
<path fill="none" stroke="#63b8ff" d="M1547.52,-303.98C1551.42,-293.98 1556.22,-281.71 1559.87,-272.36"/>
<polygon fill="#63b8ff" stroke="#63b8ff" points="1544.23,-302.78 1543.85,-313.37 1550.75,-305.33 1544.23,-302.78"/>
</g>
<!-- Node27&#45;&gt;Node12 -->
<g id="edge50" class="edge">
<title>Node27&#45;&gt;Node12</title>
<path fill="none" stroke="#63b8ff" d="M1509.33,-239.05C1468.22,-226.64 1414.14,-210.31 1381.69,-200.52"/>
<polygon fill="#63b8ff" stroke="#63b8ff" points="1508.37,-242.42 1518.95,-241.95 1510.39,-235.71 1508.37,-242.42"/>
</g>
<!-- Node28&#45;&gt;Node5 -->
<g id="edge54" class="edge">
<title>Node28&#45;&gt;Node5</title>
<path fill="none" stroke="#63b8ff" d="M2067.06,-431.56C2061.04,-423.3 2054.79,-413.61 2050.48,-404 2035.51,-370.66 2031.48,-360.54 2031.48,-324 2031.48,-324 2031.48,-324 2031.48,-190 2031.48,-153.46 2040.13,-133.89 2012.48,-110 1979.25,-81.3 1692.93,-70.37 1564.9,-66.9"/>
<polygon fill="#63b8ff" stroke="#63b8ff" points="2064.33,-433.75 2073.17,-439.58 2069.9,-429.51 2064.33,-433.75"/>
</g>
<!-- Node29 -->
<g id="node29" class="node">
<title>Node29</title>
<g id="a_node29"><a xlink:href="external__executor_8cpp.html" target="_top" xlink:title=" ">
<polygon fill="white" stroke="#666666" points="2207.48,-404 2059.48,-404 2059.48,-374 2207.48,-374 2207.48,-404"/>
<text text-anchor="start" x="2067.48" y="-392" font-family="Helvetica,sans-Serif" font-size="10.00">src/apps/external_executor</text>
<text text-anchor="middle" x="2133.48" y="-381" font-family="Helvetica,sans-Serif" font-size="10.00">/external_executor.cpp</text>
</a>
</g>
</g>
<!-- Node28&#45;&gt;Node29 -->
<g id="edge53" class="edge">
<title>Node28&#45;&gt;Node29</title>
<path fill="none" stroke="#63b8ff" d="M2102.33,-431.53C2109.16,-422.43 2116.83,-412.19 2122.86,-404.16"/>
<polygon fill="#63b8ff" stroke="#63b8ff" points="2099.33,-429.7 2096.13,-439.8 2104.93,-433.9 2099.33,-429.7"/>
</g>
<!-- Node30 -->
<g id="node30" class="node">
<title>Node30</title>
<g id="a_node30"><a xlink:href="historical__queries__adapter_8cpp.html" target="_top" xlink:title=" ">
<polygon fill="white" stroke="#666666" points="2345.48,-404 2225.48,-404 2225.48,-374 2345.48,-374 2345.48,-404"/>
<text text-anchor="start" x="2233.48" y="-392" font-family="Helvetica,sans-Serif" font-size="10.00">src/node/historical</text>
<text text-anchor="middle" x="2285.48" y="-381" font-family="Helvetica,sans-Serif" font-size="10.00">_queries_adapter.cpp</text>
</a>
</g>
</g>
<!-- Node28&#45;&gt;Node30 -->
<g id="edge55" class="edge">
<title>Node28&#45;&gt;Node30</title>
<path fill="none" stroke="#63b8ff" d="M2139.05,-436.86C2171.17,-426.58 2211.49,-413.68 2241.69,-404.01"/>
<polygon fill="#63b8ff" stroke="#63b8ff" points="2137.83,-433.57 2129.37,-439.95 2139.96,-440.24 2137.83,-433.57"/>
</g>
<!-- Node31&#45;&gt;Node5 -->
<g id="edge58" class="edge">
<title>Node31&#45;&gt;Node5</title>
<path fill="none" stroke="#63b8ff" d="M1853.49,-114.02C1844.08,-112.66 1834.54,-111.29 1825.48,-110 1734.68,-97.11 1629.41,-82.65 1564.63,-73.81"/>
<polygon fill="#63b8ff" stroke="#63b8ff" points="1853.22,-117.52 1863.62,-115.49 1854.22,-110.59 1853.22,-117.52"/>
</g>
</g>
</svg>
