<?xml version="1.0" encoding="UTF-8" standalone="no"?>
<!DOCTYPE svg PUBLIC "-//W3C//DTD SVG 1.1//EN"
 "http://www.w3.org/Graphics/SVG/1.1/DTD/svg11.dtd">
<!-- Generated by graphviz version 2.43.0 (0)
 -->
<!-- Title: src/node/rpc/node_operation_interface.h Pages: 1 -->
<!--zoomable 599 -->
<svg id="main" version="1.1" xmlns="http://www.w3.org/2000/svg" xmlns:xlink="http://www.w3.org/1999/xlink" xml:space="preserve" onload="init(evt)">
<style type="text/css"><![CDATA[
.edge:hover path { stroke: red; }
.edge:hover polygon { stroke: red; fill: red; }
]]></style>
<script type="text/javascript"><![CDATA[
var edges = document.getElementsByTagName('g');
if (edges && edges.length) {
  for (var i=0;i<edges.length;i++) {
    if (edges[i].id.substr(0,4)=='edge') {
      edges[i].setAttribute('class','edge');
    }
  }
}
]]></script>
        <defs>
                <circle id="rim" cx="0" cy="0" r="7"/>
                <circle id="rim2" cx="0" cy="0" r="3.5"/>
                <g id="zoomPlus">
                        <use xlink:href="#rim" fill="#404040">
                                <set attributeName="fill" to="#808080" begin="zoomplus.mouseover" end="zoomplus.mouseout"/>
                        </use>
                        <path d="M-4,0h8M0,-4v8" fill="none" stroke="white" stroke-width="1.5" pointer-events="none"/>
                </g>
                <g id="zoomMin">
                        <use xlink:href="#rim" fill="#404040">
                                <set attributeName="fill" to="#808080" begin="zoomminus.mouseover" end="zoomminus.mouseout"/>
                        </use>
                        <path d="M-4,0h8" fill="none" stroke="white" stroke-width="1.5" pointer-events="none"/>
                </g>
                <g id="dirArrow">
                        <path fill="none" stroke="white" stroke-width="1.5" d="M0,-3.0v7 M-2.5,-0.5L0,-3.0L2.5,-0.5"/>
                </g>
               <g id="resetDef">
                       <use xlink:href="#rim2" fill="#404040">
                               <set attributeName="fill" to="#808080" begin="reset.mouseover" end="reset.mouseout"/>
                       </use>
               </g>
        </defs>

<script type="text/javascript">
var viewWidth = 2020;
var viewHeight = 599;
var sectionId = 'dynsection-1';
</script>
<script xlink:href="svgpan.js"/>
<svg id="graph" class="graph">
<g id="viewport">
<title>src/node/rpc/node_operation_interface.h</title>
<!-- Node1 -->
<g id="node1" class="node">
<title>Node1</title>
<g id="a_node1"><a xlink:title=" ">
<polygon fill="#999999" stroke="#666666" points="1267.97,-591 1112.97,-591 1112.97,-561 1267.97,-561 1267.97,-591"/>
<text text-anchor="start" x="1120.97" y="-579" font-family="Helvetica,sans-Serif" font-size="10.00">src/node/rpc/node_operation</text>
<text text-anchor="middle" x="1190.47" y="-568" font-family="Helvetica,sans-Serif" font-size="10.00">_interface.h</text>
</a>
</g>
</g>
<!-- Node2 -->
<g id="node2" class="node">
<title>Node2</title>
<g id="a_node2"><a xlink:href="member__frontend_8h.html" target="_top" xlink:title=" ">
<polygon fill="white" stroke="#666666" points="991.47,-338 871.47,-338 871.47,-308 991.47,-308 991.47,-338"/>
<text text-anchor="start" x="879.47" y="-326" font-family="Helvetica,sans-Serif" font-size="10.00">src/node/rpc/member</text>
<text text-anchor="middle" x="931.47" y="-315" font-family="Helvetica,sans-Serif" font-size="10.00">_frontend.h</text>
</a>
</g>
</g>
<!-- Node1&#45;&gt;Node2 -->
<g id="edge1" class="edge">
<title>Node1&#45;&gt;Node2</title>
<path fill="none" stroke="#63b8ff" d="M1130.1,-557.72C1082.61,-541.56 1017.36,-513.32 973.47,-470 936.68,-433.68 931.6,-367.39 931.25,-338.32"/>
<polygon fill="#63b8ff" stroke="#63b8ff" points="1129.06,-561.07 1139.65,-560.89 1131.26,-554.42 1129.06,-561.07"/>
</g>
<!-- Node5 -->
<g id="node5" class="node">
<title>Node5</title>
<g id="a_node5"><a xlink:href="node__interface_8h.html" target="_top" xlink:title=" ">
<polygon fill="white" stroke="#666666" points="1270.97,-525 1109.97,-525 1109.97,-506 1270.97,-506 1270.97,-525"/>
<text text-anchor="middle" x="1190.47" y="-513" font-family="Helvetica,sans-Serif" font-size="10.00">src/node/rpc/node_interface.h</text>
</a>
</g>
</g>
<!-- Node1&#45;&gt;Node5 -->
<g id="edge4" class="edge">
<title>Node1&#45;&gt;Node5</title>
<path fill="none" stroke="#63b8ff" d="M1190.47,-550.75C1190.47,-541.72 1190.47,-532.03 1190.47,-525.27"/>
<polygon fill="#63b8ff" stroke="#63b8ff" points="1186.97,-550.84 1190.47,-560.84 1193.97,-550.84 1186.97,-550.84"/>
</g>
<!-- Node32 -->
<g id="node32" class="node">
<title>Node32</title>
<g id="a_node32"><a xlink:href="node__operation_8h.html" target="_top" xlink:title=" ">
<polygon fill="white" stroke="#666666" points="1843.47,-464.5 1679.47,-464.5 1679.47,-445.5 1843.47,-445.5 1843.47,-464.5"/>
<text text-anchor="middle" x="1761.47" y="-452.5" font-family="Helvetica,sans-Serif" font-size="10.00">src/node/rpc/node_operation.h</text>
</a>
</g>
</g>
<!-- Node1&#45;&gt;Node32 -->
<g id="edge61" class="edge">
<title>Node1&#45;&gt;Node32</title>
<path fill="none" stroke="#63b8ff" d="M1267.73,-558.9C1390.55,-533.3 1626.06,-484.22 1720.66,-464.51"/>
<polygon fill="#63b8ff" stroke="#63b8ff" points="1266.73,-555.53 1257.65,-561 1268.15,-562.39 1266.73,-555.53"/>
</g>
<!-- Node3 -->
<g id="node3" class="node">
<title>Node3</title>
<g id="a_node3"><a xlink:href="src_2enclave_2enclave_8h.html" target="_top" xlink:title=" ">
<polygon fill="white" stroke="#666666" points="1360.47,-74 1238.47,-74 1238.47,-55 1360.47,-55 1360.47,-74"/>
<text text-anchor="middle" x="1299.47" y="-62" font-family="Helvetica,sans-Serif" font-size="10.00">src/enclave/enclave.h</text>
</a>
</g>
</g>
<!-- Node2&#45;&gt;Node3 -->
<g id="edge2" class="edge">
<title>Node2&#45;&gt;Node3</title>
<path fill="none" stroke="#63b8ff" d="M916.21,-299.18C889.69,-256.41 842.31,-163.68 890.47,-110 913.24,-84.61 1129.71,-72.34 1238.16,-67.74"/>
<polygon fill="#63b8ff" stroke="#63b8ff" points="913.34,-301.19 921.67,-307.75 919.25,-297.43 913.34,-301.19"/>
</g>
<!-- Node4 -->
<g id="node4" class="node">
<title>Node4</title>
<g id="a_node4"><a xlink:href="enclave_2main_8cpp.html" target="_top" xlink:title=" ">
<polygon fill="white" stroke="#666666" points="1359.47,-19 1239.47,-19 1239.47,0 1359.47,0 1359.47,-19"/>
<text text-anchor="middle" x="1299.47" y="-7" font-family="Helvetica,sans-Serif" font-size="10.00">src/enclave/main.cpp</text>
</a>
</g>
</g>
<!-- Node3&#45;&gt;Node4 -->
<g id="edge3" class="edge">
<title>Node3&#45;&gt;Node4</title>
<path fill="none" stroke="#63b8ff" d="M1299.47,-44.66C1299.47,-35.93 1299.47,-25.99 1299.47,-19.09"/>
<polygon fill="#63b8ff" stroke="#63b8ff" points="1295.97,-44.75 1299.47,-54.75 1302.97,-44.75 1295.97,-44.75"/>
</g>
<!-- Node5&#45;&gt;Node2 -->
<g id="edge53" class="edge">
<title>Node5&#45;&gt;Node2</title>
<path fill="none" stroke="#63b8ff" d="M1099.69,-508.4C1067.23,-502.39 1032.13,-491.07 1005.47,-470 961.55,-435.29 941.4,-367.54 934.45,-338.16"/>
<polygon fill="#63b8ff" stroke="#63b8ff" points="1099.22,-511.87 1109.66,-510.1 1100.39,-504.97 1099.22,-511.87"/>
</g>
<!-- Node6 -->
<g id="node6" class="node">
<title>Node6</title>
<g id="a_node6"><a xlink:href="wrap_8cpp.html" target="_top" xlink:title=" ">
<polygon fill="white" stroke="#666666" points="329.97,-266.5 240.97,-266.5 240.97,-247.5 329.97,-247.5 329.97,-266.5"/>
<text text-anchor="middle" x="285.47" y="-254.5" font-family="Helvetica,sans-Serif" font-size="10.00">src/js/wrap.cpp</text>
</a>
</g>
</g>
<!-- Node5&#45;&gt;Node6 -->
<g id="edge5" class="edge">
<title>Node5&#45;&gt;Node6</title>
<path fill="none" stroke="#63b8ff" d="M1099.46,-507.73C834.46,-487.09 77.62,-421.28 6.47,-338 -2.19,-327.86 -2.09,-318.23 6.47,-308 35.84,-272.9 169.81,-262.41 240.88,-259.3"/>
<polygon fill="#63b8ff" stroke="#63b8ff" points="1099.57,-511.25 1109.81,-508.53 1100.11,-504.27 1099.57,-511.25"/>
</g>
<!-- Node7 -->
<g id="node7" class="node">
<title>Node7</title>
<g id="a_node7"><a xlink:href="wrap_8h.html" target="_top" xlink:title=" ">
<polygon fill="white" stroke="#666666" points="692.47,-398.5 614.47,-398.5 614.47,-379.5 692.47,-379.5 692.47,-398.5"/>
<text text-anchor="middle" x="653.47" y="-386.5" font-family="Helvetica,sans-Serif" font-size="10.00">src/js/wrap.h</text>
</a>
</g>
</g>
<!-- Node5&#45;&gt;Node7 -->
<g id="edge6" class="edge">
<title>Node5&#45;&gt;Node7</title>
<path fill="none" stroke="#63b8ff" d="M1134.29,-504.14C1089.09,-495.59 1024.02,-482.84 967.47,-470 863.51,-446.4 741.4,-413.9 684.98,-398.61"/>
<polygon fill="#63b8ff" stroke="#63b8ff" points="1133.72,-507.59 1144.19,-506 1135.01,-500.71 1133.72,-507.59"/>
</g>
<!-- Node16 -->
<g id="node16" class="node">
<title>Node16</title>
<g id="a_node16"><a xlink:href="node__frontend_8h.html" target="_top" xlink:title=" ">
<polygon fill="white" stroke="#666666" points="1243.47,-332.5 1085.47,-332.5 1085.47,-313.5 1243.47,-313.5 1243.47,-332.5"/>
<text text-anchor="middle" x="1164.47" y="-320.5" font-family="Helvetica,sans-Serif" font-size="10.00">src/node/rpc/node_frontend.h</text>
</a>
</g>
</g>
<!-- Node5&#45;&gt;Node16 -->
<g id="edge58" class="edge">
<title>Node5&#45;&gt;Node16</title>
<path fill="none" stroke="#63b8ff" d="M1206.92,-498.37C1213.75,-490.52 1220.91,-480.53 1224.47,-470 1230.9,-450.99 1223.47,-384.16 1218.47,-374 1209.67,-356.12 1191.54,-341.46 1178.72,-332.74"/>
<polygon fill="#63b8ff" stroke="#63b8ff" points="1204.34,-495.99 1200.08,-505.69 1209.46,-500.77 1204.34,-495.99"/>
</g>
<!-- Node18 -->
<g id="node18" class="node">
<title>Node18</title>
<g id="a_node18"><a xlink:href="historical__queries_8h.html" target="_top" xlink:title=" ">
<polygon fill="white" stroke="#666666" points="1025.47,-206 919.47,-206 919.47,-176 1025.47,-176 1025.47,-206"/>
<text text-anchor="start" x="927.47" y="-194" font-family="Helvetica,sans-Serif" font-size="10.00">src/node/historical</text>
<text text-anchor="middle" x="972.47" y="-183" font-family="Helvetica,sans-Serif" font-size="10.00">_queries.h</text>
</a>
</g>
</g>
<!-- Node5&#45;&gt;Node18 -->
<g id="edge28" class="edge">
<title>Node5&#45;&gt;Node18</title>
<path fill="none" stroke="#63b8ff" d="M1111.67,-503.2C1090.06,-496.65 1068.27,-486.31 1052.47,-470 1042.86,-460.08 990.68,-261.9 976.2,-206.36"/>
<polygon fill="#63b8ff" stroke="#63b8ff" points="1110.98,-506.64 1121.56,-505.95 1112.86,-499.9 1110.98,-506.64"/>
</g>
<!-- Node20 -->
<g id="node20" class="node">
<title>Node20</title>
<g id="a_node20"><a xlink:href="node__configuration__subsystem_8h.html" target="_top" xlink:title=" ">
<polygon fill="white" stroke="#666666" points="1215.47,-470 1061.47,-470 1061.47,-440 1215.47,-440 1215.47,-470"/>
<text text-anchor="start" x="1069.47" y="-458" font-family="Helvetica,sans-Serif" font-size="10.00">src/node/node_configuration</text>
<text text-anchor="middle" x="1138.47" y="-447" font-family="Helvetica,sans-Serif" font-size="10.00">_subsystem.h</text>
</a>
</g>
</g>
<!-- Node5&#45;&gt;Node20 -->
<g id="edge32" class="edge">
<title>Node5&#45;&gt;Node20</title>
<path fill="none" stroke="#63b8ff" d="M1175.94,-498.15C1168.1,-489.34 1158.53,-478.56 1151.02,-470.11"/>
<polygon fill="#63b8ff" stroke="#63b8ff" points="1173.54,-500.72 1182.8,-505.87 1178.77,-496.07 1173.54,-500.72"/>
</g>
<!-- Node25 -->
<g id="node25" class="node">
<title>Node25</title>
<g id="a_node25"><a xlink:href="acme__subsystem_8h.html" target="_top" xlink:title=" ">
<polygon fill="white" stroke="#666666" points="1410.97,-200.5 1237.97,-200.5 1237.97,-181.5 1410.97,-181.5 1410.97,-200.5"/>
<text text-anchor="middle" x="1324.47" y="-188.5" font-family="Helvetica,sans-Serif" font-size="10.00">src/node/rpc/acme_subsystem.h</text>
</a>
</g>
</g>
<!-- Node5&#45;&gt;Node25 -->
<g id="edge43" class="edge">
<title>Node5&#45;&gt;Node25</title>
<path fill="none" stroke="#63b8ff" d="M1220.01,-501.49C1270.2,-477.54 1370.56,-421.19 1410.47,-338 1454.5,-246.23 1280.28,-288.44 1267.47,-272 1247.76,-246.71 1287.74,-215.42 1310.37,-200.58"/>
<polygon fill="#63b8ff" stroke="#63b8ff" points="1218.26,-498.45 1210.67,-505.85 1221.22,-504.79 1218.26,-498.45"/>
</g>
<!-- Node26 -->
<g id="node26" class="node">
<title>Node26</title>
<g id="a_node26"><a xlink:href="custom__protocol__subsystem_8h.html" target="_top" xlink:title=" ">
<polygon fill="white" stroke="#666666" points="1981.97,-404 1852.97,-404 1852.97,-374 1981.97,-374 1981.97,-404"/>
<text text-anchor="start" x="1860.97" y="-392" font-family="Helvetica,sans-Serif" font-size="10.00">src/node/rpc/custom</text>
<text text-anchor="middle" x="1917.47" y="-381" font-family="Helvetica,sans-Serif" font-size="10.00">_protocol_subsystem.h</text>
</a>
</g>
</g>
<!-- Node5&#45;&gt;Node26 -->
<g id="edge45" class="edge">
<title>Node5&#45;&gt;Node26</title>
<path fill="none" stroke="#63b8ff" d="M1281.43,-511.33C1391.83,-506.46 1570.85,-494.92 1632.47,-470 1652.42,-461.93 1650.95,-449.05 1670.47,-440 1686.89,-432.39 1785.31,-413.72 1852.85,-401.47"/>
<polygon fill="#63b8ff" stroke="#63b8ff" points="1281.14,-507.84 1271.3,-511.77 1281.44,-514.84 1281.14,-507.84"/>
</g>
<!-- Node29 -->
<g id="node29" class="node">
<title>Node29</title>
<g id="a_node29"><a xlink:href="network__identity__subsystem_8h.html" target="_top" xlink:title=" ">
<polygon fill="white" stroke="#666666" points="1622.97,-470 1495.97,-470 1495.97,-440 1622.97,-440 1622.97,-470"/>
<text text-anchor="start" x="1503.97" y="-458" font-family="Helvetica,sans-Serif" font-size="10.00">src/node/rpc/network</text>
<text text-anchor="middle" x="1559.47" y="-447" font-family="Helvetica,sans-Serif" font-size="10.00">_identity_subsystem.h</text>
</a>
</g>
</g>
<!-- Node5&#45;&gt;Node29 -->
<g id="edge54" class="edge">
<title>Node5&#45;&gt;Node29</title>
<path fill="none" stroke="#63b8ff" d="M1259.01,-504.53C1318.03,-495.82 1405.45,-482.63 1481.47,-470 1486.08,-469.23 1490.85,-468.42 1495.64,-467.59"/>
<polygon fill="#63b8ff" stroke="#63b8ff" points="1258.45,-501.07 1249.06,-505.99 1259.47,-508 1258.45,-501.07"/>
</g>
<!-- Node5&#45;&gt;Node32 -->
<g id="edge59" class="edge">
<title>Node5&#45;&gt;Node32</title>
<path fill="none" stroke="#63b8ff" d="M1281.51,-507.37C1377.24,-499.55 1532.16,-485.95 1665.47,-470 1678.76,-468.41 1693.06,-466.46 1706.45,-464.52"/>
<polygon fill="#63b8ff" stroke="#63b8ff" points="1280.97,-503.9 1271.29,-508.2 1281.54,-510.88 1280.97,-503.9"/>
</g>
<!-- Node7&#45;&gt;Node2 -->
<g id="edge23" class="edge">
<title>Node7&#45;&gt;Node2</title>
<path fill="none" stroke="#63b8ff" d="M700.6,-377.15C747.66,-366.32 820.16,-349.62 871.34,-337.84"/>
<polygon fill="#63b8ff" stroke="#63b8ff" points="699.63,-373.78 690.67,-379.44 701.2,-380.6 699.63,-373.78"/>
</g>
<!-- Node7&#45;&gt;Node3 -->
<g id="edge8" class="edge">
<title>Node7&#45;&gt;Node3</title>
<path fill="none" stroke="#63b8ff" d="M702.69,-381.14C731.06,-374.67 765.19,-362.15 786.47,-338 810.63,-310.58 805.47,-294.54 805.47,-258 805.47,-258 805.47,-258 805.47,-190 805.47,-144.47 829.5,-131.81 869.47,-110 931.48,-76.16 1134.81,-68.02 1238.09,-66.09"/>
<polygon fill="#63b8ff" stroke="#63b8ff" points="701.61,-377.79 692.54,-383.27 703.05,-384.65 701.61,-377.79"/>
</g>
<!-- Node7&#45;&gt;Node6 -->
<g id="edge18" class="edge">
<title>Node7&#45;&gt;Node6</title>
<path fill="none" stroke="#63b8ff" d="M603.95,-387.84C462.06,-386.89 61.66,-380.42 22.47,-338 -41.58,-268.68 150.26,-258.72 240.87,-257.77"/>
<polygon fill="#63b8ff" stroke="#63b8ff" points="604.08,-391.35 614.1,-387.91 604.13,-384.35 604.08,-391.35"/>
</g>
<!-- Node8 -->
<g id="node8" class="node">
<title>Node8</title>
<g id="a_node8"><a xlink:href="js__generic__base_8cpp.html" target="_top" xlink:title=" ">
<polygon fill="white" stroke="#666666" points="149.47,-338 31.47,-338 31.47,-308 149.47,-308 149.47,-338"/>
<text text-anchor="start" x="39.47" y="-326" font-family="Helvetica,sans-Serif" font-size="10.00">src/apps/js_generic</text>
<text text-anchor="middle" x="90.47" y="-315" font-family="Helvetica,sans-Serif" font-size="10.00">/js_generic_base.cpp</text>
</a>
</g>
</g>
<!-- Node7&#45;&gt;Node8 -->
<g id="edge7" class="edge">
<title>Node7&#45;&gt;Node8</title>
<path fill="none" stroke="#63b8ff" d="M604.05,-384.69C514.74,-378.34 320.67,-362.82 158.47,-338 155.61,-337.56 152.69,-337.08 149.74,-336.58"/>
<polygon fill="#63b8ff" stroke="#63b8ff" points="603.93,-388.19 614.15,-385.4 604.42,-381.21 603.93,-388.19"/>
</g>
<!-- Node9 -->
<g id="node9" class="node">
<title>Node9</title>
<g id="a_node9"><a xlink:href="consensus_8cpp.html" target="_top" xlink:title=" ">
<polygon fill="white" stroke="#666666" points="283.47,-332.5 167.47,-332.5 167.47,-313.5 283.47,-313.5 283.47,-332.5"/>
<text text-anchor="middle" x="225.47" y="-320.5" font-family="Helvetica,sans-Serif" font-size="10.00">src/js/consensus.cpp</text>
</a>
</g>
</g>
<!-- Node7&#45;&gt;Node9 -->
<g id="edge9" class="edge">
<title>Node7&#45;&gt;Node9</title>
<path fill="none" stroke="#63b8ff" d="M604.1,-382.25C534.43,-373.88 403.35,-357.24 292.47,-338 283.22,-336.4 273.3,-334.45 264,-332.52"/>
<polygon fill="#63b8ff" stroke="#63b8ff" points="603.99,-385.76 614.34,-383.47 604.82,-378.81 603.99,-385.76"/>
</g>
<!-- Node10 -->
<g id="node10" class="node">
<title>Node10</title>
<g id="a_node10"><a xlink:href="conv_8cpp.html" target="_top" xlink:title=" ">
<polygon fill="white" stroke="#666666" points="389.47,-332.5 301.47,-332.5 301.47,-313.5 389.47,-313.5 389.47,-332.5"/>
<text text-anchor="middle" x="345.47" y="-320.5" font-family="Helvetica,sans-Serif" font-size="10.00">src/js/conv.cpp</text>
</a>
</g>
</g>
<!-- Node7&#45;&gt;Node10 -->
<g id="edge11" class="edge">
<title>Node7&#45;&gt;Node10</title>
<path fill="none" stroke="#63b8ff" d="M604.56,-379.38C553.08,-370.08 469.78,-354.39 398.47,-338 391.33,-336.36 383.69,-334.44 376.49,-332.55"/>
<polygon fill="#63b8ff" stroke="#63b8ff" points="603.96,-382.83 614.42,-381.15 605.2,-375.94 603.96,-382.83"/>
</g>
<!-- Node11 -->
<g id="node11" class="node">
<title>Node11</title>
<g id="a_node11"><a xlink:href="crypto_8cpp.html" target="_top" xlink:title=" ">
<polygon fill="white" stroke="#666666" points="503.47,-332.5 407.47,-332.5 407.47,-313.5 503.47,-313.5 503.47,-332.5"/>
<text text-anchor="middle" x="455.47" y="-320.5" font-family="Helvetica,sans-Serif" font-size="10.00">src/js/crypto.cpp</text>
</a>
</g>
</g>
<!-- Node7&#45;&gt;Node11 -->
<g id="edge13" class="edge">
<title>Node7&#45;&gt;Node11</title>
<path fill="none" stroke="#63b8ff" d="M617.1,-376.24C578.02,-363.61 516.87,-343.85 482.06,-332.6"/>
<polygon fill="#63b8ff" stroke="#63b8ff" points="616.17,-379.62 626.77,-379.37 618.33,-372.96 616.17,-379.62"/>
</g>
<!-- Node12 -->
<g id="node12" class="node">
<title>Node12</title>
<g id="a_node12"><a xlink:href="historical_8cpp.html" target="_top" xlink:title=" ">
<polygon fill="white" stroke="#666666" points="777.47,-332.5 667.47,-332.5 667.47,-313.5 777.47,-313.5 777.47,-332.5"/>
<text text-anchor="middle" x="722.47" y="-320.5" font-family="Helvetica,sans-Serif" font-size="10.00">src/js/historical.cpp</text>
</a>
</g>
</g>
<!-- Node7&#45;&gt;Node12 -->
<g id="edge15" class="edge">
<title>Node7&#45;&gt;Node12</title>
<path fill="none" stroke="#63b8ff" d="M670.36,-372.33C683.72,-359.94 701.89,-343.09 712.87,-332.91"/>
<polygon fill="#63b8ff" stroke="#63b8ff" points="667.73,-370 662.78,-379.37 672.49,-375.13 667.73,-370"/>
</g>
<!-- Node13 -->
<g id="node13" class="node">
<title>Node13</title>
<g id="a_node13"><a xlink:href="openenclave_8cpp.html" target="_top" xlink:title=" ">
<polygon fill="white" stroke="#666666" points="649.47,-332.5 521.47,-332.5 521.47,-313.5 649.47,-313.5 649.47,-332.5"/>
<text text-anchor="middle" x="585.47" y="-320.5" font-family="Helvetica,sans-Serif" font-size="10.00">src/js/openenclave.cpp</text>
</a>
</g>
</g>
<!-- Node7&#45;&gt;Node13 -->
<g id="edge17" class="edge">
<title>Node7&#45;&gt;Node13</title>
<path fill="none" stroke="#63b8ff" d="M636.82,-372.33C623.65,-359.94 605.75,-343.09 594.93,-332.91"/>
<polygon fill="#63b8ff" stroke="#63b8ff" points="634.62,-375.06 644.3,-379.37 639.42,-369.97 634.62,-375.06"/>
</g>
<!-- Node14 -->
<g id="node14" class="node">
<title>Node14</title>
<g id="a_node14"><a xlink:href="node__state_8h.html" target="_top" xlink:title=" ">
<polygon fill="white" stroke="#666666" points="1553.47,-200.5 1429.47,-200.5 1429.47,-181.5 1553.47,-181.5 1553.47,-200.5"/>
<text text-anchor="middle" x="1491.47" y="-188.5" font-family="Helvetica,sans-Serif" font-size="10.00">src/node/node_state.h</text>
</a>
</g>
</g>
<!-- Node7&#45;&gt;Node14 -->
<g id="edge19" class="edge">
<title>Node7&#45;&gt;Node14</title>
<path fill="none" stroke="#63b8ff" d="M702.78,-377.5C736.63,-369.25 782.03,-356.13 819.47,-338 840.44,-327.85 840.96,-316.97 862.47,-308 1095.17,-210.99 1172.79,-253.05 1420.47,-206 1429.6,-204.26 1439.39,-202.36 1448.69,-200.54"/>
<polygon fill="#63b8ff" stroke="#63b8ff" points="701.59,-374.18 692.67,-379.9 703.21,-380.99 701.59,-374.18"/>
</g>
<!-- Node7&#45;&gt;Node16 -->
<g id="edge24" class="edge">
<title>Node7&#45;&gt;Node16</title>
<path fill="none" stroke="#63b8ff" d="M702.86,-381.81C794.78,-370.3 992.19,-345.58 1096.57,-332.5"/>
<polygon fill="#63b8ff" stroke="#63b8ff" points="702.21,-378.37 692.72,-383.08 703.08,-385.31 702.21,-378.37"/>
</g>
<!-- Node9&#45;&gt;Node6 -->
<g id="edge10" class="edge">
<title>Node9&#45;&gt;Node6</title>
<path fill="none" stroke="#63b8ff" d="M240.49,-305.98C252.07,-293.62 267.67,-276.99 277.12,-266.91"/>
<polygon fill="#63b8ff" stroke="#63b8ff" points="237.85,-303.68 233.56,-313.37 242.95,-308.47 237.85,-303.68"/>
</g>
<!-- Node10&#45;&gt;Node6 -->
<g id="edge12" class="edge">
<title>Node10&#45;&gt;Node6</title>
<path fill="none" stroke="#63b8ff" d="M330.45,-305.98C318.86,-293.62 303.27,-276.99 293.82,-266.91"/>
<polygon fill="#63b8ff" stroke="#63b8ff" points="327.98,-308.47 337.38,-313.37 333.09,-303.68 327.98,-308.47"/>
</g>
<!-- Node11&#45;&gt;Node6 -->
<g id="edge14" class="edge">
<title>Node11&#45;&gt;Node6</title>
<path fill="none" stroke="#63b8ff" d="M423.17,-309.84C389.58,-297.2 337.87,-277.73 308.3,-266.6"/>
<polygon fill="#63b8ff" stroke="#63b8ff" points="421.95,-313.12 432.54,-313.37 424.42,-306.57 421.95,-313.12"/>
</g>
<!-- Node12&#45;&gt;Node6 -->
<g id="edge16" class="edge">
<title>Node12&#45;&gt;Node6</title>
<path fill="none" stroke="#63b8ff" d="M676.15,-311.4C670.22,-310.18 664.21,-309.01 658.47,-308 540.56,-287.24 400.33,-270.58 330.15,-262.79"/>
<polygon fill="#63b8ff" stroke="#63b8ff" points="675.51,-314.84 686.02,-313.48 676.96,-307.99 675.51,-314.84"/>
</g>
<!-- Node14&#45;&gt;Node3 -->
<g id="edge20" class="edge">
<title>Node14&#45;&gt;Node3</title>
<path fill="none" stroke="#63b8ff" d="M1466.1,-176.51C1448.3,-166.82 1424.08,-153.18 1403.47,-140 1368.67,-117.74 1329.54,-88.5 1310.74,-74.17"/>
<polygon fill="#63b8ff" stroke="#63b8ff" points="1464.81,-179.79 1475.27,-181.46 1468.14,-173.63 1464.81,-179.79"/>
</g>
<!-- Node15 -->
<g id="node15" class="node">
<title>Node15</title>
<g id="a_node15"><a xlink:href="gov__effects_8h.html" target="_top" xlink:title=" ">
<polygon fill="white" stroke="#666666" points="1556.47,-134.5 1412.47,-134.5 1412.47,-115.5 1556.47,-115.5 1556.47,-134.5"/>
<text text-anchor="middle" x="1484.47" y="-122.5" font-family="Helvetica,sans-Serif" font-size="10.00">src/node/rpc/gov_effects.h</text>
</a>
</g>
</g>
<!-- Node14&#45;&gt;Node15 -->
<g id="edge21" class="edge">
<title>Node14&#45;&gt;Node15</title>
<path fill="none" stroke="#63b8ff" d="M1489.4,-171.08C1488.09,-159.13 1486.46,-144.22 1485.44,-134.91"/>
<polygon fill="#63b8ff" stroke="#63b8ff" points="1485.96,-171.81 1490.53,-181.37 1492.92,-171.05 1485.96,-171.81"/>
</g>
<!-- Node15&#45;&gt;Node3 -->
<g id="edge22" class="edge">
<title>Node15&#45;&gt;Node3</title>
<path fill="none" stroke="#63b8ff" d="M1447.98,-112.46C1412.2,-101.15 1358.48,-84.16 1326.4,-74.02"/>
<polygon fill="#63b8ff" stroke="#63b8ff" points="1446.98,-115.82 1457.57,-115.49 1449.09,-109.14 1446.98,-115.82"/>
</g>
<!-- Node16&#45;&gt;Node3 -->
<g id="edge25" class="edge">
<title>Node16&#45;&gt;Node3</title>
<path fill="none" stroke="#63b8ff" d="M1168.41,-303.6C1177.45,-264.62 1202.71,-172.23 1250.47,-110 1261.38,-95.78 1277.19,-82.37 1287.88,-74.06"/>
<polygon fill="#63b8ff" stroke="#63b8ff" points="1164.96,-302.98 1166.2,-313.5 1171.79,-304.5 1164.96,-302.98"/>
</g>
<!-- Node17 -->
<g id="node17" class="node">
<title>Node17</title>
<g id="a_node17"><a xlink:href="jwt__key__auto__refresh_8h.html" target="_top" xlink:title=" ">
<polygon fill="white" stroke="#666666" points="1400.97,-272 1275.97,-272 1275.97,-242 1400.97,-242 1400.97,-272"/>
<text text-anchor="start" x="1283.97" y="-260" font-family="Helvetica,sans-Serif" font-size="10.00">src/node/jwt_key_auto</text>
<text text-anchor="middle" x="1338.47" y="-249" font-family="Helvetica,sans-Serif" font-size="10.00">_refresh.h</text>
</a>
</g>
</g>
<!-- Node16&#45;&gt;Node17 -->
<g id="edge26" class="edge">
<title>Node16&#45;&gt;Node17</title>
<path fill="none" stroke="#63b8ff" d="M1197.67,-309.79C1226.89,-299.04 1269.43,-283.4 1300.09,-272.12"/>
<polygon fill="#63b8ff" stroke="#63b8ff" points="1196.11,-306.63 1187.94,-313.37 1198.53,-313.2 1196.11,-306.63"/>
</g>
<!-- Node17&#45;&gt;Node14 -->
<g id="edge27" class="edge">
<title>Node17&#45;&gt;Node14</title>
<path fill="none" stroke="#63b8ff" d="M1381.64,-237.94C1410.96,-225.68 1448.38,-210.02 1471.11,-200.52"/>
<polygon fill="#63b8ff" stroke="#63b8ff" points="1379.92,-234.87 1372.05,-241.95 1382.62,-241.32 1379.92,-234.87"/>
</g>
<!-- Node18&#45;&gt;Node3 -->
<g id="edge29" class="edge">
<title>Node18&#45;&gt;Node3</title>
<path fill="none" stroke="#63b8ff" d="M936.27,-170.76C910.32,-154.53 882.95,-130.71 901.47,-110 923.49,-85.38 1132.06,-72.79 1238.14,-67.94"/>
<polygon fill="#63b8ff" stroke="#63b8ff" points="934.57,-173.82 944.94,-175.95 938.16,-167.81 934.57,-173.82"/>
</g>
<!-- Node19 -->
<g id="node19" class="node">
<title>Node19</title>
<g id="a_node19"><a xlink:href="historical__transaction__fetcher_8h.html" target="_top" xlink:title=" ">
<polygon fill="white" stroke="#666666" points="1034.97,-140 909.97,-140 909.97,-110 1034.97,-110 1034.97,-140"/>
<text text-anchor="start" x="917.97" y="-128" font-family="Helvetica,sans-Serif" font-size="10.00">src/indexing/historical</text>
<text text-anchor="middle" x="972.47" y="-117" font-family="Helvetica,sans-Serif" font-size="10.00">_transaction_fetcher.h</text>
</a>
</g>
</g>
<!-- Node18&#45;&gt;Node19 -->
<g id="edge30" class="edge">
<title>Node18&#45;&gt;Node19</title>
<path fill="none" stroke="#63b8ff" d="M972.47,-165.54C972.47,-156.96 972.47,-147.61 972.47,-140.16"/>
<polygon fill="#63b8ff" stroke="#63b8ff" points="968.97,-165.8 972.47,-175.8 975.97,-165.8 968.97,-165.8"/>
</g>
<!-- Node19&#45;&gt;Node3 -->
<g id="edge31" class="edge">
<title>Node19&#45;&gt;Node3</title>
<path fill="none" stroke="#63b8ff" d="M1045.12,-109.9C1121.85,-95.81 1199.22,-82.48 1248.62,-74.08"/>
<polygon fill="#63b8ff" stroke="#63b8ff" points="1044.49,-106.46 1035.28,-111.71 1045.75,-113.34 1044.49,-106.46"/>
</g>
<!-- Node21 -->
<g id="node21" class="node">
<title>Node21</title>
<g id="a_node21"><a xlink:href="frontend_8h.html" target="_top" xlink:title=" ">
<polygon fill="white" stroke="#666666" points="1208.97,-398.5 1079.97,-398.5 1079.97,-379.5 1208.97,-379.5 1208.97,-398.5"/>
<text text-anchor="middle" x="1144.47" y="-386.5" font-family="Helvetica,sans-Serif" font-size="10.00">src/node/rpc/frontend.h</text>
</a>
</g>
</g>
<!-- Node20&#45;&gt;Node21 -->
<g id="edge33" class="edge">
<title>Node20&#45;&gt;Node21</title>
<path fill="none" stroke="#63b8ff" d="M1140.76,-429.6C1141.77,-418.8 1142.9,-406.78 1143.64,-398.84"/>
<polygon fill="#63b8ff" stroke="#63b8ff" points="1137.25,-429.51 1139.8,-439.8 1144.22,-430.17 1137.25,-429.51"/>
</g>
<!-- Node21&#45;&gt;Node2 -->
<g id="edge39" class="edge">
<title>Node21&#45;&gt;Node2</title>
<path fill="none" stroke="#63b8ff" d="M1106.14,-376.48C1070.34,-365.73 1016.81,-349.64 978.45,-338.12"/>
<polygon fill="#63b8ff" stroke="#63b8ff" points="1105.16,-379.84 1115.74,-379.37 1107.17,-373.14 1105.16,-379.84"/>
</g>
<!-- Node21&#45;&gt;Node14 -->
<g id="edge38" class="edge">
<title>Node21&#45;&gt;Node14</title>
<path fill="none" stroke="#63b8ff" d="M1219.42,-381.97C1287.63,-375.08 1381.9,-361.57 1410.47,-338 1445.86,-308.8 1424.74,-281.27 1448.47,-242 1458.18,-225.93 1473.1,-209.93 1482.56,-200.5"/>
<polygon fill="#63b8ff" stroke="#63b8ff" points="1218.75,-378.52 1209.14,-382.98 1219.43,-385.49 1218.75,-378.52"/>
</g>
<!-- Node21&#45;&gt;Node16 -->
<g id="edge40" class="edge">
<title>Node21&#45;&gt;Node16</title>
<path fill="none" stroke="#63b8ff" d="M1150.15,-369.82C1153.93,-357.74 1158.72,-342.41 1161.69,-332.91"/>
<polygon fill="#63b8ff" stroke="#63b8ff" points="1146.81,-368.78 1147.17,-379.37 1153.49,-370.87 1146.81,-368.78"/>
</g>
<!-- Node22 -->
<g id="node22" class="node">
<title>Node22</title>
<g id="a_node22"><a xlink:href="acme__challenge__frontend_8h.html" target="_top" xlink:title=" ">
<polygon fill="white" stroke="#666666" points="1401.47,-338 1261.47,-338 1261.47,-308 1401.47,-308 1401.47,-338"/>
<text text-anchor="start" x="1269.47" y="-326" font-family="Helvetica,sans-Serif" font-size="10.00">src/node/acme_challenge</text>
<text text-anchor="middle" x="1331.47" y="-315" font-family="Helvetica,sans-Serif" font-size="10.00">_frontend.h</text>
</a>
</g>
</g>
<!-- Node21&#45;&gt;Node22 -->
<g id="edge34" class="edge">
<title>Node21&#45;&gt;Node22</title>
<path fill="none" stroke="#63b8ff" d="M1179.33,-376.07C1210.75,-365.31 1256.98,-349.49 1290.23,-338.12"/>
<polygon fill="#63b8ff" stroke="#63b8ff" points="1178.02,-372.82 1169.69,-379.37 1180.28,-379.44 1178.02,-372.82"/>
</g>
<!-- Node24 -->
<g id="node24" class="node">
<title>Node24</title>
<g id="a_node24"><a xlink:href="user__frontend_8h.html" target="_top" xlink:title=" ">
<polygon fill="white" stroke="#666666" points="1207.97,-134.5 1052.97,-134.5 1052.97,-115.5 1207.97,-115.5 1207.97,-134.5"/>
<text text-anchor="middle" x="1130.47" y="-122.5" font-family="Helvetica,sans-Serif" font-size="10.00">src/node/rpc/user_frontend.h</text>
</a>
</g>
</g>
<!-- Node21&#45;&gt;Node24 -->
<g id="edge41" class="edge">
<title>Node21&#45;&gt;Node24</title>
<path fill="none" stroke="#63b8ff" d="M1115.08,-374.57C1100.63,-366.26 1084.61,-354.09 1076.47,-338 1039.43,-264.8 1103.34,-164.2 1124.21,-134.55"/>
<polygon fill="#63b8ff" stroke="#63b8ff" points="1113.78,-377.84 1124.25,-379.47 1117.08,-371.67 1113.78,-377.84"/>
</g>
<!-- Node22&#45;&gt;Node3 -->
<g id="edge35" class="edge">
<title>Node22&#45;&gt;Node3</title>
<path fill="none" stroke="#63b8ff" d="M1271.82,-303.67C1256.93,-296.22 1242.61,-285.96 1233.47,-272 1210.07,-236.27 1217.57,-217.01 1229.47,-176 1231.14,-170.25 1277.61,-98.91 1293.9,-74.01"/>
<polygon fill="#63b8ff" stroke="#63b8ff" points="1270.58,-306.95 1281.13,-307.96 1273.51,-300.59 1270.58,-306.95"/>
</g>
<!-- Node23 -->
<g id="node23" class="node">
<title>Node23</title>
<g id="a_node23"><a xlink:href="ccf__acme__client_8h.html" target="_top" xlink:title=" ">
<polygon fill="white" stroke="#666666" points="1605.97,-266.5 1456.97,-266.5 1456.97,-247.5 1605.97,-247.5 1605.97,-266.5"/>
<text text-anchor="middle" x="1531.47" y="-254.5" font-family="Helvetica,sans-Serif" font-size="10.00">src/node/ccf_acme_client.h</text>
</a>
</g>
</g>
<!-- Node22&#45;&gt;Node23 -->
<g id="edge36" class="edge">
<title>Node22&#45;&gt;Node23</title>
<path fill="none" stroke="#63b8ff" d="M1384.93,-304.89C1423.66,-292.5 1474.37,-276.27 1504.85,-266.52"/>
<polygon fill="#63b8ff" stroke="#63b8ff" points="1383.82,-301.57 1375.36,-307.95 1385.95,-308.24 1383.82,-301.57"/>
</g>
<!-- Node23&#45;&gt;Node14 -->
<g id="edge37" class="edge">
<title>Node23&#45;&gt;Node14</title>
<path fill="none" stroke="#63b8ff" d="M1520.56,-238.55C1512.95,-226.36 1503.1,-210.61 1497.04,-200.91"/>
<polygon fill="#63b8ff" stroke="#63b8ff" points="1517.81,-240.74 1526.07,-247.37 1523.74,-237.03 1517.81,-240.74"/>
</g>
<!-- Node24&#45;&gt;Node3 -->
<g id="edge42" class="edge">
<title>Node24&#45;&gt;Node3</title>
<path fill="none" stroke="#63b8ff" d="M1164.64,-112.17C1197.33,-100.86 1245.82,-84.07 1274.87,-74.02"/>
<polygon fill="#63b8ff" stroke="#63b8ff" points="1163.35,-108.91 1155.04,-115.49 1165.64,-115.53 1163.35,-108.91"/>
</g>
<!-- Node25&#45;&gt;Node3 -->
<g id="edge44" class="edge">
<title>Node25&#45;&gt;Node3</title>
<path fill="none" stroke="#63b8ff" d="M1320.78,-171.6C1315.29,-144.31 1305.23,-94.17 1301.2,-74.12"/>
<polygon fill="#63b8ff" stroke="#63b8ff" points="1317.35,-172.33 1322.75,-181.44 1324.21,-170.95 1317.35,-172.33"/>
</g>
<!-- Node26&#45;&gt;Node3 -->
<g id="edge46" class="edge">
<title>Node26&#45;&gt;Node3</title>
<path fill="none" stroke="#63b8ff" d="M1921.39,-363.51C1925.22,-337.43 1930.47,-294.91 1930.47,-258 1930.47,-258 1930.47,-258 1930.47,-190 1930.47,-152.88 1935.42,-133.23 1906.47,-110 1864.57,-76.38 1506.15,-68.09 1360.56,-66.11"/>
<polygon fill="#63b8ff" stroke="#63b8ff" points="1917.89,-363.21 1919.85,-373.62 1924.81,-364.26 1917.89,-363.21"/>
</g>
<!-- Node27 -->
<g id="node27" class="node">
<title>Node27</title>
<g id="a_node27"><a xlink:href="rpc__sessions_8h.html" target="_top" xlink:title=" ">
<polygon fill="white" stroke="#666666" points="1864.47,-332.5 1718.47,-332.5 1718.47,-313.5 1864.47,-313.5 1864.47,-332.5"/>
<text text-anchor="middle" x="1791.47" y="-320.5" font-family="Helvetica,sans-Serif" font-size="10.00">src/enclave/rpc_sessions.h</text>
</a>
</g>
</g>
<!-- Node26&#45;&gt;Node27 -->
<g id="edge47" class="edge">
<title>Node26&#45;&gt;Node27</title>
<path fill="none" stroke="#63b8ff" d="M1880.65,-369.3C1856.71,-357.14 1826.63,-341.86 1808.24,-332.52"/>
<polygon fill="#63b8ff" stroke="#63b8ff" points="1879.32,-372.55 1889.82,-373.95 1882.49,-366.31 1879.32,-372.55"/>
</g>
<!-- Node27&#45;&gt;Node3 -->
<g id="edge48" class="edge">
<title>Node27&#45;&gt;Node3</title>
<path fill="none" stroke="#63b8ff" d="M1804.05,-305.17C1815.03,-288.25 1827.47,-261.91 1815.47,-242 1750.6,-134.39 1684.51,-150.21 1565.47,-110 1497.38,-87 1415.31,-75.58 1360.5,-70.13"/>
<polygon fill="#63b8ff" stroke="#63b8ff" points="1801.1,-303.28 1798.27,-313.49 1806.85,-307.28 1801.1,-303.28"/>
</g>
<!-- Node27&#45;&gt;Node14 -->
<g id="edge50" class="edge">
<title>Node27&#45;&gt;Node14</title>
<path fill="none" stroke="#63b8ff" d="M1799.4,-304.02C1805.91,-286.15 1811.95,-259.03 1797.47,-242 1766.84,-205.96 1634.04,-195.84 1553.8,-193.03"/>
<polygon fill="#63b8ff" stroke="#63b8ff" points="1796.14,-302.74 1795.65,-313.32 1802.63,-305.35 1796.14,-302.74"/>
</g>
<!-- Node27&#45;&gt;Node23 -->
<g id="edge49" class="edge">
<title>Node27&#45;&gt;Node23</title>
<path fill="none" stroke="#63b8ff" d="M1746.87,-311.02C1695.63,-298.41 1612.65,-277.98 1566.06,-266.51"/>
<polygon fill="#63b8ff" stroke="#63b8ff" points="1746.13,-314.44 1756.67,-313.44 1747.8,-307.65 1746.13,-314.44"/>
</g>
<!-- Node28 -->
<g id="node28" class="node">
<title>Node28</title>
<g id="a_node28"><a xlink:href="quote__endorsements__client_8h.html" target="_top" xlink:title=" ">
<polygon fill="white" stroke="#666666" points="1788.47,-272 1624.47,-272 1624.47,-242 1788.47,-242 1788.47,-272"/>
<text text-anchor="start" x="1632.47" y="-260" font-family="Helvetica,sans-Serif" font-size="10.00">src/node/quote_endorsements</text>
<text text-anchor="middle" x="1706.47" y="-249" font-family="Helvetica,sans-Serif" font-size="10.00">_client.h</text>
</a>
</g>
</g>
<!-- Node27&#45;&gt;Node28 -->
<g id="edge51" class="edge">
<title>Node27&#45;&gt;Node28</title>
<path fill="none" stroke="#63b8ff" d="M1771.97,-307.32C1757.92,-296.74 1739.09,-282.56 1725.22,-272.12"/>
<polygon fill="#63b8ff" stroke="#63b8ff" points="1769.91,-310.15 1780.01,-313.37 1774.12,-304.56 1769.91,-310.15"/>
</g>
<!-- Node28&#45;&gt;Node14 -->
<g id="edge52" class="edge">
<title>Node28&#45;&gt;Node14</title>
<path fill="none" stroke="#63b8ff" d="M1649.53,-239.05C1607.83,-226.64 1552.99,-210.31 1520.08,-200.52"/>
<polygon fill="#63b8ff" stroke="#63b8ff" points="1648.7,-242.46 1659.29,-241.95 1650.7,-235.75 1648.7,-242.46"/>
</g>
<!-- Node29&#45;&gt;Node3 -->
<g id="edge56" class="edge">
<title>Node29&#45;&gt;Node3</title>
<path fill="none" stroke="#63b8ff" d="M1633.37,-438.57C1700.22,-424.54 1788.77,-405.77 1792.47,-404 1863.37,-369.96 1892.47,-336.65 1892.47,-258 1892.47,-258 1892.47,-258 1892.47,-190 1892.47,-82.17 1512.21,-67.2 1360.7,-65.52"/>
<polygon fill="#63b8ff" stroke="#63b8ff" points="1632.33,-435.21 1623.27,-440.69 1633.77,-442.06 1632.33,-435.21"/>
</g>
<!-- Node30 -->
<g id="node30" class="node">
<title>Node30</title>
<g id="a_node30"><a xlink:href="external__executor_8cpp.html" target="_top" xlink:title=" ">
<polygon fill="white" stroke="#666666" points="1783.47,-404 1635.47,-404 1635.47,-374 1783.47,-374 1783.47,-404"/>
<text text-anchor="start" x="1643.47" y="-392" font-family="Helvetica,sans-Serif" font-size="10.00">src/apps/external_executor</text>
<text text-anchor="middle" x="1709.47" y="-381" font-family="Helvetica,sans-Serif" font-size="10.00">/external_executor.cpp</text>
</a>
</g>
</g>
<!-- Node29&#45;&gt;Node30 -->
<g id="edge55" class="edge">
<title>Node29&#45;&gt;Node30</title>
<path fill="none" stroke="#63b8ff" d="M1601.85,-435.92C1625.55,-425.8 1654.66,-413.38 1676.63,-404.01"/>
<polygon fill="#63b8ff" stroke="#63b8ff" points="1600.21,-432.81 1592.39,-439.95 1602.96,-439.25 1600.21,-432.81"/>
</g>
<!-- Node31 -->
<g id="node31" class="node">
<title>Node31</title>
<g id="a_node31"><a xlink:href="historical__queries__adapter_8cpp.html" target="_top" xlink:title=" ">
<polygon fill="white" stroke="#666666" points="1617.47,-404 1497.47,-404 1497.47,-374 1617.47,-374 1617.47,-404"/>
<text text-anchor="start" x="1505.47" y="-392" font-family="Helvetica,sans-Serif" font-size="10.00">src/node/historical</text>
<text text-anchor="middle" x="1557.47" y="-381" font-family="Helvetica,sans-Serif" font-size="10.00">_queries_adapter.cpp</text>
</a>
</g>
</g>
<!-- Node29&#45;&gt;Node31 -->
<g id="edge57" class="edge">
<title>Node29&#45;&gt;Node31</title>
<path fill="none" stroke="#63b8ff" d="M1558.71,-429.54C1558.44,-420.96 1558.14,-411.61 1557.91,-404.16"/>
<polygon fill="#63b8ff" stroke="#63b8ff" points="1555.21,-429.91 1559.03,-439.8 1562.21,-429.69 1555.21,-429.91"/>
</g>
<!-- Node32&#45;&gt;Node3 -->
<g id="edge60" class="edge">
<title>Node32&#45;&gt;Node3</title>
<path fill="none" stroke="#63b8ff" d="M1853.16,-444.09C1908.37,-436.27 1971.7,-423.4 1991.47,-404 2017.56,-378.41 2010.47,-360.54 2010.47,-324 2010.47,-324 2010.47,-324 2010.47,-190 2010.47,-139.72 1976.22,-130.87 1930.47,-110 1879.51,-86.76 1509.08,-72.3 1360.69,-67.39"/>
<polygon fill="#63b8ff" stroke="#63b8ff" points="1852.39,-440.67 1842.96,-445.49 1853.34,-447.6 1852.39,-440.67"/>
</g>
</g>
</svg>
        <g id="navigator" transform="translate(0 0)" fill="#404254">
                <rect fill="#f2f5e9" fill-opacity="0.5" stroke="#606060" stroke-width=".5" x="0" y="0" width="60" height="60"/>
                <use id="zoomplus" xlink:href="#zoomPlus" x="17" y="9" onmousedown="handleZoom(evt,'in')"/>
                <use id="zoomminus" xlink:href="#zoomMin" x="42" y="9" onmousedown="handleZoom(evt,'out')"/>
                <use id="reset" xlink:href="#resetDef" x="30" y="36" onmousedown="handleReset()"/>
                <g id="arrowUp" xlink:href="#dirArrow" transform="translate(30 24)" onmousedown="handlePan(0,-1)">
                  <use xlink:href="#rim" fill="#404040">
                        <set attributeName="fill" to="#808080" begin="arrowUp.mouseover" end="arrowUp.mouseout"/>
                  </use>
                  <path fill="none" stroke="white" stroke-width="1.5" d="M0,-3.0v7 M-2.5,-0.5L0,-3.0L2.5,-0.5"/>
                </g>
                <g id="arrowRight" xlink:href="#dirArrow" transform="rotate(90) translate(36 -43)" onmousedown="handlePan(1,0)">
                  <use xlink:href="#rim" fill="#404040">
                        <set attributeName="fill" to="#808080" begin="arrowRight.mouseover" end="arrowRight.mouseout"/>
                  </use>
                  <path fill="none" stroke="white" stroke-width="1.5" d="M0,-3.0v7 M-2.5,-0.5L0,-3.0L2.5,-0.5"/>
                </g>
                <g id="arrowDown" xlink:href="#dirArrow" transform="rotate(180) translate(-30 -48)" onmousedown="handlePan(0,1)">
                  <use xlink:href="#rim" fill="#404040">
                        <set attributeName="fill" to="#808080" begin="arrowDown.mouseover" end="arrowDown.mouseout"/>
                  </use>
                  <path fill="none" stroke="white" stroke-width="1.5" d="M0,-3.0v7 M-2.5,-0.5L0,-3.0L2.5,-0.5"/>
                </g>
                <g id="arrowLeft" xlink:href="#dirArrow" transform="rotate(270) translate(-36 17)" onmousedown="handlePan(-1,0)">
                  <use xlink:href="#rim" fill="#404040">
                        <set attributeName="fill" to="#808080" begin="arrowLeft.mouseover" end="arrowLeft.mouseout"/>
                  </use>
                  <path fill="none" stroke="white" stroke-width="1.5" d="M0,-3.0v7 M-2.5,-0.5L0,-3.0L2.5,-0.5"/>
                </g>
        </g>
        <svg viewBox="0 0 15 15" width="100%" height="30px" preserveAspectRatio="xMaxYMin meet">
         <g id="arrow_out" transform="scale(0.3 0.3)">
          <a xlink:href="node__operation__interface_8h__dep__incl_org.svg" target="_base">
           <rect id="button" ry="5" rx="5" y="6" x="6" height="38" width="38"
                fill="#f2f5e9" fill-opacity="0.5" stroke="#606060" stroke-width="1.0"/>
           <path id="arrow"
             d="M 11.500037,31.436501 C 11.940474,20.09759 22.043105,11.32322 32.158766,21.979434 L 37.068811,17.246167 C 37.068811,17.246167 37.088388,32 37.088388,32 L 22.160133,31.978069 C 22.160133,31.978069 26.997745,27.140456 26.997745,27.140456 C 18.528582,18.264221 13.291696,25.230495 11.500037,31.436501 z"
             style="fill:#404040;"/>
          </a>
         </g>
        </svg>
</svg>
