<?xml version="1.0" encoding="UTF-8" standalone="no"?>
<!DOCTYPE svg PUBLIC "-//W3C//DTD SVG 1.1//EN"
 "http://www.w3.org/Graphics/SVG/1.1/DTD/svg11.dtd">
<!-- Generated by graphviz version 2.43.0 (0)
 -->
<!-- Title: src/ds/non_blocking.h Pages: 1 -->
<svg width="1162pt" height="302pt"
 viewBox="0.00 0.00 1161.50 302.00" xmlns="http://www.w3.org/2000/svg" xmlns:xlink="http://www.w3.org/1999/xlink">
<g id="graph0" class="graph" transform="scale(1 1) rotate(0) translate(4 298)">
<title>src/ds/non_blocking.h</title>
<!-- Node1 -->
<g id="node1" class="node">
<title>Node1</title>
<g id="a_node1"><a xlink:title=" ">
<polygon fill="#999999" stroke="#666666" points="1071,-294 949,-294 949,-275 1071,-275 1071,-294"/>
<text text-anchor="middle" x="1010" y="-282" font-family="Helvetica,sans-Serif" font-size="10.00">src/ds/non_blocking.h</text>
</a>
</g>
</g>
<!-- Node2 -->
<g id="node2" class="node">
<title>Node2</title>
<g id="a_node2"><a xlink:href="ring__buffer_8h.html" target="_top" xlink:title=" ">
<polygon fill="white" stroke="#666666" points="421.5,-239 344.5,-239 344.5,-220 421.5,-220 421.5,-239"/>
<text text-anchor="middle" x="383" y="-227" font-family="Helvetica,sans-Serif" font-size="10.00">ring_buffer.h</text>
</a>
</g>
</g>
<!-- Node1&#45;&gt;Node2 -->
<g id="edge1" class="edge">
<title>Node1&#45;&gt;Node2</title>
<path fill="none" stroke="#63b8ff" d="M948.74,-278.32C824.43,-267.81 544.8,-244.18 431.78,-234.62"/>
<polygon fill="#63b8ff" stroke="#63b8ff" points="431.95,-231.13 421.69,-233.77 431.36,-238.1 431.95,-231.13"/>
</g>
<!-- Node12 -->
<g id="node12" class="node">
<title>Node12</title>
<g id="a_node12"><a xlink:title=" ">
<polygon fill="#e0e0e0" stroke="#999999" points="534.5,-19 487.5,-19 487.5,0 534.5,0 534.5,-19"/>
<text text-anchor="middle" x="511" y="-7" font-family="Helvetica,sans-Serif" font-size="10.00">vector</text>
</a>
</g>
</g>
<!-- Node1&#45;&gt;Node12 -->
<g id="edge50" class="edge">
<title>Node1&#45;&gt;Node12</title>
<path fill="none" stroke="#63b8ff" d="M948.78,-281.88C823.38,-276.88 549,-256.67 549,-175.5 549,-175.5 549,-175.5 549,-118.5 549,-85.02 532.55,-48.84 521.3,-28.01"/>
<polygon fill="#63b8ff" stroke="#63b8ff" points="524.24,-26.1 516.28,-19.1 518.13,-29.53 524.24,-26.1"/>
</g>
<!-- Node24 -->
<g id="node24" class="node">
<title>Node24</title>
<g id="a_node24"><a xlink:title=" ">
<polygon fill="#e0e0e0" stroke="#999999" points="1013,-74 955,-74 955,-55 1013,-55 1013,-74"/>
<text text-anchor="middle" x="984" y="-62" font-family="Helvetica,sans-Serif" font-size="10.00">memory</text>
</a>
</g>
</g>
<!-- Node1&#45;&gt;Node24 -->
<g id="edge49" class="edge">
<title>Node1&#45;&gt;Node24</title>
<path fill="none" stroke="#63b8ff" d="M1016.75,-275C1036.68,-248.81 1091.84,-167.66 1059,-110 1050.7,-95.43 1035.55,-85.14 1021.02,-78.15"/>
<polygon fill="#63b8ff" stroke="#63b8ff" points="1022.21,-74.85 1011.65,-74.02 1019.39,-81.25 1022.21,-74.85"/>
</g>
<!-- Node28 -->
<g id="node28" class="node">
<title>Node28</title>
<g id="a_node28"><a xlink:title=" ">
<polygon fill="#e0e0e0" stroke="#999999" points="1049.5,-129 970.5,-129 970.5,-110 1049.5,-110 1049.5,-129"/>
<text text-anchor="middle" x="1010" y="-117" font-family="Helvetica,sans-Serif" font-size="10.00">fmt/format.h</text>
</a>
</g>
</g>
<!-- Node1&#45;&gt;Node28 -->
<g id="edge48" class="edge">
<title>Node1&#45;&gt;Node28</title>
<path fill="none" stroke="#63b8ff" d="M1010,-274.74C1010,-249.31 1010,-175.08 1010,-139.69"/>
<polygon fill="#63b8ff" stroke="#63b8ff" points="1013.5,-139.31 1010,-129.31 1006.5,-139.31 1013.5,-139.31"/>
</g>
<!-- Node31 -->
<g id="node31" class="node">
<title>Node31</title>
<g id="a_node31"><a xlink:title=" ">
<polygon fill="#e0e0e0" stroke="#999999" points="1153.5,-239 1106.5,-239 1106.5,-220 1153.5,-220 1153.5,-239"/>
<text text-anchor="middle" x="1130" y="-227" font-family="Helvetica,sans-Serif" font-size="10.00">deque</text>
</a>
</g>
</g>
<!-- Node1&#45;&gt;Node31 -->
<g id="edge47" class="edge">
<title>Node1&#45;&gt;Node31</title>
<path fill="none" stroke="#63b8ff" d="M1029.28,-274.98C1048.67,-266.42 1078.81,-253.11 1101.07,-243.28"/>
<polygon fill="#63b8ff" stroke="#63b8ff" points="1102.64,-246.41 1110.37,-239.17 1099.81,-240.01 1102.64,-246.41"/>
</g>
<!-- Node3 -->
<g id="node3" class="node">
<title>Node3</title>
<g id="a_node3"><a xlink:href="mem_8h.html" target="_top" xlink:title=" ">
<polygon fill="white" stroke="#666666" points="203,-184 117,-184 117,-165 203,-165 203,-184"/>
<text text-anchor="middle" x="160" y="-172" font-family="Helvetica,sans-Serif" font-size="10.00">ccf/pal/mem.h</text>
</a>
</g>
</g>
<!-- Node2&#45;&gt;Node3 -->
<g id="edge2" class="edge">
<title>Node2&#45;&gt;Node3</title>
<path fill="none" stroke="#63b8ff" d="M347.17,-219.98C308.84,-210.87 247.92,-196.4 206.05,-186.45"/>
<polygon fill="#63b8ff" stroke="#63b8ff" points="206.65,-182.99 196.11,-184.08 205.03,-189.8 206.65,-182.99"/>
</g>
<!-- Node5 -->
<g id="node5" class="node">
<title>Node5</title>
<g id="a_node5"><a xlink:title=" ">
<polygon fill="#e0e0e0" stroke="#999999" points="50,-19 0,-19 0,0 50,0 50,-19"/>
<text text-anchor="middle" x="25" y="-7" font-family="Helvetica,sans-Serif" font-size="10.00">cstring</text>
</a>
</g>
</g>
<!-- Node2&#45;&gt;Node5 -->
<g id="edge45" class="edge">
<title>Node2&#45;&gt;Node5</title>
<path fill="none" stroke="#63b8ff" d="M344.49,-226.08C278.31,-221.31 146.38,-208.92 108,-184 53.41,-148.56 33.83,-66.51 27.6,-29.37"/>
<polygon fill="#63b8ff" stroke="#63b8ff" points="30.99,-28.36 26.02,-19.01 24.07,-29.42 30.99,-28.36"/>
</g>
<!-- Node7 -->
<g id="node7" class="node">
<title>Node7</title>
<g id="a_node7"><a xlink:href="ring__buffer__types_8h.html" target="_top" xlink:title=" ">
<polygon fill="white" stroke="#666666" points="790,-184 680,-184 680,-165 790,-165 790,-184"/>
<text text-anchor="middle" x="735" y="-172" font-family="Helvetica,sans-Serif" font-size="10.00">ring_buffer_types.h</text>
</a>
</g>
</g>
<!-- Node2&#45;&gt;Node7 -->
<g id="edge6" class="edge">
<title>Node2&#45;&gt;Node7</title>
<path fill="none" stroke="#63b8ff" d="M421.68,-222.68C481.46,-213.67 597.01,-196.28 669.84,-185.31"/>
<polygon fill="#63b8ff" stroke="#63b8ff" points="670.46,-188.76 679.83,-183.81 669.42,-181.84 670.46,-188.76"/>
</g>
<!-- Node27 -->
<g id="node27" class="node">
<title>Node27</title>
<g id="a_node27"><a xlink:title=" ">
<polygon fill="#e0e0e0" stroke="#999999" points="377,-129 327,-129 327,-110 377,-110 377,-129"/>
<text text-anchor="middle" x="352" y="-117" font-family="Helvetica,sans-Serif" font-size="10.00">atomic</text>
</a>
</g>
</g>
<!-- Node2&#45;&gt;Node27 -->
<g id="edge44" class="edge">
<title>Node2&#45;&gt;Node27</title>
<path fill="none" stroke="#63b8ff" d="M380.46,-219.66C375.42,-202.09 364.04,-162.45 357.3,-138.95"/>
<polygon fill="#63b8ff" stroke="#63b8ff" points="360.61,-137.8 354.49,-129.16 353.88,-139.74 360.61,-137.8"/>
</g>
<!-- Node30 -->
<g id="node30" class="node">
<title>Node30</title>
<g id="a_node30"><a xlink:title=" ">
<polygon fill="#e0e0e0" stroke="#999999" points="445.5,-184 380.5,-184 380.5,-165 445.5,-165 445.5,-184"/>
<text text-anchor="middle" x="413" y="-172" font-family="Helvetica,sans-Serif" font-size="10.00">functional</text>
</a>
</g>
</g>
<!-- Node2&#45;&gt;Node30 -->
<g id="edge46" class="edge">
<title>Node2&#45;&gt;Node30</title>
<path fill="none" stroke="#63b8ff" d="M387.95,-219.75C392.06,-212.49 398.03,-201.95 403.1,-192.98"/>
<polygon fill="#63b8ff" stroke="#63b8ff" points="406.26,-194.52 408.14,-184.09 400.17,-191.07 406.26,-194.52"/>
</g>
<!-- Node4 -->
<g id="node4" class="node">
<title>Node4</title>
<g id="a_node4"><a xlink:title=" ">
<polygon fill="#e0e0e0" stroke="#999999" points="153.5,-129 100.5,-129 100.5,-110 153.5,-110 153.5,-129"/>
<text text-anchor="middle" x="127" y="-117" font-family="Helvetica,sans-Serif" font-size="10.00">stdlib.h</text>
</a>
</g>
</g>
<!-- Node3&#45;&gt;Node4 -->
<g id="edge3" class="edge">
<title>Node3&#45;&gt;Node4</title>
<path fill="none" stroke="#63b8ff" d="M154.55,-164.75C149.99,-157.42 143.33,-146.73 137.71,-137.7"/>
<polygon fill="#63b8ff" stroke="#63b8ff" points="140.6,-135.73 132.35,-129.09 134.66,-139.43 140.6,-135.73"/>
</g>
<!-- Node3&#45;&gt;Node5 -->
<g id="edge4" class="edge">
<title>Node3&#45;&gt;Node5</title>
<path fill="none" stroke="#63b8ff" d="M141.83,-164.95C126.8,-157.2 105.62,-144.6 91,-129 62.52,-98.62 41.9,-53.67 31.86,-28.77"/>
<polygon fill="#63b8ff" stroke="#63b8ff" points="35,-27.2 28.11,-19.15 28.48,-29.74 35,-27.2"/>
</g>
<!-- Node6 -->
<g id="node6" class="node">
<title>Node6</title>
<g id="a_node6"><a xlink:title=" ">
<polygon fill="#e0e0e0" stroke="#999999" points="216,-129 172,-129 172,-110 216,-110 216,-129"/>
<text text-anchor="middle" x="194" y="-117" font-family="Helvetica,sans-Serif" font-size="10.00">limits</text>
</a>
</g>
</g>
<!-- Node3&#45;&gt;Node6 -->
<g id="edge5" class="edge">
<title>Node3&#45;&gt;Node6</title>
<path fill="none" stroke="#63b8ff" d="M165.61,-164.75C170.32,-157.42 177.17,-146.73 182.97,-137.7"/>
<polygon fill="#63b8ff" stroke="#63b8ff" points="186.04,-139.4 188.49,-129.09 180.14,-135.62 186.04,-139.4"/>
</g>
<!-- Node8 -->
<g id="node8" class="node">
<title>Node8</title>
<g id="a_node8"><a xlink:href="include_2ccf_2ds_2hash_8h.html" target="_top" xlink:title=" ">
<polygon fill="white" stroke="#666666" points="475,-129 395,-129 395,-110 475,-110 475,-129"/>
<text text-anchor="middle" x="435" y="-117" font-family="Helvetica,sans-Serif" font-size="10.00">ccf/ds/hash.h</text>
</a>
</g>
</g>
<!-- Node7&#45;&gt;Node8 -->
<g id="edge7" class="edge">
<title>Node7&#45;&gt;Node8</title>
<path fill="none" stroke="#63b8ff" d="M686.8,-164.98C631.6,-155.23 541.58,-139.33 485.46,-129.41"/>
<polygon fill="#63b8ff" stroke="#63b8ff" points="485.84,-125.93 475.39,-127.63 484.62,-132.82 485.84,-125.93"/>
</g>
<!-- Node7&#45;&gt;Node12 -->
<g id="edge43" class="edge">
<title>Node7&#45;&gt;Node12</title>
<path fill="none" stroke="#63b8ff" d="M723.27,-164.97C687.07,-138.62 576.76,-58.35 531.11,-25.13"/>
<polygon fill="#63b8ff" stroke="#63b8ff" points="533.03,-22.2 522.88,-19.15 528.91,-27.86 533.03,-22.2"/>
</g>
<!-- Node16 -->
<g id="node16" class="node">
<title>Node16</title>
<g id="a_node16"><a xlink:href="nonstd_8h.html" target="_top" xlink:title=" ">
<polygon fill="white" stroke="#666666" points="781,-74 691,-74 691,-55 781,-55 781,-74"/>
<text text-anchor="middle" x="736" y="-62" font-family="Helvetica,sans-Serif" font-size="10.00">ccf/ds/nonstd.h</text>
</a>
</g>
</g>
<!-- Node7&#45;&gt;Node16 -->
<g id="edge17" class="edge">
<title>Node7&#45;&gt;Node16</title>
<path fill="none" stroke="#63b8ff" d="M731.55,-164.91C727.08,-152.75 720.17,-129.77 723,-110 724.25,-101.24 726.83,-91.79 729.36,-83.86"/>
<polygon fill="#63b8ff" stroke="#63b8ff" points="732.74,-84.8 732.66,-74.2 726.12,-82.54 732.74,-84.8"/>
</g>
<!-- Node19 -->
<g id="node19" class="node">
<title>Node19</title>
<g id="a_node19"><a xlink:title=" ">
<polygon fill="#e0e0e0" stroke="#999999" points="816,-19 772,-19 772,0 816,0 816,-19"/>
<text text-anchor="middle" x="794" y="-7" font-family="Helvetica,sans-Serif" font-size="10.00">string</text>
</a>
</g>
</g>
<!-- Node7&#45;&gt;Node19 -->
<g id="edge42" class="edge">
<title>Node7&#45;&gt;Node19</title>
<path fill="none" stroke="#63b8ff" d="M788.03,-164.97C826.35,-157.85 878.9,-146.09 923,-129 928.87,-126.73 1018.81,-79.42 1022,-74 1081.38,26.92 1183.75,-98.91 826.19,-19.1"/>
<polygon fill="#63b8ff" stroke="#63b8ff" points="826.82,-15.65 816.29,-16.86 825.28,-22.48 826.82,-15.65"/>
</g>
<!-- Node21 -->
<g id="node21" class="node">
<title>Node21</title>
<g id="a_node21"><a xlink:href="serializer_8h.html" target="_top" xlink:title=" ">
<polygon fill="white" stroke="#666666" points="802,-129 732,-129 732,-110 802,-110 802,-129"/>
<text text-anchor="middle" x="767" y="-117" font-family="Helvetica,sans-Serif" font-size="10.00">serializer.h</text>
</a>
</g>
</g>
<!-- Node7&#45;&gt;Node21 -->
<g id="edge25" class="edge">
<title>Node7&#45;&gt;Node21</title>
<path fill="none" stroke="#63b8ff" d="M740.28,-164.75C744.71,-157.42 751.16,-146.73 756.62,-137.7"/>
<polygon fill="#63b8ff" stroke="#63b8ff" points="759.64,-139.46 761.81,-129.09 753.65,-135.84 759.64,-139.46"/>
</g>
<!-- Node25 -->
<g id="node25" class="node">
<title>Node25</title>
<g id="a_node25"><a xlink:title=" ">
<polygon fill="#e0e0e0" stroke="#999999" points="937,-74 897,-74 897,-55 937,-55 937,-74"/>
<text text-anchor="middle" x="917" y="-62" font-family="Helvetica,sans-Serif" font-size="10.00">span</text>
</a>
</g>
</g>
<!-- Node7&#45;&gt;Node25 -->
<g id="edge41" class="edge">
<title>Node7&#45;&gt;Node25</title>
<path fill="none" stroke="#63b8ff" d="M749.88,-164.85C765.22,-155.91 789.82,-141.54 811,-129 839.62,-112.05 872.46,-92.34 893.9,-79.43"/>
<polygon fill="#63b8ff" stroke="#63b8ff" points="895.87,-82.33 902.63,-74.17 892.25,-76.33 895.87,-82.33"/>
</g>
<!-- Node7&#45;&gt;Node27 -->
<g id="edge38" class="edge">
<title>Node7&#45;&gt;Node27</title>
<path fill="none" stroke="#63b8ff" d="M679.98,-168.51C612.97,-161.99 496.19,-149.17 387.04,-128.99"/>
<polygon fill="#63b8ff" stroke="#63b8ff" points="387.65,-125.55 377.18,-127.15 386.36,-132.43 387.65,-125.55"/>
</g>
<!-- Node7&#45;&gt;Node28 -->
<g id="edge39" class="edge">
<title>Node7&#45;&gt;Node28</title>
<path fill="none" stroke="#63b8ff" d="M779.18,-164.98C828.72,-155.44 908.84,-140 960.46,-130.05"/>
<polygon fill="#63b8ff" stroke="#63b8ff" points="961.23,-133.46 970.39,-128.13 959.91,-126.59 961.23,-133.46"/>
</g>
<!-- Node29 -->
<g id="node29" class="node">
<title>Node29</title>
<g id="a_node29"><a xlink:title=" ">
<polygon fill="#e0e0e0" stroke="#999999" points="914,-129 858,-129 858,-110 914,-110 914,-129"/>
<text text-anchor="middle" x="886" y="-117" font-family="Helvetica,sans-Serif" font-size="10.00">optional</text>
</a>
</g>
</g>
<!-- Node7&#45;&gt;Node29 -->
<g id="edge40" class="edge">
<title>Node7&#45;&gt;Node29</title>
<path fill="none" stroke="#63b8ff" d="M759.26,-164.98C784.32,-156.19 823.63,-142.39 851.83,-132.49"/>
<polygon fill="#63b8ff" stroke="#63b8ff" points="853.02,-135.78 861.3,-129.17 850.7,-129.18 853.02,-135.78"/>
</g>
<!-- Node9 -->
<g id="node9" class="node">
<title>Node9</title>
<g id="a_node9"><a xlink:href="siphash_8h.html" target="_top" xlink:title=" ">
<polygon fill="white" stroke="#666666" points="186.5,-74 91.5,-74 91.5,-55 186.5,-55 186.5,-74"/>
<text text-anchor="middle" x="139" y="-62" font-family="Helvetica,sans-Serif" font-size="10.00">ccf/ds/siphash.h</text>
</a>
</g>
</g>
<!-- Node8&#45;&gt;Node9 -->
<g id="edge8" class="edge">
<title>Node8&#45;&gt;Node9</title>
<path fill="none" stroke="#63b8ff" d="M394.77,-111.3C343.62,-102.14 254.97,-86.27 196.65,-75.82"/>
<polygon fill="#63b8ff" stroke="#63b8ff" points="196.94,-72.32 186.48,-74 195.71,-79.21 196.94,-72.32"/>
</g>
<!-- Node11 -->
<g id="node11" class="node">
<title>Node11</title>
<g id="a_node11"><a xlink:title=" ">
<polygon fill="#e0e0e0" stroke="#999999" points="212,-19 162,-19 162,0 212,0 212,-19"/>
<text text-anchor="middle" x="187" y="-7" font-family="Helvetica,sans-Serif" font-size="10.00">cstdint</text>
</a>
</g>
</g>
<!-- Node8&#45;&gt;Node11 -->
<g id="edge13" class="edge">
<title>Node8&#45;&gt;Node11</title>
<path fill="none" stroke="#63b8ff" d="M394.92,-111.37C391.9,-110.88 388.9,-110.42 386,-110 318.68,-100.18 127.19,-124.85 82,-74 76.39,-67.69 77.34,-62.04 82,-55 90.18,-42.65 124.67,-29.54 151.91,-20.77"/>
<polygon fill="#63b8ff" stroke="#63b8ff" points="153.07,-24.07 161.56,-17.74 150.97,-17.4 153.07,-24.07"/>
</g>
<!-- Node8&#45;&gt;Node12 -->
<g id="edge16" class="edge">
<title>Node8&#45;&gt;Node12</title>
<path fill="none" stroke="#63b8ff" d="M450.76,-109.93C463.63,-102.15 481.38,-89.55 492,-74 501.23,-60.49 506.07,-42.4 508.55,-28.98"/>
<polygon fill="#63b8ff" stroke="#63b8ff" points="512.02,-29.44 510.12,-19.02 505.1,-28.35 512.02,-29.44"/>
</g>
<!-- Node13 -->
<g id="node13" class="node">
<title>Node13</title>
<g id="a_node13"><a xlink:title=" ">
<polygon fill="#e0e0e0" stroke="#999999" points="595,-19 553,-19 553,0 595,0 595,-19"/>
<text text-anchor="middle" x="574" y="-7" font-family="Helvetica,sans-Serif" font-size="10.00">array</text>
</a>
</g>
</g>
<!-- Node8&#45;&gt;Node13 -->
<g id="edge12" class="edge">
<title>Node8&#45;&gt;Node13</title>
<path fill="none" stroke="#63b8ff" d="M394.66,-110.9C337.44,-99.94 239.06,-80.31 234,-74 228.71,-67.42 228.38,-61.31 234,-55 278.23,-5.33 460.16,-30.23 542.76,-18.66"/>
<polygon fill="#63b8ff" stroke="#63b8ff" points="543.52,-22.08 552.8,-16.96 542.35,-15.18 543.52,-22.08"/>
</g>
<!-- Node14 -->
<g id="node14" class="node">
<title>Node14</title>
<g id="a_node14"><a xlink:title=" ">
<polygon fill="#e0e0e0" stroke="#999999" points="391.5,-74 242.5,-74 242.5,-55 391.5,-55 391.5,-74"/>
<text text-anchor="middle" x="317" y="-62" font-family="Helvetica,sans-Serif" font-size="10.00">small_vector/SmallVector.h</text>
</a>
</g>
</g>
<!-- Node8&#45;&gt;Node14 -->
<g id="edge14" class="edge">
<title>Node8&#45;&gt;Node14</title>
<path fill="none" stroke="#63b8ff" d="M416.04,-109.98C396.97,-101.42 367.34,-88.11 345.45,-78.28"/>
<polygon fill="#63b8ff" stroke="#63b8ff" points="346.86,-75.07 336.3,-74.17 343.99,-81.46 346.86,-75.07"/>
</g>
<!-- Node15 -->
<g id="node15" class="node">
<title>Node15</title>
<g id="a_node15"><a xlink:title=" ">
<polygon fill="#e0e0e0" stroke="#999999" points="686.5,-19 613.5,-19 613.5,0 686.5,0 686.5,-19"/>
<text text-anchor="middle" x="650" y="-7" font-family="Helvetica,sans-Serif" font-size="10.00">string_view</text>
</a>
</g>
</g>
<!-- Node8&#45;&gt;Node15 -->
<g id="edge15" class="edge">
<title>Node8&#45;&gt;Node15</title>
<path fill="none" stroke="#63b8ff" d="M452.23,-109.84C489.83,-90.96 579.42,-45.96 623.95,-23.59"/>
<polygon fill="#63b8ff" stroke="#63b8ff" points="625.62,-26.66 632.99,-19.05 622.48,-20.41 625.62,-26.66"/>
</g>
<!-- Node10 -->
<g id="node10" class="node">
<title>Node10</title>
<g id="a_node10"><a xlink:title=" ">
<polygon fill="#e0e0e0" stroke="#999999" points="143.5,-19 90.5,-19 90.5,0 143.5,0 143.5,-19"/>
<text text-anchor="middle" x="117" y="-7" font-family="Helvetica,sans-Serif" font-size="10.00">cstddef</text>
</a>
</g>
</g>
<!-- Node9&#45;&gt;Node10 -->
<g id="edge9" class="edge">
<title>Node9&#45;&gt;Node10</title>
<path fill="none" stroke="#63b8ff" d="M135.37,-54.75C132.42,-47.65 128.17,-37.4 124.49,-28.56"/>
<polygon fill="#63b8ff" stroke="#63b8ff" points="127.63,-26.98 120.57,-19.09 121.17,-29.67 127.63,-26.98"/>
</g>
<!-- Node9&#45;&gt;Node11 -->
<g id="edge10" class="edge">
<title>Node9&#45;&gt;Node11</title>
<path fill="none" stroke="#63b8ff" d="M146.93,-54.75C153.85,-47.11 164.07,-35.82 172.45,-26.56"/>
<polygon fill="#63b8ff" stroke="#63b8ff" points="175.1,-28.85 179.22,-19.09 169.91,-24.15 175.1,-28.85"/>
</g>
<!-- Node9&#45;&gt;Node12 -->
<g id="edge11" class="edge">
<title>Node9&#45;&gt;Node12</title>
<path fill="none" stroke="#63b8ff" d="M186.72,-56.92C191.54,-56.27 196.37,-55.62 201,-55 321.24,-38.97 354.99,-42.82 477.19,-19.15"/>
<polygon fill="#63b8ff" stroke="#63b8ff" points="478.17,-22.52 487.31,-17.16 476.83,-15.65 478.17,-22.52"/>
</g>
<!-- Node16&#45;&gt;Node12 -->
<g id="edge24" class="edge">
<title>Node16&#45;&gt;Node12</title>
<path fill="none" stroke="#63b8ff" d="M698.05,-54.99C661.31,-46.69 603.81,-33.53 544.67,-19.12"/>
<polygon fill="#63b8ff" stroke="#63b8ff" points="545.32,-15.67 534.78,-16.7 543.66,-22.47 545.32,-15.67"/>
</g>
<!-- Node16&#45;&gt;Node13 -->
<g id="edge19" class="edge">
<title>Node16&#45;&gt;Node13</title>
<path fill="none" stroke="#63b8ff" d="M709.97,-54.98C681.36,-45.63 635.44,-30.6 604.99,-20.64"/>
<polygon fill="#63b8ff" stroke="#63b8ff" points="605.9,-17.25 595.31,-17.47 603.72,-23.91 605.9,-17.25"/>
</g>
<!-- Node16&#45;&gt;Node15 -->
<g id="edge22" class="edge">
<title>Node16&#45;&gt;Node15</title>
<path fill="none" stroke="#63b8ff" d="M722.18,-54.98C708.85,-46.77 688.42,-34.18 672.69,-24.49"/>
<polygon fill="#63b8ff" stroke="#63b8ff" points="674.42,-21.44 664.07,-19.17 670.75,-27.4 674.42,-21.44"/>
</g>
<!-- Node17 -->
<g id="node17" class="node">
<title>Node17</title>
<g id="a_node17"><a xlink:title=" ">
<polygon fill="#e0e0e0" stroke="#999999" points="898,-19 834,-19 834,0 898,0 898,-19"/>
<text text-anchor="middle" x="866" y="-7" font-family="Helvetica,sans-Serif" font-size="10.00">algorithm</text>
</a>
</g>
</g>
<!-- Node16&#45;&gt;Node17 -->
<g id="edge18" class="edge">
<title>Node16&#45;&gt;Node17</title>
<path fill="none" stroke="#63b8ff" d="M756.89,-54.98C778.08,-46.34 811.13,-32.87 835.3,-23.02"/>
<polygon fill="#63b8ff" stroke="#63b8ff" points="836.79,-26.19 844.73,-19.17 834.15,-19.7 836.79,-26.19"/>
</g>
<!-- Node18 -->
<g id="node18" class="node">
<title>Node18</title>
<g id="a_node18"><a xlink:title=" ">
<polygon fill="#e0e0e0" stroke="#999999" points="753.5,-19 704.5,-19 704.5,0 753.5,0 753.5,-19"/>
<text text-anchor="middle" x="729" y="-7" font-family="Helvetica,sans-Serif" font-size="10.00">cctype</text>
</a>
</g>
</g>
<!-- Node16&#45;&gt;Node18 -->
<g id="edge20" class="edge">
<title>Node16&#45;&gt;Node18</title>
<path fill="none" stroke="#63b8ff" d="M734.84,-54.75C733.93,-47.8 732.61,-37.85 731.46,-29.13"/>
<polygon fill="#63b8ff" stroke="#63b8ff" points="734.91,-28.54 730.13,-19.09 727.97,-29.46 734.91,-28.54"/>
</g>
<!-- Node16&#45;&gt;Node19 -->
<g id="edge21" class="edge">
<title>Node16&#45;&gt;Node19</title>
<path fill="none" stroke="#63b8ff" d="M745.32,-54.98C753.81,-47.23 766.56,-35.58 776.88,-26.14"/>
<polygon fill="#63b8ff" stroke="#63b8ff" points="779.49,-28.5 784.51,-19.17 774.77,-23.33 779.49,-28.5"/>
</g>
<!-- Node20 -->
<g id="node20" class="node">
<title>Node20</title>
<g id="a_node20"><a xlink:title=" ">
<polygon fill="#e0e0e0" stroke="#999999" points="985.5,-19 916.5,-19 916.5,0 985.5,0 985.5,-19"/>
<text text-anchor="middle" x="951" y="-7" font-family="Helvetica,sans-Serif" font-size="10.00">type_traits</text>
</a>
</g>
</g>
<!-- Node16&#45;&gt;Node20 -->
<g id="edge23" class="edge">
<title>Node16&#45;&gt;Node20</title>
<path fill="none" stroke="#63b8ff" d="M770.54,-54.98C807.42,-45.89 865.99,-31.46 906.34,-21.51"/>
<polygon fill="#63b8ff" stroke="#63b8ff" points="907.31,-24.87 916.19,-19.08 905.64,-18.08 907.31,-24.87"/>
</g>
<!-- Node21&#45;&gt;Node12 -->
<g id="edge37" class="edge">
<title>Node21&#45;&gt;Node12</title>
<path fill="none" stroke="#63b8ff" d="M751.14,-109.82C727.24,-96.93 680.4,-72.38 639,-55 607.59,-41.81 570.77,-29.31 544.7,-20.93"/>
<polygon fill="#63b8ff" stroke="#63b8ff" points="545.52,-17.52 534.93,-17.82 543.4,-24.19 545.52,-17.52"/>
</g>
<!-- Node21&#45;&gt;Node16 -->
<g id="edge26" class="edge">
<title>Node21&#45;&gt;Node16</title>
<path fill="none" stroke="#63b8ff" d="M761.88,-109.75C757.64,-102.49 751.47,-91.95 746.22,-82.98"/>
<polygon fill="#63b8ff" stroke="#63b8ff" points="749.09,-80.95 741.02,-74.09 743.05,-84.49 749.09,-80.95"/>
</g>
<!-- Node21&#45;&gt;Node20 -->
<g id="edge36" class="edge">
<title>Node21&#45;&gt;Node20</title>
<path fill="none" stroke="#63b8ff" d="M783.72,-109.97C800.62,-101.25 827.39,-87.15 850,-74 877.95,-57.75 909.36,-37.71 929.63,-24.54"/>
<polygon fill="#63b8ff" stroke="#63b8ff" points="931.64,-27.41 938.1,-19.01 927.81,-21.54 931.64,-27.41"/>
</g>
<!-- Node22 -->
<g id="node22" class="node">
<title>Node22</title>
<g id="a_node22"><a xlink:href="serialized_8h.html" target="_top" xlink:title=" ">
<polygon fill="white" stroke="#666666" points="482.5,-74 409.5,-74 409.5,-55 482.5,-55 482.5,-74"/>
<text text-anchor="middle" x="446" y="-62" font-family="Helvetica,sans-Serif" font-size="10.00">serialized.h</text>
</a>
</g>
</g>
<!-- Node21&#45;&gt;Node22 -->
<g id="edge27" class="edge">
<title>Node21&#45;&gt;Node22</title>
<path fill="none" stroke="#63b8ff" d="M731.73,-112.68C673.6,-103.08 557.67,-83.94 492.77,-73.22"/>
<polygon fill="#63b8ff" stroke="#63b8ff" points="493.24,-69.75 482.81,-71.58 492.1,-76.66 493.24,-69.75"/>
</g>
<!-- Node21&#45;&gt;Node24 -->
<g id="edge33" class="edge">
<title>Node21&#45;&gt;Node24</title>
<path fill="none" stroke="#63b8ff" d="M801.86,-109.98C840.96,-100.44 904.21,-84.99 944.95,-75.04"/>
<polygon fill="#63b8ff" stroke="#63b8ff" points="945.9,-78.41 954.79,-72.63 944.24,-71.61 945.9,-78.41"/>
</g>
<!-- Node21&#45;&gt;Node25 -->
<g id="edge34" class="edge">
<title>Node21&#45;&gt;Node25</title>
<path fill="none" stroke="#63b8ff" d="M791.1,-109.98C817.21,-100.76 858.9,-86.03 887.09,-76.07"/>
<polygon fill="#63b8ff" stroke="#63b8ff" points="888.54,-79.27 896.81,-72.63 886.21,-72.67 888.54,-79.27"/>
</g>
<!-- Node26 -->
<g id="node26" class="node">
<title>Node26</title>
<g id="a_node26"><a xlink:title=" ">
<polygon fill="#e0e0e0" stroke="#999999" points="840.5,-74 799.5,-74 799.5,-55 840.5,-55 840.5,-74"/>
<text text-anchor="middle" x="820" y="-62" font-family="Helvetica,sans-Serif" font-size="10.00">tuple</text>
</a>
</g>
</g>
<!-- Node21&#45;&gt;Node26 -->
<g id="edge35" class="edge">
<title>Node21&#45;&gt;Node26</title>
<path fill="none" stroke="#63b8ff" d="M775.75,-109.75C783.47,-102.03 794.9,-90.6 804.22,-81.28"/>
<polygon fill="#63b8ff" stroke="#63b8ff" points="806.81,-83.64 811.41,-74.09 801.86,-78.69 806.81,-83.64"/>
</g>
<!-- Node22&#45;&gt;Node5 -->
<g id="edge29" class="edge">
<title>Node22&#45;&gt;Node5</title>
<path fill="none" stroke="#63b8ff" d="M409.38,-56.49C406.21,-55.96 403.05,-55.45 400,-55 258.87,-34.02 222.45,-37.71 81,-19 74.19,-18.1 66.92,-17.06 59.96,-16.02"/>
<polygon fill="#63b8ff" stroke="#63b8ff" points="60.47,-12.55 50.06,-14.51 59.42,-19.48 60.47,-12.55"/>
</g>
<!-- Node22&#45;&gt;Node11 -->
<g id="edge28" class="edge">
<title>Node22&#45;&gt;Node11</title>
<path fill="none" stroke="#63b8ff" d="M409.44,-56.02C359.58,-45.82 270.87,-27.66 221.9,-17.64"/>
<polygon fill="#63b8ff" stroke="#63b8ff" points="222.57,-14.21 212.08,-15.63 221.17,-21.07 222.57,-14.21"/>
</g>
<!-- Node22&#45;&gt;Node12 -->
<g id="edge32" class="edge">
<title>Node22&#45;&gt;Node12</title>
<path fill="none" stroke="#63b8ff" d="M456.44,-54.98C466.15,-47.07 480.82,-35.11 492.5,-25.58"/>
<polygon fill="#63b8ff" stroke="#63b8ff" points="494.83,-28.2 500.37,-19.17 490.4,-22.78 494.83,-28.2"/>
</g>
<!-- Node22&#45;&gt;Node19 -->
<g id="edge31" class="edge">
<title>Node22&#45;&gt;Node19</title>
<path fill="none" stroke="#63b8ff" d="M482.87,-59.88C540.46,-53.88 655.35,-40.56 761.79,-19.02"/>
<polygon fill="#63b8ff" stroke="#63b8ff" points="762.64,-22.41 771.73,-16.97 761.23,-15.56 762.64,-22.41"/>
</g>
<!-- Node23 -->
<g id="node23" class="node">
<title>Node23</title>
<g id="a_node23"><a xlink:title=" ">
<polygon fill="#e0e0e0" stroke="#999999" points="469.5,-19 404.5,-19 404.5,0 469.5,0 469.5,-19"/>
<text text-anchor="middle" x="437" y="-7" font-family="Helvetica,sans-Serif" font-size="10.00">stdexcept</text>
</a>
</g>
</g>
<!-- Node22&#45;&gt;Node23 -->
<g id="edge30" class="edge">
<title>Node22&#45;&gt;Node23</title>
<path fill="none" stroke="#63b8ff" d="M444.51,-54.75C443.33,-47.8 441.64,-37.85 440.16,-29.13"/>
<polygon fill="#63b8ff" stroke="#63b8ff" points="443.58,-28.36 438.46,-19.09 436.68,-29.53 443.58,-28.36"/>
</g>
</g>
</svg>
