<?xml version="1.0" encoding="UTF-8" standalone="no"?>
<!DOCTYPE svg PUBLIC "-//W3C//DTD SVG 1.1//EN"
 "http://www.w3.org/Graphics/SVG/1.1/DTD/svg11.dtd">
<!-- Generated by graphviz version 2.43.0 (0)
 -->
<!-- Title: src/service/tables/previous_service_identity.h Pages: 1 -->
<svg width="1831pt" height="577pt"
 viewBox="0.00 0.00 1831.18 577.00" xmlns="http://www.w3.org/2000/svg" xmlns:xlink="http://www.w3.org/1999/xlink">
<g id="graph0" class="graph" transform="scale(1 1) rotate(0) translate(4 573)">
<title>src/service/tables/previous_service_identity.h</title>
<!-- Node1 -->
<g id="node1" class="node">
<title>Node1</title>
<g id="a_node1"><a xlink:title=" ">
<polygon fill="#999999" stroke="#666666" points="729,-569 577,-569 577,-539 729,-539 729,-569"/>
<text text-anchor="start" x="585" y="-557" font-family="Helvetica,sans-Serif" font-size="10.00">src/service/tables</text>
<text text-anchor="middle" x="653" y="-546" font-family="Helvetica,sans-Serif" font-size="10.00">/previous_service_identity.h</text>
</a>
</g>
</g>
<!-- Node2 -->
<g id="node2" class="node">
<title>Node2</title>
<g id="a_node2"><a xlink:href="node__frontend_8h.html" target="_top" xlink:title=" ">
<polygon fill="white" stroke="#666666" points="877,-310.5 719,-310.5 719,-291.5 877,-291.5 877,-310.5"/>
<text text-anchor="middle" x="798" y="-298.5" font-family="Helvetica,sans-Serif" font-size="10.00">src/node/rpc/node_frontend.h</text>
</a>
</g>
</g>
<!-- Node1&#45;&gt;Node2 -->
<g id="edge1" class="edge">
<title>Node1&#45;&gt;Node2</title>
<path fill="none" stroke="#63b8ff" d="M666.27,-530.03C697.15,-476.58 772.73,-345.74 792.96,-310.73"/>
<polygon fill="#63b8ff" stroke="#63b8ff" points="663.18,-528.38 661.21,-538.79 669.24,-531.88 663.18,-528.38"/>
</g>
<!-- Node8 -->
<g id="node8" class="node">
<title>Node8</title>
<g id="a_node8"><a xlink:href="internal__tables__access_8h.html" target="_top" xlink:title=" ">
<polygon fill="white" stroke="#666666" points="708,-382 598,-382 598,-352 708,-352 708,-382"/>
<text text-anchor="start" x="606" y="-370" font-family="Helvetica,sans-Serif" font-size="10.00">src/service/internal</text>
<text text-anchor="middle" x="653" y="-359" font-family="Helvetica,sans-Serif" font-size="10.00">_tables_access.h</text>
</a>
</g>
</g>
<!-- Node1&#45;&gt;Node8 -->
<g id="edge9" class="edge">
<title>Node1&#45;&gt;Node8</title>
<path fill="none" stroke="#63b8ff" d="M653,-528.77C653,-489.55 653,-413.36 653,-382"/>
<polygon fill="#63b8ff" stroke="#63b8ff" points="649.5,-528.79 653,-538.79 656.5,-528.79 649.5,-528.79"/>
</g>
<!-- Node12 -->
<g id="node12" class="node">
<title>Node12</title>
<g id="a_node12"><a xlink:href="network__tables_8h.html" target="_top" xlink:title=" ">
<polygon fill="white" stroke="#666666" points="441,-503 329,-503 329,-473 441,-473 441,-503"/>
<text text-anchor="start" x="337" y="-491" font-family="Helvetica,sans-Serif" font-size="10.00">src/service/network</text>
<text text-anchor="middle" x="385" y="-480" font-family="Helvetica,sans-Serif" font-size="10.00">_tables.h</text>
</a>
</g>
</g>
<!-- Node1&#45;&gt;Node12 -->
<g id="edge19" class="edge">
<title>Node1&#45;&gt;Node12</title>
<path fill="none" stroke="#63b8ff" d="M584.36,-536.61C540.03,-526.02 483.06,-512.42 441.38,-502.46"/>
<polygon fill="#63b8ff" stroke="#63b8ff" points="583.65,-540.04 594.19,-538.95 585.27,-533.23 583.65,-540.04"/>
</g>
<!-- Node3 -->
<g id="node3" class="node">
<title>Node3</title>
<g id="a_node3"><a xlink:href="src_2enclave_2enclave_8h.html" target="_top" xlink:title=" ">
<polygon fill="white" stroke="#666666" points="700,-74 578,-74 578,-55 700,-55 700,-74"/>
<text text-anchor="middle" x="639" y="-62" font-family="Helvetica,sans-Serif" font-size="10.00">src/enclave/enclave.h</text>
</a>
</g>
</g>
<!-- Node2&#45;&gt;Node3 -->
<g id="edge2" class="edge">
<title>Node2&#45;&gt;Node3</title>
<path fill="none" stroke="#63b8ff" d="M829.25,-286.88C844.48,-278.69 861.36,-266.53 870,-250 876.18,-238.19 876.28,-231.76 870,-220 826.12,-137.87 717.11,-91.76 666.11,-74.04"/>
<polygon fill="#63b8ff" stroke="#63b8ff" points="827.44,-283.87 820.06,-291.47 830.57,-290.13 827.44,-283.87"/>
</g>
<!-- Node5 -->
<g id="node5" class="node">
<title>Node5</title>
<g id="a_node5"><a xlink:href="jwt__key__auto__refresh_8h.html" target="_top" xlink:title=" ">
<polygon fill="white" stroke="#666666" points="860.5,-250 735.5,-250 735.5,-220 860.5,-220 860.5,-250"/>
<text text-anchor="start" x="743.5" y="-238" font-family="Helvetica,sans-Serif" font-size="10.00">src/node/jwt_key_auto</text>
<text text-anchor="middle" x="798" y="-227" font-family="Helvetica,sans-Serif" font-size="10.00">_refresh.h</text>
</a>
</g>
</g>
<!-- Node2&#45;&gt;Node5 -->
<g id="edge4" class="edge">
<title>Node2&#45;&gt;Node5</title>
<path fill="none" stroke="#63b8ff" d="M798,-281.35C798,-271.47 798,-259.51 798,-250.36"/>
<polygon fill="#63b8ff" stroke="#63b8ff" points="794.5,-281.37 798,-291.37 801.5,-281.37 794.5,-281.37"/>
</g>
<!-- Node4 -->
<g id="node4" class="node">
<title>Node4</title>
<g id="a_node4"><a xlink:href="enclave_2main_8cpp.html" target="_top" xlink:title=" ">
<polygon fill="white" stroke="#666666" points="699,-19 579,-19 579,0 699,0 699,-19"/>
<text text-anchor="middle" x="639" y="-7" font-family="Helvetica,sans-Serif" font-size="10.00">src/enclave/main.cpp</text>
</a>
</g>
</g>
<!-- Node3&#45;&gt;Node4 -->
<g id="edge3" class="edge">
<title>Node3&#45;&gt;Node4</title>
<path fill="none" stroke="#63b8ff" d="M639,-44.66C639,-35.93 639,-25.99 639,-19.09"/>
<polygon fill="#63b8ff" stroke="#63b8ff" points="635.5,-44.75 639,-54.75 642.5,-44.75 635.5,-44.75"/>
</g>
<!-- Node6 -->
<g id="node6" class="node">
<title>Node6</title>
<g id="a_node6"><a xlink:href="node__state_8h.html" target="_top" xlink:title=" ">
<polygon fill="white" stroke="#666666" points="585,-184 461,-184 461,-165 585,-165 585,-184"/>
<text text-anchor="middle" x="523" y="-172" font-family="Helvetica,sans-Serif" font-size="10.00">src/node/node_state.h</text>
</a>
</g>
</g>
<!-- Node5&#45;&gt;Node6 -->
<g id="edge5" class="edge">
<title>Node5&#45;&gt;Node6</title>
<path fill="none" stroke="#63b8ff" d="M725.44,-218.57C673.62,-207.54 605.82,-193.12 563.33,-184.08"/>
<polygon fill="#63b8ff" stroke="#63b8ff" points="724.74,-221.99 735.25,-220.65 726.2,-215.15 724.74,-221.99"/>
</g>
<!-- Node6&#45;&gt;Node3 -->
<g id="edge6" class="edge">
<title>Node6&#45;&gt;Node3</title>
<path fill="none" stroke="#63b8ff" d="M553.67,-160.58C569.14,-152.99 587.44,-142.28 601,-129 617.71,-112.64 629.86,-87.45 635.5,-74.25"/>
<polygon fill="#63b8ff" stroke="#63b8ff" points="552.04,-157.47 544.48,-164.89 555.02,-163.81 552.04,-157.47"/>
</g>
<!-- Node7 -->
<g id="node7" class="node">
<title>Node7</title>
<g id="a_node7"><a xlink:href="gov__effects_8h.html" target="_top" xlink:title=" ">
<polygon fill="white" stroke="#666666" points="592,-129 448,-129 448,-110 592,-110 592,-129"/>
<text text-anchor="middle" x="520" y="-117" font-family="Helvetica,sans-Serif" font-size="10.00">src/node/rpc/gov_effects.h</text>
</a>
</g>
</g>
<!-- Node6&#45;&gt;Node7 -->
<g id="edge7" class="edge">
<title>Node6&#45;&gt;Node7</title>
<path fill="none" stroke="#63b8ff" d="M521.93,-154.66C521.44,-145.93 520.88,-135.99 520.49,-129.09"/>
<polygon fill="#63b8ff" stroke="#63b8ff" points="518.44,-154.96 522.5,-164.75 525.43,-154.57 518.44,-154.96"/>
</g>
<!-- Node7&#45;&gt;Node3 -->
<g id="edge8" class="edge">
<title>Node7&#45;&gt;Node3</title>
<path fill="none" stroke="#63b8ff" d="M548.3,-105.9C570.28,-96.11 600.18,-82.79 619.53,-74.17"/>
<polygon fill="#63b8ff" stroke="#63b8ff" points="546.83,-102.72 539.12,-109.98 549.68,-109.11 546.83,-102.72"/>
</g>
<!-- Node8&#45;&gt;Node2 -->
<g id="edge13" class="edge">
<title>Node8&#45;&gt;Node2</title>
<path fill="none" stroke="#63b8ff" d="M694.28,-347.78C722,-335.54 757.26,-319.98 778.7,-310.52"/>
<polygon fill="#63b8ff" stroke="#63b8ff" points="692.56,-344.71 684.82,-351.95 695.38,-351.12 692.56,-344.71"/>
</g>
<!-- Node8&#45;&gt;Node6 -->
<g id="edge10" class="edge">
<title>Node8&#45;&gt;Node6</title>
<path fill="none" stroke="#63b8ff" d="M651.04,-341.8C648.75,-325.04 643.78,-302.8 633,-286 619.17,-264.44 606.49,-267.72 588,-250 564.95,-227.91 541.08,-198.59 529.75,-184.21"/>
<polygon fill="#63b8ff" stroke="#63b8ff" points="647.59,-342.38 652.2,-351.92 654.54,-341.58 647.59,-342.38"/>
</g>
<!-- Node9 -->
<g id="node9" class="node">
<title>Node9</title>
<g id="a_node9"><a xlink:href="member__frontend_8h.html" target="_top" xlink:title=" ">
<polygon fill="white" stroke="#666666" points="717,-250 597,-250 597,-220 717,-220 717,-250"/>
<text text-anchor="start" x="605" y="-238" font-family="Helvetica,sans-Serif" font-size="10.00">src/node/rpc/member</text>
<text text-anchor="middle" x="657" y="-227" font-family="Helvetica,sans-Serif" font-size="10.00">_frontend.h</text>
</a>
</g>
</g>
<!-- Node8&#45;&gt;Node9 -->
<g id="edge11" class="edge">
<title>Node8&#45;&gt;Node9</title>
<path fill="none" stroke="#63b8ff" d="M661.11,-342.13C663.51,-333.95 665.81,-324.67 667,-316 670.16,-292.98 665.02,-266.18 661.01,-250.18"/>
<polygon fill="#63b8ff" stroke="#63b8ff" points="657.74,-341.19 658.1,-351.78 664.42,-343.28 657.74,-341.19"/>
</g>
<!-- Node10 -->
<g id="node10" class="node">
<title>Node10</title>
<g id="a_node10"><a xlink:href="secret__broadcast_8h.html" target="_top" xlink:title=" ">
<polygon fill="white" stroke="#666666" points="461.5,-310.5 308.5,-310.5 308.5,-291.5 461.5,-291.5 461.5,-310.5"/>
<text text-anchor="middle" x="385" y="-298.5" font-family="Helvetica,sans-Serif" font-size="10.00">src/node/secret_broadcast.h</text>
</a>
</g>
</g>
<!-- Node8&#45;&gt;Node10 -->
<g id="edge14" class="edge">
<title>Node8&#45;&gt;Node10</title>
<path fill="none" stroke="#63b8ff" d="M587.9,-350.45C535.39,-337.91 463.49,-320.74 420.88,-310.57"/>
<polygon fill="#63b8ff" stroke="#63b8ff" points="587.26,-353.9 597.8,-352.82 588.88,-347.09 587.26,-353.9"/>
</g>
<!-- Node11 -->
<g id="node11" class="node">
<title>Node11</title>
<g id="a_node11"><a xlink:href="share__manager_8h.html" target="_top" xlink:title=" ">
<polygon fill="white" stroke="#666666" points="624.5,-310.5 479.5,-310.5 479.5,-291.5 624.5,-291.5 624.5,-310.5"/>
<text text-anchor="middle" x="552" y="-298.5" font-family="Helvetica,sans-Serif" font-size="10.00">src/node/share_manager.h</text>
</a>
</g>
</g>
<!-- Node8&#45;&gt;Node11 -->
<g id="edge16" class="edge">
<title>Node8&#45;&gt;Node11</title>
<path fill="none" stroke="#63b8ff" d="M622.01,-346.36C603.17,-334.42 580.05,-319.77 565.66,-310.66"/>
<polygon fill="#63b8ff" stroke="#63b8ff" points="620.26,-349.4 630.58,-351.8 624.01,-343.49 620.26,-349.4"/>
</g>
<!-- Node9&#45;&gt;Node3 -->
<g id="edge12" class="edge">
<title>Node9&#45;&gt;Node3</title>
<path fill="none" stroke="#63b8ff" d="M654.4,-209.69C650.32,-171.5 642.6,-99.23 639.94,-74.25"/>
<polygon fill="#63b8ff" stroke="#63b8ff" points="650.95,-210.35 655.5,-219.92 657.91,-209.61 650.95,-210.35"/>
</g>
<!-- Node10&#45;&gt;Node6 -->
<g id="edge15" class="edge">
<title>Node10&#45;&gt;Node6</title>
<path fill="none" stroke="#63b8ff" d="M402.27,-284.42C431.65,-257.91 490.43,-204.88 513.45,-184.12"/>
<polygon fill="#63b8ff" stroke="#63b8ff" points="399.57,-282.15 394.49,-291.44 404.25,-287.34 399.57,-282.15"/>
</g>
<!-- Node11&#45;&gt;Node6 -->
<g id="edge17" class="edge">
<title>Node11&#45;&gt;Node6</title>
<path fill="none" stroke="#63b8ff" d="M547.71,-281.6C541.36,-254.31 529.68,-204.17 525.01,-184.12"/>
<polygon fill="#63b8ff" stroke="#63b8ff" points="544.33,-282.5 550.01,-291.44 551.15,-280.91 544.33,-282.5"/>
</g>
<!-- Node11&#45;&gt;Node9 -->
<g id="edge18" class="edge">
<title>Node11&#45;&gt;Node9</title>
<path fill="none" stroke="#63b8ff" d="M575.11,-285.91C592.56,-275.28 616.39,-260.75 633.84,-250.12"/>
<polygon fill="#63b8ff" stroke="#63b8ff" points="572.88,-283.18 566.16,-291.37 576.52,-289.15 572.88,-283.18"/>
</g>
<!-- Node13 -->
<g id="node13" class="node">
<title>Node13</title>
<g id="a_node13"><a xlink:href="ccf__acme__client_8h.html" target="_top" xlink:title=" ">
<polygon fill="white" stroke="#666666" points="176.5,-310.5 27.5,-310.5 27.5,-291.5 176.5,-291.5 176.5,-310.5"/>
<text text-anchor="middle" x="102" y="-298.5" font-family="Helvetica,sans-Serif" font-size="10.00">src/node/ccf_acme_client.h</text>
</a>
</g>
</g>
<!-- Node12&#45;&gt;Node13 -->
<g id="edge20" class="edge">
<title>Node12&#45;&gt;Node13</title>
<path fill="none" stroke="#63b8ff" d="M318.43,-486.54C242.9,-481.99 122.74,-461.71 65,-382 47.94,-358.45 76.59,-325.79 92.49,-310.52"/>
<polygon fill="#63b8ff" stroke="#63b8ff" points="318.61,-490.05 328.78,-487.08 318.98,-483.06 318.61,-490.05"/>
</g>
<!-- Node14 -->
<g id="node14" class="node">
<title>Node14</title>
<g id="a_node14"><a xlink:href="network__state_8h.html" target="_top" xlink:title=" ">
<polygon fill="white" stroke="#666666" points="455,-437 315,-437 315,-418 455,-418 455,-437"/>
<text text-anchor="middle" x="385" y="-425" font-family="Helvetica,sans-Serif" font-size="10.00">src/node/network_state.h</text>
</a>
</g>
</g>
<!-- Node12&#45;&gt;Node14 -->
<g id="edge22" class="edge">
<title>Node12&#45;&gt;Node14</title>
<path fill="none" stroke="#63b8ff" d="M385,-462.75C385,-453.72 385,-444.03 385,-437.27"/>
<polygon fill="#63b8ff" stroke="#63b8ff" points="381.5,-462.84 385,-472.84 388.5,-462.84 381.5,-462.84"/>
</g>
<!-- Node13&#45;&gt;Node6 -->
<g id="edge21" class="edge">
<title>Node13&#45;&gt;Node6</title>
<path fill="none" stroke="#63b8ff" d="M120.3,-284.86C143.71,-266.36 186.25,-235.61 228,-220 305.02,-191.21 399.96,-181.01 460.97,-177.42"/>
<polygon fill="#63b8ff" stroke="#63b8ff" points="117.9,-282.3 112.31,-291.29 122.29,-287.75 117.9,-282.3"/>
</g>
<!-- Node14&#45;&gt;Node2 -->
<g id="edge44" class="edge">
<title>Node14&#45;&gt;Node2</title>
<path fill="none" stroke="#63b8ff" d="M465,-421.62C548.76,-415.48 673.98,-403.11 717,-382 751.6,-365.02 780.49,-327.49 792.29,-310.57"/>
<polygon fill="#63b8ff" stroke="#63b8ff" points="464.73,-418.13 455,-422.34 465.23,-425.11 464.73,-418.13"/>
</g>
<!-- Node14&#45;&gt;Node3 -->
<g id="edge23" class="edge">
<title>Node14&#45;&gt;Node3</title>
<path fill="none" stroke="#63b8ff" d="M304.8,-422.04C223.7,-416.36 104.83,-404.45 65,-382 25.09,-359.5 0,-347.81 0,-302 0,-302 0,-302 0,-173.5 0,-115.28 417.79,-80.6 577.73,-69.46"/>
<polygon fill="#63b8ff" stroke="#63b8ff" points="304.77,-425.55 314.98,-422.73 305.25,-418.56 304.77,-425.55"/>
</g>
<!-- Node14&#45;&gt;Node6 -->
<g id="edge43" class="edge">
<title>Node14&#45;&gt;Node6</title>
<path fill="none" stroke="#63b8ff" d="M354.24,-413.22C340.25,-405.82 324.52,-395.38 314,-382 268.02,-323.53 224.22,-277 272,-220 295.63,-191.81 394.43,-181.47 460.79,-177.68"/>
<polygon fill="#63b8ff" stroke="#63b8ff" points="353.04,-416.54 363.56,-417.86 356.16,-410.27 353.04,-416.54"/>
</g>
<!-- Node14&#45;&gt;Node10 -->
<g id="edge47" class="edge">
<title>Node14&#45;&gt;Node10</title>
<path fill="none" stroke="#63b8ff" d="M385,-407.74C385,-380.36 385,-330.58 385,-310.62"/>
<polygon fill="#63b8ff" stroke="#63b8ff" points="381.5,-407.94 385,-417.94 388.5,-407.94 381.5,-407.94"/>
</g>
<!-- Node14&#45;&gt;Node11 -->
<g id="edge48" class="edge">
<title>Node14&#45;&gt;Node11</title>
<path fill="none" stroke="#63b8ff" d="M404.54,-411.93C439.61,-385.78 512.23,-331.65 540.44,-310.62"/>
<polygon fill="#63b8ff" stroke="#63b8ff" points="402.4,-409.16 396.48,-417.94 406.59,-414.77 402.4,-409.16"/>
</g>
<!-- Node15 -->
<g id="node15" class="node">
<title>Node15</title>
<g id="a_node15"><a xlink:href="wrap_8h.html" target="_top" xlink:title=" ">
<polygon fill="white" stroke="#666666" points="1237,-376.5 1159,-376.5 1159,-357.5 1237,-357.5 1237,-376.5"/>
<text text-anchor="middle" x="1198" y="-364.5" font-family="Helvetica,sans-Serif" font-size="10.00">src/js/wrap.h</text>
</a>
</g>
</g>
<!-- Node14&#45;&gt;Node15 -->
<g id="edge24" class="edge">
<title>Node14&#45;&gt;Node15</title>
<path fill="none" stroke="#63b8ff" d="M465.23,-420.73C636.56,-408.4 1032.78,-379.89 1158.78,-370.82"/>
<polygon fill="#63b8ff" stroke="#63b8ff" points="464.74,-417.25 455.02,-421.46 465.25,-424.23 464.74,-417.25"/>
</g>
<!-- Node23 -->
<g id="node23" class="node">
<title>Node23</title>
<g id="a_node23"><a xlink:href="acme__challenge__frontend_8h.html" target="_top" xlink:title=" ">
<polygon fill="white" stroke="#666666" points="214,-382 74,-382 74,-352 214,-352 214,-382"/>
<text text-anchor="start" x="82" y="-370" font-family="Helvetica,sans-Serif" font-size="10.00">src/node/acme_challenge</text>
<text text-anchor="middle" x="144" y="-359" font-family="Helvetica,sans-Serif" font-size="10.00">_frontend.h</text>
</a>
</g>
</g>
<!-- Node14&#45;&gt;Node23 -->
<g id="edge40" class="edge">
<title>Node14&#45;&gt;Node23</title>
<path fill="none" stroke="#63b8ff" d="M339.95,-415.56C300.95,-406.1 244.31,-392.35 201.94,-382.06"/>
<polygon fill="#63b8ff" stroke="#63b8ff" points="339.41,-419.04 349.96,-417.99 341.06,-412.23 339.41,-419.04"/>
</g>
<!-- Node24 -->
<g id="node24" class="node">
<title>Node24</title>
<g id="a_node24"><a xlink:href="user__frontend_8h.html" target="_top" xlink:title=" ">
<polygon fill="white" stroke="#666666" points="1072.5,-184 917.5,-184 917.5,-165 1072.5,-165 1072.5,-184"/>
<text text-anchor="middle" x="995" y="-172" font-family="Helvetica,sans-Serif" font-size="10.00">src/node/rpc/user_frontend.h</text>
</a>
</g>
</g>
<!-- Node14&#45;&gt;Node24 -->
<g id="edge45" class="edge">
<title>Node14&#45;&gt;Node24</title>
<path fill="none" stroke="#63b8ff" d="M465.55,-424.39C540.76,-420.63 655.45,-410.29 751,-382 815.04,-363.04 834.19,-358.14 886,-316 935.82,-275.48 976.64,-208.05 990.19,-184.19"/>
<polygon fill="#63b8ff" stroke="#63b8ff" points="465.03,-420.91 455.2,-424.88 465.36,-427.9 465.03,-420.91"/>
</g>
<!-- Node25 -->
<g id="node25" class="node">
<title>Node25</title>
<g id="a_node25"><a xlink:href="snapshotter_8h.html" target="_top" xlink:title=" ">
<polygon fill="white" stroke="#666666" points="408.5,-244.5 281.5,-244.5 281.5,-225.5 408.5,-225.5 408.5,-244.5"/>
<text text-anchor="middle" x="345" y="-232.5" font-family="Helvetica,sans-Serif" font-size="10.00">src/node/snapshotter.h</text>
</a>
</g>
</g>
<!-- Node14&#45;&gt;Node25 -->
<g id="edge49" class="edge">
<title>Node14&#45;&gt;Node25</title>
<path fill="none" stroke="#63b8ff" d="M367.09,-410.83C346.09,-391.15 312.45,-355.18 299,-316 294.67,-303.39 294.16,-298.42 299,-286 305.77,-268.64 321.71,-253.66 332.92,-244.74"/>
<polygon fill="#63b8ff" stroke="#63b8ff" points="364.96,-413.63 374.71,-417.78 369.68,-408.46 364.96,-413.63"/>
</g>
<!-- Node15&#45;&gt;Node2 -->
<g id="edge39" class="edge">
<title>Node15&#45;&gt;Node2</title>
<path fill="none" stroke="#63b8ff" d="M1148.73,-358.12C1073.2,-346.03 929.37,-323.02 851.42,-310.55"/>
<polygon fill="#63b8ff" stroke="#63b8ff" points="1148.49,-361.62 1158.92,-359.75 1149.6,-354.71 1148.49,-361.62"/>
</g>
<!-- Node15&#45;&gt;Node3 -->
<g id="edge26" class="edge">
<title>Node15&#45;&gt;Node3</title>
<path fill="none" stroke="#63b8ff" d="M1247.28,-365.19C1383.92,-362.49 1760.3,-351.85 1802,-316 1829.71,-292.18 1821,-272.54 1821,-236 1821,-236 1821,-236 1821,-173.5 1821,-116.64 942.1,-77.54 700.06,-67.84"/>
<polygon fill="#63b8ff" stroke="#63b8ff" points="1247.03,-361.69 1237.1,-365.38 1247.16,-368.69 1247.03,-361.69"/>
</g>
<!-- Node15&#45;&gt;Node6 -->
<g id="edge37" class="edge">
<title>Node15&#45;&gt;Node6</title>
<path fill="none" stroke="#63b8ff" d="M1148.84,-359.05C1107.64,-351.96 1048.01,-338.7 1000,-316 935.07,-285.3 936.65,-246.76 870,-220 819.7,-199.8 670.84,-186.14 585.32,-179.71"/>
<polygon fill="#63b8ff" stroke="#63b8ff" points="1148.46,-362.53 1158.9,-360.72 1149.61,-355.63 1148.46,-362.53"/>
</g>
<!-- Node15&#45;&gt;Node9 -->
<g id="edge38" class="edge">
<title>Node15&#45;&gt;Node9</title>
<path fill="none" stroke="#63b8ff" d="M1148.81,-357.44C1101.7,-348.76 1028.83,-334.04 967,-316 930.15,-305.25 922.84,-296.79 886,-286 854.9,-276.89 773.88,-259.77 717.08,-248.13"/>
<polygon fill="#63b8ff" stroke="#63b8ff" points="1148.28,-360.91 1158.75,-359.26 1149.54,-354.02 1148.28,-360.91"/>
</g>
<!-- Node16 -->
<g id="node16" class="node">
<title>Node16</title>
<g id="a_node16"><a xlink:href="js__generic__base_8cpp.html" target="_top" xlink:title=" ">
<polygon fill="white" stroke="#666666" points="1127,-316 1009,-316 1009,-286 1127,-286 1127,-316"/>
<text text-anchor="start" x="1017" y="-304" font-family="Helvetica,sans-Serif" font-size="10.00">src/apps/js_generic</text>
<text text-anchor="middle" x="1068" y="-293" font-family="Helvetica,sans-Serif" font-size="10.00">/js_generic_base.cpp</text>
</a>
</g>
</g>
<!-- Node15&#45;&gt;Node16 -->
<g id="edge25" class="edge">
<title>Node15&#45;&gt;Node16</title>
<path fill="none" stroke="#63b8ff" d="M1171.46,-352.93C1149.71,-342.22 1118.98,-327.1 1096.67,-316.12"/>
<polygon fill="#63b8ff" stroke="#63b8ff" points="1169.95,-356.09 1180.47,-357.37 1173.04,-349.81 1169.95,-356.09"/>
</g>
<!-- Node17 -->
<g id="node17" class="node">
<title>Node17</title>
<g id="a_node17"><a xlink:href="consensus_8cpp.html" target="_top" xlink:title=" ">
<polygon fill="white" stroke="#666666" points="1299,-310.5 1183,-310.5 1183,-291.5 1299,-291.5 1299,-310.5"/>
<text text-anchor="middle" x="1241" y="-298.5" font-family="Helvetica,sans-Serif" font-size="10.00">src/js/consensus.cpp</text>
</a>
</g>
</g>
<!-- Node15&#45;&gt;Node17 -->
<g id="edge27" class="edge">
<title>Node15&#45;&gt;Node17</title>
<path fill="none" stroke="#63b8ff" d="M1209.48,-348.91C1217.7,-336.68 1228.44,-320.7 1235.02,-310.91"/>
<polygon fill="#63b8ff" stroke="#63b8ff" points="1206.47,-347.12 1203.8,-357.37 1212.28,-351.02 1206.47,-347.12"/>
</g>
<!-- Node18 -->
<g id="node18" class="node">
<title>Node18</title>
<g id="a_node18"><a xlink:href="wrap_8cpp.html" target="_top" xlink:title=" ">
<polygon fill="white" stroke="#666666" points="1405.5,-244.5 1316.5,-244.5 1316.5,-225.5 1405.5,-225.5 1405.5,-244.5"/>
<text text-anchor="middle" x="1361" y="-232.5" font-family="Helvetica,sans-Serif" font-size="10.00">src/js/wrap.cpp</text>
</a>
</g>
</g>
<!-- Node15&#45;&gt;Node18 -->
<g id="edge36" class="edge">
<title>Node15&#45;&gt;Node18</title>
<path fill="none" stroke="#63b8ff" d="M1184.7,-348.83C1172.97,-331.44 1159.77,-304.54 1174,-286 1191.24,-263.54 1266.8,-248.99 1316.44,-241.66"/>
<polygon fill="#63b8ff" stroke="#63b8ff" points="1182.19,-351.33 1190.88,-357.4 1187.87,-347.24 1182.19,-351.33"/>
</g>
<!-- Node19 -->
<g id="node19" class="node">
<title>Node19</title>
<g id="a_node19"><a xlink:href="conv_8cpp.html" target="_top" xlink:title=" ">
<polygon fill="white" stroke="#666666" points="1405,-310.5 1317,-310.5 1317,-291.5 1405,-291.5 1405,-310.5"/>
<text text-anchor="middle" x="1361" y="-298.5" font-family="Helvetica,sans-Serif" font-size="10.00">src/js/conv.cpp</text>
</a>
</g>
</g>
<!-- Node15&#45;&gt;Node19 -->
<g id="edge29" class="edge">
<title>Node15&#45;&gt;Node19</title>
<path fill="none" stroke="#63b8ff" d="M1229.39,-353.68C1261.6,-341.03 1310.88,-321.68 1339.11,-310.6"/>
<polygon fill="#63b8ff" stroke="#63b8ff" points="1228.01,-350.46 1219.98,-357.37 1230.57,-356.97 1228.01,-350.46"/>
</g>
<!-- Node20 -->
<g id="node20" class="node">
<title>Node20</title>
<g id="a_node20"><a xlink:href="crypto_8cpp.html" target="_top" xlink:title=" ">
<polygon fill="white" stroke="#666666" points="1519,-310.5 1423,-310.5 1423,-291.5 1519,-291.5 1519,-310.5"/>
<text text-anchor="middle" x="1471" y="-298.5" font-family="Helvetica,sans-Serif" font-size="10.00">src/js/crypto.cpp</text>
</a>
</g>
</g>
<!-- Node15&#45;&gt;Node20 -->
<g id="edge31" class="edge">
<title>Node15&#45;&gt;Node20</title>
<path fill="none" stroke="#63b8ff" d="M1245.29,-355.24C1289.08,-345.24 1355.99,-329.84 1414,-316 1421.33,-314.25 1429.19,-312.34 1436.66,-310.51"/>
<polygon fill="#63b8ff" stroke="#63b8ff" points="1244.47,-351.84 1235.5,-357.48 1246.02,-358.67 1244.47,-351.84"/>
</g>
<!-- Node21 -->
<g id="node21" class="node">
<title>Node21</title>
<g id="a_node21"><a xlink:href="historical_8cpp.html" target="_top" xlink:title=" ">
<polygon fill="white" stroke="#666666" points="1647,-310.5 1537,-310.5 1537,-291.5 1647,-291.5 1647,-310.5"/>
<text text-anchor="middle" x="1592" y="-298.5" font-family="Helvetica,sans-Serif" font-size="10.00">src/js/historical.cpp</text>
</a>
</g>
</g>
<!-- Node15&#45;&gt;Node21 -->
<g id="edge33" class="edge">
<title>Node15&#45;&gt;Node21</title>
<path fill="none" stroke="#63b8ff" d="M1247.3,-359.55C1311.95,-350.86 1428.82,-334.34 1528,-316 1536.72,-314.39 1546.07,-312.46 1554.86,-310.55"/>
<polygon fill="#63b8ff" stroke="#63b8ff" points="1246.45,-356.13 1237,-360.93 1247.38,-363.07 1246.45,-356.13"/>
</g>
<!-- Node22 -->
<g id="node22" class="node">
<title>Node22</title>
<g id="a_node22"><a xlink:href="openenclave_8cpp.html" target="_top" xlink:title=" ">
<polygon fill="white" stroke="#666666" points="1793,-310.5 1665,-310.5 1665,-291.5 1793,-291.5 1793,-310.5"/>
<text text-anchor="middle" x="1729" y="-298.5" font-family="Helvetica,sans-Serif" font-size="10.00">src/js/openenclave.cpp</text>
</a>
</g>
</g>
<!-- Node15&#45;&gt;Node22 -->
<g id="edge35" class="edge">
<title>Node15&#45;&gt;Node22</title>
<path fill="none" stroke="#63b8ff" d="M1247.06,-361.95C1331.07,-354.73 1507.74,-338.27 1656,-316 1666.34,-314.45 1677.44,-312.48 1687.79,-310.51"/>
<polygon fill="#63b8ff" stroke="#63b8ff" points="1246.71,-358.47 1237.04,-362.81 1247.3,-365.45 1246.71,-358.47"/>
</g>
<!-- Node17&#45;&gt;Node18 -->
<g id="edge28" class="edge">
<title>Node17&#45;&gt;Node18</title>
<path fill="none" stroke="#63b8ff" d="M1266.26,-286.53C1289.9,-273.92 1324.5,-255.47 1344.69,-244.7"/>
<polygon fill="#63b8ff" stroke="#63b8ff" points="1264.36,-283.57 1257.18,-291.37 1267.65,-289.75 1264.36,-283.57"/>
</g>
<!-- Node19&#45;&gt;Node18 -->
<g id="edge30" class="edge">
<title>Node19&#45;&gt;Node18</title>
<path fill="none" stroke="#63b8ff" d="M1361,-281.08C1361,-269.13 1361,-254.22 1361,-244.91"/>
<polygon fill="#63b8ff" stroke="#63b8ff" points="1357.5,-281.37 1361,-291.37 1364.5,-281.37 1357.5,-281.37"/>
</g>
<!-- Node20&#45;&gt;Node18 -->
<g id="edge32" class="edge">
<title>Node20&#45;&gt;Node18</title>
<path fill="none" stroke="#63b8ff" d="M1447.26,-286.19C1425.62,-273.59 1394.29,-255.37 1375.95,-244.7"/>
<polygon fill="#63b8ff" stroke="#63b8ff" points="1445.76,-289.36 1456.16,-291.37 1449.28,-283.31 1445.76,-289.36"/>
</g>
<!-- Node21&#45;&gt;Node18 -->
<g id="edge34" class="edge">
<title>Node21&#45;&gt;Node18</title>
<path fill="none" stroke="#63b8ff" d="M1551.01,-288.64C1505.5,-276.03 1433.07,-255.97 1392.03,-244.6"/>
<polygon fill="#63b8ff" stroke="#63b8ff" points="1550.27,-292.07 1560.85,-291.37 1552.14,-285.33 1550.27,-292.07"/>
</g>
<!-- Node23&#45;&gt;Node3 -->
<g id="edge41" class="edge">
<title>Node23&#45;&gt;Node3</title>
<path fill="none" stroke="#63b8ff" d="M165.24,-344.51C172.44,-336.19 179.94,-326.21 185,-316 201.22,-283.25 204,-272.54 204,-236 204,-236 204,-236 204,-173.5 204,-97.44 457.69,-74.56 577.6,-68"/>
<polygon fill="#63b8ff" stroke="#63b8ff" points="162.63,-342.18 158.51,-351.94 167.82,-346.88 162.63,-342.18"/>
</g>
<!-- Node23&#45;&gt;Node13 -->
<g id="edge42" class="edge">
<title>Node23&#45;&gt;Node13</title>
<path fill="none" stroke="#63b8ff" d="M129.09,-343.28C121.73,-332.07 113.28,-319.19 107.8,-310.84"/>
<polygon fill="#63b8ff" stroke="#63b8ff" points="126.27,-345.36 134.68,-351.8 132.12,-341.52 126.27,-345.36"/>
</g>
<!-- Node24&#45;&gt;Node3 -->
<g id="edge46" class="edge">
<title>Node24&#45;&gt;Node3</title>
<path fill="none" stroke="#63b8ff" d="M977.98,-158.29C960.46,-143.52 931.74,-121.67 903,-110 836.78,-83.12 754.88,-72.48 700.01,-68.26"/>
<polygon fill="#63b8ff" stroke="#63b8ff" points="975.77,-161.01 985.63,-164.9 980.35,-155.71 975.77,-161.01"/>
</g>
<!-- Node25&#45;&gt;Node6 -->
<g id="edge50" class="edge">
<title>Node25&#45;&gt;Node6</title>
<path fill="none" stroke="#63b8ff" d="M380.55,-222.32C414.98,-211 466.36,-194.12 497.09,-184.02"/>
<polygon fill="#63b8ff" stroke="#63b8ff" points="379.29,-219.05 370.88,-225.49 381.48,-225.7 379.29,-219.05"/>
</g>
</g>
</svg>
