<?xml version="1.0" encoding="UTF-8" standalone="no"?>
<!DOCTYPE svg PUBLIC "-//W3C//DTD SVG 1.1//EN"
 "http://www.w3.org/Graphics/SVG/1.1/DTD/svg11.dtd">
<!-- Generated by graphviz version 2.43.0 (0)
 -->
<!-- Title: src/host/process_launcher.h Pages: 1 -->
<svg width="2125pt" height="467pt"
 viewBox="0.00 0.00 2124.54 467.00" xmlns="http://www.w3.org/2000/svg" xmlns:xlink="http://www.w3.org/1999/xlink">
<g id="graph0" class="graph" transform="scale(1 1) rotate(0) translate(4 463)">
<title>src/host/process_launcher.h</title>
<!-- Node1 -->
<g id="node1" class="node">
<title>Node1</title>
<g id="a_node1"><a xlink:title=" ">
<polygon fill="#999999" stroke="#666666" points="1455.54,-459 1304.54,-459 1304.54,-440 1455.54,-440 1455.54,-459"/>
<text text-anchor="middle" x="1380.04" y="-447" font-family="Helvetica,sans-Serif" font-size="10.00">src/host/process_launcher.h</text>
</a>
</g>
</g>
<!-- Node2 -->
<g id="node2" class="node">
<title>Node2</title>
<g id="a_node2"><a xlink:href="messaging_8h.html" target="_top" xlink:title=" ">
<polygon fill="white" stroke="#666666" points="811.54,-294 718.54,-294 718.54,-275 811.54,-275 811.54,-294"/>
<text text-anchor="middle" x="765.04" y="-282" font-family="Helvetica,sans-Serif" font-size="10.00">ds/messaging.h</text>
</a>
</g>
</g>
<!-- Node1&#45;&gt;Node2 -->
<g id="edge1" class="edge">
<title>Node1&#45;&gt;Node2</title>
<path fill="none" stroke="#63b8ff" d="M1347.84,-439.97C1244.8,-412.66 923.13,-327.4 807.21,-296.68"/>
<polygon fill="#63b8ff" stroke="#63b8ff" points="807.85,-293.23 797.29,-294.05 806.06,-299.99 807.85,-293.23"/>
</g>
<!-- Node44 -->
<g id="node44" class="node">
<title>Node44</title>
<g id="a_node44"><a xlink:href="interface_8h.html" target="_top" xlink:title=" ">
<polygon fill="white" stroke="#666666" points="1394.04,-404 1284.04,-404 1284.04,-385 1394.04,-385 1394.04,-404"/>
<text text-anchor="middle" x="1339.04" y="-392" font-family="Helvetica,sans-Serif" font-size="10.00">enclave/interface.h</text>
</a>
</g>
</g>
<!-- Node1&#45;&gt;Node44 -->
<g id="edge69" class="edge">
<title>Node1&#45;&gt;Node44</title>
<path fill="none" stroke="#63b8ff" d="M1373.27,-439.75C1367.48,-432.26 1358.98,-421.28 1351.9,-412.13"/>
<polygon fill="#63b8ff" stroke="#63b8ff" points="1354.57,-409.86 1345.68,-404.09 1349.04,-414.14 1354.57,-409.86"/>
</g>
<!-- Node46 -->
<g id="node46" class="node">
<title>Node46</title>
<g id="a_node46"><a xlink:title=" ">
<polygon fill="#e0e0e0" stroke="#999999" points="700.54,-294 607.54,-294 607.54,-275 700.54,-275 700.54,-294"/>
<text text-anchor="middle" x="654.04" y="-282" font-family="Helvetica,sans-Serif" font-size="10.00">unordered_map</text>
</a>
</g>
</g>
<!-- Node1&#45;&gt;Node46 -->
<g id="edge81" class="edge">
<title>Node1&#45;&gt;Node46</title>
<path fill="none" stroke="#63b8ff" d="M1331.5,-439.98C1284.08,-431.48 1209.91,-417.76 1146.04,-404 979.11,-368.05 782.08,-318.39 696.86,-296.55"/>
<polygon fill="#63b8ff" stroke="#63b8ff" points="697.58,-293.13 687.03,-294.03 695.84,-299.91 697.58,-293.13"/>
</g>
<!-- Node47 -->
<g id="node47" class="node">
<title>Node47</title>
<g id="a_node47"><a xlink:title=" ">
<polygon fill="#e0e0e0" stroke="#999999" points="2071.04,-349 2021.04,-349 2021.04,-330 2071.04,-330 2071.04,-349"/>
<text text-anchor="middle" x="2046.04" y="-337" font-family="Helvetica,sans-Serif" font-size="10.00">chrono</text>
</a>
</g>
</g>
<!-- Node1&#45;&gt;Node47 -->
<g id="edge79" class="edge">
<title>Node1&#45;&gt;Node47</title>
<path fill="none" stroke="#63b8ff" d="M1385.27,-440C1394.62,-425.67 1415.72,-397.09 1442.04,-385 1556.37,-332.5 1882.45,-366.45 2007.04,-349 2008.31,-348.82 2009.61,-348.62 2010.91,-348.41"/>
<polygon fill="#63b8ff" stroke="#63b8ff" points="2011.77,-351.81 2020.97,-346.55 2010.49,-344.93 2011.77,-351.81"/>
</g>
<!-- Node48 -->
<g id="node48" class="node">
<title>Node48</title>
<g id="a_node48"><a xlink:title=" ">
<polygon fill="#e0e0e0" stroke="#999999" points="1497.54,-404 1450.54,-404 1450.54,-385 1497.54,-385 1497.54,-404"/>
<text text-anchor="middle" x="1474.04" y="-392" font-family="Helvetica,sans-Serif" font-size="10.00">queue</text>
</a>
</g>
</g>
<!-- Node1&#45;&gt;Node48 -->
<g id="edge80" class="edge">
<title>Node1&#45;&gt;Node48</title>
<path fill="none" stroke="#63b8ff" d="M1395.14,-439.98C1409.86,-431.69 1432.47,-418.94 1449.72,-409.22"/>
<polygon fill="#63b8ff" stroke="#63b8ff" points="1451.67,-412.13 1458.66,-404.17 1448.23,-406.03 1451.67,-412.13"/>
</g>
<!-- Node49 -->
<g id="node49" class="node">
<title>Node49</title>
<g id="a_node49"><a xlink:title=" ">
<polygon fill="#e0e0e0" stroke="#999999" points="1552.54,-404 1515.54,-404 1515.54,-385 1552.54,-385 1552.54,-404"/>
<text text-anchor="middle" x="1534.04" y="-392" font-family="Helvetica,sans-Serif" font-size="10.00">uv.h</text>
</a>
</g>
</g>
<!-- Node1&#45;&gt;Node49 -->
<g id="edge82" class="edge">
<title>Node1&#45;&gt;Node49</title>
<path fill="none" stroke="#63b8ff" d="M1404.78,-439.98C1432.32,-430.51 1476.73,-415.23 1505.65,-405.27"/>
<polygon fill="#63b8ff" stroke="#63b8ff" points="1506.87,-408.55 1515.18,-401.99 1504.59,-401.93 1506.87,-408.55"/>
</g>
<!-- Node3 -->
<g id="node3" class="node">
<title>Node3</title>
<g id="a_node3"><a xlink:href="logger_8h.html" target="_top" xlink:title=" ">
<polygon fill="white" stroke="#666666" points="641.54,-239 554.54,-239 554.54,-220 641.54,-220 641.54,-239"/>
<text text-anchor="middle" x="598.04" y="-227" font-family="Helvetica,sans-Serif" font-size="10.00">ccf/ds/logger.h</text>
</a>
</g>
</g>
<!-- Node2&#45;&gt;Node3 -->
<g id="edge2" class="edge">
<title>Node2&#45;&gt;Node3</title>
<path fill="none" stroke="#63b8ff" d="M738.21,-274.98C710.17,-266.09 665.99,-252.07 634.74,-242.15"/>
<polygon fill="#63b8ff" stroke="#63b8ff" points="635.67,-238.77 625.08,-239.08 633.55,-245.44 635.67,-238.77"/>
</g>
<!-- Node10 -->
<g id="node10" class="node">
<title>Node10</title>
<g id="a_node10"><a xlink:title=" ">
<polygon fill="#e0e0e0" stroke="#999999" points="125.04,-129 87.04,-129 87.04,-110 125.04,-110 125.04,-129"/>
<text text-anchor="middle" x="106.04" y="-117" font-family="Helvetica,sans-Serif" font-size="10.00">map</text>
</a>
</g>
</g>
<!-- Node2&#45;&gt;Node10 -->
<g id="edge67" class="edge">
<title>Node2&#45;&gt;Node10</title>
<path fill="none" stroke="#63b8ff" d="M718.3,-276.27C570.94,-253.49 125.75,-184.62 125.04,-184 112.45,-173.02 108.03,-154.07 106.56,-139.72"/>
<polygon fill="#63b8ff" stroke="#63b8ff" points="110.03,-139.2 105.92,-129.44 103.05,-139.64 110.03,-139.2"/>
</g>
<!-- Node18 -->
<g id="node18" class="node">
<title>Node18</title>
<g id="a_node18"><a xlink:href="ring__buffer_8h.html" target="_top" xlink:title=" ">
<polygon fill="white" stroke="#666666" points="1163.54,-239 1086.54,-239 1086.54,-220 1163.54,-220 1163.54,-239"/>
<text text-anchor="middle" x="1125.04" y="-227" font-family="Helvetica,sans-Serif" font-size="10.00">ring_buffer.h</text>
</a>
</g>
</g>
<!-- Node2&#45;&gt;Node18 -->
<g id="edge19" class="edge">
<title>Node2&#45;&gt;Node18</title>
<path fill="none" stroke="#63b8ff" d="M811.62,-276.97C871.8,-268.48 979.8,-253.08 1072.04,-239 1073.34,-238.8 1074.65,-238.6 1075.97,-238.4"/>
<polygon fill="#63b8ff" stroke="#63b8ff" points="1076.92,-241.79 1086.26,-236.79 1075.84,-234.87 1076.92,-241.79"/>
</g>
<!-- Node37 -->
<g id="node37" class="node">
<title>Node37</title>
<g id="a_node37"><a xlink:title=" ">
<polygon fill="#e0e0e0" stroke="#999999" points="578.54,-19 513.54,-19 513.54,0 578.54,0 578.54,-19"/>
<text text-anchor="middle" x="546.04" y="-7" font-family="Helvetica,sans-Serif" font-size="10.00">stdexcept</text>
</a>
</g>
</g>
<!-- Node2&#45;&gt;Node37 -->
<g id="edge68" class="edge">
<title>Node2&#45;&gt;Node37</title>
<path fill="none" stroke="#63b8ff" d="M718.27,-275.94C715.49,-275.6 712.73,-275.28 710.04,-275 633.67,-267.13 80.4,-286.44 20.04,-239 -3.12,-220.8 1.04,-204.96 1.04,-175.5 1.04,-175.5 1.04,-175.5 1.04,-118.5 1.04,-16.35 374.08,-9.3 502.9,-9.91"/>
<polygon fill="#63b8ff" stroke="#63b8ff" points="503.15,-13.41 513.18,-9.98 503.2,-6.41 503.15,-13.41"/>
</g>
<!-- Node41 -->
<g id="node41" class="node">
<title>Node41</title>
<g id="a_node41"><a xlink:title=" ">
<polygon fill="#e0e0e0" stroke="#999999" points="1172.04,-129 1122.04,-129 1122.04,-110 1172.04,-110 1172.04,-129"/>
<text text-anchor="middle" x="1147.04" y="-117" font-family="Helvetica,sans-Serif" font-size="10.00">atomic</text>
</a>
</g>
</g>
<!-- Node2&#45;&gt;Node41 -->
<g id="edge65" class="edge">
<title>Node2&#45;&gt;Node41</title>
<path fill="none" stroke="#63b8ff" d="M788.78,-274.99C834.07,-258.58 935.68,-220.92 1019.04,-184 1055.24,-167.97 1096.06,-147.24 1121.66,-133.91"/>
<polygon fill="#63b8ff" stroke="#63b8ff" points="1123.45,-136.92 1130.69,-129.19 1120.21,-130.72 1123.45,-136.92"/>
</g>
<!-- Node43 -->
<g id="node43" class="node">
<title>Node43</title>
<g id="a_node43"><a xlink:title=" ">
<polygon fill="#e0e0e0" stroke="#999999" points="136.54,-239 29.54,-239 29.54,-220 136.54,-220 136.54,-239"/>
<text text-anchor="middle" x="83.04" y="-227" font-family="Helvetica,sans-Serif" font-size="10.00">condition_variable</text>
</a>
</g>
</g>
<!-- Node2&#45;&gt;Node43 -->
<g id="edge66" class="edge">
<title>Node2&#45;&gt;Node43</title>
<path fill="none" stroke="#63b8ff" d="M718.27,-275.98C715.49,-275.63 712.73,-275.29 710.04,-275 462.55,-247.96 398.89,-262.45 151.04,-239 149.74,-238.88 148.43,-238.75 147.11,-238.62"/>
<polygon fill="#63b8ff" stroke="#63b8ff" points="147.14,-235.1 136.83,-237.53 146.4,-242.06 147.14,-235.1"/>
</g>
<!-- Node4 -->
<g id="node4" class="node">
<title>Node4</title>
<g id="a_node4"><a xlink:href="enum__formatter_8h.html" target="_top" xlink:title=" ">
<polygon fill="white" stroke="#666666" points="714.04,-184 578.04,-184 578.04,-165 714.04,-165 714.04,-184"/>
<text text-anchor="middle" x="646.04" y="-172" font-family="Helvetica,sans-Serif" font-size="10.00">ccf/ds/enum_formatter.h</text>
</a>
</g>
</g>
<!-- Node3&#45;&gt;Node4 -->
<g id="edge3" class="edge">
<title>Node3&#45;&gt;Node4</title>
<path fill="none" stroke="#63b8ff" d="M605.97,-219.75C612.89,-212.11 623.11,-200.82 631.49,-191.56"/>
<polygon fill="#63b8ff" stroke="#63b8ff" points="634.14,-193.85 638.26,-184.09 628.95,-189.15 634.14,-193.85"/>
</g>
<!-- Node5 -->
<g id="node5" class="node">
<title>Node5</title>
<g id="a_node5"><a xlink:title=" ">
<polygon fill="#e0e0e0" stroke="#999999" points="685.54,-129 606.54,-129 606.54,-110 685.54,-110 685.54,-129"/>
<text text-anchor="middle" x="646.04" y="-117" font-family="Helvetica,sans-Serif" font-size="10.00">fmt/format.h</text>
</a>
</g>
</g>
<!-- Node3&#45;&gt;Node5 -->
<g id="edge13" class="edge">
<title>Node3&#45;&gt;Node5</title>
<path fill="none" stroke="#63b8ff" d="M588.6,-219.61C576.49,-207.09 558.26,-183.68 569.04,-165 577.46,-150.41 592.69,-140.17 607.39,-133.23"/>
<polygon fill="#63b8ff" stroke="#63b8ff" points="609.11,-136.3 616.9,-129.13 606.33,-129.87 609.11,-136.3"/>
</g>
<!-- Node6 -->
<g id="node6" class="node">
<title>Node6</title>
<g id="a_node6"><a xlink:href="thread__ids_8h.html" target="_top" xlink:title=" ">
<polygon fill="white" stroke="#666666" points="320.04,-184 212.04,-184 212.04,-165 320.04,-165 320.04,-184"/>
<text text-anchor="middle" x="266.04" y="-172" font-family="Helvetica,sans-Serif" font-size="10.00">ccf/ds/thread_ids.h</text>
</a>
</g>
</g>
<!-- Node3&#45;&gt;Node6 -->
<g id="edge5" class="edge">
<title>Node3&#45;&gt;Node6</title>
<path fill="none" stroke="#63b8ff" d="M554.3,-221.52C496.88,-212.35 395.69,-196.2 329.77,-185.67"/>
<polygon fill="#63b8ff" stroke="#63b8ff" points="329.93,-182.15 319.5,-184.03 328.82,-189.07 329.93,-182.15"/>
</g>
<!-- Node12 -->
<g id="node12" class="node">
<title>Node12</title>
<g id="a_node12"><a xlink:title=" ">
<polygon fill="#e0e0e0" stroke="#999999" points="811.54,-184 732.54,-184 732.54,-165 811.54,-165 811.54,-184"/>
<text text-anchor="middle" x="772.04" y="-172" font-family="Helvetica,sans-Serif" font-size="10.00">fmt/chrono.h</text>
</a>
</g>
</g>
<!-- Node3&#45;&gt;Node12 -->
<g id="edge12" class="edge">
<title>Node3&#45;&gt;Node12</title>
<path fill="none" stroke="#63b8ff" d="M626,-219.98C655.34,-211.05 701.64,-196.94 734.23,-187.02"/>
<polygon fill="#63b8ff" stroke="#63b8ff" points="735.32,-190.34 743.87,-184.08 733.28,-183.65 735.32,-190.34"/>
</g>
<!-- Node13 -->
<g id="node13" class="node">
<title>Node13</title>
<g id="a_node13"><a xlink:title=" ">
<polygon fill="#e0e0e0" stroke="#999999" points="194.04,-184 134.04,-184 134.04,-165 194.04,-165 194.04,-184"/>
<text text-anchor="middle" x="164.04" y="-172" font-family="Helvetica,sans-Serif" font-size="10.00">iostream</text>
</a>
</g>
</g>
<!-- Node3&#45;&gt;Node13 -->
<g id="edge14" class="edge">
<title>Node3&#45;&gt;Node13</title>
<path fill="none" stroke="#63b8ff" d="M554.29,-225.05C483.01,-219.1 337.2,-205.59 204.18,-184.03"/>
<polygon fill="#63b8ff" stroke="#63b8ff" points="204.65,-180.56 194.22,-182.4 203.52,-187.47 204.65,-180.56"/>
</g>
<!-- Node14 -->
<g id="node14" class="node">
<title>Node14</title>
<g id="a_node14"><a xlink:title=" ">
<polygon fill="#e0e0e0" stroke="#999999" points="448.04,-184 338.04,-184 338.04,-165 448.04,-165 448.04,-184"/>
<text text-anchor="middle" x="393.04" y="-172" font-family="Helvetica,sans-Serif" font-size="10.00">nlohmann/json.hpp</text>
</a>
</g>
</g>
<!-- Node3&#45;&gt;Node14 -->
<g id="edge15" class="edge">
<title>Node3&#45;&gt;Node14</title>
<path fill="none" stroke="#63b8ff" d="M565.1,-219.98C530.09,-210.93 474.57,-196.58 436.11,-186.64"/>
<polygon fill="#63b8ff" stroke="#63b8ff" points="436.79,-183.2 426.24,-184.08 435.04,-189.97 436.79,-183.2"/>
</g>
<!-- Node15 -->
<g id="node15" class="node">
<title>Node15</title>
<g id="a_node15"><a xlink:title=" ">
<polygon fill="#e0e0e0" stroke="#999999" points="1066.04,-129 1010.04,-129 1010.04,-110 1066.04,-110 1066.04,-129"/>
<text text-anchor="middle" x="1038.04" y="-117" font-family="Helvetica,sans-Serif" font-size="10.00">optional</text>
</a>
</g>
</g>
<!-- Node3&#45;&gt;Node15 -->
<g id="edge16" class="edge">
<title>Node3&#45;&gt;Node15</title>
<path fill="none" stroke="#63b8ff" d="M641.72,-228.2C732.39,-226.86 937.47,-219.82 996.04,-184 1012.92,-173.68 1024.42,-153.72 1031.06,-138.92"/>
<polygon fill="#63b8ff" stroke="#63b8ff" points="1034.46,-139.85 1035.04,-129.27 1027.99,-137.18 1034.46,-139.85"/>
</g>
<!-- Node16 -->
<g id="node16" class="node">
<title>Node16</title>
<g id="a_node16"><a xlink:title=" ">
<polygon fill="#e0e0e0" stroke="#999999" points="522.04,-184 466.04,-184 466.04,-165 522.04,-165 522.04,-184"/>
<text text-anchor="middle" x="494.04" y="-172" font-family="Helvetica,sans-Serif" font-size="10.00">sstream</text>
</a>
</g>
</g>
<!-- Node3&#45;&gt;Node16 -->
<g id="edge17" class="edge">
<title>Node3&#45;&gt;Node16</title>
<path fill="none" stroke="#63b8ff" d="M581.33,-219.98C564.83,-211.57 539.34,-198.59 520.16,-188.81"/>
<polygon fill="#63b8ff" stroke="#63b8ff" points="521.55,-185.59 511.05,-184.17 518.37,-191.83 521.55,-185.59"/>
</g>
<!-- Node17 -->
<g id="node17" class="node">
<title>Node17</title>
<g id="a_node17"><a xlink:title=" ">
<polygon fill="#e0e0e0" stroke="#999999" points="1270.54,-19 1201.54,-19 1201.54,0 1270.54,0 1270.54,-19"/>
<text text-anchor="middle" x="1236.04" y="-7" font-family="Helvetica,sans-Serif" font-size="10.00">type_traits</text>
</a>
</g>
</g>
<!-- Node3&#45;&gt;Node17 -->
<g id="edge18" class="edge">
<title>Node3&#45;&gt;Node17</title>
<path fill="none" stroke="#63b8ff" d="M641.64,-228.19C726.93,-226.78 911.98,-219.6 963.04,-184 993.37,-162.85 973.95,-135.16 1001.04,-110 1055.67,-59.26 1140.02,-32.24 1191.42,-19.67"/>
<polygon fill="#63b8ff" stroke="#63b8ff" points="1192.31,-23.05 1201.24,-17.35 1190.7,-16.24 1192.31,-23.05"/>
</g>
<!-- Node4&#45;&gt;Node5 -->
<g id="edge4" class="edge">
<title>Node4&#45;&gt;Node5</title>
<path fill="none" stroke="#63b8ff" d="M646.04,-164.75C646.04,-157.8 646.04,-147.85 646.04,-139.13"/>
<polygon fill="#63b8ff" stroke="#63b8ff" points="649.54,-139.09 646.04,-129.09 642.54,-139.09 649.54,-139.09"/>
</g>
<!-- Node6&#45;&gt;Node5 -->
<g id="edge6" class="edge">
<title>Node6&#45;&gt;Node5</title>
<path fill="none" stroke="#63b8ff" d="M320.08,-165.96C393.81,-155.68 524.89,-137.4 596.3,-127.44"/>
<polygon fill="#63b8ff" stroke="#63b8ff" points="596.97,-130.88 606.39,-126.03 596,-123.95 596.97,-130.88"/>
</g>
<!-- Node7 -->
<g id="node7" class="node">
<title>Node7</title>
<g id="a_node7"><a xlink:title=" ">
<polygon fill="#e0e0e0" stroke="#999999" points="229.04,-129 143.04,-129 143.04,-110 229.04,-110 229.04,-129"/>
<text text-anchor="middle" x="186.04" y="-117" font-family="Helvetica,sans-Serif" font-size="10.00">fmt/ostream.h</text>
</a>
</g>
</g>
<!-- Node6&#45;&gt;Node7 -->
<g id="edge7" class="edge">
<title>Node6&#45;&gt;Node7</title>
<path fill="none" stroke="#63b8ff" d="M253.19,-164.98C240.9,-156.84 222.13,-144.41 207.56,-134.76"/>
<polygon fill="#63b8ff" stroke="#63b8ff" points="209.4,-131.78 199.13,-129.17 205.53,-137.61 209.4,-131.78"/>
</g>
<!-- Node8 -->
<g id="node8" class="node">
<title>Node8</title>
<g id="a_node8"><a xlink:title=" ">
<polygon fill="#e0e0e0" stroke="#999999" points="308.54,-129 247.54,-129 247.54,-110 308.54,-110 308.54,-129"/>
<text text-anchor="middle" x="278.04" y="-117" font-family="Helvetica,sans-Serif" font-size="10.00">fmt/std.h</text>
</a>
</g>
</g>
<!-- Node6&#45;&gt;Node8 -->
<g id="edge8" class="edge">
<title>Node6&#45;&gt;Node8</title>
<path fill="none" stroke="#63b8ff" d="M268.02,-164.75C269.61,-157.72 271.9,-147.62 273.89,-138.84"/>
<polygon fill="#63b8ff" stroke="#63b8ff" points="277.3,-139.62 276.1,-129.09 270.47,-138.07 277.3,-139.62"/>
</g>
<!-- Node9 -->
<g id="node9" class="node">
<title>Node9</title>
<g id="a_node9"><a xlink:title=" ">
<polygon fill="#e0e0e0" stroke="#999999" points="513.04,-129 469.04,-129 469.04,-110 513.04,-110 513.04,-129"/>
<text text-anchor="middle" x="491.04" y="-117" font-family="Helvetica,sans-Serif" font-size="10.00">limits</text>
</a>
</g>
</g>
<!-- Node6&#45;&gt;Node9 -->
<g id="edge9" class="edge">
<title>Node6&#45;&gt;Node9</title>
<path fill="none" stroke="#63b8ff" d="M302.19,-164.98C345.59,-154.76 417.7,-137.78 459.13,-128.02"/>
<polygon fill="#63b8ff" stroke="#63b8ff" points="460.03,-131.4 468.96,-125.7 458.43,-124.59 460.03,-131.4"/>
</g>
<!-- Node6&#45;&gt;Node10 -->
<g id="edge10" class="edge">
<title>Node6&#45;&gt;Node10</title>
<path fill="none" stroke="#63b8ff" d="M240.33,-164.98C211.57,-155.46 165.08,-140.06 135.04,-130.11"/>
<polygon fill="#63b8ff" stroke="#63b8ff" points="135.75,-126.65 125.16,-126.83 133.55,-133.3 135.75,-126.65"/>
</g>
<!-- Node11 -->
<g id="node11" class="node">
<title>Node11</title>
<g id="a_node11"><a xlink:title=" ">
<polygon fill="#e0e0e0" stroke="#999999" points="375.04,-129 327.04,-129 327.04,-110 375.04,-110 375.04,-129"/>
<text text-anchor="middle" x="351.04" y="-117" font-family="Helvetica,sans-Serif" font-size="10.00">thread</text>
</a>
</g>
</g>
<!-- Node6&#45;&gt;Node11 -->
<g id="edge11" class="edge">
<title>Node6&#45;&gt;Node11</title>
<path fill="none" stroke="#63b8ff" d="M279.7,-164.98C292.88,-156.77 313.07,-144.18 328.61,-134.49"/>
<polygon fill="#63b8ff" stroke="#63b8ff" points="330.5,-137.43 337.14,-129.17 326.8,-131.49 330.5,-137.43"/>
</g>
<!-- Node19 -->
<g id="node19" class="node">
<title>Node19</title>
<g id="a_node19"><a xlink:href="mem_8h.html" target="_top" xlink:title=" ">
<polygon fill="white" stroke="#666666" points="954.04,-184 868.04,-184 868.04,-165 954.04,-165 954.04,-184"/>
<text text-anchor="middle" x="911.04" y="-172" font-family="Helvetica,sans-Serif" font-size="10.00">ccf/pal/mem.h</text>
</a>
</g>
</g>
<!-- Node18&#45;&gt;Node19 -->
<g id="edge20" class="edge">
<title>Node18&#45;&gt;Node19</title>
<path fill="none" stroke="#63b8ff" d="M1090.66,-219.98C1053.95,-210.89 995.66,-196.46 955.49,-186.51"/>
<polygon fill="#63b8ff" stroke="#63b8ff" points="956.24,-183.09 945.69,-184.08 954.56,-189.88 956.24,-183.09"/>
</g>
<!-- Node21 -->
<g id="node21" class="node">
<title>Node21</title>
<g id="a_node21"><a xlink:title=" ">
<polygon fill="#e0e0e0" stroke="#999999" points="1116.04,-19 1066.04,-19 1066.04,0 1116.04,0 1116.04,-19"/>
<text text-anchor="middle" x="1091.04" y="-7" font-family="Helvetica,sans-Serif" font-size="10.00">cstring</text>
</a>
</g>
</g>
<!-- Node18&#45;&gt;Node21 -->
<g id="edge63" class="edge">
<title>Node18&#45;&gt;Node21</title>
<path fill="none" stroke="#63b8ff" d="M1136.31,-219.62C1150.26,-207.48 1171.02,-184.95 1161.04,-165 1149.11,-141.15 1127.1,-151.66 1113.04,-129 1093.8,-98 1090.56,-54.25 1090.46,-29.5"/>
<polygon fill="#63b8ff" stroke="#63b8ff" points="1093.96,-29.34 1090.59,-19.3 1086.96,-29.25 1093.96,-29.34"/>
</g>
<!-- Node22 -->
<g id="node22" class="node">
<title>Node22</title>
<g id="a_node22"><a xlink:href="ring__buffer__types_8h.html" target="_top" xlink:title=" ">
<polygon fill="white" stroke="#666666" points="1394.04,-184 1284.04,-184 1284.04,-165 1394.04,-165 1394.04,-184"/>
<text text-anchor="middle" x="1339.04" y="-172" font-family="Helvetica,sans-Serif" font-size="10.00">ring_buffer_types.h</text>
</a>
</g>
</g>
<!-- Node18&#45;&gt;Node22 -->
<g id="edge24" class="edge">
<title>Node18&#45;&gt;Node22</title>
<path fill="none" stroke="#63b8ff" d="M1159.42,-219.98C1196.13,-210.89 1254.42,-196.46 1294.59,-186.51"/>
<polygon fill="#63b8ff" stroke="#63b8ff" points="1295.52,-189.88 1304.39,-184.08 1293.84,-183.09 1295.52,-189.88"/>
</g>
<!-- Node18&#45;&gt;Node41 -->
<g id="edge62" class="edge">
<title>Node18&#45;&gt;Node41</title>
<path fill="none" stroke="#63b8ff" d="M1149.51,-219.86C1165.31,-212.85 1184.63,-201.27 1194.04,-184 1203.88,-165.95 1186.09,-147.27 1169.65,-134.88"/>
<polygon fill="#63b8ff" stroke="#63b8ff" points="1171.52,-131.92 1161.33,-129.02 1167.48,-137.64 1171.52,-131.92"/>
</g>
<!-- Node42 -->
<g id="node42" class="node">
<title>Node42</title>
<g id="a_node42"><a xlink:title=" ">
<polygon fill="#e0e0e0" stroke="#999999" points="1151.54,-184 1086.54,-184 1086.54,-165 1151.54,-165 1151.54,-184"/>
<text text-anchor="middle" x="1119.04" y="-172" font-family="Helvetica,sans-Serif" font-size="10.00">functional</text>
</a>
</g>
</g>
<!-- Node18&#45;&gt;Node42 -->
<g id="edge64" class="edge">
<title>Node18&#45;&gt;Node42</title>
<path fill="none" stroke="#63b8ff" d="M1124.05,-219.75C1123.26,-212.8 1122.14,-202.85 1121.15,-194.13"/>
<polygon fill="#63b8ff" stroke="#63b8ff" points="1124.62,-193.63 1120.01,-184.09 1117.66,-194.42 1124.62,-193.63"/>
</g>
<!-- Node19&#45;&gt;Node9 -->
<g id="edge23" class="edge">
<title>Node19&#45;&gt;Node9</title>
<path fill="none" stroke="#63b8ff" d="M867.67,-168.03C783.17,-157.36 598.21,-134.02 523.4,-124.58"/>
<polygon fill="#63b8ff" stroke="#63b8ff" points="523.55,-121.07 513.19,-123.29 522.67,-128.02 523.55,-121.07"/>
</g>
<!-- Node20 -->
<g id="node20" class="node">
<title>Node20</title>
<g id="a_node20"><a xlink:title=" ">
<polygon fill="#e0e0e0" stroke="#999999" points="953.54,-129 900.54,-129 900.54,-110 953.54,-110 953.54,-129"/>
<text text-anchor="middle" x="927.04" y="-117" font-family="Helvetica,sans-Serif" font-size="10.00">stdlib.h</text>
</a>
</g>
</g>
<!-- Node19&#45;&gt;Node20 -->
<g id="edge21" class="edge">
<title>Node19&#45;&gt;Node20</title>
<path fill="none" stroke="#63b8ff" d="M913.68,-164.75C915.8,-157.72 918.85,-147.62 921.5,-138.84"/>
<polygon fill="#63b8ff" stroke="#63b8ff" points="924.91,-139.67 924.45,-129.09 918.21,-137.65 924.91,-139.67"/>
</g>
<!-- Node19&#45;&gt;Node21 -->
<g id="edge22" class="edge">
<title>Node19&#45;&gt;Node21</title>
<path fill="none" stroke="#63b8ff" d="M904.52,-164.91C895.84,-152.35 882.62,-128.45 892.04,-110 923.38,-48.63 1007.69,-24.47 1055.92,-15.47"/>
<polygon fill="#63b8ff" stroke="#63b8ff" points="1056.67,-18.89 1065.92,-13.72 1055.46,-11.99 1056.67,-18.89"/>
</g>
<!-- Node22&#45;&gt;Node5 -->
<g id="edge57" class="edge">
<title>Node22&#45;&gt;Node5</title>
<path fill="none" stroke="#63b8ff" d="M1283.79,-169.27C1152.17,-159.21 821.71,-133.93 695.81,-124.31"/>
<polygon fill="#63b8ff" stroke="#63b8ff" points="695.92,-120.8 685.69,-123.53 695.39,-127.78 695.92,-120.8"/>
</g>
<!-- Node22&#45;&gt;Node15 -->
<g id="edge58" class="edge">
<title>Node22&#45;&gt;Node15</title>
<path fill="none" stroke="#63b8ff" d="M1290.68,-164.98C1231.04,-154.48 1130.89,-136.85 1076.31,-127.24"/>
<polygon fill="#63b8ff" stroke="#63b8ff" points="1076.81,-123.77 1066.35,-125.49 1075.6,-130.67 1076.81,-123.77"/>
</g>
<!-- Node23 -->
<g id="node23" class="node">
<title>Node23</title>
<g id="a_node23"><a xlink:href="include_2ccf_2ds_2hash_8h.html" target="_top" xlink:title=" ">
<polygon fill="white" stroke="#666666" points="1817.04,-129 1737.04,-129 1737.04,-110 1817.04,-110 1817.04,-129"/>
<text text-anchor="middle" x="1777.04" y="-117" font-family="Helvetica,sans-Serif" font-size="10.00">ccf/ds/hash.h</text>
</a>
</g>
</g>
<!-- Node22&#45;&gt;Node23 -->
<g id="edge25" class="edge">
<title>Node22&#45;&gt;Node23</title>
<path fill="none" stroke="#63b8ff" d="M1394.07,-166.84C1479.78,-156.47 1643.9,-136.61 1726.67,-126.6"/>
<polygon fill="#63b8ff" stroke="#63b8ff" points="1727.32,-130.04 1736.83,-125.37 1726.48,-123.09 1727.32,-130.04"/>
</g>
<!-- Node27 -->
<g id="node27" class="node">
<title>Node27</title>
<g id="a_node27"><a xlink:title=" ">
<polygon fill="#e0e0e0" stroke="#999999" points="1902.54,-19 1855.54,-19 1855.54,0 1902.54,0 1902.54,-19"/>
<text text-anchor="middle" x="1879.04" y="-7" font-family="Helvetica,sans-Serif" font-size="10.00">vector</text>
</a>
</g>
</g>
<!-- Node22&#45;&gt;Node27 -->
<g id="edge61" class="edge">
<title>Node22&#45;&gt;Node27</title>
<path fill="none" stroke="#63b8ff" d="M1394.37,-173.19C1505.33,-171.8 1750.86,-164.65 1826.04,-129 1856.99,-114.32 1867.08,-105.71 1880.04,-74 1885.85,-59.79 1885.04,-42.26 1883.1,-29.22"/>
<polygon fill="#63b8ff" stroke="#63b8ff" points="1886.49,-28.31 1881.24,-19.11 1879.61,-29.58 1886.49,-28.31"/>
</g>
<!-- Node31 -->
<g id="node31" class="node">
<title>Node31</title>
<g id="a_node31"><a xlink:href="nonstd_8h.html" target="_top" xlink:title=" ">
<polygon fill="white" stroke="#666666" points="1571.04,-74 1481.04,-74 1481.04,-55 1571.04,-55 1571.04,-74"/>
<text text-anchor="middle" x="1526.04" y="-62" font-family="Helvetica,sans-Serif" font-size="10.00">ccf/ds/nonstd.h</text>
</a>
</g>
</g>
<!-- Node22&#45;&gt;Node31 -->
<g id="edge35" class="edge">
<title>Node22&#45;&gt;Node31</title>
<path fill="none" stroke="#63b8ff" d="M1354.03,-164.84C1386.39,-146.16 1463.02,-101.9 1502.15,-79.3"/>
<polygon fill="#63b8ff" stroke="#63b8ff" points="1504.33,-82.08 1511.24,-74.05 1500.83,-76.02 1504.33,-82.08"/>
</g>
<!-- Node34 -->
<g id="node34" class="node">
<title>Node34</title>
<g id="a_node34"><a xlink:title=" ">
<polygon fill="#e0e0e0" stroke="#999999" points="1333.04,-19 1289.04,-19 1289.04,0 1333.04,0 1333.04,-19"/>
<text text-anchor="middle" x="1311.04" y="-7" font-family="Helvetica,sans-Serif" font-size="10.00">string</text>
</a>
</g>
</g>
<!-- Node22&#45;&gt;Node34 -->
<g id="edge60" class="edge">
<title>Node22&#45;&gt;Node34</title>
<path fill="none" stroke="#63b8ff" d="M1316.09,-164.95C1269.79,-147.17 1167.98,-105.3 1149.04,-74 1144.67,-66.78 1143.92,-61.72 1149.04,-55 1149.1,-54.92 1231.92,-32.2 1279.1,-19.26"/>
<polygon fill="#63b8ff" stroke="#63b8ff" points="1280.15,-22.6 1288.87,-16.58 1278.3,-15.85 1280.15,-22.6"/>
</g>
<!-- Node35 -->
<g id="node35" class="node">
<title>Node35</title>
<g id="a_node35"><a xlink:href="serializer_8h.html" target="_top" xlink:title=" ">
<polygon fill="white" stroke="#666666" points="1407.04,-129 1337.04,-129 1337.04,-110 1407.04,-110 1407.04,-129"/>
<text text-anchor="middle" x="1372.04" y="-117" font-family="Helvetica,sans-Serif" font-size="10.00">serializer.h</text>
</a>
</g>
</g>
<!-- Node22&#45;&gt;Node35 -->
<g id="edge43" class="edge">
<title>Node22&#45;&gt;Node35</title>
<path fill="none" stroke="#63b8ff" d="M1344.49,-164.75C1349.05,-157.42 1355.71,-146.73 1361.33,-137.7"/>
<polygon fill="#63b8ff" stroke="#63b8ff" points="1364.38,-139.43 1366.69,-129.09 1358.44,-135.73 1364.38,-139.43"/>
</g>
<!-- Node39 -->
<g id="node39" class="node">
<title>Node39</title>
<g id="a_node39"><a xlink:title=" ">
<polygon fill="#e0e0e0" stroke="#999999" points="1289.04,-74 1249.04,-74 1249.04,-55 1289.04,-55 1289.04,-74"/>
<text text-anchor="middle" x="1269.04" y="-62" font-family="Helvetica,sans-Serif" font-size="10.00">span</text>
</a>
</g>
</g>
<!-- Node22&#45;&gt;Node39 -->
<g id="edge59" class="edge">
<title>Node22&#45;&gt;Node39</title>
<path fill="none" stroke="#63b8ff" d="M1333.31,-164.66C1321.72,-146.77 1295.29,-106 1280.18,-82.69"/>
<polygon fill="#63b8ff" stroke="#63b8ff" points="1283.03,-80.65 1274.65,-74.16 1277.15,-84.45 1283.03,-80.65"/>
</g>
<!-- Node22&#45;&gt;Node41 -->
<g id="edge56" class="edge">
<title>Node22&#45;&gt;Node41</title>
<path fill="none" stroke="#63b8ff" d="M1308.19,-164.98C1273.85,-155.5 1218.43,-140.21 1182.37,-130.25"/>
<polygon fill="#63b8ff" stroke="#63b8ff" points="1182.87,-126.76 1172.3,-127.47 1181,-133.51 1182.87,-126.76"/>
</g>
<!-- Node24 -->
<g id="node24" class="node">
<title>Node24</title>
<g id="a_node24"><a xlink:href="siphash_8h.html" target="_top" xlink:title=" ">
<polygon fill="white" stroke="#666666" points="2116.54,-74 2021.54,-74 2021.54,-55 2116.54,-55 2116.54,-74"/>
<text text-anchor="middle" x="2069.04" y="-62" font-family="Helvetica,sans-Serif" font-size="10.00">ccf/ds/siphash.h</text>
</a>
</g>
</g>
<!-- Node23&#45;&gt;Node24 -->
<g id="edge26" class="edge">
<title>Node23&#45;&gt;Node24</title>
<path fill="none" stroke="#63b8ff" d="M1817.34,-111.19C1867.81,-102.02 1954.62,-86.27 2011.93,-75.87"/>
<polygon fill="#63b8ff" stroke="#63b8ff" points="2012.7,-79.28 2021.92,-74.05 2011.45,-72.4 2012.7,-79.28"/>
</g>
<!-- Node26 -->
<g id="node26" class="node">
<title>Node26</title>
<g id="a_node26"><a xlink:title=" ">
<polygon fill="#e0e0e0" stroke="#999999" points="1980.04,-19 1930.04,-19 1930.04,0 1980.04,0 1980.04,-19"/>
<text text-anchor="middle" x="1955.04" y="-7" font-family="Helvetica,sans-Serif" font-size="10.00">cstdint</text>
</a>
</g>
</g>
<!-- Node23&#45;&gt;Node26 -->
<g id="edge31" class="edge">
<title>Node23&#45;&gt;Node26</title>
<path fill="none" stroke="#63b8ff" d="M1802.62,-109.85C1824.12,-102.03 1855.21,-89.4 1880.04,-74 1902.3,-60.19 1924.85,-40.1 1939.32,-26.23"/>
<polygon fill="#63b8ff" stroke="#63b8ff" points="1941.76,-28.74 1946.48,-19.25 1936.88,-23.73 1941.76,-28.74"/>
</g>
<!-- Node23&#45;&gt;Node27 -->
<g id="edge34" class="edge">
<title>Node23&#45;&gt;Node27</title>
<path fill="none" stroke="#63b8ff" d="M1805.4,-109.99C1823.77,-103.09 1846.83,-91.58 1861.04,-74 1871.28,-61.33 1875.7,-43.15 1877.6,-29.48"/>
<polygon fill="#63b8ff" stroke="#63b8ff" points="1881.11,-29.6 1878.68,-19.29 1874.15,-28.86 1881.11,-29.6"/>
</g>
<!-- Node28 -->
<g id="node28" class="node">
<title>Node28</title>
<g id="a_node28"><a xlink:title=" ">
<polygon fill="#e0e0e0" stroke="#999999" points="1596.04,-19 1554.04,-19 1554.04,0 1596.04,0 1596.04,-19"/>
<text text-anchor="middle" x="1575.04" y="-7" font-family="Helvetica,sans-Serif" font-size="10.00">array</text>
</a>
</g>
</g>
<!-- Node23&#45;&gt;Node28 -->
<g id="edge30" class="edge">
<title>Node23&#45;&gt;Node28</title>
<path fill="none" stroke="#63b8ff" d="M1753.79,-109.87C1732.36,-101.61 1699.9,-88.32 1673.04,-74 1644.93,-59.02 1614.41,-38.51 1595.03,-24.9"/>
<polygon fill="#63b8ff" stroke="#63b8ff" points="1596.89,-21.93 1586.71,-19 1592.84,-27.64 1596.89,-21.93"/>
</g>
<!-- Node29 -->
<g id="node29" class="node">
<title>Node29</title>
<g id="a_node29"><a xlink:title=" ">
<polygon fill="#e0e0e0" stroke="#999999" points="1851.54,-74 1702.54,-74 1702.54,-55 1851.54,-55 1851.54,-74"/>
<text text-anchor="middle" x="1777.04" y="-62" font-family="Helvetica,sans-Serif" font-size="10.00">small_vector/SmallVector.h</text>
</a>
</g>
</g>
<!-- Node23&#45;&gt;Node29 -->
<g id="edge32" class="edge">
<title>Node23&#45;&gt;Node29</title>
<path fill="none" stroke="#63b8ff" d="M1777.04,-109.75C1777.04,-102.8 1777.04,-92.85 1777.04,-84.13"/>
<polygon fill="#63b8ff" stroke="#63b8ff" points="1780.54,-84.09 1777.04,-74.09 1773.54,-84.09 1780.54,-84.09"/>
</g>
<!-- Node30 -->
<g id="node30" class="node">
<title>Node30</title>
<g id="a_node30"><a xlink:title=" ">
<polygon fill="#e0e0e0" stroke="#999999" points="1687.54,-19 1614.54,-19 1614.54,0 1687.54,0 1687.54,-19"/>
<text text-anchor="middle" x="1651.04" y="-7" font-family="Helvetica,sans-Serif" font-size="10.00">string_view</text>
</a>
</g>
</g>
<!-- Node23&#45;&gt;Node30 -->
<g id="edge33" class="edge">
<title>Node23&#45;&gt;Node30</title>
<path fill="none" stroke="#63b8ff" d="M1754.42,-109.92C1736.61,-102.38 1711.89,-90.1 1694.04,-74 1679.56,-60.94 1667.57,-42.04 1659.97,-28.26"/>
<polygon fill="#63b8ff" stroke="#63b8ff" points="1662.99,-26.49 1655.23,-19.28 1656.8,-29.76 1662.99,-26.49"/>
</g>
<!-- Node25 -->
<g id="node25" class="node">
<title>Node25</title>
<g id="a_node25"><a xlink:title=" ">
<polygon fill="#e0e0e0" stroke="#999999" points="2095.54,-19 2042.54,-19 2042.54,0 2095.54,0 2095.54,-19"/>
<text text-anchor="middle" x="2069.04" y="-7" font-family="Helvetica,sans-Serif" font-size="10.00">cstddef</text>
</a>
</g>
</g>
<!-- Node24&#45;&gt;Node25 -->
<g id="edge27" class="edge">
<title>Node24&#45;&gt;Node25</title>
<path fill="none" stroke="#63b8ff" d="M2069.04,-54.75C2069.04,-47.8 2069.04,-37.85 2069.04,-29.13"/>
<polygon fill="#63b8ff" stroke="#63b8ff" points="2072.54,-29.09 2069.04,-19.09 2065.54,-29.09 2072.54,-29.09"/>
</g>
<!-- Node24&#45;&gt;Node26 -->
<g id="edge28" class="edge">
<title>Node24&#45;&gt;Node26</title>
<path fill="none" stroke="#63b8ff" d="M2050.72,-54.98C2032.39,-46.46 2003.93,-33.23 1982.81,-23.41"/>
<polygon fill="#63b8ff" stroke="#63b8ff" points="1984.23,-20.21 1973.69,-19.17 1981.28,-26.56 1984.23,-20.21"/>
</g>
<!-- Node24&#45;&gt;Node27 -->
<g id="edge29" class="edge">
<title>Node24&#45;&gt;Node27</title>
<path fill="none" stroke="#63b8ff" d="M2038.51,-54.98C2004.05,-45.37 1948.14,-29.78 1912.51,-19.84"/>
<polygon fill="#63b8ff" stroke="#63b8ff" points="1913.16,-16.38 1902.59,-17.07 1911.28,-23.13 1913.16,-16.38"/>
</g>
<!-- Node31&#45;&gt;Node17 -->
<g id="edge41" class="edge">
<title>Node31&#45;&gt;Node17</title>
<path fill="none" stroke="#63b8ff" d="M1480.67,-55.46C1433.41,-47.05 1356.93,-33.33 1280.86,-19.13"/>
<polygon fill="#63b8ff" stroke="#63b8ff" points="1281.09,-15.62 1270.62,-17.22 1279.81,-22.5 1281.09,-15.62"/>
</g>
<!-- Node31&#45;&gt;Node27 -->
<g id="edge42" class="edge">
<title>Node31&#45;&gt;Node27</title>
<path fill="none" stroke="#63b8ff" d="M1571.11,-56.73C1642.94,-45.95 1781.79,-25.1 1845.55,-15.53"/>
<polygon fill="#63b8ff" stroke="#63b8ff" points="1846.1,-18.98 1855.47,-14.04 1845.06,-12.06 1846.1,-18.98"/>
</g>
<!-- Node31&#45;&gt;Node28 -->
<g id="edge37" class="edge">
<title>Node31&#45;&gt;Node28</title>
<path fill="none" stroke="#63b8ff" d="M1534.13,-54.75C1541.2,-47.11 1551.63,-35.82 1560.19,-26.56"/>
<polygon fill="#63b8ff" stroke="#63b8ff" points="1562.88,-28.81 1567.1,-19.09 1557.74,-24.06 1562.88,-28.81"/>
</g>
<!-- Node31&#45;&gt;Node30 -->
<g id="edge40" class="edge">
<title>Node31&#45;&gt;Node30</title>
<path fill="none" stroke="#63b8ff" d="M1546.12,-54.98C1566.41,-46.38 1598,-32.99 1621.21,-23.15"/>
<polygon fill="#63b8ff" stroke="#63b8ff" points="1622.75,-26.3 1630.59,-19.17 1620.02,-19.85 1622.75,-26.3"/>
</g>
<!-- Node32 -->
<g id="node32" class="node">
<title>Node32</title>
<g id="a_node32"><a xlink:title=" ">
<polygon fill="#e0e0e0" stroke="#999999" points="1468.04,-19 1404.04,-19 1404.04,0 1468.04,0 1468.04,-19"/>
<text text-anchor="middle" x="1436.04" y="-7" font-family="Helvetica,sans-Serif" font-size="10.00">algorithm</text>
</a>
</g>
</g>
<!-- Node31&#45;&gt;Node32 -->
<g id="edge36" class="edge">
<title>Node31&#45;&gt;Node32</title>
<path fill="none" stroke="#63b8ff" d="M1511.58,-54.98C1497.62,-46.77 1476.25,-34.18 1459.79,-24.49"/>
<polygon fill="#63b8ff" stroke="#63b8ff" points="1461.16,-21.23 1450.76,-19.17 1457.6,-27.26 1461.16,-21.23"/>
</g>
<!-- Node33 -->
<g id="node33" class="node">
<title>Node33</title>
<g id="a_node33"><a xlink:title=" ">
<polygon fill="#e0e0e0" stroke="#999999" points="1535.54,-19 1486.54,-19 1486.54,0 1535.54,0 1535.54,-19"/>
<text text-anchor="middle" x="1511.04" y="-7" font-family="Helvetica,sans-Serif" font-size="10.00">cctype</text>
</a>
</g>
</g>
<!-- Node31&#45;&gt;Node33 -->
<g id="edge38" class="edge">
<title>Node31&#45;&gt;Node33</title>
<path fill="none" stroke="#63b8ff" d="M1523.56,-54.75C1521.58,-47.72 1518.72,-37.62 1516.23,-28.84"/>
<polygon fill="#63b8ff" stroke="#63b8ff" points="1519.56,-27.76 1513.47,-19.09 1512.83,-29.66 1519.56,-27.76"/>
</g>
<!-- Node31&#45;&gt;Node34 -->
<g id="edge39" class="edge">
<title>Node31&#45;&gt;Node34</title>
<path fill="none" stroke="#63b8ff" d="M1491.5,-54.98C1450.55,-44.89 1382.86,-28.2 1343.05,-18.39"/>
<polygon fill="#63b8ff" stroke="#63b8ff" points="1343.87,-14.99 1333.33,-15.99 1342.2,-21.79 1343.87,-14.99"/>
</g>
<!-- Node35&#45;&gt;Node17 -->
<g id="edge54" class="edge">
<title>Node35&#45;&gt;Node17</title>
<path fill="none" stroke="#63b8ff" d="M1362.22,-109.59C1348.26,-97.04 1321.74,-73.61 1298.04,-55 1284.76,-44.56 1269.32,-33.49 1257.18,-24.99"/>
<polygon fill="#63b8ff" stroke="#63b8ff" points="1258.84,-21.88 1248.62,-19.06 1254.85,-27.63 1258.84,-21.88"/>
</g>
<!-- Node35&#45;&gt;Node27 -->
<g id="edge55" class="edge">
<title>Node35&#45;&gt;Node27</title>
<path fill="none" stroke="#63b8ff" d="M1407.29,-110.99C1500.81,-91.07 1754.3,-37.07 1845.65,-17.61"/>
<polygon fill="#63b8ff" stroke="#63b8ff" points="1846.42,-21.03 1855.48,-15.52 1844.97,-14.18 1846.42,-21.03"/>
</g>
<!-- Node35&#45;&gt;Node31 -->
<g id="edge44" class="edge">
<title>Node35&#45;&gt;Node31</title>
<path fill="none" stroke="#63b8ff" d="M1396.78,-109.98C1422.41,-101.16 1462.67,-87.31 1491.45,-77.41"/>
<polygon fill="#63b8ff" stroke="#63b8ff" points="1492.79,-80.65 1501.1,-74.08 1490.51,-74.03 1492.79,-80.65"/>
</g>
<!-- Node36 -->
<g id="node36" class="node">
<title>Node36</title>
<g id="a_node36"><a xlink:href="serialized_8h.html" target="_top" xlink:title=" ">
<polygon fill="white" stroke="#666666" points="1230.54,-74 1157.54,-74 1157.54,-55 1230.54,-55 1230.54,-74"/>
<text text-anchor="middle" x="1194.04" y="-62" font-family="Helvetica,sans-Serif" font-size="10.00">serialized.h</text>
</a>
</g>
</g>
<!-- Node35&#45;&gt;Node36 -->
<g id="edge45" class="edge">
<title>Node35&#45;&gt;Node36</title>
<path fill="none" stroke="#63b8ff" d="M1343.44,-109.98C1313.43,-101.05 1266.06,-86.94 1232.72,-77.02"/>
<polygon fill="#63b8ff" stroke="#63b8ff" points="1233.45,-73.58 1222.86,-74.08 1231.45,-80.29 1233.45,-73.58"/>
</g>
<!-- Node38 -->
<g id="node38" class="node">
<title>Node38</title>
<g id="a_node38"><a xlink:title=" ">
<polygon fill="#e0e0e0" stroke="#999999" points="1403.04,-74 1345.04,-74 1345.04,-55 1403.04,-55 1403.04,-74"/>
<text text-anchor="middle" x="1374.04" y="-62" font-family="Helvetica,sans-Serif" font-size="10.00">memory</text>
</a>
</g>
</g>
<!-- Node35&#45;&gt;Node38 -->
<g id="edge51" class="edge">
<title>Node35&#45;&gt;Node38</title>
<path fill="none" stroke="#63b8ff" d="M1372.37,-109.75C1372.63,-102.8 1373.01,-92.85 1373.34,-84.13"/>
<polygon fill="#63b8ff" stroke="#63b8ff" points="1376.84,-84.21 1373.72,-74.09 1369.84,-83.95 1376.84,-84.21"/>
</g>
<!-- Node35&#45;&gt;Node39 -->
<g id="edge52" class="edge">
<title>Node35&#45;&gt;Node39</title>
<path fill="none" stroke="#63b8ff" d="M1355.49,-109.98C1339.15,-101.57 1313.91,-88.59 1294.91,-78.81"/>
<polygon fill="#63b8ff" stroke="#63b8ff" points="1296.38,-75.63 1285.89,-74.17 1293.18,-81.86 1296.38,-75.63"/>
</g>
<!-- Node40 -->
<g id="node40" class="node">
<title>Node40</title>
<g id="a_node40"><a xlink:title=" ">
<polygon fill="#e0e0e0" stroke="#999999" points="1462.54,-74 1421.54,-74 1421.54,-55 1462.54,-55 1462.54,-74"/>
<text text-anchor="middle" x="1442.04" y="-62" font-family="Helvetica,sans-Serif" font-size="10.00">tuple</text>
</a>
</g>
</g>
<!-- Node35&#45;&gt;Node40 -->
<g id="edge53" class="edge">
<title>Node35&#45;&gt;Node40</title>
<path fill="none" stroke="#63b8ff" d="M1383.29,-109.98C1393.84,-102 1409.84,-89.88 1422.48,-80.31"/>
<polygon fill="#63b8ff" stroke="#63b8ff" points="1424.73,-83 1430.59,-74.17 1420.5,-77.42 1424.73,-83"/>
</g>
<!-- Node36&#45;&gt;Node21 -->
<g id="edge47" class="edge">
<title>Node36&#45;&gt;Node21</title>
<path fill="none" stroke="#63b8ff" d="M1177.49,-54.98C1161.15,-46.57 1135.91,-33.59 1116.91,-23.81"/>
<polygon fill="#63b8ff" stroke="#63b8ff" points="1118.38,-20.63 1107.89,-19.17 1115.18,-26.86 1118.38,-20.63"/>
</g>
<!-- Node36&#45;&gt;Node26 -->
<g id="edge46" class="edge">
<title>Node36&#45;&gt;Node26</title>
<path fill="none" stroke="#63b8ff" d="M1230.63,-56.3C1233.81,-55.81 1236.98,-55.36 1240.04,-55 1537.05,-19.75 1615.25,-56.09 1912.04,-19 1914.55,-18.69 1917.13,-18.31 1919.73,-17.89"/>
<polygon fill="#63b8ff" stroke="#63b8ff" points="1920.43,-21.32 1929.67,-16.13 1919.21,-14.43 1920.43,-21.32"/>
</g>
<!-- Node36&#45;&gt;Node27 -->
<g id="edge50" class="edge">
<title>Node36&#45;&gt;Node27</title>
<path fill="none" stroke="#63b8ff" d="M1230.64,-56.35C1233.81,-55.85 1236.98,-55.39 1240.04,-55 1358.94,-39.92 1730.62,-18.69 1845.12,-12.35"/>
<polygon fill="#63b8ff" stroke="#63b8ff" points="1845.59,-15.83 1855.38,-11.79 1845.2,-8.84 1845.59,-15.83"/>
</g>
<!-- Node36&#45;&gt;Node34 -->
<g id="edge49" class="edge">
<title>Node36&#45;&gt;Node34</title>
<path fill="none" stroke="#63b8ff" d="M1212.84,-54.98C1231.66,-46.46 1260.86,-33.23 1282.54,-23.41"/>
<polygon fill="#63b8ff" stroke="#63b8ff" points="1284.24,-26.48 1291.9,-19.17 1281.35,-20.11 1284.24,-26.48"/>
</g>
<!-- Node36&#45;&gt;Node37 -->
<g id="edge48" class="edge">
<title>Node36&#45;&gt;Node37</title>
<path fill="none" stroke="#63b8ff" d="M1157.34,-60.5C1045.46,-51.35 708.99,-23.83 589.07,-14.02"/>
<polygon fill="#63b8ff" stroke="#63b8ff" points="589.07,-10.51 578.82,-13.18 588.5,-17.48 589.07,-10.51"/>
</g>
<!-- Node44&#45;&gt;Node22 -->
<g id="edge76" class="edge">
<title>Node44&#45;&gt;Node22</title>
<path fill="none" stroke="#63b8ff" d="M1339.04,-384.95C1339.04,-352.95 1339.04,-239.68 1339.04,-194.4"/>
<polygon fill="#63b8ff" stroke="#63b8ff" points="1342.54,-194.22 1339.04,-184.22 1335.54,-194.22 1342.54,-194.22"/>
</g>
<!-- Node44&#45;&gt;Node27 -->
<g id="edge78" class="edge">
<title>Node44&#45;&gt;Node27</title>
<path fill="none" stroke="#63b8ff" d="M1394.24,-385.83C1551.91,-363.75 1993.04,-300.62 1993.04,-285.5 1993.04,-285.5 1993.04,-285.5 1993.04,-118.5 1993.04,-72.47 1943.46,-40.18 1909.69,-23.53"/>
<polygon fill="#63b8ff" stroke="#63b8ff" points="1910.75,-20.16 1900.22,-19.05 1907.76,-26.49 1910.75,-20.16"/>
</g>
<!-- Node45 -->
<g id="node45" class="node">
<title>Node45</title>
<g id="a_node45"><a xlink:href="oversized_8h.html" target="_top" xlink:title=" ">
<polygon fill="white" stroke="#666666" points="1100.54,-349 1013.54,-349 1013.54,-330 1100.54,-330 1100.54,-349"/>
<text text-anchor="middle" x="1057.04" y="-337" font-family="Helvetica,sans-Serif" font-size="10.00">ds/oversized.h</text>
</a>
</g>
</g>
<!-- Node44&#45;&gt;Node45 -->
<g id="edge70" class="edge">
<title>Node44&#45;&gt;Node45</title>
<path fill="none" stroke="#63b8ff" d="M1293.73,-384.98C1243.86,-375.61 1163.73,-360.55 1110.74,-350.59"/>
<polygon fill="#63b8ff" stroke="#63b8ff" points="1111.32,-347.14 1100.84,-348.73 1110.03,-354.02 1111.32,-347.14"/>
</g>
<!-- Node44&#45;&gt;Node47 -->
<g id="edge77" class="edge">
<title>Node44&#45;&gt;Node47</title>
<path fill="none" stroke="#63b8ff" d="M1394.37,-386.38C1398.99,-385.87 1403.59,-385.41 1408.04,-385 1673.63,-360.68 1742.85,-385.51 2007.04,-349 2008.31,-348.82 2009.61,-348.63 2010.91,-348.42"/>
<polygon fill="#63b8ff" stroke="#63b8ff" points="2011.77,-351.82 2020.97,-346.56 2010.5,-344.94 2011.77,-351.82"/>
</g>
<!-- Node45&#45;&gt;Node2 -->
<g id="edge71" class="edge">
<title>Node45&#45;&gt;Node2</title>
<path fill="none" stroke="#63b8ff" d="M1013.33,-330.57C962.4,-321.32 878.11,-306.02 822.08,-295.85"/>
<polygon fill="#63b8ff" stroke="#63b8ff" points="822.42,-292.36 811.96,-294.02 821.17,-299.25 822.42,-292.36"/>
</g>
<!-- Node45&#45;&gt;Node5 -->
<g id="edge74" class="edge">
<title>Node45&#45;&gt;Node5</title>
<path fill="none" stroke="#63b8ff" d="M1048.01,-329.78C1018.24,-301.5 919.43,-211.5 821.04,-165 781.06,-146.1 732,-134.52 696.01,-127.93"/>
<polygon fill="#63b8ff" stroke="#63b8ff" points="696.21,-124.41 685.75,-126.12 694.99,-131.3 696.21,-124.41"/>
</g>
<!-- Node45&#45;&gt;Node18 -->
<g id="edge72" class="edge">
<title>Node45&#45;&gt;Node18</title>
<path fill="none" stroke="#63b8ff" d="M1062.61,-329.66C1073.87,-311.77 1099.54,-271 1114.21,-247.69"/>
<polygon fill="#63b8ff" stroke="#63b8ff" points="1117.22,-249.49 1119.59,-239.16 1111.3,-245.76 1117.22,-249.49"/>
</g>
<!-- Node45&#45;&gt;Node36 -->
<g id="edge73" class="edge">
<title>Node45&#45;&gt;Node36</title>
<path fill="none" stroke="#63b8ff" d="M1100.71,-334.09C1159.29,-325.49 1256.04,-300.67 1256.04,-230.5 1256.04,-230.5 1256.04,-230.5 1256.04,-173.5 1256.04,-136.64 1228.54,-100.97 1210.17,-81.26"/>
<polygon fill="#63b8ff" stroke="#63b8ff" points="1212.66,-78.8 1203.19,-74.06 1207.63,-83.67 1212.66,-78.8"/>
</g>
<!-- Node45&#45;&gt;Node46 -->
<g id="edge75" class="edge">
<title>Node45&#45;&gt;Node46</title>
<path fill="none" stroke="#63b8ff" d="M1013.45,-333.24C949.51,-325.45 826.29,-310.16 710.85,-294.08"/>
<polygon fill="#63b8ff" stroke="#63b8ff" points="711.17,-290.59 700.78,-292.68 710.2,-297.53 711.17,-290.59"/>
</g>
</g>
</svg>
