<?xml version="1.0" encoding="UTF-8" standalone="no"?>
<!DOCTYPE svg PUBLIC "-//W3C//DTD SVG 1.1//EN"
 "http://www.w3.org/Graphics/SVG/1.1/DTD/svg11.dtd">
<!-- Generated by graphviz version 2.43.0 (0)
 -->
<!-- Title: include/ccf/service/tables/proposals.h Pages: 1 -->
<!--zoomable 643 -->
<svg id="main" version="1.1" xmlns="http://www.w3.org/2000/svg" xmlns:xlink="http://www.w3.org/1999/xlink" xml:space="preserve" onload="init(evt)">
<style type="text/css"><![CDATA[
.edge:hover path { stroke: red; }
.edge:hover polygon { stroke: red; fill: red; }
]]></style>
<script type="text/javascript"><![CDATA[
var edges = document.getElementsByTagName('g');
if (edges && edges.length) {
  for (var i=0;i<edges.length;i++) {
    if (edges[i].id.substr(0,4)=='edge') {
      edges[i].setAttribute('class','edge');
    }
  }
}
]]></script>
        <defs>
                <circle id="rim" cx="0" cy="0" r="7"/>
                <circle id="rim2" cx="0" cy="0" r="3.5"/>
                <g id="zoomPlus">
                        <use xlink:href="#rim" fill="#404040">
                                <set attributeName="fill" to="#808080" begin="zoomplus.mouseover" end="zoomplus.mouseout"/>
                        </use>
                        <path d="M-4,0h8M0,-4v8" fill="none" stroke="white" stroke-width="1.5" pointer-events="none"/>
                </g>
                <g id="zoomMin">
                        <use xlink:href="#rim" fill="#404040">
                                <set attributeName="fill" to="#808080" begin="zoomminus.mouseover" end="zoomminus.mouseout"/>
                        </use>
                        <path d="M-4,0h8" fill="none" stroke="white" stroke-width="1.5" pointer-events="none"/>
                </g>
                <g id="dirArrow">
                        <path fill="none" stroke="white" stroke-width="1.5" d="M0,-3.0v7 M-2.5,-0.5L0,-3.0L2.5,-0.5"/>
                </g>
               <g id="resetDef">
                       <use xlink:href="#rim2" fill="#404040">
                               <set attributeName="fill" to="#808080" begin="reset.mouseover" end="reset.mouseout"/>
                       </use>
               </g>
        </defs>

<script type="text/javascript">
var viewWidth = 1714;
var viewHeight = 643;
var sectionId = 'dynsection-1';
</script>
<script xlink:href="svgpan.js"/>
<svg id="graph" class="graph">
<g id="viewport">
<title>include/ccf/service/tables/proposals.h</title>
<!-- Node1 -->
<g id="node1" class="node">
<title>Node1</title>
<g id="a_node1"><a xlink:title=" ">
<polygon fill="#999999" stroke="#666666" points="476.5,-635 367.5,-635 367.5,-605 476.5,-605 476.5,-635"/>
<text text-anchor="start" x="375.5" y="-623" font-family="Helvetica,sans-Serif" font-size="10.00">include/ccf/service</text>
<text text-anchor="middle" x="422" y="-612" font-family="Helvetica,sans-Serif" font-size="10.00">/tables/proposals.h</text>
</a>
</g>
</g>
<!-- Node2 -->
<g id="node2" class="node">
<title>Node2</title>
<g id="a_node2"><a xlink:href="gov_8h.html" target="_top" xlink:title=" ">
<polygon fill="white" stroke="#666666" points="608.5,-569 501.5,-569 501.5,-539 608.5,-539 608.5,-569"/>
<text text-anchor="start" x="509.5" y="-557" font-family="Helvetica,sans-Serif" font-size="10.00">include/ccf/service</text>
<text text-anchor="middle" x="555" y="-546" font-family="Helvetica,sans-Serif" font-size="10.00">/tables/gov.h</text>
</a>
</g>
</g>
<!-- Node1&#45;&gt;Node2 -->
<g id="edge1" class="edge">
<title>Node1&#45;&gt;Node2</title>
<path fill="none" stroke="#63b8ff" d="M460.42,-600.51C481.28,-590.47 506.67,-578.26 525.88,-569.01"/>
<polygon fill="#63b8ff" stroke="#63b8ff" points="458.68,-597.46 451.19,-604.95 461.72,-603.77 458.68,-597.46"/>
</g>
<!-- Node6 -->
<g id="node6" class="node">
<title>Node6</title>
<g id="a_node6"><a xlink:href="network__tables_8h.html" target="_top" xlink:title=" ">
<polygon fill="white" stroke="#666666" points="433,-503 321,-503 321,-473 433,-473 433,-503"/>
<text text-anchor="start" x="329" y="-491" font-family="Helvetica,sans-Serif" font-size="10.00">src/service/network</text>
<text text-anchor="middle" x="377" y="-480" font-family="Helvetica,sans-Serif" font-size="10.00">_tables.h</text>
</a>
</g>
</g>
<!-- Node1&#45;&gt;Node6 -->
<g id="edge46" class="edge">
<title>Node1&#45;&gt;Node6</title>
<path fill="none" stroke="#63b8ff" d="M380.89,-599.62C369.06,-591.87 357.59,-581.71 351,-569 339.7,-547.22 354.43,-519.57 365.89,-503.14"/>
<polygon fill="#63b8ff" stroke="#63b8ff" points="379.13,-602.65 389.49,-604.84 382.76,-596.66 379.13,-602.65"/>
</g>
<!-- Node26 -->
<g id="node26" class="node">
<title>Node26</title>
<g id="a_node26"><a xlink:href="governance__history_8h.html" target="_top" xlink:title=" ">
<polygon fill="white" stroke="#666666" points="483.5,-569 360.5,-569 360.5,-539 483.5,-539 483.5,-569"/>
<text text-anchor="start" x="368.5" y="-557" font-family="Helvetica,sans-Serif" font-size="10.00">src/service/tables</text>
<text text-anchor="middle" x="422" y="-546" font-family="Helvetica,sans-Serif" font-size="10.00">/governance_history.h</text>
</a>
</g>
</g>
<!-- Node1&#45;&gt;Node26 -->
<g id="edge47" class="edge">
<title>Node1&#45;&gt;Node26</title>
<path fill="none" stroke="#63b8ff" d="M422,-594.54C422,-585.96 422,-576.61 422,-569.16"/>
<polygon fill="#63b8ff" stroke="#63b8ff" points="418.5,-594.8 422,-604.8 425.5,-594.8 418.5,-594.8"/>
</g>
<!-- Node3 -->
<g id="node3" class="node">
<title>Node3</title>
<g id="a_node3"><a xlink:href="member__frontend_8h.html" target="_top" xlink:title=" ">
<polygon fill="white" stroke="#666666" points="1617,-316 1497,-316 1497,-286 1617,-286 1617,-316"/>
<text text-anchor="start" x="1505" y="-304" font-family="Helvetica,sans-Serif" font-size="10.00">src/node/rpc/member</text>
<text text-anchor="middle" x="1557" y="-293" font-family="Helvetica,sans-Serif" font-size="10.00">_frontend.h</text>
</a>
</g>
</g>
<!-- Node2&#45;&gt;Node3 -->
<g id="edge2" class="edge">
<title>Node2&#45;&gt;Node3</title>
<path fill="none" stroke="#63b8ff" d="M618.69,-550.8C814.73,-542.71 1403.91,-508.16 1538,-382 1556.09,-364.98 1558.37,-334.14 1557.97,-316.13"/>
<polygon fill="#63b8ff" stroke="#63b8ff" points="618.4,-547.31 608.55,-551.21 618.69,-554.3 618.4,-547.31"/>
</g>
<!-- Node2&#45;&gt;Node6 -->
<g id="edge5" class="edge">
<title>Node2&#45;&gt;Node6</title>
<path fill="none" stroke="#63b8ff" d="M506.21,-535.46C477.81,-525.25 442.5,-512.55 415.97,-503.01"/>
<polygon fill="#63b8ff" stroke="#63b8ff" points="505.34,-538.86 515.94,-538.95 507.71,-532.28 505.34,-538.86"/>
</g>
<!-- Node4 -->
<g id="node4" class="node">
<title>Node4</title>
<g id="a_node4"><a xlink:href="src_2enclave_2enclave_8h.html" target="_top" xlink:title=" ">
<polygon fill="white" stroke="#666666" points="703,-74 581,-74 581,-55 703,-55 703,-74"/>
<text text-anchor="middle" x="642" y="-62" font-family="Helvetica,sans-Serif" font-size="10.00">src/enclave/enclave.h</text>
</a>
</g>
</g>
<!-- Node3&#45;&gt;Node4 -->
<g id="edge3" class="edge">
<title>Node3&#45;&gt;Node4</title>
<path fill="none" stroke="#63b8ff" d="M1550.88,-276.11C1538.71,-234.08 1507.12,-147.81 1445,-110 1382.23,-71.8 879.76,-66.33 703.13,-65.6"/>
<polygon fill="#63b8ff" stroke="#63b8ff" points="1547.52,-277.08 1553.56,-285.78 1554.26,-275.21 1547.52,-277.08"/>
</g>
<!-- Node5 -->
<g id="node5" class="node">
<title>Node5</title>
<g id="a_node5"><a xlink:href="enclave_2main_8cpp.html" target="_top" xlink:title=" ">
<polygon fill="white" stroke="#666666" points="702,-19 582,-19 582,0 702,0 702,-19"/>
<text text-anchor="middle" x="642" y="-7" font-family="Helvetica,sans-Serif" font-size="10.00">src/enclave/main.cpp</text>
</a>
</g>
</g>
<!-- Node4&#45;&gt;Node5 -->
<g id="edge4" class="edge">
<title>Node4&#45;&gt;Node5</title>
<path fill="none" stroke="#63b8ff" d="M642,-44.66C642,-35.93 642,-25.99 642,-19.09"/>
<polygon fill="#63b8ff" stroke="#63b8ff" points="638.5,-44.75 642,-54.75 645.5,-44.75 638.5,-44.75"/>
</g>
<!-- Node7 -->
<g id="node7" class="node">
<title>Node7</title>
<g id="a_node7"><a xlink:href="ccf__acme__client_8h.html" target="_top" xlink:title=" ">
<polygon fill="white" stroke="#666666" points="176.5,-310.5 27.5,-310.5 27.5,-291.5 176.5,-291.5 176.5,-310.5"/>
<text text-anchor="middle" x="102" y="-298.5" font-family="Helvetica,sans-Serif" font-size="10.00">src/node/ccf_acme_client.h</text>
</a>
</g>
</g>
<!-- Node6&#45;&gt;Node7 -->
<g id="edge6" class="edge">
<title>Node6&#45;&gt;Node7</title>
<path fill="none" stroke="#63b8ff" d="M310.8,-476.26C253.42,-463.52 172.23,-436.67 124,-382 105.7,-361.26 102.48,-326.63 102.01,-310.61"/>
<polygon fill="#63b8ff" stroke="#63b8ff" points="310.35,-479.74 320.86,-478.4 311.81,-472.9 310.35,-479.74"/>
</g>
<!-- Node10 -->
<g id="node10" class="node">
<title>Node10</title>
<g id="a_node10"><a xlink:href="network__state_8h.html" target="_top" xlink:title=" ">
<polygon fill="white" stroke="#666666" points="447,-437 307,-437 307,-418 447,-418 447,-437"/>
<text text-anchor="middle" x="377" y="-425" font-family="Helvetica,sans-Serif" font-size="10.00">src/node/network_state.h</text>
</a>
</g>
</g>
<!-- Node6&#45;&gt;Node10 -->
<g id="edge11" class="edge">
<title>Node6&#45;&gt;Node10</title>
<path fill="none" stroke="#63b8ff" d="M377,-462.75C377,-453.72 377,-444.03 377,-437.27"/>
<polygon fill="#63b8ff" stroke="#63b8ff" points="373.5,-462.84 377,-472.84 380.5,-462.84 373.5,-462.84"/>
</g>
<!-- Node8 -->
<g id="node8" class="node">
<title>Node8</title>
<g id="a_node8"><a xlink:href="node__state_8h.html" target="_top" xlink:title=" ">
<polygon fill="white" stroke="#666666" points="554,-184 430,-184 430,-165 554,-165 554,-184"/>
<text text-anchor="middle" x="492" y="-172" font-family="Helvetica,sans-Serif" font-size="10.00">src/node/node_state.h</text>
</a>
</g>
</g>
<!-- Node7&#45;&gt;Node8 -->
<g id="edge7" class="edge">
<title>Node7&#45;&gt;Node8</title>
<path fill="none" stroke="#63b8ff" d="M112.27,-282.71C124.45,-263.89 146.6,-234.56 174,-220 217.13,-197.08 350.24,-184.68 429.92,-179.15"/>
<polygon fill="#63b8ff" stroke="#63b8ff" points="109.14,-281.11 106.84,-291.45 115.09,-284.81 109.14,-281.11"/>
</g>
<!-- Node8&#45;&gt;Node4 -->
<g id="edge8" class="edge">
<title>Node8&#45;&gt;Node4</title>
<path fill="none" stroke="#63b8ff" d="M493.08,-154.87C494.85,-140.84 499.41,-122.03 511,-110 529.34,-90.98 556.1,-80.09 580.67,-73.85"/>
<polygon fill="#63b8ff" stroke="#63b8ff" points="489.59,-154.6 492.18,-164.87 496.56,-155.23 489.59,-154.6"/>
</g>
<!-- Node9 -->
<g id="node9" class="node">
<title>Node9</title>
<g id="a_node9"><a xlink:href="gov__effects_8h.html" target="_top" xlink:title=" ">
<polygon fill="white" stroke="#666666" points="664,-129 520,-129 520,-110 664,-110 664,-129"/>
<text text-anchor="middle" x="592" y="-117" font-family="Helvetica,sans-Serif" font-size="10.00">src/node/rpc/gov_effects.h</text>
</a>
</g>
</g>
<!-- Node8&#45;&gt;Node9 -->
<g id="edge9" class="edge">
<title>Node8&#45;&gt;Node9</title>
<path fill="none" stroke="#63b8ff" d="M517.03,-160.23C535.37,-150.51 559.74,-137.6 575.64,-129.17"/>
<polygon fill="#63b8ff" stroke="#63b8ff" points="515.26,-157.21 508.07,-164.98 518.54,-163.39 515.26,-157.21"/>
</g>
<!-- Node9&#45;&gt;Node4 -->
<g id="edge10" class="edge">
<title>Node9&#45;&gt;Node4</title>
<path fill="none" stroke="#63b8ff" d="M607.34,-102.24C616.1,-92.95 626.74,-81.68 633.9,-74.09"/>
<polygon fill="#63b8ff" stroke="#63b8ff" points="604.57,-100.07 600.26,-109.75 609.66,-104.88 604.57,-100.07"/>
</g>
<!-- Node10&#45;&gt;Node4 -->
<g id="edge12" class="edge">
<title>Node10&#45;&gt;Node4</title>
<path fill="none" stroke="#63b8ff" d="M296.95,-420.31C246.11,-414.48 179.64,-403.3 124,-382 62.75,-358.56 0,-367.59 0,-302 0,-302 0,-302 0,-173.5 0,-114.97 420.26,-80.45 580.73,-69.41"/>
<polygon fill="#63b8ff" stroke="#63b8ff" points="296.58,-423.79 306.9,-421.41 297.35,-416.84 296.58,-423.79"/>
</g>
<!-- Node10&#45;&gt;Node8 -->
<g id="edge35" class="edge">
<title>Node10&#45;&gt;Node8</title>
<path fill="none" stroke="#63b8ff" d="M368.19,-408.61C350.59,-370.05 316.21,-277.91 358,-220 374.5,-197.14 403.21,-185.84 429.84,-180.32"/>
<polygon fill="#63b8ff" stroke="#63b8ff" points="365.19,-410.45 372.63,-417.99 371.51,-407.46 365.19,-410.45"/>
</g>
<!-- Node11 -->
<g id="node11" class="node">
<title>Node11</title>
<g id="a_node11"><a xlink:href="wrap_8h.html" target="_top" xlink:title=" ">
<polygon fill="white" stroke="#666666" points="1058,-376.5 980,-376.5 980,-357.5 1058,-357.5 1058,-376.5"/>
<text text-anchor="middle" x="1019" y="-364.5" font-family="Helvetica,sans-Serif" font-size="10.00">src/js/wrap.h</text>
</a>
</g>
</g>
<!-- Node10&#45;&gt;Node11 -->
<g id="edge13" class="edge">
<title>Node10&#45;&gt;Node11</title>
<path fill="none" stroke="#63b8ff" d="M457.4,-419.17C596.39,-406.51 876.62,-380.97 979.75,-371.58"/>
<polygon fill="#63b8ff" stroke="#63b8ff" points="456.88,-415.71 447.23,-420.1 457.51,-422.68 456.88,-415.71"/>
</g>
<!-- Node19 -->
<g id="node19" class="node">
<title>Node19</title>
<g id="a_node19"><a xlink:href="node__frontend_8h.html" target="_top" xlink:title=" ">
<polygon fill="white" stroke="#666666" points="563,-310.5 405,-310.5 405,-291.5 563,-291.5 563,-310.5"/>
<text text-anchor="middle" x="484" y="-298.5" font-family="Helvetica,sans-Serif" font-size="10.00">src/node/rpc/node_frontend.h</text>
</a>
</g>
</g>
<!-- Node10&#45;&gt;Node19 -->
<g id="edge36" class="edge">
<title>Node10&#45;&gt;Node19</title>
<path fill="none" stroke="#63b8ff" d="M390.98,-410.24C413.95,-383.51 458.9,-331.2 476.59,-310.62"/>
<polygon fill="#63b8ff" stroke="#63b8ff" points="388.22,-408.08 384.35,-417.94 393.53,-412.64 388.22,-408.08"/>
</g>
<!-- Node21 -->
<g id="node21" class="node">
<title>Node21</title>
<g id="a_node21"><a xlink:href="acme__challenge__frontend_8h.html" target="_top" xlink:title=" ">
<polygon fill="white" stroke="#666666" points="273,-382 133,-382 133,-352 273,-352 273,-382"/>
<text text-anchor="start" x="141" y="-370" font-family="Helvetica,sans-Serif" font-size="10.00">src/node/acme_challenge</text>
<text text-anchor="middle" x="203" y="-359" font-family="Helvetica,sans-Serif" font-size="10.00">_frontend.h</text>
</a>
</g>
</g>
<!-- Node10&#45;&gt;Node21 -->
<g id="edge32" class="edge">
<title>Node10&#45;&gt;Node21</title>
<path fill="none" stroke="#63b8ff" d="M341.92,-414.71C313.89,-405.28 274.51,-392.04 244.83,-382.06"/>
<polygon fill="#63b8ff" stroke="#63b8ff" points="341.1,-418.12 351.7,-417.99 343.34,-411.49 341.1,-418.12"/>
</g>
<!-- Node22 -->
<g id="node22" class="node">
<title>Node22</title>
<g id="a_node22"><a xlink:href="user__frontend_8h.html" target="_top" xlink:title=" ">
<polygon fill="white" stroke="#666666" points="1705.5,-184 1550.5,-184 1550.5,-165 1705.5,-165 1705.5,-184"/>
<text text-anchor="middle" x="1628" y="-172" font-family="Helvetica,sans-Serif" font-size="10.00">src/node/rpc/user_frontend.h</text>
</a>
</g>
</g>
<!-- Node10&#45;&gt;Node22 -->
<g id="edge37" class="edge">
<title>Node10&#45;&gt;Node22</title>
<path fill="none" stroke="#63b8ff" d="M457.61,-426.18C704.07,-424.83 1437.03,-417.82 1538,-382 1584.08,-365.65 1603.83,-359.57 1626,-316 1648.9,-271 1636.08,-206.91 1630.33,-184.03"/>
<polygon fill="#63b8ff" stroke="#63b8ff" points="457.27,-422.69 447.29,-426.24 457.31,-429.69 457.27,-422.69"/>
</g>
<!-- Node23 -->
<g id="node23" class="node">
<title>Node23</title>
<g id="a_node23"><a xlink:href="secret__broadcast_8h.html" target="_top" xlink:title=" ">
<polygon fill="white" stroke="#666666" points="520.5,-244.5 367.5,-244.5 367.5,-225.5 520.5,-225.5 520.5,-244.5"/>
<text text-anchor="middle" x="444" y="-232.5" font-family="Helvetica,sans-Serif" font-size="10.00">src/node/secret_broadcast.h</text>
</a>
</g>
</g>
<!-- Node10&#45;&gt;Node23 -->
<g id="edge39" class="edge">
<title>Node10&#45;&gt;Node23</title>
<path fill="none" stroke="#63b8ff" d="M375.95,-407.74C375.15,-379.78 376.63,-326.13 396,-286 404.37,-268.66 421.03,-253.46 432.34,-244.51"/>
<polygon fill="#63b8ff" stroke="#63b8ff" points="372.45,-407.9 376.37,-417.74 379.45,-407.6 372.45,-407.9"/>
</g>
<!-- Node24 -->
<g id="node24" class="node">
<title>Node24</title>
<g id="a_node24"><a xlink:href="share__manager_8h.html" target="_top" xlink:title=" ">
<polygon fill="white" stroke="#666666" points="1528.5,-376.5 1383.5,-376.5 1383.5,-357.5 1528.5,-357.5 1528.5,-376.5"/>
<text text-anchor="middle" x="1456" y="-364.5" font-family="Helvetica,sans-Serif" font-size="10.00">src/node/share_manager.h</text>
</a>
</g>
</g>
<!-- Node10&#45;&gt;Node24 -->
<g id="edge41" class="edge">
<title>Node10&#45;&gt;Node24</title>
<path fill="none" stroke="#63b8ff" d="M457.66,-422.13C660.53,-411.13 1189.59,-382.44 1383.45,-371.93"/>
<polygon fill="#63b8ff" stroke="#63b8ff" points="457.18,-418.65 447.38,-422.68 457.55,-425.64 457.18,-418.65"/>
</g>
<!-- Node25 -->
<g id="node25" class="node">
<title>Node25</title>
<g id="a_node25"><a xlink:href="snapshotter_8h.html" target="_top" xlink:title=" ">
<polygon fill="white" stroke="#666666" points="310.5,-244.5 183.5,-244.5 183.5,-225.5 310.5,-225.5 310.5,-244.5"/>
<text text-anchor="middle" x="247" y="-232.5" font-family="Helvetica,sans-Serif" font-size="10.00">src/node/snapshotter.h</text>
</a>
</g>
</g>
<!-- Node10&#45;&gt;Node25 -->
<g id="edge44" class="edge">
<title>Node10&#45;&gt;Node25</title>
<path fill="none" stroke="#63b8ff" d="M356.21,-411.64C345.98,-403.64 333.95,-393.14 325,-382 287.56,-335.4 259.47,-268.14 250.25,-244.56"/>
<polygon fill="#63b8ff" stroke="#63b8ff" points="354.18,-414.5 364.27,-417.73 358.4,-408.91 354.18,-414.5"/>
</g>
<!-- Node11&#45;&gt;Node3 -->
<g id="edge27" class="edge">
<title>Node11&#45;&gt;Node3</title>
<path fill="none" stroke="#63b8ff" d="M1068.25,-360.34C1147.6,-351.2 1308.63,-332.53 1445,-316 1461.83,-313.96 1480.07,-311.7 1496.85,-309.6"/>
<polygon fill="#63b8ff" stroke="#63b8ff" points="1067.6,-356.89 1058.07,-361.51 1068.4,-363.85 1067.6,-356.89"/>
</g>
<!-- Node11&#45;&gt;Node4 -->
<g id="edge15" class="edge">
<title>Node11&#45;&gt;Node4</title>
<path fill="none" stroke="#63b8ff" d="M1068.22,-365.06C1157.41,-362.45 1341.23,-352.65 1392,-316 1424.07,-292.85 1431,-275.56 1431,-236 1431,-236 1431,-236 1431,-173.5 1431,-100.14 888.63,-74.18 703.25,-67.46"/>
<polygon fill="#63b8ff" stroke="#63b8ff" points="1067.98,-361.56 1058.08,-365.33 1068.17,-368.56 1067.98,-361.56"/>
</g>
<!-- Node11&#45;&gt;Node8 -->
<g id="edge26" class="edge">
<title>Node11&#45;&gt;Node8</title>
<path fill="none" stroke="#63b8ff" d="M969.45,-363.56C865.75,-357.95 633.49,-342.54 610,-316 601.16,-306.02 603.31,-297.53 610,-286 626.19,-258.11 656.81,-277.89 673,-250 679.69,-238.47 681.23,-230.49 673,-220 658.28,-201.22 600.43,-189.31 554.04,-182.58"/>
<polygon fill="#63b8ff" stroke="#63b8ff" points="969.49,-367.07 979.66,-364.11 969.86,-360.08 969.49,-367.07"/>
</g>
<!-- Node12 -->
<g id="node12" class="node">
<title>Node12</title>
<g id="a_node12"><a xlink:href="js__generic__base_8cpp.html" target="_top" xlink:title=" ">
<polygon fill="white" stroke="#666666" points="883,-316 765,-316 765,-286 883,-286 883,-316"/>
<text text-anchor="start" x="773" y="-304" font-family="Helvetica,sans-Serif" font-size="10.00">src/apps/js_generic</text>
<text text-anchor="middle" x="824" y="-293" font-family="Helvetica,sans-Serif" font-size="10.00">/js_generic_base.cpp</text>
</a>
</g>
</g>
<!-- Node11&#45;&gt;Node12 -->
<g id="edge14" class="edge">
<title>Node11&#45;&gt;Node12</title>
<path fill="none" stroke="#63b8ff" d="M983.07,-354.21C950.3,-343.45 901.83,-327.54 867.01,-316.12"/>
<polygon fill="#63b8ff" stroke="#63b8ff" points="982.11,-357.58 992.7,-357.37 984.29,-350.92 982.11,-357.58"/>
</g>
<!-- Node13 -->
<g id="node13" class="node">
<title>Node13</title>
<g id="a_node13"><a xlink:href="consensus_8cpp.html" target="_top" xlink:title=" ">
<polygon fill="white" stroke="#666666" points="1017,-310.5 901,-310.5 901,-291.5 1017,-291.5 1017,-310.5"/>
<text text-anchor="middle" x="959" y="-298.5" font-family="Helvetica,sans-Serif" font-size="10.00">src/js/consensus.cpp</text>
</a>
</g>
</g>
<!-- Node11&#45;&gt;Node13 -->
<g id="edge16" class="edge">
<title>Node11&#45;&gt;Node13</title>
<path fill="none" stroke="#63b8ff" d="M1003.98,-349.98C992.4,-337.62 976.8,-320.99 967.35,-310.91"/>
<polygon fill="#63b8ff" stroke="#63b8ff" points="1001.52,-352.47 1010.91,-357.37 1006.62,-347.68 1001.52,-352.47"/>
</g>
<!-- Node14 -->
<g id="node14" class="node">
<title>Node14</title>
<g id="a_node14"><a xlink:href="wrap_8cpp.html" target="_top" xlink:title=" ">
<polygon fill="white" stroke="#666666" points="1233.5,-244.5 1144.5,-244.5 1144.5,-225.5 1233.5,-225.5 1233.5,-244.5"/>
<text text-anchor="middle" x="1189" y="-232.5" font-family="Helvetica,sans-Serif" font-size="10.00">src/js/wrap.cpp</text>
</a>
</g>
</g>
<!-- Node11&#45;&gt;Node14 -->
<g id="edge25" class="edge">
<title>Node11&#45;&gt;Node14</title>
<path fill="none" stroke="#63b8ff" d="M1068.25,-366.64C1156.25,-366.63 1334.97,-360.91 1374,-316 1416.46,-267.14 1300.94,-247.12 1233.6,-239.77"/>
<polygon fill="#63b8ff" stroke="#63b8ff" points="1068.24,-363.14 1058.23,-366.62 1068.23,-370.14 1068.24,-363.14"/>
</g>
<!-- Node15 -->
<g id="node15" class="node">
<title>Node15</title>
<g id="a_node15"><a xlink:href="conv_8cpp.html" target="_top" xlink:title=" ">
<polygon fill="white" stroke="#666666" points="1123,-310.5 1035,-310.5 1035,-291.5 1123,-291.5 1123,-310.5"/>
<text text-anchor="middle" x="1079" y="-298.5" font-family="Helvetica,sans-Serif" font-size="10.00">src/js/conv.cpp</text>
</a>
</g>
</g>
<!-- Node11&#45;&gt;Node15 -->
<g id="edge18" class="edge">
<title>Node11&#45;&gt;Node15</title>
<path fill="none" stroke="#63b8ff" d="M1034.02,-349.98C1045.6,-337.62 1061.2,-320.99 1070.65,-310.91"/>
<polygon fill="#63b8ff" stroke="#63b8ff" points="1031.38,-347.68 1027.09,-357.37 1036.48,-352.47 1031.38,-347.68"/>
</g>
<!-- Node16 -->
<g id="node16" class="node">
<title>Node16</title>
<g id="a_node16"><a xlink:href="crypto_8cpp.html" target="_top" xlink:title=" ">
<polygon fill="white" stroke="#666666" points="1237,-310.5 1141,-310.5 1141,-291.5 1237,-291.5 1237,-310.5"/>
<text text-anchor="middle" x="1189" y="-298.5" font-family="Helvetica,sans-Serif" font-size="10.00">src/js/crypto.cpp</text>
</a>
</g>
</g>
<!-- Node11&#45;&gt;Node16 -->
<g id="edge20" class="edge">
<title>Node11&#45;&gt;Node16</title>
<path fill="none" stroke="#63b8ff" d="M1051.3,-353.84C1084.89,-341.2 1136.6,-321.73 1166.17,-310.6"/>
<polygon fill="#63b8ff" stroke="#63b8ff" points="1050.05,-350.57 1041.93,-357.37 1052.52,-357.12 1050.05,-350.57"/>
</g>
<!-- Node17 -->
<g id="node17" class="node">
<title>Node17</title>
<g id="a_node17"><a xlink:href="historical_8cpp.html" target="_top" xlink:title=" ">
<polygon fill="white" stroke="#666666" points="1365,-310.5 1255,-310.5 1255,-291.5 1365,-291.5 1365,-310.5"/>
<text text-anchor="middle" x="1310" y="-298.5" font-family="Helvetica,sans-Serif" font-size="10.00">src/js/historical.cpp</text>
</a>
</g>
</g>
<!-- Node11&#45;&gt;Node17 -->
<g id="edge22" class="edge">
<title>Node11&#45;&gt;Node17</title>
<path fill="none" stroke="#63b8ff" d="M1067.85,-355.26C1125.1,-342.67 1218.81,-322.06 1271.29,-310.51"/>
<polygon fill="#63b8ff" stroke="#63b8ff" points="1066.96,-351.87 1057.94,-357.44 1068.46,-358.71 1066.96,-351.87"/>
</g>
<!-- Node18 -->
<g id="node18" class="node">
<title>Node18</title>
<g id="a_node18"><a xlink:href="openenclave_8cpp.html" target="_top" xlink:title=" ">
<polygon fill="white" stroke="#666666" points="747,-310.5 619,-310.5 619,-291.5 747,-291.5 747,-310.5"/>
<text text-anchor="middle" x="683" y="-298.5" font-family="Helvetica,sans-Serif" font-size="10.00">src/js/openenclave.cpp</text>
</a>
</g>
</g>
<!-- Node11&#45;&gt;Node18 -->
<g id="edge24" class="edge">
<title>Node11&#45;&gt;Node18</title>
<path fill="none" stroke="#63b8ff" d="M969.67,-356.65C916.82,-346.62 830.47,-330.22 756,-316 746.75,-314.23 736.83,-312.34 727.39,-310.53"/>
<polygon fill="#63b8ff" stroke="#63b8ff" points="969.31,-360.14 979.79,-358.57 970.61,-353.26 969.31,-360.14"/>
</g>
<!-- Node11&#45;&gt;Node19 -->
<g id="edge28" class="edge">
<title>Node11&#45;&gt;Node19</title>
<path fill="none" stroke="#63b8ff" d="M969.93,-361.04C888.29,-352.67 719.44,-334.77 577,-316 564.54,-314.36 551.16,-312.44 538.54,-310.55"/>
<polygon fill="#63b8ff" stroke="#63b8ff" points="969.61,-364.53 979.92,-362.07 970.33,-357.57 969.61,-364.53"/>
</g>
<!-- Node13&#45;&gt;Node14 -->
<g id="edge17" class="edge">
<title>Node13&#45;&gt;Node14</title>
<path fill="none" stroke="#63b8ff" d="M999.81,-288.64C1045.13,-276.03 1117.25,-255.97 1158.11,-244.6"/>
<polygon fill="#63b8ff" stroke="#63b8ff" points="998.71,-285.32 990.02,-291.37 1000.59,-292.06 998.71,-285.32"/>
</g>
<!-- Node15&#45;&gt;Node14 -->
<g id="edge19" class="edge">
<title>Node15&#45;&gt;Node14</title>
<path fill="none" stroke="#63b8ff" d="M1102.74,-286.19C1124.38,-273.59 1155.71,-255.37 1174.05,-244.7"/>
<polygon fill="#63b8ff" stroke="#63b8ff" points="1100.72,-283.31 1093.84,-291.37 1104.24,-289.36 1100.72,-283.31"/>
</g>
<!-- Node16&#45;&gt;Node14 -->
<g id="edge21" class="edge">
<title>Node16&#45;&gt;Node14</title>
<path fill="none" stroke="#63b8ff" d="M1189,-281.08C1189,-269.13 1189,-254.22 1189,-244.91"/>
<polygon fill="#63b8ff" stroke="#63b8ff" points="1185.5,-281.37 1189,-291.37 1192.5,-281.37 1185.5,-281.37"/>
</g>
<!-- Node17&#45;&gt;Node14 -->
<g id="edge23" class="edge">
<title>Node17&#45;&gt;Node14</title>
<path fill="none" stroke="#63b8ff" d="M1284.53,-286.53C1260.7,-273.92 1225.8,-255.47 1205.45,-244.7"/>
<polygon fill="#63b8ff" stroke="#63b8ff" points="1283.21,-289.79 1293.68,-291.37 1286.48,-283.6 1283.21,-289.79"/>
</g>
<!-- Node19&#45;&gt;Node4 -->
<g id="edge29" class="edge">
<title>Node19&#45;&gt;Node4</title>
<path fill="none" stroke="#63b8ff" d="M558.46,-289.73C605,-281.61 658.73,-268.54 673,-250 710.96,-200.7 691.64,-169.36 673,-110 668.6,-95.99 658.05,-82.53 650.48,-74.15"/>
<polygon fill="#63b8ff" stroke="#63b8ff" points="557.63,-286.32 548.35,-291.44 558.79,-293.22 557.63,-286.32"/>
</g>
<!-- Node20 -->
<g id="node20" class="node">
<title>Node20</title>
<g id="a_node20"><a xlink:href="jwt__key__auto__refresh_8h.html" target="_top" xlink:title=" ">
<polygon fill="white" stroke="#666666" points="663.5,-250 538.5,-250 538.5,-220 663.5,-220 663.5,-250"/>
<text text-anchor="start" x="546.5" y="-238" font-family="Helvetica,sans-Serif" font-size="10.00">src/node/jwt_key_auto</text>
<text text-anchor="middle" x="601" y="-227" font-family="Helvetica,sans-Serif" font-size="10.00">_refresh.h</text>
</a>
</g>
</g>
<!-- Node19&#45;&gt;Node20 -->
<g id="edge30" class="edge">
<title>Node19&#45;&gt;Node20</title>
<path fill="none" stroke="#63b8ff" d="M508.68,-286.5C528.21,-275.82 555.39,-260.95 575.19,-250.12"/>
<polygon fill="#63b8ff" stroke="#63b8ff" points="506.87,-283.5 499.78,-291.37 510.23,-289.64 506.87,-283.5"/>
</g>
<!-- Node20&#45;&gt;Node8 -->
<g id="edge31" class="edge">
<title>Node20&#45;&gt;Node8</title>
<path fill="none" stroke="#63b8ff" d="M565.99,-215.21C546.54,-204.77 523.28,-192.29 508.1,-184.14"/>
<polygon fill="#63b8ff" stroke="#63b8ff" points="564.43,-218.34 574.89,-219.99 567.74,-212.17 564.43,-218.34"/>
</g>
<!-- Node21&#45;&gt;Node4 -->
<g id="edge33" class="edge">
<title>Node21&#45;&gt;Node4</title>
<path fill="none" stroke="#63b8ff" d="M198.03,-341.68C194.65,-325.77 189.92,-304.56 185,-286 180.72,-269.83 176.47,-266.55 174,-250 172.03,-236.81 166.25,-230.85 174,-220 224.05,-149.94 484.63,-94.55 593.81,-74.06"/>
<polygon fill="#63b8ff" stroke="#63b8ff" points="194.66,-342.69 200.13,-351.76 201.51,-341.25 194.66,-342.69"/>
</g>
<!-- Node21&#45;&gt;Node7 -->
<g id="edge34" class="edge">
<title>Node21&#45;&gt;Node7</title>
<path fill="none" stroke="#63b8ff" d="M172.01,-346.36C153.17,-334.42 130.05,-319.77 115.66,-310.66"/>
<polygon fill="#63b8ff" stroke="#63b8ff" points="170.26,-349.4 180.58,-351.8 174.01,-343.49 170.26,-349.4"/>
</g>
<!-- Node22&#45;&gt;Node4 -->
<g id="edge38" class="edge">
<title>Node22&#45;&gt;Node4</title>
<path fill="none" stroke="#63b8ff" d="M1606.93,-159.53C1582.58,-144.23 1540.74,-120.47 1501,-110 1350.19,-70.25 873.62,-65.74 703.28,-65.43"/>
<polygon fill="#63b8ff" stroke="#63b8ff" points="1605.06,-162.49 1615.36,-164.94 1608.83,-156.6 1605.06,-162.49"/>
</g>
<!-- Node23&#45;&gt;Node8 -->
<g id="edge40" class="edge">
<title>Node23&#45;&gt;Node8</title>
<path fill="none" stroke="#63b8ff" d="M457.58,-217.45C466.46,-206.62 477.72,-192.91 484.89,-184.17"/>
<polygon fill="#63b8ff" stroke="#63b8ff" points="454.72,-215.42 451.08,-225.37 460.13,-219.86 454.72,-215.42"/>
</g>
<!-- Node24&#45;&gt;Node3 -->
<g id="edge43" class="edge">
<title>Node24&#45;&gt;Node3</title>
<path fill="none" stroke="#63b8ff" d="M1478.23,-351.91C1495.01,-341.28 1517.93,-326.75 1534.72,-316.12"/>
<polygon fill="#63b8ff" stroke="#63b8ff" points="1476.19,-349.06 1469.62,-357.37 1479.94,-354.97 1476.19,-349.06"/>
</g>
<!-- Node24&#45;&gt;Node8 -->
<g id="edge42" class="edge">
<title>Node24&#45;&gt;Node8</title>
<path fill="none" stroke="#63b8ff" d="M1445.68,-348.68C1434.39,-330.95 1414.82,-303.59 1392,-286 1334.63,-241.79 1313.39,-237.08 1243,-220 1112.9,-188.43 709.58,-178.88 554.05,-176.34"/>
<polygon fill="#63b8ff" stroke="#63b8ff" points="1442.84,-350.74 1451.07,-357.41 1448.8,-347.06 1442.84,-350.74"/>
</g>
<!-- Node25&#45;&gt;Node8 -->
<g id="edge45" class="edge">
<title>Node25&#45;&gt;Node8</title>
<path fill="none" stroke="#63b8ff" d="M292.61,-223.11C339.96,-211.8 413.04,-194.35 456.33,-184.02"/>
<polygon fill="#63b8ff" stroke="#63b8ff" points="291.54,-219.77 282.63,-225.49 293.16,-226.58 291.54,-219.77"/>
</g>
<!-- Node26&#45;&gt;Node6 -->
<g id="edge48" class="edge">
<title>Node26&#45;&gt;Node6</title>
<path fill="none" stroke="#63b8ff" d="M406.2,-530.53C399.8,-521.43 392.61,-511.19 386.96,-503.16"/>
<polygon fill="#63b8ff" stroke="#63b8ff" points="403.4,-532.63 412.01,-538.8 409.12,-528.6 403.4,-532.63"/>
</g>
</g>
</svg>
        <g id="navigator" transform="translate(0 0)" fill="#404254">
                <rect fill="#f2f5e9" fill-opacity="0.5" stroke="#606060" stroke-width=".5" x="0" y="0" width="60" height="60"/>
                <use id="zoomplus" xlink:href="#zoomPlus" x="17" y="9" onmousedown="handleZoom(evt,'in')"/>
                <use id="zoomminus" xlink:href="#zoomMin" x="42" y="9" onmousedown="handleZoom(evt,'out')"/>
                <use id="reset" xlink:href="#resetDef" x="30" y="36" onmousedown="handleReset()"/>
                <g id="arrowUp" xlink:href="#dirArrow" transform="translate(30 24)" onmousedown="handlePan(0,-1)">
                  <use xlink:href="#rim" fill="#404040">
                        <set attributeName="fill" to="#808080" begin="arrowUp.mouseover" end="arrowUp.mouseout"/>
                  </use>
                  <path fill="none" stroke="white" stroke-width="1.5" d="M0,-3.0v7 M-2.5,-0.5L0,-3.0L2.5,-0.5"/>
                </g>
                <g id="arrowRight" xlink:href="#dirArrow" transform="rotate(90) translate(36 -43)" onmousedown="handlePan(1,0)">
                  <use xlink:href="#rim" fill="#404040">
                        <set attributeName="fill" to="#808080" begin="arrowRight.mouseover" end="arrowRight.mouseout"/>
                  </use>
                  <path fill="none" stroke="white" stroke-width="1.5" d="M0,-3.0v7 M-2.5,-0.5L0,-3.0L2.5,-0.5"/>
                </g>
                <g id="arrowDown" xlink:href="#dirArrow" transform="rotate(180) translate(-30 -48)" onmousedown="handlePan(0,1)">
                  <use xlink:href="#rim" fill="#404040">
                        <set attributeName="fill" to="#808080" begin="arrowDown.mouseover" end="arrowDown.mouseout"/>
                  </use>
                  <path fill="none" stroke="white" stroke-width="1.5" d="M0,-3.0v7 M-2.5,-0.5L0,-3.0L2.5,-0.5"/>
                </g>
                <g id="arrowLeft" xlink:href="#dirArrow" transform="rotate(270) translate(-36 17)" onmousedown="handlePan(-1,0)">
                  <use xlink:href="#rim" fill="#404040">
                        <set attributeName="fill" to="#808080" begin="arrowLeft.mouseover" end="arrowLeft.mouseout"/>
                  </use>
                  <path fill="none" stroke="white" stroke-width="1.5" d="M0,-3.0v7 M-2.5,-0.5L0,-3.0L2.5,-0.5"/>
                </g>
        </g>
        <svg viewBox="0 0 15 15" width="100%" height="30px" preserveAspectRatio="xMaxYMin meet">
         <g id="arrow_out" transform="scale(0.3 0.3)">
          <a xlink:href="proposals_8h__dep__incl_org.svg" target="_base">
           <rect id="button" ry="5" rx="5" y="6" x="6" height="38" width="38"
                fill="#f2f5e9" fill-opacity="0.5" stroke="#606060" stroke-width="1.0"/>
           <path id="arrow"
             d="M 11.500037,31.436501 C 11.940474,20.09759 22.043105,11.32322 32.158766,21.979434 L 37.068811,17.246167 C 37.068811,17.246167 37.088388,32 37.088388,32 L 22.160133,31.978069 C 22.160133,31.978069 26.997745,27.140456 26.997745,27.140456 C 18.528582,18.264221 13.291696,25.230495 11.500037,31.436501 z"
             style="fill:#404040;"/>
          </a>
         </g>
        </svg>
</svg>
