<?xml version="1.0" encoding="UTF-8" standalone="no"?>
<!DOCTYPE svg PUBLIC "-//W3C//DTD SVG 1.1//EN"
 "http://www.w3.org/Graphics/SVG/1.1/DTD/svg11.dtd">
<!-- Generated by graphviz version 2.43.0 (0)
 -->
<!-- Title: src/quic/msg_types.h Pages: 1 -->
<!--zoomable 247 -->
<svg id="main" version="1.1" xmlns="http://www.w3.org/2000/svg" xmlns:xlink="http://www.w3.org/1999/xlink" xml:space="preserve" onload="init(evt)">
<style type="text/css"><![CDATA[
.edge:hover path { stroke: red; }
.edge:hover polygon { stroke: red; fill: red; }
]]></style>
<script type="text/javascript"><![CDATA[
var edges = document.getElementsByTagName('g');
if (edges && edges.length) {
  for (var i=0;i<edges.length;i++) {
    if (edges[i].id.substr(0,4)=='edge') {
      edges[i].setAttribute('class','edge');
    }
  }
}
]]></script>
        <defs>
                <circle id="rim" cx="0" cy="0" r="7"/>
                <circle id="rim2" cx="0" cy="0" r="3.5"/>
                <g id="zoomPlus">
                        <use xlink:href="#rim" fill="#404040">
                                <set attributeName="fill" to="#808080" begin="zoomplus.mouseover" end="zoomplus.mouseout"/>
                        </use>
                        <path d="M-4,0h8M0,-4v8" fill="none" stroke="white" stroke-width="1.5" pointer-events="none"/>
                </g>
                <g id="zoomMin">
                        <use xlink:href="#rim" fill="#404040">
                                <set attributeName="fill" to="#808080" begin="zoomminus.mouseover" end="zoomminus.mouseout"/>
                        </use>
                        <path d="M-4,0h8" fill="none" stroke="white" stroke-width="1.5" pointer-events="none"/>
                </g>
                <g id="dirArrow">
                        <path fill="none" stroke="white" stroke-width="1.5" d="M0,-3.0v7 M-2.5,-0.5L0,-3.0L2.5,-0.5"/>
                </g>
               <g id="resetDef">
                       <use xlink:href="#rim2" fill="#404040">
                               <set attributeName="fill" to="#808080" begin="reset.mouseover" end="reset.mouseout"/>
                       </use>
               </g>
        </defs>

<script type="text/javascript">
var viewWidth = 1014;
var viewHeight = 247;
var sectionId = 'dynsection-0';
</script>
<script xlink:href="svgpan.js"/>
<svg id="graph" class="graph">
<g id="viewport">
<title>src/quic/msg_types.h</title>
<!-- Node1 -->
<g id="node1" class="node">
<title>Node1</title>
<g id="a_node1"><a xlink:title=" ">
<polygon fill="#999999" stroke="#666666" points="812.5,-239 693.5,-239 693.5,-220 812.5,-220 812.5,-239"/>
<text text-anchor="middle" x="753" y="-227" font-family="Helvetica,sans-Serif" font-size="10.00">src/quic/msg_types.h</text>
</a>
</g>
</g>
<!-- Node2 -->
<g id="node2" class="node">
<title>Node2</title>
<g id="a_node2"><a xlink:href="ring__buffer__types_8h.html" target="_top" xlink:title=" ">
<polygon fill="white" stroke="#666666" points="756.5,-184 631.5,-184 631.5,-165 756.5,-165 756.5,-184"/>
<text text-anchor="middle" x="694" y="-172" font-family="Helvetica,sans-Serif" font-size="10.00">ds/ring_buffer_types.h</text>
</a>
</g>
</g>
<!-- Node1&#45;&gt;Node2 -->
<g id="edge1" class="edge">
<title>Node1&#45;&gt;Node2</title>
<path fill="none" stroke="#63b8ff" d="M743.52,-219.98C734.8,-212.15 721.66,-200.34 711.1,-190.86"/>
<polygon fill="#63b8ff" stroke="#63b8ff" points="713.43,-188.25 703.65,-184.17 708.75,-193.46 713.43,-188.25"/>
</g>
<!-- Node26 -->
<g id="node26" class="node">
<title>Node26</title>
<g id="a_node26"><a xlink:title=" ">
<polygon fill="#e0e0e0" stroke="#999999" points="851.5,-184 774.5,-184 774.5,-165 851.5,-165 851.5,-184"/>
<text text-anchor="middle" x="813" y="-172" font-family="Helvetica,sans-Serif" font-size="10.00">sys/socket.h</text>
</a>
</g>
</g>
<!-- Node1&#45;&gt;Node26 -->
<g id="edge39" class="edge">
<title>Node1&#45;&gt;Node26</title>
<path fill="none" stroke="#63b8ff" d="M762.64,-219.98C771.51,-212.15 784.87,-200.34 795.61,-190.86"/>
<polygon fill="#63b8ff" stroke="#63b8ff" points="798.01,-193.41 803.18,-184.17 793.37,-188.17 798.01,-193.41"/>
</g>
<!-- Node3 -->
<g id="node3" class="node">
<title>Node3</title>
<g id="a_node3"><a xlink:href="include_2ccf_2ds_2hash_8h.html" target="_top" xlink:title=" ">
<polygon fill="white" stroke="#666666" points="244,-129 164,-129 164,-110 244,-110 244,-129"/>
<text text-anchor="middle" x="204" y="-117" font-family="Helvetica,sans-Serif" font-size="10.00">ccf/ds/hash.h</text>
</a>
</g>
</g>
<!-- Node2&#45;&gt;Node3 -->
<g id="edge2" class="edge">
<title>Node2&#45;&gt;Node3</title>
<path fill="none" stroke="#63b8ff" d="M631.44,-166.73C533.07,-156.09 344.15,-135.66 254.11,-125.92"/>
<polygon fill="#63b8ff" stroke="#63b8ff" points="254.47,-122.44 244.15,-124.84 253.71,-129.4 254.47,-122.44"/>
</g>
<!-- Node7 -->
<g id="node7" class="node">
<title>Node7</title>
<g id="a_node7"><a xlink:title=" ">
<polygon fill="#e0e0e0" stroke="#999999" points="439.5,-19 392.5,-19 392.5,0 439.5,0 439.5,-19"/>
<text text-anchor="middle" x="416" y="-7" font-family="Helvetica,sans-Serif" font-size="10.00">vector</text>
</a>
</g>
</g>
<!-- Node2&#45;&gt;Node7 -->
<g id="edge38" class="edge">
<title>Node2&#45;&gt;Node7</title>
<path fill="none" stroke="#63b8ff" d="M663.65,-164.99C618.12,-151.19 530.88,-120.69 469,-74 452.05,-61.21 437,-42.01 427.31,-28.07"/>
<polygon fill="#63b8ff" stroke="#63b8ff" points="429.97,-25.76 421.5,-19.4 424.16,-29.66 429.97,-25.76"/>
</g>
<!-- Node11 -->
<g id="node11" class="node">
<title>Node11</title>
<g id="a_node11"><a xlink:href="nonstd_8h.html" target="_top" xlink:title=" ">
<polygon fill="white" stroke="#666666" points="602,-74 512,-74 512,-55 602,-55 602,-74"/>
<text text-anchor="middle" x="557" y="-62" font-family="Helvetica,sans-Serif" font-size="10.00">ccf/ds/nonstd.h</text>
</a>
</g>
</g>
<!-- Node2&#45;&gt;Node11 -->
<g id="edge12" class="edge">
<title>Node2&#45;&gt;Node11</title>
<path fill="none" stroke="#63b8ff" d="M675.36,-164.88C658.9,-156.82 634.69,-143.82 616,-129 598.39,-115.04 581.26,-95.77 570.03,-82.13"/>
<polygon fill="#63b8ff" stroke="#63b8ff" points="572.56,-79.68 563.56,-74.09 567.1,-84.07 572.56,-79.68"/>
</g>
<!-- Node14 -->
<g id="node14" class="node">
<title>Node14</title>
<g id="a_node14"><a xlink:title=" ">
<polygon fill="#e0e0e0" stroke="#999999" points="651,-19 607,-19 607,0 651,0 651,-19"/>
<text text-anchor="middle" x="629" y="-7" font-family="Helvetica,sans-Serif" font-size="10.00">string</text>
</a>
</g>
</g>
<!-- Node2&#45;&gt;Node14 -->
<g id="edge37" class="edge">
<title>Node2&#45;&gt;Node14</title>
<path fill="none" stroke="#63b8ff" d="M681.87,-164.7C671.68,-156.6 657.59,-143.67 650,-129 633.33,-96.79 629.61,-53.77 628.94,-29.42"/>
<polygon fill="#63b8ff" stroke="#63b8ff" points="632.44,-29.05 628.82,-19.09 625.44,-29.13 632.44,-29.05"/>
</g>
<!-- Node16 -->
<g id="node16" class="node">
<title>Node16</title>
<g id="a_node16"><a xlink:href="serializer_8h.html" target="_top" xlink:title=" ">
<polygon fill="white" stroke="#666666" points="729,-129 659,-129 659,-110 729,-110 729,-129"/>
<text text-anchor="middle" x="694" y="-117" font-family="Helvetica,sans-Serif" font-size="10.00">serializer.h</text>
</a>
</g>
</g>
<!-- Node2&#45;&gt;Node16 -->
<g id="edge20" class="edge">
<title>Node2&#45;&gt;Node16</title>
<path fill="none" stroke="#63b8ff" d="M694,-164.75C694,-157.8 694,-147.85 694,-139.13"/>
<polygon fill="#63b8ff" stroke="#63b8ff" points="697.5,-139.09 694,-129.09 690.5,-139.09 697.5,-139.09"/>
</g>
<!-- Node21 -->
<g id="node21" class="node">
<title>Node21</title>
<g id="a_node21"><a xlink:title=" ">
<polygon fill="#e0e0e0" stroke="#999999" points="964,-74 924,-74 924,-55 964,-55 964,-74"/>
<text text-anchor="middle" x="944" y="-62" font-family="Helvetica,sans-Serif" font-size="10.00">span</text>
</a>
</g>
</g>
<!-- Node2&#45;&gt;Node21 -->
<g id="edge36" class="edge">
<title>Node2&#45;&gt;Node21</title>
<path fill="none" stroke="#63b8ff" d="M702.75,-164.72C716.91,-151.01 746.26,-124.59 776,-110 830.49,-83.26 851.42,-90.18 913.8,-74.18"/>
<polygon fill="#63b8ff" stroke="#63b8ff" points="914.98,-77.49 923.74,-71.53 913.18,-70.72 914.98,-77.49"/>
</g>
<!-- Node23 -->
<g id="node23" class="node">
<title>Node23</title>
<g id="a_node23"><a xlink:title=" ">
<polygon fill="#e0e0e0" stroke="#999999" points="835,-129 785,-129 785,-110 835,-110 835,-129"/>
<text text-anchor="middle" x="810" y="-117" font-family="Helvetica,sans-Serif" font-size="10.00">atomic</text>
</a>
</g>
</g>
<!-- Node2&#45;&gt;Node23 -->
<g id="edge33" class="edge">
<title>Node2&#45;&gt;Node23</title>
<path fill="none" stroke="#63b8ff" d="M712.64,-164.98C731.3,-156.46 760.25,-143.23 781.74,-133.41"/>
<polygon fill="#63b8ff" stroke="#63b8ff" points="783.38,-136.51 791.02,-129.17 780.47,-130.14 783.38,-136.51"/>
</g>
<!-- Node24 -->
<g id="node24" class="node">
<title>Node24</title>
<g id="a_node24"><a xlink:title=" ">
<polygon fill="#e0e0e0" stroke="#999999" points="932.5,-129 853.5,-129 853.5,-110 932.5,-110 932.5,-129"/>
<text text-anchor="middle" x="893" y="-117" font-family="Helvetica,sans-Serif" font-size="10.00">fmt/format.h</text>
</a>
</g>
</g>
<!-- Node2&#45;&gt;Node24 -->
<g id="edge34" class="edge">
<title>Node2&#45;&gt;Node24</title>
<path fill="none" stroke="#63b8ff" d="M725.97,-164.98C759.82,-155.97 813.4,-141.7 850.71,-131.76"/>
<polygon fill="#63b8ff" stroke="#63b8ff" points="852.01,-135.04 860.78,-129.08 850.21,-128.27 852.01,-135.04"/>
</g>
<!-- Node25 -->
<g id="node25" class="node">
<title>Node25</title>
<g id="a_node25"><a xlink:title=" ">
<polygon fill="#e0e0e0" stroke="#999999" points="1006,-129 950,-129 950,-110 1006,-110 1006,-129"/>
<text text-anchor="middle" x="978" y="-117" font-family="Helvetica,sans-Serif" font-size="10.00">optional</text>
</a>
</g>
</g>
<!-- Node2&#45;&gt;Node25 -->
<g id="edge35" class="edge">
<title>Node2&#45;&gt;Node25</title>
<path fill="none" stroke="#63b8ff" d="M746.41,-164.95C794.46,-156.91 867.8,-144.17 939.61,-129.42"/>
<polygon fill="#63b8ff" stroke="#63b8ff" points="940.65,-132.78 949.73,-127.33 939.23,-125.93 940.65,-132.78"/>
</g>
<!-- Node4 -->
<g id="node4" class="node">
<title>Node4</title>
<g id="a_node4"><a xlink:href="siphash_8h.html" target="_top" xlink:title=" ">
<polygon fill="white" stroke="#666666" points="137.5,-74 42.5,-74 42.5,-55 137.5,-55 137.5,-74"/>
<text text-anchor="middle" x="90" y="-62" font-family="Helvetica,sans-Serif" font-size="10.00">ccf/ds/siphash.h</text>
</a>
</g>
</g>
<!-- Node3&#45;&gt;Node4 -->
<g id="edge3" class="edge">
<title>Node3&#45;&gt;Node4</title>
<path fill="none" stroke="#63b8ff" d="M185.68,-109.98C167.34,-101.46 138.89,-88.23 117.77,-78.41"/>
<polygon fill="#63b8ff" stroke="#63b8ff" points="119.19,-75.21 108.65,-74.17 116.24,-81.56 119.19,-75.21"/>
</g>
<!-- Node6 -->
<g id="node6" class="node">
<title>Node6</title>
<g id="a_node6"><a xlink:title=" ">
<polygon fill="#e0e0e0" stroke="#999999" points="50,-19 0,-19 0,0 50,0 50,-19"/>
<text text-anchor="middle" x="25" y="-7" font-family="Helvetica,sans-Serif" font-size="10.00">cstdint</text>
</a>
</g>
</g>
<!-- Node3&#45;&gt;Node6 -->
<g id="edge8" class="edge">
<title>Node3&#45;&gt;Node6</title>
<path fill="none" stroke="#63b8ff" d="M163.7,-113.26C118.74,-106.55 50.06,-93.42 33,-74 22.35,-61.88 21.21,-43.08 22.21,-29.08"/>
<polygon fill="#63b8ff" stroke="#63b8ff" points="25.7,-29.43 23.34,-19.1 18.74,-28.64 25.7,-29.43"/>
</g>
<!-- Node3&#45;&gt;Node7 -->
<g id="edge11" class="edge">
<title>Node3&#45;&gt;Node7</title>
<path fill="none" stroke="#63b8ff" d="M244.37,-118.88C285.31,-117.16 348.28,-108.47 389,-74 402.28,-62.76 409.18,-43.85 412.67,-29.58"/>
<polygon fill="#63b8ff" stroke="#63b8ff" points="416.18,-29.87 414.79,-19.36 409.33,-28.44 416.18,-29.87"/>
</g>
<!-- Node8 -->
<g id="node8" class="node">
<title>Node8</title>
<g id="a_node8"><a xlink:title=" ">
<polygon fill="#e0e0e0" stroke="#999999" points="211,-19 169,-19 169,0 211,0 211,-19"/>
<text text-anchor="middle" x="190" y="-7" font-family="Helvetica,sans-Serif" font-size="10.00">array</text>
</a>
</g>
</g>
<!-- Node3&#45;&gt;Node8 -->
<g id="edge7" class="edge">
<title>Node3&#45;&gt;Node8</title>
<path fill="none" stroke="#63b8ff" d="M200.4,-109.82C196.94,-100.99 191.97,-86.81 190,-74 187.72,-59.15 187.87,-42.12 188.5,-29.43"/>
<polygon fill="#63b8ff" stroke="#63b8ff" points="192.01,-29.4 189.17,-19.19 185.03,-28.94 192.01,-29.4"/>
</g>
<!-- Node9 -->
<g id="node9" class="node">
<title>Node9</title>
<g id="a_node9"><a xlink:title=" ">
<polygon fill="#e0e0e0" stroke="#999999" points="380.5,-74 231.5,-74 231.5,-55 380.5,-55 380.5,-74"/>
<text text-anchor="middle" x="306" y="-62" font-family="Helvetica,sans-Serif" font-size="10.00">small_vector/SmallVector.h</text>
</a>
</g>
</g>
<!-- Node3&#45;&gt;Node9 -->
<g id="edge9" class="edge">
<title>Node3&#45;&gt;Node9</title>
<path fill="none" stroke="#63b8ff" d="M220.39,-109.98C236.57,-101.57 261.57,-88.59 280.38,-78.81"/>
<polygon fill="#63b8ff" stroke="#63b8ff" points="282.05,-81.89 289.31,-74.17 278.83,-75.68 282.05,-81.89"/>
</g>
<!-- Node10 -->
<g id="node10" class="node">
<title>Node10</title>
<g id="a_node10"><a xlink:title=" ">
<polygon fill="#e0e0e0" stroke="#999999" points="326.5,-19 253.5,-19 253.5,0 326.5,0 326.5,-19"/>
<text text-anchor="middle" x="290" y="-7" font-family="Helvetica,sans-Serif" font-size="10.00">string_view</text>
</a>
</g>
</g>
<!-- Node3&#45;&gt;Node10 -->
<g id="edge10" class="edge">
<title>Node3&#45;&gt;Node10</title>
<path fill="none" stroke="#63b8ff" d="M204.55,-109.86C205.76,-96.81 209.65,-71.8 222,-55 231.84,-41.61 247.03,-31.12 260.55,-23.69"/>
<polygon fill="#63b8ff" stroke="#63b8ff" points="262.28,-26.74 269.57,-19.05 259.07,-20.52 262.28,-26.74"/>
</g>
<!-- Node5 -->
<g id="node5" class="node">
<title>Node5</title>
<g id="a_node5"><a xlink:title=" ">
<polygon fill="#e0e0e0" stroke="#999999" points="121.5,-19 68.5,-19 68.5,0 121.5,0 121.5,-19"/>
<text text-anchor="middle" x="95" y="-7" font-family="Helvetica,sans-Serif" font-size="10.00">cstddef</text>
</a>
</g>
</g>
<!-- Node4&#45;&gt;Node5 -->
<g id="edge4" class="edge">
<title>Node4&#45;&gt;Node5</title>
<path fill="none" stroke="#63b8ff" d="M90.83,-54.75C91.48,-47.8 92.42,-37.85 93.24,-29.13"/>
<polygon fill="#63b8ff" stroke="#63b8ff" points="96.73,-29.37 94.19,-19.09 89.77,-28.72 96.73,-29.37"/>
</g>
<!-- Node4&#45;&gt;Node6 -->
<g id="edge5" class="edge">
<title>Node4&#45;&gt;Node6</title>
<path fill="none" stroke="#63b8ff" d="M79.56,-54.98C69.85,-47.07 55.18,-35.11 43.5,-25.58"/>
<polygon fill="#63b8ff" stroke="#63b8ff" points="45.6,-22.78 35.63,-19.17 41.17,-28.2 45.6,-22.78"/>
</g>
<!-- Node4&#45;&gt;Node7 -->
<g id="edge6" class="edge">
<title>Node4&#45;&gt;Node7</title>
<path fill="none" stroke="#63b8ff" d="M137.75,-55.74C204.52,-44.88 324.09,-25.44 382.31,-15.98"/>
<polygon fill="#63b8ff" stroke="#63b8ff" points="383.13,-19.39 392.44,-14.33 382,-12.48 383.13,-19.39"/>
</g>
<!-- Node11&#45;&gt;Node7 -->
<g id="edge19" class="edge">
<title>Node11&#45;&gt;Node7</title>
<path fill="none" stroke="#63b8ff" d="M534.35,-54.98C511.15,-46.27 474.88,-32.63 448.6,-22.75"/>
<polygon fill="#63b8ff" stroke="#63b8ff" points="449.66,-19.41 439.07,-19.17 447.2,-25.97 449.66,-19.41"/>
</g>
<!-- Node11&#45;&gt;Node8 -->
<g id="edge14" class="edge">
<title>Node11&#45;&gt;Node8</title>
<path fill="none" stroke="#63b8ff" d="M511.87,-57.3C451.01,-48.89 339.26,-33.27 244,-19 236.51,-17.88 228.45,-16.63 220.9,-15.45"/>
<polygon fill="#63b8ff" stroke="#63b8ff" points="221.44,-11.99 211.02,-13.88 220.35,-18.9 221.44,-11.99"/>
</g>
<!-- Node11&#45;&gt;Node10 -->
<g id="edge17" class="edge">
<title>Node11&#45;&gt;Node10</title>
<path fill="none" stroke="#63b8ff" d="M514.1,-54.98C465.56,-45.35 386.75,-29.71 336.69,-19.77"/>
<polygon fill="#63b8ff" stroke="#63b8ff" points="337.27,-16.31 326.77,-17.8 335.9,-23.18 337.27,-16.31"/>
</g>
<!-- Node12 -->
<g id="node12" class="node">
<title>Node12</title>
<g id="a_node12"><a xlink:title=" ">
<polygon fill="#e0e0e0" stroke="#999999" points="589,-19 525,-19 525,0 589,0 589,-19"/>
<text text-anchor="middle" x="557" y="-7" font-family="Helvetica,sans-Serif" font-size="10.00">algorithm</text>
</a>
</g>
</g>
<!-- Node11&#45;&gt;Node12 -->
<g id="edge13" class="edge">
<title>Node11&#45;&gt;Node12</title>
<path fill="none" stroke="#63b8ff" d="M557,-54.75C557,-47.8 557,-37.85 557,-29.13"/>
<polygon fill="#63b8ff" stroke="#63b8ff" points="560.5,-29.09 557,-19.09 553.5,-29.09 560.5,-29.09"/>
</g>
<!-- Node13 -->
<g id="node13" class="node">
<title>Node13</title>
<g id="a_node13"><a xlink:title=" ">
<polygon fill="#e0e0e0" stroke="#999999" points="506.5,-19 457.5,-19 457.5,0 506.5,0 506.5,-19"/>
<text text-anchor="middle" x="482" y="-7" font-family="Helvetica,sans-Serif" font-size="10.00">cctype</text>
</a>
</g>
</g>
<!-- Node11&#45;&gt;Node13 -->
<g id="edge15" class="edge">
<title>Node11&#45;&gt;Node13</title>
<path fill="none" stroke="#63b8ff" d="M544.95,-54.98C533.54,-46.92 516.17,-34.65 502.57,-25.03"/>
<polygon fill="#63b8ff" stroke="#63b8ff" points="504.46,-22.08 494.27,-19.17 500.42,-27.8 504.46,-22.08"/>
</g>
<!-- Node11&#45;&gt;Node14 -->
<g id="edge16" class="edge">
<title>Node11&#45;&gt;Node14</title>
<path fill="none" stroke="#63b8ff" d="M568.57,-54.98C579.42,-47 595.88,-34.88 608.88,-25.31"/>
<polygon fill="#63b8ff" stroke="#63b8ff" points="611.24,-27.92 617.22,-19.17 607.09,-22.28 611.24,-27.92"/>
</g>
<!-- Node15 -->
<g id="node15" class="node">
<title>Node15</title>
<g id="a_node15"><a xlink:title=" ">
<polygon fill="#e0e0e0" stroke="#999999" points="821.5,-19 752.5,-19 752.5,0 821.5,0 821.5,-19"/>
<text text-anchor="middle" x="787" y="-7" font-family="Helvetica,sans-Serif" font-size="10.00">type_traits</text>
</a>
</g>
</g>
<!-- Node11&#45;&gt;Node15 -->
<g id="edge18" class="edge">
<title>Node11&#45;&gt;Node15</title>
<path fill="none" stroke="#63b8ff" d="M593.95,-54.98C634.39,-45.67 699.21,-30.73 742.44,-20.77"/>
<polygon fill="#63b8ff" stroke="#63b8ff" points="743.44,-24.13 752.4,-18.47 741.86,-17.31 743.44,-24.13"/>
</g>
<!-- Node16&#45;&gt;Node7 -->
<g id="edge32" class="edge">
<title>Node16&#45;&gt;Node7</title>
<path fill="none" stroke="#63b8ff" d="M658.83,-114.6C619.44,-109.27 554.38,-97.55 503,-74 476.36,-61.79 449.74,-40.74 433.09,-26.24"/>
<polygon fill="#63b8ff" stroke="#63b8ff" points="435.15,-23.38 425.35,-19.34 430.49,-28.61 435.15,-23.38"/>
</g>
<!-- Node16&#45;&gt;Node11 -->
<g id="edge21" class="edge">
<title>Node16&#45;&gt;Node11</title>
<path fill="none" stroke="#63b8ff" d="M671.99,-109.98C649.55,-101.3 614.52,-87.75 589.01,-77.88"/>
<polygon fill="#63b8ff" stroke="#63b8ff" points="590,-74.51 579.41,-74.17 587.48,-81.04 590,-74.51"/>
</g>
<!-- Node16&#45;&gt;Node15 -->
<g id="edge31" class="edge">
<title>Node16&#45;&gt;Node15</title>
<path fill="none" stroke="#63b8ff" d="M704.24,-109.8C714.14,-101.17 729.3,-87.35 741,-74 754,-59.17 767.01,-40.8 775.87,-27.63"/>
<polygon fill="#63b8ff" stroke="#63b8ff" points="778.92,-29.37 781.52,-19.1 773.08,-25.5 778.92,-29.37"/>
</g>
<!-- Node17 -->
<g id="node17" class="node">
<title>Node17</title>
<g id="a_node17"><a xlink:href="serialized_8h.html" target="_top" xlink:title=" ">
<polygon fill="white" stroke="#666666" points="731.5,-74 658.5,-74 658.5,-55 731.5,-55 731.5,-74"/>
<text text-anchor="middle" x="695" y="-62" font-family="Helvetica,sans-Serif" font-size="10.00">serialized.h</text>
</a>
</g>
</g>
<!-- Node16&#45;&gt;Node17 -->
<g id="edge22" class="edge">
<title>Node16&#45;&gt;Node17</title>
<path fill="none" stroke="#63b8ff" d="M694.17,-109.75C694.3,-102.8 694.48,-92.85 694.65,-84.13"/>
<polygon fill="#63b8ff" stroke="#63b8ff" points="698.15,-84.15 694.84,-74.09 691.15,-84.02 698.15,-84.15"/>
</g>
<!-- Node20 -->
<g id="node20" class="node">
<title>Node20</title>
<g id="a_node20"><a xlink:title=" ">
<polygon fill="#e0e0e0" stroke="#999999" points="846,-74 788,-74 788,-55 846,-55 846,-74"/>
<text text-anchor="middle" x="817" y="-62" font-family="Helvetica,sans-Serif" font-size="10.00">memory</text>
</a>
</g>
</g>
<!-- Node16&#45;&gt;Node20 -->
<g id="edge28" class="edge">
<title>Node16&#45;&gt;Node20</title>
<path fill="none" stroke="#63b8ff" d="M713.76,-109.98C733.73,-101.38 764.8,-87.99 787.65,-78.15"/>
<polygon fill="#63b8ff" stroke="#63b8ff" points="789.08,-81.34 796.88,-74.17 786.31,-74.91 789.08,-81.34"/>
</g>
<!-- Node16&#45;&gt;Node21 -->
<g id="edge29" class="edge">
<title>Node16&#45;&gt;Node21</title>
<path fill="none" stroke="#63b8ff" d="M729.04,-112.41C770.83,-104.94 842.98,-91.37 913.8,-74.13"/>
<polygon fill="#63b8ff" stroke="#63b8ff" points="914.91,-77.46 923.78,-71.67 913.23,-70.66 914.91,-77.46"/>
</g>
<!-- Node22 -->
<g id="node22" class="node">
<title>Node22</title>
<g id="a_node22"><a xlink:title=" ">
<polygon fill="#e0e0e0" stroke="#999999" points="905.5,-74 864.5,-74 864.5,-55 905.5,-55 905.5,-74"/>
<text text-anchor="middle" x="885" y="-62" font-family="Helvetica,sans-Serif" font-size="10.00">tuple</text>
</a>
</g>
</g>
<!-- Node16&#45;&gt;Node22 -->
<g id="edge30" class="edge">
<title>Node16&#45;&gt;Node22</title>
<path fill="none" stroke="#63b8ff" d="M725.18,-109.95C755.66,-101.57 803.64,-88.35 854.49,-74.13"/>
<polygon fill="#63b8ff" stroke="#63b8ff" points="855.66,-77.44 864.35,-71.37 853.77,-70.69 855.66,-77.44"/>
</g>
<!-- Node17&#45;&gt;Node6 -->
<g id="edge23" class="edge">
<title>Node17&#45;&gt;Node6</title>
<path fill="none" stroke="#63b8ff" d="M658.23,-59.49C643.55,-57.97 626.48,-56.29 611,-55 369.34,-34.9 303.69,-56.36 60.37,-18.91"/>
<polygon fill="#63b8ff" stroke="#63b8ff" points="60.57,-15.4 50.15,-17.32 59.49,-22.32 60.57,-15.4"/>
</g>
<!-- Node17&#45;&gt;Node7 -->
<g id="edge27" class="edge">
<title>Node17&#45;&gt;Node7</title>
<path fill="none" stroke="#63b8ff" d="M658.4,-57.86C612.01,-50.51 529.35,-36.71 449.89,-19.28"/>
<polygon fill="#63b8ff" stroke="#63b8ff" points="450.23,-15.78 439.71,-17.03 448.72,-22.61 450.23,-15.78"/>
</g>
<!-- Node17&#45;&gt;Node14 -->
<g id="edge26" class="edge">
<title>Node17&#45;&gt;Node14</title>
<path fill="none" stroke="#63b8ff" d="M684.4,-54.98C674.54,-47.07 659.65,-35.11 647.78,-25.58"/>
<polygon fill="#63b8ff" stroke="#63b8ff" points="649.79,-22.7 639.8,-19.17 645.4,-28.16 649.79,-22.7"/>
</g>
<!-- Node18 -->
<g id="node18" class="node">
<title>Node18</title>
<g id="a_node18"><a xlink:title=" ">
<polygon fill="#e0e0e0" stroke="#999999" points="890,-19 840,-19 840,0 890,0 890,-19"/>
<text text-anchor="middle" x="865" y="-7" font-family="Helvetica,sans-Serif" font-size="10.00">cstring</text>
</a>
</g>
</g>
<!-- Node17&#45;&gt;Node18 -->
<g id="edge24" class="edge">
<title>Node17&#45;&gt;Node18</title>
<path fill="none" stroke="#63b8ff" d="M722.31,-54.98C751.62,-45.85 798.24,-31.31 830.16,-21.36"/>
<polygon fill="#63b8ff" stroke="#63b8ff" points="831.47,-24.62 839.97,-18.3 829.38,-17.94 831.47,-24.62"/>
</g>
<!-- Node19 -->
<g id="node19" class="node">
<title>Node19</title>
<g id="a_node19"><a xlink:title=" ">
<polygon fill="#e0e0e0" stroke="#999999" points="734.5,-19 669.5,-19 669.5,0 734.5,0 734.5,-19"/>
<text text-anchor="middle" x="702" y="-7" font-family="Helvetica,sans-Serif" font-size="10.00">stdexcept</text>
</a>
</g>
</g>
<!-- Node17&#45;&gt;Node19 -->
<g id="edge25" class="edge">
<title>Node17&#45;&gt;Node19</title>
<path fill="none" stroke="#63b8ff" d="M696.16,-54.75C697.07,-47.8 698.39,-37.85 699.54,-29.13"/>
<polygon fill="#63b8ff" stroke="#63b8ff" points="703.03,-29.46 700.87,-19.09 696.09,-28.54 703.03,-29.46"/>
</g>
</g>
</svg>
        <g id="navigator" transform="translate(0 0)" fill="#404254">
                <rect fill="#f2f5e9" fill-opacity="0.5" stroke="#606060" stroke-width=".5" x="0" y="0" width="60" height="60"/>
                <use id="zoomplus" xlink:href="#zoomPlus" x="17" y="9" onmousedown="handleZoom(evt,'in')"/>
                <use id="zoomminus" xlink:href="#zoomMin" x="42" y="9" onmousedown="handleZoom(evt,'out')"/>
                <use id="reset" xlink:href="#resetDef" x="30" y="36" onmousedown="handleReset()"/>
                <g id="arrowUp" xlink:href="#dirArrow" transform="translate(30 24)" onmousedown="handlePan(0,-1)">
                  <use xlink:href="#rim" fill="#404040">
                        <set attributeName="fill" to="#808080" begin="arrowUp.mouseover" end="arrowUp.mouseout"/>
                  </use>
                  <path fill="none" stroke="white" stroke-width="1.5" d="M0,-3.0v7 M-2.5,-0.5L0,-3.0L2.5,-0.5"/>
                </g>
                <g id="arrowRight" xlink:href="#dirArrow" transform="rotate(90) translate(36 -43)" onmousedown="handlePan(1,0)">
                  <use xlink:href="#rim" fill="#404040">
                        <set attributeName="fill" to="#808080" begin="arrowRight.mouseover" end="arrowRight.mouseout"/>
                  </use>
                  <path fill="none" stroke="white" stroke-width="1.5" d="M0,-3.0v7 M-2.5,-0.5L0,-3.0L2.5,-0.5"/>
                </g>
                <g id="arrowDown" xlink:href="#dirArrow" transform="rotate(180) translate(-30 -48)" onmousedown="handlePan(0,1)">
                  <use xlink:href="#rim" fill="#404040">
                        <set attributeName="fill" to="#808080" begin="arrowDown.mouseover" end="arrowDown.mouseout"/>
                  </use>
                  <path fill="none" stroke="white" stroke-width="1.5" d="M0,-3.0v7 M-2.5,-0.5L0,-3.0L2.5,-0.5"/>
                </g>
                <g id="arrowLeft" xlink:href="#dirArrow" transform="rotate(270) translate(-36 17)" onmousedown="handlePan(-1,0)">
                  <use xlink:href="#rim" fill="#404040">
                        <set attributeName="fill" to="#808080" begin="arrowLeft.mouseover" end="arrowLeft.mouseout"/>
                  </use>
                  <path fill="none" stroke="white" stroke-width="1.5" d="M0,-3.0v7 M-2.5,-0.5L0,-3.0L2.5,-0.5"/>
                </g>
        </g>
        <svg viewBox="0 0 15 15" width="100%" height="30px" preserveAspectRatio="xMaxYMin meet">
         <g id="arrow_out" transform="scale(0.3 0.3)">
          <a xlink:href="quic_2msg__types_8h__incl_org.svg" target="_base">
           <rect id="button" ry="5" rx="5" y="6" x="6" height="38" width="38"
                fill="#f2f5e9" fill-opacity="0.5" stroke="#606060" stroke-width="1.0"/>
           <path id="arrow"
             d="M 11.500037,31.436501 C 11.940474,20.09759 22.043105,11.32322 32.158766,21.979434 L 37.068811,17.246167 C 37.068811,17.246167 37.088388,32 37.088388,32 L 22.160133,31.978069 C 22.160133,31.978069 26.997745,27.140456 26.997745,27.140456 C 18.528582,18.264221 13.291696,25.230495 11.500037,31.436501 z"
             style="fill:#404040;"/>
          </a>
         </g>
        </svg>
</svg>
