<?xml version="1.0" encoding="UTF-8" standalone="no"?>
<!DOCTYPE svg PUBLIC "-//W3C//DTD SVG 1.1//EN"
 "http://www.w3.org/Graphics/SVG/1.1/DTD/svg11.dtd">
<!-- Generated by graphviz version 2.43.0 (0)
 -->
<!-- Title: include/ccf/node/quote.h Pages: 1 -->
<!--zoomable 665 -->
<svg id="main" version="1.1" xmlns="http://www.w3.org/2000/svg" xmlns:xlink="http://www.w3.org/1999/xlink" xml:space="preserve" onload="init(evt)">
<style type="text/css"><![CDATA[
.edge:hover path { stroke: red; }
.edge:hover polygon { stroke: red; fill: red; }
]]></style>
<script type="text/javascript"><![CDATA[
var edges = document.getElementsByTagName('g');
if (edges && edges.length) {
  for (var i=0;i<edges.length;i++) {
    if (edges[i].id.substr(0,4)=='edge') {
      edges[i].setAttribute('class','edge');
    }
  }
}
]]></script>
        <defs>
                <circle id="rim" cx="0" cy="0" r="7"/>
                <circle id="rim2" cx="0" cy="0" r="3.5"/>
                <g id="zoomPlus">
                        <use xlink:href="#rim" fill="#404040">
                                <set attributeName="fill" to="#808080" begin="zoomplus.mouseover" end="zoomplus.mouseout"/>
                        </use>
                        <path d="M-4,0h8M0,-4v8" fill="none" stroke="white" stroke-width="1.5" pointer-events="none"/>
                </g>
                <g id="zoomMin">
                        <use xlink:href="#rim" fill="#404040">
                                <set attributeName="fill" to="#808080" begin="zoomminus.mouseover" end="zoomminus.mouseout"/>
                        </use>
                        <path d="M-4,0h8" fill="none" stroke="white" stroke-width="1.5" pointer-events="none"/>
                </g>
                <g id="dirArrow">
                        <path fill="none" stroke="white" stroke-width="1.5" d="M0,-3.0v7 M-2.5,-0.5L0,-3.0L2.5,-0.5"/>
                </g>
               <g id="resetDef">
                       <use xlink:href="#rim2" fill="#404040">
                               <set attributeName="fill" to="#808080" begin="reset.mouseover" end="reset.mouseout"/>
                       </use>
               </g>
        </defs>

<script type="text/javascript">
var viewWidth = 2483;
var viewHeight = 665;
var sectionId = 'dynsection-1';
</script>
<script xlink:href="svgpan.js"/>
<svg id="graph" class="graph">
<g id="viewport">
<title>include/ccf/node/quote.h</title>
<!-- Node1 -->
<g id="node1" class="node">
<title>Node1</title>
<g id="a_node1"><a xlink:title=" ">
<polygon fill="#999999" stroke="#666666" points="1657.5,-657 1521.5,-657 1521.5,-638 1657.5,-638 1657.5,-657"/>
<text text-anchor="middle" x="1589.5" y="-645" font-family="Helvetica,sans-Serif" font-size="10.00">include/ccf/node/quote.h</text>
</a>
</g>
</g>
<!-- Node2 -->
<g id="node2" class="node">
<title>Node2</title>
<g id="a_node2"><a xlink:href="executor__code__id_8h.html" target="_top" xlink:title=" ">
<polygon fill="white" stroke="#666666" points="393.5,-602 245.5,-602 245.5,-572 393.5,-572 393.5,-602"/>
<text text-anchor="start" x="253.5" y="-590" font-family="Helvetica,sans-Serif" font-size="10.00">src/apps/external_executor</text>
<text text-anchor="middle" x="319.5" y="-579" font-family="Helvetica,sans-Serif" font-size="10.00">/executor_code_id.h</text>
</a>
</g>
</g>
<!-- Node1&#45;&gt;Node2 -->
<g id="edge1" class="edge">
<title>Node1&#45;&gt;Node2</title>
<path fill="none" stroke="#63b8ff" d="M1510.97,-642.88C1281.96,-632.33 616.96,-601.7 393.63,-591.41"/>
<polygon fill="#63b8ff" stroke="#63b8ff" points="1511.07,-646.39 1521.22,-643.35 1511.39,-639.4 1511.07,-646.39"/>
</g>
<!-- Node7 -->
<g id="node7" class="node">
<title>Node7</title>
<g id="a_node7"><a xlink:href="quote_8cpp.html" target="_top" xlink:title=" ">
<polygon fill="white" stroke="#666666" points="2224,-596.5 2115,-596.5 2115,-577.5 2224,-577.5 2224,-596.5"/>
<text text-anchor="middle" x="2169.5" y="-584.5" font-family="Helvetica,sans-Serif" font-size="10.00">src/node/quote.cpp</text>
</a>
</g>
</g>
<!-- Node1&#45;&gt;Node7 -->
<g id="edge8" class="edge">
<title>Node1&#45;&gt;Node7</title>
<path fill="none" stroke="#63b8ff" d="M1667.63,-642.45C1768.15,-636.62 1947.98,-624.04 2100.5,-602 2110.54,-600.55 2121.32,-598.57 2131.31,-596.55"/>
<polygon fill="#63b8ff" stroke="#63b8ff" points="1667.34,-638.97 1657.56,-643.03 1667.75,-645.95 1667.34,-638.97"/>
</g>
<!-- Node8 -->
<g id="node8" class="node">
<title>Node8</title>
<g id="a_node8"><a xlink:href="member__frontend_8h.html" target="_top" xlink:title=" ">
<polygon fill="white" stroke="#666666" points="1483.5,-338 1363.5,-338 1363.5,-308 1483.5,-308 1483.5,-338"/>
<text text-anchor="start" x="1371.5" y="-326" font-family="Helvetica,sans-Serif" font-size="10.00">src/node/rpc/member</text>
<text text-anchor="middle" x="1423.5" y="-315" font-family="Helvetica,sans-Serif" font-size="10.00">_frontend.h</text>
</a>
</g>
</g>
<!-- Node1&#45;&gt;Node8 -->
<g id="edge9" class="edge">
<title>Node1&#45;&gt;Node8</title>
<path fill="none" stroke="#63b8ff" d="M1551.29,-634.43C1505.68,-617.35 1435.5,-581.42 1435.5,-522 1435.5,-522 1435.5,-522 1435.5,-454 1435.5,-411.62 1429.1,-361.79 1425.65,-338"/>
<polygon fill="#63b8ff" stroke="#63b8ff" points="1550.3,-637.79 1560.89,-637.88 1552.67,-631.2 1550.3,-637.79"/>
</g>
<!-- Node11 -->
<g id="node11" class="node">
<title>Node11</title>
<g id="a_node11"><a xlink:href="node__frontend_8h.html" target="_top" xlink:title=" ">
<polygon fill="white" stroke="#666666" points="1659.5,-332.5 1501.5,-332.5 1501.5,-313.5 1659.5,-313.5 1659.5,-332.5"/>
<text text-anchor="middle" x="1580.5" y="-320.5" font-family="Helvetica,sans-Serif" font-size="10.00">src/node/rpc/node_frontend.h</text>
</a>
</g>
</g>
<!-- Node1&#45;&gt;Node11 -->
<g id="edge12" class="edge">
<title>Node1&#45;&gt;Node11</title>
<path fill="none" stroke="#63b8ff" d="M1667.78,-640.22C1832.08,-624.26 2188.17,-573.52 2067.5,-440 2014.33,-381.17 1787.69,-429.17 1712.5,-404 1662.95,-387.42 1612.3,-349.68 1590.97,-332.64"/>
<polygon fill="#63b8ff" stroke="#63b8ff" points="1667.34,-636.74 1657.71,-641.17 1668,-643.71 1667.34,-636.74"/>
</g>
<!-- Node15 -->
<g id="node15" class="node">
<title>Node15</title>
<g id="a_node15"><a xlink:href="node__operation__interface_8h.html" target="_top" xlink:title=" ">
<polygon fill="white" stroke="#666666" points="1667,-602 1512,-602 1512,-572 1667,-572 1667,-602"/>
<text text-anchor="start" x="1520" y="-590" font-family="Helvetica,sans-Serif" font-size="10.00">src/node/rpc/node_operation</text>
<text text-anchor="middle" x="1589.5" y="-579" font-family="Helvetica,sans-Serif" font-size="10.00">_interface.h</text>
</a>
</g>
</g>
<!-- Node1&#45;&gt;Node15 -->
<g id="edge19" class="edge">
<title>Node1&#45;&gt;Node15</title>
<path fill="none" stroke="#63b8ff" d="M1589.5,-627.65C1589.5,-619.36 1589.5,-609.78 1589.5,-602.11"/>
<polygon fill="#63b8ff" stroke="#63b8ff" points="1586,-627.87 1589.5,-637.87 1593,-627.87 1586,-627.87"/>
</g>
<!-- Node3 -->
<g id="node3" class="node">
<title>Node3</title>
<g id="a_node3"><a xlink:href="executor__auth__policy_8h.html" target="_top" xlink:title=" ">
<polygon fill="white" stroke="#666666" points="291.5,-536 143.5,-536 143.5,-506 291.5,-506 291.5,-536"/>
<text text-anchor="start" x="151.5" y="-524" font-family="Helvetica,sans-Serif" font-size="10.00">src/apps/external_executor</text>
<text text-anchor="middle" x="217.5" y="-513" font-family="Helvetica,sans-Serif" font-size="10.00">/executor_auth_policy.h</text>
</a>
</g>
</g>
<!-- Node2&#45;&gt;Node3 -->
<g id="edge2" class="edge">
<title>Node2&#45;&gt;Node3</title>
<path fill="none" stroke="#63b8ff" d="M288.29,-566.42C272.64,-556.6 254.04,-544.93 239.83,-536.01"/>
<polygon fill="#63b8ff" stroke="#63b8ff" points="286.78,-569.6 297.12,-571.95 290.51,-563.68 286.78,-569.6"/>
</g>
<!-- Node4 -->
<g id="node4" class="node">
<title>Node4</title>
<g id="a_node4"><a xlink:href="external__executor_8cpp.html" target="_top" xlink:title=" ">
<polygon fill="white" stroke="#666666" points="341.5,-404 193.5,-404 193.5,-374 341.5,-374 341.5,-404"/>
<text text-anchor="start" x="201.5" y="-392" font-family="Helvetica,sans-Serif" font-size="10.00">src/apps/external_executor</text>
<text text-anchor="middle" x="267.5" y="-381" font-family="Helvetica,sans-Serif" font-size="10.00">/external_executor.cpp</text>
</a>
</g>
</g>
<!-- Node2&#45;&gt;Node4 -->
<g id="edge7" class="edge">
<title>Node2&#45;&gt;Node4</title>
<path fill="none" stroke="#63b8ff" d="M314.03,-561.73C310.37,-545.84 305.36,-524.63 300.5,-506 290.88,-469.13 278.26,-426.05 271.77,-404.23"/>
<polygon fill="#63b8ff" stroke="#63b8ff" points="310.69,-562.82 316.32,-571.79 317.51,-561.26 310.69,-562.82"/>
</g>
<!-- Node3&#45;&gt;Node4 -->
<g id="edge3" class="edge">
<title>Node3&#45;&gt;Node4</title>
<path fill="none" stroke="#63b8ff" d="M233.66,-497.4C239,-489.1 244.58,-479.42 248.5,-470 257.71,-447.86 263.01,-420.32 265.57,-404.01"/>
<polygon fill="#63b8ff" stroke="#63b8ff" points="230.69,-495.54 228.03,-505.8 236.51,-499.44 230.69,-495.54"/>
</g>
<!-- Node5 -->
<g id="node5" class="node">
<title>Node5</title>
<g id="a_node5"><a xlink:href="external__executor__indexing_8h.html" target="_top" xlink:title=" ">
<polygon fill="white" stroke="#666666" points="239.5,-470 75.5,-470 75.5,-440 239.5,-440 239.5,-470"/>
<text text-anchor="start" x="83.5" y="-458" font-family="Helvetica,sans-Serif" font-size="10.00">src/apps/external_executor</text>
<text text-anchor="middle" x="157.5" y="-447" font-family="Helvetica,sans-Serif" font-size="10.00">/external_executor_indexing.h</text>
</a>
</g>
</g>
<!-- Node3&#45;&gt;Node5 -->
<g id="edge4" class="edge">
<title>Node3&#45;&gt;Node5</title>
<path fill="none" stroke="#63b8ff" d="M197.22,-498.37C188.49,-489.06 178.54,-478.44 170.78,-470.16"/>
<polygon fill="#63b8ff" stroke="#63b8ff" points="194.79,-500.89 204.18,-505.8 199.9,-496.11 194.79,-500.89"/>
</g>
<!-- Node5&#45;&gt;Node4 -->
<g id="edge5" class="edge">
<title>Node5&#45;&gt;Node4</title>
<path fill="none" stroke="#63b8ff" d="M190.68,-434.69C207.66,-424.82 227.95,-413.01 243.42,-404.01"/>
<polygon fill="#63b8ff" stroke="#63b8ff" points="188.52,-431.9 181.64,-439.95 192.04,-437.95 188.52,-431.9"/>
</g>
<!-- Node6 -->
<g id="node6" class="node">
<title>Node6</title>
<g id="a_node6"><a xlink:href="external__executor__indexing_8cpp.html" target="_top" xlink:title=" ">
<polygon fill="white" stroke="#666666" points="175,-404 0,-404 0,-374 175,-374 175,-404"/>
<text text-anchor="start" x="8" y="-392" font-family="Helvetica,sans-Serif" font-size="10.00">src/apps/external_executor</text>
<text text-anchor="middle" x="87.5" y="-381" font-family="Helvetica,sans-Serif" font-size="10.00">/external_executor_indexing.cpp</text>
</a>
</g>
</g>
<!-- Node5&#45;&gt;Node6 -->
<g id="edge6" class="edge">
<title>Node5&#45;&gt;Node6</title>
<path fill="none" stroke="#63b8ff" d="M134.45,-432.92C124.13,-423.49 112.23,-412.61 102.99,-404.16"/>
<polygon fill="#63b8ff" stroke="#63b8ff" points="132.22,-435.63 141.96,-439.8 136.95,-430.47 132.22,-435.63"/>
</g>
<!-- Node9 -->
<g id="node9" class="node">
<title>Node9</title>
<g id="a_node9"><a xlink:href="src_2enclave_2enclave_8h.html" target="_top" xlink:title=" ">
<polygon fill="white" stroke="#666666" points="1828.5,-74 1706.5,-74 1706.5,-55 1828.5,-55 1828.5,-74"/>
<text text-anchor="middle" x="1767.5" y="-62" font-family="Helvetica,sans-Serif" font-size="10.00">src/enclave/enclave.h</text>
</a>
</g>
</g>
<!-- Node8&#45;&gt;Node9 -->
<g id="edge10" class="edge">
<title>Node8&#45;&gt;Node9</title>
<path fill="none" stroke="#63b8ff" d="M1413.61,-298.6C1396.66,-254.35 1368.62,-158.52 1420.5,-110 1460.7,-72.4 1617.92,-65.74 1706.3,-65.05"/>
<polygon fill="#63b8ff" stroke="#63b8ff" points="1410.38,-299.95 1417.33,-307.95 1416.89,-297.37 1410.38,-299.95"/>
</g>
<!-- Node10 -->
<g id="node10" class="node">
<title>Node10</title>
<g id="a_node10"><a xlink:href="enclave_2main_8cpp.html" target="_top" xlink:title=" ">
<polygon fill="white" stroke="#666666" points="1827.5,-19 1707.5,-19 1707.5,0 1827.5,0 1827.5,-19"/>
<text text-anchor="middle" x="1767.5" y="-7" font-family="Helvetica,sans-Serif" font-size="10.00">src/enclave/main.cpp</text>
</a>
</g>
</g>
<!-- Node9&#45;&gt;Node10 -->
<g id="edge11" class="edge">
<title>Node9&#45;&gt;Node10</title>
<path fill="none" stroke="#63b8ff" d="M1767.5,-44.66C1767.5,-35.93 1767.5,-25.99 1767.5,-19.09"/>
<polygon fill="#63b8ff" stroke="#63b8ff" points="1764,-44.75 1767.5,-54.75 1771,-44.75 1764,-44.75"/>
</g>
<!-- Node11&#45;&gt;Node9 -->
<g id="edge13" class="edge">
<title>Node11&#45;&gt;Node9</title>
<path fill="none" stroke="#63b8ff" d="M1503.53,-310.66C1481.12,-303.38 1459.06,-291.48 1445.5,-272 1404.37,-212.9 1398.2,-164.28 1445.5,-110 1478.63,-71.97 1622.49,-65.35 1706.28,-64.82"/>
<polygon fill="#63b8ff" stroke="#63b8ff" points="1502.54,-314.01 1513.12,-313.5 1504.53,-307.3 1502.54,-314.01"/>
</g>
<!-- Node12 -->
<g id="node12" class="node">
<title>Node12</title>
<g id="a_node12"><a xlink:href="jwt__key__auto__refresh_8h.html" target="_top" xlink:title=" ">
<polygon fill="white" stroke="#666666" points="1613,-272 1488,-272 1488,-242 1613,-242 1613,-272"/>
<text text-anchor="start" x="1496" y="-260" font-family="Helvetica,sans-Serif" font-size="10.00">src/node/jwt_key_auto</text>
<text text-anchor="middle" x="1550.5" y="-249" font-family="Helvetica,sans-Serif" font-size="10.00">_refresh.h</text>
</a>
</g>
</g>
<!-- Node11&#45;&gt;Node12 -->
<g id="edge14" class="edge">
<title>Node11&#45;&gt;Node12</title>
<path fill="none" stroke="#63b8ff" d="M1572.2,-304.3C1567.49,-294.24 1561.66,-281.81 1557.23,-272.36"/>
<polygon fill="#63b8ff" stroke="#63b8ff" points="1569.04,-305.8 1576.45,-313.37 1575.38,-302.83 1569.04,-305.8"/>
</g>
<!-- Node13 -->
<g id="node13" class="node">
<title>Node13</title>
<g id="a_node13"><a xlink:href="node__state_8h.html" target="_top" xlink:title=" ">
<polygon fill="white" stroke="#666666" points="1817.5,-200.5 1693.5,-200.5 1693.5,-181.5 1817.5,-181.5 1817.5,-200.5"/>
<text text-anchor="middle" x="1755.5" y="-188.5" font-family="Helvetica,sans-Serif" font-size="10.00">src/node/node_state.h</text>
</a>
</g>
</g>
<!-- Node12&#45;&gt;Node13 -->
<g id="edge15" class="edge">
<title>Node12&#45;&gt;Node13</title>
<path fill="none" stroke="#63b8ff" d="M1605.04,-238.97C1644.77,-226.57 1696.91,-210.29 1728.22,-200.52"/>
<polygon fill="#63b8ff" stroke="#63b8ff" points="1603.99,-235.63 1595.49,-241.95 1606.08,-242.32 1603.99,-235.63"/>
</g>
<!-- Node13&#45;&gt;Node9 -->
<g id="edge16" class="edge">
<title>Node13&#45;&gt;Node9</title>
<path fill="none" stroke="#63b8ff" d="M1745.97,-172.54C1738.31,-156.21 1729.84,-131.2 1736.5,-110 1740.9,-95.99 1751.45,-82.53 1759.02,-74.15"/>
<polygon fill="#63b8ff" stroke="#63b8ff" points="1742.85,-174.14 1750.49,-181.48 1749.1,-170.98 1742.85,-174.14"/>
</g>
<!-- Node14 -->
<g id="node14" class="node">
<title>Node14</title>
<g id="a_node14"><a xlink:href="gov__effects_8h.html" target="_top" xlink:title=" ">
<polygon fill="white" stroke="#666666" points="1889.5,-134.5 1745.5,-134.5 1745.5,-115.5 1889.5,-115.5 1889.5,-134.5"/>
<text text-anchor="middle" x="1817.5" y="-122.5" font-family="Helvetica,sans-Serif" font-size="10.00">src/node/rpc/gov_effects.h</text>
</a>
</g>
</g>
<!-- Node13&#45;&gt;Node14 -->
<g id="edge17" class="edge">
<title>Node13&#45;&gt;Node14</title>
<path fill="none" stroke="#63b8ff" d="M1771.02,-173.98C1782.99,-161.62 1799.1,-144.99 1808.87,-134.91"/>
<polygon fill="#63b8ff" stroke="#63b8ff" points="1768.31,-171.75 1763.86,-181.37 1773.33,-176.62 1768.31,-171.75"/>
</g>
<!-- Node14&#45;&gt;Node9 -->
<g id="edge18" class="edge">
<title>Node14&#45;&gt;Node9</title>
<path fill="none" stroke="#63b8ff" d="M1803.36,-107.45C1794.1,-96.62 1782.38,-82.91 1774.91,-74.17"/>
<polygon fill="#63b8ff" stroke="#63b8ff" points="1800.96,-110.04 1810.12,-115.37 1806.29,-105.49 1800.96,-110.04"/>
</g>
<!-- Node15&#45;&gt;Node8 -->
<g id="edge20" class="edge">
<title>Node15&#45;&gt;Node8</title>
<path fill="none" stroke="#63b8ff" d="M1541.26,-567.31C1526.44,-559.56 1511.23,-549.22 1500.5,-536 1452.92,-477.4 1478.36,-443.75 1449.5,-374 1444.34,-361.52 1437.19,-347.97 1431.69,-338.12"/>
<polygon fill="#63b8ff" stroke="#63b8ff" points="1539.87,-570.53 1550.39,-571.81 1542.96,-564.25 1539.87,-570.53"/>
</g>
<!-- Node16 -->
<g id="node16" class="node">
<title>Node16</title>
<g id="a_node16"><a xlink:href="node__interface_8h.html" target="_top" xlink:title=" ">
<polygon fill="white" stroke="#666666" points="1670,-530.5 1509,-530.5 1509,-511.5 1670,-511.5 1670,-530.5"/>
<text text-anchor="middle" x="1589.5" y="-518.5" font-family="Helvetica,sans-Serif" font-size="10.00">src/node/rpc/node_interface.h</text>
</a>
</g>
</g>
<!-- Node15&#45;&gt;Node16 -->
<g id="edge21" class="edge">
<title>Node15&#45;&gt;Node16</title>
<path fill="none" stroke="#63b8ff" d="M1589.5,-561.6C1589.5,-550.8 1589.5,-538.78 1589.5,-530.84"/>
<polygon fill="#63b8ff" stroke="#63b8ff" points="1586,-561.8 1589.5,-571.8 1593,-561.8 1586,-561.8"/>
</g>
<!-- Node38 -->
<g id="node38" class="node">
<title>Node38</title>
<g id="a_node38"><a xlink:href="node__operation_8h.html" target="_top" xlink:title=" ">
<polygon fill="white" stroke="#666666" points="2058.5,-464.5 1894.5,-464.5 1894.5,-445.5 2058.5,-445.5 2058.5,-464.5"/>
<text text-anchor="middle" x="1976.5" y="-452.5" font-family="Helvetica,sans-Serif" font-size="10.00">src/node/rpc/node_operation.h</text>
</a>
</g>
</g>
<!-- Node15&#45;&gt;Node38 -->
<g id="edge72" class="edge">
<title>Node15&#45;&gt;Node38</title>
<path fill="none" stroke="#63b8ff" d="M1640.86,-568.75C1724.7,-540.59 1887.92,-485.76 1950.88,-464.61"/>
<polygon fill="#63b8ff" stroke="#63b8ff" points="1639.65,-565.46 1631.28,-571.96 1641.88,-572.1 1639.65,-565.46"/>
</g>
<!-- Node16&#45;&gt;Node8 -->
<g id="edge64" class="edge">
<title>Node16&#45;&gt;Node8</title>
<path fill="none" stroke="#63b8ff" d="M1580.02,-502.53C1563.88,-473.73 1528.94,-415.38 1489.5,-374 1476.41,-360.27 1459.27,-347.4 1445.74,-338.16"/>
<polygon fill="#63b8ff" stroke="#63b8ff" points="1577.02,-504.34 1584.92,-511.4 1583.15,-500.96 1577.02,-504.34"/>
</g>
<!-- Node16&#45;&gt;Node11 -->
<g id="edge69" class="edge">
<title>Node16&#45;&gt;Node11</title>
<path fill="none" stroke="#63b8ff" d="M1588.64,-501.26C1586.74,-459.88 1582.25,-362.08 1580.89,-332.57"/>
<polygon fill="#63b8ff" stroke="#63b8ff" points="1585.15,-501.5 1589.1,-511.33 1592.14,-501.18 1585.15,-501.5"/>
</g>
<!-- Node17 -->
<g id="node17" class="node">
<title>Node17</title>
<g id="a_node17"><a xlink:href="wrap_8cpp.html" target="_top" xlink:title=" ">
<polygon fill="white" stroke="#666666" points="778,-266.5 689,-266.5 689,-247.5 778,-247.5 778,-266.5"/>
<text text-anchor="middle" x="733.5" y="-254.5" font-family="Helvetica,sans-Serif" font-size="10.00">src/js/wrap.cpp</text>
</a>
</g>
</g>
<!-- Node16&#45;&gt;Node17 -->
<g id="edge22" class="edge">
<title>Node16&#45;&gt;Node17</title>
<path fill="none" stroke="#63b8ff" d="M1498.35,-518.98C1262.23,-514.22 640.33,-487.46 514.5,-338 464.64,-278.78 611.51,-263.39 688.99,-259.4"/>
<polygon fill="#63b8ff" stroke="#63b8ff" points="1498.56,-522.49 1508.62,-519.18 1498.69,-515.49 1498.56,-522.49"/>
</g>
<!-- Node18 -->
<g id="node18" class="node">
<title>Node18</title>
<g id="a_node18"><a xlink:href="wrap_8h.html" target="_top" xlink:title=" ">
<polygon fill="white" stroke="#666666" points="1105.5,-398.5 1027.5,-398.5 1027.5,-379.5 1105.5,-379.5 1105.5,-398.5"/>
<text text-anchor="middle" x="1066.5" y="-386.5" font-family="Helvetica,sans-Serif" font-size="10.00">src/js/wrap.h</text>
</a>
</g>
</g>
<!-- Node16&#45;&gt;Node18 -->
<g id="edge23" class="edge">
<title>Node16&#45;&gt;Node18</title>
<path fill="none" stroke="#63b8ff" d="M1545.2,-508.99C1443.04,-483.59 1192.71,-421.37 1100.94,-398.56"/>
<polygon fill="#63b8ff" stroke="#63b8ff" points="1544.64,-512.45 1555.18,-511.47 1546.32,-505.66 1544.64,-512.45"/>
</g>
<!-- Node25 -->
<g id="node25" class="node">
<title>Node25</title>
<g id="a_node25"><a xlink:href="historical__queries_8h.html" target="_top" xlink:title=" ">
<polygon fill="white" stroke="#666666" points="2232.5,-206 2126.5,-206 2126.5,-176 2232.5,-176 2232.5,-206"/>
<text text-anchor="start" x="2134.5" y="-194" font-family="Helvetica,sans-Serif" font-size="10.00">src/node/historical</text>
<text text-anchor="middle" x="2179.5" y="-183" font-family="Helvetica,sans-Serif" font-size="10.00">_queries.h</text>
</a>
</g>
</g>
<!-- Node16&#45;&gt;Node25 -->
<g id="edge39" class="edge">
<title>Node16&#45;&gt;Node25</title>
<path fill="none" stroke="#63b8ff" d="M1662.7,-509.73C1705.74,-502.09 1760.55,-489.54 1806.5,-470 1828.96,-460.45 1829.77,-448.9 1852.5,-440 1941.5,-405.17 1986.77,-459.61 2064.5,-404 2135.33,-353.33 2166.98,-245.04 2176.36,-206.22"/>
<polygon fill="#63b8ff" stroke="#63b8ff" points="1661.84,-506.33 1652.58,-511.48 1663.03,-513.23 1661.84,-506.33"/>
</g>
<!-- Node27 -->
<g id="node27" class="node">
<title>Node27</title>
<g id="a_node27"><a xlink:href="node__configuration__subsystem_8h.html" target="_top" xlink:title=" ">
<polygon fill="white" stroke="#666666" points="1762.5,-470 1608.5,-470 1608.5,-440 1762.5,-440 1762.5,-470"/>
<text text-anchor="start" x="1616.5" y="-458" font-family="Helvetica,sans-Serif" font-size="10.00">src/node/node_configuration</text>
<text text-anchor="middle" x="1685.5" y="-447" font-family="Helvetica,sans-Serif" font-size="10.00">_subsystem.h</text>
</a>
</g>
</g>
<!-- Node16&#45;&gt;Node27 -->
<g id="edge43" class="edge">
<title>Node16&#45;&gt;Node27</title>
<path fill="none" stroke="#63b8ff" d="M1611.08,-505.62C1626.98,-495.01 1648.52,-480.66 1664.33,-470.12"/>
<polygon fill="#63b8ff" stroke="#63b8ff" points="1608.83,-502.91 1602.45,-511.37 1612.71,-508.73 1608.83,-502.91"/>
</g>
<!-- Node32 -->
<g id="node32" class="node">
<title>Node32</title>
<g id="a_node32"><a xlink:href="acme__subsystem_8h.html" target="_top" xlink:title=" ">
<polygon fill="white" stroke="#666666" points="2424,-200.5 2251,-200.5 2251,-181.5 2424,-181.5 2424,-200.5"/>
<text text-anchor="middle" x="2337.5" y="-188.5" font-family="Helvetica,sans-Serif" font-size="10.00">src/node/rpc/acme_subsystem.h</text>
</a>
</g>
</g>
<!-- Node16&#45;&gt;Node32 -->
<g id="edge54" class="edge">
<title>Node16&#45;&gt;Node32</title>
<path fill="none" stroke="#63b8ff" d="M1680.29,-511.63C1730.02,-504.72 1791.86,-492.28 1843.5,-470 1864.56,-460.91 1864.33,-448.84 1885.5,-440 1972.48,-403.69 2009.38,-444.49 2094.5,-404 2205.22,-351.34 2304.34,-233.63 2330.68,-200.71"/>
<polygon fill="#63b8ff" stroke="#63b8ff" points="1679.64,-508.18 1670.19,-512.97 1680.56,-515.12 1679.64,-508.18"/>
</g>
<!-- Node33 -->
<g id="node33" class="node">
<title>Node33</title>
<g id="a_node33"><a xlink:href="custom__protocol__subsystem_8h.html" target="_top" xlink:title=" ">
<polygon fill="white" stroke="#666666" points="2055,-404 1926,-404 1926,-374 2055,-374 2055,-404"/>
<text text-anchor="start" x="1934" y="-392" font-family="Helvetica,sans-Serif" font-size="10.00">src/node/rpc/custom</text>
<text text-anchor="middle" x="1990.5" y="-381" font-family="Helvetica,sans-Serif" font-size="10.00">_protocol_subsystem.h</text>
</a>
</g>
</g>
<!-- Node16&#45;&gt;Node33 -->
<g id="edge56" class="edge">
<title>Node16&#45;&gt;Node33</title>
<path fill="none" stroke="#63b8ff" d="M1647.47,-509.36C1684.14,-501.37 1731.91,-488.57 1771.5,-470 1792.6,-460.1 1793.45,-449.99 1814.5,-440 1849.8,-423.25 1891.81,-411.06 1925.93,-402.9"/>
<polygon fill="#63b8ff" stroke="#63b8ff" points="1646.5,-505.99 1637.44,-511.49 1647.95,-512.84 1646.5,-505.99"/>
</g>
<!-- Node36 -->
<g id="node36" class="node">
<title>Node36</title>
<g id="a_node36"><a xlink:href="network__identity__subsystem_8h.html" target="_top" xlink:title=" ">
<polygon fill="white" stroke="#666666" points="503,-470 376,-470 376,-440 503,-440 503,-470"/>
<text text-anchor="start" x="384" y="-458" font-family="Helvetica,sans-Serif" font-size="10.00">src/node/rpc/network</text>
<text text-anchor="middle" x="439.5" y="-447" font-family="Helvetica,sans-Serif" font-size="10.00">_identity_subsystem.h</text>
</a>
</g>
</g>
<!-- Node16&#45;&gt;Node36 -->
<g id="edge65" class="edge">
<title>Node16&#45;&gt;Node36</title>
<path fill="none" stroke="#63b8ff" d="M1498.87,-518.88C1315.69,-515.93 888.43,-505.5 531.5,-470 522.34,-469.09 512.69,-467.89 503.24,-466.57"/>
<polygon fill="#63b8ff" stroke="#63b8ff" points="1498.94,-522.38 1508.99,-519.04 1499.05,-515.39 1498.94,-522.38"/>
</g>
<!-- Node16&#45;&gt;Node38 -->
<g id="edge70" class="edge">
<title>Node16&#45;&gt;Node38</title>
<path fill="none" stroke="#63b8ff" d="M1651.18,-509.8C1726.98,-497.26 1854.22,-476.22 1925.02,-464.51"/>
<polygon fill="#63b8ff" stroke="#63b8ff" points="1650.59,-506.35 1641.29,-511.44 1651.73,-513.26 1650.59,-506.35"/>
</g>
<!-- Node18&#45;&gt;Node8 -->
<g id="edge37" class="edge">
<title>Node18&#45;&gt;Node8</title>
<path fill="none" stroke="#63b8ff" d="M1115.99,-379.44C1172.5,-369.63 1267.72,-352.96 1349.5,-338 1354,-337.18 1358.66,-336.32 1363.34,-335.45"/>
<polygon fill="#63b8ff" stroke="#63b8ff" points="1115.15,-376.04 1105.9,-381.19 1116.35,-382.93 1115.15,-376.04"/>
</g>
<!-- Node18&#45;&gt;Node9 -->
<g id="edge25" class="edge">
<title>Node18&#45;&gt;Node9</title>
<path fill="none" stroke="#63b8ff" d="M1016.85,-388.7C897.73,-389.58 599.36,-386.7 514.5,-338 476.64,-316.27 457.5,-301.66 457.5,-258 457.5,-258 457.5,-258 457.5,-190 457.5,-126.46 1447.08,-79.32 1706.07,-68.07"/>
<polygon fill="#63b8ff" stroke="#63b8ff" points="1017.16,-392.2 1027.13,-388.62 1017.1,-385.2 1017.16,-392.2"/>
</g>
<!-- Node18&#45;&gt;Node11 -->
<g id="edge38" class="edge">
<title>Node18&#45;&gt;Node11</title>
<path fill="none" stroke="#63b8ff" d="M1115.82,-382.87C1195.26,-374.47 1356.43,-356.8 1492.5,-338 1504.3,-336.37 1516.96,-334.45 1528.9,-332.57"/>
<polygon fill="#63b8ff" stroke="#63b8ff" points="1115.2,-379.42 1105.63,-383.95 1115.94,-386.38 1115.2,-379.42"/>
</g>
<!-- Node18&#45;&gt;Node13 -->
<g id="edge36" class="edge">
<title>Node18&#45;&gt;Node13</title>
<path fill="none" stroke="#63b8ff" d="M1115.91,-384.95C1167.91,-380.21 1251.14,-368.2 1316.5,-338 1336.03,-328.97 1336.47,-319.74 1354.5,-308 1407.15,-273.73 1420.12,-262.51 1479.5,-242 1550.62,-217.44 1636.42,-204.31 1693.28,-197.77"/>
<polygon fill="#63b8ff" stroke="#63b8ff" points="1115.6,-381.46 1105.94,-385.8 1116.2,-388.44 1115.6,-381.46"/>
</g>
<!-- Node18&#45;&gt;Node17 -->
<g id="edge35" class="edge">
<title>Node18&#45;&gt;Node17</title>
<path fill="none" stroke="#63b8ff" d="M1017.21,-383.23C949.28,-375.94 831.09,-360.46 794.5,-338 765.62,-320.27 745.48,-283.47 737.42,-266.68"/>
<polygon fill="#63b8ff" stroke="#63b8ff" points="1016.95,-386.72 1027.26,-384.29 1017.68,-379.76 1016.95,-386.72"/>
</g>
<!-- Node19 -->
<g id="node19" class="node">
<title>Node19</title>
<g id="a_node19"><a xlink:href="js__generic__base_8cpp.html" target="_top" xlink:title=" ">
<polygon fill="white" stroke="#666666" points="1055.5,-338 937.5,-338 937.5,-308 1055.5,-308 1055.5,-338"/>
<text text-anchor="start" x="945.5" y="-326" font-family="Helvetica,sans-Serif" font-size="10.00">src/apps/js_generic</text>
<text text-anchor="middle" x="996.5" y="-315" font-family="Helvetica,sans-Serif" font-size="10.00">/js_generic_base.cpp</text>
</a>
</g>
</g>
<!-- Node18&#45;&gt;Node19 -->
<g id="edge24" class="edge">
<title>Node18&#45;&gt;Node19</title>
<path fill="none" stroke="#63b8ff" d="M1049.45,-372.41C1038,-361.94 1023.04,-348.26 1011.94,-338.12"/>
<polygon fill="#63b8ff" stroke="#63b8ff" points="1047.32,-375.2 1057.06,-379.37 1052.04,-370.04 1047.32,-375.2"/>
</g>
<!-- Node20 -->
<g id="node20" class="node">
<title>Node20</title>
<g id="a_node20"><a xlink:href="consensus_8cpp.html" target="_top" xlink:title=" ">
<polygon fill="white" stroke="#666666" points="919.5,-332.5 803.5,-332.5 803.5,-313.5 919.5,-313.5 919.5,-332.5"/>
<text text-anchor="middle" x="861.5" y="-320.5" font-family="Helvetica,sans-Serif" font-size="10.00">src/js/consensus.cpp</text>
</a>
</g>
</g>
<!-- Node18&#45;&gt;Node20 -->
<g id="edge26" class="edge">
<title>Node18&#45;&gt;Node20</title>
<path fill="none" stroke="#63b8ff" d="M1029.1,-376.32C988.66,-363.7 925.15,-343.87 889.04,-332.6"/>
<polygon fill="#63b8ff" stroke="#63b8ff" points="1028.26,-379.73 1038.85,-379.37 1030.35,-373.05 1028.26,-379.73"/>
</g>
<!-- Node21 -->
<g id="node21" class="node">
<title>Node21</title>
<g id="a_node21"><a xlink:href="conv_8cpp.html" target="_top" xlink:title=" ">
<polygon fill="white" stroke="#666666" points="1307.5,-332.5 1219.5,-332.5 1219.5,-313.5 1307.5,-313.5 1307.5,-332.5"/>
<text text-anchor="middle" x="1263.5" y="-320.5" font-family="Helvetica,sans-Serif" font-size="10.00">src/js/conv.cpp</text>
</a>
</g>
</g>
<!-- Node18&#45;&gt;Node21 -->
<g id="edge28" class="edge">
<title>Node18&#45;&gt;Node21</title>
<path fill="none" stroke="#63b8ff" d="M1102.94,-376.16C1141.82,-363.53 1202.48,-343.82 1237.04,-332.6"/>
<polygon fill="#63b8ff" stroke="#63b8ff" points="1101.5,-372.95 1093.07,-379.37 1103.66,-379.61 1101.5,-372.95"/>
</g>
<!-- Node22 -->
<g id="node22" class="node">
<title>Node22</title>
<g id="a_node22"><a xlink:href="crypto_8cpp.html" target="_top" xlink:title=" ">
<polygon fill="white" stroke="#666666" points="619.5,-332.5 523.5,-332.5 523.5,-313.5 619.5,-313.5 619.5,-332.5"/>
<text text-anchor="middle" x="571.5" y="-320.5" font-family="Helvetica,sans-Serif" font-size="10.00">src/js/crypto.cpp</text>
</a>
</g>
</g>
<!-- Node18&#45;&gt;Node22 -->
<g id="edge30" class="edge">
<title>Node18&#45;&gt;Node22</title>
<path fill="none" stroke="#63b8ff" d="M1016.84,-384.4C935.31,-378.03 768.19,-363.02 628.5,-338 620.28,-336.53 611.47,-334.56 603.3,-332.57"/>
<polygon fill="#63b8ff" stroke="#63b8ff" points="1017.05,-387.93 1027.29,-385.21 1017.59,-380.95 1017.05,-387.93"/>
</g>
<!-- Node23 -->
<g id="node23" class="node">
<title>Node23</title>
<g id="a_node23"><a xlink:href="historical_8cpp.html" target="_top" xlink:title=" ">
<polygon fill="white" stroke="#666666" points="747.5,-332.5 637.5,-332.5 637.5,-313.5 747.5,-313.5 747.5,-332.5"/>
<text text-anchor="middle" x="692.5" y="-320.5" font-family="Helvetica,sans-Serif" font-size="10.00">src/js/historical.cpp</text>
</a>
</g>
</g>
<!-- Node18&#45;&gt;Node23 -->
<g id="edge32" class="edge">
<title>Node18&#45;&gt;Node23</title>
<path fill="none" stroke="#63b8ff" d="M1017.41,-380.54C957.06,-371.22 851.56,-354.51 761.5,-338 752.36,-336.32 742.57,-334.41 733.31,-332.55"/>
<polygon fill="#63b8ff" stroke="#63b8ff" points="1017,-384.01 1027.42,-382.08 1018.07,-377.1 1017,-384.01"/>
</g>
<!-- Node24 -->
<g id="node24" class="node">
<title>Node24</title>
<g id="a_node24"><a xlink:href="openenclave_8cpp.html" target="_top" xlink:title=" ">
<polygon fill="white" stroke="#666666" points="1201.5,-332.5 1073.5,-332.5 1073.5,-313.5 1201.5,-313.5 1201.5,-332.5"/>
<text text-anchor="middle" x="1137.5" y="-320.5" font-family="Helvetica,sans-Serif" font-size="10.00">src/js/openenclave.cpp</text>
</a>
</g>
</g>
<!-- Node18&#45;&gt;Node24 -->
<g id="edge34" class="edge">
<title>Node18&#45;&gt;Node24</title>
<path fill="none" stroke="#63b8ff" d="M1083.88,-372.33C1097.63,-359.94 1116.33,-343.09 1127.62,-332.91"/>
<polygon fill="#63b8ff" stroke="#63b8ff" points="1081.16,-370.07 1076.08,-379.37 1085.85,-375.27 1081.16,-370.07"/>
</g>
<!-- Node20&#45;&gt;Node17 -->
<g id="edge27" class="edge">
<title>Node20&#45;&gt;Node17</title>
<path fill="none" stroke="#63b8ff" d="M835.22,-308.86C810,-296.25 772.63,-277.56 750.9,-266.7"/>
<polygon fill="#63b8ff" stroke="#63b8ff" points="833.73,-312.03 844.24,-313.37 836.86,-305.77 833.73,-312.03"/>
</g>
<!-- Node21&#45;&gt;Node17 -->
<g id="edge29" class="edge">
<title>Node21&#45;&gt;Node17</title>
<path fill="none" stroke="#63b8ff" d="M1224.45,-310.96C1219.77,-309.85 1215.05,-308.83 1210.5,-308 1053.05,-279.13 863.07,-265.42 778.22,-260.39"/>
<polygon fill="#63b8ff" stroke="#63b8ff" points="1223.97,-314.45 1234.52,-313.49 1225.67,-307.66 1223.97,-314.45"/>
</g>
<!-- Node22&#45;&gt;Node17 -->
<g id="edge31" class="edge">
<title>Node22&#45;&gt;Node17</title>
<path fill="none" stroke="#63b8ff" d="M602.7,-309.68C634.71,-297.03 683.69,-277.68 711.74,-266.6"/>
<polygon fill="#63b8ff" stroke="#63b8ff" points="601.36,-306.44 593.35,-313.37 603.93,-312.95 601.36,-306.44"/>
</g>
<!-- Node23&#45;&gt;Node17 -->
<g id="edge33" class="edge">
<title>Node23&#45;&gt;Node17</title>
<path fill="none" stroke="#63b8ff" d="M703.45,-304.91C711.29,-292.68 721.52,-276.7 727.8,-266.91"/>
<polygon fill="#63b8ff" stroke="#63b8ff" points="700.48,-303.06 698.03,-313.37 706.37,-306.84 700.48,-303.06"/>
</g>
<!-- Node25&#45;&gt;Node9 -->
<g id="edge40" class="edge">
<title>Node25&#45;&gt;Node9</title>
<path fill="none" stroke="#63b8ff" d="M2166.94,-167.13C2155.38,-148.46 2136.43,-123.1 2112.5,-110 2064.96,-83.97 1914.47,-72.56 1828.77,-68.07"/>
<polygon fill="#63b8ff" stroke="#63b8ff" points="2164.05,-169.11 2172.15,-175.93 2170.07,-165.54 2164.05,-169.11"/>
</g>
<!-- Node26 -->
<g id="node26" class="node">
<title>Node26</title>
<g id="a_node26"><a xlink:href="historical__transaction__fetcher_8h.html" target="_top" xlink:title=" ">
<polygon fill="white" stroke="#666666" points="2290,-140 2165,-140 2165,-110 2290,-110 2290,-140"/>
<text text-anchor="start" x="2173" y="-128" font-family="Helvetica,sans-Serif" font-size="10.00">src/indexing/historical</text>
<text text-anchor="middle" x="2227.5" y="-117" font-family="Helvetica,sans-Serif" font-size="10.00">_transaction_fetcher.h</text>
</a>
</g>
</g>
<!-- Node25&#45;&gt;Node26 -->
<g id="edge41" class="edge">
<title>Node25&#45;&gt;Node26</title>
<path fill="none" stroke="#63b8ff" d="M2196.36,-167.53C2203.18,-158.43 2210.85,-148.19 2216.88,-140.16"/>
<polygon fill="#63b8ff" stroke="#63b8ff" points="2193.35,-165.7 2190.15,-175.8 2198.95,-169.9 2193.35,-165.7"/>
</g>
<!-- Node26&#45;&gt;Node9 -->
<g id="edge42" class="edge">
<title>Node26&#45;&gt;Node9</title>
<path fill="none" stroke="#63b8ff" d="M2154.95,-110.68C2153.45,-110.44 2151.97,-110.22 2150.5,-110 2037.28,-93.15 1904.43,-78.95 1828.69,-71.39"/>
<polygon fill="#63b8ff" stroke="#63b8ff" points="2154.51,-114.15 2164.94,-112.28 2155.62,-107.24 2154.51,-114.15"/>
</g>
<!-- Node28 -->
<g id="node28" class="node">
<title>Node28</title>
<g id="a_node28"><a xlink:href="frontend_8h.html" target="_top" xlink:title=" ">
<polygon fill="white" stroke="#666666" points="1850,-398.5 1721,-398.5 1721,-379.5 1850,-379.5 1850,-398.5"/>
<text text-anchor="middle" x="1785.5" y="-386.5" font-family="Helvetica,sans-Serif" font-size="10.00">src/node/rpc/frontend.h</text>
</a>
</g>
</g>
<!-- Node27&#45;&gt;Node28 -->
<g id="edge44" class="edge">
<title>Node27&#45;&gt;Node28</title>
<path fill="none" stroke="#63b8ff" d="M1716.19,-434.36C1734.84,-422.42 1757.73,-407.77 1771.97,-398.66"/>
<polygon fill="#63b8ff" stroke="#63b8ff" points="1714.23,-431.46 1707.69,-439.8 1718,-437.35 1714.23,-431.46"/>
</g>
<!-- Node28&#45;&gt;Node8 -->
<g id="edge50" class="edge">
<title>Node28&#45;&gt;Node8</title>
<path fill="none" stroke="#63b8ff" d="M1722.5,-377.83C1663.1,-368.11 1571.62,-352.77 1492.5,-338 1489.62,-337.46 1486.67,-336.9 1483.69,-336.33"/>
<polygon fill="#63b8ff" stroke="#63b8ff" points="1722.05,-381.3 1732.48,-379.46 1723.18,-374.4 1722.05,-381.3"/>
</g>
<!-- Node28&#45;&gt;Node11 -->
<g id="edge51" class="edge">
<title>Node28&#45;&gt;Node11</title>
<path fill="none" stroke="#63b8ff" d="M1748.1,-376.32C1707.66,-363.7 1644.15,-343.87 1608.04,-332.6"/>
<polygon fill="#63b8ff" stroke="#63b8ff" points="1747.26,-379.73 1757.85,-379.37 1749.35,-373.05 1747.26,-379.73"/>
</g>
<!-- Node28&#45;&gt;Node13 -->
<g id="edge49" class="edge">
<title>Node28&#45;&gt;Node13</title>
<path fill="none" stroke="#63b8ff" d="M1814.96,-374.9C1845.14,-359.67 1884.95,-333.37 1864.5,-308 1817.11,-249.23 1745.89,-330.77 1698.5,-272 1678.37,-247.04 1718.55,-215.6 1741.31,-200.65"/>
<polygon fill="#63b8ff" stroke="#63b8ff" points="1813.06,-371.93 1805.59,-379.44 1816.12,-378.23 1813.06,-371.93"/>
</g>
<!-- Node29 -->
<g id="node29" class="node">
<title>Node29</title>
<g id="a_node29"><a xlink:href="acme__challenge__frontend_8h.html" target="_top" xlink:title=" ">
<polygon fill="white" stroke="#666666" points="1855.5,-338 1715.5,-338 1715.5,-308 1855.5,-308 1855.5,-338"/>
<text text-anchor="start" x="1723.5" y="-326" font-family="Helvetica,sans-Serif" font-size="10.00">src/node/acme_challenge</text>
<text text-anchor="middle" x="1785.5" y="-315" font-family="Helvetica,sans-Serif" font-size="10.00">_frontend.h</text>
</a>
</g>
</g>
<!-- Node28&#45;&gt;Node29 -->
<g id="edge45" class="edge">
<title>Node28&#45;&gt;Node29</title>
<path fill="none" stroke="#63b8ff" d="M1785.5,-369.35C1785.5,-359.47 1785.5,-347.51 1785.5,-338.36"/>
<polygon fill="#63b8ff" stroke="#63b8ff" points="1782,-369.37 1785.5,-379.37 1789,-369.37 1782,-369.37"/>
</g>
<!-- Node31 -->
<g id="node31" class="node">
<title>Node31</title>
<g id="a_node31"><a xlink:href="user__frontend_8h.html" target="_top" xlink:title=" ">
<polygon fill="white" stroke="#666666" points="1609,-134.5 1454,-134.5 1454,-115.5 1609,-115.5 1609,-134.5"/>
<text text-anchor="middle" x="1531.5" y="-122.5" font-family="Helvetica,sans-Serif" font-size="10.00">src/node/rpc/user_frontend.h</text>
</a>
</g>
</g>
<!-- Node28&#45;&gt;Node31 -->
<g id="edge52" class="edge">
<title>Node28&#45;&gt;Node31</title>
<path fill="none" stroke="#63b8ff" d="M1762.25,-374.16C1746.29,-364.45 1724.77,-350.94 1706.5,-338 1688.94,-325.56 1688.07,-316.94 1668.5,-308 1590.71,-272.49 1534.02,-337.88 1479.5,-272 1443.65,-228.67 1500.99,-158.78 1523.26,-134.58"/>
<polygon fill="#63b8ff" stroke="#63b8ff" points="1760.56,-377.23 1770.93,-379.41 1764.18,-371.24 1760.56,-377.23"/>
</g>
<!-- Node29&#45;&gt;Node9 -->
<g id="edge46" class="edge">
<title>Node29&#45;&gt;Node9</title>
<path fill="none" stroke="#63b8ff" d="M1726.66,-303.65C1711.84,-296.19 1697.58,-285.93 1688.5,-272 1665.18,-236.23 1671.91,-216.81 1684.5,-176 1698.15,-131.75 1738.39,-91.42 1757.37,-74.24"/>
<polygon fill="#63b8ff" stroke="#63b8ff" points="1725.37,-306.91 1735.91,-307.95 1728.32,-300.56 1725.37,-306.91"/>
</g>
<!-- Node30 -->
<g id="node30" class="node">
<title>Node30</title>
<g id="a_node30"><a xlink:href="ccf__acme__client_8h.html" target="_top" xlink:title=" ">
<polygon fill="white" stroke="#666666" points="1856,-266.5 1707,-266.5 1707,-247.5 1856,-247.5 1856,-266.5"/>
<text text-anchor="middle" x="1781.5" y="-254.5" font-family="Helvetica,sans-Serif" font-size="10.00">src/node/ccf_acme_client.h</text>
</a>
</g>
</g>
<!-- Node29&#45;&gt;Node30 -->
<g id="edge47" class="edge">
<title>Node29&#45;&gt;Node30</title>
<path fill="none" stroke="#63b8ff" d="M1783.98,-297.6C1783.3,-286.8 1782.55,-274.78 1782.05,-266.84"/>
<polygon fill="#63b8ff" stroke="#63b8ff" points="1780.5,-298.03 1784.61,-307.8 1787.48,-297.6 1780.5,-298.03"/>
</g>
<!-- Node30&#45;&gt;Node13 -->
<g id="edge48" class="edge">
<title>Node30&#45;&gt;Node13</title>
<path fill="none" stroke="#63b8ff" d="M1774.11,-237.82C1769.21,-225.74 1762.98,-210.41 1759.12,-200.91"/>
<polygon fill="#63b8ff" stroke="#63b8ff" points="1770.99,-239.42 1777.99,-247.37 1777.47,-236.79 1770.99,-239.42"/>
</g>
<!-- Node31&#45;&gt;Node9 -->
<g id="edge53" class="edge">
<title>Node31&#45;&gt;Node9</title>
<path fill="none" stroke="#63b8ff" d="M1575.72,-113.04C1621.34,-101.73 1691.53,-84.33 1733.14,-74.02"/>
<polygon fill="#63b8ff" stroke="#63b8ff" points="1574.68,-109.69 1565.82,-115.49 1576.36,-116.48 1574.68,-109.69"/>
</g>
<!-- Node32&#45;&gt;Node9 -->
<g id="edge55" class="edge">
<title>Node32&#45;&gt;Node9</title>
<path fill="none" stroke="#63b8ff" d="M2334.2,-171.38C2329.79,-152.53 2320.01,-124.2 2299.5,-110 2261.54,-83.73 1960.39,-71.39 1828.74,-67.22"/>
<polygon fill="#63b8ff" stroke="#63b8ff" points="2330.82,-172.35 2336.26,-181.44 2337.68,-170.95 2330.82,-172.35"/>
</g>
<!-- Node33&#45;&gt;Node9 -->
<g id="edge57" class="edge">
<title>Node33&#45;&gt;Node9</title>
<path fill="none" stroke="#63b8ff" d="M2032.57,-369.01C2046.68,-361.03 2061.59,-350.63 2072.5,-338 2093.32,-313.88 2094.15,-303.22 2100.5,-272 2109.75,-226.54 2091.29,-209.8 2059.5,-176 2024.78,-139.08 2012.81,-130.6 1966.5,-110 1922.51,-90.43 1869.1,-79.09 1828.69,-72.77"/>
<polygon fill="#63b8ff" stroke="#63b8ff" points="2030.61,-366.08 2023.45,-373.9 2033.92,-372.25 2030.61,-366.08"/>
</g>
<!-- Node34 -->
<g id="node34" class="node">
<title>Node34</title>
<g id="a_node34"><a xlink:href="rpc__sessions_8h.html" target="_top" xlink:title=" ">
<polygon fill="white" stroke="#666666" points="2063.5,-332.5 1917.5,-332.5 1917.5,-313.5 2063.5,-313.5 2063.5,-332.5"/>
<text text-anchor="middle" x="1990.5" y="-320.5" font-family="Helvetica,sans-Serif" font-size="10.00">src/enclave/rpc_sessions.h</text>
</a>
</g>
</g>
<!-- Node33&#45;&gt;Node34 -->
<g id="edge58" class="edge">
<title>Node33&#45;&gt;Node34</title>
<path fill="none" stroke="#63b8ff" d="M1990.5,-363.6C1990.5,-352.8 1990.5,-340.78 1990.5,-332.84"/>
<polygon fill="#63b8ff" stroke="#63b8ff" points="1987,-363.8 1990.5,-373.8 1994,-363.8 1987,-363.8"/>
</g>
<!-- Node34&#45;&gt;Node9 -->
<g id="edge59" class="edge">
<title>Node34&#45;&gt;Node9</title>
<path fill="none" stroke="#63b8ff" d="M2034.43,-309.88C2053.3,-302.26 2073.51,-290.3 2084.5,-272 2091.37,-260.57 2090.62,-253.85 2084.5,-242 2030.22,-136.93 1885.05,-91.04 1811.51,-74.04"/>
<polygon fill="#63b8ff" stroke="#63b8ff" points="2033.19,-306.61 2025.04,-313.39 2035.63,-313.17 2033.19,-306.61"/>
</g>
<!-- Node34&#45;&gt;Node13 -->
<g id="edge61" class="edge">
<title>Node34&#45;&gt;Node13</title>
<path fill="none" stroke="#63b8ff" d="M1964.23,-308.54C1946.37,-299.04 1922.46,-285.63 1902.5,-272 1885.02,-260.06 1883.5,-253.14 1865.5,-242 1837.13,-224.45 1801.57,-209.42 1778.69,-200.54"/>
<polygon fill="#63b8ff" stroke="#63b8ff" points="1962.98,-311.84 1973.46,-313.39 1966.24,-305.64 1962.98,-311.84"/>
</g>
<!-- Node34&#45;&gt;Node30 -->
<g id="edge60" class="edge">
<title>Node34&#45;&gt;Node30</title>
<path fill="none" stroke="#63b8ff" d="M1952.63,-310.4C1911.41,-297.78 1846.47,-277.89 1809.57,-266.6"/>
<polygon fill="#63b8ff" stroke="#63b8ff" points="1951.73,-313.79 1962.31,-313.37 1953.78,-307.09 1951.73,-313.79"/>
</g>
<!-- Node35 -->
<g id="node35" class="node">
<title>Node35</title>
<g id="a_node35"><a xlink:href="quote__endorsements__client_8h.html" target="_top" xlink:title=" ">
<polygon fill="white" stroke="#666666" points="2075.5,-272 1911.5,-272 1911.5,-242 2075.5,-242 2075.5,-272"/>
<text text-anchor="start" x="1919.5" y="-260" font-family="Helvetica,sans-Serif" font-size="10.00">src/node/quote_endorsements</text>
<text text-anchor="middle" x="1993.5" y="-249" font-family="Helvetica,sans-Serif" font-size="10.00">_client.h</text>
</a>
</g>
</g>
<!-- Node34&#45;&gt;Node35 -->
<g id="edge62" class="edge">
<title>Node34&#45;&gt;Node35</title>
<path fill="none" stroke="#63b8ff" d="M1991.37,-303.35C1991.84,-293.47 1992.4,-281.51 1992.83,-272.36"/>
<polygon fill="#63b8ff" stroke="#63b8ff" points="1987.88,-303.22 1990.9,-313.37 1994.87,-303.54 1987.88,-303.22"/>
</g>
<!-- Node35&#45;&gt;Node13 -->
<g id="edge63" class="edge">
<title>Node35&#45;&gt;Node13</title>
<path fill="none" stroke="#63b8ff" d="M1931.34,-239.29C1885.08,-226.84 1823.83,-210.37 1787.17,-200.52"/>
<polygon fill="#63b8ff" stroke="#63b8ff" points="1930.7,-242.74 1941.27,-241.95 1932.52,-235.98 1930.7,-242.74"/>
</g>
<!-- Node36&#45;&gt;Node4 -->
<g id="edge66" class="edge">
<title>Node36&#45;&gt;Node4</title>
<path fill="none" stroke="#63b8ff" d="M392.35,-436.46C364.91,-426.25 330.79,-413.55 305.16,-404.01"/>
<polygon fill="#63b8ff" stroke="#63b8ff" points="391.16,-439.75 401.75,-439.95 393.6,-433.19 391.16,-439.75"/>
</g>
<!-- Node36&#45;&gt;Node9 -->
<g id="edge67" class="edge">
<title>Node36&#45;&gt;Node9</title>
<path fill="none" stroke="#63b8ff" d="M412.91,-433.28C403.96,-425.05 394.68,-414.94 388.5,-404 370.52,-372.18 369.5,-360.54 369.5,-324 369.5,-324 369.5,-324 369.5,-190 369.5,-50.29 535.34,-130.74 673.5,-110 875.11,-79.74 1506.92,-68.95 1706.47,-66.24"/>
<polygon fill="#63b8ff" stroke="#63b8ff" points="410.77,-436.06 420.61,-439.99 415.38,-430.78 410.77,-436.06"/>
</g>
<!-- Node37 -->
<g id="node37" class="node">
<title>Node37</title>
<g id="a_node37"><a xlink:href="historical__queries__adapter_8cpp.html" target="_top" xlink:title=" ">
<polygon fill="white" stroke="#666666" points="517.5,-404 397.5,-404 397.5,-374 517.5,-374 517.5,-404"/>
<text text-anchor="start" x="405.5" y="-392" font-family="Helvetica,sans-Serif" font-size="10.00">src/node/historical</text>
<text text-anchor="middle" x="457.5" y="-381" font-family="Helvetica,sans-Serif" font-size="10.00">_queries_adapter.cpp</text>
</a>
</g>
</g>
<!-- Node36&#45;&gt;Node37 -->
<g id="edge68" class="edge">
<title>Node36&#45;&gt;Node37</title>
<path fill="none" stroke="#63b8ff" d="M446.22,-430.11C448.68,-421.38 451.37,-411.78 453.52,-404.16"/>
<polygon fill="#63b8ff" stroke="#63b8ff" points="442.83,-429.22 443.49,-439.8 449.57,-431.12 442.83,-429.22"/>
</g>
<!-- Node38&#45;&gt;Node9 -->
<g id="edge71" class="edge">
<title>Node38&#45;&gt;Node9</title>
<path fill="none" stroke="#63b8ff" d="M2068.78,-447.59C2207.2,-435.41 2452.5,-402.72 2452.5,-324 2452.5,-324 2452.5,-324 2452.5,-190 2452.5,-168.71 2553.13,-183.77 2324.5,-110 2233.68,-80.7 1953.45,-70.15 1828.6,-66.84"/>
<polygon fill="#63b8ff" stroke="#63b8ff" points="2068.26,-444.12 2058.6,-448.47 2068.86,-451.1 2068.26,-444.12"/>
</g>
</g>
</svg>
        <g id="navigator" transform="translate(0 0)" fill="#404254">
                <rect fill="#f2f5e9" fill-opacity="0.5" stroke="#606060" stroke-width=".5" x="0" y="0" width="60" height="60"/>
                <use id="zoomplus" xlink:href="#zoomPlus" x="17" y="9" onmousedown="handleZoom(evt,'in')"/>
                <use id="zoomminus" xlink:href="#zoomMin" x="42" y="9" onmousedown="handleZoom(evt,'out')"/>
                <use id="reset" xlink:href="#resetDef" x="30" y="36" onmousedown="handleReset()"/>
                <g id="arrowUp" xlink:href="#dirArrow" transform="translate(30 24)" onmousedown="handlePan(0,-1)">
                  <use xlink:href="#rim" fill="#404040">
                        <set attributeName="fill" to="#808080" begin="arrowUp.mouseover" end="arrowUp.mouseout"/>
                  </use>
                  <path fill="none" stroke="white" stroke-width="1.5" d="M0,-3.0v7 M-2.5,-0.5L0,-3.0L2.5,-0.5"/>
                </g>
                <g id="arrowRight" xlink:href="#dirArrow" transform="rotate(90) translate(36 -43)" onmousedown="handlePan(1,0)">
                  <use xlink:href="#rim" fill="#404040">
                        <set attributeName="fill" to="#808080" begin="arrowRight.mouseover" end="arrowRight.mouseout"/>
                  </use>
                  <path fill="none" stroke="white" stroke-width="1.5" d="M0,-3.0v7 M-2.5,-0.5L0,-3.0L2.5,-0.5"/>
                </g>
                <g id="arrowDown" xlink:href="#dirArrow" transform="rotate(180) translate(-30 -48)" onmousedown="handlePan(0,1)">
                  <use xlink:href="#rim" fill="#404040">
                        <set attributeName="fill" to="#808080" begin="arrowDown.mouseover" end="arrowDown.mouseout"/>
                  </use>
                  <path fill="none" stroke="white" stroke-width="1.5" d="M0,-3.0v7 M-2.5,-0.5L0,-3.0L2.5,-0.5"/>
                </g>
                <g id="arrowLeft" xlink:href="#dirArrow" transform="rotate(270) translate(-36 17)" onmousedown="handlePan(-1,0)">
                  <use xlink:href="#rim" fill="#404040">
                        <set attributeName="fill" to="#808080" begin="arrowLeft.mouseover" end="arrowLeft.mouseout"/>
                  </use>
                  <path fill="none" stroke="white" stroke-width="1.5" d="M0,-3.0v7 M-2.5,-0.5L0,-3.0L2.5,-0.5"/>
                </g>
        </g>
        <svg viewBox="0 0 15 15" width="100%" height="30px" preserveAspectRatio="xMaxYMin meet">
         <g id="arrow_out" transform="scale(0.3 0.3)">
          <a xlink:href="quote_8h__dep__incl_org.svg" target="_base">
           <rect id="button" ry="5" rx="5" y="6" x="6" height="38" width="38"
                fill="#f2f5e9" fill-opacity="0.5" stroke="#606060" stroke-width="1.0"/>
           <path id="arrow"
             d="M 11.500037,31.436501 C 11.940474,20.09759 22.043105,11.32322 32.158766,21.979434 L 37.068811,17.246167 C 37.068811,17.246167 37.088388,32 37.088388,32 L 22.160133,31.978069 C 22.160133,31.978069 26.997745,27.140456 26.997745,27.140456 C 18.528582,18.264221 13.291696,25.230495 11.500037,31.436501 z"
             style="fill:#404040;"/>
          </a>
         </g>
        </svg>
</svg>
