<?xml version="1.0" encoding="UTF-8" standalone="no"?>
<!DOCTYPE svg PUBLIC "-//W3C//DTD SVG 1.1//EN"
 "http://www.w3.org/Graphics/SVG/1.1/DTD/svg11.dtd">
<!-- Generated by graphviz version 2.43.0 (0)
 -->
<!-- Title: src/ds/ring_buffer.h Pages: 1 -->
<!--zoomable 247 -->
<svg id="main" version="1.1" xmlns="http://www.w3.org/2000/svg" xmlns:xlink="http://www.w3.org/1999/xlink" xml:space="preserve" onload="init(evt)">
<style type="text/css"><![CDATA[
.edge:hover path { stroke: red; }
.edge:hover polygon { stroke: red; fill: red; }
]]></style>
<script type="text/javascript"><![CDATA[
var edges = document.getElementsByTagName('g');
if (edges && edges.length) {
  for (var i=0;i<edges.length;i++) {
    if (edges[i].id.substr(0,4)=='edge') {
      edges[i].setAttribute('class','edge');
    }
  }
}
]]></script>
        <defs>
                <circle id="rim" cx="0" cy="0" r="7"/>
                <circle id="rim2" cx="0" cy="0" r="3.5"/>
                <g id="zoomPlus">
                        <use xlink:href="#rim" fill="#404040">
                                <set attributeName="fill" to="#808080" begin="zoomplus.mouseover" end="zoomplus.mouseout"/>
                        </use>
                        <path d="M-4,0h8M0,-4v8" fill="none" stroke="white" stroke-width="1.5" pointer-events="none"/>
                </g>
                <g id="zoomMin">
                        <use xlink:href="#rim" fill="#404040">
                                <set attributeName="fill" to="#808080" begin="zoomminus.mouseover" end="zoomminus.mouseout"/>
                        </use>
                        <path d="M-4,0h8" fill="none" stroke="white" stroke-width="1.5" pointer-events="none"/>
                </g>
                <g id="dirArrow">
                        <path fill="none" stroke="white" stroke-width="1.5" d="M0,-3.0v7 M-2.5,-0.5L0,-3.0L2.5,-0.5"/>
                </g>
               <g id="resetDef">
                       <use xlink:href="#rim2" fill="#404040">
                               <set attributeName="fill" to="#808080" begin="reset.mouseover" end="reset.mouseout"/>
                       </use>
               </g>
        </defs>

<script type="text/javascript">
var viewWidth = 1313;
var viewHeight = 247;
var sectionId = 'dynsection-0';
</script>
<script xlink:href="svgpan.js"/>
<svg id="graph" class="graph">
<g id="viewport">
<title>src/ds/ring_buffer.h</title>
<!-- Node1 -->
<g id="node1" class="node">
<title>Node1</title>
<g id="a_node1"><a xlink:title=" ">
<polygon fill="#999999" stroke="#666666" points="950,-239 841,-239 841,-220 950,-220 950,-239"/>
<text text-anchor="middle" x="895.5" y="-227" font-family="Helvetica,sans-Serif" font-size="10.00">src/ds/ring_buffer.h</text>
</a>
</g>
</g>
<!-- Node2 -->
<g id="node2" class="node">
<title>Node2</title>
<g id="a_node2"><a xlink:href="mem_8h.html" target="_top" xlink:title=" ">
<polygon fill="white" stroke="#666666" points="145.5,-184 59.5,-184 59.5,-165 145.5,-165 145.5,-184"/>
<text text-anchor="middle" x="102.5" y="-172" font-family="Helvetica,sans-Serif" font-size="10.00">ccf/pal/mem.h</text>
</a>
</g>
</g>
<!-- Node1&#45;&gt;Node2 -->
<g id="edge1" class="edge">
<title>Node1&#45;&gt;Node2</title>
<path fill="none" stroke="#63b8ff" d="M840.6,-226.44C719.1,-221.59 418.33,-208.04 167.5,-184 163.77,-183.64 159.92,-183.24 156.05,-182.8"/>
<polygon fill="#63b8ff" stroke="#63b8ff" points="156.15,-179.29 145.81,-181.59 155.33,-186.24 156.15,-179.29"/>
</g>
<!-- Node4 -->
<g id="node4" class="node">
<title>Node4</title>
<g id="a_node4"><a xlink:title=" ">
<polygon fill="#e0e0e0" stroke="#999999" points="206.5,-19 156.5,-19 156.5,0 206.5,0 206.5,-19"/>
<text text-anchor="middle" x="181.5" y="-7" font-family="Helvetica,sans-Serif" font-size="10.00">cstring</text>
</a>
</g>
</g>
<!-- Node1&#45;&gt;Node4 -->
<g id="edge44" class="edge">
<title>Node1&#45;&gt;Node4</title>
<path fill="none" stroke="#63b8ff" d="M842.91,-219.99C749.86,-204.54 550.4,-169.71 384.5,-129 301.19,-108.56 259.77,-135.04 199.5,-74 187.81,-62.16 183.59,-43.33 182.13,-29.24"/>
<polygon fill="#63b8ff" stroke="#63b8ff" points="185.62,-28.93 181.46,-19.18 178.63,-29.39 185.62,-28.93"/>
</g>
<!-- Node6 -->
<g id="node6" class="node">
<title>Node6</title>
<g id="a_node6"><a xlink:href="ring__buffer__types_8h.html" target="_top" xlink:title=" ">
<polygon fill="white" stroke="#666666" points="950.5,-184 840.5,-184 840.5,-165 950.5,-165 950.5,-184"/>
<text text-anchor="middle" x="895.5" y="-172" font-family="Helvetica,sans-Serif" font-size="10.00">ring_buffer_types.h</text>
</a>
</g>
</g>
<!-- Node1&#45;&gt;Node6 -->
<g id="edge5" class="edge">
<title>Node1&#45;&gt;Node6</title>
<path fill="none" stroke="#63b8ff" d="M895.5,-219.75C895.5,-212.8 895.5,-202.85 895.5,-194.13"/>
<polygon fill="#63b8ff" stroke="#63b8ff" points="899,-194.09 895.5,-184.09 892,-194.09 899,-194.09"/>
</g>
<!-- Node26 -->
<g id="node26" class="node">
<title>Node26</title>
<g id="a_node26"><a xlink:title=" ">
<polygon fill="#e0e0e0" stroke="#999999" points="1304.5,-129 1254.5,-129 1254.5,-110 1304.5,-110 1304.5,-129"/>
<text text-anchor="middle" x="1279.5" y="-117" font-family="Helvetica,sans-Serif" font-size="10.00">atomic</text>
</a>
</g>
</g>
<!-- Node1&#45;&gt;Node26 -->
<g id="edge43" class="edge">
<title>Node1&#45;&gt;Node26</title>
<path fill="none" stroke="#63b8ff" d="M908.04,-219.87C931.09,-204.16 979.55,-171.89 998.5,-165 1099.71,-128.22 1134.62,-149.16 1244.18,-129.03"/>
<polygon fill="#63b8ff" stroke="#63b8ff" points="1245.15,-132.41 1254.31,-127.1 1243.83,-125.54 1245.15,-132.41"/>
</g>
<!-- Node29 -->
<g id="node29" class="node">
<title>Node29</title>
<g id="a_node29"><a xlink:title=" ">
<polygon fill="#e0e0e0" stroke="#999999" points="1072,-184 1007,-184 1007,-165 1072,-165 1072,-184"/>
<text text-anchor="middle" x="1039.5" y="-172" font-family="Helvetica,sans-Serif" font-size="10.00">functional</text>
</a>
</g>
</g>
<!-- Node1&#45;&gt;Node29 -->
<g id="edge45" class="edge">
<title>Node1&#45;&gt;Node29</title>
<path fill="none" stroke="#63b8ff" d="M918.64,-219.98C942.32,-211.27 979.37,-197.63 1006.21,-187.75"/>
<polygon fill="#63b8ff" stroke="#63b8ff" points="1007.77,-190.91 1015.94,-184.17 1005.35,-184.34 1007.77,-190.91"/>
</g>
<!-- Node3 -->
<g id="node3" class="node">
<title>Node3</title>
<g id="a_node3"><a xlink:title=" ">
<polygon fill="#e0e0e0" stroke="#999999" points="53,-129 0,-129 0,-110 53,-110 53,-129"/>
<text text-anchor="middle" x="26.5" y="-117" font-family="Helvetica,sans-Serif" font-size="10.00">stdlib.h</text>
</a>
</g>
</g>
<!-- Node2&#45;&gt;Node3 -->
<g id="edge2" class="edge">
<title>Node2&#45;&gt;Node3</title>
<path fill="none" stroke="#63b8ff" d="M90.29,-164.98C78.72,-156.92 61.12,-144.65 47.34,-135.03"/>
<polygon fill="#63b8ff" stroke="#63b8ff" points="49.14,-132.02 38.93,-129.17 45.13,-137.76 49.14,-132.02"/>
</g>
<!-- Node2&#45;&gt;Node4 -->
<g id="edge3" class="edge">
<title>Node2&#45;&gt;Node4</title>
<path fill="none" stroke="#63b8ff" d="M106.74,-164.98C111.2,-156.04 118.38,-141.55 124.5,-129 141.86,-93.41 161.86,-51.65 172.95,-28.42"/>
<polygon fill="#63b8ff" stroke="#63b8ff" points="176.24,-29.67 177.38,-19.14 169.92,-26.66 176.24,-29.67"/>
</g>
<!-- Node5 -->
<g id="node5" class="node">
<title>Node5</title>
<g id="a_node5"><a xlink:title=" ">
<polygon fill="#e0e0e0" stroke="#999999" points="115.5,-129 71.5,-129 71.5,-110 115.5,-110 115.5,-129"/>
<text text-anchor="middle" x="93.5" y="-117" font-family="Helvetica,sans-Serif" font-size="10.00">limits</text>
</a>
</g>
</g>
<!-- Node2&#45;&gt;Node5 -->
<g id="edge4" class="edge">
<title>Node2&#45;&gt;Node5</title>
<path fill="none" stroke="#63b8ff" d="M101.01,-164.75C99.83,-157.8 98.14,-147.85 96.66,-139.13"/>
<polygon fill="#63b8ff" stroke="#63b8ff" points="100.08,-138.36 94.96,-129.09 93.18,-139.53 100.08,-138.36"/>
</g>
<!-- Node7 -->
<g id="node7" class="node">
<title>Node7</title>
<g id="a_node7"><a xlink:href="include_2ccf_2ds_2hash_8h.html" target="_top" xlink:title=" ">
<polygon fill="white" stroke="#666666" points="547.5,-129 467.5,-129 467.5,-110 547.5,-110 547.5,-129"/>
<text text-anchor="middle" x="507.5" y="-117" font-family="Helvetica,sans-Serif" font-size="10.00">ccf/ds/hash.h</text>
</a>
</g>
</g>
<!-- Node6&#45;&gt;Node7 -->
<g id="edge6" class="edge">
<title>Node6&#45;&gt;Node7</title>
<path fill="none" stroke="#63b8ff" d="M840.48,-166.57C774.23,-158.14 659.62,-143.26 561.5,-129 560.23,-128.82 558.95,-128.63 557.65,-128.44"/>
<polygon fill="#63b8ff" stroke="#63b8ff" points="558,-124.95 547.59,-126.92 556.95,-131.87 558,-124.95"/>
</g>
<!-- Node11 -->
<g id="node11" class="node">
<title>Node11</title>
<g id="a_node11"><a xlink:title=" ">
<polygon fill="#e0e0e0" stroke="#999999" points="574,-19 527,-19 527,0 574,0 574,-19"/>
<text text-anchor="middle" x="550.5" y="-7" font-family="Helvetica,sans-Serif" font-size="10.00">vector</text>
</a>
</g>
</g>
<!-- Node6&#45;&gt;Node11 -->
<g id="edge42" class="edge">
<title>Node6&#45;&gt;Node11</title>
<path fill="none" stroke="#63b8ff" d="M840.36,-165.86C776.27,-154.71 669.81,-129.01 595.5,-74 579.42,-62.1 566.89,-42.72 559.18,-28.5"/>
<polygon fill="#63b8ff" stroke="#63b8ff" points="562.11,-26.54 554.43,-19.23 555.88,-29.73 562.11,-26.54"/>
</g>
<!-- Node15 -->
<g id="node15" class="node">
<title>Node15</title>
<g id="a_node15"><a xlink:href="nonstd_8h.html" target="_top" xlink:title=" ">
<polygon fill="white" stroke="#666666" points="899.5,-74 809.5,-74 809.5,-55 899.5,-55 899.5,-74"/>
<text text-anchor="middle" x="854.5" y="-62" font-family="Helvetica,sans-Serif" font-size="10.00">ccf/ds/nonstd.h</text>
</a>
</g>
</g>
<!-- Node6&#45;&gt;Node15 -->
<g id="edge16" class="edge">
<title>Node6&#45;&gt;Node15</title>
<path fill="none" stroke="#63b8ff" d="M892.14,-164.66C885.44,-147.01 870.29,-107.09 861.38,-83.64"/>
<polygon fill="#63b8ff" stroke="#63b8ff" points="864.61,-82.27 857.79,-74.16 858.06,-84.75 864.61,-82.27"/>
</g>
<!-- Node18 -->
<g id="node18" class="node">
<title>Node18</title>
<g id="a_node18"><a xlink:title=" ">
<polygon fill="#e0e0e0" stroke="#999999" points="870.5,-19 826.5,-19 826.5,0 870.5,0 870.5,-19"/>
<text text-anchor="middle" x="848.5" y="-7" font-family="Helvetica,sans-Serif" font-size="10.00">string</text>
</a>
</g>
</g>
<!-- Node6&#45;&gt;Node18 -->
<g id="edge41" class="edge">
<title>Node6&#45;&gt;Node18</title>
<path fill="none" stroke="#63b8ff" d="M926.98,-164.94C999.91,-144.35 1171.96,-91.12 1140.5,-55 1103.98,-13.08 952.83,-28.82 880.82,-18.51"/>
<polygon fill="#63b8ff" stroke="#63b8ff" points="881.25,-15.04 870.8,-16.79 880.06,-21.93 881.25,-15.04"/>
</g>
<!-- Node20 -->
<g id="node20" class="node">
<title>Node20</title>
<g id="a_node20"><a xlink:href="serializer_8h.html" target="_top" xlink:title=" ">
<polygon fill="white" stroke="#666666" points="967.5,-129 897.5,-129 897.5,-110 967.5,-110 967.5,-129"/>
<text text-anchor="middle" x="932.5" y="-117" font-family="Helvetica,sans-Serif" font-size="10.00">serializer.h</text>
</a>
</g>
</g>
<!-- Node6&#45;&gt;Node20 -->
<g id="edge24" class="edge">
<title>Node6&#45;&gt;Node20</title>
<path fill="none" stroke="#63b8ff" d="M901.61,-164.75C906.78,-157.34 914.35,-146.5 920.69,-137.41"/>
<polygon fill="#63b8ff" stroke="#63b8ff" points="923.65,-139.29 926.5,-129.09 917.91,-135.29 923.65,-139.29"/>
</g>
<!-- Node24 -->
<g id="node24" class="node">
<title>Node24</title>
<g id="a_node24"><a xlink:title=" ">
<polygon fill="#e0e0e0" stroke="#999999" points="1131.5,-74 1091.5,-74 1091.5,-55 1131.5,-55 1131.5,-74"/>
<text text-anchor="middle" x="1111.5" y="-62" font-family="Helvetica,sans-Serif" font-size="10.00">span</text>
</a>
</g>
</g>
<!-- Node6&#45;&gt;Node24 -->
<g id="edge40" class="edge">
<title>Node6&#45;&gt;Node24</title>
<path fill="none" stroke="#63b8ff" d="M912.81,-164.84C950.58,-145.96 1040.59,-100.96 1085.33,-78.59"/>
<polygon fill="#63b8ff" stroke="#63b8ff" points="1087.03,-81.65 1094.41,-74.05 1083.9,-75.39 1087.03,-81.65"/>
</g>
<!-- Node6&#45;&gt;Node26 -->
<g id="edge37" class="edge">
<title>Node6&#45;&gt;Node26</title>
<path fill="none" stroke="#63b8ff" d="M950.82,-166.64C1037.29,-155.9 1198.64,-135.75 1244.35,-128.8"/>
<polygon fill="#63b8ff" stroke="#63b8ff" points="1245.03,-132.23 1254.32,-127.15 1243.88,-125.33 1245.03,-132.23"/>
</g>
<!-- Node27 -->
<g id="node27" class="node">
<title>Node27</title>
<g id="a_node27"><a xlink:title=" ">
<polygon fill="#e0e0e0" stroke="#999999" points="1236,-129 1157,-129 1157,-110 1236,-110 1236,-129"/>
<text text-anchor="middle" x="1196.5" y="-117" font-family="Helvetica,sans-Serif" font-size="10.00">fmt/format.h</text>
</a>
</g>
</g>
<!-- Node6&#45;&gt;Node27 -->
<g id="edge38" class="edge">
<title>Node6&#45;&gt;Node27</title>
<path fill="none" stroke="#63b8ff" d="M943.86,-164.98C999.56,-155.18 1090.58,-139.15 1146.83,-129.25"/>
<polygon fill="#63b8ff" stroke="#63b8ff" points="1147.67,-132.65 1156.91,-127.47 1146.45,-125.76 1147.67,-132.65"/>
</g>
<!-- Node28 -->
<g id="node28" class="node">
<title>Node28</title>
<g id="a_node28"><a xlink:title=" ">
<polygon fill="#e0e0e0" stroke="#999999" points="449.5,-129 393.5,-129 393.5,-110 449.5,-110 449.5,-129"/>
<text text-anchor="middle" x="421.5" y="-117" font-family="Helvetica,sans-Serif" font-size="10.00">optional</text>
</a>
</g>
</g>
<!-- Node6&#45;&gt;Node28 -->
<g id="edge39" class="edge">
<title>Node6&#45;&gt;Node28</title>
<path fill="none" stroke="#63b8ff" d="M840.37,-170.09C759.15,-164.59 602.44,-152.12 459.94,-129.04"/>
<polygon fill="#63b8ff" stroke="#63b8ff" points="460.14,-125.53 449.71,-127.36 459.01,-132.43 460.14,-125.53"/>
</g>
<!-- Node8 -->
<g id="node8" class="node">
<title>Node8</title>
<g id="a_node8"><a xlink:href="siphash_8h.html" target="_top" xlink:title=" ">
<polygon fill="white" stroke="#666666" points="509,-74 414,-74 414,-55 509,-55 509,-74"/>
<text text-anchor="middle" x="461.5" y="-62" font-family="Helvetica,sans-Serif" font-size="10.00">ccf/ds/siphash.h</text>
</a>
</g>
</g>
<!-- Node7&#45;&gt;Node8 -->
<g id="edge7" class="edge">
<title>Node7&#45;&gt;Node8</title>
<path fill="none" stroke="#63b8ff" d="M499.9,-109.75C493.34,-102.18 483.68,-91.05 475.69,-81.84"/>
<polygon fill="#63b8ff" stroke="#63b8ff" points="478.15,-79.35 468.95,-74.09 472.87,-83.94 478.15,-79.35"/>
</g>
<!-- Node10 -->
<g id="node10" class="node">
<title>Node10</title>
<g id="a_node10"><a xlink:title=" ">
<polygon fill="#e0e0e0" stroke="#999999" points="423.5,-19 373.5,-19 373.5,0 423.5,0 423.5,-19"/>
<text text-anchor="middle" x="398.5" y="-7" font-family="Helvetica,sans-Serif" font-size="10.00">cstdint</text>
</a>
</g>
</g>
<!-- Node7&#45;&gt;Node10 -->
<g id="edge12" class="edge">
<title>Node7&#45;&gt;Node10</title>
<path fill="none" stroke="#63b8ff" d="M467.25,-111.45C445.11,-105.38 419.22,-94.25 404.5,-74 395.24,-61.26 394.42,-43.09 395.51,-29.44"/>
<polygon fill="#63b8ff" stroke="#63b8ff" points="399.02,-29.61 396.74,-19.26 392.07,-28.77 399.02,-29.61"/>
</g>
<!-- Node7&#45;&gt;Node11 -->
<g id="edge15" class="edge">
<title>Node7&#45;&gt;Node11</title>
<path fill="none" stroke="#63b8ff" d="M511.02,-109.66C518.05,-92.01 533.94,-52.09 543.28,-28.64"/>
<polygon fill="#63b8ff" stroke="#63b8ff" points="546.61,-29.74 547.05,-19.16 540.1,-27.15 546.61,-29.74"/>
</g>
<!-- Node12 -->
<g id="node12" class="node">
<title>Node12</title>
<g id="a_node12"><a xlink:title=" ">
<polygon fill="#e0e0e0" stroke="#999999" points="808.5,-19 766.5,-19 766.5,0 808.5,0 808.5,-19"/>
<text text-anchor="middle" x="787.5" y="-7" font-family="Helvetica,sans-Serif" font-size="10.00">array</text>
</a>
</g>
</g>
<!-- Node7&#45;&gt;Node12 -->
<g id="edge11" class="edge">
<title>Node7&#45;&gt;Node12</title>
<path fill="none" stroke="#63b8ff" d="M547.71,-114.79C589.16,-109.78 654.83,-98.48 706.5,-74 731.57,-62.12 756.02,-41.3 771.39,-26.75"/>
<polygon fill="#63b8ff" stroke="#63b8ff" points="774.21,-28.89 778.93,-19.4 769.33,-23.87 774.21,-28.89"/>
</g>
<!-- Node13 -->
<g id="node13" class="node">
<title>Node13</title>
<g id="a_node13"><a xlink:title=" ">
<polygon fill="#e0e0e0" stroke="#999999" points="358,-74 209,-74 209,-55 358,-55 358,-74"/>
<text text-anchor="middle" x="283.5" y="-62" font-family="Helvetica,sans-Serif" font-size="10.00">small_vector/SmallVector.h</text>
</a>
</g>
</g>
<!-- Node7&#45;&gt;Node13 -->
<g id="edge13" class="edge">
<title>Node7&#45;&gt;Node13</title>
<path fill="none" stroke="#63b8ff" d="M471.51,-109.98C433.01,-100.87 371.81,-86.4 329.76,-76.45"/>
<polygon fill="#63b8ff" stroke="#63b8ff" points="330.31,-72.98 319.77,-74.08 328.7,-79.79 330.31,-72.98"/>
</g>
<!-- Node14 -->
<g id="node14" class="node">
<title>Node14</title>
<g id="a_node14"><a xlink:title=" ">
<polygon fill="#e0e0e0" stroke="#999999" points="748,-19 675,-19 675,0 748,0 748,-19"/>
<text text-anchor="middle" x="711.5" y="-7" font-family="Helvetica,sans-Serif" font-size="10.00">string_view</text>
</a>
</g>
</g>
<!-- Node7&#45;&gt;Node14 -->
<g id="edge14" class="edge">
<title>Node7&#45;&gt;Node14</title>
<path fill="none" stroke="#63b8ff" d="M547.51,-118.69C587.3,-116.77 647.85,-107.88 686.5,-74 699.44,-62.66 705.74,-43.76 708.77,-29.52"/>
<polygon fill="#63b8ff" stroke="#63b8ff" points="712.28,-29.79 710.57,-19.33 705.39,-28.57 712.28,-29.79"/>
</g>
<!-- Node9 -->
<g id="node9" class="node">
<title>Node9</title>
<g id="a_node9"><a xlink:title=" ">
<polygon fill="#e0e0e0" stroke="#999999" points="495,-19 442,-19 442,0 495,0 495,-19"/>
<text text-anchor="middle" x="468.5" y="-7" font-family="Helvetica,sans-Serif" font-size="10.00">cstddef</text>
</a>
</g>
</g>
<!-- Node8&#45;&gt;Node9 -->
<g id="edge8" class="edge">
<title>Node8&#45;&gt;Node9</title>
<path fill="none" stroke="#63b8ff" d="M462.66,-54.75C463.57,-47.8 464.89,-37.85 466.04,-29.13"/>
<polygon fill="#63b8ff" stroke="#63b8ff" points="469.53,-29.46 467.37,-19.09 462.59,-28.54 469.53,-29.46"/>
</g>
<!-- Node8&#45;&gt;Node10 -->
<g id="edge9" class="edge">
<title>Node8&#45;&gt;Node10</title>
<path fill="none" stroke="#63b8ff" d="M451.38,-54.98C442.06,-47.15 428.03,-35.34 416.76,-25.86"/>
<polygon fill="#63b8ff" stroke="#63b8ff" points="418.71,-22.93 408.81,-19.17 414.21,-28.29 418.71,-22.93"/>
</g>
<!-- Node8&#45;&gt;Node11 -->
<g id="edge10" class="edge">
<title>Node8&#45;&gt;Node11</title>
<path fill="none" stroke="#63b8ff" d="M475.8,-54.98C489.6,-46.77 510.74,-34.18 527.01,-24.49"/>
<polygon fill="#63b8ff" stroke="#63b8ff" points="529.14,-27.29 535.94,-19.17 525.56,-21.28 529.14,-27.29"/>
</g>
<!-- Node15&#45;&gt;Node11 -->
<g id="edge23" class="edge">
<title>Node15&#45;&gt;Node11</title>
<path fill="none" stroke="#63b8ff" d="M809.2,-57.32C757.2,-49.96 669.19,-36.63 584.06,-18.95"/>
<polygon fill="#63b8ff" stroke="#63b8ff" points="584.74,-15.51 574.23,-16.88 583.3,-22.36 584.74,-15.51"/>
</g>
<!-- Node15&#45;&gt;Node12 -->
<g id="edge18" class="edge">
<title>Node15&#45;&gt;Node12</title>
<path fill="none" stroke="#63b8ff" d="M843.74,-54.98C833.73,-47.07 818.61,-35.11 806.57,-25.58"/>
<polygon fill="#63b8ff" stroke="#63b8ff" points="808.47,-22.63 798.46,-19.17 804.13,-28.12 808.47,-22.63"/>
</g>
<!-- Node15&#45;&gt;Node14 -->
<g id="edge21" class="edge">
<title>Node15&#45;&gt;Node14</title>
<path fill="none" stroke="#63b8ff" d="M831.52,-54.98C808,-46.27 771.21,-32.63 744.56,-22.75"/>
<polygon fill="#63b8ff" stroke="#63b8ff" points="745.49,-19.36 734.89,-19.17 743.05,-25.93 745.49,-19.36"/>
</g>
<!-- Node16 -->
<g id="node16" class="node">
<title>Node16</title>
<g id="a_node16"><a xlink:title=" ">
<polygon fill="#e0e0e0" stroke="#999999" points="1020.5,-19 956.5,-19 956.5,0 1020.5,0 1020.5,-19"/>
<text text-anchor="middle" x="988.5" y="-7" font-family="Helvetica,sans-Serif" font-size="10.00">algorithm</text>
</a>
</g>
</g>
<!-- Node15&#45;&gt;Node16 -->
<g id="edge17" class="edge">
<title>Node15&#45;&gt;Node16</title>
<path fill="none" stroke="#63b8ff" d="M876.03,-54.98C897.97,-46.3 932.24,-32.75 957.19,-22.88"/>
<polygon fill="#63b8ff" stroke="#63b8ff" points="958.57,-26.1 966.58,-19.17 955.99,-19.59 958.57,-26.1"/>
</g>
<!-- Node17 -->
<g id="node17" class="node">
<title>Node17</title>
<g id="a_node17"><a xlink:title=" ">
<polygon fill="#e0e0e0" stroke="#999999" points="938,-19 889,-19 889,0 938,0 938,-19"/>
<text text-anchor="middle" x="913.5" y="-7" font-family="Helvetica,sans-Serif" font-size="10.00">cctype</text>
</a>
</g>
</g>
<!-- Node15&#45;&gt;Node17 -->
<g id="edge19" class="edge">
<title>Node15&#45;&gt;Node17</title>
<path fill="none" stroke="#63b8ff" d="M863.98,-54.98C872.7,-47.15 885.84,-35.34 896.4,-25.86"/>
<polygon fill="#63b8ff" stroke="#63b8ff" points="898.75,-28.46 903.85,-19.17 894.07,-23.25 898.75,-28.46"/>
</g>
<!-- Node15&#45;&gt;Node18 -->
<g id="edge20" class="edge">
<title>Node15&#45;&gt;Node18</title>
<path fill="none" stroke="#63b8ff" d="M853.51,-54.75C852.72,-47.8 851.6,-37.85 850.61,-29.13"/>
<polygon fill="#63b8ff" stroke="#63b8ff" points="854.08,-28.63 849.47,-19.09 847.12,-29.42 854.08,-28.63"/>
</g>
<!-- Node19 -->
<g id="node19" class="node">
<title>Node19</title>
<g id="a_node19"><a xlink:title=" ">
<polygon fill="#e0e0e0" stroke="#999999" points="1108,-19 1039,-19 1039,0 1108,0 1108,-19"/>
<text text-anchor="middle" x="1073.5" y="-7" font-family="Helvetica,sans-Serif" font-size="10.00">type_traits</text>
</a>
</g>
</g>
<!-- Node15&#45;&gt;Node19 -->
<g id="edge22" class="edge">
<title>Node15&#45;&gt;Node19</title>
<path fill="none" stroke="#63b8ff" d="M889.69,-54.98C927.55,-45.82 987.87,-31.22 1029,-21.27"/>
<polygon fill="#63b8ff" stroke="#63b8ff" points="1029.87,-24.66 1038.76,-18.91 1028.22,-17.86 1029.87,-24.66"/>
</g>
<!-- Node20&#45;&gt;Node11 -->
<g id="edge36" class="edge">
<title>Node20&#45;&gt;Node11</title>
<path fill="none" stroke="#63b8ff" d="M902.21,-109.94C831.76,-90.02 657.34,-40.71 583.92,-19.95"/>
<polygon fill="#63b8ff" stroke="#63b8ff" points="584.83,-16.57 574.25,-17.22 582.92,-23.3 584.83,-16.57"/>
</g>
<!-- Node20&#45;&gt;Node15 -->
<g id="edge25" class="edge">
<title>Node20&#45;&gt;Node15</title>
<path fill="none" stroke="#63b8ff" d="M919.97,-109.98C908.1,-101.92 890.04,-89.65 875.89,-80.03"/>
<polygon fill="#63b8ff" stroke="#63b8ff" points="877.5,-76.9 867.26,-74.17 873.56,-82.69 877.5,-76.9"/>
</g>
<!-- Node20&#45;&gt;Node19 -->
<g id="edge35" class="edge">
<title>Node20&#45;&gt;Node19</title>
<path fill="none" stroke="#63b8ff" d="M967.57,-111.8C991.77,-105.6 1023.27,-94.19 1044.5,-74 1057.25,-61.87 1064.87,-43.08 1069.07,-29.08"/>
<polygon fill="#63b8ff" stroke="#63b8ff" points="1072.54,-29.66 1071.74,-19.1 1065.78,-27.85 1072.54,-29.66"/>
</g>
<!-- Node21 -->
<g id="node21" class="node">
<title>Node21</title>
<g id="a_node21"><a xlink:href="serialized_8h.html" target="_top" xlink:title=" ">
<polygon fill="white" stroke="#666666" points="677,-74 604,-74 604,-55 677,-55 677,-74"/>
<text text-anchor="middle" x="640.5" y="-62" font-family="Helvetica,sans-Serif" font-size="10.00">serialized.h</text>
</a>
</g>
</g>
<!-- Node20&#45;&gt;Node21 -->
<g id="edge26" class="edge">
<title>Node20&#45;&gt;Node21</title>
<path fill="none" stroke="#63b8ff" d="M897.28,-112.11C844.76,-102.58 745.86,-84.62 687.31,-74"/>
<polygon fill="#63b8ff" stroke="#63b8ff" points="687.69,-70.51 677.22,-72.17 686.44,-77.4 687.69,-70.51"/>
</g>
<!-- Node23 -->
<g id="node23" class="node">
<title>Node23</title>
<g id="a_node23"><a xlink:title=" ">
<polygon fill="#e0e0e0" stroke="#999999" points="1035.5,-74 977.5,-74 977.5,-55 1035.5,-55 1035.5,-74"/>
<text text-anchor="middle" x="1006.5" y="-62" font-family="Helvetica,sans-Serif" font-size="10.00">memory</text>
</a>
</g>
</g>
<!-- Node20&#45;&gt;Node23 -->
<g id="edge32" class="edge">
<title>Node20&#45;&gt;Node23</title>
<path fill="none" stroke="#63b8ff" d="M944.39,-109.98C955.65,-101.92 972.79,-89.65 986.21,-80.03"/>
<polygon fill="#63b8ff" stroke="#63b8ff" points="988.3,-82.84 994.39,-74.17 984.23,-77.15 988.3,-82.84"/>
</g>
<!-- Node20&#45;&gt;Node24 -->
<g id="edge33" class="edge">
<title>Node20&#45;&gt;Node24</title>
<path fill="none" stroke="#63b8ff" d="M961.26,-109.98C994.31,-100.2 1048.28,-84.22 1081.74,-74.31"/>
<polygon fill="#63b8ff" stroke="#63b8ff" points="1082.83,-77.64 1091.42,-71.45 1080.84,-70.93 1082.83,-77.64"/>
</g>
<!-- Node25 -->
<g id="node25" class="node">
<title>Node25</title>
<g id="a_node25"><a xlink:title=" ">
<polygon fill="#e0e0e0" stroke="#999999" points="959,-74 918,-74 918,-55 959,-55 959,-74"/>
<text text-anchor="middle" x="938.5" y="-62" font-family="Helvetica,sans-Serif" font-size="10.00">tuple</text>
</a>
</g>
</g>
<!-- Node20&#45;&gt;Node25 -->
<g id="edge34" class="edge">
<title>Node20&#45;&gt;Node25</title>
<path fill="none" stroke="#63b8ff" d="M933.49,-109.75C934.28,-102.8 935.4,-92.85 936.39,-84.13"/>
<polygon fill="#63b8ff" stroke="#63b8ff" points="939.88,-84.42 937.53,-74.09 932.92,-83.63 939.88,-84.42"/>
</g>
<!-- Node21&#45;&gt;Node4 -->
<g id="edge28" class="edge">
<title>Node21&#45;&gt;Node4</title>
<path fill="none" stroke="#63b8ff" d="M603.71,-59.25C517.22,-49.26 301.82,-24.39 216.81,-14.58"/>
<polygon fill="#63b8ff" stroke="#63b8ff" points="216.97,-11.07 206.64,-13.4 216.17,-18.03 216.97,-11.07"/>
</g>
<!-- Node21&#45;&gt;Node10 -->
<g id="edge27" class="edge">
<title>Node21&#45;&gt;Node10</title>
<path fill="none" stroke="#63b8ff" d="M603.79,-55.91C562.36,-47.28 492.98,-32.61 433.5,-19 433.4,-18.98 433.3,-18.95 433.2,-18.93"/>
<polygon fill="#63b8ff" stroke="#63b8ff" points="434.25,-15.58 423.72,-16.71 432.65,-22.4 434.25,-15.58"/>
</g>
<!-- Node21&#45;&gt;Node11 -->
<g id="edge31" class="edge">
<title>Node21&#45;&gt;Node11</title>
<path fill="none" stroke="#63b8ff" d="M626.04,-54.98C612.08,-46.77 590.71,-34.18 574.25,-24.49"/>
<polygon fill="#63b8ff" stroke="#63b8ff" points="575.62,-21.23 565.22,-19.17 572.06,-27.26 575.62,-21.23"/>
</g>
<!-- Node21&#45;&gt;Node18 -->
<g id="edge30" class="edge">
<title>Node21&#45;&gt;Node18</title>
<path fill="none" stroke="#63b8ff" d="M675.48,-54.94C709.2,-46.63 761.92,-33.52 816.35,-19.26"/>
<polygon fill="#63b8ff" stroke="#63b8ff" points="817.38,-22.61 826.16,-16.69 815.6,-15.84 817.38,-22.61"/>
</g>
<!-- Node22 -->
<g id="node22" class="node">
<title>Node22</title>
<g id="a_node22"><a xlink:title=" ">
<polygon fill="#e0e0e0" stroke="#999999" points="657,-19 592,-19 592,0 657,0 657,-19"/>
<text text-anchor="middle" x="624.5" y="-7" font-family="Helvetica,sans-Serif" font-size="10.00">stdexcept</text>
</a>
</g>
</g>
<!-- Node21&#45;&gt;Node22 -->
<g id="edge29" class="edge">
<title>Node21&#45;&gt;Node22</title>
<path fill="none" stroke="#63b8ff" d="M637.86,-54.75C635.74,-47.72 632.69,-37.62 630.04,-28.84"/>
<polygon fill="#63b8ff" stroke="#63b8ff" points="633.33,-27.65 627.09,-19.09 626.63,-29.67 633.33,-27.65"/>
</g>
</g>
</svg>
        <g id="navigator" transform="translate(0 0)" fill="#404254">
                <rect fill="#f2f5e9" fill-opacity="0.5" stroke="#606060" stroke-width=".5" x="0" y="0" width="60" height="60"/>
                <use id="zoomplus" xlink:href="#zoomPlus" x="17" y="9" onmousedown="handleZoom(evt,'in')"/>
                <use id="zoomminus" xlink:href="#zoomMin" x="42" y="9" onmousedown="handleZoom(evt,'out')"/>
                <use id="reset" xlink:href="#resetDef" x="30" y="36" onmousedown="handleReset()"/>
                <g id="arrowUp" xlink:href="#dirArrow" transform="translate(30 24)" onmousedown="handlePan(0,-1)">
                  <use xlink:href="#rim" fill="#404040">
                        <set attributeName="fill" to="#808080" begin="arrowUp.mouseover" end="arrowUp.mouseout"/>
                  </use>
                  <path fill="none" stroke="white" stroke-width="1.5" d="M0,-3.0v7 M-2.5,-0.5L0,-3.0L2.5,-0.5"/>
                </g>
                <g id="arrowRight" xlink:href="#dirArrow" transform="rotate(90) translate(36 -43)" onmousedown="handlePan(1,0)">
                  <use xlink:href="#rim" fill="#404040">
                        <set attributeName="fill" to="#808080" begin="arrowRight.mouseover" end="arrowRight.mouseout"/>
                  </use>
                  <path fill="none" stroke="white" stroke-width="1.5" d="M0,-3.0v7 M-2.5,-0.5L0,-3.0L2.5,-0.5"/>
                </g>
                <g id="arrowDown" xlink:href="#dirArrow" transform="rotate(180) translate(-30 -48)" onmousedown="handlePan(0,1)">
                  <use xlink:href="#rim" fill="#404040">
                        <set attributeName="fill" to="#808080" begin="arrowDown.mouseover" end="arrowDown.mouseout"/>
                  </use>
                  <path fill="none" stroke="white" stroke-width="1.5" d="M0,-3.0v7 M-2.5,-0.5L0,-3.0L2.5,-0.5"/>
                </g>
                <g id="arrowLeft" xlink:href="#dirArrow" transform="rotate(270) translate(-36 17)" onmousedown="handlePan(-1,0)">
                  <use xlink:href="#rim" fill="#404040">
                        <set attributeName="fill" to="#808080" begin="arrowLeft.mouseover" end="arrowLeft.mouseout"/>
                  </use>
                  <path fill="none" stroke="white" stroke-width="1.5" d="M0,-3.0v7 M-2.5,-0.5L0,-3.0L2.5,-0.5"/>
                </g>
        </g>
        <svg viewBox="0 0 15 15" width="100%" height="30px" preserveAspectRatio="xMaxYMin meet">
         <g id="arrow_out" transform="scale(0.3 0.3)">
          <a xlink:href="ring__buffer_8h__incl_org.svg" target="_base">
           <rect id="button" ry="5" rx="5" y="6" x="6" height="38" width="38"
                fill="#f2f5e9" fill-opacity="0.5" stroke="#606060" stroke-width="1.0"/>
           <path id="arrow"
             d="M 11.500037,31.436501 C 11.940474,20.09759 22.043105,11.32322 32.158766,21.979434 L 37.068811,17.246167 C 37.068811,17.246167 37.088388,32 37.088388,32 L 22.160133,31.978069 C 22.160133,31.978069 26.997745,27.140456 26.997745,27.140456 C 18.528582,18.264221 13.291696,25.230495 11.500037,31.436501 z"
             style="fill:#404040;"/>
          </a>
         </g>
        </svg>
</svg>
