<?xml version="1.0" encoding="UTF-8" standalone="no"?>
<!DOCTYPE svg PUBLIC "-//W3C//DTD SVG 1.1//EN"
 "http://www.w3.org/Graphics/SVG/1.1/DTD/svg11.dtd">
<!-- Generated by graphviz version 2.43.0 (0)
 -->
<!-- Title: src/host/rpc_connections.h Pages: 1 -->
<svg width="1989pt" height="302pt"
 viewBox="0.00 0.00 1988.50 302.00" xmlns="http://www.w3.org/2000/svg" xmlns:xlink="http://www.w3.org/1999/xlink">
<g id="graph0" class="graph" transform="scale(1 1) rotate(0) translate(4 298)">
<title>src/host/rpc_connections.h</title>
<!-- Node1 -->
<g id="node1" class="node">
<title>Node1</title>
<g id="a_node1"><a xlink:title=" ">
<polygon fill="#999999" stroke="#666666" points="1395.5,-294 1249.5,-294 1249.5,-275 1395.5,-275 1395.5,-294"/>
<text text-anchor="middle" x="1322.5" y="-282" font-family="Helvetica,sans-Serif" font-size="10.00">src/host/rpc_connections.h</text>
</a>
</g>
</g>
<!-- Node2 -->
<g id="node2" class="node">
<title>Node2</title>
<g id="a_node2"><a xlink:href="quic_2msg__types_8h.html" target="_top" xlink:title=" ">
<polygon fill="white" stroke="#666666" points="1032,-239 921,-239 921,-220 1032,-220 1032,-239"/>
<text text-anchor="middle" x="976.5" y="-227" font-family="Helvetica,sans-Serif" font-size="10.00">../quic/msg_types.h</text>
</a>
</g>
</g>
<!-- Node1&#45;&gt;Node2 -->
<g id="edge1" class="edge">
<title>Node1&#45;&gt;Node2</title>
<path fill="none" stroke="#63b8ff" d="M1266.91,-274.98C1205.71,-265.61 1107.4,-250.55 1042.38,-240.59"/>
<polygon fill="#63b8ff" stroke="#63b8ff" points="1042.65,-237.09 1032.24,-239.04 1041.59,-244.01 1042.65,-237.09"/>
</g>
<!-- Node28 -->
<g id="node28" class="node">
<title>Node28</title>
<g id="a_node28"><a xlink:href="tls_2msg__types_8h.html" target="_top" xlink:title=" ">
<polygon fill="white" stroke="#666666" points="903,-239 800,-239 800,-220 903,-220 903,-239"/>
<text text-anchor="middle" x="851.5" y="-227" font-family="Helvetica,sans-Serif" font-size="10.00">../tls/msg_types.h</text>
</a>
</g>
</g>
<!-- Node1&#45;&gt;Node28 -->
<g id="edge41" class="edge">
<title>Node1&#45;&gt;Node28</title>
<path fill="none" stroke="#63b8ff" d="M1249.47,-276.25C1169.58,-268.16 1037.47,-254.35 913.15,-239.04"/>
<polygon fill="#63b8ff" stroke="#63b8ff" points="913.42,-235.55 903.07,-237.8 912.57,-242.5 913.42,-235.55"/>
</g>
<!-- Node29 -->
<g id="node29" class="node">
<title>Node29</title>
<g id="a_node29"><a xlink:href="tcp_8h.html" target="_top" xlink:title=" ">
<polygon fill="white" stroke="#666666" points="1343,-239 1302,-239 1302,-220 1343,-220 1343,-239"/>
<text text-anchor="middle" x="1322.5" y="-227" font-family="Helvetica,sans-Serif" font-size="10.00">tcp.h</text>
</a>
</g>
</g>
<!-- Node1&#45;&gt;Node29 -->
<g id="edge43" class="edge">
<title>Node1&#45;&gt;Node29</title>
<path fill="none" stroke="#63b8ff" d="M1322.5,-274.75C1322.5,-267.8 1322.5,-257.85 1322.5,-249.13"/>
<polygon fill="#63b8ff" stroke="#63b8ff" points="1326,-249.09 1322.5,-239.09 1319,-249.09 1326,-249.09"/>
</g>
<!-- Node52 -->
<g id="node52" class="node">
<title>Node52</title>
<g id="a_node52"><a xlink:href="udp_8h.html" target="_top" xlink:title=" ">
<polygon fill="white" stroke="#666666" points="1406.5,-239 1362.5,-239 1362.5,-220 1406.5,-220 1406.5,-239"/>
<text text-anchor="middle" x="1384.5" y="-227" font-family="Helvetica,sans-Serif" font-size="10.00">udp.h</text>
</a>
</g>
</g>
<!-- Node1&#45;&gt;Node52 -->
<g id="edge81" class="edge">
<title>Node1&#45;&gt;Node52</title>
<path fill="none" stroke="#63b8ff" d="M1332.46,-274.98C1341.63,-267.15 1355.44,-255.34 1366.53,-245.86"/>
<polygon fill="#63b8ff" stroke="#63b8ff" points="1369.03,-248.33 1374.36,-239.17 1364.48,-243.01 1369.03,-248.33"/>
</g>
<!-- Node53 -->
<g id="node53" class="node">
<title>Node53</title>
<g id="a_node53"><a xlink:title=" ">
<polygon fill="#e0e0e0" stroke="#999999" points="1518,-239 1425,-239 1425,-220 1518,-220 1518,-239"/>
<text text-anchor="middle" x="1471.5" y="-227" font-family="Helvetica,sans-Serif" font-size="10.00">unordered_map</text>
</a>
</g>
</g>
<!-- Node1&#45;&gt;Node53 -->
<g id="edge90" class="edge">
<title>Node1&#45;&gt;Node53</title>
<path fill="none" stroke="#63b8ff" d="M1346.44,-274.98C1371.06,-266.23 1409.62,-252.51 1437.42,-242.62"/>
<polygon fill="#63b8ff" stroke="#63b8ff" points="1438.88,-245.82 1447.12,-239.17 1436.53,-239.22 1438.88,-245.82"/>
</g>
<!-- Node3 -->
<g id="node3" class="node">
<title>Node3</title>
<g id="a_node3"><a xlink:href="ring__buffer__types_8h.html" target="_top" xlink:title=" ">
<polygon fill="white" stroke="#666666" points="914,-184 789,-184 789,-165 914,-165 914,-184"/>
<text text-anchor="middle" x="851.5" y="-172" font-family="Helvetica,sans-Serif" font-size="10.00">ds/ring_buffer_types.h</text>
</a>
</g>
</g>
<!-- Node2&#45;&gt;Node3 -->
<g id="edge2" class="edge">
<title>Node2&#45;&gt;Node3</title>
<path fill="none" stroke="#63b8ff" d="M956.42,-219.98C936.13,-211.38 904.54,-197.99 881.33,-188.15"/>
<polygon fill="#63b8ff" stroke="#63b8ff" points="882.52,-184.85 871.95,-184.17 879.79,-191.3 882.52,-184.85"/>
</g>
<!-- Node27 -->
<g id="node27" class="node">
<title>Node27</title>
<g id="a_node27"><a xlink:title=" ">
<polygon fill="#e0e0e0" stroke="#999999" points="1187,-129 1110,-129 1110,-110 1187,-110 1187,-129"/>
<text text-anchor="middle" x="1148.5" y="-117" font-family="Helvetica,sans-Serif" font-size="10.00">sys/socket.h</text>
</a>
</g>
</g>
<!-- Node2&#45;&gt;Node27 -->
<g id="edge40" class="edge">
<title>Node2&#45;&gt;Node27</title>
<path fill="none" stroke="#63b8ff" d="M978.86,-219.76C983,-206.1 992.84,-179.74 1010.5,-165 1035.83,-143.86 1071.39,-132.7 1100.06,-126.85"/>
<polygon fill="#63b8ff" stroke="#63b8ff" points="1100.72,-130.28 1109.89,-124.99 1099.42,-123.41 1100.72,-130.28"/>
</g>
<!-- Node4 -->
<g id="node4" class="node">
<title>Node4</title>
<g id="a_node4"><a xlink:href="include_2ccf_2ds_2hash_8h.html" target="_top" xlink:title=" ">
<polygon fill="white" stroke="#666666" points="266.5,-129 186.5,-129 186.5,-110 266.5,-110 266.5,-129"/>
<text text-anchor="middle" x="226.5" y="-117" font-family="Helvetica,sans-Serif" font-size="10.00">ccf/ds/hash.h</text>
</a>
</g>
</g>
<!-- Node3&#45;&gt;Node4 -->
<g id="edge3" class="edge">
<title>Node3&#45;&gt;Node4</title>
<path fill="none" stroke="#63b8ff" d="M789,-168.2C665.03,-157.69 390.23,-134.38 276.89,-124.77"/>
<polygon fill="#63b8ff" stroke="#63b8ff" points="277.01,-121.27 266.75,-123.91 276.42,-128.25 277.01,-121.27"/>
</g>
<!-- Node8 -->
<g id="node8" class="node">
<title>Node8</title>
<g id="a_node8"><a xlink:title=" ">
<polygon fill="#e0e0e0" stroke="#999999" points="488,-19 441,-19 441,0 488,0 488,-19"/>
<text text-anchor="middle" x="464.5" y="-7" font-family="Helvetica,sans-Serif" font-size="10.00">vector</text>
</a>
</g>
</g>
<!-- Node3&#45;&gt;Node8 -->
<g id="edge39" class="edge">
<title>Node3&#45;&gt;Node8</title>
<path fill="none" stroke="#63b8ff" d="M788.69,-171.11C711.78,-165.06 581.44,-144.3 497.5,-74 483.53,-62.3 474.74,-43.17 469.78,-28.96"/>
<polygon fill="#63b8ff" stroke="#63b8ff" points="473.06,-27.74 466.7,-19.26 466.39,-29.85 473.06,-27.74"/>
</g>
<!-- Node12 -->
<g id="node12" class="node">
<title>Node12</title>
<g id="a_node12"><a xlink:href="nonstd_8h.html" target="_top" xlink:title=" ">
<polygon fill="white" stroke="#666666" points="624.5,-74 534.5,-74 534.5,-55 624.5,-55 624.5,-74"/>
<text text-anchor="middle" x="579.5" y="-62" font-family="Helvetica,sans-Serif" font-size="10.00">ccf/ds/nonstd.h</text>
</a>
</g>
</g>
<!-- Node3&#45;&gt;Node12 -->
<g id="edge13" class="edge">
<title>Node3&#45;&gt;Node12</title>
<path fill="none" stroke="#63b8ff" d="M823.39,-164.93C796.47,-156.51 754.82,-142.92 719.5,-129 679.3,-113.15 633.95,-91.95 606.04,-78.51"/>
<polygon fill="#63b8ff" stroke="#63b8ff" points="607.46,-75.3 596.94,-74.1 604.41,-81.6 607.46,-75.3"/>
</g>
<!-- Node15 -->
<g id="node15" class="node">
<title>Node15</title>
<g id="a_node15"><a xlink:title=" ">
<polygon fill="#e0e0e0" stroke="#999999" points="699.5,-19 655.5,-19 655.5,0 699.5,0 699.5,-19"/>
<text text-anchor="middle" x="677.5" y="-7" font-family="Helvetica,sans-Serif" font-size="10.00">string</text>
</a>
</g>
</g>
<!-- Node3&#45;&gt;Node15 -->
<g id="edge38" class="edge">
<title>Node3&#45;&gt;Node15</title>
<path fill="none" stroke="#63b8ff" d="M857.98,-164.97C873.15,-143.87 907.74,-88.54 880.5,-55 833.27,3.13 788.26,-33.99 710.03,-19.01"/>
<polygon fill="#63b8ff" stroke="#63b8ff" points="710.32,-15.49 699.81,-16.79 708.84,-22.33 710.32,-15.49"/>
</g>
<!-- Node17 -->
<g id="node17" class="node">
<title>Node17</title>
<g id="a_node17"><a xlink:href="serializer_8h.html" target="_top" xlink:title=" ">
<polygon fill="white" stroke="#666666" points="798.5,-129 728.5,-129 728.5,-110 798.5,-110 798.5,-129"/>
<text text-anchor="middle" x="763.5" y="-117" font-family="Helvetica,sans-Serif" font-size="10.00">serializer.h</text>
</a>
</g>
</g>
<!-- Node3&#45;&gt;Node17 -->
<g id="edge21" class="edge">
<title>Node3&#45;&gt;Node17</title>
<path fill="none" stroke="#63b8ff" d="M837.36,-164.98C823.71,-156.77 802.81,-144.18 786.72,-134.49"/>
<polygon fill="#63b8ff" stroke="#63b8ff" points="788.27,-131.33 777.9,-129.17 784.66,-137.33 788.27,-131.33"/>
</g>
<!-- Node22 -->
<g id="node22" class="node">
<title>Node22</title>
<g id="a_node22"><a xlink:title=" ">
<polygon fill="#e0e0e0" stroke="#999999" points="871.5,-74 831.5,-74 831.5,-55 871.5,-55 871.5,-74"/>
<text text-anchor="middle" x="851.5" y="-62" font-family="Helvetica,sans-Serif" font-size="10.00">span</text>
</a>
</g>
</g>
<!-- Node3&#45;&gt;Node22 -->
<g id="edge37" class="edge">
<title>Node3&#45;&gt;Node22</title>
<path fill="none" stroke="#63b8ff" d="M851.5,-164.66C851.5,-147.17 851.5,-107.8 851.5,-84.27"/>
<polygon fill="#63b8ff" stroke="#63b8ff" points="855,-84.16 851.5,-74.16 848,-84.16 855,-84.16"/>
</g>
<!-- Node24 -->
<g id="node24" class="node">
<title>Node24</title>
<g id="a_node24"><a xlink:title=" ">
<polygon fill="#e0e0e0" stroke="#999999" points="977.5,-129 927.5,-129 927.5,-110 977.5,-110 977.5,-129"/>
<text text-anchor="middle" x="952.5" y="-117" font-family="Helvetica,sans-Serif" font-size="10.00">atomic</text>
</a>
</g>
</g>
<!-- Node3&#45;&gt;Node24 -->
<g id="edge34" class="edge">
<title>Node3&#45;&gt;Node24</title>
<path fill="none" stroke="#63b8ff" d="M867.73,-164.98C883.68,-156.61 908.28,-143.7 926.88,-133.95"/>
<polygon fill="#63b8ff" stroke="#63b8ff" points="928.75,-136.92 935.98,-129.17 925.5,-130.72 928.75,-136.92"/>
</g>
<!-- Node25 -->
<g id="node25" class="node">
<title>Node25</title>
<g id="a_node25"><a xlink:title=" ">
<polygon fill="#e0e0e0" stroke="#999999" points="1447,-19 1368,-19 1368,0 1447,0 1447,-19"/>
<text text-anchor="middle" x="1407.5" y="-7" font-family="Helvetica,sans-Serif" font-size="10.00">fmt/format.h</text>
</a>
</g>
</g>
<!-- Node3&#45;&gt;Node25 -->
<g id="edge35" class="edge">
<title>Node3&#45;&gt;Node25</title>
<path fill="none" stroke="#63b8ff" d="M895.28,-164.96C922.97,-158.18 958.65,-146.83 986.5,-129 1024.37,-104.76 1015.47,-75.49 1055.5,-55 1107.15,-28.56 1273.41,-16.94 1357.62,-12.64"/>
<polygon fill="#63b8ff" stroke="#63b8ff" points="1357.9,-16.13 1367.72,-12.14 1357.56,-9.14 1357.9,-16.13"/>
</g>
<!-- Node26 -->
<g id="node26" class="node">
<title>Node26</title>
<g id="a_node26"><a xlink:title=" ">
<polygon fill="#e0e0e0" stroke="#999999" points="1120.5,-74 1064.5,-74 1064.5,-55 1120.5,-55 1120.5,-74"/>
<text text-anchor="middle" x="1092.5" y="-62" font-family="Helvetica,sans-Serif" font-size="10.00">optional</text>
</a>
</g>
</g>
<!-- Node3&#45;&gt;Node26 -->
<g id="edge36" class="edge">
<title>Node3&#45;&gt;Node26</title>
<path fill="none" stroke="#63b8ff" d="M909.12,-164.97C942.72,-158.39 985.11,-147.23 1019.5,-129 1042.33,-116.9 1064.08,-96.42 1077.8,-81.99"/>
<polygon fill="#63b8ff" stroke="#63b8ff" points="1080.69,-84.03 1084.91,-74.31 1075.55,-79.28 1080.69,-84.03"/>
</g>
<!-- Node5 -->
<g id="node5" class="node">
<title>Node5</title>
<g id="a_node5"><a xlink:href="siphash_8h.html" target="_top" xlink:title=" ">
<polygon fill="white" stroke="#666666" points="160,-74 65,-74 65,-55 160,-55 160,-74"/>
<text text-anchor="middle" x="112.5" y="-62" font-family="Helvetica,sans-Serif" font-size="10.00">ccf/ds/siphash.h</text>
</a>
</g>
</g>
<!-- Node4&#45;&gt;Node5 -->
<g id="edge4" class="edge">
<title>Node4&#45;&gt;Node5</title>
<path fill="none" stroke="#63b8ff" d="M208.18,-109.98C189.84,-101.46 161.39,-88.23 140.27,-78.41"/>
<polygon fill="#63b8ff" stroke="#63b8ff" points="141.69,-75.21 131.15,-74.17 138.74,-81.56 141.69,-75.21"/>
</g>
<!-- Node7 -->
<g id="node7" class="node">
<title>Node7</title>
<g id="a_node7"><a xlink:title=" ">
<polygon fill="#e0e0e0" stroke="#999999" points="213.5,-19 163.5,-19 163.5,0 213.5,0 213.5,-19"/>
<text text-anchor="middle" x="188.5" y="-7" font-family="Helvetica,sans-Serif" font-size="10.00">cstdint</text>
</a>
</g>
</g>
<!-- Node4&#45;&gt;Node7 -->
<g id="edge9" class="edge">
<title>Node4&#45;&gt;Node7</title>
<path fill="none" stroke="#63b8ff" d="M223.39,-109.66C217.18,-92.01 203.13,-52.09 194.88,-28.64"/>
<polygon fill="#63b8ff" stroke="#63b8ff" points="198.17,-27.43 191.55,-19.16 191.56,-29.75 198.17,-27.43"/>
</g>
<!-- Node4&#45;&gt;Node8 -->
<g id="edge12" class="edge">
<title>Node4&#45;&gt;Node8</title>
<path fill="none" stroke="#63b8ff" d="M266.83,-116.11C306.32,-112.16 366.88,-101.71 411.5,-74 429.91,-62.57 445.04,-42.54 454.35,-28.03"/>
<polygon fill="#63b8ff" stroke="#63b8ff" points="457.38,-29.79 459.61,-19.44 451.4,-26.14 457.38,-29.79"/>
</g>
<!-- Node9 -->
<g id="node9" class="node">
<title>Node9</title>
<g id="a_node9"><a xlink:title=" ">
<polygon fill="#e0e0e0" stroke="#999999" points="350.5,-19 308.5,-19 308.5,0 350.5,0 350.5,-19"/>
<text text-anchor="middle" x="329.5" y="-7" font-family="Helvetica,sans-Serif" font-size="10.00">array</text>
</a>
</g>
</g>
<!-- Node4&#45;&gt;Node9 -->
<g id="edge8" class="edge">
<title>Node4&#45;&gt;Node9</title>
<path fill="none" stroke="#63b8ff" d="M226.85,-109.71C227.8,-96.45 231.35,-71.19 244.5,-55 258.33,-37.98 280.41,-26.7 298.6,-19.76"/>
<polygon fill="#63b8ff" stroke="#63b8ff" points="299.97,-22.98 308.22,-16.33 297.63,-16.39 299.97,-22.98"/>
</g>
<!-- Node10 -->
<g id="node10" class="node">
<title>Node10</title>
<g id="a_node10"><a xlink:title=" ">
<polygon fill="#e0e0e0" stroke="#999999" points="403,-74 254,-74 254,-55 403,-55 403,-74"/>
<text text-anchor="middle" x="328.5" y="-62" font-family="Helvetica,sans-Serif" font-size="10.00">small_vector/SmallVector.h</text>
</a>
</g>
</g>
<!-- Node4&#45;&gt;Node10 -->
<g id="edge10" class="edge">
<title>Node4&#45;&gt;Node10</title>
<path fill="none" stroke="#63b8ff" d="M242.89,-109.98C259.07,-101.57 284.07,-88.59 302.88,-78.81"/>
<polygon fill="#63b8ff" stroke="#63b8ff" points="304.55,-81.89 311.81,-74.17 301.33,-75.68 304.55,-81.89"/>
</g>
<!-- Node11 -->
<g id="node11" class="node">
<title>Node11</title>
<g id="a_node11"><a xlink:title=" ">
<polygon fill="#e0e0e0" stroke="#999999" points="73,-19 0,-19 0,0 73,0 73,-19"/>
<text text-anchor="middle" x="36.5" y="-7" font-family="Helvetica,sans-Serif" font-size="10.00">string_view</text>
</a>
</g>
</g>
<!-- Node4&#45;&gt;Node11 -->
<g id="edge11" class="edge">
<title>Node4&#45;&gt;Node11</title>
<path fill="none" stroke="#63b8ff" d="M186.21,-118.74C147.71,-116.77 90.5,-107.75 55.5,-74 43.47,-62.4 38.98,-43.53 37.34,-29.37"/>
<polygon fill="#63b8ff" stroke="#63b8ff" points="40.82,-28.95 36.55,-19.26 33.84,-29.5 40.82,-28.95"/>
</g>
<!-- Node6 -->
<g id="node6" class="node">
<title>Node6</title>
<g id="a_node6"><a xlink:title=" ">
<polygon fill="#e0e0e0" stroke="#999999" points="144,-19 91,-19 91,0 144,0 144,-19"/>
<text text-anchor="middle" x="117.5" y="-7" font-family="Helvetica,sans-Serif" font-size="10.00">cstddef</text>
</a>
</g>
</g>
<!-- Node5&#45;&gt;Node6 -->
<g id="edge5" class="edge">
<title>Node5&#45;&gt;Node6</title>
<path fill="none" stroke="#63b8ff" d="M113.33,-54.75C113.98,-47.8 114.92,-37.85 115.74,-29.13"/>
<polygon fill="#63b8ff" stroke="#63b8ff" points="119.23,-29.37 116.69,-19.09 112.27,-28.72 119.23,-29.37"/>
</g>
<!-- Node5&#45;&gt;Node7 -->
<g id="edge6" class="edge">
<title>Node5&#45;&gt;Node7</title>
<path fill="none" stroke="#63b8ff" d="M124.71,-54.98C136.28,-46.92 153.88,-34.65 167.66,-25.03"/>
<polygon fill="#63b8ff" stroke="#63b8ff" points="169.87,-27.76 176.07,-19.17 165.86,-22.02 169.87,-27.76"/>
</g>
<!-- Node5&#45;&gt;Node8 -->
<g id="edge7" class="edge">
<title>Node5&#45;&gt;Node8</title>
<path fill="none" stroke="#63b8ff" d="M160.34,-56.3C232.48,-45.43 367.38,-25.12 430.41,-15.63"/>
<polygon fill="#63b8ff" stroke="#63b8ff" points="431.23,-19.05 440.6,-14.1 430.19,-12.13 431.23,-19.05"/>
</g>
<!-- Node12&#45;&gt;Node8 -->
<g id="edge20" class="edge">
<title>Node12&#45;&gt;Node8</title>
<path fill="none" stroke="#63b8ff" d="M561.02,-54.98C542.52,-46.46 513.82,-33.23 492.52,-23.41"/>
<polygon fill="#63b8ff" stroke="#63b8ff" points="493.86,-20.18 483.31,-19.17 490.93,-26.53 493.86,-20.18"/>
</g>
<!-- Node12&#45;&gt;Node9 -->
<g id="edge15" class="edge">
<title>Node12&#45;&gt;Node9</title>
<path fill="none" stroke="#63b8ff" d="M539.33,-54.98C489.52,-44.42 405.68,-26.65 360.53,-17.08"/>
<polygon fill="#63b8ff" stroke="#63b8ff" points="361.22,-13.65 350.72,-15 359.77,-20.5 361.22,-13.65"/>
</g>
<!-- Node12&#45;&gt;Node11 -->
<g id="edge18" class="edge">
<title>Node12&#45;&gt;Node11</title>
<path fill="none" stroke="#63b8ff" d="M534.35,-60.95C448.41,-55.76 255.2,-42.57 83.28,-19.13"/>
<polygon fill="#63b8ff" stroke="#63b8ff" points="83.67,-15.65 73.29,-17.75 82.72,-22.58 83.67,-15.65"/>
</g>
<!-- Node13 -->
<g id="node13" class="node">
<title>Node13</title>
<g id="a_node13"><a xlink:title=" ">
<polygon fill="#e0e0e0" stroke="#999999" points="637.5,-19 573.5,-19 573.5,0 637.5,0 637.5,-19"/>
<text text-anchor="middle" x="605.5" y="-7" font-family="Helvetica,sans-Serif" font-size="10.00">algorithm</text>
</a>
</g>
</g>
<!-- Node12&#45;&gt;Node13 -->
<g id="edge14" class="edge">
<title>Node12&#45;&gt;Node13</title>
<path fill="none" stroke="#63b8ff" d="M583.79,-54.75C587.31,-47.57 592.41,-37.18 596.78,-28.27"/>
<polygon fill="#63b8ff" stroke="#63b8ff" points="600.02,-29.61 601.29,-19.09 593.74,-26.53 600.02,-29.61"/>
</g>
<!-- Node14 -->
<g id="node14" class="node">
<title>Node14</title>
<g id="a_node14"><a xlink:title=" ">
<polygon fill="#e0e0e0" stroke="#999999" points="555,-19 506,-19 506,0 555,0 555,-19"/>
<text text-anchor="middle" x="530.5" y="-7" font-family="Helvetica,sans-Serif" font-size="10.00">cctype</text>
</a>
</g>
</g>
<!-- Node12&#45;&gt;Node14 -->
<g id="edge16" class="edge">
<title>Node12&#45;&gt;Node14</title>
<path fill="none" stroke="#63b8ff" d="M571.41,-54.75C564.34,-47.11 553.91,-35.82 545.35,-26.56"/>
<polygon fill="#63b8ff" stroke="#63b8ff" points="547.8,-24.06 538.44,-19.09 542.66,-28.81 547.8,-24.06"/>
</g>
<!-- Node12&#45;&gt;Node15 -->
<g id="edge17" class="edge">
<title>Node12&#45;&gt;Node15</title>
<path fill="none" stroke="#63b8ff" d="M595.25,-54.98C610.73,-46.61 634.59,-33.7 652.64,-23.95"/>
<polygon fill="#63b8ff" stroke="#63b8ff" points="654.34,-27.01 661.47,-19.17 651.01,-20.85 654.34,-27.01"/>
</g>
<!-- Node16 -->
<g id="node16" class="node">
<title>Node16</title>
<g id="a_node16"><a xlink:title=" ">
<polygon fill="#e0e0e0" stroke="#999999" points="938,-19 869,-19 869,0 938,0 938,-19"/>
<text text-anchor="middle" x="903.5" y="-7" font-family="Helvetica,sans-Serif" font-size="10.00">type_traits</text>
</a>
</g>
</g>
<!-- Node12&#45;&gt;Node16 -->
<g id="edge19" class="edge">
<title>Node12&#45;&gt;Node16</title>
<path fill="none" stroke="#63b8ff" d="M624.64,-56.37C693.15,-45.53 818.89,-25.63 858.87,-19"/>
<polygon fill="#63b8ff" stroke="#63b8ff" points="859.66,-22.41 868.93,-17.29 858.49,-15.51 859.66,-22.41"/>
</g>
<!-- Node17&#45;&gt;Node8 -->
<g id="edge33" class="edge">
<title>Node17&#45;&gt;Node8</title>
<path fill="none" stroke="#63b8ff" d="M728.2,-118.5C679.68,-117.09 590.97,-109.35 525.5,-74 504.78,-62.81 486.91,-42.1 475.96,-27.37"/>
<polygon fill="#63b8ff" stroke="#63b8ff" points="478.73,-25.23 470.08,-19.12 473.03,-29.29 478.73,-25.23"/>
</g>
<!-- Node17&#45;&gt;Node12 -->
<g id="edge22" class="edge">
<title>Node17&#45;&gt;Node12</title>
<path fill="none" stroke="#63b8ff" d="M733.94,-109.98C702.78,-101.01 653.53,-86.82 619.04,-76.89"/>
<polygon fill="#63b8ff" stroke="#63b8ff" points="619.87,-73.49 609.29,-74.08 617.93,-80.21 619.87,-73.49"/>
</g>
<!-- Node17&#45;&gt;Node16 -->
<g id="edge32" class="edge">
<title>Node17&#45;&gt;Node16</title>
<path fill="none" stroke="#63b8ff" d="M770.03,-109.87C780.19,-96.83 800.9,-71.84 822.5,-55 838.43,-42.58 858.27,-31.62 874.34,-23.68"/>
<polygon fill="#63b8ff" stroke="#63b8ff" points="876.28,-26.63 883.78,-19.14 873.25,-20.32 876.28,-26.63"/>
</g>
<!-- Node18 -->
<g id="node18" class="node">
<title>Node18</title>
<g id="a_node18"><a xlink:href="serialized_8h.html" target="_top" xlink:title=" ">
<polygon fill="white" stroke="#666666" points="775,-74 702,-74 702,-55 775,-55 775,-74"/>
<text text-anchor="middle" x="738.5" y="-62" font-family="Helvetica,sans-Serif" font-size="10.00">serialized.h</text>
</a>
</g>
</g>
<!-- Node17&#45;&gt;Node18 -->
<g id="edge23" class="edge">
<title>Node17&#45;&gt;Node18</title>
<path fill="none" stroke="#63b8ff" d="M759.37,-109.75C755.99,-102.57 751.08,-92.18 746.88,-83.27"/>
<polygon fill="#63b8ff" stroke="#63b8ff" points="749.98,-81.64 742.55,-74.09 743.65,-84.63 749.98,-81.64"/>
</g>
<!-- Node21 -->
<g id="node21" class="node">
<title>Node21</title>
<g id="a_node21"><a xlink:title=" ">
<polygon fill="#e0e0e0" stroke="#999999" points="985.5,-74 927.5,-74 927.5,-55 985.5,-55 985.5,-74"/>
<text text-anchor="middle" x="956.5" y="-62" font-family="Helvetica,sans-Serif" font-size="10.00">memory</text>
</a>
</g>
</g>
<!-- Node17&#45;&gt;Node21 -->
<g id="edge29" class="edge">
<title>Node17&#45;&gt;Node21</title>
<path fill="none" stroke="#63b8ff" d="M794.51,-109.98C828.01,-100.78 881.46,-86.11 917.72,-76.15"/>
<polygon fill="#63b8ff" stroke="#63b8ff" points="918.75,-79.5 927.46,-73.47 916.89,-72.75 918.75,-79.5"/>
</g>
<!-- Node17&#45;&gt;Node22 -->
<g id="edge30" class="edge">
<title>Node17&#45;&gt;Node22</title>
<path fill="none" stroke="#63b8ff" d="M777.64,-109.98C791.29,-101.77 812.19,-89.18 828.28,-79.49"/>
<polygon fill="#63b8ff" stroke="#63b8ff" points="830.34,-82.33 837.1,-74.17 826.73,-76.33 830.34,-82.33"/>
</g>
<!-- Node23 -->
<g id="node23" class="node">
<title>Node23</title>
<g id="a_node23"><a xlink:title=" ">
<polygon fill="#e0e0e0" stroke="#999999" points="684,-74 643,-74 643,-55 684,-55 684,-74"/>
<text text-anchor="middle" x="663.5" y="-62" font-family="Helvetica,sans-Serif" font-size="10.00">tuple</text>
</a>
</g>
</g>
<!-- Node17&#45;&gt;Node23 -->
<g id="edge31" class="edge">
<title>Node17&#45;&gt;Node23</title>
<path fill="none" stroke="#63b8ff" d="M747.43,-109.98C731.64,-101.61 707.28,-88.7 688.87,-78.95"/>
<polygon fill="#63b8ff" stroke="#63b8ff" points="690.33,-75.76 679.86,-74.17 687.06,-81.95 690.33,-75.76"/>
</g>
<!-- Node18&#45;&gt;Node7 -->
<g id="edge24" class="edge">
<title>Node18&#45;&gt;Node7</title>
<path fill="none" stroke="#63b8ff" d="M701.89,-56.41C698.72,-55.9 695.56,-55.42 692.5,-55 601.49,-42.6 322.83,-20.76 223.84,-13.18"/>
<polygon fill="#63b8ff" stroke="#63b8ff" points="224,-9.68 213.76,-12.41 223.46,-16.66 224,-9.68"/>
</g>
<!-- Node18&#45;&gt;Node8 -->
<g id="edge28" class="edge">
<title>Node18&#45;&gt;Node8</title>
<path fill="none" stroke="#63b8ff" d="M701.84,-56.72C698.68,-56.14 695.54,-55.56 692.5,-55 608.54,-39.53 584.63,-38.44 498.2,-19.26"/>
<polygon fill="#63b8ff" stroke="#63b8ff" points="498.74,-15.79 488.21,-17.02 497.21,-22.62 498.74,-15.79"/>
</g>
<!-- Node18&#45;&gt;Node15 -->
<g id="edge27" class="edge">
<title>Node18&#45;&gt;Node15</title>
<path fill="none" stroke="#63b8ff" d="M728.7,-54.98C719.68,-47.15 706.09,-35.34 695.18,-25.86"/>
<polygon fill="#63b8ff" stroke="#63b8ff" points="697.32,-23.09 687.48,-19.17 692.73,-28.37 697.32,-23.09"/>
</g>
<!-- Node19 -->
<g id="node19" class="node">
<title>Node19</title>
<g id="a_node19"><a xlink:title=" ">
<polygon fill="#e0e0e0" stroke="#999999" points="767.5,-19 717.5,-19 717.5,0 767.5,0 767.5,-19"/>
<text text-anchor="middle" x="742.5" y="-7" font-family="Helvetica,sans-Serif" font-size="10.00">cstring</text>
</a>
</g>
</g>
<!-- Node18&#45;&gt;Node19 -->
<g id="edge25" class="edge">
<title>Node18&#45;&gt;Node19</title>
<path fill="none" stroke="#63b8ff" d="M739.16,-54.75C739.68,-47.8 740.44,-37.85 741.09,-29.13"/>
<polygon fill="#63b8ff" stroke="#63b8ff" points="744.59,-29.32 741.85,-19.09 737.61,-28.8 744.59,-29.32"/>
</g>
<!-- Node20 -->
<g id="node20" class="node">
<title>Node20</title>
<g id="a_node20"><a xlink:title=" ">
<polygon fill="#e0e0e0" stroke="#999999" points="851,-19 786,-19 786,0 851,0 851,-19"/>
<text text-anchor="middle" x="818.5" y="-7" font-family="Helvetica,sans-Serif" font-size="10.00">stdexcept</text>
</a>
</g>
</g>
<!-- Node18&#45;&gt;Node20 -->
<g id="edge26" class="edge">
<title>Node18&#45;&gt;Node20</title>
<path fill="none" stroke="#63b8ff" d="M751.35,-54.98C763.64,-46.84 782.41,-34.41 796.98,-24.76"/>
<polygon fill="#63b8ff" stroke="#63b8ff" points="799.01,-27.61 805.41,-19.17 795.14,-21.78 799.01,-27.61"/>
</g>
<!-- Node28&#45;&gt;Node3 -->
<g id="edge42" class="edge">
<title>Node28&#45;&gt;Node3</title>
<path fill="none" stroke="#63b8ff" d="M851.5,-219.75C851.5,-212.8 851.5,-202.85 851.5,-194.13"/>
<polygon fill="#63b8ff" stroke="#63b8ff" points="855,-194.09 851.5,-184.09 848,-194.09 855,-194.09"/>
</g>
<!-- Node29&#45;&gt;Node26 -->
<g id="edge80" class="edge">
<title>Node29&#45;&gt;Node26</title>
<path fill="none" stroke="#63b8ff" d="M1301.84,-228.89C1238.42,-229.59 1048.59,-227.91 1010.5,-184 1004.97,-177.62 1007.27,-172.8 1010.5,-165 1019.16,-144.09 1031.82,-146.22 1046.5,-129 1059.3,-114 1072.34,-95.64 1081.25,-82.53"/>
<polygon fill="#63b8ff" stroke="#63b8ff" points="1084.29,-84.29 1086.95,-74.04 1078.47,-80.39 1084.29,-84.29"/>
</g>
<!-- Node30 -->
<g id="node30" class="node">
<title>Node30</title>
<g id="a_node30"><a xlink:href="before__io_8h.html" target="_top" xlink:title=" ">
<polygon fill="white" stroke="#666666" points="1358,-184 1287,-184 1287,-165 1358,-165 1358,-184"/>
<text text-anchor="middle" x="1322.5" y="-172" font-family="Helvetica,sans-Serif" font-size="10.00">before_io.h</text>
</a>
</g>
</g>
<!-- Node29&#45;&gt;Node30 -->
<g id="edge44" class="edge">
<title>Node29&#45;&gt;Node30</title>
<path fill="none" stroke="#63b8ff" d="M1322.5,-219.75C1322.5,-212.8 1322.5,-202.85 1322.5,-194.13"/>
<polygon fill="#63b8ff" stroke="#63b8ff" points="1326,-194.09 1322.5,-184.09 1319,-194.09 1326,-194.09"/>
</g>
<!-- Node31 -->
<g id="node31" class="node">
<title>Node31</title>
<g id="a_node31"><a xlink:href="logger_8h.html" target="_top" xlink:title=" ">
<polygon fill="white" stroke="#666666" points="1523,-129 1436,-129 1436,-110 1523,-110 1523,-129"/>
<text text-anchor="middle" x="1479.5" y="-117" font-family="Helvetica,sans-Serif" font-size="10.00">ccf/ds/logger.h</text>
</a>
</g>
</g>
<!-- Node29&#45;&gt;Node31 -->
<g id="edge65" class="edge">
<title>Node29&#45;&gt;Node31</title>
<path fill="none" stroke="#63b8ff" d="M1335.08,-219.84C1361.95,-201.36 1425.19,-157.86 1458.36,-135.05"/>
<polygon fill="#63b8ff" stroke="#63b8ff" points="1460.6,-137.75 1466.86,-129.2 1456.63,-131.98 1460.6,-137.75"/>
</g>
<!-- Node43 -->
<g id="node43" class="node">
<title>Node43</title>
<g id="a_node43"><a xlink:href="proxy_8h.html" target="_top" xlink:title=" ">
<polygon fill="white" stroke="#666666" points="1257.5,-129 1205.5,-129 1205.5,-110 1257.5,-110 1257.5,-129"/>
<text text-anchor="middle" x="1231.5" y="-117" font-family="Helvetica,sans-Serif" font-size="10.00">proxy.h</text>
</a>
</g>
</g>
<!-- Node29&#45;&gt;Node43 -->
<g id="edge75" class="edge">
<title>Node29&#45;&gt;Node43</title>
<path fill="none" stroke="#63b8ff" d="M1301.94,-228.58C1242.38,-228.32 1071.77,-224.04 1037.5,-184 968.24,-103.09 819.92,-215.99 1195.31,-129.24"/>
<polygon fill="#63b8ff" stroke="#63b8ff" points="1196.19,-132.63 1205.14,-126.95 1194.6,-125.81 1196.19,-132.63"/>
</g>
<!-- Node45 -->
<g id="node45" class="node">
<title>Node45</title>
<g id="a_node45"><a xlink:href="locking_8h.html" target="_top" xlink:title=" ">
<polygon fill="white" stroke="#666666" points="1741.5,-129 1645.5,-129 1645.5,-110 1741.5,-110 1741.5,-129"/>
<text text-anchor="middle" x="1693.5" y="-117" font-family="Helvetica,sans-Serif" font-size="10.00">ccf/pal/locking.h</text>
</a>
</g>
</g>
<!-- Node29&#45;&gt;Node45 -->
<g id="edge66" class="edge">
<title>Node29&#45;&gt;Node45</title>
<path fill="none" stroke="#63b8ff" d="M1343.1,-222.51C1346.56,-221.6 1350.12,-220.73 1353.5,-220 1453.35,-198.46 1484.02,-217.55 1580.5,-184 1615.09,-171.97 1651.37,-149.57 1673.21,-134.85"/>
<polygon fill="#63b8ff" stroke="#63b8ff" points="1675.38,-137.61 1681.64,-129.06 1671.42,-131.84 1675.38,-137.61"/>
</g>
<!-- Node47 -->
<g id="node47" class="node">
<title>Node47</title>
<g id="a_node47"><a xlink:href="dns_8h.html" target="_top" xlink:title=" ">
<polygon fill="white" stroke="#666666" points="1571,-184 1528,-184 1528,-165 1571,-165 1571,-184"/>
<text text-anchor="middle" x="1549.5" y="-172" font-family="Helvetica,sans-Serif" font-size="10.00">dns.h</text>
</a>
</g>
</g>
<!-- Node29&#45;&gt;Node47 -->
<g id="edge68" class="edge">
<title>Node29&#45;&gt;Node47</title>
<path fill="none" stroke="#63b8ff" d="M1343.14,-222.67C1346.59,-221.75 1350.14,-220.82 1353.5,-220 1423.81,-202.75 1444.57,-202.31 1518.17,-184.21"/>
<polygon fill="#63b8ff" stroke="#63b8ff" points="1519.05,-187.6 1527.91,-181.79 1517.36,-180.81 1519.05,-187.6"/>
</g>
<!-- Node49 -->
<g id="node49" class="node">
<title>Node49</title>
<g id="a_node49"><a xlink:href="pending__io_8h.html" target="_top" xlink:title=" ">
<polygon fill="white" stroke="#666666" points="1230,-184 1137,-184 1137,-165 1230,-165 1230,-184"/>
<text text-anchor="middle" x="1183.5" y="-172" font-family="Helvetica,sans-Serif" font-size="10.00">ds/pending_io.h</text>
</a>
</g>
</g>
<!-- Node29&#45;&gt;Node49 -->
<g id="edge73" class="edge">
<title>Node29&#45;&gt;Node49</title>
<path fill="none" stroke="#63b8ff" d="M1301.99,-220.68C1279.22,-212 1242.18,-197.88 1215.57,-187.73"/>
<polygon fill="#63b8ff" stroke="#63b8ff" points="1216.53,-184.35 1205.94,-184.06 1214.04,-190.89 1216.53,-184.35"/>
</g>
<!-- Node50 -->
<g id="node50" class="node">
<title>Node50</title>
<g id="a_node50"><a xlink:href="socket_8h.html" target="_top" xlink:title=" ">
<polygon fill="white" stroke="#666666" points="1510,-184 1453,-184 1453,-165 1510,-165 1510,-184"/>
<text text-anchor="middle" x="1481.5" y="-172" font-family="Helvetica,sans-Serif" font-size="10.00">socket.h</text>
</a>
</g>
</g>
<!-- Node29&#45;&gt;Node50 -->
<g id="edge76" class="edge">
<title>Node29&#45;&gt;Node50</title>
<path fill="none" stroke="#63b8ff" d="M1343.29,-221.57C1369.42,-212.86 1414.66,-197.78 1446.24,-187.25"/>
<polygon fill="#63b8ff" stroke="#63b8ff" points="1447.6,-190.49 1455.98,-184.01 1445.38,-183.85 1447.6,-190.49"/>
</g>
<!-- Node51 -->
<g id="node51" class="node">
<title>Node51</title>
<g id="a_node51"><a xlink:title=" ">
<polygon fill="#e0e0e0" stroke="#999999" points="1118.5,-184 1046.5,-184 1046.5,-165 1118.5,-165 1118.5,-184"/>
<text text-anchor="middle" x="1082.5" y="-172" font-family="Helvetica,sans-Serif" font-size="10.00">netinet/in.h</text>
</a>
</g>
</g>
<!-- Node29&#45;&gt;Node51 -->
<g id="edge79" class="edge">
<title>Node29&#45;&gt;Node51</title>
<path fill="none" stroke="#63b8ff" d="M1301.62,-223.89C1263.24,-215.41 1180.63,-197.17 1128.53,-185.67"/>
<polygon fill="#63b8ff" stroke="#63b8ff" points="1129.06,-182.2 1118.54,-183.46 1127.55,-189.03 1129.06,-182.2"/>
</g>
<!-- Node30&#45;&gt;Node31 -->
<g id="edge45" class="edge">
<title>Node30&#45;&gt;Node31</title>
<path fill="none" stroke="#63b8ff" d="M1347.72,-164.98C1373.86,-156.16 1414.9,-142.31 1444.23,-132.41"/>
<polygon fill="#63b8ff" stroke="#63b8ff" points="1445.72,-135.6 1454.08,-129.08 1443.48,-128.96 1445.72,-135.6"/>
</g>
<!-- Node30&#45;&gt;Node43 -->
<g id="edge62" class="edge">
<title>Node30&#45;&gt;Node43</title>
<path fill="none" stroke="#63b8ff" d="M1307.88,-164.98C1293.64,-156.69 1271.75,-143.94 1255.05,-134.22"/>
<polygon fill="#63b8ff" stroke="#63b8ff" points="1256.79,-131.18 1246.39,-129.17 1253.27,-137.23 1256.79,-131.18"/>
</g>
<!-- Node31&#45;&gt;Node16 -->
<g id="edge61" class="edge">
<title>Node31&#45;&gt;Node16</title>
<path fill="none" stroke="#63b8ff" d="M1435.84,-112.34C1374.32,-103.4 1265.41,-86.53 1227.5,-74 1209.57,-68.07 1207.49,-60.74 1189.5,-55 1106.81,-28.6 1005.48,-17.57 948.33,-13.18"/>
<polygon fill="#63b8ff" stroke="#63b8ff" points="948.42,-9.68 938.19,-12.44 947.9,-16.66 948.42,-9.68"/>
</g>
<!-- Node31&#45;&gt;Node25 -->
<g id="edge56" class="edge">
<title>Node31&#45;&gt;Node25</title>
<path fill="none" stroke="#63b8ff" d="M1477.54,-109.69C1474.4,-96.84 1467.34,-72.6 1455.5,-55 1447.94,-43.77 1437.03,-33.36 1427.51,-25.43"/>
<polygon fill="#63b8ff" stroke="#63b8ff" points="1429.64,-22.65 1419.64,-19.15 1425.27,-28.12 1429.64,-22.65"/>
</g>
<!-- Node31&#45;&gt;Node26 -->
<g id="edge59" class="edge">
<title>Node31&#45;&gt;Node26</title>
<path fill="none" stroke="#63b8ff" d="M1435.78,-113.87C1370.15,-106.7 1242.34,-91.84 1134.5,-74 1133.4,-73.82 1132.28,-73.63 1131.16,-73.43"/>
<polygon fill="#63b8ff" stroke="#63b8ff" points="1131.39,-69.91 1120.92,-71.54 1130.11,-76.8 1131.39,-69.91"/>
</g>
<!-- Node32 -->
<g id="node32" class="node">
<title>Node32</title>
<g id="a_node32"><a xlink:href="enum__formatter_8h.html" target="_top" xlink:title=" ">
<polygon fill="white" stroke="#666666" points="1446.5,-74 1310.5,-74 1310.5,-55 1446.5,-55 1446.5,-74"/>
<text text-anchor="middle" x="1378.5" y="-62" font-family="Helvetica,sans-Serif" font-size="10.00">ccf/ds/enum_formatter.h</text>
</a>
</g>
</g>
<!-- Node31&#45;&gt;Node32 -->
<g id="edge46" class="edge">
<title>Node31&#45;&gt;Node32</title>
<path fill="none" stroke="#63b8ff" d="M1463.27,-109.98C1447.32,-101.61 1422.72,-88.7 1404.12,-78.95"/>
<polygon fill="#63b8ff" stroke="#63b8ff" points="1405.5,-75.72 1395.02,-74.17 1402.25,-81.92 1405.5,-75.72"/>
</g>
<!-- Node33 -->
<g id="node33" class="node">
<title>Node33</title>
<g id="a_node33"><a xlink:href="thread__ids_8h.html" target="_top" xlink:title=" ">
<polygon fill="white" stroke="#666666" points="1708.5,-74 1600.5,-74 1600.5,-55 1708.5,-55 1708.5,-74"/>
<text text-anchor="middle" x="1654.5" y="-62" font-family="Helvetica,sans-Serif" font-size="10.00">ccf/ds/thread_ids.h</text>
</a>
</g>
</g>
<!-- Node31&#45;&gt;Node33 -->
<g id="edge48" class="edge">
<title>Node31&#45;&gt;Node33</title>
<path fill="none" stroke="#63b8ff" d="M1507.62,-109.98C1537.12,-101.05 1583.69,-86.94 1616.47,-77.02"/>
<polygon fill="#63b8ff" stroke="#63b8ff" points="1617.61,-80.33 1626.16,-74.08 1615.58,-73.63 1617.61,-80.33"/>
</g>
<!-- Node39 -->
<g id="node39" class="node">
<title>Node39</title>
<g id="a_node39"><a xlink:title=" ">
<polygon fill="#e0e0e0" stroke="#999999" points="1582,-74 1503,-74 1503,-55 1582,-55 1582,-74"/>
<text text-anchor="middle" x="1542.5" y="-62" font-family="Helvetica,sans-Serif" font-size="10.00">fmt/chrono.h</text>
</a>
</g>
</g>
<!-- Node31&#45;&gt;Node39 -->
<g id="edge55" class="edge">
<title>Node31&#45;&gt;Node39</title>
<path fill="none" stroke="#63b8ff" d="M1489.62,-109.98C1498.94,-102.15 1512.97,-90.34 1524.24,-80.86"/>
<polygon fill="#63b8ff" stroke="#63b8ff" points="1526.79,-83.29 1532.19,-74.17 1522.29,-77.93 1526.79,-83.29"/>
</g>
<!-- Node40 -->
<g id="node40" class="node">
<title>Node40</title>
<g id="a_node40"><a xlink:title=" ">
<polygon fill="#e0e0e0" stroke="#999999" points="1786.5,-74 1726.5,-74 1726.5,-55 1786.5,-55 1786.5,-74"/>
<text text-anchor="middle" x="1756.5" y="-62" font-family="Helvetica,sans-Serif" font-size="10.00">iostream</text>
</a>
</g>
</g>
<!-- Node31&#45;&gt;Node40 -->
<g id="edge57" class="edge">
<title>Node31&#45;&gt;Node40</title>
<path fill="none" stroke="#63b8ff" d="M1523,-110.77C1568.73,-102.55 1643,-88.95 1716.41,-74.18"/>
<polygon fill="#63b8ff" stroke="#63b8ff" points="1717.18,-77.59 1726.29,-72.18 1715.79,-70.73 1717.18,-77.59"/>
</g>
<!-- Node41 -->
<g id="node41" class="node">
<title>Node41</title>
<g id="a_node41"><a xlink:title=" ">
<polygon fill="#e0e0e0" stroke="#999999" points="1914.5,-74 1804.5,-74 1804.5,-55 1914.5,-55 1914.5,-74"/>
<text text-anchor="middle" x="1859.5" y="-62" font-family="Helvetica,sans-Serif" font-size="10.00">nlohmann/json.hpp</text>
</a>
</g>
</g>
<!-- Node31&#45;&gt;Node41 -->
<g id="edge58" class="edge">
<title>Node31&#45;&gt;Node41</title>
<path fill="none" stroke="#63b8ff" d="M1523.16,-111.41C1526.32,-110.93 1529.46,-110.45 1532.5,-110 1581.55,-102.73 1713.77,-84.95 1794.26,-74.19"/>
<polygon fill="#63b8ff" stroke="#63b8ff" points="1794.85,-77.64 1804.3,-72.85 1793.92,-70.71 1794.85,-77.64"/>
</g>
<!-- Node42 -->
<g id="node42" class="node">
<title>Node42</title>
<g id="a_node42"><a xlink:title=" ">
<polygon fill="#e0e0e0" stroke="#999999" points="1292.5,-74 1236.5,-74 1236.5,-55 1292.5,-55 1292.5,-74"/>
<text text-anchor="middle" x="1264.5" y="-62" font-family="Helvetica,sans-Serif" font-size="10.00">sstream</text>
</a>
</g>
</g>
<!-- Node31&#45;&gt;Node42 -->
<g id="edge60" class="edge">
<title>Node31&#45;&gt;Node42</title>
<path fill="none" stroke="#63b8ff" d="M1444.96,-109.98C1406,-100.38 1342.84,-84.81 1302.51,-74.87"/>
<polygon fill="#63b8ff" stroke="#63b8ff" points="1303.33,-71.47 1292.78,-72.47 1301.65,-78.26 1303.33,-71.47"/>
</g>
<!-- Node32&#45;&gt;Node25 -->
<g id="edge47" class="edge">
<title>Node32&#45;&gt;Node25</title>
<path fill="none" stroke="#63b8ff" d="M1383.29,-54.75C1387.26,-47.49 1393.03,-36.95 1397.93,-27.98"/>
<polygon fill="#63b8ff" stroke="#63b8ff" points="1401.07,-29.54 1402.8,-19.09 1394.93,-26.18 1401.07,-29.54"/>
</g>
<!-- Node33&#45;&gt;Node25 -->
<g id="edge49" class="edge">
<title>Node33&#45;&gt;Node25</title>
<path fill="none" stroke="#63b8ff" d="M1614.82,-54.98C1571.87,-45.77 1503.33,-31.06 1456.93,-21.11"/>
<polygon fill="#63b8ff" stroke="#63b8ff" points="1457.6,-17.67 1447.09,-18.99 1456.13,-24.51 1457.6,-17.67"/>
</g>
<!-- Node34 -->
<g id="node34" class="node">
<title>Node34</title>
<g id="a_node34"><a xlink:title=" ">
<polygon fill="#e0e0e0" stroke="#999999" points="1843.5,-19 1757.5,-19 1757.5,0 1843.5,0 1843.5,-19"/>
<text text-anchor="middle" x="1800.5" y="-7" font-family="Helvetica,sans-Serif" font-size="10.00">fmt/ostream.h</text>
</a>
</g>
</g>
<!-- Node33&#45;&gt;Node34 -->
<g id="edge50" class="edge">
<title>Node33&#45;&gt;Node34</title>
<path fill="none" stroke="#63b8ff" d="M1677.96,-54.98C1702.08,-46.23 1739.87,-32.51 1767.1,-22.62"/>
<polygon fill="#63b8ff" stroke="#63b8ff" points="1768.41,-25.87 1776.62,-19.17 1766.02,-19.29 1768.41,-25.87"/>
</g>
<!-- Node35 -->
<g id="node35" class="node">
<title>Node35</title>
<g id="a_node35"><a xlink:title=" ">
<polygon fill="#e0e0e0" stroke="#999999" points="1555,-19 1494,-19 1494,0 1555,0 1555,-19"/>
<text text-anchor="middle" x="1524.5" y="-7" font-family="Helvetica,sans-Serif" font-size="10.00">fmt/std.h</text>
</a>
</g>
</g>
<!-- Node33&#45;&gt;Node35 -->
<g id="edge51" class="edge">
<title>Node33&#45;&gt;Node35</title>
<path fill="none" stroke="#63b8ff" d="M1633.61,-54.98C1612.42,-46.34 1579.37,-32.87 1555.2,-23.02"/>
<polygon fill="#63b8ff" stroke="#63b8ff" points="1556.35,-19.7 1545.77,-19.17 1553.71,-26.19 1556.35,-19.7"/>
</g>
<!-- Node36 -->
<g id="node36" class="node">
<title>Node36</title>
<g id="a_node36"><a xlink:title=" ">
<polygon fill="#e0e0e0" stroke="#999999" points="1617.5,-19 1573.5,-19 1573.5,0 1617.5,0 1617.5,-19"/>
<text text-anchor="middle" x="1595.5" y="-7" font-family="Helvetica,sans-Serif" font-size="10.00">limits</text>
</a>
</g>
</g>
<!-- Node33&#45;&gt;Node36 -->
<g id="edge52" class="edge">
<title>Node33&#45;&gt;Node36</title>
<path fill="none" stroke="#63b8ff" d="M1645.02,-54.98C1636.3,-47.15 1623.16,-35.34 1612.6,-25.86"/>
<polygon fill="#63b8ff" stroke="#63b8ff" points="1614.93,-23.25 1605.15,-19.17 1610.25,-28.46 1614.93,-23.25"/>
</g>
<!-- Node37 -->
<g id="node37" class="node">
<title>Node37</title>
<g id="a_node37"><a xlink:title=" ">
<polygon fill="#e0e0e0" stroke="#999999" points="1673.5,-19 1635.5,-19 1635.5,0 1673.5,0 1673.5,-19"/>
<text text-anchor="middle" x="1654.5" y="-7" font-family="Helvetica,sans-Serif" font-size="10.00">map</text>
</a>
</g>
</g>
<!-- Node33&#45;&gt;Node37 -->
<g id="edge53" class="edge">
<title>Node33&#45;&gt;Node37</title>
<path fill="none" stroke="#63b8ff" d="M1654.5,-54.75C1654.5,-47.8 1654.5,-37.85 1654.5,-29.13"/>
<polygon fill="#63b8ff" stroke="#63b8ff" points="1658,-29.09 1654.5,-19.09 1651,-29.09 1658,-29.09"/>
</g>
<!-- Node38 -->
<g id="node38" class="node">
<title>Node38</title>
<g id="a_node38"><a xlink:title=" ">
<polygon fill="#e0e0e0" stroke="#999999" points="1739.5,-19 1691.5,-19 1691.5,0 1739.5,0 1739.5,-19"/>
<text text-anchor="middle" x="1715.5" y="-7" font-family="Helvetica,sans-Serif" font-size="10.00">thread</text>
</a>
</g>
</g>
<!-- Node33&#45;&gt;Node38 -->
<g id="edge54" class="edge">
<title>Node33&#45;&gt;Node38</title>
<path fill="none" stroke="#63b8ff" d="M1664.3,-54.98C1673.32,-47.15 1686.91,-35.34 1697.82,-25.86"/>
<polygon fill="#63b8ff" stroke="#63b8ff" points="1700.27,-28.37 1705.52,-19.17 1695.68,-23.09 1700.27,-28.37"/>
</g>
<!-- Node43&#45;&gt;Node21 -->
<g id="edge63" class="edge">
<title>Node43&#45;&gt;Node21</title>
<path fill="none" stroke="#63b8ff" d="M1205.16,-111.94C1202.24,-111.26 1199.31,-110.6 1196.5,-110 1126.04,-94.92 1043.31,-80.24 995.69,-72.09"/>
<polygon fill="#63b8ff" stroke="#63b8ff" points="996.24,-68.63 985.79,-70.4 995.06,-75.53 996.24,-68.63"/>
</g>
<!-- Node44 -->
<g id="node44" class="node">
<title>Node44</title>
<g id="a_node44"><a xlink:title=" ">
<polygon fill="#e0e0e0" stroke="#999999" points="1180,-74 1143,-74 1143,-55 1180,-55 1180,-74"/>
<text text-anchor="middle" x="1161.5" y="-62" font-family="Helvetica,sans-Serif" font-size="10.00">uv.h</text>
</a>
</g>
</g>
<!-- Node43&#45;&gt;Node44 -->
<g id="edge64" class="edge">
<title>Node43&#45;&gt;Node44</title>
<path fill="none" stroke="#63b8ff" d="M1220.25,-109.98C1209.7,-102 1193.7,-89.88 1181.06,-80.31"/>
<polygon fill="#63b8ff" stroke="#63b8ff" points="1183.04,-77.42 1172.95,-74.17 1178.81,-83 1183.04,-77.42"/>
</g>
<!-- Node46 -->
<g id="node46" class="node">
<title>Node46</title>
<g id="a_node46"><a xlink:title=" ">
<polygon fill="#e0e0e0" stroke="#999999" points="1980.5,-74 1932.5,-74 1932.5,-55 1980.5,-55 1980.5,-74"/>
<text text-anchor="middle" x="1956.5" y="-62" font-family="Helvetica,sans-Serif" font-size="10.00">mutex</text>
</a>
</g>
</g>
<!-- Node45&#45;&gt;Node46 -->
<g id="edge67" class="edge">
<title>Node45&#45;&gt;Node46</title>
<path fill="none" stroke="#63b8ff" d="M1741.69,-110.06C1786.17,-102.07 1854.26,-89.34 1922.35,-74.15"/>
<polygon fill="#63b8ff" stroke="#63b8ff" points="1923.4,-77.5 1932.39,-71.89 1921.87,-70.67 1923.4,-77.5"/>
</g>
<!-- Node47&#45;&gt;Node31 -->
<g id="edge69" class="edge">
<title>Node47&#45;&gt;Node31</title>
<path fill="none" stroke="#63b8ff" d="M1538.25,-164.98C1527.7,-157 1511.7,-144.88 1499.06,-135.31"/>
<polygon fill="#63b8ff" stroke="#63b8ff" points="1501.04,-132.42 1490.95,-129.17 1496.81,-138 1501.04,-132.42"/>
</g>
<!-- Node47&#45;&gt;Node44 -->
<g id="edge72" class="edge">
<title>Node47&#45;&gt;Node44</title>
<path fill="none" stroke="#63b8ff" d="M1527.8,-165.89C1503.32,-157.24 1462.38,-142.56 1427.5,-129 1406.88,-120.99 1402.69,-116.35 1381.5,-110 1300.42,-85.72 1277.08,-92.56 1194.5,-74 1193.06,-73.68 1191.58,-73.33 1190.09,-72.98"/>
<polygon fill="#63b8ff" stroke="#63b8ff" points="1190.85,-69.56 1180.3,-70.56 1189.16,-76.36 1190.85,-69.56"/>
</g>
<!-- Node47&#45;&gt;Node45 -->
<g id="edge70" class="edge">
<title>Node47&#45;&gt;Node45</title>
<path fill="none" stroke="#63b8ff" d="M1571.06,-165.57C1594.82,-156.82 1633.3,-142.66 1660.78,-132.54"/>
<polygon fill="#63b8ff" stroke="#63b8ff" points="1662.19,-135.75 1670.36,-129.02 1659.77,-129.19 1662.19,-135.75"/>
</g>
<!-- Node48 -->
<g id="node48" class="node">
<title>Node48</title>
<g id="a_node48"><a xlink:title=" ">
<polygon fill="#e0e0e0" stroke="#999999" points="1627.5,-129 1541.5,-129 1541.5,-110 1627.5,-110 1627.5,-129"/>
<text text-anchor="middle" x="1584.5" y="-117" font-family="Helvetica,sans-Serif" font-size="10.00">unordered_set</text>
</a>
</g>
</g>
<!-- Node47&#45;&gt;Node48 -->
<g id="edge71" class="edge">
<title>Node47&#45;&gt;Node48</title>
<path fill="none" stroke="#63b8ff" d="M1555.28,-164.75C1560.12,-157.42 1567.18,-146.73 1573.14,-137.7"/>
<polygon fill="#63b8ff" stroke="#63b8ff" points="1576.24,-139.36 1578.83,-129.09 1570.4,-135.5 1576.24,-139.36"/>
</g>
<!-- Node49&#45;&gt;Node27 -->
<g id="edge74" class="edge">
<title>Node49&#45;&gt;Node27</title>
<path fill="none" stroke="#63b8ff" d="M1177.72,-164.75C1172.88,-157.42 1165.82,-146.73 1159.86,-137.7"/>
<polygon fill="#63b8ff" stroke="#63b8ff" points="1162.6,-135.5 1154.17,-129.09 1156.76,-139.36 1162.6,-135.5"/>
</g>
<!-- Node50&#45;&gt;Node31 -->
<g id="edge77" class="edge">
<title>Node50&#45;&gt;Node31</title>
<path fill="none" stroke="#63b8ff" d="M1481.17,-164.75C1480.91,-157.8 1480.53,-147.85 1480.2,-139.13"/>
<polygon fill="#63b8ff" stroke="#63b8ff" points="1483.7,-138.95 1479.82,-129.09 1476.7,-139.21 1483.7,-138.95"/>
</g>
<!-- Node50&#45;&gt;Node44 -->
<g id="edge78" class="edge">
<title>Node50&#45;&gt;Node44</title>
<path fill="none" stroke="#63b8ff" d="M1465.62,-164.78C1440.68,-151.4 1390.53,-125.7 1345.5,-110 1280.35,-87.29 1261.46,-90.61 1194.5,-74 1193.06,-73.64 1191.59,-73.28 1190.11,-72.9"/>
<polygon fill="#63b8ff" stroke="#63b8ff" points="1190.89,-69.49 1180.33,-70.41 1189.16,-76.27 1190.89,-69.49"/>
</g>
<!-- Node52&#45;&gt;Node26 -->
<g id="edge89" class="edge">
<title>Node52&#45;&gt;Node26</title>
<path fill="none" stroke="#63b8ff" d="M1384.28,-219.74C1383.52,-206.53 1380.35,-181.32 1367.5,-165 1335.89,-124.84 1314.07,-128.7 1266.5,-110 1241.99,-100.36 1174.04,-84.06 1130.67,-74.09"/>
<polygon fill="#63b8ff" stroke="#63b8ff" points="1131.27,-70.64 1120.74,-71.82 1129.71,-77.47 1131.27,-70.64"/>
</g>
<!-- Node52&#45;&gt;Node30 -->
<g id="edge82" class="edge">
<title>Node52&#45;&gt;Node30</title>
<path fill="none" stroke="#63b8ff" d="M1374.54,-219.98C1365.37,-212.15 1351.56,-200.34 1340.47,-190.86"/>
<polygon fill="#63b8ff" stroke="#63b8ff" points="1342.52,-188.01 1332.64,-184.17 1337.97,-193.33 1342.52,-188.01"/>
</g>
<!-- Node52&#45;&gt;Node31 -->
<g id="edge83" class="edge">
<title>Node52&#45;&gt;Node31</title>
<path fill="none" stroke="#63b8ff" d="M1406.5,-222.52C1409.85,-221.65 1413.26,-220.79 1416.5,-220 1489.02,-202.42 1533.73,-242.15 1580.5,-184 1599.9,-159.88 1562.23,-142.28 1527.51,-131.81"/>
<polygon fill="#63b8ff" stroke="#63b8ff" points="1528.42,-128.43 1517.84,-129.04 1526.49,-135.16 1528.42,-128.43"/>
</g>
<!-- Node52&#45;&gt;Node43 -->
<g id="edge87" class="edge">
<title>Node52&#45;&gt;Node43</title>
<path fill="none" stroke="#63b8ff" d="M1362.41,-222.98C1339.62,-216.48 1303.93,-203.97 1278.5,-184 1262.53,-171.46 1249.31,-152.18 1241,-138.16"/>
<polygon fill="#63b8ff" stroke="#63b8ff" points="1243.82,-136.03 1235.85,-129.05 1237.72,-139.47 1243.82,-136.03"/>
</g>
<!-- Node52&#45;&gt;Node45 -->
<g id="edge84" class="edge">
<title>Node52&#45;&gt;Node45</title>
<path fill="none" stroke="#63b8ff" d="M1406.8,-222.23C1410.04,-221.42 1413.35,-220.65 1416.5,-220 1524.3,-197.84 1572.24,-248.39 1661.5,-184 1676.34,-173.29 1684.72,-153.7 1689.15,-139.1"/>
<polygon fill="#63b8ff" stroke="#63b8ff" points="1692.61,-139.7 1691.81,-129.13 1685.85,-137.89 1692.61,-139.7"/>
</g>
<!-- Node52&#45;&gt;Node47 -->
<g id="edge85" class="edge">
<title>Node52&#45;&gt;Node47</title>
<path fill="none" stroke="#63b8ff" d="M1406.75,-221.35C1435.41,-212.15 1485.38,-196.1 1517.95,-185.63"/>
<polygon fill="#63b8ff" stroke="#63b8ff" points="1519.41,-188.84 1527.86,-182.45 1517.27,-182.18 1519.41,-188.84"/>
</g>
<!-- Node52&#45;&gt;Node49 -->
<g id="edge86" class="edge">
<title>Node52&#45;&gt;Node49</title>
<path fill="none" stroke="#63b8ff" d="M1362.47,-222.64C1359.13,-221.75 1355.72,-220.85 1352.5,-220 1309.44,-208.61 1260.18,-195.65 1226,-186.66"/>
<polygon fill="#63b8ff" stroke="#63b8ff" points="1226.47,-183.17 1215.9,-184.01 1224.69,-189.94 1226.47,-183.17"/>
</g>
<!-- Node52&#45;&gt;Node50 -->
<g id="edge88" class="edge">
<title>Node52&#45;&gt;Node50</title>
<path fill="none" stroke="#63b8ff" d="M1400.08,-219.98C1415.27,-211.69 1438.6,-198.94 1456.4,-189.22"/>
<polygon fill="#63b8ff" stroke="#63b8ff" points="1458.53,-192.04 1465.63,-184.17 1455.18,-185.89 1458.53,-192.04"/>
</g>
</g>
</svg>
