<?xml version="1.0" encoding="UTF-8" standalone="no"?>
<!DOCTYPE svg PUBLIC "-//W3C//DTD SVG 1.1//EN"
 "http://www.w3.org/Graphics/SVG/1.1/DTD/svg11.dtd">
<!-- Generated by graphviz version 2.43.0 (0)
 -->
<!-- Title: src/service/tables/secrets.h Pages: 1 -->
<svg width="1963pt" height="720pt"
 viewBox="0.00 0.00 1962.81 720.00" xmlns="http://www.w3.org/2000/svg" xmlns:xlink="http://www.w3.org/1999/xlink">
<g id="graph0" class="graph" transform="scale(1 1) rotate(0) translate(4 716)">
<title>src/service/tables/secrets.h</title>
<!-- Node1 -->
<g id="node1" class="node">
<title>Node1</title>
<g id="a_node1"><a xlink:title=" ">
<polygon fill="#999999" stroke="#666666" points="1289,-712 1187,-712 1187,-682 1289,-682 1289,-712"/>
<text text-anchor="start" x="1195" y="-700" font-family="Helvetica,sans-Serif" font-size="10.00">src/service/tables</text>
<text text-anchor="middle" x="1238" y="-689" font-family="Helvetica,sans-Serif" font-size="10.00">/secrets.h</text>
</a>
</g>
</g>
<!-- Node2 -->
<g id="node2" class="node">
<title>Node2</title>
<g id="a_node2"><a xlink:href="ledger__secret_8h.html" target="_top" xlink:title=" ">
<polygon fill="white" stroke="#666666" points="1306,-646 1170,-646 1170,-627 1306,-627 1306,-646"/>
<text text-anchor="middle" x="1238" y="-634" font-family="Helvetica,sans-Serif" font-size="10.00">src/node/ledger_secret.h</text>
</a>
</g>
</g>
<!-- Node1&#45;&gt;Node2 -->
<g id="edge1" class="edge">
<title>Node1&#45;&gt;Node2</title>
<path fill="none" stroke="#63b8ff" d="M1238,-671.75C1238,-662.72 1238,-653.03 1238,-646.27"/>
<polygon fill="#63b8ff" stroke="#63b8ff" points="1234.5,-671.84 1238,-681.84 1241.5,-671.84 1234.5,-671.84"/>
</g>
<!-- Node3 -->
<g id="node3" class="node">
<title>Node3</title>
<g id="a_node3"><a xlink:href="ledger__secrets_8h.html" target="_top" xlink:title=" ">
<polygon fill="white" stroke="#666666" points="1404.5,-591 1263.5,-591 1263.5,-572 1404.5,-572 1404.5,-591"/>
<text text-anchor="middle" x="1334" y="-579" font-family="Helvetica,sans-Serif" font-size="10.00">src/node/ledger_secrets.h</text>
</a>
</g>
</g>
<!-- Node1&#45;&gt;Node3 -->
<g id="edge70" class="edge">
<title>Node1&#45;&gt;Node3</title>
<path fill="none" stroke="#63b8ff" d="M1278.96,-676.74C1292.07,-668.83 1305.61,-658.54 1315,-646 1327.55,-629.24 1331.86,-604.21 1333.3,-591.15"/>
<polygon fill="#63b8ff" stroke="#63b8ff" points="1276.97,-673.84 1270.01,-681.83 1280.43,-679.93 1276.97,-673.84"/>
</g>
<!-- Node34 -->
<g id="node34" class="node">
<title>Node34</title>
<g id="a_node34"><a xlink:href="network__tables_8h.html" target="_top" xlink:title=" ">
<polygon fill="white" stroke="#666666" points="1079,-536 967,-536 967,-506 1079,-506 1079,-536"/>
<text text-anchor="start" x="975" y="-524" font-family="Helvetica,sans-Serif" font-size="10.00">src/service/network</text>
<text text-anchor="middle" x="1023" y="-513" font-family="Helvetica,sans-Serif" font-size="10.00">_tables.h</text>
</a>
</g>
</g>
<!-- Node1&#45;&gt;Node34 -->
<g id="edge71" class="edge">
<title>Node1&#45;&gt;Node34</title>
<path fill="none" stroke="#63b8ff" d="M1205.29,-676.35C1191.31,-667.54 1175.01,-656.74 1161,-646 1113.2,-609.36 1061.6,-560.08 1037.25,-536.18"/>
<polygon fill="#63b8ff" stroke="#63b8ff" points="1203.76,-679.52 1214.1,-681.82 1207.46,-673.57 1203.76,-679.52"/>
</g>
<!-- Node2&#45;&gt;Node3 -->
<g id="edge2" class="edge">
<title>Node2&#45;&gt;Node3</title>
<path fill="none" stroke="#63b8ff" d="M1262.52,-621.97C1280.06,-612.28 1303.17,-599.52 1318.3,-591.17"/>
<polygon fill="#63b8ff" stroke="#63b8ff" points="1260.49,-619.09 1253.42,-626.98 1263.87,-625.22 1260.49,-619.09"/>
</g>
<!-- Node4 -->
<g id="node4" class="node">
<title>Node4</title>
<g id="a_node4"><a xlink:href="node_2encryptor_8h.html" target="_top" xlink:title=" ">
<polygon fill="white" stroke="#666666" points="157,-266.5 41,-266.5 41,-247.5 157,-247.5 157,-266.5"/>
<text text-anchor="middle" x="99" y="-254.5" font-family="Helvetica,sans-Serif" font-size="10.00">src/node/encryptor.h</text>
</a>
</g>
</g>
<!-- Node3&#45;&gt;Node4 -->
<g id="edge3" class="edge">
<title>Node3&#45;&gt;Node4</title>
<path fill="none" stroke="#63b8ff" d="M1253.14,-581.01C975.04,-581.73 75,-574.85 75,-456 75,-456 75,-456 75,-388 75,-341.64 89.94,-287.5 96.25,-266.72"/>
<polygon fill="#63b8ff" stroke="#63b8ff" points="1253.17,-584.51 1263.16,-580.98 1253.15,-577.51 1253.17,-584.51"/>
</g>
<!-- Node5 -->
<g id="node5" class="node">
<title>Node5</title>
<g id="a_node5"><a xlink:href="historical__queries_8h.html" target="_top" xlink:title=" ">
<polygon fill="white" stroke="#666666" points="106,-206 0,-206 0,-176 106,-176 106,-206"/>
<text text-anchor="start" x="8" y="-194" font-family="Helvetica,sans-Serif" font-size="10.00">src/node/historical</text>
<text text-anchor="middle" x="53" y="-183" font-family="Helvetica,sans-Serif" font-size="10.00">_queries.h</text>
</a>
</g>
</g>
<!-- Node3&#45;&gt;Node5 -->
<g id="edge13" class="edge">
<title>Node3&#45;&gt;Node5</title>
<path fill="none" stroke="#63b8ff" d="M1253.28,-579.93C1002.07,-577.84 244.59,-568.83 139,-536 75.66,-516.3 13,-522.33 13,-456 13,-456 13,-456 13,-322 13,-278.31 33.89,-229.88 45.48,-206.37"/>
<polygon fill="#63b8ff" stroke="#63b8ff" points="1253.41,-583.44 1263.43,-580.02 1253.46,-576.44 1253.41,-583.44"/>
</g>
<!-- Node11 -->
<g id="node11" class="node">
<title>Node11</title>
<g id="a_node11"><a xlink:href="network__state_8h.html" target="_top" xlink:title=" ">
<polygon fill="white" stroke="#666666" points="1093,-464.5 953,-464.5 953,-445.5 1093,-445.5 1093,-464.5"/>
<text text-anchor="middle" x="1023" y="-452.5" font-family="Helvetica,sans-Serif" font-size="10.00">src/node/network_state.h</text>
</a>
</g>
</g>
<!-- Node3&#45;&gt;Node11 -->
<g id="edge14" class="edge">
<title>Node3&#45;&gt;Node11</title>
<path fill="none" stroke="#63b8ff" d="M1303.24,-568.19C1240.39,-543.03 1098.62,-486.27 1044.53,-464.62"/>
<polygon fill="#63b8ff" stroke="#63b8ff" points="1302.04,-571.48 1312.62,-571.94 1304.64,-564.98 1302.04,-571.48"/>
</g>
<!-- Node26 -->
<g id="node26" class="node">
<title>Node26</title>
<g id="a_node26"><a xlink:href="secret__broadcast_8h.html" target="_top" xlink:title=" ">
<polygon fill="white" stroke="#666666" points="1410.5,-398.5 1257.5,-398.5 1257.5,-379.5 1410.5,-379.5 1410.5,-398.5"/>
<text text-anchor="middle" x="1334" y="-386.5" font-family="Helvetica,sans-Serif" font-size="10.00">src/node/secret_broadcast.h</text>
</a>
</g>
</g>
<!-- Node3&#45;&gt;Node26 -->
<g id="edge62" class="edge">
<title>Node3&#45;&gt;Node26</title>
<path fill="none" stroke="#63b8ff" d="M1334,-561.75C1334,-521.43 1334,-427.75 1334,-398.73"/>
<polygon fill="#63b8ff" stroke="#63b8ff" points="1330.5,-561.82 1334,-571.82 1337.5,-561.82 1330.5,-561.82"/>
</g>
<!-- Node27 -->
<g id="node27" class="node">
<title>Node27</title>
<g id="a_node27"><a xlink:href="share__manager_8h.html" target="_top" xlink:title=" ">
<polygon fill="white" stroke="#666666" points="1650.5,-398.5 1505.5,-398.5 1505.5,-379.5 1650.5,-379.5 1650.5,-398.5"/>
<text text-anchor="middle" x="1578" y="-386.5" font-family="Helvetica,sans-Serif" font-size="10.00">src/node/share_manager.h</text>
</a>
</g>
</g>
<!-- Node3&#45;&gt;Node27 -->
<g id="edge63" class="edge">
<title>Node3&#45;&gt;Node27</title>
<path fill="none" stroke="#63b8ff" d="M1363.83,-567.86C1403.22,-550.15 1473.29,-514.99 1522,-470 1545.79,-448.03 1565.25,-414.31 1573.6,-398.6"/>
<polygon fill="#63b8ff" stroke="#63b8ff" points="1362.24,-564.74 1354.51,-571.99 1365.07,-571.14 1362.24,-564.74"/>
</g>
<!-- Node29 -->
<g id="node29" class="node">
<title>Node29</title>
<g id="a_node29"><a xlink:href="call__types_8h.html" target="_top" xlink:title=" ">
<polygon fill="white" stroke="#666666" points="1836.5,-464.5 1699.5,-464.5 1699.5,-445.5 1836.5,-445.5 1836.5,-464.5"/>
<text text-anchor="middle" x="1768" y="-452.5" font-family="Helvetica,sans-Serif" font-size="10.00">src/node/rpc/call_types.h</text>
</a>
</g>
</g>
<!-- Node3&#45;&gt;Node29 -->
<g id="edge51" class="edge">
<title>Node3&#45;&gt;Node29</title>
<path fill="none" stroke="#63b8ff" d="M1414.87,-578.64C1510.67,-575.13 1663.43,-565.02 1712,-536 1740.38,-519.04 1758.02,-481.5 1764.81,-464.57"/>
<polygon fill="#63b8ff" stroke="#63b8ff" points="1414.5,-575.15 1404.63,-579 1414.75,-582.15 1414.5,-575.15"/>
</g>
<!-- Node32 -->
<g id="node32" class="node">
<title>Node32</title>
<g id="a_node32"><a xlink:href="node__call__types_8h.html" target="_top" xlink:title=" ">
<polygon fill="white" stroke="#666666" points="1702.5,-536 1577.5,-536 1577.5,-506 1702.5,-506 1702.5,-536"/>
<text text-anchor="start" x="1585.5" y="-524" font-family="Helvetica,sans-Serif" font-size="10.00">src/node/rpc/node_call</text>
<text text-anchor="middle" x="1640" y="-513" font-family="Helvetica,sans-Serif" font-size="10.00">_types.h</text>
</a>
</g>
</g>
<!-- Node3&#45;&gt;Node32 -->
<g id="edge60" class="edge">
<title>Node3&#45;&gt;Node32</title>
<path fill="none" stroke="#63b8ff" d="M1388.38,-570.1C1441.35,-559.98 1521.79,-544.6 1577.4,-533.97"/>
<polygon fill="#63b8ff" stroke="#63b8ff" points="1387.66,-566.68 1378.5,-571.99 1388.97,-573.55 1387.66,-566.68"/>
</g>
<!-- Node33 -->
<g id="node33" class="node">
<title>Node33</title>
<g id="a_node33"><a xlink:href="internal__tables__access_8h.html" target="_top" xlink:title=" ">
<polygon fill="white" stroke="#666666" points="1513,-470 1403,-470 1403,-440 1513,-440 1513,-470"/>
<text text-anchor="start" x="1411" y="-458" font-family="Helvetica,sans-Serif" font-size="10.00">src/service/internal</text>
<text text-anchor="middle" x="1458" y="-447" font-family="Helvetica,sans-Serif" font-size="10.00">_tables_access.h</text>
</a>
</g>
</g>
<!-- Node3&#45;&gt;Node33 -->
<g id="edge64" class="edge">
<title>Node3&#45;&gt;Node33</title>
<path fill="none" stroke="#63b8ff" d="M1349.89,-564.54C1374.3,-540.04 1420.62,-493.53 1443.9,-470.16"/>
<polygon fill="#63b8ff" stroke="#63b8ff" points="1347.1,-562.39 1342.52,-571.94 1352.06,-567.33 1347.1,-562.39"/>
</g>
<!-- Node4&#45;&gt;Node5 -->
<g id="edge4" class="edge">
<title>Node4&#45;&gt;Node5</title>
<path fill="none" stroke="#63b8ff" d="M86.95,-239.24C79.61,-229.02 70.32,-216.1 63.32,-206.36"/>
<polygon fill="#63b8ff" stroke="#63b8ff" points="84.12,-241.29 92.8,-247.37 89.8,-237.21 84.12,-241.29"/>
</g>
<!-- Node9 -->
<g id="node9" class="node">
<title>Node9</title>
<g id="a_node9"><a xlink:href="node__state_8h.html" target="_top" xlink:title=" ">
<polygon fill="white" stroke="#666666" points="873,-200.5 749,-200.5 749,-181.5 873,-181.5 873,-200.5"/>
<text text-anchor="middle" x="811" y="-188.5" font-family="Helvetica,sans-Serif" font-size="10.00">src/node/node_state.h</text>
</a>
</g>
</g>
<!-- Node4&#45;&gt;Node9 -->
<g id="edge9" class="edge">
<title>Node4&#45;&gt;Node9</title>
<path fill="none" stroke="#63b8ff" d="M167.49,-248.07C186.13,-246 206.33,-243.83 225,-242 415.79,-223.26 641.92,-205.12 748.94,-196.77"/>
<polygon fill="#63b8ff" stroke="#63b8ff" points="166.86,-244.62 157.31,-249.21 167.63,-251.57 166.86,-244.62"/>
</g>
<!-- Node6 -->
<g id="node6" class="node">
<title>Node6</title>
<g id="a_node6"><a xlink:href="src_2enclave_2enclave_8h.html" target="_top" xlink:title=" ">
<polygon fill="white" stroke="#666666" points="872,-74 750,-74 750,-55 872,-55 872,-74"/>
<text text-anchor="middle" x="811" y="-62" font-family="Helvetica,sans-Serif" font-size="10.00">src/enclave/enclave.h</text>
</a>
</g>
</g>
<!-- Node5&#45;&gt;Node6 -->
<g id="edge5" class="edge">
<title>Node5&#45;&gt;Node6</title>
<path fill="none" stroke="#63b8ff" d="M32.97,-167.79C19.55,-150.19 6.88,-126 22,-110 46.9,-83.66 568.58,-70.48 749.7,-66.68"/>
<polygon fill="#63b8ff" stroke="#63b8ff" points="30.47,-170.27 39.49,-175.83 35.91,-165.86 30.47,-170.27"/>
</g>
<!-- Node8 -->
<g id="node8" class="node">
<title>Node8</title>
<g id="a_node8"><a xlink:href="historical__transaction__fetcher_8h.html" target="_top" xlink:title=" ">
<polygon fill="white" stroke="#666666" points="156.5,-140 31.5,-140 31.5,-110 156.5,-110 156.5,-140"/>
<text text-anchor="start" x="39.5" y="-128" font-family="Helvetica,sans-Serif" font-size="10.00">src/indexing/historical</text>
<text text-anchor="middle" x="94" y="-117" font-family="Helvetica,sans-Serif" font-size="10.00">_transaction_fetcher.h</text>
</a>
</g>
</g>
<!-- Node5&#45;&gt;Node8 -->
<g id="edge7" class="edge">
<title>Node5&#45;&gt;Node8</title>
<path fill="none" stroke="#63b8ff" d="M67.58,-167.24C73.36,-158.21 79.84,-148.11 84.93,-140.16"/>
<polygon fill="#63b8ff" stroke="#63b8ff" points="64.55,-165.49 62.1,-175.8 70.44,-169.26 64.55,-165.49"/>
</g>
<!-- Node7 -->
<g id="node7" class="node">
<title>Node7</title>
<g id="a_node7"><a xlink:href="enclave_2main_8cpp.html" target="_top" xlink:title=" ">
<polygon fill="white" stroke="#666666" points="871,-19 751,-19 751,0 871,0 871,-19"/>
<text text-anchor="middle" x="811" y="-7" font-family="Helvetica,sans-Serif" font-size="10.00">src/enclave/main.cpp</text>
</a>
</g>
</g>
<!-- Node6&#45;&gt;Node7 -->
<g id="edge6" class="edge">
<title>Node6&#45;&gt;Node7</title>
<path fill="none" stroke="#63b8ff" d="M811,-44.66C811,-35.93 811,-25.99 811,-19.09"/>
<polygon fill="#63b8ff" stroke="#63b8ff" points="807.5,-44.75 811,-54.75 814.5,-44.75 807.5,-44.75"/>
</g>
<!-- Node8&#45;&gt;Node6 -->
<g id="edge8" class="edge">
<title>Node8&#45;&gt;Node6</title>
<path fill="none" stroke="#63b8ff" d="M166.54,-110.58C168.04,-110.38 169.53,-110.18 171,-110 382.64,-83.48 635.77,-71.74 749.89,-67.5"/>
<polygon fill="#63b8ff" stroke="#63b8ff" points="165.92,-107.14 156.53,-112.04 166.92,-114.06 165.92,-107.14"/>
</g>
<!-- Node9&#45;&gt;Node6 -->
<g id="edge10" class="edge">
<title>Node9&#45;&gt;Node6</title>
<path fill="none" stroke="#63b8ff" d="M797.14,-172.98C790.56,-163.8 783.4,-151.93 780,-140 776.35,-127.18 776.01,-122.72 780,-110 784.4,-95.99 794.95,-82.53 802.52,-74.15"/>
<polygon fill="#63b8ff" stroke="#63b8ff" points="794.52,-175.33 803.36,-181.16 800.09,-171.09 794.52,-175.33"/>
</g>
<!-- Node10 -->
<g id="node10" class="node">
<title>Node10</title>
<g id="a_node10"><a xlink:href="gov__effects_8h.html" target="_top" xlink:title=" ">
<polygon fill="white" stroke="#666666" points="933,-134.5 789,-134.5 789,-115.5 933,-115.5 933,-134.5"/>
<text text-anchor="middle" x="861" y="-122.5" font-family="Helvetica,sans-Serif" font-size="10.00">src/node/rpc/gov_effects.h</text>
</a>
</g>
</g>
<!-- Node9&#45;&gt;Node10 -->
<g id="edge11" class="edge">
<title>Node9&#45;&gt;Node10</title>
<path fill="none" stroke="#63b8ff" d="M824.07,-173.27C833.66,-160.99 846.31,-144.8 854.04,-134.91"/>
<polygon fill="#63b8ff" stroke="#63b8ff" points="821.14,-171.33 817.74,-181.37 826.66,-175.64 821.14,-171.33"/>
</g>
<!-- Node10&#45;&gt;Node6 -->
<g id="edge12" class="edge">
<title>Node10&#45;&gt;Node6</title>
<path fill="none" stroke="#63b8ff" d="M846.86,-107.45C837.6,-96.62 825.88,-82.91 818.41,-74.17"/>
<polygon fill="#63b8ff" stroke="#63b8ff" points="844.46,-110.04 853.62,-115.37 849.79,-105.49 844.46,-110.04"/>
</g>
<!-- Node11&#45;&gt;Node6 -->
<g id="edge15" class="edge">
<title>Node11&#45;&gt;Node6</title>
<path fill="none" stroke="#63b8ff" d="M942.92,-451.99C805.3,-447.72 529.95,-435.45 439,-404 377.72,-382.81 317,-388.84 317,-324 317,-324 317,-324 317,-190 317,-101.66 617.76,-75.38 749.93,-68.1"/>
<polygon fill="#63b8ff" stroke="#63b8ff" points="942.88,-455.49 952.99,-452.29 943.1,-448.49 942.88,-455.49"/>
</g>
<!-- Node11&#45;&gt;Node9 -->
<g id="edge40" class="edge">
<title>Node11&#45;&gt;Node9</title>
<path fill="none" stroke="#63b8ff" d="M942.49,-452.92C814.81,-450.12 572.4,-440.07 495,-404 422.86,-370.38 400.76,-346.95 374,-272 369.52,-259.44 365.12,-251.95 374,-242 398.5,-214.54 633.84,-200.09 748.64,-194.62"/>
<polygon fill="#63b8ff" stroke="#63b8ff" points="942.53,-456.42 952.6,-453.13 942.68,-449.42 942.53,-456.42"/>
</g>
<!-- Node12 -->
<g id="node12" class="node">
<title>Node12</title>
<g id="a_node12"><a xlink:href="wrap_8h.html" target="_top" xlink:title=" ">
<polygon fill="white" stroke="#666666" points="1014,-398.5 936,-398.5 936,-379.5 1014,-379.5 1014,-398.5"/>
<text text-anchor="middle" x="975" y="-386.5" font-family="Helvetica,sans-Serif" font-size="10.00">src/js/wrap.h</text>
</a>
</g>
</g>
<!-- Node11&#45;&gt;Node12 -->
<g id="edge16" class="edge">
<title>Node11&#45;&gt;Node12</title>
<path fill="none" stroke="#63b8ff" d="M1010.45,-437.27C1001.24,-424.99 989.1,-408.8 981.68,-398.91"/>
<polygon fill="#63b8ff" stroke="#63b8ff" points="1007.73,-439.47 1016.53,-445.37 1013.33,-435.27 1007.73,-439.47"/>
</g>
<!-- Node21 -->
<g id="node21" class="node">
<title>Node21</title>
<g id="a_node21"><a xlink:href="node__frontend_8h.html" target="_top" xlink:title=" ">
<polygon fill="white" stroke="#666666" points="1533,-332.5 1375,-332.5 1375,-313.5 1533,-313.5 1533,-332.5"/>
<text text-anchor="middle" x="1454" y="-320.5" font-family="Helvetica,sans-Serif" font-size="10.00">src/node/rpc/node_frontend.h</text>
</a>
</g>
</g>
<!-- Node11&#45;&gt;Node21 -->
<g id="edge41" class="edge">
<title>Node11&#45;&gt;Node21</title>
<path fill="none" stroke="#63b8ff" d="M1080.97,-443.36C1117.64,-435.37 1165.41,-422.57 1205,-404 1226.1,-394.1 1226.76,-383.58 1248,-374 1294.8,-352.9 1351.77,-339.94 1393.92,-332.53"/>
<polygon fill="#63b8ff" stroke="#63b8ff" points="1080,-439.99 1070.94,-445.49 1081.45,-446.84 1080,-439.99"/>
</g>
<!-- Node23 -->
<g id="node23" class="node">
<title>Node23</title>
<g id="a_node23"><a xlink:href="acme__challenge__frontend_8h.html" target="_top" xlink:title=" ">
<polygon fill="white" stroke="#666666" points="251,-404 111,-404 111,-374 251,-374 251,-404"/>
<text text-anchor="start" x="119" y="-392" font-family="Helvetica,sans-Serif" font-size="10.00">src/node/acme_challenge</text>
<text text-anchor="middle" x="181" y="-381" font-family="Helvetica,sans-Serif" font-size="10.00">_frontend.h</text>
</a>
</g>
</g>
<!-- Node11&#45;&gt;Node23 -->
<g id="edge36" class="edge">
<title>Node11&#45;&gt;Node23</title>
<path fill="none" stroke="#63b8ff" d="M942.8,-449.61C809.73,-442.06 534.96,-425.35 303,-404 286.23,-402.46 268.19,-400.53 251.26,-398.61"/>
<polygon fill="#63b8ff" stroke="#63b8ff" points="942.72,-453.11 952.91,-450.18 943.12,-446.12 942.72,-453.11"/>
</g>
<!-- Node25 -->
<g id="node25" class="node">
<title>Node25</title>
<g id="a_node25"><a xlink:href="user__frontend_8h.html" target="_top" xlink:title=" ">
<polygon fill="white" stroke="#666666" points="1421.5,-200.5 1266.5,-200.5 1266.5,-181.5 1421.5,-181.5 1421.5,-200.5"/>
<text text-anchor="middle" x="1344" y="-188.5" font-family="Helvetica,sans-Serif" font-size="10.00">src/node/rpc/user_frontend.h</text>
</a>
</g>
</g>
<!-- Node11&#45;&gt;Node25 -->
<g id="edge42" class="edge">
<title>Node11&#45;&gt;Node25</title>
<path fill="none" stroke="#63b8ff" d="M1049.65,-441.1C1084.75,-424.38 1148.65,-394.9 1205,-374 1256.41,-354.93 1275.21,-364.87 1323,-338 1342.21,-327.2 1387.99,-292.11 1397,-272 1402.45,-259.83 1402.28,-254.24 1397,-242 1389.18,-223.88 1371.21,-209.28 1358.37,-200.63"/>
<polygon fill="#63b8ff" stroke="#63b8ff" points="1048.05,-437.98 1040.54,-445.46 1051.07,-444.3 1048.05,-437.98"/>
</g>
<!-- Node11&#45;&gt;Node26 -->
<g id="edge44" class="edge">
<title>Node11&#45;&gt;Node26</title>
<path fill="none" stroke="#63b8ff" d="M1074.44,-443.41C1135.56,-430.84 1236.31,-410.1 1292.63,-398.51"/>
<polygon fill="#63b8ff" stroke="#63b8ff" points="1073.71,-439.99 1064.62,-445.44 1075.12,-446.85 1073.71,-439.99"/>
</g>
<!-- Node11&#45;&gt;Node27 -->
<g id="edge46" class="edge">
<title>Node11&#45;&gt;Node27</title>
<path fill="none" stroke="#63b8ff" d="M1103.18,-444.75C1211,-432.32 1401.17,-410.39 1505.12,-398.4"/>
<polygon fill="#63b8ff" stroke="#63b8ff" points="1102.54,-441.3 1093.01,-445.93 1103.35,-448.26 1102.54,-441.3"/>
</g>
<!-- Node28 -->
<g id="node28" class="node">
<title>Node28</title>
<g id="a_node28"><a xlink:href="snapshotter_8h.html" target="_top" xlink:title=" ">
<polygon fill="white" stroke="#666666" points="510.5,-266.5 383.5,-266.5 383.5,-247.5 510.5,-247.5 510.5,-266.5"/>
<text text-anchor="middle" x="447" y="-254.5" font-family="Helvetica,sans-Serif" font-size="10.00">src/node/snapshotter.h</text>
</a>
</g>
</g>
<!-- Node11&#45;&gt;Node28 -->
<g id="edge49" class="edge">
<title>Node11&#45;&gt;Node28</title>
<path fill="none" stroke="#63b8ff" d="M942.62,-450.17C797.91,-441.41 502.69,-414.4 440,-338 423.02,-317.31 435.45,-282.65 442.72,-266.62"/>
<polygon fill="#63b8ff" stroke="#63b8ff" points="942.59,-453.67 952.78,-450.77 943,-446.69 942.59,-453.67"/>
</g>
<!-- Node12&#45;&gt;Node6 -->
<g id="edge18" class="edge">
<title>Node12&#45;&gt;Node6</title>
<path fill="none" stroke="#63b8ff" d="M1024.29,-382.54C1099.95,-373.65 1237.54,-355.3 1252,-338 1260.55,-327.77 1258.41,-319.69 1252,-308 1169.19,-156.85 952.18,-94.66 856.93,-74.07"/>
<polygon fill="#63b8ff" stroke="#63b8ff" points="1023.57,-379.09 1014.04,-383.73 1024.38,-386.05 1023.57,-379.09"/>
</g>
<!-- Node12&#45;&gt;Node9 -->
<g id="edge29" class="edge">
<title>Node12&#45;&gt;Node9</title>
<path fill="none" stroke="#63b8ff" d="M925.86,-387C801.46,-383.97 481.68,-372.84 450,-338 441.03,-328.14 442.15,-318.77 450,-308 469.92,-280.67 690.48,-222.47 776.72,-200.57"/>
<polygon fill="#63b8ff" stroke="#63b8ff" points="925.8,-390.5 935.88,-387.24 925.96,-383.5 925.8,-390.5"/>
</g>
<!-- Node13 -->
<g id="node13" class="node">
<title>Node13</title>
<g id="a_node13"><a xlink:href="js__generic__base_8cpp.html" target="_top" xlink:title=" ">
<polygon fill="white" stroke="#666666" points="1243,-338 1125,-338 1125,-308 1243,-308 1243,-338"/>
<text text-anchor="start" x="1133" y="-326" font-family="Helvetica,sans-Serif" font-size="10.00">src/apps/js_generic</text>
<text text-anchor="middle" x="1184" y="-315" font-family="Helvetica,sans-Serif" font-size="10.00">/js_generic_base.cpp</text>
</a>
</g>
</g>
<!-- Node12&#45;&gt;Node13 -->
<g id="edge17" class="edge">
<title>Node12&#45;&gt;Node13</title>
<path fill="none" stroke="#63b8ff" d="M1013.06,-376.35C1048.18,-365.59 1100.43,-349.59 1137.9,-338.12"/>
<polygon fill="#63b8ff" stroke="#63b8ff" points="1011.72,-373.09 1003.19,-379.37 1013.77,-379.79 1011.72,-373.09"/>
</g>
<!-- Node14 -->
<g id="node14" class="node">
<title>Node14</title>
<g id="a_node14"><a xlink:href="consensus_8cpp.html" target="_top" xlink:title=" ">
<polygon fill="white" stroke="#666666" points="575,-332.5 459,-332.5 459,-313.5 575,-313.5 575,-332.5"/>
<text text-anchor="middle" x="517" y="-320.5" font-family="Helvetica,sans-Serif" font-size="10.00">src/js/consensus.cpp</text>
</a>
</g>
</g>
<!-- Node12&#45;&gt;Node14 -->
<g id="edge19" class="edge">
<title>Node12&#45;&gt;Node14</title>
<path fill="none" stroke="#63b8ff" d="M925.72,-382.96C851.39,-375.07 706.3,-358.57 584,-338 574.63,-336.42 564.57,-334.47 555.17,-332.52"/>
<polygon fill="#63b8ff" stroke="#63b8ff" points="925.41,-386.45 935.72,-384.01 926.15,-379.48 925.41,-386.45"/>
</g>
<!-- Node15 -->
<g id="node15" class="node">
<title>Node15</title>
<g id="a_node15"><a xlink:href="wrap_8cpp.html" target="_top" xlink:title=" ">
<polygon fill="white" stroke="#666666" points="852.5,-266.5 763.5,-266.5 763.5,-247.5 852.5,-247.5 852.5,-266.5"/>
<text text-anchor="middle" x="808" y="-254.5" font-family="Helvetica,sans-Serif" font-size="10.00">src/js/wrap.cpp</text>
</a>
</g>
</g>
<!-- Node12&#45;&gt;Node15 -->
<g id="edge28" class="edge">
<title>Node12&#45;&gt;Node15</title>
<path fill="none" stroke="#63b8ff" d="M969.29,-369.7C962.85,-351.79 950.76,-324.81 932,-308 908.23,-286.71 874.22,-273.86 847.83,-266.53"/>
<polygon fill="#63b8ff" stroke="#63b8ff" points="966.01,-370.92 972.51,-379.29 972.64,-368.69 966.01,-370.92"/>
</g>
<!-- Node16 -->
<g id="node16" class="node">
<title>Node16</title>
<g id="a_node16"><a xlink:href="conv_8cpp.html" target="_top" xlink:title=" ">
<polygon fill="white" stroke="#666666" points="681,-332.5 593,-332.5 593,-313.5 681,-313.5 681,-332.5"/>
<text text-anchor="middle" x="637" y="-320.5" font-family="Helvetica,sans-Serif" font-size="10.00">src/js/conv.cpp</text>
</a>
</g>
</g>
<!-- Node12&#45;&gt;Node16 -->
<g id="edge21" class="edge">
<title>Node12&#45;&gt;Node16</title>
<path fill="none" stroke="#63b8ff" d="M925.43,-380.61C868.37,-371.8 771.99,-355.99 690,-338 682.66,-336.39 674.8,-334.44 667.44,-332.51"/>
<polygon fill="#63b8ff" stroke="#63b8ff" points="925.19,-384.11 935.61,-382.17 926.26,-377.19 925.19,-384.11"/>
</g>
<!-- Node17 -->
<g id="node17" class="node">
<title>Node17</title>
<g id="a_node17"><a xlink:href="crypto_8cpp.html" target="_top" xlink:title=" ">
<polygon fill="white" stroke="#666666" points="795,-332.5 699,-332.5 699,-313.5 795,-313.5 795,-332.5"/>
<text text-anchor="middle" x="747" y="-320.5" font-family="Helvetica,sans-Serif" font-size="10.00">src/js/crypto.cpp</text>
</a>
</g>
</g>
<!-- Node12&#45;&gt;Node17 -->
<g id="edge23" class="edge">
<title>Node12&#45;&gt;Node17</title>
<path fill="none" stroke="#63b8ff" d="M934.54,-376.64C889.62,-364.03 818.13,-343.97 777.63,-332.6"/>
<polygon fill="#63b8ff" stroke="#63b8ff" points="933.68,-380.04 944.25,-379.37 935.57,-373.3 933.68,-380.04"/>
</g>
<!-- Node18 -->
<g id="node18" class="node">
<title>Node18</title>
<g id="a_node18"><a xlink:href="historical_8cpp.html" target="_top" xlink:title=" ">
<polygon fill="white" stroke="#666666" points="923,-332.5 813,-332.5 813,-313.5 923,-313.5 923,-332.5"/>
<text text-anchor="middle" x="868" y="-320.5" font-family="Helvetica,sans-Serif" font-size="10.00">src/js/historical.cpp</text>
</a>
</g>
</g>
<!-- Node12&#45;&gt;Node18 -->
<g id="edge25" class="edge">
<title>Node12&#45;&gt;Node18</title>
<path fill="none" stroke="#63b8ff" d="M951.91,-374.19C930.85,-361.59 900.39,-343.37 882.54,-332.7"/>
<polygon fill="#63b8ff" stroke="#63b8ff" points="950.19,-377.24 960.57,-379.37 953.78,-371.23 950.19,-377.24"/>
</g>
<!-- Node19 -->
<g id="node19" class="node">
<title>Node19</title>
<g id="a_node19"><a xlink:href="openenclave_8cpp.html" target="_top" xlink:title=" ">
<polygon fill="white" stroke="#666666" points="1107,-332.5 979,-332.5 979,-313.5 1107,-313.5 1107,-332.5"/>
<text text-anchor="middle" x="1043" y="-320.5" font-family="Helvetica,sans-Serif" font-size="10.00">src/js/openenclave.cpp</text>
</a>
</g>
</g>
<!-- Node12&#45;&gt;Node19 -->
<g id="edge27" class="edge">
<title>Node12&#45;&gt;Node19</title>
<path fill="none" stroke="#63b8ff" d="M991.65,-372.33C1004.81,-359.94 1022.72,-343.09 1033.54,-332.91"/>
<polygon fill="#63b8ff" stroke="#63b8ff" points="989.05,-369.97 984.17,-379.37 993.85,-375.06 989.05,-369.97"/>
</g>
<!-- Node20 -->
<g id="node20" class="node">
<title>Node20</title>
<g id="a_node20"><a xlink:href="member__frontend_8h.html" target="_top" xlink:title=" ">
<polygon fill="white" stroke="#666666" points="1747,-338 1627,-338 1627,-308 1747,-308 1747,-338"/>
<text text-anchor="start" x="1635" y="-326" font-family="Helvetica,sans-Serif" font-size="10.00">src/node/rpc/member</text>
<text text-anchor="middle" x="1687" y="-315" font-family="Helvetica,sans-Serif" font-size="10.00">_frontend.h</text>
</a>
</g>
</g>
<!-- Node12&#45;&gt;Node20 -->
<g id="edge30" class="edge">
<title>Node12&#45;&gt;Node20</title>
<path fill="none" stroke="#63b8ff" d="M1024.44,-383.78C1122.94,-375.34 1350.69,-355.67 1542,-338 1569.83,-335.43 1600.65,-332.47 1626.69,-329.94"/>
<polygon fill="#63b8ff" stroke="#63b8ff" points="1023.86,-380.32 1014.19,-384.66 1024.45,-387.29 1023.86,-380.32"/>
</g>
<!-- Node12&#45;&gt;Node21 -->
<g id="edge32" class="edge">
<title>Node12&#45;&gt;Node21</title>
<path fill="none" stroke="#63b8ff" d="M1024.11,-381.44C1111.43,-369.77 1293.57,-345.44 1390.35,-332.5"/>
<polygon fill="#63b8ff" stroke="#63b8ff" points="1023.65,-377.97 1014.2,-382.76 1024.57,-384.91 1023.65,-377.97"/>
</g>
<!-- Node14&#45;&gt;Node15 -->
<g id="edge20" class="edge">
<title>Node14&#45;&gt;Node15</title>
<path fill="none" stroke="#63b8ff" d="M565.85,-311.26C623.1,-298.67 716.81,-278.06 769.29,-266.51"/>
<polygon fill="#63b8ff" stroke="#63b8ff" points="564.96,-307.87 555.94,-313.44 566.46,-314.71 564.96,-307.87"/>
</g>
<!-- Node16&#45;&gt;Node15 -->
<g id="edge22" class="edge">
<title>Node16&#45;&gt;Node15</title>
<path fill="none" stroke="#63b8ff" d="M669.49,-309.84C703.28,-297.2 755.29,-277.73 785.03,-266.6"/>
<polygon fill="#63b8ff" stroke="#63b8ff" points="668.2,-306.59 660.06,-313.37 670.65,-313.14 668.2,-306.59"/>
</g>
<!-- Node17&#45;&gt;Node15 -->
<g id="edge24" class="edge">
<title>Node17&#45;&gt;Node15</title>
<path fill="none" stroke="#63b8ff" d="M762.27,-305.98C774.05,-293.62 789.9,-276.99 799.51,-266.91"/>
<polygon fill="#63b8ff" stroke="#63b8ff" points="759.59,-303.72 755.23,-313.37 764.66,-308.54 759.59,-303.72"/>
</g>
<!-- Node18&#45;&gt;Node15 -->
<g id="edge26" class="edge">
<title>Node18&#45;&gt;Node15</title>
<path fill="none" stroke="#63b8ff" d="M852.98,-305.98C841.4,-293.62 825.8,-276.99 816.35,-266.91"/>
<polygon fill="#63b8ff" stroke="#63b8ff" points="850.52,-308.47 859.91,-313.37 855.62,-303.68 850.52,-308.47"/>
</g>
<!-- Node20&#45;&gt;Node6 -->
<g id="edge31" class="edge">
<title>Node20&#45;&gt;Node6</title>
<path fill="none" stroke="#63b8ff" d="M1665.79,-300.57C1648.27,-283.52 1622.25,-259.67 1597,-242 1495.65,-171.1 1470.59,-145.15 1352,-110 1263.56,-83.79 994.06,-71.64 872.1,-67.38"/>
<polygon fill="#63b8ff" stroke="#63b8ff" points="1663.63,-303.35 1673.21,-307.88 1668.55,-298.37 1663.63,-303.35"/>
</g>
<!-- Node21&#45;&gt;Node6 -->
<g id="edge33" class="edge">
<title>Node21&#45;&gt;Node6</title>
<path fill="none" stroke="#63b8ff" d="M1456.3,-303.41C1458.97,-273.4 1459.83,-213.82 1431,-176 1387.83,-119.36 1353.83,-128.24 1285,-110 1140.59,-71.73 963.81,-65.31 872.36,-64.85"/>
<polygon fill="#63b8ff" stroke="#63b8ff" points="1452.82,-303.04 1455.25,-313.36 1459.78,-303.78 1452.82,-303.04"/>
</g>
<!-- Node22 -->
<g id="node22" class="node">
<title>Node22</title>
<g id="a_node22"><a xlink:href="jwt__key__auto__refresh_8h.html" target="_top" xlink:title=" ">
<polygon fill="white" stroke="#666666" points="1387.5,-272 1262.5,-272 1262.5,-242 1387.5,-242 1387.5,-272"/>
<text text-anchor="start" x="1270.5" y="-260" font-family="Helvetica,sans-Serif" font-size="10.00">src/node/jwt_key_auto</text>
<text text-anchor="middle" x="1325" y="-249" font-family="Helvetica,sans-Serif" font-size="10.00">_refresh.h</text>
</a>
</g>
</g>
<!-- Node21&#45;&gt;Node22 -->
<g id="edge34" class="edge">
<title>Node21&#45;&gt;Node22</title>
<path fill="none" stroke="#63b8ff" d="M1427.37,-308.79C1405.8,-298.09 1375.49,-283.05 1353.45,-272.12"/>
<polygon fill="#63b8ff" stroke="#63b8ff" points="1426.09,-312.06 1436.6,-313.37 1429.2,-305.79 1426.09,-312.06"/>
</g>
<!-- Node22&#45;&gt;Node9 -->
<g id="edge35" class="edge">
<title>Node22&#45;&gt;Node9</title>
<path fill="none" stroke="#63b8ff" d="M1252.33,-246.95C1150.87,-234.32 968.52,-211.61 873.08,-199.73"/>
<polygon fill="#63b8ff" stroke="#63b8ff" points="1252.13,-250.45 1262.49,-248.22 1253,-243.51 1252.13,-250.45"/>
</g>
<!-- Node23&#45;&gt;Node6 -->
<g id="edge37" class="edge">
<title>Node23&#45;&gt;Node6</title>
<path fill="none" stroke="#63b8ff" d="M152.9,-367.32C144.18,-359.25 135.65,-349.23 131,-338 125.9,-325.68 125.98,-320.35 131,-308 139.39,-287.32 151.01,-288.53 166,-272 229.35,-202.15 219.28,-153.38 303,-110 379.35,-70.44 632.32,-65.29 749.91,-65.11"/>
<polygon fill="#63b8ff" stroke="#63b8ff" points="150.65,-370 160.51,-373.89 155.23,-364.71 150.65,-370"/>
</g>
<!-- Node24 -->
<g id="node24" class="node">
<title>Node24</title>
<g id="a_node24"><a xlink:href="ccf__acme__client_8h.html" target="_top" xlink:title=" ">
<polygon fill="white" stroke="#666666" points="289.5,-332.5 140.5,-332.5 140.5,-313.5 289.5,-313.5 289.5,-332.5"/>
<text text-anchor="middle" x="215" y="-320.5" font-family="Helvetica,sans-Serif" font-size="10.00">src/node/ccf_acme_client.h</text>
</a>
</g>
</g>
<!-- Node23&#45;&gt;Node24 -->
<g id="edge38" class="edge">
<title>Node23&#45;&gt;Node24</title>
<path fill="none" stroke="#63b8ff" d="M193.25,-364.95C199.16,-353.81 205.91,-341.11 210.3,-332.84"/>
<polygon fill="#63b8ff" stroke="#63b8ff" points="190.15,-363.32 188.55,-373.8 196.33,-366.61 190.15,-363.32"/>
</g>
<!-- Node24&#45;&gt;Node9 -->
<g id="edge39" class="edge">
<title>Node24&#45;&gt;Node9</title>
<path fill="none" stroke="#63b8ff" d="M232.84,-306.85C256.06,-288.08 298.7,-256.77 341,-242 414.79,-216.24 639.02,-201.13 748.93,-195.09"/>
<polygon fill="#63b8ff" stroke="#63b8ff" points="230.42,-304.31 224.93,-313.37 234.87,-309.71 230.42,-304.31"/>
</g>
<!-- Node25&#45;&gt;Node6 -->
<g id="edge43" class="edge">
<title>Node25&#45;&gt;Node6</title>
<path fill="none" stroke="#63b8ff" d="M1330.25,-173.78C1313.13,-154.84 1281.97,-124.29 1248,-110 1181.75,-82.14 976.13,-71.18 872.3,-67.34"/>
<polygon fill="#63b8ff" stroke="#63b8ff" points="1327.66,-176.13 1336.89,-181.33 1332.91,-171.51 1327.66,-176.13"/>
</g>
<!-- Node26&#45;&gt;Node9 -->
<g id="edge45" class="edge">
<title>Node26&#45;&gt;Node9</title>
<path fill="none" stroke="#63b8ff" d="M1321.34,-371.27C1306.64,-353.03 1280.71,-324.25 1252,-308 1128.68,-238.19 962.21,-209.29 873.22,-198.22"/>
<polygon fill="#63b8ff" stroke="#63b8ff" points="1318.69,-373.57 1327.62,-379.29 1324.2,-369.26 1318.69,-373.57"/>
</g>
<!-- Node27&#45;&gt;Node9 -->
<g id="edge47" class="edge">
<title>Node27&#45;&gt;Node9</title>
<path fill="none" stroke="#63b8ff" d="M1584.47,-369.79C1594.14,-338.94 1607.91,-276.42 1575,-242 1550.86,-216.75 1051.04,-199.25 873.17,-193.8"/>
<polygon fill="#63b8ff" stroke="#63b8ff" points="1581.15,-368.69 1581.31,-379.28 1587.79,-370.9 1581.15,-368.69"/>
</g>
<!-- Node27&#45;&gt;Node20 -->
<g id="edge48" class="edge">
<title>Node27&#45;&gt;Node20</title>
<path fill="none" stroke="#63b8ff" d="M1601.49,-374.21C1619.64,-363.55 1644.67,-348.85 1662.96,-338.12"/>
<polygon fill="#63b8ff" stroke="#63b8ff" points="1599.55,-371.29 1592.7,-379.37 1603.1,-377.32 1599.55,-371.29"/>
</g>
<!-- Node28&#45;&gt;Node9 -->
<g id="edge50" class="edge">
<title>Node28&#45;&gt;Node9</title>
<path fill="none" stroke="#63b8ff" d="M504.48,-245.65C511.39,-244.42 518.36,-243.18 525,-242 608.14,-227.27 704.92,-210.41 761.9,-200.51"/>
<polygon fill="#63b8ff" stroke="#63b8ff" points="503.66,-242.24 494.43,-247.45 504.89,-249.13 503.66,-242.24"/>
</g>
<!-- Node29&#45;&gt;Node15 -->
<g id="edge53" class="edge">
<title>Node29&#45;&gt;Node15</title>
<path fill="none" stroke="#63b8ff" d="M1844.41,-442.88C1870.62,-435.65 1898.29,-423.71 1918,-404 1948.95,-373.05 1970.26,-339.63 1940,-308 1930.43,-297.99 1061.31,-266.89 852.66,-259.56"/>
<polygon fill="#63b8ff" stroke="#63b8ff" points="1843.27,-439.56 1834.45,-445.43 1845.01,-446.34 1843.27,-439.56"/>
</g>
<!-- Node29&#45;&gt;Node20 -->
<g id="edge54" class="edge">
<title>Node29&#45;&gt;Node20</title>
<path fill="none" stroke="#63b8ff" d="M1756.73,-436.58C1750.56,-427 1742.81,-414.88 1736,-404 1721.65,-381.09 1705.31,-354.25 1695.59,-338.21"/>
<polygon fill="#63b8ff" stroke="#63b8ff" points="1753.92,-438.68 1762.28,-445.18 1759.8,-434.88 1753.92,-438.68"/>
</g>
<!-- Node30 -->
<g id="node30" class="node">
<title>Node30</title>
<g id="a_node30"><a xlink:href="common__endpoint__registry_8cpp.html" target="_top" xlink:title=" ">
<polygon fill="white" stroke="#666666" points="1931,-338 1803,-338 1803,-308 1931,-308 1931,-338"/>
<text text-anchor="start" x="1811" y="-326" font-family="Helvetica,sans-Serif" font-size="10.00">src/endpoints/common</text>
<text text-anchor="middle" x="1867" y="-315" font-family="Helvetica,sans-Serif" font-size="10.00">_endpoint_registry.cpp</text>
</a>
</g>
</g>
<!-- Node29&#45;&gt;Node30 -->
<g id="edge52" class="edge">
<title>Node29&#45;&gt;Node30</title>
<path fill="none" stroke="#63b8ff" d="M1844.41,-442.53C1866.65,-435.25 1888.56,-423.37 1902,-404 1916.61,-382.95 1896.68,-354.83 1881.44,-338.15"/>
<polygon fill="#63b8ff" stroke="#63b8ff" points="1843.13,-439.26 1834.54,-445.47 1845.12,-445.97 1843.13,-439.26"/>
</g>
<!-- Node31 -->
<g id="node31" class="node">
<title>Node31</title>
<g id="a_node31"><a xlink:href="serialization_8h.html" target="_top" xlink:title=" ">
<polygon fill="white" stroke="#666666" points="1893,-398.5 1745,-398.5 1745,-379.5 1893,-379.5 1893,-398.5"/>
<text text-anchor="middle" x="1819" y="-386.5" font-family="Helvetica,sans-Serif" font-size="10.00">src/node/rpc/serialization.h</text>
</a>
</g>
</g>
<!-- Node29&#45;&gt;Node31 -->
<g id="edge55" class="edge">
<title>Node29&#45;&gt;Node31</title>
<path fill="none" stroke="#63b8ff" d="M1781.33,-437.27C1791.12,-424.99 1804.02,-408.8 1811.9,-398.91"/>
<polygon fill="#63b8ff" stroke="#63b8ff" points="1778.37,-435.37 1774.88,-445.37 1783.85,-439.73 1778.37,-435.37"/>
</g>
<!-- Node31&#45;&gt;Node9 -->
<g id="edge57" class="edge">
<title>Node31&#45;&gt;Node9</title>
<path fill="none" stroke="#63b8ff" d="M1808.99,-370.56C1797.99,-352.74 1778.82,-325.3 1756,-308 1695.02,-261.78 1671.52,-259.33 1597,-242 1459.74,-210.08 1033.95,-197.15 873.25,-193.32"/>
<polygon fill="#63b8ff" stroke="#63b8ff" points="1806.1,-372.55 1814.23,-379.34 1812.11,-368.96 1806.1,-372.55"/>
</g>
<!-- Node31&#45;&gt;Node20 -->
<g id="edge58" class="edge">
<title>Node31&#45;&gt;Node20</title>
<path fill="none" stroke="#63b8ff" d="M1792.05,-374.93C1769.96,-364.22 1738.77,-349.1 1716.11,-338.12"/>
<polygon fill="#63b8ff" stroke="#63b8ff" points="1790.67,-378.16 1801.2,-379.37 1793.73,-371.86 1790.67,-378.16"/>
</g>
<!-- Node31&#45;&gt;Node21 -->
<g id="edge59" class="edge">
<title>Node31&#45;&gt;Node21</title>
<path fill="none" stroke="#63b8ff" d="M1759.95,-377.65C1688.36,-365.09 1569.06,-344.17 1502.56,-332.51"/>
<polygon fill="#63b8ff" stroke="#63b8ff" points="1759.7,-381.16 1770.15,-379.44 1760.91,-374.26 1759.7,-381.16"/>
</g>
<!-- Node31&#45;&gt;Node30 -->
<g id="edge56" class="edge">
<title>Node31&#45;&gt;Node30</title>
<path fill="none" stroke="#63b8ff" d="M1831.57,-371.24C1839.23,-361.02 1848.92,-348.1 1856.23,-338.36"/>
<polygon fill="#63b8ff" stroke="#63b8ff" points="1828.67,-369.27 1825.47,-379.37 1834.27,-373.47 1828.67,-369.27"/>
</g>
<!-- Node32&#45;&gt;Node29 -->
<g id="edge61" class="edge">
<title>Node32&#45;&gt;Node29</title>
<path fill="none" stroke="#63b8ff" d="M1677.08,-501.46C1701.46,-489.27 1732.2,-473.9 1750.97,-464.52"/>
<polygon fill="#63b8ff" stroke="#63b8ff" points="1675.47,-498.35 1668.09,-505.95 1678.6,-504.61 1675.47,-498.35"/>
</g>
<!-- Node33&#45;&gt;Node9 -->
<g id="edge65" class="edge">
<title>Node33&#45;&gt;Node9</title>
<path fill="none" stroke="#63b8ff" d="M1466.33,-430.29C1472.97,-413.48 1483.41,-390.98 1497,-374 1513,-354 1530.9,-361.08 1542,-338 1547.78,-325.98 1549.22,-319.21 1542,-308 1503.68,-248.46 1465.5,-259.94 1397,-242 1299.34,-216.42 1002.89,-200.53 873.04,-194.62"/>
<polygon fill="#63b8ff" stroke="#63b8ff" points="1462.95,-429.33 1462.69,-439.92 1469.5,-431.81 1462.95,-429.33"/>
</g>
<!-- Node33&#45;&gt;Node20 -->
<g id="edge66" class="edge">
<title>Node33&#45;&gt;Node20</title>
<path fill="none" stroke="#63b8ff" d="M1523.44,-444.74C1574.55,-436.27 1640.13,-422.29 1660,-404 1678.77,-386.73 1684.5,-355.98 1686.24,-338.05"/>
<polygon fill="#63b8ff" stroke="#63b8ff" points="1522.75,-441.31 1513.43,-446.36 1523.86,-448.22 1522.75,-441.31"/>
</g>
<!-- Node33&#45;&gt;Node21 -->
<g id="edge67" class="edge">
<title>Node33&#45;&gt;Node21</title>
<path fill="none" stroke="#63b8ff" d="M1457.25,-429.57C1456.34,-400.17 1454.87,-352.31 1454.27,-332.75"/>
<polygon fill="#63b8ff" stroke="#63b8ff" points="1453.76,-429.95 1457.56,-439.84 1460.76,-429.74 1453.76,-429.95"/>
</g>
<!-- Node33&#45;&gt;Node26 -->
<g id="edge68" class="edge">
<title>Node33&#45;&gt;Node26</title>
<path fill="none" stroke="#63b8ff" d="M1421.76,-435.3C1398.2,-423.14 1368.6,-407.86 1350.5,-398.52"/>
<polygon fill="#63b8ff" stroke="#63b8ff" points="1420.3,-438.48 1430.79,-439.95 1423.51,-432.26 1420.3,-438.48"/>
</g>
<!-- Node33&#45;&gt;Node27 -->
<g id="edge69" class="edge">
<title>Node33&#45;&gt;Node27</title>
<path fill="none" stroke="#63b8ff" d="M1493.37,-435.14C1516.12,-423 1544.59,-407.82 1562.03,-398.52"/>
<polygon fill="#63b8ff" stroke="#63b8ff" points="1491.51,-432.16 1484.33,-439.95 1494.81,-438.34 1491.51,-432.16"/>
</g>
<!-- Node34&#45;&gt;Node11 -->
<g id="edge73" class="edge">
<title>Node34&#45;&gt;Node11</title>
<path fill="none" stroke="#63b8ff" d="M1023,-495.6C1023,-484.8 1023,-472.78 1023,-464.84"/>
<polygon fill="#63b8ff" stroke="#63b8ff" points="1019.5,-495.8 1023,-505.8 1026.5,-495.8 1019.5,-495.8"/>
</g>
<!-- Node34&#45;&gt;Node24 -->
<g id="edge72" class="edge">
<title>Node34&#45;&gt;Node24</title>
<path fill="none" stroke="#63b8ff" d="M956.6,-514.17C801.22,-499.77 418.42,-459.58 303,-404 266.91,-386.62 234.98,-349.64 221.63,-332.75"/>
<polygon fill="#63b8ff" stroke="#63b8ff" points="956.66,-517.7 966.94,-515.13 957.3,-510.72 956.66,-517.7"/>
</g>
</g>
</svg>
