<?xml version="1.0" encoding="UTF-8" standalone="no"?>
<!DOCTYPE svg PUBLIC "-//W3C//DTD SVG 1.1//EN"
 "http://www.w3.org/Graphics/SVG/1.1/DTD/svg11.dtd">
<!-- Generated by graphviz version 2.43.0 (0)
 -->
<!-- Title: include/ccf/serdes.h Pages: 1 -->
<!--zoomable 467 -->
<svg id="main" version="1.1" xmlns="http://www.w3.org/2000/svg" xmlns:xlink="http://www.w3.org/1999/xlink" xml:space="preserve" onload="init(evt)">
<style type="text/css"><![CDATA[
.edge:hover path { stroke: red; }
.edge:hover polygon { stroke: red; fill: red; }
]]></style>
<script type="text/javascript"><![CDATA[
var edges = document.getElementsByTagName('g');
if (edges && edges.length) {
  for (var i=0;i<edges.length;i++) {
    if (edges[i].id.substr(0,4)=='edge') {
      edges[i].setAttribute('class','edge');
    }
  }
}
]]></script>
        <defs>
                <circle id="rim" cx="0" cy="0" r="7"/>
                <circle id="rim2" cx="0" cy="0" r="3.5"/>
                <g id="zoomPlus">
                        <use xlink:href="#rim" fill="#404040">
                                <set attributeName="fill" to="#808080" begin="zoomplus.mouseover" end="zoomplus.mouseout"/>
                        </use>
                        <path d="M-4,0h8M0,-4v8" fill="none" stroke="white" stroke-width="1.5" pointer-events="none"/>
                </g>
                <g id="zoomMin">
                        <use xlink:href="#rim" fill="#404040">
                                <set attributeName="fill" to="#808080" begin="zoomminus.mouseover" end="zoomminus.mouseout"/>
                        </use>
                        <path d="M-4,0h8" fill="none" stroke="white" stroke-width="1.5" pointer-events="none"/>
                </g>
                <g id="dirArrow">
                        <path fill="none" stroke="white" stroke-width="1.5" d="M0,-3.0v7 M-2.5,-0.5L0,-3.0L2.5,-0.5"/>
                </g>
               <g id="resetDef">
                       <use xlink:href="#rim2" fill="#404040">
                               <set attributeName="fill" to="#808080" begin="reset.mouseover" end="reset.mouseout"/>
                       </use>
               </g>
        </defs>

<script type="text/javascript">
var viewWidth = 1461;
var viewHeight = 467;
var sectionId = 'dynsection-1';
</script>
<script xlink:href="svgpan.js"/>
<svg id="graph" class="graph">
<g id="viewport">
<title>include/ccf/serdes.h</title>
<!-- Node1 -->
<g id="node1" class="node">
<title>Node1</title>
<g id="a_node1"><a xlink:title=" ">
<polygon fill="#999999" stroke="#666666" points="1169,-459 1056,-459 1056,-440 1169,-440 1169,-459"/>
<text text-anchor="middle" x="1112.5" y="-447" font-family="Helvetica,sans-Serif" font-size="10.00">include/ccf/serdes.h</text>
</a>
</g>
</g>
<!-- Node2 -->
<g id="node2" class="node">
<title>Node2</title>
<g id="a_node2"><a xlink:href="json__handler_8h.html" target="_top" xlink:title=" ">
<polygon fill="white" stroke="#666666" points="727,-398.5 584,-398.5 584,-379.5 727,-379.5 727,-398.5"/>
<text text-anchor="middle" x="655.5" y="-386.5" font-family="Helvetica,sans-Serif" font-size="10.00">include/ccf/json_handler.h</text>
</a>
</g>
</g>
<!-- Node1&#45;&gt;Node2 -->
<g id="edge1" class="edge">
<title>Node1&#45;&gt;Node2</title>
<path fill="none" stroke="#63b8ff" d="M1045.55,-439.93C958.85,-428.83 808.6,-409.6 722.08,-398.52"/>
<polygon fill="#63b8ff" stroke="#63b8ff" points="1045.18,-443.41 1055.54,-441.21 1046.07,-436.47 1045.18,-443.41"/>
</g>
<!-- Node13 -->
<g id="node13" class="node">
<title>Node13</title>
<g id="a_node13"><a xlink:href="jwt__key__auto__refresh_8h.html" target="_top" xlink:title=" ">
<polygon fill="white" stroke="#666666" points="1108,-272 983,-272 983,-242 1108,-242 1108,-272"/>
<text text-anchor="start" x="991" y="-260" font-family="Helvetica,sans-Serif" font-size="10.00">src/node/jwt_key_auto</text>
<text text-anchor="middle" x="1045.5" y="-249" font-family="Helvetica,sans-Serif" font-size="10.00">_refresh.h</text>
</a>
</g>
</g>
<!-- Node1&#45;&gt;Node13 -->
<g id="edge24" class="edge">
<title>Node1&#45;&gt;Node13</title>
<path fill="none" stroke="#63b8ff" d="M1107.04,-430.23C1098.86,-403.26 1082.66,-351.33 1066.5,-308 1061.96,-295.83 1056.21,-282.25 1051.88,-272.32"/>
<polygon fill="#63b8ff" stroke="#63b8ff" points="1103.7,-431.3 1109.94,-439.86 1110.41,-429.28 1103.7,-431.3"/>
</g>
<!-- Node14 -->
<g id="node14" class="node">
<title>Node14</title>
<g id="a_node14"><a xlink:href="node__state_8h.html" target="_top" xlink:title=" ">
<polygon fill="white" stroke="#666666" points="1127.5,-200.5 1003.5,-200.5 1003.5,-181.5 1127.5,-181.5 1127.5,-200.5"/>
<text text-anchor="middle" x="1065.5" y="-188.5" font-family="Helvetica,sans-Serif" font-size="10.00">src/node/node_state.h</text>
</a>
</g>
</g>
<!-- Node1&#45;&gt;Node14 -->
<g id="edge25" class="edge">
<title>Node1&#45;&gt;Node14</title>
<path fill="none" stroke="#63b8ff" d="M1117.71,-429.8C1127.11,-392.4 1143.56,-306.41 1116.5,-242 1109.01,-224.17 1091.71,-209.5 1079.34,-200.76"/>
<polygon fill="#63b8ff" stroke="#63b8ff" points="1114.24,-429.21 1115.07,-439.78 1121.01,-431 1114.24,-429.21"/>
</g>
<!-- Node16 -->
<g id="node16" class="node">
<title>Node16</title>
<g id="a_node16"><a xlink:href="rpc__tls__client_8h.html" target="_top" xlink:title=" ">
<polygon fill="white" stroke="#666666" points="1266,-404 1165,-404 1165,-374 1266,-374 1266,-404"/>
<text text-anchor="start" x="1173" y="-392" font-family="Helvetica,sans-Serif" font-size="10.00">src/clients/rpc_tls</text>
<text text-anchor="middle" x="1215.5" y="-381" font-family="Helvetica,sans-Serif" font-size="10.00">_client.h</text>
</a>
</g>
</g>
<!-- Node1&#45;&gt;Node16 -->
<g id="edge18" class="edge">
<title>Node1&#45;&gt;Node16</title>
<path fill="none" stroke="#63b8ff" d="M1136.6,-434.81C1152.85,-425.58 1174.24,-413.43 1190.65,-404.11"/>
<polygon fill="#63b8ff" stroke="#63b8ff" points="1134.66,-431.89 1127.7,-439.87 1138.12,-437.97 1134.66,-431.89"/>
</g>
<!-- Node3 -->
<g id="node3" class="node">
<title>Node3</title>
<g id="a_node3"><a xlink:href="basic_8cpp.html" target="_top" xlink:title=" ">
<polygon fill="white" stroke="#666666" points="113,-338 0,-338 0,-308 113,-308 113,-338"/>
<text text-anchor="start" x="8" y="-326" font-family="Helvetica,sans-Serif" font-size="10.00">samples/apps/basic</text>
<text text-anchor="middle" x="56.5" y="-315" font-family="Helvetica,sans-Serif" font-size="10.00">/basic.cpp</text>
</a>
</g>
</g>
<!-- Node2&#45;&gt;Node3 -->
<g id="edge2" class="edge">
<title>Node2&#45;&gt;Node3</title>
<path fill="none" stroke="#63b8ff" d="M573.69,-383.37C468.58,-376.73 280.7,-362.51 121.5,-338 118.76,-337.58 115.97,-337.11 113.15,-336.62"/>
<polygon fill="#63b8ff" stroke="#63b8ff" points="573.71,-386.88 583.91,-384.01 574.15,-379.89 573.71,-386.88"/>
</g>
<!-- Node4 -->
<g id="node4" class="node">
<title>Node4</title>
<g id="a_node4"><a xlink:href="logging_8cpp.html" target="_top" xlink:title=" ">
<polygon fill="white" stroke="#666666" points="254,-338 131,-338 131,-308 254,-308 254,-338"/>
<text text-anchor="start" x="139" y="-326" font-family="Helvetica,sans-Serif" font-size="10.00">samples/apps/logging</text>
<text text-anchor="middle" x="192.5" y="-315" font-family="Helvetica,sans-Serif" font-size="10.00">/logging.cpp</text>
</a>
</g>
</g>
<!-- Node2&#45;&gt;Node4 -->
<g id="edge3" class="edge">
<title>Node2&#45;&gt;Node4</title>
<path fill="none" stroke="#63b8ff" d="M573.96,-379.33C494.3,-370.46 369.74,-355.52 262.5,-338 259.81,-337.56 257.06,-337.09 254.29,-336.61"/>
<polygon fill="#63b8ff" stroke="#63b8ff" points="573.6,-382.81 583.93,-380.44 574.37,-375.86 573.6,-382.81"/>
</g>
<!-- Node5 -->
<g id="node5" class="node">
<title>Node5</title>
<g id="a_node5"><a xlink:href="nobuiltins_8cpp.html" target="_top" xlink:title=" ">
<polygon fill="white" stroke="#666666" points="407,-338 272,-338 272,-308 407,-308 407,-338"/>
<text text-anchor="start" x="280" y="-326" font-family="Helvetica,sans-Serif" font-size="10.00">samples/apps/nobuiltins</text>
<text text-anchor="middle" x="339.5" y="-315" font-family="Helvetica,sans-Serif" font-size="10.00">/nobuiltins.cpp</text>
</a>
</g>
</g>
<!-- Node2&#45;&gt;Node5 -->
<g id="edge4" class="edge">
<title>Node2&#45;&gt;Node5</title>
<path fill="none" stroke="#63b8ff" d="M603.23,-377.41C549.6,-366.55 465.93,-349.61 407.25,-337.72"/>
<polygon fill="#63b8ff" stroke="#63b8ff" points="602.71,-380.88 613.21,-379.44 604.1,-374.02 602.71,-380.88"/>
</g>
<!-- Node6 -->
<g id="node6" class="node">
<title>Node6</title>
<g id="a_node6"><a xlink:href="external__executor_8cpp.html" target="_top" xlink:title=" ">
<polygon fill="white" stroke="#666666" points="573.5,-338 425.5,-338 425.5,-308 573.5,-308 573.5,-338"/>
<text text-anchor="start" x="433.5" y="-326" font-family="Helvetica,sans-Serif" font-size="10.00">src/apps/external_executor</text>
<text text-anchor="middle" x="499.5" y="-315" font-family="Helvetica,sans-Serif" font-size="10.00">/external_executor.cpp</text>
</a>
</g>
</g>
<!-- Node2&#45;&gt;Node6 -->
<g id="edge5" class="edge">
<title>Node2&#45;&gt;Node6</title>
<path fill="none" stroke="#63b8ff" d="M625.04,-375.5C598.87,-364.77 561.16,-349.3 533.91,-338.12"/>
<polygon fill="#63b8ff" stroke="#63b8ff" points="623.88,-378.81 634.46,-379.37 626.54,-372.33 623.88,-378.81"/>
</g>
<!-- Node7 -->
<g id="node7" class="node">
<title>Node7</title>
<g id="a_node7"><a xlink:href="common__endpoint__registry_8cpp.html" target="_top" xlink:title=" ">
<polygon fill="white" stroke="#666666" points="719.5,-338 591.5,-338 591.5,-308 719.5,-308 719.5,-338"/>
<text text-anchor="start" x="599.5" y="-326" font-family="Helvetica,sans-Serif" font-size="10.00">src/endpoints/common</text>
<text text-anchor="middle" x="655.5" y="-315" font-family="Helvetica,sans-Serif" font-size="10.00">_endpoint_registry.cpp</text>
</a>
</g>
</g>
<!-- Node2&#45;&gt;Node7 -->
<g id="edge6" class="edge">
<title>Node2&#45;&gt;Node7</title>
<path fill="none" stroke="#63b8ff" d="M655.5,-369.35C655.5,-359.47 655.5,-347.51 655.5,-338.36"/>
<polygon fill="#63b8ff" stroke="#63b8ff" points="652,-369.37 655.5,-379.37 659,-369.37 652,-369.37"/>
</g>
<!-- Node8 -->
<g id="node8" class="node">
<title>Node8</title>
<g id="a_node8"><a xlink:href="json__handler_8cpp.html" target="_top" xlink:title=" ">
<polygon fill="white" stroke="#666666" points="843,-338 738,-338 738,-308 843,-308 843,-338"/>
<text text-anchor="start" x="746" y="-326" font-family="Helvetica,sans-Serif" font-size="10.00">src/endpoints/json</text>
<text text-anchor="middle" x="790.5" y="-315" font-family="Helvetica,sans-Serif" font-size="10.00">_handler.cpp</text>
</a>
</g>
</g>
<!-- Node2&#45;&gt;Node8 -->
<g id="edge7" class="edge">
<title>Node2&#45;&gt;Node8</title>
<path fill="none" stroke="#63b8ff" d="M682.76,-375.08C705.37,-364.36 737.45,-349.15 760.72,-338.12"/>
<polygon fill="#63b8ff" stroke="#63b8ff" points="681.24,-371.92 673.71,-379.37 684.24,-378.25 681.24,-371.92"/>
</g>
<!-- Node9 -->
<g id="node9" class="node">
<title>Node9</title>
<g id="a_node9"><a xlink:href="member__frontend_8h.html" target="_top" xlink:title=" ">
<polygon fill="white" stroke="#666666" points="926.5,-140 806.5,-140 806.5,-110 926.5,-110 926.5,-140"/>
<text text-anchor="start" x="814.5" y="-128" font-family="Helvetica,sans-Serif" font-size="10.00">src/node/rpc/member</text>
<text text-anchor="middle" x="866.5" y="-117" font-family="Helvetica,sans-Serif" font-size="10.00">_frontend.h</text>
</a>
</g>
</g>
<!-- Node2&#45;&gt;Node9 -->
<g id="edge8" class="edge">
<title>Node2&#45;&gt;Node9</title>
<path fill="none" stroke="#63b8ff" d="M731.96,-377.81C780.09,-369.71 835.95,-356.62 851.5,-338 900.34,-279.52 880.15,-177.44 870.51,-140.15"/>
<polygon fill="#63b8ff" stroke="#63b8ff" points="731.13,-374.4 721.82,-379.46 732.26,-381.31 731.13,-374.4"/>
</g>
<!-- Node12 -->
<g id="node12" class="node">
<title>Node12</title>
<g id="a_node12"><a xlink:href="node__frontend_8h.html" target="_top" xlink:title=" ">
<polygon fill="white" stroke="#666666" points="1057.5,-332.5 899.5,-332.5 899.5,-313.5 1057.5,-313.5 1057.5,-332.5"/>
<text text-anchor="middle" x="978.5" y="-320.5" font-family="Helvetica,sans-Serif" font-size="10.00">src/node/rpc/node_frontend.h</text>
</a>
</g>
</g>
<!-- Node2&#45;&gt;Node12 -->
<g id="edge11" class="edge">
<title>Node2&#45;&gt;Node12</title>
<path fill="none" stroke="#63b8ff" d="M708.54,-377.49C771.97,-364.92 876.92,-344.13 935.53,-332.51"/>
<polygon fill="#63b8ff" stroke="#63b8ff" points="707.86,-374.06 698.73,-379.44 709.22,-380.92 707.86,-374.06"/>
</g>
<!-- Node10 -->
<g id="node10" class="node">
<title>Node10</title>
<g id="a_node10"><a xlink:href="src_2enclave_2enclave_8h.html" target="_top" xlink:title=" ">
<polygon fill="white" stroke="#666666" points="1034.5,-74 912.5,-74 912.5,-55 1034.5,-55 1034.5,-74"/>
<text text-anchor="middle" x="973.5" y="-62" font-family="Helvetica,sans-Serif" font-size="10.00">src/enclave/enclave.h</text>
</a>
</g>
</g>
<!-- Node9&#45;&gt;Node10 -->
<g id="edge9" class="edge">
<title>Node9&#45;&gt;Node10</title>
<path fill="none" stroke="#63b8ff" d="M901.13,-105.07C920.17,-94.66 942.86,-82.25 957.7,-74.14"/>
<polygon fill="#63b8ff" stroke="#63b8ff" points="899.22,-102.12 892.13,-109.99 902.58,-108.26 899.22,-102.12"/>
</g>
<!-- Node11 -->
<g id="node11" class="node">
<title>Node11</title>
<g id="a_node11"><a xlink:href="enclave_2main_8cpp.html" target="_top" xlink:title=" ">
<polygon fill="white" stroke="#666666" points="1033.5,-19 913.5,-19 913.5,0 1033.5,0 1033.5,-19"/>
<text text-anchor="middle" x="973.5" y="-7" font-family="Helvetica,sans-Serif" font-size="10.00">src/enclave/main.cpp</text>
</a>
</g>
</g>
<!-- Node10&#45;&gt;Node11 -->
<g id="edge10" class="edge">
<title>Node10&#45;&gt;Node11</title>
<path fill="none" stroke="#63b8ff" d="M973.5,-44.66C973.5,-35.93 973.5,-25.99 973.5,-19.09"/>
<polygon fill="#63b8ff" stroke="#63b8ff" points="970,-44.75 973.5,-54.75 977,-44.75 970,-44.75"/>
</g>
<!-- Node12&#45;&gt;Node10 -->
<g id="edge12" class="edge">
<title>Node12&#45;&gt;Node10</title>
<path fill="none" stroke="#63b8ff" d="M976.16,-303.04C975.12,-293.71 974.01,-282.28 973.5,-272 969.68,-195.37 972.25,-102.56 973.19,-74.16"/>
<polygon fill="#63b8ff" stroke="#63b8ff" points="972.7,-303.65 977.35,-313.17 979.65,-302.83 972.7,-303.65"/>
</g>
<!-- Node12&#45;&gt;Node13 -->
<g id="edge13" class="edge">
<title>Node12&#45;&gt;Node13</title>
<path fill="none" stroke="#63b8ff" d="M994.82,-306.41C1005.78,-295.94 1020.1,-282.26 1030.72,-272.12"/>
<polygon fill="#63b8ff" stroke="#63b8ff" points="992.35,-303.93 987.54,-313.37 997.18,-308.99 992.35,-303.93"/>
</g>
<!-- Node13&#45;&gt;Node14 -->
<g id="edge14" class="edge">
<title>Node13&#45;&gt;Node14</title>
<path fill="none" stroke="#63b8ff" d="M1053.02,-231.94C1056.42,-221.06 1060.23,-208.86 1062.74,-200.84"/>
<polygon fill="#63b8ff" stroke="#63b8ff" points="1049.58,-231.21 1049.94,-241.8 1056.26,-233.3 1049.58,-231.21"/>
</g>
<!-- Node14&#45;&gt;Node10 -->
<g id="edge15" class="edge">
<title>Node14&#45;&gt;Node10</title>
<path fill="none" stroke="#63b8ff" d="M1046.18,-175.02C1035.1,-165.76 1021.45,-153.15 1011.5,-140 995.2,-118.46 982.53,-88.89 976.81,-74.33"/>
<polygon fill="#63b8ff" stroke="#63b8ff" points="1044.09,-177.82 1054.06,-181.4 1048.49,-172.39 1044.09,-177.82"/>
</g>
<!-- Node15 -->
<g id="node15" class="node">
<title>Node15</title>
<g id="a_node15"><a xlink:href="gov__effects_8h.html" target="_top" xlink:title=" ">
<polygon fill="white" stroke="#666666" points="1164.5,-134.5 1020.5,-134.5 1020.5,-115.5 1164.5,-115.5 1164.5,-134.5"/>
<text text-anchor="middle" x="1092.5" y="-122.5" font-family="Helvetica,sans-Serif" font-size="10.00">src/node/rpc/gov_effects.h</text>
</a>
</g>
</g>
<!-- Node14&#45;&gt;Node15 -->
<g id="edge16" class="edge">
<title>Node14&#45;&gt;Node15</title>
<path fill="none" stroke="#63b8ff" d="M1073.17,-171.82C1078.27,-159.74 1084.73,-144.41 1088.74,-134.91"/>
<polygon fill="#63b8ff" stroke="#63b8ff" points="1069.8,-170.79 1069.14,-181.37 1076.25,-173.52 1069.8,-170.79"/>
</g>
<!-- Node15&#45;&gt;Node10 -->
<g id="edge17" class="edge">
<title>Node15&#45;&gt;Node10</title>
<path fill="none" stroke="#63b8ff" d="M1066.02,-110.98C1043.09,-99.71 1010.57,-83.73 990.82,-74.02"/>
<polygon fill="#63b8ff" stroke="#63b8ff" points="1064.68,-114.22 1075.2,-115.49 1067.77,-107.94 1064.68,-114.22"/>
</g>
<!-- Node17 -->
<g id="node17" class="node">
<title>Node17</title>
<g id="a_node17"><a xlink:href="perf__client_8h.html" target="_top" xlink:title=" ">
<polygon fill="white" stroke="#666666" points="1320,-272 1209,-272 1209,-242 1320,-242 1320,-272"/>
<text text-anchor="start" x="1217" y="-260" font-family="Helvetica,sans-Serif" font-size="10.00">src/clients/perf/perf</text>
<text text-anchor="middle" x="1264.5" y="-249" font-family="Helvetica,sans-Serif" font-size="10.00">_client.h</text>
</a>
</g>
</g>
<!-- Node16&#45;&gt;Node17 -->
<g id="edge19" class="edge">
<title>Node16&#45;&gt;Node17</title>
<path fill="none" stroke="#63b8ff" d="M1210.37,-363.9C1208.03,-347.51 1207.17,-325.69 1214.5,-308 1220.51,-293.48 1233.01,-280.98 1244.01,-272.11"/>
<polygon fill="#63b8ff" stroke="#63b8ff" points="1206.93,-364.51 1212.06,-373.78 1213.83,-363.34 1206.93,-364.51"/>
</g>
<!-- Node20 -->
<g id="node20" class="node">
<title>Node20</title>
<g id="a_node20"><a xlink:href="timing_8h.html" target="_top" xlink:title=" ">
<polygon fill="white" stroke="#666666" points="1355.5,-332.5 1223.5,-332.5 1223.5,-313.5 1355.5,-313.5 1355.5,-332.5"/>
<text text-anchor="middle" x="1289.5" y="-320.5" font-family="Helvetica,sans-Serif" font-size="10.00">src/clients/perf/timing.h</text>
</a>
</g>
</g>
<!-- Node16&#45;&gt;Node20 -->
<g id="edge22" class="edge">
<title>Node16&#45;&gt;Node20</title>
<path fill="none" stroke="#63b8ff" d="M1239.86,-366.93C1253.25,-355.35 1269.14,-341.61 1279.27,-332.84"/>
<polygon fill="#63b8ff" stroke="#63b8ff" points="1237.2,-364.61 1231.92,-373.8 1241.78,-369.9 1237.2,-364.61"/>
</g>
<!-- Node18 -->
<g id="node18" class="node">
<title>Node18</title>
<g id="a_node18"><a xlink:href="tpcc__client_8cpp.html" target="_top" xlink:title=" ">
<polygon fill="white" stroke="#666666" points="1301.5,-206 1185.5,-206 1185.5,-176 1301.5,-176 1301.5,-206"/>
<text text-anchor="start" x="1193.5" y="-194" font-family="Helvetica,sans-Serif" font-size="10.00">src/apps/tpcc/clients</text>
<text text-anchor="middle" x="1243.5" y="-183" font-family="Helvetica,sans-Serif" font-size="10.00">/tpcc_client.cpp</text>
</a>
</g>
</g>
<!-- Node17&#45;&gt;Node18 -->
<g id="edge20" class="edge">
<title>Node17&#45;&gt;Node18</title>
<path fill="none" stroke="#63b8ff" d="M1256.66,-232.11C1253.8,-223.38 1250.65,-213.78 1248.15,-206.16"/>
<polygon fill="#63b8ff" stroke="#63b8ff" points="1253.4,-233.39 1259.84,-241.8 1260.05,-231.2 1253.4,-233.39"/>
</g>
<!-- Node19 -->
<g id="node19" class="node">
<title>Node19</title>
<g id="a_node19"><a xlink:href="scenario__perf__client_8cpp.html" target="_top" xlink:title=" ">
<polygon fill="white" stroke="#666666" points="1453,-206 1320,-206 1320,-176 1453,-176 1453,-206"/>
<text text-anchor="start" x="1328" y="-194" font-family="Helvetica,sans-Serif" font-size="10.00">src/clients/perf/scenario</text>
<text text-anchor="middle" x="1386.5" y="-183" font-family="Helvetica,sans-Serif" font-size="10.00">_perf_client.cpp</text>
</a>
</g>
</g>
<!-- Node17&#45;&gt;Node19 -->
<g id="edge21" class="edge">
<title>Node17&#45;&gt;Node19</title>
<path fill="none" stroke="#63b8ff" d="M1300.26,-237.24C1319.3,-227.25 1342.32,-215.18 1359.79,-206.01"/>
<polygon fill="#63b8ff" stroke="#63b8ff" points="1298.5,-234.21 1291.27,-241.95 1301.75,-240.41 1298.5,-234.21"/>
</g>
<!-- Node20&#45;&gt;Node17 -->
<g id="edge23" class="edge">
<title>Node20&#45;&gt;Node17</title>
<path fill="none" stroke="#63b8ff" d="M1282.46,-303.98C1278.56,-293.98 1273.76,-281.71 1270.11,-272.36"/>
<polygon fill="#63b8ff" stroke="#63b8ff" points="1279.23,-305.33 1286.13,-313.37 1285.75,-302.78 1279.23,-305.33"/>
</g>
</g>
</svg>
        <g id="navigator" transform="translate(0 0)" fill="#404254">
                <rect fill="#f2f5e9" fill-opacity="0.5" stroke="#606060" stroke-width=".5" x="0" y="0" width="60" height="60"/>
                <use id="zoomplus" xlink:href="#zoomPlus" x="17" y="9" onmousedown="handleZoom(evt,'in')"/>
                <use id="zoomminus" xlink:href="#zoomMin" x="42" y="9" onmousedown="handleZoom(evt,'out')"/>
                <use id="reset" xlink:href="#resetDef" x="30" y="36" onmousedown="handleReset()"/>
                <g id="arrowUp" xlink:href="#dirArrow" transform="translate(30 24)" onmousedown="handlePan(0,-1)">
                  <use xlink:href="#rim" fill="#404040">
                        <set attributeName="fill" to="#808080" begin="arrowUp.mouseover" end="arrowUp.mouseout"/>
                  </use>
                  <path fill="none" stroke="white" stroke-width="1.5" d="M0,-3.0v7 M-2.5,-0.5L0,-3.0L2.5,-0.5"/>
                </g>
                <g id="arrowRight" xlink:href="#dirArrow" transform="rotate(90) translate(36 -43)" onmousedown="handlePan(1,0)">
                  <use xlink:href="#rim" fill="#404040">
                        <set attributeName="fill" to="#808080" begin="arrowRight.mouseover" end="arrowRight.mouseout"/>
                  </use>
                  <path fill="none" stroke="white" stroke-width="1.5" d="M0,-3.0v7 M-2.5,-0.5L0,-3.0L2.5,-0.5"/>
                </g>
                <g id="arrowDown" xlink:href="#dirArrow" transform="rotate(180) translate(-30 -48)" onmousedown="handlePan(0,1)">
                  <use xlink:href="#rim" fill="#404040">
                        <set attributeName="fill" to="#808080" begin="arrowDown.mouseover" end="arrowDown.mouseout"/>
                  </use>
                  <path fill="none" stroke="white" stroke-width="1.5" d="M0,-3.0v7 M-2.5,-0.5L0,-3.0L2.5,-0.5"/>
                </g>
                <g id="arrowLeft" xlink:href="#dirArrow" transform="rotate(270) translate(-36 17)" onmousedown="handlePan(-1,0)">
                  <use xlink:href="#rim" fill="#404040">
                        <set attributeName="fill" to="#808080" begin="arrowLeft.mouseover" end="arrowLeft.mouseout"/>
                  </use>
                  <path fill="none" stroke="white" stroke-width="1.5" d="M0,-3.0v7 M-2.5,-0.5L0,-3.0L2.5,-0.5"/>
                </g>
        </g>
        <svg viewBox="0 0 15 15" width="100%" height="30px" preserveAspectRatio="xMaxYMin meet">
         <g id="arrow_out" transform="scale(0.3 0.3)">
          <a xlink:href="serdes_8h__dep__incl_org.svg" target="_base">
           <rect id="button" ry="5" rx="5" y="6" x="6" height="38" width="38"
                fill="#f2f5e9" fill-opacity="0.5" stroke="#606060" stroke-width="1.0"/>
           <path id="arrow"
             d="M 11.500037,31.436501 C 11.940474,20.09759 22.043105,11.32322 32.158766,21.979434 L 37.068811,17.246167 C 37.068811,17.246167 37.088388,32 37.088388,32 L 22.160133,31.978069 C 22.160133,31.978069 26.997745,27.140456 26.997745,27.140456 C 18.528582,18.264221 13.291696,25.230495 11.500037,31.436501 z"
             style="fill:#404040;"/>
          </a>
         </g>
        </svg>
</svg>
