<?xml version="1.0" encoding="UTF-8" standalone="no"?>
<!DOCTYPE svg PUBLIC "-//W3C//DTD SVG 1.1//EN"
 "http://www.w3.org/Graphics/SVG/1.1/DTD/svg11.dtd">
<!-- Generated by graphviz version 2.43.0 (0)
 -->
<!-- Title: include/ccf/service/tables/service.h Pages: 1 -->
<svg width="2031pt" height="566pt"
 viewBox="0.00 0.00 2030.50 566.00" xmlns="http://www.w3.org/2000/svg" xmlns:xlink="http://www.w3.org/1999/xlink">
<g id="graph0" class="graph" transform="scale(1 1) rotate(0) translate(4 562)">
<title>include/ccf/service/tables/service.h</title>
<!-- Node1 -->
<g id="node1" class="node">
<title>Node1</title>
<g id="a_node1"><a xlink:title=" ">
<polygon fill="#999999" stroke="#666666" points="693.5,-558 586.5,-558 586.5,-528 693.5,-528 693.5,-558"/>
<text text-anchor="start" x="594.5" y="-546" font-family="Helvetica,sans-Serif" font-size="10.00">include/ccf/service</text>
<text text-anchor="middle" x="640" y="-535" font-family="Helvetica,sans-Serif" font-size="10.00">/tables/service.h</text>
</a>
</g>
</g>
<!-- Node2 -->
<g id="node2" class="node">
<title>Node2</title>
<g id="a_node2"><a xlink:href="historical__queries__adapter_8cpp.html" target="_top" xlink:title=" ">
<polygon fill="white" stroke="#666666" points="390,-492 270,-492 270,-462 390,-462 390,-492"/>
<text text-anchor="start" x="278" y="-480" font-family="Helvetica,sans-Serif" font-size="10.00">src/node/historical</text>
<text text-anchor="middle" x="330" y="-469" font-family="Helvetica,sans-Serif" font-size="10.00">_queries_adapter.cpp</text>
</a>
</g>
</g>
<!-- Node1&#45;&gt;Node2 -->
<g id="edge1" class="edge">
<title>Node1&#45;&gt;Node2</title>
<path fill="none" stroke="#63b8ff" d="M576.45,-528.88C521.86,-517.61 443.71,-501.48 390.14,-490.42"/>
<polygon fill="#63b8ff" stroke="#63b8ff" points="575.85,-532.33 586.36,-530.93 577.27,-525.48 575.85,-532.33"/>
</g>
<!-- Node3 -->
<g id="node3" class="node">
<title>Node3</title>
<g id="a_node3"><a xlink:href="historical__queries__utils_8cpp.html" target="_top" xlink:title=" ">
<polygon fill="white" stroke="#666666" points="514,-492 408,-492 408,-462 514,-462 514,-492"/>
<text text-anchor="start" x="416" y="-480" font-family="Helvetica,sans-Serif" font-size="10.00">src/node/historical</text>
<text text-anchor="middle" x="461" y="-469" font-family="Helvetica,sans-Serif" font-size="10.00">_queries_utils.cpp</text>
</a>
</g>
</g>
<!-- Node1&#45;&gt;Node3 -->
<g id="edge2" class="edge">
<title>Node1&#45;&gt;Node3</title>
<path fill="none" stroke="#63b8ff" d="M590.93,-524.46C562.38,-514.25 526.87,-501.55 500.19,-492.01"/>
<polygon fill="#63b8ff" stroke="#63b8ff" points="590.12,-527.88 600.72,-527.95 592.48,-521.29 590.12,-527.88"/>
</g>
<!-- Node4 -->
<g id="node4" class="node">
<title>Node4</title>
<g id="a_node4"><a xlink:href="node__state_8h.html" target="_top" xlink:title=" ">
<polygon fill="white" stroke="#666666" points="900,-184 776,-184 776,-165 900,-165 900,-184"/>
<text text-anchor="middle" x="838" y="-172" font-family="Helvetica,sans-Serif" font-size="10.00">src/node/node_state.h</text>
</a>
</g>
</g>
<!-- Node1&#45;&gt;Node4 -->
<g id="edge3" class="edge">
<title>Node1&#45;&gt;Node4</title>
<path fill="none" stroke="#63b8ff" d="M703.75,-539.64C975.1,-529.16 2020,-484.48 2020,-417.5 2020,-417.5 2020,-417.5 2020,-300 2020,-263.56 2030.02,-243.31 2002,-220 1959.37,-184.54 1135.03,-177.17 900.04,-175.79"/>
<polygon fill="#63b8ff" stroke="#63b8ff" points="703.53,-536.14 693.67,-540.02 703.8,-543.14 703.53,-536.14"/>
</g>
<!-- Node8 -->
<g id="node8" class="node">
<title>Node8</title>
<g id="a_node8"><a xlink:href="frontend_8h.html" target="_top" xlink:title=" ">
<polygon fill="white" stroke="#666666" points="709.5,-371 580.5,-371 580.5,-352 709.5,-352 709.5,-371"/>
<text text-anchor="middle" x="645" y="-359" font-family="Helvetica,sans-Serif" font-size="10.00">src/node/rpc/frontend.h</text>
</a>
</g>
</g>
<!-- Node1&#45;&gt;Node8 -->
<g id="edge8" class="edge">
<title>Node1&#45;&gt;Node8</title>
<path fill="none" stroke="#63b8ff" d="M654.77,-519.22C659.31,-510.98 663.7,-501.39 666,-492 676.98,-447.09 657.34,-391.97 648.74,-371.08"/>
<polygon fill="#63b8ff" stroke="#63b8ff" points="651.74,-517.47 649.7,-527.86 657.78,-521.01 651.74,-517.47"/>
</g>
<!-- Node15 -->
<g id="node15" class="node">
<title>Node15</title>
<g id="a_node15"><a xlink:href="node__call__types_8h.html" target="_top" xlink:title=" ">
<polygon fill="white" stroke="#666666" points="657.5,-492 532.5,-492 532.5,-462 657.5,-462 657.5,-492"/>
<text text-anchor="start" x="540.5" y="-480" font-family="Helvetica,sans-Serif" font-size="10.00">src/node/rpc/node_call</text>
<text text-anchor="middle" x="595" y="-469" font-family="Helvetica,sans-Serif" font-size="10.00">_types.h</text>
</a>
</g>
</g>
<!-- Node1&#45;&gt;Node15 -->
<g id="edge22" class="edge">
<title>Node1&#45;&gt;Node15</title>
<path fill="none" stroke="#63b8ff" d="M624.2,-519.53C617.8,-510.43 610.61,-500.19 604.96,-492.16"/>
<polygon fill="#63b8ff" stroke="#63b8ff" points="621.4,-521.63 630.01,-527.8 627.12,-517.6 621.4,-521.63"/>
</g>
<!-- Node20 -->
<g id="node20" class="node">
<title>Node20</title>
<g id="a_node20"><a xlink:href="network__tables_8h.html" target="_top" xlink:title=" ">
<polygon fill="white" stroke="#666666" points="880,-492 768,-492 768,-462 880,-462 880,-492"/>
<text text-anchor="start" x="776" y="-480" font-family="Helvetica,sans-Serif" font-size="10.00">src/service/network</text>
<text text-anchor="middle" x="824" y="-469" font-family="Helvetica,sans-Serif" font-size="10.00">_tables.h</text>
</a>
</g>
</g>
<!-- Node1&#45;&gt;Node20 -->
<g id="edge32" class="edge">
<title>Node1&#45;&gt;Node20</title>
<path fill="none" stroke="#63b8ff" d="M690.05,-524.59C719.47,-514.36 756.17,-501.59 783.71,-492.01"/>
<polygon fill="#63b8ff" stroke="#63b8ff" points="688.67,-521.36 680.38,-527.95 690.97,-527.98 688.67,-521.36"/>
</g>
<!-- Node5 -->
<g id="node5" class="node">
<title>Node5</title>
<g id="a_node5"><a xlink:href="src_2enclave_2enclave_8h.html" target="_top" xlink:title=" ">
<polygon fill="white" stroke="#666666" points="589,-74 467,-74 467,-55 589,-55 589,-74"/>
<text text-anchor="middle" x="528" y="-62" font-family="Helvetica,sans-Serif" font-size="10.00">src/enclave/enclave.h</text>
</a>
</g>
</g>
<!-- Node4&#45;&gt;Node5 -->
<g id="edge4" class="edge">
<title>Node4&#45;&gt;Node5</title>
<path fill="none" stroke="#63b8ff" d="M803.93,-161.63C740.93,-139.68 607.64,-93.25 552.59,-74.07"/>
<polygon fill="#63b8ff" stroke="#63b8ff" points="802.82,-164.95 813.42,-164.94 805.12,-158.34 802.82,-164.95"/>
</g>
<!-- Node7 -->
<g id="node7" class="node">
<title>Node7</title>
<g id="a_node7"><a xlink:href="gov__effects_8h.html" target="_top" xlink:title=" ">
<polygon fill="white" stroke="#666666" points="869,-129 725,-129 725,-110 869,-110 869,-129"/>
<text text-anchor="middle" x="797" y="-117" font-family="Helvetica,sans-Serif" font-size="10.00">src/node/rpc/gov_effects.h</text>
</a>
</g>
</g>
<!-- Node4&#45;&gt;Node7 -->
<g id="edge6" class="edge">
<title>Node4&#45;&gt;Node7</title>
<path fill="none" stroke="#63b8ff" d="M824.98,-156.67C817.88,-147.5 809.4,-136.52 803.64,-129.09"/>
<polygon fill="#63b8ff" stroke="#63b8ff" points="822.34,-158.98 831.23,-164.75 827.88,-154.7 822.34,-158.98"/>
</g>
<!-- Node6 -->
<g id="node6" class="node">
<title>Node6</title>
<g id="a_node6"><a xlink:href="enclave_2main_8cpp.html" target="_top" xlink:title=" ">
<polygon fill="white" stroke="#666666" points="588,-19 468,-19 468,0 588,0 588,-19"/>
<text text-anchor="middle" x="528" y="-7" font-family="Helvetica,sans-Serif" font-size="10.00">src/enclave/main.cpp</text>
</a>
</g>
</g>
<!-- Node5&#45;&gt;Node6 -->
<g id="edge5" class="edge">
<title>Node5&#45;&gt;Node6</title>
<path fill="none" stroke="#63b8ff" d="M528,-44.66C528,-35.93 528,-25.99 528,-19.09"/>
<polygon fill="#63b8ff" stroke="#63b8ff" points="524.5,-44.75 528,-54.75 531.5,-44.75 524.5,-44.75"/>
</g>
<!-- Node7&#45;&gt;Node5 -->
<g id="edge7" class="edge">
<title>Node7&#45;&gt;Node5</title>
<path fill="none" stroke="#63b8ff" d="M743.72,-108C693.3,-98.07 618.52,-83.33 571.56,-74.08"/>
<polygon fill="#63b8ff" stroke="#63b8ff" points="743.29,-111.49 753.78,-109.98 744.65,-104.62 743.29,-111.49"/>
</g>
<!-- Node8&#45;&gt;Node4 -->
<g id="edge13" class="edge">
<title>Node8&#45;&gt;Node4</title>
<path fill="none" stroke="#63b8ff" d="M676.25,-347.81C692.96,-340.12 713.27,-329.23 729,-316 741.7,-305.32 809.95,-213.48 831.49,-184.34"/>
<polygon fill="#63b8ff" stroke="#63b8ff" points="674.61,-344.71 666.89,-351.97 677.45,-351.11 674.61,-344.71"/>
</g>
<!-- Node9 -->
<g id="node9" class="node">
<title>Node9</title>
<g id="a_node9"><a xlink:href="acme__challenge__frontend_8h.html" target="_top" xlink:title=" ">
<polygon fill="white" stroke="#666666" points="1946,-316 1806,-316 1806,-286 1946,-286 1946,-316"/>
<text text-anchor="start" x="1814" y="-304" font-family="Helvetica,sans-Serif" font-size="10.00">src/node/acme_challenge</text>
<text text-anchor="middle" x="1876" y="-293" font-family="Helvetica,sans-Serif" font-size="10.00">_frontend.h</text>
</a>
</g>
</g>
<!-- Node8&#45;&gt;Node9 -->
<g id="edge9" class="edge">
<title>Node8&#45;&gt;Node9</title>
<path fill="none" stroke="#63b8ff" d="M719.85,-358.05C890.67,-352.29 1322.34,-336.81 1683,-316 1723.75,-313.65 1769.29,-310.38 1805.9,-307.59"/>
<polygon fill="#63b8ff" stroke="#63b8ff" points="719.59,-354.56 709.71,-358.39 719.82,-361.55 719.59,-354.56"/>
</g>
<!-- Node11 -->
<g id="node11" class="node">
<title>Node11</title>
<g id="a_node11"><a xlink:href="member__frontend_8h.html" target="_top" xlink:title=" ">
<polygon fill="white" stroke="#666666" points="332,-316 212,-316 212,-286 332,-286 332,-316"/>
<text text-anchor="start" x="220" y="-304" font-family="Helvetica,sans-Serif" font-size="10.00">src/node/rpc/member</text>
<text text-anchor="middle" x="272" y="-293" font-family="Helvetica,sans-Serif" font-size="10.00">_frontend.h</text>
</a>
</g>
</g>
<!-- Node8&#45;&gt;Node11 -->
<g id="edge14" class="edge">
<title>Node8&#45;&gt;Node11</title>
<path fill="none" stroke="#63b8ff" d="M580.77,-350.43C510.98,-339.48 400.34,-322.13 332.18,-311.44"/>
<polygon fill="#63b8ff" stroke="#63b8ff" points="580.34,-353.9 590.76,-351.99 581.43,-346.99 580.34,-353.9"/>
</g>
<!-- Node12 -->
<g id="node12" class="node">
<title>Node12</title>
<g id="a_node12"><a xlink:href="node__frontend_8h.html" target="_top" xlink:title=" ">
<polygon fill="white" stroke="#666666" points="720,-310.5 562,-310.5 562,-291.5 720,-291.5 720,-310.5"/>
<text text-anchor="middle" x="641" y="-298.5" font-family="Helvetica,sans-Serif" font-size="10.00">src/node/rpc/node_frontend.h</text>
</a>
</g>
</g>
<!-- Node8&#45;&gt;Node12 -->
<g id="edge16" class="edge">
<title>Node8&#45;&gt;Node12</title>
<path fill="none" stroke="#63b8ff" d="M643.71,-341.66C643,-331.24 642.15,-318.8 641.59,-310.67"/>
<polygon fill="#63b8ff" stroke="#63b8ff" points="640.24,-342.13 644.41,-351.87 647.22,-341.65 640.24,-342.13"/>
</g>
<!-- Node14 -->
<g id="node14" class="node">
<title>Node14</title>
<g id="a_node14"><a xlink:href="user__frontend_8h.html" target="_top" xlink:title=" ">
<polygon fill="white" stroke="#666666" points="543.5,-310.5 388.5,-310.5 388.5,-291.5 543.5,-291.5 543.5,-310.5"/>
<text text-anchor="middle" x="466" y="-298.5" font-family="Helvetica,sans-Serif" font-size="10.00">src/node/rpc/user_frontend.h</text>
</a>
</g>
</g>
<!-- Node8&#45;&gt;Node14 -->
<g id="edge20" class="edge">
<title>Node8&#45;&gt;Node14</title>
<path fill="none" stroke="#63b8ff" d="M609.25,-348.82C574.63,-337.5 522.96,-320.62 492.06,-310.52"/>
<polygon fill="#63b8ff" stroke="#63b8ff" points="608.38,-352.21 618.97,-351.99 610.55,-345.56 608.38,-352.21"/>
</g>
<!-- Node9&#45;&gt;Node5 -->
<g id="edge10" class="edge">
<title>Node9&#45;&gt;Node5</title>
<path fill="none" stroke="#63b8ff" d="M1857.51,-278.34C1840.09,-259.53 1812.22,-233.27 1782,-220 1563.46,-124.02 810.26,-79.57 589.35,-68.4"/>
<polygon fill="#63b8ff" stroke="#63b8ff" points="1855.02,-280.8 1864.32,-285.89 1860.22,-276.12 1855.02,-280.8"/>
</g>
<!-- Node10 -->
<g id="node10" class="node">
<title>Node10</title>
<g id="a_node10"><a xlink:href="ccf__acme__client_8h.html" target="_top" xlink:title=" ">
<polygon fill="white" stroke="#666666" points="1992.5,-244.5 1843.5,-244.5 1843.5,-225.5 1992.5,-225.5 1992.5,-244.5"/>
<text text-anchor="middle" x="1918" y="-232.5" font-family="Helvetica,sans-Serif" font-size="10.00">src/node/ccf_acme_client.h</text>
</a>
</g>
</g>
<!-- Node9&#45;&gt;Node10 -->
<g id="edge11" class="edge">
<title>Node9&#45;&gt;Node10</title>
<path fill="none" stroke="#63b8ff" d="M1890.91,-277.28C1898.27,-266.07 1906.72,-253.19 1912.2,-244.84"/>
<polygon fill="#63b8ff" stroke="#63b8ff" points="1887.88,-275.52 1885.32,-285.8 1893.73,-279.36 1887.88,-275.52"/>
</g>
<!-- Node10&#45;&gt;Node4 -->
<g id="edge12" class="edge">
<title>Node10&#45;&gt;Node4</title>
<path fill="none" stroke="#63b8ff" d="M1838.7,-224.41C1823.23,-222.76 1807.12,-221.19 1792,-220 1456.04,-193.53 1052.2,-181.04 900.03,-177.02"/>
<polygon fill="#63b8ff" stroke="#63b8ff" points="1838.44,-227.9 1848.76,-225.5 1839.19,-220.94 1838.44,-227.9"/>
</g>
<!-- Node11&#45;&gt;Node5 -->
<g id="edge15" class="edge">
<title>Node11&#45;&gt;Node5</title>
<path fill="none" stroke="#63b8ff" d="M291.87,-278.24C325.76,-241.67 397.59,-166.35 465,-110 481.23,-96.43 501.43,-82.66 514.51,-74.11"/>
<polygon fill="#63b8ff" stroke="#63b8ff" points="289.06,-276.13 284.86,-285.85 294.21,-280.87 289.06,-276.13"/>
</g>
<!-- Node12&#45;&gt;Node5 -->
<g id="edge17" class="edge">
<title>Node12&#45;&gt;Node5</title>
<path fill="none" stroke="#63b8ff" d="M602.83,-287.76C584.52,-279.9 564,-267.76 552,-250 513.3,-192.72 522.53,-102.28 526.6,-74.14"/>
<polygon fill="#63b8ff" stroke="#63b8ff" points="601.57,-291.02 612.15,-291.49 604.17,-284.53 601.57,-291.02"/>
</g>
<!-- Node13 -->
<g id="node13" class="node">
<title>Node13</title>
<g id="a_node13"><a xlink:href="jwt__key__auto__refresh_8h.html" target="_top" xlink:title=" ">
<polygon fill="white" stroke="#666666" points="757.5,-250 632.5,-250 632.5,-220 757.5,-220 757.5,-250"/>
<text text-anchor="start" x="640.5" y="-238" font-family="Helvetica,sans-Serif" font-size="10.00">src/node/jwt_key_auto</text>
<text text-anchor="middle" x="695" y="-227" font-family="Helvetica,sans-Serif" font-size="10.00">_refresh.h</text>
</a>
</g>
</g>
<!-- Node12&#45;&gt;Node13 -->
<g id="edge18" class="edge">
<title>Node12&#45;&gt;Node13</title>
<path fill="none" stroke="#63b8ff" d="M654.88,-283.54C663.54,-273.28 674.58,-260.2 682.88,-250.36"/>
<polygon fill="#63b8ff" stroke="#63b8ff" points="652.06,-281.47 648.28,-291.37 657.41,-285.98 652.06,-281.47"/>
</g>
<!-- Node13&#45;&gt;Node4 -->
<g id="edge19" class="edge">
<title>Node13&#45;&gt;Node4</title>
<path fill="none" stroke="#63b8ff" d="M738.53,-216.19C764.51,-205.57 796.34,-192.54 816.88,-184.14"/>
<polygon fill="#63b8ff" stroke="#63b8ff" points="737.18,-212.96 729.25,-219.99 739.83,-219.44 737.18,-212.96"/>
</g>
<!-- Node14&#45;&gt;Node5 -->
<g id="edge21" class="edge">
<title>Node14&#45;&gt;Node5</title>
<path fill="none" stroke="#63b8ff" d="M462.41,-281.59C456.46,-246.22 447.81,-167.22 476,-110 483.77,-94.22 499.94,-81.82 512.19,-74.15"/>
<polygon fill="#63b8ff" stroke="#63b8ff" points="458.97,-282.24 464.2,-291.46 465.86,-280.99 458.97,-282.24"/>
</g>
<!-- Node16 -->
<g id="node16" class="node">
<title>Node16</title>
<g id="a_node16"><a xlink:href="call__types_8h.html" target="_top" xlink:title=" ">
<polygon fill="white" stroke="#666666" points="354.5,-426 217.5,-426 217.5,-407 354.5,-407 354.5,-426"/>
<text text-anchor="middle" x="286" y="-414" font-family="Helvetica,sans-Serif" font-size="10.00">src/node/rpc/call_types.h</text>
</a>
</g>
</g>
<!-- Node15&#45;&gt;Node16 -->
<g id="edge23" class="edge">
<title>Node15&#45;&gt;Node16</title>
<path fill="none" stroke="#63b8ff" d="M521.98,-461.81C449.74,-448.03 377.5,-434.52 331.89,-426.03"/>
<polygon fill="#63b8ff" stroke="#63b8ff" points="521.7,-465.32 532.18,-463.76 523.01,-458.45 521.7,-465.32"/>
</g>
<!-- Node16&#45;&gt;Node11 -->
<g id="edge26" class="edge">
<title>Node16&#45;&gt;Node11</title>
<path fill="none" stroke="#63b8ff" d="M283.71,-396.96C280.92,-374.34 276.27,-336.61 273.75,-316.18"/>
<polygon fill="#63b8ff" stroke="#63b8ff" points="280.25,-397.47 284.95,-406.97 287.2,-396.62 280.25,-397.47"/>
</g>
<!-- Node17 -->
<g id="node17" class="node">
<title>Node17</title>
<g id="a_node17"><a xlink:href="common__endpoint__registry_8cpp.html" target="_top" xlink:title=" ">
<polygon fill="white" stroke="#666666" points="156,-316 28,-316 28,-286 156,-286 156,-316"/>
<text text-anchor="start" x="36" y="-304" font-family="Helvetica,sans-Serif" font-size="10.00">src/endpoints/common</text>
<text text-anchor="middle" x="92" y="-293" font-family="Helvetica,sans-Serif" font-size="10.00">_endpoint_registry.cpp</text>
</a>
</g>
</g>
<!-- Node16&#45;&gt;Node17 -->
<g id="edge24" class="edge">
<title>Node16&#45;&gt;Node17</title>
<path fill="none" stroke="#63b8ff" d="M207.37,-405.59C163.77,-398.41 115.5,-387.13 101,-371 87.59,-356.09 87.79,-331.5 89.58,-316.06"/>
<polygon fill="#63b8ff" stroke="#63b8ff" points="207.03,-409.08 217.46,-407.19 208.13,-402.16 207.03,-409.08"/>
</g>
<!-- Node18 -->
<g id="node18" class="node">
<title>Node18</title>
<g id="a_node18"><a xlink:href="wrap_8cpp.html" target="_top" xlink:title=" ">
<polygon fill="white" stroke="#666666" points="1281.5,-244.5 1192.5,-244.5 1192.5,-225.5 1281.5,-225.5 1281.5,-244.5"/>
<text text-anchor="middle" x="1237" y="-232.5" font-family="Helvetica,sans-Serif" font-size="10.00">src/js/wrap.cpp</text>
</a>
</g>
</g>
<!-- Node16&#45;&gt;Node18 -->
<g id="edge25" class="edge">
<title>Node16&#45;&gt;Node18</title>
<path fill="none" stroke="#63b8ff" d="M364.68,-416.2C452.62,-414.99 598.35,-406.92 718,-371 796.25,-347.51 803.19,-310.93 881,-286 989.32,-251.29 1123.84,-240.66 1192.36,-237.42"/>
<polygon fill="#63b8ff" stroke="#63b8ff" points="364.48,-412.71 354.52,-416.32 364.56,-419.71 364.48,-412.71"/>
</g>
<!-- Node19 -->
<g id="node19" class="node">
<title>Node19</title>
<g id="a_node19"><a xlink:href="serialization_8h.html" target="_top" xlink:title=" ">
<polygon fill="white" stroke="#666666" points="258,-371 110,-371 110,-352 258,-352 258,-371"/>
<text text-anchor="middle" x="184" y="-359" font-family="Helvetica,sans-Serif" font-size="10.00">src/node/rpc/serialization.h</text>
</a>
</g>
</g>
<!-- Node16&#45;&gt;Node19 -->
<g id="edge27" class="edge">
<title>Node16&#45;&gt;Node19</title>
<path fill="none" stroke="#63b8ff" d="M260.73,-402.37C241.99,-392.63 216.98,-379.64 200.69,-371.17"/>
<polygon fill="#63b8ff" stroke="#63b8ff" points="259.12,-405.48 269.61,-406.98 262.35,-399.27 259.12,-405.48"/>
</g>
<!-- Node19&#45;&gt;Node4 -->
<g id="edge29" class="edge">
<title>Node19&#45;&gt;Node4</title>
<path fill="none" stroke="#63b8ff" d="M183.52,-341.29C184.2,-324.32 188.02,-300.15 203,-286 285.13,-208.46 632.6,-184.5 775.86,-177.83"/>
<polygon fill="#63b8ff" stroke="#63b8ff" points="180.02,-341.65 183.46,-351.67 187.02,-341.69 180.02,-341.65"/>
</g>
<!-- Node19&#45;&gt;Node11 -->
<g id="edge30" class="edge">
<title>Node19&#45;&gt;Node11</title>
<path fill="none" stroke="#63b8ff" d="M205.37,-346.29C219.16,-337.13 237.01,-325.26 250.77,-316.11"/>
<polygon fill="#63b8ff" stroke="#63b8ff" points="203.37,-343.42 196.98,-351.87 207.25,-349.25 203.37,-343.42"/>
</g>
<!-- Node19&#45;&gt;Node12 -->
<g id="edge31" class="edge">
<title>Node19&#45;&gt;Node12</title>
<path fill="none" stroke="#63b8ff" d="M268.39,-351.16C343.05,-342.69 454.9,-329.5 552,-316 563.93,-314.34 576.73,-312.41 588.81,-310.53"/>
<polygon fill="#63b8ff" stroke="#63b8ff" points="267.65,-347.72 258.11,-352.32 268.44,-354.68 267.65,-347.72"/>
</g>
<!-- Node19&#45;&gt;Node17 -->
<g id="edge28" class="edge">
<title>Node19&#45;&gt;Node17</title>
<path fill="none" stroke="#63b8ff" d="M161.66,-346.29C147.25,-337.13 128.58,-325.26 114.2,-316.11"/>
<polygon fill="#63b8ff" stroke="#63b8ff" points="160.11,-349.46 170.43,-351.87 163.86,-343.55 160.11,-349.46"/>
</g>
<!-- Node20&#45;&gt;Node10 -->
<g id="edge33" class="edge">
<title>Node20&#45;&gt;Node10</title>
<path fill="none" stroke="#63b8ff" d="M890.44,-475.55C1052.34,-473.04 1479.12,-457.99 1822,-371 1884,-355.27 1919.45,-369.18 1955,-316 1970.99,-292.08 1943.54,-260.15 1927.83,-244.87"/>
<polygon fill="#63b8ff" stroke="#63b8ff" points="890.11,-472.05 880.16,-475.69 890.21,-479.05 890.11,-472.05"/>
</g>
<!-- Node21 -->
<g id="node21" class="node">
<title>Node21</title>
<g id="a_node21"><a xlink:href="network__state_8h.html" target="_top" xlink:title=" ">
<polygon fill="white" stroke="#666666" points="894,-426 754,-426 754,-407 894,-407 894,-426"/>
<text text-anchor="middle" x="824" y="-414" font-family="Helvetica,sans-Serif" font-size="10.00">src/node/network_state.h</text>
</a>
</g>
</g>
<!-- Node20&#45;&gt;Node21 -->
<g id="edge34" class="edge">
<title>Node20&#45;&gt;Node21</title>
<path fill="none" stroke="#63b8ff" d="M824,-451.75C824,-442.72 824,-433.03 824,-426.27"/>
<polygon fill="#63b8ff" stroke="#63b8ff" points="820.5,-451.84 824,-461.84 827.5,-451.84 820.5,-451.84"/>
</g>
<!-- Node21&#45;&gt;Node4 -->
<g id="edge53" class="edge">
<title>Node21&#45;&gt;Node4</title>
<path fill="none" stroke="#63b8ff" d="M904.48,-413.25C1067.33,-408.26 1430.83,-394.78 1553,-371 1664.43,-349.31 1837.31,-302.18 1759,-220 1729.37,-188.91 1102.07,-178.67 900.08,-176.17"/>
<polygon fill="#63b8ff" stroke="#63b8ff" points="903.94,-409.76 894.05,-413.57 904.15,-416.76 903.94,-409.76"/>
</g>
<!-- Node21&#45;&gt;Node5 -->
<g id="edge35" class="edge">
<title>Node21&#45;&gt;Node5</title>
<path fill="none" stroke="#63b8ff" d="M743.49,-415.82C580.7,-415.61 217.93,-410.55 101,-371 49.5,-353.58 0,-356.36 0,-302 0,-302 0,-302 0,-173.5 0,-79.12 327.93,-66.42 466.92,-65.28"/>
<polygon fill="#63b8ff" stroke="#63b8ff" points="743.92,-419.32 753.92,-415.83 743.93,-412.32 743.92,-419.32"/>
</g>
<!-- Node21&#45;&gt;Node9 -->
<g id="edge52" class="edge">
<title>Node21&#45;&gt;Node9</title>
<path fill="none" stroke="#63b8ff" d="M904.11,-414.71C1121.24,-412.16 1710.26,-402.4 1792,-371 1821.95,-359.49 1849.16,-332.84 1864.07,-316.23"/>
<polygon fill="#63b8ff" stroke="#63b8ff" points="904.01,-411.21 894.05,-414.83 904.09,-418.21 904.01,-411.21"/>
</g>
<!-- Node21&#45;&gt;Node12 -->
<g id="edge54" class="edge">
<title>Node21&#45;&gt;Node12</title>
<path fill="none" stroke="#63b8ff" d="M801.37,-401.46C763.01,-377.67 686.33,-330.12 654.91,-310.63"/>
<polygon fill="#63b8ff" stroke="#63b8ff" points="799.9,-404.67 810.25,-406.97 803.59,-398.72 799.9,-404.67"/>
</g>
<!-- Node21&#45;&gt;Node14 -->
<g id="edge55" class="edge">
<title>Node21&#45;&gt;Node14</title>
<path fill="none" stroke="#63b8ff" d="M743.77,-409.78C692.86,-404.13 626.38,-392.97 571,-371 532.68,-355.79 493.71,-325.43 475.94,-310.58"/>
<polygon fill="#63b8ff" stroke="#63b8ff" points="743.42,-413.26 753.74,-410.84 744.16,-406.3 743.42,-413.26"/>
</g>
<!-- Node22 -->
<g id="node22" class="node">
<title>Node22</title>
<g id="a_node22"><a xlink:href="wrap_8h.html" target="_top" xlink:title=" ">
<polygon fill="white" stroke="#666666" points="1174,-371 1096,-371 1096,-352 1174,-352 1174,-371"/>
<text text-anchor="middle" x="1135" y="-359" font-family="Helvetica,sans-Serif" font-size="10.00">src/js/wrap.h</text>
</a>
</g>
</g>
<!-- Node21&#45;&gt;Node22 -->
<g id="edge36" class="edge">
<title>Node21&#45;&gt;Node22</title>
<path fill="none" stroke="#63b8ff" d="M884.08,-405.26C946.61,-394.6 1042.69,-378.23 1095.99,-369.15"/>
<polygon fill="#63b8ff" stroke="#63b8ff" points="883.24,-401.85 873.97,-406.98 884.41,-408.75 883.24,-401.85"/>
</g>
<!-- Node29 -->
<g id="node29" class="node">
<title>Node29</title>
<g id="a_node29"><a xlink:href="secret__broadcast_8h.html" target="_top" xlink:title=" ">
<polygon fill="white" stroke="#666666" points="967.5,-244.5 814.5,-244.5 814.5,-225.5 967.5,-225.5 967.5,-244.5"/>
<text text-anchor="middle" x="891" y="-232.5" font-family="Helvetica,sans-Serif" font-size="10.00">src/node/secret_broadcast.h</text>
</a>
</g>
</g>
<!-- Node21&#45;&gt;Node29 -->
<g id="edge56" class="edge">
<title>Node21&#45;&gt;Node29</title>
<path fill="none" stroke="#63b8ff" d="M830.89,-397.03C845.18,-358.76 877.52,-272.11 887.8,-244.57"/>
<polygon fill="#63b8ff" stroke="#63b8ff" points="827.45,-396.25 827.23,-406.84 834.01,-398.7 827.45,-396.25"/>
</g>
<!-- Node30 -->
<g id="node30" class="node">
<title>Node30</title>
<g id="a_node30"><a xlink:href="share__manager_8h.html" target="_top" xlink:title=" ">
<polygon fill="white" stroke="#666666" points="459.5,-371 314.5,-371 314.5,-352 459.5,-352 459.5,-371"/>
<text text-anchor="middle" x="387" y="-359" font-family="Helvetica,sans-Serif" font-size="10.00">src/node/share_manager.h</text>
</a>
</g>
</g>
<!-- Node21&#45;&gt;Node30 -->
<g id="edge58" class="edge">
<title>Node21&#45;&gt;Node30</title>
<path fill="none" stroke="#63b8ff" d="M743.76,-405.77C661.76,-395.82 535.64,-380.53 457.4,-371.04"/>
<polygon fill="#63b8ff" stroke="#63b8ff" points="743.44,-409.26 753.79,-406.98 744.28,-402.31 743.44,-409.26"/>
</g>
<!-- Node31 -->
<g id="node31" class="node">
<title>Node31</title>
<g id="a_node31"><a xlink:href="snapshotter_8h.html" target="_top" xlink:title=" ">
<polygon fill="white" stroke="#666666" points="1749.5,-244.5 1622.5,-244.5 1622.5,-225.5 1749.5,-225.5 1749.5,-244.5"/>
<text text-anchor="middle" x="1686" y="-232.5" font-family="Helvetica,sans-Serif" font-size="10.00">src/node/snapshotter.h</text>
</a>
</g>
</g>
<!-- Node21&#45;&gt;Node31 -->
<g id="edge61" class="edge">
<title>Node21&#45;&gt;Node31</title>
<path fill="none" stroke="#63b8ff" d="M904.38,-412.36C1110.87,-403.47 1647.43,-374.88 1700,-316 1718.03,-295.81 1701.14,-260.9 1691.57,-244.71"/>
<polygon fill="#63b8ff" stroke="#63b8ff" points="904.05,-408.87 894.21,-412.79 904.35,-415.86 904.05,-408.87"/>
</g>
<!-- Node22&#45;&gt;Node4 -->
<g id="edge49" class="edge">
<title>Node22&#45;&gt;Node4</title>
<path fill="none" stroke="#63b8ff" d="M1184.44,-360.22C1312.9,-358.98 1649.57,-352.26 1683,-316 1692.04,-306.2 1691.61,-296.18 1683,-286 1632.38,-226.17 1086.74,-189.69 900.15,-178.88"/>
<polygon fill="#63b8ff" stroke="#63b8ff" points="1184.08,-356.72 1174.11,-360.31 1184.14,-363.72 1184.08,-356.72"/>
</g>
<!-- Node22&#45;&gt;Node5 -->
<g id="edge38" class="edge">
<title>Node22&#45;&gt;Node5</title>
<path fill="none" stroke="#63b8ff" d="M1085.5,-352.99C1034.15,-344.92 951.63,-331.2 881,-316 852.07,-309.78 646.14,-268.44 623,-250 562.14,-201.5 536.35,-103.5 529.78,-74.05"/>
<polygon fill="#63b8ff" stroke="#63b8ff" points="1085.24,-356.49 1095.66,-354.57 1086.32,-349.57 1085.24,-356.49"/>
</g>
<!-- Node22&#45;&gt;Node11 -->
<g id="edge50" class="edge">
<title>Node22&#45;&gt;Node11</title>
<path fill="none" stroke="#63b8ff" d="M1085.95,-358.83C965.41,-354.45 645.13,-341.21 379,-316 363.8,-314.56 347.43,-312.62 332.18,-310.64"/>
<polygon fill="#63b8ff" stroke="#63b8ff" points="1085.86,-362.32 1095.97,-359.19 1086.11,-355.33 1085.86,-362.32"/>
</g>
<!-- Node22&#45;&gt;Node12 -->
<g id="edge51" class="edge">
<title>Node22&#45;&gt;Node12</title>
<path fill="none" stroke="#63b8ff" d="M1085.76,-355.66C1010.05,-348.07 860.53,-332.54 734,-316 721.53,-314.37 708.15,-312.45 695.54,-310.57"/>
<polygon fill="#63b8ff" stroke="#63b8ff" points="1085.65,-359.16 1095.95,-356.68 1086.34,-352.2 1085.65,-359.16"/>
</g>
<!-- Node22&#45;&gt;Node18 -->
<g id="edge48" class="edge">
<title>Node22&#45;&gt;Node18</title>
<path fill="none" stroke="#63b8ff" d="M1184.28,-356.22C1211.09,-351.09 1242.14,-339.97 1259,-316 1274.75,-293.62 1255,-260.39 1243.77,-244.75"/>
<polygon fill="#63b8ff" stroke="#63b8ff" points="1183.54,-352.8 1174.26,-357.91 1184.7,-359.7 1183.54,-352.8"/>
</g>
<!-- Node23 -->
<g id="node23" class="node">
<title>Node23</title>
<g id="a_node23"><a xlink:href="js__generic__base_8cpp.html" target="_top" xlink:title=" ">
<polygon fill="white" stroke="#666666" points="1008,-316 890,-316 890,-286 1008,-286 1008,-316"/>
<text text-anchor="start" x="898" y="-304" font-family="Helvetica,sans-Serif" font-size="10.00">src/apps/js_generic</text>
<text text-anchor="middle" x="949" y="-293" font-family="Helvetica,sans-Serif" font-size="10.00">/js_generic_base.cpp</text>
</a>
</g>
</g>
<!-- Node22&#45;&gt;Node23 -->
<g id="edge37" class="edge">
<title>Node22&#45;&gt;Node23</title>
<path fill="none" stroke="#63b8ff" d="M1098.29,-348.95C1068.27,-339.51 1025.72,-326.13 993.72,-316.06"/>
<polygon fill="#63b8ff" stroke="#63b8ff" points="1097.36,-352.33 1107.95,-351.99 1099.46,-345.65 1097.36,-352.33"/>
</g>
<!-- Node24 -->
<g id="node24" class="node">
<title>Node24</title>
<g id="a_node24"><a xlink:href="consensus_8cpp.html" target="_top" xlink:title=" ">
<polygon fill="white" stroke="#666666" points="1422,-310.5 1306,-310.5 1306,-291.5 1422,-291.5 1422,-310.5"/>
<text text-anchor="middle" x="1364" y="-298.5" font-family="Helvetica,sans-Serif" font-size="10.00">src/js/consensus.cpp</text>
</a>
</g>
</g>
<!-- Node22&#45;&gt;Node24 -->
<g id="edge39" class="edge">
<title>Node22&#45;&gt;Node24</title>
<path fill="none" stroke="#63b8ff" d="M1178.19,-349.47C1222.46,-338.16 1290.36,-320.81 1330.66,-310.52"/>
<polygon fill="#63b8ff" stroke="#63b8ff" points="1177.12,-346.13 1168.3,-351.99 1178.85,-352.91 1177.12,-346.13"/>
</g>
<!-- Node25 -->
<g id="node25" class="node">
<title>Node25</title>
<g id="a_node25"><a xlink:href="conv_8cpp.html" target="_top" xlink:title=" ">
<polygon fill="white" stroke="#666666" points="1674,-310.5 1586,-310.5 1586,-291.5 1674,-291.5 1674,-310.5"/>
<text text-anchor="middle" x="1630" y="-298.5" font-family="Helvetica,sans-Serif" font-size="10.00">src/js/conv.cpp</text>
</a>
</g>
</g>
<!-- Node22&#45;&gt;Node25 -->
<g id="edge41" class="edge">
<title>Node22&#45;&gt;Node25</title>
<path fill="none" stroke="#63b8ff" d="M1184.04,-358.1C1265.96,-353.52 1435.63,-341.62 1577,-316 1584.87,-314.57 1593.28,-312.58 1601.03,-310.54"/>
<polygon fill="#63b8ff" stroke="#63b8ff" points="1183.81,-354.6 1174.01,-358.65 1184.19,-361.59 1183.81,-354.6"/>
</g>
<!-- Node26 -->
<g id="node26" class="node">
<title>Node26</title>
<g id="a_node26"><a xlink:href="crypto_8cpp.html" target="_top" xlink:title=" ">
<polygon fill="white" stroke="#666666" points="1122,-310.5 1026,-310.5 1026,-291.5 1122,-291.5 1122,-310.5"/>
<text text-anchor="middle" x="1074" y="-298.5" font-family="Helvetica,sans-Serif" font-size="10.00">src/js/crypto.cpp</text>
</a>
</g>
</g>
<!-- Node22&#45;&gt;Node26 -->
<g id="edge43" class="edge">
<title>Node22&#45;&gt;Node26</title>
<path fill="none" stroke="#63b8ff" d="M1118.74,-344.91C1107.3,-333.94 1092.42,-319.67 1083.04,-310.67"/>
<polygon fill="#63b8ff" stroke="#63b8ff" points="1116.36,-347.47 1126,-351.87 1121.2,-342.42 1116.36,-347.47"/>
</g>
<!-- Node27 -->
<g id="node27" class="node">
<title>Node27</title>
<g id="a_node27"><a xlink:href="historical_8cpp.html" target="_top" xlink:title=" ">
<polygon fill="white" stroke="#666666" points="1250,-310.5 1140,-310.5 1140,-291.5 1250,-291.5 1250,-310.5"/>
<text text-anchor="middle" x="1195" y="-298.5" font-family="Helvetica,sans-Serif" font-size="10.00">src/js/historical.cpp</text>
</a>
</g>
</g>
<!-- Node22&#45;&gt;Node27 -->
<g id="edge45" class="edge">
<title>Node22&#45;&gt;Node27</title>
<path fill="none" stroke="#63b8ff" d="M1151.32,-344.59C1162.52,-333.67 1176.97,-319.58 1186.11,-310.67"/>
<polygon fill="#63b8ff" stroke="#63b8ff" points="1148.57,-342.38 1143.85,-351.87 1153.46,-347.39 1148.57,-342.38"/>
</g>
<!-- Node28 -->
<g id="node28" class="node">
<title>Node28</title>
<g id="a_node28"><a xlink:href="openenclave_8cpp.html" target="_top" xlink:title=" ">
<polygon fill="white" stroke="#666666" points="1568,-310.5 1440,-310.5 1440,-291.5 1568,-291.5 1568,-310.5"/>
<text text-anchor="middle" x="1504" y="-298.5" font-family="Helvetica,sans-Serif" font-size="10.00">src/js/openenclave.cpp</text>
</a>
</g>
</g>
<!-- Node22&#45;&gt;Node28 -->
<g id="edge47" class="edge">
<title>Node22&#45;&gt;Node28</title>
<path fill="none" stroke="#63b8ff" d="M1184.47,-353.68C1243.33,-345.43 1344.5,-330.79 1431,-316 1440.79,-314.33 1451.3,-312.39 1461.21,-310.51"/>
<polygon fill="#63b8ff" stroke="#63b8ff" points="1183.76,-350.25 1174.34,-355.1 1184.73,-357.18 1183.76,-350.25"/>
</g>
<!-- Node24&#45;&gt;Node18 -->
<g id="edge40" class="edge">
<title>Node24&#45;&gt;Node18</title>
<path fill="none" stroke="#63b8ff" d="M1337.93,-286.86C1312.9,-274.25 1275.82,-255.56 1254.26,-244.7"/>
<polygon fill="#63b8ff" stroke="#63b8ff" points="1336.37,-289.99 1346.87,-291.37 1339.52,-283.74 1336.37,-289.99"/>
</g>
<!-- Node25&#45;&gt;Node18 -->
<g id="edge42" class="edge">
<title>Node25&#45;&gt;Node18</title>
<path fill="none" stroke="#63b8ff" d="M1590.42,-289.03C1585.91,-287.93 1581.37,-286.89 1577,-286 1471.94,-264.47 1346.79,-248.52 1281.56,-240.93"/>
<polygon fill="#63b8ff" stroke="#63b8ff" points="1589.59,-292.43 1600.15,-291.49 1591.31,-285.64 1589.59,-292.43"/>
</g>
<!-- Node26&#45;&gt;Node18 -->
<g id="edge44" class="edge">
<title>Node26&#45;&gt;Node18</title>
<path fill="none" stroke="#63b8ff" d="M1105.39,-287.68C1137.6,-275.03 1186.88,-255.68 1215.11,-244.6"/>
<polygon fill="#63b8ff" stroke="#63b8ff" points="1104.01,-284.46 1095.98,-291.37 1106.57,-290.97 1104.01,-284.46"/>
</g>
<!-- Node27&#45;&gt;Node18 -->
<g id="edge46" class="edge">
<title>Node27&#45;&gt;Node18</title>
<path fill="none" stroke="#63b8ff" d="M1206.22,-282.91C1214.24,-270.68 1224.73,-254.7 1231.16,-244.91"/>
<polygon fill="#63b8ff" stroke="#63b8ff" points="1203.22,-281.09 1200.66,-291.37 1209.08,-284.93 1203.22,-281.09"/>
</g>
<!-- Node29&#45;&gt;Node4 -->
<g id="edge57" class="edge">
<title>Node29&#45;&gt;Node4</title>
<path fill="none" stroke="#63b8ff" d="M876.3,-217.77C866.44,-206.89 853.85,-192.99 845.85,-184.17"/>
<polygon fill="#63b8ff" stroke="#63b8ff" points="873.87,-220.31 883.18,-225.37 879.06,-215.61 873.87,-220.31"/>
</g>
<!-- Node30&#45;&gt;Node4 -->
<g id="edge59" class="edge">
<title>Node30&#45;&gt;Node4</title>
<path fill="none" stroke="#63b8ff" d="M378.25,-341.95C371.91,-325.47 366.44,-301.64 379,-286 425.46,-228.16 470.82,-270.93 542,-250 578.83,-239.17 586.1,-230.59 623,-220 677.78,-204.28 741.9,-191.75 785.77,-184.04"/>
<polygon fill="#63b8ff" stroke="#63b8ff" points="375.21,-343.74 382.36,-351.56 381.65,-340.99 375.21,-343.74"/>
</g>
<!-- Node30&#45;&gt;Node11 -->
<g id="edge60" class="edge">
<title>Node30&#45;&gt;Node11</title>
<path fill="none" stroke="#63b8ff" d="M361.11,-347.33C342.84,-338.04 318.41,-325.61 299.75,-316.11"/>
<polygon fill="#63b8ff" stroke="#63b8ff" points="359.53,-350.45 370.03,-351.87 362.71,-344.21 359.53,-350.45"/>
</g>
<!-- Node31&#45;&gt;Node4 -->
<g id="edge62" class="edge">
<title>Node31&#45;&gt;Node4</title>
<path fill="none" stroke="#63b8ff" d="M1633.72,-223.73C1625.15,-222.3 1616.35,-220.99 1608,-220 1346.03,-189.03 1031.27,-179.37 900.1,-176.57"/>
<polygon fill="#63b8ff" stroke="#63b8ff" points="1633.18,-227.19 1643.63,-225.44 1634.38,-220.29 1633.18,-227.19"/>
</g>
</g>
</svg>
