<?xml version="1.0" encoding="UTF-8" standalone="no"?>
<!DOCTYPE svg PUBLIC "-//W3C//DTD SVG 1.1//EN"
 "http://www.w3.org/Graphics/SVG/1.1/DTD/svg11.dtd">
<!-- Generated by graphviz version 2.43.0 (0)
 -->
<!-- Title: src/node/session_metrics.h Pages: 1 -->
<svg width="2218pt" height="654pt"
 viewBox="0.00 0.00 2217.61 654.00" xmlns="http://www.w3.org/2000/svg" xmlns:xlink="http://www.w3.org/1999/xlink">
<g id="graph0" class="graph" transform="scale(1 1) rotate(0) translate(4 650)">
<title>src/node/session_metrics.h</title>
<!-- Node1 -->
<g id="node1" class="node">
<title>Node1</title>
<g id="a_node1"><a xlink:title=" ">
<polygon fill="#999999" stroke="#666666" points="656.5,-646 507.5,-646 507.5,-627 656.5,-627 656.5,-646"/>
<text text-anchor="middle" x="582" y="-634" font-family="Helvetica,sans-Serif" font-size="10.00">src/node/session_metrics.h</text>
</a>
</g>
</g>
<!-- Node2 -->
<g id="node2" class="node">
<title>Node2</title>
<g id="a_node2"><a xlink:href="rpc__sessions_8h.html" target="_top" xlink:title=" ">
<polygon fill="white" stroke="#666666" points="259,-332.5 113,-332.5 113,-313.5 259,-313.5 259,-332.5"/>
<text text-anchor="middle" x="186" y="-320.5" font-family="Helvetica,sans-Serif" font-size="10.00">src/enclave/rpc_sessions.h</text>
</a>
</g>
</g>
<!-- Node1&#45;&gt;Node2 -->
<g id="edge1" class="edge">
<title>Node1&#45;&gt;Node2</title>
<path fill="none" stroke="#63b8ff" d="M497.13,-633.42C415.69,-626.37 305,-601.2 305,-516.5 305,-516.5 305,-516.5 305,-454 305,-394.49 236.31,-350.36 203.3,-332.6"/>
<polygon fill="#63b8ff" stroke="#63b8ff" points="497.16,-636.94 507.4,-634.23 497.71,-629.96 497.16,-636.94"/>
</g>
<!-- Node9 -->
<g id="node9" class="node">
<title>Node9</title>
<g id="a_node9"><a xlink:href="node__frontend_8h.html" target="_top" xlink:title=" ">
<polygon fill="white" stroke="#666666" points="559,-332.5 401,-332.5 401,-313.5 559,-313.5 559,-332.5"/>
<text text-anchor="middle" x="480" y="-320.5" font-family="Helvetica,sans-Serif" font-size="10.00">src/node/rpc/node_frontend.h</text>
</a>
</g>
</g>
<!-- Node1&#45;&gt;Node9 -->
<g id="edge12" class="edge">
<title>Node1&#45;&gt;Node9</title>
<path fill="none" stroke="#63b8ff" d="M561.7,-620.76C536.28,-600.42 496,-561.16 496,-516.5 496,-516.5 496,-516.5 496,-454 496,-408.07 486.04,-353.68 481.84,-332.78"/>
<polygon fill="#63b8ff" stroke="#63b8ff" points="559.62,-623.58 569.68,-626.92 563.9,-618.04 559.62,-623.58"/>
</g>
<!-- Node11 -->
<g id="node11" class="node">
<title>Node11</title>
<g id="a_node11"><a xlink:href="node__interface_8h.html" target="_top" xlink:title=" ">
<polygon fill="white" stroke="#666666" points="984.5,-525 823.5,-525 823.5,-506 984.5,-506 984.5,-525"/>
<text text-anchor="middle" x="904" y="-513" font-family="Helvetica,sans-Serif" font-size="10.00">src/node/rpc/node_interface.h</text>
</a>
</g>
</g>
<!-- Node1&#45;&gt;Node11 -->
<g id="edge16" class="edge">
<title>Node1&#45;&gt;Node11</title>
<path fill="none" stroke="#63b8ff" d="M609.89,-622.62C644.3,-606.99 704.77,-580.32 758,-561 796.98,-546.85 842.87,-533.37 872.64,-525.03"/>
<polygon fill="#63b8ff" stroke="#63b8ff" points="608.14,-619.57 600.5,-626.91 611.05,-625.94 608.14,-619.57"/>
</g>
<!-- Node33 -->
<g id="node33" class="node">
<title>Node33</title>
<g id="a_node33"><a xlink:href="node__operation__interface_8h.html" target="_top" xlink:title=" ">
<polygon fill="white" stroke="#666666" points="921.5,-591 766.5,-591 766.5,-561 921.5,-561 921.5,-591"/>
<text text-anchor="start" x="774.5" y="-579" font-family="Helvetica,sans-Serif" font-size="10.00">src/node/rpc/node_operation</text>
<text text-anchor="middle" x="844" y="-568" font-family="Helvetica,sans-Serif" font-size="10.00">_interface.h</text>
</a>
</g>
</g>
<!-- Node1&#45;&gt;Node33 -->
<g id="edge62" class="edge">
<title>Node1&#45;&gt;Node33</title>
<path fill="none" stroke="#63b8ff" d="M629.92,-624.8C672.42,-615.31 734.8,-601.38 781.26,-591.01"/>
<polygon fill="#63b8ff" stroke="#63b8ff" points="629.09,-621.4 620.1,-626.99 630.62,-628.23 629.09,-621.4"/>
</g>
<!-- Node3 -->
<g id="node3" class="node">
<title>Node3</title>
<g id="a_node3"><a xlink:href="src_2enclave_2enclave_8h.html" target="_top" xlink:title=" ">
<polygon fill="white" stroke="#666666" points="927,-74 805,-74 805,-55 927,-55 927,-74"/>
<text text-anchor="middle" x="866" y="-62" font-family="Helvetica,sans-Serif" font-size="10.00">src/enclave/enclave.h</text>
</a>
</g>
</g>
<!-- Node2&#45;&gt;Node3 -->
<g id="edge2" class="edge">
<title>Node2&#45;&gt;Node3</title>
<path fill="none" stroke="#63b8ff" d="M136.66,-310.16C116.73,-302.69 95.7,-290.77 84,-272 76.95,-260.69 76.69,-253.15 84,-242 164.79,-118.84 245.33,-146.62 388,-110 534.32,-72.45 713.06,-65.76 804.96,-65.06"/>
<polygon fill="#63b8ff" stroke="#63b8ff" points="135.72,-313.54 146.31,-313.48 137.99,-306.92 135.72,-313.54"/>
</g>
<!-- Node5 -->
<g id="node5" class="node">
<title>Node5</title>
<g id="a_node5"><a xlink:href="ccf__acme__client_8h.html" target="_top" xlink:title=" ">
<polygon fill="white" stroke="#666666" points="435.5,-266.5 286.5,-266.5 286.5,-247.5 435.5,-247.5 435.5,-266.5"/>
<text text-anchor="middle" x="361" y="-254.5" font-family="Helvetica,sans-Serif" font-size="10.00">src/node/ccf_acme_client.h</text>
</a>
</g>
</g>
<!-- Node2&#45;&gt;Node5 -->
<g id="edge4" class="edge">
<title>Node2&#45;&gt;Node5</title>
<path fill="none" stroke="#63b8ff" d="M219.25,-309.84C253.83,-297.2 307.06,-277.73 337.49,-266.6"/>
<polygon fill="#63b8ff" stroke="#63b8ff" points="217.79,-306.65 209.6,-313.37 220.2,-313.22 217.79,-306.65"/>
</g>
<!-- Node6 -->
<g id="node6" class="node">
<title>Node6</title>
<g id="a_node6"><a xlink:href="node__state_8h.html" target="_top" xlink:title=" ">
<polygon fill="white" stroke="#666666" points="554,-200.5 430,-200.5 430,-181.5 554,-181.5 554,-200.5"/>
<text text-anchor="middle" x="492" y="-188.5" font-family="Helvetica,sans-Serif" font-size="10.00">src/node/node_state.h</text>
</a>
</g>
</g>
<!-- Node2&#45;&gt;Node6 -->
<g id="edge9" class="edge">
<title>Node2&#45;&gt;Node6</title>
<path fill="none" stroke="#63b8ff" d="M152.96,-309.58C118.22,-294.73 71.6,-268.53 95,-242 116.77,-217.32 323.84,-201.78 429.96,-195.37"/>
<polygon fill="#63b8ff" stroke="#63b8ff" points="151.8,-312.89 162.38,-313.46 154.47,-306.42 151.8,-312.89"/>
</g>
<!-- Node8 -->
<g id="node8" class="node">
<title>Node8</title>
<g id="a_node8"><a xlink:href="quote__endorsements__client_8h.html" target="_top" xlink:title=" ">
<polygon fill="white" stroke="#666666" points="268,-272 104,-272 104,-242 268,-242 268,-272"/>
<text text-anchor="start" x="112" y="-260" font-family="Helvetica,sans-Serif" font-size="10.00">src/node/quote_endorsements</text>
<text text-anchor="middle" x="186" y="-249" font-family="Helvetica,sans-Serif" font-size="10.00">_client.h</text>
</a>
</g>
</g>
<!-- Node2&#45;&gt;Node8 -->
<g id="edge10" class="edge">
<title>Node2&#45;&gt;Node8</title>
<path fill="none" stroke="#63b8ff" d="M186,-303.35C186,-293.47 186,-281.51 186,-272.36"/>
<polygon fill="#63b8ff" stroke="#63b8ff" points="182.5,-303.37 186,-313.37 189.5,-303.37 182.5,-303.37"/>
</g>
<!-- Node4 -->
<g id="node4" class="node">
<title>Node4</title>
<g id="a_node4"><a xlink:href="enclave_2main_8cpp.html" target="_top" xlink:title=" ">
<polygon fill="white" stroke="#666666" points="926,-19 806,-19 806,0 926,0 926,-19"/>
<text text-anchor="middle" x="866" y="-7" font-family="Helvetica,sans-Serif" font-size="10.00">src/enclave/main.cpp</text>
</a>
</g>
</g>
<!-- Node3&#45;&gt;Node4 -->
<g id="edge3" class="edge">
<title>Node3&#45;&gt;Node4</title>
<path fill="none" stroke="#63b8ff" d="M866,-44.66C866,-35.93 866,-25.99 866,-19.09"/>
<polygon fill="#63b8ff" stroke="#63b8ff" points="862.5,-44.75 866,-54.75 869.5,-44.75 862.5,-44.75"/>
</g>
<!-- Node5&#45;&gt;Node6 -->
<g id="edge5" class="edge">
<title>Node5&#45;&gt;Node6</title>
<path fill="none" stroke="#63b8ff" d="M387.89,-242.86C413.7,-230.25 451.96,-211.56 474.19,-200.7"/>
<polygon fill="#63b8ff" stroke="#63b8ff" points="386.12,-239.83 378.67,-247.37 389.19,-246.12 386.12,-239.83"/>
</g>
<!-- Node6&#45;&gt;Node3 -->
<g id="edge6" class="edge">
<title>Node6&#45;&gt;Node3</title>
<path fill="none" stroke="#63b8ff" d="M508.98,-174.8C532.65,-153.94 574.69,-118.08 593,-110 661.53,-79.75 747.92,-69.84 804.95,-66.72"/>
<polygon fill="#63b8ff" stroke="#63b8ff" points="506.6,-172.23 501.45,-181.49 511.25,-177.47 506.6,-172.23"/>
</g>
<!-- Node7 -->
<g id="node7" class="node">
<title>Node7</title>
<g id="a_node7"><a xlink:href="gov__effects_8h.html" target="_top" xlink:title=" ">
<polygon fill="white" stroke="#666666" points="541,-134.5 397,-134.5 397,-115.5 541,-115.5 541,-134.5"/>
<text text-anchor="middle" x="469" y="-122.5" font-family="Helvetica,sans-Serif" font-size="10.00">src/node/rpc/gov_effects.h</text>
</a>
</g>
</g>
<!-- Node6&#45;&gt;Node7 -->
<g id="edge7" class="edge">
<title>Node6&#45;&gt;Node7</title>
<path fill="none" stroke="#63b8ff" d="M485.47,-171.82C481.13,-159.74 475.62,-144.41 472.2,-134.91"/>
<polygon fill="#63b8ff" stroke="#63b8ff" points="482.22,-173.14 488.9,-181.37 488.81,-170.77 482.22,-173.14"/>
</g>
<!-- Node7&#45;&gt;Node3 -->
<g id="edge8" class="edge">
<title>Node7&#45;&gt;Node3</title>
<path fill="none" stroke="#63b8ff" d="M530.37,-113.86C538.64,-112.54 547.03,-111.22 555,-110 641.67,-96.75 742.12,-82.59 804.87,-73.89"/>
<polygon fill="#63b8ff" stroke="#63b8ff" points="529.68,-110.43 520.36,-115.47 530.79,-117.34 529.68,-110.43"/>
</g>
<!-- Node8&#45;&gt;Node6 -->
<g id="edge11" class="edge">
<title>Node8&#45;&gt;Node6</title>
<path fill="none" stroke="#63b8ff" d="M263.31,-239.83C323.08,-227.33 403.46,-210.52 451.28,-200.52"/>
<polygon fill="#63b8ff" stroke="#63b8ff" points="262.22,-236.48 253.15,-241.95 263.66,-243.33 262.22,-236.48"/>
</g>
<!-- Node9&#45;&gt;Node3 -->
<g id="edge13" class="edge">
<title>Node9&#45;&gt;Node3</title>
<path fill="none" stroke="#63b8ff" d="M520.61,-310.04C542.53,-302.01 568.92,-289.64 588,-272 648.63,-215.93 613.07,-159.73 679,-110 715.1,-82.77 765.37,-71.9 804.7,-67.7"/>
<polygon fill="#63b8ff" stroke="#63b8ff" points="519.19,-306.83 510.9,-313.42 521.49,-313.44 519.19,-306.83"/>
</g>
<!-- Node10 -->
<g id="node10" class="node">
<title>Node10</title>
<g id="a_node10"><a xlink:href="jwt__key__auto__refresh_8h.html" target="_top" xlink:title=" ">
<polygon fill="white" stroke="#666666" points="578.5,-272 453.5,-272 453.5,-242 578.5,-242 578.5,-272"/>
<text text-anchor="start" x="461.5" y="-260" font-family="Helvetica,sans-Serif" font-size="10.00">src/node/jwt_key_auto</text>
<text text-anchor="middle" x="516" y="-249" font-family="Helvetica,sans-Serif" font-size="10.00">_refresh.h</text>
</a>
</g>
</g>
<!-- Node9&#45;&gt;Node10 -->
<g id="edge14" class="edge">
<title>Node9&#45;&gt;Node10</title>
<path fill="none" stroke="#63b8ff" d="M489.78,-304.61C495.47,-294.5 502.55,-281.91 507.92,-272.36"/>
<polygon fill="#63b8ff" stroke="#63b8ff" points="486.71,-302.94 484.86,-313.37 492.81,-306.37 486.71,-302.94"/>
</g>
<!-- Node10&#45;&gt;Node6 -->
<g id="edge15" class="edge">
<title>Node10&#45;&gt;Node6</title>
<path fill="none" stroke="#63b8ff" d="M507.1,-232.28C502.99,-221.31 498.35,-208.94 495.32,-200.84"/>
<polygon fill="#63b8ff" stroke="#63b8ff" points="503.89,-233.66 510.67,-241.8 510.44,-231.2 503.89,-233.66"/>
</g>
<!-- Node11&#45;&gt;Node9 -->
<g id="edge59" class="edge">
<title>Node11&#45;&gt;Node9</title>
<path fill="none" stroke="#63b8ff" d="M813.09,-508.51C736.76,-502.17 634.64,-490.21 599,-470 568.42,-452.66 505.27,-361.47 485.83,-332.7"/>
<polygon fill="#63b8ff" stroke="#63b8ff" points="812.96,-512.01 823.21,-509.33 813.52,-505.03 812.96,-512.01"/>
</g>
<!-- Node12 -->
<g id="node12" class="node">
<title>Node12</title>
<g id="a_node12"><a xlink:href="wrap_8cpp.html" target="_top" xlink:title=" ">
<polygon fill="white" stroke="#666666" points="1560.5,-266.5 1471.5,-266.5 1471.5,-247.5 1560.5,-247.5 1560.5,-266.5"/>
<text text-anchor="middle" x="1516" y="-254.5" font-family="Helvetica,sans-Serif" font-size="10.00">src/js/wrap.cpp</text>
</a>
</g>
</g>
<!-- Node11&#45;&gt;Node12 -->
<g id="edge17" class="edge">
<title>Node11&#45;&gt;Node12</title>
<path fill="none" stroke="#63b8ff" d="M952.54,-503.77C1064.55,-479.18 1349.88,-417.52 1590,-374 1640.47,-364.85 1784.68,-377 1818,-338 1826.66,-327.86 1826.62,-318.17 1818,-308 1785.52,-269.7 1636.39,-260.7 1560.56,-258.61"/>
<polygon fill="#63b8ff" stroke="#63b8ff" points="951.58,-500.4 942.56,-505.96 953.08,-507.23 951.58,-500.4"/>
</g>
<!-- Node13 -->
<g id="node13" class="node">
<title>Node13</title>
<g id="a_node13"><a xlink:href="wrap_8h.html" target="_top" xlink:title=" ">
<polygon fill="white" stroke="#666666" points="1303,-398.5 1225,-398.5 1225,-379.5 1303,-379.5 1303,-398.5"/>
<text text-anchor="middle" x="1264" y="-386.5" font-family="Helvetica,sans-Serif" font-size="10.00">src/js/wrap.h</text>
</a>
</g>
</g>
<!-- Node11&#45;&gt;Node13 -->
<g id="edge18" class="edge">
<title>Node11&#45;&gt;Node13</title>
<path fill="none" stroke="#63b8ff" d="M938.27,-502.65C1010.33,-477.73 1176.08,-420.41 1239.08,-398.62"/>
<polygon fill="#63b8ff" stroke="#63b8ff" points="937.05,-499.37 928.74,-505.94 939.34,-505.98 937.05,-499.37"/>
</g>
<!-- Node20 -->
<g id="node20" class="node">
<title>Node20</title>
<g id="a_node20"><a xlink:href="member__frontend_8h.html" target="_top" xlink:title=" ">
<polygon fill="white" stroke="#666666" points="969,-338 849,-338 849,-308 969,-308 969,-338"/>
<text text-anchor="start" x="857" y="-326" font-family="Helvetica,sans-Serif" font-size="10.00">src/node/rpc/member</text>
<text text-anchor="middle" x="909" y="-315" font-family="Helvetica,sans-Serif" font-size="10.00">_frontend.h</text>
</a>
</g>
</g>
<!-- Node11&#45;&gt;Node20 -->
<g id="edge54" class="edge">
<title>Node11&#45;&gt;Node20</title>
<path fill="none" stroke="#63b8ff" d="M904.5,-495.6C905.5,-457.44 907.74,-371.91 908.63,-338.12"/>
<polygon fill="#63b8ff" stroke="#63b8ff" points="900.99,-495.73 904.23,-505.82 907.99,-495.91 900.99,-495.73"/>
</g>
<!-- Node21 -->
<g id="node21" class="node">
<title>Node21</title>
<g id="a_node21"><a xlink:href="historical__queries_8h.html" target="_top" xlink:title=" ">
<polygon fill="white" stroke="#666666" points="998,-206 892,-206 892,-176 998,-176 998,-206"/>
<text text-anchor="start" x="900" y="-194" font-family="Helvetica,sans-Serif" font-size="10.00">src/node/historical</text>
<text text-anchor="middle" x="945" y="-183" font-family="Helvetica,sans-Serif" font-size="10.00">_queries.h</text>
</a>
</g>
</g>
<!-- Node11&#45;&gt;Node21 -->
<g id="edge35" class="edge">
<title>Node11&#45;&gt;Node21</title>
<path fill="none" stroke="#63b8ff" d="M890.92,-497.34C865.35,-461.61 813.49,-376.8 840,-308 857.09,-263.64 899.88,-225.72 925.25,-206.17"/>
<polygon fill="#63b8ff" stroke="#63b8ff" points="888.32,-499.72 897.07,-505.7 893.96,-495.57 888.32,-499.72"/>
</g>
<!-- Node23 -->
<g id="node23" class="node">
<title>Node23</title>
<g id="a_node23"><a xlink:href="node__configuration__subsystem_8h.html" target="_top" xlink:title=" ">
<polygon fill="white" stroke="#666666" points="762,-470 608,-470 608,-440 762,-440 762,-470"/>
<text text-anchor="start" x="616" y="-458" font-family="Helvetica,sans-Serif" font-size="10.00">src/node/node_configuration</text>
<text text-anchor="middle" x="685" y="-447" font-family="Helvetica,sans-Serif" font-size="10.00">_subsystem.h</text>
</a>
</g>
</g>
<!-- Node11&#45;&gt;Node23 -->
<g id="edge39" class="edge">
<title>Node11&#45;&gt;Node23</title>
<path fill="none" stroke="#63b8ff" d="M862.15,-503.32C826.74,-493.86 775.82,-480.26 737.65,-470.06"/>
<polygon fill="#63b8ff" stroke="#63b8ff" points="861.59,-506.79 872.16,-505.99 863.4,-500.03 861.59,-506.79"/>
</g>
<!-- Node27 -->
<g id="node27" class="node">
<title>Node27</title>
<g id="a_node27"><a xlink:href="acme__subsystem_8h.html" target="_top" xlink:title=" ">
<polygon fill="white" stroke="#666666" points="2114.5,-200.5 1941.5,-200.5 1941.5,-181.5 2114.5,-181.5 2114.5,-200.5"/>
<text text-anchor="middle" x="2028" y="-188.5" font-family="Helvetica,sans-Serif" font-size="10.00">src/node/rpc/acme_subsystem.h</text>
</a>
</g>
</g>
<!-- Node11&#45;&gt;Node27 -->
<g id="edge49" class="edge">
<title>Node11&#45;&gt;Node27</title>
<path fill="none" stroke="#63b8ff" d="M994.78,-512.42C1208.9,-507.16 1733.25,-492.18 1810,-470 1879.22,-450 1951,-462.05 1951,-390 1951,-390 1951,-390 1951,-322 1951,-269.8 1997.53,-220.2 2018.25,-200.7"/>
<polygon fill="#63b8ff" stroke="#63b8ff" points="994.42,-508.92 984.51,-512.67 994.59,-515.92 994.42,-508.92"/>
</g>
<!-- Node28 -->
<g id="node28" class="node">
<title>Node28</title>
<g id="a_node28"><a xlink:href="custom__protocol__subsystem_8h.html" target="_top" xlink:title=" ">
<polygon fill="white" stroke="#666666" points="250.5,-404 121.5,-404 121.5,-374 250.5,-374 250.5,-404"/>
<text text-anchor="start" x="129.5" y="-392" font-family="Helvetica,sans-Serif" font-size="10.00">src/node/rpc/custom</text>
<text text-anchor="middle" x="186" y="-381" font-family="Helvetica,sans-Serif" font-size="10.00">_protocol_subsystem.h</text>
</a>
</g>
</g>
<!-- Node11&#45;&gt;Node28 -->
<g id="edge51" class="edge">
<title>Node11&#45;&gt;Node28</title>
<path fill="none" stroke="#63b8ff" d="M813.11,-505.33C741.62,-497.56 639.63,-485.27 551,-470 441.04,-451.06 314.07,-421.46 242.59,-404.07"/>
<polygon fill="#63b8ff" stroke="#63b8ff" points="813.11,-508.85 823.43,-506.44 813.86,-501.89 813.11,-508.85"/>
</g>
<!-- Node29 -->
<g id="node29" class="node">
<title>Node29</title>
<g id="a_node29"><a xlink:href="network__identity__subsystem_8h.html" target="_top" xlink:title=" ">
<polygon fill="white" stroke="#666666" points="1800.5,-470 1673.5,-470 1673.5,-440 1800.5,-440 1800.5,-470"/>
<text text-anchor="start" x="1681.5" y="-458" font-family="Helvetica,sans-Serif" font-size="10.00">src/node/rpc/network</text>
<text text-anchor="middle" x="1737" y="-447" font-family="Helvetica,sans-Serif" font-size="10.00">_identity_subsystem.h</text>
</a>
</g>
</g>
<!-- Node11&#45;&gt;Node29 -->
<g id="edge55" class="edge">
<title>Node11&#45;&gt;Node29</title>
<path fill="none" stroke="#63b8ff" d="M994.86,-509.33C1125.47,-501.73 1373.83,-486.62 1585,-470 1614.06,-467.71 1646.21,-464.81 1673.43,-462.23"/>
<polygon fill="#63b8ff" stroke="#63b8ff" points="994.29,-505.86 984.51,-509.93 994.69,-512.85 994.29,-505.86"/>
</g>
<!-- Node32 -->
<g id="node32" class="node">
<title>Node32</title>
<g id="a_node32"><a xlink:href="node__operation_8h.html" target="_top" xlink:title=" ">
<polygon fill="white" stroke="#666666" points="2143,-464.5 1979,-464.5 1979,-445.5 2143,-445.5 2143,-464.5"/>
<text text-anchor="middle" x="2061" y="-452.5" font-family="Helvetica,sans-Serif" font-size="10.00">src/node/rpc/node_operation.h</text>
</a>
</g>
</g>
<!-- Node11&#45;&gt;Node32 -->
<g id="edge60" class="edge">
<title>Node11&#45;&gt;Node32</title>
<path fill="none" stroke="#63b8ff" d="M994.87,-513.84C1178.54,-511.8 1606.94,-503.53 1965,-470 1979.42,-468.65 1994.99,-466.63 2009.3,-464.54"/>
<polygon fill="#63b8ff" stroke="#63b8ff" points="994.68,-510.34 984.72,-513.94 994.75,-517.34 994.68,-510.34"/>
</g>
<!-- Node13&#45;&gt;Node3 -->
<g id="edge20" class="edge">
<title>Node13&#45;&gt;Node3</title>
<path fill="none" stroke="#63b8ff" d="M1313.38,-385.89C1440.98,-380.12 1774.77,-362.8 1818,-338 1855.87,-316.27 1875,-301.66 1875,-258 1875,-258 1875,-258 1875,-190 1875,-93.97 1145.83,-71.24 927.22,-66.58"/>
<polygon fill="#63b8ff" stroke="#63b8ff" points="1312.95,-382.41 1303.12,-386.35 1313.26,-389.4 1312.95,-382.41"/>
</g>
<!-- Node13&#45;&gt;Node6 -->
<g id="edge31" class="edge">
<title>Node13&#45;&gt;Node6</title>
<path fill="none" stroke="#63b8ff" d="M1214.66,-384.85C1163.05,-380.02 1080.69,-367.95 1016,-338 996.47,-328.96 997.36,-317.38 978,-308 835.73,-239.05 649.72,-209.48 554.34,-198.17"/>
<polygon fill="#63b8ff" stroke="#63b8ff" points="1214.61,-388.36 1224.88,-385.74 1215.22,-381.38 1214.61,-388.36"/>
</g>
<!-- Node13&#45;&gt;Node9 -->
<g id="edge34" class="edge">
<title>Node13&#45;&gt;Node9</title>
<path fill="none" stroke="#63b8ff" d="M1214.55,-384.83C1104.9,-377.68 833.08,-359.24 606,-338 588.69,-336.38 570.06,-334.43 552.58,-332.5"/>
<polygon fill="#63b8ff" stroke="#63b8ff" points="1214.45,-388.33 1224.65,-385.49 1214.9,-381.35 1214.45,-388.33"/>
</g>
<!-- Node13&#45;&gt;Node12 -->
<g id="edge30" class="edge">
<title>Node13&#45;&gt;Node12</title>
<path fill="none" stroke="#63b8ff" d="M1313.26,-384.9C1409.12,-378.37 1613.19,-361.81 1634,-338 1662.99,-304.83 1594.62,-279.11 1550.26,-266.52"/>
<polygon fill="#63b8ff" stroke="#63b8ff" points="1312.97,-381.41 1303.23,-385.58 1313.44,-388.4 1312.97,-381.41"/>
</g>
<!-- Node14 -->
<g id="node14" class="node">
<title>Node14</title>
<g id="a_node14"><a xlink:href="js__generic__base_8cpp.html" target="_top" xlink:title=" ">
<polygon fill="white" stroke="#666666" points="1383,-338 1265,-338 1265,-308 1383,-308 1383,-338"/>
<text text-anchor="start" x="1273" y="-326" font-family="Helvetica,sans-Serif" font-size="10.00">src/apps/js_generic</text>
<text text-anchor="middle" x="1324" y="-315" font-family="Helvetica,sans-Serif" font-size="10.00">/js_generic_base.cpp</text>
</a>
</g>
</g>
<!-- Node13&#45;&gt;Node14 -->
<g id="edge19" class="edge">
<title>Node13&#45;&gt;Node14</title>
<path fill="none" stroke="#63b8ff" d="M1279.14,-371.85C1288.8,-361.54 1301.22,-348.3 1310.54,-338.36"/>
<polygon fill="#63b8ff" stroke="#63b8ff" points="1276.38,-369.68 1272.09,-379.37 1281.48,-374.47 1276.38,-369.68"/>
</g>
<!-- Node15 -->
<g id="node15" class="node">
<title>Node15</title>
<g id="a_node15"><a xlink:href="consensus_8cpp.html" target="_top" xlink:title=" ">
<polygon fill="white" stroke="#666666" points="1141,-332.5 1025,-332.5 1025,-313.5 1141,-313.5 1141,-332.5"/>
<text text-anchor="middle" x="1083" y="-320.5" font-family="Helvetica,sans-Serif" font-size="10.00">src/js/consensus.cpp</text>
</a>
</g>
</g>
<!-- Node13&#45;&gt;Node15 -->
<g id="edge21" class="edge">
<title>Node13&#45;&gt;Node15</title>
<path fill="none" stroke="#63b8ff" d="M1230.07,-376C1194.32,-363.36 1138.93,-343.78 1107.31,-332.6"/>
<polygon fill="#63b8ff" stroke="#63b8ff" points="1228.99,-379.33 1239.59,-379.37 1231.33,-372.74 1228.99,-379.33"/>
</g>
<!-- Node16 -->
<g id="node16" class="node">
<title>Node16</title>
<g id="a_node16"><a xlink:href="conv_8cpp.html" target="_top" xlink:title=" ">
<polygon fill="white" stroke="#666666" points="1247,-332.5 1159,-332.5 1159,-313.5 1247,-313.5 1247,-332.5"/>
<text text-anchor="middle" x="1203" y="-320.5" font-family="Helvetica,sans-Serif" font-size="10.00">src/js/conv.cpp</text>
</a>
</g>
</g>
<!-- Node13&#45;&gt;Node16 -->
<g id="edge23" class="edge">
<title>Node13&#45;&gt;Node16</title>
<path fill="none" stroke="#63b8ff" d="M1248.73,-371.98C1236.95,-359.62 1221.1,-342.99 1211.49,-332.91"/>
<polygon fill="#63b8ff" stroke="#63b8ff" points="1246.34,-374.54 1255.77,-379.37 1251.41,-369.72 1246.34,-374.54"/>
</g>
<!-- Node17 -->
<g id="node17" class="node">
<title>Node17</title>
<g id="a_node17"><a xlink:href="crypto_8cpp.html" target="_top" xlink:title=" ">
<polygon fill="white" stroke="#666666" points="1625,-332.5 1529,-332.5 1529,-313.5 1625,-313.5 1625,-332.5"/>
<text text-anchor="middle" x="1577" y="-320.5" font-family="Helvetica,sans-Serif" font-size="10.00">src/js/crypto.cpp</text>
</a>
</g>
</g>
<!-- Node13&#45;&gt;Node17 -->
<g id="edge25" class="edge">
<title>Node13&#45;&gt;Node17</title>
<path fill="none" stroke="#63b8ff" d="M1313.04,-379.14C1364.68,-369.65 1448.27,-353.8 1520,-338 1527.56,-336.33 1535.66,-334.42 1543.31,-332.56"/>
<polygon fill="#63b8ff" stroke="#63b8ff" points="1312.36,-375.71 1303.15,-380.96 1313.62,-382.6 1312.36,-375.71"/>
</g>
<!-- Node18 -->
<g id="node18" class="node">
<title>Node18</title>
<g id="a_node18"><a xlink:href="historical_8cpp.html" target="_top" xlink:title=" ">
<polygon fill="white" stroke="#666666" points="1511,-332.5 1401,-332.5 1401,-313.5 1511,-313.5 1511,-332.5"/>
<text text-anchor="middle" x="1456" y="-320.5" font-family="Helvetica,sans-Serif" font-size="10.00">src/js/historical.cpp</text>
</a>
</g>
</g>
<!-- Node13&#45;&gt;Node18 -->
<g id="edge27" class="edge">
<title>Node13&#45;&gt;Node18</title>
<path fill="none" stroke="#63b8ff" d="M1299.51,-376.16C1337.41,-363.53 1396.53,-343.82 1430.21,-332.6"/>
<polygon fill="#63b8ff" stroke="#63b8ff" points="1298.27,-372.89 1289.89,-379.37 1300.49,-379.53 1298.27,-372.89"/>
</g>
<!-- Node19 -->
<g id="node19" class="node">
<title>Node19</title>
<g id="a_node19"><a xlink:href="openenclave_8cpp.html" target="_top" xlink:title=" ">
<polygon fill="white" stroke="#666666" points="1809,-332.5 1681,-332.5 1681,-313.5 1809,-313.5 1809,-332.5"/>
<text text-anchor="middle" x="1745" y="-320.5" font-family="Helvetica,sans-Serif" font-size="10.00">src/js/openenclave.cpp</text>
</a>
</g>
</g>
<!-- Node13&#45;&gt;Node19 -->
<g id="edge29" class="edge">
<title>Node13&#45;&gt;Node19</title>
<path fill="none" stroke="#63b8ff" d="M1313.52,-382.73C1389.67,-374.43 1540.01,-357.26 1667,-338 1677.61,-336.39 1689,-334.46 1699.7,-332.56"/>
<polygon fill="#63b8ff" stroke="#63b8ff" points="1312.85,-379.28 1303.28,-383.84 1313.6,-386.24 1312.85,-379.28"/>
</g>
<!-- Node13&#45;&gt;Node20 -->
<g id="edge32" class="edge">
<title>Node13&#45;&gt;Node20</title>
<path fill="none" stroke="#63b8ff" d="M1214.86,-379.42C1158.75,-369.59 1064.21,-352.91 983,-338 978.5,-337.17 973.85,-336.31 969.17,-335.44"/>
<polygon fill="#63b8ff" stroke="#63b8ff" points="1214.43,-382.9 1224.88,-381.18 1215.64,-376.01 1214.43,-382.9"/>
</g>
<!-- Node15&#45;&gt;Node12 -->
<g id="edge22" class="edge">
<title>Node15&#45;&gt;Node12</title>
<path fill="none" stroke="#63b8ff" d="M1131.74,-311.4C1137.87,-310.19 1144.07,-309.02 1150,-308 1265.34,-288.1 1402.23,-271.16 1471.34,-263.08"/>
<polygon fill="#63b8ff" stroke="#63b8ff" points="1130.64,-308.05 1121.53,-313.47 1132.03,-314.91 1130.64,-308.05"/>
</g>
<!-- Node16&#45;&gt;Node12 -->
<g id="edge24" class="edge">
<title>Node16&#45;&gt;Node12</title>
<path fill="none" stroke="#63b8ff" d="M1243.48,-311C1247.7,-309.95 1251.93,-308.93 1256,-308 1331.07,-290.89 1419.21,-274.76 1471.18,-265.66"/>
<polygon fill="#63b8ff" stroke="#63b8ff" points="1242.56,-307.63 1233.74,-313.5 1244.3,-314.41 1242.56,-307.63"/>
</g>
<!-- Node17&#45;&gt;Node12 -->
<g id="edge26" class="edge">
<title>Node17&#45;&gt;Node12</title>
<path fill="none" stroke="#63b8ff" d="M1561.73,-305.98C1549.95,-293.62 1534.1,-276.99 1524.49,-266.91"/>
<polygon fill="#63b8ff" stroke="#63b8ff" points="1559.34,-308.54 1568.77,-313.37 1564.41,-303.72 1559.34,-308.54"/>
</g>
<!-- Node18&#45;&gt;Node12 -->
<g id="edge28" class="edge">
<title>Node18&#45;&gt;Node12</title>
<path fill="none" stroke="#63b8ff" d="M1471.02,-305.98C1482.6,-293.62 1498.2,-276.99 1507.65,-266.91"/>
<polygon fill="#63b8ff" stroke="#63b8ff" points="1468.38,-303.68 1464.09,-313.37 1473.48,-308.47 1468.38,-303.68"/>
</g>
<!-- Node20&#45;&gt;Node3 -->
<g id="edge33" class="edge">
<title>Node20&#45;&gt;Node3</title>
<path fill="none" stroke="#63b8ff" d="M937.07,-301.56C987.36,-262.47 1083.1,-175.2 1033,-110 1019.93,-92.99 969.35,-81.1 927.25,-73.91"/>
<polygon fill="#63b8ff" stroke="#63b8ff" points="934.65,-299 928.83,-307.85 938.9,-304.56 934.65,-299"/>
</g>
<!-- Node21&#45;&gt;Node3 -->
<g id="edge36" class="edge">
<title>Node21&#45;&gt;Node3</title>
<path fill="none" stroke="#63b8ff" d="M982.14,-170.71C1007.37,-155.02 1033.42,-131.95 1017,-110 996.38,-82.42 959.48,-71.21 927.32,-66.94"/>
<polygon fill="#63b8ff" stroke="#63b8ff" points="980.14,-167.83 973.32,-175.94 983.71,-173.85 980.14,-167.83"/>
</g>
<!-- Node22 -->
<g id="node22" class="node">
<title>Node22</title>
<g id="a_node22"><a xlink:href="historical__transaction__fetcher_8h.html" target="_top" xlink:title=" ">
<polygon fill="white" stroke="#666666" points="1007.5,-140 882.5,-140 882.5,-110 1007.5,-110 1007.5,-140"/>
<text text-anchor="start" x="890.5" y="-128" font-family="Helvetica,sans-Serif" font-size="10.00">src/indexing/historical</text>
<text text-anchor="middle" x="945" y="-117" font-family="Helvetica,sans-Serif" font-size="10.00">_transaction_fetcher.h</text>
</a>
</g>
</g>
<!-- Node21&#45;&gt;Node22 -->
<g id="edge37" class="edge">
<title>Node21&#45;&gt;Node22</title>
<path fill="none" stroke="#63b8ff" d="M945,-165.54C945,-156.96 945,-147.61 945,-140.16"/>
<polygon fill="#63b8ff" stroke="#63b8ff" points="941.5,-165.8 945,-175.8 948.5,-165.8 941.5,-165.8"/>
</g>
<!-- Node22&#45;&gt;Node3 -->
<g id="edge38" class="edge">
<title>Node22&#45;&gt;Node3</title>
<path fill="none" stroke="#63b8ff" d="M917.74,-103.82C904.13,-93.73 888.35,-82.05 877.84,-74.27"/>
<polygon fill="#63b8ff" stroke="#63b8ff" points="915.76,-106.7 925.88,-109.84 919.92,-101.07 915.76,-106.7"/>
</g>
<!-- Node24 -->
<g id="node24" class="node">
<title>Node24</title>
<g id="a_node24"><a xlink:href="frontend_8h.html" target="_top" xlink:title=" ">
<polygon fill="white" stroke="#666666" points="749.5,-398.5 620.5,-398.5 620.5,-379.5 749.5,-379.5 749.5,-398.5"/>
<text text-anchor="middle" x="685" y="-386.5" font-family="Helvetica,sans-Serif" font-size="10.00">src/node/rpc/frontend.h</text>
</a>
</g>
</g>
<!-- Node23&#45;&gt;Node24 -->
<g id="edge40" class="edge">
<title>Node23&#45;&gt;Node24</title>
<path fill="none" stroke="#63b8ff" d="M685,-429.6C685,-418.8 685,-406.78 685,-398.84"/>
<polygon fill="#63b8ff" stroke="#63b8ff" points="681.5,-429.8 685,-439.8 688.5,-429.8 681.5,-429.8"/>
</g>
<!-- Node24&#45;&gt;Node6 -->
<g id="edge44" class="edge">
<title>Node24&#45;&gt;Node6</title>
<path fill="none" stroke="#63b8ff" d="M652.55,-375.06C636.1,-366.85 617.27,-354.62 606,-338 581.63,-302.07 613.85,-276.87 588,-242 572.44,-221.02 545.48,-208.08 524.08,-200.64"/>
<polygon fill="#63b8ff" stroke="#63b8ff" points="651.34,-378.36 661.88,-379.43 654.31,-372.02 651.34,-378.36"/>
</g>
<!-- Node24&#45;&gt;Node9 -->
<g id="edge46" class="edge">
<title>Node24&#45;&gt;Node9</title>
<path fill="none" stroke="#63b8ff" d="M647.6,-376.32C607.16,-363.7 543.65,-343.87 507.54,-332.6"/>
<polygon fill="#63b8ff" stroke="#63b8ff" points="646.76,-379.73 657.35,-379.37 648.85,-373.05 646.76,-379.73"/>
</g>
<!-- Node24&#45;&gt;Node20 -->
<g id="edge45" class="edge">
<title>Node24&#45;&gt;Node20</title>
<path fill="none" stroke="#63b8ff" d="M725.31,-376.48C762.96,-365.73 819.26,-349.64 859.6,-338.12"/>
<polygon fill="#63b8ff" stroke="#63b8ff" points="723.86,-373.26 715.21,-379.37 725.79,-379.99 723.86,-373.26"/>
</g>
<!-- Node25 -->
<g id="node25" class="node">
<title>Node25</title>
<g id="a_node25"><a xlink:href="acme__challenge__frontend_8h.html" target="_top" xlink:title=" ">
<polygon fill="white" stroke="#666666" points="755,-338 615,-338 615,-308 755,-308 755,-338"/>
<text text-anchor="start" x="623" y="-326" font-family="Helvetica,sans-Serif" font-size="10.00">src/node/acme_challenge</text>
<text text-anchor="middle" x="685" y="-315" font-family="Helvetica,sans-Serif" font-size="10.00">_frontend.h</text>
</a>
</g>
</g>
<!-- Node24&#45;&gt;Node25 -->
<g id="edge41" class="edge">
<title>Node24&#45;&gt;Node25</title>
<path fill="none" stroke="#63b8ff" d="M685,-369.35C685,-359.47 685,-347.51 685,-338.36"/>
<polygon fill="#63b8ff" stroke="#63b8ff" points="681.5,-369.37 685,-379.37 688.5,-369.37 681.5,-369.37"/>
</g>
<!-- Node26 -->
<g id="node26" class="node">
<title>Node26</title>
<g id="a_node26"><a xlink:href="user__frontend_8h.html" target="_top" xlink:title=" ">
<polygon fill="white" stroke="#666666" points="864.5,-134.5 709.5,-134.5 709.5,-115.5 864.5,-115.5 864.5,-134.5"/>
<text text-anchor="middle" x="787" y="-122.5" font-family="Helvetica,sans-Serif" font-size="10.00">src/node/rpc/user_frontend.h</text>
</a>
</g>
</g>
<!-- Node24&#45;&gt;Node26 -->
<g id="edge47" class="edge">
<title>Node24&#45;&gt;Node26</title>
<path fill="none" stroke="#63b8ff" d="M718.65,-375.07C735.08,-366.96 753.52,-354.81 764,-338 806.49,-269.82 793.47,-164.9 788.52,-134.51"/>
<polygon fill="#63b8ff" stroke="#63b8ff" points="716.9,-372.02 709.28,-379.38 719.83,-378.38 716.9,-372.02"/>
</g>
<!-- Node25&#45;&gt;Node3 -->
<g id="edge42" class="edge">
<title>Node25&#45;&gt;Node3</title>
<path fill="none" stroke="#63b8ff" d="M678.78,-298.02C669.18,-254.99 656.2,-164.13 701,-110 714.67,-93.49 765.48,-81.44 807.14,-74.07"/>
<polygon fill="#63b8ff" stroke="#63b8ff" points="675.41,-298.95 681.11,-307.87 682.22,-297.34 675.41,-298.95"/>
</g>
<!-- Node25&#45;&gt;Node5 -->
<g id="edge43" class="edge">
<title>Node25&#45;&gt;Node5</title>
<path fill="none" stroke="#63b8ff" d="M604.73,-306.14C541.38,-293.63 455.43,-276.65 404.34,-266.56"/>
<polygon fill="#63b8ff" stroke="#63b8ff" points="604.21,-309.61 614.7,-308.11 605.56,-302.74 604.21,-309.61"/>
</g>
<!-- Node26&#45;&gt;Node3 -->
<g id="edge48" class="edge">
<title>Node26&#45;&gt;Node3</title>
<path fill="none" stroke="#63b8ff" d="M806.79,-109.35C821.75,-98.27 841.79,-83.43 854.3,-74.17"/>
<polygon fill="#63b8ff" stroke="#63b8ff" points="804.61,-106.6 798.66,-115.37 808.78,-112.23 804.61,-106.6"/>
</g>
<!-- Node27&#45;&gt;Node3 -->
<g id="edge50" class="edge">
<title>Node27&#45;&gt;Node3</title>
<path fill="none" stroke="#63b8ff" d="M2014.01,-173.97C1996.07,-154.73 1962.96,-123.37 1927,-110 1833.47,-75.23 1139.29,-67.44 927.3,-65.87"/>
<polygon fill="#63b8ff" stroke="#63b8ff" points="2011.42,-176.33 2020.73,-181.39 2016.61,-171.63 2011.42,-176.33"/>
</g>
<!-- Node28&#45;&gt;Node2 -->
<g id="edge53" class="edge">
<title>Node28&#45;&gt;Node2</title>
<path fill="none" stroke="#63b8ff" d="M186,-363.6C186,-352.8 186,-340.78 186,-332.84"/>
<polygon fill="#63b8ff" stroke="#63b8ff" points="182.5,-363.8 186,-373.8 189.5,-363.8 182.5,-363.8"/>
</g>
<!-- Node28&#45;&gt;Node3 -->
<g id="edge52" class="edge">
<title>Node28&#45;&gt;Node3</title>
<path fill="none" stroke="#63b8ff" d="M118.89,-370.73C65.6,-352.5 0,-317.9 0,-258 0,-258 0,-258 0,-190 0,-83.87 121.1,-131.65 225,-110 334.68,-87.14 666.9,-72.76 804.89,-67.62"/>
<polygon fill="#63b8ff" stroke="#63b8ff" points="118.08,-374.15 128.68,-373.95 120.27,-367.5 118.08,-374.15"/>
</g>
<!-- Node29&#45;&gt;Node3 -->
<g id="edge57" class="edge">
<title>Node29&#45;&gt;Node3</title>
<path fill="none" stroke="#63b8ff" d="M1810.46,-437.97C1845.36,-428.93 1882.04,-416.89 1894,-404 1918.85,-377.21 1913,-360.54 1913,-324 1913,-324 1913,-324 1913,-190 1913,-176.76 1916.1,-152.01 1736,-110 1581.9,-74.05 1098.46,-67.14 927.03,-65.81"/>
<polygon fill="#63b8ff" stroke="#63b8ff" points="1809.52,-434.59 1800.69,-440.43 1811.24,-441.38 1809.52,-434.59"/>
</g>
<!-- Node30 -->
<g id="node30" class="node">
<title>Node30</title>
<g id="a_node30"><a xlink:href="external__executor_8cpp.html" target="_top" xlink:title=" ">
<polygon fill="white" stroke="#666666" points="1885,-404 1737,-404 1737,-374 1885,-374 1885,-404"/>
<text text-anchor="start" x="1745" y="-392" font-family="Helvetica,sans-Serif" font-size="10.00">src/apps/external_executor</text>
<text text-anchor="middle" x="1811" y="-381" font-family="Helvetica,sans-Serif" font-size="10.00">/external_executor.cpp</text>
</a>
</g>
</g>
<!-- Node29&#45;&gt;Node30 -->
<g id="edge56" class="edge">
<title>Node29&#45;&gt;Node30</title>
<path fill="none" stroke="#63b8ff" d="M1761.05,-433.2C1772.03,-423.7 1784.76,-412.69 1794.62,-404.16"/>
<polygon fill="#63b8ff" stroke="#63b8ff" points="1758.7,-430.61 1753.42,-439.8 1763.28,-435.9 1758.7,-430.61"/>
</g>
<!-- Node31 -->
<g id="node31" class="node">
<title>Node31</title>
<g id="a_node31"><a xlink:href="historical__queries__adapter_8cpp.html" target="_top" xlink:title=" ">
<polygon fill="white" stroke="#666666" points="1719,-404 1599,-404 1599,-374 1719,-374 1719,-404"/>
<text text-anchor="start" x="1607" y="-392" font-family="Helvetica,sans-Serif" font-size="10.00">src/node/historical</text>
<text text-anchor="middle" x="1659" y="-381" font-family="Helvetica,sans-Serif" font-size="10.00">_queries_adapter.cpp</text>
</a>
</g>
</g>
<!-- Node29&#45;&gt;Node31 -->
<g id="edge58" class="edge">
<title>Node29&#45;&gt;Node31</title>
<path fill="none" stroke="#63b8ff" d="M1711.65,-433.2C1700.07,-423.7 1686.65,-412.69 1676.26,-404.16"/>
<polygon fill="#63b8ff" stroke="#63b8ff" points="1709.74,-436.16 1719.69,-439.8 1714.18,-430.75 1709.74,-436.16"/>
</g>
<!-- Node32&#45;&gt;Node3 -->
<g id="edge61" class="edge">
<title>Node32&#45;&gt;Node3</title>
<path fill="none" stroke="#63b8ff" d="M2078.88,-438.68C2103,-416.19 2143,-371.71 2143,-324 2143,-324 2143,-324 2143,-190 2143,-151.02 2377.42,-200.91 1965,-110 1764.89,-65.89 1127.85,-64.46 927.16,-65.15"/>
<polygon fill="#63b8ff" stroke="#63b8ff" points="2076.47,-436.14 2071.39,-445.43 2081.16,-441.34 2076.47,-436.14"/>
</g>
<!-- Node33&#45;&gt;Node11 -->
<g id="edge64" class="edge">
<title>Node33&#45;&gt;Node11</title>
<path fill="none" stroke="#63b8ff" d="M865.88,-553.67C875.94,-543.86 887.32,-532.76 895.01,-525.27"/>
<polygon fill="#63b8ff" stroke="#63b8ff" points="863.24,-551.35 858.52,-560.84 868.13,-556.36 863.24,-551.35"/>
</g>
<!-- Node33&#45;&gt;Node20 -->
<g id="edge63" class="edge">
<title>Node33&#45;&gt;Node20</title>
<path fill="none" stroke="#63b8ff" d="M826.47,-552.49C818.27,-539.29 811.09,-522.11 815,-506 831.46,-438.27 877.82,-367.57 898.64,-338.14"/>
<polygon fill="#63b8ff" stroke="#63b8ff" points="823.68,-554.6 832.18,-560.92 829.47,-550.68 823.68,-554.6"/>
</g>
<!-- Node33&#45;&gt;Node32 -->
<g id="edge65" class="edge">
<title>Node33&#45;&gt;Node32</title>
<path fill="none" stroke="#63b8ff" d="M931.78,-568.32C1120.93,-553.6 1580.98,-515.96 1965,-470 1978.3,-468.41 1992.59,-466.46 2005.98,-464.52"/>
<polygon fill="#63b8ff" stroke="#63b8ff" points="931.31,-564.85 921.61,-569.11 931.85,-571.83 931.31,-564.85"/>
</g>
</g>
</svg>
