<?xml version="1.0" encoding="UTF-8" standalone="no"?>
<!DOCTYPE svg PUBLIC "-//W3C//DTD SVG 1.1//EN"
 "http://www.w3.org/Graphics/SVG/1.1/DTD/svg11.dtd">
<!-- Generated by graphviz version 2.43.0 (0)
 -->
<!-- Title: src/host/snapshots.h Pages: 1 -->
<svg width="1883pt" height="313pt"
 viewBox="0.00 0.00 1883.00 313.00" xmlns="http://www.w3.org/2000/svg" xmlns:xlink="http://www.w3.org/1999/xlink">
<g id="graph0" class="graph" transform="scale(1 1) rotate(0) translate(4 309)">
<title>src/host/snapshots.h</title>
<!-- Node1 -->
<g id="node1" class="node">
<title>Node1</title>
<g id="a_node1"><a xlink:title=" ">
<polygon fill="#999999" stroke="#666666" points="1493.5,-305 1377.5,-305 1377.5,-286 1493.5,-286 1493.5,-305"/>
<text text-anchor="middle" x="1435.5" y="-293" font-family="Helvetica,sans-Serif" font-size="10.00">src/host/snapshots.h</text>
</a>
</g>
</g>
<!-- Node2 -->
<g id="node2" class="node">
<title>Node2</title>
<g id="a_node2"><a xlink:href="nonstd_8h.html" target="_top" xlink:title=" ">
<polygon fill="white" stroke="#666666" points="597.5,-74 507.5,-74 507.5,-55 597.5,-55 597.5,-74"/>
<text text-anchor="middle" x="552.5" y="-62" font-family="Helvetica,sans-Serif" font-size="10.00">ccf/ds/nonstd.h</text>
</a>
</g>
</g>
<!-- Node1&#45;&gt;Node2 -->
<g id="edge1" class="edge">
<title>Node1&#45;&gt;Node2</title>
<path fill="none" stroke="#63b8ff" d="M1377.3,-292.93C1236.93,-288.77 882.88,-275.98 767.5,-250 641.19,-221.56 567.92,-240.73 502.5,-129 491.84,-110.79 510.96,-92.06 528.55,-79.71"/>
<polygon fill="#63b8ff" stroke="#63b8ff" points="530.5,-82.61 536.92,-74.18 526.65,-76.77 530.5,-82.61"/>
</g>
<!-- Node10 -->
<g id="node10" class="node">
<title>Node10</title>
<g id="a_node10"><a xlink:href="ledger__enclave__types_8h.html" target="_top" xlink:title=" ">
<polygon fill="white" stroke="#666666" points="921,-250 776,-250 776,-220 921,-220 921,-250"/>
<text text-anchor="start" x="784" y="-238" font-family="Helvetica,sans-Serif" font-size="10.00">consensus/ledger_enclave</text>
<text text-anchor="middle" x="848.5" y="-227" font-family="Helvetica,sans-Serif" font-size="10.00">_types.h</text>
</a>
</g>
</g>
<!-- Node1&#45;&gt;Node10 -->
<g id="edge9" class="edge">
<title>Node1&#45;&gt;Node10</title>
<path fill="none" stroke="#63b8ff" d="M1377.24,-290.66C1283.82,-284.2 1094.84,-269.89 935.5,-250 934.03,-249.82 932.55,-249.63 931.05,-249.43"/>
<polygon fill="#63b8ff" stroke="#63b8ff" points="931.46,-245.95 921.08,-248.07 930.51,-252.89 931.46,-245.95"/>
</g>
<!-- Node26 -->
<g id="node26" class="node">
<title>Node26</title>
<g id="a_node26"><a xlink:title=" ">
<polygon fill="#e0e0e0" stroke="#999999" points="959.5,-129 903.5,-129 903.5,-110 959.5,-110 959.5,-129"/>
<text text-anchor="middle" x="931.5" y="-117" font-family="Helvetica,sans-Serif" font-size="10.00">optional</text>
</a>
</g>
</g>
<!-- Node1&#45;&gt;Node26 -->
<g id="edge67" class="edge">
<title>Node1&#45;&gt;Node26</title>
<path fill="none" stroke="#63b8ff" d="M1377.45,-293.9C1284.11,-290.23 1098.5,-271.48 973.5,-184 957.47,-172.78 945.93,-153.3 939.05,-138.86"/>
<polygon fill="#63b8ff" stroke="#63b8ff" points="942.12,-137.16 934.87,-129.43 935.73,-139.99 942.12,-137.16"/>
</g>
<!-- Node27 -->
<g id="node27" class="node">
<title>Node27</title>
<g id="a_node27"><a xlink:href="time__bound__logger_8h.html" target="_top" xlink:title=" ">
<polygon fill="white" stroke="#666666" points="1451,-244.5 1332,-244.5 1332,-225.5 1451,-225.5 1451,-244.5"/>
<text text-anchor="middle" x="1391.5" y="-232.5" font-family="Helvetica,sans-Serif" font-size="10.00">time_bound_logger.h</text>
</a>
</g>
</g>
<!-- Node1&#45;&gt;Node27 -->
<g id="edge42" class="edge">
<title>Node1&#45;&gt;Node27</title>
<path fill="none" stroke="#63b8ff" d="M1429.01,-285.87C1422.51,-277.23 1412.34,-263.7 1404.22,-252.92"/>
<polygon fill="#63b8ff" stroke="#63b8ff" points="1406.83,-250.56 1398.02,-244.67 1401.23,-254.76 1406.83,-250.56"/>
</g>
<!-- Node37 -->
<g id="node37" class="node">
<title>Node37</title>
<g id="a_node37"><a xlink:title=" ">
<polygon fill="#e0e0e0" stroke="#999999" points="1769.5,-129 1709.5,-129 1709.5,-110 1769.5,-110 1769.5,-129"/>
<text text-anchor="middle" x="1739.5" y="-117" font-family="Helvetica,sans-Serif" font-size="10.00">iostream</text>
</a>
</g>
</g>
<!-- Node1&#45;&gt;Node37 -->
<g id="edge66" class="edge">
<title>Node1&#45;&gt;Node37</title>
<path fill="none" stroke="#63b8ff" d="M1442.52,-285.62C1454.88,-270.47 1481.94,-239.37 1510.5,-220 1572.13,-178.2 1654.16,-147.7 1701.46,-132.15"/>
<polygon fill="#63b8ff" stroke="#63b8ff" points="1702.57,-135.47 1711.01,-129.06 1700.42,-128.81 1702.57,-135.47"/>
</g>
<!-- Node41 -->
<g id="node41" class="node">
<title>Node41</title>
<g id="a_node41"><a xlink:title=" ">
<polygon fill="#e0e0e0" stroke="#999999" points="1580,-244.5 1519,-244.5 1519,-225.5 1580,-225.5 1580,-244.5"/>
<text text-anchor="middle" x="1549.5" y="-232.5" font-family="Helvetica,sans-Serif" font-size="10.00">charconv</text>
</a>
</g>
</g>
<!-- Node1&#45;&gt;Node41 -->
<g id="edge63" class="edge">
<title>Node1&#45;&gt;Node41</title>
<path fill="none" stroke="#63b8ff" d="M1452.32,-285.87C1471.1,-276.23 1501.7,-260.53 1523.55,-249.31"/>
<polygon fill="#63b8ff" stroke="#63b8ff" points="1525.31,-252.35 1532.61,-244.67 1522.11,-246.12 1525.31,-252.35"/>
</g>
<!-- Node42 -->
<g id="node42" class="node">
<title>Node42</title>
<g id="a_node42"><a xlink:title=" ">
<polygon fill="#e0e0e0" stroke="#999999" points="1666.5,-244.5 1598.5,-244.5 1598.5,-225.5 1666.5,-225.5 1666.5,-244.5"/>
<text text-anchor="middle" x="1632.5" y="-232.5" font-family="Helvetica,sans-Serif" font-size="10.00">filesystem</text>
</a>
</g>
</g>
<!-- Node1&#45;&gt;Node42 -->
<g id="edge64" class="edge">
<title>Node1&#45;&gt;Node42</title>
<path fill="none" stroke="#63b8ff" d="M1466.27,-285.94C1497.42,-277.19 1546.93,-263.07 1589.5,-250 1591.93,-249.25 1594.43,-248.47 1596.95,-247.68"/>
<polygon fill="#63b8ff" stroke="#63b8ff" points="1598.17,-250.96 1606.62,-244.58 1596.03,-244.3 1598.17,-250.96"/>
</g>
<!-- Node43 -->
<g id="node43" class="node">
<title>Node43</title>
<g id="a_node43"><a xlink:title=" ">
<polygon fill="#e0e0e0" stroke="#999999" points="1740,-244.5 1685,-244.5 1685,-225.5 1740,-225.5 1740,-244.5"/>
<text text-anchor="middle" x="1712.5" y="-232.5" font-family="Helvetica,sans-Serif" font-size="10.00">fstream</text>
</a>
</g>
</g>
<!-- Node1&#45;&gt;Node43 -->
<g id="edge65" class="edge">
<title>Node1&#45;&gt;Node43</title>
<path fill="none" stroke="#63b8ff" d="M1493.87,-286.66C1542.88,-279.36 1614.48,-267.05 1675.5,-250 1677.79,-249.36 1680.13,-248.64 1682.48,-247.87"/>
<polygon fill="#63b8ff" stroke="#63b8ff" points="1683.71,-251.14 1691.97,-244.51 1681.38,-244.54 1683.71,-251.14"/>
</g>
<!-- Node3 -->
<g id="node3" class="node">
<title>Node3</title>
<g id="a_node3"><a xlink:title=" ">
<polygon fill="#e0e0e0" stroke="#999999" points="619.5,-19 555.5,-19 555.5,0 619.5,0 619.5,-19"/>
<text text-anchor="middle" x="587.5" y="-7" font-family="Helvetica,sans-Serif" font-size="10.00">algorithm</text>
</a>
</g>
</g>
<!-- Node2&#45;&gt;Node3 -->
<g id="edge2" class="edge">
<title>Node2&#45;&gt;Node3</title>
<path fill="none" stroke="#63b8ff" d="M558.28,-54.75C563.12,-47.42 570.18,-36.73 576.14,-27.7"/>
<polygon fill="#63b8ff" stroke="#63b8ff" points="579.24,-29.36 581.83,-19.09 573.4,-25.5 579.24,-29.36"/>
</g>
<!-- Node4 -->
<g id="node4" class="node">
<title>Node4</title>
<g id="a_node4"><a xlink:title=" ">
<polygon fill="#e0e0e0" stroke="#999999" points="469.5,-19 427.5,-19 427.5,0 469.5,0 469.5,-19"/>
<text text-anchor="middle" x="448.5" y="-7" font-family="Helvetica,sans-Serif" font-size="10.00">array</text>
</a>
</g>
</g>
<!-- Node2&#45;&gt;Node4 -->
<g id="edge3" class="edge">
<title>Node2&#45;&gt;Node4</title>
<path fill="none" stroke="#63b8ff" d="M535.79,-54.98C519.29,-46.57 493.8,-33.59 474.62,-23.81"/>
<polygon fill="#63b8ff" stroke="#63b8ff" points="476.01,-20.59 465.51,-19.17 472.83,-26.83 476.01,-20.59"/>
</g>
<!-- Node5 -->
<g id="node5" class="node">
<title>Node5</title>
<g id="a_node5"><a xlink:title=" ">
<polygon fill="#e0e0e0" stroke="#999999" points="537,-19 488,-19 488,0 537,0 537,-19"/>
<text text-anchor="middle" x="512.5" y="-7" font-family="Helvetica,sans-Serif" font-size="10.00">cctype</text>
</a>
</g>
</g>
<!-- Node2&#45;&gt;Node5 -->
<g id="edge4" class="edge">
<title>Node2&#45;&gt;Node5</title>
<path fill="none" stroke="#63b8ff" d="M545.89,-54.75C540.24,-47.26 531.96,-36.28 525.05,-27.13"/>
<polygon fill="#63b8ff" stroke="#63b8ff" points="527.8,-24.96 518.98,-19.09 522.21,-29.18 527.8,-24.96"/>
</g>
<!-- Node6 -->
<g id="node6" class="node">
<title>Node6</title>
<g id="a_node6"><a xlink:title=" ">
<polygon fill="#e0e0e0" stroke="#999999" points="681.5,-19 637.5,-19 637.5,0 681.5,0 681.5,-19"/>
<text text-anchor="middle" x="659.5" y="-7" font-family="Helvetica,sans-Serif" font-size="10.00">string</text>
</a>
</g>
</g>
<!-- Node2&#45;&gt;Node6 -->
<g id="edge5" class="edge">
<title>Node2&#45;&gt;Node6</title>
<path fill="none" stroke="#63b8ff" d="M569.69,-54.98C586.75,-46.54 613.13,-33.47 632.9,-23.68"/>
<polygon fill="#63b8ff" stroke="#63b8ff" points="634.59,-26.75 642,-19.17 631.48,-20.47 634.59,-26.75"/>
</g>
<!-- Node7 -->
<g id="node7" class="node">
<title>Node7</title>
<g id="a_node7"><a xlink:title=" ">
<polygon fill="#e0e0e0" stroke="#999999" points="409,-19 336,-19 336,0 409,0 409,-19"/>
<text text-anchor="middle" x="372.5" y="-7" font-family="Helvetica,sans-Serif" font-size="10.00">string_view</text>
</a>
</g>
</g>
<!-- Node2&#45;&gt;Node7 -->
<g id="edge6" class="edge">
<title>Node2&#45;&gt;Node7</title>
<path fill="none" stroke="#63b8ff" d="M523.58,-54.98C493.23,-46.05 445.33,-31.94 411.62,-22.02"/>
<polygon fill="#63b8ff" stroke="#63b8ff" points="412.23,-18.55 401.65,-19.08 410.25,-25.26 412.23,-18.55"/>
</g>
<!-- Node8 -->
<g id="node8" class="node">
<title>Node8</title>
<g id="a_node8"><a xlink:title=" ">
<polygon fill="#e0e0e0" stroke="#999999" points="926,-19 857,-19 857,0 926,0 926,-19"/>
<text text-anchor="middle" x="891.5" y="-7" font-family="Helvetica,sans-Serif" font-size="10.00">type_traits</text>
</a>
</g>
</g>
<!-- Node2&#45;&gt;Node8 -->
<g id="edge7" class="edge">
<title>Node2&#45;&gt;Node8</title>
<path fill="none" stroke="#63b8ff" d="M597.75,-56.84C654.85,-48.36 756.04,-33.13 842.5,-19 843.96,-18.76 845.45,-18.52 846.96,-18.27"/>
<polygon fill="#63b8ff" stroke="#63b8ff" points="847.7,-21.69 856.98,-16.57 846.54,-14.79 847.7,-21.69"/>
</g>
<!-- Node9 -->
<g id="node9" class="node">
<title>Node9</title>
<g id="a_node9"><a xlink:title=" ">
<polygon fill="#e0e0e0" stroke="#999999" points="268,-19 221,-19 221,0 268,0 268,-19"/>
<text text-anchor="middle" x="244.5" y="-7" font-family="Helvetica,sans-Serif" font-size="10.00">vector</text>
</a>
</g>
</g>
<!-- Node2&#45;&gt;Node9 -->
<g id="edge8" class="edge">
<title>Node2&#45;&gt;Node9</title>
<path fill="none" stroke="#63b8ff" d="M507.38,-55.74C445.07,-45.01 334.04,-25.91 278.34,-16.32"/>
<polygon fill="#63b8ff" stroke="#63b8ff" points="278.74,-12.84 268.29,-14.59 277.55,-19.74 278.74,-12.84"/>
</g>
<!-- Node11 -->
<g id="node11" class="node">
<title>Node11</title>
<g id="a_node11"><a xlink:href="ring__buffer__types_8h.html" target="_top" xlink:title=" ">
<polygon fill="white" stroke="#666666" points="734,-184 609,-184 609,-165 734,-165 734,-184"/>
<text text-anchor="middle" x="671.5" y="-172" font-family="Helvetica,sans-Serif" font-size="10.00">ds/ring_buffer_types.h</text>
</a>
</g>
</g>
<!-- Node10&#45;&gt;Node11 -->
<g id="edge10" class="edge">
<title>Node10&#45;&gt;Node11</title>
<path fill="none" stroke="#63b8ff" d="M806.1,-219.99C775.82,-209.98 735.55,-196.67 706.97,-187.22"/>
<polygon fill="#63b8ff" stroke="#63b8ff" points="707.97,-183.87 697.38,-184.05 705.78,-190.52 707.97,-183.87"/>
</g>
<!-- Node22 -->
<g id="node22" class="node">
<title>Node22</title>
<g id="a_node22"><a xlink:title=" ">
<polygon fill="#e0e0e0" stroke="#999999" points="959.5,-74 919.5,-74 919.5,-55 959.5,-55 959.5,-74"/>
<text text-anchor="middle" x="939.5" y="-62" font-family="Helvetica,sans-Serif" font-size="10.00">span</text>
</a>
</g>
</g>
<!-- Node10&#45;&gt;Node22 -->
<g id="edge41" class="edge">
<title>Node10&#45;&gt;Node22</title>
<path fill="none" stroke="#63b8ff" d="M851.65,-219.69C857.4,-195.61 871.22,-146.08 894.5,-110 901.52,-99.12 911.62,-88.82 920.48,-80.87"/>
<polygon fill="#63b8ff" stroke="#63b8ff" points="922.83,-83.47 928.13,-74.29 918.27,-78.16 922.83,-83.47"/>
</g>
<!-- Node11&#45;&gt;Node2 -->
<g id="edge21" class="edge">
<title>Node11&#45;&gt;Node2</title>
<path fill="none" stroke="#63b8ff" d="M659.08,-164.81C647.03,-156.19 628.44,-142.37 613.5,-129 596.68,-113.95 578.97,-95.13 566.99,-81.91"/>
<polygon fill="#63b8ff" stroke="#63b8ff" points="569.29,-79.23 560.01,-74.12 564.08,-83.9 569.29,-79.23"/>
</g>
<!-- Node11&#45;&gt;Node6 -->
<g id="edge39" class="edge">
<title>Node11&#45;&gt;Node6</title>
<path fill="none" stroke="#63b8ff" d="M667.39,-164.95C658.57,-145.54 639.1,-96.64 645.5,-55 646.85,-46.19 649.63,-36.74 652.35,-28.82"/>
<polygon fill="#63b8ff" stroke="#63b8ff" points="655.73,-29.77 655.9,-19.18 649.16,-27.35 655.73,-29.77"/>
</g>
<!-- Node11&#45;&gt;Node9 -->
<g id="edge40" class="edge">
<title>Node11&#45;&gt;Node9</title>
<path fill="none" stroke="#63b8ff" d="M608.77,-172.83C507.16,-170.77 311.96,-162.43 252.5,-129 219.54,-110.47 198.38,-90.82 210.5,-55 214.06,-44.47 221.22,-34.48 228.05,-26.63"/>
<polygon fill="#63b8ff" stroke="#63b8ff" points="230.63,-29.01 234.89,-19.31 225.51,-24.23 230.63,-29.01"/>
</g>
<!-- Node12 -->
<g id="node12" class="node">
<title>Node12</title>
<g id="a_node12"><a xlink:href="include_2ccf_2ds_2hash_8h.html" target="_top" xlink:title=" ">
<polygon fill="white" stroke="#666666" points="341.5,-129 261.5,-129 261.5,-110 341.5,-110 341.5,-129"/>
<text text-anchor="middle" x="301.5" y="-117" font-family="Helvetica,sans-Serif" font-size="10.00">ccf/ds/hash.h</text>
</a>
</g>
</g>
<!-- Node11&#45;&gt;Node12 -->
<g id="edge11" class="edge">
<title>Node11&#45;&gt;Node12</title>
<path fill="none" stroke="#63b8ff" d="M612.05,-164.98C539.87,-154.64 419.4,-137.39 351.68,-127.69"/>
<polygon fill="#63b8ff" stroke="#63b8ff" points="352.07,-124.21 341.68,-126.26 351.08,-131.14 352.07,-124.21"/>
</g>
<!-- Node17 -->
<g id="node17" class="node">
<title>Node17</title>
<g id="a_node17"><a xlink:href="serializer_8h.html" target="_top" xlink:title=" ">
<polygon fill="white" stroke="#666666" points="749.5,-129 679.5,-129 679.5,-110 749.5,-110 749.5,-129"/>
<text text-anchor="middle" x="714.5" y="-117" font-family="Helvetica,sans-Serif" font-size="10.00">serializer.h</text>
</a>
</g>
</g>
<!-- Node11&#45;&gt;Node17 -->
<g id="edge22" class="edge">
<title>Node11&#45;&gt;Node17</title>
<path fill="none" stroke="#63b8ff" d="M678.6,-164.75C684.67,-157.26 693.59,-146.28 701.01,-137.13"/>
<polygon fill="#63b8ff" stroke="#63b8ff" points="703.95,-139.06 707.53,-129.09 698.51,-134.65 703.95,-139.06"/>
</g>
<!-- Node11&#45;&gt;Node22 -->
<g id="edge38" class="edge">
<title>Node11&#45;&gt;Node22</title>
<path fill="none" stroke="#63b8ff" d="M690.53,-164.97C718.58,-152.48 772.77,-128.68 819.5,-110 850.01,-97.81 885.31,-84.85 909.69,-76.08"/>
<polygon fill="#63b8ff" stroke="#63b8ff" points="911.19,-79.26 919.42,-72.6 908.83,-72.67 911.19,-79.26"/>
</g>
<!-- Node24 -->
<g id="node24" class="node">
<title>Node24</title>
<g id="a_node24"><a xlink:title=" ">
<polygon fill="#e0e0e0" stroke="#999999" points="561.5,-129 511.5,-129 511.5,-110 561.5,-110 561.5,-129"/>
<text text-anchor="middle" x="536.5" y="-117" font-family="Helvetica,sans-Serif" font-size="10.00">atomic</text>
</a>
</g>
</g>
<!-- Node11&#45;&gt;Node24 -->
<g id="edge35" class="edge">
<title>Node11&#45;&gt;Node24</title>
<path fill="none" stroke="#63b8ff" d="M649.81,-164.98C627.7,-156.3 593.18,-142.75 568.05,-132.88"/>
<polygon fill="#63b8ff" stroke="#63b8ff" points="569.17,-129.57 558.58,-129.17 566.61,-136.08 569.17,-129.57"/>
</g>
<!-- Node25 -->
<g id="node25" class="node">
<title>Node25</title>
<g id="a_node25"><a xlink:title=" ">
<polygon fill="#e0e0e0" stroke="#999999" points="1508,-74 1429,-74 1429,-55 1508,-55 1508,-74"/>
<text text-anchor="middle" x="1468.5" y="-62" font-family="Helvetica,sans-Serif" font-size="10.00">fmt/format.h</text>
</a>
</g>
</g>
<!-- Node11&#45;&gt;Node25 -->
<g id="edge36" class="edge">
<title>Node11&#45;&gt;Node25</title>
<path fill="none" stroke="#63b8ff" d="M695.54,-164.93C736.02,-150.89 820.6,-123.25 894.5,-110 1086.2,-75.63 1318.62,-67.8 1418.71,-66.02"/>
<polygon fill="#63b8ff" stroke="#63b8ff" points="1418.89,-69.52 1428.84,-65.85 1418.78,-62.52 1418.89,-69.52"/>
</g>
<!-- Node11&#45;&gt;Node26 -->
<g id="edge37" class="edge">
<title>Node11&#45;&gt;Node26</title>
<path fill="none" stroke="#63b8ff" d="M713.27,-164.98C763.02,-154.84 845.41,-138.05 893.46,-128.26"/>
<polygon fill="#63b8ff" stroke="#63b8ff" points="894.35,-131.64 903.45,-126.22 892.95,-124.79 894.35,-131.64"/>
</g>
<!-- Node12&#45;&gt;Node4 -->
<g id="edge16" class="edge">
<title>Node12&#45;&gt;Node4</title>
<path fill="none" stroke="#63b8ff" d="M330.81,-109.93C351.99,-102.73 380.45,-90.89 401.5,-74 417.32,-61.31 430.55,-42.09 438.9,-28.12"/>
<polygon fill="#63b8ff" stroke="#63b8ff" points="441.94,-29.85 443.87,-19.43 435.86,-26.37 441.94,-29.85"/>
</g>
<!-- Node12&#45;&gt;Node7 -->
<g id="edge19" class="edge">
<title>Node12&#45;&gt;Node7</title>
<path fill="none" stroke="#63b8ff" d="M334.52,-109.87C352.68,-103.26 373.67,-92.1 384.5,-74 392.76,-60.19 388,-41.92 382.21,-28.53"/>
<polygon fill="#63b8ff" stroke="#63b8ff" points="385.3,-26.86 377.79,-19.39 379,-29.91 385.3,-26.86"/>
</g>
<!-- Node12&#45;&gt;Node9 -->
<g id="edge20" class="edge">
<title>Node12&#45;&gt;Node9</title>
<path fill="none" stroke="#63b8ff" d="M268.1,-109.98C249.72,-103.4 228.48,-92.24 217.5,-74 208.38,-58.84 218.76,-40.05 229.18,-26.85"/>
<polygon fill="#63b8ff" stroke="#63b8ff" points="231.99,-28.95 235.83,-19.08 226.67,-24.4 231.99,-28.95"/>
</g>
<!-- Node13 -->
<g id="node13" class="node">
<title>Node13</title>
<g id="a_node13"><a xlink:href="siphash_8h.html" target="_top" xlink:title=" ">
<polygon fill="white" stroke="#666666" points="95,-74 0,-74 0,-55 95,-55 95,-74"/>
<text text-anchor="middle" x="47.5" y="-62" font-family="Helvetica,sans-Serif" font-size="10.00">ccf/ds/siphash.h</text>
</a>
</g>
</g>
<!-- Node12&#45;&gt;Node13 -->
<g id="edge12" class="edge">
<title>Node12&#45;&gt;Node13</title>
<path fill="none" stroke="#63b8ff" d="M261.25,-110.1C217.11,-100.89 146.19,-86.09 98.26,-76.09"/>
<polygon fill="#63b8ff" stroke="#63b8ff" points="98.9,-72.65 88.4,-74.03 97.47,-79.5 98.9,-72.65"/>
</g>
<!-- Node15 -->
<g id="node15" class="node">
<title>Node15</title>
<g id="a_node15"><a xlink:title=" ">
<polygon fill="#e0e0e0" stroke="#999999" points="148.5,-19 98.5,-19 98.5,0 148.5,0 148.5,-19"/>
<text text-anchor="middle" x="123.5" y="-7" font-family="Helvetica,sans-Serif" font-size="10.00">cstdint</text>
</a>
</g>
</g>
<!-- Node12&#45;&gt;Node15 -->
<g id="edge17" class="edge">
<title>Node12&#45;&gt;Node15</title>
<path fill="none" stroke="#63b8ff" d="M281.45,-109.92C262.65,-101.59 233.99,-88.17 210.5,-74 185.82,-59.12 159.32,-39.14 142.14,-25.59"/>
<polygon fill="#63b8ff" stroke="#63b8ff" points="144.07,-22.65 134.06,-19.16 139.7,-28.13 144.07,-22.65"/>
</g>
<!-- Node16 -->
<g id="node16" class="node">
<title>Node16</title>
<g id="a_node16"><a xlink:title=" ">
<polygon fill="#e0e0e0" stroke="#999999" points="376,-74 227,-74 227,-55 376,-55 376,-74"/>
<text text-anchor="middle" x="301.5" y="-62" font-family="Helvetica,sans-Serif" font-size="10.00">small_vector/SmallVector.h</text>
</a>
</g>
</g>
<!-- Node12&#45;&gt;Node16 -->
<g id="edge18" class="edge">
<title>Node12&#45;&gt;Node16</title>
<path fill="none" stroke="#63b8ff" d="M301.5,-109.75C301.5,-102.8 301.5,-92.85 301.5,-84.13"/>
<polygon fill="#63b8ff" stroke="#63b8ff" points="305,-84.09 301.5,-74.09 298,-84.09 305,-84.09"/>
</g>
<!-- Node13&#45;&gt;Node9 -->
<g id="edge15" class="edge">
<title>Node13&#45;&gt;Node9</title>
<path fill="none" stroke="#63b8ff" d="M79.15,-54.98C115.34,-45.25 174.32,-29.38 211.19,-19.46"/>
<polygon fill="#63b8ff" stroke="#63b8ff" points="212.22,-22.81 220.96,-16.83 210.4,-16.05 212.22,-22.81"/>
</g>
<!-- Node14 -->
<g id="node14" class="node">
<title>Node14</title>
<g id="a_node14"><a xlink:title=" ">
<polygon fill="#e0e0e0" stroke="#999999" points="74,-19 21,-19 21,0 74,0 74,-19"/>
<text text-anchor="middle" x="47.5" y="-7" font-family="Helvetica,sans-Serif" font-size="10.00">cstddef</text>
</a>
</g>
</g>
<!-- Node13&#45;&gt;Node14 -->
<g id="edge13" class="edge">
<title>Node13&#45;&gt;Node14</title>
<path fill="none" stroke="#63b8ff" d="M47.5,-54.75C47.5,-47.8 47.5,-37.85 47.5,-29.13"/>
<polygon fill="#63b8ff" stroke="#63b8ff" points="51,-29.09 47.5,-19.09 44,-29.09 51,-29.09"/>
</g>
<!-- Node13&#45;&gt;Node15 -->
<g id="edge14" class="edge">
<title>Node13&#45;&gt;Node15</title>
<path fill="none" stroke="#63b8ff" d="M59.71,-54.98C71.28,-46.92 88.88,-34.65 102.66,-25.03"/>
<polygon fill="#63b8ff" stroke="#63b8ff" points="104.87,-27.76 111.07,-19.17 100.86,-22.02 104.87,-27.76"/>
</g>
<!-- Node17&#45;&gt;Node2 -->
<g id="edge23" class="edge">
<title>Node17&#45;&gt;Node2</title>
<path fill="none" stroke="#63b8ff" d="M688.47,-109.98C661.39,-101.13 618.79,-87.19 588.49,-77.28"/>
<polygon fill="#63b8ff" stroke="#63b8ff" points="589.32,-73.87 578.73,-74.08 587.15,-80.52 589.32,-73.87"/>
</g>
<!-- Node17&#45;&gt;Node8 -->
<g id="edge33" class="edge">
<title>Node17&#45;&gt;Node8</title>
<path fill="none" stroke="#63b8ff" d="M749.81,-112.63C790.85,-105.12 855.18,-91.04 872.5,-74 884.41,-62.28 888.92,-43.43 890.6,-29.31"/>
<polygon fill="#63b8ff" stroke="#63b8ff" points="894.09,-29.47 891.42,-19.22 887.12,-28.9 894.09,-29.47"/>
</g>
<!-- Node17&#45;&gt;Node9 -->
<g id="edge34" class="edge">
<title>Node17&#45;&gt;Node9</title>
<path fill="none" stroke="#63b8ff" d="M679.23,-111.7C636.39,-103.34 561.96,-88.46 498.5,-74 419.23,-55.93 326.73,-32.11 278.19,-19.4"/>
<polygon fill="#63b8ff" stroke="#63b8ff" points="278.79,-15.94 268.23,-16.79 277.02,-22.71 278.79,-15.94"/>
</g>
<!-- Node18 -->
<g id="node18" class="node">
<title>Node18</title>
<g id="a_node18"><a xlink:href="serialized_8h.html" target="_top" xlink:title=" ">
<polygon fill="white" stroke="#666666" points="727,-74 654,-74 654,-55 727,-55 727,-74"/>
<text text-anchor="middle" x="690.5" y="-62" font-family="Helvetica,sans-Serif" font-size="10.00">serialized.h</text>
</a>
</g>
</g>
<!-- Node17&#45;&gt;Node18 -->
<g id="edge24" class="edge">
<title>Node17&#45;&gt;Node18</title>
<path fill="none" stroke="#63b8ff" d="M710.54,-109.75C707.29,-102.57 702.58,-92.18 698.55,-83.27"/>
<polygon fill="#63b8ff" stroke="#63b8ff" points="701.7,-81.75 694.39,-74.09 695.33,-84.64 701.7,-81.75"/>
</g>
<!-- Node21 -->
<g id="node21" class="node">
<title>Node21</title>
<g id="a_node21"><a xlink:title=" ">
<polygon fill="#e0e0e0" stroke="#999999" points="803.5,-74 745.5,-74 745.5,-55 803.5,-55 803.5,-74"/>
<text text-anchor="middle" x="774.5" y="-62" font-family="Helvetica,sans-Serif" font-size="10.00">memory</text>
</a>
</g>
</g>
<!-- Node17&#45;&gt;Node21 -->
<g id="edge30" class="edge">
<title>Node17&#45;&gt;Node21</title>
<path fill="none" stroke="#63b8ff" d="M724.14,-109.98C733.01,-102.15 746.37,-90.34 757.11,-80.86"/>
<polygon fill="#63b8ff" stroke="#63b8ff" points="759.51,-83.41 764.68,-74.17 754.87,-78.17 759.51,-83.41"/>
</g>
<!-- Node17&#45;&gt;Node22 -->
<g id="edge31" class="edge">
<title>Node17&#45;&gt;Node22</title>
<path fill="none" stroke="#63b8ff" d="M749.74,-110.47C788.1,-101.68 851.22,-87.11 905.5,-74 906.76,-73.69 908.05,-73.38 909.36,-73.06"/>
<polygon fill="#63b8ff" stroke="#63b8ff" points="910.51,-76.38 919.38,-70.59 908.83,-69.59 910.51,-76.38"/>
</g>
<!-- Node23 -->
<g id="node23" class="node">
<title>Node23</title>
<g id="a_node23"><a xlink:title=" ">
<polygon fill="#e0e0e0" stroke="#999999" points="863,-74 822,-74 822,-55 863,-55 863,-74"/>
<text text-anchor="middle" x="842.5" y="-62" font-family="Helvetica,sans-Serif" font-size="10.00">tuple</text>
</a>
</g>
</g>
<!-- Node17&#45;&gt;Node23 -->
<g id="edge32" class="edge">
<title>Node17&#45;&gt;Node23</title>
<path fill="none" stroke="#63b8ff" d="M735.07,-109.98C756.06,-101.29 788.86,-87.71 812.7,-77.84"/>
<polygon fill="#63b8ff" stroke="#63b8ff" points="814.09,-81.05 821.99,-73.99 811.41,-74.59 814.09,-81.05"/>
</g>
<!-- Node18&#45;&gt;Node6 -->
<g id="edge28" class="edge">
<title>Node18&#45;&gt;Node6</title>
<path fill="none" stroke="#63b8ff" d="M685.38,-54.75C681.14,-47.49 674.97,-36.95 669.72,-27.98"/>
<polygon fill="#63b8ff" stroke="#63b8ff" points="672.59,-25.95 664.52,-19.09 666.55,-29.49 672.59,-25.95"/>
</g>
<!-- Node18&#45;&gt;Node9 -->
<g id="edge29" class="edge">
<title>Node18&#45;&gt;Node9</title>
<path fill="none" stroke="#63b8ff" d="M653.62,-59.12C568.65,-49.02 360.1,-24.24 278.25,-14.51"/>
<polygon fill="#63b8ff" stroke="#63b8ff" points="278.58,-11.03 268.24,-13.32 277.76,-17.98 278.58,-11.03"/>
</g>
<!-- Node18&#45;&gt;Node15 -->
<g id="edge25" class="edge">
<title>Node18&#45;&gt;Node15</title>
<path fill="none" stroke="#63b8ff" d="M653.71,-59.7C639.03,-58.2 621.97,-56.49 606.5,-55 431.03,-38.13 387.01,-35.47 211.5,-19 194.08,-17.36 174.71,-15.5 158.6,-13.93"/>
<polygon fill="#63b8ff" stroke="#63b8ff" points="158.82,-10.44 148.53,-12.95 158.15,-17.41 158.82,-10.44"/>
</g>
<!-- Node19 -->
<g id="node19" class="node">
<title>Node19</title>
<g id="a_node19"><a xlink:title=" ">
<polygon fill="#e0e0e0" stroke="#999999" points="749.5,-19 699.5,-19 699.5,0 749.5,0 749.5,-19"/>
<text text-anchor="middle" x="724.5" y="-7" font-family="Helvetica,sans-Serif" font-size="10.00">cstring</text>
</a>
</g>
</g>
<!-- Node18&#45;&gt;Node19 -->
<g id="edge26" class="edge">
<title>Node18&#45;&gt;Node19</title>
<path fill="none" stroke="#63b8ff" d="M696.11,-54.75C700.82,-47.42 707.67,-36.73 713.47,-27.7"/>
<polygon fill="#63b8ff" stroke="#63b8ff" points="716.54,-29.4 718.99,-19.09 710.64,-25.62 716.54,-29.4"/>
</g>
<!-- Node20 -->
<g id="node20" class="node">
<title>Node20</title>
<g id="a_node20"><a xlink:title=" ">
<polygon fill="#e0e0e0" stroke="#999999" points="833,-19 768,-19 768,0 833,0 833,-19"/>
<text text-anchor="middle" x="800.5" y="-7" font-family="Helvetica,sans-Serif" font-size="10.00">stdexcept</text>
</a>
</g>
</g>
<!-- Node18&#45;&gt;Node20 -->
<g id="edge27" class="edge">
<title>Node18&#45;&gt;Node20</title>
<path fill="none" stroke="#63b8ff" d="M708.17,-54.98C725.79,-46.5 753.08,-33.35 773.43,-23.54"/>
<polygon fill="#63b8ff" stroke="#63b8ff" points="775.02,-26.66 782.51,-19.17 771.98,-20.36 775.02,-26.66"/>
</g>
<!-- Node27&#45;&gt;Node6 -->
<g id="edge62" class="edge">
<title>Node27&#45;&gt;Node6</title>
<path fill="none" stroke="#63b8ff" d="M1331.69,-228.81C1254.43,-219.62 1118.6,-194.73 1023.5,-129 989.79,-105.7 1003.85,-75.72 968.5,-55 863.85,6.34 815.24,-40.89 691.95,-18.94"/>
<polygon fill="#63b8ff" stroke="#63b8ff" points="692.24,-15.43 681.76,-17 690.93,-22.31 692.24,-15.43"/>
</g>
<!-- Node27&#45;&gt;Node25 -->
<g id="edge61" class="edge">
<title>Node27&#45;&gt;Node25</title>
<path fill="none" stroke="#63b8ff" d="M1409.02,-225.34C1437.25,-210.27 1491.83,-176.24 1513.5,-129 1521.82,-110.87 1505.57,-92.53 1490.33,-80.25"/>
<polygon fill="#63b8ff" stroke="#63b8ff" points="1492.22,-77.3 1482.13,-74.09 1488.02,-82.9 1492.22,-77.3"/>
</g>
<!-- Node28 -->
<g id="node28" class="node">
<title>Node28</title>
<g id="a_node28"><a xlink:href="logger_8h.html" target="_top" xlink:title=" ">
<polygon fill="white" stroke="#666666" points="1435,-184 1348,-184 1348,-165 1435,-165 1435,-184"/>
<text text-anchor="middle" x="1391.5" y="-172" font-family="Helvetica,sans-Serif" font-size="10.00">ccf/ds/logger.h</text>
</a>
</g>
</g>
<!-- Node27&#45;&gt;Node28 -->
<g id="edge43" class="edge">
<title>Node27&#45;&gt;Node28</title>
<path fill="none" stroke="#63b8ff" d="M1391.5,-225.37C1391.5,-217.25 1391.5,-204.81 1391.5,-194.39"/>
<polygon fill="#63b8ff" stroke="#63b8ff" points="1395,-194.17 1391.5,-184.17 1388,-194.17 1395,-194.17"/>
</g>
<!-- Node40 -->
<g id="node40" class="node">
<title>Node40</title>
<g id="a_node40"><a xlink:title=" ">
<polygon fill="#e0e0e0" stroke="#999999" points="1329.5,-184 1279.5,-184 1279.5,-165 1329.5,-165 1329.5,-184"/>
<text text-anchor="middle" x="1304.5" y="-172" font-family="Helvetica,sans-Serif" font-size="10.00">chrono</text>
</a>
</g>
</g>
<!-- Node27&#45;&gt;Node40 -->
<g id="edge60" class="edge">
<title>Node27&#45;&gt;Node40</title>
<path fill="none" stroke="#63b8ff" d="M1378.66,-225.37C1364.78,-216.04 1342.43,-201.01 1325.89,-189.88"/>
<polygon fill="#63b8ff" stroke="#63b8ff" points="1327.64,-186.84 1317.39,-184.17 1323.74,-192.65 1327.64,-186.84"/>
</g>
<!-- Node28&#45;&gt;Node8 -->
<g id="edge59" class="edge">
<title>Node28&#45;&gt;Node8</title>
<path fill="none" stroke="#63b8ff" d="M1347.85,-166.37C1344.69,-165.89 1341.54,-165.43 1338.5,-165 1273.33,-155.79 1099.44,-165.24 1044.5,-129 1012.75,-108.05 1030.24,-79.92 1001.5,-55 982.81,-38.79 957.44,-27.99 935.78,-21.1"/>
<polygon fill="#63b8ff" stroke="#63b8ff" points="936.71,-17.73 926.12,-18.2 934.7,-24.43 936.71,-17.73"/>
</g>
<!-- Node28&#45;&gt;Node25 -->
<g id="edge54" class="edge">
<title>Node28&#45;&gt;Node25</title>
<path fill="none" stroke="#63b8ff" d="M1435.1,-167.11C1458.08,-161.29 1484.38,-150.17 1498.5,-129 1508.59,-113.88 1496.76,-94.84 1485.11,-81.57"/>
<polygon fill="#63b8ff" stroke="#63b8ff" points="1487.5,-79 1478.08,-74.14 1482.41,-83.81 1487.5,-79"/>
</g>
<!-- Node28&#45;&gt;Node26 -->
<g id="edge57" class="edge">
<title>Node28&#45;&gt;Node26</title>
<path fill="none" stroke="#63b8ff" d="M1347.85,-166.32C1344.69,-165.86 1341.55,-165.41 1338.5,-165 1302.43,-160.14 1063.54,-134.57 969.47,-124.54"/>
<polygon fill="#63b8ff" stroke="#63b8ff" points="969.83,-121.06 959.52,-123.48 969.09,-128.02 969.83,-121.06"/>
</g>
<!-- Node29 -->
<g id="node29" class="node">
<title>Node29</title>
<g id="a_node29"><a xlink:href="enum__formatter_8h.html" target="_top" xlink:title=" ">
<polygon fill="white" stroke="#666666" points="1189.5,-129 1053.5,-129 1053.5,-110 1189.5,-110 1189.5,-129"/>
<text text-anchor="middle" x="1121.5" y="-117" font-family="Helvetica,sans-Serif" font-size="10.00">ccf/ds/enum_formatter.h</text>
</a>
</g>
</g>
<!-- Node28&#45;&gt;Node29 -->
<g id="edge44" class="edge">
<title>Node28&#45;&gt;Node29</title>
<path fill="none" stroke="#63b8ff" d="M1348.12,-164.98C1301.12,-155.76 1226.07,-141.03 1175.34,-131.07"/>
<polygon fill="#63b8ff" stroke="#63b8ff" points="1175.71,-127.57 1165.22,-129.08 1174.36,-134.44 1175.71,-127.57"/>
</g>
<!-- Node30 -->
<g id="node30" class="node">
<title>Node30</title>
<g id="a_node30"><a xlink:href="thread__ids_8h.html" target="_top" xlink:title=" ">
<polygon fill="white" stroke="#666666" points="1691.5,-129 1583.5,-129 1583.5,-110 1691.5,-110 1691.5,-129"/>
<text text-anchor="middle" x="1637.5" y="-117" font-family="Helvetica,sans-Serif" font-size="10.00">ccf/ds/thread_ids.h</text>
</a>
</g>
</g>
<!-- Node28&#45;&gt;Node30 -->
<g id="edge46" class="edge">
<title>Node28&#45;&gt;Node30</title>
<path fill="none" stroke="#63b8ff" d="M1431.02,-164.98C1473.67,-155.8 1541.65,-141.15 1587.86,-131.19"/>
<polygon fill="#63b8ff" stroke="#63b8ff" points="1588.63,-134.61 1597.67,-129.08 1587.15,-127.77 1588.63,-134.61"/>
</g>
<!-- Node36 -->
<g id="node36" class="node">
<title>Node36</title>
<g id="a_node36"><a xlink:title=" ">
<polygon fill="#e0e0e0" stroke="#999999" points="1287,-129 1208,-129 1208,-110 1287,-110 1287,-129"/>
<text text-anchor="middle" x="1247.5" y="-117" font-family="Helvetica,sans-Serif" font-size="10.00">fmt/chrono.h</text>
</a>
</g>
</g>
<!-- Node28&#45;&gt;Node36 -->
<g id="edge53" class="edge">
<title>Node28&#45;&gt;Node36</title>
<path fill="none" stroke="#63b8ff" d="M1368.36,-164.98C1344.68,-156.27 1307.63,-142.63 1280.79,-132.75"/>
<polygon fill="#63b8ff" stroke="#63b8ff" points="1281.65,-129.34 1271.06,-129.17 1279.23,-135.91 1281.65,-129.34"/>
</g>
<!-- Node28&#45;&gt;Node37 -->
<g id="edge55" class="edge">
<title>Node28&#45;&gt;Node37</title>
<path fill="none" stroke="#63b8ff" d="M1435.16,-168.21C1493.22,-160.96 1599.25,-146.95 1699.33,-129.1"/>
<polygon fill="#63b8ff" stroke="#63b8ff" points="1700.09,-132.52 1709.31,-127.3 1698.85,-125.63 1700.09,-132.52"/>
</g>
<!-- Node38 -->
<g id="node38" class="node">
<title>Node38</title>
<g id="a_node38"><a xlink:title=" ">
<polygon fill="#e0e0e0" stroke="#999999" points="1415.5,-129 1305.5,-129 1305.5,-110 1415.5,-110 1415.5,-129"/>
<text text-anchor="middle" x="1360.5" y="-117" font-family="Helvetica,sans-Serif" font-size="10.00">nlohmann/json.hpp</text>
</a>
</g>
</g>
<!-- Node28&#45;&gt;Node38 -->
<g id="edge56" class="edge">
<title>Node28&#45;&gt;Node38</title>
<path fill="none" stroke="#63b8ff" d="M1386.38,-164.75C1382.14,-157.49 1375.97,-146.95 1370.72,-137.98"/>
<polygon fill="#63b8ff" stroke="#63b8ff" points="1373.59,-135.95 1365.52,-129.09 1367.55,-139.49 1373.59,-135.95"/>
</g>
<!-- Node39 -->
<g id="node39" class="node">
<title>Node39</title>
<g id="a_node39"><a xlink:title=" ">
<polygon fill="#e0e0e0" stroke="#999999" points="1489.5,-129 1433.5,-129 1433.5,-110 1489.5,-110 1489.5,-129"/>
<text text-anchor="middle" x="1461.5" y="-117" font-family="Helvetica,sans-Serif" font-size="10.00">sstream</text>
</a>
</g>
</g>
<!-- Node28&#45;&gt;Node39 -->
<g id="edge58" class="edge">
<title>Node28&#45;&gt;Node39</title>
<path fill="none" stroke="#63b8ff" d="M1402.75,-164.98C1413.3,-157 1429.3,-144.88 1441.94,-135.31"/>
<polygon fill="#63b8ff" stroke="#63b8ff" points="1444.19,-138 1450.05,-129.17 1439.96,-132.42 1444.19,-138"/>
</g>
<!-- Node29&#45;&gt;Node25 -->
<g id="edge45" class="edge">
<title>Node29&#45;&gt;Node25</title>
<path fill="none" stroke="#63b8ff" d="M1177.25,-109.98C1243.94,-99.8 1354.59,-82.9 1418.58,-73.12"/>
<polygon fill="#63b8ff" stroke="#63b8ff" points="1419.47,-76.53 1428.82,-71.56 1418.41,-69.61 1419.47,-76.53"/>
</g>
<!-- Node30&#45;&gt;Node25 -->
<g id="edge47" class="edge">
<title>Node30&#45;&gt;Node25</title>
<path fill="none" stroke="#63b8ff" d="M1610.35,-109.98C1581.97,-101.09 1537.27,-87.07 1505.64,-77.15"/>
<polygon fill="#63b8ff" stroke="#63b8ff" points="1506.45,-73.73 1495.87,-74.08 1504.36,-80.41 1506.45,-73.73"/>
</g>
<!-- Node31 -->
<g id="node31" class="node">
<title>Node31</title>
<g id="a_node31"><a xlink:title=" ">
<polygon fill="#e0e0e0" stroke="#999999" points="1795.5,-74 1709.5,-74 1709.5,-55 1795.5,-55 1795.5,-74"/>
<text text-anchor="middle" x="1752.5" y="-62" font-family="Helvetica,sans-Serif" font-size="10.00">fmt/ostream.h</text>
</a>
</g>
</g>
<!-- Node30&#45;&gt;Node31 -->
<g id="edge48" class="edge">
<title>Node30&#45;&gt;Node31</title>
<path fill="none" stroke="#63b8ff" d="M1655.98,-109.98C1674.48,-101.46 1703.18,-88.23 1724.48,-78.41"/>
<polygon fill="#63b8ff" stroke="#63b8ff" points="1726.07,-81.53 1733.69,-74.17 1723.14,-75.18 1726.07,-81.53"/>
</g>
<!-- Node32 -->
<g id="node32" class="node">
<title>Node32</title>
<g id="a_node32"><a xlink:title=" ">
<polygon fill="#e0e0e0" stroke="#999999" points="1875,-74 1814,-74 1814,-55 1875,-55 1875,-74"/>
<text text-anchor="middle" x="1844.5" y="-62" font-family="Helvetica,sans-Serif" font-size="10.00">fmt/std.h</text>
</a>
</g>
</g>
<!-- Node30&#45;&gt;Node32 -->
<g id="edge49" class="edge">
<title>Node30&#45;&gt;Node32</title>
<path fill="none" stroke="#63b8ff" d="M1670.76,-109.98C1706.95,-100.72 1764.85,-85.89 1803.75,-75.93"/>
<polygon fill="#63b8ff" stroke="#63b8ff" points="1804.87,-79.26 1813.69,-73.39 1803.13,-72.48 1804.87,-79.26"/>
</g>
<!-- Node33 -->
<g id="node33" class="node">
<title>Node33</title>
<g id="a_node33"><a xlink:title=" ">
<polygon fill="#e0e0e0" stroke="#999999" points="1569.5,-74 1525.5,-74 1525.5,-55 1569.5,-55 1569.5,-74"/>
<text text-anchor="middle" x="1547.5" y="-62" font-family="Helvetica,sans-Serif" font-size="10.00">limits</text>
</a>
</g>
</g>
<!-- Node30&#45;&gt;Node33 -->
<g id="edge50" class="edge">
<title>Node30&#45;&gt;Node33</title>
<path fill="none" stroke="#63b8ff" d="M1623.04,-109.98C1609.08,-101.77 1587.71,-89.18 1571.25,-79.49"/>
<polygon fill="#63b8ff" stroke="#63b8ff" points="1572.62,-76.23 1562.22,-74.17 1569.06,-82.26 1572.62,-76.23"/>
</g>
<!-- Node34 -->
<g id="node34" class="node">
<title>Node34</title>
<g id="a_node34"><a xlink:title=" ">
<polygon fill="#e0e0e0" stroke="#999999" points="1625.5,-74 1587.5,-74 1587.5,-55 1625.5,-55 1625.5,-74"/>
<text text-anchor="middle" x="1606.5" y="-62" font-family="Helvetica,sans-Serif" font-size="10.00">map</text>
</a>
</g>
</g>
<!-- Node30&#45;&gt;Node34 -->
<g id="edge51" class="edge">
<title>Node30&#45;&gt;Node34</title>
<path fill="none" stroke="#63b8ff" d="M1632.38,-109.75C1628.14,-102.49 1621.97,-91.95 1616.72,-82.98"/>
<polygon fill="#63b8ff" stroke="#63b8ff" points="1619.59,-80.95 1611.52,-74.09 1613.55,-84.49 1619.59,-80.95"/>
</g>
<!-- Node35 -->
<g id="node35" class="node">
<title>Node35</title>
<g id="a_node35"><a xlink:title=" ">
<polygon fill="#e0e0e0" stroke="#999999" points="1691.5,-74 1643.5,-74 1643.5,-55 1691.5,-55 1691.5,-74"/>
<text text-anchor="middle" x="1667.5" y="-62" font-family="Helvetica,sans-Serif" font-size="10.00">thread</text>
</a>
</g>
</g>
<!-- Node30&#45;&gt;Node35 -->
<g id="edge52" class="edge">
<title>Node30&#45;&gt;Node35</title>
<path fill="none" stroke="#63b8ff" d="M1642.45,-109.75C1646.56,-102.49 1652.53,-91.95 1657.6,-82.98"/>
<polygon fill="#63b8ff" stroke="#63b8ff" points="1660.76,-84.52 1662.64,-74.09 1654.67,-81.07 1660.76,-84.52"/>
</g>
</g>
</svg>
