<?xml version="1.0" encoding="UTF-8" standalone="no"?>
<!DOCTYPE svg PUBLIC "-//W3C//DTD SVG 1.1//EN"
 "http://www.w3.org/Graphics/SVG/1.1/DTD/svg11.dtd">
<!-- Generated by graphviz version 2.43.0 (0)
 -->
<!-- Title: include/ccf/service/tables/snp_measurements.h Pages: 1 -->
<svg width="2083pt" height="577pt"
 viewBox="0.00 0.00 2082.50 577.00" xmlns="http://www.w3.org/2000/svg" xmlns:xlink="http://www.w3.org/1999/xlink">
<g id="graph0" class="graph" transform="scale(1 1) rotate(0) translate(4 573)">
<title>include/ccf/service/tables/snp_measurements.h</title>
<!-- Node1 -->
<g id="node1" class="node">
<title>Node1</title>
<g id="a_node1"><a xlink:title=" ">
<polygon fill="#999999" stroke="#666666" points="321,-569 163,-569 163,-539 321,-539 321,-569"/>
<text text-anchor="start" x="171" y="-557" font-family="Helvetica,sans-Serif" font-size="10.00">include/ccf/service</text>
<text text-anchor="middle" x="242" y="-546" font-family="Helvetica,sans-Serif" font-size="10.00">/tables/snp_measurements.h</text>
</a>
</g>
</g>
<!-- Node2 -->
<g id="node2" class="node">
<title>Node2</title>
<g id="a_node2"><a xlink:href="common__endpoint__registry_8cpp.html" target="_top" xlink:title=" ">
<polygon fill="white" stroke="#666666" points="128,-503 0,-503 0,-473 128,-473 128,-503"/>
<text text-anchor="start" x="8" y="-491" font-family="Helvetica,sans-Serif" font-size="10.00">src/endpoints/common</text>
<text text-anchor="middle" x="64" y="-480" font-family="Helvetica,sans-Serif" font-size="10.00">_endpoint_registry.cpp</text>
</a>
</g>
</g>
<!-- Node1&#45;&gt;Node2 -->
<g id="edge1" class="edge">
<title>Node1&#45;&gt;Node2</title>
<path fill="none" stroke="#63b8ff" d="M193.21,-535.46C164.81,-525.25 129.5,-512.55 102.97,-503.01"/>
<polygon fill="#63b8ff" stroke="#63b8ff" points="192.34,-538.86 202.94,-538.95 194.71,-532.28 192.34,-538.86"/>
</g>
<!-- Node3 -->
<g id="node3" class="node">
<title>Node3</title>
<g id="a_node3"><a xlink:href="quote_8cpp.html" target="_top" xlink:title=" ">
<polygon fill="white" stroke="#666666" points="255.5,-497.5 146.5,-497.5 146.5,-478.5 255.5,-478.5 255.5,-497.5"/>
<text text-anchor="middle" x="201" y="-485.5" font-family="Helvetica,sans-Serif" font-size="10.00">src/node/quote.cpp</text>
</a>
</g>
</g>
<!-- Node1&#45;&gt;Node3 -->
<g id="edge2" class="edge">
<title>Node1&#45;&gt;Node3</title>
<path fill="none" stroke="#63b8ff" d="M227.44,-530.28C220.26,-519.07 212.01,-506.19 206.67,-497.84"/>
<polygon fill="#63b8ff" stroke="#63b8ff" points="224.56,-532.26 232.9,-538.8 230.45,-528.49 224.56,-532.26"/>
</g>
<!-- Node4 -->
<g id="node4" class="node">
<title>Node4</title>
<g id="a_node4"><a xlink:href="internal__tables__access_8h.html" target="_top" xlink:title=" ">
<polygon fill="white" stroke="#666666" points="321,-382 211,-382 211,-352 321,-352 321,-382"/>
<text text-anchor="start" x="219" y="-370" font-family="Helvetica,sans-Serif" font-size="10.00">src/service/internal</text>
<text text-anchor="middle" x="266" y="-359" font-family="Helvetica,sans-Serif" font-size="10.00">_tables_access.h</text>
</a>
</g>
</g>
<!-- Node1&#45;&gt;Node4 -->
<g id="edge3" class="edge">
<title>Node1&#45;&gt;Node4</title>
<path fill="none" stroke="#63b8ff" d="M254.69,-529.42C258.43,-521.28 262.05,-511.96 264,-503 273.44,-459.72 270.03,-406.76 267.6,-382.01"/>
<polygon fill="#63b8ff" stroke="#63b8ff" points="251.42,-528.13 250.16,-538.65 257.71,-531.21 251.42,-528.13"/>
</g>
<!-- Node14 -->
<g id="node14" class="node">
<title>Node14</title>
<g id="a_node14"><a xlink:href="network__tables_8h.html" target="_top" xlink:title=" ">
<polygon fill="white" stroke="#666666" points="499,-503 387,-503 387,-473 499,-473 499,-503"/>
<text text-anchor="start" x="395" y="-491" font-family="Helvetica,sans-Serif" font-size="10.00">src/service/network</text>
<text text-anchor="middle" x="443" y="-480" font-family="Helvetica,sans-Serif" font-size="10.00">_tables.h</text>
</a>
</g>
</g>
<!-- Node1&#45;&gt;Node14 -->
<g id="edge20" class="edge">
<title>Node1&#45;&gt;Node14</title>
<path fill="none" stroke="#63b8ff" d="M295.84,-535.86C328.12,-525.58 368.64,-512.68 398.99,-503.01"/>
<polygon fill="#63b8ff" stroke="#63b8ff" points="294.58,-532.59 286.11,-538.95 296.7,-539.26 294.58,-532.59"/>
</g>
<!-- Node5 -->
<g id="node5" class="node">
<title>Node5</title>
<g id="a_node5"><a xlink:href="node__state_8h.html" target="_top" xlink:title=" ">
<polygon fill="white" stroke="#666666" points="680,-184 556,-184 556,-165 680,-165 680,-184"/>
<text text-anchor="middle" x="618" y="-172" font-family="Helvetica,sans-Serif" font-size="10.00">src/node/node_state.h</text>
</a>
</g>
</g>
<!-- Node4&#45;&gt;Node5 -->
<g id="edge4" class="edge">
<title>Node4&#45;&gt;Node5</title>
<path fill="none" stroke="#63b8ff" d="M201.01,-350.6C183.42,-343.14 166.4,-332.15 156,-316 135.41,-284.02 188.32,-220.47 189,-220 246.96,-179.9 451.66,-174.71 555.94,-174.77"/>
<polygon fill="#63b8ff" stroke="#63b8ff" points="200.21,-354.04 210.8,-354.39 202.74,-347.51 200.21,-354.04"/>
</g>
<!-- Node9 -->
<g id="node9" class="node">
<title>Node9</title>
<g id="a_node9"><a xlink:href="member__frontend_8h.html" target="_top" xlink:title=" ">
<polygon fill="white" stroke="#666666" points="318,-250 198,-250 198,-220 318,-220 318,-250"/>
<text text-anchor="start" x="206" y="-238" font-family="Helvetica,sans-Serif" font-size="10.00">src/node/rpc/member</text>
<text text-anchor="middle" x="258" y="-227" font-family="Helvetica,sans-Serif" font-size="10.00">_frontend.h</text>
</a>
</g>
</g>
<!-- Node4&#45;&gt;Node9 -->
<g id="edge9" class="edge">
<title>Node4&#45;&gt;Node9</title>
<path fill="none" stroke="#63b8ff" d="M202.47,-347.65C187.68,-340.26 173.72,-330.04 165,-316 157.97,-304.67 158.16,-297.44 165,-286 174.97,-269.32 192.63,-257.88 209.9,-250.2"/>
<polygon fill="#63b8ff" stroke="#63b8ff" points="201.2,-350.92 211.75,-351.9 204.11,-344.55 201.2,-350.92"/>
</g>
<!-- Node10 -->
<g id="node10" class="node">
<title>Node10</title>
<g id="a_node10"><a xlink:href="node__frontend_8h.html" target="_top" xlink:title=" ">
<polygon fill="white" stroke="#666666" points="909,-310.5 751,-310.5 751,-291.5 909,-291.5 909,-310.5"/>
<text text-anchor="middle" x="830" y="-298.5" font-family="Helvetica,sans-Serif" font-size="10.00">src/node/rpc/node_frontend.h</text>
</a>
</g>
</g>
<!-- Node4&#45;&gt;Node10 -->
<g id="edge11" class="edge">
<title>Node4&#45;&gt;Node10</title>
<path fill="none" stroke="#63b8ff" d="M331.06,-360.27C422.84,-351.93 595.5,-335.33 742,-316 754.12,-314.4 767.13,-312.46 779.34,-310.53"/>
<polygon fill="#63b8ff" stroke="#63b8ff" points="330.73,-356.79 321.08,-361.17 331.36,-363.76 330.73,-356.79"/>
</g>
<!-- Node12 -->
<g id="node12" class="node">
<title>Node12</title>
<g id="a_node12"><a xlink:href="secret__broadcast_8h.html" target="_top" xlink:title=" ">
<polygon fill="white" stroke="#666666" points="490.5,-310.5 337.5,-310.5 337.5,-291.5 490.5,-291.5 490.5,-310.5"/>
<text text-anchor="middle" x="414" y="-298.5" font-family="Helvetica,sans-Serif" font-size="10.00">src/node/secret_broadcast.h</text>
</a>
</g>
</g>
<!-- Node4&#45;&gt;Node12 -->
<g id="edge15" class="edge">
<title>Node4&#45;&gt;Node12</title>
<path fill="none" stroke="#63b8ff" d="M307.76,-347.94C336.12,-335.68 372.32,-320.02 394.3,-310.52"/>
<polygon fill="#63b8ff" stroke="#63b8ff" points="306.27,-344.77 298.48,-351.95 309.05,-351.2 306.27,-344.77"/>
</g>
<!-- Node13 -->
<g id="node13" class="node">
<title>Node13</title>
<g id="a_node13"><a xlink:href="share__manager_8h.html" target="_top" xlink:title=" ">
<polygon fill="white" stroke="#666666" points="319.5,-310.5 174.5,-310.5 174.5,-291.5 319.5,-291.5 319.5,-310.5"/>
<text text-anchor="middle" x="247" y="-298.5" font-family="Helvetica,sans-Serif" font-size="10.00">src/node/share_manager.h</text>
</a>
</g>
</g>
<!-- Node4&#45;&gt;Node13 -->
<g id="edge17" class="edge">
<title>Node4&#45;&gt;Node13</title>
<path fill="none" stroke="#63b8ff" d="M258.86,-341.94C255.63,-331.06 252.01,-318.86 249.63,-310.84"/>
<polygon fill="#63b8ff" stroke="#63b8ff" points="255.58,-343.21 261.78,-351.8 262.29,-341.21 255.58,-343.21"/>
</g>
<!-- Node6 -->
<g id="node6" class="node">
<title>Node6</title>
<g id="a_node6"><a xlink:href="src_2enclave_2enclave_8h.html" target="_top" xlink:title=" ">
<polygon fill="white" stroke="#666666" points="979,-74 857,-74 857,-55 979,-55 979,-74"/>
<text text-anchor="middle" x="918" y="-62" font-family="Helvetica,sans-Serif" font-size="10.00">src/enclave/enclave.h</text>
</a>
</g>
</g>
<!-- Node5&#45;&gt;Node6 -->
<g id="edge5" class="edge">
<title>Node5&#45;&gt;Node6</title>
<path fill="none" stroke="#63b8ff" d="M635.73,-157.66C652.98,-143.09 680.54,-121.99 708,-110 755.65,-89.2 813.72,-77.85 856.71,-71.84"/>
<polygon fill="#63b8ff" stroke="#63b8ff" points="632.98,-155.41 627.7,-164.6 637.55,-160.7 632.98,-155.41"/>
</g>
<!-- Node8 -->
<g id="node8" class="node">
<title>Node8</title>
<g id="a_node8"><a xlink:href="gov__effects_8h.html" target="_top" xlink:title=" ">
<polygon fill="white" stroke="#666666" points="861,-129 717,-129 717,-110 861,-110 861,-129"/>
<text text-anchor="middle" x="789" y="-117" font-family="Helvetica,sans-Serif" font-size="10.00">src/node/rpc/gov_effects.h</text>
</a>
</g>
</g>
<!-- Node5&#45;&gt;Node8 -->
<g id="edge7" class="edge">
<title>Node5&#45;&gt;Node8</title>
<path fill="none" stroke="#63b8ff" d="M655.34,-161.93C687.28,-152.03 732.52,-138.01 761.31,-129.08"/>
<polygon fill="#63b8ff" stroke="#63b8ff" points="653.99,-158.68 645.47,-164.98 656.06,-165.37 653.99,-158.68"/>
</g>
<!-- Node7 -->
<g id="node7" class="node">
<title>Node7</title>
<g id="a_node7"><a xlink:href="enclave_2main_8cpp.html" target="_top" xlink:title=" ">
<polygon fill="white" stroke="#666666" points="978,-19 858,-19 858,0 978,0 978,-19"/>
<text text-anchor="middle" x="918" y="-7" font-family="Helvetica,sans-Serif" font-size="10.00">src/enclave/main.cpp</text>
</a>
</g>
</g>
<!-- Node6&#45;&gt;Node7 -->
<g id="edge6" class="edge">
<title>Node6&#45;&gt;Node7</title>
<path fill="none" stroke="#63b8ff" d="M918,-44.66C918,-35.93 918,-25.99 918,-19.09"/>
<polygon fill="#63b8ff" stroke="#63b8ff" points="914.5,-44.75 918,-54.75 921.5,-44.75 914.5,-44.75"/>
</g>
<!-- Node8&#45;&gt;Node6 -->
<g id="edge8" class="edge">
<title>Node8&#45;&gt;Node6</title>
<path fill="none" stroke="#63b8ff" d="M819.04,-106.16C842.92,-96.35 875.72,-82.87 896.9,-74.17"/>
<polygon fill="#63b8ff" stroke="#63b8ff" points="817.65,-102.95 809.73,-109.98 820.31,-109.42 817.65,-102.95"/>
</g>
<!-- Node9&#45;&gt;Node6 -->
<g id="edge10" class="edge">
<title>Node9&#45;&gt;Node6</title>
<path fill="none" stroke="#63b8ff" d="M308.84,-216.76C386.43,-190.91 539.4,-141.75 672,-110 735.95,-94.69 810.36,-81.92 860.46,-74.04"/>
<polygon fill="#63b8ff" stroke="#63b8ff" points="307.68,-213.46 299.3,-219.95 309.9,-220.1 307.68,-213.46"/>
</g>
<!-- Node10&#45;&gt;Node6 -->
<g id="edge12" class="edge">
<title>Node10&#45;&gt;Node6</title>
<path fill="none" stroke="#63b8ff" d="M836.82,-281.84C854.55,-234.58 901.65,-109.07 914.64,-74.45"/>
<polygon fill="#63b8ff" stroke="#63b8ff" points="833.47,-280.78 833.24,-291.38 840.03,-283.24 833.47,-280.78"/>
</g>
<!-- Node11 -->
<g id="node11" class="node">
<title>Node11</title>
<g id="a_node11"><a xlink:href="jwt__key__auto__refresh_8h.html" target="_top" xlink:title=" ">
<polygon fill="white" stroke="#666666" points="822.5,-250 697.5,-250 697.5,-220 822.5,-220 822.5,-250"/>
<text text-anchor="start" x="705.5" y="-238" font-family="Helvetica,sans-Serif" font-size="10.00">src/node/jwt_key_auto</text>
<text text-anchor="middle" x="760" y="-227" font-family="Helvetica,sans-Serif" font-size="10.00">_refresh.h</text>
</a>
</g>
</g>
<!-- Node10&#45;&gt;Node11 -->
<g id="edge13" class="edge">
<title>Node10&#45;&gt;Node11</title>
<path fill="none" stroke="#63b8ff" d="M812.95,-284.41C801.5,-273.94 786.54,-260.26 775.44,-250.12"/>
<polygon fill="#63b8ff" stroke="#63b8ff" points="810.82,-287.2 820.56,-291.37 815.54,-282.04 810.82,-287.2"/>
</g>
<!-- Node11&#45;&gt;Node5 -->
<g id="edge14" class="edge">
<title>Node11&#45;&gt;Node5</title>
<path fill="none" stroke="#63b8ff" d="M716.44,-216.05C690.7,-205.45 659.28,-192.51 638.97,-184.14"/>
<polygon fill="#63b8ff" stroke="#63b8ff" points="715.41,-219.41 725.99,-219.99 718.07,-212.94 715.41,-219.41"/>
</g>
<!-- Node12&#45;&gt;Node5 -->
<g id="edge16" class="edge">
<title>Node12&#45;&gt;Node5</title>
<path fill="none" stroke="#63b8ff" d="M413.22,-280.91C413.56,-262.79 417.05,-236 433,-220 450.2,-202.75 509,-190.6 555.74,-183.41"/>
<polygon fill="#63b8ff" stroke="#63b8ff" points="409.72,-281.18 413.34,-291.14 416.72,-281.1 409.72,-281.18"/>
</g>
<!-- Node13&#45;&gt;Node5 -->
<g id="edge18" class="edge">
<title>Node13&#45;&gt;Node5</title>
<path fill="none" stroke="#63b8ff" d="M271.14,-286.23C302.96,-268.6 361.09,-238.17 414,-220 463.03,-203.17 520.94,-191.25 562.5,-184.02"/>
<polygon fill="#63b8ff" stroke="#63b8ff" points="269.17,-283.32 262.15,-291.26 272.58,-289.43 269.17,-283.32"/>
</g>
<!-- Node13&#45;&gt;Node9 -->
<g id="edge19" class="edge">
<title>Node13&#45;&gt;Node9</title>
<path fill="none" stroke="#63b8ff" d="M250.21,-281.35C251.9,-271.47 253.96,-259.51 255.53,-250.36"/>
<polygon fill="#63b8ff" stroke="#63b8ff" points="246.73,-280.92 248.48,-291.37 253.63,-282.11 246.73,-280.92"/>
</g>
<!-- Node15 -->
<g id="node15" class="node">
<title>Node15</title>
<g id="a_node15"><a xlink:href="ccf__acme__client_8h.html" target="_top" xlink:title=" ">
<polygon fill="white" stroke="#666666" points="733.5,-310.5 584.5,-310.5 584.5,-291.5 733.5,-291.5 733.5,-310.5"/>
<text text-anchor="middle" x="659" y="-298.5" font-family="Helvetica,sans-Serif" font-size="10.00">src/node/ccf_acme_client.h</text>
</a>
</g>
</g>
<!-- Node14&#45;&gt;Node15 -->
<g id="edge21" class="edge">
<title>Node14&#45;&gt;Node15</title>
<path fill="none" stroke="#63b8ff" d="M462.23,-465.36C487.65,-437.42 534.54,-388.1 580,-352 600.59,-335.65 626.76,-319.97 643.2,-310.66"/>
<polygon fill="#63b8ff" stroke="#63b8ff" points="459.46,-463.21 455.35,-472.98 464.65,-467.9 459.46,-463.21"/>
</g>
<!-- Node16 -->
<g id="node16" class="node">
<title>Node16</title>
<g id="a_node16"><a xlink:href="network__state_8h.html" target="_top" xlink:title=" ">
<polygon fill="white" stroke="#666666" points="678,-437 538,-437 538,-418 678,-418 678,-437"/>
<text text-anchor="middle" x="608" y="-425" font-family="Helvetica,sans-Serif" font-size="10.00">src/node/network_state.h</text>
</a>
</g>
</g>
<!-- Node14&#45;&gt;Node16 -->
<g id="edge23" class="edge">
<title>Node14&#45;&gt;Node16</title>
<path fill="none" stroke="#63b8ff" d="M492.04,-469.61C522.23,-458.91 559.61,-445.65 583.63,-437.14"/>
<polygon fill="#63b8ff" stroke="#63b8ff" points="490.78,-466.35 482.52,-472.99 493.12,-472.94 490.78,-466.35"/>
</g>
<!-- Node15&#45;&gt;Node5 -->
<g id="edge22" class="edge">
<title>Node15&#45;&gt;Node5</title>
<path fill="none" stroke="#63b8ff" d="M652.94,-281.6C643.95,-254.31 627.44,-204.17 620.84,-184.12"/>
<polygon fill="#63b8ff" stroke="#63b8ff" points="649.73,-283.04 656.18,-291.44 656.38,-280.85 649.73,-283.04"/>
</g>
<!-- Node16&#45;&gt;Node5 -->
<g id="edge44" class="edge">
<title>Node16&#45;&gt;Node5</title>
<path fill="none" stroke="#63b8ff" d="M594.77,-409.92C589.17,-401.95 583.21,-391.98 580,-382 566.93,-341.35 568.29,-328 576,-286 583.3,-246.23 604.24,-202.23 613.5,-184.07"/>
<polygon fill="#63b8ff" stroke="#63b8ff" points="591.99,-412.05 600.77,-417.97 597.59,-407.86 591.99,-412.05"/>
</g>
<!-- Node16&#45;&gt;Node6 -->
<g id="edge24" class="edge">
<title>Node16&#45;&gt;Node6</title>
<path fill="none" stroke="#63b8ff" d="M688.47,-427.17C969.61,-428.44 1891,-423.37 1891,-302 1891,-302 1891,-302 1891,-173.5 1891,-103.96 1815.62,-126.24 1748,-110 1602.07,-74.95 1145.35,-67.48 979.21,-65.91"/>
<polygon fill="#63b8ff" stroke="#63b8ff" points="688.37,-423.67 678.35,-427.12 688.33,-430.67 688.37,-423.67"/>
</g>
<!-- Node16&#45;&gt;Node10 -->
<g id="edge45" class="edge">
<title>Node16&#45;&gt;Node10</title>
<path fill="none" stroke="#63b8ff" d="M654.77,-415.23C680.38,-407.91 712.09,-396.93 738,-382 773.21,-361.71 807.36,-326.85 822.23,-310.7"/>
<polygon fill="#63b8ff" stroke="#63b8ff" points="653.63,-411.91 644.92,-417.95 655.49,-418.66 653.63,-411.91"/>
</g>
<!-- Node16&#45;&gt;Node12 -->
<g id="edge48" class="edge">
<title>Node16&#45;&gt;Node12</title>
<path fill="none" stroke="#63b8ff" d="M572.73,-414.42C552.18,-406.62 526.21,-395.43 505,-382 471.06,-360.51 437.11,-326.55 422.06,-310.7"/>
<polygon fill="#63b8ff" stroke="#63b8ff" points="571.75,-417.79 582.34,-417.97 574.18,-411.22 571.75,-417.79"/>
</g>
<!-- Node16&#45;&gt;Node13 -->
<g id="edge49" class="edge">
<title>Node16&#45;&gt;Node13</title>
<path fill="none" stroke="#63b8ff" d="M568.28,-415.1C538.8,-406.47 497.7,-394.07 462,-382 390.69,-357.89 307.49,-325.78 268.82,-310.62"/>
<polygon fill="#63b8ff" stroke="#63b8ff" points="567.61,-418.55 578.19,-417.99 569.57,-411.83 567.61,-418.55"/>
</g>
<!-- Node17 -->
<g id="node17" class="node">
<title>Node17</title>
<g id="a_node17"><a xlink:href="wrap_8h.html" target="_top" xlink:title=" ">
<polygon fill="white" stroke="#666666" points="1347,-376.5 1269,-376.5 1269,-357.5 1347,-357.5 1347,-376.5"/>
<text text-anchor="middle" x="1308" y="-364.5" font-family="Helvetica,sans-Serif" font-size="10.00">src/js/wrap.h</text>
</a>
</g>
</g>
<!-- Node16&#45;&gt;Node17 -->
<g id="edge25" class="edge">
<title>Node16&#45;&gt;Node17</title>
<path fill="none" stroke="#63b8ff" d="M688.09,-419.81C838.38,-407.25 1157.54,-380.57 1268.78,-371.28"/>
<polygon fill="#63b8ff" stroke="#63b8ff" points="687.67,-416.33 678,-420.65 688.26,-423.3 687.67,-416.33"/>
</g>
<!-- Node25 -->
<g id="node25" class="node">
<title>Node25</title>
<g id="a_node25"><a xlink:href="acme__challenge__frontend_8h.html" target="_top" xlink:title=" ">
<polygon fill="white" stroke="#666666" points="729,-382 589,-382 589,-352 729,-352 729,-382"/>
<text text-anchor="start" x="597" y="-370" font-family="Helvetica,sans-Serif" font-size="10.00">src/node/acme_challenge</text>
<text text-anchor="middle" x="659" y="-359" font-family="Helvetica,sans-Serif" font-size="10.00">_frontend.h</text>
</a>
</g>
</g>
<!-- Node16&#45;&gt;Node25 -->
<g id="edge41" class="edge">
<title>Node16&#45;&gt;Node25</title>
<path fill="none" stroke="#63b8ff" d="M622.25,-410.15C629.94,-401.34 639.33,-390.56 646.69,-382.11"/>
<polygon fill="#63b8ff" stroke="#63b8ff" points="619.46,-408.03 615.53,-417.87 624.73,-412.63 619.46,-408.03"/>
</g>
<!-- Node26 -->
<g id="node26" class="node">
<title>Node26</title>
<g id="a_node26"><a xlink:href="user__frontend_8h.html" target="_top" xlink:title=" ">
<polygon fill="white" stroke="#666666" points="2074.5,-184 1919.5,-184 1919.5,-165 2074.5,-165 2074.5,-184"/>
<text text-anchor="middle" x="1997" y="-172" font-family="Helvetica,sans-Serif" font-size="10.00">src/node/rpc/user_frontend.h</text>
</a>
</g>
</g>
<!-- Node16&#45;&gt;Node26 -->
<g id="edge46" class="edge">
<title>Node16&#45;&gt;Node26</title>
<path fill="none" stroke="#63b8ff" d="M688.56,-426.08C964.07,-424.32 1854.5,-416.03 1905,-382 1976.28,-333.97 1992.93,-216.99 1996.26,-184.18"/>
<polygon fill="#63b8ff" stroke="#63b8ff" points="688.22,-422.58 678.24,-426.14 688.26,-429.58 688.22,-422.58"/>
</g>
<!-- Node27 -->
<g id="node27" class="node">
<title>Node27</title>
<g id="a_node27"><a xlink:href="snapshotter_8h.html" target="_top" xlink:title=" ">
<polygon fill="white" stroke="#666666" points="569.5,-244.5 442.5,-244.5 442.5,-225.5 569.5,-225.5 569.5,-244.5"/>
<text text-anchor="middle" x="506" y="-232.5" font-family="Helvetica,sans-Serif" font-size="10.00">src/node/snapshotter.h</text>
</a>
</g>
</g>
<!-- Node16&#45;&gt;Node27 -->
<g id="edge50" class="edge">
<title>Node16&#45;&gt;Node27</title>
<path fill="none" stroke="#63b8ff" d="M579.58,-413.09C566.64,-405.63 552.2,-395.18 543,-382 511.87,-337.4 506.9,-268.89 506.13,-244.77"/>
<polygon fill="#63b8ff" stroke="#63b8ff" points="578.18,-416.31 588.64,-417.98 581.51,-410.15 578.18,-416.31"/>
</g>
<!-- Node17&#45;&gt;Node5 -->
<g id="edge38" class="edge">
<title>Node17&#45;&gt;Node5</title>
<path fill="none" stroke="#63b8ff" d="M1258.72,-361.35C1202.68,-355.08 1108.99,-341.63 1032,-316 1003.71,-306.58 998.82,-299.02 972,-286 910.12,-255.95 897.24,-241.82 832,-220 781.08,-202.97 721.07,-191.17 677.57,-184.02"/>
<polygon fill="#63b8ff" stroke="#63b8ff" points="1258.42,-364.83 1268.73,-362.43 1259.17,-357.87 1258.42,-364.83"/>
</g>
<!-- Node17&#45;&gt;Node6 -->
<g id="edge27" class="edge">
<title>Node17&#45;&gt;Node6</title>
<path fill="none" stroke="#63b8ff" d="M1357.6,-364.53C1481.75,-360.4 1798.49,-346.9 1834,-316 1861.57,-292.01 1853,-272.54 1853,-236 1853,-236 1853,-236 1853,-173.5 1853,-85.26 1187.36,-69.04 979.35,-66.12"/>
<polygon fill="#63b8ff" stroke="#63b8ff" points="1357.13,-361.04 1347.25,-364.87 1357.36,-368.04 1357.13,-361.04"/>
</g>
<!-- Node17&#45;&gt;Node9 -->
<g id="edge39" class="edge">
<title>Node17&#45;&gt;Node9</title>
<path fill="none" stroke="#63b8ff" d="M1258.76,-361.02C1197.27,-354.12 1089.16,-339.75 999,-316 961.88,-306.22 955.51,-294.17 918,-286 706.8,-240.01 648.51,-266.62 433,-250 394.86,-247.06 352.06,-243.64 318.33,-240.91"/>
<polygon fill="#63b8ff" stroke="#63b8ff" points="1258.63,-364.53 1268.96,-362.14 1259.4,-357.57 1258.63,-364.53"/>
</g>
<!-- Node17&#45;&gt;Node10 -->
<g id="edge40" class="edge">
<title>Node17&#45;&gt;Node10</title>
<path fill="none" stroke="#63b8ff" d="M1258.72,-359.4C1171.49,-347.72 990,-323.42 893.51,-310.5"/>
<polygon fill="#63b8ff" stroke="#63b8ff" points="1258.51,-362.9 1268.88,-360.76 1259.44,-355.97 1258.51,-362.9"/>
</g>
<!-- Node18 -->
<g id="node18" class="node">
<title>Node18</title>
<g id="a_node18"><a xlink:href="js__generic__base_8cpp.html" target="_top" xlink:title=" ">
<polygon fill="white" stroke="#666666" points="1305,-316 1187,-316 1187,-286 1305,-286 1305,-316"/>
<text text-anchor="start" x="1195" y="-304" font-family="Helvetica,sans-Serif" font-size="10.00">src/apps/js_generic</text>
<text text-anchor="middle" x="1246" y="-293" font-family="Helvetica,sans-Serif" font-size="10.00">/js_generic_base.cpp</text>
</a>
</g>
</g>
<!-- Node17&#45;&gt;Node18 -->
<g id="edge26" class="edge">
<title>Node17&#45;&gt;Node18</title>
<path fill="none" stroke="#63b8ff" d="M1292.65,-350.16C1282.62,-339.81 1269.64,-326.4 1259.91,-316.36"/>
<polygon fill="#63b8ff" stroke="#63b8ff" points="1290.17,-352.62 1299.64,-357.37 1295.19,-347.75 1290.17,-352.62"/>
</g>
<!-- Node19 -->
<g id="node19" class="node">
<title>Node19</title>
<g id="a_node19"><a xlink:href="consensus_8cpp.html" target="_top" xlink:title=" ">
<polygon fill="white" stroke="#666666" points="1681,-310.5 1565,-310.5 1565,-291.5 1681,-291.5 1681,-310.5"/>
<text text-anchor="middle" x="1623" y="-298.5" font-family="Helvetica,sans-Serif" font-size="10.00">src/js/consensus.cpp</text>
</a>
</g>
</g>
<!-- Node17&#45;&gt;Node19 -->
<g id="edge28" class="edge">
<title>Node17&#45;&gt;Node19</title>
<path fill="none" stroke="#63b8ff" d="M1357.01,-356.23C1407.05,-346.22 1486.97,-330.17 1556,-316 1564.5,-314.26 1573.6,-312.37 1582.26,-310.56"/>
<polygon fill="#63b8ff" stroke="#63b8ff" points="1356.22,-352.81 1347.1,-358.2 1357.6,-359.68 1356.22,-352.81"/>
</g>
<!-- Node20 -->
<g id="node20" class="node">
<title>Node20</title>
<g id="a_node20"><a xlink:href="wrap_8cpp.html" target="_top" xlink:title=" ">
<polygon fill="white" stroke="#666666" points="1667.5,-244.5 1578.5,-244.5 1578.5,-225.5 1667.5,-225.5 1667.5,-244.5"/>
<text text-anchor="middle" x="1623" y="-232.5" font-family="Helvetica,sans-Serif" font-size="10.00">src/js/wrap.cpp</text>
</a>
</g>
</g>
<!-- Node17&#45;&gt;Node20 -->
<g id="edge37" class="edge">
<title>Node17&#45;&gt;Node20</title>
<path fill="none" stroke="#63b8ff" d="M1357.4,-363.12C1455.72,-356.87 1668.37,-340.65 1690,-316 1712.47,-290.4 1665.8,-259.26 1639.43,-244.52"/>
<polygon fill="#63b8ff" stroke="#63b8ff" points="1356.88,-359.64 1347.12,-363.76 1357.32,-366.63 1356.88,-359.64"/>
</g>
<!-- Node21 -->
<g id="node21" class="node">
<title>Node21</title>
<g id="a_node21"><a xlink:href="conv_8cpp.html" target="_top" xlink:title=" ">
<polygon fill="white" stroke="#666666" points="1825,-310.5 1737,-310.5 1737,-291.5 1825,-291.5 1825,-310.5"/>
<text text-anchor="middle" x="1781" y="-298.5" font-family="Helvetica,sans-Serif" font-size="10.00">src/js/conv.cpp</text>
</a>
</g>
</g>
<!-- Node17&#45;&gt;Node21 -->
<g id="edge30" class="edge">
<title>Node17&#45;&gt;Node21</title>
<path fill="none" stroke="#63b8ff" d="M1357.15,-361.95C1435.12,-355.11 1591.77,-339.66 1723,-316 1731.36,-314.49 1740.31,-312.51 1748.63,-310.52"/>
<polygon fill="#63b8ff" stroke="#63b8ff" points="1356.79,-358.47 1347.13,-362.82 1357.4,-365.45 1356.79,-358.47"/>
</g>
<!-- Node22 -->
<g id="node22" class="node">
<title>Node22</title>
<g id="a_node22"><a xlink:href="crypto_8cpp.html" target="_top" xlink:title=" ">
<polygon fill="white" stroke="#666666" points="1419,-310.5 1323,-310.5 1323,-291.5 1419,-291.5 1419,-310.5"/>
<text text-anchor="middle" x="1371" y="-298.5" font-family="Helvetica,sans-Serif" font-size="10.00">src/js/crypto.cpp</text>
</a>
</g>
</g>
<!-- Node17&#45;&gt;Node22 -->
<g id="edge32" class="edge">
<title>Node17&#45;&gt;Node22</title>
<path fill="none" stroke="#63b8ff" d="M1323.77,-349.98C1335.94,-337.62 1352.31,-320.99 1362.23,-310.91"/>
<polygon fill="#63b8ff" stroke="#63b8ff" points="1321.02,-347.79 1316.5,-357.37 1326.01,-352.7 1321.02,-347.79"/>
</g>
<!-- Node23 -->
<g id="node23" class="node">
<title>Node23</title>
<g id="a_node23"><a xlink:href="historical_8cpp.html" target="_top" xlink:title=" ">
<polygon fill="white" stroke="#666666" points="1547,-310.5 1437,-310.5 1437,-291.5 1547,-291.5 1547,-310.5"/>
<text text-anchor="middle" x="1492" y="-298.5" font-family="Helvetica,sans-Serif" font-size="10.00">src/js/historical.cpp</text>
</a>
</g>
</g>
<!-- Node17&#45;&gt;Node23 -->
<g id="edge34" class="edge">
<title>Node17&#45;&gt;Node23</title>
<path fill="none" stroke="#63b8ff" d="M1342.5,-354C1378.83,-341.36 1435.15,-321.78 1467.28,-310.6"/>
<polygon fill="#63b8ff" stroke="#63b8ff" points="1341.11,-350.78 1332.82,-357.37 1343.41,-357.39 1341.11,-350.78"/>
</g>
<!-- Node24 -->
<g id="node24" class="node">
<title>Node24</title>
<g id="a_node24"><a xlink:href="openenclave_8cpp.html" target="_top" xlink:title=" ">
<polygon fill="white" stroke="#666666" points="1169,-310.5 1041,-310.5 1041,-291.5 1169,-291.5 1169,-310.5"/>
<text text-anchor="middle" x="1105" y="-298.5" font-family="Helvetica,sans-Serif" font-size="10.00">src/js/openenclave.cpp</text>
</a>
</g>
</g>
<!-- Node17&#45;&gt;Node24 -->
<g id="edge36" class="edge">
<title>Node17&#45;&gt;Node24</title>
<path fill="none" stroke="#63b8ff" d="M1270.96,-354.32C1230.92,-341.7 1168.03,-321.87 1132.27,-310.6"/>
<polygon fill="#63b8ff" stroke="#63b8ff" points="1270.03,-357.7 1280.62,-357.37 1272.14,-351.02 1270.03,-357.7"/>
</g>
<!-- Node19&#45;&gt;Node20 -->
<g id="edge29" class="edge">
<title>Node19&#45;&gt;Node20</title>
<path fill="none" stroke="#63b8ff" d="M1623,-281.08C1623,-269.13 1623,-254.22 1623,-244.91"/>
<polygon fill="#63b8ff" stroke="#63b8ff" points="1619.5,-281.37 1623,-291.37 1626.5,-281.37 1619.5,-281.37"/>
</g>
<!-- Node21&#45;&gt;Node20 -->
<g id="edge31" class="edge">
<title>Node21&#45;&gt;Node20</title>
<path fill="none" stroke="#63b8ff" d="M1750.17,-287.51C1718.94,-274.86 1671.47,-255.63 1644.22,-244.6"/>
<polygon fill="#63b8ff" stroke="#63b8ff" points="1749.11,-290.86 1759.69,-291.37 1751.74,-284.37 1749.11,-290.86"/>
</g>
<!-- Node22&#45;&gt;Node20 -->
<g id="edge33" class="edge">
<title>Node22&#45;&gt;Node20</title>
<path fill="none" stroke="#63b8ff" d="M1414.54,-288.94C1464.22,-276.32 1544.41,-255.96 1589.48,-244.51"/>
<polygon fill="#63b8ff" stroke="#63b8ff" points="1413.56,-285.58 1404.72,-291.44 1415.28,-292.37 1413.56,-285.58"/>
</g>
<!-- Node23&#45;&gt;Node20 -->
<g id="edge35" class="edge">
<title>Node23&#45;&gt;Node20</title>
<path fill="none" stroke="#63b8ff" d="M1518.89,-286.86C1544.7,-274.25 1582.96,-255.56 1605.19,-244.7"/>
<polygon fill="#63b8ff" stroke="#63b8ff" points="1517.12,-283.83 1509.67,-291.37 1520.19,-290.12 1517.12,-283.83"/>
</g>
<!-- Node25&#45;&gt;Node6 -->
<g id="edge42" class="edge">
<title>Node25&#45;&gt;Node6</title>
<path fill="none" stroke="#63b8ff" d="M739.2,-359.96C805.52,-353.31 892.76,-340.19 918,-316 944.38,-290.71 937,-272.54 937,-236 937,-236 937,-236 937,-173.5 937,-136 925.75,-92.26 920.56,-74.09"/>
<polygon fill="#63b8ff" stroke="#63b8ff" points="738.78,-356.48 729.16,-360.93 739.45,-363.45 738.78,-356.48"/>
</g>
<!-- Node25&#45;&gt;Node15 -->
<g id="edge43" class="edge">
<title>Node25&#45;&gt;Node15</title>
<path fill="none" stroke="#63b8ff" d="M659,-341.6C659,-330.8 659,-318.78 659,-310.84"/>
<polygon fill="#63b8ff" stroke="#63b8ff" points="655.5,-341.8 659,-351.8 662.5,-341.8 655.5,-341.8"/>
</g>
<!-- Node26&#45;&gt;Node6 -->
<g id="edge47" class="edge">
<title>Node26&#45;&gt;Node6</title>
<path fill="none" stroke="#63b8ff" d="M1980.81,-158.03C1963.57,-142.67 1934.72,-120 1905,-110 1817.62,-80.6 1180.84,-69.19 979.12,-66.3"/>
<polygon fill="#63b8ff" stroke="#63b8ff" points="1978.56,-160.72 1988.29,-164.9 1983.29,-155.56 1978.56,-160.72"/>
</g>
<!-- Node27&#45;&gt;Node5 -->
<g id="edge51" class="edge">
<title>Node27&#45;&gt;Node5</title>
<path fill="none" stroke="#63b8ff" d="M531.41,-220.73C552.86,-209.53 582.93,-193.82 601.41,-184.17"/>
<polygon fill="#63b8ff" stroke="#63b8ff" points="529.77,-217.64 522.53,-225.37 533.01,-223.84 529.77,-217.64"/>
</g>
</g>
</svg>
