<?xml version="1.0" encoding="UTF-8" standalone="no"?>
<!DOCTYPE svg PUBLIC "-//W3C//DTD SVG 1.1//EN"
 "http://www.w3.org/Graphics/SVG/1.1/DTD/svg11.dtd">
<!-- Generated by graphviz version 2.43.0 (0)
 -->
<!-- Title: src/enclave/session.h Pages: 1 -->
<svg width="2041pt" height="302pt"
 viewBox="0.00 0.00 2040.50 302.00" xmlns="http://www.w3.org/2000/svg" xmlns:xlink="http://www.w3.org/1999/xlink">
<g id="graph0" class="graph" transform="scale(1 1) rotate(0) translate(4 298)">
<title>src/enclave/session.h</title>
<!-- Node1 -->
<g id="node1" class="node">
<title>Node1</title>
<g id="a_node1"><a xlink:title=" ">
<polygon fill="#999999" stroke="#666666" points="1878.5,-294 1757.5,-294 1757.5,-275 1878.5,-275 1878.5,-294"/>
<text text-anchor="middle" x="1818" y="-282" font-family="Helvetica,sans-Serif" font-size="10.00">src/enclave/session.h</text>
</a>
</g>
</g>
<!-- Node2 -->
<g id="node2" class="node">
<title>Node2</title>
<g id="a_node2"><a xlink:href="include_2ccf_2node_2session_8h.html" target="_top" xlink:title=" ">
<polygon fill="white" stroke="#666666" points="2032.5,-129 1925.5,-129 1925.5,-110 2032.5,-110 2032.5,-129"/>
<text text-anchor="middle" x="1979" y="-117" font-family="Helvetica,sans-Serif" font-size="10.00">ccf/node/session.h</text>
</a>
</g>
</g>
<!-- Node1&#45;&gt;Node2 -->
<g id="edge1" class="edge">
<title>Node1&#45;&gt;Node2</title>
<path fill="none" stroke="#63b8ff" d="M1846.67,-274.87C1866.54,-267.76 1892.63,-256.05 1911,-239 1942.04,-210.2 1962.85,-163.95 1972.61,-138.59"/>
<polygon fill="#63b8ff" stroke="#63b8ff" points="1975.93,-139.7 1976.11,-129.11 1969.36,-137.27 1975.93,-139.7"/>
</g>
<!-- Node4 -->
<g id="node4" class="node">
<title>Node4</title>
<g id="a_node4"><a xlink:title=" ">
<polygon fill="#e0e0e0" stroke="#999999" points="1915,-74 1875,-74 1875,-55 1915,-55 1915,-74"/>
<text text-anchor="middle" x="1895" y="-62" font-family="Helvetica,sans-Serif" font-size="10.00">span</text>
</a>
</g>
</g>
<!-- Node1&#45;&gt;Node4 -->
<g id="edge67" class="edge">
<title>Node1&#45;&gt;Node4</title>
<path fill="none" stroke="#63b8ff" d="M1821.02,-274.95C1832.37,-242.81 1872.67,-128.72 1888.53,-83.83"/>
<polygon fill="#63b8ff" stroke="#63b8ff" points="1891.89,-84.82 1891.92,-74.22 1885.29,-82.49 1891.89,-84.82"/>
</g>
<!-- Node5 -->
<g id="node5" class="node">
<title>Node5</title>
<g id="a_node5"><a xlink:href="thread__messaging_8h.html" target="_top" xlink:title=" ">
<polygon fill="white" stroke="#666666" points="538,-239 408,-239 408,-220 538,-220 538,-239"/>
<text text-anchor="middle" x="473" y="-227" font-family="Helvetica,sans-Serif" font-size="10.00">ds/thread_messaging.h</text>
</a>
</g>
</g>
<!-- Node1&#45;&gt;Node5 -->
<g id="edge4" class="edge">
<title>Node1&#45;&gt;Node5</title>
<path fill="none" stroke="#63b8ff" d="M1757.15,-281.1C1537.99,-272.47 789.19,-242.96 548.3,-233.47"/>
<polygon fill="#63b8ff" stroke="#63b8ff" points="548.37,-229.97 538.24,-233.07 548.09,-236.96 548.37,-229.97"/>
</g>
<!-- Node25 -->
<g id="node25" class="node">
<title>Node25</title>
<g id="a_node25"><a xlink:href="tls_2msg__types_8h.html" target="_top" xlink:title=" ">
<polygon fill="white" stroke="#666666" points="1560,-239 1466,-239 1466,-220 1560,-220 1560,-239"/>
<text text-anchor="middle" x="1513" y="-227" font-family="Helvetica,sans-Serif" font-size="10.00">tls/msg_types.h</text>
</a>
</g>
</g>
<!-- Node1&#45;&gt;Node25 -->
<g id="edge28" class="edge">
<title>Node1&#45;&gt;Node25</title>
<path fill="none" stroke="#63b8ff" d="M1769,-274.98C1714.83,-265.57 1627.67,-250.43 1570.36,-240.47"/>
<polygon fill="#63b8ff" stroke="#63b8ff" points="1570.83,-237 1560.38,-238.73 1569.63,-243.89 1570.83,-237"/>
</g>
<!-- Node3 -->
<g id="node3" class="node">
<title>Node3</title>
<g id="a_node3"><a xlink:title=" ">
<polygon fill="#e0e0e0" stroke="#999999" points="1697,-19 1647,-19 1647,0 1697,0 1697,-19"/>
<text text-anchor="middle" x="1672" y="-7" font-family="Helvetica,sans-Serif" font-size="10.00">cstdint</text>
</a>
</g>
</g>
<!-- Node2&#45;&gt;Node3 -->
<g id="edge2" class="edge">
<title>Node2&#45;&gt;Node3</title>
<path fill="none" stroke="#63b8ff" d="M1974.22,-109.83C1965.97,-95.79 1947.65,-68.29 1924,-55 1839.91,-7.76 1804.65,-37.53 1710,-19 1709.1,-18.82 1708.19,-18.64 1707.27,-18.46"/>
<polygon fill="#63b8ff" stroke="#63b8ff" points="1707.81,-14.99 1697.31,-16.36 1706.37,-21.84 1707.81,-14.99"/>
</g>
<!-- Node2&#45;&gt;Node4 -->
<g id="edge3" class="edge">
<title>Node2&#45;&gt;Node4</title>
<path fill="none" stroke="#63b8ff" d="M1965.5,-109.98C1952.6,-101.84 1932.9,-89.41 1917.6,-79.76"/>
<polygon fill="#63b8ff" stroke="#63b8ff" points="1919.07,-76.55 1908.74,-74.17 1915.33,-82.47 1919.07,-76.55"/>
</g>
<!-- Node6 -->
<g id="node6" class="node">
<title>Node6</title>
<g id="a_node6"><a xlink:href="ccf__assert_8h.html" target="_top" xlink:title=" ">
<polygon fill="white" stroke="#666666" points="593,-184 501,-184 501,-165 593,-165 593,-184"/>
<text text-anchor="middle" x="547" y="-172" font-family="Helvetica,sans-Serif" font-size="10.00">ccf/ccf_assert.h</text>
</a>
</g>
</g>
<!-- Node5&#45;&gt;Node6 -->
<g id="edge5" class="edge">
<title>Node5&#45;&gt;Node6</title>
<path fill="none" stroke="#63b8ff" d="M484.89,-219.98C496.15,-211.92 513.29,-199.65 526.71,-190.03"/>
<polygon fill="#63b8ff" stroke="#63b8ff" points="528.8,-192.84 534.89,-184.17 524.73,-187.15 528.8,-192.84"/>
</g>
<!-- Node7 -->
<g id="node7" class="node">
<title>Node7</title>
<g id="a_node7"><a xlink:href="logger_8h.html" target="_top" xlink:title=" ">
<polygon fill="white" stroke="#666666" points="590.5,-129 503.5,-129 503.5,-110 590.5,-110 590.5,-129"/>
<text text-anchor="middle" x="547" y="-117" font-family="Helvetica,sans-Serif" font-size="10.00">ccf/ds/logger.h</text>
</a>
</g>
</g>
<!-- Node5&#45;&gt;Node7 -->
<g id="edge23" class="edge">
<title>Node5&#45;&gt;Node7</title>
<path fill="none" stroke="#63b8ff" d="M473.98,-219.58C475.76,-206.61 480.47,-182.2 492,-165 500.1,-152.93 512.46,-142.5 523.42,-134.79"/>
<polygon fill="#63b8ff" stroke="#63b8ff" points="525.42,-137.66 531.8,-129.2 521.54,-131.84 525.42,-137.66"/>
</g>
<!-- Node10 -->
<g id="node10" class="node">
<title>Node10</title>
<g id="a_node10"><a xlink:href="thread__ids_8h.html" target="_top" xlink:title=" ">
<polygon fill="white" stroke="#666666" points="219,-74 111,-74 111,-55 219,-55 219,-74"/>
<text text-anchor="middle" x="165" y="-62" font-family="Helvetica,sans-Serif" font-size="10.00">ccf/ds/thread_ids.h</text>
</a>
</g>
</g>
<!-- Node5&#45;&gt;Node10 -->
<g id="edge24" class="edge">
<title>Node5&#45;&gt;Node10</title>
<path fill="none" stroke="#63b8ff" d="M407.87,-222.6C346.68,-215.97 260.53,-203.51 233,-184 198.12,-159.28 178.65,-110.62 170.18,-83.99"/>
<polygon fill="#63b8ff" stroke="#63b8ff" points="173.42,-82.64 167.21,-74.06 166.72,-84.65 173.42,-82.64"/>
</g>
<!-- Node22 -->
<g id="node22" class="node">
<title>Node22</title>
<g id="a_node22"><a xlink:title=" ">
<polygon fill="#e0e0e0" stroke="#999999" points="758,-129 708,-129 708,-110 758,-110 758,-129"/>
<text text-anchor="middle" x="733" y="-117" font-family="Helvetica,sans-Serif" font-size="10.00">atomic</text>
</a>
</g>
</g>
<!-- Node5&#45;&gt;Node22 -->
<g id="edge25" class="edge">
<title>Node5&#45;&gt;Node22</title>
<path fill="none" stroke="#63b8ff" d="M500.78,-219.97C527.15,-211.64 567.73,-198.16 602,-184 639.49,-168.51 681.46,-147.49 707.56,-133.95"/>
<polygon fill="#63b8ff" stroke="#63b8ff" points="709.5,-136.89 716.74,-129.16 706.26,-130.68 709.5,-136.89"/>
</g>
<!-- Node23 -->
<g id="node23" class="node">
<title>Node23</title>
<g id="a_node23"><a xlink:title=" ">
<polygon fill="#e0e0e0" stroke="#999999" points="181,-184 131,-184 131,-165 181,-165 181,-184"/>
<text text-anchor="middle" x="156" y="-172" font-family="Helvetica,sans-Serif" font-size="10.00">chrono</text>
</a>
</g>
</g>
<!-- Node5&#45;&gt;Node23 -->
<g id="edge26" class="edge">
<title>Node5&#45;&gt;Node23</title>
<path fill="none" stroke="#63b8ff" d="M413.72,-219.99C357.32,-211.67 270.17,-198.2 195,-184 193.74,-183.76 192.45,-183.51 191.15,-183.26"/>
<polygon fill="#63b8ff" stroke="#63b8ff" points="191.63,-179.78 181.13,-181.19 190.22,-186.64 191.63,-179.78"/>
</g>
<!-- Node24 -->
<g id="node24" class="node">
<title>Node24</title>
<g id="a_node24"><a xlink:title=" ">
<polygon fill="#e0e0e0" stroke="#999999" points="680.5,-19 627.5,-19 627.5,0 680.5,0 680.5,-19"/>
<text text-anchor="middle" x="654" y="-7" font-family="Helvetica,sans-Serif" font-size="10.00">cstddef</text>
</a>
</g>
</g>
<!-- Node5&#45;&gt;Node24 -->
<g id="edge27" class="edge">
<title>Node5&#45;&gt;Node24</title>
<path fill="none" stroke="#63b8ff" d="M446.55,-220C377.46,-196.5 201.24,-127.62 266,-55 277.64,-41.95 522.49,-21.03 617.12,-13.41"/>
<polygon fill="#63b8ff" stroke="#63b8ff" points="617.68,-16.87 627.37,-12.58 617.12,-9.89 617.68,-16.87"/>
</g>
<!-- Node6&#45;&gt;Node7 -->
<g id="edge6" class="edge">
<title>Node6&#45;&gt;Node7</title>
<path fill="none" stroke="#63b8ff" d="M547,-164.75C547,-157.8 547,-147.85 547,-139.13"/>
<polygon fill="#63b8ff" stroke="#63b8ff" points="550.5,-139.09 547,-129.09 543.5,-139.09 550.5,-139.09"/>
</g>
<!-- Node8 -->
<g id="node8" class="node">
<title>Node8</title>
<g id="a_node8"><a xlink:href="enum__formatter_8h.html" target="_top" xlink:title=" ">
<polygon fill="white" stroke="#666666" points="485,-74 349,-74 349,-55 485,-55 485,-74"/>
<text text-anchor="middle" x="417" y="-62" font-family="Helvetica,sans-Serif" font-size="10.00">ccf/ds/enum_formatter.h</text>
</a>
</g>
</g>
<!-- Node7&#45;&gt;Node8 -->
<g id="edge7" class="edge">
<title>Node7&#45;&gt;Node8</title>
<path fill="none" stroke="#63b8ff" d="M526.11,-109.98C504.92,-101.34 471.87,-87.87 447.7,-78.02"/>
<polygon fill="#63b8ff" stroke="#63b8ff" points="448.85,-74.7 438.27,-74.17 446.21,-81.19 448.85,-74.7"/>
</g>
<!-- Node9 -->
<g id="node9" class="node">
<title>Node9</title>
<g id="a_node9"><a xlink:title=" ">
<polygon fill="#e0e0e0" stroke="#999999" points="504.5,-19 425.5,-19 425.5,0 504.5,0 504.5,-19"/>
<text text-anchor="middle" x="465" y="-7" font-family="Helvetica,sans-Serif" font-size="10.00">fmt/format.h</text>
</a>
</g>
</g>
<!-- Node7&#45;&gt;Node9 -->
<g id="edge17" class="edge">
<title>Node7&#45;&gt;Node9</title>
<path fill="none" stroke="#63b8ff" d="M540.29,-109.66C526.65,-91.69 495.48,-50.64 477.82,-27.38"/>
<polygon fill="#63b8ff" stroke="#63b8ff" points="480.41,-25.01 471.57,-19.16 474.83,-29.24 480.41,-25.01"/>
</g>
<!-- Node7&#45;&gt;Node10 -->
<g id="edge9" class="edge">
<title>Node7&#45;&gt;Node10</title>
<path fill="none" stroke="#63b8ff" d="M503.18,-112.42C435.94,-103.09 306.96,-85.2 229.18,-74.4"/>
<polygon fill="#63b8ff" stroke="#63b8ff" points="229.41,-70.9 219.02,-72.99 228.44,-77.84 229.41,-70.9"/>
</g>
<!-- Node16 -->
<g id="node16" class="node">
<title>Node16</title>
<g id="a_node16"><a xlink:title=" ">
<polygon fill="#e0e0e0" stroke="#999999" points="620.5,-74 541.5,-74 541.5,-55 620.5,-55 620.5,-74"/>
<text text-anchor="middle" x="581" y="-62" font-family="Helvetica,sans-Serif" font-size="10.00">fmt/chrono.h</text>
</a>
</g>
</g>
<!-- Node7&#45;&gt;Node16 -->
<g id="edge16" class="edge">
<title>Node7&#45;&gt;Node16</title>
<path fill="none" stroke="#63b8ff" d="M552.61,-109.75C557.32,-102.42 564.17,-91.73 569.97,-82.7"/>
<polygon fill="#63b8ff" stroke="#63b8ff" points="573.04,-84.4 575.49,-74.09 567.14,-80.62 573.04,-84.4"/>
</g>
<!-- Node17 -->
<g id="node17" class="node">
<title>Node17</title>
<g id="a_node17"><a xlink:title=" ">
<polygon fill="#e0e0e0" stroke="#999999" points="698,-74 638,-74 638,-55 698,-55 698,-74"/>
<text text-anchor="middle" x="668" y="-62" font-family="Helvetica,sans-Serif" font-size="10.00">iostream</text>
</a>
</g>
</g>
<!-- Node7&#45;&gt;Node17 -->
<g id="edge18" class="edge">
<title>Node7&#45;&gt;Node17</title>
<path fill="none" stroke="#63b8ff" d="M566.44,-109.98C585.99,-101.42 616.38,-88.11 638.82,-78.28"/>
<polygon fill="#63b8ff" stroke="#63b8ff" points="640.45,-81.39 648.21,-74.17 637.64,-74.98 640.45,-81.39"/>
</g>
<!-- Node18 -->
<g id="node18" class="node">
<title>Node18</title>
<g id="a_node18"><a xlink:title=" ">
<polygon fill="#e0e0e0" stroke="#999999" points="826,-74 716,-74 716,-55 826,-55 826,-74"/>
<text text-anchor="middle" x="771" y="-62" font-family="Helvetica,sans-Serif" font-size="10.00">nlohmann/json.hpp</text>
</a>
</g>
</g>
<!-- Node7&#45;&gt;Node18 -->
<g id="edge19" class="edge">
<title>Node7&#45;&gt;Node18</title>
<path fill="none" stroke="#63b8ff" d="M582.99,-109.98C621.49,-100.87 682.69,-86.4 724.74,-76.45"/>
<polygon fill="#63b8ff" stroke="#63b8ff" points="725.8,-79.79 734.73,-74.08 724.19,-72.98 725.8,-79.79"/>
</g>
<!-- Node19 -->
<g id="node19" class="node">
<title>Node19</title>
<g id="a_node19"><a xlink:title=" ">
<polygon fill="#e0e0e0" stroke="#999999" points="938,-74 882,-74 882,-55 938,-55 938,-74"/>
<text text-anchor="middle" x="910" y="-62" font-family="Helvetica,sans-Serif" font-size="10.00">optional</text>
</a>
</g>
</g>
<!-- Node7&#45;&gt;Node19 -->
<g id="edge20" class="edge">
<title>Node7&#45;&gt;Node19</title>
<path fill="none" stroke="#63b8ff" d="M590.75,-113.31C652.65,-105.76 769.28,-90.82 868,-74 869.1,-73.81 870.22,-73.62 871.34,-73.42"/>
<polygon fill="#63b8ff" stroke="#63b8ff" points="872.39,-76.78 881.58,-71.5 871.1,-69.9 872.39,-76.78"/>
</g>
<!-- Node20 -->
<g id="node20" class="node">
<title>Node20</title>
<g id="a_node20"><a xlink:title=" ">
<polygon fill="#e0e0e0" stroke="#999999" points="331,-74 275,-74 275,-55 331,-55 331,-74"/>
<text text-anchor="middle" x="303" y="-62" font-family="Helvetica,sans-Serif" font-size="10.00">sstream</text>
</a>
</g>
</g>
<!-- Node7&#45;&gt;Node20 -->
<g id="edge21" class="edge">
<title>Node7&#45;&gt;Node20</title>
<path fill="none" stroke="#63b8ff" d="M506.51,-109.97C466.87,-101.58 404.51,-88.28 341.4,-74.29"/>
<polygon fill="#63b8ff" stroke="#63b8ff" points="341.79,-70.79 331.27,-72.04 340.28,-77.62 341.79,-70.79"/>
</g>
<!-- Node21 -->
<g id="node21" class="node">
<title>Node21</title>
<g id="a_node21"><a xlink:title=" ">
<polygon fill="#e0e0e0" stroke="#999999" points="1543.5,-19 1474.5,-19 1474.5,0 1543.5,0 1543.5,-19"/>
<text text-anchor="middle" x="1509" y="-7" font-family="Helvetica,sans-Serif" font-size="10.00">type_traits</text>
</a>
</g>
</g>
<!-- Node7&#45;&gt;Node21 -->
<g id="edge22" class="edge">
<title>Node7&#45;&gt;Node21</title>
<path fill="none" stroke="#63b8ff" d="M590.9,-115.95C648.22,-111.68 751.12,-100.73 835,-74 852.99,-68.27 854.76,-59.89 873,-55 1124.78,12.56 1202.15,-51.02 1464.13,-19.05"/>
<polygon fill="#63b8ff" stroke="#63b8ff" points="1464.85,-22.49 1474.33,-17.77 1463.97,-15.54 1464.85,-22.49"/>
</g>
<!-- Node8&#45;&gt;Node9 -->
<g id="edge8" class="edge">
<title>Node8&#45;&gt;Node9</title>
<path fill="none" stroke="#63b8ff" d="M424.93,-54.75C431.85,-47.11 442.07,-35.82 450.45,-26.56"/>
<polygon fill="#63b8ff" stroke="#63b8ff" points="453.1,-28.85 457.22,-19.09 447.91,-24.15 453.1,-28.85"/>
</g>
<!-- Node10&#45;&gt;Node9 -->
<g id="edge10" class="edge">
<title>Node10&#45;&gt;Node9</title>
<path fill="none" stroke="#63b8ff" d="M213.2,-54.98C268.55,-45.21 358.93,-29.24 415.02,-19.33"/>
<polygon fill="#63b8ff" stroke="#63b8ff" points="415.84,-22.74 425.08,-17.55 414.62,-15.85 415.84,-22.74"/>
</g>
<!-- Node11 -->
<g id="node11" class="node">
<title>Node11</title>
<g id="a_node11"><a xlink:title=" ">
<polygon fill="#e0e0e0" stroke="#999999" points="208,-19 122,-19 122,0 208,0 208,-19"/>
<text text-anchor="middle" x="165" y="-7" font-family="Helvetica,sans-Serif" font-size="10.00">fmt/ostream.h</text>
</a>
</g>
</g>
<!-- Node10&#45;&gt;Node11 -->
<g id="edge11" class="edge">
<title>Node10&#45;&gt;Node11</title>
<path fill="none" stroke="#63b8ff" d="M165,-54.75C165,-47.8 165,-37.85 165,-29.13"/>
<polygon fill="#63b8ff" stroke="#63b8ff" points="168.5,-29.09 165,-19.09 161.5,-29.09 168.5,-29.09"/>
</g>
<!-- Node12 -->
<g id="node12" class="node">
<title>Node12</title>
<g id="a_node12"><a xlink:title=" ">
<polygon fill="#e0e0e0" stroke="#999999" points="287.5,-19 226.5,-19 226.5,0 287.5,0 287.5,-19"/>
<text text-anchor="middle" x="257" y="-7" font-family="Helvetica,sans-Serif" font-size="10.00">fmt/std.h</text>
</a>
</g>
</g>
<!-- Node10&#45;&gt;Node12 -->
<g id="edge12" class="edge">
<title>Node10&#45;&gt;Node12</title>
<path fill="none" stroke="#63b8ff" d="M179.78,-54.98C194.18,-46.69 216.31,-33.94 233.19,-24.22"/>
<polygon fill="#63b8ff" stroke="#63b8ff" points="235.03,-27.19 241.95,-19.17 231.54,-21.13 235.03,-27.19"/>
</g>
<!-- Node13 -->
<g id="node13" class="node">
<title>Node13</title>
<g id="a_node13"><a xlink:title=" ">
<polygon fill="#e0e0e0" stroke="#999999" points="350,-19 306,-19 306,0 350,0 350,-19"/>
<text text-anchor="middle" x="328" y="-7" font-family="Helvetica,sans-Serif" font-size="10.00">limits</text>
</a>
</g>
</g>
<!-- Node10&#45;&gt;Node13 -->
<g id="edge13" class="edge">
<title>Node10&#45;&gt;Node13</title>
<path fill="none" stroke="#63b8ff" d="M191.19,-54.98C219.73,-45.7 265.41,-30.85 296.04,-20.89"/>
<polygon fill="#63b8ff" stroke="#63b8ff" points="297.38,-24.14 305.8,-17.72 295.21,-17.48 297.38,-24.14"/>
</g>
<!-- Node14 -->
<g id="node14" class="node">
<title>Node14</title>
<g id="a_node14"><a xlink:title=" ">
<polygon fill="#e0e0e0" stroke="#999999" points="38,-19 0,-19 0,0 38,0 38,-19"/>
<text text-anchor="middle" x="19" y="-7" font-family="Helvetica,sans-Serif" font-size="10.00">map</text>
</a>
</g>
</g>
<!-- Node10&#45;&gt;Node14 -->
<g id="edge14" class="edge">
<title>Node10&#45;&gt;Node14</title>
<path fill="none" stroke="#63b8ff" d="M141.54,-54.98C115.99,-45.71 75.09,-30.86 47.65,-20.9"/>
<polygon fill="#63b8ff" stroke="#63b8ff" points="48.8,-17.59 38.2,-17.47 46.41,-24.17 48.8,-17.59"/>
</g>
<!-- Node15 -->
<g id="node15" class="node">
<title>Node15</title>
<g id="a_node15"><a xlink:title=" ">
<polygon fill="#e0e0e0" stroke="#999999" points="104,-19 56,-19 56,0 104,0 104,-19"/>
<text text-anchor="middle" x="80" y="-7" font-family="Helvetica,sans-Serif" font-size="10.00">thread</text>
</a>
</g>
</g>
<!-- Node10&#45;&gt;Node15 -->
<g id="edge15" class="edge">
<title>Node10&#45;&gt;Node15</title>
<path fill="none" stroke="#63b8ff" d="M151.34,-54.98C138.16,-46.77 117.97,-34.18 102.43,-24.49"/>
<polygon fill="#63b8ff" stroke="#63b8ff" points="104.24,-21.49 93.91,-19.17 100.54,-27.43 104.24,-21.49"/>
</g>
<!-- Node26 -->
<g id="node26" class="node">
<title>Node26</title>
<g id="a_node26"><a xlink:href="ring__buffer__types_8h.html" target="_top" xlink:title=" ">
<polygon fill="white" stroke="#666666" points="1422.5,-184 1297.5,-184 1297.5,-165 1422.5,-165 1422.5,-184"/>
<text text-anchor="middle" x="1360" y="-172" font-family="Helvetica,sans-Serif" font-size="10.00">ds/ring_buffer_types.h</text>
</a>
</g>
</g>
<!-- Node25&#45;&gt;Node26 -->
<g id="edge29" class="edge">
<title>Node25&#45;&gt;Node26</title>
<path fill="none" stroke="#63b8ff" d="M1488.42,-219.98C1462.95,-211.16 1422.96,-197.31 1394.37,-187.41"/>
<polygon fill="#63b8ff" stroke="#63b8ff" points="1395.37,-184.05 1384.77,-184.08 1393.08,-190.66 1395.37,-184.05"/>
</g>
<!-- Node26&#45;&gt;Node4 -->
<g id="edge64" class="edge">
<title>Node26&#45;&gt;Node4</title>
<path fill="none" stroke="#63b8ff" d="M1422.66,-168.3C1489.83,-161.99 1599.31,-149.55 1692,-129 1754.85,-115.06 1826.23,-90.66 1865.39,-76.51"/>
<polygon fill="#63b8ff" stroke="#63b8ff" points="1866.65,-79.77 1874.85,-73.06 1864.26,-73.2 1866.65,-79.77"/>
</g>
<!-- Node26&#45;&gt;Node9 -->
<g id="edge62" class="edge">
<title>Node26&#45;&gt;Node9</title>
<path fill="none" stroke="#63b8ff" d="M1297.42,-168.18C1243.14,-162.34 1162.97,-150.75 1096,-129 1025.68,-106.16 1018.13,-75.19 947,-55 906.18,-43.42 629.82,-22.42 514.93,-14.06"/>
<polygon fill="#63b8ff" stroke="#63b8ff" points="514.89,-10.55 504.66,-13.32 514.38,-17.53 514.89,-10.55"/>
</g>
<!-- Node26&#45;&gt;Node19 -->
<g id="edge63" class="edge">
<title>Node26&#45;&gt;Node19</title>
<path fill="none" stroke="#63b8ff" d="M1297.46,-173.07C1197.81,-171.34 1008.5,-163.45 952,-129 935.11,-118.7 923.61,-98.74 916.98,-83.93"/>
<polygon fill="#63b8ff" stroke="#63b8ff" points="920.04,-82.19 913,-74.28 913.57,-84.86 920.04,-82.19"/>
</g>
<!-- Node26&#45;&gt;Node22 -->
<g id="edge61" class="edge">
<title>Node26&#45;&gt;Node22</title>
<path fill="none" stroke="#63b8ff" d="M1297.3,-168.2C1167,-157.19 870.58,-132.13 768.4,-123.49"/>
<polygon fill="#63b8ff" stroke="#63b8ff" points="768.56,-119.99 758.3,-122.64 767.97,-126.97 768.56,-119.99"/>
</g>
<!-- Node27 -->
<g id="node27" class="node">
<title>Node27</title>
<g id="a_node27"><a xlink:href="include_2ccf_2ds_2hash_8h.html" target="_top" xlink:title=" ">
<polygon fill="white" stroke="#666666" points="1324,-129 1244,-129 1244,-110 1324,-110 1324,-129"/>
<text text-anchor="middle" x="1284" y="-117" font-family="Helvetica,sans-Serif" font-size="10.00">ccf/ds/hash.h</text>
</a>
</g>
</g>
<!-- Node26&#45;&gt;Node27 -->
<g id="edge30" class="edge">
<title>Node26&#45;&gt;Node27</title>
<path fill="none" stroke="#63b8ff" d="M1347.79,-164.98C1336.22,-156.92 1318.62,-144.65 1304.84,-135.03"/>
<polygon fill="#63b8ff" stroke="#63b8ff" points="1306.64,-132.02 1296.43,-129.17 1302.63,-137.76 1306.64,-132.02"/>
</g>
<!-- Node29 -->
<g id="node29" class="node">
<title>Node29</title>
<g id="a_node29"><a xlink:title=" ">
<polygon fill="#e0e0e0" stroke="#999999" points="1386.5,-19 1339.5,-19 1339.5,0 1386.5,0 1386.5,-19"/>
<text text-anchor="middle" x="1363" y="-7" font-family="Helvetica,sans-Serif" font-size="10.00">vector</text>
</a>
</g>
</g>
<!-- Node26&#45;&gt;Node29 -->
<g id="edge66" class="edge">
<title>Node26&#45;&gt;Node29</title>
<path fill="none" stroke="#63b8ff" d="M1297.19,-167.43C1202.33,-155.88 1039.56,-125.3 1099,-55 1113.74,-37.57 1261.38,-20.68 1329.22,-13.77"/>
<polygon fill="#63b8ff" stroke="#63b8ff" points="1329.79,-17.23 1339.39,-12.75 1329.09,-10.27 1329.79,-17.23"/>
</g>
<!-- Node33 -->
<g id="node33" class="node">
<title>Node33</title>
<g id="a_node33"><a xlink:href="nonstd_8h.html" target="_top" xlink:title=" ">
<polygon fill="white" stroke="#666666" points="1554,-74 1464,-74 1464,-55 1554,-55 1554,-74"/>
<text text-anchor="middle" x="1509" y="-62" font-family="Helvetica,sans-Serif" font-size="10.00">ccf/ds/nonstd.h</text>
</a>
</g>
</g>
<!-- Node26&#45;&gt;Node33 -->
<g id="edge40" class="edge">
<title>Node26&#45;&gt;Node33</title>
<path fill="none" stroke="#63b8ff" d="M1371.94,-164.84C1397.33,-146.44 1456.94,-103.23 1488.53,-80.34"/>
<polygon fill="#63b8ff" stroke="#63b8ff" points="1490.96,-82.9 1497,-74.2 1486.85,-77.23 1490.96,-82.9"/>
</g>
<!-- Node36 -->
<g id="node36" class="node">
<title>Node36</title>
<g id="a_node36"><a xlink:title=" ">
<polygon fill="#e0e0e0" stroke="#999999" points="1915,-19 1871,-19 1871,0 1915,0 1915,-19"/>
<text text-anchor="middle" x="1893" y="-7" font-family="Helvetica,sans-Serif" font-size="10.00">string</text>
</a>
</g>
</g>
<!-- Node26&#45;&gt;Node36 -->
<g id="edge65" class="edge">
<title>Node26&#45;&gt;Node36</title>
<path fill="none" stroke="#63b8ff" d="M1422.63,-172.69C1556.85,-169.44 1864.85,-153.3 1924,-74 1935.04,-59.2 1922.39,-39.86 1910.09,-26.43"/>
<polygon fill="#63b8ff" stroke="#63b8ff" points="1912.57,-23.97 1903.07,-19.29 1907.58,-28.87 1912.57,-23.97"/>
</g>
<!-- Node37 -->
<g id="node37" class="node">
<title>Node37</title>
<g id="a_node37"><a xlink:href="serializer_8h.html" target="_top" xlink:title=" ">
<polygon fill="white" stroke="#666666" points="1683,-129 1613,-129 1613,-110 1683,-110 1683,-129"/>
<text text-anchor="middle" x="1648" y="-117" font-family="Helvetica,sans-Serif" font-size="10.00">serializer.h</text>
</a>
</g>
</g>
<!-- Node26&#45;&gt;Node37 -->
<g id="edge48" class="edge">
<title>Node26&#45;&gt;Node37</title>
<path fill="none" stroke="#63b8ff" d="M1406.27,-164.98C1460.35,-155.03 1549.23,-138.68 1602.83,-128.81"/>
<polygon fill="#63b8ff" stroke="#63b8ff" points="1603.53,-132.24 1612.74,-126.99 1602.27,-125.36 1603.53,-132.24"/>
</g>
<!-- Node27&#45;&gt;Node3 -->
<g id="edge36" class="edge">
<title>Node27&#45;&gt;Node3</title>
<path fill="none" stroke="#63b8ff" d="M1324.42,-116.71C1379.74,-113.23 1481.47,-103.1 1563,-74 1596.42,-62.07 1631.2,-39.81 1652.23,-25.07"/>
<polygon fill="#63b8ff" stroke="#63b8ff" points="1654.51,-27.74 1660.61,-19.08 1650.44,-22.04 1654.51,-27.74"/>
</g>
<!-- Node28 -->
<g id="node28" class="node">
<title>Node28</title>
<g id="a_node28"><a xlink:href="siphash_8h.html" target="_top" xlink:title=" ">
<polygon fill="white" stroke="#666666" points="1407.5,-74 1312.5,-74 1312.5,-55 1407.5,-55 1407.5,-74"/>
<text text-anchor="middle" x="1360" y="-62" font-family="Helvetica,sans-Serif" font-size="10.00">ccf/ds/siphash.h</text>
</a>
</g>
</g>
<!-- Node27&#45;&gt;Node28 -->
<g id="edge31" class="edge">
<title>Node27&#45;&gt;Node28</title>
<path fill="none" stroke="#63b8ff" d="M1296.21,-109.98C1307.78,-101.92 1325.38,-89.65 1339.16,-80.03"/>
<polygon fill="#63b8ff" stroke="#63b8ff" points="1341.37,-82.76 1347.57,-74.17 1337.36,-77.02 1341.37,-82.76"/>
</g>
<!-- Node27&#45;&gt;Node29 -->
<g id="edge39" class="edge">
<title>Node27&#45;&gt;Node29</title>
<path fill="none" stroke="#63b8ff" d="M1285.01,-109.96C1286.88,-97.03 1291.87,-72.18 1304,-55 1312.79,-42.56 1326.12,-32.08 1337.88,-24.43"/>
<polygon fill="#63b8ff" stroke="#63b8ff" points="1339.79,-27.36 1346.47,-19.14 1336.12,-21.4 1339.79,-27.36"/>
</g>
<!-- Node30 -->
<g id="node30" class="node">
<title>Node30</title>
<g id="a_node30"><a xlink:title=" ">
<polygon fill="#e0e0e0" stroke="#999999" points="1265,-19 1223,-19 1223,0 1265,0 1265,-19"/>
<text text-anchor="middle" x="1244" y="-7" font-family="Helvetica,sans-Serif" font-size="10.00">array</text>
</a>
</g>
</g>
<!-- Node27&#45;&gt;Node30 -->
<g id="edge35" class="edge">
<title>Node27&#45;&gt;Node30</title>
<path fill="none" stroke="#63b8ff" d="M1243.85,-114.58C1194.95,-108.88 1116.69,-96.44 1099,-74 1066.86,-33.21 1161.19,-18.04 1212.78,-12.89"/>
<polygon fill="#63b8ff" stroke="#63b8ff" points="1213.15,-16.37 1222.78,-11.96 1212.5,-9.4 1213.15,-16.37"/>
</g>
<!-- Node31 -->
<g id="node31" class="node">
<title>Node31</title>
<g id="a_node31"><a xlink:title=" ">
<polygon fill="#e0e0e0" stroke="#999999" points="1256.5,-74 1107.5,-74 1107.5,-55 1256.5,-55 1256.5,-74"/>
<text text-anchor="middle" x="1182" y="-62" font-family="Helvetica,sans-Serif" font-size="10.00">small_vector/SmallVector.h</text>
</a>
</g>
</g>
<!-- Node27&#45;&gt;Node31 -->
<g id="edge37" class="edge">
<title>Node27&#45;&gt;Node31</title>
<path fill="none" stroke="#63b8ff" d="M1267.61,-109.98C1251.43,-101.57 1226.43,-88.59 1207.62,-78.81"/>
<polygon fill="#63b8ff" stroke="#63b8ff" points="1209.17,-75.68 1198.69,-74.17 1205.95,-81.89 1209.17,-75.68"/>
</g>
<!-- Node32 -->
<g id="node32" class="node">
<title>Node32</title>
<g id="a_node32"><a xlink:title=" ">
<polygon fill="#e0e0e0" stroke="#999999" points="1093.5,-19 1020.5,-19 1020.5,0 1093.5,0 1093.5,-19"/>
<text text-anchor="middle" x="1057" y="-7" font-family="Helvetica,sans-Serif" font-size="10.00">string_view</text>
</a>
</g>
</g>
<!-- Node27&#45;&gt;Node32 -->
<g id="edge38" class="edge">
<title>Node27&#45;&gt;Node32</title>
<path fill="none" stroke="#63b8ff" d="M1243.63,-119.16C1200.68,-117.8 1132.86,-109.53 1088,-74 1073.9,-62.83 1065.78,-43.62 1061.42,-29.25"/>
<polygon fill="#63b8ff" stroke="#63b8ff" points="1064.75,-28.17 1058.78,-19.42 1057.99,-29.98 1064.75,-28.17"/>
</g>
<!-- Node28&#45;&gt;Node3 -->
<g id="edge33" class="edge">
<title>Node28&#45;&gt;Node3</title>
<path fill="none" stroke="#63b8ff" d="M1407.86,-56.72C1462.86,-48.72 1555.73,-34.5 1635,-19 1635.61,-18.88 1636.22,-18.76 1636.83,-18.64"/>
<polygon fill="#63b8ff" stroke="#63b8ff" points="1637.92,-21.98 1646.97,-16.48 1636.46,-15.14 1637.92,-21.98"/>
</g>
<!-- Node28&#45;&gt;Node24 -->
<g id="edge32" class="edge">
<title>Node28&#45;&gt;Node24</title>
<path fill="none" stroke="#63b8ff" d="M1312.19,-59.01C1297.39,-57.67 1281.03,-56.23 1266,-55 1047.98,-37.22 785.97,-19.33 690.8,-12.95"/>
<polygon fill="#63b8ff" stroke="#63b8ff" points="690.77,-9.44 680.56,-12.26 690.3,-16.42 690.77,-9.44"/>
</g>
<!-- Node28&#45;&gt;Node29 -->
<g id="edge34" class="edge">
<title>Node28&#45;&gt;Node29</title>
<path fill="none" stroke="#63b8ff" d="M1360.5,-54.75C1360.89,-47.8 1361.45,-37.85 1361.95,-29.13"/>
<polygon fill="#63b8ff" stroke="#63b8ff" points="1365.44,-29.27 1362.51,-19.09 1358.45,-28.88 1365.44,-29.27"/>
</g>
<!-- Node33&#45;&gt;Node21 -->
<g id="edge46" class="edge">
<title>Node33&#45;&gt;Node21</title>
<path fill="none" stroke="#63b8ff" d="M1509,-54.75C1509,-47.8 1509,-37.85 1509,-29.13"/>
<polygon fill="#63b8ff" stroke="#63b8ff" points="1512.5,-29.09 1509,-19.09 1505.5,-29.09 1512.5,-29.09"/>
</g>
<!-- Node33&#45;&gt;Node29 -->
<g id="edge47" class="edge">
<title>Node33&#45;&gt;Node29</title>
<path fill="none" stroke="#63b8ff" d="M1485.54,-54.98C1461.42,-46.23 1423.63,-32.51 1396.4,-22.62"/>
<polygon fill="#63b8ff" stroke="#63b8ff" points="1397.48,-19.29 1386.88,-19.17 1395.09,-25.87 1397.48,-19.29"/>
</g>
<!-- Node33&#45;&gt;Node30 -->
<g id="edge42" class="edge">
<title>Node33&#45;&gt;Node30</title>
<path fill="none" stroke="#63b8ff" d="M1466.42,-54.98C1412.97,-44.29 1322.54,-26.21 1275.13,-16.73"/>
<polygon fill="#63b8ff" stroke="#63b8ff" points="1275.63,-13.26 1265.14,-14.73 1274.26,-20.12 1275.63,-13.26"/>
</g>
<!-- Node33&#45;&gt;Node32 -->
<g id="edge45" class="edge">
<title>Node33&#45;&gt;Node32</title>
<path fill="none" stroke="#63b8ff" d="M1463.59,-58.18C1377.43,-48.07 1191.07,-26.22 1103.83,-15.99"/>
<polygon fill="#63b8ff" stroke="#63b8ff" points="1104.03,-12.49 1093.69,-14.8 1103.22,-19.44 1104.03,-12.49"/>
</g>
<!-- Node34 -->
<g id="node34" class="node">
<title>Node34</title>
<g id="a_node34"><a xlink:title=" ">
<polygon fill="#e0e0e0" stroke="#999999" points="1626,-19 1562,-19 1562,0 1626,0 1626,-19"/>
<text text-anchor="middle" x="1594" y="-7" font-family="Helvetica,sans-Serif" font-size="10.00">algorithm</text>
</a>
</g>
</g>
<!-- Node33&#45;&gt;Node34 -->
<g id="edge41" class="edge">
<title>Node33&#45;&gt;Node34</title>
<path fill="none" stroke="#63b8ff" d="M1522.66,-54.98C1535.84,-46.77 1556.03,-34.18 1571.57,-24.49"/>
<polygon fill="#63b8ff" stroke="#63b8ff" points="1573.46,-27.43 1580.09,-19.17 1569.76,-21.49 1573.46,-27.43"/>
</g>
<!-- Node35 -->
<g id="node35" class="node">
<title>Node35</title>
<g id="a_node35"><a xlink:title=" ">
<polygon fill="#e0e0e0" stroke="#999999" points="1456.5,-19 1407.5,-19 1407.5,0 1456.5,0 1456.5,-19"/>
<text text-anchor="middle" x="1432" y="-7" font-family="Helvetica,sans-Serif" font-size="10.00">cctype</text>
</a>
</g>
</g>
<!-- Node33&#45;&gt;Node35 -->
<g id="edge43" class="edge">
<title>Node33&#45;&gt;Node35</title>
<path fill="none" stroke="#63b8ff" d="M1496.63,-54.98C1484.91,-46.92 1467.08,-34.65 1453.11,-25.03"/>
<polygon fill="#63b8ff" stroke="#63b8ff" points="1454.82,-21.96 1444.6,-19.17 1450.85,-27.72 1454.82,-21.96"/>
</g>
<!-- Node33&#45;&gt;Node36 -->
<g id="edge44" class="edge">
<title>Node33&#45;&gt;Node36</title>
<path fill="none" stroke="#63b8ff" d="M1554.19,-59.88C1619.74,-54.17 1745.14,-41.54 1860.67,-19.01"/>
<polygon fill="#63b8ff" stroke="#63b8ff" points="1861.61,-22.39 1870.74,-17.01 1860.25,-15.52 1861.61,-22.39"/>
</g>
<!-- Node37&#45;&gt;Node4 -->
<g id="edge57" class="edge">
<title>Node37&#45;&gt;Node4</title>
<path fill="none" stroke="#63b8ff" d="M1683.32,-112.23C1724.66,-104.69 1795.36,-91.15 1864.97,-74.09"/>
<polygon fill="#63b8ff" stroke="#63b8ff" points="1865.91,-77.46 1874.78,-71.66 1864.23,-70.67 1865.91,-77.46"/>
</g>
<!-- Node37&#45;&gt;Node21 -->
<g id="edge59" class="edge">
<title>Node37&#45;&gt;Node21</title>
<path fill="none" stroke="#63b8ff" d="M1636.63,-109.66C1612.89,-91.22 1557.84,-48.45 1528.4,-25.57"/>
<polygon fill="#63b8ff" stroke="#63b8ff" points="1530.19,-22.53 1520.14,-19.16 1525.89,-28.06 1530.19,-22.53"/>
</g>
<!-- Node37&#45;&gt;Node29 -->
<g id="edge60" class="edge">
<title>Node37&#45;&gt;Node29</title>
<path fill="none" stroke="#63b8ff" d="M1612.93,-114.46C1573.27,-108.98 1507.38,-97.1 1455,-74 1426.77,-61.55 1398.12,-40.07 1380.46,-25.58"/>
<polygon fill="#63b8ff" stroke="#63b8ff" points="1382.64,-22.84 1372.72,-19.1 1378.14,-28.21 1382.64,-22.84"/>
</g>
<!-- Node37&#45;&gt;Node33 -->
<g id="edge49" class="edge">
<title>Node37&#45;&gt;Node33</title>
<path fill="none" stroke="#63b8ff" d="M1625.67,-109.98C1602.8,-101.27 1567.04,-87.63 1541.14,-77.75"/>
<polygon fill="#63b8ff" stroke="#63b8ff" points="1542.33,-74.46 1531.74,-74.17 1539.84,-81 1542.33,-74.46"/>
</g>
<!-- Node38 -->
<g id="node38" class="node">
<title>Node38</title>
<g id="a_node38"><a xlink:href="serialized_8h.html" target="_top" xlink:title=" ">
<polygon fill="white" stroke="#666666" points="1856.5,-74 1783.5,-74 1783.5,-55 1856.5,-55 1856.5,-74"/>
<text text-anchor="middle" x="1820" y="-62" font-family="Helvetica,sans-Serif" font-size="10.00">serialized.h</text>
</a>
</g>
</g>
<!-- Node37&#45;&gt;Node38 -->
<g id="edge50" class="edge">
<title>Node37&#45;&gt;Node38</title>
<path fill="none" stroke="#63b8ff" d="M1675.63,-109.98C1704.51,-101.09 1750.01,-87.07 1782.2,-77.15"/>
<polygon fill="#63b8ff" stroke="#63b8ff" points="1783.62,-80.37 1792.15,-74.08 1781.56,-73.68 1783.62,-80.37"/>
</g>
<!-- Node41 -->
<g id="node41" class="node">
<title>Node41</title>
<g id="a_node41"><a xlink:title=" ">
<polygon fill="#e0e0e0" stroke="#999999" points="1706,-74 1648,-74 1648,-55 1706,-55 1706,-74"/>
<text text-anchor="middle" x="1677" y="-62" font-family="Helvetica,sans-Serif" font-size="10.00">memory</text>
</a>
</g>
</g>
<!-- Node37&#45;&gt;Node41 -->
<g id="edge56" class="edge">
<title>Node37&#45;&gt;Node41</title>
<path fill="none" stroke="#63b8ff" d="M1652.79,-109.75C1656.76,-102.49 1662.53,-91.95 1667.43,-82.98"/>
<polygon fill="#63b8ff" stroke="#63b8ff" points="1670.57,-84.54 1672.3,-74.09 1664.43,-81.18 1670.57,-84.54"/>
</g>
<!-- Node42 -->
<g id="node42" class="node">
<title>Node42</title>
<g id="a_node42"><a xlink:title=" ">
<polygon fill="#e0e0e0" stroke="#999999" points="1765.5,-74 1724.5,-74 1724.5,-55 1765.5,-55 1765.5,-74"/>
<text text-anchor="middle" x="1745" y="-62" font-family="Helvetica,sans-Serif" font-size="10.00">tuple</text>
</a>
</g>
</g>
<!-- Node37&#45;&gt;Node42 -->
<g id="edge58" class="edge">
<title>Node37&#45;&gt;Node42</title>
<path fill="none" stroke="#63b8ff" d="M1663.58,-109.98C1678.77,-101.69 1702.1,-88.94 1719.9,-79.22"/>
<polygon fill="#63b8ff" stroke="#63b8ff" points="1722.03,-82.04 1729.13,-74.17 1718.68,-75.89 1722.03,-82.04"/>
</g>
<!-- Node38&#45;&gt;Node3 -->
<g id="edge51" class="edge">
<title>Node38&#45;&gt;Node3</title>
<path fill="none" stroke="#63b8ff" d="M1796.22,-54.98C1771.77,-46.23 1733.47,-32.51 1705.85,-22.62"/>
<polygon fill="#63b8ff" stroke="#63b8ff" points="1706.81,-19.25 1696.21,-19.17 1704.45,-25.84 1706.81,-19.25"/>
</g>
<!-- Node38&#45;&gt;Node29 -->
<g id="edge55" class="edge">
<title>Node38&#45;&gt;Node29</title>
<path fill="none" stroke="#63b8ff" d="M1783.21,-56.27C1780.44,-55.81 1777.68,-55.38 1775,-55 1608.79,-31.4 1564.63,-46.35 1399,-19 1398.24,-18.87 1397.47,-18.74 1396.7,-18.6"/>
<polygon fill="#63b8ff" stroke="#63b8ff" points="1397.03,-15.1 1386.53,-16.54 1395.64,-21.96 1397.03,-15.1"/>
</g>
<!-- Node38&#45;&gt;Node36 -->
<g id="edge54" class="edge">
<title>Node38&#45;&gt;Node36</title>
<path fill="none" stroke="#63b8ff" d="M1831.73,-54.98C1842.73,-47 1859.42,-34.88 1872.6,-25.31"/>
<polygon fill="#63b8ff" stroke="#63b8ff" points="1875.02,-27.88 1881.06,-19.17 1870.91,-22.21 1875.02,-27.88"/>
</g>
<!-- Node39 -->
<g id="node39" class="node">
<title>Node39</title>
<g id="a_node39"><a xlink:title=" ">
<polygon fill="#e0e0e0" stroke="#999999" points="1769,-19 1719,-19 1719,0 1769,0 1769,-19"/>
<text text-anchor="middle" x="1744" y="-7" font-family="Helvetica,sans-Serif" font-size="10.00">cstring</text>
</a>
</g>
</g>
<!-- Node38&#45;&gt;Node39 -->
<g id="edge52" class="edge">
<title>Node38&#45;&gt;Node39</title>
<path fill="none" stroke="#63b8ff" d="M1807.79,-54.98C1796.22,-46.92 1778.62,-34.65 1764.84,-25.03"/>
<polygon fill="#63b8ff" stroke="#63b8ff" points="1766.64,-22.02 1756.43,-19.17 1762.63,-27.76 1766.64,-22.02"/>
</g>
<!-- Node40 -->
<g id="node40" class="node">
<title>Node40</title>
<g id="a_node40"><a xlink:title=" ">
<polygon fill="#e0e0e0" stroke="#999999" points="1852.5,-19 1787.5,-19 1787.5,0 1852.5,0 1852.5,-19"/>
<text text-anchor="middle" x="1820" y="-7" font-family="Helvetica,sans-Serif" font-size="10.00">stdexcept</text>
</a>
</g>
</g>
<!-- Node38&#45;&gt;Node40 -->
<g id="edge53" class="edge">
<title>Node38&#45;&gt;Node40</title>
<path fill="none" stroke="#63b8ff" d="M1820,-54.75C1820,-47.8 1820,-37.85 1820,-29.13"/>
<polygon fill="#63b8ff" stroke="#63b8ff" points="1823.5,-29.09 1820,-19.09 1816.5,-29.09 1823.5,-29.09"/>
</g>
</g>
</svg>
