<?xml version="1.0" encoding="UTF-8" standalone="no"?>
<!DOCTYPE svg PUBLIC "-//W3C//DTD SVG 1.1//EN"
 "http://www.w3.org/Graphics/SVG/1.1/DTD/svg11.dtd">
<!-- Generated by graphviz version 2.43.0 (0)
 -->
<!-- Title: ccf::ODataErrorResponse Pages: 1 -->
<svg width="239pt" height="248pt"
 viewBox="0.00 0.00 239.00 248.00" xmlns="http://www.w3.org/2000/svg" xmlns:xlink="http://www.w3.org/1999/xlink">
<g id="graph0" class="graph" transform="scale(1 1) rotate(0) translate(4 244)">
<title>ccf::ODataErrorResponse</title>
<!-- Node1 -->
<g id="node1" class="node">
<title>Node1</title>
<g id="a_node1"><a xlink:title=" ">
<polygon fill="#999999" stroke="#666666" points="178.5,-19 41.5,-19 41.5,0 178.5,0 178.5,-19"/>
<text text-anchor="middle" x="110" y="-7" font-family="Helvetica,sans-Serif" font-size="10.00">ccf::ODataErrorResponse</text>
</a>
</g>
</g>
<!-- Node2 -->
<g id="node2" class="node">
<title>Node2</title>
<g id="a_node2"><a xlink:href="structccf_1_1ODataError.html" target="_top" xlink:title=" ">
<polygon fill="white" stroke="#666666" points="155,-85 65,-85 65,-66 155,-66 155,-85"/>
<text text-anchor="middle" x="110" y="-73" font-family="Helvetica,sans-Serif" font-size="10.00">ccf::ODataError</text>
</a>
</g>
</g>
<!-- Node2&#45;&gt;Node1 -->
<g id="edge1" class="edge">
<title>Node2&#45;&gt;Node1</title>
<path fill="none" stroke="#9a32cd" stroke-dasharray="5,2" d="M110,-55.58C110,-43.63 110,-28.72 110,-19.41"/>
<polygon fill="#9a32cd" stroke="#9a32cd" points="106.5,-55.87 110,-65.87 113.5,-55.87 106.5,-55.87"/>
<text text-anchor="middle" x="123.5" y="-40" font-family="Helvetica,sans-Serif" font-size="10.00"> error</text>
</g>
<!-- Node3 -->
<g id="node3" class="node">
<title>Node3</title>
<g id="a_node3"><a xlink:title=" ">
<polygon fill="white" stroke="#666666" points="84.5,-167.5 19.5,-167.5 19.5,-148.5 84.5,-148.5 84.5,-167.5"/>
<text text-anchor="middle" x="52" y="-155.5" font-family="Helvetica,sans-Serif" font-size="10.00">std::string</text>
</a>
</g>
</g>
<!-- Node3&#45;&gt;Node2 -->
<g id="edge2" class="edge">
<title>Node3&#45;&gt;Node2</title>
<path fill="none" stroke="#9a32cd" stroke-dasharray="5,2" d="M59.76,-139.03C64.95,-128.06 72.38,-114.07 81,-103 86.2,-96.33 93.16,-89.9 98.96,-85.05"/>
<polygon fill="#9a32cd" stroke="#9a32cd" points="56.45,-137.87 55.52,-148.42 62.83,-140.75 56.45,-137.87"/>
<text text-anchor="middle" x="103.5" y="-117" font-family="Helvetica,sans-Serif" font-size="10.00"> code</text>
<text text-anchor="middle" x="103.5" y="-106" font-family="Helvetica,sans-Serif" font-size="10.00">message</text>
</g>
<!-- Node4 -->
<g id="node4" class="node">
<title>Node4</title>
<g id="a_node4"><a xlink:title=" ">
<polygon fill="white" stroke="#666666" points="104,-240 0,-240 0,-210 104,-210 104,-240"/>
<text text-anchor="start" x="8" y="-228" font-family="Helvetica,sans-Serif" font-size="10.00">std::basic_string&lt;</text>
<text text-anchor="middle" x="52" y="-217" font-family="Helvetica,sans-Serif" font-size="10.00"> Char &gt;</text>
</a>
</g>
</g>
<!-- Node4&#45;&gt;Node3 -->
<g id="edge3" class="edge">
<title>Node4&#45;&gt;Node3</title>
<path fill="none" stroke="#63b8ff" d="M52,-199.75C52,-188.52 52,-175.88 52,-167.69"/>
<polygon fill="#63b8ff" stroke="#63b8ff" points="48.5,-199.9 52,-209.9 55.5,-199.9 48.5,-199.9"/>
</g>
<!-- Node5 -->
<g id="node5" class="node">
<title>Node5</title>
<g id="a_node5"><a xlink:title=" ">
<polygon fill="white" stroke="#666666" points="231,-173 103,-173 103,-143 231,-143 231,-173"/>
<text text-anchor="start" x="111" y="-161" font-family="Helvetica,sans-Serif" font-size="10.00">std::vector&lt; nlohmann</text>
<text text-anchor="middle" x="167" y="-150" font-family="Helvetica,sans-Serif" font-size="10.00">::json &gt;</text>
</a>
</g>
</g>
<!-- Node5&#45;&gt;Node2 -->
<g id="edge4" class="edge">
<title>Node5&#45;&gt;Node2</title>
<path fill="none" stroke="#9a32cd" stroke-dasharray="5,2" d="M151.09,-134.53C139.57,-118.26 124.61,-97.13 116.29,-85.38"/>
<polygon fill="#9a32cd" stroke="#9a32cd" points="148.44,-136.84 157.07,-142.98 154.15,-132.79 148.44,-136.84"/>
<text text-anchor="middle" x="161.5" y="-111.5" font-family="Helvetica,sans-Serif" font-size="10.00"> details</text>
</g>
</g>
</svg>
