<?xml version="1.0" encoding="UTF-8" standalone="no"?>
<!DOCTYPE svg PUBLIC "-//W3C//DTD SVG 1.1//EN"
 "http://www.w3.org/Graphics/SVG/1.1/DTD/svg11.dtd">
<!-- Generated by graphviz version 2.43.0 (0)
 -->
<!-- Title: ccf::UserCOSESign1AuthnIdentity Pages: 1 -->
<!--zoomable 144 -->
<svg id="main" version="1.1" xmlns="http://www.w3.org/2000/svg" xmlns:xlink="http://www.w3.org/1999/xlink" xml:space="preserve" onload="init(evt)">
<style type="text/css"><![CDATA[
.edge:hover path { stroke: red; }
.edge:hover polygon { stroke: red; fill: red; }
]]></style>
<script type="text/javascript"><![CDATA[
var edges = document.getElementsByTagName('g');
if (edges && edges.length) {
  for (var i=0;i<edges.length;i++) {
    if (edges[i].id.substr(0,4)=='edge') {
      edges[i].setAttribute('class','edge');
    }
  }
}
]]></script>
        <defs>
                <circle id="rim" cx="0" cy="0" r="7"/>
                <circle id="rim2" cx="0" cy="0" r="3.5"/>
                <g id="zoomPlus">
                        <use xlink:href="#rim" fill="#404040">
                                <set attributeName="fill" to="#808080" begin="zoomplus.mouseover" end="zoomplus.mouseout"/>
                        </use>
                        <path d="M-4,0h8M0,-4v8" fill="none" stroke="white" stroke-width="1.5" pointer-events="none"/>
                </g>
                <g id="zoomMin">
                        <use xlink:href="#rim" fill="#404040">
                                <set attributeName="fill" to="#808080" begin="zoomminus.mouseover" end="zoomminus.mouseout"/>
                        </use>
                        <path d="M-4,0h8" fill="none" stroke="white" stroke-width="1.5" pointer-events="none"/>
                </g>
                <g id="dirArrow">
                        <path fill="none" stroke="white" stroke-width="1.5" d="M0,-3.0v7 M-2.5,-0.5L0,-3.0L2.5,-0.5"/>
                </g>
               <g id="resetDef">
                       <use xlink:href="#rim2" fill="#404040">
                               <set attributeName="fill" to="#808080" begin="reset.mouseover" end="reset.mouseout"/>
                       </use>
               </g>
        </defs>

<script type="text/javascript">
var viewWidth = 785;
var viewHeight = 144;
var sectionId = 'dynsection-0';
</script>
<script xlink:href="svgpan.js"/>
<svg id="graph" class="graph">
<g id="viewport">
<title>ccf::UserCOSESign1AuthnIdentity</title>
<!-- Node1 -->
<g id="node1" class="node">
<title>Node1</title>
<g id="a_node1"><a xlink:title=" ">
<polygon fill="#999999" stroke="#666666" points="777,-79.5 599,-79.5 599,-60.5 777,-60.5 777,-79.5"/>
<text text-anchor="middle" x="688" y="-67.5" font-family="Helvetica,sans-Serif" font-size="10.00">ccf::UserCOSESign1AuthnIdentity</text>
</a>
</g>
</g>
<!-- Node2 -->
<g id="node2" class="node">
<title>Node2</title>
<g id="a_node2"><a xlink:href="structccf_1_1COSESign1AuthnIdentity.html" target="_top" xlink:title=" ">
<polygon fill="white" stroke="#666666" points="463.5,-135.5 308.5,-135.5 308.5,-116.5 463.5,-116.5 463.5,-135.5"/>
<text text-anchor="middle" x="386" y="-123.5" font-family="Helvetica,sans-Serif" font-size="10.00">ccf::COSESign1AuthnIdentity</text>
</a>
</g>
</g>
<!-- Node2&#45;&gt;Node1 -->
<g id="edge1" class="edge">
<title>Node2&#45;&gt;Node1</title>
<path fill="none" stroke="#63b8ff" d="M473.16,-115.03C506.92,-110.23 545.91,-104.07 581,-97 605.39,-92.08 632.57,-85.13 653.31,-79.51"/>
<polygon fill="#63b8ff" stroke="#63b8ff" points="472.27,-111.62 462.86,-116.47 473.25,-118.55 472.27,-111.62"/>
</g>
<!-- Node3 -->
<g id="node3" class="node">
<title>Node3</title>
<g id="a_node3"><a xlink:href="structccf_1_1AuthnIdentity.html" target="_top" xlink:title=" ">
<polygon fill="white" stroke="#666666" points="243,-135.5 141,-135.5 141,-116.5 243,-116.5 243,-135.5"/>
<text text-anchor="middle" x="192" y="-123.5" font-family="Helvetica,sans-Serif" font-size="10.00">ccf::AuthnIdentity</text>
</a>
</g>
</g>
<!-- Node3&#45;&gt;Node2 -->
<g id="edge2" class="edge">
<title>Node3&#45;&gt;Node2</title>
<path fill="none" stroke="#63b8ff" d="M253.49,-126C270.94,-126 290.21,-126 308.49,-126"/>
<polygon fill="#63b8ff" stroke="#63b8ff" points="253.45,-122.5 243.45,-126 253.45,-129.5 253.45,-122.5"/>
</g>
<!-- Node4 -->
<g id="node4" class="node">
<title>Node4</title>
<g id="a_node4"><a xlink:href="structccf_1_1EntityId.html" target="_top" xlink:title=" ">
<polygon fill="white" stroke="#666666" points="474,-98.5 298,-98.5 298,-79.5 474,-79.5 474,-98.5"/>
<text text-anchor="middle" x="386" y="-86.5" font-family="Helvetica,sans-Serif" font-size="10.00">ccf::EntityId&lt; UserIdFormatter &gt;</text>
</a>
</g>
</g>
<!-- Node4&#45;&gt;Node1 -->
<g id="edge3" class="edge">
<title>Node4&#45;&gt;Node1</title>
<path fill="none" stroke="#9a32cd" stroke-dasharray="5,2" d="M484.42,-82.83C521.24,-80.5 562.9,-77.86 598.83,-75.58"/>
<polygon fill="#9a32cd" stroke="#9a32cd" points="483.93,-79.35 474.18,-83.48 484.38,-86.34 483.93,-79.35"/>
<text text-anchor="middle" x="536.5" y="-85" font-family="Helvetica,sans-Serif" font-size="10.00"> user_id</text>
</g>
<!-- Node5 -->
<g id="node5" class="node">
<title>Node5</title>
<g id="a_node5"><a xlink:href="classcrypto_1_1Pem.html" target="_top" xlink:title=" ">
<polygon fill="white" stroke="#666666" points="423.5,-61.5 348.5,-61.5 348.5,-42.5 423.5,-42.5 423.5,-61.5"/>
<text text-anchor="middle" x="386" y="-49.5" font-family="Helvetica,sans-Serif" font-size="10.00">crypto::Pem</text>
</a>
</g>
</g>
<!-- Node5&#45;&gt;Node1 -->
<g id="edge4" class="edge">
<title>Node5&#45;&gt;Node1</title>
<path fill="none" stroke="#9a32cd" stroke-dasharray="5,2" d="M433.62,-51.52C472.96,-51.45 530.74,-52.17 581,-56 594.88,-57.06 609.73,-58.7 623.78,-60.49"/>
<polygon fill="#9a32cd" stroke="#9a32cd" points="433.52,-48.02 423.53,-51.55 433.54,-55.02 433.52,-48.02"/>
<text text-anchor="middle" x="536.5" y="-59" font-family="Helvetica,sans-Serif" font-size="10.00"> user_cert</text>
</g>
<!-- Node6 -->
<g id="node6" class="node">
<title>Node6</title>
<g id="a_node6"><a xlink:href="structccf_1_1ProtectedHeader.html" target="_top" xlink:title=" ">
<polygon fill="white" stroke="#666666" points="445,-24.5 327,-24.5 327,-5.5 445,-5.5 445,-24.5"/>
<text text-anchor="middle" x="386" y="-12.5" font-family="Helvetica,sans-Serif" font-size="10.00">ccf::ProtectedHeader</text>
</a>
</g>
</g>
<!-- Node6&#45;&gt;Node1 -->
<g id="edge5" class="edge">
<title>Node6&#45;&gt;Node1</title>
<path fill="none" stroke="#9a32cd" stroke-dasharray="5,2" d="M455.46,-19.59C492.83,-22.89 539.77,-28.32 581,-37 608.91,-42.87 639.98,-52.98 661.23,-60.47"/>
<polygon fill="#9a32cd" stroke="#9a32cd" points="455.44,-16.07 445.18,-18.71 454.85,-23.05 455.44,-16.07"/>
<text text-anchor="middle" x="536.5" y="-40" font-family="Helvetica,sans-Serif" font-size="10.00"> protected_header</text>
</g>
<!-- Node7 -->
<g id="node7" class="node">
<title>Node7</title>
<g id="a_node7"><a xlink:title=" ">
<polygon fill="white" stroke="#666666" points="224.5,-24.5 159.5,-24.5 159.5,-5.5 224.5,-5.5 224.5,-24.5"/>
<text text-anchor="middle" x="192" y="-12.5" font-family="Helvetica,sans-Serif" font-size="10.00">std::string</text>
</a>
</g>
</g>
<!-- Node7&#45;&gt;Node6 -->
<g id="edge6" class="edge">
<title>Node7&#45;&gt;Node6</title>
<path fill="none" stroke="#9a32cd" stroke-dasharray="5,2" d="M234.95,-15C261.88,-15 297.23,-15 326.86,-15"/>
<polygon fill="#9a32cd" stroke="#9a32cd" points="234.7,-11.5 224.7,-15 234.7,-18.5 234.7,-11.5"/>
<text text-anchor="middle" x="270.5" y="-18" font-family="Helvetica,sans-Serif" font-size="10.00"> kid</text>
</g>
<!-- Node8 -->
<g id="node8" class="node">
<title>Node8</title>
<g id="a_node8"><a xlink:title=" ">
<polygon fill="white" stroke="#666666" points="104,-30 0,-30 0,0 104,0 104,-30"/>
<text text-anchor="start" x="8" y="-18" font-family="Helvetica,sans-Serif" font-size="10.00">std::basic_string&lt;</text>
<text text-anchor="middle" x="52" y="-7" font-family="Helvetica,sans-Serif" font-size="10.00"> Char &gt;</text>
</a>
</g>
</g>
<!-- Node8&#45;&gt;Node7 -->
<g id="edge7" class="edge">
<title>Node8&#45;&gt;Node7</title>
<path fill="none" stroke="#63b8ff" d="M114.44,-15C129.9,-15 145.88,-15 159.21,-15"/>
<polygon fill="#63b8ff" stroke="#63b8ff" points="114.39,-11.5 104.39,-15 114.39,-18.5 114.39,-11.5"/>
</g>
</g>
</svg>
        <g id="navigator" transform="translate(0 0)" fill="#404254">
                <rect fill="#f2f5e9" fill-opacity="0.5" stroke="#606060" stroke-width=".5" x="0" y="0" width="60" height="60"/>
                <use id="zoomplus" xlink:href="#zoomPlus" x="17" y="9" onmousedown="handleZoom(evt,'in')"/>
                <use id="zoomminus" xlink:href="#zoomMin" x="42" y="9" onmousedown="handleZoom(evt,'out')"/>
                <use id="reset" xlink:href="#resetDef" x="30" y="36" onmousedown="handleReset()"/>
                <g id="arrowUp" xlink:href="#dirArrow" transform="translate(30 24)" onmousedown="handlePan(0,-1)">
                  <use xlink:href="#rim" fill="#404040">
                        <set attributeName="fill" to="#808080" begin="arrowUp.mouseover" end="arrowUp.mouseout"/>
                  </use>
                  <path fill="none" stroke="white" stroke-width="1.5" d="M0,-3.0v7 M-2.5,-0.5L0,-3.0L2.5,-0.5"/>
                </g>
                <g id="arrowRight" xlink:href="#dirArrow" transform="rotate(90) translate(36 -43)" onmousedown="handlePan(1,0)">
                  <use xlink:href="#rim" fill="#404040">
                        <set attributeName="fill" to="#808080" begin="arrowRight.mouseover" end="arrowRight.mouseout"/>
                  </use>
                  <path fill="none" stroke="white" stroke-width="1.5" d="M0,-3.0v7 M-2.5,-0.5L0,-3.0L2.5,-0.5"/>
                </g>
                <g id="arrowDown" xlink:href="#dirArrow" transform="rotate(180) translate(-30 -48)" onmousedown="handlePan(0,1)">
                  <use xlink:href="#rim" fill="#404040">
                        <set attributeName="fill" to="#808080" begin="arrowDown.mouseover" end="arrowDown.mouseout"/>
                  </use>
                  <path fill="none" stroke="white" stroke-width="1.5" d="M0,-3.0v7 M-2.5,-0.5L0,-3.0L2.5,-0.5"/>
                </g>
                <g id="arrowLeft" xlink:href="#dirArrow" transform="rotate(270) translate(-36 17)" onmousedown="handlePan(-1,0)">
                  <use xlink:href="#rim" fill="#404040">
                        <set attributeName="fill" to="#808080" begin="arrowLeft.mouseover" end="arrowLeft.mouseout"/>
                  </use>
                  <path fill="none" stroke="white" stroke-width="1.5" d="M0,-3.0v7 M-2.5,-0.5L0,-3.0L2.5,-0.5"/>
                </g>
        </g>
        <svg viewBox="0 0 15 15" width="100%" height="30px" preserveAspectRatio="xMaxYMin meet">
         <g id="arrow_out" transform="scale(0.3 0.3)">
          <a xlink:href="structccf_1_1UserCOSESign1AuthnIdentity__coll__graph_org.svg" target="_base">
           <rect id="button" ry="5" rx="5" y="6" x="6" height="38" width="38"
                fill="#f2f5e9" fill-opacity="0.5" stroke="#606060" stroke-width="1.0"/>
           <path id="arrow"
             d="M 11.500037,31.436501 C 11.940474,20.09759 22.043105,11.32322 32.158766,21.979434 L 37.068811,17.246167 C 37.068811,17.246167 37.088388,32 37.088388,32 L 22.160133,31.978069 C 22.160133,31.978069 26.997745,27.140456 26.997745,27.140456 C 18.528582,18.264221 13.291696,25.230495 11.500037,31.436501 z"
             style="fill:#404040;"/>
          </a>
         </g>
        </svg>
</svg>
