<?xml version="1.0" encoding="UTF-8" standalone="no"?>
<!DOCTYPE svg PUBLIC "-//W3C//DTD SVG 1.1//EN"
 "http://www.w3.org/Graphics/SVG/1.1/DTD/svg11.dtd">
<!-- Generated by graphviz version 2.43.0 (0)
 -->
<!-- Title: ccf::historical::StateCacheImpl::VersionedSecret Pages: 1 -->
<svg width="282pt" height="313pt"
 viewBox="0.00 0.00 282.00 313.00" xmlns="http://www.w3.org/2000/svg" xmlns:xlink="http://www.w3.org/1999/xlink">
<g id="graph0" class="graph" transform="scale(1 1) rotate(0) translate(4 309)">
<title>ccf::historical::StateCacheImpl::VersionedSecret</title>
<!-- Node1 -->
<g id="node1" class="node">
<title>Node1</title>
<g id="a_node1"><a xlink:title=" ">
<polygon fill="#999999" stroke="#666666" points="187,-30 44,-30 44,0 187,0 187,-30"/>
<text text-anchor="start" x="52" y="-18" font-family="Helvetica,sans-Serif" font-size="10.00">ccf::historical::StateCache</text>
<text text-anchor="middle" x="115.5" y="-7" font-family="Helvetica,sans-Serif" font-size="10.00">Impl::VersionedSecret</text>
</a>
</g>
</g>
<!-- Node2 -->
<g id="node2" class="node">
<title>Node2</title>
<g id="a_node2"><a xlink:title=" ">
<polygon fill="white" stroke="#666666" points="203.5,-96 27.5,-96 27.5,-77 203.5,-77 203.5,-96"/>
<text text-anchor="middle" x="115.5" y="-84" font-family="Helvetica,sans-Serif" font-size="10.00">std::shared_ptr&lt; LedgerSecret &gt;</text>
</a>
</g>
</g>
<!-- Node2&#45;&gt;Node1 -->
<g id="edge1" class="edge">
<title>Node2&#45;&gt;Node1</title>
<path fill="none" stroke="#9a32cd" stroke-dasharray="5,2" d="M115.5,-66.71C115.5,-55.19 115.5,-40.68 115.5,-30.14"/>
<polygon fill="#9a32cd" stroke="#9a32cd" points="112,-66.98 115.5,-76.98 119,-66.98 112,-66.98"/>
<text text-anchor="middle" x="132.5" y="-51" font-family="Helvetica,sans-Serif" font-size="10.00"> secret</text>
</g>
<!-- Node3 -->
<g id="node3" class="node">
<title>Node3</title>
<g id="a_node3"><a xlink:href="structccf_1_1LedgerSecret.html" target="_top" xlink:title=" ">
<polygon fill="white" stroke="#666666" points="165.5,-162 65.5,-162 65.5,-143 165.5,-143 165.5,-162"/>
<text text-anchor="middle" x="115.5" y="-150" font-family="Helvetica,sans-Serif" font-size="10.00">ccf::LedgerSecret</text>
</a>
</g>
</g>
<!-- Node3&#45;&gt;Node2 -->
<g id="edge2" class="edge">
<title>Node3&#45;&gt;Node2</title>
<path fill="none" stroke="#9a32cd" stroke-dasharray="5,2" d="M115.5,-132.58C115.5,-120.63 115.5,-105.72 115.5,-96.41"/>
<polygon fill="#9a32cd" stroke="#9a32cd" points="112,-132.87 115.5,-142.87 119,-132.87 112,-132.87"/>
<text text-anchor="middle" x="124" y="-117" font-family="Helvetica,sans-Serif" font-size="10.00"> ptr</text>
</g>
<!-- Node4 -->
<g id="node4" class="node">
<title>Node4</title>
<g id="a_node4"><a xlink:title=" ">
<polygon fill="white" stroke="#666666" points="125,-233.5 0,-233.5 0,-214.5 125,-214.5 125,-233.5"/>
<text text-anchor="middle" x="62.5" y="-221.5" font-family="Helvetica,sans-Serif" font-size="10.00">std::vector&lt; uint8_t &gt;</text>
</a>
</g>
</g>
<!-- Node4&#45;&gt;Node3 -->
<g id="edge3" class="edge">
<title>Node4&#45;&gt;Node3</title>
<path fill="none" stroke="#9a32cd" stroke-dasharray="5,2" d="M75.28,-206.24C85.9,-192.31 100.58,-173.07 108.95,-162.09"/>
<polygon fill="#9a32cd" stroke="#9a32cd" points="72.28,-204.4 69,-214.48 77.85,-208.65 72.28,-204.4"/>
<text text-anchor="middle" x="115.5" y="-183" font-family="Helvetica,sans-Serif" font-size="10.00"> raw_key</text>
</g>
<!-- Node5 -->
<g id="node5" class="node">
<title>Node5</title>
<g id="a_node5"><a xlink:title=" ">
<polygon fill="white" stroke="#666666" points="274,-239 143,-239 143,-209 274,-209 274,-239"/>
<text text-anchor="start" x="151" y="-227" font-family="Helvetica,sans-Serif" font-size="10.00">std::shared_ptr&lt; crypto</text>
<text text-anchor="middle" x="208.5" y="-216" font-family="Helvetica,sans-Serif" font-size="10.00">::KeyAesGcm &gt;</text>
</a>
</g>
</g>
<!-- Node5&#45;&gt;Node3 -->
<g id="edge4" class="edge">
<title>Node5&#45;&gt;Node3</title>
<path fill="none" stroke="#9a32cd" stroke-dasharray="5,2" d="M181.25,-202.64C163.19,-189.14 140.42,-172.12 126.96,-162.07"/>
<polygon fill="#9a32cd" stroke="#9a32cd" points="179.57,-205.75 189.68,-208.94 183.76,-200.15 179.57,-205.75"/>
<text text-anchor="middle" x="175" y="-183" font-family="Helvetica,sans-Serif" font-size="10.00"> key</text>
</g>
<!-- Node6 -->
<g id="node6" class="node">
<title>Node6</title>
<g id="a_node6"><a xlink:href="classcrypto_1_1KeyAesGcm.html" target="_top" xlink:title=" ">
<polygon fill="white" stroke="#666666" points="264.5,-305 152.5,-305 152.5,-286 264.5,-286 264.5,-305"/>
<text text-anchor="middle" x="208.5" y="-293" font-family="Helvetica,sans-Serif" font-size="10.00">crypto::KeyAesGcm</text>
</a>
</g>
</g>
<!-- Node6&#45;&gt;Node5 -->
<g id="edge5" class="edge">
<title>Node6&#45;&gt;Node5</title>
<path fill="none" stroke="#9a32cd" stroke-dasharray="5,2" d="M208.5,-275.71C208.5,-264.19 208.5,-249.68 208.5,-239.14"/>
<polygon fill="#9a32cd" stroke="#9a32cd" points="205,-275.98 208.5,-285.98 212,-275.98 205,-275.98"/>
<text text-anchor="middle" x="217" y="-260" font-family="Helvetica,sans-Serif" font-size="10.00"> ptr</text>
</g>
</g>
</svg>
