<?xml version="1.0" encoding="UTF-8" standalone="no"?>
<!DOCTYPE svg PUBLIC "-//W3C//DTD SVG 1.1//EN"
 "http://www.w3.org/Graphics/SVG/1.1/DTD/svg11.dtd">
<!-- Generated by graphviz version 2.43.0 (0)
 -->
<!-- Title: ccf::CustomProtocolSubsystemInterface::Essentials Pages: 1 -->
<!--zoomable 405 -->
<svg id="main" version="1.1" xmlns="http://www.w3.org/2000/svg" xmlns:xlink="http://www.w3.org/1999/xlink" xml:space="preserve" onload="init(evt)">
<style type="text/css"><![CDATA[
.edge:hover path { stroke: red; }
.edge:hover polygon { stroke: red; fill: red; }
]]></style>
<script type="text/javascript"><![CDATA[
var edges = document.getElementsByTagName('g');
if (edges && edges.length) {
  for (var i=0;i<edges.length;i++) {
    if (edges[i].id.substr(0,4)=='edge') {
      edges[i].setAttribute('class','edge');
    }
  }
}
]]></script>
        <defs>
                <circle id="rim" cx="0" cy="0" r="7"/>
                <circle id="rim2" cx="0" cy="0" r="3.5"/>
                <g id="zoomPlus">
                        <use xlink:href="#rim" fill="#404040">
                                <set attributeName="fill" to="#808080" begin="zoomplus.mouseover" end="zoomplus.mouseout"/>
                        </use>
                        <path d="M-4,0h8M0,-4v8" fill="none" stroke="white" stroke-width="1.5" pointer-events="none"/>
                </g>
                <g id="zoomMin">
                        <use xlink:href="#rim" fill="#404040">
                                <set attributeName="fill" to="#808080" begin="zoomminus.mouseover" end="zoomminus.mouseout"/>
                        </use>
                        <path d="M-4,0h8" fill="none" stroke="white" stroke-width="1.5" pointer-events="none"/>
                </g>
                <g id="dirArrow">
                        <path fill="none" stroke="white" stroke-width="1.5" d="M0,-3.0v7 M-2.5,-0.5L0,-3.0L2.5,-0.5"/>
                </g>
               <g id="resetDef">
                       <use xlink:href="#rim2" fill="#404040">
                               <set attributeName="fill" to="#808080" begin="reset.mouseover" end="reset.mouseout"/>
                       </use>
               </g>
        </defs>

<script type="text/javascript">
var viewWidth = 2774;
var viewHeight = 405;
var sectionId = 'dynsection-0';
</script>
<script xlink:href="svgpan.js"/>
<svg id="graph" class="graph">
<g id="viewport">
<title>ccf::CustomProtocolSubsystemInterface::Essentials</title>
<!-- Node1 -->
<g id="node1" class="node">
<title>Node1</title>
<g id="a_node1"><a xlink:title=" ">
<polygon fill="#999999" stroke="#666666" points="2766,-225.5 2599,-225.5 2599,-195.5 2766,-195.5 2766,-225.5"/>
<text text-anchor="start" x="2607" y="-213.5" font-family="Helvetica,sans-Serif" font-size="10.00">ccf::CustomProtocolSubsystem</text>
<text text-anchor="middle" x="2682.5" y="-202.5" font-family="Helvetica,sans-Serif" font-size="10.00">Interface::Essentials</text>
</a>
</g>
</g>
<!-- Node2 -->
<g id="node2" class="node">
<title>Node2</title>
<g id="a_node2"><a xlink:title=" ">
<polygon fill="white" stroke="#666666" points="2518,-279.5 2377,-279.5 2377,-249.5 2518,-249.5 2518,-279.5"/>
<text text-anchor="start" x="2385" y="-267.5" font-family="Helvetica,sans-Serif" font-size="10.00">std::shared_ptr&lt; Abstract</text>
<text text-anchor="middle" x="2447.5" y="-256.5" font-family="Helvetica,sans-Serif" font-size="10.00">Writer &gt;</text>
</a>
</g>
</g>
<!-- Node2&#45;&gt;Node1 -->
<g id="edge1" class="edge">
<title>Node2&#45;&gt;Node1</title>
<path fill="none" stroke="#9a32cd" stroke-dasharray="5,2" d="M2523.4,-247.14C2553.39,-240.19 2587.62,-232.26 2616.54,-225.55"/>
<polygon fill="#9a32cd" stroke="#9a32cd" points="2522.36,-243.79 2513.4,-249.46 2523.94,-250.61 2522.36,-243.79"/>
<text text-anchor="middle" x="2565" y="-243.5" font-family="Helvetica,sans-Serif" font-size="10.00"> writer</text>
</g>
<!-- Node3 -->
<g id="node3" class="node">
<title>Node3</title>
<g id="a_node3"><a xlink:title=" ">
<polygon fill="white" stroke="#666666" points="2346,-175.5 2233,-175.5 2233,-145.5 2346,-145.5 2346,-175.5"/>
<text text-anchor="start" x="2241" y="-163.5" font-family="Helvetica,sans-Serif" font-size="10.00">std::shared_ptr&lt; kv</text>
<text text-anchor="middle" x="2289.5" y="-152.5" font-family="Helvetica,sans-Serif" font-size="10.00">::ReadOnlyTx &gt;</text>
</a>
</g>
</g>
<!-- Node3&#45;&gt;Node1 -->
<g id="edge2" class="edge">
<title>Node3&#45;&gt;Node1</title>
<path fill="none" stroke="#9a32cd" stroke-dasharray="5,2" d="M2356.29,-159.38C2404.84,-159.49 2472.37,-161.6 2531,-170.5 2566.55,-175.9 2605.78,-186.48 2635.28,-195.41"/>
<polygon fill="#9a32cd" stroke="#9a32cd" points="2356.23,-155.88 2346.23,-159.39 2356.23,-162.88 2356.23,-155.88"/>
<text text-anchor="middle" x="2447.5" y="-173.5" font-family="Helvetica,sans-Serif" font-size="10.00"> tx</text>
</g>
<!-- Node4 -->
<g id="node4" class="node">
<title>Node4</title>
<g id="a_node4"><a xlink:href="classkv_1_1ReadOnlyTx.html" target="_top" xlink:title=" ">
<polygon fill="white" stroke="#666666" points="1980,-173 1887,-173 1887,-154 1980,-154 1980,-173"/>
<text text-anchor="middle" x="1933.5" y="-161" font-family="Helvetica,sans-Serif" font-size="10.00">kv::ReadOnlyTx</text>
</a>
</g>
</g>
<!-- Node4&#45;&gt;Node3 -->
<g id="edge3" class="edge">
<title>Node4&#45;&gt;Node3</title>
<path fill="none" stroke="#9a32cd" stroke-dasharray="5,2" d="M1990.31,-163.03C2056.66,-162.46 2166.7,-161.53 2232.93,-160.97"/>
<polygon fill="#9a32cd" stroke="#9a32cd" points="1990.02,-159.53 1980.05,-163.11 1990.08,-166.53 1990.02,-159.53"/>
<text text-anchor="middle" x="2051.5" y="-165.5" font-family="Helvetica,sans-Serif" font-size="10.00"> ptr</text>
</g>
<!-- Node29 -->
<g id="node29" class="node">
<title>Node29</title>
<g id="a_node29"><a xlink:href="structccf_1_1endpoints_1_1ReadOnlyEndpointContext.html" target="_top" xlink:title=" ">
<polygon fill="white" stroke="#666666" points="2215,-225.5 2078,-225.5 2078,-195.5 2215,-195.5 2215,-225.5"/>
<text text-anchor="start" x="2086" y="-213.5" font-family="Helvetica,sans-Serif" font-size="10.00">ccf::endpoints::ReadOnly</text>
<text text-anchor="middle" x="2146.5" y="-202.5" font-family="Helvetica,sans-Serif" font-size="10.00">EndpointContext</text>
</a>
</g>
</g>
<!-- Node4&#45;&gt;Node29 -->
<g id="edge38" class="edge">
<title>Node4&#45;&gt;Node29</title>
<path fill="none" stroke="#9a32cd" stroke-dasharray="5,2" d="M1987.02,-175.2C2014.52,-181.32 2048.5,-188.89 2077.94,-195.45"/>
<polygon fill="#9a32cd" stroke="#9a32cd" points="1987.72,-171.77 1977.2,-173.01 1986.2,-178.6 1987.72,-171.77"/>
<text text-anchor="middle" x="2051.5" y="-193.5" font-family="Helvetica,sans-Serif" font-size="10.00"> tx</text>
</g>
<!-- Node5 -->
<g id="node5" class="node">
<title>Node5</title>
<g id="a_node5"><a xlink:href="classkv_1_1BaseTx.html" target="_top" xlink:title=" ">
<polygon fill="white" stroke="#666666" points="1744.5,-173 1674.5,-173 1674.5,-154 1744.5,-154 1744.5,-173"/>
<text text-anchor="middle" x="1709.5" y="-161" font-family="Helvetica,sans-Serif" font-size="10.00">kv::BaseTx</text>
</a>
</g>
</g>
<!-- Node5&#45;&gt;Node4 -->
<g id="edge4" class="edge">
<title>Node5&#45;&gt;Node4</title>
<path fill="none" stroke="#63b8ff" d="M1755.01,-163.5C1793.23,-163.5 1848.11,-163.5 1886.7,-163.5"/>
<polygon fill="#63b8ff" stroke="#63b8ff" points="1754.7,-160 1744.7,-163.5 1754.7,-167 1754.7,-160"/>
</g>
<!-- Node6 -->
<g id="node6" class="node">
<title>Node6</title>
<g id="a_node6"><a xlink:title=" ">
<polygon fill="white" stroke="#666666" points="1585,-120.5 1453,-120.5 1453,-90.5 1585,-90.5 1585,-120.5"/>
<text text-anchor="start" x="1461" y="-108.5" font-family="Helvetica,sans-Serif" font-size="10.00">std::unique_ptr&lt; kv</text>
<text text-anchor="middle" x="1519" y="-97.5" font-family="Helvetica,sans-Serif" font-size="10.00">::BaseTx::PrivateImpl &gt;</text>
</a>
</g>
</g>
<!-- Node6&#45;&gt;Node5 -->
<g id="edge5" class="edge">
<title>Node6&#45;&gt;Node5</title>
<path fill="none" stroke="#9a32cd" stroke-dasharray="5,2" d="M1578.92,-123.63C1611.53,-133.66 1650.74,-145.73 1677.43,-153.94"/>
<polygon fill="#9a32cd" stroke="#9a32cd" points="1579.62,-120.18 1569.03,-120.59 1577.56,-126.87 1579.62,-120.18"/>
<text text-anchor="middle" x="1618.5" y="-142.5" font-family="Helvetica,sans-Serif" font-size="10.00"> pimpl</text>
</g>
<!-- Node7 -->
<g id="node7" class="node">
<title>Node7</title>
<g id="a_node7"><a xlink:href="structkv_1_1BaseTx_1_1PrivateImpl.html" target="_top" xlink:title=" ">
<polygon fill="white" stroke="#666666" points="1400,-80 1268,-80 1268,-61 1400,-61 1400,-80"/>
<text text-anchor="middle" x="1334" y="-68" font-family="Helvetica,sans-Serif" font-size="10.00">kv::BaseTx::PrivateImpl</text>
</a>
</g>
</g>
<!-- Node7&#45;&gt;Node6 -->
<g id="edge6" class="edge">
<title>Node7&#45;&gt;Node6</title>
<path fill="none" stroke="#9a32cd" stroke-dasharray="5,2" d="M1395.07,-81.99C1413.6,-85.53 1434.09,-89.45 1452.93,-93.06"/>
<polygon fill="#9a32cd" stroke="#9a32cd" points="1395.49,-78.5 1385.01,-80.06 1394.17,-85.38 1395.49,-78.5"/>
<text text-anchor="middle" x="1426.5" y="-91.5" font-family="Helvetica,sans-Serif" font-size="10.00"> ptr</text>
</g>
<!-- Node8 -->
<g id="node8" class="node">
<title>Node8</title>
<g id="a_node8"><a xlink:href="classkv_1_1AbstractStore.html" target="_top" xlink:title=" ">
<polygon fill="white" stroke="#666666" points="1148,-77 1048,-77 1048,-58 1148,-58 1148,-77"/>
<text text-anchor="middle" x="1098" y="-65" font-family="Helvetica,sans-Serif" font-size="10.00">kv::AbstractStore</text>
</a>
</g>
</g>
<!-- Node8&#45;&gt;Node7 -->
<g id="edge7" class="edge">
<title>Node8&#45;&gt;Node7</title>
<path fill="none" stroke="#9a32cd" stroke-dasharray="5,2" d="M1158.12,-68.26C1191.48,-68.69 1233.24,-69.22 1267.58,-69.66"/>
<polygon fill="#9a32cd" stroke="#9a32cd" points="1158.1,-64.76 1148.05,-68.13 1158.01,-71.76 1158.1,-64.76"/>
<text text-anchor="middle" x="1213.5" y="-71.5" font-family="Helvetica,sans-Serif" font-size="10.00"> store</text>
</g>
<!-- Node9 -->
<g id="node9" class="node">
<title>Node9</title>
<g id="a_node9"><a xlink:title=" ">
<polygon fill="white" stroke="#666666" points="502.5,-38.5 380.5,-38.5 380.5,-8.5 502.5,-8.5 502.5,-38.5"/>
<text text-anchor="start" x="388.5" y="-26.5" font-family="Helvetica,sans-Serif" font-size="10.00">std::map&lt; std::string,</text>
<text text-anchor="middle" x="441.5" y="-15.5" font-family="Helvetica,sans-Serif" font-size="10.00"> PossibleHandles &gt;</text>
</a>
</g>
</g>
<!-- Node9&#45;&gt;Node7 -->
<g id="edge8" class="edge">
<title>Node9&#45;&gt;Node7</title>
<path fill="none" stroke="#9a32cd" stroke-dasharray="5,2" d="M512.65,-23.5C561.3,-23.5 627.59,-23.5 686,-23.5 686,-23.5 686,-23.5 1099,-23.5 1174.41,-23.5 1260.87,-47.26 1304.55,-60.99"/>
<polygon fill="#9a32cd" stroke="#9a32cd" points="512.54,-20 502.54,-23.5 512.54,-27 512.54,-20"/>
<text text-anchor="middle" x="881" y="-26.5" font-family="Helvetica,sans-Serif" font-size="10.00"> all_handles</text>
</g>
<!-- Node10 -->
<g id="node10" class="node">
<title>Node10</title>
<g id="a_node10"><a xlink:title=" ">
<polygon fill="white" stroke="#666666" points="262,-96 197,-96 197,-77 262,-77 262,-96"/>
<text text-anchor="middle" x="229.5" y="-84" font-family="Helvetica,sans-Serif" font-size="10.00">std::string</text>
</a>
</g>
</g>
<!-- Node10&#45;&gt;Node9 -->
<g id="edge9" class="edge">
<title>Node10&#45;&gt;Node9</title>
<path fill="none" stroke="#9a32cd" stroke-dasharray="5,2" d="M248.29,-69.91C258.99,-60.9 273.35,-50.42 288,-44.5 317.12,-32.74 351.63,-27.35 380.46,-24.96"/>
<polygon fill="#9a32cd" stroke="#9a32cd" points="245.76,-67.47 240.55,-76.7 250.38,-72.73 245.76,-67.47"/>
<text text-anchor="middle" x="312.5" y="-47.5" font-family="Helvetica,sans-Serif" font-size="10.00"> keys</text>
</g>
<!-- Node14 -->
<g id="node14" class="node">
<title>Node14</title>
<g id="a_node14"><a xlink:title=" ">
<polygon fill="white" stroke="#666666" points="1159,-136 1037,-136 1037,-95 1159,-95 1159,-136"/>
<text text-anchor="start" x="1045" y="-124" font-family="Helvetica,sans-Serif" font-size="10.00">std::map&lt; std::string,</text>
<text text-anchor="start" x="1045" y="-113" font-family="Helvetica,sans-Serif" font-size="10.00"> std::shared_ptr&lt; kv</text>
<text text-anchor="middle" x="1098" y="-102" font-family="Helvetica,sans-Serif" font-size="10.00">::AbstractMap &gt; &gt;</text>
</a>
</g>
</g>
<!-- Node10&#45;&gt;Node14 -->
<g id="edge14" class="edge">
<title>Node10&#45;&gt;Node14</title>
<path fill="none" stroke="#9a32cd" stroke-dasharray="5,2" d="M272.03,-81.15C314.34,-76.16 381.87,-69.5 440.5,-69.5 440.5,-69.5 440.5,-69.5 882,-69.5 935.06,-69.5 993.88,-83.06 1036.57,-95.46"/>
<polygon fill="#9a32cd" stroke="#9a32cd" points="271.61,-77.67 262.1,-82.34 272.45,-84.62 271.61,-77.67"/>
<text text-anchor="middle" x="687" y="-72.5" font-family="Helvetica,sans-Serif" font-size="10.00"> keys</text>
</g>
<!-- Node18 -->
<g id="node18" class="node">
<title>Node18</title>
<g id="a_node18"><a xlink:href="structkv_1_1GetName.html" target="_top" xlink:title=" ">
<polygon fill="white" stroke="#666666" points="481.5,-117 401.5,-117 401.5,-98 481.5,-98 481.5,-117"/>
<text text-anchor="middle" x="441.5" y="-105" font-family="Helvetica,sans-Serif" font-size="10.00">kv::GetName</text>
</a>
</g>
</g>
<!-- Node10&#45;&gt;Node18 -->
<g id="edge19" class="edge">
<title>Node10&#45;&gt;Node18</title>
<path fill="none" stroke="#9a32cd" stroke-dasharray="5,2" d="M272.49,-90.7C309.97,-94.45 364.47,-99.9 401.13,-103.56"/>
<polygon fill="#9a32cd" stroke="#9a32cd" points="272.69,-87.2 262.39,-89.69 272,-94.17 272.69,-87.2"/>
<text text-anchor="middle" x="312.5" y="-99.5" font-family="Helvetica,sans-Serif" font-size="10.00"> name</text>
</g>
<!-- Node19 -->
<g id="node19" class="node">
<title>Node19</title>
<g id="a_node19"><a xlink:title=" ">
<polygon fill="white" stroke="#666666" points="1395,-188.5 1273,-188.5 1273,-158.5 1395,-158.5 1395,-188.5"/>
<text text-anchor="start" x="1281" y="-176.5" font-family="Helvetica,sans-Serif" font-size="10.00">std::map&lt; std::string,</text>
<text text-anchor="middle" x="1334" y="-165.5" font-family="Helvetica,sans-Serif" font-size="10.00"> MapChanges &gt;</text>
</a>
</g>
</g>
<!-- Node10&#45;&gt;Node19 -->
<g id="edge21" class="edge">
<title>Node10&#45;&gt;Node19</title>
<path fill="none" stroke="#9a32cd" stroke-dasharray="5,2" d="M235.04,-106.16C246.56,-151.47 281.43,-263.65 355,-319.5 386,-343.04 401.57,-338.5 440.5,-338.5 440.5,-338.5 440.5,-338.5 1099,-338.5 1202.39,-338.5 1292.25,-229.57 1322.31,-188.73"/>
<polygon fill="#9a32cd" stroke="#9a32cd" points="238.42,-105.27 232.65,-96.38 231.62,-106.93 238.42,-105.27"/>
<text text-anchor="middle" x="784" y="-341.5" font-family="Helvetica,sans-Serif" font-size="10.00"> keys</text>
</g>
<!-- Node11 -->
<g id="node11" class="node">
<title>Node11</title>
<g id="a_node11"><a xlink:title=" ">
<polygon fill="white" stroke="#666666" points="104,-101.5 0,-101.5 0,-71.5 104,-71.5 104,-101.5"/>
<text text-anchor="start" x="8" y="-89.5" font-family="Helvetica,sans-Serif" font-size="10.00">std::basic_string&lt;</text>
<text text-anchor="middle" x="52" y="-78.5" font-family="Helvetica,sans-Serif" font-size="10.00"> Char &gt;</text>
</a>
</g>
</g>
<!-- Node11&#45;&gt;Node10 -->
<g id="edge10" class="edge">
<title>Node11&#45;&gt;Node10</title>
<path fill="none" stroke="#63b8ff" d="M114.28,-86.5C142.11,-86.5 173.85,-86.5 196.8,-86.5"/>
<polygon fill="#63b8ff" stroke="#63b8ff" points="114.23,-83 104.23,-86.5 114.23,-90 114.23,-83"/>
</g>
<!-- Node12 -->
<g id="node12" class="node">
<title>Node12</title>
<g id="a_node12"><a xlink:title=" ">
<polygon fill="white" stroke="#666666" points="270,-19 189,-19 189,0 270,0 270,-19"/>
<text text-anchor="middle" x="229.5" y="-7" font-family="Helvetica,sans-Serif" font-size="10.00">std::list&lt; T &gt;</text>
</a>
</g>
</g>
<!-- Node12&#45;&gt;Node9 -->
<g id="edge11" class="edge">
<title>Node12&#45;&gt;Node9</title>
<path fill="none" stroke="#9a32cd" stroke-dasharray="5,2" d="M280.45,-8.78C298.31,-8.84 318.57,-9.26 337,-10.5 351.09,-11.45 366.21,-13.03 380.41,-14.76"/>
<polygon fill="#9a32cd" stroke="#9a32cd" points="280.24,-5.28 270.24,-8.78 280.24,-12.28 280.24,-5.28"/>
<text text-anchor="middle" x="312.5" y="-13.5" font-family="Helvetica,sans-Serif" font-size="10.00"> elements</text>
</g>
<!-- Node13 -->
<g id="node13" class="node">
<title>Node13</title>
<g id="a_node13"><a xlink:title=" ">
<polygon fill="white" stroke="#666666" points="66.5,-19 37.5,-19 37.5,0 66.5,0 66.5,-19"/>
<text text-anchor="middle" x="52" y="-7" font-family="Helvetica,sans-Serif" font-size="10.00">T</text>
</a>
</g>
</g>
<!-- Node13&#45;&gt;Node12 -->
<g id="edge12" class="edge">
<title>Node13&#45;&gt;Node12</title>
<path fill="none" stroke="#9a32cd" stroke-dasharray="5,2" d="M77.13,-9.5C105.96,-9.5 154.61,-9.5 188.96,-9.5"/>
<polygon fill="#9a32cd" stroke="#9a32cd" points="76.77,-6 66.77,-9.5 76.77,-13 76.77,-6"/>
<text text-anchor="middle" x="146.5" y="-12.5" font-family="Helvetica,sans-Serif" font-size="10.00"> elements</text>
</g>
<!-- Node14&#45;&gt;Node7 -->
<g id="edge13" class="edge">
<title>Node14&#45;&gt;Node7</title>
<path fill="none" stroke="#9a32cd" stroke-dasharray="5,2" d="M1169.44,-101.95C1206.26,-94.87 1250.43,-86.38 1283.59,-80"/>
<polygon fill="#9a32cd" stroke="#9a32cd" points="1168.42,-98.59 1159.26,-103.91 1169.74,-105.46 1168.42,-98.59"/>
<text text-anchor="middle" x="1213.5" y="-102.5" font-family="Helvetica,sans-Serif" font-size="10.00"> created_maps</text>
</g>
<!-- Node15 -->
<g id="node15" class="node">
<title>Node15</title>
<g id="a_node15"><a xlink:title=" ">
<polygon fill="white" stroke="#666666" points="937.5,-159.5 824.5,-159.5 824.5,-129.5 937.5,-129.5 937.5,-159.5"/>
<text text-anchor="start" x="832.5" y="-147.5" font-family="Helvetica,sans-Serif" font-size="10.00">std::shared_ptr&lt; kv</text>
<text text-anchor="middle" x="881" y="-136.5" font-family="Helvetica,sans-Serif" font-size="10.00">::AbstractMap &gt;</text>
</a>
</g>
</g>
<!-- Node15&#45;&gt;Node14 -->
<g id="edge15" class="edge">
<title>Node15&#45;&gt;Node14</title>
<path fill="none" stroke="#9a32cd" stroke-dasharray="5,2" d="M948.06,-133.94C953.78,-133.09 959.49,-132.26 965,-131.5 988.44,-128.25 1014.27,-125.03 1036.82,-122.35"/>
<polygon fill="#9a32cd" stroke="#9a32cd" points="947.13,-130.54 937.77,-135.49 948.18,-137.46 947.13,-130.54"/>
<text text-anchor="middle" x="992" y="-134.5" font-family="Helvetica,sans-Serif" font-size="10.00"> elements</text>
</g>
<!-- Node20 -->
<g id="node20" class="node">
<title>Node20</title>
<g id="a_node20"><a xlink:href="structkv_1_1MapChanges.html" target="_top" xlink:title=" ">
<polygon fill="white" stroke="#666666" points="1146.5,-183 1049.5,-183 1049.5,-164 1146.5,-164 1146.5,-183"/>
<text text-anchor="middle" x="1098" y="-171" font-family="Helvetica,sans-Serif" font-size="10.00">kv::MapChanges</text>
</a>
</g>
</g>
<!-- Node15&#45;&gt;Node20 -->
<g id="edge23" class="edge">
<title>Node15&#45;&gt;Node20</title>
<path fill="none" stroke="#9a32cd" stroke-dasharray="5,2" d="M947.61,-153.35C980.39,-157.77 1019.34,-163.02 1049.24,-167.06"/>
<polygon fill="#9a32cd" stroke="#9a32cd" points="948.03,-149.87 937.65,-152.01 947.09,-156.81 948.03,-149.87"/>
<text text-anchor="middle" x="992" y="-164.5" font-family="Helvetica,sans-Serif" font-size="10.00"> map</text>
</g>
<!-- Node16 -->
<g id="node16" class="node">
<title>Node16</title>
<g id="a_node16"><a xlink:href="classkv_1_1AbstractMap.html" target="_top" xlink:title=" ">
<polygon fill="white" stroke="#666666" points="734.5,-154 639.5,-154 639.5,-135 734.5,-135 734.5,-154"/>
<text text-anchor="middle" x="687" y="-142" font-family="Helvetica,sans-Serif" font-size="10.00">kv::AbstractMap</text>
</a>
</g>
</g>
<!-- Node16&#45;&gt;Node15 -->
<g id="edge16" class="edge">
<title>Node16&#45;&gt;Node15</title>
<path fill="none" stroke="#9a32cd" stroke-dasharray="5,2" d="M745.06,-144.5C770.11,-144.5 799.41,-144.5 824.31,-144.5"/>
<polygon fill="#9a32cd" stroke="#9a32cd" points="744.97,-141 734.97,-144.5 744.97,-148 744.97,-141"/>
<text text-anchor="middle" x="784" y="-147.5" font-family="Helvetica,sans-Serif" font-size="10.00"> ptr</text>
</g>
<!-- Node17 -->
<g id="node17" class="node">
<title>Node17</title>
<g id="a_node17"><a xlink:title=" ">
<polygon fill="white" stroke="#666666" points="517.5,-165.5 365.5,-165.5 365.5,-135.5 517.5,-135.5 517.5,-165.5"/>
<text text-anchor="start" x="373.5" y="-153.5" font-family="Helvetica,sans-Serif" font-size="10.00">std::enable_shared</text>
<text text-anchor="middle" x="441.5" y="-142.5" font-family="Helvetica,sans-Serif" font-size="10.00">_from_this&lt; AbstractMap &gt;</text>
</a>
</g>
</g>
<!-- Node17&#45;&gt;Node16 -->
<g id="edge17" class="edge">
<title>Node17&#45;&gt;Node16</title>
<path fill="none" stroke="#63b8ff" d="M527.94,-148.39C565.3,-147.47 607.68,-146.43 639.15,-145.65"/>
<polygon fill="#63b8ff" stroke="#63b8ff" points="527.46,-144.91 517.54,-148.65 527.63,-151.9 527.46,-144.91"/>
</g>
<!-- Node18&#45;&gt;Node16 -->
<g id="edge18" class="edge">
<title>Node18&#45;&gt;Node16</title>
<path fill="none" stroke="#63b8ff" d="M491.61,-114.96C534.77,-121.52 597.12,-130.99 639.48,-137.43"/>
<polygon fill="#63b8ff" stroke="#63b8ff" points="492.03,-111.49 481.62,-113.44 490.98,-118.41 492.03,-111.49"/>
</g>
<!-- Node19&#45;&gt;Node5 -->
<g id="edge20" class="edge">
<title>Node19&#45;&gt;Node5</title>
<path fill="none" stroke="#9a32cd" stroke-dasharray="5,2" d="M1405.03,-171.62C1485.29,-169.48 1613.54,-166.04 1674.36,-164.41"/>
<polygon fill="#9a32cd" stroke="#9a32cd" points="1404.91,-168.13 1395.01,-171.89 1405.1,-175.12 1404.91,-168.13"/>
<text text-anchor="middle" x="1519" y="-172.5" font-family="Helvetica,sans-Serif" font-size="10.00"> all_changes</text>
</g>
<!-- Node20&#45;&gt;Node19 -->
<g id="edge22" class="edge">
<title>Node20&#45;&gt;Node19</title>
<path fill="none" stroke="#9a32cd" stroke-dasharray="5,2" d="M1156.79,-173.5C1192.11,-173.5 1237.2,-173.5 1272.93,-173.5"/>
<polygon fill="#9a32cd" stroke="#9a32cd" points="1156.64,-170 1146.64,-173.5 1156.64,-177 1156.64,-170"/>
<text text-anchor="middle" x="1213.5" y="-176.5" font-family="Helvetica,sans-Serif" font-size="10.00"> elements</text>
</g>
<!-- Node21 -->
<g id="node21" class="node">
<title>Node21</title>
<g id="a_node21"><a xlink:title=" ">
<polygon fill="white" stroke="#666666" points="947,-223.5 815,-223.5 815,-193.5 947,-193.5 947,-223.5"/>
<text text-anchor="start" x="823" y="-211.5" font-family="Helvetica,sans-Serif" font-size="10.00">std::unique_ptr&lt; kv</text>
<text text-anchor="middle" x="881" y="-200.5" font-family="Helvetica,sans-Serif" font-size="10.00">::untyped::ChangeSet &gt;</text>
</a>
</g>
</g>
<!-- Node21&#45;&gt;Node20 -->
<g id="edge24" class="edge">
<title>Node21&#45;&gt;Node20</title>
<path fill="none" stroke="#9a32cd" stroke-dasharray="5,2" d="M957.29,-196.24C987.83,-191.27 1022.2,-185.68 1049.2,-181.28"/>
<polygon fill="#9a32cd" stroke="#9a32cd" points="956.4,-192.84 947.09,-197.9 957.52,-199.75 956.4,-192.84"/>
<text text-anchor="middle" x="992" y="-196.5" font-family="Helvetica,sans-Serif" font-size="10.00"> changeset</text>
</g>
<!-- Node22 -->
<g id="node22" class="node">
<title>Node22</title>
<g id="a_node22"><a xlink:href="structkv_1_1untyped_1_1ChangeSet.html" target="_top" xlink:title=" ">
<polygon fill="white" stroke="#666666" points="753,-240 621,-240 621,-221 753,-221 753,-240"/>
<text text-anchor="middle" x="687" y="-228" font-family="Helvetica,sans-Serif" font-size="10.00">kv::untyped::ChangeSet</text>
</a>
</g>
</g>
<!-- Node22&#45;&gt;Node21 -->
<g id="edge25" class="edge">
<title>Node22&#45;&gt;Node21</title>
<path fill="none" stroke="#9a32cd" stroke-dasharray="5,2" d="M762.94,-221.91C780.04,-219.95 798.08,-217.89 814.74,-215.98"/>
<polygon fill="#9a32cd" stroke="#9a32cd" points="762.54,-218.44 753,-223.05 763.34,-225.39 762.54,-218.44"/>
<text text-anchor="middle" x="784" y="-223.5" font-family="Helvetica,sans-Serif" font-size="10.00"> ptr</text>
</g>
<!-- Node23 -->
<g id="node23" class="node">
<title>Node23</title>
<g id="a_node23"><a xlink:href="classkv_1_1AbstractChangeSet.html" target="_top" xlink:title=" ">
<polygon fill="white" stroke="#666666" points="505,-240 378,-240 378,-221 505,-221 505,-240"/>
<text text-anchor="middle" x="441.5" y="-228" font-family="Helvetica,sans-Serif" font-size="10.00">kv::AbstractChangeSet</text>
</a>
</g>
</g>
<!-- Node23&#45;&gt;Node22 -->
<g id="edge26" class="edge">
<title>Node23&#45;&gt;Node22</title>
<path fill="none" stroke="#63b8ff" d="M515.41,-230.5C548.96,-230.5 588.43,-230.5 620.96,-230.5"/>
<polygon fill="#63b8ff" stroke="#63b8ff" points="515.21,-227 505.21,-230.5 515.21,-234 515.21,-227"/>
</g>
<!-- Node24 -->
<g id="node24" class="node">
<title>Node24</title>
<g id="a_node24"><a xlink:href="classchamp_1_1Map.html" target="_top" xlink:title=" ">
<polygon fill="white" stroke="#666666" points="507.5,-203 375.5,-203 375.5,-184 507.5,-184 507.5,-203"/>
<text text-anchor="middle" x="441.5" y="-191" font-family="Helvetica,sans-Serif" font-size="10.00">champ::Map&lt; K, V, H &gt;</text>
</a>
</g>
</g>
<!-- Node24&#45;&gt;Node22 -->
<g id="edge27" class="edge">
<title>Node24&#45;&gt;Node22</title>
<path fill="none" stroke="#9a32cd" stroke-dasharray="5,2" d="M517.92,-195.01C544.94,-196.52 575.5,-199.32 603,-204.5 622.89,-208.24 644.69,-215.19 660.96,-220.96"/>
<polygon fill="#9a32cd" stroke="#9a32cd" points="517.92,-191.51 507.76,-194.5 517.57,-198.5 517.92,-191.51"/>
<text text-anchor="middle" x="574.5" y="-218.5" font-family="Helvetica,sans-Serif" font-size="10.00"> committed</text>
<text text-anchor="middle" x="574.5" y="-207.5" font-family="Helvetica,sans-Serif" font-size="10.00">state</text>
</g>
<!-- Node25 -->
<g id="node25" class="node">
<title>Node25</title>
<g id="a_node25"><a xlink:title=" ">
<polygon fill="white" stroke="#666666" points="528,-396.5 355,-396.5 355,-366.5 528,-366.5 528,-396.5"/>
<text text-anchor="start" x="363" y="-384.5" font-family="Helvetica,sans-Serif" font-size="10.00">std::map&lt; K, std::tuple</text>
<text text-anchor="middle" x="441.5" y="-373.5" font-family="Helvetica,sans-Serif" font-size="10.00">&lt; Version, LastReadVersion &gt; &gt;</text>
</a>
</g>
</g>
<!-- Node25&#45;&gt;Node22 -->
<g id="edge28" class="edge">
<title>Node25&#45;&gt;Node22</title>
<path fill="none" stroke="#9a32cd" stroke-dasharray="5,2" d="M475.45,-361.07C528.64,-328.08 631.42,-264.35 670.45,-240.14"/>
<polygon fill="#9a32cd" stroke="#9a32cd" points="473.39,-358.22 466.74,-366.47 477.08,-364.17 473.39,-358.22"/>
<text text-anchor="middle" x="574.5" y="-317.5" font-family="Helvetica,sans-Serif" font-size="10.00"> reads</text>
</g>
<!-- Node26 -->
<g id="node26" class="node">
<title>Node26</title>
<g id="a_node26"><a xlink:title=" ">
<polygon fill="white" stroke="#666666" points="244,-391 215,-391 215,-372 244,-372 244,-391"/>
<text text-anchor="middle" x="229.5" y="-379" font-family="Helvetica,sans-Serif" font-size="10.00">K</text>
</a>
</g>
</g>
<!-- Node26&#45;&gt;Node25 -->
<g id="edge29" class="edge">
<title>Node26&#45;&gt;Node25</title>
<path fill="none" stroke="#9a32cd" stroke-dasharray="5,2" d="M254.41,-381.5C278.92,-381.5 318.47,-381.5 354.82,-381.5"/>
<polygon fill="#9a32cd" stroke="#9a32cd" points="254.28,-378 244.28,-381.5 254.28,-385 254.28,-378"/>
<text text-anchor="middle" x="312.5" y="-384.5" font-family="Helvetica,sans-Serif" font-size="10.00"> keys</text>
</g>
<!-- Node27 -->
<g id="node27" class="node">
<title>Node27</title>
<g id="a_node27"><a xlink:title=" ">
<polygon fill="white" stroke="#666666" points="512,-310.5 371,-310.5 371,-258.5 512,-258.5 512,-310.5"/>
<text text-anchor="start" x="379" y="-298.5" font-family="Helvetica,sans-Serif" font-size="10.00">std::map&lt; kv::serialisers</text>
<text text-anchor="start" x="379" y="-287.5" font-family="Helvetica,sans-Serif" font-size="10.00">::SerialisedEntry, std</text>
<text text-anchor="start" x="379" y="-276.5" font-family="Helvetica,sans-Serif" font-size="10.00">::optional&lt; kv::serialisers</text>
<text text-anchor="middle" x="441.5" y="-265.5" font-family="Helvetica,sans-Serif" font-size="10.00">::SerialisedEntry &gt; &gt;</text>
</a>
</g>
</g>
<!-- Node27&#45;&gt;Node22 -->
<g id="edge30" class="edge">
<title>Node27&#45;&gt;Node22</title>
<path fill="none" stroke="#9a32cd" stroke-dasharray="5,2" d="M522.08,-266.85C562.33,-257.93 609.59,-247.45 643,-240.04"/>
<polygon fill="#9a32cd" stroke="#9a32cd" points="521.28,-263.44 512.28,-269.03 522.8,-270.28 521.28,-263.44"/>
<text text-anchor="middle" x="574.5" y="-263.5" font-family="Helvetica,sans-Serif" font-size="10.00"> writes</text>
</g>
<!-- Node28 -->
<g id="node28" class="node">
<title>Node28</title>
<g id="a_node28"><a xlink:title=" ">
<polygon fill="white" stroke="#666666" points="2531,-231 2364,-231 2364,-190 2531,-190 2531,-231"/>
<text text-anchor="start" x="2372" y="-219" font-family="Helvetica,sans-Serif" font-size="10.00">std::shared_ptr&lt; ccf</text>
<text text-anchor="start" x="2372" y="-208" font-family="Helvetica,sans-Serif" font-size="10.00">::endpoints::ReadOnlyEndpoint</text>
<text text-anchor="middle" x="2447.5" y="-197" font-family="Helvetica,sans-Serif" font-size="10.00">Context &gt;</text>
</a>
</g>
</g>
<!-- Node28&#45;&gt;Node1 -->
<g id="edge31" class="edge">
<title>Node28&#45;&gt;Node1</title>
<path fill="none" stroke="#9a32cd" stroke-dasharray="5,2" d="M2541.46,-210.5C2560.47,-210.5 2580.35,-210.5 2598.96,-210.5"/>
<polygon fill="#9a32cd" stroke="#9a32cd" points="2541.3,-207 2531.3,-210.5 2541.3,-214 2541.3,-207"/>
<text text-anchor="middle" x="2565" y="-213.5" font-family="Helvetica,sans-Serif" font-size="10.00"> ctx</text>
</g>
<!-- Node29&#45;&gt;Node28 -->
<g id="edge32" class="edge">
<title>Node29&#45;&gt;Node28</title>
<path fill="none" stroke="#9a32cd" stroke-dasharray="5,2" d="M2225.36,-210.5C2267.87,-210.5 2320.49,-210.5 2363.73,-210.5"/>
<polygon fill="#9a32cd" stroke="#9a32cd" points="2225.35,-207 2215.35,-210.5 2225.35,-214 2225.35,-207"/>
<text text-anchor="middle" x="2289.5" y="-213.5" font-family="Helvetica,sans-Serif" font-size="10.00"> ptr</text>
</g>
<!-- Node30 -->
<g id="node30" class="node">
<title>Node30</title>
<g id="a_node30"><a xlink:href="structccf_1_1endpoints_1_1CommandEndpointContext.html" target="_top" xlink:title=" ">
<polygon fill="white" stroke="#666666" points="2025,-235.5 1842,-235.5 1842,-205.5 2025,-205.5 2025,-235.5"/>
<text text-anchor="start" x="1850" y="-223.5" font-family="Helvetica,sans-Serif" font-size="10.00">ccf::endpoints::CommandEndpoint</text>
<text text-anchor="middle" x="1933.5" y="-212.5" font-family="Helvetica,sans-Serif" font-size="10.00">Context</text>
</a>
</g>
</g>
<!-- Node30&#45;&gt;Node29 -->
<g id="edge33" class="edge">
<title>Node30&#45;&gt;Node29</title>
<path fill="none" stroke="#63b8ff" d="M2035.6,-215.71C2049.91,-215.03 2064.34,-214.35 2077.81,-213.71"/>
<polygon fill="#63b8ff" stroke="#63b8ff" points="2035.03,-212.23 2025.21,-216.2 2035.36,-219.22 2035.03,-212.23"/>
</g>
<!-- Node31 -->
<g id="node31" class="node">
<title>Node31</title>
<g id="a_node31"><a xlink:title=" ">
<polygon fill="white" stroke="#666666" points="1767,-225.5 1652,-225.5 1652,-195.5 1767,-195.5 1767,-225.5"/>
<text text-anchor="start" x="1660" y="-213.5" font-family="Helvetica,sans-Serif" font-size="10.00">std::shared_ptr&lt; ccf</text>
<text text-anchor="middle" x="1709.5" y="-202.5" font-family="Helvetica,sans-Serif" font-size="10.00">::RpcContext &gt;</text>
</a>
</g>
</g>
<!-- Node31&#45;&gt;Node30 -->
<g id="edge34" class="edge">
<title>Node31&#45;&gt;Node30</title>
<path fill="none" stroke="#9a32cd" stroke-dasharray="5,2" d="M1777.19,-213.5C1797.54,-214.42 1820.28,-215.44 1841.93,-216.42"/>
<polygon fill="#9a32cd" stroke="#9a32cd" points="1777.24,-210 1767.09,-213.05 1776.93,-217 1777.24,-210"/>
<text text-anchor="middle" x="1804.5" y="-218.5" font-family="Helvetica,sans-Serif" font-size="10.00"> rpc_ctx</text>
</g>
<!-- Node32 -->
<g id="node32" class="node">
<title>Node32</title>
<g id="a_node32"><a xlink:href="classccf_1_1RpcContext.html" target="_top" xlink:title="Describes the currently executing RPC.">
<polygon fill="white" stroke="#666666" points="1565,-220 1473,-220 1473,-201 1565,-201 1565,-220"/>
<text text-anchor="middle" x="1519" y="-208" font-family="Helvetica,sans-Serif" font-size="10.00">ccf::RpcContext</text>
</a>
</g>
</g>
<!-- Node32&#45;&gt;Node31 -->
<g id="edge35" class="edge">
<title>Node32&#45;&gt;Node31</title>
<path fill="none" stroke="#9a32cd" stroke-dasharray="5,2" d="M1575.21,-210.5C1599.34,-210.5 1627.62,-210.5 1651.9,-210.5"/>
<polygon fill="#9a32cd" stroke="#9a32cd" points="1575.15,-207 1565.15,-210.5 1575.15,-214 1575.15,-207"/>
<text text-anchor="middle" x="1618.5" y="-213.5" font-family="Helvetica,sans-Serif" font-size="10.00"> ptr</text>
</g>
<!-- Node33 -->
<g id="node33" class="node">
<title>Node33</title>
<g id="a_node33"><a xlink:title=" ">
<polygon fill="white" stroke="#666666" points="1767,-273.5 1652,-273.5 1652,-243.5 1767,-243.5 1767,-273.5"/>
<text text-anchor="start" x="1660" y="-261.5" font-family="Helvetica,sans-Serif" font-size="10.00">std::unique_ptr&lt; ccf</text>
<text text-anchor="middle" x="1709.5" y="-250.5" font-family="Helvetica,sans-Serif" font-size="10.00">::AuthnIdentity &gt;</text>
</a>
</g>
</g>
<!-- Node33&#45;&gt;Node30 -->
<g id="edge36" class="edge">
<title>Node33&#45;&gt;Node30</title>
<path fill="none" stroke="#9a32cd" stroke-dasharray="5,2" d="M1776.96,-247.12C1798.18,-243.49 1822,-239.41 1844.5,-235.56"/>
<polygon fill="#9a32cd" stroke="#9a32cd" points="1776.36,-243.68 1767.09,-248.81 1777.54,-250.58 1776.36,-243.68"/>
<text text-anchor="middle" x="1804.5" y="-247.5" font-family="Helvetica,sans-Serif" font-size="10.00"> caller</text>
</g>
<!-- Node34 -->
<g id="node34" class="node">
<title>Node34</title>
<g id="a_node34"><a xlink:href="structccf_1_1AuthnIdentity.html" target="_top" xlink:title=" ">
<polygon fill="white" stroke="#666666" points="1570,-268 1468,-268 1468,-249 1570,-249 1570,-268"/>
<text text-anchor="middle" x="1519" y="-256" font-family="Helvetica,sans-Serif" font-size="10.00">ccf::AuthnIdentity</text>
</a>
</g>
</g>
<!-- Node34&#45;&gt;Node33 -->
<g id="edge37" class="edge">
<title>Node34&#45;&gt;Node33</title>
<path fill="none" stroke="#9a32cd" stroke-dasharray="5,2" d="M1580.32,-258.5C1603.27,-258.5 1629.32,-258.5 1651.92,-258.5"/>
<polygon fill="#9a32cd" stroke="#9a32cd" points="1580.02,-255 1570.02,-258.5 1580.02,-262 1580.02,-255"/>
<text text-anchor="middle" x="1618.5" y="-261.5" font-family="Helvetica,sans-Serif" font-size="10.00"> ptr</text>
</g>
</g>
</svg>
        <g id="navigator" transform="translate(0 0)" fill="#404254">
                <rect fill="#f2f5e9" fill-opacity="0.5" stroke="#606060" stroke-width=".5" x="0" y="0" width="60" height="60"/>
                <use id="zoomplus" xlink:href="#zoomPlus" x="17" y="9" onmousedown="handleZoom(evt,'in')"/>
                <use id="zoomminus" xlink:href="#zoomMin" x="42" y="9" onmousedown="handleZoom(evt,'out')"/>
                <use id="reset" xlink:href="#resetDef" x="30" y="36" onmousedown="handleReset()"/>
                <g id="arrowUp" xlink:href="#dirArrow" transform="translate(30 24)" onmousedown="handlePan(0,-1)">
                  <use xlink:href="#rim" fill="#404040">
                        <set attributeName="fill" to="#808080" begin="arrowUp.mouseover" end="arrowUp.mouseout"/>
                  </use>
                  <path fill="none" stroke="white" stroke-width="1.5" d="M0,-3.0v7 M-2.5,-0.5L0,-3.0L2.5,-0.5"/>
                </g>
                <g id="arrowRight" xlink:href="#dirArrow" transform="rotate(90) translate(36 -43)" onmousedown="handlePan(1,0)">
                  <use xlink:href="#rim" fill="#404040">
                        <set attributeName="fill" to="#808080" begin="arrowRight.mouseover" end="arrowRight.mouseout"/>
                  </use>
                  <path fill="none" stroke="white" stroke-width="1.5" d="M0,-3.0v7 M-2.5,-0.5L0,-3.0L2.5,-0.5"/>
                </g>
                <g id="arrowDown" xlink:href="#dirArrow" transform="rotate(180) translate(-30 -48)" onmousedown="handlePan(0,1)">
                  <use xlink:href="#rim" fill="#404040">
                        <set attributeName="fill" to="#808080" begin="arrowDown.mouseover" end="arrowDown.mouseout"/>
                  </use>
                  <path fill="none" stroke="white" stroke-width="1.5" d="M0,-3.0v7 M-2.5,-0.5L0,-3.0L2.5,-0.5"/>
                </g>
                <g id="arrowLeft" xlink:href="#dirArrow" transform="rotate(270) translate(-36 17)" onmousedown="handlePan(-1,0)">
                  <use xlink:href="#rim" fill="#404040">
                        <set attributeName="fill" to="#808080" begin="arrowLeft.mouseover" end="arrowLeft.mouseout"/>
                  </use>
                  <path fill="none" stroke="white" stroke-width="1.5" d="M0,-3.0v7 M-2.5,-0.5L0,-3.0L2.5,-0.5"/>
                </g>
        </g>
        <svg viewBox="0 0 15 15" width="100%" height="30px" preserveAspectRatio="xMaxYMin meet">
         <g id="arrow_out" transform="scale(0.3 0.3)">
          <a xlink:href="structccf_1_1CustomProtocolSubsystemInterface_1_1Essentials__coll__graph_org.svg" target="_base">
           <rect id="button" ry="5" rx="5" y="6" x="6" height="38" width="38"
                fill="#f2f5e9" fill-opacity="0.5" stroke="#606060" stroke-width="1.0"/>
           <path id="arrow"
             d="M 11.500037,31.436501 C 11.940474,20.09759 22.043105,11.32322 32.158766,21.979434 L 37.068811,17.246167 C 37.068811,17.246167 37.088388,32 37.088388,32 L 22.160133,31.978069 C 22.160133,31.978069 26.997745,27.140456 26.997745,27.140456 C 18.528582,18.264221 13.291696,25.230495 11.500037,31.436501 z"
             style="fill:#404040;"/>
          </a>
         </g>
        </svg>
</svg>
