<?xml version="1.0" encoding="UTF-8" standalone="no"?>
<!DOCTYPE svg PUBLIC "-//W3C//DTD SVG 1.1//EN"
 "http://www.w3.org/Graphics/SVG/1.1/DTD/svg11.dtd">
<!-- Generated by graphviz version 2.43.0 (0)
 -->
<!-- Title: include/ccf/tx_status.h Pages: 1 -->
<svg width="2939pt" height="533pt"
 viewBox="0.00 0.00 2939.00 533.00" xmlns="http://www.w3.org/2000/svg" xmlns:xlink="http://www.w3.org/1999/xlink">
<g id="graph0" class="graph" transform="scale(1 1) rotate(0) translate(4 529)">
<title>include/ccf/tx_status.h</title>
<!-- Node1 -->
<g id="node1" class="node">
<title>Node1</title>
<g id="a_node1"><a xlink:title=" ">
<polygon fill="#999999" stroke="#666666" points="1507,-525 1381,-525 1381,-506 1507,-506 1507,-525"/>
<text text-anchor="middle" x="1444" y="-513" font-family="Helvetica,sans-Serif" font-size="10.00">include/ccf/tx_status.h</text>
</a>
</g>
</g>
<!-- Node2 -->
<g id="node2" class="node">
<title>Node2</title>
<g id="a_node2"><a xlink:href="base__endpoint__registry_8h.html" target="_top" xlink:title=" ">
<polygon fill="white" stroke="#666666" points="1515.5,-470 1372.5,-470 1372.5,-440 1515.5,-440 1515.5,-470"/>
<text text-anchor="start" x="1380.5" y="-458" font-family="Helvetica,sans-Serif" font-size="10.00">include/ccf/base_endpoint</text>
<text text-anchor="middle" x="1444" y="-447" font-family="Helvetica,sans-Serif" font-size="10.00">_registry.h</text>
</a>
</g>
</g>
<!-- Node1&#45;&gt;Node2 -->
<g id="edge1" class="edge">
<title>Node1&#45;&gt;Node2</title>
<path fill="none" stroke="#63b8ff" d="M1444,-495.65C1444,-487.36 1444,-477.78 1444,-470.11"/>
<polygon fill="#63b8ff" stroke="#63b8ff" points="1440.5,-495.87 1444,-505.87 1447.5,-495.87 1440.5,-495.87"/>
</g>
<!-- Node36 -->
<g id="node36" class="node">
<title>Node36</title>
<g id="a_node36"><a xlink:href="historical__queries__adapter_8h.html" target="_top" xlink:title=" ">
<polygon fill="white" stroke="#666666" points="468.5,-404 351.5,-404 351.5,-374 468.5,-374 468.5,-404"/>
<text text-anchor="start" x="359.5" y="-392" font-family="Helvetica,sans-Serif" font-size="10.00">include/ccf/historical</text>
<text text-anchor="middle" x="410" y="-381" font-family="Helvetica,sans-Serif" font-size="10.00">_queries_adapter.h</text>
</a>
</g>
</g>
<!-- Node1&#45;&gt;Node36 -->
<g id="edge57" class="edge">
<title>Node1&#45;&gt;Node36</title>
<path fill="none" stroke="#63b8ff" d="M1370.62,-513.69C1244.24,-511.41 977.62,-502.78 755,-470 648.09,-454.26 525.37,-422.43 458.94,-404.02"/>
<polygon fill="#63b8ff" stroke="#63b8ff" points="1370.88,-517.19 1380.94,-513.86 1371,-510.19 1370.88,-517.19"/>
</g>
<!-- Node40 -->
<g id="node40" class="node">
<title>Node40</title>
<g id="a_node40"><a xlink:href="state_8h.html" target="_top" xlink:title=" ">
<polygon fill="white" stroke="#666666" points="1885.5,-470 1760.5,-470 1760.5,-440 1885.5,-440 1885.5,-470"/>
<text text-anchor="start" x="1768.5" y="-458" font-family="Helvetica,sans-Serif" font-size="10.00">src/consensus/aft/impl</text>
<text text-anchor="middle" x="1823" y="-447" font-family="Helvetica,sans-Serif" font-size="10.00">/state.h</text>
</a>
</g>
</g>
<!-- Node1&#45;&gt;Node40 -->
<g id="edge66" class="edge">
<title>Node1&#45;&gt;Node40</title>
<path fill="none" stroke="#63b8ff" d="M1509.18,-504.44C1579.55,-493.58 1690.84,-476.4 1760.25,-465.69"/>
<polygon fill="#63b8ff" stroke="#63b8ff" points="1508.46,-501.01 1499.11,-505.99 1509.53,-507.93 1508.46,-501.01"/>
</g>
<!-- Node41 -->
<g id="node41" class="node">
<title>Node41</title>
<g id="a_node41"><a xlink:href="raft_8h.html" target="_top" xlink:title=" ">
<polygon fill="white" stroke="#666666" points="2205.5,-398.5 2076.5,-398.5 2076.5,-379.5 2205.5,-379.5 2205.5,-398.5"/>
<text text-anchor="middle" x="2141" y="-386.5" font-family="Helvetica,sans-Serif" font-size="10.00">src/consensus/aft/raft.h</text>
</a>
</g>
</g>
<!-- Node1&#45;&gt;Node41 -->
<g id="edge69" class="edge">
<title>Node1&#45;&gt;Node41</title>
<path fill="none" stroke="#63b8ff" d="M1517.11,-512.14C1606.93,-508.12 1763.57,-497.52 1895,-470 1980.5,-452.1 2078.08,-415.22 2120.03,-398.53"/>
<polygon fill="#63b8ff" stroke="#63b8ff" points="1516.87,-508.64 1507.03,-512.57 1517.17,-515.64 1516.87,-508.64"/>
</g>
<!-- Node42 -->
<g id="node42" class="node">
<title>Node42</title>
<g id="a_node42"><a xlink:href="call__types_8h.html" target="_top" xlink:title=" ">
<polygon fill="white" stroke="#666666" points="901.5,-464.5 764.5,-464.5 764.5,-445.5 901.5,-445.5 901.5,-464.5"/>
<text text-anchor="middle" x="833" y="-452.5" font-family="Helvetica,sans-Serif" font-size="10.00">src/node/rpc/call_types.h</text>
</a>
</g>
</g>
<!-- Node1&#45;&gt;Node42 -->
<g id="edge70" class="edge">
<title>Node1&#45;&gt;Node42</title>
<path fill="none" stroke="#63b8ff" d="M1370.8,-507.49C1251.78,-496.1 1017.91,-473.7 901.79,-462.59"/>
<polygon fill="#63b8ff" stroke="#63b8ff" points="1370.63,-510.99 1380.91,-508.46 1371.29,-504.02 1370.63,-510.99"/>
</g>
<!-- Node3 -->
<g id="node3" class="node">
<title>Node3</title>
<g id="a_node3"><a xlink:href="common__endpoint__registry_8h.html" target="_top" xlink:title=" ">
<polygon fill="white" stroke="#666666" points="1040.5,-404 925.5,-404 925.5,-374 1040.5,-374 1040.5,-404"/>
<text text-anchor="start" x="933.5" y="-392" font-family="Helvetica,sans-Serif" font-size="10.00">include/ccf/common</text>
<text text-anchor="middle" x="983" y="-381" font-family="Helvetica,sans-Serif" font-size="10.00">_endpoint_registry.h</text>
</a>
</g>
</g>
<!-- Node2&#45;&gt;Node3 -->
<g id="edge2" class="edge">
<title>Node2&#45;&gt;Node3</title>
<path fill="none" stroke="#63b8ff" d="M1362.33,-442.66C1269.98,-429.84 1121.96,-409.29 1040.82,-398.03"/>
<polygon fill="#63b8ff" stroke="#63b8ff" points="1362.09,-446.16 1372.47,-444.07 1363.05,-439.23 1362.09,-446.16"/>
</g>
<!-- Node7 -->
<g id="node7" class="node">
<title>Node7</title>
<g id="a_node7"><a xlink:href="nobuiltins_8cpp.html" target="_top" xlink:title=" ">
<polygon fill="white" stroke="#666666" points="491.5,-272 356.5,-272 356.5,-242 491.5,-242 491.5,-272"/>
<text text-anchor="start" x="364.5" y="-260" font-family="Helvetica,sans-Serif" font-size="10.00">samples/apps/nobuiltins</text>
<text text-anchor="middle" x="424" y="-249" font-family="Helvetica,sans-Serif" font-size="10.00">/nobuiltins.cpp</text>
</a>
</g>
</g>
<!-- Node2&#45;&gt;Node7 -->
<g id="edge39" class="edge">
<title>Node2&#45;&gt;Node7</title>
<path fill="none" stroke="#63b8ff" d="M1362.18,-453.46C1231.72,-451.4 968.96,-442.36 750,-404 643.56,-385.35 611.07,-389.36 516,-338 483.78,-320.59 453.09,-290.18 436.58,-272.29"/>
<polygon fill="#63b8ff" stroke="#63b8ff" points="1362.43,-456.97 1372.48,-453.61 1362.54,-449.97 1362.43,-456.97"/>
</g>
<!-- Node29 -->
<g id="node29" class="node">
<title>Node29</title>
<g id="a_node29"><a xlink:href="base__endpoint__registry_8cpp.html" target="_top" xlink:title=" ">
<polygon fill="white" stroke="#666666" points="2058,-404 1932,-404 1932,-374 2058,-374 2058,-404"/>
<text text-anchor="start" x="1940" y="-392" font-family="Helvetica,sans-Serif" font-size="10.00">src/endpoints/base</text>
<text text-anchor="middle" x="1995" y="-381" font-family="Helvetica,sans-Serif" font-size="10.00">_endpoint_registry.cpp</text>
</a>
</g>
</g>
<!-- Node2&#45;&gt;Node29 -->
<g id="edge40" class="edge">
<title>Node2&#45;&gt;Node29</title>
<path fill="none" stroke="#63b8ff" d="M1525.76,-447.25C1620.41,-438.99 1780.88,-423.67 1918,-404 1922.44,-403.36 1927.01,-402.66 1931.61,-401.91"/>
<polygon fill="#63b8ff" stroke="#63b8ff" points="1525.34,-443.77 1515.68,-448.12 1525.94,-450.74 1525.34,-443.77"/>
</g>
<!-- Node30 -->
<g id="node30" class="node">
<title>Node30</title>
<g id="a_node30"><a xlink:href="wrap_8h.html" target="_top" xlink:title=" ">
<polygon fill="white" stroke="#666666" points="2317,-398.5 2239,-398.5 2239,-379.5 2317,-379.5 2317,-398.5"/>
<text text-anchor="middle" x="2278" y="-386.5" font-family="Helvetica,sans-Serif" font-size="10.00">src/js/wrap.h</text>
</a>
</g>
</g>
<!-- Node2&#45;&gt;Node30 -->
<g id="edge41" class="edge">
<title>Node2&#45;&gt;Node30</title>
<path fill="none" stroke="#63b8ff" d="M1525.93,-450.29C1696.31,-442.3 2083.89,-422.71 2215,-404 2224.54,-402.64 2234.78,-400.61 2244.17,-398.52"/>
<polygon fill="#63b8ff" stroke="#63b8ff" points="1525.59,-446.8 1515.76,-450.76 1525.91,-453.79 1525.59,-446.8"/>
</g>
<!-- Node4 -->
<g id="node4" class="node">
<title>Node4</title>
<g id="a_node4"><a xlink:href="app__interface_8h.html" target="_top" xlink:title=" ">
<polygon fill="white" stroke="#666666" points="995,-332.5 847,-332.5 847,-313.5 995,-313.5 995,-332.5"/>
<text text-anchor="middle" x="921" y="-320.5" font-family="Helvetica,sans-Serif" font-size="10.00">include/ccf/app_interface.h</text>
</a>
</g>
</g>
<!-- Node3&#45;&gt;Node4 -->
<g id="edge3" class="edge">
<title>Node3&#45;&gt;Node4</title>
<path fill="none" stroke="#63b8ff" d="M962.27,-366.6C951.12,-355.1 937.98,-341.52 929.57,-332.84"/>
<polygon fill="#63b8ff" stroke="#63b8ff" points="959.77,-369.05 969.24,-373.8 964.8,-364.18 959.77,-369.05"/>
</g>
<!-- Node10 -->
<g id="node10" class="node">
<title>Node10</title>
<g id="a_node10"><a xlink:href="external__executor__indexing_8h.html" target="_top" xlink:title=" ">
<polygon fill="white" stroke="#666666" points="784,-206 620,-206 620,-176 784,-176 784,-206"/>
<text text-anchor="start" x="628" y="-194" font-family="Helvetica,sans-Serif" font-size="10.00">src/apps/external_executor</text>
<text text-anchor="middle" x="702" y="-183" font-family="Helvetica,sans-Serif" font-size="10.00">/external_executor_indexing.h</text>
</a>
</g>
</g>
<!-- Node3&#45;&gt;Node10 -->
<g id="edge24" class="edge">
<title>Node3&#45;&gt;Node10</title>
<path fill="none" stroke="#63b8ff" d="M918.76,-370.96C892.84,-362.79 863.17,-351.76 838,-338 819.12,-327.68 819.56,-316.97 800,-308 723.87,-273.06 668.27,-336.64 615,-272 593.86,-246.35 634.31,-221.13 666.87,-206.06"/>
<polygon fill="#63b8ff" stroke="#63b8ff" points="917.91,-374.36 928.49,-373.95 919.96,-367.66 917.91,-374.36"/>
</g>
<!-- Node21 -->
<g id="node21" class="node">
<title>Node21</title>
<g id="a_node21"><a xlink:href="common__endpoint__registry_8cpp.html" target="_top" xlink:title=" ">
<polygon fill="white" stroke="#666666" points="653,-338 525,-338 525,-308 653,-308 653,-338"/>
<text text-anchor="start" x="533" y="-326" font-family="Helvetica,sans-Serif" font-size="10.00">src/endpoints/common</text>
<text text-anchor="middle" x="589" y="-315" font-family="Helvetica,sans-Serif" font-size="10.00">_endpoint_registry.cpp</text>
</a>
</g>
</g>
<!-- Node3&#45;&gt;Node21 -->
<g id="edge25" class="edge">
<title>Node3&#45;&gt;Node21</title>
<path fill="none" stroke="#63b8ff" d="M915.19,-373.94C801.97,-354.45 771.28,-356.21 662,-338 659.07,-337.51 656.08,-337 653.06,-336.47"/>
<polygon fill="#63b8ff" stroke="#63b8ff" points="914.85,-377.43 925.3,-375.69 916.05,-370.53 914.85,-377.43"/>
</g>
<!-- Node22 -->
<g id="node22" class="node">
<title>Node22</title>
<g id="a_node22"><a xlink:href="acme__challenge__frontend_8h.html" target="_top" xlink:title=" ">
<polygon fill="white" stroke="#666666" points="1963,-338 1823,-338 1823,-308 1963,-308 1963,-338"/>
<text text-anchor="start" x="1831" y="-326" font-family="Helvetica,sans-Serif" font-size="10.00">src/node/acme_challenge</text>
<text text-anchor="middle" x="1893" y="-315" font-family="Helvetica,sans-Serif" font-size="10.00">_frontend.h</text>
</a>
</g>
</g>
<!-- Node3&#45;&gt;Node22 -->
<g id="edge26" class="edge">
<title>Node3&#45;&gt;Node22</title>
<path fill="none" stroke="#63b8ff" d="M1050.92,-386.56C1193.01,-382.98 1531.85,-371.38 1814,-338 1816.9,-337.66 1819.86,-337.27 1822.85,-336.86"/>
<polygon fill="#63b8ff" stroke="#63b8ff" points="1050.54,-383.07 1040.63,-386.82 1050.71,-390.07 1050.54,-383.07"/>
</g>
<!-- Node26 -->
<g id="node26" class="node">
<title>Node26</title>
<g id="a_node26"><a xlink:href="member__frontend_8h.html" target="_top" xlink:title=" ">
<polygon fill="white" stroke="#666666" points="791,-338 671,-338 671,-308 791,-308 791,-338"/>
<text text-anchor="start" x="679" y="-326" font-family="Helvetica,sans-Serif" font-size="10.00">src/node/rpc/member</text>
<text text-anchor="middle" x="731" y="-315" font-family="Helvetica,sans-Serif" font-size="10.00">_frontend.h</text>
</a>
</g>
</g>
<!-- Node3&#45;&gt;Node26 -->
<g id="edge33" class="edge">
<title>Node3&#45;&gt;Node26</title>
<path fill="none" stroke="#63b8ff" d="M917.84,-371.45C877.01,-361.08 824.96,-347.86 786.17,-338.01"/>
<polygon fill="#63b8ff" stroke="#63b8ff" points="917.14,-374.89 927.7,-373.95 918.87,-368.1 917.14,-374.89"/>
</g>
<!-- Node27 -->
<g id="node27" class="node">
<title>Node27</title>
<g id="a_node27"><a xlink:href="node__frontend_8h.html" target="_top" xlink:title=" ">
<polygon fill="white" stroke="#666666" points="1805,-332.5 1647,-332.5 1647,-313.5 1805,-313.5 1805,-332.5"/>
<text text-anchor="middle" x="1726" y="-320.5" font-family="Helvetica,sans-Serif" font-size="10.00">src/node/rpc/node_frontend.h</text>
</a>
</g>
</g>
<!-- Node3&#45;&gt;Node27 -->
<g id="edge35" class="edge">
<title>Node3&#45;&gt;Node27</title>
<path fill="none" stroke="#63b8ff" d="M1051.07,-383C1164.11,-374.56 1397.65,-356.6 1595,-338 1612.65,-336.34 1631.62,-334.4 1649.49,-332.5"/>
<polygon fill="#63b8ff" stroke="#63b8ff" points="1050.55,-379.52 1040.84,-383.76 1051.07,-386.51 1050.55,-379.52"/>
</g>
<!-- Node5 -->
<g id="node5" class="node">
<title>Node5</title>
<g id="a_node5"><a xlink:href="basic_8cpp.html" target="_top" xlink:title=" ">
<polygon fill="white" stroke="#666666" points="1107.5,-272 994.5,-272 994.5,-242 1107.5,-242 1107.5,-272"/>
<text text-anchor="start" x="1002.5" y="-260" font-family="Helvetica,sans-Serif" font-size="10.00">samples/apps/basic</text>
<text text-anchor="middle" x="1051" y="-249" font-family="Helvetica,sans-Serif" font-size="10.00">/basic.cpp</text>
</a>
</g>
</g>
<!-- Node4&#45;&gt;Node5 -->
<g id="edge4" class="edge">
<title>Node4&#45;&gt;Node5</title>
<path fill="none" stroke="#63b8ff" d="M947.54,-308.93C969.29,-298.22 1000.02,-283.1 1022.33,-272.12"/>
<polygon fill="#63b8ff" stroke="#63b8ff" points="945.96,-305.81 938.53,-313.37 949.05,-312.09 945.96,-305.81"/>
</g>
<!-- Node6 -->
<g id="node6" class="node">
<title>Node6</title>
<g id="a_node6"><a xlink:href="logging_8cpp.html" target="_top" xlink:title=" ">
<polygon fill="white" stroke="#666666" points="299.5,-272 176.5,-272 176.5,-242 299.5,-242 299.5,-272"/>
<text text-anchor="start" x="184.5" y="-260" font-family="Helvetica,sans-Serif" font-size="10.00">samples/apps/logging</text>
<text text-anchor="middle" x="238" y="-249" font-family="Helvetica,sans-Serif" font-size="10.00">/logging.cpp</text>
</a>
</g>
</g>
<!-- Node4&#45;&gt;Node6 -->
<g id="edge5" class="edge">
<title>Node4&#45;&gt;Node6</title>
<path fill="none" stroke="#63b8ff" d="M840.7,-312.3C827.12,-310.78 813.17,-309.28 800,-308 598.99,-288.39 547.89,-292.87 347,-272 331.63,-270.4 315.07,-268.42 299.62,-266.44"/>
<polygon fill="#63b8ff" stroke="#63b8ff" points="840.65,-315.82 850.98,-313.47 841.44,-308.86 840.65,-315.82"/>
</g>
<!-- Node4&#45;&gt;Node7 -->
<g id="edge6" class="edge">
<title>Node4&#45;&gt;Node7</title>
<path fill="none" stroke="#63b8ff" d="M844.78,-312.18C748.4,-299.77 583.97,-278.6 491.79,-266.73"/>
<polygon fill="#63b8ff" stroke="#63b8ff" points="844.38,-315.66 854.75,-313.47 845.27,-308.72 844.38,-315.66"/>
</g>
<!-- Node8 -->
<g id="node8" class="node">
<title>Node8</title>
<g id="a_node8"><a xlink:href="executor__auth__policy_8h.html" target="_top" xlink:title=" ">
<polygon fill="white" stroke="#666666" points="772,-272 624,-272 624,-242 772,-242 772,-272"/>
<text text-anchor="start" x="632" y="-260" font-family="Helvetica,sans-Serif" font-size="10.00">src/apps/external_executor</text>
<text text-anchor="middle" x="698" y="-249" font-family="Helvetica,sans-Serif" font-size="10.00">/executor_auth_policy.h</text>
</a>
</g>
</g>
<!-- Node4&#45;&gt;Node8 -->
<g id="edge7" class="edge">
<title>Node4&#45;&gt;Node8</title>
<path fill="none" stroke="#63b8ff" d="M880.87,-310.48C843.39,-299.73 787.34,-283.64 747.18,-272.12"/>
<polygon fill="#63b8ff" stroke="#63b8ff" points="880.35,-313.97 890.93,-313.37 882.28,-307.25 880.35,-313.97"/>
</g>
<!-- Node9 -->
<g id="node9" class="node">
<title>Node9</title>
<g id="a_node9"><a xlink:href="external__executor_8cpp.html" target="_top" xlink:title=" ">
<polygon fill="white" stroke="#666666" points="1063,-140 915,-140 915,-110 1063,-110 1063,-140"/>
<text text-anchor="start" x="923" y="-128" font-family="Helvetica,sans-Serif" font-size="10.00">src/apps/external_executor</text>
<text text-anchor="middle" x="989" y="-117" font-family="Helvetica,sans-Serif" font-size="10.00">/external_executor.cpp</text>
</a>
</g>
</g>
<!-- Node4&#45;&gt;Node9 -->
<g id="edge12" class="edge">
<title>Node4&#45;&gt;Node9</title>
<path fill="none" stroke="#63b8ff" d="M889.75,-308.88C874.52,-300.69 857.64,-288.53 849,-272 835.25,-245.7 867.92,-177.2 869,-176 884.36,-159.01 906.41,-147.63 927.42,-140.09"/>
<polygon fill="#63b8ff" stroke="#63b8ff" points="888.43,-312.13 898.94,-313.47 891.56,-305.87 888.43,-312.13"/>
</g>
<!-- Node12 -->
<g id="node12" class="node">
<title>Node12</title>
<g id="a_node12"><a xlink:href="js__generic_8cpp.html" target="_top" xlink:title=" ">
<polygon fill="white" stroke="#666666" points="988,-206 878,-206 878,-176 988,-176 988,-206"/>
<text text-anchor="start" x="886" y="-194" font-family="Helvetica,sans-Serif" font-size="10.00">src/apps/js_generic</text>
<text text-anchor="middle" x="933" y="-183" font-family="Helvetica,sans-Serif" font-size="10.00">/js_generic.cpp</text>
</a>
</g>
</g>
<!-- Node4&#45;&gt;Node12 -->
<g id="edge13" class="edge">
<title>Node4&#45;&gt;Node12</title>
<path fill="none" stroke="#63b8ff" d="M893.84,-308.5C880.09,-300.07 864.71,-287.8 857,-272 851.15,-260.02 850.67,-253.74 857,-242 865.69,-225.87 882.11,-214.1 897.47,-206.04"/>
<polygon fill="#63b8ff" stroke="#63b8ff" points="892.13,-311.55 902.55,-313.49 895.61,-305.48 892.13,-311.55"/>
</g>
<!-- Node13 -->
<g id="node13" class="node">
<title>Node13</title>
<g id="a_node13"><a xlink:href="js__generic__base_8cpp.html" target="_top" xlink:title=" ">
<polygon fill="white" stroke="#666666" points="1407,-272 1289,-272 1289,-242 1407,-242 1407,-272"/>
<text text-anchor="start" x="1297" y="-260" font-family="Helvetica,sans-Serif" font-size="10.00">src/apps/js_generic</text>
<text text-anchor="middle" x="1348" y="-249" font-family="Helvetica,sans-Serif" font-size="10.00">/js_generic_base.cpp</text>
</a>
</g>
</g>
<!-- Node4&#45;&gt;Node13 -->
<g id="edge14" class="edge">
<title>Node4&#45;&gt;Node13</title>
<path fill="none" stroke="#63b8ff" d="M1002.09,-312.23C1075,-303.08 1184.94,-288.39 1280,-272 1282.85,-271.51 1285.76,-270.99 1288.7,-270.44"/>
<polygon fill="#63b8ff" stroke="#63b8ff" points="1001.54,-308.77 992.05,-313.48 1002.41,-315.71 1001.54,-308.77"/>
</g>
<!-- Node14 -->
<g id="node14" class="node">
<title>Node14</title>
<g id="a_node14"><a xlink:href="js__generic__base_8h.html" target="_top" xlink:title=" ">
<polygon fill="white" stroke="#666666" points="976,-272 866,-272 866,-242 976,-242 976,-272"/>
<text text-anchor="start" x="874" y="-260" font-family="Helvetica,sans-Serif" font-size="10.00">src/apps/js_generic</text>
<text text-anchor="middle" x="921" y="-249" font-family="Helvetica,sans-Serif" font-size="10.00">/js_generic_base.h</text>
</a>
</g>
</g>
<!-- Node4&#45;&gt;Node14 -->
<g id="edge15" class="edge">
<title>Node4&#45;&gt;Node14</title>
<path fill="none" stroke="#63b8ff" d="M921,-303.35C921,-293.47 921,-281.51 921,-272.36"/>
<polygon fill="#63b8ff" stroke="#63b8ff" points="917.5,-303.37 921,-313.37 924.5,-303.37 917.5,-303.37"/>
</g>
<!-- Node15 -->
<g id="node15" class="node">
<title>Node15</title>
<g id="a_node15"><a xlink:href="tpcc_8cpp.html" target="_top" xlink:title=" ">
<polygon fill="white" stroke="#666666" points="1270.5,-266.5 1125.5,-266.5 1125.5,-247.5 1270.5,-247.5 1270.5,-266.5"/>
<text text-anchor="middle" x="1198" y="-254.5" font-family="Helvetica,sans-Serif" font-size="10.00">src/apps/tpcc/app/tpcc.cpp</text>
</a>
</g>
</g>
<!-- Node4&#45;&gt;Node15 -->
<g id="edge17" class="edge">
<title>Node4&#45;&gt;Node15</title>
<path fill="none" stroke="#63b8ff" d="M967.83,-311.18C1022.36,-298.58 1111.3,-278.03 1161.15,-266.51"/>
<polygon fill="#63b8ff" stroke="#63b8ff" points="967.03,-307.77 958.07,-313.44 968.6,-314.59 967.03,-307.77"/>
</g>
<!-- Node16 -->
<g id="node16" class="node">
<title>Node16</title>
<g id="a_node16"><a xlink:href="src_2enclave_2enclave_8h.html" target="_top" xlink:title=" ">
<polygon fill="white" stroke="#666666" points="1699,-74 1577,-74 1577,-55 1699,-55 1699,-74"/>
<text text-anchor="middle" x="1638" y="-62" font-family="Helvetica,sans-Serif" font-size="10.00">src/enclave/enclave.h</text>
</a>
</g>
</g>
<!-- Node4&#45;&gt;Node16 -->
<g id="edge18" class="edge">
<title>Node4&#45;&gt;Node16</title>
<path fill="none" stroke="#63b8ff" d="M844.78,-312.11C752.12,-299.81 606.79,-279.52 597,-272 536.35,-225.42 486.03,-165.16 539,-110 575.15,-72.36 1351.08,-66.55 1576.88,-65.66"/>
<polygon fill="#63b8ff" stroke="#63b8ff" points="844.6,-315.62 854.97,-313.46 845.52,-308.68 844.6,-315.62"/>
</g>
<!-- Node18 -->
<g id="node18" class="node">
<title>Node18</title>
<g id="a_node18"><a xlink:href="no__plugins_8cpp.html" target="_top" xlink:title=" ">
<polygon fill="white" stroke="#666666" points="1803,-266.5 1685,-266.5 1685,-247.5 1803,-247.5 1803,-266.5"/>
<text text-anchor="middle" x="1744" y="-254.5" font-family="Helvetica,sans-Serif" font-size="10.00">src/js/no_plugins.cpp</text>
</a>
</g>
</g>
<!-- Node4&#45;&gt;Node18 -->
<g id="edge20" class="edge">
<title>Node4&#45;&gt;Node18</title>
<path fill="none" stroke="#63b8ff" d="M1005.34,-315.44C1172.27,-302.46 1541.03,-273.78 1684.89,-262.6"/>
<polygon fill="#63b8ff" stroke="#63b8ff" points="1004.82,-311.97 995.12,-316.24 1005.36,-318.95 1004.82,-311.97"/>
</g>
<!-- Node20 -->
<g id="node20" class="node">
<title>Node20</title>
<g id="a_node20"><a xlink:href="user__frontend_8h.html" target="_top" xlink:title=" ">
<polygon fill="white" stroke="#666666" points="703.5,-134.5 548.5,-134.5 548.5,-115.5 703.5,-115.5 703.5,-134.5"/>
<text text-anchor="middle" x="626" y="-122.5" font-family="Helvetica,sans-Serif" font-size="10.00">src/node/rpc/user_frontend.h</text>
</a>
</g>
</g>
<!-- Node4&#45;&gt;Node20 -->
<g id="edge22" class="edge">
<title>Node4&#45;&gt;Node20</title>
<path fill="none" stroke="#63b8ff" d="M846.1,-312.13C758.03,-300.18 622.75,-280.58 615,-272 579.22,-232.39 609.54,-159.52 621.6,-134.61"/>
<polygon fill="#63b8ff" stroke="#63b8ff" points="845.68,-315.61 856.06,-313.48 846.62,-308.67 845.68,-315.61"/>
</g>
<!-- Node8&#45;&gt;Node9 -->
<g id="edge8" class="edge">
<title>Node8&#45;&gt;Node9</title>
<path fill="none" stroke="#63b8ff" d="M736.55,-237.09C754.06,-228.15 774.87,-217.04 793,-206 812.9,-193.88 815.15,-186.4 836,-176 866.76,-160.66 903.28,-148.52 932.93,-140.05"/>
<polygon fill="#63b8ff" stroke="#63b8ff" points="734.55,-234.18 727.2,-241.82 737.71,-240.43 734.55,-234.18"/>
</g>
<!-- Node8&#45;&gt;Node10 -->
<g id="edge9" class="edge">
<title>Node8&#45;&gt;Node10</title>
<path fill="none" stroke="#63b8ff" d="M699.53,-231.54C700.06,-222.96 700.65,-213.61 701.11,-206.16"/>
<polygon fill="#63b8ff" stroke="#63b8ff" points="696.02,-231.6 698.89,-241.8 703,-232.03 696.02,-231.6"/>
</g>
<!-- Node10&#45;&gt;Node9 -->
<g id="edge10" class="edge">
<title>Node10&#45;&gt;Node9</title>
<path fill="none" stroke="#63b8ff" d="M775.03,-173.71C821.71,-163.31 881.62,-149.95 926.16,-140.01"/>
<polygon fill="#63b8ff" stroke="#63b8ff" points="773.98,-170.36 764.98,-175.95 775.51,-177.19 773.98,-170.36"/>
</g>
<!-- Node11 -->
<g id="node11" class="node">
<title>Node11</title>
<g id="a_node11"><a xlink:href="external__executor__indexing_8cpp.html" target="_top" xlink:title=" ">
<polygon fill="white" stroke="#666666" points="896.5,-140 721.5,-140 721.5,-110 896.5,-110 896.5,-140"/>
<text text-anchor="start" x="729.5" y="-128" font-family="Helvetica,sans-Serif" font-size="10.00">src/apps/external_executor</text>
<text text-anchor="middle" x="809" y="-117" font-family="Helvetica,sans-Serif" font-size="10.00">/external_executor_indexing.cpp</text>
</a>
</g>
</g>
<!-- Node10&#45;&gt;Node11 -->
<g id="edge11" class="edge">
<title>Node10&#45;&gt;Node11</title>
<path fill="none" stroke="#63b8ff" d="M734.28,-170.69C750.79,-160.82 770.53,-149.01 785.57,-140.01"/>
<polygon fill="#63b8ff" stroke="#63b8ff" points="732.27,-167.82 725.48,-175.95 735.86,-173.83 732.27,-167.82"/>
</g>
<!-- Node14&#45;&gt;Node12 -->
<g id="edge16" class="edge">
<title>Node14&#45;&gt;Node12</title>
<path fill="none" stroke="#63b8ff" d="M925.53,-231.83C927.16,-223.17 928.93,-213.7 930.34,-206.16"/>
<polygon fill="#63b8ff" stroke="#63b8ff" points="922.07,-231.32 923.66,-241.8 928.95,-232.61 922.07,-231.32"/>
</g>
<!-- Node17 -->
<g id="node17" class="node">
<title>Node17</title>
<g id="a_node17"><a xlink:href="enclave_2main_8cpp.html" target="_top" xlink:title=" ">
<polygon fill="white" stroke="#666666" points="1698,-19 1578,-19 1578,0 1698,0 1698,-19"/>
<text text-anchor="middle" x="1638" y="-7" font-family="Helvetica,sans-Serif" font-size="10.00">src/enclave/main.cpp</text>
</a>
</g>
</g>
<!-- Node16&#45;&gt;Node17 -->
<g id="edge19" class="edge">
<title>Node16&#45;&gt;Node17</title>
<path fill="none" stroke="#63b8ff" d="M1638,-44.66C1638,-35.93 1638,-25.99 1638,-19.09"/>
<polygon fill="#63b8ff" stroke="#63b8ff" points="1634.5,-44.75 1638,-54.75 1641.5,-44.75 1634.5,-44.75"/>
</g>
<!-- Node19 -->
<g id="node19" class="node">
<title>Node19</title>
<g id="a_node19"><a xlink:href="wrap_8cpp.html" target="_top" xlink:title=" ">
<polygon fill="white" stroke="#666666" points="2569.5,-200.5 2480.5,-200.5 2480.5,-181.5 2569.5,-181.5 2569.5,-200.5"/>
<text text-anchor="middle" x="2525" y="-188.5" font-family="Helvetica,sans-Serif" font-size="10.00">src/js/wrap.cpp</text>
</a>
</g>
</g>
<!-- Node18&#45;&gt;Node19 -->
<g id="edge21" class="edge">
<title>Node18&#45;&gt;Node19</title>
<path fill="none" stroke="#63b8ff" d="M1791.71,-245.48C1798.82,-244.16 1806.08,-242.94 1813,-242 2063.79,-207.9 2367.63,-196.38 2480.22,-193.12"/>
<polygon fill="#63b8ff" stroke="#63b8ff" points="1790.6,-242.13 1781.45,-247.48 1791.94,-249 1790.6,-242.13"/>
</g>
<!-- Node20&#45;&gt;Node16 -->
<g id="edge23" class="edge">
<title>Node20&#45;&gt;Node16</title>
<path fill="none" stroke="#63b8ff" d="M682.39,-113.88C692.24,-112.39 702.4,-111.01 712,-110 1036.74,-75.88 1428.33,-67.89 1576.87,-66.05"/>
<polygon fill="#63b8ff" stroke="#63b8ff" points="681.62,-110.46 672.29,-115.48 682.71,-117.38 681.62,-110.46"/>
</g>
<!-- Node22&#45;&gt;Node16 -->
<g id="edge27" class="edge">
<title>Node22&#45;&gt;Node16</title>
<path fill="none" stroke="#63b8ff" d="M1814.09,-305.93C1754.09,-293.38 1680.99,-277.22 1676,-272 1648.16,-242.89 1640.07,-110.15 1638.38,-74.39"/>
<polygon fill="#63b8ff" stroke="#63b8ff" points="1813.47,-309.38 1823.97,-307.99 1814.9,-302.53 1813.47,-309.38"/>
</g>
<!-- Node23 -->
<g id="node23" class="node">
<title>Node23</title>
<g id="a_node23"><a xlink:href="ccf__acme__client_8h.html" target="_top" xlink:title=" ">
<polygon fill="white" stroke="#666666" points="2113.5,-266.5 1964.5,-266.5 1964.5,-247.5 2113.5,-247.5 2113.5,-266.5"/>
<text text-anchor="middle" x="2039" y="-254.5" font-family="Helvetica,sans-Serif" font-size="10.00">src/node/ccf_acme_client.h</text>
</a>
</g>
</g>
<!-- Node22&#45;&gt;Node23 -->
<g id="edge28" class="edge">
<title>Node22&#45;&gt;Node23</title>
<path fill="none" stroke="#63b8ff" d="M1934.56,-303.78C1962.48,-291.54 1997.98,-275.98 2019.57,-266.52"/>
<polygon fill="#63b8ff" stroke="#63b8ff" points="1932.79,-300.73 1925.04,-307.95 1935.6,-307.15 1932.79,-300.73"/>
</g>
<!-- Node24 -->
<g id="node24" class="node">
<title>Node24</title>
<g id="a_node24"><a xlink:href="node__state_8h.html" target="_top" xlink:title=" ">
<polygon fill="white" stroke="#666666" points="1933,-200.5 1809,-200.5 1809,-181.5 1933,-181.5 1933,-200.5"/>
<text text-anchor="middle" x="1871" y="-188.5" font-family="Helvetica,sans-Serif" font-size="10.00">src/node/node_state.h</text>
</a>
</g>
</g>
<!-- Node23&#45;&gt;Node24 -->
<g id="edge29" class="edge">
<title>Node23&#45;&gt;Node24</title>
<path fill="none" stroke="#63b8ff" d="M2006.65,-243.68C1973.45,-231.03 1922.66,-211.68 1893.57,-200.6"/>
<polygon fill="#63b8ff" stroke="#63b8ff" points="2005.75,-247.08 2016.34,-247.37 2008.24,-240.54 2005.75,-247.08"/>
</g>
<!-- Node24&#45;&gt;Node16 -->
<g id="edge30" class="edge">
<title>Node24&#45;&gt;Node16</title>
<path fill="none" stroke="#63b8ff" d="M1869.32,-171.2C1866.65,-152.87 1859.77,-125.55 1842,-110 1820.96,-91.59 1751.21,-79.21 1699.09,-72.28"/>
<polygon fill="#63b8ff" stroke="#63b8ff" points="1865.86,-171.73 1870.49,-181.26 1872.81,-170.92 1865.86,-171.73"/>
</g>
<!-- Node25 -->
<g id="node25" class="node">
<title>Node25</title>
<g id="a_node25"><a xlink:href="gov__effects_8h.html" target="_top" xlink:title=" ">
<polygon fill="white" stroke="#666666" points="1833,-134.5 1689,-134.5 1689,-115.5 1833,-115.5 1833,-134.5"/>
<text text-anchor="middle" x="1761" y="-122.5" font-family="Helvetica,sans-Serif" font-size="10.00">src/node/rpc/gov_effects.h</text>
</a>
</g>
</g>
<!-- Node24&#45;&gt;Node25 -->
<g id="edge31" class="edge">
<title>Node24&#45;&gt;Node25</title>
<path fill="none" stroke="#63b8ff" d="M1847.26,-176.19C1825.62,-163.59 1794.29,-145.37 1775.95,-134.7"/>
<polygon fill="#63b8ff" stroke="#63b8ff" points="1845.76,-179.36 1856.16,-181.37 1849.28,-173.31 1845.76,-179.36"/>
</g>
<!-- Node25&#45;&gt;Node16 -->
<g id="edge32" class="edge">
<title>Node25&#45;&gt;Node16</title>
<path fill="none" stroke="#63b8ff" d="M1733.95,-111.13C1710.22,-99.85 1676.41,-83.77 1655.91,-74.02"/>
<polygon fill="#63b8ff" stroke="#63b8ff" points="1732.58,-114.36 1743.11,-115.49 1735.59,-108.04 1732.58,-114.36"/>
</g>
<!-- Node26&#45;&gt;Node16 -->
<g id="edge34" class="edge">
<title>Node26&#45;&gt;Node16</title>
<path fill="none" stroke="#63b8ff" d="M660.86,-308.16C576.76,-299.07 392.03,-322.47 347,-272 338.12,-262.05 341.14,-253.98 347,-242 389.06,-156.09 427.14,-142.8 517,-110 616.54,-73.67 1356.95,-66.95 1576.69,-65.75"/>
<polygon fill="#63b8ff" stroke="#63b8ff" points="660.47,-311.64 670.84,-309.48 661.39,-304.7 660.47,-311.64"/>
</g>
<!-- Node27&#45;&gt;Node16 -->
<g id="edge36" class="edge">
<title>Node27&#45;&gt;Node16</title>
<path fill="none" stroke="#63b8ff" d="M1689.12,-309.4C1671.95,-301.49 1653.13,-289.43 1643,-272 1604.08,-205.03 1627.28,-104.06 1635.48,-74.14"/>
<polygon fill="#63b8ff" stroke="#63b8ff" points="1687.85,-312.66 1698.42,-313.37 1690.6,-306.23 1687.85,-312.66"/>
</g>
<!-- Node28 -->
<g id="node28" class="node">
<title>Node28</title>
<g id="a_node28"><a xlink:href="jwt__key__auto__refresh_8h.html" target="_top" xlink:title=" ">
<polygon fill="white" stroke="#666666" points="1946.5,-272 1821.5,-272 1821.5,-242 1946.5,-242 1946.5,-272"/>
<text text-anchor="start" x="1829.5" y="-260" font-family="Helvetica,sans-Serif" font-size="10.00">src/node/jwt_key_auto</text>
<text text-anchor="middle" x="1884" y="-249" font-family="Helvetica,sans-Serif" font-size="10.00">_refresh.h</text>
</a>
</g>
</g>
<!-- Node27&#45;&gt;Node28 -->
<g id="edge37" class="edge">
<title>Node27&#45;&gt;Node28</title>
<path fill="none" stroke="#63b8ff" d="M1756.85,-309.5C1783.35,-298.77 1821.55,-283.3 1849.15,-272.12"/>
<polygon fill="#63b8ff" stroke="#63b8ff" points="1755.26,-306.37 1747.31,-313.37 1757.89,-312.86 1755.26,-306.37"/>
</g>
<!-- Node28&#45;&gt;Node24 -->
<g id="edge38" class="edge">
<title>Node28&#45;&gt;Node24</title>
<path fill="none" stroke="#63b8ff" d="M1879.11,-231.94C1876.9,-221.06 1874.43,-208.86 1872.8,-200.84"/>
<polygon fill="#63b8ff" stroke="#63b8ff" points="1875.69,-232.69 1881.11,-241.8 1882.55,-231.3 1875.69,-232.69"/>
</g>
<!-- Node30&#45;&gt;Node13 -->
<g id="edge42" class="edge">
<title>Node30&#45;&gt;Node13</title>
<path fill="none" stroke="#63b8ff" d="M2234.25,-377.36C2227.82,-376.06 2221.26,-374.89 2215,-374 1960.59,-338.02 1890.05,-387.9 1638,-338 1597.47,-329.98 1589.65,-319.64 1550,-308 1502.34,-294 1447.6,-280.62 1407.14,-271.23"/>
<polygon fill="#63b8ff" stroke="#63b8ff" points="2233.67,-380.81 2244.17,-379.46 2235.12,-373.96 2233.67,-380.81"/>
</g>
<!-- Node30&#45;&gt;Node16 -->
<g id="edge43" class="edge">
<title>Node30&#45;&gt;Node16</title>
<path fill="none" stroke="#63b8ff" d="M2272.57,-369.31C2265.77,-344.22 2255,-298.15 2255,-258 2255,-258 2255,-258 2255,-190 2255,-77.38 1854.99,-65.4 1699.13,-65.01"/>
<polygon fill="#63b8ff" stroke="#63b8ff" points="2269.29,-370.58 2275.36,-379.27 2276.03,-368.69 2269.29,-370.58"/>
</g>
<!-- Node30&#45;&gt;Node19 -->
<g id="edge53" class="edge">
<title>Node30&#45;&gt;Node19</title>
<path fill="none" stroke="#63b8ff" d="M2282.21,-369.12C2286.93,-351.55 2296.11,-325.51 2312,-308 2364.35,-250.32 2452.27,-215.42 2497.02,-200.51"/>
<polygon fill="#63b8ff" stroke="#63b8ff" points="2278.7,-368.73 2279.72,-379.27 2285.5,-370.4 2278.7,-368.73"/>
</g>
<!-- Node30&#45;&gt;Node24 -->
<g id="edge54" class="edge">
<title>Node30&#45;&gt;Node24</title>
<path fill="none" stroke="#63b8ff" d="M2264.92,-371.11C2237.61,-336.29 2174.59,-258.41 2145,-242 2078.82,-205.31 1991.15,-194.79 1933.01,-192.16"/>
<polygon fill="#63b8ff" stroke="#63b8ff" points="2262.43,-373.61 2271.34,-379.34 2267.95,-369.3 2262.43,-373.61"/>
</g>
<!-- Node30&#45;&gt;Node26 -->
<g id="edge55" class="edge">
<title>Node30&#45;&gt;Node26</title>
<path fill="none" stroke="#63b8ff" d="M2234.95,-377.28C2228.31,-375.96 2221.5,-374.8 2215,-374 1607.37,-299.25 1448.34,-385.78 838,-338 822.78,-336.81 806.4,-334.96 791.15,-332.99"/>
<polygon fill="#63b8ff" stroke="#63b8ff" points="2234.68,-380.8 2245.18,-379.45 2236.13,-373.95 2234.68,-380.8"/>
</g>
<!-- Node30&#45;&gt;Node27 -->
<g id="edge56" class="edge">
<title>Node30&#45;&gt;Node27</title>
<path fill="none" stroke="#63b8ff" d="M2233.33,-377.33C2227.19,-376.08 2220.96,-374.93 2215,-374 2038.18,-346.53 1991.57,-360.07 1814,-338 1801.57,-336.45 1788.19,-334.49 1775.71,-332.52"/>
<polygon fill="#63b8ff" stroke="#63b8ff" points="2232.98,-380.83 2243.49,-379.49 2234.44,-373.99 2232.98,-380.83"/>
</g>
<!-- Node31 -->
<g id="node31" class="node">
<title>Node31</title>
<g id="a_node31"><a xlink:href="consensus_8cpp.html" target="_top" xlink:title=" ">
<polygon fill="white" stroke="#666666" points="2583,-332.5 2467,-332.5 2467,-313.5 2583,-313.5 2583,-332.5"/>
<text text-anchor="middle" x="2525" y="-320.5" font-family="Helvetica,sans-Serif" font-size="10.00">src/js/consensus.cpp</text>
</a>
</g>
</g>
<!-- Node30&#45;&gt;Node31 -->
<g id="edge44" class="edge">
<title>Node30&#45;&gt;Node31</title>
<path fill="none" stroke="#63b8ff" d="M2320.98,-376.86C2369.7,-364.24 2448.06,-343.94 2492.14,-332.51"/>
<polygon fill="#63b8ff" stroke="#63b8ff" points="2319.86,-373.54 2311.06,-379.44 2321.61,-380.31 2319.86,-373.54"/>
</g>
<!-- Node32 -->
<g id="node32" class="node">
<title>Node32</title>
<g id="a_node32"><a xlink:href="conv_8cpp.html" target="_top" xlink:title=" ">
<polygon fill="white" stroke="#666666" points="2689,-332.5 2601,-332.5 2601,-313.5 2689,-313.5 2689,-332.5"/>
<text text-anchor="middle" x="2645" y="-320.5" font-family="Helvetica,sans-Serif" font-size="10.00">src/js/conv.cpp</text>
</a>
</g>
</g>
<!-- Node30&#45;&gt;Node32 -->
<g id="edge46" class="edge">
<title>Node30&#45;&gt;Node32</title>
<path fill="none" stroke="#63b8ff" d="M2327.69,-381.66C2389.84,-373.36 2499.33,-357.57 2592,-338 2599.45,-336.43 2607.42,-334.47 2614.86,-332.52"/>
<polygon fill="#63b8ff" stroke="#63b8ff" points="2326.85,-378.24 2317.39,-383.02 2327.77,-385.18 2326.85,-378.24"/>
</g>
<!-- Node33 -->
<g id="node33" class="node">
<title>Node33</title>
<g id="a_node33"><a xlink:href="crypto_8cpp.html" target="_top" xlink:title=" ">
<polygon fill="white" stroke="#666666" points="2803,-332.5 2707,-332.5 2707,-313.5 2803,-313.5 2803,-332.5"/>
<text text-anchor="middle" x="2755" y="-320.5" font-family="Helvetica,sans-Serif" font-size="10.00">src/js/crypto.cpp</text>
</a>
</g>
</g>
<!-- Node30&#45;&gt;Node33 -->
<g id="edge48" class="edge">
<title>Node30&#45;&gt;Node33</title>
<path fill="none" stroke="#63b8ff" d="M2327.14,-384.11C2405.85,-377.45 2564.9,-362.18 2698,-338 2706.22,-336.51 2715.02,-334.53 2723.19,-332.54"/>
<polygon fill="#63b8ff" stroke="#63b8ff" points="2326.71,-380.64 2317.03,-384.96 2327.29,-387.61 2326.71,-380.64"/>
</g>
<!-- Node34 -->
<g id="node34" class="node">
<title>Node34</title>
<g id="a_node34"><a xlink:href="historical_8cpp.html" target="_top" xlink:title=" ">
<polygon fill="white" stroke="#666666" points="2931,-332.5 2821,-332.5 2821,-313.5 2931,-313.5 2931,-332.5"/>
<text text-anchor="middle" x="2876" y="-320.5" font-family="Helvetica,sans-Serif" font-size="10.00">src/js/historical.cpp</text>
</a>
</g>
</g>
<!-- Node30&#45;&gt;Node34 -->
<g id="edge50" class="edge">
<title>Node30&#45;&gt;Node34</title>
<path fill="none" stroke="#63b8ff" d="M2327.17,-385.41C2421.59,-379.98 2634.64,-365.6 2812,-338 2821.33,-336.55 2831.33,-334.57 2840.6,-332.55"/>
<polygon fill="#63b8ff" stroke="#63b8ff" points="2326.85,-381.92 2317.06,-385.98 2327.24,-388.91 2326.85,-381.92"/>
</g>
<!-- Node35 -->
<g id="node35" class="node">
<title>Node35</title>
<g id="a_node35"><a xlink:href="openenclave_8cpp.html" target="_top" xlink:title=" ">
<polygon fill="white" stroke="#666666" points="2449,-332.5 2321,-332.5 2321,-313.5 2449,-313.5 2449,-332.5"/>
<text text-anchor="middle" x="2385" y="-320.5" font-family="Helvetica,sans-Serif" font-size="10.00">src/js/openenclave.cpp</text>
</a>
</g>
</g>
<!-- Node30&#45;&gt;Node35 -->
<g id="edge52" class="edge">
<title>Node30&#45;&gt;Node35</title>
<path fill="none" stroke="#63b8ff" d="M2301.09,-374.19C2322.15,-361.59 2352.61,-343.37 2370.46,-332.7"/>
<polygon fill="#63b8ff" stroke="#63b8ff" points="2299.22,-371.23 2292.43,-379.37 2302.81,-377.24 2299.22,-371.23"/>
</g>
<!-- Node31&#45;&gt;Node19 -->
<g id="edge45" class="edge">
<title>Node31&#45;&gt;Node19</title>
<path fill="none" stroke="#63b8ff" d="M2525,-303.23C2525,-274.72 2525,-221.59 2525,-200.73"/>
<polygon fill="#63b8ff" stroke="#63b8ff" points="2521.5,-303.47 2525,-313.47 2528.5,-303.47 2521.5,-303.47"/>
</g>
<!-- Node32&#45;&gt;Node19 -->
<g id="edge47" class="edge">
<title>Node32&#45;&gt;Node19</title>
<path fill="none" stroke="#63b8ff" d="M2630.07,-305.82C2604.44,-278.06 2552.92,-222.24 2533.06,-200.73"/>
<polygon fill="#63b8ff" stroke="#63b8ff" points="2627.77,-308.5 2637.13,-313.47 2632.92,-303.75 2627.77,-308.5"/>
</g>
<!-- Node33&#45;&gt;Node19 -->
<g id="edge49" class="edge">
<title>Node33&#45;&gt;Node19</title>
<path fill="none" stroke="#63b8ff" d="M2730.96,-308.41C2683.55,-281.61 2579.2,-222.63 2540.15,-200.56"/>
<polygon fill="#63b8ff" stroke="#63b8ff" points="2729.48,-311.6 2739.91,-313.47 2732.93,-305.5 2729.48,-311.6"/>
</g>
<!-- Node34&#45;&gt;Node19 -->
<g id="edge51" class="edge">
<title>Node34&#45;&gt;Node19</title>
<path fill="none" stroke="#63b8ff" d="M2843.3,-309.89C2772.98,-283.84 2608.83,-223.05 2548.11,-200.56"/>
<polygon fill="#63b8ff" stroke="#63b8ff" points="2842.38,-313.28 2852.97,-313.47 2844.81,-306.72 2842.38,-313.28"/>
</g>
<!-- Node36&#45;&gt;Node6 -->
<g id="edge58" class="edge">
<title>Node36&#45;&gt;Node6</title>
<path fill="none" stroke="#63b8ff" d="M382.9,-367.52C347.71,-340.92 287.2,-295.18 256.71,-272.14"/>
<polygon fill="#63b8ff" stroke="#63b8ff" points="381.18,-370.6 391.27,-373.84 385.4,-365.02 381.18,-370.6"/>
</g>
<!-- Node36&#45;&gt;Node9 -->
<g id="edge59" class="edge">
<title>Node36&#45;&gt;Node9</title>
<path fill="none" stroke="#63b8ff" d="M341.35,-374.36C250.87,-353.41 109.53,-308.64 167,-242 275.12,-116.62 741.14,-163.68 905,-140 908.22,-139.53 911.51,-139.05 914.82,-138.54"/>
<polygon fill="#63b8ff" stroke="#63b8ff" points="340.77,-377.81 351.3,-376.61 342.32,-370.99 340.77,-377.81"/>
</g>
<!-- Node36&#45;&gt;Node13 -->
<g id="edge60" class="edge">
<title>Node36&#45;&gt;Node13</title>
<path fill="none" stroke="#63b8ff" d="M478.57,-385.45C589.54,-380.6 815.15,-367.75 1004,-338 1109.84,-321.33 1231.48,-290.14 1298.03,-272.02"/>
<polygon fill="#63b8ff" stroke="#63b8ff" points="478.35,-381.95 468.51,-385.88 478.65,-388.95 478.35,-381.95"/>
</g>
<!-- Node36&#45;&gt;Node21 -->
<g id="edge61" class="edge">
<title>Node36&#45;&gt;Node21</title>
<path fill="none" stroke="#63b8ff" d="M459.07,-370.46C487.62,-360.25 523.13,-347.55 549.81,-338.01"/>
<polygon fill="#63b8ff" stroke="#63b8ff" points="457.52,-367.29 449.28,-373.95 459.88,-373.88 457.52,-367.29"/>
</g>
<!-- Node37 -->
<g id="node37" class="node">
<title>Node37</title>
<g id="a_node37"><a xlink:href="historical__queries__adapter_8cpp.html" target="_top" xlink:title=" ">
<polygon fill="white" stroke="#666666" points="120,-338 0,-338 0,-308 120,-308 120,-338"/>
<text text-anchor="start" x="8" y="-326" font-family="Helvetica,sans-Serif" font-size="10.00">src/node/historical</text>
<text text-anchor="middle" x="60" y="-315" font-family="Helvetica,sans-Serif" font-size="10.00">_queries_adapter.cpp</text>
</a>
</g>
</g>
<!-- Node36&#45;&gt;Node37 -->
<g id="edge62" class="edge">
<title>Node36&#45;&gt;Node37</title>
<path fill="none" stroke="#63b8ff" d="M341.16,-375.68C285.31,-365.65 204.55,-351.06 134,-338 129.5,-337.17 124.85,-336.3 120.17,-335.42"/>
<polygon fill="#63b8ff" stroke="#63b8ff" points="340.83,-379.18 351.29,-377.5 342.06,-372.29 340.83,-379.18"/>
</g>
<!-- Node38 -->
<g id="node38" class="node">
<title>Node38</title>
<g id="a_node38"><a xlink:href="snapshot__serdes_8h.html" target="_top" xlink:title=" ">
<polygon fill="white" stroke="#666666" points="1541,-332.5 1389,-332.5 1389,-313.5 1541,-313.5 1541,-332.5"/>
<text text-anchor="middle" x="1465" y="-320.5" font-family="Helvetica,sans-Serif" font-size="10.00">src/node/snapshot_serdes.h</text>
</a>
</g>
</g>
<!-- Node36&#45;&gt;Node38 -->
<g id="edge63" class="edge">
<title>Node36&#45;&gt;Node38</title>
<path fill="none" stroke="#63b8ff" d="M478.66,-383.83C667.15,-372.4 1191.66,-340.58 1388.8,-328.62"/>
<polygon fill="#63b8ff" stroke="#63b8ff" points="478.37,-380.35 468.6,-384.44 478.8,-387.33 478.37,-380.35"/>
</g>
<!-- Node39 -->
<g id="node39" class="node">
<title>Node39</title>
<g id="a_node39"><a xlink:href="snapshotter_8h.html" target="_top" xlink:title=" ">
<polygon fill="white" stroke="#666666" points="1552.5,-266.5 1425.5,-266.5 1425.5,-247.5 1552.5,-247.5 1552.5,-266.5"/>
<text text-anchor="middle" x="1489" y="-254.5" font-family="Helvetica,sans-Serif" font-size="10.00">src/node/snapshotter.h</text>
</a>
</g>
</g>
<!-- Node38&#45;&gt;Node39 -->
<g id="edge64" class="edge">
<title>Node38&#45;&gt;Node39</title>
<path fill="none" stroke="#63b8ff" d="M1471.82,-303.82C1476.35,-291.74 1482.1,-276.41 1485.66,-266.91"/>
<polygon fill="#63b8ff" stroke="#63b8ff" points="1468.47,-302.78 1468.24,-313.37 1475.03,-305.23 1468.47,-302.78"/>
</g>
<!-- Node39&#45;&gt;Node24 -->
<g id="edge65" class="edge">
<title>Node39&#45;&gt;Node24</title>
<path fill="none" stroke="#63b8ff" d="M1546.19,-245.64C1553.19,-244.4 1560.26,-243.16 1567,-242 1654.77,-226.91 1756.96,-210.3 1817.69,-200.53"/>
<polygon fill="#63b8ff" stroke="#63b8ff" points="1545.23,-242.25 1536,-247.45 1546.46,-249.14 1545.23,-242.25"/>
</g>
<!-- Node40&#45;&gt;Node41 -->
<g id="edge67" class="edge">
<title>Node40&#45;&gt;Node41</title>
<path fill="none" stroke="#63b8ff" d="M1895.66,-439.38C1958.39,-426.75 2046.83,-408.95 2098.62,-398.53"/>
<polygon fill="#63b8ff" stroke="#63b8ff" points="1894.94,-435.95 1885.83,-441.36 1896.32,-442.81 1894.94,-435.95"/>
</g>
<!-- Node41&#45;&gt;Node24 -->
<g id="edge68" class="edge">
<title>Node41&#45;&gt;Node24</title>
<path fill="none" stroke="#63b8ff" d="M2144.93,-369.13C2150.18,-338.24 2155.37,-276.84 2123,-242 2097.8,-214.88 1999.32,-201.91 1933.19,-196.14"/>
<polygon fill="#63b8ff" stroke="#63b8ff" points="2141.42,-368.88 2143,-379.36 2148.3,-370.18 2141.42,-368.88"/>
</g>
<!-- Node42&#45;&gt;Node19 -->
<g id="edge72" class="edge">
<title>Node42&#45;&gt;Node19</title>
<path fill="none" stroke="#63b8ff" d="M911.79,-450.23C1097.67,-440.42 1577.58,-409.7 1972,-338 2077.02,-318.91 2395.69,-228.91 2495.07,-200.57"/>
<polygon fill="#63b8ff" stroke="#63b8ff" points="911.37,-446.75 901.57,-450.77 911.73,-453.74 911.37,-446.75"/>
</g>
<!-- Node42&#45;&gt;Node21 -->
<g id="edge71" class="edge">
<title>Node42&#45;&gt;Node21</title>
<path fill="none" stroke="#63b8ff" d="M805.95,-440.87C785.74,-430.97 757.49,-416.92 733,-404 690.63,-381.65 642.06,-354.3 613.54,-338.06"/>
<polygon fill="#63b8ff" stroke="#63b8ff" points="804.66,-444.13 815.18,-445.38 807.73,-437.84 804.66,-444.13"/>
</g>
<!-- Node42&#45;&gt;Node26 -->
<g id="edge73" class="edge">
<title>Node42&#45;&gt;Node26</title>
<path fill="none" stroke="#63b8ff" d="M799.38,-441.27C782.17,-433.11 762.31,-420.85 750,-404 735.6,-384.29 731.96,-355.22 731.13,-338.08"/>
<polygon fill="#63b8ff" stroke="#63b8ff" points="798.05,-444.51 808.61,-445.39 800.9,-438.11 798.05,-444.51"/>
</g>
<!-- Node43 -->
<g id="node43" class="node">
<title>Node43</title>
<g id="a_node43"><a xlink:href="serialization_8h.html" target="_top" xlink:title=" ">
<polygon fill="white" stroke="#666666" points="907,-398.5 759,-398.5 759,-379.5 907,-379.5 907,-398.5"/>
<text text-anchor="middle" x="833" y="-386.5" font-family="Helvetica,sans-Serif" font-size="10.00">src/node/rpc/serialization.h</text>
</a>
</g>
</g>
<!-- Node42&#45;&gt;Node43 -->
<g id="edge74" class="edge">
<title>Node42&#45;&gt;Node43</title>
<path fill="none" stroke="#63b8ff" d="M833,-435.08C833,-423.13 833,-408.22 833,-398.91"/>
<polygon fill="#63b8ff" stroke="#63b8ff" points="829.5,-435.37 833,-445.37 836.5,-435.37 829.5,-435.37"/>
</g>
<!-- Node43&#45;&gt;Node21 -->
<g id="edge75" class="edge">
<title>Node43&#45;&gt;Node21</title>
<path fill="none" stroke="#63b8ff" d="M790.64,-376.89C749.52,-366.1 686.99,-349.7 642.47,-338.02"/>
<polygon fill="#63b8ff" stroke="#63b8ff" points="789.79,-380.28 800.35,-379.44 791.56,-373.51 789.79,-380.28"/>
</g>
<!-- Node43&#45;&gt;Node24 -->
<g id="edge76" class="edge">
<title>Node43&#45;&gt;Node24</title>
<path fill="none" stroke="#63b8ff" d="M888.72,-377.84C898.13,-376.38 907.83,-375.02 917,-374 1057.03,-358.4 1417.84,-386.83 1550,-338 1616.04,-313.6 1612.64,-272.69 1676,-242 1719.72,-220.82 1773.45,-207.9 1813.43,-200.52"/>
<polygon fill="#63b8ff" stroke="#63b8ff" points="887.97,-374.42 878.65,-379.47 889.08,-381.33 887.97,-374.42"/>
</g>
<!-- Node43&#45;&gt;Node26 -->
<g id="edge77" class="edge">
<title>Node43&#45;&gt;Node26</title>
<path fill="none" stroke="#63b8ff" d="M810.55,-373.91C793.6,-363.28 770.45,-348.75 753.5,-338.12"/>
<polygon fill="#63b8ff" stroke="#63b8ff" points="808.91,-377.02 819.24,-379.37 812.63,-371.09 808.91,-377.02"/>
</g>
<!-- Node43&#45;&gt;Node27 -->
<g id="edge78" class="edge">
<title>Node43&#45;&gt;Node27</title>
<path fill="none" stroke="#63b8ff" d="M888.72,-377.81C898.13,-376.35 907.83,-375 917,-374 1216.96,-341.14 1294.2,-362.04 1595,-338 1613.81,-336.5 1634.1,-334.51 1652.97,-332.5"/>
<polygon fill="#63b8ff" stroke="#63b8ff" points="887.96,-374.39 878.65,-379.44 889.08,-381.3 887.96,-374.39"/>
</g>
</g>
</svg>
