<?xml version="1.0" encoding="UTF-8" standalone="no"?>
<!DOCTYPE svg PUBLIC "-//W3C//DTD SVG 1.1//EN"
 "http://www.w3.org/Graphics/SVG/1.1/DTD/svg11.dtd">
<!-- Generated by graphviz version 2.43.0 (0)
 -->
<!-- Title: ccf::historical::StateCacheImpl Pages: 1 -->
<!--zoomable 471 -->
<svg id="main" version="1.1" xmlns="http://www.w3.org/2000/svg" xmlns:xlink="http://www.w3.org/1999/xlink" xml:space="preserve" onload="init(evt)">
<style type="text/css"><![CDATA[
.edge:hover path { stroke: red; }
.edge:hover polygon { stroke: red; fill: red; }
]]></style>
<script type="text/javascript"><![CDATA[
var edges = document.getElementsByTagName('g');
if (edges && edges.length) {
  for (var i=0;i<edges.length;i++) {
    if (edges[i].id.substr(0,4)=='edge') {
      edges[i].setAttribute('class','edge');
    }
  }
}
]]></script>
        <defs>
                <circle id="rim" cx="0" cy="0" r="7"/>
                <circle id="rim2" cx="0" cy="0" r="3.5"/>
                <g id="zoomPlus">
                        <use xlink:href="#rim" fill="#404040">
                                <set attributeName="fill" to="#808080" begin="zoomplus.mouseover" end="zoomplus.mouseout"/>
                        </use>
                        <path d="M-4,0h8M0,-4v8" fill="none" stroke="white" stroke-width="1.5" pointer-events="none"/>
                </g>
                <g id="zoomMin">
                        <use xlink:href="#rim" fill="#404040">
                                <set attributeName="fill" to="#808080" begin="zoomminus.mouseover" end="zoomminus.mouseout"/>
                        </use>
                        <path d="M-4,0h8" fill="none" stroke="white" stroke-width="1.5" pointer-events="none"/>
                </g>
                <g id="dirArrow">
                        <path fill="none" stroke="white" stroke-width="1.5" d="M0,-3.0v7 M-2.5,-0.5L0,-3.0L2.5,-0.5"/>
                </g>
               <g id="resetDef">
                       <use xlink:href="#rim2" fill="#404040">
                               <set attributeName="fill" to="#808080" begin="reset.mouseover" end="reset.mouseout"/>
                       </use>
               </g>
        </defs>

<script type="text/javascript">
var viewWidth = 2950;
var viewHeight = 471;
var sectionId = 'dynsection-0';
</script>
<script xlink:href="svgpan.js"/>
<svg id="graph" class="graph">
<g id="viewport">
<title>ccf::historical::StateCacheImpl</title>
<!-- Node1 -->
<g id="node1" class="node">
<title>Node1</title>
<g id="a_node1"><a xlink:title=" ">
<polygon fill="#999999" stroke="#666666" points="2942,-248 2778,-248 2778,-229 2942,-229 2942,-248"/>
<text text-anchor="middle" x="2860" y="-236" font-family="Helvetica,sans-Serif" font-size="10.00">ccf::historical::StateCacheImpl</text>
</a>
</g>
</g>
<!-- Node2 -->
<g id="node2" class="node">
<title>Node2</title>
<g id="a_node2"><a xlink:href="classkv_1_1Store.html" target="_top" xlink:title=" ">
<polygon fill="white" stroke="#666666" points="928,-368 869,-368 869,-349 928,-349 928,-368"/>
<text text-anchor="middle" x="898.5" y="-356" font-family="Helvetica,sans-Serif" font-size="10.00">kv::Store</text>
</a>
</g>
</g>
<!-- Node2&#45;&gt;Node1 -->
<g id="edge1" class="edge">
<title>Node2&#45;&gt;Node1</title>
<path fill="none" stroke="#9a32cd" stroke-dasharray="5,2" d="M938.26,-363.31C987.1,-368.93 1073.63,-377.5 1148,-377.5 1148,-377.5 1148,-377.5 2534.5,-377.5 2635.86,-377.5 2670.2,-390.5 2760,-343.5 2804.39,-320.26 2839.85,-269.25 2853.23,-248.04"/>
<polygon fill="#9a32cd" stroke="#9a32cd" points="938.48,-359.81 928.14,-362.12 937.67,-366.76 938.48,-359.81"/>
<text text-anchor="middle" x="1891" y="-380.5" font-family="Helvetica,sans-Serif" font-size="10.00"> source_store</text>
</g>
<!-- Node31 -->
<g id="node31" class="node">
<title>Node31</title>
<g id="a_node31"><a xlink:title=" ">
<polygon fill="white" stroke="#666666" points="1205.5,-303.5 1092.5,-303.5 1092.5,-273.5 1205.5,-273.5 1205.5,-303.5"/>
<text text-anchor="start" x="1100.5" y="-291.5" font-family="Helvetica,sans-Serif" font-size="10.00">std::shared_ptr&lt; kv</text>
<text text-anchor="middle" x="1149" y="-280.5" font-family="Helvetica,sans-Serif" font-size="10.00">::Store &gt;</text>
</a>
</g>
</g>
<!-- Node2&#45;&gt;Node31 -->
<g id="edge31" class="edge">
<title>Node2&#45;&gt;Node31</title>
<path fill="none" stroke="#9a32cd" stroke-dasharray="5,2" d="M937.85,-347.7C979.84,-335.87 1047.48,-316.82 1094.64,-303.53"/>
<polygon fill="#9a32cd" stroke="#9a32cd" points="936.68,-344.39 928.01,-350.47 938.58,-351.13 936.68,-344.39"/>
<text text-anchor="middle" x="1007.5" y="-340.5" font-family="Helvetica,sans-Serif" font-size="10.00"> ptr</text>
</g>
<!-- Node3 -->
<g id="node3" class="node">
<title>Node3</title>
<g id="a_node3"><a xlink:href="classkv_1_1AbstractStore.html" target="_top" xlink:title=" ">
<polygon fill="white" stroke="#666666" points="696.5,-463 596.5,-463 596.5,-444 696.5,-444 696.5,-463"/>
<text text-anchor="middle" x="646.5" y="-451" font-family="Helvetica,sans-Serif" font-size="10.00">kv::AbstractStore</text>
</a>
</g>
</g>
<!-- Node3&#45;&gt;Node2 -->
<g id="edge2" class="edge">
<title>Node3&#45;&gt;Node2</title>
<path fill="none" stroke="#63b8ff" d="M682.48,-440.21C733.64,-420.77 827.64,-385.05 872.46,-368.02"/>
<polygon fill="#63b8ff" stroke="#63b8ff" points="680.95,-437.04 672.85,-443.87 683.44,-443.59 680.95,-437.04"/>
</g>
<!-- Node4 -->
<g id="node4" class="node">
<title>Node4</title>
<g id="a_node4"><a xlink:href="classkv_1_1StoreState.html" target="_top" xlink:title=" ">
<polygon fill="white" stroke="#666666" points="689,-302 604,-302 604,-283 689,-283 689,-302"/>
<text text-anchor="middle" x="646.5" y="-290" font-family="Helvetica,sans-Serif" font-size="10.00">kv::StoreState</text>
</a>
</g>
</g>
<!-- Node4&#45;&gt;Node2 -->
<g id="edge3" class="edge">
<title>Node4&#45;&gt;Node2</title>
<path fill="none" stroke="#63b8ff" d="M693.41,-304.62C744.63,-318.14 825.91,-339.6 868.81,-350.93"/>
<polygon fill="#63b8ff" stroke="#63b8ff" points="694.15,-301.2 683.59,-302.03 692.36,-307.96 694.15,-301.2"/>
</g>
<!-- Node5 -->
<g id="node5" class="node">
<title>Node5</title>
<g id="a_node5"><a xlink:title=" ">
<polygon fill="white" stroke="#666666" points="374,-416 305,-416 305,-397 374,-397 374,-416"/>
<text text-anchor="middle" x="339.5" y="-404" font-family="Helvetica,sans-Serif" font-size="10.00">std::mutex</text>
</a>
</g>
</g>
<!-- Node5&#45;&gt;Node1 -->
<g id="edge39" class="edge">
<title>Node5&#45;&gt;Node1</title>
<path fill="none" stroke="#9a32cd" stroke-dasharray="5,2" d="M384.47,-408.61C443.73,-411.27 552.55,-415.5 645.5,-415.5 645.5,-415.5 645.5,-415.5 2534.5,-415.5 2636.37,-415.5 2673.73,-428.67 2760,-374.5 2811.2,-342.35 2844.33,-273.27 2855.13,-248.01"/>
<polygon fill="#9a32cd" stroke="#9a32cd" points="384.49,-405.11 374.34,-408.15 384.17,-412.1 384.49,-405.11"/>
<text text-anchor="middle" x="1578.5" y="-418.5" font-family="Helvetica,sans-Serif" font-size="10.00"> requests_lock</text>
</g>
<!-- Node5&#45;&gt;Node4 -->
<g id="edge4" class="edge">
<title>Node5&#45;&gt;Node4</title>
<path fill="none" stroke="#9a32cd" stroke-dasharray="5,2" d="M376.45,-393.25C387.65,-388.85 399.95,-383.73 411,-378.5 419.27,-374.58 420.45,-371.77 429,-368.5 475.83,-350.59 497.2,-371.19 539,-343.5 550.41,-335.94 545.83,-326.41 557,-318.5 570.72,-308.78 588.08,-302.66 603.77,-298.82"/>
<polygon fill="#9a32cd" stroke="#9a32cd" points="375.03,-390.05 366.96,-396.92 377.55,-396.58 375.03,-390.05"/>
<text text-anchor="middle" x="484" y="-393.5" font-family="Helvetica,sans-Serif" font-size="10.00"> commit_lock</text>
<text text-anchor="middle" x="484" y="-382.5" font-family="Helvetica,sans-Serif" font-size="10.00">maps_lock</text>
<text text-anchor="middle" x="484" y="-371.5" font-family="Helvetica,sans-Serif" font-size="10.00">version_lock</text>
</g>
<!-- Node6 -->
<g id="node6" class="node">
<title>Node6</title>
<g id="a_node6"><a xlink:title=" ">
<polygon fill="white" stroke="#666666" points="411,-369.5 268,-369.5 268,-317.5 411,-317.5 411,-369.5"/>
<text text-anchor="start" x="276" y="-357.5" font-family="Helvetica,sans-Serif" font-size="10.00">std::map&lt; std::string,</text>
<text text-anchor="start" x="276" y="-346.5" font-family="Helvetica,sans-Serif" font-size="10.00"> std::pair&lt; kv::Version,</text>
<text text-anchor="start" x="276" y="-335.5" font-family="Helvetica,sans-Serif" font-size="10.00"> std::shared_ptr&lt; untyped</text>
<text text-anchor="middle" x="339.5" y="-324.5" font-family="Helvetica,sans-Serif" font-size="10.00">::Map &gt; &gt; &gt;</text>
</a>
</g>
</g>
<!-- Node6&#45;&gt;Node4 -->
<g id="edge5" class="edge">
<title>Node6&#45;&gt;Node4</title>
<path fill="none" stroke="#9a32cd" stroke-dasharray="5,2" d="M421.26,-330.79C457.32,-325.04 500.31,-318.07 539,-311.5 560.39,-307.87 584.15,-303.65 603.8,-300.11"/>
<polygon fill="#9a32cd" stroke="#9a32cd" points="420.61,-327.35 411.29,-332.38 421.71,-334.27 420.61,-327.35"/>
<text text-anchor="middle" x="484" y="-331.5" font-family="Helvetica,sans-Serif" font-size="10.00"> maps</text>
</g>
<!-- Node7 -->
<g id="node7" class="node">
<title>Node7</title>
<g id="a_node7"><a xlink:title=" ">
<polygon fill="white" stroke="#666666" points="206,-353 141,-353 141,-334 206,-334 206,-353"/>
<text text-anchor="middle" x="173.5" y="-341" font-family="Helvetica,sans-Serif" font-size="10.00">std::string</text>
</a>
</g>
</g>
<!-- Node7&#45;&gt;Node6 -->
<g id="edge6" class="edge">
<title>Node7&#45;&gt;Node6</title>
<path fill="none" stroke="#9a32cd" stroke-dasharray="5,2" d="M216.51,-343.5C232.17,-343.5 250.4,-343.5 267.92,-343.5"/>
<polygon fill="#9a32cd" stroke="#9a32cd" points="216.12,-340 206.12,-343.5 216.12,-347 216.12,-340"/>
<text text-anchor="middle" x="237" y="-346.5" font-family="Helvetica,sans-Serif" font-size="10.00"> keys</text>
</g>
<!-- Node8 -->
<g id="node8" class="node">
<title>Node8</title>
<g id="a_node8"><a xlink:title=" ">
<polygon fill="white" stroke="#666666" points="104,-358.5 0,-358.5 0,-328.5 104,-328.5 104,-358.5"/>
<text text-anchor="start" x="8" y="-346.5" font-family="Helvetica,sans-Serif" font-size="10.00">std::basic_string&lt;</text>
<text text-anchor="middle" x="52" y="-335.5" font-family="Helvetica,sans-Serif" font-size="10.00"> Char &gt;</text>
</a>
</g>
</g>
<!-- Node8&#45;&gt;Node7 -->
<g id="edge7" class="edge">
<title>Node8&#45;&gt;Node7</title>
<path fill="none" stroke="#63b8ff" d="M114.1,-343.5C123.41,-343.5 132.68,-343.5 141,-343.5"/>
<polygon fill="#63b8ff" stroke="#63b8ff" points="114.03,-340 104.03,-343.5 114.03,-347 114.03,-340"/>
</g>
<!-- Node9 -->
<g id="node9" class="node">
<title>Node9</title>
<g id="a_node9"><a xlink:title=" ">
<polygon fill="white" stroke="#666666" points="404.5,-299 274.5,-299 274.5,-280 404.5,-280 404.5,-299"/>
<text text-anchor="middle" x="339.5" y="-287" font-family="Helvetica,sans-Serif" font-size="10.00">std::atomic&lt; Version &gt;</text>
</a>
</g>
</g>
<!-- Node9&#45;&gt;Node4 -->
<g id="edge8" class="edge">
<title>Node9&#45;&gt;Node4</title>
<path fill="none" stroke="#9a32cd" stroke-dasharray="5,2" d="M415.13,-289C452.35,-288.88 498.05,-288.92 539,-289.5 560.36,-289.8 584.13,-290.44 603.78,-291.05"/>
<polygon fill="#9a32cd" stroke="#9a32cd" points="414.86,-285.5 404.87,-289.04 414.88,-292.5 414.86,-285.5"/>
<text text-anchor="middle" x="484" y="-303.5" font-family="Helvetica,sans-Serif" font-size="10.00"> compacted</text>
<text text-anchor="middle" x="484" y="-292.5" font-family="Helvetica,sans-Serif" font-size="10.00">version</text>
</g>
<!-- Node10 -->
<g id="node10" class="node">
<title>Node10</title>
<g id="a_node10"><a xlink:title=" ">
<polygon fill="white" stroke="#666666" points="398.5,-262 280.5,-262 280.5,-243 398.5,-243 398.5,-262"/>
<text text-anchor="middle" x="339.5" y="-250" font-family="Helvetica,sans-Serif" font-size="10.00">std::atomic&lt; Term &gt;</text>
</a>
</g>
</g>
<!-- Node10&#45;&gt;Node4 -->
<g id="edge9" class="edge">
<title>Node10&#45;&gt;Node4</title>
<path fill="none" stroke="#9a32cd" stroke-dasharray="5,2" d="M408.85,-258.52C447.19,-262.2 495.85,-267.38 539,-273.5 560.48,-276.55 584.25,-280.71 603.88,-284.37"/>
<polygon fill="#9a32cd" stroke="#9a32cd" points="409.11,-255.03 398.83,-257.57 408.45,-262 409.11,-255.03"/>
<text text-anchor="middle" x="484" y="-276.5" font-family="Helvetica,sans-Serif" font-size="10.00"> term_of_next_version</text>
</g>
<!-- Node11 -->
<g id="node11" class="node">
<title>Node11</title>
<g id="a_node11"><a xlink:title=" ">
<polygon fill="white" stroke="#666666" points="406.5,-224.5 272.5,-224.5 272.5,-172.5 406.5,-172.5 406.5,-224.5"/>
<text text-anchor="start" x="280.5" y="-212.5" font-family="Helvetica,sans-Serif" font-size="10.00">std::unordered_map</text>
<text text-anchor="start" x="280.5" y="-201.5" font-family="Helvetica,sans-Serif" font-size="10.00">&lt; Version, std::tuple</text>
<text text-anchor="start" x="280.5" y="-190.5" font-family="Helvetica,sans-Serif" font-size="10.00">&lt; std::unique_ptr&lt; kv</text>
<text text-anchor="middle" x="339.5" y="-179.5" font-family="Helvetica,sans-Serif" font-size="10.00">::PendingTx &gt;, bool &gt; &gt;</text>
</a>
</g>
</g>
<!-- Node11&#45;&gt;Node4 -->
<g id="edge10" class="edge">
<title>Node11&#45;&gt;Node4</title>
<path fill="none" stroke="#9a32cd" stroke-dasharray="5,2" d="M416.43,-213.06C453.8,-221.09 499.25,-232.15 539,-245.5 570.61,-256.12 605.72,-272.57 626.68,-282.93"/>
<polygon fill="#9a32cd" stroke="#9a32cd" points="417.12,-209.63 406.61,-210.98 415.67,-216.48 417.12,-209.63"/>
<text text-anchor="middle" x="484" y="-248.5" font-family="Helvetica,sans-Serif" font-size="10.00"> pending_txs</text>
</g>
<!-- Node12 -->
<g id="node12" class="node">
<title>Node12</title>
<g id="a_node12"><a xlink:href="classkv_1_1ExecutionWrapperStore.html" target="_top" xlink:title=" ">
<polygon fill="white" stroke="#666666" points="720.5,-383 572.5,-383 572.5,-364 720.5,-364 720.5,-383"/>
<text text-anchor="middle" x="646.5" y="-371" font-family="Helvetica,sans-Serif" font-size="10.00">kv::ExecutionWrapperStore</text>
</a>
</g>
</g>
<!-- Node12&#45;&gt;Node2 -->
<g id="edge11" class="edge">
<title>Node12&#45;&gt;Node2</title>
<path fill="none" stroke="#63b8ff" d="M730.86,-368.5C778.59,-365.63 835.48,-362.22 868.92,-360.21"/>
<polygon fill="#63b8ff" stroke="#63b8ff" points="730.59,-365.01 720.82,-369.1 731.01,-372 730.59,-365.01"/>
</g>
<!-- Node13 -->
<g id="node13" class="node">
<title>Node13</title>
<g id="a_node13"><a xlink:href="classkv_1_1ReadOnlyStore.html" target="_top" xlink:title=" ">
<polygon fill="white" stroke="#666666" points="700,-346 593,-346 593,-327 700,-327 700,-346"/>
<text text-anchor="middle" x="646.5" y="-334" font-family="Helvetica,sans-Serif" font-size="10.00">kv::ReadOnlyStore</text>
</a>
</g>
</g>
<!-- Node13&#45;&gt;Node2 -->
<g id="edge12" class="edge">
<title>Node13&#45;&gt;Node2</title>
<path fill="none" stroke="#63b8ff" d="M710.45,-342.04C761.33,-346.52 830.59,-352.61 868.95,-355.99"/>
<polygon fill="#63b8ff" stroke="#63b8ff" points="710.48,-338.53 700.21,-341.14 709.87,-345.5 710.48,-338.53"/>
</g>
<!-- Node14 -->
<g id="node14" class="node">
<title>Node14</title>
<g id="a_node14"><a xlink:title=" ">
<polygon fill="white" stroke="#666666" points="2591,-349.5 2476,-349.5 2476,-319.5 2591,-319.5 2591,-349.5"/>
<text text-anchor="start" x="2484" y="-337.5" font-family="Helvetica,sans-Serif" font-size="10.00">std::shared_ptr&lt; ccf</text>
<text text-anchor="middle" x="2533.5" y="-326.5" font-family="Helvetica,sans-Serif" font-size="10.00">::LedgerSecrets &gt;</text>
</a>
</g>
</g>
<!-- Node14&#45;&gt;Node1 -->
<g id="edge13" class="edge">
<title>Node14&#45;&gt;Node1</title>
<path fill="none" stroke="#9a32cd" stroke-dasharray="5,2" d="M2601.17,-324.67C2646.67,-316.9 2707.91,-304.38 2760,-286.5 2790.17,-276.15 2823.11,-258.87 2842.36,-248.12"/>
<polygon fill="#9a32cd" stroke="#9a32cd" points="2600.41,-321.24 2591.12,-326.35 2601.56,-328.15 2600.41,-321.24"/>
<text text-anchor="middle" x="2697.5" y="-331.5" font-family="Helvetica,sans-Serif" font-size="10.00"> historical_ledger_secrets</text>
<text text-anchor="middle" x="2697.5" y="-320.5" font-family="Helvetica,sans-Serif" font-size="10.00">source_ledger_secrets</text>
</g>
<!-- Node15 -->
<g id="node15" class="node">
<title>Node15</title>
<g id="a_node15"><a xlink:href="classccf_1_1LedgerSecrets.html" target="_top" xlink:title=" ">
<polygon fill="white" stroke="#666666" points="2344,-344 2239,-344 2239,-325 2344,-325 2344,-344"/>
<text text-anchor="middle" x="2291.5" y="-332" font-family="Helvetica,sans-Serif" font-size="10.00">ccf::LedgerSecrets</text>
</a>
</g>
</g>
<!-- Node15&#45;&gt;Node14 -->
<g id="edge14" class="edge">
<title>Node15&#45;&gt;Node14</title>
<path fill="none" stroke="#9a32cd" stroke-dasharray="5,2" d="M2354.56,-334.5C2392,-334.5 2439.34,-334.5 2475.78,-334.5"/>
<polygon fill="#9a32cd" stroke="#9a32cd" points="2354.28,-331 2344.28,-334.5 2354.28,-338 2354.28,-331"/>
<text text-anchor="middle" x="2406.5" y="-337.5" font-family="Helvetica,sans-Serif" font-size="10.00"> ptr</text>
</g>
<!-- Node16 -->
<g id="node16" class="node">
<title>Node16</title>
<g id="a_node16"><a xlink:title=" ">
<polygon fill="white" stroke="#666666" points="2604,-301.5 2463,-301.5 2463,-271.5 2604,-271.5 2604,-301.5"/>
<text text-anchor="start" x="2471" y="-289.5" font-family="Helvetica,sans-Serif" font-size="10.00">std::shared_ptr&lt; Abstract</text>
<text text-anchor="middle" x="2533.5" y="-278.5" font-family="Helvetica,sans-Serif" font-size="10.00">Writer &gt;</text>
</a>
</g>
</g>
<!-- Node16&#45;&gt;Node1 -->
<g id="edge15" class="edge">
<title>Node16&#45;&gt;Node1</title>
<path fill="none" stroke="#9a32cd" stroke-dasharray="5,2" d="M2614.26,-274.93C2657.41,-268.64 2711.63,-260.7 2760,-253.5 2771.78,-251.75 2784.34,-249.86 2796.43,-248.03"/>
<polygon fill="#9a32cd" stroke="#9a32cd" points="2613.49,-271.5 2604.1,-276.41 2614.5,-278.43 2613.49,-271.5"/>
<text text-anchor="middle" x="2697.5" y="-274.5" font-family="Helvetica,sans-Serif" font-size="10.00"> to_host</text>
</g>
<!-- Node17 -->
<g id="node17" class="node">
<title>Node17</title>
<g id="a_node17"><a xlink:title=" ">
<polygon fill="white" stroke="#666666" points="2590,-253.5 2477,-253.5 2477,-223.5 2590,-223.5 2590,-253.5"/>
<text text-anchor="start" x="2485" y="-241.5" font-family="Helvetica,sans-Serif" font-size="10.00">std::shared_ptr&lt; kv</text>
<text text-anchor="middle" x="2533.5" y="-230.5" font-family="Helvetica,sans-Serif" font-size="10.00">::TxEncryptor &gt;</text>
</a>
</g>
</g>
<!-- Node17&#45;&gt;Node1 -->
<g id="edge16" class="edge">
<title>Node17&#45;&gt;Node1</title>
<path fill="none" stroke="#9a32cd" stroke-dasharray="5,2" d="M2600.58,-238.5C2651.83,-238.5 2723.11,-238.5 2777.83,-238.5"/>
<polygon fill="#9a32cd" stroke="#9a32cd" points="2600.28,-235 2590.28,-238.5 2600.28,-242 2600.28,-235"/>
<text text-anchor="middle" x="2697.5" y="-241.5" font-family="Helvetica,sans-Serif" font-size="10.00"> historical_encryptor</text>
</g>
<!-- Node18 -->
<g id="node18" class="node">
<title>Node18</title>
<g id="a_node18"><a xlink:href="classkv_1_1TxEncryptor.html" target="_top" xlink:title=" ">
<polygon fill="white" stroke="#666666" points="2358,-248 2225,-248 2225,-229 2358,-229 2358,-248"/>
<text text-anchor="middle" x="2291.5" y="-236" font-family="Helvetica,sans-Serif" font-size="10.00">kv::TxEncryptor&lt; T, S &gt;</text>
</a>
</g>
</g>
<!-- Node18&#45;&gt;Node17 -->
<g id="edge17" class="edge">
<title>Node18&#45;&gt;Node17</title>
<path fill="none" stroke="#9a32cd" stroke-dasharray="5,2" d="M2368.31,-238.5C2403.46,-238.5 2444.51,-238.5 2476.76,-238.5"/>
<polygon fill="#9a32cd" stroke="#9a32cd" points="2368.08,-235 2358.08,-238.5 2368.08,-242 2368.08,-235"/>
<text text-anchor="middle" x="2406.5" y="-241.5" font-family="Helvetica,sans-Serif" font-size="10.00"> ptr</text>
</g>
<!-- Node19 -->
<g id="node19" class="node">
<title>Node19</title>
<g id="a_node19"><a xlink:href="classkv_1_1AbstractTxEncryptor.html" target="_top" xlink:title=" ">
<polygon fill="white" stroke="#666666" points="2075,-248 1942,-248 1942,-229 2075,-229 2075,-248"/>
<text text-anchor="middle" x="2008.5" y="-236" font-family="Helvetica,sans-Serif" font-size="10.00">kv::AbstractTxEncryptor</text>
</a>
</g>
</g>
<!-- Node19&#45;&gt;Node18 -->
<g id="edge18" class="edge">
<title>Node19&#45;&gt;Node18</title>
<path fill="none" stroke="#63b8ff" d="M2085.29,-238.5C2128.89,-238.5 2183.11,-238.5 2224.87,-238.5"/>
<polygon fill="#63b8ff" stroke="#63b8ff" points="2085.03,-235 2075.03,-238.5 2085.03,-242 2085.03,-235"/>
</g>
<!-- Node20 -->
<g id="node20" class="node">
<title>Node20</title>
<g id="a_node20"><a xlink:href="structccf_1_1historical_1_1StateCacheImpl_1_1VersionedSecret.html" target="_top" xlink:title=" ">
<polygon fill="white" stroke="#666666" points="1650,-210.5 1507,-210.5 1507,-180.5 1650,-180.5 1650,-210.5"/>
<text text-anchor="start" x="1515" y="-198.5" font-family="Helvetica,sans-Serif" font-size="10.00">ccf::historical::StateCache</text>
<text text-anchor="middle" x="1578.5" y="-187.5" font-family="Helvetica,sans-Serif" font-size="10.00">Impl::VersionedSecret</text>
</a>
</g>
</g>
<!-- Node20&#45;&gt;Node1 -->
<g id="edge19" class="edge">
<title>Node20&#45;&gt;Node1</title>
<path fill="none" stroke="#9a32cd" stroke-dasharray="5,2" d="M1660.31,-195.5C1722.98,-195.5 1812,-195.5 1890,-195.5 1890,-195.5 1890,-195.5 2534.5,-195.5 2635.66,-195.5 2753.02,-216.29 2815.16,-228.96"/>
<polygon fill="#9a32cd" stroke="#9a32cd" points="1660.1,-192 1650.1,-195.5 1660.1,-199 1660.1,-192"/>
<text text-anchor="middle" x="2147.5" y="-198.5" font-family="Helvetica,sans-Serif" font-size="10.00"> earliest_secret_</text>
</g>
<!-- Node21 -->
<g id="node21" class="node">
<title>Node21</title>
<g id="a_node21"><a xlink:title=" ">
<polygon fill="white" stroke="#666666" points="1237,-207 1061,-207 1061,-188 1237,-188 1237,-207"/>
<text text-anchor="middle" x="1149" y="-195" font-family="Helvetica,sans-Serif" font-size="10.00">std::shared_ptr&lt; LedgerSecret &gt;</text>
</a>
</g>
</g>
<!-- Node21&#45;&gt;Node20 -->
<g id="edge20" class="edge">
<title>Node21&#45;&gt;Node20</title>
<path fill="none" stroke="#9a32cd" stroke-dasharray="5,2" d="M1247.25,-196.55C1249.86,-196.53 1252.45,-196.52 1255,-196.5 1341.64,-195.95 1441.38,-195.7 1506.72,-195.59"/>
<polygon fill="#9a32cd" stroke="#9a32cd" points="1247.06,-193.05 1237.09,-196.63 1247.12,-200.05 1247.06,-193.05"/>
<text text-anchor="middle" x="1291.5" y="-199.5" font-family="Helvetica,sans-Serif" font-size="10.00"> secret</text>
</g>
<!-- Node22 -->
<g id="node22" class="node">
<title>Node22</title>
<g id="a_node22"><a xlink:href="structccf_1_1LedgerSecret.html" target="_top" xlink:title=" ">
<polygon fill="white" stroke="#666666" points="948.5,-208 848.5,-208 848.5,-189 948.5,-189 948.5,-208"/>
<text text-anchor="middle" x="898.5" y="-196" font-family="Helvetica,sans-Serif" font-size="10.00">ccf::LedgerSecret</text>
</a>
</g>
</g>
<!-- Node22&#45;&gt;Node21 -->
<g id="edge21" class="edge">
<title>Node22&#45;&gt;Node21</title>
<path fill="none" stroke="#9a32cd" stroke-dasharray="5,2" d="M958.65,-198.26C989.16,-198.14 1026.98,-197.99 1060.78,-197.85"/>
<polygon fill="#9a32cd" stroke="#9a32cd" points="958.58,-194.76 948.6,-198.3 958.61,-201.76 958.58,-194.76"/>
<text text-anchor="middle" x="1007.5" y="-201.5" font-family="Helvetica,sans-Serif" font-size="10.00"> ptr</text>
</g>
<!-- Node23 -->
<g id="node23" class="node">
<title>Node23</title>
<g id="a_node23"><a xlink:title=" ">
<polygon fill="white" stroke="#666666" points="709,-211 584,-211 584,-192 709,-192 709,-211"/>
<text text-anchor="middle" x="646.5" y="-199" font-family="Helvetica,sans-Serif" font-size="10.00">std::vector&lt; uint8_t &gt;</text>
</a>
</g>
</g>
<!-- Node23&#45;&gt;Node22 -->
<g id="edge22" class="edge">
<title>Node23&#45;&gt;Node22</title>
<path fill="none" stroke="#9a32cd" stroke-dasharray="5,2" d="M719.3,-200.64C760.57,-200.14 811.35,-199.53 848.13,-199.09"/>
<polygon fill="#9a32cd" stroke="#9a32cd" points="719.26,-197.14 709.3,-200.76 719.34,-204.14 719.26,-197.14"/>
<text text-anchor="middle" x="789.5" y="-203.5" font-family="Helvetica,sans-Serif" font-size="10.00"> raw_key</text>
</g>
<!-- Node33 -->
<g id="node33" class="node">
<title>Node33</title>
<g id="a_node33"><a xlink:href="structccf_1_1TxReceiptImpl.html" target="_top" xlink:title=" ">
<polygon fill="white" stroke="#666666" points="952,-79 845,-79 845,-60 952,-60 952,-79"/>
<text text-anchor="middle" x="898.5" y="-67" font-family="Helvetica,sans-Serif" font-size="10.00">ccf::TxReceiptImpl</text>
</a>
</g>
</g>
<!-- Node23&#45;&gt;Node33 -->
<g id="edge34" class="edge">
<title>Node23&#45;&gt;Node33</title>
<path fill="none" stroke="#9a32cd" stroke-dasharray="5,2" d="M714.01,-190.08C756.51,-181.83 806.92,-169.98 825,-157.5 836.57,-149.52 834.35,-142.57 843,-131.5 858,-112.3 877.11,-91.26 888.26,-79.29"/>
<polygon fill="#9a32cd" stroke="#9a32cd" points="713.13,-186.68 703.96,-191.99 714.44,-193.56 713.13,-186.68"/>
<text text-anchor="middle" x="789.5" y="-184.5" font-family="Helvetica,sans-Serif" font-size="10.00"> signature</text>
</g>
<!-- Node24 -->
<g id="node24" class="node">
<title>Node24</title>
<g id="a_node24"><a xlink:title=" ">
<polygon fill="white" stroke="#666666" points="712,-160.5 581,-160.5 581,-130.5 712,-130.5 712,-160.5"/>
<text text-anchor="start" x="589" y="-148.5" font-family="Helvetica,sans-Serif" font-size="10.00">std::shared_ptr&lt; crypto</text>
<text text-anchor="middle" x="646.5" y="-137.5" font-family="Helvetica,sans-Serif" font-size="10.00">::KeyAesGcm &gt;</text>
</a>
</g>
</g>
<!-- Node24&#45;&gt;Node22 -->
<g id="edge23" class="edge">
<title>Node24&#45;&gt;Node22</title>
<path fill="none" stroke="#9a32cd" stroke-dasharray="5,2" d="M722.35,-129.5C755.91,-126.29 794.67,-128.38 825,-146.5 839.34,-155.07 830.26,-168.69 843,-179.5 847.58,-183.39 853.01,-186.5 858.64,-188.98"/>
<polygon fill="#9a32cd" stroke="#9a32cd" points="721.66,-126.06 712.12,-130.66 722.45,-133.02 721.66,-126.06"/>
<text text-anchor="middle" x="789.5" y="-149.5" font-family="Helvetica,sans-Serif" font-size="10.00"> key</text>
</g>
<!-- Node25 -->
<g id="node25" class="node">
<title>Node25</title>
<g id="a_node25"><a xlink:href="classcrypto_1_1KeyAesGcm.html" target="_top" xlink:title=" ">
<polygon fill="white" stroke="#666666" points="395.5,-154 283.5,-154 283.5,-135 395.5,-135 395.5,-154"/>
<text text-anchor="middle" x="339.5" y="-142" font-family="Helvetica,sans-Serif" font-size="10.00">crypto::KeyAesGcm</text>
</a>
</g>
</g>
<!-- Node25&#45;&gt;Node24 -->
<g id="edge24" class="edge">
<title>Node25&#45;&gt;Node24</title>
<path fill="none" stroke="#9a32cd" stroke-dasharray="5,2" d="M405.79,-144.71C457.51,-144.88 529.37,-145.12 580.9,-145.29"/>
<polygon fill="#9a32cd" stroke="#9a32cd" points="405.74,-141.21 395.73,-144.68 405.72,-148.21 405.74,-141.21"/>
<text text-anchor="middle" x="484" y="-148.5" font-family="Helvetica,sans-Serif" font-size="10.00"> ptr</text>
</g>
<!-- Node26 -->
<g id="node26" class="node">
<title>Node26</title>
<g id="a_node26"><a xlink:title=" ">
<polygon fill="white" stroke="#666666" points="1840,-123 1668,-123 1668,-104 1840,-104 1840,-123"/>
<text text-anchor="middle" x="1754" y="-111" font-family="Helvetica,sans-Serif" font-size="10.00">std::shared_ptr&lt; StoreDetails &gt;</text>
</a>
</g>
</g>
<!-- Node26&#45;&gt;Node1 -->
<g id="edge25" class="edge">
<title>Node26&#45;&gt;Node1</title>
<path fill="none" stroke="#9a32cd" stroke-dasharray="5,2" d="M1798.83,-125.59C1848.89,-138.3 1933.45,-156.5 2007.5,-156.5 2007.5,-156.5 2007.5,-156.5 2534.5,-156.5 2635.34,-156.5 2664.17,-150.12 2760,-181.5 2793.55,-192.48 2828.31,-215.75 2846.37,-228.91"/>
<polygon fill="#9a32cd" stroke="#9a32cd" points="1799.55,-122.16 1788.99,-123.04 1797.8,-128.93 1799.55,-122.16"/>
<text text-anchor="middle" x="2291.5" y="-159.5" font-family="Helvetica,sans-Serif" font-size="10.00"> next_secret_fetch_handle</text>
</g>
<!-- Node42 -->
<g id="node42" class="node">
<title>Node42</title>
<g id="a_node42"><a xlink:title=" ">
<polygon fill="white" stroke="#666666" points="2071,-128.5 1946,-128.5 1946,-98.5 2071,-98.5 2071,-128.5"/>
<text text-anchor="start" x="1954" y="-116.5" font-family="Helvetica,sans-Serif" font-size="10.00">std::map&lt; ccf::SeqNo,</text>
<text text-anchor="middle" x="2008.5" y="-105.5" font-family="Helvetica,sans-Serif" font-size="10.00"> StoreDetailsPtr &gt;</text>
</a>
</g>
</g>
<!-- Node26&#45;&gt;Node42 -->
<g id="edge46" class="edge">
<title>Node26&#45;&gt;Node42</title>
<path fill="none" stroke="#9a32cd" stroke-dasharray="5,2" d="M1850.4,-113.5C1882.38,-113.5 1917.17,-113.5 1945.86,-113.5"/>
<polygon fill="#9a32cd" stroke="#9a32cd" points="1850.13,-110 1840.13,-113.5 1850.13,-117 1850.13,-110"/>
<text text-anchor="middle" x="1891" y="-116.5" font-family="Helvetica,sans-Serif" font-size="10.00"> elements</text>
</g>
<!-- Node27 -->
<g id="node27" class="node">
<title>Node27</title>
<g id="a_node27"><a xlink:href="structccf_1_1historical_1_1StateCacheImpl_1_1StoreDetails.html" target="_top" xlink:title=" ">
<polygon fill="white" stroke="#666666" points="1489,-127.5 1346,-127.5 1346,-97.5 1489,-97.5 1489,-127.5"/>
<text text-anchor="start" x="1354" y="-115.5" font-family="Helvetica,sans-Serif" font-size="10.00">ccf::historical::StateCache</text>
<text text-anchor="middle" x="1417.5" y="-104.5" font-family="Helvetica,sans-Serif" font-size="10.00">Impl::StoreDetails</text>
</a>
</g>
</g>
<!-- Node27&#45;&gt;Node26 -->
<g id="edge26" class="edge">
<title>Node27&#45;&gt;Node26</title>
<path fill="none" stroke="#9a32cd" stroke-dasharray="5,2" d="M1499.34,-112.74C1550.28,-112.89 1615.97,-113.09 1667.74,-113.25"/>
<polygon fill="#9a32cd" stroke="#9a32cd" points="1499.04,-109.24 1489.03,-112.71 1499.02,-116.24 1499.04,-109.24"/>
<text text-anchor="middle" x="1578.5" y="-116.5" font-family="Helvetica,sans-Serif" font-size="10.00"> ptr</text>
</g>
<!-- Node28 -->
<g id="node28" class="node">
<title>Node28</title>
<g id="a_node28"><a xlink:href="classcrypto_1_1Sha256Hash.html" target="_top" xlink:title=" ">
<polygon fill="white" stroke="#666666" points="1206,-163 1092,-163 1092,-144 1206,-144 1206,-163"/>
<text text-anchor="middle" x="1149" y="-151" font-family="Helvetica,sans-Serif" font-size="10.00">crypto::Sha256Hash</text>
</a>
</g>
</g>
<!-- Node28&#45;&gt;Node27 -->
<g id="edge27" class="edge">
<title>Node28&#45;&gt;Node27</title>
<path fill="none" stroke="#9a32cd" stroke-dasharray="5,2" d="M1216.27,-143.55C1249.77,-138.5 1291.05,-132.22 1328,-126.5 1333.84,-125.59 1339.9,-124.65 1345.98,-123.7"/>
<polygon fill="#9a32cd" stroke="#9a32cd" points="1215.5,-140.13 1206.13,-145.08 1216.54,-147.05 1215.5,-140.13"/>
<text text-anchor="middle" x="1291.5" y="-140.5" font-family="Helvetica,sans-Serif" font-size="10.00"> entry_digest</text>
</g>
<!-- Node29 -->
<g id="node29" class="node">
<title>Node29</title>
<g id="a_node29"><a xlink:title=" ">
<polygon fill="white" stroke="#666666" points="954,-170.5 843,-170.5 843,-140.5 954,-140.5 954,-170.5"/>
<text text-anchor="start" x="851" y="-158.5" font-family="Helvetica,sans-Serif" font-size="10.00">std::array&lt; uint8_t,</text>
<text text-anchor="middle" x="898.5" y="-147.5" font-family="Helvetica,sans-Serif" font-size="10.00"> SIZE &gt;</text>
</a>
</g>
</g>
<!-- Node29&#45;&gt;Node28 -->
<g id="edge28" class="edge">
<title>Node29&#45;&gt;Node28</title>
<path fill="none" stroke="#9a32cd" stroke-dasharray="5,2" d="M964.12,-154.98C1003.73,-154.66 1053.93,-154.26 1091.87,-153.95"/>
<polygon fill="#9a32cd" stroke="#9a32cd" points="964.01,-151.48 954.03,-155.06 964.06,-158.48 964.01,-151.48"/>
<text text-anchor="middle" x="1007.5" y="-158.5" font-family="Helvetica,sans-Serif" font-size="10.00"> h</text>
</g>
<!-- Node30 -->
<g id="node30" class="node">
<title>Node30</title>
<g id="a_node30"><a xlink:href="classccf_1_1ClaimsDigest.html" target="_top" xlink:title=" ">
<polygon fill="white" stroke="#666666" points="697,-109 596,-109 596,-90 697,-90 697,-109"/>
<text text-anchor="middle" x="646.5" y="-97" font-family="Helvetica,sans-Serif" font-size="10.00">ccf::ClaimsDigest</text>
</a>
</g>
</g>
<!-- Node30&#45;&gt;Node27 -->
<g id="edge29" class="edge">
<title>Node30&#45;&gt;Node27</title>
<path fill="none" stroke="#9a32cd" stroke-dasharray="5,2" d="M707.17,-100.51C847.09,-102.87 1195.79,-108.77 1345.92,-111.31"/>
<polygon fill="#9a32cd" stroke="#9a32cd" points="707.13,-97.01 697.07,-100.34 707.01,-104.01 707.13,-97.01"/>
<text text-anchor="middle" x="1007.5" y="-109.5" font-family="Helvetica,sans-Serif" font-size="10.00"> claims_digest</text>
</g>
<!-- Node30&#45;&gt;Node33 -->
<g id="edge37" class="edge">
<title>Node30&#45;&gt;Node33</title>
<path fill="none" stroke="#9a32cd" stroke-dasharray="5,2" d="M707.26,-92.33C749.16,-87.3 804.66,-80.64 844.88,-75.81"/>
<polygon fill="#9a32cd" stroke="#9a32cd" points="706.7,-88.87 697.19,-93.54 707.54,-95.82 706.7,-88.87"/>
<text text-anchor="middle" x="789.5" y="-89.5" font-family="Helvetica,sans-Serif" font-size="10.00"> claims_digest</text>
</g>
<!-- Node31&#45;&gt;Node27 -->
<g id="edge30" class="edge">
<title>Node31&#45;&gt;Node27</title>
<path fill="none" stroke="#9a32cd" stroke-dasharray="5,2" d="M1209.3,-270.16C1245.62,-257.21 1291.9,-237.53 1328,-211.5 1361.28,-187.5 1391.07,-149.01 1406.13,-127.79"/>
<polygon fill="#9a32cd" stroke="#9a32cd" points="1208.11,-266.87 1199.82,-273.47 1210.41,-273.48 1208.11,-266.87"/>
<text text-anchor="middle" x="1291.5" y="-252.5" font-family="Helvetica,sans-Serif" font-size="10.00"> store</text>
</g>
<!-- Node32 -->
<g id="node32" class="node">
<title>Node32</title>
<g id="a_node32"><a xlink:title=" ">
<polygon fill="white" stroke="#666666" points="1223.5,-84.5 1074.5,-84.5 1074.5,-54.5 1223.5,-54.5 1223.5,-84.5"/>
<text text-anchor="start" x="1082.5" y="-72.5" font-family="Helvetica,sans-Serif" font-size="10.00">std::shared_ptr&lt; TxReceipt</text>
<text text-anchor="middle" x="1149" y="-61.5" font-family="Helvetica,sans-Serif" font-size="10.00">Impl &gt;</text>
</a>
</g>
</g>
<!-- Node32&#45;&gt;Node27 -->
<g id="edge32" class="edge">
<title>Node32&#45;&gt;Node27</title>
<path fill="none" stroke="#9a32cd" stroke-dasharray="5,2" d="M1233.59,-74.92C1263.53,-77.66 1297.43,-81.68 1328,-87.5 1341.49,-90.07 1355.9,-93.73 1369.1,-97.46"/>
<polygon fill="#9a32cd" stroke="#9a32cd" points="1233.86,-71.43 1223.59,-74.04 1233.25,-78.41 1233.86,-71.43"/>
<text text-anchor="middle" x="1291.5" y="-90.5" font-family="Helvetica,sans-Serif" font-size="10.00"> receipt</text>
</g>
<!-- Node33&#45;&gt;Node32 -->
<g id="edge33" class="edge">
<title>Node33&#45;&gt;Node32</title>
<path fill="none" stroke="#9a32cd" stroke-dasharray="5,2" d="M962.47,-69.5C996.47,-69.5 1038.63,-69.5 1074.17,-69.5"/>
<polygon fill="#9a32cd" stroke="#9a32cd" points="962.2,-66 952.2,-69.5 962.2,-73 962.2,-66"/>
<text text-anchor="middle" x="1007.5" y="-72.5" font-family="Helvetica,sans-Serif" font-size="10.00"> ptr</text>
</g>
<!-- Node34 -->
<g id="node34" class="node">
<title>Node34</title>
<g id="a_node34"><a xlink:title=" ">
<polygon fill="white" stroke="#666666" points="704.5,-67.5 588.5,-67.5 588.5,-37.5 704.5,-37.5 704.5,-67.5"/>
<text text-anchor="start" x="596.5" y="-55.5" font-family="Helvetica,sans-Serif" font-size="10.00">std::shared_ptr&lt; ccf</text>
<text text-anchor="middle" x="646.5" y="-44.5" font-family="Helvetica,sans-Serif" font-size="10.00">::HistoryTree::Path &gt;</text>
</a>
</g>
</g>
<!-- Node34&#45;&gt;Node33 -->
<g id="edge35" class="edge">
<title>Node34&#45;&gt;Node33</title>
<path fill="none" stroke="#9a32cd" stroke-dasharray="5,2" d="M714.9,-49.54C748.14,-48.93 788.78,-49.45 825,-53.5 836.91,-54.83 849.74,-57.31 861.24,-59.92"/>
<polygon fill="#9a32cd" stroke="#9a32cd" points="714.75,-46.04 704.84,-49.76 714.91,-53.04 714.75,-46.04"/>
<text text-anchor="middle" x="789.5" y="-56.5" font-family="Helvetica,sans-Serif" font-size="10.00"> path</text>
</g>
<!-- Node35 -->
<g id="node35" class="node">
<title>Node35</title>
<g id="a_node35"><a xlink:href="structccf_1_1EntityId.html" target="_top" xlink:title=" ">
<polygon fill="white" stroke="#666666" points="736,-19 557,-19 557,0 736,0 736,-19"/>
<text text-anchor="middle" x="646.5" y="-7" font-family="Helvetica,sans-Serif" font-size="10.00">ccf::EntityId&lt; NodeIdFormatter &gt;</text>
</a>
</g>
</g>
<!-- Node35&#45;&gt;Node33 -->
<g id="edge36" class="edge">
<title>Node35&#45;&gt;Node33</title>
<path fill="none" stroke="#9a32cd" stroke-dasharray="5,2" d="M746.46,-17.92C772.37,-21.62 800.03,-26.92 825,-34.5 845.33,-40.67 867.08,-51.85 881.39,-59.92"/>
<polygon fill="#9a32cd" stroke="#9a32cd" points="746.63,-14.41 736.24,-16.53 745.68,-21.35 746.63,-14.41"/>
<text text-anchor="middle" x="789.5" y="-37.5" font-family="Helvetica,sans-Serif" font-size="10.00"> node_id</text>
</g>
<!-- Node36 -->
<g id="node36" class="node">
<title>Node36</title>
<g id="a_node36"><a xlink:href="structccf_1_1TxID.html" target="_top" xlink:title=" ">
<polygon fill="white" stroke="#666666" points="1178.5,-36 1119.5,-36 1119.5,-17 1178.5,-17 1178.5,-36"/>
<text text-anchor="middle" x="1149" y="-24" font-family="Helvetica,sans-Serif" font-size="10.00">ccf::TxID</text>
</a>
</g>
</g>
<!-- Node36&#45;&gt;Node27 -->
<g id="edge38" class="edge">
<title>Node36&#45;&gt;Node27</title>
<path fill="none" stroke="#9a32cd" stroke-dasharray="5,2" d="M1189.25,-28.88C1226.53,-32.41 1283.37,-41.1 1328,-62.5 1337.39,-67 1337.28,-71.81 1346,-77.5 1357.33,-84.89 1370.44,-91.8 1382.26,-97.49"/>
<polygon fill="#9a32cd" stroke="#9a32cd" points="1189.07,-25.36 1178.81,-27.99 1188.47,-32.33 1189.07,-25.36"/>
<text text-anchor="middle" x="1291.5" y="-65.5" font-family="Helvetica,sans-Serif" font-size="10.00"> transaction_id</text>
</g>
<!-- Node37 -->
<g id="node37" class="node">
<title>Node37</title>
<g id="a_node37"><a xlink:title=" ">
<polygon fill="white" stroke="#666666" points="2617,-127 2450,-127 2450,-86 2617,-86 2617,-127"/>
<text text-anchor="start" x="2458" y="-115" font-family="Helvetica,sans-Serif" font-size="10.00">std::map&lt; CompoundHandle,</text>
<text text-anchor="start" x="2458" y="-104" font-family="Helvetica,sans-Serif" font-size="10.00"> ccf::historical::StateCacheImpl</text>
<text text-anchor="middle" x="2533.5" y="-93" font-family="Helvetica,sans-Serif" font-size="10.00">::Request &gt;</text>
</a>
</g>
</g>
<!-- Node37&#45;&gt;Node1 -->
<g id="edge40" class="edge">
<title>Node37&#45;&gt;Node1</title>
<path fill="none" stroke="#9a32cd" stroke-dasharray="5,2" d="M2627.28,-102.32C2669.72,-103.94 2719.47,-111.05 2760,-131.5 2805.41,-154.42 2840.54,-207.31 2853.54,-228.98"/>
<polygon fill="#9a32cd" stroke="#9a32cd" points="2627.31,-98.82 2617.22,-102.03 2627.11,-105.81 2627.31,-98.82"/>
<text text-anchor="middle" x="2697.5" y="-134.5" font-family="Helvetica,sans-Serif" font-size="10.00"> requests</text>
</g>
<!-- Node38 -->
<g id="node38" class="node">
<title>Node38</title>
<g id="a_node38"><a xlink:href="structccf_1_1historical_1_1StateCacheImpl_1_1Request.html" target="_top" xlink:title=" ">
<polygon fill="white" stroke="#666666" points="2363,-120.5 2220,-120.5 2220,-90.5 2363,-90.5 2363,-120.5"/>
<text text-anchor="start" x="2228" y="-108.5" font-family="Helvetica,sans-Serif" font-size="10.00">ccf::historical::StateCache</text>
<text text-anchor="middle" x="2291.5" y="-97.5" font-family="Helvetica,sans-Serif" font-size="10.00">Impl::Request</text>
</a>
</g>
</g>
<!-- Node38&#45;&gt;Node37 -->
<g id="edge41" class="edge">
<title>Node38&#45;&gt;Node37</title>
<path fill="none" stroke="#9a32cd" stroke-dasharray="5,2" d="M2373.22,-105.84C2397.81,-105.94 2424.88,-106.05 2449.61,-106.15"/>
<polygon fill="#9a32cd" stroke="#9a32cd" points="2373.22,-102.34 2363.21,-105.79 2373.2,-109.34 2373.22,-102.34"/>
<text text-anchor="middle" x="2406.5" y="-109.5" font-family="Helvetica,sans-Serif" font-size="10.00"> elements</text>
</g>
<!-- Node39 -->
<g id="node39" class="node">
<title>Node39</title>
<g id="a_node39"><a xlink:title=" ">
<polygon fill="white" stroke="#666666" points="2074,-74.5 1943,-74.5 1943,-44.5 2074,-44.5 2074,-74.5"/>
<text text-anchor="start" x="1951" y="-62.5" font-family="Helvetica,sans-Serif" font-size="10.00">std::map&lt; ccf::SeqNo,</text>
<text text-anchor="middle" x="2008.5" y="-51.5" font-family="Helvetica,sans-Serif" font-size="10.00"> WeakStoreDetailsPtr &gt;</text>
</a>
</g>
</g>
<!-- Node39&#45;&gt;Node1 -->
<g id="edge47" class="edge">
<title>Node39&#45;&gt;Node1</title>
<path fill="none" stroke="#9a32cd" stroke-dasharray="5,2" d="M2080.33,-42.34C2221.72,-12.3 2543.91,34.69 2760,-99.5 2812.1,-131.85 2844.67,-202.77 2855.23,-228.73"/>
<polygon fill="#9a32cd" stroke="#9a32cd" points="2079.5,-38.94 2070.46,-44.47 2080.98,-45.78 2079.5,-38.94"/>
<text text-anchor="middle" x="2406.5" y="-13.5" font-family="Helvetica,sans-Serif" font-size="10.00"> all_stores</text>
</g>
<!-- Node39&#45;&gt;Node38 -->
<g id="edge42" class="edge">
<title>Node39&#45;&gt;Node38</title>
<path fill="none" stroke="#9a32cd" stroke-dasharray="5,2" d="M2084.21,-71.73C2126.18,-78.6 2178.27,-87.13 2219.6,-93.89"/>
<polygon fill="#9a32cd" stroke="#9a32cd" points="2084.75,-68.27 2074.32,-70.11 2083.62,-75.18 2084.75,-68.27"/>
<text text-anchor="middle" x="2147.5" y="-94.5" font-family="Helvetica,sans-Serif" font-size="10.00"> all_stores</text>
</g>
<!-- Node40 -->
<g id="node40" class="node">
<title>Node40</title>
<g id="a_node40"><a xlink:title=" ">
<polygon fill="white" stroke="#666666" points="1809.5,-69 1698.5,-69 1698.5,-50 1809.5,-50 1809.5,-69"/>
<text text-anchor="middle" x="1754" y="-57" font-family="Helvetica,sans-Serif" font-size="10.00">std::weak_ptr&lt; T &gt;</text>
</a>
</g>
</g>
<!-- Node40&#45;&gt;Node39 -->
<g id="edge43" class="edge">
<title>Node40&#45;&gt;Node39</title>
<path fill="none" stroke="#9a32cd" stroke-dasharray="5,2" d="M1820.17,-59.5C1857.95,-59.5 1905.33,-59.5 1942.99,-59.5"/>
<polygon fill="#9a32cd" stroke="#9a32cd" points="1819.79,-56 1809.79,-59.5 1819.79,-63 1819.79,-56"/>
<text text-anchor="middle" x="1891" y="-62.5" font-family="Helvetica,sans-Serif" font-size="10.00"> elements</text>
</g>
<!-- Node41 -->
<g id="node41" class="node">
<title>Node41</title>
<g id="a_node41"><a xlink:title=" ">
<polygon fill="white" stroke="#666666" points="1432,-69 1403,-69 1403,-50 1432,-50 1432,-69"/>
<text text-anchor="middle" x="1417.5" y="-57" font-family="Helvetica,sans-Serif" font-size="10.00">T</text>
</a>
</g>
</g>
<!-- Node41&#45;&gt;Node40 -->
<g id="edge44" class="edge">
<title>Node41&#45;&gt;Node40</title>
<path fill="none" stroke="#9a32cd" stroke-dasharray="5,2" d="M1442.11,-59.5C1494.98,-59.5 1624.07,-59.5 1698.22,-59.5"/>
<polygon fill="#9a32cd" stroke="#9a32cd" points="1442.03,-56 1432.03,-59.5 1442.03,-63 1442.03,-56"/>
<text text-anchor="middle" x="1578.5" y="-62.5" font-family="Helvetica,sans-Serif" font-size="10.00"> ptr</text>
</g>
<!-- Node42&#45;&gt;Node38 -->
<g id="edge45" class="edge">
<title>Node42&#45;&gt;Node38</title>
<path fill="none" stroke="#9a32cd" stroke-dasharray="5,2" d="M2081.17,-111.46C2123.72,-110.25 2177.44,-108.72 2219.82,-107.51"/>
<polygon fill="#9a32cd" stroke="#9a32cd" points="2081.06,-107.96 2071.17,-111.74 2081.26,-114.96 2081.06,-107.96"/>
<text text-anchor="middle" x="2147.5" y="-125.5" font-family="Helvetica,sans-Serif" font-size="10.00"> my_stores</text>
<text text-anchor="middle" x="2147.5" y="-114.5" font-family="Helvetica,sans-Serif" font-size="10.00">supporting_signatures</text>
</g>
</g>
</svg>
        <g id="navigator" transform="translate(0 0)" fill="#404254">
                <rect fill="#f2f5e9" fill-opacity="0.5" stroke="#606060" stroke-width=".5" x="0" y="0" width="60" height="60"/>
                <use id="zoomplus" xlink:href="#zoomPlus" x="17" y="9" onmousedown="handleZoom(evt,'in')"/>
                <use id="zoomminus" xlink:href="#zoomMin" x="42" y="9" onmousedown="handleZoom(evt,'out')"/>
                <use id="reset" xlink:href="#resetDef" x="30" y="36" onmousedown="handleReset()"/>
                <g id="arrowUp" xlink:href="#dirArrow" transform="translate(30 24)" onmousedown="handlePan(0,-1)">
                  <use xlink:href="#rim" fill="#404040">
                        <set attributeName="fill" to="#808080" begin="arrowUp.mouseover" end="arrowUp.mouseout"/>
                  </use>
                  <path fill="none" stroke="white" stroke-width="1.5" d="M0,-3.0v7 M-2.5,-0.5L0,-3.0L2.5,-0.5"/>
                </g>
                <g id="arrowRight" xlink:href="#dirArrow" transform="rotate(90) translate(36 -43)" onmousedown="handlePan(1,0)">
                  <use xlink:href="#rim" fill="#404040">
                        <set attributeName="fill" to="#808080" begin="arrowRight.mouseover" end="arrowRight.mouseout"/>
                  </use>
                  <path fill="none" stroke="white" stroke-width="1.5" d="M0,-3.0v7 M-2.5,-0.5L0,-3.0L2.5,-0.5"/>
                </g>
                <g id="arrowDown" xlink:href="#dirArrow" transform="rotate(180) translate(-30 -48)" onmousedown="handlePan(0,1)">
                  <use xlink:href="#rim" fill="#404040">
                        <set attributeName="fill" to="#808080" begin="arrowDown.mouseover" end="arrowDown.mouseout"/>
                  </use>
                  <path fill="none" stroke="white" stroke-width="1.5" d="M0,-3.0v7 M-2.5,-0.5L0,-3.0L2.5,-0.5"/>
                </g>
                <g id="arrowLeft" xlink:href="#dirArrow" transform="rotate(270) translate(-36 17)" onmousedown="handlePan(-1,0)">
                  <use xlink:href="#rim" fill="#404040">
                        <set attributeName="fill" to="#808080" begin="arrowLeft.mouseover" end="arrowLeft.mouseout"/>
                  </use>
                  <path fill="none" stroke="white" stroke-width="1.5" d="M0,-3.0v7 M-2.5,-0.5L0,-3.0L2.5,-0.5"/>
                </g>
        </g>
        <svg viewBox="0 0 15 15" width="100%" height="30px" preserveAspectRatio="xMaxYMin meet">
         <g id="arrow_out" transform="scale(0.3 0.3)">
          <a xlink:href="classccf_1_1historical_1_1StateCacheImpl__coll__graph_org.svg" target="_base">
           <rect id="button" ry="5" rx="5" y="6" x="6" height="38" width="38"
                fill="#f2f5e9" fill-opacity="0.5" stroke="#606060" stroke-width="1.0"/>
           <path id="arrow"
             d="M 11.500037,31.436501 C 11.940474,20.09759 22.043105,11.32322 32.158766,21.979434 L 37.068811,17.246167 C 37.068811,17.246167 37.088388,32 37.088388,32 L 22.160133,31.978069 C 22.160133,31.978069 26.997745,27.140456 26.997745,27.140456 C 18.528582,18.264221 13.291696,25.230495 11.500037,31.436501 z"
             style="fill:#404040;"/>
          </a>
         </g>
        </svg>
</svg>
