<?xml version="1.0" encoding="UTF-8" standalone="no"?>
<!DOCTYPE svg PUBLIC "-//W3C//DTD SVG 1.1//EN"
 "http://www.w3.org/Graphics/SVG/1.1/DTD/svg11.dtd">
<!-- Generated by graphviz version 2.43.0 (0)
 -->
<!-- Title: src/consensus/consensus_types.h Pages: 1 -->
<svg width="2475pt" height="676pt"
 viewBox="0.00 0.00 2475.41 676.00" xmlns="http://www.w3.org/2000/svg" xmlns:xlink="http://www.w3.org/1999/xlink">
<g id="graph0" class="graph" transform="scale(1 1) rotate(0) translate(4 672)">
<title>src/consensus/consensus_types.h</title>
<!-- Node1 -->
<g id="node1" class="node">
<title>Node1</title>
<g id="a_node1"><a xlink:title=" ">
<polygon fill="#999999" stroke="#666666" points="2078.5,-668 1939.5,-668 1939.5,-638 2078.5,-638 2078.5,-668"/>
<text text-anchor="start" x="1947.5" y="-656" font-family="Helvetica,sans-Serif" font-size="10.00">src/consensus/consensus</text>
<text text-anchor="middle" x="2009" y="-645" font-family="Helvetica,sans-Serif" font-size="10.00">_types.h</text>
</a>
</g>
</g>
<!-- Node2 -->
<g id="node2" class="node">
<title>Node2</title>
<g id="a_node2"><a xlink:href="common_2configuration_8h.html" target="_top" xlink:title=" ">
<polygon fill="white" stroke="#666666" points="1852,-596.5 1700,-596.5 1700,-577.5 1852,-577.5 1852,-596.5"/>
<text text-anchor="middle" x="1776" y="-584.5" font-family="Helvetica,sans-Serif" font-size="10.00">src/common/configuration.h</text>
</a>
</g>
</g>
<!-- Node1&#45;&gt;Node2 -->
<g id="edge1" class="edge">
<title>Node1&#45;&gt;Node2</title>
<path fill="none" stroke="#63b8ff" d="M1948.15,-635.29C1902.86,-622.84 1842.89,-606.37 1807.01,-596.52"/>
<polygon fill="#63b8ff" stroke="#63b8ff" points="1947.3,-638.68 1957.87,-637.95 1949.15,-631.93 1947.3,-638.68"/>
</g>
<!-- Node37 -->
<g id="node37" class="node">
<title>Node37</title>
<g id="a_node37"><a xlink:href="raft__types_8h.html" target="_top" xlink:title=" ">
<polygon fill="white" stroke="#666666" points="2302,-602 2182,-602 2182,-572 2302,-572 2302,-602"/>
<text text-anchor="start" x="2190" y="-590" font-family="Helvetica,sans-Serif" font-size="10.00">src/consensus/aft/raft</text>
<text text-anchor="middle" x="2242" y="-579" font-family="Helvetica,sans-Serif" font-size="10.00">_types.h</text>
</a>
</g>
</g>
<!-- Node1&#45;&gt;Node37 -->
<g id="edge66" class="edge">
<title>Node1&#45;&gt;Node37</title>
<path fill="none" stroke="#63b8ff" d="M2069.97,-635.25C2107.61,-624.91 2155.35,-611.8 2190.99,-602.01"/>
<polygon fill="#63b8ff" stroke="#63b8ff" points="2068.85,-631.93 2060.13,-637.95 2070.7,-638.68 2068.85,-631.93"/>
</g>
<!-- Node3 -->
<g id="node3" class="node">
<title>Node3</title>
<g id="a_node3"><a xlink:href="host_2configuration_8h.html" target="_top" xlink:title=" ">
<polygon fill="white" stroke="#666666" points="1987.5,-530.5 1856.5,-530.5 1856.5,-511.5 1987.5,-511.5 1987.5,-530.5"/>
<text text-anchor="middle" x="1922" y="-518.5" font-family="Helvetica,sans-Serif" font-size="10.00">src/host/configuration.h</text>
</a>
</g>
</g>
<!-- Node2&#45;&gt;Node3 -->
<g id="edge2" class="edge">
<title>Node2&#45;&gt;Node3</title>
<path fill="none" stroke="#63b8ff" d="M1805.21,-573.19C1833.99,-560.58 1877.15,-541.66 1902.16,-530.7"/>
<polygon fill="#63b8ff" stroke="#63b8ff" points="1803.44,-570.15 1795.69,-577.37 1806.25,-576.56 1803.44,-570.15"/>
</g>
<!-- Node5 -->
<g id="node5" class="node">
<title>Node5</title>
<g id="a_node5"><a xlink:href="frontend_8h.html" target="_top" xlink:title=" ">
<polygon fill="white" stroke="#666666" points="1618.5,-398.5 1489.5,-398.5 1489.5,-379.5 1618.5,-379.5 1618.5,-398.5"/>
<text text-anchor="middle" x="1554" y="-386.5" font-family="Helvetica,sans-Serif" font-size="10.00">src/node/rpc/frontend.h</text>
</a>
</g>
</g>
<!-- Node2&#45;&gt;Node5 -->
<g id="edge4" class="edge">
<title>Node2&#45;&gt;Node5</title>
<path fill="none" stroke="#63b8ff" d="M1753.39,-572.02C1738.75,-562.55 1719.58,-549.38 1704,-536 1659.4,-497.7 1655.71,-480.4 1613,-440 1596.81,-424.68 1576.81,-408.21 1564.75,-398.52"/>
<polygon fill="#63b8ff" stroke="#63b8ff" points="1751.53,-574.98 1761.85,-577.4 1755.29,-569.08 1751.53,-574.98"/>
</g>
<!-- Node16 -->
<g id="node16" class="node">
<title>Node16</title>
<g id="a_node16"><a xlink:href="node__call__types_8h.html" target="_top" xlink:title=" ">
<polygon fill="white" stroke="#666666" points="1838.5,-536 1713.5,-536 1713.5,-506 1838.5,-506 1838.5,-536"/>
<text text-anchor="start" x="1721.5" y="-524" font-family="Helvetica,sans-Serif" font-size="10.00">src/node/rpc/node_call</text>
<text text-anchor="middle" x="1776" y="-513" font-family="Helvetica,sans-Serif" font-size="10.00">_types.h</text>
</a>
</g>
</g>
<!-- Node2&#45;&gt;Node16 -->
<g id="edge22" class="edge">
<title>Node2&#45;&gt;Node16</title>
<path fill="none" stroke="#63b8ff" d="M1776,-567.35C1776,-557.47 1776,-545.51 1776,-536.36"/>
<polygon fill="#63b8ff" stroke="#63b8ff" points="1772.5,-567.37 1776,-577.37 1779.5,-567.37 1772.5,-567.37"/>
</g>
<!-- Node21 -->
<g id="node21" class="node">
<title>Node21</title>
<g id="a_node21"><a xlink:href="node__interface_8h.html" target="_top" xlink:title=" ">
<polygon fill="white" stroke="#666666" points="800.5,-530.5 639.5,-530.5 639.5,-511.5 800.5,-511.5 800.5,-530.5"/>
<text text-anchor="middle" x="720" y="-518.5" font-family="Helvetica,sans-Serif" font-size="10.00">src/node/rpc/node_interface.h</text>
</a>
</g>
</g>
<!-- Node2&#45;&gt;Node21 -->
<g id="edge32" class="edge">
<title>Node2&#45;&gt;Node21</title>
<path fill="none" stroke="#63b8ff" d="M1689.44,-580.75C1488.95,-568.6 995.03,-538.67 800.55,-526.88"/>
<polygon fill="#63b8ff" stroke="#63b8ff" points="1689.44,-584.26 1699.63,-581.37 1689.86,-577.27 1689.44,-584.26"/>
</g>
<!-- Node4 -->
<g id="node4" class="node">
<title>Node4</title>
<g id="a_node4"><a xlink:href="host_2main_8cpp.html" target="_top" xlink:title=" ">
<polygon fill="white" stroke="#666666" points="2079.5,-464.5 1976.5,-464.5 1976.5,-445.5 2079.5,-445.5 2079.5,-464.5"/>
<text text-anchor="middle" x="2028" y="-452.5" font-family="Helvetica,sans-Serif" font-size="10.00">src/host/main.cpp</text>
</a>
</g>
</g>
<!-- Node3&#45;&gt;Node4 -->
<g id="edge3" class="edge">
<title>Node3&#45;&gt;Node4</title>
<path fill="none" stroke="#63b8ff" d="M1944.87,-506.19C1965.73,-493.59 1995.92,-475.37 2013.59,-464.7"/>
<polygon fill="#63b8ff" stroke="#63b8ff" points="1943.05,-503.2 1936.3,-511.37 1946.67,-509.2 1943.05,-503.2"/>
</g>
<!-- Node6 -->
<g id="node6" class="node">
<title>Node6</title>
<g id="a_node6"><a xlink:href="acme__challenge__frontend_8h.html" target="_top" xlink:title=" ">
<polygon fill="white" stroke="#666666" points="1700,-338 1560,-338 1560,-308 1700,-308 1700,-338"/>
<text text-anchor="start" x="1568" y="-326" font-family="Helvetica,sans-Serif" font-size="10.00">src/node/acme_challenge</text>
<text text-anchor="middle" x="1630" y="-315" font-family="Helvetica,sans-Serif" font-size="10.00">_frontend.h</text>
</a>
</g>
</g>
<!-- Node5&#45;&gt;Node6 -->
<g id="edge5" class="edge">
<title>Node5&#45;&gt;Node6</title>
<path fill="none" stroke="#63b8ff" d="M1572.15,-372.71C1584.63,-362.21 1601.07,-348.36 1613.24,-338.12"/>
<polygon fill="#63b8ff" stroke="#63b8ff" points="1569.64,-370.25 1564.25,-379.37 1574.15,-375.6 1569.64,-370.25"/>
</g>
<!-- Node10 -->
<g id="node10" class="node">
<title>Node10</title>
<g id="a_node10"><a xlink:href="node__state_8h.html" target="_top" xlink:title=" ">
<polygon fill="white" stroke="#666666" points="1897,-200.5 1773,-200.5 1773,-181.5 1897,-181.5 1897,-200.5"/>
<text text-anchor="middle" x="1835" y="-188.5" font-family="Helvetica,sans-Serif" font-size="10.00">src/node/node_state.h</text>
</a>
</g>
</g>
<!-- Node5&#45;&gt;Node10 -->
<g id="edge13" class="edge">
<title>Node5&#45;&gt;Node10</title>
<path fill="none" stroke="#63b8ff" d="M1600.47,-377C1639.73,-367 1692.18,-351.74 1709,-338 1746.9,-307.02 1730.06,-278.21 1763,-242 1779.18,-224.21 1802.81,-209.34 1818.54,-200.55"/>
<polygon fill="#63b8ff" stroke="#63b8ff" points="1599.4,-373.66 1590.55,-379.49 1601.1,-380.45 1599.4,-373.66"/>
</g>
<!-- Node12 -->
<g id="node12" class="node">
<title>Node12</title>
<g id="a_node12"><a xlink:href="member__frontend_8h.html" target="_top" xlink:title=" ">
<polygon fill="white" stroke="#666666" points="1504,-338 1384,-338 1384,-308 1504,-308 1504,-338"/>
<text text-anchor="start" x="1392" y="-326" font-family="Helvetica,sans-Serif" font-size="10.00">src/node/rpc/member</text>
<text text-anchor="middle" x="1444" y="-315" font-family="Helvetica,sans-Serif" font-size="10.00">_frontend.h</text>
</a>
</g>
</g>
<!-- Node5&#45;&gt;Node12 -->
<g id="edge14" class="edge">
<title>Node5&#45;&gt;Node12</title>
<path fill="none" stroke="#63b8ff" d="M1530.29,-374.21C1511.97,-363.55 1486.72,-348.85 1468.26,-338.12"/>
<polygon fill="#63b8ff" stroke="#63b8ff" points="1528.76,-377.36 1539.16,-379.37 1532.28,-371.31 1528.76,-377.36"/>
</g>
<!-- Node13 -->
<g id="node13" class="node">
<title>Node13</title>
<g id="a_node13"><a xlink:href="node__frontend_8h.html" target="_top" xlink:title=" ">
<polygon fill="white" stroke="#666666" points="1914,-332.5 1756,-332.5 1756,-313.5 1914,-313.5 1914,-332.5"/>
<text text-anchor="middle" x="1835" y="-320.5" font-family="Helvetica,sans-Serif" font-size="10.00">src/node/rpc/node_frontend.h</text>
</a>
</g>
</g>
<!-- Node5&#45;&gt;Node13 -->
<g id="edge16" class="edge">
<title>Node5&#45;&gt;Node13</title>
<path fill="none" stroke="#63b8ff" d="M1601.51,-377.18C1656.83,-364.58 1747.05,-344.03 1797.62,-332.51"/>
<polygon fill="#63b8ff" stroke="#63b8ff" points="1600.58,-373.8 1591.61,-379.44 1602.13,-380.63 1600.58,-373.8"/>
</g>
<!-- Node15 -->
<g id="node15" class="node">
<title>Node15</title>
<g id="a_node15"><a xlink:href="user__frontend_8h.html" target="_top" xlink:title=" ">
<polygon fill="white" stroke="#666666" points="1326.5,-200.5 1171.5,-200.5 1171.5,-181.5 1326.5,-181.5 1326.5,-200.5"/>
<text text-anchor="middle" x="1249" y="-188.5" font-family="Helvetica,sans-Serif" font-size="10.00">src/node/rpc/user_frontend.h</text>
</a>
</g>
</g>
<!-- Node5&#45;&gt;Node15 -->
<g id="edge20" class="edge">
<title>Node5&#45;&gt;Node15</title>
<path fill="none" stroke="#63b8ff" d="M1549.49,-369.64C1544,-351.23 1532.89,-323.46 1513,-308 1456.13,-263.81 1420.31,-302.37 1355,-272 1314.65,-253.24 1274.89,-217.3 1257.77,-200.74"/>
<polygon fill="#63b8ff" stroke="#63b8ff" points="1546.16,-370.73 1552.16,-379.46 1552.92,-368.9 1546.16,-370.73"/>
</g>
<!-- Node7 -->
<g id="node7" class="node">
<title>Node7</title>
<g id="a_node7"><a xlink:href="src_2enclave_2enclave_8h.html" target="_top" xlink:title=" ">
<polygon fill="white" stroke="#666666" points="885,-74 763,-74 763,-55 885,-55 885,-74"/>
<text text-anchor="middle" x="824" y="-62" font-family="Helvetica,sans-Serif" font-size="10.00">src/enclave/enclave.h</text>
</a>
</g>
</g>
<!-- Node6&#45;&gt;Node7 -->
<g id="edge6" class="edge">
<title>Node6&#45;&gt;Node7</title>
<path fill="none" stroke="#63b8ff" d="M1564.32,-305.15C1536.38,-296.85 1503.88,-285.67 1476,-272 1407.93,-238.63 1401.85,-211.76 1335,-176 1266.08,-139.13 1247.61,-129.79 1172,-110 1073.6,-84.25 955.49,-73.16 885.26,-68.56"/>
<polygon fill="#63b8ff" stroke="#63b8ff" points="1563.41,-308.53 1573.99,-307.96 1565.37,-301.81 1563.41,-308.53"/>
</g>
<!-- Node9 -->
<g id="node9" class="node">
<title>Node9</title>
<g id="a_node9"><a xlink:href="ccf__acme__client_8h.html" target="_top" xlink:title=" ">
<polygon fill="white" stroke="#666666" points="1634.5,-266.5 1485.5,-266.5 1485.5,-247.5 1634.5,-247.5 1634.5,-266.5"/>
<text text-anchor="middle" x="1560" y="-254.5" font-family="Helvetica,sans-Serif" font-size="10.00">src/node/ccf_acme_client.h</text>
</a>
</g>
</g>
<!-- Node6&#45;&gt;Node9 -->
<g id="edge8" class="edge">
<title>Node6&#45;&gt;Node9</title>
<path fill="none" stroke="#63b8ff" d="M1606.96,-300.93C1594.29,-289.35 1579.26,-275.61 1569.67,-266.84"/>
<polygon fill="#63b8ff" stroke="#63b8ff" points="1604.72,-303.63 1614.46,-307.8 1609.45,-298.47 1604.72,-303.63"/>
</g>
<!-- Node8 -->
<g id="node8" class="node">
<title>Node8</title>
<g id="a_node8"><a xlink:href="enclave_2main_8cpp.html" target="_top" xlink:title=" ">
<polygon fill="white" stroke="#666666" points="884,-19 764,-19 764,0 884,0 884,-19"/>
<text text-anchor="middle" x="824" y="-7" font-family="Helvetica,sans-Serif" font-size="10.00">src/enclave/main.cpp</text>
</a>
</g>
</g>
<!-- Node7&#45;&gt;Node8 -->
<g id="edge7" class="edge">
<title>Node7&#45;&gt;Node8</title>
<path fill="none" stroke="#63b8ff" d="M824,-44.66C824,-35.93 824,-25.99 824,-19.09"/>
<polygon fill="#63b8ff" stroke="#63b8ff" points="820.5,-44.75 824,-54.75 827.5,-44.75 820.5,-44.75"/>
</g>
<!-- Node9&#45;&gt;Node10 -->
<g id="edge9" class="edge">
<title>Node9&#45;&gt;Node10</title>
<path fill="none" stroke="#63b8ff" d="M1606.83,-245.1C1661,-232.49 1749.03,-212.01 1798.42,-200.51"/>
<polygon fill="#63b8ff" stroke="#63b8ff" points="1605.75,-241.76 1596.8,-247.44 1607.34,-248.58 1605.75,-241.76"/>
</g>
<!-- Node10&#45;&gt;Node7 -->
<g id="edge10" class="edge">
<title>Node10&#45;&gt;Node7</title>
<path fill="none" stroke="#63b8ff" d="M1843.87,-171.92C1851.35,-153.78 1858.56,-126.26 1843,-110 1809.77,-75.28 1099.89,-67.45 885.06,-65.87"/>
<polygon fill="#63b8ff" stroke="#63b8ff" points="1840.64,-170.57 1839.72,-181.13 1847.02,-173.45 1840.64,-170.57"/>
</g>
<!-- Node11 -->
<g id="node11" class="node">
<title>Node11</title>
<g id="a_node11"><a xlink:href="gov__effects_8h.html" target="_top" xlink:title=" ">
<polygon fill="white" stroke="#666666" points="1834,-134.5 1690,-134.5 1690,-115.5 1834,-115.5 1834,-134.5"/>
<text text-anchor="middle" x="1762" y="-122.5" font-family="Helvetica,sans-Serif" font-size="10.00">src/node/rpc/gov_effects.h</text>
</a>
</g>
</g>
<!-- Node10&#45;&gt;Node11 -->
<g id="edge11" class="edge">
<title>Node10&#45;&gt;Node11</title>
<path fill="none" stroke="#63b8ff" d="M1817.52,-174.68C1803.36,-162.26 1783.88,-145.18 1772.16,-134.91"/>
<polygon fill="#63b8ff" stroke="#63b8ff" points="1815.33,-177.41 1825.15,-181.37 1819.94,-172.14 1815.33,-177.41"/>
</g>
<!-- Node11&#45;&gt;Node7 -->
<g id="edge12" class="edge">
<title>Node11&#45;&gt;Node7</title>
<path fill="none" stroke="#63b8ff" d="M1705.26,-113.86C1695.52,-112.38 1685.49,-111.02 1676,-110 1380.71,-78.35 1025.34,-68.98 885.14,-66.4"/>
<polygon fill="#63b8ff" stroke="#63b8ff" points="1704.84,-117.34 1715.26,-115.44 1705.93,-110.43 1704.84,-117.34"/>
</g>
<!-- Node12&#45;&gt;Node7 -->
<g id="edge15" class="edge">
<title>Node12&#45;&gt;Node7</title>
<path fill="none" stroke="#63b8ff" d="M1392.51,-304.66C1365.67,-295.39 1332.39,-283.53 1303,-272 1121.33,-200.72 906.09,-103.12 842.53,-74.02"/>
<polygon fill="#63b8ff" stroke="#63b8ff" points="1391.49,-308.01 1402.09,-307.95 1393.77,-301.39 1391.49,-308.01"/>
</g>
<!-- Node13&#45;&gt;Node7 -->
<g id="edge17" class="edge">
<title>Node13&#45;&gt;Node7</title>
<path fill="none" stroke="#63b8ff" d="M1806.64,-309.3C1769.44,-292.85 1701.95,-263.7 1643,-242 1462.96,-175.71 1419.65,-149.94 1232,-110 1110.56,-84.15 965.41,-72.88 885.09,-68.31"/>
<polygon fill="#63b8ff" stroke="#63b8ff" points="1805.3,-312.54 1815.86,-313.4 1808.14,-306.14 1805.3,-312.54"/>
</g>
<!-- Node14 -->
<g id="node14" class="node">
<title>Node14</title>
<g id="a_node14"><a xlink:href="jwt__key__auto__refresh_8h.html" target="_top" xlink:title=" ">
<polygon fill="white" stroke="#666666" points="1897.5,-272 1772.5,-272 1772.5,-242 1897.5,-242 1897.5,-272"/>
<text text-anchor="start" x="1780.5" y="-260" font-family="Helvetica,sans-Serif" font-size="10.00">src/node/jwt_key_auto</text>
<text text-anchor="middle" x="1835" y="-249" font-family="Helvetica,sans-Serif" font-size="10.00">_refresh.h</text>
</a>
</g>
</g>
<!-- Node13&#45;&gt;Node14 -->
<g id="edge18" class="edge">
<title>Node13&#45;&gt;Node14</title>
<path fill="none" stroke="#63b8ff" d="M1835,-303.35C1835,-293.47 1835,-281.51 1835,-272.36"/>
<polygon fill="#63b8ff" stroke="#63b8ff" points="1831.5,-303.37 1835,-313.37 1838.5,-303.37 1831.5,-303.37"/>
</g>
<!-- Node14&#45;&gt;Node10 -->
<g id="edge19" class="edge">
<title>Node14&#45;&gt;Node10</title>
<path fill="none" stroke="#63b8ff" d="M1835,-231.6C1835,-220.8 1835,-208.78 1835,-200.84"/>
<polygon fill="#63b8ff" stroke="#63b8ff" points="1831.5,-231.8 1835,-241.8 1838.5,-231.8 1831.5,-231.8"/>
</g>
<!-- Node15&#45;&gt;Node7 -->
<g id="edge21" class="edge">
<title>Node15&#45;&gt;Node7</title>
<path fill="none" stroke="#63b8ff" d="M1231.59,-174.55C1209.59,-155.96 1169.78,-125.34 1130,-110 1049.11,-78.8 948.5,-69.25 885.24,-66.46"/>
<polygon fill="#63b8ff" stroke="#63b8ff" points="1229.51,-177.38 1239.37,-181.25 1234.08,-172.07 1229.51,-177.38"/>
</g>
<!-- Node17 -->
<g id="node17" class="node">
<title>Node17</title>
<g id="a_node17"><a xlink:href="call__types_8h.html" target="_top" xlink:title=" ">
<polygon fill="white" stroke="#666666" points="1927.5,-464.5 1790.5,-464.5 1790.5,-445.5 1927.5,-445.5 1927.5,-464.5"/>
<text text-anchor="middle" x="1859" y="-452.5" font-family="Helvetica,sans-Serif" font-size="10.00">src/node/rpc/call_types.h</text>
</a>
</g>
</g>
<!-- Node16&#45;&gt;Node17 -->
<g id="edge23" class="edge">
<title>Node16&#45;&gt;Node17</title>
<path fill="none" stroke="#63b8ff" d="M1802.48,-499.58C1817.66,-487.87 1835.95,-473.77 1847.53,-464.84"/>
<polygon fill="#63b8ff" stroke="#63b8ff" points="1800.2,-496.92 1794.42,-505.8 1804.48,-502.46 1800.2,-496.92"/>
</g>
<!-- Node17&#45;&gt;Node12 -->
<g id="edge26" class="edge">
<title>Node17&#45;&gt;Node12</title>
<path fill="none" stroke="#63b8ff" d="M1780.34,-447.71C1676.39,-438.79 1503.61,-421.56 1480,-404 1458.61,-388.09 1449.64,-356.55 1446.11,-338.18"/>
<polygon fill="#63b8ff" stroke="#63b8ff" points="1780.22,-451.22 1790.48,-448.58 1780.82,-444.24 1780.22,-451.22"/>
</g>
<!-- Node18 -->
<g id="node18" class="node">
<title>Node18</title>
<g id="a_node18"><a xlink:href="common__endpoint__registry_8cpp.html" target="_top" xlink:title=" ">
<polygon fill="white" stroke="#666666" points="2098,-338 1970,-338 1970,-308 2098,-308 2098,-338"/>
<text text-anchor="start" x="1978" y="-326" font-family="Helvetica,sans-Serif" font-size="10.00">src/endpoints/common</text>
<text text-anchor="middle" x="2034" y="-315" font-family="Helvetica,sans-Serif" font-size="10.00">_endpoint_registry.cpp</text>
</a>
</g>
</g>
<!-- Node17&#45;&gt;Node18 -->
<g id="edge24" class="edge">
<title>Node17&#45;&gt;Node18</title>
<path fill="none" stroke="#63b8ff" d="M1884.32,-440.27C1901.15,-430.78 1923.46,-417.49 1942,-404 1970.93,-382.96 2001.75,-354.83 2019.37,-338.15"/>
<polygon fill="#63b8ff" stroke="#63b8ff" points="1882.16,-437.46 1875.12,-445.39 1885.56,-443.58 1882.16,-437.46"/>
</g>
<!-- Node19 -->
<g id="node19" class="node">
<title>Node19</title>
<g id="a_node19"><a xlink:href="wrap_8cpp.html" target="_top" xlink:title=" ">
<polygon fill="white" stroke="#666666" points="1022.5,-266.5 933.5,-266.5 933.5,-247.5 1022.5,-247.5 1022.5,-266.5"/>
<text text-anchor="middle" x="978" y="-254.5" font-family="Helvetica,sans-Serif" font-size="10.00">src/js/wrap.cpp</text>
</a>
</g>
</g>
<!-- Node17&#45;&gt;Node19 -->
<g id="edge25" class="edge">
<title>Node17&#45;&gt;Node19</title>
<path fill="none" stroke="#63b8ff" d="M1914.25,-443.3C2005.71,-423.37 2172.33,-376.29 2107,-308 2087.93,-288.06 1230.26,-264.55 1022.82,-259.14"/>
<polygon fill="#63b8ff" stroke="#63b8ff" points="1913.35,-439.92 1904.3,-445.43 1914.81,-446.76 1913.35,-439.92"/>
</g>
<!-- Node20 -->
<g id="node20" class="node">
<title>Node20</title>
<g id="a_node20"><a xlink:href="serialization_8h.html" target="_top" xlink:title=" ">
<polygon fill="white" stroke="#666666" points="1933,-398.5 1785,-398.5 1785,-379.5 1933,-379.5 1933,-398.5"/>
<text text-anchor="middle" x="1859" y="-386.5" font-family="Helvetica,sans-Serif" font-size="10.00">src/node/rpc/serialization.h</text>
</a>
</g>
</g>
<!-- Node17&#45;&gt;Node20 -->
<g id="edge27" class="edge">
<title>Node17&#45;&gt;Node20</title>
<path fill="none" stroke="#63b8ff" d="M1859,-435.08C1859,-423.13 1859,-408.22 1859,-398.91"/>
<polygon fill="#63b8ff" stroke="#63b8ff" points="1855.5,-435.37 1859,-445.37 1862.5,-435.37 1855.5,-435.37"/>
</g>
<!-- Node20&#45;&gt;Node10 -->
<g id="edge29" class="edge">
<title>Node20&#45;&gt;Node10</title>
<path fill="none" stroke="#63b8ff" d="M1886.16,-374.5C1899.91,-366.07 1915.29,-353.8 1923,-338 1928.85,-326.02 1924.68,-321.23 1923,-308 1919.19,-277.95 1923.22,-266.92 1906,-242 1892.89,-223.02 1870.09,-208.87 1853.86,-200.55"/>
<polygon fill="#63b8ff" stroke="#63b8ff" points="1884.39,-371.48 1877.45,-379.49 1887.87,-377.55 1884.39,-371.48"/>
</g>
<!-- Node20&#45;&gt;Node12 -->
<g id="edge30" class="edge">
<title>Node20&#45;&gt;Node12</title>
<path fill="none" stroke="#63b8ff" d="M1793.57,-377.91C1714.14,-365.66 1581.28,-345.17 1504.25,-333.29"/>
<polygon fill="#63b8ff" stroke="#63b8ff" points="1793.05,-381.37 1803.46,-379.44 1794.11,-374.45 1793.05,-381.37"/>
</g>
<!-- Node20&#45;&gt;Node13 -->
<g id="edge31" class="edge">
<title>Node20&#45;&gt;Node13</title>
<path fill="none" stroke="#63b8ff" d="M1852.18,-369.82C1847.65,-357.74 1841.9,-342.41 1838.34,-332.91"/>
<polygon fill="#63b8ff" stroke="#63b8ff" points="1848.97,-371.23 1855.76,-379.37 1855.53,-368.78 1848.97,-371.23"/>
</g>
<!-- Node20&#45;&gt;Node18 -->
<g id="edge28" class="edge">
<title>Node20&#45;&gt;Node18</title>
<path fill="none" stroke="#63b8ff" d="M1892.01,-375.93C1921.4,-365.18 1964.43,-349.44 1995.4,-338.12"/>
<polygon fill="#63b8ff" stroke="#63b8ff" points="1890.79,-372.65 1882.6,-379.37 1893.2,-379.22 1890.79,-372.65"/>
</g>
<!-- Node21&#45;&gt;Node12 -->
<g id="edge58" class="edge">
<title>Node21&#45;&gt;Node12</title>
<path fill="none" stroke="#63b8ff" d="M761.46,-508.77C885.74,-475.13 1254.99,-375.17 1392.04,-338.07"/>
<polygon fill="#63b8ff" stroke="#63b8ff" points="760.31,-505.46 751.57,-511.45 762.14,-512.22 760.31,-505.46"/>
</g>
<!-- Node21&#45;&gt;Node13 -->
<g id="edge63" class="edge">
<title>Node21&#45;&gt;Node13</title>
<path fill="none" stroke="#63b8ff" d="M810.8,-520.87C1007.31,-521.79 1466.17,-518.47 1613,-470 1660.2,-454.42 1785.25,-361.61 1823.63,-332.64"/>
<polygon fill="#63b8ff" stroke="#63b8ff" points="810.81,-517.37 800.79,-520.82 810.77,-524.37 810.81,-517.37"/>
</g>
<!-- Node21&#45;&gt;Node19 -->
<g id="edge33" class="edge">
<title>Node21&#45;&gt;Node19</title>
<path fill="none" stroke="#63b8ff" d="M709.81,-502.63C691.79,-473.09 651.75,-412.53 605,-374 578,-351.75 553.22,-367.86 535,-338 528.05,-326.62 526.12,-317.94 535,-308 561.27,-278.6 826.34,-264.33 933.45,-259.72"/>
<polygon fill="#63b8ff" stroke="#63b8ff" points="706.91,-504.6 715.06,-511.38 712.92,-501 706.91,-504.6"/>
</g>
<!-- Node22 -->
<g id="node22" class="node">
<title>Node22</title>
<g id="a_node22"><a xlink:href="wrap_8h.html" target="_top" xlink:title=" ">
<polygon fill="white" stroke="#666666" points="1080,-398.5 1002,-398.5 1002,-379.5 1080,-379.5 1080,-398.5"/>
<text text-anchor="middle" x="1041" y="-386.5" font-family="Helvetica,sans-Serif" font-size="10.00">src/js/wrap.h</text>
</a>
</g>
</g>
<!-- Node21&#45;&gt;Node22 -->
<g id="edge34" class="edge">
<title>Node21&#45;&gt;Node22</title>
<path fill="none" stroke="#63b8ff" d="M750.7,-507.57C815.45,-481.34 964.56,-420.96 1019.86,-398.56"/>
<polygon fill="#63b8ff" stroke="#63b8ff" points="749.02,-504.47 741.06,-511.47 751.64,-510.96 749.02,-504.47"/>
</g>
<!-- Node29 -->
<g id="node29" class="node">
<title>Node29</title>
<g id="a_node29"><a xlink:href="historical__queries_8h.html" target="_top" xlink:title=" ">
<polygon fill="white" stroke="#666666" points="106,-206 0,-206 0,-176 106,-176 106,-206"/>
<text text-anchor="start" x="8" y="-194" font-family="Helvetica,sans-Serif" font-size="10.00">src/node/historical</text>
<text text-anchor="middle" x="53" y="-183" font-family="Helvetica,sans-Serif" font-size="10.00">_queries.h</text>
</a>
</g>
</g>
<!-- Node21&#45;&gt;Node29 -->
<g id="edge50" class="edge">
<title>Node21&#45;&gt;Node29</title>
<path fill="none" stroke="#63b8ff" d="M629.25,-519.19C459.96,-515.19 113,-494.29 113,-390 113,-390 113,-390 113,-322 113,-276.26 82,-229.11 64.57,-206.21"/>
<polygon fill="#63b8ff" stroke="#63b8ff" points="629.32,-522.69 639.4,-519.41 629.47,-515.69 629.32,-522.69"/>
</g>
<!-- Node31 -->
<g id="node31" class="node">
<title>Node31</title>
<g id="a_node31"><a xlink:href="node__configuration__subsystem_8h.html" target="_top" xlink:title=" ">
<polygon fill="white" stroke="#666666" points="1604,-470 1450,-470 1450,-440 1604,-440 1604,-470"/>
<text text-anchor="start" x="1458" y="-458" font-family="Helvetica,sans-Serif" font-size="10.00">src/node/node_configuration</text>
<text text-anchor="middle" x="1527" y="-447" font-family="Helvetica,sans-Serif" font-size="10.00">_subsystem.h</text>
</a>
</g>
</g>
<!-- Node21&#45;&gt;Node31 -->
<g id="edge54" class="edge">
<title>Node21&#45;&gt;Node31</title>
<path fill="none" stroke="#63b8ff" d="M810.99,-512.78C971.02,-500.09 1300.03,-474 1449.75,-462.13"/>
<polygon fill="#63b8ff" stroke="#63b8ff" points="810.39,-509.32 800.7,-513.6 810.95,-516.3 810.39,-509.32"/>
</g>
<!-- Node32 -->
<g id="node32" class="node">
<title>Node32</title>
<g id="a_node32"><a xlink:href="acme__subsystem_8h.html" target="_top" xlink:title=" ">
<polygon fill="white" stroke="#666666" points="297.5,-200.5 124.5,-200.5 124.5,-181.5 297.5,-181.5 297.5,-200.5"/>
<text text-anchor="middle" x="211" y="-188.5" font-family="Helvetica,sans-Serif" font-size="10.00">src/node/rpc/acme_subsystem.h</text>
</a>
</g>
</g>
<!-- Node21&#45;&gt;Node32 -->
<g id="edge56" class="edge">
<title>Node21&#45;&gt;Node32</title>
<path fill="none" stroke="#63b8ff" d="M629.03,-515.35C482.63,-505.34 211,-475.28 211,-390 211,-390 211,-390 211,-322 211,-276.18 211,-221.29 211,-200.52"/>
<polygon fill="#63b8ff" stroke="#63b8ff" points="629.14,-518.86 639.35,-516.03 629.6,-511.88 629.14,-518.86"/>
</g>
<!-- Node33 -->
<g id="node33" class="node">
<title>Node33</title>
<g id="a_node33"><a xlink:href="network__identity__subsystem_8h.html" target="_top" xlink:title=" ">
<polygon fill="white" stroke="#666666" points="488.5,-470 361.5,-470 361.5,-440 488.5,-440 488.5,-470"/>
<text text-anchor="start" x="369.5" y="-458" font-family="Helvetica,sans-Serif" font-size="10.00">src/node/rpc/network</text>
<text text-anchor="middle" x="425" y="-447" font-family="Helvetica,sans-Serif" font-size="10.00">_identity_subsystem.h</text>
</a>
</g>
</g>
<!-- Node21&#45;&gt;Node33 -->
<g id="edge59" class="edge">
<title>Node21&#45;&gt;Node33</title>
<path fill="none" stroke="#63b8ff" d="M670.59,-509.28C620.59,-498.43 543.07,-481.62 488.52,-469.78"/>
<polygon fill="#63b8ff" stroke="#63b8ff" points="670.01,-512.74 680.52,-511.44 671.49,-505.89 670.01,-512.74"/>
</g>
<!-- Node36 -->
<g id="node36" class="node">
<title>Node36</title>
<g id="a_node36"><a xlink:href="node__operation_8h.html" target="_top" xlink:title=" ">
<polygon fill="white" stroke="#666666" points="518,-134.5 354,-134.5 354,-115.5 518,-115.5 518,-134.5"/>
<text text-anchor="middle" x="436" y="-122.5" font-family="Helvetica,sans-Serif" font-size="10.00">src/node/rpc/node_operation.h</text>
</a>
</g>
</g>
<!-- Node21&#45;&gt;Node36 -->
<g id="edge64" class="edge">
<title>Node21&#45;&gt;Node36</title>
<path fill="none" stroke="#63b8ff" d="M702.47,-504.58C691.54,-494.83 677.26,-481.88 665,-470 622.33,-428.67 616.16,-413.73 572,-374 552.7,-356.64 541.8,-358.6 526,-338 473.45,-269.46 445.51,-165.66 438.06,-134.89"/>
<polygon fill="#63b8ff" stroke="#63b8ff" points="700.29,-507.32 710.09,-511.33 704.93,-502.08 700.29,-507.32"/>
</g>
<!-- Node22&#45;&gt;Node7 -->
<g id="edge36" class="edge">
<title>Node22&#45;&gt;Node7</title>
<path fill="none" stroke="#63b8ff" d="M991.55,-386.81C870.2,-383.37 565.31,-371.45 535,-338 433.71,-226.21 716.54,-106.5 800.99,-74.03"/>
<polygon fill="#63b8ff" stroke="#63b8ff" points="991.59,-390.31 1001.69,-387.09 991.79,-383.31 991.59,-390.31"/>
</g>
<!-- Node22&#45;&gt;Node10 -->
<g id="edge47" class="edge">
<title>Node22&#45;&gt;Node10</title>
<path fill="none" stroke="#63b8ff" d="M1090.12,-381.39C1158.33,-371.84 1277.96,-353.6 1319,-338 1395.45,-308.93 1398.99,-269.55 1476,-242 1575.84,-206.28 1699.78,-195.92 1772.84,-193.01"/>
<polygon fill="#63b8ff" stroke="#63b8ff" points="1089.46,-377.95 1080.04,-382.79 1090.43,-384.88 1089.46,-377.95"/>
</g>
<!-- Node22&#45;&gt;Node12 -->
<g id="edge48" class="edge">
<title>Node22&#45;&gt;Node12</title>
<path fill="none" stroke="#63b8ff" d="M1090.34,-381.07C1154.76,-371.89 1271,-354.88 1370,-338 1374.51,-337.23 1379.17,-336.41 1383.86,-335.57"/>
<polygon fill="#63b8ff" stroke="#63b8ff" points="1089.48,-377.66 1080.07,-382.53 1090.46,-384.59 1089.48,-377.66"/>
</g>
<!-- Node22&#45;&gt;Node13 -->
<g id="edge49" class="edge">
<title>Node22&#45;&gt;Node13</title>
<path fill="none" stroke="#63b8ff" d="M1090.39,-384.91C1201.18,-377.86 1477.91,-359.48 1709,-338 1726.31,-336.39 1744.94,-334.44 1762.42,-332.52"/>
<polygon fill="#63b8ff" stroke="#63b8ff" points="1089.95,-381.43 1080.19,-385.56 1090.4,-388.42 1089.95,-381.43"/>
</g>
<!-- Node22&#45;&gt;Node19 -->
<g id="edge46" class="edge">
<title>Node22&#45;&gt;Node19</title>
<path fill="none" stroke="#63b8ff" d="M1090.12,-388.35C1180.34,-387.37 1358.03,-376.94 1299,-308 1290.07,-297.57 1108.95,-274.07 1022.8,-263.43"/>
<polygon fill="#63b8ff" stroke="#63b8ff" points="1090.07,-384.85 1080.1,-388.42 1090.12,-391.85 1090.07,-384.85"/>
</g>
<!-- Node23 -->
<g id="node23" class="node">
<title>Node23</title>
<g id="a_node23"><a xlink:href="js__generic__base_8cpp.html" target="_top" xlink:title=" ">
<polygon fill="white" stroke="#666666" points="1162,-338 1044,-338 1044,-308 1162,-308 1162,-338"/>
<text text-anchor="start" x="1052" y="-326" font-family="Helvetica,sans-Serif" font-size="10.00">src/apps/js_generic</text>
<text text-anchor="middle" x="1103" y="-315" font-family="Helvetica,sans-Serif" font-size="10.00">/js_generic_base.cpp</text>
</a>
</g>
</g>
<!-- Node22&#45;&gt;Node23 -->
<g id="edge35" class="edge">
<title>Node22&#45;&gt;Node23</title>
<path fill="none" stroke="#63b8ff" d="M1056.35,-372.16C1066.38,-361.81 1079.36,-348.4 1089.09,-338.36"/>
<polygon fill="#63b8ff" stroke="#63b8ff" points="1053.81,-369.75 1049.36,-379.37 1058.83,-374.62 1053.81,-369.75"/>
</g>
<!-- Node24 -->
<g id="node24" class="node">
<title>Node24</title>
<g id="a_node24"><a xlink:href="consensus_8cpp.html" target="_top" xlink:title=" ">
<polygon fill="white" stroke="#666666" points="806,-332.5 690,-332.5 690,-313.5 806,-313.5 806,-332.5"/>
<text text-anchor="middle" x="748" y="-320.5" font-family="Helvetica,sans-Serif" font-size="10.00">src/js/consensus.cpp</text>
</a>
</g>
</g>
<!-- Node22&#45;&gt;Node24 -->
<g id="edge37" class="edge">
<title>Node22&#45;&gt;Node24</title>
<path fill="none" stroke="#63b8ff" d="M991.82,-377.26C934.17,-364.67 839.82,-344.06 786.98,-332.51"/>
<polygon fill="#63b8ff" stroke="#63b8ff" points="991.27,-380.72 1001.79,-379.44 992.77,-373.88 991.27,-380.72"/>
</g>
<!-- Node25 -->
<g id="node25" class="node">
<title>Node25</title>
<g id="a_node25"><a xlink:href="conv_8cpp.html" target="_top" xlink:title=" ">
<polygon fill="white" stroke="#666666" points="912,-332.5 824,-332.5 824,-313.5 912,-313.5 912,-332.5"/>
<text text-anchor="middle" x="868" y="-320.5" font-family="Helvetica,sans-Serif" font-size="10.00">src/js/conv.cpp</text>
</a>
</g>
</g>
<!-- Node22&#45;&gt;Node25 -->
<g id="edge39" class="edge">
<title>Node22&#45;&gt;Node25</title>
<path fill="none" stroke="#63b8ff" d="M1008.13,-375.84C973.95,-363.2 921.33,-343.73 891.24,-332.6"/>
<polygon fill="#63b8ff" stroke="#63b8ff" points="1007.08,-379.18 1017.67,-379.37 1009.5,-372.62 1007.08,-379.18"/>
</g>
<!-- Node26 -->
<g id="node26" class="node">
<title>Node26</title>
<g id="a_node26"><a xlink:href="crypto_8cpp.html" target="_top" xlink:title=" ">
<polygon fill="white" stroke="#666666" points="1026,-332.5 930,-332.5 930,-313.5 1026,-313.5 1026,-332.5"/>
<text text-anchor="middle" x="978" y="-320.5" font-family="Helvetica,sans-Serif" font-size="10.00">src/js/crypto.cpp</text>
</a>
</g>
</g>
<!-- Node22&#45;&gt;Node26 -->
<g id="edge41" class="edge">
<title>Node22&#45;&gt;Node26</title>
<path fill="none" stroke="#63b8ff" d="M1025.23,-371.98C1013.06,-359.62 996.69,-342.99 986.77,-332.91"/>
<polygon fill="#63b8ff" stroke="#63b8ff" points="1022.99,-374.7 1032.5,-379.37 1027.98,-369.79 1022.99,-374.7"/>
</g>
<!-- Node27 -->
<g id="node27" class="node">
<title>Node27</title>
<g id="a_node27"><a xlink:href="historical_8cpp.html" target="_top" xlink:title=" ">
<polygon fill="white" stroke="#666666" points="1290,-332.5 1180,-332.5 1180,-313.5 1290,-313.5 1290,-332.5"/>
<text text-anchor="middle" x="1235" y="-320.5" font-family="Helvetica,sans-Serif" font-size="10.00">src/js/historical.cpp</text>
</a>
</g>
</g>
<!-- Node22&#45;&gt;Node27 -->
<g id="edge43" class="edge">
<title>Node22&#45;&gt;Node27</title>
<path fill="none" stroke="#63b8ff" d="M1076.88,-376.16C1115.17,-363.53 1174.91,-343.82 1208.94,-332.6"/>
<polygon fill="#63b8ff" stroke="#63b8ff" points="1075.56,-372.91 1067.16,-379.37 1077.76,-379.56 1075.56,-372.91"/>
</g>
<!-- Node28 -->
<g id="node28" class="node">
<title>Node28</title>
<g id="a_node28"><a xlink:href="openenclave_8cpp.html" target="_top" xlink:title=" ">
<polygon fill="white" stroke="#666666" points="672,-332.5 544,-332.5 544,-313.5 672,-313.5 672,-332.5"/>
<text text-anchor="middle" x="608" y="-320.5" font-family="Helvetica,sans-Serif" font-size="10.00">src/js/openenclave.cpp</text>
</a>
</g>
</g>
<!-- Node22&#45;&gt;Node28 -->
<g id="edge45" class="edge">
<title>Node22&#45;&gt;Node28</title>
<path fill="none" stroke="#63b8ff" d="M991.53,-381.95C922.03,-373.26 791.59,-356.27 681,-338 671.07,-336.36 660.41,-334.42 650.4,-332.51"/>
<polygon fill="#63b8ff" stroke="#63b8ff" points="991.39,-385.46 1001.75,-383.22 992.26,-378.51 991.39,-385.46"/>
</g>
<!-- Node24&#45;&gt;Node19 -->
<g id="edge38" class="edge">
<title>Node24&#45;&gt;Node19</title>
<path fill="none" stroke="#63b8ff" d="M788.81,-310.64C834.13,-298.03 906.25,-277.97 947.11,-266.6"/>
<polygon fill="#63b8ff" stroke="#63b8ff" points="787.71,-307.32 779.02,-313.37 789.59,-314.06 787.71,-307.32"/>
</g>
<!-- Node25&#45;&gt;Node19 -->
<g id="edge40" class="edge">
<title>Node25&#45;&gt;Node19</title>
<path fill="none" stroke="#63b8ff" d="M891.74,-308.19C913.38,-295.59 944.71,-277.37 963.05,-266.7"/>
<polygon fill="#63b8ff" stroke="#63b8ff" points="889.72,-305.31 882.84,-313.37 893.24,-311.36 889.72,-305.31"/>
</g>
<!-- Node26&#45;&gt;Node19 -->
<g id="edge42" class="edge">
<title>Node26&#45;&gt;Node19</title>
<path fill="none" stroke="#63b8ff" d="M978,-303.08C978,-291.13 978,-276.22 978,-266.91"/>
<polygon fill="#63b8ff" stroke="#63b8ff" points="974.5,-303.37 978,-313.37 981.5,-303.37 974.5,-303.37"/>
</g>
<!-- Node27&#45;&gt;Node19 -->
<g id="edge44" class="edge">
<title>Node27&#45;&gt;Node19</title>
<path fill="none" stroke="#63b8ff" d="M1190.6,-310.94C1139.93,-298.32 1058.15,-277.96 1012.19,-266.51"/>
<polygon fill="#63b8ff" stroke="#63b8ff" points="1190.06,-314.41 1200.61,-313.44 1191.75,-307.62 1190.06,-314.41"/>
</g>
<!-- Node29&#45;&gt;Node7 -->
<g id="edge51" class="edge">
<title>Node29&#45;&gt;Node7</title>
<path fill="none" stroke="#63b8ff" d="M90.91,-171.49C131.64,-152.54 198.79,-123.93 260,-110 439.33,-69.19 658.07,-64.27 762.62,-64.57"/>
<polygon fill="#63b8ff" stroke="#63b8ff" points="89.2,-168.43 81.64,-175.85 92.18,-174.76 89.2,-168.43"/>
</g>
<!-- Node30 -->
<g id="node30" class="node">
<title>Node30</title>
<g id="a_node30"><a xlink:href="historical__transaction__fetcher_8h.html" target="_top" xlink:title=" ">
<polygon fill="white" stroke="#666666" points="129.5,-140 4.5,-140 4.5,-110 129.5,-110 129.5,-140"/>
<text text-anchor="start" x="12.5" y="-128" font-family="Helvetica,sans-Serif" font-size="10.00">src/indexing/historical</text>
<text text-anchor="middle" x="67" y="-117" font-family="Helvetica,sans-Serif" font-size="10.00">_transaction_fetcher.h</text>
</a>
</g>
</g>
<!-- Node29&#45;&gt;Node30 -->
<g id="edge52" class="edge">
<title>Node29&#45;&gt;Node30</title>
<path fill="none" stroke="#63b8ff" d="M58.29,-165.83C60.18,-157.17 62.25,-147.7 63.9,-140.16"/>
<polygon fill="#63b8ff" stroke="#63b8ff" points="54.82,-165.28 56.11,-175.8 61.66,-166.78 54.82,-165.28"/>
</g>
<!-- Node30&#45;&gt;Node7 -->
<g id="edge53" class="edge">
<title>Node30&#45;&gt;Node7</title>
<path fill="none" stroke="#63b8ff" d="M139.94,-115.67C158.54,-113.68 178.5,-111.65 197,-110 404.34,-91.48 650.8,-75.85 762.97,-69.09"/>
<polygon fill="#63b8ff" stroke="#63b8ff" points="139.34,-112.22 129.77,-116.77 140.09,-119.18 139.34,-112.22"/>
</g>
<!-- Node31&#45;&gt;Node5 -->
<g id="edge55" class="edge">
<title>Node31&#45;&gt;Node5</title>
<path fill="none" stroke="#63b8ff" d="M1537.01,-430.28C1541.64,-419.31 1546.85,-406.94 1550.27,-398.84"/>
<polygon fill="#63b8ff" stroke="#63b8ff" points="1533.65,-429.22 1532.99,-439.8 1540.1,-431.94 1533.65,-429.22"/>
</g>
<!-- Node32&#45;&gt;Node7 -->
<g id="edge57" class="edge">
<title>Node32&#45;&gt;Node7</title>
<path fill="none" stroke="#63b8ff" d="M225.37,-173.95C243.48,-154.94 276.53,-124.1 312,-110 392.43,-78.03 644.99,-68.96 762.61,-66.44"/>
<polygon fill="#63b8ff" stroke="#63b8ff" points="222.8,-171.57 218.57,-181.28 227.93,-176.33 222.8,-171.57"/>
</g>
<!-- Node33&#45;&gt;Node7 -->
<g id="edge61" class="edge">
<title>Node33&#45;&gt;Node7</title>
<path fill="none" stroke="#63b8ff" d="M351.19,-449.17C320.31,-443.05 287.19,-430.26 268,-404 260.13,-393.24 266.11,-387.2 268,-374 272.32,-343.75 321.43,-129.45 345,-110 376.57,-83.96 640.58,-71.71 762.6,-67.4"/>
<polygon fill="#63b8ff" stroke="#63b8ff" points="350.66,-452.63 361.12,-450.92 351.88,-445.73 350.66,-452.63"/>
</g>
<!-- Node34 -->
<g id="node34" class="node">
<title>Node34</title>
<g id="a_node34"><a xlink:href="external__executor_8cpp.html" target="_top" xlink:title=" ">
<polygon fill="white" stroke="#666666" points="425,-404 277,-404 277,-374 425,-374 425,-404"/>
<text text-anchor="start" x="285" y="-392" font-family="Helvetica,sans-Serif" font-size="10.00">src/apps/external_executor</text>
<text text-anchor="middle" x="351" y="-381" font-family="Helvetica,sans-Serif" font-size="10.00">/external_executor.cpp</text>
</a>
</g>
</g>
<!-- Node33&#45;&gt;Node34 -->
<g id="edge60" class="edge">
<title>Node33&#45;&gt;Node34</title>
<path fill="none" stroke="#63b8ff" d="M400.95,-433.2C389.97,-423.7 377.24,-412.69 367.38,-404.16"/>
<polygon fill="#63b8ff" stroke="#63b8ff" points="398.72,-435.9 408.58,-439.8 403.3,-430.61 398.72,-435.9"/>
</g>
<!-- Node35 -->
<g id="node35" class="node">
<title>Node35</title>
<g id="a_node35"><a xlink:href="historical__queries__adapter_8cpp.html" target="_top" xlink:title=" ">
<polygon fill="white" stroke="#666666" points="563,-404 443,-404 443,-374 563,-374 563,-404"/>
<text text-anchor="start" x="451" y="-392" font-family="Helvetica,sans-Serif" font-size="10.00">src/node/historical</text>
<text text-anchor="middle" x="503" y="-381" font-family="Helvetica,sans-Serif" font-size="10.00">_queries_adapter.cpp</text>
</a>
</g>
</g>
<!-- Node33&#45;&gt;Node35 -->
<g id="edge62" class="edge">
<title>Node33&#45;&gt;Node35</title>
<path fill="none" stroke="#63b8ff" d="M450.35,-433.2C461.93,-423.7 475.35,-412.69 485.74,-404.16"/>
<polygon fill="#63b8ff" stroke="#63b8ff" points="447.82,-430.75 442.31,-439.8 452.26,-436.16 447.82,-430.75"/>
</g>
<!-- Node36&#45;&gt;Node7 -->
<g id="edge65" class="edge">
<title>Node36&#45;&gt;Node7</title>
<path fill="none" stroke="#63b8ff" d="M502.65,-113.95C577.37,-102.69 697.22,-84.61 767.51,-74.02"/>
<polygon fill="#63b8ff" stroke="#63b8ff" points="501.78,-110.54 492.42,-115.49 502.83,-117.46 501.78,-110.54"/>
</g>
<!-- Node38 -->
<g id="node38" class="node">
<title>Node38</title>
<g id="a_node38"><a xlink:href="state_8h.html" target="_top" xlink:title=" ">
<polygon fill="white" stroke="#666666" points="2448.5,-536 2323.5,-536 2323.5,-506 2448.5,-506 2448.5,-536"/>
<text text-anchor="start" x="2331.5" y="-524" font-family="Helvetica,sans-Serif" font-size="10.00">src/consensus/aft/impl</text>
<text text-anchor="middle" x="2386" y="-513" font-family="Helvetica,sans-Serif" font-size="10.00">/state.h</text>
</a>
</g>
</g>
<!-- Node37&#45;&gt;Node38 -->
<g id="edge67" class="edge">
<title>Node37&#45;&gt;Node38</title>
<path fill="none" stroke="#63b8ff" d="M2282.99,-567.78C2305.69,-557.69 2333.48,-545.34 2354.47,-536.01"/>
<polygon fill="#63b8ff" stroke="#63b8ff" points="2281.32,-564.7 2273.6,-571.95 2284.16,-571.09 2281.32,-564.7"/>
</g>
<!-- Node39 -->
<g id="node39" class="node">
<title>Node39</title>
<g id="a_node39"><a xlink:href="raft_8h.html" target="_top" xlink:title=" ">
<polygon fill="white" stroke="#666666" points="2412.5,-398.5 2283.5,-398.5 2283.5,-379.5 2412.5,-379.5 2412.5,-398.5"/>
<text text-anchor="middle" x="2348" y="-386.5" font-family="Helvetica,sans-Serif" font-size="10.00">src/consensus/aft/raft.h</text>
</a>
</g>
</g>
<!-- Node37&#45;&gt;Node39 -->
<g id="edge70" class="edge">
<title>Node37&#45;&gt;Node39</title>
<path fill="none" stroke="#63b8ff" d="M2312.43,-579.01C2368.02,-571.87 2439.08,-558.57 2457,-536 2497.62,-484.85 2401.79,-421.22 2363.21,-398.53"/>
<polygon fill="#63b8ff" stroke="#63b8ff" points="2311.74,-575.57 2302.25,-580.28 2312.6,-582.52 2311.74,-575.57"/>
</g>
<!-- Node40 -->
<g id="node40" class="node">
<title>Node40</title>
<g id="a_node40"><a xlink:href="node__connections_8h.html" target="_top" xlink:title=" ">
<polygon fill="white" stroke="#666666" points="2160.5,-530.5 2005.5,-530.5 2005.5,-511.5 2160.5,-511.5 2160.5,-530.5"/>
<text text-anchor="middle" x="2083" y="-518.5" font-family="Helvetica,sans-Serif" font-size="10.00">src/host/node_connections.h</text>
</a>
</g>
</g>
<!-- Node37&#45;&gt;Node40 -->
<g id="edge71" class="edge">
<title>Node37&#45;&gt;Node40</title>
<path fill="none" stroke="#63b8ff" d="M2197.53,-568.1C2167.01,-555.82 2127.88,-540.06 2104.16,-530.52"/>
<polygon fill="#63b8ff" stroke="#63b8ff" points="2196.52,-571.47 2207.11,-571.95 2199.14,-564.97 2196.52,-571.47"/>
</g>
<!-- Node41 -->
<g id="node41" class="node">
<title>Node41</title>
<g id="a_node41"><a xlink:href="node__client_8h.html" target="_top" xlink:title=" ">
<polygon fill="white" stroke="#666666" points="2305,-530.5 2179,-530.5 2179,-511.5 2305,-511.5 2305,-530.5"/>
<text text-anchor="middle" x="2242" y="-518.5" font-family="Helvetica,sans-Serif" font-size="10.00">src/node/node_client.h</text>
</a>
</g>
</g>
<!-- Node37&#45;&gt;Node41 -->
<g id="edge73" class="edge">
<title>Node37&#45;&gt;Node41</title>
<path fill="none" stroke="#63b8ff" d="M2242,-561.6C2242,-550.8 2242,-538.78 2242,-530.84"/>
<polygon fill="#63b8ff" stroke="#63b8ff" points="2238.5,-561.8 2242,-571.8 2245.5,-561.8 2238.5,-561.8"/>
</g>
<!-- Node38&#45;&gt;Node39 -->
<g id="edge68" class="edge">
<title>Node38&#45;&gt;Node39</title>
<path fill="none" stroke="#63b8ff" d="M2378.97,-495.96C2370.39,-466.59 2356.3,-418.39 2350.56,-398.75"/>
<polygon fill="#63b8ff" stroke="#63b8ff" points="2375.7,-497.22 2381.86,-505.84 2382.41,-495.26 2375.7,-497.22"/>
</g>
<!-- Node39&#45;&gt;Node10 -->
<g id="edge69" class="edge">
<title>Node39&#45;&gt;Node10</title>
<path fill="none" stroke="#63b8ff" d="M2331.79,-371.96C2299.62,-341.17 2224.15,-274.04 2147,-242 2064.92,-207.92 1961.78,-196.95 1897.11,-193.49"/>
<polygon fill="#63b8ff" stroke="#63b8ff" points="2329.73,-374.84 2339.34,-379.29 2334.6,-369.81 2329.73,-374.84"/>
</g>
<!-- Node40&#45;&gt;Node4 -->
<g id="edge72" class="edge">
<title>Node40&#45;&gt;Node4</title>
<path fill="none" stroke="#63b8ff" d="M2068.93,-503.62C2058.34,-491.31 2044.24,-474.89 2035.65,-464.91"/>
<polygon fill="#63b8ff" stroke="#63b8ff" points="2066.41,-506.07 2075.58,-511.37 2071.72,-501.5 2066.41,-506.07"/>
</g>
<!-- Node41&#45;&gt;Node39 -->
<g id="edge74" class="edge">
<title>Node41&#45;&gt;Node39</title>
<path fill="none" stroke="#63b8ff" d="M2277.96,-507.31C2295.82,-499.25 2316.25,-487.08 2329,-470 2345.31,-448.15 2347.86,-414.37 2348.1,-398.63"/>
<polygon fill="#63b8ff" stroke="#63b8ff" points="2276.21,-504.25 2268.36,-511.37 2278.94,-510.7 2276.21,-504.25"/>
</g>
<!-- Node42 -->
<g id="node42" class="node">
<title>Node42</title>
<g id="a_node42"><a xlink:href="http__node__client_8h.html" target="_top" xlink:title=" ">
<polygon fill="white" stroke="#666666" points="2138,-272 2028,-272 2028,-242 2138,-242 2138,-272"/>
<text text-anchor="start" x="2036" y="-260" font-family="Helvetica,sans-Serif" font-size="10.00">src/node/http_node</text>
<text text-anchor="middle" x="2083" y="-249" font-family="Helvetica,sans-Serif" font-size="10.00">_client.h</text>
</a>
</g>
</g>
<!-- Node41&#45;&gt;Node42 -->
<g id="edge75" class="edge">
<title>Node41&#45;&gt;Node42</title>
<path fill="none" stroke="#63b8ff" d="M2219.47,-505.5C2207.18,-496.57 2192.56,-484.14 2183,-470 2140.48,-407.14 2167.55,-373.38 2129,-308 2121.09,-294.59 2109.11,-281.71 2099.36,-272.39"/>
<polygon fill="#63b8ff" stroke="#63b8ff" points="2217.7,-508.52 2227.91,-511.35 2221.69,-502.77 2217.7,-508.52"/>
</g>
<!-- Node43 -->
<g id="node43" class="node">
<title>Node43</title>
<g id="a_node43"><a xlink:href="retired__nodes__cleanup_8h.html" target="_top" xlink:title=" ">
<polygon fill="white" stroke="#666666" points="2320,-470 2192,-470 2192,-440 2320,-440 2320,-470"/>
<text text-anchor="start" x="2200" y="-458" font-family="Helvetica,sans-Serif" font-size="10.00">src/node/retired_nodes</text>
<text text-anchor="middle" x="2256" y="-447" font-family="Helvetica,sans-Serif" font-size="10.00">_cleanup.h</text>
</a>
</g>
</g>
<!-- Node41&#45;&gt;Node43 -->
<g id="edge77" class="edge">
<title>Node41&#45;&gt;Node43</title>
<path fill="none" stroke="#63b8ff" d="M2246.08,-501.35C2248.24,-491.47 2250.86,-479.51 2252.86,-470.36"/>
<polygon fill="#63b8ff" stroke="#63b8ff" points="2242.61,-500.85 2243.89,-511.37 2249.44,-502.35 2242.61,-500.85"/>
</g>
<!-- Node42&#45;&gt;Node10 -->
<g id="edge76" class="edge">
<title>Node42&#45;&gt;Node10</title>
<path fill="none" stroke="#63b8ff" d="M2018.84,-239.44C1970.56,-226.98 1906.36,-210.42 1868,-200.52"/>
<polygon fill="#63b8ff" stroke="#63b8ff" points="2018.02,-242.85 2028.58,-241.95 2019.77,-236.07 2018.02,-242.85"/>
</g>
<!-- Node43&#45;&gt;Node39 -->
<g id="edge78" class="edge">
<title>Node43&#45;&gt;Node39</title>
<path fill="none" stroke="#63b8ff" d="M2284.93,-433.87C2301.96,-422.03 2322.63,-407.65 2335.55,-398.66"/>
<polygon fill="#63b8ff" stroke="#63b8ff" points="2282.63,-431.21 2276.42,-439.8 2286.63,-436.96 2282.63,-431.21"/>
</g>
</g>
</svg>
