<?xml version="1.0" encoding="UTF-8" standalone="no"?>
<!DOCTYPE svg PUBLIC "-//W3C//DTD SVG 1.1//EN"
 "http://www.w3.org/Graphics/SVG/1.1/DTD/svg11.dtd">
<!-- Generated by graphviz version 2.43.0 (0)
 -->
<!-- Title: src/kv/deserialise.h Pages: 1 -->
<!--zoomable 643 -->
<svg id="main" version="1.1" xmlns="http://www.w3.org/2000/svg" xmlns:xlink="http://www.w3.org/1999/xlink" xml:space="preserve" onload="init(evt)">
<style type="text/css"><![CDATA[
.edge:hover path { stroke: red; }
.edge:hover polygon { stroke: red; fill: red; }
]]></style>
<script type="text/javascript"><![CDATA[
var edges = document.getElementsByTagName('g');
if (edges && edges.length) {
  for (var i=0;i<edges.length;i++) {
    if (edges[i].id.substr(0,4)=='edge') {
      edges[i].setAttribute('class','edge');
    }
  }
}
]]></script>
        <defs>
                <circle id="rim" cx="0" cy="0" r="7"/>
                <circle id="rim2" cx="0" cy="0" r="3.5"/>
                <g id="zoomPlus">
                        <use xlink:href="#rim" fill="#404040">
                                <set attributeName="fill" to="#808080" begin="zoomplus.mouseover" end="zoomplus.mouseout"/>
                        </use>
                        <path d="M-4,0h8M0,-4v8" fill="none" stroke="white" stroke-width="1.5" pointer-events="none"/>
                </g>
                <g id="zoomMin">
                        <use xlink:href="#rim" fill="#404040">
                                <set attributeName="fill" to="#808080" begin="zoomminus.mouseover" end="zoomminus.mouseout"/>
                        </use>
                        <path d="M-4,0h8" fill="none" stroke="white" stroke-width="1.5" pointer-events="none"/>
                </g>
                <g id="dirArrow">
                        <path fill="none" stroke="white" stroke-width="1.5" d="M0,-3.0v7 M-2.5,-0.5L0,-3.0L2.5,-0.5"/>
                </g>
               <g id="resetDef">
                       <use xlink:href="#rim2" fill="#404040">
                               <set attributeName="fill" to="#808080" begin="reset.mouseover" end="reset.mouseout"/>
                       </use>
               </g>
        </defs>

<script type="text/javascript">
var viewWidth = 2388;
var viewHeight = 643;
var sectionId = 'dynsection-1';
</script>
<script xlink:href="svgpan.js"/>
<svg id="graph" class="graph">
<g id="viewport">
<title>src/kv/deserialise.h</title>
<!-- Node1 -->
<g id="node1" class="node">
<title>Node1</title>
<g id="a_node1"><a xlink:title=" ">
<polygon fill="#999999" stroke="#666666" points="1551.5,-635 1440.5,-635 1440.5,-616 1551.5,-616 1551.5,-635"/>
<text text-anchor="middle" x="1496" y="-623" font-family="Helvetica,sans-Serif" font-size="10.00">src/kv/deserialise.h</text>
</a>
</g>
</g>
<!-- Node2 -->
<g id="node2" class="node">
<title>Node2</title>
<g id="a_node2"><a xlink:href="store_8h.html" target="_top" xlink:title=" ">
<polygon fill="white" stroke="#666666" points="1537.5,-580 1454.5,-580 1454.5,-561 1537.5,-561 1537.5,-580"/>
<text text-anchor="middle" x="1496" y="-568" font-family="Helvetica,sans-Serif" font-size="10.00">src/kv/store.h</text>
</a>
</g>
</g>
<!-- Node1&#45;&gt;Node2 -->
<g id="edge1" class="edge">
<title>Node1&#45;&gt;Node2</title>
<path fill="none" stroke="#63b8ff" d="M1496,-605.66C1496,-596.93 1496,-586.99 1496,-580.09"/>
<polygon fill="#63b8ff" stroke="#63b8ff" points="1492.5,-605.75 1496,-615.75 1499.5,-605.75 1492.5,-605.75"/>
</g>
<!-- Node3 -->
<g id="node3" class="node">
<title>Node3</title>
<g id="a_node3"><a xlink:href="indexer_8h.html" target="_top" xlink:title=" ">
<polygon fill="white" stroke="#666666" points="1557.5,-453.5 1434.5,-453.5 1434.5,-434.5 1557.5,-434.5 1557.5,-453.5"/>
<text text-anchor="middle" x="1496" y="-441.5" font-family="Helvetica,sans-Serif" font-size="10.00">src/indexing/indexer.h</text>
</a>
</g>
</g>
<!-- Node2&#45;&gt;Node3 -->
<g id="edge2" class="edge">
<title>Node2&#45;&gt;Node3</title>
<path fill="none" stroke="#63b8ff" d="M1496,-550.74C1496,-523.36 1496,-473.58 1496,-453.62"/>
<polygon fill="#63b8ff" stroke="#63b8ff" points="1492.5,-550.94 1496,-560.94 1499.5,-550.94 1492.5,-550.94"/>
</g>
<!-- Node8 -->
<g id="node8" class="node">
<title>Node8</title>
<g id="a_node8"><a xlink:href="visit__each__entry__in__map_8cpp.html" target="_top" xlink:title=" ">
<polygon fill="white" stroke="#666666" points="2175.5,-525 2014.5,-525 2014.5,-495 2175.5,-495 2175.5,-525"/>
<text text-anchor="start" x="2022.5" y="-513" font-family="Helvetica,sans-Serif" font-size="10.00">src/indexing/strategies</text>
<text text-anchor="middle" x="2095" y="-502" font-family="Helvetica,sans-Serif" font-size="10.00">/visit_each_entry_in_map.cpp</text>
</a>
</g>
</g>
<!-- Node2&#45;&gt;Node8 -->
<g id="edge8" class="edge">
<title>Node2&#45;&gt;Node8</title>
<path fill="none" stroke="#63b8ff" d="M1547.66,-565.94C1639.05,-559.41 1835.15,-544.41 2000,-525 2004.72,-524.44 2009.56,-523.84 2014.45,-523.2"/>
<polygon fill="#63b8ff" stroke="#63b8ff" points="1547.3,-562.45 1537.57,-566.65 1547.79,-569.44 1547.3,-562.45"/>
</g>
<!-- Node9 -->
<g id="node9" class="node">
<title>Node9</title>
<g id="a_node9"><a xlink:href="historical__queries_8h.html" target="_top" xlink:title=" ">
<polygon fill="white" stroke="#666666" points="106,-393 0,-393 0,-363 106,-363 106,-393"/>
<text text-anchor="start" x="8" y="-381" font-family="Helvetica,sans-Serif" font-size="10.00">src/node/historical</text>
<text text-anchor="middle" x="53" y="-370" font-family="Helvetica,sans-Serif" font-size="10.00">_queries.h</text>
</a>
</g>
</g>
<!-- Node2&#45;&gt;Node9 -->
<g id="edge9" class="edge">
<title>Node2&#45;&gt;Node9</title>
<path fill="none" stroke="#63b8ff" d="M1444.4,-569.78C1248.67,-570.51 552.29,-569.82 336,-525 256.64,-508.55 237.39,-497.37 166,-459 129.8,-439.54 91.54,-410.38 70.13,-393.17"/>
<polygon fill="#63b8ff" stroke="#63b8ff" points="1444.43,-573.28 1454.42,-569.74 1444.4,-566.28 1444.43,-573.28"/>
</g>
<!-- Node11 -->
<g id="node11" class="node">
<title>Node11</title>
<g id="a_node11"><a xlink:href="history_8h.html" target="_top" xlink:title=" ">
<polygon fill="white" stroke="#666666" points="447,-519.5 345,-519.5 345,-500.5 447,-500.5 447,-519.5"/>
<text text-anchor="middle" x="396" y="-507.5" font-family="Helvetica,sans-Serif" font-size="10.00">src/node/history.h</text>
</a>
</g>
</g>
<!-- Node2&#45;&gt;Node11 -->
<g id="edge13" class="edge">
<title>Node2&#45;&gt;Node11</title>
<path fill="none" stroke="#63b8ff" d="M1444.2,-566.75C1259.02,-556.9 631.08,-523.5 447.07,-513.72"/>
<polygon fill="#63b8ff" stroke="#63b8ff" points="1444.05,-570.24 1454.22,-567.28 1444.42,-563.25 1444.05,-570.24"/>
</g>
<!-- Node13 -->
<g id="node13" class="node">
<title>Node13</title>
<g id="a_node13"><a xlink:href="snapshotter_8h.html" target="_top" xlink:title=" ">
<polygon fill="white" stroke="#666666" points="589.5,-321.5 462.5,-321.5 462.5,-302.5 589.5,-302.5 589.5,-321.5"/>
<text text-anchor="middle" x="526" y="-309.5" font-family="Helvetica,sans-Serif" font-size="10.00">src/node/snapshotter.h</text>
</a>
</g>
</g>
<!-- Node2&#45;&gt;Node13 -->
<g id="edge38" class="edge">
<title>Node2&#45;&gt;Node13</title>
<path fill="none" stroke="#63b8ff" d="M1453.58,-558.28C1290.13,-515.06 703.07,-359.82 558.39,-321.57"/>
<polygon fill="#63b8ff" stroke="#63b8ff" points="1453.16,-561.79 1463.73,-560.97 1454.95,-555.03 1453.16,-561.79"/>
</g>
<!-- Node17 -->
<g id="node17" class="node">
<title>Node17</title>
<g id="a_node17"><a xlink:href="frontend_8h.html" target="_top" xlink:title=" ">
<polygon fill="white" stroke="#666666" points="2255.5,-387.5 2126.5,-387.5 2126.5,-368.5 2255.5,-368.5 2255.5,-387.5"/>
<text text-anchor="middle" x="2191" y="-375.5" font-family="Helvetica,sans-Serif" font-size="10.00">src/node/rpc/frontend.h</text>
</a>
</g>
</g>
<!-- Node2&#45;&gt;Node17 -->
<g id="edge24" class="edge">
<title>Node2&#45;&gt;Node17</title>
<path fill="none" stroke="#63b8ff" d="M1547.83,-565.98C1611.55,-560.81 1722.6,-549.04 1815,-525 1957.66,-487.89 2119.93,-413.1 2173.11,-387.68"/>
<polygon fill="#63b8ff" stroke="#63b8ff" points="1547.33,-562.51 1537.64,-566.78 1547.88,-569.49 1547.33,-562.51"/>
</g>
<!-- Node24 -->
<g id="node24" class="node">
<title>Node24</title>
<g id="a_node24"><a xlink:href="network__tables_8h.html" target="_top" xlink:title=" ">
<polygon fill="white" stroke="#666666" points="1806,-525 1694,-525 1694,-495 1806,-495 1806,-525"/>
<text text-anchor="start" x="1702" y="-513" font-family="Helvetica,sans-Serif" font-size="10.00">src/service/network</text>
<text text-anchor="middle" x="1750" y="-502" font-family="Helvetica,sans-Serif" font-size="10.00">_tables.h</text>
</a>
</g>
</g>
<!-- Node2&#45;&gt;Node24 -->
<g id="edge39" class="edge">
<title>Node2&#45;&gt;Node24</title>
<path fill="none" stroke="#63b8ff" d="M1542.77,-558.73C1585.4,-548.91 1648.44,-534.39 1693.79,-523.95"/>
<polygon fill="#63b8ff" stroke="#63b8ff" points="1541.89,-555.34 1532.93,-560.99 1543.46,-562.16 1541.89,-555.34"/>
</g>
<!-- Node4 -->
<g id="node4" class="node">
<title>Node4</title>
<g id="a_node4"><a xlink:href="node__state_8h.html" target="_top" xlink:title=" ">
<polygon fill="white" stroke="#666666" points="1620,-189.5 1496,-189.5 1496,-170.5 1620,-170.5 1620,-189.5"/>
<text text-anchor="middle" x="1558" y="-177.5" font-family="Helvetica,sans-Serif" font-size="10.00">src/node/node_state.h</text>
</a>
</g>
</g>
<!-- Node3&#45;&gt;Node4 -->
<g id="edge3" class="edge">
<title>Node3&#45;&gt;Node4</title>
<path fill="none" stroke="#63b8ff" d="M1494.86,-423.95C1493.27,-385.81 1493.14,-297.99 1520,-231 1526.57,-214.61 1540.04,-198.94 1549.05,-189.64"/>
<polygon fill="#63b8ff" stroke="#63b8ff" points="1491.37,-424.31 1495.37,-434.12 1498.36,-423.95 1491.37,-424.31"/>
</g>
<!-- Node5 -->
<g id="node5" class="node">
<title>Node5</title>
<g id="a_node5"><a xlink:href="src_2enclave_2enclave_8h.html" target="_top" xlink:title=" ">
<polygon fill="white" stroke="#666666" points="1500,-74 1378,-74 1378,-55 1500,-55 1500,-74"/>
<text text-anchor="middle" x="1439" y="-62" font-family="Helvetica,sans-Serif" font-size="10.00">src/enclave/enclave.h</text>
</a>
</g>
</g>
<!-- Node4&#45;&gt;Node5 -->
<g id="edge4" class="edge">
<title>Node4&#45;&gt;Node5</title>
<path fill="none" stroke="#63b8ff" d="M1529.57,-165.78C1512.87,-157.03 1492.13,-144.34 1477,-129 1460.58,-112.35 1448.3,-87.28 1442.57,-74.18"/>
<polygon fill="#63b8ff" stroke="#63b8ff" points="1528.36,-169.09 1538.86,-170.47 1531.51,-162.84 1528.36,-169.09"/>
</g>
<!-- Node7 -->
<g id="node7" class="node">
<title>Node7</title>
<g id="a_node7"><a xlink:href="gov__effects_8h.html" target="_top" xlink:title=" ">
<polygon fill="white" stroke="#666666" points="1630,-129 1486,-129 1486,-110 1630,-110 1630,-129"/>
<text text-anchor="middle" x="1558" y="-117" font-family="Helvetica,sans-Serif" font-size="10.00">src/node/rpc/gov_effects.h</text>
</a>
</g>
</g>
<!-- Node4&#45;&gt;Node7 -->
<g id="edge6" class="edge">
<title>Node4&#45;&gt;Node7</title>
<path fill="none" stroke="#63b8ff" d="M1558,-160.16C1558,-149.74 1558,-137.3 1558,-129.17"/>
<polygon fill="#63b8ff" stroke="#63b8ff" points="1554.5,-160.37 1558,-170.37 1561.5,-160.37 1554.5,-160.37"/>
</g>
<!-- Node6 -->
<g id="node6" class="node">
<title>Node6</title>
<g id="a_node6"><a xlink:href="enclave_2main_8cpp.html" target="_top" xlink:title=" ">
<polygon fill="white" stroke="#666666" points="1499,-19 1379,-19 1379,0 1499,0 1499,-19"/>
<text text-anchor="middle" x="1439" y="-7" font-family="Helvetica,sans-Serif" font-size="10.00">src/enclave/main.cpp</text>
</a>
</g>
</g>
<!-- Node5&#45;&gt;Node6 -->
<g id="edge5" class="edge">
<title>Node5&#45;&gt;Node6</title>
<path fill="none" stroke="#63b8ff" d="M1439,-44.66C1439,-35.93 1439,-25.99 1439,-19.09"/>
<polygon fill="#63b8ff" stroke="#63b8ff" points="1435.5,-44.75 1439,-54.75 1442.5,-44.75 1435.5,-44.75"/>
</g>
<!-- Node7&#45;&gt;Node5 -->
<g id="edge7" class="edge">
<title>Node7&#45;&gt;Node5</title>
<path fill="none" stroke="#63b8ff" d="M1529.7,-105.9C1507.72,-96.11 1477.82,-82.79 1458.47,-74.17"/>
<polygon fill="#63b8ff" stroke="#63b8ff" points="1528.32,-109.11 1538.88,-109.98 1531.17,-102.72 1528.32,-109.11"/>
</g>
<!-- Node9&#45;&gt;Node5 -->
<g id="edge10" class="edge">
<title>Node9&#45;&gt;Node5</title>
<path fill="none" stroke="#63b8ff" d="M116.01,-360.99C198.02,-338.27 331,-294.17 331,-247 331,-247 331,-247 331,-179 331,-128.95 373.01,-127.24 420,-110 509.62,-77.13 1171.19,-68.06 1377.64,-66.02"/>
<polygon fill="#63b8ff" stroke="#63b8ff" points="114.99,-357.64 106.27,-363.66 116.84,-364.39 114.99,-357.64"/>
</g>
<!-- Node10 -->
<g id="node10" class="node">
<title>Node10</title>
<g id="a_node10"><a xlink:href="historical__transaction__fetcher_8h.html" target="_top" xlink:title=" ">
<polygon fill="white" stroke="#666666" points="249.5,-195 124.5,-195 124.5,-165 249.5,-165 249.5,-195"/>
<text text-anchor="start" x="132.5" y="-183" font-family="Helvetica,sans-Serif" font-size="10.00">src/indexing/historical</text>
<text text-anchor="middle" x="187" y="-172" font-family="Helvetica,sans-Serif" font-size="10.00">_transaction_fetcher.h</text>
</a>
</g>
</g>
<!-- Node9&#45;&gt;Node10 -->
<g id="edge11" class="edge">
<title>Node9&#45;&gt;Node10</title>
<path fill="none" stroke="#63b8ff" d="M68.41,-354.46C96.27,-313.71 154.25,-228.91 177.27,-195.23"/>
<polygon fill="#63b8ff" stroke="#63b8ff" points="65.39,-352.67 62.64,-362.9 71.17,-356.62 65.39,-352.67"/>
</g>
<!-- Node10&#45;&gt;Node5 -->
<g id="edge12" class="edge">
<title>Node10&#45;&gt;Node5</title>
<path fill="none" stroke="#63b8ff" d="M214.89,-159.42C240.21,-142.84 279.27,-120.19 317,-110 419.39,-82.34 1158.53,-69.55 1377.82,-66.34"/>
<polygon fill="#63b8ff" stroke="#63b8ff" points="212.9,-156.54 206.53,-165 216.79,-162.36 212.9,-156.54"/>
</g>
<!-- Node11&#45;&gt;Node4 -->
<g id="edge15" class="edge">
<title>Node11&#45;&gt;Node4</title>
<path fill="none" stroke="#63b8ff" d="M396,-490.16C396,-464.87 396,-418.55 396,-379 396,-379 396,-379 396,-311 396,-199.29 1255.14,-183.57 1495.94,-181.36"/>
<polygon fill="#63b8ff" stroke="#63b8ff" points="392.5,-490.48 396,-500.48 399.5,-490.48 392.5,-490.48"/>
</g>
<!-- Node11&#45;&gt;Node9 -->
<g id="edge14" class="edge">
<title>Node11&#45;&gt;Node9</title>
<path fill="none" stroke="#63b8ff" d="M357.82,-497.36C326.91,-487.71 282.35,-473.31 244,-459 187.08,-437.75 122.07,-409.7 84.46,-393.08"/>
<polygon fill="#63b8ff" stroke="#63b8ff" points="357.17,-500.82 367.75,-500.44 359.24,-494.13 357.17,-500.82"/>
</g>
<!-- Node12 -->
<g id="node12" class="node">
<title>Node12</title>
<g id="a_node12"><a xlink:href="snapshot__serdes_8h.html" target="_top" xlink:title=" ">
<polygon fill="white" stroke="#666666" points="576,-387.5 424,-387.5 424,-368.5 576,-368.5 576,-387.5"/>
<text text-anchor="middle" x="500" y="-375.5" font-family="Helvetica,sans-Serif" font-size="10.00">src/node/snapshot_serdes.h</text>
</a>
</g>
</g>
<!-- Node11&#45;&gt;Node12 -->
<g id="edge16" class="edge">
<title>Node11&#45;&gt;Node12</title>
<path fill="none" stroke="#63b8ff" d="M409.23,-492.46C431.54,-464.58 475.88,-409.15 493.01,-387.73"/>
<polygon fill="#63b8ff" stroke="#63b8ff" points="406.34,-490.48 402.82,-500.47 411.8,-494.85 406.34,-490.48"/>
</g>
<!-- Node14 -->
<g id="node14" class="node">
<title>Node14</title>
<g id="a_node14"><a xlink:href="tx__receipt__impl_8h.html" target="_top" xlink:title=" ">
<polygon fill="white" stroke="#666666" points="363,-459 253,-459 253,-429 363,-429 363,-459"/>
<text text-anchor="start" x="261" y="-447" font-family="Helvetica,sans-Serif" font-size="10.00">src/node/tx_receipt</text>
<text text-anchor="middle" x="308" y="-436" font-family="Helvetica,sans-Serif" font-size="10.00">_impl.h</text>
</a>
</g>
</g>
<!-- Node11&#45;&gt;Node14 -->
<g id="edge19" class="edge">
<title>Node11&#45;&gt;Node14</title>
<path fill="none" stroke="#63b8ff" d="M375.81,-494.32C361.27,-483.74 341.77,-469.56 327.41,-459.12"/>
<polygon fill="#63b8ff" stroke="#63b8ff" points="373.99,-497.32 384.13,-500.37 378.1,-491.66 373.99,-497.32"/>
</g>
<!-- Node12&#45;&gt;Node13 -->
<g id="edge17" class="edge">
<title>Node12&#45;&gt;Node13</title>
<path fill="none" stroke="#63b8ff" d="M507.39,-358.82C512.29,-346.74 518.52,-331.41 522.38,-321.91"/>
<polygon fill="#63b8ff" stroke="#63b8ff" points="504.03,-357.79 503.51,-368.37 510.51,-360.42 504.03,-357.79"/>
</g>
<!-- Node13&#45;&gt;Node4 -->
<g id="edge18" class="edge">
<title>Node13&#45;&gt;Node4</title>
<path fill="none" stroke="#63b8ff" d="M558.51,-298.99C609.26,-280.81 710.79,-246.77 800,-231 1055.19,-185.89 1365.22,-180.57 1495.55,-180.54"/>
<polygon fill="#63b8ff" stroke="#63b8ff" points="557.27,-295.72 549.05,-302.4 559.64,-302.3 557.27,-295.72"/>
</g>
<!-- Node14&#45;&gt;Node9 -->
<g id="edge20" class="edge">
<title>Node14&#45;&gt;Node9</title>
<path fill="none" stroke="#63b8ff" d="M243.04,-426.7C200.64,-416.05 145.98,-402.34 106.17,-392.35"/>
<polygon fill="#63b8ff" stroke="#63b8ff" points="242.43,-430.15 252.98,-429.19 244.14,-423.36 242.43,-430.15"/>
</g>
<!-- Node14&#45;&gt;Node12 -->
<g id="edge23" class="edge">
<title>Node14&#45;&gt;Node12</title>
<path fill="none" stroke="#63b8ff" d="M359.79,-425.74C396.91,-413.36 445.31,-397.23 474.45,-387.52"/>
<polygon fill="#63b8ff" stroke="#63b8ff" points="358.52,-422.47 350.14,-428.95 360.73,-429.11 358.52,-422.47"/>
</g>
<!-- Node15 -->
<g id="node15" class="node">
<title>Node15</title>
<g id="a_node15"><a xlink:href="historical__queries__adapter_8cpp.html" target="_top" xlink:title=" ">
<polygon fill="white" stroke="#666666" points="368,-393 248,-393 248,-363 368,-363 368,-393"/>
<text text-anchor="start" x="256" y="-381" font-family="Helvetica,sans-Serif" font-size="10.00">src/node/historical</text>
<text text-anchor="middle" x="308" y="-370" font-family="Helvetica,sans-Serif" font-size="10.00">_queries_adapter.cpp</text>
</a>
</g>
</g>
<!-- Node14&#45;&gt;Node15 -->
<g id="edge21" class="edge">
<title>Node14&#45;&gt;Node15</title>
<path fill="none" stroke="#63b8ff" d="M308,-418.54C308,-409.96 308,-400.61 308,-393.16"/>
<polygon fill="#63b8ff" stroke="#63b8ff" points="304.5,-418.8 308,-428.8 311.5,-418.8 304.5,-418.8"/>
</g>
<!-- Node16 -->
<g id="node16" class="node">
<title>Node16</title>
<g id="a_node16"><a xlink:href="historical__queries__utils_8cpp.html" target="_top" xlink:title=" ">
<polygon fill="white" stroke="#666666" points="230,-393 124,-393 124,-363 230,-363 230,-393"/>
<text text-anchor="start" x="132" y="-381" font-family="Helvetica,sans-Serif" font-size="10.00">src/node/historical</text>
<text text-anchor="middle" x="177" y="-370" font-family="Helvetica,sans-Serif" font-size="10.00">_queries_utils.cpp</text>
</a>
</g>
</g>
<!-- Node14&#45;&gt;Node16 -->
<g id="edge22" class="edge">
<title>Node14&#45;&gt;Node16</title>
<path fill="none" stroke="#63b8ff" d="M270.16,-424.51C249.61,-414.47 224.61,-402.26 205.68,-393.01"/>
<polygon fill="#63b8ff" stroke="#63b8ff" points="268.73,-427.71 279.25,-428.95 271.8,-421.42 268.73,-427.71"/>
</g>
<!-- Node17&#45;&gt;Node4 -->
<g id="edge29" class="edge">
<title>Node17&#45;&gt;Node4</title>
<path fill="none" stroke="#63b8ff" d="M2192.28,-358.21C2192.5,-340.7 2190.22,-314.7 2177,-297 2137.5,-244.14 2107.39,-249.34 2044,-231 1896.32,-188.28 1714.14,-180.99 1620.34,-180.37"/>
<polygon fill="#63b8ff" stroke="#63b8ff" points="2188.78,-358.18 2191.87,-368.32 2195.78,-358.47 2188.78,-358.18"/>
</g>
<!-- Node18 -->
<g id="node18" class="node">
<title>Node18</title>
<g id="a_node18"><a xlink:href="acme__challenge__frontend_8h.html" target="_top" xlink:title=" ">
<polygon fill="white" stroke="#666666" points="2030,-327 1890,-327 1890,-297 2030,-297 2030,-327"/>
<text text-anchor="start" x="1898" y="-315" font-family="Helvetica,sans-Serif" font-size="10.00">src/node/acme_challenge</text>
<text text-anchor="middle" x="1960" y="-304" font-family="Helvetica,sans-Serif" font-size="10.00">_frontend.h</text>
</a>
</g>
</g>
<!-- Node17&#45;&gt;Node18 -->
<g id="edge25" class="edge">
<title>Node17&#45;&gt;Node18</title>
<path fill="none" stroke="#63b8ff" d="M2149.93,-365.62C2111.1,-354.86 2052.73,-338.69 2010.95,-327.12"/>
<polygon fill="#63b8ff" stroke="#63b8ff" points="2149.27,-369.07 2159.85,-368.37 2151.14,-362.33 2149.27,-369.07"/>
</g>
<!-- Node20 -->
<g id="node20" class="node">
<title>Node20</title>
<g id="a_node20"><a xlink:href="member__frontend_8h.html" target="_top" xlink:title=" ">
<polygon fill="white" stroke="#666666" points="2168,-327 2048,-327 2048,-297 2168,-297 2168,-327"/>
<text text-anchor="start" x="2056" y="-315" font-family="Helvetica,sans-Serif" font-size="10.00">src/node/rpc/member</text>
<text text-anchor="middle" x="2108" y="-304" font-family="Helvetica,sans-Serif" font-size="10.00">_frontend.h</text>
</a>
</g>
</g>
<!-- Node17&#45;&gt;Node20 -->
<g id="edge30" class="edge">
<title>Node17&#45;&gt;Node20</title>
<path fill="none" stroke="#63b8ff" d="M2171.57,-362.02C2157.9,-351.48 2139.72,-337.46 2126.31,-327.12"/>
<polygon fill="#63b8ff" stroke="#63b8ff" points="2169.75,-365.03 2179.81,-368.37 2174.02,-359.49 2169.75,-365.03"/>
</g>
<!-- Node21 -->
<g id="node21" class="node">
<title>Node21</title>
<g id="a_node21"><a xlink:href="node__frontend_8h.html" target="_top" xlink:title=" ">
<polygon fill="white" stroke="#666666" points="1720,-321.5 1562,-321.5 1562,-302.5 1720,-302.5 1720,-321.5"/>
<text text-anchor="middle" x="1641" y="-309.5" font-family="Helvetica,sans-Serif" font-size="10.00">src/node/rpc/node_frontend.h</text>
</a>
</g>
</g>
<!-- Node17&#45;&gt;Node21 -->
<g id="edge32" class="edge">
<title>Node17&#45;&gt;Node21</title>
<path fill="none" stroke="#63b8ff" d="M2116.35,-368.31C2010.75,-356.03 1818.98,-333.71 1714.19,-321.52"/>
<polygon fill="#63b8ff" stroke="#63b8ff" points="2115.95,-371.79 2126.29,-369.47 2116.76,-364.84 2115.95,-371.79"/>
</g>
<!-- Node23 -->
<g id="node23" class="node">
<title>Node23</title>
<g id="a_node23"><a xlink:href="user__frontend_8h.html" target="_top" xlink:title=" ">
<polygon fill="white" stroke="#666666" points="2379.5,-321.5 2224.5,-321.5 2224.5,-302.5 2379.5,-302.5 2379.5,-321.5"/>
<text text-anchor="middle" x="2302" y="-309.5" font-family="Helvetica,sans-Serif" font-size="10.00">src/node/rpc/user_frontend.h</text>
</a>
</g>
</g>
<!-- Node17&#45;&gt;Node23 -->
<g id="edge36" class="edge">
<title>Node17&#45;&gt;Node23</title>
<path fill="none" stroke="#63b8ff" d="M2214.66,-363.36C2236.51,-350.76 2268.32,-332.42 2286.91,-321.7"/>
<polygon fill="#63b8ff" stroke="#63b8ff" points="2212.88,-360.34 2205.97,-368.37 2216.38,-366.41 2212.88,-360.34"/>
</g>
<!-- Node18&#45;&gt;Node5 -->
<g id="edge26" class="edge">
<title>Node18&#45;&gt;Node5</title>
<path fill="none" stroke="#63b8ff" d="M2010.55,-291.99C2023.78,-284.44 2036.44,-274.31 2044,-261 2050.59,-249.41 2051.97,-241.69 2044,-231 1978.38,-142.91 1640.44,-90.88 1500.15,-72.78"/>
<polygon fill="#63b8ff" stroke="#63b8ff" points="2008.59,-289.07 2001.36,-296.81 2011.84,-295.27 2008.59,-289.07"/>
</g>
<!-- Node19 -->
<g id="node19" class="node">
<title>Node19</title>
<g id="a_node19"><a xlink:href="ccf__acme__client_8h.html" target="_top" xlink:title=" ">
<polygon fill="white" stroke="#666666" points="2034.5,-255.5 1885.5,-255.5 1885.5,-236.5 2034.5,-236.5 2034.5,-255.5"/>
<text text-anchor="middle" x="1960" y="-243.5" font-family="Helvetica,sans-Serif" font-size="10.00">src/node/ccf_acme_client.h</text>
</a>
</g>
</g>
<!-- Node18&#45;&gt;Node19 -->
<g id="edge27" class="edge">
<title>Node18&#45;&gt;Node19</title>
<path fill="none" stroke="#63b8ff" d="M1960,-286.6C1960,-275.8 1960,-263.78 1960,-255.84"/>
<polygon fill="#63b8ff" stroke="#63b8ff" points="1956.5,-286.8 1960,-296.8 1963.5,-286.8 1956.5,-286.8"/>
</g>
<!-- Node19&#45;&gt;Node4 -->
<g id="edge28" class="edge">
<title>Node19&#45;&gt;Node4</title>
<path fill="none" stroke="#63b8ff" d="M1895.93,-234.8C1817.19,-222.26 1685.02,-201.22 1611.48,-189.51"/>
<polygon fill="#63b8ff" stroke="#63b8ff" points="1895.78,-238.32 1906.2,-236.44 1896.88,-231.41 1895.78,-238.32"/>
</g>
<!-- Node20&#45;&gt;Node5 -->
<g id="edge31" class="edge">
<title>Node20&#45;&gt;Node5</title>
<path fill="none" stroke="#63b8ff" d="M2096.78,-287.59C2088.09,-270.83 2075.03,-248.25 2060,-231 2029.27,-195.73 2019.55,-186.51 1978,-165 1819.55,-82.98 1604.06,-67.73 1500.09,-65.44"/>
<polygon fill="#63b8ff" stroke="#63b8ff" points="2093.74,-289.35 2101.37,-296.71 2100,-286.21 2093.74,-289.35"/>
</g>
<!-- Node21&#45;&gt;Node5 -->
<g id="edge33" class="edge">
<title>Node21&#45;&gt;Node5</title>
<path fill="none" stroke="#63b8ff" d="M1614.74,-297.51C1580.76,-278.81 1521.8,-241.95 1487,-195 1457.73,-155.51 1444.56,-96.22 1440.47,-74.17"/>
<polygon fill="#63b8ff" stroke="#63b8ff" points="1613.16,-300.63 1623.62,-302.3 1616.48,-294.47 1613.16,-300.63"/>
</g>
<!-- Node22 -->
<g id="node22" class="node">
<title>Node22</title>
<g id="a_node22"><a xlink:href="jwt__key__auto__refresh_8h.html" target="_top" xlink:title=" ">
<polygon fill="white" stroke="#666666" points="1695.5,-261 1570.5,-261 1570.5,-231 1695.5,-231 1695.5,-261"/>
<text text-anchor="start" x="1578.5" y="-249" font-family="Helvetica,sans-Serif" font-size="10.00">src/node/jwt_key_auto</text>
<text text-anchor="middle" x="1633" y="-238" font-family="Helvetica,sans-Serif" font-size="10.00">_refresh.h</text>
</a>
</g>
</g>
<!-- Node21&#45;&gt;Node22 -->
<g id="edge34" class="edge">
<title>Node21&#45;&gt;Node22</title>
<path fill="none" stroke="#63b8ff" d="M1638.67,-292.35C1637.43,-282.47 1635.94,-270.51 1634.8,-261.36"/>
<polygon fill="#63b8ff" stroke="#63b8ff" points="1635.21,-292.88 1639.92,-302.37 1642.15,-292.01 1635.21,-292.88"/>
</g>
<!-- Node22&#45;&gt;Node4 -->
<g id="edge35" class="edge">
<title>Node22&#45;&gt;Node4</title>
<path fill="none" stroke="#63b8ff" d="M1608.69,-224.26C1595.05,-212.61 1578.73,-198.69 1568.36,-189.84"/>
<polygon fill="#63b8ff" stroke="#63b8ff" points="1606.48,-226.97 1616.36,-230.8 1611.02,-221.64 1606.48,-226.97"/>
</g>
<!-- Node23&#45;&gt;Node5 -->
<g id="edge37" class="edge">
<title>Node23&#45;&gt;Node5</title>
<path fill="none" stroke="#63b8ff" d="M2277.45,-297.52C2228.33,-270.78 2114.13,-209.71 2015,-165 1954.44,-137.69 1940.55,-125.74 1876,-110 1744.67,-77.98 1585.71,-68.97 1500.33,-66.45"/>
<polygon fill="#63b8ff" stroke="#63b8ff" points="2275.93,-300.68 2286.39,-302.4 2279.29,-294.54 2275.93,-300.68"/>
</g>
<!-- Node24&#45;&gt;Node19 -->
<g id="edge40" class="edge">
<title>Node24&#45;&gt;Node19</title>
<path fill="none" stroke="#63b8ff" d="M1760.15,-485.54C1779.1,-443.77 1823.23,-355.39 1881,-297 1898.92,-278.88 1924.57,-264.18 1941.74,-255.52"/>
<polygon fill="#63b8ff" stroke="#63b8ff" points="1756.86,-484.33 1755.98,-494.88 1763.25,-487.18 1756.86,-484.33"/>
</g>
<!-- Node25 -->
<g id="node25" class="node">
<title>Node25</title>
<g id="a_node25"><a xlink:href="network__state_8h.html" target="_top" xlink:title=" ">
<polygon fill="white" stroke="#666666" points="1751,-453.5 1611,-453.5 1611,-434.5 1751,-434.5 1751,-453.5"/>
<text text-anchor="middle" x="1681" y="-441.5" font-family="Helvetica,sans-Serif" font-size="10.00">src/node/network_state.h</text>
</a>
</g>
</g>
<!-- Node24&#45;&gt;Node25 -->
<g id="edge41" class="edge">
<title>Node24&#45;&gt;Node25</title>
<path fill="none" stroke="#63b8ff" d="M1727.29,-487.93C1714.8,-476.35 1699.98,-462.61 1690.54,-453.84"/>
<polygon fill="#63b8ff" stroke="#63b8ff" points="1724.97,-490.56 1734.69,-494.8 1729.74,-485.43 1724.97,-490.56"/>
</g>
<!-- Node36 -->
<g id="node36" class="node">
<title>Node36</title>
<g id="a_node36"><a xlink:href="genesis__gen_8h.html" target="_top" xlink:title=" ">
<polygon fill="white" stroke="#666666" points="1958,-459 1848,-459 1848,-429 1958,-429 1958,-459"/>
<text text-anchor="start" x="1856" y="-447" font-family="Helvetica,sans-Serif" font-size="10.00">src/service/genesis</text>
<text text-anchor="middle" x="1903" y="-436" font-family="Helvetica,sans-Serif" font-size="10.00">_gen.h</text>
</a>
</g>
</g>
<!-- Node24&#45;&gt;Node36 -->
<g id="edge69" class="edge">
<title>Node24&#45;&gt;Node36</title>
<path fill="none" stroke="#63b8ff" d="M1792.9,-491.05C1817.14,-480.91 1847,-468.43 1869.5,-459.01"/>
<polygon fill="#63b8ff" stroke="#63b8ff" points="1791.45,-487.87 1783.58,-494.95 1794.15,-494.32 1791.45,-487.87"/>
</g>
<!-- Node25&#45;&gt;Node4 -->
<g id="edge60" class="edge">
<title>Node25&#45;&gt;Node4</title>
<path fill="none" stroke="#63b8ff" d="M1647.05,-430.54C1627.91,-422.2 1604.59,-409.68 1588,-393 1564.59,-369.46 1561.01,-359.22 1553,-327 1540.39,-276.3 1551.31,-212.66 1556.06,-189.73"/>
<polygon fill="#63b8ff" stroke="#63b8ff" points="1645.77,-433.8 1656.34,-434.41 1648.46,-427.34 1645.77,-433.8"/>
</g>
<!-- Node25&#45;&gt;Node5 -->
<g id="edge42" class="edge">
<title>Node25&#45;&gt;Node5</title>
<path fill="none" stroke="#63b8ff" d="M1608.07,-433.25C1594.44,-431.65 1580.3,-430.15 1567,-429 1248.23,-401.48 1166.09,-427.49 848,-393 803.87,-388.22 486.6,-357.12 454,-327 427.08,-302.13 434,-283.65 434,-247 434,-247 434,-247 434,-179 434,-83.52 1159.45,-68.35 1377.65,-65.95"/>
<polygon fill="#63b8ff" stroke="#63b8ff" points="1608.02,-436.77 1618.37,-434.48 1608.85,-429.82 1608.02,-436.77"/>
</g>
<!-- Node25&#45;&gt;Node13 -->
<g id="edge68" class="edge">
<title>Node25&#45;&gt;Node13</title>
<path fill="none" stroke="#63b8ff" d="M1605.46,-433.27C1592.64,-431.75 1579.44,-430.26 1567,-429 1368.27,-408.82 1317.68,-413.7 1119,-393 889.48,-369.08 832.08,-362.06 604,-327 593.39,-325.37 582.01,-323.43 571.31,-321.53"/>
<polygon fill="#63b8ff" stroke="#63b8ff" points="1605.3,-436.78 1615.64,-434.5 1606.13,-429.83 1605.3,-436.78"/>
</g>
<!-- Node25&#45;&gt;Node18 -->
<g id="edge59" class="edge">
<title>Node25&#45;&gt;Node18</title>
<path fill="none" stroke="#63b8ff" d="M1712.33,-430.66C1736.7,-420.89 1771.26,-406.66 1801,-393 1848.32,-371.27 1902.23,-343.49 1933.56,-327.03"/>
<polygon fill="#63b8ff" stroke="#63b8ff" points="1710.87,-427.47 1702.88,-434.43 1713.47,-433.97 1710.87,-427.47"/>
</g>
<!-- Node25&#45;&gt;Node21 -->
<g id="edge61" class="edge">
<title>Node25&#45;&gt;Node21</title>
<path fill="none" stroke="#63b8ff" d="M1642.7,-430.56C1625.18,-422.73 1606.11,-410.68 1596,-393 1581.21,-367.13 1612.04,-336.37 1629.73,-321.66"/>
<polygon fill="#63b8ff" stroke="#63b8ff" points="1641.63,-433.9 1652.21,-434.48 1644.3,-427.43 1641.63,-433.9"/>
</g>
<!-- Node25&#45;&gt;Node23 -->
<g id="edge62" class="edge">
<title>Node25&#45;&gt;Node23</title>
<path fill="none" stroke="#63b8ff" d="M1761.5,-435.8C1786.35,-433.6 1813.8,-431.18 1839,-429 1933.65,-420.81 2187.18,-447.5 2265,-393 2289.44,-375.88 2298.12,-338.43 2300.86,-321.55"/>
<polygon fill="#63b8ff" stroke="#63b8ff" points="1761.04,-432.33 1751.39,-436.7 1761.66,-439.3 1761.04,-432.33"/>
</g>
<!-- Node26 -->
<g id="node26" class="node">
<title>Node26</title>
<g id="a_node26"><a xlink:href="wrap_8h.html" target="_top" xlink:title=" ">
<polygon fill="white" stroke="#666666" points="1206,-387.5 1128,-387.5 1128,-368.5 1206,-368.5 1206,-387.5"/>
<text text-anchor="middle" x="1167" y="-375.5" font-family="Helvetica,sans-Serif" font-size="10.00">src/js/wrap.h</text>
</a>
</g>
</g>
<!-- Node25&#45;&gt;Node26 -->
<g id="edge43" class="edge">
<title>Node25&#45;&gt;Node26</title>
<path fill="none" stroke="#63b8ff" d="M1602.29,-433.2C1490.69,-419.3 1290.64,-394.39 1206.26,-383.89"/>
<polygon fill="#63b8ff" stroke="#63b8ff" points="1602.12,-436.71 1612.48,-434.47 1602.99,-429.76 1602.12,-436.71"/>
</g>
<!-- Node34 -->
<g id="node34" class="node">
<title>Node34</title>
<g id="a_node34"><a xlink:href="secret__broadcast_8h.html" target="_top" xlink:title=" ">
<polygon fill="white" stroke="#666666" points="1791.5,-387.5 1638.5,-387.5 1638.5,-368.5 1791.5,-368.5 1791.5,-387.5"/>
<text text-anchor="middle" x="1715" y="-375.5" font-family="Helvetica,sans-Serif" font-size="10.00">src/node/secret_broadcast.h</text>
</a>
</g>
</g>
<!-- Node25&#45;&gt;Node34 -->
<g id="edge63" class="edge">
<title>Node25&#45;&gt;Node34</title>
<path fill="none" stroke="#63b8ff" d="M1690.46,-425.18C1696.91,-413.05 1705.17,-397.51 1710.27,-387.91"/>
<polygon fill="#63b8ff" stroke="#63b8ff" points="1687.19,-423.9 1685.59,-434.37 1693.37,-427.18 1687.19,-423.9"/>
</g>
<!-- Node35 -->
<g id="node35" class="node">
<title>Node35</title>
<g id="a_node35"><a xlink:href="share__manager_8h.html" target="_top" xlink:title=" ">
<polygon fill="white" stroke="#666666" points="2031.5,-387.5 1886.5,-387.5 1886.5,-368.5 2031.5,-368.5 2031.5,-387.5"/>
<text text-anchor="middle" x="1959" y="-375.5" font-family="Helvetica,sans-Serif" font-size="10.00">src/node/share_manager.h</text>
</a>
</g>
</g>
<!-- Node25&#45;&gt;Node35 -->
<g id="edge65" class="edge">
<title>Node25&#45;&gt;Node35</title>
<path fill="none" stroke="#63b8ff" d="M1728,-432.18C1782.73,-419.58 1871.99,-399.03 1922.02,-387.51"/>
<polygon fill="#63b8ff" stroke="#63b8ff" points="1727.16,-428.78 1718.2,-434.44 1728.73,-435.6 1727.16,-428.78"/>
</g>
<!-- Node26&#45;&gt;Node4 -->
<g id="edge56" class="edge">
<title>Node26&#45;&gt;Node4</title>
<path fill="none" stroke="#63b8ff" d="M1216.23,-373.41C1284.97,-367.49 1405.1,-353.62 1439,-327 1475.77,-298.12 1451.7,-266.61 1482,-231 1497.86,-212.36 1522.38,-197.96 1539.25,-189.5"/>
<polygon fill="#63b8ff" stroke="#63b8ff" points="1215.75,-369.94 1206.07,-374.26 1216.33,-376.91 1215.75,-369.94"/>
</g>
<!-- Node26&#45;&gt;Node5 -->
<g id="edge45" class="edge">
<title>Node26&#45;&gt;Node5</title>
<path fill="none" stroke="#63b8ff" d="M1117.87,-372.74C987.34,-361.38 641.52,-330.94 637,-327 609.43,-303.02 618,-283.54 618,-247 618,-247 618,-247 618,-179 618,-102.29 1187.69,-74.62 1377.96,-67.52"/>
<polygon fill="#63b8ff" stroke="#63b8ff" points="1117.72,-376.24 1127.99,-373.62 1118.33,-369.27 1117.72,-376.24"/>
</g>
<!-- Node26&#45;&gt;Node20 -->
<g id="edge57" class="edge">
<title>Node26&#45;&gt;Node20</title>
<path fill="none" stroke="#63b8ff" d="M1216.6,-376.63C1350.08,-375.11 1727.86,-367.28 2039,-327 2041.91,-326.62 2044.88,-326.19 2047.87,-325.73"/>
<polygon fill="#63b8ff" stroke="#63b8ff" points="1216.26,-373.14 1206.3,-376.74 1216.33,-380.14 1216.26,-373.14"/>
</g>
<!-- Node26&#45;&gt;Node21 -->
<g id="edge58" class="edge">
<title>Node26&#45;&gt;Node21</title>
<path fill="none" stroke="#63b8ff" d="M1216.28,-370.35C1302.86,-358.66 1482.16,-334.45 1577.75,-321.54"/>
<polygon fill="#63b8ff" stroke="#63b8ff" points="1215.63,-366.9 1206.19,-371.71 1216.57,-373.84 1215.63,-366.9"/>
</g>
<!-- Node27 -->
<g id="node27" class="node">
<title>Node27</title>
<g id="a_node27"><a xlink:href="js__generic__base_8cpp.html" target="_top" xlink:title=" ">
<polygon fill="white" stroke="#666666" points="1430,-327 1312,-327 1312,-297 1430,-297 1430,-327"/>
<text text-anchor="start" x="1320" y="-315" font-family="Helvetica,sans-Serif" font-size="10.00">src/apps/js_generic</text>
<text text-anchor="middle" x="1371" y="-304" font-family="Helvetica,sans-Serif" font-size="10.00">/js_generic_base.cpp</text>
</a>
</g>
</g>
<!-- Node26&#45;&gt;Node27 -->
<g id="edge44" class="edge">
<title>Node26&#45;&gt;Node27</title>
<path fill="none" stroke="#63b8ff" d="M1204.15,-365.35C1238.43,-354.59 1289.43,-338.59 1326.01,-327.12"/>
<polygon fill="#63b8ff" stroke="#63b8ff" points="1203.01,-362.04 1194.51,-368.37 1205.1,-368.71 1203.01,-362.04"/>
</g>
<!-- Node28 -->
<g id="node28" class="node">
<title>Node28</title>
<g id="a_node28"><a xlink:href="consensus_8cpp.html" target="_top" xlink:title=" ">
<polygon fill="white" stroke="#666666" points="1042,-321.5 926,-321.5 926,-302.5 1042,-302.5 1042,-321.5"/>
<text text-anchor="middle" x="984" y="-309.5" font-family="Helvetica,sans-Serif" font-size="10.00">src/js/consensus.cpp</text>
</a>
</g>
</g>
<!-- Node26&#45;&gt;Node28 -->
<g id="edge46" class="edge">
<title>Node26&#45;&gt;Node28</title>
<path fill="none" stroke="#63b8ff" d="M1132.69,-365C1096.55,-352.36 1040.55,-332.78 1008.58,-321.6"/>
<polygon fill="#63b8ff" stroke="#63b8ff" points="1131.72,-368.37 1142.32,-368.37 1134.04,-361.76 1131.72,-368.37"/>
</g>
<!-- Node29 -->
<g id="node29" class="node">
<title>Node29</title>
<g id="a_node29"><a xlink:href="wrap_8cpp.html" target="_top" xlink:title=" ">
<polygon fill="white" stroke="#666666" points="897.5,-255.5 808.5,-255.5 808.5,-236.5 897.5,-236.5 897.5,-255.5"/>
<text text-anchor="middle" x="853" y="-243.5" font-family="Helvetica,sans-Serif" font-size="10.00">src/js/wrap.cpp</text>
</a>
</g>
</g>
<!-- Node26&#45;&gt;Node29 -->
<g id="edge55" class="edge">
<title>Node26&#45;&gt;Node29</title>
<path fill="none" stroke="#63b8ff" d="M1117.76,-374.05C1020.31,-367.72 810.36,-351.38 789,-327 766.96,-301.85 811.81,-270.5 837.19,-255.61"/>
<polygon fill="#63b8ff" stroke="#63b8ff" points="1117.75,-377.56 1127.95,-374.71 1118.19,-370.57 1117.75,-377.56"/>
</g>
<!-- Node30 -->
<g id="node30" class="node">
<title>Node30</title>
<g id="a_node30"><a xlink:href="conv_8cpp.html" target="_top" xlink:title=" ">
<polygon fill="white" stroke="#666666" points="1148,-321.5 1060,-321.5 1060,-302.5 1148,-302.5 1148,-321.5"/>
<text text-anchor="middle" x="1104" y="-309.5" font-family="Helvetica,sans-Serif" font-size="10.00">src/js/conv.cpp</text>
</a>
</g>
</g>
<!-- Node26&#45;&gt;Node30 -->
<g id="edge48" class="edge">
<title>Node26&#45;&gt;Node30</title>
<path fill="none" stroke="#63b8ff" d="M1151.23,-360.98C1139.06,-348.62 1122.69,-331.99 1112.77,-321.91"/>
<polygon fill="#63b8ff" stroke="#63b8ff" points="1148.99,-363.7 1158.5,-368.37 1153.98,-358.79 1148.99,-363.7"/>
</g>
<!-- Node31 -->
<g id="node31" class="node">
<title>Node31</title>
<g id="a_node31"><a xlink:href="crypto_8cpp.html" target="_top" xlink:title=" ">
<polygon fill="white" stroke="#666666" points="742,-321.5 646,-321.5 646,-302.5 742,-302.5 742,-321.5"/>
<text text-anchor="middle" x="694" y="-309.5" font-family="Helvetica,sans-Serif" font-size="10.00">src/js/crypto.cpp</text>
</a>
</g>
</g>
<!-- Node26&#45;&gt;Node31 -->
<g id="edge50" class="edge">
<title>Node26&#45;&gt;Node31</title>
<path fill="none" stroke="#63b8ff" d="M1117.59,-372.62C1040.17,-365.38 885.71,-349.47 756,-327 747.19,-325.47 737.75,-323.51 728.96,-321.54"/>
<polygon fill="#63b8ff" stroke="#63b8ff" points="1117.71,-376.14 1127.99,-373.58 1118.36,-369.17 1117.71,-376.14"/>
</g>
<!-- Node32 -->
<g id="node32" class="node">
<title>Node32</title>
<g id="a_node32"><a xlink:href="historical_8cpp.html" target="_top" xlink:title=" ">
<polygon fill="white" stroke="#666666" points="908,-321.5 798,-321.5 798,-302.5 908,-302.5 908,-321.5"/>
<text text-anchor="middle" x="853" y="-309.5" font-family="Helvetica,sans-Serif" font-size="10.00">src/js/historical.cpp</text>
</a>
</g>
</g>
<!-- Node26&#45;&gt;Node32 -->
<g id="edge52" class="edge">
<title>Node26&#45;&gt;Node32</title>
<path fill="none" stroke="#63b8ff" d="M1118,-367.47C1067.56,-357.6 986.71,-341.59 917,-327 908.76,-325.28 899.94,-323.38 891.56,-321.55"/>
<polygon fill="#63b8ff" stroke="#63b8ff" points="1117.5,-370.94 1127.98,-369.42 1118.84,-364.07 1117.5,-370.94"/>
</g>
<!-- Node33 -->
<g id="node33" class="node">
<title>Node33</title>
<g id="a_node33"><a xlink:href="openenclave_8cpp.html" target="_top" xlink:title=" ">
<polygon fill="white" stroke="#666666" points="1294,-321.5 1166,-321.5 1166,-302.5 1294,-302.5 1294,-321.5"/>
<text text-anchor="middle" x="1230" y="-309.5" font-family="Helvetica,sans-Serif" font-size="10.00">src/js/openenclave.cpp</text>
</a>
</g>
</g>
<!-- Node26&#45;&gt;Node33 -->
<g id="edge54" class="edge">
<title>Node26&#45;&gt;Node33</title>
<path fill="none" stroke="#63b8ff" d="M1182.77,-360.98C1194.94,-348.62 1211.31,-331.99 1221.23,-321.91"/>
<polygon fill="#63b8ff" stroke="#63b8ff" points="1180.02,-358.79 1175.5,-368.37 1185.01,-363.7 1180.02,-358.79"/>
</g>
<!-- Node28&#45;&gt;Node29 -->
<g id="edge47" class="edge">
<title>Node28&#45;&gt;Node29</title>
<path fill="none" stroke="#63b8ff" d="M957.11,-297.86C931.3,-285.25 893.04,-266.56 870.81,-255.7"/>
<polygon fill="#63b8ff" stroke="#63b8ff" points="955.81,-301.12 966.33,-302.37 958.88,-294.83 955.81,-301.12"/>
</g>
<!-- Node30&#45;&gt;Node29 -->
<g id="edge49" class="edge">
<title>Node30&#45;&gt;Node29</title>
<path fill="none" stroke="#63b8ff" d="M1062,-299.86C1058.28,-298.89 1054.57,-297.92 1051,-297 993.67,-282.19 926.88,-265.43 887.37,-255.56"/>
<polygon fill="#63b8ff" stroke="#63b8ff" points="1061.22,-303.28 1071.78,-302.43 1063,-296.5 1061.22,-303.28"/>
</g>
<!-- Node31&#45;&gt;Node29 -->
<g id="edge51" class="edge">
<title>Node31&#45;&gt;Node29</title>
<path fill="none" stroke="#63b8ff" d="M725.03,-298.51C756.45,-285.86 804.23,-266.63 831.64,-255.6"/>
<polygon fill="#63b8ff" stroke="#63b8ff" points="723.41,-295.39 715.44,-302.37 726.03,-301.88 723.41,-295.39"/>
</g>
<!-- Node32&#45;&gt;Node29 -->
<g id="edge53" class="edge">
<title>Node32&#45;&gt;Node29</title>
<path fill="none" stroke="#63b8ff" d="M853,-292.08C853,-280.13 853,-265.22 853,-255.91"/>
<polygon fill="#63b8ff" stroke="#63b8ff" points="849.5,-292.37 853,-302.37 856.5,-292.37 849.5,-292.37"/>
</g>
<!-- Node34&#45;&gt;Node4 -->
<g id="edge64" class="edge">
<title>Node34&#45;&gt;Node4</title>
<path fill="none" stroke="#63b8ff" d="M1721.46,-358.57C1724.4,-349.24 1727.54,-337.66 1729,-327 1734.98,-283.43 1736.42,-261.77 1705,-231 1682.27,-208.74 1649.27,-196.38 1620.28,-189.52"/>
<polygon fill="#63b8ff" stroke="#63b8ff" points="1718.06,-357.71 1718.22,-368.3 1724.7,-359.92 1718.06,-357.71"/>
</g>
<!-- Node35&#45;&gt;Node4 -->
<g id="edge66" class="edge">
<title>Node35&#45;&gt;Node4</title>
<path fill="none" stroke="#63b8ff" d="M1926.08,-364.76C1903.39,-355.7 1872.94,-342.33 1848,-327 1790.1,-291.42 1789.22,-262.48 1729,-231 1689.66,-210.44 1640.7,-197.22 1605.26,-189.57"/>
<polygon fill="#63b8ff" stroke="#63b8ff" points="1925.01,-368.1 1935.6,-368.48 1927.56,-361.58 1925.01,-368.1"/>
</g>
<!-- Node35&#45;&gt;Node20 -->
<g id="edge67" class="edge">
<title>Node35&#45;&gt;Node20</title>
<path fill="none" stroke="#63b8ff" d="M1988.42,-364.36C2013.4,-353.63 2049.22,-338.25 2075.14,-327.12"/>
<polygon fill="#63b8ff" stroke="#63b8ff" points="1986.9,-361.21 1979.09,-368.37 1989.66,-367.64 1986.9,-361.21"/>
</g>
<!-- Node36&#45;&gt;Node4 -->
<g id="edge70" class="edge">
<title>Node36&#45;&gt;Node4</title>
<path fill="none" stroke="#63b8ff" d="M1968.33,-429.74C2015.54,-417.15 2066.84,-395.3 2041,-363 1995.47,-306.08 1946.5,-358.98 1881,-327 1865.89,-319.62 1779.05,-238.5 1764,-231 1718.72,-208.42 1662.65,-195.67 1620.45,-188.7"/>
<polygon fill="#63b8ff" stroke="#63b8ff" points="1967.17,-426.42 1958.34,-432.28 1968.9,-433.2 1967.17,-426.42"/>
</g>
<!-- Node36&#45;&gt;Node20 -->
<g id="edge71" class="edge">
<title>Node36&#45;&gt;Node20</title>
<path fill="none" stroke="#63b8ff" d="M1967.83,-426.9C2012.66,-415.28 2065.68,-400.39 2074,-393 2093.51,-375.65 2102.18,-345.22 2105.75,-327.31"/>
<polygon fill="#63b8ff" stroke="#63b8ff" points="1966.93,-423.51 1958.12,-429.4 1968.67,-430.29 1966.93,-423.51"/>
</g>
<!-- Node36&#45;&gt;Node21 -->
<g id="edge72" class="edge">
<title>Node36&#45;&gt;Node21</title>
<path fill="none" stroke="#63b8ff" d="M1837.79,-435.45C1761.32,-425.93 1643.23,-408.87 1630,-393 1612.77,-372.32 1627.57,-337.66 1636.05,-321.62"/>
<polygon fill="#63b8ff" stroke="#63b8ff" points="1837.47,-438.94 1847.83,-436.68 1838.33,-431.99 1837.47,-438.94"/>
</g>
<!-- Node36&#45;&gt;Node34 -->
<g id="edge73" class="edge">
<title>Node36&#45;&gt;Node34</title>
<path fill="none" stroke="#63b8ff" d="M1851.82,-425.58C1815.54,-413.23 1768.43,-397.19 1740.02,-387.52"/>
<polygon fill="#63b8ff" stroke="#63b8ff" points="1851.15,-429.05 1861.74,-428.95 1853.4,-422.42 1851.15,-429.05"/>
</g>
<!-- Node36&#45;&gt;Node35 -->
<g id="edge74" class="edge">
<title>Node36&#45;&gt;Node35</title>
<path fill="none" stroke="#63b8ff" d="M1922.3,-420.94C1932.24,-409.58 1943.81,-396.36 1951.26,-387.84"/>
<polygon fill="#63b8ff" stroke="#63b8ff" points="1919.38,-418.97 1915.43,-428.8 1924.65,-423.58 1919.38,-418.97"/>
</g>
</g>
</svg>
        <g id="navigator" transform="translate(0 0)" fill="#404254">
                <rect fill="#f2f5e9" fill-opacity="0.5" stroke="#606060" stroke-width=".5" x="0" y="0" width="60" height="60"/>
                <use id="zoomplus" xlink:href="#zoomPlus" x="17" y="9" onmousedown="handleZoom(evt,'in')"/>
                <use id="zoomminus" xlink:href="#zoomMin" x="42" y="9" onmousedown="handleZoom(evt,'out')"/>
                <use id="reset" xlink:href="#resetDef" x="30" y="36" onmousedown="handleReset()"/>
                <g id="arrowUp" xlink:href="#dirArrow" transform="translate(30 24)" onmousedown="handlePan(0,-1)">
                  <use xlink:href="#rim" fill="#404040">
                        <set attributeName="fill" to="#808080" begin="arrowUp.mouseover" end="arrowUp.mouseout"/>
                  </use>
                  <path fill="none" stroke="white" stroke-width="1.5" d="M0,-3.0v7 M-2.5,-0.5L0,-3.0L2.5,-0.5"/>
                </g>
                <g id="arrowRight" xlink:href="#dirArrow" transform="rotate(90) translate(36 -43)" onmousedown="handlePan(1,0)">
                  <use xlink:href="#rim" fill="#404040">
                        <set attributeName="fill" to="#808080" begin="arrowRight.mouseover" end="arrowRight.mouseout"/>
                  </use>
                  <path fill="none" stroke="white" stroke-width="1.5" d="M0,-3.0v7 M-2.5,-0.5L0,-3.0L2.5,-0.5"/>
                </g>
                <g id="arrowDown" xlink:href="#dirArrow" transform="rotate(180) translate(-30 -48)" onmousedown="handlePan(0,1)">
                  <use xlink:href="#rim" fill="#404040">
                        <set attributeName="fill" to="#808080" begin="arrowDown.mouseover" end="arrowDown.mouseout"/>
                  </use>
                  <path fill="none" stroke="white" stroke-width="1.5" d="M0,-3.0v7 M-2.5,-0.5L0,-3.0L2.5,-0.5"/>
                </g>
                <g id="arrowLeft" xlink:href="#dirArrow" transform="rotate(270) translate(-36 17)" onmousedown="handlePan(-1,0)">
                  <use xlink:href="#rim" fill="#404040">
                        <set attributeName="fill" to="#808080" begin="arrowLeft.mouseover" end="arrowLeft.mouseout"/>
                  </use>
                  <path fill="none" stroke="white" stroke-width="1.5" d="M0,-3.0v7 M-2.5,-0.5L0,-3.0L2.5,-0.5"/>
                </g>
        </g>
        <svg viewBox="0 0 15 15" width="100%" height="30px" preserveAspectRatio="xMaxYMin meet">
         <g id="arrow_out" transform="scale(0.3 0.3)">
          <a xlink:href="deserialise_8h__dep__incl_org.svg" target="_base">
           <rect id="button" ry="5" rx="5" y="6" x="6" height="38" width="38"
                fill="#f2f5e9" fill-opacity="0.5" stroke="#606060" stroke-width="1.0"/>
           <path id="arrow"
             d="M 11.500037,31.436501 C 11.940474,20.09759 22.043105,11.32322 32.158766,21.979434 L 37.068811,17.246167 C 37.068811,17.246167 37.088388,32 37.088388,32 L 22.160133,31.978069 C 22.160133,31.978069 26.997745,27.140456 26.997745,27.140456 C 18.528582,18.264221 13.291696,25.230495 11.500037,31.436501 z"
             style="fill:#404040;"/>
          </a>
         </g>
        </svg>
</svg>
