<?xml version="1.0" encoding="UTF-8" standalone="no"?>
<!DOCTYPE svg PUBLIC "-//W3C//DTD SVG 1.1//EN"
 "http://www.w3.org/Graphics/SVG/1.1/DTD/svg11.dtd">
<!-- Generated by graphviz version 2.43.0 (0)
 -->
<!-- Title: src/common/enclave_interface_types.h Pages: 1 -->
<!--zoomable 676 -->
<svg id="main" version="1.1" xmlns="http://www.w3.org/2000/svg" xmlns:xlink="http://www.w3.org/1999/xlink" xml:space="preserve" onload="init(evt)">
<style type="text/css"><![CDATA[
.edge:hover path { stroke: red; }
.edge:hover polygon { stroke: red; fill: red; }
]]></style>
<script type="text/javascript"><![CDATA[
var edges = document.getElementsByTagName('g');
if (edges && edges.length) {
  for (var i=0;i<edges.length;i++) {
    if (edges[i].id.substr(0,4)=='edge') {
      edges[i].setAttribute('class','edge');
    }
  }
}
]]></script>
        <defs>
                <circle id="rim" cx="0" cy="0" r="7"/>
                <circle id="rim2" cx="0" cy="0" r="3.5"/>
                <g id="zoomPlus">
                        <use xlink:href="#rim" fill="#404040">
                                <set attributeName="fill" to="#808080" begin="zoomplus.mouseover" end="zoomplus.mouseout"/>
                        </use>
                        <path d="M-4,0h8M0,-4v8" fill="none" stroke="white" stroke-width="1.5" pointer-events="none"/>
                </g>
                <g id="zoomMin">
                        <use xlink:href="#rim" fill="#404040">
                                <set attributeName="fill" to="#808080" begin="zoomminus.mouseover" end="zoomminus.mouseout"/>
                        </use>
                        <path d="M-4,0h8" fill="none" stroke="white" stroke-width="1.5" pointer-events="none"/>
                </g>
                <g id="dirArrow">
                        <path fill="none" stroke="white" stroke-width="1.5" d="M0,-3.0v7 M-2.5,-0.5L0,-3.0L2.5,-0.5"/>
                </g>
               <g id="resetDef">
                       <use xlink:href="#rim2" fill="#404040">
                               <set attributeName="fill" to="#808080" begin="reset.mouseover" end="reset.mouseout"/>
                       </use>
               </g>
        </defs>

<script type="text/javascript">
var viewWidth = 2363;
var viewHeight = 676;
var sectionId = 'dynsection-0';
</script>
<script xlink:href="svgpan.js"/>
<svg id="graph" class="graph">
<g id="viewport">
<title>src/common/enclave_interface_types.h</title>
<!-- Node1 -->
<g id="node1" class="node">
<title>Node1</title>
<g id="a_node1"><a xlink:title=" ">
<polygon fill="#999999" stroke="#666666" points="2278,-668 2160,-668 2160,-638 2278,-638 2278,-668"/>
<text text-anchor="start" x="2168" y="-656" font-family="Helvetica,sans-Serif" font-size="10.00">src/common/enclave</text>
<text text-anchor="middle" x="2219" y="-645" font-family="Helvetica,sans-Serif" font-size="10.00">_interface_types.h</text>
</a>
</g>
</g>
<!-- Node2 -->
<g id="node2" class="node">
<title>Node2</title>
<g id="a_node2"><a xlink:href="common_2configuration_8h.html" target="_top" xlink:title=" ">
<polygon fill="white" stroke="#666666" points="2007,-596.5 1855,-596.5 1855,-577.5 2007,-577.5 2007,-596.5"/>
<text text-anchor="middle" x="1931" y="-584.5" font-family="Helvetica,sans-Serif" font-size="10.00">src/common/configuration.h</text>
</a>
</g>
</g>
<!-- Node1&#45;&gt;Node2 -->
<g id="edge1" class="edge">
<title>Node1&#45;&gt;Node2</title>
<path fill="none" stroke="#63b8ff" d="M2149.74,-636.61C2093.25,-624.06 2015.54,-606.79 1969.56,-596.57"/>
<polygon fill="#63b8ff" stroke="#63b8ff" points="2149.15,-640.06 2159.68,-638.82 2150.67,-633.23 2149.15,-640.06"/>
</g>
<!-- Node8 -->
<g id="node8" class="node">
<title>Node8</title>
<g id="a_node8"><a xlink:href="enclave_2main_8cpp.html" target="_top" xlink:title=" ">
<polygon fill="white" stroke="#666666" points="1906,-19 1786,-19 1786,0 1906,0 1906,-19"/>
<text text-anchor="middle" x="1846" y="-7" font-family="Helvetica,sans-Serif" font-size="10.00">src/enclave/main.cpp</text>
</a>
</g>
</g>
<!-- Node1&#45;&gt;Node8 -->
<g id="edge66" class="edge">
<title>Node1&#45;&gt;Node8</title>
<path fill="none" stroke="#63b8ff" d="M2219,-627.86C2219,-601.76 2219,-558.93 2219,-522 2219,-522 2219,-522 2219,-124 2219,-59.44 2011.91,-28.08 1906.34,-16.28"/>
<polygon fill="#63b8ff" stroke="#63b8ff" points="2215.5,-627.96 2219,-637.96 2222.5,-627.96 2215.5,-627.96"/>
</g>
<!-- Node37 -->
<g id="node37" class="node">
<title>Node37</title>
<g id="a_node37"><a xlink:href="virtual__enclave_8h.html" target="_top" xlink:title=" ">
<polygon fill="white" stroke="#666666" points="2354.5,-602 2247.5,-602 2247.5,-572 2354.5,-572 2354.5,-602"/>
<text text-anchor="start" x="2255.5" y="-590" font-family="Helvetica,sans-Serif" font-size="10.00">src/enclave/virtual</text>
<text text-anchor="middle" x="2301" y="-579" font-family="Helvetica,sans-Serif" font-size="10.00">_enclave.h</text>
</a>
</g>
</g>
<!-- Node1&#45;&gt;Node37 -->
<g id="edge67" class="edge">
<title>Node1&#45;&gt;Node37</title>
<path fill="none" stroke="#63b8ff" d="M2245.29,-631.48C2257.55,-621.91 2271.82,-610.77 2282.85,-602.16"/>
<polygon fill="#63b8ff" stroke="#63b8ff" points="2242.93,-628.88 2237.2,-637.8 2247.24,-634.4 2242.93,-628.88"/>
</g>
<!-- Node3 -->
<g id="node3" class="node">
<title>Node3</title>
<g id="a_node3"><a xlink:href="host_2configuration_8h.html" target="_top" xlink:title=" ">
<polygon fill="white" stroke="#666666" points="2162.5,-530.5 2031.5,-530.5 2031.5,-511.5 2162.5,-511.5 2162.5,-530.5"/>
<text text-anchor="middle" x="2097" y="-518.5" font-family="Helvetica,sans-Serif" font-size="10.00">src/host/configuration.h</text>
</a>
</g>
</g>
<!-- Node2&#45;&gt;Node3 -->
<g id="edge2" class="edge">
<title>Node2&#45;&gt;Node3</title>
<path fill="none" stroke="#63b8ff" d="M1962.97,-573.68C1995.77,-561.03 2045.96,-541.68 2074.7,-530.6"/>
<polygon fill="#63b8ff" stroke="#63b8ff" points="1961.46,-570.51 1953.39,-577.37 1963.98,-577.04 1961.46,-570.51"/>
</g>
<!-- Node5 -->
<g id="node5" class="node">
<title>Node5</title>
<g id="a_node5"><a xlink:href="frontend_8h.html" target="_top" xlink:title=" ">
<polygon fill="white" stroke="#666666" points="1766.5,-398.5 1637.5,-398.5 1637.5,-379.5 1766.5,-379.5 1766.5,-398.5"/>
<text text-anchor="middle" x="1702" y="-386.5" font-family="Helvetica,sans-Serif" font-size="10.00">src/node/rpc/frontend.h</text>
</a>
</g>
</g>
<!-- Node2&#45;&gt;Node5 -->
<g id="edge4" class="edge">
<title>Node2&#45;&gt;Node5</title>
<path fill="none" stroke="#63b8ff" d="M1909.13,-571.7C1894.81,-562.07 1875.87,-548.83 1860,-536 1799.87,-487.4 1733.68,-421.94 1710.54,-398.66"/>
<polygon fill="#63b8ff" stroke="#63b8ff" points="1907.53,-574.84 1917.8,-577.47 1911.41,-569.01 1907.53,-574.84"/>
</g>
<!-- Node16 -->
<g id="node16" class="node">
<title>Node16</title>
<g id="a_node16"><a xlink:href="node__call__types_8h.html" target="_top" xlink:title=" ">
<polygon fill="white" stroke="#666666" points="1993.5,-536 1868.5,-536 1868.5,-506 1993.5,-506 1993.5,-536"/>
<text text-anchor="start" x="1876.5" y="-524" font-family="Helvetica,sans-Serif" font-size="10.00">src/node/rpc/node_call</text>
<text text-anchor="middle" x="1931" y="-513" font-family="Helvetica,sans-Serif" font-size="10.00">_types.h</text>
</a>
</g>
</g>
<!-- Node2&#45;&gt;Node16 -->
<g id="edge22" class="edge">
<title>Node2&#45;&gt;Node16</title>
<path fill="none" stroke="#63b8ff" d="M1931,-567.35C1931,-557.47 1931,-545.51 1931,-536.36"/>
<polygon fill="#63b8ff" stroke="#63b8ff" points="1927.5,-567.37 1931,-577.37 1934.5,-567.37 1927.5,-567.37"/>
</g>
<!-- Node21 -->
<g id="node21" class="node">
<title>Node21</title>
<g id="a_node21"><a xlink:href="node__interface_8h.html" target="_top" xlink:title=" ">
<polygon fill="white" stroke="#666666" points="1415.5,-530.5 1254.5,-530.5 1254.5,-511.5 1415.5,-511.5 1415.5,-530.5"/>
<text text-anchor="middle" x="1335" y="-518.5" font-family="Helvetica,sans-Serif" font-size="10.00">src/node/rpc/node_interface.h</text>
</a>
</g>
</g>
<!-- Node2&#45;&gt;Node21 -->
<g id="edge32" class="edge">
<title>Node2&#45;&gt;Node21</title>
<path fill="none" stroke="#63b8ff" d="M1844.7,-576.73C1729.28,-564.34 1526.25,-542.54 1414.43,-530.53"/>
<polygon fill="#63b8ff" stroke="#63b8ff" points="1844.59,-580.24 1854.91,-577.83 1845.34,-573.28 1844.59,-580.24"/>
</g>
<!-- Node4 -->
<g id="node4" class="node">
<title>Node4</title>
<g id="a_node4"><a xlink:href="host_2main_8cpp.html" target="_top" xlink:title=" ">
<polygon fill="white" stroke="#666666" points="2168.5,-464.5 2065.5,-464.5 2065.5,-445.5 2168.5,-445.5 2168.5,-464.5"/>
<text text-anchor="middle" x="2117" y="-452.5" font-family="Helvetica,sans-Serif" font-size="10.00">src/host/main.cpp</text>
</a>
</g>
</g>
<!-- Node3&#45;&gt;Node4 -->
<g id="edge3" class="edge">
<title>Node3&#45;&gt;Node4</title>
<path fill="none" stroke="#63b8ff" d="M2102.68,-501.82C2106.46,-489.74 2111.25,-474.41 2114.22,-464.91"/>
<polygon fill="#63b8ff" stroke="#63b8ff" points="2099.34,-500.78 2099.7,-511.37 2106.02,-502.87 2099.34,-500.78"/>
</g>
<!-- Node6 -->
<g id="node6" class="node">
<title>Node6</title>
<g id="a_node6"><a xlink:href="acme__challenge__frontend_8h.html" target="_top" xlink:title=" ">
<polygon fill="white" stroke="#666666" points="1831,-338 1691,-338 1691,-308 1831,-308 1831,-338"/>
<text text-anchor="start" x="1699" y="-326" font-family="Helvetica,sans-Serif" font-size="10.00">src/node/acme_challenge</text>
<text text-anchor="middle" x="1761" y="-315" font-family="Helvetica,sans-Serif" font-size="10.00">_frontend.h</text>
</a>
</g>
</g>
<!-- Node5&#45;&gt;Node6 -->
<g id="edge5" class="edge">
<title>Node5&#45;&gt;Node6</title>
<path fill="none" stroke="#63b8ff" d="M1716.89,-371.85C1726.39,-361.54 1738.6,-348.3 1747.76,-338.36"/>
<polygon fill="#63b8ff" stroke="#63b8ff" points="1714.16,-369.64 1709.96,-379.37 1719.31,-374.39 1714.16,-369.64"/>
</g>
<!-- Node10 -->
<g id="node10" class="node">
<title>Node10</title>
<g id="a_node10"><a xlink:href="node__state_8h.html" target="_top" xlink:title=" ">
<polygon fill="white" stroke="#666666" points="1717,-200.5 1593,-200.5 1593,-181.5 1717,-181.5 1717,-200.5"/>
<text text-anchor="middle" x="1655" y="-188.5" font-family="Helvetica,sans-Serif" font-size="10.00">src/node/node_state.h</text>
</a>
</g>
</g>
<!-- Node5&#45;&gt;Node10 -->
<g id="edge13" class="edge">
<title>Node5&#45;&gt;Node10</title>
<path fill="none" stroke="#63b8ff" d="M1693.77,-369.93C1689.75,-360.56 1685.13,-348.83 1682,-338 1667.24,-286.99 1658.75,-223.54 1656,-200.7"/>
<polygon fill="#63b8ff" stroke="#63b8ff" points="1690.68,-371.6 1697.92,-379.33 1697.08,-368.77 1690.68,-371.6"/>
</g>
<!-- Node12 -->
<g id="node12" class="node">
<title>Node12</title>
<g id="a_node12"><a xlink:href="member__frontend_8h.html" target="_top" xlink:title=" ">
<polygon fill="white" stroke="#666666" points="2045,-338 1925,-338 1925,-308 2045,-308 2045,-338"/>
<text text-anchor="start" x="1933" y="-326" font-family="Helvetica,sans-Serif" font-size="10.00">src/node/rpc/member</text>
<text text-anchor="middle" x="1985" y="-315" font-family="Helvetica,sans-Serif" font-size="10.00">_frontend.h</text>
</a>
</g>
</g>
<!-- Node5&#45;&gt;Node12 -->
<g id="edge14" class="edge">
<title>Node5&#45;&gt;Node12</title>
<path fill="none" stroke="#63b8ff" d="M1749.75,-377.2C1797.97,-366.3 1872.62,-349.41 1924.86,-337.6"/>
<polygon fill="#63b8ff" stroke="#63b8ff" points="1748.85,-373.82 1739.87,-379.44 1750.4,-380.64 1748.85,-373.82"/>
</g>
<!-- Node13 -->
<g id="node13" class="node">
<title>Node13</title>
<g id="a_node13"><a xlink:href="node__frontend_8h.html" target="_top" xlink:title=" ">
<polygon fill="white" stroke="#666666" points="1635,-332.5 1477,-332.5 1477,-313.5 1635,-313.5 1635,-332.5"/>
<text text-anchor="middle" x="1556" y="-320.5" font-family="Helvetica,sans-Serif" font-size="10.00">src/node/rpc/node_frontend.h</text>
</a>
</g>
</g>
<!-- Node5&#45;&gt;Node13 -->
<g id="edge16" class="edge">
<title>Node5&#45;&gt;Node13</title>
<path fill="none" stroke="#63b8ff" d="M1672.79,-375.19C1644.01,-362.58 1600.85,-343.66 1575.84,-332.7"/>
<polygon fill="#63b8ff" stroke="#63b8ff" points="1671.75,-378.56 1682.31,-379.37 1674.56,-372.15 1671.75,-378.56"/>
</g>
<!-- Node15 -->
<g id="node15" class="node">
<title>Node15</title>
<g id="a_node15"><a xlink:href="user__frontend_8h.html" target="_top" xlink:title=" ">
<polygon fill="white" stroke="#666666" points="2080.5,-266.5 1925.5,-266.5 1925.5,-247.5 2080.5,-247.5 2080.5,-266.5"/>
<text text-anchor="middle" x="2003" y="-254.5" font-family="Helvetica,sans-Serif" font-size="10.00">src/node/rpc/user_frontend.h</text>
</a>
</g>
</g>
<!-- Node5&#45;&gt;Node15 -->
<g id="edge20" class="edge">
<title>Node5&#45;&gt;Node15</title>
<path fill="none" stroke="#63b8ff" d="M1738.06,-376.14C1766.14,-366.61 1805.95,-352.47 1840,-338 1895.12,-314.57 1958.21,-281.85 1987.08,-266.54"/>
<polygon fill="#63b8ff" stroke="#63b8ff" points="1736.63,-372.92 1728.27,-379.43 1738.86,-379.56 1736.63,-372.92"/>
</g>
<!-- Node7 -->
<g id="node7" class="node">
<title>Node7</title>
<g id="a_node7"><a xlink:href="src_2enclave_2enclave_8h.html" target="_top" xlink:title=" ">
<polygon fill="white" stroke="#666666" points="1534,-74 1412,-74 1412,-55 1534,-55 1534,-74"/>
<text text-anchor="middle" x="1473" y="-62" font-family="Helvetica,sans-Serif" font-size="10.00">src/enclave/enclave.h</text>
</a>
</g>
</g>
<!-- Node6&#45;&gt;Node7 -->
<g id="edge6" class="edge">
<title>Node6&#45;&gt;Node7</title>
<path fill="none" stroke="#63b8ff" d="M1808.17,-303.11C1821.14,-295.48 1833.65,-285.27 1841,-272 1847.46,-260.34 1846.85,-253.98 1841,-242 1784.61,-126.41 1623.2,-86.01 1534.03,-72.28"/>
<polygon fill="#63b8ff" stroke="#63b8ff" points="1806.3,-300.15 1799.18,-307.99 1809.64,-306.3 1806.3,-300.15"/>
</g>
<!-- Node9 -->
<g id="node9" class="node">
<title>Node9</title>
<g id="a_node9"><a xlink:href="ccf__acme__client_8h.html" target="_top" xlink:title=" ">
<polygon fill="white" stroke="#666666" points="1831.5,-266.5 1682.5,-266.5 1682.5,-247.5 1831.5,-247.5 1831.5,-266.5"/>
<text text-anchor="middle" x="1757" y="-254.5" font-family="Helvetica,sans-Serif" font-size="10.00">src/node/ccf_acme_client.h</text>
</a>
</g>
</g>
<!-- Node6&#45;&gt;Node9 -->
<g id="edge8" class="edge">
<title>Node6&#45;&gt;Node9</title>
<path fill="none" stroke="#63b8ff" d="M1759.48,-297.6C1758.8,-286.8 1758.05,-274.78 1757.55,-266.84"/>
<polygon fill="#63b8ff" stroke="#63b8ff" points="1756,-298.03 1760.11,-307.8 1762.98,-297.6 1756,-298.03"/>
</g>
<!-- Node7&#45;&gt;Node8 -->
<g id="edge7" class="edge">
<title>Node7&#45;&gt;Node8</title>
<path fill="none" stroke="#63b8ff" d="M1542.99,-53.56C1613.01,-43.61 1719.6,-28.46 1785.91,-19.04"/>
<polygon fill="#63b8ff" stroke="#63b8ff" points="1542.34,-50.11 1532.93,-54.98 1543.32,-57.04 1542.34,-50.11"/>
</g>
<!-- Node9&#45;&gt;Node10 -->
<g id="edge9" class="edge">
<title>Node9&#45;&gt;Node10</title>
<path fill="none" stroke="#63b8ff" d="M1734.72,-242.02C1714.66,-229.43 1685.8,-211.32 1668.86,-200.7"/>
<polygon fill="#63b8ff" stroke="#63b8ff" points="1732.91,-245.02 1743.24,-247.37 1736.63,-239.09 1732.91,-245.02"/>
</g>
<!-- Node10&#45;&gt;Node7 -->
<g id="edge10" class="edge">
<title>Node10&#45;&gt;Node7</title>
<path fill="none" stroke="#63b8ff" d="M1660.59,-171.7C1664.79,-153.97 1667.73,-127.3 1654,-110 1639.06,-91.18 1580.55,-79.22 1534.04,-72.5"/>
<polygon fill="#63b8ff" stroke="#63b8ff" points="1657.2,-170.85 1657.95,-181.42 1663.95,-172.68 1657.2,-170.85"/>
</g>
<!-- Node11 -->
<g id="node11" class="node">
<title>Node11</title>
<g id="a_node11"><a xlink:href="gov__effects_8h.html" target="_top" xlink:title=" ">
<polygon fill="white" stroke="#666666" points="1645,-134.5 1501,-134.5 1501,-115.5 1645,-115.5 1645,-134.5"/>
<text text-anchor="middle" x="1573" y="-122.5" font-family="Helvetica,sans-Serif" font-size="10.00">src/node/rpc/gov_effects.h</text>
</a>
</g>
</g>
<!-- Node10&#45;&gt;Node11 -->
<g id="edge11" class="edge">
<title>Node10&#45;&gt;Node11</title>
<path fill="none" stroke="#63b8ff" d="M1635.77,-174.99C1619.71,-162.46 1597.39,-145.04 1584.15,-134.7"/>
<polygon fill="#63b8ff" stroke="#63b8ff" points="1633.9,-177.98 1643.94,-181.37 1638.21,-172.46 1633.9,-177.98"/>
</g>
<!-- Node11&#45;&gt;Node7 -->
<g id="edge12" class="edge">
<title>Node11&#45;&gt;Node7</title>
<path fill="none" stroke="#63b8ff" d="M1549.53,-110.27C1530.44,-99.1 1504.09,-83.69 1487.82,-74.17"/>
<polygon fill="#63b8ff" stroke="#63b8ff" points="1547.85,-113.34 1558.24,-115.37 1551.38,-107.3 1547.85,-113.34"/>
</g>
<!-- Node12&#45;&gt;Node7 -->
<g id="edge15" class="edge">
<title>Node12&#45;&gt;Node7</title>
<path fill="none" stroke="#63b8ff" d="M2051.89,-303.72C2066.93,-296.36 2081.07,-286.14 2090,-272 2097.12,-260.73 2095.47,-254.16 2090,-242 2053.69,-161.32 2022.14,-145.26 1941,-110 1869.51,-78.94 1644.18,-69.46 1534.37,-66.64"/>
<polygon fill="#63b8ff" stroke="#63b8ff" points="2050.14,-300.67 2042.44,-307.95 2053,-307.06 2050.14,-300.67"/>
</g>
<!-- Node13&#45;&gt;Node7 -->
<g id="edge17" class="edge">
<title>Node13&#45;&gt;Node7</title>
<path fill="none" stroke="#63b8ff" d="M1529.28,-308.13C1515.73,-299.62 1500.4,-287.39 1492,-272 1454.74,-203.74 1466.83,-103.66 1471.52,-74.05"/>
<polygon fill="#63b8ff" stroke="#63b8ff" points="1527.88,-311.37 1538.28,-313.43 1531.43,-305.34 1527.88,-311.37"/>
</g>
<!-- Node14 -->
<g id="node14" class="node">
<title>Node14</title>
<g id="a_node14"><a xlink:href="jwt__key__auto__refresh_8h.html" target="_top" xlink:title=" ">
<polygon fill="white" stroke="#666666" points="1626.5,-272 1501.5,-272 1501.5,-242 1626.5,-242 1626.5,-272"/>
<text text-anchor="start" x="1509.5" y="-260" font-family="Helvetica,sans-Serif" font-size="10.00">src/node/jwt_key_auto</text>
<text text-anchor="middle" x="1564" y="-249" font-family="Helvetica,sans-Serif" font-size="10.00">_refresh.h</text>
</a>
</g>
</g>
<!-- Node13&#45;&gt;Node14 -->
<g id="edge18" class="edge">
<title>Node13&#45;&gt;Node14</title>
<path fill="none" stroke="#63b8ff" d="M1558.33,-303.35C1559.57,-293.47 1561.06,-281.51 1562.2,-272.36"/>
<polygon fill="#63b8ff" stroke="#63b8ff" points="1554.85,-303.01 1557.08,-313.37 1561.79,-303.88 1554.85,-303.01"/>
</g>
<!-- Node14&#45;&gt;Node10 -->
<g id="edge19" class="edge">
<title>Node14&#45;&gt;Node10</title>
<path fill="none" stroke="#63b8ff" d="M1592.62,-235.87C1609.46,-224.03 1629.91,-209.65 1642.69,-200.66"/>
<polygon fill="#63b8ff" stroke="#63b8ff" points="1590.36,-233.18 1584.2,-241.8 1594.39,-238.91 1590.36,-233.18"/>
</g>
<!-- Node15&#45;&gt;Node7 -->
<g id="edge21" class="edge">
<title>Node15&#45;&gt;Node7</title>
<path fill="none" stroke="#63b8ff" d="M1997.24,-237.23C1986.26,-205.02 1959.06,-139.79 1911,-110 1849.53,-71.9 1639.57,-65.81 1534.27,-65.23"/>
<polygon fill="#63b8ff" stroke="#63b8ff" points="1994.04,-238.71 2000.45,-247.14 2000.7,-236.55 1994.04,-238.71"/>
</g>
<!-- Node17 -->
<g id="node17" class="node">
<title>Node17</title>
<g id="a_node17"><a xlink:href="call__types_8h.html" target="_top" xlink:title=" ">
<polygon fill="white" stroke="#666666" points="1999.5,-464.5 1862.5,-464.5 1862.5,-445.5 1999.5,-445.5 1999.5,-464.5"/>
<text text-anchor="middle" x="1931" y="-452.5" font-family="Helvetica,sans-Serif" font-size="10.00">src/node/rpc/call_types.h</text>
</a>
</g>
</g>
<!-- Node16&#45;&gt;Node17 -->
<g id="edge23" class="edge">
<title>Node16&#45;&gt;Node17</title>
<path fill="none" stroke="#63b8ff" d="M1931,-495.6C1931,-484.8 1931,-472.78 1931,-464.84"/>
<polygon fill="#63b8ff" stroke="#63b8ff" points="1927.5,-495.8 1931,-505.8 1934.5,-495.8 1927.5,-495.8"/>
</g>
<!-- Node17&#45;&gt;Node12 -->
<g id="edge26" class="edge">
<title>Node17&#45;&gt;Node12</title>
<path fill="none" stroke="#63b8ff" d="M1938.47,-436.02C1949.34,-409.86 1969.29,-361.82 1979.16,-338.07"/>
<polygon fill="#63b8ff" stroke="#63b8ff" points="1935.15,-434.89 1934.54,-445.47 1941.61,-437.58 1935.15,-434.89"/>
</g>
<!-- Node18 -->
<g id="node18" class="node">
<title>Node18</title>
<g id="a_node18"><a xlink:href="common__endpoint__registry_8cpp.html" target="_top" xlink:title=" ">
<polygon fill="white" stroke="#666666" points="2191,-338 2063,-338 2063,-308 2191,-308 2191,-338"/>
<text text-anchor="start" x="2071" y="-326" font-family="Helvetica,sans-Serif" font-size="10.00">src/endpoints/common</text>
<text text-anchor="middle" x="2127" y="-315" font-family="Helvetica,sans-Serif" font-size="10.00">_endpoint_registry.cpp</text>
</a>
</g>
</g>
<!-- Node17&#45;&gt;Node18 -->
<g id="edge24" class="edge">
<title>Node17&#45;&gt;Node18</title>
<path fill="none" stroke="#63b8ff" d="M1952.56,-439.7C1990.39,-414.61 2068.22,-362.98 2105.79,-338.07"/>
<polygon fill="#63b8ff" stroke="#63b8ff" points="1950.26,-437.03 1943.86,-445.47 1954.13,-442.86 1950.26,-437.03"/>
</g>
<!-- Node19 -->
<g id="node19" class="node">
<title>Node19</title>
<g id="a_node19"><a xlink:href="wrap_8cpp.html" target="_top" xlink:title=" ">
<polygon fill="white" stroke="#666666" points="1217.5,-266.5 1128.5,-266.5 1128.5,-247.5 1217.5,-247.5 1217.5,-266.5"/>
<text text-anchor="middle" x="1173" y="-254.5" font-family="Helvetica,sans-Serif" font-size="10.00">src/js/wrap.cpp</text>
</a>
</g>
</g>
<!-- Node17&#45;&gt;Node19 -->
<g id="edge25" class="edge">
<title>Node17&#45;&gt;Node19</title>
<path fill="none" stroke="#63b8ff" d="M1852.33,-445.74C1790.57,-438.12 1702.81,-424.81 1628,-404 1516.92,-373.1 1497,-342.55 1387,-308 1329.49,-289.94 1261.45,-275.13 1217.79,-266.43"/>
<polygon fill="#63b8ff" stroke="#63b8ff" points="1852.05,-449.23 1862.4,-446.96 1852.89,-442.28 1852.05,-449.23"/>
</g>
<!-- Node20 -->
<g id="node20" class="node">
<title>Node20</title>
<g id="a_node20"><a xlink:href="serialization_8h.html" target="_top" xlink:title=" ">
<polygon fill="white" stroke="#666666" points="1933,-398.5 1785,-398.5 1785,-379.5 1933,-379.5 1933,-398.5"/>
<text text-anchor="middle" x="1859" y="-386.5" font-family="Helvetica,sans-Serif" font-size="10.00">src/node/rpc/serialization.h</text>
</a>
</g>
</g>
<!-- Node17&#45;&gt;Node20 -->
<g id="edge27" class="edge">
<title>Node17&#45;&gt;Node20</title>
<path fill="none" stroke="#63b8ff" d="M1913.76,-438.68C1899.79,-426.26 1880.58,-409.18 1869.02,-398.91"/>
<polygon fill="#63b8ff" stroke="#63b8ff" points="1911.49,-441.34 1921.29,-445.37 1916.14,-436.11 1911.49,-441.34"/>
</g>
<!-- Node20&#45;&gt;Node10 -->
<g id="edge29" class="edge">
<title>Node20&#45;&gt;Node10</title>
<path fill="none" stroke="#63b8ff" d="M1862.67,-369.37C1867.53,-338.82 1872.19,-277.9 1841,-242 1824.33,-222.82 1761.88,-208.79 1713.9,-200.55"/>
<polygon fill="#63b8ff" stroke="#63b8ff" points="1859.18,-369.01 1860.87,-379.47 1866.07,-370.24 1859.18,-369.01"/>
</g>
<!-- Node20&#45;&gt;Node12 -->
<g id="edge30" class="edge">
<title>Node20&#45;&gt;Node12</title>
<path fill="none" stroke="#63b8ff" d="M1885.01,-374.79C1906.07,-364.09 1935.68,-349.05 1957.21,-338.12"/>
<polygon fill="#63b8ff" stroke="#63b8ff" points="1883.32,-371.72 1875.99,-379.37 1886.49,-377.96 1883.32,-371.72"/>
</g>
<!-- Node20&#45;&gt;Node13 -->
<g id="edge31" class="edge">
<title>Node20&#45;&gt;Node13</title>
<path fill="none" stroke="#63b8ff" d="M1808.51,-377.34C1748.93,-364.75 1651.06,-344.08 1596.31,-332.51"/>
<polygon fill="#63b8ff" stroke="#63b8ff" points="1807.94,-380.79 1818.45,-379.44 1809.39,-373.94 1807.94,-380.79"/>
</g>
<!-- Node20&#45;&gt;Node18 -->
<g id="edge28" class="edge">
<title>Node20&#45;&gt;Node18</title>
<path fill="none" stroke="#63b8ff" d="M1904.67,-377.09C1949.81,-366.31 2019.06,-349.78 2068.27,-338.02"/>
<polygon fill="#63b8ff" stroke="#63b8ff" points="1903.78,-373.71 1894.87,-379.44 1905.41,-380.52 1903.78,-373.71"/>
</g>
<!-- Node21&#45;&gt;Node12 -->
<g id="edge58" class="edge">
<title>Node21&#45;&gt;Node12</title>
<path fill="none" stroke="#63b8ff" d="M1425.95,-519.97C1600.82,-518.96 1970.15,-511.84 2009,-470 2043.26,-433.11 2010.99,-367.12 1993.98,-338.22"/>
<polygon fill="#63b8ff" stroke="#63b8ff" points="1425.72,-516.47 1415.74,-520.02 1425.76,-523.47 1425.72,-516.47"/>
</g>
<!-- Node21&#45;&gt;Node13 -->
<g id="edge63" class="edge">
<title>Node21&#45;&gt;Node13</title>
<path fill="none" stroke="#63b8ff" d="M1352.4,-504.57C1396.6,-465.37 1512.14,-362.9 1546.33,-332.57"/>
<polygon fill="#63b8ff" stroke="#63b8ff" points="1349.94,-502.07 1344.78,-511.33 1354.59,-507.31 1349.94,-502.07"/>
</g>
<!-- Node21&#45;&gt;Node19 -->
<g id="edge33" class="edge">
<title>Node21&#45;&gt;Node19</title>
<path fill="none" stroke="#63b8ff" d="M1343.98,-501.97C1362.28,-462.35 1398.59,-366.57 1354,-308 1337.56,-286.4 1265.94,-271.75 1217.87,-264.14"/>
<polygon fill="#63b8ff" stroke="#63b8ff" points="1340.73,-500.65 1339.57,-511.18 1347.04,-503.67 1340.73,-500.65"/>
</g>
<!-- Node22 -->
<g id="node22" class="node">
<title>Node22</title>
<g id="a_node22"><a xlink:href="wrap_8h.html" target="_top" xlink:title=" ">
<polygon fill="white" stroke="#666666" points="1169,-398.5 1091,-398.5 1091,-379.5 1169,-379.5 1169,-398.5"/>
<text text-anchor="middle" x="1130" y="-386.5" font-family="Helvetica,sans-Serif" font-size="10.00">src/js/wrap.h</text>
</a>
</g>
</g>
<!-- Node21&#45;&gt;Node22 -->
<g id="edge34" class="edge">
<title>Node21&#45;&gt;Node22</title>
<path fill="none" stroke="#63b8ff" d="M1313.04,-506.07C1270.54,-479.12 1178.16,-420.54 1143.5,-398.56"/>
<polygon fill="#63b8ff" stroke="#63b8ff" points="1311.23,-509.07 1321.55,-511.47 1314.98,-503.16 1311.23,-509.07"/>
</g>
<!-- Node29 -->
<g id="node29" class="node">
<title>Node29</title>
<g id="a_node29"><a xlink:href="historical__queries_8h.html" target="_top" xlink:title=" ">
<polygon fill="white" stroke="#666666" points="266,-206 160,-206 160,-176 266,-176 266,-206"/>
<text text-anchor="start" x="168" y="-194" font-family="Helvetica,sans-Serif" font-size="10.00">src/node/historical</text>
<text text-anchor="middle" x="213" y="-183" font-family="Helvetica,sans-Serif" font-size="10.00">_queries.h</text>
</a>
</g>
</g>
<!-- Node21&#45;&gt;Node29 -->
<g id="edge50" class="edge">
<title>Node21&#45;&gt;Node29</title>
<path fill="none" stroke="#63b8ff" d="M1244.07,-520.69C943.36,-521.8 0,-515.28 0,-390 0,-390 0,-390 0,-322 0,-247.27 96.71,-214.22 159.8,-200.62"/>
<polygon fill="#63b8ff" stroke="#63b8ff" points="1244.51,-524.19 1254.5,-520.65 1244.48,-517.19 1244.51,-524.19"/>
</g>
<!-- Node31 -->
<g id="node31" class="node">
<title>Node31</title>
<g id="a_node31"><a xlink:href="node__configuration__subsystem_8h.html" target="_top" xlink:title=" ">
<polygon fill="white" stroke="#666666" points="1686,-470 1532,-470 1532,-440 1686,-440 1686,-470"/>
<text text-anchor="start" x="1540" y="-458" font-family="Helvetica,sans-Serif" font-size="10.00">src/node/node_configuration</text>
<text text-anchor="middle" x="1609" y="-447" font-family="Helvetica,sans-Serif" font-size="10.00">_subsystem.h</text>
</a>
</g>
</g>
<!-- Node21&#45;&gt;Node31 -->
<g id="edge54" class="edge">
<title>Node21&#45;&gt;Node31</title>
<path fill="none" stroke="#63b8ff" d="M1381.41,-509.16C1427.55,-498.38 1498.54,-481.8 1548.96,-470.02"/>
<polygon fill="#63b8ff" stroke="#63b8ff" points="1380.61,-505.75 1371.67,-511.44 1382.2,-512.57 1380.61,-505.75"/>
</g>
<!-- Node32 -->
<g id="node32" class="node">
<title>Node32</title>
<g id="a_node32"><a xlink:href="acme__subsystem_8h.html" target="_top" xlink:title=" ">
<polygon fill="white" stroke="#666666" points="543.5,-200.5 370.5,-200.5 370.5,-181.5 543.5,-181.5 543.5,-200.5"/>
<text text-anchor="middle" x="457" y="-188.5" font-family="Helvetica,sans-Serif" font-size="10.00">src/node/rpc/acme_subsystem.h</text>
</a>
</g>
</g>
<!-- Node21&#45;&gt;Node32 -->
<g id="edge56" class="edge">
<title>Node21&#45;&gt;Node32</title>
<path fill="none" stroke="#63b8ff" d="M1244.02,-520.47C1036.16,-520.74 539.76,-516.45 481,-470 451.88,-446.98 457,-427.12 457,-390 457,-390 457,-390 457,-322 457,-276.18 457,-221.29 457,-200.52"/>
<polygon fill="#63b8ff" stroke="#63b8ff" points="1244.31,-523.97 1254.3,-520.46 1244.3,-516.97 1244.31,-523.97"/>
</g>
<!-- Node33 -->
<g id="node33" class="node">
<title>Node33</title>
<g id="a_node33"><a xlink:href="network__identity__subsystem_8h.html" target="_top" xlink:title=" ">
<polygon fill="white" stroke="#666666" points="361.5,-470 234.5,-470 234.5,-440 361.5,-440 361.5,-470"/>
<text text-anchor="start" x="242.5" y="-458" font-family="Helvetica,sans-Serif" font-size="10.00">src/node/rpc/network</text>
<text text-anchor="middle" x="298" y="-447" font-family="Helvetica,sans-Serif" font-size="10.00">_identity_subsystem.h</text>
</a>
</g>
</g>
<!-- Node21&#45;&gt;Node33 -->
<g id="edge59" class="edge">
<title>Node21&#45;&gt;Node33</title>
<path fill="none" stroke="#63b8ff" d="M1244,-516.11C1082.55,-508.94 735.45,-492.31 443,-470 416.4,-467.97 387.09,-465.24 361.83,-462.72"/>
<polygon fill="#63b8ff" stroke="#63b8ff" points="1244.22,-519.62 1254.36,-516.57 1244.53,-512.63 1244.22,-519.62"/>
</g>
<!-- Node36 -->
<g id="node36" class="node">
<title>Node36</title>
<g id="a_node36"><a xlink:href="node__operation_8h.html" target="_top" xlink:title=" ">
<polygon fill="white" stroke="#666666" points="649,-134.5 485,-134.5 485,-115.5 649,-115.5 649,-134.5"/>
<text text-anchor="middle" x="567" y="-122.5" font-family="Helvetica,sans-Serif" font-size="10.00">src/node/rpc/node_operation.h</text>
</a>
</g>
</g>
<!-- Node21&#45;&gt;Node36 -->
<g id="edge64" class="edge">
<title>Node21&#45;&gt;Node36</title>
<path fill="none" stroke="#63b8ff" d="M1243.99,-512.98C1054.72,-496.31 629.01,-447.24 542,-338 529.1,-321.8 557.78,-172.3 565.27,-134.6"/>
<polygon fill="#63b8ff" stroke="#63b8ff" points="1243.93,-516.49 1254.19,-513.87 1244.54,-509.52 1243.93,-516.49"/>
</g>
<!-- Node22&#45;&gt;Node7 -->
<g id="edge36" class="edge">
<title>Node22&#45;&gt;Node7</title>
<path fill="none" stroke="#63b8ff" d="M1080.61,-387.46C947.24,-385.49 587.42,-376.62 552,-338 542.99,-328.17 543.86,-318.56 552,-308 659.31,-168.77 1223.71,-93.53 1411.88,-72.04"/>
<polygon fill="#63b8ff" stroke="#63b8ff" points="1080.89,-390.96 1090.94,-387.61 1080.99,-383.96 1080.89,-390.96"/>
</g>
<!-- Node22&#45;&gt;Node10 -->
<g id="edge47" class="edge">
<title>Node22&#45;&gt;Node10</title>
<path fill="none" stroke="#63b8ff" d="M1179.2,-382.59C1225.76,-376.2 1296.85,-363.09 1354,-338 1422.41,-307.96 1424.81,-274.68 1492,-242 1532.06,-222.51 1581.35,-208.66 1615.18,-200.55"/>
<polygon fill="#63b8ff" stroke="#63b8ff" points="1178.53,-379.15 1169.07,-383.93 1179.44,-386.09 1178.53,-379.15"/>
</g>
<!-- Node22&#45;&gt;Node12 -->
<g id="edge48" class="edge">
<title>Node22&#45;&gt;Node12</title>
<path fill="none" stroke="#63b8ff" d="M1179.58,-384.95C1295.31,-377.74 1592.22,-358.68 1840,-338 1867.85,-335.68 1898.67,-332.75 1924.71,-330.17"/>
<polygon fill="#63b8ff" stroke="#63b8ff" points="1179.05,-381.48 1169.28,-385.59 1179.48,-388.47 1179.05,-381.48"/>
</g>
<!-- Node22&#45;&gt;Node13 -->
<g id="edge49" class="edge">
<title>Node22&#45;&gt;Node13</title>
<path fill="none" stroke="#63b8ff" d="M1179.18,-380.62C1244.15,-370.87 1362.17,-353.16 1463,-338 1474.79,-336.23 1487.41,-334.33 1499.44,-332.52"/>
<polygon fill="#63b8ff" stroke="#63b8ff" points="1178.59,-377.17 1169.22,-382.12 1179.63,-384.09 1178.59,-377.17"/>
</g>
<!-- Node22&#45;&gt;Node19 -->
<g id="edge46" class="edge">
<title>Node22&#45;&gt;Node19</title>
<path fill="none" stroke="#63b8ff" d="M1117.46,-370.54C1107.16,-353.88 1095.78,-328.37 1106,-308 1115.76,-288.54 1137.08,-274.72 1153.07,-266.61"/>
<polygon fill="#63b8ff" stroke="#63b8ff" points="1114.78,-372.83 1123.23,-379.22 1120.61,-368.96 1114.78,-372.83"/>
</g>
<!-- Node23 -->
<g id="node23" class="node">
<title>Node23</title>
<g id="a_node23"><a xlink:href="js__generic__base_8cpp.html" target="_top" xlink:title=" ">
<polygon fill="white" stroke="#666666" points="825,-338 707,-338 707,-308 825,-308 825,-338"/>
<text text-anchor="start" x="715" y="-326" font-family="Helvetica,sans-Serif" font-size="10.00">src/apps/js_generic</text>
<text text-anchor="middle" x="766" y="-315" font-family="Helvetica,sans-Serif" font-size="10.00">/js_generic_base.cpp</text>
</a>
</g>
</g>
<!-- Node22&#45;&gt;Node23 -->
<g id="edge35" class="edge">
<title>Node22&#45;&gt;Node23</title>
<path fill="none" stroke="#63b8ff" d="M1080.53,-380.2C1021.67,-370.79 920.5,-354.2 834,-338 831.16,-337.47 828.25,-336.91 825.31,-336.34"/>
<polygon fill="#63b8ff" stroke="#63b8ff" points="1080.23,-383.69 1090.66,-381.81 1081.34,-376.78 1080.23,-383.69"/>
</g>
<!-- Node24 -->
<g id="node24" class="node">
<title>Node24</title>
<g id="a_node24"><a xlink:href="consensus_8cpp.html" target="_top" xlink:title=" ">
<polygon fill="white" stroke="#666666" points="1231,-332.5 1115,-332.5 1115,-313.5 1231,-313.5 1231,-332.5"/>
<text text-anchor="middle" x="1173" y="-320.5" font-family="Helvetica,sans-Serif" font-size="10.00">src/js/consensus.cpp</text>
</a>
</g>
</g>
<!-- Node22&#45;&gt;Node24 -->
<g id="edge37" class="edge">
<title>Node22&#45;&gt;Node24</title>
<path fill="none" stroke="#63b8ff" d="M1141.48,-370.91C1149.7,-358.68 1160.44,-342.7 1167.02,-332.91"/>
<polygon fill="#63b8ff" stroke="#63b8ff" points="1138.47,-369.12 1135.8,-379.37 1144.28,-373.02 1138.47,-369.12"/>
</g>
<!-- Node25 -->
<g id="node25" class="node">
<title>Node25</title>
<g id="a_node25"><a xlink:href="conv_8cpp.html" target="_top" xlink:title=" ">
<polygon fill="white" stroke="#666666" points="1059,-332.5 971,-332.5 971,-313.5 1059,-313.5 1059,-332.5"/>
<text text-anchor="middle" x="1015" y="-320.5" font-family="Helvetica,sans-Serif" font-size="10.00">src/js/conv.cpp</text>
</a>
</g>
</g>
<!-- Node22&#45;&gt;Node25 -->
<g id="edge39" class="edge">
<title>Node22&#45;&gt;Node25</title>
<path fill="none" stroke="#63b8ff" d="M1105.49,-374.36C1082.85,-361.76 1049.89,-343.42 1030.63,-332.7"/>
<polygon fill="#63b8ff" stroke="#63b8ff" points="1104.05,-377.56 1114.49,-379.37 1107.45,-371.45 1104.05,-377.56"/>
</g>
<!-- Node26 -->
<g id="node26" class="node">
<title>Node26</title>
<g id="a_node26"><a xlink:href="crypto_8cpp.html" target="_top" xlink:title=" ">
<polygon fill="white" stroke="#666666" points="1345,-332.5 1249,-332.5 1249,-313.5 1345,-313.5 1345,-332.5"/>
<text text-anchor="middle" x="1297" y="-320.5" font-family="Helvetica,sans-Serif" font-size="10.00">src/js/crypto.cpp</text>
</a>
</g>
</g>
<!-- Node22&#45;&gt;Node26 -->
<g id="edge41" class="edge">
<title>Node22&#45;&gt;Node26</title>
<path fill="none" stroke="#63b8ff" d="M1162.16,-375.68C1195.16,-363.03 1245.65,-343.68 1274.57,-332.6"/>
<polygon fill="#63b8ff" stroke="#63b8ff" points="1160.61,-372.52 1152.52,-379.37 1163.11,-379.06 1160.61,-372.52"/>
</g>
<!-- Node27 -->
<g id="node27" class="node">
<title>Node27</title>
<g id="a_node27"><a xlink:href="historical_8cpp.html" target="_top" xlink:title=" ">
<polygon fill="white" stroke="#666666" points="953,-332.5 843,-332.5 843,-313.5 953,-313.5 953,-332.5"/>
<text text-anchor="middle" x="898" y="-320.5" font-family="Helvetica,sans-Serif" font-size="10.00">src/js/historical.cpp</text>
</a>
</g>
</g>
<!-- Node22&#45;&gt;Node27 -->
<g id="edge43" class="edge">
<title>Node22&#45;&gt;Node27</title>
<path fill="none" stroke="#63b8ff" d="M1088.83,-376.64C1043.12,-364.03 970.38,-343.97 929.16,-332.6"/>
<polygon fill="#63b8ff" stroke="#63b8ff" points="1088.14,-380.08 1098.71,-379.37 1090,-373.34 1088.14,-380.08"/>
</g>
<!-- Node28 -->
<g id="node28" class="node">
<title>Node28</title>
<g id="a_node28"><a xlink:href="openenclave_8cpp.html" target="_top" xlink:title=" ">
<polygon fill="white" stroke="#666666" points="689,-332.5 561,-332.5 561,-313.5 689,-313.5 689,-332.5"/>
<text text-anchor="middle" x="625" y="-320.5" font-family="Helvetica,sans-Serif" font-size="10.00">src/js/openenclave.cpp</text>
</a>
</g>
</g>
<!-- Node22&#45;&gt;Node28 -->
<g id="edge45" class="edge">
<title>Node22&#45;&gt;Node28</title>
<path fill="none" stroke="#63b8ff" d="M1080.53,-383.48C1000.09,-375.86 836.02,-359.19 698,-338 687.8,-336.43 676.84,-334.48 666.6,-332.53"/>
<polygon fill="#63b8ff" stroke="#63b8ff" points="1080.57,-387 1090.85,-384.45 1081.22,-380.03 1080.57,-387"/>
</g>
<!-- Node24&#45;&gt;Node19 -->
<g id="edge38" class="edge">
<title>Node24&#45;&gt;Node19</title>
<path fill="none" stroke="#63b8ff" d="M1173,-303.08C1173,-291.13 1173,-276.22 1173,-266.91"/>
<polygon fill="#63b8ff" stroke="#63b8ff" points="1169.5,-303.37 1173,-313.37 1176.5,-303.37 1169.5,-303.37"/>
</g>
<!-- Node25&#45;&gt;Node19 -->
<g id="edge40" class="edge">
<title>Node25&#45;&gt;Node19</title>
<path fill="none" stroke="#63b8ff" d="M1045.83,-309.51C1077.06,-296.86 1124.53,-277.63 1151.78,-266.6"/>
<polygon fill="#63b8ff" stroke="#63b8ff" points="1044.26,-306.37 1036.31,-313.37 1046.89,-312.86 1044.26,-306.37"/>
</g>
<!-- Node26&#45;&gt;Node19 -->
<g id="edge42" class="edge">
<title>Node26&#45;&gt;Node19</title>
<path fill="none" stroke="#63b8ff" d="M1271.22,-308.69C1246.79,-296.09 1210.81,-277.51 1189.85,-266.7"/>
<polygon fill="#63b8ff" stroke="#63b8ff" points="1269.79,-311.89 1280.28,-313.37 1273,-305.67 1269.79,-311.89"/>
</g>
<!-- Node27&#45;&gt;Node19 -->
<g id="edge44" class="edge">
<title>Node27&#45;&gt;Node19</title>
<path fill="none" stroke="#63b8ff" d="M944.83,-311.1C999,-298.49 1087.03,-278.01 1136.42,-266.51"/>
<polygon fill="#63b8ff" stroke="#63b8ff" points="943.75,-307.76 934.8,-313.44 945.34,-314.58 943.75,-307.76"/>
</g>
<!-- Node29&#45;&gt;Node7 -->
<g id="edge51" class="edge">
<title>Node29&#45;&gt;Node7</title>
<path fill="none" stroke="#63b8ff" d="M241.42,-169.94C274.66,-146.52 325.53,-110.83 328,-110 430.86,-75.53 1189.7,-67.49 1411.98,-65.87"/>
<polygon fill="#63b8ff" stroke="#63b8ff" points="239.13,-167.27 232.97,-175.89 243.16,-172.99 239.13,-167.27"/>
</g>
<!-- Node30 -->
<g id="node30" class="node">
<title>Node30</title>
<g id="a_node30"><a xlink:href="historical__transaction__fetcher_8h.html" target="_top" xlink:title=" ">
<polygon fill="white" stroke="#666666" points="275.5,-140 150.5,-140 150.5,-110 275.5,-110 275.5,-140"/>
<text text-anchor="start" x="158.5" y="-128" font-family="Helvetica,sans-Serif" font-size="10.00">src/indexing/historical</text>
<text text-anchor="middle" x="213" y="-117" font-family="Helvetica,sans-Serif" font-size="10.00">_transaction_fetcher.h</text>
</a>
</g>
</g>
<!-- Node29&#45;&gt;Node30 -->
<g id="edge52" class="edge">
<title>Node29&#45;&gt;Node30</title>
<path fill="none" stroke="#63b8ff" d="M213,-165.54C213,-156.96 213,-147.61 213,-140.16"/>
<polygon fill="#63b8ff" stroke="#63b8ff" points="209.5,-165.8 213,-175.8 216.5,-165.8 209.5,-165.8"/>
</g>
<!-- Node30&#45;&gt;Node7 -->
<g id="edge53" class="edge">
<title>Node30&#45;&gt;Node7</title>
<path fill="none" stroke="#63b8ff" d="M285.53,-110.52C287.03,-110.33 288.52,-110.16 290,-110 510.79,-85.9 1201.95,-70.78 1411.91,-66.65"/>
<polygon fill="#63b8ff" stroke="#63b8ff" points="284.95,-107.06 275.51,-111.87 285.88,-114 284.95,-107.06"/>
</g>
<!-- Node31&#45;&gt;Node5 -->
<g id="edge55" class="edge">
<title>Node31&#45;&gt;Node5</title>
<path fill="none" stroke="#63b8ff" d="M1638.25,-433.87C1655.46,-422.03 1676.36,-407.65 1689.42,-398.66"/>
<polygon fill="#63b8ff" stroke="#63b8ff" points="1635.89,-431.24 1629.64,-439.8 1639.86,-437.01 1635.89,-431.24"/>
</g>
<!-- Node32&#45;&gt;Node7 -->
<g id="edge57" class="edge">
<title>Node32&#45;&gt;Node7</title>
<path fill="none" stroke="#63b8ff" d="M455.59,-171.06C455.35,-152.4 458.33,-124.62 476,-110 512.13,-80.11 1200.22,-68.95 1411.7,-66.22"/>
<polygon fill="#63b8ff" stroke="#63b8ff" points="452.1,-171.47 456.05,-181.3 459.1,-171.16 452.1,-171.47"/>
</g>
<!-- Node33&#45;&gt;Node7 -->
<g id="edge61" class="edge">
<title>Node33&#45;&gt;Node7</title>
<path fill="none" stroke="#63b8ff" d="M310.95,-430.86C323.93,-405.46 342,-363.09 342,-324 342,-324 342,-324 342,-190 342,-173.61 265.63,-174.42 455,-110 545.28,-79.29 1205.69,-68.74 1411.76,-66.18"/>
<polygon fill="#63b8ff" stroke="#63b8ff" points="307.85,-429.24 306.28,-439.72 314.04,-432.51 307.85,-429.24"/>
</g>
<!-- Node34 -->
<g id="node34" class="node">
<title>Node34</title>
<g id="a_node34"><a xlink:href="external__executor_8cpp.html" target="_top" xlink:title=" ">
<polygon fill="white" stroke="#666666" points="176,-404 28,-404 28,-374 176,-374 176,-404"/>
<text text-anchor="start" x="36" y="-392" font-family="Helvetica,sans-Serif" font-size="10.00">src/apps/external_executor</text>
<text text-anchor="middle" x="102" y="-381" font-family="Helvetica,sans-Serif" font-size="10.00">/external_executor.cpp</text>
</a>
</g>
</g>
<!-- Node33&#45;&gt;Node34 -->
<g id="edge60" class="edge">
<title>Node33&#45;&gt;Node34</title>
<path fill="none" stroke="#63b8ff" d="M245.09,-436.72C213.68,-426.47 174.38,-413.63 144.91,-404.01"/>
<polygon fill="#63b8ff" stroke="#63b8ff" points="244.39,-440.18 254.99,-439.95 246.57,-433.52 244.39,-440.18"/>
</g>
<!-- Node35 -->
<g id="node35" class="node">
<title>Node35</title>
<g id="a_node35"><a xlink:href="historical__queries__adapter_8cpp.html" target="_top" xlink:title=" ">
<polygon fill="white" stroke="#666666" points="314,-404 194,-404 194,-374 314,-374 314,-404"/>
<text text-anchor="start" x="202" y="-392" font-family="Helvetica,sans-Serif" font-size="10.00">src/node/historical</text>
<text text-anchor="middle" x="254" y="-381" font-family="Helvetica,sans-Serif" font-size="10.00">_queries_adapter.cpp</text>
</a>
</g>
</g>
<!-- Node33&#45;&gt;Node35 -->
<g id="edge62" class="edge">
<title>Node33&#45;&gt;Node35</title>
<path fill="none" stroke="#63b8ff" d="M282.55,-431.53C276.29,-422.43 269.26,-412.19 263.74,-404.16"/>
<polygon fill="#63b8ff" stroke="#63b8ff" points="279.69,-433.54 288.23,-439.8 285.45,-429.57 279.69,-433.54"/>
</g>
<!-- Node36&#45;&gt;Node7 -->
<g id="edge65" class="edge">
<title>Node36&#45;&gt;Node7</title>
<path fill="none" stroke="#63b8ff" d="M629.74,-114.02C640.8,-112.5 652.22,-111.08 663,-110 941.87,-82.06 1276.64,-70.67 1411.89,-66.98"/>
<polygon fill="#63b8ff" stroke="#63b8ff" points="629.12,-110.58 619.71,-115.44 630.1,-117.51 629.12,-110.58"/>
</g>
</g>
</svg>
        <g id="navigator" transform="translate(0 0)" fill="#404254">
                <rect fill="#f2f5e9" fill-opacity="0.5" stroke="#606060" stroke-width=".5" x="0" y="0" width="60" height="60"/>
                <use id="zoomplus" xlink:href="#zoomPlus" x="17" y="9" onmousedown="handleZoom(evt,'in')"/>
                <use id="zoomminus" xlink:href="#zoomMin" x="42" y="9" onmousedown="handleZoom(evt,'out')"/>
                <use id="reset" xlink:href="#resetDef" x="30" y="36" onmousedown="handleReset()"/>
                <g id="arrowUp" xlink:href="#dirArrow" transform="translate(30 24)" onmousedown="handlePan(0,-1)">
                  <use xlink:href="#rim" fill="#404040">
                        <set attributeName="fill" to="#808080" begin="arrowUp.mouseover" end="arrowUp.mouseout"/>
                  </use>
                  <path fill="none" stroke="white" stroke-width="1.5" d="M0,-3.0v7 M-2.5,-0.5L0,-3.0L2.5,-0.5"/>
                </g>
                <g id="arrowRight" xlink:href="#dirArrow" transform="rotate(90) translate(36 -43)" onmousedown="handlePan(1,0)">
                  <use xlink:href="#rim" fill="#404040">
                        <set attributeName="fill" to="#808080" begin="arrowRight.mouseover" end="arrowRight.mouseout"/>
                  </use>
                  <path fill="none" stroke="white" stroke-width="1.5" d="M0,-3.0v7 M-2.5,-0.5L0,-3.0L2.5,-0.5"/>
                </g>
                <g id="arrowDown" xlink:href="#dirArrow" transform="rotate(180) translate(-30 -48)" onmousedown="handlePan(0,1)">
                  <use xlink:href="#rim" fill="#404040">
                        <set attributeName="fill" to="#808080" begin="arrowDown.mouseover" end="arrowDown.mouseout"/>
                  </use>
                  <path fill="none" stroke="white" stroke-width="1.5" d="M0,-3.0v7 M-2.5,-0.5L0,-3.0L2.5,-0.5"/>
                </g>
                <g id="arrowLeft" xlink:href="#dirArrow" transform="rotate(270) translate(-36 17)" onmousedown="handlePan(-1,0)">
                  <use xlink:href="#rim" fill="#404040">
                        <set attributeName="fill" to="#808080" begin="arrowLeft.mouseover" end="arrowLeft.mouseout"/>
                  </use>
                  <path fill="none" stroke="white" stroke-width="1.5" d="M0,-3.0v7 M-2.5,-0.5L0,-3.0L2.5,-0.5"/>
                </g>
        </g>
        <svg viewBox="0 0 15 15" width="100%" height="30px" preserveAspectRatio="xMaxYMin meet">
         <g id="arrow_out" transform="scale(0.3 0.3)">
          <a xlink:href="enclave__interface__types_8h__dep__incl_org.svg" target="_base">
           <rect id="button" ry="5" rx="5" y="6" x="6" height="38" width="38"
                fill="#f2f5e9" fill-opacity="0.5" stroke="#606060" stroke-width="1.0"/>
           <path id="arrow"
             d="M 11.500037,31.436501 C 11.940474,20.09759 22.043105,11.32322 32.158766,21.979434 L 37.068811,17.246167 C 37.068811,17.246167 37.088388,32 37.088388,32 L 22.160133,31.978069 C 22.160133,31.978069 26.997745,27.140456 26.997745,27.140456 C 18.528582,18.264221 13.291696,25.230495 11.500037,31.436501 z"
             style="fill:#404040;"/>
          </a>
         </g>
        </svg>
</svg>
