<?xml version="1.0" encoding="UTF-8" standalone="no"?>
<!DOCTYPE svg PUBLIC "-//W3C//DTD SVG 1.1//EN"
 "http://www.w3.org/Graphics/SVG/1.1/DTD/svg11.dtd">
<!-- Generated by graphviz version 2.43.0 (0)
 -->
<!-- Title: src/node/rpc/gov_effects_interface.h Pages: 1 -->
<!--zoomable 599 -->
<svg id="main" version="1.1" xmlns="http://www.w3.org/2000/svg" xmlns:xlink="http://www.w3.org/1999/xlink" xml:space="preserve" onload="init(evt)">
<style type="text/css"><![CDATA[
.edge:hover path { stroke: red; }
.edge:hover polygon { stroke: red; fill: red; }
]]></style>
<script type="text/javascript"><![CDATA[
var edges = document.getElementsByTagName('g');
if (edges && edges.length) {
  for (var i=0;i<edges.length;i++) {
    if (edges[i].id.substr(0,4)=='edge') {
      edges[i].setAttribute('class','edge');
    }
  }
}
]]></script>
        <defs>
                <circle id="rim" cx="0" cy="0" r="7"/>
                <circle id="rim2" cx="0" cy="0" r="3.5"/>
                <g id="zoomPlus">
                        <use xlink:href="#rim" fill="#404040">
                                <set attributeName="fill" to="#808080" begin="zoomplus.mouseover" end="zoomplus.mouseout"/>
                        </use>
                        <path d="M-4,0h8M0,-4v8" fill="none" stroke="white" stroke-width="1.5" pointer-events="none"/>
                </g>
                <g id="zoomMin">
                        <use xlink:href="#rim" fill="#404040">
                                <set attributeName="fill" to="#808080" begin="zoomminus.mouseover" end="zoomminus.mouseout"/>
                        </use>
                        <path d="M-4,0h8" fill="none" stroke="white" stroke-width="1.5" pointer-events="none"/>
                </g>
                <g id="dirArrow">
                        <path fill="none" stroke="white" stroke-width="1.5" d="M0,-3.0v7 M-2.5,-0.5L0,-3.0L2.5,-0.5"/>
                </g>
               <g id="resetDef">
                       <use xlink:href="#rim2" fill="#404040">
                               <set attributeName="fill" to="#808080" begin="reset.mouseover" end="reset.mouseout"/>
                       </use>
               </g>
        </defs>

<script type="text/javascript">
var viewWidth = 1979;
var viewHeight = 599;
var sectionId = 'dynsection-1';
</script>
<script xlink:href="svgpan.js"/>
<svg id="graph" class="graph">
<g id="viewport">
<title>src/node/rpc/gov_effects_interface.h</title>
<!-- Node1 -->
<g id="node1" class="node">
<title>Node1</title>
<g id="a_node1"><a xlink:title=" ">
<polygon fill="#999999" stroke="#666666" points="1097.5,-591 962.5,-591 962.5,-561 1097.5,-561 1097.5,-591"/>
<text text-anchor="start" x="970.5" y="-579" font-family="Helvetica,sans-Serif" font-size="10.00">src/node/rpc/gov_effects</text>
<text text-anchor="middle" x="1030" y="-568" font-family="Helvetica,sans-Serif" font-size="10.00">_interface.h</text>
</a>
</g>
</g>
<!-- Node2 -->
<g id="node2" class="node">
<title>Node2</title>
<g id="a_node2"><a xlink:href="wrap_8cpp.html" target="_top" xlink:title=" ">
<polygon fill="white" stroke="#666666" points="362.5,-332.5 273.5,-332.5 273.5,-313.5 362.5,-313.5 362.5,-332.5"/>
<text text-anchor="middle" x="318" y="-320.5" font-family="Helvetica,sans-Serif" font-size="10.00">src/js/wrap.cpp</text>
</a>
</g>
</g>
<!-- Node1&#45;&gt;Node2 -->
<g id="edge1" class="edge">
<title>Node1&#45;&gt;Node2</title>
<path fill="none" stroke="#63b8ff" d="M952.21,-573.62C742.17,-568.11 171.68,-540.59 57,-404 -3.03,-332.5 183.89,-323.67 273.23,-323.4"/>
<polygon fill="#63b8ff" stroke="#63b8ff" points="952.15,-577.12 962.24,-573.88 952.33,-570.13 952.15,-577.12"/>
</g>
<!-- Node3 -->
<g id="node3" class="node">
<title>Node3</title>
<g id="a_node3"><a xlink:href="wrap_8h.html" target="_top" xlink:title=" ">
<polygon fill="white" stroke="#666666" points="689,-464.5 611,-464.5 611,-445.5 689,-445.5 689,-464.5"/>
<text text-anchor="middle" x="650" y="-452.5" font-family="Helvetica,sans-Serif" font-size="10.00">src/js/wrap.h</text>
</a>
</g>
</g>
<!-- Node1&#45;&gt;Node3 -->
<g id="edge2" class="edge">
<title>Node1&#45;&gt;Node3</title>
<path fill="none" stroke="#63b8ff" d="M975.61,-557.97C893.21,-532.16 739.75,-484.11 677.4,-464.58"/>
<polygon fill="#63b8ff" stroke="#63b8ff" points="974.7,-561.35 985.29,-561 976.79,-554.67 974.7,-561.35"/>
</g>
<!-- Node13 -->
<g id="node13" class="node">
<title>Node13</title>
<g id="a_node13"><a xlink:href="gov__effects_8h.html" target="_top" xlink:title=" ">
<polygon fill="white" stroke="#666666" points="1339,-134.5 1195,-134.5 1195,-115.5 1339,-115.5 1339,-134.5"/>
<text text-anchor="middle" x="1267" y="-122.5" font-family="Helvetica,sans-Serif" font-size="10.00">src/node/rpc/gov_effects.h</text>
</a>
</g>
</g>
<!-- Node1&#45;&gt;Node13 -->
<g id="edge26" class="edge">
<title>Node1&#45;&gt;Node13</title>
<path fill="none" stroke="#63b8ff" d="M1031.46,-550.48C1034.83,-502.75 1045.14,-394.47 1073,-308 1083.06,-276.78 1084.79,-267.01 1106,-242 1148.79,-191.56 1217.96,-151.53 1249.87,-134.67"/>
<polygon fill="#63b8ff" stroke="#63b8ff" points="1027.95,-550.54 1030.77,-560.75 1034.93,-551 1027.95,-550.54"/>
</g>
<!-- Node14 -->
<g id="node14" class="node">
<title>Node14</title>
<g id="a_node14"><a xlink:href="member__frontend_8h.html" target="_top" xlink:title=" ">
<polygon fill="white" stroke="#666666" points="1026,-338 906,-338 906,-308 1026,-308 1026,-338"/>
<text text-anchor="start" x="914" y="-326" font-family="Helvetica,sans-Serif" font-size="10.00">src/node/rpc/member</text>
<text text-anchor="middle" x="966" y="-315" font-family="Helvetica,sans-Serif" font-size="10.00">_frontend.h</text>
</a>
</g>
</g>
<!-- Node1&#45;&gt;Node14 -->
<g id="edge27" class="edge">
<title>Node1&#45;&gt;Node14</title>
<path fill="none" stroke="#63b8ff" d="M1023.84,-550.84C1010.66,-499.13 980.05,-379.1 969.58,-338.06"/>
<polygon fill="#63b8ff" stroke="#63b8ff" points="1020.51,-551.96 1026.38,-560.79 1027.3,-550.23 1020.51,-551.96"/>
</g>
<!-- Node17 -->
<g id="node17" class="node">
<title>Node17</title>
<g id="a_node17"><a xlink:href="node__interface_8h.html" target="_top" xlink:title=" ">
<polygon fill="white" stroke="#666666" points="1293.5,-525 1132.5,-525 1132.5,-506 1293.5,-506 1293.5,-525"/>
<text text-anchor="middle" x="1213" y="-513" font-family="Helvetica,sans-Serif" font-size="10.00">src/node/rpc/node_interface.h</text>
</a>
</g>
</g>
<!-- Node1&#45;&gt;Node17 -->
<g id="edge28" class="edge">
<title>Node1&#45;&gt;Node17</title>
<path fill="none" stroke="#63b8ff" d="M1083.56,-557.88C1117.29,-547.09 1159.39,-533.64 1186.24,-525.05"/>
<polygon fill="#63b8ff" stroke="#63b8ff" points="1082.29,-554.61 1073.83,-560.99 1084.42,-561.28 1082.29,-554.61"/>
</g>
<!-- Node3&#45;&gt;Node2 -->
<g id="edge15" class="edge">
<title>Node3&#45;&gt;Node2</title>
<path fill="none" stroke="#63b8ff" d="M600.88,-452.63C522.59,-449.42 374.5,-438.79 337,-404 316.8,-385.26 316.26,-349.31 317.22,-332.75"/>
<polygon fill="#63b8ff" stroke="#63b8ff" points="600.86,-456.13 610.99,-453.02 601.13,-449.14 600.86,-456.13"/>
</g>
<!-- Node4 -->
<g id="node4" class="node">
<title>Node4</title>
<g id="a_node4"><a xlink:href="js__generic__base_8cpp.html" target="_top" xlink:title=" ">
<polygon fill="white" stroke="#666666" points="850,-404 732,-404 732,-374 850,-374 850,-404"/>
<text text-anchor="start" x="740" y="-392" font-family="Helvetica,sans-Serif" font-size="10.00">src/apps/js_generic</text>
<text text-anchor="middle" x="791" y="-381" font-family="Helvetica,sans-Serif" font-size="10.00">/js_generic_base.cpp</text>
</a>
</g>
</g>
<!-- Node3&#45;&gt;Node4 -->
<g id="edge3" class="edge">
<title>Node3&#45;&gt;Node4</title>
<path fill="none" stroke="#63b8ff" d="M678.16,-441.22C701.78,-430.5 735.49,-415.2 759.9,-404.12"/>
<polygon fill="#63b8ff" stroke="#63b8ff" points="676.68,-438.05 669.02,-445.37 679.57,-444.42 676.68,-438.05"/>
</g>
<!-- Node5 -->
<g id="node5" class="node">
<title>Node5</title>
<g id="a_node5"><a xlink:href="src_2enclave_2enclave_8h.html" target="_top" xlink:title=" ">
<polygon fill="white" stroke="#666666" points="1519,-74 1397,-74 1397,-55 1519,-55 1519,-74"/>
<text text-anchor="middle" x="1458" y="-62" font-family="Helvetica,sans-Serif" font-size="10.00">src/enclave/enclave.h</text>
</a>
</g>
</g>
<!-- Node3&#45;&gt;Node5 -->
<g id="edge4" class="edge">
<title>Node3&#45;&gt;Node5</title>
<path fill="none" stroke="#63b8ff" d="M600.42,-452.2C466.37,-447 103.7,-430.61 57,-404 19.07,-382.39 0,-367.66 0,-324 0,-324 0,-324 0,-190 0,-118.75 1120.02,-76.76 1396.75,-67.47"/>
<polygon fill="#63b8ff" stroke="#63b8ff" points="600.67,-455.71 610.79,-452.6 600.94,-448.72 600.67,-455.71"/>
</g>
<!-- Node7 -->
<g id="node7" class="node">
<title>Node7</title>
<g id="a_node7"><a xlink:href="consensus_8cpp.html" target="_top" xlink:title=" ">
<polygon fill="white" stroke="#666666" points="462,-398.5 346,-398.5 346,-379.5 462,-379.5 462,-398.5"/>
<text text-anchor="middle" x="404" y="-386.5" font-family="Helvetica,sans-Serif" font-size="10.00">src/js/consensus.cpp</text>
</a>
</g>
</g>
<!-- Node3&#45;&gt;Node7 -->
<g id="edge6" class="edge">
<title>Node3&#45;&gt;Node7</title>
<path fill="none" stroke="#63b8ff" d="M607.2,-442.86C558.67,-430.24 480.63,-409.94 436.73,-398.51"/>
<polygon fill="#63b8ff" stroke="#63b8ff" points="606.52,-446.3 617.08,-445.44 608.28,-439.53 606.52,-446.3"/>
</g>
<!-- Node8 -->
<g id="node8" class="node">
<title>Node8</title>
<g id="a_node8"><a xlink:href="conv_8cpp.html" target="_top" xlink:title=" ">
<polygon fill="white" stroke="#666666" points="568,-398.5 480,-398.5 480,-379.5 568,-379.5 568,-398.5"/>
<text text-anchor="middle" x="524" y="-386.5" font-family="Helvetica,sans-Serif" font-size="10.00">src/js/conv.cpp</text>
</a>
</g>
</g>
<!-- Node3&#45;&gt;Node8 -->
<g id="edge8" class="edge">
<title>Node3&#45;&gt;Node8</title>
<path fill="none" stroke="#63b8ff" d="M623.81,-440.69C598.98,-428.09 562.42,-409.51 541.13,-398.7"/>
<polygon fill="#63b8ff" stroke="#63b8ff" points="622.51,-443.96 633.01,-445.37 625.68,-437.72 622.51,-443.96"/>
</g>
<!-- Node9 -->
<g id="node9" class="node">
<title>Node9</title>
<g id="a_node9"><a xlink:href="crypto_8cpp.html" target="_top" xlink:title=" ">
<polygon fill="white" stroke="#666666" points="162,-398.5 66,-398.5 66,-379.5 162,-379.5 162,-398.5"/>
<text text-anchor="middle" x="114" y="-386.5" font-family="Helvetica,sans-Serif" font-size="10.00">src/js/crypto.cpp</text>
</a>
</g>
</g>
<!-- Node3&#45;&gt;Node9 -->
<g id="edge10" class="edge">
<title>Node3&#45;&gt;Node9</title>
<path fill="none" stroke="#63b8ff" d="M600.82,-451.1C513.7,-445.45 326.74,-431.12 171,-404 162.67,-402.55 153.75,-400.57 145.49,-398.55"/>
<polygon fill="#63b8ff" stroke="#63b8ff" points="600.74,-454.6 610.95,-451.74 601.19,-447.61 600.74,-454.6"/>
</g>
<!-- Node10 -->
<g id="node10" class="node">
<title>Node10</title>
<g id="a_node10"><a xlink:href="historical_8cpp.html" target="_top" xlink:title=" ">
<polygon fill="white" stroke="#666666" points="290,-398.5 180,-398.5 180,-379.5 290,-379.5 290,-398.5"/>
<text text-anchor="middle" x="235" y="-386.5" font-family="Helvetica,sans-Serif" font-size="10.00">src/js/historical.cpp</text>
</a>
</g>
</g>
<!-- Node3&#45;&gt;Node10 -->
<g id="edge12" class="edge">
<title>Node3&#45;&gt;Node10</title>
<path fill="none" stroke="#63b8ff" d="M600.68,-447.77C533.43,-439.06 409.29,-422.27 304,-404 294.61,-402.37 284.53,-400.43 275.06,-398.53"/>
<polygon fill="#63b8ff" stroke="#63b8ff" points="600.6,-451.29 610.97,-449.09 601.5,-444.34 600.6,-451.29"/>
</g>
<!-- Node11 -->
<g id="node11" class="node">
<title>Node11</title>
<g id="a_node11"><a xlink:href="openenclave_8cpp.html" target="_top" xlink:title=" ">
<polygon fill="white" stroke="#666666" points="714,-398.5 586,-398.5 586,-379.5 714,-379.5 714,-398.5"/>
<text text-anchor="middle" x="650" y="-386.5" font-family="Helvetica,sans-Serif" font-size="10.00">src/js/openenclave.cpp</text>
</a>
</g>
</g>
<!-- Node3&#45;&gt;Node11 -->
<g id="edge14" class="edge">
<title>Node3&#45;&gt;Node11</title>
<path fill="none" stroke="#63b8ff" d="M650,-435.08C650,-423.13 650,-408.22 650,-398.91"/>
<polygon fill="#63b8ff" stroke="#63b8ff" points="646.5,-435.37 650,-445.37 653.5,-435.37 646.5,-435.37"/>
</g>
<!-- Node12 -->
<g id="node12" class="node">
<title>Node12</title>
<g id="a_node12"><a xlink:href="node__state_8h.html" target="_top" xlink:title=" ">
<polygon fill="white" stroke="#666666" points="1330,-200.5 1206,-200.5 1206,-181.5 1330,-181.5 1330,-200.5"/>
<text text-anchor="middle" x="1268" y="-188.5" font-family="Helvetica,sans-Serif" font-size="10.00">src/node/node_state.h</text>
</a>
</g>
</g>
<!-- Node3&#45;&gt;Node12 -->
<g id="edge16" class="edge">
<title>Node3&#45;&gt;Node12</title>
<path fill="none" stroke="#63b8ff" d="M699.47,-447.5C753.48,-439.51 835.43,-424.44 859,-404 893.67,-373.94 863.42,-339.27 897,-308 968.28,-241.61 1013.02,-271.03 1106,-242 1153.06,-227.31 1207.89,-210.44 1240.18,-200.53"/>
<polygon fill="#63b8ff" stroke="#63b8ff" points="698.79,-444.07 689.4,-448.96 699.8,-450.99 698.79,-444.07"/>
</g>
<!-- Node3&#45;&gt;Node14 -->
<g id="edge20" class="edge">
<title>Node3&#45;&gt;Node14</title>
<path fill="none" stroke="#63b8ff" d="M699.14,-452.57C750.33,-449.16 831.36,-438.24 892,-404 920.83,-387.72 944.82,-356.31 957.12,-338.07"/>
<polygon fill="#63b8ff" stroke="#63b8ff" points="698.78,-449.08 689.01,-453.17 699.2,-456.07 698.78,-449.08"/>
</g>
<!-- Node15 -->
<g id="node15" class="node">
<title>Node15</title>
<g id="a_node15"><a xlink:href="node__frontend_8h.html" target="_top" xlink:title=" ">
<polygon fill="white" stroke="#666666" points="1240,-332.5 1082,-332.5 1082,-313.5 1240,-313.5 1240,-332.5"/>
<text text-anchor="middle" x="1161" y="-320.5" font-family="Helvetica,sans-Serif" font-size="10.00">src/node/rpc/node_frontend.h</text>
</a>
</g>
</g>
<!-- Node3&#45;&gt;Node15 -->
<g id="edge22" class="edge">
<title>Node3&#45;&gt;Node15</title>
<path fill="none" stroke="#63b8ff" d="M699.63,-447.16C754.88,-439.03 846.59,-424.01 924,-404 1004.72,-383.13 1097.67,-348.56 1139.1,-332.59"/>
<polygon fill="#63b8ff" stroke="#63b8ff" points="698.8,-443.74 689.41,-448.64 699.81,-450.67 698.8,-443.74"/>
</g>
<!-- Node6 -->
<g id="node6" class="node">
<title>Node6</title>
<g id="a_node6"><a xlink:href="enclave_2main_8cpp.html" target="_top" xlink:title=" ">
<polygon fill="white" stroke="#666666" points="1518,-19 1398,-19 1398,0 1518,0 1518,-19"/>
<text text-anchor="middle" x="1458" y="-7" font-family="Helvetica,sans-Serif" font-size="10.00">src/enclave/main.cpp</text>
</a>
</g>
</g>
<!-- Node5&#45;&gt;Node6 -->
<g id="edge5" class="edge">
<title>Node5&#45;&gt;Node6</title>
<path fill="none" stroke="#63b8ff" d="M1458,-44.66C1458,-35.93 1458,-25.99 1458,-19.09"/>
<polygon fill="#63b8ff" stroke="#63b8ff" points="1454.5,-44.75 1458,-54.75 1461.5,-44.75 1454.5,-44.75"/>
</g>
<!-- Node7&#45;&gt;Node2 -->
<g id="edge7" class="edge">
<title>Node7&#45;&gt;Node2</title>
<path fill="none" stroke="#63b8ff" d="M384.29,-373.33C367.43,-360.78 343.71,-343.13 329.69,-332.7"/>
<polygon fill="#63b8ff" stroke="#63b8ff" points="382.29,-376.21 392.4,-379.37 386.47,-370.59 382.29,-376.21"/>
</g>
<!-- Node8&#45;&gt;Node2 -->
<g id="edge9" class="edge">
<title>Node8&#45;&gt;Node2</title>
<path fill="none" stroke="#63b8ff" d="M486.42,-376.32C445.78,-363.7 381.96,-343.87 345.67,-332.6"/>
<polygon fill="#63b8ff" stroke="#63b8ff" points="485.63,-379.74 496.22,-379.37 487.71,-373.06 485.63,-379.74"/>
</g>
<!-- Node9&#45;&gt;Node2 -->
<g id="edge11" class="edge">
<title>Node9&#45;&gt;Node2</title>
<path fill="none" stroke="#63b8ff" d="M151.22,-376.32C191.46,-363.7 254.66,-343.87 290.6,-332.6"/>
<polygon fill="#63b8ff" stroke="#63b8ff" points="150.01,-373.04 141.51,-379.37 152.1,-379.71 150.01,-373.04"/>
</g>
<!-- Node10&#45;&gt;Node2 -->
<g id="edge13" class="edge">
<title>Node10&#45;&gt;Node2</title>
<path fill="none" stroke="#63b8ff" d="M254.47,-372.99C270.72,-360.46 293.31,-343.04 306.72,-332.7"/>
<polygon fill="#63b8ff" stroke="#63b8ff" points="251.98,-370.49 246.19,-379.37 256.25,-376.03 251.98,-370.49"/>
</g>
<!-- Node12&#45;&gt;Node5 -->
<g id="edge17" class="edge">
<title>Node12&#45;&gt;Node5</title>
<path fill="none" stroke="#63b8ff" d="M1291.04,-176.03C1307.13,-166.17 1329.04,-152.53 1348,-140 1367.44,-127.15 1371.74,-123.11 1391,-110 1409.47,-97.43 1431.02,-83.19 1444.59,-74.28"/>
<polygon fill="#63b8ff" stroke="#63b8ff" points="1289.01,-173.16 1282.3,-181.36 1292.66,-179.14 1289.01,-173.16"/>
</g>
<!-- Node12&#45;&gt;Node13 -->
<g id="edge18" class="edge">
<title>Node12&#45;&gt;Node13</title>
<path fill="none" stroke="#63b8ff" d="M1267.7,-171.08C1267.52,-159.13 1267.28,-144.22 1267.14,-134.91"/>
<polygon fill="#63b8ff" stroke="#63b8ff" points="1264.21,-171.42 1267.87,-181.37 1271.21,-171.32 1264.21,-171.42"/>
</g>
<!-- Node13&#45;&gt;Node5 -->
<g id="edge19" class="edge">
<title>Node13&#45;&gt;Node5</title>
<path fill="none" stroke="#63b8ff" d="M1304.67,-112.46C1341.61,-101.15 1397.08,-84.16 1430.19,-74.02"/>
<polygon fill="#63b8ff" stroke="#63b8ff" points="1303.31,-109.22 1294.77,-115.49 1305.36,-115.91 1303.31,-109.22"/>
</g>
<!-- Node14&#45;&gt;Node5 -->
<g id="edge21" class="edge">
<title>Node14&#45;&gt;Node5</title>
<path fill="none" stroke="#63b8ff" d="M978.03,-298.85C1002.75,-253.92 1063.89,-155.31 1146,-110 1187.98,-86.84 1318.7,-74.53 1396.98,-69.08"/>
<polygon fill="#63b8ff" stroke="#63b8ff" points="974.86,-297.37 973.19,-307.84 981.02,-300.7 974.86,-297.37"/>
</g>
<!-- Node15&#45;&gt;Node5 -->
<g id="edge23" class="edge">
<title>Node15&#45;&gt;Node5</title>
<path fill="none" stroke="#63b8ff" d="M1137.81,-307.82C1125.9,-299.12 1112.55,-286.81 1106,-272 1100.61,-259.81 1102.41,-254.84 1106,-242 1124.46,-175.93 1129.15,-148.4 1186,-110 1219.51,-87.37 1327.31,-75.22 1396.72,-69.58"/>
<polygon fill="#63b8ff" stroke="#63b8ff" points="1135.88,-310.74 1146.11,-313.5 1139.83,-304.96 1135.88,-310.74"/>
</g>
<!-- Node16 -->
<g id="node16" class="node">
<title>Node16</title>
<g id="a_node16"><a xlink:href="jwt__key__auto__refresh_8h.html" target="_top" xlink:title=" ">
<polygon fill="white" stroke="#666666" points="1239.5,-272 1114.5,-272 1114.5,-242 1239.5,-242 1239.5,-272"/>
<text text-anchor="start" x="1122.5" y="-260" font-family="Helvetica,sans-Serif" font-size="10.00">src/node/jwt_key_auto</text>
<text text-anchor="middle" x="1177" y="-249" font-family="Helvetica,sans-Serif" font-size="10.00">_refresh.h</text>
</a>
</g>
</g>
<!-- Node15&#45;&gt;Node16 -->
<g id="edge24" class="edge">
<title>Node15&#45;&gt;Node16</title>
<path fill="none" stroke="#63b8ff" d="M1165.66,-303.35C1168.13,-293.47 1171.12,-281.51 1173.41,-272.36"/>
<polygon fill="#63b8ff" stroke="#63b8ff" points="1162.19,-302.82 1163.16,-313.37 1168.98,-304.52 1162.19,-302.82"/>
</g>
<!-- Node16&#45;&gt;Node12 -->
<g id="edge25" class="edge">
<title>Node16&#45;&gt;Node12</title>
<path fill="none" stroke="#63b8ff" d="M1205.62,-235.87C1222.46,-224.03 1242.91,-209.65 1255.69,-200.66"/>
<polygon fill="#63b8ff" stroke="#63b8ff" points="1203.36,-233.18 1197.2,-241.8 1207.39,-238.91 1203.36,-233.18"/>
</g>
<!-- Node17&#45;&gt;Node2 -->
<g id="edge29" class="edge">
<title>Node17&#45;&gt;Node2</title>
<path fill="none" stroke="#63b8ff" d="M1184.15,-501.81C1112.02,-470.28 924.87,-389.77 859,-374 678.52,-330.79 455.9,-324.46 362.52,-323.85"/>
<polygon fill="#63b8ff" stroke="#63b8ff" points="1182.98,-505.12 1193.54,-505.92 1185.79,-498.7 1182.98,-505.12"/>
</g>
<!-- Node17&#45;&gt;Node3 -->
<g id="edge30" class="edge">
<title>Node17&#45;&gt;Node3</title>
<path fill="none" stroke="#63b8ff" d="M1122.04,-505.05C997.24,-492.08 778.27,-469.33 689.27,-460.08"/>
<polygon fill="#63b8ff" stroke="#63b8ff" points="1122.03,-508.57 1132.34,-506.12 1122.75,-501.6 1122.03,-508.57"/>
</g>
<!-- Node17&#45;&gt;Node14 -->
<g id="edge48" class="edge">
<title>Node17&#45;&gt;Node14</title>
<path fill="none" stroke="#63b8ff" d="M1191.13,-500.35C1178.52,-491.93 1162.53,-480.81 1149,-470 1099.6,-430.53 1094.13,-412.54 1044,-374 1026.78,-360.77 1006.03,-347.59 990.27,-338.08"/>
<polygon fill="#63b8ff" stroke="#63b8ff" points="1189.36,-503.37 1199.64,-505.96 1193.22,-497.53 1189.36,-503.37"/>
</g>
<!-- Node17&#45;&gt;Node15 -->
<g id="edge53" class="edge">
<title>Node17&#45;&gt;Node15</title>
<path fill="none" stroke="#63b8ff" d="M1189.42,-500.06C1179.32,-492.48 1168.58,-482.22 1163,-470 1141.19,-422.27 1153.34,-356.27 1158.79,-332.75"/>
<polygon fill="#63b8ff" stroke="#63b8ff" points="1187.42,-502.93 1197.63,-505.77 1191.42,-497.19 1187.42,-502.93"/>
</g>
<!-- Node18 -->
<g id="node18" class="node">
<title>Node18</title>
<g id="a_node18"><a xlink:href="historical__queries_8h.html" target="_top" xlink:title=" ">
<polygon fill="white" stroke="#666666" points="1971,-206 1865,-206 1865,-176 1971,-176 1971,-206"/>
<text text-anchor="start" x="1873" y="-194" font-family="Helvetica,sans-Serif" font-size="10.00">src/node/historical</text>
<text text-anchor="middle" x="1918" y="-183" font-family="Helvetica,sans-Serif" font-size="10.00">_queries.h</text>
</a>
</g>
</g>
<!-- Node17&#45;&gt;Node18 -->
<g id="edge31" class="edge">
<title>Node17&#45;&gt;Node18</title>
<path fill="none" stroke="#63b8ff" d="M1303.88,-513.94C1445.15,-512 1710.33,-503.82 1798,-470 1852.08,-449.14 1901,-447.96 1901,-390 1901,-390 1901,-390 1901,-322 1901,-279.66 1909.97,-230.22 1914.88,-206.35"/>
<polygon fill="#63b8ff" stroke="#63b8ff" points="1303.46,-510.44 1293.51,-514.07 1303.55,-517.44 1303.46,-510.44"/>
</g>
<!-- Node20 -->
<g id="node20" class="node">
<title>Node20</title>
<g id="a_node20"><a xlink:href="node__configuration__subsystem_8h.html" target="_top" xlink:title=" ">
<polygon fill="white" stroke="#666666" points="1326,-470 1172,-470 1172,-440 1326,-440 1326,-470"/>
<text text-anchor="start" x="1180" y="-458" font-family="Helvetica,sans-Serif" font-size="10.00">src/node/node_configuration</text>
<text text-anchor="middle" x="1249" y="-447" font-family="Helvetica,sans-Serif" font-size="10.00">_subsystem.h</text>
</a>
</g>
</g>
<!-- Node17&#45;&gt;Node20 -->
<g id="edge35" class="edge">
<title>Node17&#45;&gt;Node20</title>
<path fill="none" stroke="#63b8ff" d="M1223.57,-497.33C1228.89,-488.67 1235.28,-478.3 1240.31,-470.11"/>
<polygon fill="#63b8ff" stroke="#63b8ff" points="1220.57,-495.52 1218.31,-505.87 1226.53,-499.19 1220.57,-495.52"/>
</g>
<!-- Node25 -->
<g id="node25" class="node">
<title>Node25</title>
<g id="a_node25"><a xlink:href="acme__subsystem_8h.html" target="_top" xlink:title=" ">
<polygon fill="white" stroke="#666666" points="1818.5,-266.5 1645.5,-266.5 1645.5,-247.5 1818.5,-247.5 1818.5,-266.5"/>
<text text-anchor="middle" x="1732" y="-254.5" font-family="Helvetica,sans-Serif" font-size="10.00">src/node/rpc/acme_subsystem.h</text>
</a>
</g>
</g>
<!-- Node17&#45;&gt;Node25 -->
<g id="edge46" class="edge">
<title>Node17&#45;&gt;Node25</title>
<path fill="none" stroke="#63b8ff" d="M1303.82,-512.6C1371.53,-508.73 1465.32,-498.14 1543,-470 1594.82,-451.22 1609.79,-443.73 1648,-404 1690.36,-359.95 1719.54,-290.51 1728.83,-266.5"/>
<polygon fill="#63b8ff" stroke="#63b8ff" points="1303.4,-509.11 1293.6,-513.14 1303.78,-516.1 1303.4,-509.11"/>
</g>
<!-- Node26 -->
<g id="node26" class="node">
<title>Node26</title>
<g id="a_node26"><a xlink:href="network__identity__subsystem_8h.html" target="_top" xlink:title=" ">
<polygon fill="white" stroke="#666666" points="1533.5,-470 1406.5,-470 1406.5,-440 1533.5,-440 1533.5,-470"/>
<text text-anchor="start" x="1414.5" y="-458" font-family="Helvetica,sans-Serif" font-size="10.00">src/node/rpc/network</text>
<text text-anchor="middle" x="1470" y="-447" font-family="Helvetica,sans-Serif" font-size="10.00">_identity_subsystem.h</text>
</a>
</g>
</g>
<!-- Node17&#45;&gt;Node26 -->
<g id="edge49" class="edge">
<title>Node17&#45;&gt;Node26</title>
<path fill="none" stroke="#63b8ff" d="M1260.25,-503.74C1301.86,-494.27 1362.75,-480.41 1408.21,-470.06"/>
<polygon fill="#63b8ff" stroke="#63b8ff" points="1259.34,-500.36 1250.37,-505.99 1260.9,-507.19 1259.34,-500.36"/>
</g>
<!-- Node29 -->
<g id="node29" class="node">
<title>Node29</title>
<g id="a_node29"><a xlink:href="node__operation_8h.html" target="_top" xlink:title=" ">
<polygon fill="white" stroke="#666666" points="1847,-200.5 1683,-200.5 1683,-181.5 1847,-181.5 1847,-200.5"/>
<text text-anchor="middle" x="1765" y="-188.5" font-family="Helvetica,sans-Serif" font-size="10.00">src/node/rpc/node_operation.h</text>
</a>
</g>
</g>
<!-- Node17&#45;&gt;Node29 -->
<g id="edge54" class="edge">
<title>Node17&#45;&gt;Node29</title>
<path fill="none" stroke="#63b8ff" d="M1303.86,-515.29C1479.18,-514.36 1847,-499.36 1847,-390 1847,-390 1847,-390 1847,-322 1847,-285.46 1847.61,-272.83 1828,-242 1816.31,-223.62 1795.47,-209.07 1780.98,-200.51"/>
<polygon fill="#63b8ff" stroke="#63b8ff" points="1303.6,-511.79 1293.62,-515.33 1303.63,-518.79 1303.6,-511.79"/>
</g>
<!-- Node18&#45;&gt;Node5 -->
<g id="edge32" class="edge">
<title>Node18&#45;&gt;Node5</title>
<path fill="none" stroke="#63b8ff" d="M1876.5,-171.95C1833.91,-154.04 1765.38,-126.88 1704,-110 1641.96,-92.94 1569.28,-80.72 1519.08,-73.45"/>
<polygon fill="#63b8ff" stroke="#63b8ff" points="1875.39,-175.28 1885.97,-175.96 1878.12,-168.84 1875.39,-175.28"/>
</g>
<!-- Node19 -->
<g id="node19" class="node">
<title>Node19</title>
<g id="a_node19"><a xlink:href="historical__transaction__fetcher_8h.html" target="_top" xlink:title=" ">
<polygon fill="white" stroke="#666666" points="1965.5,-140 1840.5,-140 1840.5,-110 1965.5,-110 1965.5,-140"/>
<text text-anchor="start" x="1848.5" y="-128" font-family="Helvetica,sans-Serif" font-size="10.00">src/indexing/historical</text>
<text text-anchor="middle" x="1903" y="-117" font-family="Helvetica,sans-Serif" font-size="10.00">_transaction_fetcher.h</text>
</a>
</g>
</g>
<!-- Node18&#45;&gt;Node19 -->
<g id="edge33" class="edge">
<title>Node18&#45;&gt;Node19</title>
<path fill="none" stroke="#63b8ff" d="M1912.33,-165.83C1910.31,-157.17 1908.09,-147.7 1906.32,-140.16"/>
<polygon fill="#63b8ff" stroke="#63b8ff" points="1908.98,-166.86 1914.67,-175.8 1915.8,-165.26 1908.98,-166.86"/>
</g>
<!-- Node19&#45;&gt;Node5 -->
<g id="edge34" class="edge">
<title>Node19&#45;&gt;Node5</title>
<path fill="none" stroke="#63b8ff" d="M1830.16,-114.42C1743.46,-103.03 1600.23,-84.2 1519.07,-73.53"/>
<polygon fill="#63b8ff" stroke="#63b8ff" points="1829.82,-117.91 1840.19,-115.74 1830.73,-110.97 1829.82,-117.91"/>
</g>
<!-- Node21 -->
<g id="node21" class="node">
<title>Node21</title>
<g id="a_node21"><a xlink:href="frontend_8h.html" target="_top" xlink:title=" ">
<polygon fill="white" stroke="#666666" points="1301.5,-398.5 1172.5,-398.5 1172.5,-379.5 1301.5,-379.5 1301.5,-398.5"/>
<text text-anchor="middle" x="1237" y="-386.5" font-family="Helvetica,sans-Serif" font-size="10.00">src/node/rpc/frontend.h</text>
</a>
</g>
</g>
<!-- Node20&#45;&gt;Node21 -->
<g id="edge36" class="edge">
<title>Node20&#45;&gt;Node21</title>
<path fill="none" stroke="#63b8ff" d="M1244.49,-429.94C1242.45,-419.06 1240.16,-406.86 1238.66,-398.84"/>
<polygon fill="#63b8ff" stroke="#63b8ff" points="1241.05,-430.61 1246.34,-439.8 1247.93,-429.32 1241.05,-430.61"/>
</g>
<!-- Node21&#45;&gt;Node12 -->
<g id="edge41" class="edge">
<title>Node21&#45;&gt;Node12</title>
<path fill="none" stroke="#63b8ff" d="M1241.96,-369.42C1244.33,-360.05 1247.07,-348.47 1249,-338 1258.56,-286.22 1265.04,-223.23 1267.2,-200.61"/>
<polygon fill="#63b8ff" stroke="#63b8ff" points="1238.54,-368.65 1239.41,-379.21 1245.31,-370.41 1238.54,-368.65"/>
</g>
<!-- Node21&#45;&gt;Node14 -->
<g id="edge42" class="edge">
<title>Node21&#45;&gt;Node14</title>
<path fill="none" stroke="#63b8ff" d="M1190.81,-377.09C1145.17,-366.31 1075.14,-349.78 1025.39,-338.02"/>
<polygon fill="#63b8ff" stroke="#63b8ff" points="1190.2,-380.54 1200.73,-379.44 1191.81,-373.73 1190.2,-380.54"/>
</g>
<!-- Node21&#45;&gt;Node15 -->
<g id="edge43" class="edge">
<title>Node21&#45;&gt;Node15</title>
<path fill="none" stroke="#63b8ff" d="M1218.81,-372.68C1204.06,-360.26 1183.78,-343.18 1171.57,-332.91"/>
<polygon fill="#63b8ff" stroke="#63b8ff" points="1216.85,-375.6 1226.75,-379.37 1221.36,-370.25 1216.85,-375.6"/>
</g>
<!-- Node22 -->
<g id="node22" class="node">
<title>Node22</title>
<g id="a_node22"><a xlink:href="acme__challenge__frontend_8h.html" target="_top" xlink:title=" ">
<polygon fill="white" stroke="#666666" points="1440,-338 1300,-338 1300,-308 1440,-308 1440,-338"/>
<text text-anchor="start" x="1308" y="-326" font-family="Helvetica,sans-Serif" font-size="10.00">src/node/acme_challenge</text>
<text text-anchor="middle" x="1370" y="-315" font-family="Helvetica,sans-Serif" font-size="10.00">_frontend.h</text>
</a>
</g>
</g>
<!-- Node21&#45;&gt;Node22 -->
<g id="edge37" class="edge">
<title>Node21&#45;&gt;Node22</title>
<path fill="none" stroke="#63b8ff" d="M1264.16,-374.93C1286.41,-364.22 1317.84,-349.1 1340.67,-338.12"/>
<polygon fill="#63b8ff" stroke="#63b8ff" points="1262.43,-371.88 1254.94,-379.37 1265.47,-378.19 1262.43,-371.88"/>
</g>
<!-- Node24 -->
<g id="node24" class="node">
<title>Node24</title>
<g id="a_node24"><a xlink:href="user__frontend_8h.html" target="_top" xlink:title=" ">
<polygon fill="white" stroke="#666666" points="1588.5,-134.5 1433.5,-134.5 1433.5,-115.5 1588.5,-115.5 1588.5,-134.5"/>
<text text-anchor="middle" x="1511" y="-122.5" font-family="Helvetica,sans-Serif" font-size="10.00">src/node/rpc/user_frontend.h</text>
</a>
</g>
</g>
<!-- Node21&#45;&gt;Node24 -->
<g id="edge44" class="edge">
<title>Node21&#45;&gt;Node24</title>
<path fill="none" stroke="#63b8ff" d="M1287.62,-377.34C1348.38,-364.35 1442.93,-343.47 1449,-338 1511.1,-282.03 1512.39,-167.65 1511.41,-134.93"/>
<polygon fill="#63b8ff" stroke="#63b8ff" points="1286.86,-373.92 1277.81,-379.43 1288.32,-380.77 1286.86,-373.92"/>
</g>
<!-- Node22&#45;&gt;Node5 -->
<g id="edge38" class="edge">
<title>Node22&#45;&gt;Node5</title>
<path fill="none" stroke="#63b8ff" d="M1420.55,-302.99C1433.78,-295.44 1446.44,-285.31 1454,-272 1490.15,-208.41 1402.06,-179.45 1425,-110 1429.71,-95.75 1440.93,-82.34 1448.98,-74.04"/>
<polygon fill="#63b8ff" stroke="#63b8ff" points="1418.59,-300.07 1411.36,-307.81 1421.84,-306.27 1418.59,-300.07"/>
</g>
<!-- Node23 -->
<g id="node23" class="node">
<title>Node23</title>
<g id="a_node23"><a xlink:href="ccf__acme__client_8h.html" target="_top" xlink:title=" ">
<polygon fill="white" stroke="#666666" points="1444.5,-266.5 1295.5,-266.5 1295.5,-247.5 1444.5,-247.5 1444.5,-266.5"/>
<text text-anchor="middle" x="1370" y="-254.5" font-family="Helvetica,sans-Serif" font-size="10.00">src/node/ccf_acme_client.h</text>
</a>
</g>
</g>
<!-- Node22&#45;&gt;Node23 -->
<g id="edge39" class="edge">
<title>Node22&#45;&gt;Node23</title>
<path fill="none" stroke="#63b8ff" d="M1370,-297.6C1370,-286.8 1370,-274.78 1370,-266.84"/>
<polygon fill="#63b8ff" stroke="#63b8ff" points="1366.5,-297.8 1370,-307.8 1373.5,-297.8 1366.5,-297.8"/>
</g>
<!-- Node23&#45;&gt;Node12 -->
<g id="edge40" class="edge">
<title>Node23&#45;&gt;Node12</title>
<path fill="none" stroke="#63b8ff" d="M1347.72,-242.02C1327.66,-229.43 1298.8,-211.32 1281.86,-200.7"/>
<polygon fill="#63b8ff" stroke="#63b8ff" points="1345.91,-245.02 1356.24,-247.37 1349.63,-239.09 1345.91,-245.02"/>
</g>
<!-- Node24&#45;&gt;Node5 -->
<g id="edge45" class="edge">
<title>Node24&#45;&gt;Node5</title>
<path fill="none" stroke="#63b8ff" d="M1496.3,-107.77C1486.44,-96.89 1473.85,-82.99 1465.85,-74.17"/>
<polygon fill="#63b8ff" stroke="#63b8ff" points="1493.87,-110.31 1503.18,-115.37 1499.06,-105.61 1493.87,-110.31"/>
</g>
<!-- Node25&#45;&gt;Node5 -->
<g id="edge47" class="edge">
<title>Node25&#45;&gt;Node5</title>
<path fill="none" stroke="#63b8ff" d="M1710.83,-241.39C1698.84,-232.29 1684.23,-219.73 1674,-206 1646.07,-168.51 1666.74,-140.14 1631,-110 1599.95,-83.81 1555.37,-72.77 1519.25,-68.23"/>
<polygon fill="#63b8ff" stroke="#63b8ff" points="1708.87,-244.3 1719.01,-247.38 1713.01,-238.65 1708.87,-244.3"/>
</g>
<!-- Node26&#45;&gt;Node5 -->
<g id="edge51" class="edge">
<title>Node26&#45;&gt;Node5</title>
<path fill="none" stroke="#63b8ff" d="M1542.82,-437.29C1574.22,-428.47 1605.86,-416.82 1615,-404 1622.74,-393.14 1615.43,-387.33 1615,-374 1611.22,-256.48 1670.43,-202.62 1598,-110 1579.3,-86.09 1547.74,-74.8 1519.31,-69.55"/>
<polygon fill="#63b8ff" stroke="#63b8ff" points="1541.83,-433.93 1533.1,-439.93 1543.67,-440.68 1541.83,-433.93"/>
</g>
<!-- Node27 -->
<g id="node27" class="node">
<title>Node27</title>
<g id="a_node27"><a xlink:href="external__executor_8cpp.html" target="_top" xlink:title=" ">
<polygon fill="white" stroke="#666666" points="1606,-404 1458,-404 1458,-374 1606,-374 1606,-404"/>
<text text-anchor="start" x="1466" y="-392" font-family="Helvetica,sans-Serif" font-size="10.00">src/apps/external_executor</text>
<text text-anchor="middle" x="1532" y="-381" font-family="Helvetica,sans-Serif" font-size="10.00">/external_executor.cpp</text>
</a>
</g>
</g>
<!-- Node26&#45;&gt;Node27 -->
<g id="edge50" class="edge">
<title>Node26&#45;&gt;Node27</title>
<path fill="none" stroke="#63b8ff" d="M1490.96,-432.37C1499.97,-423.06 1510.26,-412.44 1518.28,-404.16"/>
<polygon fill="#63b8ff" stroke="#63b8ff" points="1488.2,-430.18 1483.76,-439.8 1493.23,-435.05 1488.2,-430.18"/>
</g>
<!-- Node28 -->
<g id="node28" class="node">
<title>Node28</title>
<g id="a_node28"><a xlink:href="historical__queries__adapter_8cpp.html" target="_top" xlink:title=" ">
<polygon fill="white" stroke="#666666" points="1440,-404 1320,-404 1320,-374 1440,-374 1440,-404"/>
<text text-anchor="start" x="1328" y="-392" font-family="Helvetica,sans-Serif" font-size="10.00">src/node/historical</text>
<text text-anchor="middle" x="1380" y="-381" font-family="Helvetica,sans-Serif" font-size="10.00">_queries_adapter.cpp</text>
</a>
</g>
</g>
<!-- Node26&#45;&gt;Node28 -->
<g id="edge52" class="edge">
<title>Node26&#45;&gt;Node28</title>
<path fill="none" stroke="#63b8ff" d="M1441.53,-433.75C1427.99,-424.13 1412.14,-412.86 1399.92,-404.16"/>
<polygon fill="#63b8ff" stroke="#63b8ff" points="1439.85,-436.85 1450.03,-439.8 1443.9,-431.15 1439.85,-436.85"/>
</g>
<!-- Node29&#45;&gt;Node5 -->
<g id="edge55" class="edge">
<title>Node29&#45;&gt;Node5</title>
<path fill="none" stroke="#63b8ff" d="M1750.47,-173.85C1732.98,-155.46 1701.84,-125.92 1669,-110 1621.67,-87.06 1562.73,-75.9 1519.19,-70.49"/>
<polygon fill="#63b8ff" stroke="#63b8ff" points="1748.13,-176.48 1757.5,-181.43 1753.26,-171.72 1748.13,-176.48"/>
</g>
</g>
</svg>
        <g id="navigator" transform="translate(0 0)" fill="#404254">
                <rect fill="#f2f5e9" fill-opacity="0.5" stroke="#606060" stroke-width=".5" x="0" y="0" width="60" height="60"/>
                <use id="zoomplus" xlink:href="#zoomPlus" x="17" y="9" onmousedown="handleZoom(evt,'in')"/>
                <use id="zoomminus" xlink:href="#zoomMin" x="42" y="9" onmousedown="handleZoom(evt,'out')"/>
                <use id="reset" xlink:href="#resetDef" x="30" y="36" onmousedown="handleReset()"/>
                <g id="arrowUp" xlink:href="#dirArrow" transform="translate(30 24)" onmousedown="handlePan(0,-1)">
                  <use xlink:href="#rim" fill="#404040">
                        <set attributeName="fill" to="#808080" begin="arrowUp.mouseover" end="arrowUp.mouseout"/>
                  </use>
                  <path fill="none" stroke="white" stroke-width="1.5" d="M0,-3.0v7 M-2.5,-0.5L0,-3.0L2.5,-0.5"/>
                </g>
                <g id="arrowRight" xlink:href="#dirArrow" transform="rotate(90) translate(36 -43)" onmousedown="handlePan(1,0)">
                  <use xlink:href="#rim" fill="#404040">
                        <set attributeName="fill" to="#808080" begin="arrowRight.mouseover" end="arrowRight.mouseout"/>
                  </use>
                  <path fill="none" stroke="white" stroke-width="1.5" d="M0,-3.0v7 M-2.5,-0.5L0,-3.0L2.5,-0.5"/>
                </g>
                <g id="arrowDown" xlink:href="#dirArrow" transform="rotate(180) translate(-30 -48)" onmousedown="handlePan(0,1)">
                  <use xlink:href="#rim" fill="#404040">
                        <set attributeName="fill" to="#808080" begin="arrowDown.mouseover" end="arrowDown.mouseout"/>
                  </use>
                  <path fill="none" stroke="white" stroke-width="1.5" d="M0,-3.0v7 M-2.5,-0.5L0,-3.0L2.5,-0.5"/>
                </g>
                <g id="arrowLeft" xlink:href="#dirArrow" transform="rotate(270) translate(-36 17)" onmousedown="handlePan(-1,0)">
                  <use xlink:href="#rim" fill="#404040">
                        <set attributeName="fill" to="#808080" begin="arrowLeft.mouseover" end="arrowLeft.mouseout"/>
                  </use>
                  <path fill="none" stroke="white" stroke-width="1.5" d="M0,-3.0v7 M-2.5,-0.5L0,-3.0L2.5,-0.5"/>
                </g>
        </g>
        <svg viewBox="0 0 15 15" width="100%" height="30px" preserveAspectRatio="xMaxYMin meet">
         <g id="arrow_out" transform="scale(0.3 0.3)">
          <a xlink:href="gov__effects__interface_8h__dep__incl_org.svg" target="_base">
           <rect id="button" ry="5" rx="5" y="6" x="6" height="38" width="38"
                fill="#f2f5e9" fill-opacity="0.5" stroke="#606060" stroke-width="1.0"/>
           <path id="arrow"
             d="M 11.500037,31.436501 C 11.940474,20.09759 22.043105,11.32322 32.158766,21.979434 L 37.068811,17.246167 C 37.068811,17.246167 37.088388,32 37.088388,32 L 22.160133,31.978069 C 22.160133,31.978069 26.997745,27.140456 26.997745,27.140456 C 18.528582,18.264221 13.291696,25.230495 11.500037,31.436501 z"
             style="fill:#404040;"/>
          </a>
         </g>
        </svg>
</svg>
