<?xml version="1.0" encoding="UTF-8" standalone="no"?>
<!DOCTYPE svg PUBLIC "-//W3C//DTD SVG 1.1//EN"
 "http://www.w3.org/Graphics/SVG/1.1/DTD/svg11.dtd">
<!-- Generated by graphviz version 2.43.0 (0)
 -->
<!-- Title: src/node/history.h Pages: 1 -->
<svg width="561pt" height="445pt"
 viewBox="0.00 0.00 560.65 445.00" xmlns="http://www.w3.org/2000/svg" xmlns:xlink="http://www.w3.org/1999/xlink">
<g id="graph0" class="graph" transform="scale(1 1) rotate(0) translate(4 441)">
<title>src/node/history.h</title>
<!-- Node1 -->
<g id="node1" class="node">
<title>Node1</title>
<g id="a_node1"><a xlink:title=" ">
<polygon fill="#999999" stroke="#666666" points="207.65,-437 105.65,-437 105.65,-418 207.65,-418 207.65,-437"/>
<text text-anchor="middle" x="156.65" y="-425" font-family="Helvetica,sans-Serif" font-size="10.00">src/node/history.h</text>
</a>
</g>
</g>
<!-- Node2 -->
<g id="node2" class="node">
<title>Node2</title>
<g id="a_node2"><a xlink:href="historical__queries_8h.html" target="_top" xlink:title=" ">
<polygon fill="white" stroke="#666666" points="120.65,-316 14.65,-316 14.65,-286 120.65,-286 120.65,-316"/>
<text text-anchor="start" x="22.65" y="-304" font-family="Helvetica,sans-Serif" font-size="10.00">src/node/historical</text>
<text text-anchor="middle" x="67.65" y="-293" font-family="Helvetica,sans-Serif" font-size="10.00">_queries.h</text>
</a>
</g>
</g>
<!-- Node1&#45;&gt;Node2 -->
<g id="edge1" class="edge">
<title>Node1&#45;&gt;Node2</title>
<path fill="none" stroke="#63b8ff" d="M144.55,-409.57C126.86,-384.83 94.27,-339.23 77.77,-316.16"/>
<polygon fill="#63b8ff" stroke="#63b8ff" points="141.87,-411.84 150.53,-417.94 147.57,-407.77 141.87,-411.84"/>
</g>
<!-- Node6 -->
<g id="node6" class="node">
<title>Node6</title>
<g id="a_node6"><a xlink:href="node__state_8h.html" target="_top" xlink:title=" ">
<polygon fill="white" stroke="#666666" points="207.65,-189.5 83.65,-189.5 83.65,-170.5 207.65,-170.5 207.65,-189.5"/>
<text text-anchor="middle" x="145.65" y="-177.5" font-family="Helvetica,sans-Serif" font-size="10.00">src/node/node_state.h</text>
</a>
</g>
</g>
<!-- Node1&#45;&gt;Node6 -->
<g id="edge6" class="edge">
<title>Node1&#45;&gt;Node6</title>
<path fill="none" stroke="#63b8ff" d="M125.03,-413.96C88.59,-397.57 30.55,-365.06 5.65,-316 -24.52,-256.53 75.19,-208.47 122.33,-189.61"/>
<polygon fill="#63b8ff" stroke="#63b8ff" points="123.67,-417.18 134.24,-417.96 126.47,-410.77 123.67,-417.18"/>
</g>
<!-- Node8 -->
<g id="node8" class="node">
<title>Node8</title>
<g id="a_node8"><a xlink:href="snapshot__serdes_8h.html" target="_top" xlink:title=" ">
<polygon fill="white" stroke="#666666" points="552.65,-310.5 400.65,-310.5 400.65,-291.5 552.65,-291.5 552.65,-310.5"/>
<text text-anchor="middle" x="476.65" y="-298.5" font-family="Helvetica,sans-Serif" font-size="10.00">src/node/snapshot_serdes.h</text>
</a>
</g>
</g>
<!-- Node1&#45;&gt;Node8 -->
<g id="edge10" class="edge">
<title>Node1&#45;&gt;Node8</title>
<path fill="none" stroke="#63b8ff" d="M188.3,-414.19C252.97,-389.03 398.85,-332.27 454.5,-310.62"/>
<polygon fill="#63b8ff" stroke="#63b8ff" points="186.7,-411.05 178.65,-417.94 189.24,-417.58 186.7,-411.05"/>
</g>
<!-- Node10 -->
<g id="node10" class="node">
<title>Node10</title>
<g id="a_node10"><a xlink:href="tx__receipt__impl_8h.html" target="_top" xlink:title=" ">
<polygon fill="white" stroke="#666666" points="253.65,-382 143.65,-382 143.65,-352 253.65,-352 253.65,-382"/>
<text text-anchor="start" x="151.65" y="-370" font-family="Helvetica,sans-Serif" font-size="10.00">src/node/tx_receipt</text>
<text text-anchor="middle" x="198.65" y="-359" font-family="Helvetica,sans-Serif" font-size="10.00">_impl.h</text>
</a>
</g>
</g>
<!-- Node1&#45;&gt;Node10 -->
<g id="edge13" class="edge">
<title>Node1&#45;&gt;Node10</title>
<path fill="none" stroke="#63b8ff" d="M168.78,-409.61C175.04,-400.89 182.58,-390.39 188.52,-382.11"/>
<polygon fill="#63b8ff" stroke="#63b8ff" points="165.84,-407.7 162.85,-417.87 171.52,-411.79 165.84,-407.7"/>
</g>
<!-- Node3 -->
<g id="node3" class="node">
<title>Node3</title>
<g id="a_node3"><a xlink:href="src_2enclave_2enclave_8h.html" target="_top" xlink:title=" ">
<polygon fill="white" stroke="#666666" points="258.65,-74 136.65,-74 136.65,-55 258.65,-55 258.65,-74"/>
<text text-anchor="middle" x="197.65" y="-62" font-family="Helvetica,sans-Serif" font-size="10.00">src/enclave/enclave.h</text>
</a>
</g>
</g>
<!-- Node2&#45;&gt;Node3 -->
<g id="edge2" class="edge">
<title>Node2&#45;&gt;Node3</title>
<path fill="none" stroke="#63b8ff" d="M59.37,-276.06C47.56,-237.2 31.01,-159.76 66.65,-110 82.67,-87.64 110.56,-76.38 136.51,-70.77"/>
<polygon fill="#63b8ff" stroke="#63b8ff" points="56.15,-277.48 62.53,-285.94 62.82,-275.35 56.15,-277.48"/>
</g>
<!-- Node5 -->
<g id="node5" class="node">
<title>Node5</title>
<g id="a_node5"><a xlink:href="historical__transaction__fetcher_8h.html" target="_top" xlink:title=" ">
<polygon fill="white" stroke="#666666" points="351.15,-195 226.15,-195 226.15,-165 351.15,-165 351.15,-195"/>
<text text-anchor="start" x="234.15" y="-183" font-family="Helvetica,sans-Serif" font-size="10.00">src/indexing/historical</text>
<text text-anchor="middle" x="288.65" y="-172" font-family="Helvetica,sans-Serif" font-size="10.00">_transaction_fetcher.h</text>
</a>
</g>
</g>
<!-- Node2&#45;&gt;Node5 -->
<g id="edge4" class="edge">
<title>Node2&#45;&gt;Node5</title>
<path fill="none" stroke="#63b8ff" d="M102.86,-281.04C147.32,-257.1 222.78,-216.47 262.47,-195.1"/>
<polygon fill="#63b8ff" stroke="#63b8ff" points="101.02,-278.06 93.87,-285.88 104.34,-284.22 101.02,-278.06"/>
</g>
<!-- Node4 -->
<g id="node4" class="node">
<title>Node4</title>
<g id="a_node4"><a xlink:href="enclave_2main_8cpp.html" target="_top" xlink:title=" ">
<polygon fill="white" stroke="#666666" points="257.65,-19 137.65,-19 137.65,0 257.65,0 257.65,-19"/>
<text text-anchor="middle" x="197.65" y="-7" font-family="Helvetica,sans-Serif" font-size="10.00">src/enclave/main.cpp</text>
</a>
</g>
</g>
<!-- Node3&#45;&gt;Node4 -->
<g id="edge3" class="edge">
<title>Node3&#45;&gt;Node4</title>
<path fill="none" stroke="#63b8ff" d="M197.65,-44.66C197.65,-35.93 197.65,-25.99 197.65,-19.09"/>
<polygon fill="#63b8ff" stroke="#63b8ff" points="194.15,-44.75 197.65,-54.75 201.15,-44.75 194.15,-44.75"/>
</g>
<!-- Node5&#45;&gt;Node3 -->
<g id="edge5" class="edge">
<title>Node5&#45;&gt;Node3</title>
<path fill="none" stroke="#63b8ff" d="M275.44,-155.99C267.05,-142.13 255.56,-124.43 243.65,-110 232.48,-96.46 217.57,-82.68 207.8,-74.12"/>
<polygon fill="#63b8ff" stroke="#63b8ff" points="272.6,-158.07 280.72,-164.88 278.62,-154.5 272.6,-158.07"/>
</g>
<!-- Node6&#45;&gt;Node3 -->
<g id="edge7" class="edge">
<title>Node6&#45;&gt;Node3</title>
<path fill="none" stroke="#63b8ff" d="M182.71,-166.5C199.92,-158.62 218.74,-146.55 228.65,-129 239.39,-109.99 220.21,-86.71 207.52,-74.3"/>
<polygon fill="#63b8ff" stroke="#63b8ff" points="181.22,-163.33 173.38,-170.46 183.95,-169.78 181.22,-163.33"/>
</g>
<!-- Node7 -->
<g id="node7" class="node">
<title>Node7</title>
<g id="a_node7"><a xlink:href="gov__effects_8h.html" target="_top" xlink:title=" ">
<polygon fill="white" stroke="#666666" points="219.65,-129 75.65,-129 75.65,-110 219.65,-110 219.65,-129"/>
<text text-anchor="middle" x="147.65" y="-117" font-family="Helvetica,sans-Serif" font-size="10.00">src/node/rpc/gov_effects.h</text>
</a>
</g>
</g>
<!-- Node6&#45;&gt;Node7 -->
<g id="edge8" class="edge">
<title>Node6&#45;&gt;Node7</title>
<path fill="none" stroke="#63b8ff" d="M146.3,-160.16C146.65,-149.74 147.08,-137.3 147.36,-129.17"/>
<polygon fill="#63b8ff" stroke="#63b8ff" points="142.79,-160.25 145.95,-170.37 149.79,-160.49 142.79,-160.25"/>
</g>
<!-- Node7&#45;&gt;Node3 -->
<g id="edge9" class="edge">
<title>Node7&#45;&gt;Node3</title>
<path fill="none" stroke="#63b8ff" d="M162.99,-102.24C171.76,-92.95 182.39,-81.68 189.55,-74.09"/>
<polygon fill="#63b8ff" stroke="#63b8ff" points="160.22,-100.07 155.91,-109.75 165.32,-104.88 160.22,-100.07"/>
</g>
<!-- Node9 -->
<g id="node9" class="node">
<title>Node9</title>
<g id="a_node9"><a xlink:href="snapshotter_8h.html" target="_top" xlink:title=" ">
<polygon fill="white" stroke="#666666" points="401.15,-250 274.15,-250 274.15,-231 401.15,-231 401.15,-250"/>
<text text-anchor="middle" x="337.65" y="-238" font-family="Helvetica,sans-Serif" font-size="10.00">src/node/snapshotter.h</text>
</a>
</g>
</g>
<!-- Node8&#45;&gt;Node9 -->
<g id="edge11" class="edge">
<title>Node8&#45;&gt;Node9</title>
<path fill="none" stroke="#63b8ff" d="M447.14,-287.58C420.29,-276.28 381.37,-259.9 357.89,-250.02"/>
<polygon fill="#63b8ff" stroke="#63b8ff" points="445.87,-290.84 456.44,-291.49 448.58,-284.39 445.87,-290.84"/>
</g>
<!-- Node9&#45;&gt;Node6 -->
<g id="edge12" class="edge">
<title>Node9&#45;&gt;Node6</title>
<path fill="none" stroke="#63b8ff" d="M299.79,-227.96C262.65,-216.65 206.89,-199.66 173.6,-189.52"/>
<polygon fill="#63b8ff" stroke="#63b8ff" points="299.15,-231.43 309.73,-230.99 301.19,-224.73 299.15,-231.43"/>
</g>
<!-- Node10&#45;&gt;Node2 -->
<g id="edge14" class="edge">
<title>Node10&#45;&gt;Node2</title>
<path fill="none" stroke="#63b8ff" d="M160.81,-347.51C140.26,-337.47 115.26,-325.26 96.33,-316.01"/>
<polygon fill="#63b8ff" stroke="#63b8ff" points="159.38,-350.71 169.9,-351.95 162.45,-344.42 159.38,-350.71"/>
</g>
<!-- Node10&#45;&gt;Node8 -->
<g id="edge17" class="edge">
<title>Node10&#45;&gt;Node8</title>
<path fill="none" stroke="#63b8ff" d="M263.87,-350.99C318.63,-338.38 394.9,-320.82 439.69,-310.51"/>
<polygon fill="#63b8ff" stroke="#63b8ff" points="262.87,-347.62 253.91,-353.28 264.44,-354.45 262.87,-347.62"/>
</g>
<!-- Node11 -->
<g id="node11" class="node">
<title>Node11</title>
<g id="a_node11"><a xlink:href="historical__queries__adapter_8cpp.html" target="_top" xlink:title=" ">
<polygon fill="white" stroke="#666666" points="258.65,-316 138.65,-316 138.65,-286 258.65,-286 258.65,-316"/>
<text text-anchor="start" x="146.65" y="-304" font-family="Helvetica,sans-Serif" font-size="10.00">src/node/historical</text>
<text text-anchor="middle" x="198.65" y="-293" font-family="Helvetica,sans-Serif" font-size="10.00">_queries_adapter.cpp</text>
</a>
</g>
</g>
<!-- Node10&#45;&gt;Node11 -->
<g id="edge15" class="edge">
<title>Node10&#45;&gt;Node11</title>
<path fill="none" stroke="#63b8ff" d="M198.65,-341.54C198.65,-332.96 198.65,-323.61 198.65,-316.16"/>
<polygon fill="#63b8ff" stroke="#63b8ff" points="195.15,-341.8 198.65,-351.8 202.15,-341.8 195.15,-341.8"/>
</g>
<!-- Node12 -->
<g id="node12" class="node">
<title>Node12</title>
<g id="a_node12"><a xlink:href="historical__queries__utils_8cpp.html" target="_top" xlink:title=" ">
<polygon fill="white" stroke="#666666" points="382.65,-316 276.65,-316 276.65,-286 382.65,-286 382.65,-316"/>
<text text-anchor="start" x="284.65" y="-304" font-family="Helvetica,sans-Serif" font-size="10.00">src/node/historical</text>
<text text-anchor="middle" x="329.65" y="-293" font-family="Helvetica,sans-Serif" font-size="10.00">_queries_utils.cpp</text>
</a>
</g>
</g>
<!-- Node10&#45;&gt;Node12 -->
<g id="edge16" class="edge">
<title>Node10&#45;&gt;Node12</title>
<path fill="none" stroke="#63b8ff" d="M236.49,-347.51C257.04,-337.47 282.04,-325.26 300.97,-316.01"/>
<polygon fill="#63b8ff" stroke="#63b8ff" points="234.85,-344.42 227.4,-351.95 237.92,-350.71 234.85,-344.42"/>
</g>
</g>
</svg>
