<?xml version="1.0" encoding="UTF-8" standalone="no"?>
<!DOCTYPE svg PUBLIC "-//W3C//DTD SVG 1.1//EN"
 "http://www.w3.org/Graphics/SVG/1.1/DTD/svg11.dtd">
<!-- Generated by graphviz version 2.43.0 (0)
 -->
<!-- Title: Graphical Class Hierarchy Pages: 1 -->
<svg width="523pt" height="325pt"
 viewBox="0.00 0.00 523.00 324.50" xmlns="http://www.w3.org/2000/svg" xmlns:xlink="http://www.w3.org/1999/xlink">
<g id="graph0" class="graph" transform="scale(1 1) rotate(0) translate(4 320.5)">
<title>Graphical Class Hierarchy</title>
<!-- Node0 -->
<g id="node1" class="node">
<title>Node0</title>
<g id="a_node1"><a xlink:href="structccf_1_1AuthnIdentity.html" target="_top" xlink:title=" ">
<polygon fill="white" stroke="#666666" points="102,-160 0,-160 0,-141 102,-141 102,-160"/>
<text text-anchor="middle" x="51" y="-148" font-family="Helvetica,sans-Serif" font-size="10.00">ccf::AuthnIdentity</text>
</a>
</g>
</g>
<!-- Node1 -->
<g id="node2" class="node">
<title>Node1</title>
<g id="a_node2"><a xlink:href="structccf_1_1COSESign1AuthnIdentity.html" target="_top" xlink:title=" ">
<polygon fill="white" stroke="#666666" points="297,-290 142,-290 142,-271 297,-271 297,-290"/>
<text text-anchor="middle" x="219.5" y="-278" font-family="Helvetica,sans-Serif" font-size="10.00">ccf::COSESign1AuthnIdentity</text>
</a>
</g>
</g>
<!-- Node0&#45;&gt;Node1 -->
<g id="edge1" class="edge">
<title>Node0&#45;&gt;Node1</title>
<path fill="none" stroke="#63b8ff" d="M61.43,-169.54C74.87,-194.63 101.96,-238.31 138,-261.5 144.04,-265.38 150.79,-268.48 157.74,-270.94"/>
<polygon fill="#63b8ff" stroke="#63b8ff" points="64.36,-167.6 56.66,-160.32 58.15,-170.81 64.36,-167.6"/>
</g>
<!-- Node4 -->
<g id="node5" class="node">
<title>Node4</title>
<g id="a_node5"><a xlink:href="structccf_1_1EmptyAuthnIdentity.html" target="_top" xlink:title=" ">
<polygon fill="white" stroke="#666666" points="286.5,-253 152.5,-253 152.5,-234 286.5,-234 286.5,-253"/>
<text text-anchor="middle" x="219.5" y="-241" font-family="Helvetica,sans-Serif" font-size="10.00">ccf::EmptyAuthnIdentity</text>
</a>
</g>
</g>
<!-- Node0&#45;&gt;Node4 -->
<g id="edge4" class="edge">
<title>Node0&#45;&gt;Node4</title>
<path fill="none" stroke="#63b8ff" d="M67.15,-167.66C83.11,-184.64 109.8,-210.13 138,-224.5 145.55,-228.35 153.89,-231.43 162.27,-233.89"/>
<polygon fill="#63b8ff" stroke="#63b8ff" points="69.56,-165.1 60.22,-160.09 64.39,-169.82 69.56,-165.1"/>
</g>
<!-- Node5 -->
<g id="node6" class="node">
<title>Node5</title>
<g id="a_node6"><a xlink:href="structccf_1_1JwtAuthnIdentity.html" target="_top" xlink:title=" ">
<polygon fill="white" stroke="#666666" points="278,-216 161,-216 161,-197 278,-197 278,-216"/>
<text text-anchor="middle" x="219.5" y="-204" font-family="Helvetica,sans-Serif" font-size="10.00">ccf::JwtAuthnIdentity</text>
</a>
</g>
</g>
<!-- Node0&#45;&gt;Node5 -->
<g id="edge5" class="edge">
<title>Node0&#45;&gt;Node5</title>
<path fill="none" stroke="#63b8ff" d="M80.55,-164.27C97.06,-171.86 118.39,-181.02 138,-187.5 148.77,-191.06 160.56,-194.23 171.71,-196.91"/>
<polygon fill="#63b8ff" stroke="#63b8ff" points="81.98,-161.08 71.43,-160.02 79.02,-167.42 81.98,-161.08"/>
</g>
<!-- Node6 -->
<g id="node7" class="node">
<title>Node6</title>
<g id="a_node7"><a xlink:href="structccf_1_1MemberCertAuthnIdentity.html" target="_top" xlink:title=" ">
<polygon fill="white" stroke="#666666" points="301,-179 138,-179 138,-160 301,-160 301,-179"/>
<text text-anchor="middle" x="219.5" y="-167" font-family="Helvetica,sans-Serif" font-size="10.00">ccf::MemberCertAuthnIdentity</text>
</a>
</g>
</g>
<!-- Node0&#45;&gt;Node6 -->
<g id="edge6" class="edge">
<title>Node0&#45;&gt;Node6</title>
<path fill="none" stroke="#63b8ff" d="M112.6,-157.42C120.81,-158.35 129.33,-159.32 137.82,-160.29"/>
<polygon fill="#63b8ff" stroke="#63b8ff" points="112.74,-153.91 102.41,-156.25 111.95,-160.86 112.74,-153.91"/>
</g>
<!-- Node7 -->
<g id="node8" class="node">
<title>Node7</title>
<g id="a_node8"><a xlink:href="structccf_1_1NodeCertAuthnIdentity.html" target="_top" xlink:title=" ">
<polygon fill="white" stroke="#666666" points="293.5,-142 145.5,-142 145.5,-123 293.5,-123 293.5,-142"/>
<text text-anchor="middle" x="219.5" y="-130" font-family="Helvetica,sans-Serif" font-size="10.00">ccf::NodeCertAuthnIdentity</text>
</a>
</g>
</g>
<!-- Node0&#45;&gt;Node7 -->
<g id="edge7" class="edge">
<title>Node0&#45;&gt;Node7</title>
<path fill="none" stroke="#63b8ff" d="M112.43,-143.97C123.08,-142.82 134.27,-141.61 145.23,-140.42"/>
<polygon fill="#63b8ff" stroke="#63b8ff" points="111.97,-140.5 102.41,-145.05 112.73,-147.46 111.97,-140.5"/>
</g>
<!-- Node8 -->
<g id="node9" class="node">
<title>Node8</title>
<g id="a_node9"><a xlink:href="structccf_1_1UserCertAuthnIdentity.html" target="_top" xlink:title=" ">
<polygon fill="white" stroke="#666666" points="292,-105 147,-105 147,-86 292,-86 292,-105"/>
<text text-anchor="middle" x="219.5" y="-93" font-family="Helvetica,sans-Serif" font-size="10.00">ccf::UserCertAuthnIdentity</text>
</a>
</g>
</g>
<!-- Node0&#45;&gt;Node8 -->
<g id="edge8" class="edge">
<title>Node0&#45;&gt;Node8</title>
<path fill="none" stroke="#63b8ff" d="M80.52,-136.64C97.02,-129.02 118.35,-119.86 138,-113.5 147.95,-110.28 158.77,-107.43 169.15,-105.01"/>
<polygon fill="#63b8ff" stroke="#63b8ff" points="78.98,-133.5 71.41,-140.91 81.95,-139.83 78.98,-133.5"/>
</g>
<!-- Node9 -->
<g id="node10" class="node">
<title>Node9</title>
<g id="a_node10"><a xlink:href="structexternalexecutor_1_1ExecutorIdentity.html" target="_top" xlink:title=" ">
<polygon fill="white" stroke="#666666" points="293,-67.5 146,-67.5 146,-37.5 293,-37.5 293,-67.5"/>
<text text-anchor="start" x="154" y="-55.5" font-family="Helvetica,sans-Serif" font-size="10.00">externalexecutor::Executor</text>
<text text-anchor="middle" x="219.5" y="-44.5" font-family="Helvetica,sans-Serif" font-size="10.00">Identity</text>
</a>
</g>
</g>
<!-- Node0&#45;&gt;Node9 -->
<g id="edge9" class="edge">
<title>Node0&#45;&gt;Node9</title>
<path fill="none" stroke="#63b8ff" d="M67.59,-133.41C83.72,-116.69 110.37,-91.6 138,-76.5 144.14,-73.14 150.81,-70.2 157.59,-67.64"/>
<polygon fill="#63b8ff" stroke="#63b8ff" points="64.88,-131.19 60.56,-140.87 69.97,-135.99 64.88,-131.19"/>
</g>
<!-- Node10 -->
<g id="node11" class="node">
<title>Node10</title>
<g id="a_node11"><a xlink:href="structloggingapp_1_1CustomIdentity.html" target="_top" xlink:title=" ">
<polygon fill="white" stroke="#666666" points="295.5,-19 143.5,-19 143.5,0 295.5,0 295.5,-19"/>
<text text-anchor="middle" x="219.5" y="-7" font-family="Helvetica,sans-Serif" font-size="10.00">loggingapp::CustomIdentity</text>
</a>
</g>
</g>
<!-- Node0&#45;&gt;Node10 -->
<g id="edge10" class="edge">
<title>Node0&#45;&gt;Node10</title>
<path fill="none" stroke="#63b8ff" d="M60.02,-131.53C72.53,-104.32 99.35,-54.62 138,-28.5 143.71,-24.64 150.11,-21.56 156.74,-19.1"/>
<polygon fill="#63b8ff" stroke="#63b8ff" points="56.78,-130.2 55.93,-140.77 63.18,-133.04 56.78,-130.2"/>
</g>
<!-- Node2 -->
<g id="node3" class="node">
<title>Node2</title>
<g id="a_node3"><a xlink:href="structccf_1_1MemberCOSESign1AuthnIdentity.html" target="_top" xlink:title=" ">
<polygon fill="white" stroke="#666666" points="505,-316.5 347,-316.5 347,-286.5 505,-286.5 505,-316.5"/>
<text text-anchor="start" x="355" y="-304.5" font-family="Helvetica,sans-Serif" font-size="10.00">ccf::MemberCOSESign1Authn</text>
<text text-anchor="middle" x="426" y="-293.5" font-family="Helvetica,sans-Serif" font-size="10.00">Identity</text>
</a>
</g>
</g>
<!-- Node1&#45;&gt;Node2 -->
<g id="edge2" class="edge">
<title>Node1&#45;&gt;Node2</title>
<path fill="none" stroke="#63b8ff" d="M307.2,-289.4C320.36,-290.75 333.86,-292.14 346.82,-293.47"/>
<polygon fill="#63b8ff" stroke="#63b8ff" points="307.54,-285.92 297.23,-288.38 306.82,-292.88 307.54,-285.92"/>
</g>
<!-- Node3 -->
<g id="node4" class="node">
<title>Node3</title>
<g id="a_node4"><a xlink:href="structccf_1_1UserCOSESign1AuthnIdentity.html" target="_top" xlink:title=" ">
<polygon fill="white" stroke="#666666" points="515,-268 337,-268 337,-249 515,-249 515,-268"/>
<text text-anchor="middle" x="426" y="-256" font-family="Helvetica,sans-Serif" font-size="10.00">ccf::UserCOSESign1AuthnIdentity</text>
</a>
</g>
</g>
<!-- Node1&#45;&gt;Node3 -->
<g id="edge3" class="edge">
<title>Node1&#45;&gt;Node3</title>
<path fill="none" stroke="#63b8ff" d="M307.32,-271.16C317.09,-270.11 327.05,-269.04 336.83,-267.98"/>
<polygon fill="#63b8ff" stroke="#63b8ff" points="306.8,-267.7 297.23,-272.25 307.55,-274.66 306.8,-267.7"/>
</g>
</g>
</svg>
