<?xml version="1.0" encoding="UTF-8" standalone="no"?>
<!DOCTYPE svg PUBLIC "-//W3C//DTD SVG 1.1//EN"
 "http://www.w3.org/Graphics/SVG/1.1/DTD/svg11.dtd">
<!-- Generated by graphviz version 2.43.0 (0)
 -->
<!-- Title: Graphical Class Hierarchy Pages: 1 -->
<svg width="308pt" height="347pt"
 viewBox="0.00 0.00 308.00 347.00" xmlns="http://www.w3.org/2000/svg" xmlns:xlink="http://www.w3.org/1999/xlink">
<g id="graph0" class="graph" transform="scale(1 1) rotate(0) translate(4 343)">
<title>Graphical Class Hierarchy</title>
<!-- Node0 -->
<g id="node1" class="node">
<title>Node0</title>
<g id="a_node1"><a xlink:href="classccf_1_1AuthnPolicy.html" target="_top" xlink:title=" ">
<polygon fill="white" stroke="#666666" points="94,-179 0,-179 0,-160 94,-160 94,-179"/>
<text text-anchor="middle" x="47" y="-167" font-family="Helvetica,sans-Serif" font-size="10.00">ccf::AuthnPolicy</text>
</a>
</g>
</g>
<!-- Node1 -->
<g id="node2" class="node">
<title>Node1</title>
<g id="a_node2"><a xlink:href="classccf_1_1EmptyAuthnPolicy.html" target="_top" xlink:title=" ">
<polygon fill="white" stroke="#666666" points="277.5,-339 152.5,-339 152.5,-320 277.5,-320 277.5,-339"/>
<text text-anchor="middle" x="215" y="-327" font-family="Helvetica,sans-Serif" font-size="10.00">ccf::EmptyAuthnPolicy</text>
</a>
</g>
</g>
<!-- Node0&#45;&gt;Node1 -->
<g id="edge1" class="edge">
<title>Node0&#45;&gt;Node1</title>
<path fill="none" stroke="#63b8ff" d="M53.57,-188.97C63.51,-220.04 87.38,-280.48 130,-311.5 136.63,-316.33 144.29,-319.91 152.23,-322.56"/>
<polygon fill="#63b8ff" stroke="#63b8ff" points="56.89,-187.85 50.63,-179.3 50.19,-189.89 56.89,-187.85"/>
</g>
<!-- Node2 -->
<g id="node3" class="node">
<title>Node2</title>
<g id="a_node3"><a xlink:href="classccf_1_1JwtAuthnPolicy.html" target="_top" xlink:title=" ">
<polygon fill="white" stroke="#666666" points="269.5,-302 160.5,-302 160.5,-283 269.5,-283 269.5,-302"/>
<text text-anchor="middle" x="215" y="-290" font-family="Helvetica,sans-Serif" font-size="10.00">ccf::JwtAuthnPolicy</text>
</a>
</g>
</g>
<!-- Node0&#45;&gt;Node2 -->
<g id="edge2" class="edge">
<title>Node0&#45;&gt;Node2</title>
<path fill="none" stroke="#63b8ff" d="M57.41,-188.05C70.4,-211.72 96.14,-252.14 130,-273.5 139.1,-279.24 149.73,-283.26 160.31,-286.07"/>
<polygon fill="#63b8ff" stroke="#63b8ff" points="60.41,-186.24 52.63,-179.04 54.22,-189.52 60.41,-186.24"/>
</g>
<!-- Node3 -->
<g id="node4" class="node">
<title>Node3</title>
<g id="a_node4"><a xlink:href="classccf_1_1MemberCOSESign1AuthnPolicy.html" target="_top" xlink:title=" ">
<polygon fill="white" stroke="#666666" points="294,-264.5 136,-264.5 136,-234.5 294,-234.5 294,-264.5"/>
<text text-anchor="start" x="144" y="-252.5" font-family="Helvetica,sans-Serif" font-size="10.00">ccf::MemberCOSESign1Authn</text>
<text text-anchor="middle" x="215" y="-241.5" font-family="Helvetica,sans-Serif" font-size="10.00">Policy</text>
</a>
</g>
</g>
<!-- Node0&#45;&gt;Node3 -->
<g id="edge3" class="edge">
<title>Node0&#45;&gt;Node3</title>
<path fill="none" stroke="#63b8ff" d="M67.52,-185.5C83.49,-197.91 107.09,-214.75 130,-225.5 137.14,-228.85 144.84,-231.83 152.59,-234.45"/>
<polygon fill="#63b8ff" stroke="#63b8ff" points="69.5,-182.61 59.49,-179.13 65.15,-188.09 69.5,-182.61"/>
</g>
<!-- Node4 -->
<g id="node5" class="node">
<title>Node4</title>
<g id="a_node5"><a xlink:href="classccf_1_1MemberCertAuthnPolicy.html" target="_top" xlink:title=" ">
<polygon fill="white" stroke="#666666" points="292.5,-216 137.5,-216 137.5,-197 292.5,-197 292.5,-216"/>
<text text-anchor="middle" x="215" y="-204" font-family="Helvetica,sans-Serif" font-size="10.00">ccf::MemberCertAuthnPolicy</text>
</a>
</g>
</g>
<!-- Node0&#45;&gt;Node4 -->
<g id="edge4" class="edge">
<title>Node0&#45;&gt;Node4</title>
<path fill="none" stroke="#63b8ff" d="M98.28,-181.29C108.75,-183.71 119.73,-186.21 130,-188.5 142.52,-191.29 156.11,-194.24 168.63,-196.92"/>
<polygon fill="#63b8ff" stroke="#63b8ff" points="98.96,-177.85 88.43,-179.01 97.38,-184.67 98.96,-177.85"/>
</g>
<!-- Node5 -->
<g id="node6" class="node">
<title>Node5</title>
<g id="a_node6"><a xlink:href="classccf_1_1NodeCertAuthnPolicy.html" target="_top" xlink:title=" ">
<polygon fill="white" stroke="#666666" points="285,-179 145,-179 145,-160 285,-160 285,-179"/>
<text text-anchor="middle" x="215" y="-167" font-family="Helvetica,sans-Serif" font-size="10.00">ccf::NodeCertAuthnPolicy</text>
</a>
</g>
</g>
<!-- Node0&#45;&gt;Node5 -->
<g id="edge5" class="edge">
<title>Node0&#45;&gt;Node5</title>
<path fill="none" stroke="#63b8ff" d="M104.4,-169.5C117.36,-169.5 131.29,-169.5 144.72,-169.5"/>
<polygon fill="#63b8ff" stroke="#63b8ff" points="104.24,-166 94.24,-169.5 104.24,-173 104.24,-166"/>
</g>
<!-- Node6 -->
<g id="node7" class="node">
<title>Node6</title>
<g id="a_node7"><a xlink:href="classccf_1_1UserCOSESign1AuthnPolicy.html" target="_top" xlink:title=" ">
<polygon fill="white" stroke="#666666" points="300,-142 130,-142 130,-123 300,-123 300,-142"/>
<text text-anchor="middle" x="215" y="-130" font-family="Helvetica,sans-Serif" font-size="10.00">ccf::UserCOSESign1AuthnPolicy</text>
</a>
</g>
</g>
<!-- Node0&#45;&gt;Node6 -->
<g id="edge6" class="edge">
<title>Node0&#45;&gt;Node6</title>
<path fill="none" stroke="#63b8ff" d="M100.58,-157.78C123.31,-152.71 149.58,-146.86 171.11,-142.06"/>
<polygon fill="#63b8ff" stroke="#63b8ff" points="99.75,-154.38 90.75,-159.97 101.27,-161.21 99.75,-154.38"/>
</g>
<!-- Node7 -->
<g id="node8" class="node">
<title>Node7</title>
<g id="a_node8"><a xlink:href="classccf_1_1UserCertAuthnPolicy.html" target="_top" xlink:title=" ">
<polygon fill="white" stroke="#666666" points="283.5,-105 146.5,-105 146.5,-86 283.5,-86 283.5,-105"/>
<text text-anchor="middle" x="215" y="-93" font-family="Helvetica,sans-Serif" font-size="10.00">ccf::UserCertAuthnPolicy</text>
</a>
</g>
</g>
<!-- Node0&#45;&gt;Node7 -->
<g id="edge7" class="edge">
<title>Node0&#45;&gt;Node7</title>
<path fill="none" stroke="#63b8ff" d="M67.41,-153.45C83.31,-141.08 106.89,-124.45 130,-114.5 138.93,-110.66 148.73,-107.54 158.4,-105.03"/>
<polygon fill="#63b8ff" stroke="#63b8ff" points="65.06,-150.85 59.42,-159.82 69.42,-156.33 65.06,-150.85"/>
</g>
<!-- Node8 -->
<g id="node9" class="node">
<title>Node8</title>
<g id="a_node9"><a xlink:href="classexternalexecutor_1_1ExecutorAuthPolicy.html" target="_top" xlink:title=" ">
<polygon fill="white" stroke="#666666" points="288.5,-67.5 141.5,-67.5 141.5,-37.5 288.5,-37.5 288.5,-67.5"/>
<text text-anchor="start" x="149.5" y="-55.5" font-family="Helvetica,sans-Serif" font-size="10.00">externalexecutor::Executor</text>
<text text-anchor="middle" x="215" y="-44.5" font-family="Helvetica,sans-Serif" font-size="10.00">AuthPolicy</text>
</a>
</g>
</g>
<!-- Node0&#45;&gt;Node8 -->
<g id="edge8" class="edge">
<title>Node0&#45;&gt;Node8</title>
<path fill="none" stroke="#63b8ff" d="M59.59,-151.28C73.76,-130.47 99.62,-96.8 130,-77.5 136.04,-73.66 142.69,-70.4 149.52,-67.61"/>
<polygon fill="#63b8ff" stroke="#63b8ff" points="56.53,-149.57 53.93,-159.84 62.37,-153.43 56.53,-149.57"/>
</g>
<!-- Node9 -->
<g id="node10" class="node">
<title>Node9</title>
<g id="a_node10"><a xlink:href="classloggingapp_1_1CustomAuthPolicy.html" target="_top" xlink:title=" ">
<polygon fill="white" stroke="#666666" points="298,-19 132,-19 132,0 298,0 298,-19"/>
<text text-anchor="middle" x="215" y="-7" font-family="Helvetica,sans-Serif" font-size="10.00">loggingapp::CustomAuthPolicy</text>
</a>
</g>
</g>
<!-- Node0&#45;&gt;Node9 -->
<g id="edge9" class="edge">
<title>Node0&#45;&gt;Node9</title>
<path fill="none" stroke="#63b8ff" d="M53.65,-150.22C63.71,-119.44 87.73,-59.53 130,-28.5 135.18,-24.7 140.99,-21.63 147.08,-19.17"/>
<polygon fill="#63b8ff" stroke="#63b8ff" points="50.3,-149.2 50.67,-159.79 56.98,-151.29 50.3,-149.2"/>
</g>
</g>
</svg>
