<?xml version="1.0" encoding="UTF-8" standalone="no"?>
<!DOCTYPE svg PUBLIC "-//W3C//DTD SVG 1.1//EN"
 "http://www.w3.org/Graphics/SVG/1.1/DTD/svg11.dtd">
<!-- Generated by graphviz version 2.43.0 (0)
 -->
<!-- Title: src/enclave/interface.h Pages: 1 -->
<svg width="1582pt" height="412pt"
 viewBox="0.00 0.00 1581.63 412.00" xmlns="http://www.w3.org/2000/svg" xmlns:xlink="http://www.w3.org/1999/xlink">
<g id="graph0" class="graph" transform="scale(1 1) rotate(0) translate(4 408)">
<title>src/enclave/interface.h</title>
<!-- Node1 -->
<g id="node1" class="node">
<title>Node1</title>
<g id="a_node1"><a xlink:title=" ">
<polygon fill="#999999" stroke="#666666" points="1369.63,-404 1241.63,-404 1241.63,-385 1369.63,-385 1369.63,-404"/>
<text text-anchor="middle" x="1305.63" y="-392" font-family="Helvetica,sans-Serif" font-size="10.00">src/enclave/interface.h</text>
</a>
</g>
</g>
<!-- Node2 -->
<g id="node2" class="node">
<title>Node2</title>
<g id="a_node2"><a xlink:href="oversized_8h.html" target="_top" xlink:title=" ">
<polygon fill="white" stroke="#666666" points="962.13,-349 875.13,-349 875.13,-330 962.13,-330 962.13,-349"/>
<text text-anchor="middle" x="918.63" y="-337" font-family="Helvetica,sans-Serif" font-size="10.00">ds/oversized.h</text>
</a>
</g>
</g>
<!-- Node1&#45;&gt;Node2 -->
<g id="edge1" class="edge">
<title>Node1&#45;&gt;Node2</title>
<path fill="none" stroke="#63b8ff" d="M1243.45,-384.98C1168.41,-374.71 1043.47,-357.6 972.4,-347.86"/>
<polygon fill="#63b8ff" stroke="#63b8ff" points="972.7,-344.37 962.32,-346.48 971.75,-351.31 972.7,-344.37"/>
</g>
<!-- Node23 -->
<g id="node23" class="node">
<title>Node23</title>
<g id="a_node23"><a xlink:href="ring__buffer__types_8h.html" target="_top" xlink:title=" ">
<polygon fill="white" stroke="#666666" points="1169.63,-184 1059.63,-184 1059.63,-165 1169.63,-165 1169.63,-184"/>
<text text-anchor="middle" x="1114.63" y="-172" font-family="Helvetica,sans-Serif" font-size="10.00">ring_buffer_types.h</text>
</a>
</g>
</g>
<!-- Node1&#45;&gt;Node23 -->
<g id="edge74" class="edge">
<title>Node1&#45;&gt;Node23</title>
<path fill="none" stroke="#63b8ff" d="M1298.14,-384.95C1269.56,-352.33 1167.04,-235.32 1128.98,-191.88"/>
<polygon fill="#63b8ff" stroke="#63b8ff" points="1131.5,-189.44 1122.27,-184.22 1126.23,-194.05 1131.5,-189.44"/>
</g>
<!-- Node28 -->
<g id="node28" class="node">
<title>Node28</title>
<g id="a_node28"><a xlink:title=" ">
<polygon fill="#e0e0e0" stroke="#999999" points="1065.13,-19 1018.13,-19 1018.13,0 1065.13,0 1065.13,-19"/>
<text text-anchor="middle" x="1041.63" y="-7" font-family="Helvetica,sans-Serif" font-size="10.00">vector</text>
</a>
</g>
</g>
<!-- Node1&#45;&gt;Node28 -->
<g id="edge76" class="edge">
<title>Node1&#45;&gt;Node28</title>
<path fill="none" stroke="#63b8ff" d="M1365.49,-384.99C1421.18,-373.3 1495.63,-346.3 1495.63,-285.5 1495.63,-285.5 1495.63,-285.5 1495.63,-118.5 1495.63,-80.58 1472.46,-72.14 1438.63,-55 1368.74,-19.59 1169.77,-32.17 1075.48,-18.7"/>
<polygon fill="#63b8ff" stroke="#63b8ff" points="1075.76,-15.2 1065.33,-17.07 1074.65,-22.11 1075.76,-15.2"/>
</g>
<!-- Node46 -->
<g id="node46" class="node">
<title>Node46</title>
<g id="a_node46"><a xlink:title=" ">
<polygon fill="#e0e0e0" stroke="#999999" points="1573.63,-349 1523.63,-349 1523.63,-330 1573.63,-330 1573.63,-349"/>
<text text-anchor="middle" x="1548.63" y="-337" font-family="Helvetica,sans-Serif" font-size="10.00">chrono</text>
</a>
</g>
</g>
<!-- Node1&#45;&gt;Node46 -->
<g id="edge75" class="edge">
<title>Node1&#45;&gt;Node46</title>
<path fill="none" stroke="#63b8ff" d="M1344.67,-384.98C1391.35,-374.8 1468.76,-357.92 1513.59,-348.14"/>
<polygon fill="#63b8ff" stroke="#63b8ff" points="1514.42,-351.54 1523.44,-345.99 1512.93,-344.71 1514.42,-351.54"/>
</g>
<!-- Node3 -->
<g id="node3" class="node">
<title>Node3</title>
<g id="a_node3"><a xlink:href="messaging_8h.html" target="_top" xlink:title=" ">
<polygon fill="white" stroke="#666666" points="691.13,-294 612.13,-294 612.13,-275 691.13,-275 691.13,-294"/>
<text text-anchor="middle" x="651.63" y="-282" font-family="Helvetica,sans-Serif" font-size="10.00">messaging.h</text>
</a>
</g>
</g>
<!-- Node2&#45;&gt;Node3 -->
<g id="edge2" class="edge">
<title>Node2&#45;&gt;Node3</title>
<path fill="none" stroke="#63b8ff" d="M875.73,-329.98C828.15,-320.54 751.5,-305.32 701.34,-295.37"/>
<polygon fill="#63b8ff" stroke="#63b8ff" points="701.86,-291.9 691.37,-293.39 700.5,-298.77 701.86,-291.9"/>
</g>
<!-- Node6 -->
<g id="node6" class="node">
<title>Node6</title>
<g id="a_node6"><a xlink:title=" ">
<polygon fill="#e0e0e0" stroke="#999999" points="588.13,-129 509.13,-129 509.13,-110 588.13,-110 588.13,-129"/>
<text text-anchor="middle" x="548.63" y="-117" font-family="Helvetica,sans-Serif" font-size="10.00">fmt/format.h</text>
</a>
</g>
</g>
<!-- Node2&#45;&gt;Node6 -->
<g id="edge72" class="edge">
<title>Node2&#45;&gt;Node6</title>
<path fill="none" stroke="#63b8ff" d="M923.42,-329.91C938.27,-302.05 979.98,-213.18 936.63,-165 887.75,-110.67 687.92,-137.39 598.26,-128.9"/>
<polygon fill="#63b8ff" stroke="#63b8ff" points="598.49,-125.41 588.15,-127.72 597.67,-132.36 598.49,-125.41"/>
</g>
<!-- Node19 -->
<g id="node19" class="node">
<title>Node19</title>
<g id="a_node19"><a xlink:href="ring__buffer_8h.html" target="_top" xlink:title=" ">
<polygon fill="white" stroke="#666666" points="197.13,-239 120.13,-239 120.13,-220 197.13,-220 197.13,-239"/>
<text text-anchor="middle" x="158.63" y="-227" font-family="Helvetica,sans-Serif" font-size="10.00">ring_buffer.h</text>
</a>
</g>
</g>
<!-- Node2&#45;&gt;Node19 -->
<g id="edge70" class="edge">
<title>Node2&#45;&gt;Node19</title>
<path fill="none" stroke="#63b8ff" d="M874.74,-332.62C763.64,-317.68 462.29,-276.73 211.63,-239 210.33,-238.8 209.02,-238.61 207.7,-238.4"/>
<polygon fill="#63b8ff" stroke="#63b8ff" points="207.82,-234.88 197.4,-236.81 206.75,-241.8 207.82,-234.88"/>
</g>
<!-- Node37 -->
<g id="node37" class="node">
<title>Node37</title>
<g id="a_node37"><a xlink:href="serialized_8h.html" target="_top" xlink:title=" ">
<polygon fill="white" stroke="#666666" points="581.13,-74 508.13,-74 508.13,-55 581.13,-55 581.13,-74"/>
<text text-anchor="middle" x="544.63" y="-62" font-family="Helvetica,sans-Serif" font-size="10.00">serialized.h</text>
</a>
</g>
</g>
<!-- Node2&#45;&gt;Node37 -->
<g id="edge71" class="edge">
<title>Node2&#45;&gt;Node37</title>
<path fill="none" stroke="#63b8ff" d="M928.27,-329.93C937.01,-321.61 949.58,-308.2 956.63,-294 982.12,-242.65 996.06,-205.65 955.63,-165 929.76,-138.99 693.72,-92.94 591.49,-74"/>
<polygon fill="#63b8ff" stroke="#63b8ff" points="591.91,-70.52 581.44,-72.14 590.64,-77.4 591.91,-70.52"/>
</g>
<!-- Node45 -->
<g id="node45" class="node">
<title>Node45</title>
<g id="a_node45"><a xlink:title=" ">
<polygon fill="#e0e0e0" stroke="#999999" points="927.13,-294 834.13,-294 834.13,-275 927.13,-275 927.13,-294"/>
<text text-anchor="middle" x="880.63" y="-282" font-family="Helvetica,sans-Serif" font-size="10.00">unordered_map</text>
</a>
</g>
</g>
<!-- Node2&#45;&gt;Node45 -->
<g id="edge73" class="edge">
<title>Node2&#45;&gt;Node45</title>
<path fill="none" stroke="#63b8ff" d="M912.36,-329.75C907.04,-322.34 899.27,-311.5 892.75,-302.41"/>
<polygon fill="#63b8ff" stroke="#63b8ff" points="895.46,-300.18 886.79,-294.09 889.77,-304.26 895.46,-300.18"/>
</g>
<!-- Node4 -->
<g id="node4" class="node">
<title>Node4</title>
<g id="a_node4"><a xlink:href="logger_8h.html" target="_top" xlink:title=" ">
<polygon fill="white" stroke="#666666" points="695.13,-239 608.13,-239 608.13,-220 695.13,-220 695.13,-239"/>
<text text-anchor="middle" x="651.63" y="-227" font-family="Helvetica,sans-Serif" font-size="10.00">ccf/ds/logger.h</text>
</a>
</g>
</g>
<!-- Node3&#45;&gt;Node4 -->
<g id="edge3" class="edge">
<title>Node3&#45;&gt;Node4</title>
<path fill="none" stroke="#63b8ff" d="M651.63,-274.75C651.63,-267.8 651.63,-257.85 651.63,-249.13"/>
<polygon fill="#63b8ff" stroke="#63b8ff" points="655.13,-249.09 651.63,-239.09 648.13,-249.09 655.13,-249.09"/>
</g>
<!-- Node11 -->
<g id="node11" class="node">
<title>Node11</title>
<g id="a_node11"><a xlink:title=" ">
<polygon fill="#e0e0e0" stroke="#999999" points="241.63,-129 203.63,-129 203.63,-110 241.63,-110 241.63,-129"/>
<text text-anchor="middle" x="222.63" y="-117" font-family="Helvetica,sans-Serif" font-size="10.00">map</text>
</a>
</g>
</g>
<!-- Node3&#45;&gt;Node11 -->
<g id="edge68" class="edge">
<title>Node3&#45;&gt;Node11</title>
<path fill="none" stroke="#63b8ff" d="M612.1,-278.92C520.1,-267.51 295.37,-234.98 241.63,-184 229.51,-172.5 225.03,-153.62 223.42,-139.43"/>
<polygon fill="#63b8ff" stroke="#63b8ff" points="226.89,-138.99 222.65,-129.29 219.91,-139.52 226.89,-138.99"/>
</g>
<!-- Node3&#45;&gt;Node19 -->
<g id="edge20" class="edge">
<title>Node3&#45;&gt;Node19</title>
<path fill="none" stroke="#63b8ff" d="M612.1,-280.28C534.94,-273.82 358.94,-258.25 211.63,-239 210.33,-238.83 209.01,-238.65 207.69,-238.47"/>
<polygon fill="#63b8ff" stroke="#63b8ff" points="207.78,-234.95 197.38,-236.98 206.78,-241.88 207.78,-234.95"/>
</g>
<!-- Node38 -->
<g id="node38" class="node">
<title>Node38</title>
<g id="a_node38"><a xlink:title=" ">
<polygon fill="#e0e0e0" stroke="#999999" points="327.13,-19 262.13,-19 262.13,0 327.13,0 327.13,-19"/>
<text text-anchor="middle" x="294.63" y="-7" font-family="Helvetica,sans-Serif" font-size="10.00">stdexcept</text>
</a>
</g>
</g>
<!-- Node3&#45;&gt;Node38 -->
<g id="edge69" class="edge">
<title>Node3&#45;&gt;Node38</title>
<path fill="none" stroke="#63b8ff" d="M611.96,-282.49C503.57,-279.39 204.28,-268.32 110.63,-239 64.07,-224.42 40,-226.27 15.63,-184 -41.29,-85.27 160.58,-34.97 251.97,-17.64"/>
<polygon fill="#63b8ff" stroke="#63b8ff" points="252.82,-21.04 262.02,-15.78 251.55,-14.16 252.82,-21.04"/>
</g>
<!-- Node42 -->
<g id="node42" class="node">
<title>Node42</title>
<g id="a_node42"><a xlink:title=" ">
<polygon fill="#e0e0e0" stroke="#999999" points="1328.63,-129 1278.63,-129 1278.63,-110 1328.63,-110 1328.63,-129"/>
<text text-anchor="middle" x="1303.63" y="-117" font-family="Helvetica,sans-Serif" font-size="10.00">atomic</text>
</a>
</g>
</g>
<!-- Node3&#45;&gt;Node42 -->
<g id="edge66" class="edge">
<title>Node3&#45;&gt;Node42</title>
<path fill="none" stroke="#63b8ff" d="M691.28,-282.54C785.82,-278.98 1030.4,-262.28 1215.63,-184 1243.12,-172.38 1270.28,-150.83 1286.99,-136.09"/>
<polygon fill="#63b8ff" stroke="#63b8ff" points="1289.66,-138.39 1294.73,-129.09 1284.97,-133.2 1289.66,-138.39"/>
</g>
<!-- Node44 -->
<g id="node44" class="node">
<title>Node44</title>
<g id="a_node44"><a xlink:title=" ">
<polygon fill="#e0e0e0" stroke="#999999" points="820.13,-239 713.13,-239 713.13,-220 820.13,-220 820.13,-239"/>
<text text-anchor="middle" x="766.63" y="-227" font-family="Helvetica,sans-Serif" font-size="10.00">condition_variable</text>
</a>
</g>
</g>
<!-- Node3&#45;&gt;Node44 -->
<g id="edge67" class="edge">
<title>Node3&#45;&gt;Node44</title>
<path fill="none" stroke="#63b8ff" d="M670.11,-274.98C688.61,-266.46 717.31,-253.23 738.61,-243.41"/>
<polygon fill="#63b8ff" stroke="#63b8ff" points="740.2,-246.53 747.82,-239.17 737.27,-240.18 740.2,-246.53"/>
</g>
<!-- Node5 -->
<g id="node5" class="node">
<title>Node5</title>
<g id="a_node5"><a xlink:href="enum__formatter_8h.html" target="_top" xlink:title=" ">
<polygon fill="white" stroke="#666666" points="550.63,-184 414.63,-184 414.63,-165 550.63,-165 550.63,-184"/>
<text text-anchor="middle" x="482.63" y="-172" font-family="Helvetica,sans-Serif" font-size="10.00">ccf/ds/enum_formatter.h</text>
</a>
</g>
</g>
<!-- Node4&#45;&gt;Node5 -->
<g id="edge4" class="edge">
<title>Node4&#45;&gt;Node5</title>
<path fill="none" stroke="#63b8ff" d="M624.48,-219.98C596.1,-211.09 551.4,-197.07 519.77,-187.15"/>
<polygon fill="#63b8ff" stroke="#63b8ff" points="520.58,-183.73 510,-184.08 518.49,-190.41 520.58,-183.73"/>
</g>
<!-- Node4&#45;&gt;Node6 -->
<g id="edge14" class="edge">
<title>Node4&#45;&gt;Node6</title>
<path fill="none" stroke="#63b8ff" d="M607.93,-227.08C544.29,-223.99 430.92,-214.27 405.63,-184 400.22,-177.52 400.62,-171.8 405.63,-165 416.94,-149.64 462.25,-137.27 498.88,-129.51"/>
<polygon fill="#63b8ff" stroke="#63b8ff" points="499.85,-132.88 508.94,-127.44 498.44,-126.02 499.85,-132.88"/>
</g>
<!-- Node7 -->
<g id="node7" class="node">
<title>Node7</title>
<g id="a_node7"><a xlink:href="thread__ids_8h.html" target="_top" xlink:title=" ">
<polygon fill="white" stroke="#666666" points="358.63,-184 250.63,-184 250.63,-165 358.63,-165 358.63,-184"/>
<text text-anchor="middle" x="304.63" y="-172" font-family="Helvetica,sans-Serif" font-size="10.00">ccf/ds/thread_ids.h</text>
</a>
</g>
</g>
<!-- Node4&#45;&gt;Node7 -->
<g id="edge6" class="edge">
<title>Node4&#45;&gt;Node7</title>
<path fill="none" stroke="#63b8ff" d="M608.03,-221.84C547.74,-212.63 438.49,-195.95 368.85,-185.31"/>
<polygon fill="#63b8ff" stroke="#63b8ff" points="369.29,-181.84 358.87,-183.79 368.23,-188.76 369.29,-181.84"/>
</g>
<!-- Node13 -->
<g id="node13" class="node">
<title>Node13</title>
<g id="a_node13"><a xlink:title=" ">
<polygon fill="#e0e0e0" stroke="#999999" points="648.13,-184 569.13,-184 569.13,-165 648.13,-165 648.13,-184"/>
<text text-anchor="middle" x="608.63" y="-172" font-family="Helvetica,sans-Serif" font-size="10.00">fmt/chrono.h</text>
</a>
</g>
</g>
<!-- Node4&#45;&gt;Node13 -->
<g id="edge13" class="edge">
<title>Node4&#45;&gt;Node13</title>
<path fill="none" stroke="#63b8ff" d="M644.53,-219.75C638.46,-212.26 629.54,-201.28 622.12,-192.13"/>
<polygon fill="#63b8ff" stroke="#63b8ff" points="624.62,-189.65 615.6,-184.09 619.18,-194.06 624.62,-189.65"/>
</g>
<!-- Node14 -->
<g id="node14" class="node">
<title>Node14</title>
<g id="a_node14"><a xlink:title=" ">
<polygon fill="#e0e0e0" stroke="#999999" points="725.63,-184 665.63,-184 665.63,-165 725.63,-165 725.63,-184"/>
<text text-anchor="middle" x="695.63" y="-172" font-family="Helvetica,sans-Serif" font-size="10.00">iostream</text>
</a>
</g>
</g>
<!-- Node4&#45;&gt;Node14 -->
<g id="edge15" class="edge">
<title>Node4&#45;&gt;Node14</title>
<path fill="none" stroke="#63b8ff" d="M658.9,-219.75C665.18,-212.18 674.42,-201.05 682.06,-191.84"/>
<polygon fill="#63b8ff" stroke="#63b8ff" points="684.81,-194.02 688.5,-184.09 679.42,-189.55 684.81,-194.02"/>
</g>
<!-- Node15 -->
<g id="node15" class="node">
<title>Node15</title>
<g id="a_node15"><a xlink:title=" ">
<polygon fill="#e0e0e0" stroke="#999999" points="853.63,-184 743.63,-184 743.63,-165 853.63,-165 853.63,-184"/>
<text text-anchor="middle" x="798.63" y="-172" font-family="Helvetica,sans-Serif" font-size="10.00">nlohmann/json.hpp</text>
</a>
</g>
</g>
<!-- Node4&#45;&gt;Node15 -->
<g id="edge16" class="edge">
<title>Node4&#45;&gt;Node15</title>
<path fill="none" stroke="#63b8ff" d="M675.25,-219.98C699.54,-211.23 737.58,-197.51 765,-187.62"/>
<polygon fill="#63b8ff" stroke="#63b8ff" points="766.36,-190.85 774.58,-184.17 763.99,-184.27 766.36,-190.85"/>
</g>
<!-- Node16 -->
<g id="node16" class="node">
<title>Node16</title>
<g id="a_node16"><a xlink:title=" ">
<polygon fill="#e0e0e0" stroke="#999999" points="661.63,-129 605.63,-129 605.63,-110 661.63,-110 661.63,-129"/>
<text text-anchor="middle" x="633.63" y="-117" font-family="Helvetica,sans-Serif" font-size="10.00">optional</text>
</a>
</g>
</g>
<!-- Node4&#45;&gt;Node16 -->
<g id="edge17" class="edge">
<title>Node4&#45;&gt;Node16</title>
<path fill="none" stroke="#63b8ff" d="M695.3,-221.48C698.46,-220.98 701.59,-220.48 704.63,-220 809.3,-203.49 1006.25,-244.89 936.63,-165 898.16,-120.86 733.35,-138.81 675.63,-129 674.53,-128.81 673.41,-128.62 672.29,-128.42"/>
<polygon fill="#63b8ff" stroke="#63b8ff" points="672.52,-124.9 662.05,-126.5 671.24,-131.78 672.52,-124.9"/>
</g>
<!-- Node17 -->
<g id="node17" class="node">
<title>Node17</title>
<g id="a_node17"><a xlink:title=" ">
<polygon fill="#e0e0e0" stroke="#999999" points="927.63,-184 871.63,-184 871.63,-165 927.63,-165 927.63,-184"/>
<text text-anchor="middle" x="899.63" y="-172" font-family="Helvetica,sans-Serif" font-size="10.00">sstream</text>
</a>
</g>
</g>
<!-- Node4&#45;&gt;Node17 -->
<g id="edge18" class="edge">
<title>Node4&#45;&gt;Node17</title>
<path fill="none" stroke="#63b8ff" d="M693.31,-219.94C733.83,-211.57 797.37,-198.3 861.48,-184.22"/>
<polygon fill="#63b8ff" stroke="#63b8ff" points="862.35,-187.62 871.36,-182.05 860.84,-180.78 862.35,-187.62"/>
</g>
<!-- Node18 -->
<g id="node18" class="node">
<title>Node18</title>
<g id="a_node18"><a xlink:title=" ">
<polygon fill="#e0e0e0" stroke="#999999" points="1396.13,-19 1327.13,-19 1327.13,0 1396.13,0 1396.13,-19"/>
<text text-anchor="middle" x="1361.63" y="-7" font-family="Helvetica,sans-Serif" font-size="10.00">type_traits</text>
</a>
</g>
</g>
<!-- Node4&#45;&gt;Node18 -->
<g id="edge19" class="edge">
<title>Node4&#45;&gt;Node18</title>
<path fill="none" stroke="#63b8ff" d="M695.26,-221.19C698.43,-220.75 701.58,-220.35 704.63,-220 930.81,-193.95 994.86,-239.65 1215.63,-184 1322.79,-156.99 1382.18,-169.01 1438.63,-74 1451.79,-51.84 1423.67,-34 1397.79,-22.93"/>
<polygon fill="#63b8ff" stroke="#63b8ff" points="1399.02,-19.66 1388.44,-19.17 1396.41,-26.15 1399.02,-19.66"/>
</g>
<!-- Node5&#45;&gt;Node6 -->
<g id="edge5" class="edge">
<title>Node5&#45;&gt;Node6</title>
<path fill="none" stroke="#63b8ff" d="M493.23,-164.98C503.09,-157.07 517.98,-145.11 529.85,-135.58"/>
<polygon fill="#63b8ff" stroke="#63b8ff" points="532.23,-138.16 537.83,-129.17 527.84,-132.7 532.23,-138.16"/>
</g>
<!-- Node7&#45;&gt;Node6 -->
<g id="edge7" class="edge">
<title>Node7&#45;&gt;Node6</title>
<path fill="none" stroke="#63b8ff" d="M343.83,-164.98C386.04,-155.82 453.28,-141.21 499.11,-131.26"/>
<polygon fill="#63b8ff" stroke="#63b8ff" points="500.09,-134.63 509.12,-129.08 498.61,-127.78 500.09,-134.63"/>
</g>
<!-- Node8 -->
<g id="node8" class="node">
<title>Node8</title>
<g id="a_node8"><a xlink:title=" ">
<polygon fill="#e0e0e0" stroke="#999999" points="411.63,-129 325.63,-129 325.63,-110 411.63,-110 411.63,-129"/>
<text text-anchor="middle" x="368.63" y="-117" font-family="Helvetica,sans-Serif" font-size="10.00">fmt/ostream.h</text>
</a>
</g>
</g>
<!-- Node7&#45;&gt;Node8 -->
<g id="edge8" class="edge">
<title>Node7&#45;&gt;Node8</title>
<path fill="none" stroke="#63b8ff" d="M314.91,-164.98C324.47,-157.07 338.91,-145.11 350.41,-135.58"/>
<polygon fill="#63b8ff" stroke="#63b8ff" points="352.69,-138.24 358.16,-129.17 348.23,-132.85 352.69,-138.24"/>
</g>
<!-- Node9 -->
<g id="node9" class="node">
<title>Node9</title>
<g id="a_node9"><a xlink:title=" ">
<polygon fill="#e0e0e0" stroke="#999999" points="491.13,-129 430.13,-129 430.13,-110 491.13,-110 491.13,-129"/>
<text text-anchor="middle" x="460.63" y="-117" font-family="Helvetica,sans-Serif" font-size="10.00">fmt/std.h</text>
</a>
</g>
</g>
<!-- Node7&#45;&gt;Node9 -->
<g id="edge9" class="edge">
<title>Node7&#45;&gt;Node9</title>
<path fill="none" stroke="#63b8ff" d="M329.69,-164.98C355.66,-156.16 396.44,-142.31 425.59,-132.41"/>
<polygon fill="#63b8ff" stroke="#63b8ff" points="427.03,-135.61 435.37,-129.08 424.78,-128.99 427.03,-135.61"/>
</g>
<!-- Node10 -->
<g id="node10" class="node">
<title>Node10</title>
<g id="a_node10"><a xlink:title=" ">
<polygon fill="#e0e0e0" stroke="#999999" points="185.63,-129 141.63,-129 141.63,-110 185.63,-110 185.63,-129"/>
<text text-anchor="middle" x="163.63" y="-117" font-family="Helvetica,sans-Serif" font-size="10.00">limits</text>
</a>
</g>
</g>
<!-- Node7&#45;&gt;Node10 -->
<g id="edge10" class="edge">
<title>Node7&#45;&gt;Node10</title>
<path fill="none" stroke="#63b8ff" d="M281.98,-164.98C258.51,-156.16 221.64,-142.31 195.3,-132.4"/>
<polygon fill="#63b8ff" stroke="#63b8ff" points="196.36,-129.06 185.76,-128.82 193.89,-135.61 196.36,-129.06"/>
</g>
<!-- Node7&#45;&gt;Node11 -->
<g id="edge11" class="edge">
<title>Node7&#45;&gt;Node11</title>
<path fill="none" stroke="#63b8ff" d="M291.46,-164.98C278.86,-156.84 259.63,-144.41 244.69,-134.76"/>
<polygon fill="#63b8ff" stroke="#63b8ff" points="246.34,-131.66 236.04,-129.17 242.54,-137.54 246.34,-131.66"/>
</g>
<!-- Node12 -->
<g id="node12" class="node">
<title>Node12</title>
<g id="a_node12"><a xlink:title=" ">
<polygon fill="#e0e0e0" stroke="#999999" points="307.63,-129 259.63,-129 259.63,-110 307.63,-110 307.63,-129"/>
<text text-anchor="middle" x="283.63" y="-117" font-family="Helvetica,sans-Serif" font-size="10.00">thread</text>
</a>
</g>
</g>
<!-- Node7&#45;&gt;Node12 -->
<g id="edge12" class="edge">
<title>Node7&#45;&gt;Node12</title>
<path fill="none" stroke="#63b8ff" d="M301.16,-164.75C298.35,-157.65 294.29,-147.4 290.78,-138.56"/>
<polygon fill="#63b8ff" stroke="#63b8ff" points="293.97,-137.1 287.03,-129.09 287.46,-139.68 293.97,-137.1"/>
</g>
<!-- Node20 -->
<g id="node20" class="node">
<title>Node20</title>
<g id="a_node20"><a xlink:href="mem_8h.html" target="_top" xlink:title=" ">
<polygon fill="white" stroke="#666666" points="110.63,-184 24.63,-184 24.63,-165 110.63,-165 110.63,-184"/>
<text text-anchor="middle" x="67.63" y="-172" font-family="Helvetica,sans-Serif" font-size="10.00">ccf/pal/mem.h</text>
</a>
</g>
</g>
<!-- Node19&#45;&gt;Node20 -->
<g id="edge21" class="edge">
<title>Node19&#45;&gt;Node20</title>
<path fill="none" stroke="#63b8ff" d="M144.01,-219.98C129.77,-211.69 107.88,-198.94 91.18,-189.22"/>
<polygon fill="#63b8ff" stroke="#63b8ff" points="92.92,-186.18 82.52,-184.17 89.4,-192.23 92.92,-186.18"/>
</g>
<!-- Node22 -->
<g id="node22" class="node">
<title>Node22</title>
<g id="a_node22"><a xlink:title=" ">
<polygon fill="#e0e0e0" stroke="#999999" points="66.63,-19 16.63,-19 16.63,0 66.63,0 66.63,-19"/>
<text text-anchor="middle" x="41.63" y="-7" font-family="Helvetica,sans-Serif" font-size="10.00">cstring</text>
</a>
</g>
</g>
<!-- Node19&#45;&gt;Node22 -->
<g id="edge64" class="edge">
<title>Node19&#45;&gt;Node22</title>
<path fill="none" stroke="#63b8ff" d="M119.92,-228.29C86.29,-225.8 39.37,-216.25 15.63,-184 -19.22,-136.65 13.27,-62.06 31.36,-28.23"/>
<polygon fill="#63b8ff" stroke="#63b8ff" points="34.63,-29.56 36.42,-19.12 28.51,-26.16 34.63,-29.56"/>
</g>
<!-- Node19&#45;&gt;Node23 -->
<g id="edge25" class="edge">
<title>Node19&#45;&gt;Node23</title>
<path fill="none" stroke="#63b8ff" d="M197.29,-226.36C343.68,-218.24 865.01,-189.34 1049.42,-179.12"/>
<polygon fill="#63b8ff" stroke="#63b8ff" points="1049.72,-182.6 1059.51,-178.56 1049.33,-175.61 1049.72,-182.6"/>
</g>
<!-- Node19&#45;&gt;Node42 -->
<g id="edge63" class="edge">
<title>Node19&#45;&gt;Node42</title>
<path fill="none" stroke="#63b8ff" d="M197.37,-227.78C372.11,-224.41 1082.52,-209.24 1178.63,-184 1217.7,-173.74 1258.65,-150.09 1282.62,-134.73"/>
<polygon fill="#63b8ff" stroke="#63b8ff" points="1284.77,-137.5 1291.23,-129.1 1280.94,-131.65 1284.77,-137.5"/>
</g>
<!-- Node43 -->
<g id="node43" class="node">
<title>Node43</title>
<g id="a_node43"><a xlink:title=" ">
<polygon fill="#e0e0e0" stroke="#999999" points="194.13,-184 129.13,-184 129.13,-165 194.13,-165 194.13,-184"/>
<text text-anchor="middle" x="161.63" y="-172" font-family="Helvetica,sans-Serif" font-size="10.00">functional</text>
</a>
</g>
</g>
<!-- Node19&#45;&gt;Node43 -->
<g id="edge65" class="edge">
<title>Node19&#45;&gt;Node43</title>
<path fill="none" stroke="#63b8ff" d="M159.13,-219.75C159.52,-212.8 160.08,-202.85 160.58,-194.13"/>
<polygon fill="#63b8ff" stroke="#63b8ff" points="164.07,-194.27 161.14,-184.09 157.08,-193.88 164.07,-194.27"/>
</g>
<!-- Node20&#45;&gt;Node10 -->
<g id="edge24" class="edge">
<title>Node20&#45;&gt;Node10</title>
<path fill="none" stroke="#63b8ff" d="M83.05,-164.98C98.08,-156.69 121.17,-143.94 138.79,-134.22"/>
<polygon fill="#63b8ff" stroke="#63b8ff" points="140.86,-137.07 147.93,-129.17 137.48,-130.94 140.86,-137.07"/>
</g>
<!-- Node21 -->
<g id="node21" class="node">
<title>Node21</title>
<g id="a_node21"><a xlink:title=" ">
<polygon fill="#e0e0e0" stroke="#999999" points="123.13,-129 70.13,-129 70.13,-110 123.13,-110 123.13,-129"/>
<text text-anchor="middle" x="96.63" y="-117" font-family="Helvetica,sans-Serif" font-size="10.00">stdlib.h</text>
</a>
</g>
</g>
<!-- Node20&#45;&gt;Node21 -->
<g id="edge22" class="edge">
<title>Node20&#45;&gt;Node21</title>
<path fill="none" stroke="#63b8ff" d="M72.42,-164.75C76.39,-157.49 82.16,-146.95 87.06,-137.98"/>
<polygon fill="#63b8ff" stroke="#63b8ff" points="90.2,-139.54 91.93,-129.09 84.06,-136.18 90.2,-139.54"/>
</g>
<!-- Node20&#45;&gt;Node22 -->
<g id="edge23" class="edge">
<title>Node20&#45;&gt;Node22</title>
<path fill="none" stroke="#63b8ff" d="M66.23,-164.74C62.16,-139.2 50.23,-64.43 44.62,-29.23"/>
<polygon fill="#63b8ff" stroke="#63b8ff" points="48.07,-28.63 43.03,-19.31 41.15,-29.73 48.07,-28.63"/>
</g>
<!-- Node23&#45;&gt;Node6 -->
<g id="edge58" class="edge">
<title>Node23&#45;&gt;Node6</title>
<path fill="none" stroke="#63b8ff" d="M1059.26,-170.38C966.12,-164.76 772.01,-151.54 598.24,-129.1"/>
<polygon fill="#63b8ff" stroke="#63b8ff" points="598.51,-125.61 588.14,-127.79 597.6,-132.55 598.51,-125.61"/>
</g>
<!-- Node23&#45;&gt;Node16 -->
<g id="edge59" class="edge">
<title>Node23&#45;&gt;Node16</title>
<path fill="none" stroke="#63b8ff" d="M1059.28,-168.58C958.38,-159.49 748.25,-140 675.63,-129 674.53,-128.83 673.41,-128.66 672.28,-128.47"/>
<polygon fill="#63b8ff" stroke="#63b8ff" points="672.49,-124.95 662.03,-126.64 671.26,-131.84 672.49,-124.95"/>
</g>
<!-- Node24 -->
<g id="node24" class="node">
<title>Node24</title>
<g id="a_node24"><a xlink:href="include_2ccf_2ds_2hash_8h.html" target="_top" xlink:title=" ">
<polygon fill="white" stroke="#666666" points="1009.63,-129 929.63,-129 929.63,-110 1009.63,-110 1009.63,-129"/>
<text text-anchor="middle" x="969.63" y="-117" font-family="Helvetica,sans-Serif" font-size="10.00">ccf/ds/hash.h</text>
</a>
</g>
</g>
<!-- Node23&#45;&gt;Node24 -->
<g id="edge26" class="edge">
<title>Node23&#45;&gt;Node24</title>
<path fill="none" stroke="#63b8ff" d="M1091.33,-164.98C1067.38,-156.23 1029.85,-142.51 1002.8,-132.62"/>
<polygon fill="#63b8ff" stroke="#63b8ff" points="1003.94,-129.32 993.35,-129.17 1001.54,-135.89 1003.94,-129.32"/>
</g>
<!-- Node23&#45;&gt;Node28 -->
<g id="edge62" class="edge">
<title>Node23&#45;&gt;Node28</title>
<path fill="none" stroke="#63b8ff" d="M1109.07,-164.75C1098.49,-147.79 1075.19,-109.03 1060.63,-74 1054.55,-59.37 1049.51,-42.11 1046.16,-29.28"/>
<polygon fill="#63b8ff" stroke="#63b8ff" points="1049.49,-28.17 1043.66,-19.33 1042.7,-29.88 1049.49,-28.17"/>
</g>
<!-- Node32 -->
<g id="node32" class="node">
<title>Node32</title>
<g id="a_node32"><a xlink:href="nonstd_8h.html" target="_top" xlink:title=" ">
<polygon fill="white" stroke="#666666" points="1159.63,-74 1069.63,-74 1069.63,-55 1159.63,-55 1159.63,-74"/>
<text text-anchor="middle" x="1114.63" y="-62" font-family="Helvetica,sans-Serif" font-size="10.00">ccf/ds/nonstd.h</text>
</a>
</g>
</g>
<!-- Node23&#45;&gt;Node32 -->
<g id="edge36" class="edge">
<title>Node23&#45;&gt;Node32</title>
<path fill="none" stroke="#63b8ff" d="M1114.63,-164.66C1114.63,-147.17 1114.63,-107.8 1114.63,-84.27"/>
<polygon fill="#63b8ff" stroke="#63b8ff" points="1118.13,-84.16 1114.63,-74.16 1111.13,-84.16 1118.13,-84.16"/>
</g>
<!-- Node35 -->
<g id="node35" class="node">
<title>Node35</title>
<g id="a_node35"><a xlink:title=" ">
<polygon fill="#e0e0e0" stroke="#999999" points="566.63,-19 522.63,-19 522.63,0 566.63,0 566.63,-19"/>
<text text-anchor="middle" x="544.63" y="-7" font-family="Helvetica,sans-Serif" font-size="10.00">string</text>
</a>
</g>
</g>
<!-- Node23&#45;&gt;Node35 -->
<g id="edge61" class="edge">
<title>Node23&#45;&gt;Node35</title>
<path fill="none" stroke="#63b8ff" d="M1059.38,-165.53C910.01,-143.84 508.76,-84.72 499.63,-74 486.08,-58.08 505.34,-38.22 522.7,-24.99"/>
<polygon fill="#63b8ff" stroke="#63b8ff" points="524.85,-27.75 530.92,-19.07 520.76,-22.07 524.85,-27.75"/>
</g>
<!-- Node36 -->
<g id="node36" class="node">
<title>Node36</title>
<g id="a_node36"><a xlink:href="serializer_8h.html" target="_top" xlink:title=" ">
<polygon fill="white" stroke="#666666" points="1222.63,-129 1152.63,-129 1152.63,-110 1222.63,-110 1222.63,-129"/>
<text text-anchor="middle" x="1187.63" y="-117" font-family="Helvetica,sans-Serif" font-size="10.00">serializer.h</text>
</a>
</g>
</g>
<!-- Node23&#45;&gt;Node36 -->
<g id="edge44" class="edge">
<title>Node23&#45;&gt;Node36</title>
<path fill="none" stroke="#63b8ff" d="M1126.36,-164.98C1137.36,-157 1154.05,-144.88 1167.23,-135.31"/>
<polygon fill="#63b8ff" stroke="#63b8ff" points="1169.65,-137.88 1175.69,-129.17 1165.54,-132.21 1169.65,-137.88"/>
</g>
<!-- Node40 -->
<g id="node40" class="node">
<title>Node40</title>
<g id="a_node40"><a xlink:title=" ">
<polygon fill="#e0e0e0" stroke="#999999" points="1429.63,-74 1389.63,-74 1389.63,-55 1429.63,-55 1429.63,-74"/>
<text text-anchor="middle" x="1409.63" y="-62" font-family="Helvetica,sans-Serif" font-size="10.00">span</text>
</a>
</g>
</g>
<!-- Node23&#45;&gt;Node40 -->
<g id="edge60" class="edge">
<title>Node23&#45;&gt;Node40</title>
<path fill="none" stroke="#63b8ff" d="M1139.12,-165C1162.99,-156.52 1200.19,-142.8 1231.63,-129 1248.92,-121.41 1252.14,-117.1 1269.63,-110 1306.67,-94.96 1350.84,-81.65 1379.52,-73.6"/>
<polygon fill="#63b8ff" stroke="#63b8ff" points="1380.64,-76.92 1389.34,-70.87 1378.77,-70.17 1380.64,-76.92"/>
</g>
<!-- Node23&#45;&gt;Node42 -->
<g id="edge57" class="edge">
<title>Node23&#45;&gt;Node42</title>
<path fill="none" stroke="#63b8ff" d="M1145,-164.98C1178.71,-155.53 1233.05,-140.29 1268.55,-130.34"/>
<polygon fill="#63b8ff" stroke="#63b8ff" points="1269.8,-133.62 1278.48,-127.55 1267.91,-126.88 1269.8,-133.62"/>
</g>
<!-- Node25 -->
<g id="node25" class="node">
<title>Node25</title>
<g id="a_node25"><a xlink:href="siphash_8h.html" target="_top" xlink:title=" ">
<polygon fill="white" stroke="#666666" points="733.13,-74 638.13,-74 638.13,-55 733.13,-55 733.13,-74"/>
<text text-anchor="middle" x="685.63" y="-62" font-family="Helvetica,sans-Serif" font-size="10.00">ccf/ds/siphash.h</text>
</a>
</g>
</g>
<!-- Node24&#45;&gt;Node25 -->
<g id="edge27" class="edge">
<title>Node24&#45;&gt;Node25</title>
<path fill="none" stroke="#63b8ff" d="M929.54,-111.02C880.46,-101.86 797.04,-86.29 741.64,-75.95"/>
<polygon fill="#63b8ff" stroke="#63b8ff" points="742.1,-72.48 731.63,-74.08 740.82,-79.36 742.1,-72.48"/>
</g>
<!-- Node27 -->
<g id="node27" class="node">
<title>Node27</title>
<g id="a_node27"><a xlink:title=" ">
<polygon fill="#e0e0e0" stroke="#999999" points="634.63,-19 584.63,-19 584.63,0 634.63,0 634.63,-19"/>
<text text-anchor="middle" x="609.63" y="-7" font-family="Helvetica,sans-Serif" font-size="10.00">cstdint</text>
</a>
</g>
</g>
<!-- Node24&#45;&gt;Node27 -->
<g id="edge32" class="edge">
<title>Node24&#45;&gt;Node27</title>
<path fill="none" stroke="#63b8ff" d="M929.55,-112.05C924.86,-111.34 920.14,-110.64 915.63,-110 852.21,-101.02 678.81,-115.04 629.63,-74 616.61,-63.13 611.94,-43.85 610.33,-29.38"/>
<polygon fill="#63b8ff" stroke="#63b8ff" points="613.8,-28.78 609.6,-19.06 606.82,-29.28 613.8,-28.78"/>
</g>
<!-- Node24&#45;&gt;Node28 -->
<g id="edge35" class="edge">
<title>Node24&#45;&gt;Node28</title>
<path fill="none" stroke="#63b8ff" d="M975.52,-109.66C987.45,-91.77 1014.63,-51 1030.17,-27.69"/>
<polygon fill="#63b8ff" stroke="#63b8ff" points="1033.22,-29.42 1035.86,-19.16 1027.4,-25.54 1033.22,-29.42"/>
</g>
<!-- Node29 -->
<g id="node29" class="node">
<title>Node29</title>
<g id="a_node29"><a xlink:title=" ">
<polygon fill="#e0e0e0" stroke="#999999" points="845.63,-19 803.63,-19 803.63,0 845.63,0 845.63,-19"/>
<text text-anchor="middle" x="824.63" y="-7" font-family="Helvetica,sans-Serif" font-size="10.00">array</text>
</a>
</g>
</g>
<!-- Node24&#45;&gt;Node29 -->
<g id="edge31" class="edge">
<title>Node24&#45;&gt;Node29</title>
<path fill="none" stroke="#63b8ff" d="M929.39,-111.74C876.7,-102.49 789.89,-85.69 780.63,-74 767.94,-57.97 785.96,-38.52 802.62,-25.4"/>
<polygon fill="#63b8ff" stroke="#63b8ff" points="805.08,-27.93 811.04,-19.17 800.92,-22.31 805.08,-27.93"/>
</g>
<!-- Node30 -->
<g id="node30" class="node">
<title>Node30</title>
<g id="a_node30"><a xlink:title=" ">
<polygon fill="#e0e0e0" stroke="#999999" points="938.13,-74 789.13,-74 789.13,-55 938.13,-55 938.13,-74"/>
<text text-anchor="middle" x="863.63" y="-62" font-family="Helvetica,sans-Serif" font-size="10.00">small_vector/SmallVector.h</text>
</a>
</g>
</g>
<!-- Node24&#45;&gt;Node30 -->
<g id="edge33" class="edge">
<title>Node24&#45;&gt;Node30</title>
<path fill="none" stroke="#63b8ff" d="M952.6,-109.98C935.7,-101.54 909.57,-88.47 889.99,-78.68"/>
<polygon fill="#63b8ff" stroke="#63b8ff" points="891.48,-75.51 880.97,-74.17 888.35,-81.77 891.48,-75.51"/>
</g>
<!-- Node31 -->
<g id="node31" class="node">
<title>Node31</title>
<g id="a_node31"><a xlink:title=" ">
<polygon fill="#e0e0e0" stroke="#999999" points="1000.13,-19 927.13,-19 927.13,0 1000.13,0 1000.13,-19"/>
<text text-anchor="middle" x="963.63" y="-7" font-family="Helvetica,sans-Serif" font-size="10.00">string_view</text>
</a>
</g>
</g>
<!-- Node24&#45;&gt;Node31 -->
<g id="edge34" class="edge">
<title>Node24&#45;&gt;Node31</title>
<path fill="none" stroke="#63b8ff" d="M969.14,-109.66C968.17,-92.17 965.98,-52.8 964.67,-29.27"/>
<polygon fill="#63b8ff" stroke="#63b8ff" points="968.16,-28.95 964.11,-19.16 961.17,-29.34 968.16,-28.95"/>
</g>
<!-- Node26 -->
<g id="node26" class="node">
<title>Node26</title>
<g id="a_node26"><a xlink:title=" ">
<polygon fill="#e0e0e0" stroke="#999999" points="712.13,-19 659.13,-19 659.13,0 712.13,0 712.13,-19"/>
<text text-anchor="middle" x="685.63" y="-7" font-family="Helvetica,sans-Serif" font-size="10.00">cstddef</text>
</a>
</g>
</g>
<!-- Node25&#45;&gt;Node26 -->
<g id="edge28" class="edge">
<title>Node25&#45;&gt;Node26</title>
<path fill="none" stroke="#63b8ff" d="M685.63,-54.75C685.63,-47.8 685.63,-37.85 685.63,-29.13"/>
<polygon fill="#63b8ff" stroke="#63b8ff" points="689.13,-29.09 685.63,-19.09 682.13,-29.09 689.13,-29.09"/>
</g>
<!-- Node25&#45;&gt;Node27 -->
<g id="edge29" class="edge">
<title>Node25&#45;&gt;Node27</title>
<path fill="none" stroke="#63b8ff" d="M673.42,-54.98C661.85,-46.92 644.25,-34.65 630.47,-25.03"/>
<polygon fill="#63b8ff" stroke="#63b8ff" points="632.27,-22.02 622.06,-19.17 628.26,-27.76 632.27,-22.02"/>
</g>
<!-- Node25&#45;&gt;Node28 -->
<g id="edge30" class="edge">
<title>Node25&#45;&gt;Node28</title>
<path fill="none" stroke="#63b8ff" d="M733.15,-58.83C794.59,-52.38 905.03,-39.4 1008,-19.12"/>
<polygon fill="#63b8ff" stroke="#63b8ff" points="1008.82,-22.53 1017.94,-17.14 1007.45,-15.67 1008.82,-22.53"/>
</g>
<!-- Node32&#45;&gt;Node18 -->
<g id="edge42" class="edge">
<title>Node32&#45;&gt;Node18</title>
<path fill="none" stroke="#63b8ff" d="M1154.32,-54.98C1198.69,-45.46 1270.39,-30.08 1316.77,-20.13"/>
<polygon fill="#63b8ff" stroke="#63b8ff" points="1317.79,-23.49 1326.83,-17.97 1316.32,-16.64 1317.79,-23.49"/>
</g>
<!-- Node32&#45;&gt;Node28 -->
<g id="edge43" class="edge">
<title>Node32&#45;&gt;Node28</title>
<path fill="none" stroke="#63b8ff" d="M1102.9,-54.98C1091.9,-47 1075.21,-34.88 1062.03,-25.31"/>
<polygon fill="#63b8ff" stroke="#63b8ff" points="1063.72,-22.21 1053.57,-19.17 1059.61,-27.88 1063.72,-22.21"/>
</g>
<!-- Node32&#45;&gt;Node29 -->
<g id="edge38" class="edge">
<title>Node32&#45;&gt;Node29</title>
<path fill="none" stroke="#63b8ff" d="M1069.32,-55.22C1009.85,-44.35 907.03,-25.56 855.69,-16.18"/>
<polygon fill="#63b8ff" stroke="#63b8ff" points="856.3,-12.73 845.84,-14.38 855.04,-19.62 856.3,-12.73"/>
</g>
<!-- Node32&#45;&gt;Node31 -->
<g id="edge41" class="edge">
<title>Node32&#45;&gt;Node31</title>
<path fill="none" stroke="#63b8ff" d="M1090.37,-54.98C1065.31,-46.19 1026,-32.39 997.8,-22.49"/>
<polygon fill="#63b8ff" stroke="#63b8ff" points="998.93,-19.18 988.33,-19.17 996.61,-25.78 998.93,-19.18"/>
</g>
<!-- Node33 -->
<g id="node33" class="node">
<title>Node33</title>
<g id="a_node33"><a xlink:title=" ">
<polygon fill="#e0e0e0" stroke="#999999" points="1147.63,-19 1083.63,-19 1083.63,0 1147.63,0 1147.63,-19"/>
<text text-anchor="middle" x="1115.63" y="-7" font-family="Helvetica,sans-Serif" font-size="10.00">algorithm</text>
</a>
</g>
</g>
<!-- Node32&#45;&gt;Node33 -->
<g id="edge37" class="edge">
<title>Node32&#45;&gt;Node33</title>
<path fill="none" stroke="#63b8ff" d="M1114.8,-54.75C1114.93,-47.8 1115.11,-37.85 1115.28,-29.13"/>
<polygon fill="#63b8ff" stroke="#63b8ff" points="1118.78,-29.15 1115.47,-19.09 1111.78,-29.02 1118.78,-29.15"/>
</g>
<!-- Node34 -->
<g id="node34" class="node">
<title>Node34</title>
<g id="a_node34"><a xlink:title=" ">
<polygon fill="#e0e0e0" stroke="#999999" points="1215.13,-19 1166.13,-19 1166.13,0 1215.13,0 1215.13,-19"/>
<text text-anchor="middle" x="1190.63" y="-7" font-family="Helvetica,sans-Serif" font-size="10.00">cctype</text>
</a>
</g>
</g>
<!-- Node32&#45;&gt;Node34 -->
<g id="edge39" class="edge">
<title>Node32&#45;&gt;Node34</title>
<path fill="none" stroke="#63b8ff" d="M1126.84,-54.98C1138.41,-46.92 1156.01,-34.65 1169.79,-25.03"/>
<polygon fill="#63b8ff" stroke="#63b8ff" points="1172,-27.76 1178.2,-19.17 1167.99,-22.02 1172,-27.76"/>
</g>
<!-- Node32&#45;&gt;Node35 -->
<g id="edge40" class="edge">
<title>Node32&#45;&gt;Node35</title>
<path fill="none" stroke="#63b8ff" d="M1069.44,-60.85C961,-54.33 687.41,-36.82 576.75,-18.82"/>
<polygon fill="#63b8ff" stroke="#63b8ff" points="577.32,-15.36 566.87,-17.13 576.14,-22.26 577.32,-15.36"/>
</g>
<!-- Node36&#45;&gt;Node18 -->
<g id="edge55" class="edge">
<title>Node36&#45;&gt;Node18</title>
<path fill="none" stroke="#63b8ff" d="M1222.98,-112.41C1263.28,-104.78 1325.76,-90.68 1342.63,-74 1354.51,-62.25 1359.03,-43.41 1360.71,-29.29"/>
<polygon fill="#63b8ff" stroke="#63b8ff" points="1364.21,-29.46 1361.54,-19.21 1357.23,-28.89 1364.21,-29.46"/>
</g>
<!-- Node36&#45;&gt;Node28 -->
<g id="edge56" class="edge">
<title>Node36&#45;&gt;Node28</title>
<path fill="none" stroke="#63b8ff" d="M1187.44,-109.89C1186.67,-96.42 1183.25,-70.31 1168.63,-55 1161.93,-47.98 1110.46,-31.34 1075.13,-20.51"/>
<polygon fill="#63b8ff" stroke="#63b8ff" points="1075.79,-17.05 1065.21,-17.49 1073.75,-23.75 1075.79,-17.05"/>
</g>
<!-- Node36&#45;&gt;Node32 -->
<g id="edge45" class="edge">
<title>Node36&#45;&gt;Node32</title>
<path fill="none" stroke="#63b8ff" d="M1175.9,-109.98C1164.9,-102 1148.21,-89.88 1135.03,-80.31"/>
<polygon fill="#63b8ff" stroke="#63b8ff" points="1136.72,-77.21 1126.57,-74.17 1132.61,-82.88 1136.72,-77.21"/>
</g>
<!-- Node36&#45;&gt;Node37 -->
<g id="edge46" class="edge">
<title>Node36&#45;&gt;Node37</title>
<path fill="none" stroke="#63b8ff" d="M1152.36,-115.93C1064.18,-109.47 827.09,-91.74 629.63,-74 617.28,-72.89 603.94,-71.6 591.56,-70.36"/>
<polygon fill="#63b8ff" stroke="#63b8ff" points="591.73,-66.86 581.43,-69.34 591.03,-73.83 591.73,-66.86"/>
</g>
<!-- Node39 -->
<g id="node39" class="node">
<title>Node39</title>
<g id="a_node39"><a xlink:title=" ">
<polygon fill="#e0e0e0" stroke="#999999" points="1273.63,-74 1215.63,-74 1215.63,-55 1273.63,-55 1273.63,-74"/>
<text text-anchor="middle" x="1244.63" y="-62" font-family="Helvetica,sans-Serif" font-size="10.00">memory</text>
</a>
</g>
</g>
<!-- Node36&#45;&gt;Node39 -->
<g id="edge52" class="edge">
<title>Node36&#45;&gt;Node39</title>
<path fill="none" stroke="#63b8ff" d="M1196.79,-109.98C1205.13,-102.23 1217.66,-90.58 1227.81,-81.14"/>
<polygon fill="#63b8ff" stroke="#63b8ff" points="1230.37,-83.54 1235.31,-74.17 1225.6,-78.42 1230.37,-83.54"/>
</g>
<!-- Node36&#45;&gt;Node40 -->
<g id="edge53" class="edge">
<title>Node36&#45;&gt;Node40</title>
<path fill="none" stroke="#63b8ff" d="M1222.66,-110.35C1260.44,-101.52 1322.35,-86.97 1375.63,-74 1376.89,-73.69 1378.18,-73.38 1379.49,-73.06"/>
<polygon fill="#63b8ff" stroke="#63b8ff" points="1380.64,-76.38 1389.5,-70.58 1378.96,-69.58 1380.64,-76.38"/>
</g>
<!-- Node41 -->
<g id="node41" class="node">
<title>Node41</title>
<g id="a_node41"><a xlink:title=" ">
<polygon fill="#e0e0e0" stroke="#999999" points="1333.13,-74 1292.13,-74 1292.13,-55 1333.13,-55 1333.13,-74"/>
<text text-anchor="middle" x="1312.63" y="-62" font-family="Helvetica,sans-Serif" font-size="10.00">tuple</text>
</a>
</g>
</g>
<!-- Node36&#45;&gt;Node41 -->
<g id="edge54" class="edge">
<title>Node36&#45;&gt;Node41</title>
<path fill="none" stroke="#63b8ff" d="M1207.71,-109.98C1228,-101.38 1259.59,-87.99 1282.8,-78.15"/>
<polygon fill="#63b8ff" stroke="#63b8ff" points="1284.34,-81.3 1292.18,-74.17 1281.61,-74.85 1284.34,-81.3"/>
</g>
<!-- Node37&#45;&gt;Node22 -->
<g id="edge48" class="edge">
<title>Node37&#45;&gt;Node22</title>
<path fill="none" stroke="#63b8ff" d="M508.05,-59.65C414.76,-49.82 168.86,-23.91 76.96,-14.22"/>
<polygon fill="#63b8ff" stroke="#63b8ff" points="77.09,-10.72 66.78,-13.15 76.36,-17.68 77.09,-10.72"/>
</g>
<!-- Node37&#45;&gt;Node27 -->
<g id="edge47" class="edge">
<title>Node37&#45;&gt;Node27</title>
<path fill="none" stroke="#63b8ff" d="M555.07,-54.98C564.78,-47.07 579.45,-35.11 591.13,-25.58"/>
<polygon fill="#63b8ff" stroke="#63b8ff" points="593.46,-28.2 599,-19.17 589.03,-22.78 593.46,-28.2"/>
</g>
<!-- Node37&#45;&gt;Node28 -->
<g id="edge51" class="edge">
<title>Node37&#45;&gt;Node28</title>
<path fill="none" stroke="#63b8ff" d="M581.44,-59.78C596.4,-58.28 613.84,-56.54 629.63,-55 795.26,-38.87 840.91,-48.49 1008.09,-19.01"/>
<polygon fill="#63b8ff" stroke="#63b8ff" points="1008.73,-22.45 1017.96,-17.25 1007.5,-15.56 1008.73,-22.45"/>
</g>
<!-- Node37&#45;&gt;Node35 -->
<g id="edge50" class="edge">
<title>Node37&#45;&gt;Node35</title>
<path fill="none" stroke="#63b8ff" d="M544.63,-54.75C544.63,-47.8 544.63,-37.85 544.63,-29.13"/>
<polygon fill="#63b8ff" stroke="#63b8ff" points="548.13,-29.09 544.63,-19.09 541.13,-29.09 548.13,-29.09"/>
</g>
<!-- Node37&#45;&gt;Node38 -->
<g id="edge49" class="edge">
<title>Node37&#45;&gt;Node38</title>
<path fill="none" stroke="#63b8ff" d="M508.01,-55.74C462.65,-46.12 385.5,-29.76 337.45,-19.58"/>
<polygon fill="#63b8ff" stroke="#63b8ff" points="337.87,-16.09 327.36,-17.44 336.42,-22.94 337.87,-16.09"/>
</g>
</g>
</svg>
