<?xml version="1.0" encoding="UTF-8" standalone="no"?>
<!DOCTYPE svg PUBLIC "-//W3C//DTD SVG 1.1//EN"
 "http://www.w3.org/Graphics/SVG/1.1/DTD/svg11.dtd">
<!-- Generated by graphviz version 2.43.0 (0)
 -->
<!-- Title: src/consensus/ledger_enclave_types.h Pages: 1 -->
<!--zoomable 258 -->
<svg id="main" version="1.1" xmlns="http://www.w3.org/2000/svg" xmlns:xlink="http://www.w3.org/1999/xlink" xml:space="preserve" onload="init(evt)">
<style type="text/css"><![CDATA[
.edge:hover path { stroke: red; }
.edge:hover polygon { stroke: red; fill: red; }
]]></style>
<script type="text/javascript"><![CDATA[
var edges = document.getElementsByTagName('g');
if (edges && edges.length) {
  for (var i=0;i<edges.length;i++) {
    if (edges[i].id.substr(0,4)=='edge') {
      edges[i].setAttribute('class','edge');
    }
  }
}
]]></script>
        <defs>
                <circle id="rim" cx="0" cy="0" r="7"/>
                <circle id="rim2" cx="0" cy="0" r="3.5"/>
                <g id="zoomPlus">
                        <use xlink:href="#rim" fill="#404040">
                                <set attributeName="fill" to="#808080" begin="zoomplus.mouseover" end="zoomplus.mouseout"/>
                        </use>
                        <path d="M-4,0h8M0,-4v8" fill="none" stroke="white" stroke-width="1.5" pointer-events="none"/>
                </g>
                <g id="zoomMin">
                        <use xlink:href="#rim" fill="#404040">
                                <set attributeName="fill" to="#808080" begin="zoomminus.mouseover" end="zoomminus.mouseout"/>
                        </use>
                        <path d="M-4,0h8" fill="none" stroke="white" stroke-width="1.5" pointer-events="none"/>
                </g>
                <g id="dirArrow">
                        <path fill="none" stroke="white" stroke-width="1.5" d="M0,-3.0v7 M-2.5,-0.5L0,-3.0L2.5,-0.5"/>
                </g>
               <g id="resetDef">
                       <use xlink:href="#rim2" fill="#404040">
                               <set attributeName="fill" to="#808080" begin="reset.mouseover" end="reset.mouseout"/>
                       </use>
               </g>
        </defs>

<script type="text/javascript">
var viewWidth = 976;
var viewHeight = 258;
var sectionId = 'dynsection-0';
</script>
<script xlink:href="svgpan.js"/>
<svg id="graph" class="graph">
<g id="viewport">
<title>src/consensus/ledger_enclave_types.h</title>
<!-- Node1 -->
<g id="node1" class="node">
<title>Node1</title>
<g id="a_node1"><a xlink:title=" ">
<polygon fill="#999999" stroke="#666666" points="615.5,-250 496.5,-250 496.5,-220 615.5,-220 615.5,-250"/>
<text text-anchor="start" x="504.5" y="-238" font-family="Helvetica,sans-Serif" font-size="10.00">src/consensus/ledger</text>
<text text-anchor="middle" x="556" y="-227" font-family="Helvetica,sans-Serif" font-size="10.00">_enclave_types.h</text>
</a>
</g>
</g>
<!-- Node2 -->
<g id="node2" class="node">
<title>Node2</title>
<g id="a_node2"><a xlink:href="ring__buffer__types_8h.html" target="_top" xlink:title=" ">
<polygon fill="white" stroke="#666666" points="552.5,-184 427.5,-184 427.5,-165 552.5,-165 552.5,-184"/>
<text text-anchor="middle" x="490" y="-172" font-family="Helvetica,sans-Serif" font-size="10.00">ds/ring_buffer_types.h</text>
</a>
</g>
</g>
<!-- Node1&#45;&gt;Node2 -->
<g id="edge1" class="edge">
<title>Node1&#45;&gt;Node2</title>
<path fill="none" stroke="#63b8ff" d="M540.02,-219.84C530.25,-211.17 517.73,-200.08 507.66,-191.15"/>
<polygon fill="#63b8ff" stroke="#63b8ff" points="509.69,-188.28 499.89,-184.27 505.05,-193.52 509.69,-188.28"/>
</g>
<!-- Node21 -->
<g id="node21" class="node">
<title>Node21</title>
<g id="a_node21"><a xlink:title=" ">
<polygon fill="#e0e0e0" stroke="#999999" points="392,-74 352,-74 352,-55 392,-55 392,-74"/>
<text text-anchor="middle" x="372" y="-62" font-family="Helvetica,sans-Serif" font-size="10.00">span</text>
</a>
</g>
</g>
<!-- Node1&#45;&gt;Node21 -->
<g id="edge39" class="edge">
<title>Node1&#45;&gt;Node21</title>
<path fill="none" stroke="#63b8ff" d="M566.11,-219.99C582.78,-195.03 611.68,-142.44 585,-110 532.35,-45.98 482.61,-93.31 402,-74 401.9,-73.98 401.8,-73.95 401.7,-73.93"/>
<polygon fill="#63b8ff" stroke="#63b8ff" points="402.83,-70.61 392.27,-71.49 401.08,-77.38 402.83,-70.61"/>
</g>
<!-- Node3 -->
<g id="node3" class="node">
<title>Node3</title>
<g id="a_node3"><a xlink:href="include_2ccf_2ds_2hash_8h.html" target="_top" xlink:title=" ">
<polygon fill="white" stroke="#666666" points="772,-129 692,-129 692,-110 772,-110 772,-129"/>
<text text-anchor="middle" x="732" y="-117" font-family="Helvetica,sans-Serif" font-size="10.00">ccf/ds/hash.h</text>
</a>
</g>
</g>
<!-- Node2&#45;&gt;Node3 -->
<g id="edge2" class="edge">
<title>Node2&#45;&gt;Node3</title>
<path fill="none" stroke="#63b8ff" d="M528.88,-164.98C570.74,-155.82 637.43,-141.21 682.88,-131.26"/>
<polygon fill="#63b8ff" stroke="#63b8ff" points="683.79,-134.64 692.81,-129.08 682.3,-127.8 683.79,-134.64"/>
</g>
<!-- Node7 -->
<g id="node7" class="node">
<title>Node7</title>
<g id="a_node7"><a xlink:title=" ">
<polygon fill="#e0e0e0" stroke="#999999" points="649.5,-19 602.5,-19 602.5,0 649.5,0 649.5,-19"/>
<text text-anchor="middle" x="626" y="-7" font-family="Helvetica,sans-Serif" font-size="10.00">vector</text>
</a>
</g>
</g>
<!-- Node2&#45;&gt;Node7 -->
<g id="edge38" class="edge">
<title>Node2&#45;&gt;Node7</title>
<path fill="none" stroke="#63b8ff" d="M523.95,-164.87C544.16,-158.14 568.92,-146.87 585,-129 610.77,-100.38 620.5,-54.73 624.06,-29.25"/>
<polygon fill="#63b8ff" stroke="#63b8ff" points="627.56,-29.45 625.29,-19.1 620.61,-28.6 627.56,-29.45"/>
</g>
<!-- Node11 -->
<g id="node11" class="node">
<title>Node11</title>
<g id="a_node11"><a xlink:href="nonstd_8h.html" target="_top" xlink:title=" ">
<polygon fill="white" stroke="#666666" points="160,-74 70,-74 70,-55 160,-55 160,-74"/>
<text text-anchor="middle" x="115" y="-62" font-family="Helvetica,sans-Serif" font-size="10.00">ccf/ds/nonstd.h</text>
</a>
</g>
</g>
<!-- Node2&#45;&gt;Node11 -->
<g id="edge12" class="edge">
<title>Node2&#45;&gt;Node11</title>
<path fill="none" stroke="#63b8ff" d="M427.37,-167.28C376.48,-161.05 303.34,-149.37 242,-129 203.62,-116.26 162.28,-93.77 137.53,-79.26"/>
<polygon fill="#63b8ff" stroke="#63b8ff" points="139.28,-76.23 128.9,-74.13 135.71,-82.25 139.28,-76.23"/>
</g>
<!-- Node14 -->
<g id="node14" class="node">
<title>Node14</title>
<g id="a_node14"><a xlink:title=" ">
<polygon fill="#e0e0e0" stroke="#999999" points="44,-19 0,-19 0,0 44,0 44,-19"/>
<text text-anchor="middle" x="22" y="-7" font-family="Helvetica,sans-Serif" font-size="10.00">string</text>
</a>
</g>
</g>
<!-- Node2&#45;&gt;Node14 -->
<g id="edge37" class="edge">
<title>Node2&#45;&gt;Node14</title>
<path fill="none" stroke="#63b8ff" d="M427.22,-168.43C366.87,-162.53 273.51,-150.69 195,-129 132.95,-111.85 110.04,-115.71 61,-74 46.55,-61.71 35.86,-42.67 29.36,-28.64"/>
<polygon fill="#63b8ff" stroke="#63b8ff" points="32.41,-26.87 25.22,-19.08 25.98,-29.65 32.41,-26.87"/>
</g>
<!-- Node16 -->
<g id="node16" class="node">
<title>Node16</title>
<g id="a_node16"><a xlink:href="serializer_8h.html" target="_top" xlink:title=" ">
<polygon fill="white" stroke="#666666" points="321,-129 251,-129 251,-110 321,-110 321,-129"/>
<text text-anchor="middle" x="286" y="-117" font-family="Helvetica,sans-Serif" font-size="10.00">serializer.h</text>
</a>
</g>
</g>
<!-- Node2&#45;&gt;Node16 -->
<g id="edge20" class="edge">
<title>Node2&#45;&gt;Node16</title>
<path fill="none" stroke="#63b8ff" d="M457.22,-164.98C422.38,-155.93 367.13,-141.58 328.86,-131.64"/>
<polygon fill="#63b8ff" stroke="#63b8ff" points="329.59,-128.21 319.03,-129.08 327.83,-134.98 329.59,-128.21"/>
</g>
<!-- Node2&#45;&gt;Node21 -->
<g id="edge36" class="edge">
<title>Node2&#45;&gt;Node21</title>
<path fill="none" stroke="#63b8ff" d="M516.58,-164.91C546.26,-153.91 587.84,-133.46 569,-110 522.54,-52.16 478.22,-91 406,-74 404.73,-73.7 403.44,-73.39 402.14,-73.08"/>
<polygon fill="#63b8ff" stroke="#63b8ff" points="402.66,-69.61 392.11,-70.63 400.99,-76.4 402.66,-69.61"/>
</g>
<!-- Node23 -->
<g id="node23" class="node">
<title>Node23</title>
<g id="a_node23"><a xlink:title=" ">
<polygon fill="#e0e0e0" stroke="#999999" points="389,-129 339,-129 339,-110 389,-110 389,-129"/>
<text text-anchor="middle" x="364" y="-117" font-family="Helvetica,sans-Serif" font-size="10.00">atomic</text>
</a>
</g>
</g>
<!-- Node2&#45;&gt;Node23 -->
<g id="edge33" class="edge">
<title>Node2&#45;&gt;Node23</title>
<path fill="none" stroke="#63b8ff" d="M469.76,-164.98C449.3,-156.38 417.47,-142.99 394.07,-133.15"/>
<polygon fill="#63b8ff" stroke="#63b8ff" points="395.19,-129.82 384.61,-129.17 392.47,-136.27 395.19,-129.82"/>
</g>
<!-- Node24 -->
<g id="node24" class="node">
<title>Node24</title>
<g id="a_node24"><a xlink:title=" ">
<polygon fill="#e0e0e0" stroke="#999999" points="486.5,-129 407.5,-129 407.5,-110 486.5,-110 486.5,-129"/>
<text text-anchor="middle" x="447" y="-117" font-family="Helvetica,sans-Serif" font-size="10.00">fmt/format.h</text>
</a>
</g>
</g>
<!-- Node2&#45;&gt;Node24 -->
<g id="edge34" class="edge">
<title>Node2&#45;&gt;Node24</title>
<path fill="none" stroke="#63b8ff" d="M482.9,-164.75C476.83,-157.26 467.91,-146.28 460.49,-137.13"/>
<polygon fill="#63b8ff" stroke="#63b8ff" points="462.99,-134.65 453.97,-129.09 457.55,-139.06 462.99,-134.65"/>
</g>
<!-- Node25 -->
<g id="node25" class="node">
<title>Node25</title>
<g id="a_node25"><a xlink:title=" ">
<polygon fill="#e0e0e0" stroke="#999999" points="560,-129 504,-129 504,-110 560,-110 560,-129"/>
<text text-anchor="middle" x="532" y="-117" font-family="Helvetica,sans-Serif" font-size="10.00">optional</text>
</a>
</g>
</g>
<!-- Node2&#45;&gt;Node25 -->
<g id="edge35" class="edge">
<title>Node2&#45;&gt;Node25</title>
<path fill="none" stroke="#63b8ff" d="M496.94,-164.75C502.87,-157.26 511.57,-146.28 518.82,-137.13"/>
<polygon fill="#63b8ff" stroke="#63b8ff" points="521.73,-139.1 525.19,-129.09 516.24,-134.75 521.73,-139.1"/>
</g>
<!-- Node4 -->
<g id="node4" class="node">
<title>Node4</title>
<g id="a_node4"><a xlink:href="siphash_8h.html" target="_top" xlink:title=" ">
<polygon fill="white" stroke="#666666" points="953.5,-74 858.5,-74 858.5,-55 953.5,-55 953.5,-74"/>
<text text-anchor="middle" x="906" y="-62" font-family="Helvetica,sans-Serif" font-size="10.00">ccf/ds/siphash.h</text>
</a>
</g>
</g>
<!-- Node3&#45;&gt;Node4 -->
<g id="edge3" class="edge">
<title>Node3&#45;&gt;Node4</title>
<path fill="none" stroke="#63b8ff" d="M759.96,-109.98C789.3,-101.05 835.6,-86.94 868.19,-77.02"/>
<polygon fill="#63b8ff" stroke="#63b8ff" points="869.28,-80.34 877.82,-74.08 867.24,-73.65 869.28,-80.34"/>
</g>
<!-- Node6 -->
<g id="node6" class="node">
<title>Node6</title>
<g id="a_node6"><a xlink:title=" ">
<polygon fill="#e0e0e0" stroke="#999999" points="966,-19 916,-19 916,0 966,0 966,-19"/>
<text text-anchor="middle" x="941" y="-7" font-family="Helvetica,sans-Serif" font-size="10.00">cstdint</text>
</a>
</g>
</g>
<!-- Node3&#45;&gt;Node6 -->
<g id="edge8" class="edge">
<title>Node3&#45;&gt;Node6</title>
<path fill="none" stroke="#63b8ff" d="M772.32,-116.71C831.98,-113.12 939.27,-102.74 963,-74 974.09,-60.57 964.76,-41.21 955.06,-27.4"/>
<polygon fill="#63b8ff" stroke="#63b8ff" points="957.69,-25.07 948.84,-19.25 952.12,-29.32 957.69,-25.07"/>
</g>
<!-- Node3&#45;&gt;Node7 -->
<g id="edge11" class="edge">
<title>Node3&#45;&gt;Node7</title>
<path fill="none" stroke="#63b8ff" d="M721.97,-109.92C711.86,-101.16 695.96,-87.04 683,-74 667.75,-58.66 651.35,-40.16 640.08,-27.1"/>
<polygon fill="#63b8ff" stroke="#63b8ff" points="642.64,-24.7 633.47,-19.38 637.32,-29.26 642.64,-24.7"/>
</g>
<!-- Node8 -->
<g id="node8" class="node">
<title>Node8</title>
<g id="a_node8"><a xlink:title=" ">
<polygon fill="#e0e0e0" stroke="#999999" points="341,-19 299,-19 299,0 341,0 341,-19"/>
<text text-anchor="middle" x="320" y="-7" font-family="Helvetica,sans-Serif" font-size="10.00">array</text>
</a>
</g>
</g>
<!-- Node3&#45;&gt;Node8 -->
<g id="edge7" class="edge">
<title>Node3&#45;&gt;Node8</title>
<path fill="none" stroke="#63b8ff" d="M691.9,-112.17C687.21,-111.43 682.5,-110.7 678,-110 573.15,-93.75 542.86,-106.94 442,-74 431.98,-70.73 377.74,-41.76 345.05,-24.1"/>
<polygon fill="#63b8ff" stroke="#63b8ff" points="346.53,-20.92 336.06,-19.24 343.19,-27.07 346.53,-20.92"/>
</g>
<!-- Node9 -->
<g id="node9" class="node">
<title>Node9</title>
<g id="a_node9"><a xlink:title=" ">
<polygon fill="#e0e0e0" stroke="#999999" points="840.5,-74 691.5,-74 691.5,-55 840.5,-55 840.5,-74"/>
<text text-anchor="middle" x="766" y="-62" font-family="Helvetica,sans-Serif" font-size="10.00">small_vector/SmallVector.h</text>
</a>
</g>
</g>
<!-- Node3&#45;&gt;Node9 -->
<g id="edge9" class="edge">
<title>Node3&#45;&gt;Node9</title>
<path fill="none" stroke="#63b8ff" d="M737.61,-109.75C742.32,-102.42 749.17,-91.73 754.97,-82.7"/>
<polygon fill="#63b8ff" stroke="#63b8ff" points="758.04,-84.4 760.49,-74.09 752.14,-80.62 758.04,-84.4"/>
</g>
<!-- Node10 -->
<g id="node10" class="node">
<title>Node10</title>
<g id="a_node10"><a xlink:title=" ">
<polygon fill="#e0e0e0" stroke="#999999" points="432.5,-19 359.5,-19 359.5,0 432.5,0 432.5,-19"/>
<text text-anchor="middle" x="396" y="-7" font-family="Helvetica,sans-Serif" font-size="10.00">string_view</text>
</a>
</g>
</g>
<!-- Node3&#45;&gt;Node10 -->
<g id="edge10" class="edge">
<title>Node3&#45;&gt;Node10</title>
<path fill="none" stroke="#63b8ff" d="M692,-112.01C622.93,-100.73 487.72,-78.3 478,-74 451.92,-62.47 426.72,-40.9 411.3,-26.13"/>
<polygon fill="#63b8ff" stroke="#63b8ff" points="413.75,-23.63 404.17,-19.11 408.84,-28.62 413.75,-23.63"/>
</g>
<!-- Node5 -->
<g id="node5" class="node">
<title>Node5</title>
<g id="a_node5"><a xlink:title=" ">
<polygon fill="#e0e0e0" stroke="#999999" points="897.5,-19 844.5,-19 844.5,0 897.5,0 897.5,-19"/>
<text text-anchor="middle" x="871" y="-7" font-family="Helvetica,sans-Serif" font-size="10.00">cstddef</text>
</a>
</g>
</g>
<!-- Node4&#45;&gt;Node5 -->
<g id="edge4" class="edge">
<title>Node4&#45;&gt;Node5</title>
<path fill="none" stroke="#63b8ff" d="M900.22,-54.75C895.38,-47.42 888.32,-36.73 882.36,-27.7"/>
<polygon fill="#63b8ff" stroke="#63b8ff" points="885.1,-25.5 876.67,-19.09 879.26,-29.36 885.1,-25.5"/>
</g>
<!-- Node4&#45;&gt;Node6 -->
<g id="edge5" class="edge">
<title>Node4&#45;&gt;Node6</title>
<path fill="none" stroke="#63b8ff" d="M911.78,-54.75C916.62,-47.42 923.68,-36.73 929.64,-27.7"/>
<polygon fill="#63b8ff" stroke="#63b8ff" points="932.74,-29.36 935.33,-19.09 926.9,-25.5 932.74,-29.36"/>
</g>
<!-- Node4&#45;&gt;Node7 -->
<g id="edge6" class="edge">
<title>Node4&#45;&gt;Node7</title>
<path fill="none" stroke="#63b8ff" d="M861.01,-54.98C804.87,-44.36 710.13,-26.43 659.8,-16.9"/>
<polygon fill="#63b8ff" stroke="#63b8ff" points="660.24,-13.42 649.76,-15 658.94,-20.3 660.24,-13.42"/>
</g>
<!-- Node11&#45;&gt;Node7 -->
<g id="edge19" class="edge">
<title>Node11&#45;&gt;Node7</title>
<path fill="none" stroke="#63b8ff" d="M160.11,-59.32C268.05,-49.33 535.9,-24.51 592.18,-18.34"/>
<polygon fill="#63b8ff" stroke="#63b8ff" points="592.81,-21.78 602.31,-17.08 591.95,-14.84 592.81,-21.78"/>
</g>
<!-- Node11&#45;&gt;Node8 -->
<g id="edge14" class="edge">
<title>Node11&#45;&gt;Node8</title>
<path fill="none" stroke="#63b8ff" d="M149.05,-54.98C184.16,-46.14 240.47,-31.86 289,-19 289.1,-18.97 289.2,-18.95 289.29,-18.92"/>
<polygon fill="#63b8ff" stroke="#63b8ff" points="289.92,-22.38 298.67,-16.4 288.1,-15.62 289.92,-22.38"/>
</g>
<!-- Node11&#45;&gt;Node10 -->
<g id="edge17" class="edge">
<title>Node11&#45;&gt;Node10</title>
<path fill="none" stroke="#63b8ff" d="M160.15,-54.98C212.07,-45.19 296.89,-29.19 349.41,-19.29"/>
<polygon fill="#63b8ff" stroke="#63b8ff" points="350.29,-22.68 359.47,-17.39 348.99,-15.8 350.29,-22.68"/>
</g>
<!-- Node12 -->
<g id="node12" class="node">
<title>Node12</title>
<g id="a_node12"><a xlink:title=" ">
<polygon fill="#e0e0e0" stroke="#999999" points="126,-19 62,-19 62,0 126,0 126,-19"/>
<text text-anchor="middle" x="94" y="-7" font-family="Helvetica,sans-Serif" font-size="10.00">algorithm</text>
</a>
</g>
</g>
<!-- Node11&#45;&gt;Node12 -->
<g id="edge13" class="edge">
<title>Node11&#45;&gt;Node12</title>
<path fill="none" stroke="#63b8ff" d="M111.53,-54.75C108.72,-47.65 104.66,-37.4 101.15,-28.56"/>
<polygon fill="#63b8ff" stroke="#63b8ff" points="104.34,-27.1 97.4,-19.09 97.83,-29.68 104.34,-27.1"/>
</g>
<!-- Node13 -->
<g id="node13" class="node">
<title>Node13</title>
<g id="a_node13"><a xlink:title=" ">
<polygon fill="#e0e0e0" stroke="#999999" points="193.5,-19 144.5,-19 144.5,0 193.5,0 193.5,-19"/>
<text text-anchor="middle" x="169" y="-7" font-family="Helvetica,sans-Serif" font-size="10.00">cctype</text>
</a>
</g>
</g>
<!-- Node11&#45;&gt;Node13 -->
<g id="edge15" class="edge">
<title>Node11&#45;&gt;Node13</title>
<path fill="none" stroke="#63b8ff" d="M123.92,-54.75C131.78,-47.03 143.43,-35.6 152.92,-26.28"/>
<polygon fill="#63b8ff" stroke="#63b8ff" points="155.56,-28.59 160.25,-19.09 150.66,-23.6 155.56,-28.59"/>
</g>
<!-- Node11&#45;&gt;Node14 -->
<g id="edge16" class="edge">
<title>Node11&#45;&gt;Node14</title>
<path fill="none" stroke="#63b8ff" d="M100.06,-54.98C85.5,-46.69 63.13,-33.94 46.07,-24.22"/>
<polygon fill="#63b8ff" stroke="#63b8ff" points="47.64,-21.08 37.21,-19.17 44.17,-27.16 47.64,-21.08"/>
</g>
<!-- Node15 -->
<g id="node15" class="node">
<title>Node15</title>
<g id="a_node15"><a xlink:title=" ">
<polygon fill="#e0e0e0" stroke="#999999" points="280.5,-19 211.5,-19 211.5,0 280.5,0 280.5,-19"/>
<text text-anchor="middle" x="246" y="-7" font-family="Helvetica,sans-Serif" font-size="10.00">type_traits</text>
</a>
</g>
</g>
<!-- Node11&#45;&gt;Node15 -->
<g id="edge18" class="edge">
<title>Node11&#45;&gt;Node15</title>
<path fill="none" stroke="#63b8ff" d="M136.05,-54.98C157.41,-46.34 190.7,-32.87 215.06,-23.02"/>
<polygon fill="#63b8ff" stroke="#63b8ff" points="216.61,-26.17 224.57,-19.17 213.99,-19.68 216.61,-26.17"/>
</g>
<!-- Node16&#45;&gt;Node7 -->
<g id="edge32" class="edge">
<title>Node16&#45;&gt;Node7</title>
<path fill="none" stroke="#63b8ff" d="M321.04,-111.6C324.07,-111.04 327.09,-110.5 330,-110 435.87,-91.81 474.44,-124.97 569,-74 588.9,-63.27 605.32,-42.78 615.35,-27.97"/>
<polygon fill="#63b8ff" stroke="#63b8ff" points="618.51,-29.52 620.99,-19.21 612.63,-25.73 618.51,-29.52"/>
</g>
<!-- Node16&#45;&gt;Node11 -->
<g id="edge21" class="edge">
<title>Node16&#45;&gt;Node11</title>
<path fill="none" stroke="#63b8ff" d="M258.53,-109.98C229.82,-101.09 184.58,-87.07 152.58,-77.15"/>
<polygon fill="#63b8ff" stroke="#63b8ff" points="153.28,-73.7 142.69,-74.08 151.2,-80.39 153.28,-73.7"/>
</g>
<!-- Node16&#45;&gt;Node15 -->
<g id="edge31" class="edge">
<title>Node16&#45;&gt;Node15</title>
<path fill="none" stroke="#63b8ff" d="M255.73,-109.92C238.16,-103.21 217.48,-91.94 207,-74 197.29,-57.38 212.04,-38.63 226.1,-25.84"/>
<polygon fill="#63b8ff" stroke="#63b8ff" points="228.74,-28.19 234.11,-19.06 224.22,-22.85 228.74,-28.19"/>
</g>
<!-- Node17 -->
<g id="node17" class="node">
<title>Node17</title>
<g id="a_node17"><a xlink:href="serialized_8h.html" target="_top" xlink:title=" ">
<polygon fill="white" stroke="#666666" points="559.5,-74 486.5,-74 486.5,-55 559.5,-55 559.5,-74"/>
<text text-anchor="middle" x="523" y="-62" font-family="Helvetica,sans-Serif" font-size="10.00">serialized.h</text>
</a>
</g>
</g>
<!-- Node16&#45;&gt;Node17 -->
<g id="edge22" class="edge">
<title>Node16&#45;&gt;Node17</title>
<path fill="none" stroke="#63b8ff" d="M321.23,-110.62C362.46,-101.4 430.91,-86.09 476.48,-75.9"/>
<polygon fill="#63b8ff" stroke="#63b8ff" points="477.42,-79.28 486.41,-73.68 475.89,-72.45 477.42,-79.28"/>
</g>
<!-- Node20 -->
<g id="node20" class="node">
<title>Node20</title>
<g id="a_node20"><a xlink:title=" ">
<polygon fill="#e0e0e0" stroke="#999999" points="334,-74 276,-74 276,-55 334,-55 334,-74"/>
<text text-anchor="middle" x="305" y="-62" font-family="Helvetica,sans-Serif" font-size="10.00">memory</text>
</a>
</g>
</g>
<!-- Node16&#45;&gt;Node20 -->
<g id="edge28" class="edge">
<title>Node16&#45;&gt;Node20</title>
<path fill="none" stroke="#63b8ff" d="M289.14,-109.75C291.68,-102.65 295.36,-92.4 298.53,-83.56"/>
<polygon fill="#63b8ff" stroke="#63b8ff" points="301.84,-84.68 301.92,-74.09 295.25,-82.32 301.84,-84.68"/>
</g>
<!-- Node16&#45;&gt;Node21 -->
<g id="edge29" class="edge">
<title>Node16&#45;&gt;Node21</title>
<path fill="none" stroke="#63b8ff" d="M299.82,-109.98C313.15,-101.77 333.58,-89.18 349.31,-79.49"/>
<polygon fill="#63b8ff" stroke="#63b8ff" points="351.25,-82.4 357.93,-74.17 347.58,-76.44 351.25,-82.4"/>
</g>
<!-- Node22 -->
<g id="node22" class="node">
<title>Node22</title>
<g id="a_node22"><a xlink:title=" ">
<polygon fill="#e0e0e0" stroke="#999999" points="257.5,-74 216.5,-74 216.5,-55 257.5,-55 257.5,-74"/>
<text text-anchor="middle" x="237" y="-62" font-family="Helvetica,sans-Serif" font-size="10.00">tuple</text>
</a>
</g>
</g>
<!-- Node16&#45;&gt;Node22 -->
<g id="edge30" class="edge">
<title>Node16&#45;&gt;Node22</title>
<path fill="none" stroke="#63b8ff" d="M277.91,-109.75C270.84,-102.11 260.41,-90.82 251.85,-81.56"/>
<polygon fill="#63b8ff" stroke="#63b8ff" points="254.3,-79.06 244.94,-74.09 249.16,-83.81 254.3,-79.06"/>
</g>
<!-- Node17&#45;&gt;Node6 -->
<g id="edge23" class="edge">
<title>Node17&#45;&gt;Node6</title>
<path fill="none" stroke="#63b8ff" d="M559.77,-60.83C626.73,-55.64 773.18,-42.68 905.89,-18.98"/>
<polygon fill="#63b8ff" stroke="#63b8ff" points="906.61,-22.41 915.83,-17.18 905.36,-15.52 906.61,-22.41"/>
</g>
<!-- Node17&#45;&gt;Node7 -->
<g id="edge27" class="edge">
<title>Node17&#45;&gt;Node7</title>
<path fill="none" stroke="#63b8ff" d="M539.55,-54.98C555.89,-46.57 581.13,-33.59 600.13,-23.81"/>
<polygon fill="#63b8ff" stroke="#63b8ff" points="601.86,-26.86 609.15,-19.17 598.66,-20.63 601.86,-26.86"/>
</g>
<!-- Node17&#45;&gt;Node14 -->
<g id="edge26" class="edge">
<title>Node17&#45;&gt;Node14</title>
<path fill="none" stroke="#63b8ff" d="M486.42,-60.86C394.27,-54.09 153.47,-35.56 54.24,-18.86"/>
<polygon fill="#63b8ff" stroke="#63b8ff" points="54.7,-15.39 44.24,-17.1 53.48,-22.28 54.7,-15.39"/>
</g>
<!-- Node18 -->
<g id="node18" class="node">
<title>Node18</title>
<g id="a_node18"><a xlink:title=" ">
<polygon fill="#e0e0e0" stroke="#999999" points="584,-19 534,-19 534,0 584,0 584,-19"/>
<text text-anchor="middle" x="559" y="-7" font-family="Helvetica,sans-Serif" font-size="10.00">cstring</text>
</a>
</g>
</g>
<!-- Node17&#45;&gt;Node18 -->
<g id="edge24" class="edge">
<title>Node17&#45;&gt;Node18</title>
<path fill="none" stroke="#63b8ff" d="M528.94,-54.75C533.98,-47.34 541.34,-36.5 547.51,-27.41"/>
<polygon fill="#63b8ff" stroke="#63b8ff" points="550.44,-29.33 553.17,-19.09 544.65,-25.39 550.44,-29.33"/>
</g>
<!-- Node19 -->
<g id="node19" class="node">
<title>Node19</title>
<g id="a_node19"><a xlink:title=" ">
<polygon fill="#e0e0e0" stroke="#999999" points="515.5,-19 450.5,-19 450.5,0 515.5,0 515.5,-19"/>
<text text-anchor="middle" x="483" y="-7" font-family="Helvetica,sans-Serif" font-size="10.00">stdexcept</text>
</a>
</g>
</g>
<!-- Node17&#45;&gt;Node19 -->
<g id="edge25" class="edge">
<title>Node17&#45;&gt;Node19</title>
<path fill="none" stroke="#63b8ff" d="M516.39,-54.75C510.74,-47.26 502.46,-36.28 495.55,-27.13"/>
<polygon fill="#63b8ff" stroke="#63b8ff" points="498.3,-24.96 489.48,-19.09 492.71,-29.18 498.3,-24.96"/>
</g>
</g>
</svg>
        <g id="navigator" transform="translate(0 0)" fill="#404254">
                <rect fill="#f2f5e9" fill-opacity="0.5" stroke="#606060" stroke-width=".5" x="0" y="0" width="60" height="60"/>
                <use id="zoomplus" xlink:href="#zoomPlus" x="17" y="9" onmousedown="handleZoom(evt,'in')"/>
                <use id="zoomminus" xlink:href="#zoomMin" x="42" y="9" onmousedown="handleZoom(evt,'out')"/>
                <use id="reset" xlink:href="#resetDef" x="30" y="36" onmousedown="handleReset()"/>
                <g id="arrowUp" xlink:href="#dirArrow" transform="translate(30 24)" onmousedown="handlePan(0,-1)">
                  <use xlink:href="#rim" fill="#404040">
                        <set attributeName="fill" to="#808080" begin="arrowUp.mouseover" end="arrowUp.mouseout"/>
                  </use>
                  <path fill="none" stroke="white" stroke-width="1.5" d="M0,-3.0v7 M-2.5,-0.5L0,-3.0L2.5,-0.5"/>
                </g>
                <g id="arrowRight" xlink:href="#dirArrow" transform="rotate(90) translate(36 -43)" onmousedown="handlePan(1,0)">
                  <use xlink:href="#rim" fill="#404040">
                        <set attributeName="fill" to="#808080" begin="arrowRight.mouseover" end="arrowRight.mouseout"/>
                  </use>
                  <path fill="none" stroke="white" stroke-width="1.5" d="M0,-3.0v7 M-2.5,-0.5L0,-3.0L2.5,-0.5"/>
                </g>
                <g id="arrowDown" xlink:href="#dirArrow" transform="rotate(180) translate(-30 -48)" onmousedown="handlePan(0,1)">
                  <use xlink:href="#rim" fill="#404040">
                        <set attributeName="fill" to="#808080" begin="arrowDown.mouseover" end="arrowDown.mouseout"/>
                  </use>
                  <path fill="none" stroke="white" stroke-width="1.5" d="M0,-3.0v7 M-2.5,-0.5L0,-3.0L2.5,-0.5"/>
                </g>
                <g id="arrowLeft" xlink:href="#dirArrow" transform="rotate(270) translate(-36 17)" onmousedown="handlePan(-1,0)">
                  <use xlink:href="#rim" fill="#404040">
                        <set attributeName="fill" to="#808080" begin="arrowLeft.mouseover" end="arrowLeft.mouseout"/>
                  </use>
                  <path fill="none" stroke="white" stroke-width="1.5" d="M0,-3.0v7 M-2.5,-0.5L0,-3.0L2.5,-0.5"/>
                </g>
        </g>
        <svg viewBox="0 0 15 15" width="100%" height="30px" preserveAspectRatio="xMaxYMin meet">
         <g id="arrow_out" transform="scale(0.3 0.3)">
          <a xlink:href="ledger__enclave__types_8h__incl_org.svg" target="_base">
           <rect id="button" ry="5" rx="5" y="6" x="6" height="38" width="38"
                fill="#f2f5e9" fill-opacity="0.5" stroke="#606060" stroke-width="1.0"/>
           <path id="arrow"
             d="M 11.500037,31.436501 C 11.940474,20.09759 22.043105,11.32322 32.158766,21.979434 L 37.068811,17.246167 C 37.068811,17.246167 37.088388,32 37.088388,32 L 22.160133,31.978069 C 22.160133,31.978069 26.997745,27.140456 26.997745,27.140456 C 18.528582,18.264221 13.291696,25.230495 11.500037,31.436501 z"
             style="fill:#404040;"/>
          </a>
         </g>
        </svg>
</svg>
