<?xml version="1.0" encoding="UTF-8" standalone="no"?>
<!DOCTYPE svg PUBLIC "-//W3C//DTD SVG 1.1//EN"
 "http://www.w3.org/Graphics/SVG/1.1/DTD/svg11.dtd">
<!-- Generated by graphviz version 2.43.0 (0)
 -->
<!-- Title: src/host/load_monitor.h Pages: 1 -->
<svg width="1730pt" height="357pt"
 viewBox="0.00 0.00 1730.45 357.00" xmlns="http://www.w3.org/2000/svg" xmlns:xlink="http://www.w3.org/1999/xlink">
<g id="graph0" class="graph" transform="scale(1 1) rotate(0) translate(4 353)">
<title>src/host/load_monitor.h</title>
<!-- Node1 -->
<g id="node1" class="node">
<title>Node1</title>
<g id="a_node1"><a xlink:title=" ">
<polygon fill="#999999" stroke="#666666" points="1140.46,-349 1009.46,-349 1009.46,-330 1140.46,-330 1140.46,-349"/>
<text text-anchor="middle" x="1074.96" y="-337" font-family="Helvetica,sans-Serif" font-size="10.00">src/host/load_monitor.h</text>
</a>
</g>
</g>
<!-- Node2 -->
<g id="node2" class="node">
<title>Node2</title>
<g id="a_node2"><a xlink:href="messaging_8h.html" target="_top" xlink:title=" ">
<polygon fill="white" stroke="#666666" points="582.46,-294 489.46,-294 489.46,-275 582.46,-275 582.46,-294"/>
<text text-anchor="middle" x="535.96" y="-282" font-family="Helvetica,sans-Serif" font-size="10.00">ds/messaging.h</text>
</a>
</g>
</g>
<!-- Node1&#45;&gt;Node2 -->
<g id="edge1" class="edge">
<title>Node1&#45;&gt;Node2</title>
<path fill="none" stroke="#63b8ff" d="M1009.41,-332.05C902.68,-321.56 693.16,-300.96 592.54,-291.06"/>
<polygon fill="#63b8ff" stroke="#63b8ff" points="592.86,-287.58 582.57,-290.08 592.17,-294.54 592.86,-287.58"/>
</g>
<!-- Node44 -->
<g id="node44" class="node">
<title>Node44</title>
<g id="a_node44"><a xlink:href="timer_8h.html" target="_top" xlink:title=" ">
<polygon fill="white" stroke="#666666" points="1640.46,-294 1589.46,-294 1589.46,-275 1640.46,-275 1640.46,-294"/>
<text text-anchor="middle" x="1614.96" y="-282" font-family="Helvetica,sans-Serif" font-size="10.00">timer.h</text>
</a>
</g>
</g>
<!-- Node1&#45;&gt;Node44 -->
<g id="edge69" class="edge">
<title>Node1&#45;&gt;Node44</title>
<path fill="none" stroke="#63b8ff" d="M1140.64,-332.05C1255.7,-320.76 1489.98,-297.77 1579.29,-289"/>
<polygon fill="#63b8ff" stroke="#63b8ff" points="1579.84,-292.46 1589.45,-288 1579.15,-285.5 1579.84,-292.46"/>
</g>
<!-- Node3 -->
<g id="node3" class="node">
<title>Node3</title>
<g id="a_node3"><a xlink:href="logger_8h.html" target="_top" xlink:title=" ">
<polygon fill="white" stroke="#666666" points="579.46,-239 492.46,-239 492.46,-220 579.46,-220 579.46,-239"/>
<text text-anchor="middle" x="535.96" y="-227" font-family="Helvetica,sans-Serif" font-size="10.00">ccf/ds/logger.h</text>
</a>
</g>
</g>
<!-- Node2&#45;&gt;Node3 -->
<g id="edge2" class="edge">
<title>Node2&#45;&gt;Node3</title>
<path fill="none" stroke="#63b8ff" d="M535.96,-274.75C535.96,-267.8 535.96,-257.85 535.96,-249.13"/>
<polygon fill="#63b8ff" stroke="#63b8ff" points="539.46,-249.09 535.96,-239.09 532.46,-249.09 539.46,-249.09"/>
</g>
<!-- Node10 -->
<g id="node10" class="node">
<title>Node10</title>
<g id="a_node10"><a xlink:title=" ">
<polygon fill="#e0e0e0" stroke="#999999" points="144.96,-129 106.96,-129 106.96,-110 144.96,-110 144.96,-129"/>
<text text-anchor="middle" x="125.96" y="-117" font-family="Helvetica,sans-Serif" font-size="10.00">map</text>
</a>
</g>
</g>
<!-- Node2&#45;&gt;Node10 -->
<g id="edge67" class="edge">
<title>Node2&#45;&gt;Node10</title>
<path fill="none" stroke="#63b8ff" d="M489.45,-279.43C390.93,-269.76 166.5,-241.74 120.96,-184 111.03,-171.41 113.96,-152.7 118.36,-138.85"/>
<polygon fill="#63b8ff" stroke="#63b8ff" points="121.67,-139.98 121.83,-129.39 115.1,-137.57 121.67,-139.98"/>
</g>
<!-- Node18 -->
<g id="node18" class="node">
<title>Node18</title>
<g id="a_node18"><a xlink:href="ring__buffer_8h.html" target="_top" xlink:title=" ">
<polygon fill="white" stroke="#666666" points="999.46,-239 922.46,-239 922.46,-220 999.46,-220 999.46,-239"/>
<text text-anchor="middle" x="960.96" y="-227" font-family="Helvetica,sans-Serif" font-size="10.00">ring_buffer.h</text>
</a>
</g>
</g>
<!-- Node2&#45;&gt;Node18 -->
<g id="edge19" class="edge">
<title>Node2&#45;&gt;Node18</title>
<path fill="none" stroke="#63b8ff" d="M582.66,-277.68C663.72,-267.57 829.68,-246.87 912.18,-236.58"/>
<polygon fill="#63b8ff" stroke="#63b8ff" points="912.8,-240.03 922.29,-235.32 911.93,-233.09 912.8,-240.03"/>
</g>
<!-- Node37 -->
<g id="node37" class="node">
<title>Node37</title>
<g id="a_node37"><a xlink:title=" ">
<polygon fill="#e0e0e0" stroke="#999999" points="369.46,-19 304.46,-19 304.46,0 369.46,0 369.46,-19"/>
<text text-anchor="middle" x="336.96" y="-7" font-family="Helvetica,sans-Serif" font-size="10.00">stdexcept</text>
</a>
</g>
</g>
<!-- Node2&#45;&gt;Node37 -->
<g id="edge68" class="edge">
<title>Node2&#45;&gt;Node37</title>
<path fill="none" stroke="#63b8ff" d="M489.15,-282.43C368.87,-279.26 55.92,-268.26 19.96,-239 -2.89,-220.41 0.96,-204.96 0.96,-175.5 0.96,-175.5 0.96,-175.5 0.96,-118.5 0.96,-57.57 203.74,-26.13 294.24,-15.13"/>
<polygon fill="#63b8ff" stroke="#63b8ff" points="294.92,-18.57 304.44,-13.92 294.1,-11.62 294.92,-18.57"/>
</g>
<!-- Node41 -->
<g id="node41" class="node">
<title>Node41</title>
<g id="a_node41"><a xlink:title=" ">
<polygon fill="#e0e0e0" stroke="#999999" points="1073.96,-129 1023.96,-129 1023.96,-110 1073.96,-110 1073.96,-129"/>
<text text-anchor="middle" x="1048.96" y="-117" font-family="Helvetica,sans-Serif" font-size="10.00">atomic</text>
</a>
</g>
</g>
<!-- Node2&#45;&gt;Node41 -->
<g id="edge65" class="edge">
<title>Node2&#45;&gt;Node41</title>
<path fill="none" stroke="#63b8ff" d="M582.58,-281.32C685.59,-276.15 929.71,-261.84 1008.96,-239 1061.1,-223.98 1089.52,-230.21 1117.96,-184 1130.84,-163.07 1104.54,-144.74 1080.79,-133.23"/>
<polygon fill="#63b8ff" stroke="#63b8ff" points="1082.11,-129.98 1071.56,-129.01 1079.2,-136.35 1082.11,-129.98"/>
</g>
<!-- Node43 -->
<g id="node43" class="node">
<title>Node43</title>
<g id="a_node43"><a xlink:title=" ">
<polygon fill="#e0e0e0" stroke="#999999" points="136.46,-239 29.46,-239 29.46,-220 136.46,-220 136.46,-239"/>
<text text-anchor="middle" x="82.96" y="-227" font-family="Helvetica,sans-Serif" font-size="10.00">condition_variable</text>
</a>
</g>
</g>
<!-- Node2&#45;&gt;Node43 -->
<g id="edge66" class="edge">
<title>Node2&#45;&gt;Node43</title>
<path fill="none" stroke="#63b8ff" d="M489.42,-278.26C417.03,-270.08 273.05,-253.69 150.96,-239 149.67,-238.84 148.36,-238.69 147.04,-238.53"/>
<polygon fill="#63b8ff" stroke="#63b8ff" points="147.13,-235.01 136.78,-237.27 146.28,-241.96 147.13,-235.01"/>
</g>
<!-- Node4 -->
<g id="node4" class="node">
<title>Node4</title>
<g id="a_node4"><a xlink:href="enum__formatter_8h.html" target="_top" xlink:title=" ">
<polygon fill="white" stroke="#666666" points="806.96,-184 670.96,-184 670.96,-165 806.96,-165 806.96,-184"/>
<text text-anchor="middle" x="738.96" y="-172" font-family="Helvetica,sans-Serif" font-size="10.00">ccf/ds/enum_formatter.h</text>
</a>
</g>
</g>
<!-- Node3&#45;&gt;Node4 -->
<g id="edge3" class="edge">
<title>Node3&#45;&gt;Node4</title>
<path fill="none" stroke="#63b8ff" d="M568.58,-219.98C603.25,-210.93 658.23,-196.58 696.31,-186.64"/>
<polygon fill="#63b8ff" stroke="#63b8ff" points="697.3,-189.99 706.09,-184.08 695.53,-183.22 697.3,-189.99"/>
</g>
<!-- Node5 -->
<g id="node5" class="node">
<title>Node5</title>
<g id="a_node5"><a xlink:title=" ">
<polygon fill="#e0e0e0" stroke="#999999" points="606.46,-129 527.46,-129 527.46,-110 606.46,-110 606.46,-129"/>
<text text-anchor="middle" x="566.96" y="-117" font-family="Helvetica,sans-Serif" font-size="10.00">fmt/format.h</text>
</a>
</g>
</g>
<!-- Node3&#45;&gt;Node5 -->
<g id="edge13" class="edge">
<title>Node3&#45;&gt;Node5</title>
<path fill="none" stroke="#63b8ff" d="M521.23,-219.92C502.98,-208.14 475.69,-186 487.96,-165 496.65,-150.14 512.32,-139.86 527.43,-132.95"/>
<polygon fill="#63b8ff" stroke="#63b8ff" points="528.82,-136.17 536.69,-129.08 526.12,-129.71 528.82,-136.17"/>
</g>
<!-- Node6 -->
<g id="node6" class="node">
<title>Node6</title>
<g id="a_node6"><a xlink:href="thread__ids_8h.html" target="_top" xlink:title=" ">
<polygon fill="white" stroke="#666666" points="365.96,-184 257.96,-184 257.96,-165 365.96,-165 365.96,-184"/>
<text text-anchor="middle" x="311.96" y="-172" font-family="Helvetica,sans-Serif" font-size="10.00">ccf/ds/thread_ids.h</text>
</a>
</g>
</g>
<!-- Node3&#45;&gt;Node6 -->
<g id="edge5" class="edge">
<title>Node3&#45;&gt;Node6</title>
<path fill="none" stroke="#63b8ff" d="M499.97,-219.98C461.47,-210.87 400.28,-196.4 358.22,-186.45"/>
<polygon fill="#63b8ff" stroke="#63b8ff" points="358.77,-182.98 348.23,-184.08 357.16,-189.79 358.77,-182.98"/>
</g>
<!-- Node12 -->
<g id="node12" class="node">
<title>Node12</title>
<g id="a_node12"><a xlink:title=" ">
<polygon fill="#e0e0e0" stroke="#999999" points="575.46,-184 496.46,-184 496.46,-165 575.46,-165 575.46,-184"/>
<text text-anchor="middle" x="535.96" y="-172" font-family="Helvetica,sans-Serif" font-size="10.00">fmt/chrono.h</text>
</a>
</g>
</g>
<!-- Node3&#45;&gt;Node12 -->
<g id="edge12" class="edge">
<title>Node3&#45;&gt;Node12</title>
<path fill="none" stroke="#63b8ff" d="M535.96,-219.75C535.96,-212.8 535.96,-202.85 535.96,-194.13"/>
<polygon fill="#63b8ff" stroke="#63b8ff" points="539.46,-194.09 535.96,-184.09 532.46,-194.09 539.46,-194.09"/>
</g>
<!-- Node13 -->
<g id="node13" class="node">
<title>Node13</title>
<g id="a_node13"><a xlink:title=" ">
<polygon fill="#e0e0e0" stroke="#999999" points="652.96,-184 592.96,-184 592.96,-165 652.96,-165 652.96,-184"/>
<text text-anchor="middle" x="622.96" y="-172" font-family="Helvetica,sans-Serif" font-size="10.00">iostream</text>
</a>
</g>
</g>
<!-- Node3&#45;&gt;Node13 -->
<g id="edge14" class="edge">
<title>Node3&#45;&gt;Node13</title>
<path fill="none" stroke="#63b8ff" d="M549.94,-219.98C563.43,-211.77 584.1,-199.18 600,-189.49"/>
<polygon fill="#63b8ff" stroke="#63b8ff" points="602.01,-192.36 608.73,-184.17 598.37,-186.38 602.01,-192.36"/>
</g>
<!-- Node14 -->
<g id="node14" class="node">
<title>Node14</title>
<g id="a_node14"><a xlink:title=" ">
<polygon fill="#e0e0e0" stroke="#999999" points="239.96,-184 129.96,-184 129.96,-165 239.96,-165 239.96,-184"/>
<text text-anchor="middle" x="184.96" y="-172" font-family="Helvetica,sans-Serif" font-size="10.00">nlohmann/json.hpp</text>
</a>
</g>
</g>
<!-- Node3&#45;&gt;Node14 -->
<g id="edge15" class="edge">
<title>Node3&#45;&gt;Node14</title>
<path fill="none" stroke="#63b8ff" d="M492.22,-221.89C431.44,-212.72 320.97,-196.04 250.37,-185.38"/>
<polygon fill="#63b8ff" stroke="#63b8ff" points="250.67,-181.88 240.26,-183.85 249.62,-188.8 250.67,-181.88"/>
</g>
<!-- Node15 -->
<g id="node15" class="node">
<title>Node15</title>
<g id="a_node15"><a xlink:title=" ">
<polygon fill="#e0e0e0" stroke="#999999" points="1005.96,-129 949.96,-129 949.96,-110 1005.96,-110 1005.96,-129"/>
<text text-anchor="middle" x="977.96" y="-117" font-family="Helvetica,sans-Serif" font-size="10.00">optional</text>
</a>
</g>
</g>
<!-- Node3&#45;&gt;Node15 -->
<g id="edge16" class="edge">
<title>Node3&#45;&gt;Node15</title>
<path fill="none" stroke="#63b8ff" d="M579.77,-226.57C681.85,-221.71 929.09,-207.61 957.96,-184 971.1,-173.26 975.74,-153.97 977.32,-139.45"/>
<polygon fill="#63b8ff" stroke="#63b8ff" points="980.84,-139.31 978.03,-129.09 973.85,-138.83 980.84,-139.31"/>
</g>
<!-- Node16 -->
<g id="node16" class="node">
<title>Node16</title>
<g id="a_node16"><a xlink:title=" ">
<polygon fill="#e0e0e0" stroke="#999999" points="439.96,-184 383.96,-184 383.96,-165 439.96,-165 439.96,-184"/>
<text text-anchor="middle" x="411.96" y="-172" font-family="Helvetica,sans-Serif" font-size="10.00">sstream</text>
</a>
</g>
</g>
<!-- Node3&#45;&gt;Node16 -->
<g id="edge17" class="edge">
<title>Node3&#45;&gt;Node16</title>
<path fill="none" stroke="#63b8ff" d="M516.04,-219.98C495.91,-211.38 464.58,-197.99 441.55,-188.15"/>
<polygon fill="#63b8ff" stroke="#63b8ff" points="442.82,-184.88 432.25,-184.17 440.07,-191.32 442.82,-184.88"/>
</g>
<!-- Node17 -->
<g id="node17" class="node">
<title>Node17</title>
<g id="a_node17"><a xlink:title=" ">
<polygon fill="#e0e0e0" stroke="#999999" points="1536.46,-19 1467.46,-19 1467.46,0 1536.46,0 1536.46,-19"/>
<text text-anchor="middle" x="1501.96" y="-7" font-family="Helvetica,sans-Serif" font-size="10.00">type_traits</text>
</a>
</g>
</g>
<!-- Node3&#45;&gt;Node17 -->
<g id="edge18" class="edge">
<title>Node3&#45;&gt;Node17</title>
<path fill="none" stroke="#63b8ff" d="M579.54,-228.04C696.38,-226.36 1026.18,-218.65 1297.96,-184 1422.9,-168.07 1458.86,-175.36 1575.96,-129 1618.85,-112.02 1641.6,-114.34 1663.96,-74 1689.74,-27.49 1603.46,-14.92 1547.05,-11.6"/>
<polygon fill="#63b8ff" stroke="#63b8ff" points="1547.06,-8.1 1536.89,-11.08 1546.7,-15.09 1547.06,-8.1"/>
</g>
<!-- Node4&#45;&gt;Node5 -->
<g id="edge4" class="edge">
<title>Node4&#45;&gt;Node5</title>
<path fill="none" stroke="#63b8ff" d="M711.33,-164.98C682.45,-156.09 636.95,-142.07 604.76,-132.15"/>
<polygon fill="#63b8ff" stroke="#63b8ff" points="605.4,-128.68 594.81,-129.08 603.34,-135.37 605.4,-128.68"/>
</g>
<!-- Node6&#45;&gt;Node5 -->
<g id="edge6" class="edge">
<title>Node6&#45;&gt;Node5</title>
<path fill="none" stroke="#63b8ff" d="M352.93,-164.98C397.75,-155.67 469.58,-140.74 517.51,-130.78"/>
<polygon fill="#63b8ff" stroke="#63b8ff" points="518.27,-134.19 527.35,-128.73 516.85,-127.34 518.27,-134.19"/>
</g>
<!-- Node7 -->
<g id="node7" class="node">
<title>Node7</title>
<g id="a_node7"><a xlink:title=" ">
<polygon fill="#e0e0e0" stroke="#999999" points="262.96,-129 176.96,-129 176.96,-110 262.96,-110 262.96,-129"/>
<text text-anchor="middle" x="219.96" y="-117" font-family="Helvetica,sans-Serif" font-size="10.00">fmt/ostream.h</text>
</a>
</g>
</g>
<!-- Node6&#45;&gt;Node7 -->
<g id="edge7" class="edge">
<title>Node6&#45;&gt;Node7</title>
<path fill="none" stroke="#63b8ff" d="M297.18,-164.98C282.78,-156.69 260.65,-143.94 243.77,-134.22"/>
<polygon fill="#63b8ff" stroke="#63b8ff" points="245.42,-131.13 235.01,-129.17 241.93,-137.19 245.42,-131.13"/>
</g>
<!-- Node8 -->
<g id="node8" class="node">
<title>Node8</title>
<g id="a_node8"><a xlink:title=" ">
<polygon fill="#e0e0e0" stroke="#999999" points="342.46,-129 281.46,-129 281.46,-110 342.46,-110 342.46,-129"/>
<text text-anchor="middle" x="311.96" y="-117" font-family="Helvetica,sans-Serif" font-size="10.00">fmt/std.h</text>
</a>
</g>
</g>
<!-- Node6&#45;&gt;Node8 -->
<g id="edge8" class="edge">
<title>Node6&#45;&gt;Node8</title>
<path fill="none" stroke="#63b8ff" d="M311.96,-164.75C311.96,-157.8 311.96,-147.85 311.96,-139.13"/>
<polygon fill="#63b8ff" stroke="#63b8ff" points="315.46,-139.09 311.96,-129.09 308.46,-139.09 315.46,-139.09"/>
</g>
<!-- Node9 -->
<g id="node9" class="node">
<title>Node9</title>
<g id="a_node9"><a xlink:title=" ">
<polygon fill="#e0e0e0" stroke="#999999" points="484.96,-129 440.96,-129 440.96,-110 484.96,-110 484.96,-129"/>
<text text-anchor="middle" x="462.96" y="-117" font-family="Helvetica,sans-Serif" font-size="10.00">limits</text>
</a>
</g>
</g>
<!-- Node6&#45;&gt;Node9 -->
<g id="edge9" class="edge">
<title>Node6&#45;&gt;Node9</title>
<path fill="none" stroke="#63b8ff" d="M336.22,-164.98C362.03,-155.93 402.95,-141.56 431.28,-131.62"/>
<polygon fill="#63b8ff" stroke="#63b8ff" points="432.45,-134.92 440.73,-128.3 430.14,-128.31 432.45,-134.92"/>
</g>
<!-- Node6&#45;&gt;Node10 -->
<g id="edge10" class="edge">
<title>Node6&#45;&gt;Node10</title>
<path fill="none" stroke="#63b8ff" d="M282.08,-164.98C247.09,-155.01 189.52,-138.61 154.93,-128.75"/>
<polygon fill="#63b8ff" stroke="#63b8ff" points="155.56,-125.29 144.98,-125.92 153.64,-132.03 155.56,-125.29"/>
</g>
<!-- Node11 -->
<g id="node11" class="node">
<title>Node11</title>
<g id="a_node11"><a xlink:title=" ">
<polygon fill="#e0e0e0" stroke="#999999" points="408.96,-129 360.96,-129 360.96,-110 408.96,-110 408.96,-129"/>
<text text-anchor="middle" x="384.96" y="-117" font-family="Helvetica,sans-Serif" font-size="10.00">thread</text>
</a>
</g>
</g>
<!-- Node6&#45;&gt;Node11 -->
<g id="edge11" class="edge">
<title>Node6&#45;&gt;Node11</title>
<path fill="none" stroke="#63b8ff" d="M323.69,-164.98C334.69,-157 351.38,-144.88 364.57,-135.31"/>
<polygon fill="#63b8ff" stroke="#63b8ff" points="366.98,-137.88 373.02,-129.17 362.87,-132.21 366.98,-137.88"/>
</g>
<!-- Node19 -->
<g id="node19" class="node">
<title>Node19</title>
<g id="a_node19"><a xlink:href="mem_8h.html" target="_top" xlink:title=" ">
<polygon fill="white" stroke="#666666" points="948.96,-184 862.96,-184 862.96,-165 948.96,-165 948.96,-184"/>
<text text-anchor="middle" x="905.96" y="-172" font-family="Helvetica,sans-Serif" font-size="10.00">ccf/pal/mem.h</text>
</a>
</g>
</g>
<!-- Node18&#45;&gt;Node19 -->
<g id="edge20" class="edge">
<title>Node18&#45;&gt;Node19</title>
<path fill="none" stroke="#63b8ff" d="M951.88,-219.75C943.87,-212.03 932,-200.6 922.34,-191.28"/>
<polygon fill="#63b8ff" stroke="#63b8ff" points="924.5,-188.51 914.88,-184.09 919.65,-193.55 924.5,-188.51"/>
</g>
<!-- Node21 -->
<g id="node21" class="node">
<title>Node21</title>
<g id="a_node21"><a xlink:title=" ">
<polygon fill="#e0e0e0" stroke="#999999" points="709.96,-19 659.96,-19 659.96,0 709.96,0 709.96,-19"/>
<text text-anchor="middle" x="684.96" y="-7" font-family="Helvetica,sans-Serif" font-size="10.00">cstring</text>
</a>
</g>
</g>
<!-- Node18&#45;&gt;Node21 -->
<g id="edge63" class="edge">
<title>Node18&#45;&gt;Node21</title>
<path fill="none" stroke="#63b8ff" d="M932.17,-219.99C909.71,-212.56 878.34,-200.39 853.96,-184 786.03,-138.31 723.68,-61.77 697.71,-27.72"/>
<polygon fill="#63b8ff" stroke="#63b8ff" points="700.18,-25.19 691.37,-19.31 694.59,-29.4 700.18,-25.19"/>
</g>
<!-- Node22 -->
<g id="node22" class="node">
<title>Node22</title>
<g id="a_node22"><a xlink:href="ring__buffer__types_8h.html" target="_top" xlink:title=" ">
<polygon fill="white" stroke="#666666" points="1288.96,-184 1178.96,-184 1178.96,-165 1288.96,-165 1288.96,-184"/>
<text text-anchor="middle" x="1233.96" y="-172" font-family="Helvetica,sans-Serif" font-size="10.00">ring_buffer_types.h</text>
</a>
</g>
</g>
<!-- Node18&#45;&gt;Node22 -->
<g id="edge24" class="edge">
<title>Node18&#45;&gt;Node22</title>
<path fill="none" stroke="#63b8ff" d="M999.5,-221.02C1046.58,-211.88 1126.54,-196.36 1179.79,-186.02"/>
<polygon fill="#63b8ff" stroke="#63b8ff" points="1180.59,-189.43 1189.74,-184.08 1179.26,-182.55 1180.59,-189.43"/>
</g>
<!-- Node18&#45;&gt;Node41 -->
<g id="edge62" class="edge">
<title>Node18&#45;&gt;Node41</title>
<path fill="none" stroke="#63b8ff" d="M968.16,-219.66C982.87,-201.61 1016.55,-160.28 1035.46,-137.08"/>
<polygon fill="#63b8ff" stroke="#63b8ff" points="1038.3,-139.12 1041.91,-129.16 1032.88,-134.7 1038.3,-139.12"/>
</g>
<!-- Node42 -->
<g id="node42" class="node">
<title>Node42</title>
<g id="a_node42"><a xlink:title=" ">
<polygon fill="#e0e0e0" stroke="#999999" points="1108.46,-184 1043.46,-184 1043.46,-165 1108.46,-165 1108.46,-184"/>
<text text-anchor="middle" x="1075.96" y="-172" font-family="Helvetica,sans-Serif" font-size="10.00">functional</text>
</a>
</g>
</g>
<!-- Node18&#45;&gt;Node42 -->
<g id="edge64" class="edge">
<title>Node18&#45;&gt;Node42</title>
<path fill="none" stroke="#63b8ff" d="M979.44,-219.98C997.94,-211.46 1026.64,-198.23 1047.95,-188.41"/>
<polygon fill="#63b8ff" stroke="#63b8ff" points="1049.53,-191.53 1057.15,-184.17 1046.6,-185.18 1049.53,-191.53"/>
</g>
<!-- Node19&#45;&gt;Node9 -->
<g id="edge23" class="edge">
<title>Node19&#45;&gt;Node9</title>
<path fill="none" stroke="#63b8ff" d="M862.95,-169.07C791.45,-161.58 643.65,-145.63 518.96,-129 511.17,-127.96 502.78,-126.74 494.93,-125.56"/>
<polygon fill="#63b8ff" stroke="#63b8ff" points="495.43,-122.09 485.01,-124.03 494.37,-129.01 495.43,-122.09"/>
</g>
<!-- Node20 -->
<g id="node20" class="node">
<title>Node20</title>
<g id="a_node20"><a xlink:title=" ">
<polygon fill="#e0e0e0" stroke="#999999" points="931.46,-129 878.46,-129 878.46,-110 931.46,-110 931.46,-129"/>
<text text-anchor="middle" x="904.96" y="-117" font-family="Helvetica,sans-Serif" font-size="10.00">stdlib.h</text>
</a>
</g>
</g>
<!-- Node19&#45;&gt;Node20 -->
<g id="edge21" class="edge">
<title>Node19&#45;&gt;Node20</title>
<path fill="none" stroke="#63b8ff" d="M905.8,-164.75C905.67,-157.8 905.48,-147.85 905.31,-139.13"/>
<polygon fill="#63b8ff" stroke="#63b8ff" points="908.81,-139.02 905.12,-129.09 901.81,-139.15 908.81,-139.02"/>
</g>
<!-- Node19&#45;&gt;Node21 -->
<g id="edge22" class="edge">
<title>Node19&#45;&gt;Node21</title>
<path fill="none" stroke="#63b8ff" d="M894.39,-164.97C858.67,-138.62 749.84,-58.35 704.8,-25.13"/>
<polygon fill="#63b8ff" stroke="#63b8ff" points="706.81,-22.27 696.69,-19.15 702.66,-27.9 706.81,-22.27"/>
</g>
<!-- Node22&#45;&gt;Node5 -->
<g id="edge57" class="edge">
<title>Node22&#45;&gt;Node5</title>
<path fill="none" stroke="#63b8ff" d="M1178.81,-169.12C1051.59,-159.01 739.13,-134.18 617.02,-124.48"/>
<polygon fill="#63b8ff" stroke="#63b8ff" points="617.08,-120.97 606.84,-123.67 616.53,-127.95 617.08,-120.97"/>
</g>
<!-- Node22&#45;&gt;Node15 -->
<g id="edge58" class="edge">
<title>Node22&#45;&gt;Node15</title>
<path fill="none" stroke="#63b8ff" d="M1190.27,-164.96C1148.17,-156.66 1082.44,-143.5 1016.4,-129.27"/>
<polygon fill="#63b8ff" stroke="#63b8ff" points="1016.74,-125.76 1006.23,-127.07 1015.26,-132.6 1016.74,-125.76"/>
</g>
<!-- Node23 -->
<g id="node23" class="node">
<title>Node23</title>
<g id="a_node23"><a xlink:href="include_2ccf_2ds_2hash_8h.html" target="_top" xlink:title=" ">
<polygon fill="white" stroke="#666666" points="1171.96,-129 1091.96,-129 1091.96,-110 1171.96,-110 1171.96,-129"/>
<text text-anchor="middle" x="1131.96" y="-117" font-family="Helvetica,sans-Serif" font-size="10.00">ccf/ds/hash.h</text>
</a>
</g>
</g>
<!-- Node22&#45;&gt;Node23 -->
<g id="edge25" class="edge">
<title>Node22&#45;&gt;Node23</title>
<path fill="none" stroke="#63b8ff" d="M1217.57,-164.98C1201.39,-156.57 1176.39,-143.59 1157.58,-133.81"/>
<polygon fill="#63b8ff" stroke="#63b8ff" points="1159.14,-130.68 1148.65,-129.17 1155.91,-136.89 1159.14,-130.68"/>
</g>
<!-- Node27 -->
<g id="node27" class="node">
<title>Node27</title>
<g id="a_node27"><a xlink:title=" ">
<polygon fill="#e0e0e0" stroke="#999999" points="1233.46,-19 1186.46,-19 1186.46,0 1233.46,0 1233.46,-19"/>
<text text-anchor="middle" x="1209.96" y="-7" font-family="Helvetica,sans-Serif" font-size="10.00">vector</text>
</a>
</g>
</g>
<!-- Node22&#45;&gt;Node27 -->
<g id="edge61" class="edge">
<title>Node22&#45;&gt;Node27</title>
<path fill="none" stroke="#63b8ff" d="M1232.67,-164.74C1228.91,-139.2 1217.9,-64.43 1212.72,-29.23"/>
<polygon fill="#63b8ff" stroke="#63b8ff" points="1216.18,-28.69 1211.26,-19.31 1209.25,-29.71 1216.18,-28.69"/>
</g>
<!-- Node31 -->
<g id="node31" class="node">
<title>Node31</title>
<g id="a_node31"><a xlink:href="nonstd_8h.html" target="_top" xlink:title=" ">
<polygon fill="white" stroke="#666666" points="1401.96,-74 1311.96,-74 1311.96,-55 1401.96,-55 1401.96,-74"/>
<text text-anchor="middle" x="1356.96" y="-62" font-family="Helvetica,sans-Serif" font-size="10.00">ccf/ds/nonstd.h</text>
</a>
</g>
</g>
<!-- Node22&#45;&gt;Node31 -->
<g id="edge35" class="edge">
<title>Node22&#45;&gt;Node31</title>
<path fill="none" stroke="#63b8ff" d="M1244.03,-164.66C1264.94,-146.3 1313.33,-103.81 1339.46,-80.87"/>
<polygon fill="#63b8ff" stroke="#63b8ff" points="1341.9,-83.39 1347.1,-74.16 1337.28,-78.13 1341.9,-83.39"/>
</g>
<!-- Node34 -->
<g id="node34" class="node">
<title>Node34</title>
<g id="a_node34"><a xlink:title=" ">
<polygon fill="#e0e0e0" stroke="#999999" points="1448.96,-19 1404.96,-19 1404.96,0 1448.96,0 1448.96,-19"/>
<text text-anchor="middle" x="1426.96" y="-7" font-family="Helvetica,sans-Serif" font-size="10.00">string</text>
</a>
</g>
</g>
<!-- Node22&#45;&gt;Node34 -->
<g id="edge60" class="edge">
<title>Node22&#45;&gt;Node34</title>
<path fill="none" stroke="#63b8ff" d="M1289.18,-168.88C1391.27,-159 1602.82,-131.87 1642.96,-74 1707.93,19.68 1849.45,-107.36 1459.21,-18.9"/>
<polygon fill="#63b8ff" stroke="#63b8ff" points="1459.82,-15.45 1449.29,-16.63 1458.26,-22.28 1459.82,-15.45"/>
</g>
<!-- Node35 -->
<g id="node35" class="node">
<title>Node35</title>
<g id="a_node35"><a xlink:href="serializer_8h.html" target="_top" xlink:title=" ">
<polygon fill="white" stroke="#666666" points="1459.96,-129 1389.96,-129 1389.96,-110 1459.96,-110 1459.96,-129"/>
<text text-anchor="middle" x="1424.96" y="-117" font-family="Helvetica,sans-Serif" font-size="10.00">serializer.h</text>
</a>
</g>
</g>
<!-- Node22&#45;&gt;Node35 -->
<g id="edge43" class="edge">
<title>Node22&#45;&gt;Node35</title>
<path fill="none" stroke="#63b8ff" d="M1264.65,-164.98C1297.13,-155.97 1348.56,-141.7 1384.37,-131.76"/>
<polygon fill="#63b8ff" stroke="#63b8ff" points="1385.33,-135.13 1394.03,-129.08 1383.46,-128.38 1385.33,-135.13"/>
</g>
<!-- Node39 -->
<g id="node39" class="node">
<title>Node39</title>
<g id="a_node39"><a xlink:title=" ">
<polygon fill="#e0e0e0" stroke="#999999" points="1557.96,-74 1517.96,-74 1517.96,-55 1557.96,-55 1557.96,-74"/>
<text text-anchor="middle" x="1537.96" y="-62" font-family="Helvetica,sans-Serif" font-size="10.00">span</text>
</a>
</g>
</g>
<!-- Node22&#45;&gt;Node39 -->
<g id="edge59" class="edge">
<title>Node22&#45;&gt;Node39</title>
<path fill="none" stroke="#63b8ff" d="M1289.42,-171.57C1338.86,-167.91 1412.01,-157.61 1468.96,-129 1491.58,-117.64 1512.18,-96.65 1524.86,-81.93"/>
<polygon fill="#63b8ff" stroke="#63b8ff" points="1527.67,-84.02 1531.38,-74.1 1522.29,-79.55 1527.67,-84.02"/>
</g>
<!-- Node22&#45;&gt;Node41 -->
<g id="edge56" class="edge">
<title>Node22&#45;&gt;Node41</title>
<path fill="none" stroke="#63b8ff" d="M1204.24,-164.98C1171.42,-155.58 1118.65,-140.46 1083.89,-130.51"/>
<polygon fill="#63b8ff" stroke="#63b8ff" points="1084.73,-127.11 1074.15,-127.72 1082.8,-133.84 1084.73,-127.11"/>
</g>
<!-- Node24 -->
<g id="node24" class="node">
<title>Node24</title>
<g id="a_node24"><a xlink:href="siphash_8h.html" target="_top" xlink:title=" ">
<polygon fill="white" stroke="#666666" points="1179.46,-74 1084.46,-74 1084.46,-55 1179.46,-55 1179.46,-74"/>
<text text-anchor="middle" x="1131.96" y="-62" font-family="Helvetica,sans-Serif" font-size="10.00">ccf/ds/siphash.h</text>
</a>
</g>
</g>
<!-- Node23&#45;&gt;Node24 -->
<g id="edge26" class="edge">
<title>Node23&#45;&gt;Node24</title>
<path fill="none" stroke="#63b8ff" d="M1131.96,-109.75C1131.96,-102.8 1131.96,-92.85 1131.96,-84.13"/>
<polygon fill="#63b8ff" stroke="#63b8ff" points="1135.46,-84.09 1131.96,-74.09 1128.46,-84.09 1135.46,-84.09"/>
</g>
<!-- Node26 -->
<g id="node26" class="node">
<title>Node26</title>
<g id="a_node26"><a xlink:title=" ">
<polygon fill="#e0e0e0" stroke="#999999" points="941.96,-19 891.96,-19 891.96,0 941.96,0 941.96,-19"/>
<text text-anchor="middle" x="916.96" y="-7" font-family="Helvetica,sans-Serif" font-size="10.00">cstdint</text>
</a>
</g>
</g>
<!-- Node23&#45;&gt;Node26 -->
<g id="edge31" class="edge">
<title>Node23&#45;&gt;Node26</title>
<path fill="none" stroke="#63b8ff" d="M1091.88,-111.37C1088.86,-110.89 1085.87,-110.43 1082.96,-110 1016.97,-100.3 829.21,-123.91 784.96,-74 754.47,-39.61 832.83,-22.13 881.54,-14.82"/>
<polygon fill="#63b8ff" stroke="#63b8ff" points="882.32,-18.24 891.73,-13.37 881.33,-11.31 882.32,-18.24"/>
</g>
<!-- Node23&#45;&gt;Node27 -->
<g id="edge34" class="edge">
<title>Node23&#45;&gt;Node27</title>
<path fill="none" stroke="#63b8ff" d="M1147.61,-109.85C1160.41,-102.03 1178.12,-89.4 1188.96,-74 1198.47,-60.5 1203.89,-42.41 1206.84,-28.99"/>
<polygon fill="#63b8ff" stroke="#63b8ff" points="1210.3,-29.5 1208.76,-19.02 1203.43,-28.17 1210.3,-29.5"/>
</g>
<!-- Node28 -->
<g id="node28" class="node">
<title>Node28</title>
<g id="a_node28"><a xlink:title=" ">
<polygon fill="#e0e0e0" stroke="#999999" points="1001.96,-19 959.96,-19 959.96,0 1001.96,0 1001.96,-19"/>
<text text-anchor="middle" x="980.96" y="-7" font-family="Helvetica,sans-Serif" font-size="10.00">array</text>
</a>
</g>
</g>
<!-- Node23&#45;&gt;Node28 -->
<g id="edge30" class="edge">
<title>Node23&#45;&gt;Node28</title>
<path fill="none" stroke="#63b8ff" d="M1091.87,-111.41C1088.86,-110.92 1085.86,-110.44 1082.96,-110 1022.25,-100.75 849.46,-120.17 808.96,-74 745.17,-1.27 653.27,-97.32 949.88,-19.22"/>
<polygon fill="#63b8ff" stroke="#63b8ff" points="950.91,-22.56 959.68,-16.61 949.11,-15.8 950.91,-22.56"/>
</g>
<!-- Node29 -->
<g id="node29" class="node">
<title>Node29</title>
<g id="a_node29"><a xlink:title=" ">
<polygon fill="#e0e0e0" stroke="#999999" points="975.46,-74 826.46,-74 826.46,-55 975.46,-55 975.46,-74"/>
<text text-anchor="middle" x="900.96" y="-62" font-family="Helvetica,sans-Serif" font-size="10.00">small_vector/SmallVector.h</text>
</a>
</g>
</g>
<!-- Node23&#45;&gt;Node29 -->
<g id="edge32" class="edge">
<title>Node23&#45;&gt;Node29</title>
<path fill="none" stroke="#63b8ff" d="M1094.85,-109.98C1054.97,-100.84 991.5,-86.27 948.12,-76.32"/>
<polygon fill="#63b8ff" stroke="#63b8ff" points="948.9,-72.91 938.37,-74.08 947.33,-79.73 948.9,-72.91"/>
</g>
<!-- Node30 -->
<g id="node30" class="node">
<title>Node30</title>
<g id="a_node30"><a xlink:title=" ">
<polygon fill="#e0e0e0" stroke="#999999" points="1093.46,-19 1020.46,-19 1020.46,0 1093.46,0 1093.46,-19"/>
<text text-anchor="middle" x="1056.96" y="-7" font-family="Helvetica,sans-Serif" font-size="10.00">string_view</text>
</a>
</g>
</g>
<!-- Node23&#45;&gt;Node30 -->
<g id="edge33" class="edge">
<title>Node23&#45;&gt;Node30</title>
<path fill="none" stroke="#63b8ff" d="M1091.87,-111.42C1088.86,-110.93 1085.86,-110.45 1082.96,-110 1024.23,-100.92 857.06,-118.76 817.96,-74 812.41,-67.64 812.57,-61.49 817.96,-55 818.16,-54.77 941.16,-31.95 1010.6,-19.08"/>
<polygon fill="#63b8ff" stroke="#63b8ff" points="1011.25,-22.53 1020.44,-17.26 1009.97,-15.64 1011.25,-22.53"/>
</g>
<!-- Node25 -->
<g id="node25" class="node">
<title>Node25</title>
<g id="a_node25"><a xlink:title=" ">
<polygon fill="#e0e0e0" stroke="#999999" points="1164.46,-19 1111.46,-19 1111.46,0 1164.46,0 1164.46,-19"/>
<text text-anchor="middle" x="1137.96" y="-7" font-family="Helvetica,sans-Serif" font-size="10.00">cstddef</text>
</a>
</g>
</g>
<!-- Node24&#45;&gt;Node25 -->
<g id="edge27" class="edge">
<title>Node24&#45;&gt;Node25</title>
<path fill="none" stroke="#63b8ff" d="M1132.95,-54.75C1133.74,-47.8 1134.87,-37.85 1135.85,-29.13"/>
<polygon fill="#63b8ff" stroke="#63b8ff" points="1139.34,-29.42 1136.99,-19.09 1132.39,-28.63 1139.34,-29.42"/>
</g>
<!-- Node24&#45;&gt;Node26 -->
<g id="edge28" class="edge">
<title>Node24&#45;&gt;Node26</title>
<path fill="none" stroke="#63b8ff" d="M1096.92,-54.93C1062.44,-46.48 1008.05,-33.14 951.96,-19.24"/>
<polygon fill="#63b8ff" stroke="#63b8ff" points="952.76,-15.83 942.21,-16.82 951.07,-22.63 952.76,-15.83"/>
</g>
<!-- Node24&#45;&gt;Node27 -->
<g id="edge29" class="edge">
<title>Node24&#45;&gt;Node27</title>
<path fill="none" stroke="#63b8ff" d="M1144.49,-54.98C1156.36,-46.92 1174.43,-34.65 1188.57,-25.03"/>
<polygon fill="#63b8ff" stroke="#63b8ff" points="1190.9,-27.69 1197.2,-19.17 1186.96,-21.9 1190.9,-27.69"/>
</g>
<!-- Node31&#45;&gt;Node17 -->
<g id="edge41" class="edge">
<title>Node31&#45;&gt;Node17</title>
<path fill="none" stroke="#63b8ff" d="M1380.26,-54.98C1404.22,-46.23 1441.74,-32.51 1468.79,-22.62"/>
<polygon fill="#63b8ff" stroke="#63b8ff" points="1470.05,-25.89 1478.24,-19.17 1467.65,-19.32 1470.05,-25.89"/>
</g>
<!-- Node31&#45;&gt;Node27 -->
<g id="edge42" class="edge">
<title>Node31&#45;&gt;Node27</title>
<path fill="none" stroke="#63b8ff" d="M1333.34,-54.98C1308.91,-46.18 1270.56,-32.35 1243.1,-22.45"/>
<polygon fill="#63b8ff" stroke="#63b8ff" points="1244.12,-19.09 1233.52,-18.99 1241.74,-25.68 1244.12,-19.09"/>
</g>
<!-- Node31&#45;&gt;Node28 -->
<g id="edge37" class="edge">
<title>Node31&#45;&gt;Node28</title>
<path fill="none" stroke="#63b8ff" d="M1311.7,-59.69C1245.46,-53.66 1118.4,-40.35 1011.96,-19 1011.86,-18.98 1011.76,-18.96 1011.66,-18.94"/>
<polygon fill="#63b8ff" stroke="#63b8ff" points="1012.75,-15.6 1002.21,-16.75 1011.16,-22.42 1012.75,-15.6"/>
</g>
<!-- Node31&#45;&gt;Node30 -->
<g id="edge40" class="edge">
<title>Node31&#45;&gt;Node30</title>
<path fill="none" stroke="#63b8ff" d="M1311.52,-55.67C1262.76,-47.24 1182.78,-33.32 1103.75,-19.13"/>
<polygon fill="#63b8ff" stroke="#63b8ff" points="1104.08,-15.63 1093.62,-17.3 1102.84,-22.52 1104.08,-15.63"/>
</g>
<!-- Node32 -->
<g id="node32" class="node">
<title>Node32</title>
<g id="a_node32"><a xlink:title=" ">
<polygon fill="#e0e0e0" stroke="#999999" points="1386.96,-19 1322.96,-19 1322.96,0 1386.96,0 1386.96,-19"/>
<text text-anchor="middle" x="1354.96" y="-7" font-family="Helvetica,sans-Serif" font-size="10.00">algorithm</text>
</a>
</g>
</g>
<!-- Node31&#45;&gt;Node32 -->
<g id="edge36" class="edge">
<title>Node31&#45;&gt;Node32</title>
<path fill="none" stroke="#63b8ff" d="M1356.63,-54.75C1356.37,-47.8 1355.99,-37.85 1355.67,-29.13"/>
<polygon fill="#63b8ff" stroke="#63b8ff" points="1359.16,-28.95 1355.29,-19.09 1352.17,-29.21 1359.16,-28.95"/>
</g>
<!-- Node33 -->
<g id="node33" class="node">
<title>Node33</title>
<g id="a_node33"><a xlink:title=" ">
<polygon fill="#e0e0e0" stroke="#999999" points="1304.46,-19 1255.46,-19 1255.46,0 1304.46,0 1304.46,-19"/>
<text text-anchor="middle" x="1279.96" y="-7" font-family="Helvetica,sans-Serif" font-size="10.00">cctype</text>
</a>
</g>
</g>
<!-- Node31&#45;&gt;Node33 -->
<g id="edge38" class="edge">
<title>Node31&#45;&gt;Node33</title>
<path fill="none" stroke="#63b8ff" d="M1344.59,-54.98C1332.87,-46.92 1315.04,-34.65 1301.08,-25.03"/>
<polygon fill="#63b8ff" stroke="#63b8ff" points="1302.78,-21.96 1292.56,-19.17 1298.81,-27.72 1302.78,-21.96"/>
</g>
<!-- Node31&#45;&gt;Node34 -->
<g id="edge39" class="edge">
<title>Node31&#45;&gt;Node34</title>
<path fill="none" stroke="#63b8ff" d="M1368.21,-54.98C1378.76,-47 1394.76,-34.88 1407.4,-25.31"/>
<polygon fill="#63b8ff" stroke="#63b8ff" points="1409.65,-28 1415.51,-19.17 1405.43,-22.42 1409.65,-28"/>
</g>
<!-- Node35&#45;&gt;Node17 -->
<g id="edge54" class="edge">
<title>Node35&#45;&gt;Node17</title>
<path fill="none" stroke="#63b8ff" d="M1426.99,-109.63C1430.26,-96.71 1437.59,-72.37 1449.96,-55 1458.15,-43.51 1469.93,-33.1 1480.21,-25.25"/>
<polygon fill="#63b8ff" stroke="#63b8ff" points="1482.37,-28.01 1488.38,-19.28 1478.24,-22.35 1482.37,-28.01"/>
</g>
<!-- Node35&#45;&gt;Node27 -->
<g id="edge55" class="edge">
<title>Node35&#45;&gt;Node27</title>
<path fill="none" stroke="#63b8ff" d="M1395.26,-109.95C1370.01,-102.16 1333.15,-89.5 1302.96,-74 1275.61,-59.95 1246.77,-39.2 1228.59,-25.28"/>
<polygon fill="#63b8ff" stroke="#63b8ff" points="1230.62,-22.43 1220.57,-19.06 1226.32,-27.96 1230.62,-22.43"/>
</g>
<!-- Node35&#45;&gt;Node31 -->
<g id="edge44" class="edge">
<title>Node35&#45;&gt;Node31</title>
<path fill="none" stroke="#63b8ff" d="M1414.04,-109.98C1403.89,-102.07 1388.54,-90.11 1376.32,-80.58"/>
<polygon fill="#63b8ff" stroke="#63b8ff" points="1378.13,-77.56 1368.09,-74.17 1373.82,-83.08 1378.13,-77.56"/>
</g>
<!-- Node36 -->
<g id="node36" class="node">
<title>Node36</title>
<g id="a_node36"><a xlink:href="serialized_8h.html" target="_top" xlink:title=" ">
<polygon fill="white" stroke="#666666" points="1066.46,-74 993.46,-74 993.46,-55 1066.46,-55 1066.46,-74"/>
<text text-anchor="middle" x="1029.96" y="-62" font-family="Helvetica,sans-Serif" font-size="10.00">serialized.h</text>
</a>
</g>
</g>
<!-- Node35&#45;&gt;Node36 -->
<g id="edge45" class="edge">
<title>Node35&#45;&gt;Node36</title>
<path fill="none" stroke="#63b8ff" d="M1389.95,-114.69C1328.69,-107.89 1197.89,-92.73 1076.78,-74.04"/>
<polygon fill="#63b8ff" stroke="#63b8ff" points="1077.01,-70.54 1066.59,-72.46 1075.93,-77.45 1077.01,-70.54"/>
</g>
<!-- Node38 -->
<g id="node38" class="node">
<title>Node38</title>
<g id="a_node38"><a xlink:title=" ">
<polygon fill="#e0e0e0" stroke="#999999" points="1633.96,-74 1575.96,-74 1575.96,-55 1633.96,-55 1633.96,-74"/>
<text text-anchor="middle" x="1604.96" y="-62" font-family="Helvetica,sans-Serif" font-size="10.00">memory</text>
</a>
</g>
</g>
<!-- Node35&#45;&gt;Node38 -->
<g id="edge51" class="edge">
<title>Node35&#45;&gt;Node38</title>
<path fill="none" stroke="#63b8ff" d="M1453.88,-109.98C1484.23,-101.05 1532.13,-86.94 1565.84,-77.02"/>
<polygon fill="#63b8ff" stroke="#63b8ff" points="1567.21,-80.26 1575.82,-74.08 1565.23,-73.55 1567.21,-80.26"/>
</g>
<!-- Node35&#45;&gt;Node39 -->
<g id="edge52" class="edge">
<title>Node35&#45;&gt;Node39</title>
<path fill="none" stroke="#63b8ff" d="M1443.12,-109.98C1461.21,-101.5 1489.25,-88.35 1510.15,-78.54"/>
<polygon fill="#63b8ff" stroke="#63b8ff" points="1511.91,-81.59 1519.48,-74.17 1508.94,-75.25 1511.91,-81.59"/>
</g>
<!-- Node40 -->
<g id="node40" class="node">
<title>Node40</title>
<g id="a_node40"><a xlink:title=" ">
<polygon fill="#e0e0e0" stroke="#999999" points="1499.46,-74 1458.46,-74 1458.46,-55 1499.46,-55 1499.46,-74"/>
<text text-anchor="middle" x="1478.96" y="-62" font-family="Helvetica,sans-Serif" font-size="10.00">tuple</text>
</a>
</g>
</g>
<!-- Node35&#45;&gt;Node40 -->
<g id="edge53" class="edge">
<title>Node35&#45;&gt;Node40</title>
<path fill="none" stroke="#63b8ff" d="M1433.88,-109.75C1441.74,-102.03 1453.39,-90.6 1462.88,-81.28"/>
<polygon fill="#63b8ff" stroke="#63b8ff" points="1465.53,-83.59 1470.21,-74.09 1460.62,-78.6 1465.53,-83.59"/>
</g>
<!-- Node36&#45;&gt;Node21 -->
<g id="edge47" class="edge">
<title>Node36&#45;&gt;Node21</title>
<path fill="none" stroke="#63b8ff" d="M993.15,-56.42C990.38,-55.93 987.63,-55.45 984.96,-55 889.6,-38.93 776.66,-23.01 720.44,-15.3"/>
<polygon fill="#63b8ff" stroke="#63b8ff" points="720.68,-11.8 710.3,-13.91 719.74,-18.74 720.68,-11.8"/>
</g>
<!-- Node36&#45;&gt;Node26 -->
<g id="edge46" class="edge">
<title>Node36&#45;&gt;Node26</title>
<path fill="none" stroke="#63b8ff" d="M1011.81,-54.98C993.71,-46.5 965.68,-33.35 944.78,-23.54"/>
<polygon fill="#63b8ff" stroke="#63b8ff" points="945.99,-20.25 935.45,-19.17 943.02,-26.59 945.99,-20.25"/>
</g>
<!-- Node36&#45;&gt;Node27 -->
<g id="edge50" class="edge">
<title>Node36&#45;&gt;Node27</title>
<path fill="none" stroke="#63b8ff" d="M1058.88,-54.98C1090.94,-45.54 1142.59,-30.34 1176.4,-20.38"/>
<polygon fill="#63b8ff" stroke="#63b8ff" points="1177.68,-23.65 1186.29,-17.47 1175.7,-16.94 1177.68,-23.65"/>
</g>
<!-- Node36&#45;&gt;Node34 -->
<g id="edge49" class="edge">
<title>Node36&#45;&gt;Node34</title>
<path fill="none" stroke="#63b8ff" d="M1066.58,-56.49C1069.75,-55.96 1072.91,-55.45 1075.96,-55 1214.35,-34.46 1253.66,-45.48 1394.82,-18.94"/>
<polygon fill="#63b8ff" stroke="#63b8ff" points="1395.54,-22.36 1404.71,-17.05 1394.23,-15.49 1395.54,-22.36"/>
</g>
<!-- Node36&#45;&gt;Node37 -->
<g id="edge48" class="edge">
<title>Node36&#45;&gt;Node37</title>
<path fill="none" stroke="#63b8ff" d="M993.18,-56.19C990.41,-55.75 987.64,-55.34 984.96,-55 758.15,-25.89 484.07,-14.98 379.92,-11.7"/>
<polygon fill="#63b8ff" stroke="#63b8ff" points="379.9,-8.19 369.8,-11.38 379.69,-15.19 379.9,-8.19"/>
</g>
<!-- Node45 -->
<g id="node45" class="node">
<title>Node45</title>
<g id="a_node45"><a xlink:href="proxy_8h.html" target="_top" xlink:title=" ">
<polygon fill="white" stroke="#666666" points="1640.96,-239 1588.96,-239 1588.96,-220 1640.96,-220 1640.96,-239"/>
<text text-anchor="middle" x="1614.96" y="-227" font-family="Helvetica,sans-Serif" font-size="10.00">proxy.h</text>
</a>
</g>
</g>
<!-- Node44&#45;&gt;Node45 -->
<g id="edge70" class="edge">
<title>Node44&#45;&gt;Node45</title>
<path fill="none" stroke="#63b8ff" d="M1614.96,-274.75C1614.96,-267.8 1614.96,-257.85 1614.96,-249.13"/>
<polygon fill="#63b8ff" stroke="#63b8ff" points="1618.46,-249.09 1614.96,-239.09 1611.46,-249.09 1618.46,-249.09"/>
</g>
<!-- Node47 -->
<g id="node47" class="node">
<title>Node47</title>
<g id="a_node47"><a xlink:title=" ">
<polygon fill="#e0e0e0" stroke="#999999" points="1708.96,-239 1658.96,-239 1658.96,-220 1708.96,-220 1708.96,-239"/>
<text text-anchor="middle" x="1683.96" y="-227" font-family="Helvetica,sans-Serif" font-size="10.00">chrono</text>
</a>
</g>
</g>
<!-- Node44&#45;&gt;Node47 -->
<g id="edge73" class="edge">
<title>Node44&#45;&gt;Node47</title>
<path fill="none" stroke="#63b8ff" d="M1626.05,-274.98C1636.45,-267 1652.22,-254.88 1664.68,-245.31"/>
<polygon fill="#63b8ff" stroke="#63b8ff" points="1666.88,-248.04 1672.67,-239.17 1662.61,-242.49 1666.88,-248.04"/>
</g>
<!-- Node45&#45;&gt;Node38 -->
<g id="edge71" class="edge">
<title>Node45&#45;&gt;Node38</title>
<path fill="none" stroke="#63b8ff" d="M1622.64,-219.7C1629.48,-211.21 1639.02,-197.68 1642.96,-184 1645.3,-175.89 1644.49,-173.3 1642.96,-165 1637.47,-135.25 1623.48,-102.89 1614.1,-83.4"/>
<polygon fill="#63b8ff" stroke="#63b8ff" points="1617.13,-81.64 1609.56,-74.24 1610.86,-84.75 1617.13,-81.64"/>
</g>
<!-- Node46 -->
<g id="node46" class="node">
<title>Node46</title>
<g id="a_node46"><a xlink:title=" ">
<polygon fill="#e0e0e0" stroke="#999999" points="1633.46,-184 1596.46,-184 1596.46,-165 1633.46,-165 1633.46,-184"/>
<text text-anchor="middle" x="1614.96" y="-172" font-family="Helvetica,sans-Serif" font-size="10.00">uv.h</text>
</a>
</g>
</g>
<!-- Node45&#45;&gt;Node46 -->
<g id="edge72" class="edge">
<title>Node45&#45;&gt;Node46</title>
<path fill="none" stroke="#63b8ff" d="M1614.96,-219.75C1614.96,-212.8 1614.96,-202.85 1614.96,-194.13"/>
<polygon fill="#63b8ff" stroke="#63b8ff" points="1618.46,-194.09 1614.96,-184.09 1611.46,-194.09 1618.46,-194.09"/>
</g>
</g>
</svg>
