<?xml version="1.0" encoding="UTF-8" standalone="no"?>
<!DOCTYPE svg PUBLIC "-//W3C//DTD SVG 1.1//EN"
 "http://www.w3.org/Graphics/SVG/1.1/DTD/svg11.dtd">
<!-- Generated by graphviz version 2.43.0 (0)
 -->
<!-- Title: src/node/rpc/network_identity_subsystem.h Pages: 1 -->
<svg width="434pt" height="159pt"
 viewBox="0.00 0.00 434.00 159.00" xmlns="http://www.w3.org/2000/svg" xmlns:xlink="http://www.w3.org/1999/xlink">
<g id="graph0" class="graph" transform="scale(1 1) rotate(0) translate(4 155)">
<title>src/node/rpc/network_identity_subsystem.h</title>
<!-- Node1 -->
<g id="node1" class="node">
<title>Node1</title>
<g id="a_node1"><a xlink:title=" ">
<polygon fill="#999999" stroke="#666666" points="290.5,-151 163.5,-151 163.5,-121 290.5,-121 290.5,-151"/>
<text text-anchor="start" x="171.5" y="-139" font-family="Helvetica,sans-Serif" font-size="10.00">src/node/rpc/network</text>
<text text-anchor="middle" x="227" y="-128" font-family="Helvetica,sans-Serif" font-size="10.00">_identity_subsystem.h</text>
</a>
</g>
</g>
<!-- Node2 -->
<g id="node2" class="node">
<title>Node2</title>
<g id="a_node2"><a xlink:href="external__executor_8cpp.html" target="_top" xlink:title=" ">
<polygon fill="white" stroke="#666666" points="148,-85 0,-85 0,-55 148,-55 148,-85"/>
<text text-anchor="start" x="8" y="-73" font-family="Helvetica,sans-Serif" font-size="10.00">src/apps/external_executor</text>
<text text-anchor="middle" x="74" y="-62" font-family="Helvetica,sans-Serif" font-size="10.00">/external_executor.cpp</text>
</a>
</g>
</g>
<!-- Node1&#45;&gt;Node2 -->
<g id="edge1" class="edge">
<title>Node1&#45;&gt;Node2</title>
<path fill="none" stroke="#63b8ff" d="M184.1,-117.05C159.86,-106.91 130,-94.43 107.5,-85.01"/>
<polygon fill="#63b8ff" stroke="#63b8ff" points="182.85,-120.32 193.42,-120.95 185.55,-113.87 182.85,-120.32"/>
</g>
<!-- Node3 -->
<g id="node3" class="node">
<title>Node3</title>
<g id="a_node3"><a xlink:href="src_2enclave_2enclave_8h.html" target="_top" xlink:title=" ">
<polygon fill="white" stroke="#666666" points="288,-79.5 166,-79.5 166,-60.5 288,-60.5 288,-79.5"/>
<text text-anchor="middle" x="227" y="-67.5" font-family="Helvetica,sans-Serif" font-size="10.00">src/enclave/enclave.h</text>
</a>
</g>
</g>
<!-- Node1&#45;&gt;Node3 -->
<g id="edge2" class="edge">
<title>Node1&#45;&gt;Node3</title>
<path fill="none" stroke="#63b8ff" d="M227,-110.6C227,-99.8 227,-87.78 227,-79.84"/>
<polygon fill="#63b8ff" stroke="#63b8ff" points="223.5,-110.8 227,-120.8 230.5,-110.8 223.5,-110.8"/>
</g>
<!-- Node5 -->
<g id="node5" class="node">
<title>Node5</title>
<g id="a_node5"><a xlink:href="historical__queries__adapter_8cpp.html" target="_top" xlink:title=" ">
<polygon fill="white" stroke="#666666" points="426,-85 306,-85 306,-55 426,-55 426,-85"/>
<text text-anchor="start" x="314" y="-73" font-family="Helvetica,sans-Serif" font-size="10.00">src/node/historical</text>
<text text-anchor="middle" x="366" y="-62" font-family="Helvetica,sans-Serif" font-size="10.00">_queries_adapter.cpp</text>
</a>
</g>
</g>
<!-- Node1&#45;&gt;Node5 -->
<g id="edge4" class="edge">
<title>Node1&#45;&gt;Node5</title>
<path fill="none" stroke="#63b8ff" d="M266.86,-116.65C288.72,-106.58 315.39,-94.3 335.57,-85.01"/>
<polygon fill="#63b8ff" stroke="#63b8ff" points="265.12,-113.59 257.5,-120.95 268.05,-119.95 265.12,-113.59"/>
</g>
<!-- Node4 -->
<g id="node4" class="node">
<title>Node4</title>
<g id="a_node4"><a xlink:href="enclave_2main_8cpp.html" target="_top" xlink:title=" ">
<polygon fill="white" stroke="#666666" points="287,-19 167,-19 167,0 287,0 287,-19"/>
<text text-anchor="middle" x="227" y="-7" font-family="Helvetica,sans-Serif" font-size="10.00">src/enclave/main.cpp</text>
</a>
</g>
</g>
<!-- Node3&#45;&gt;Node4 -->
<g id="edge3" class="edge">
<title>Node3&#45;&gt;Node4</title>
<path fill="none" stroke="#63b8ff" d="M227,-50.16C227,-39.74 227,-27.3 227,-19.17"/>
<polygon fill="#63b8ff" stroke="#63b8ff" points="223.5,-50.37 227,-60.37 230.5,-50.37 223.5,-50.37"/>
</g>
</g>
</svg>
