<?xml version="1.0" encoding="UTF-8" standalone="no"?>
<!DOCTYPE svg PUBLIC "-//W3C//DTD SVG 1.1//EN"
 "http://www.w3.org/Graphics/SVG/1.1/DTD/svg11.dtd">
<!-- Generated by graphviz version 2.43.0 (0)
 -->
<!-- Title: src/node/rpc/node_interface.h Pages: 1 -->
<!--zoomable 533 -->
<svg id="main" version="1.1" xmlns="http://www.w3.org/2000/svg" xmlns:xlink="http://www.w3.org/1999/xlink" xml:space="preserve" onload="init(evt)">
<style type="text/css"><![CDATA[
.edge:hover path { stroke: red; }
.edge:hover polygon { stroke: red; fill: red; }
]]></style>
<script type="text/javascript"><![CDATA[
var edges = document.getElementsByTagName('g');
if (edges && edges.length) {
  for (var i=0;i<edges.length;i++) {
    if (edges[i].id.substr(0,4)=='edge') {
      edges[i].setAttribute('class','edge');
    }
  }
}
]]></script>
        <defs>
                <circle id="rim" cx="0" cy="0" r="7"/>
                <circle id="rim2" cx="0" cy="0" r="3.5"/>
                <g id="zoomPlus">
                        <use xlink:href="#rim" fill="#404040">
                                <set attributeName="fill" to="#808080" begin="zoomplus.mouseover" end="zoomplus.mouseout"/>
                        </use>
                        <path d="M-4,0h8M0,-4v8" fill="none" stroke="white" stroke-width="1.5" pointer-events="none"/>
                </g>
                <g id="zoomMin">
                        <use xlink:href="#rim" fill="#404040">
                                <set attributeName="fill" to="#808080" begin="zoomminus.mouseover" end="zoomminus.mouseout"/>
                        </use>
                        <path d="M-4,0h8" fill="none" stroke="white" stroke-width="1.5" pointer-events="none"/>
                </g>
                <g id="dirArrow">
                        <path fill="none" stroke="white" stroke-width="1.5" d="M0,-3.0v7 M-2.5,-0.5L0,-3.0L2.5,-0.5"/>
                </g>
               <g id="resetDef">
                       <use xlink:href="#rim2" fill="#404040">
                               <set attributeName="fill" to="#808080" begin="reset.mouseover" end="reset.mouseout"/>
                       </use>
               </g>
        </defs>

<script type="text/javascript">
var viewWidth = 2026;
var viewHeight = 533;
var sectionId = 'dynsection-1';
</script>
<script xlink:href="svgpan.js"/>
<svg id="graph" class="graph">
<g id="viewport">
<title>src/node/rpc/node_interface.h</title>
<!-- Node1 -->
<g id="node1" class="node">
<title>Node1</title>
<g id="a_node1"><a xlink:title=" ">
<polygon fill="#999999" stroke="#666666" points="1298.06,-525 1137.06,-525 1137.06,-506 1298.06,-506 1298.06,-525"/>
<text text-anchor="middle" x="1217.56" y="-513" font-family="Helvetica,sans-Serif" font-size="10.00">src/node/rpc/node_interface.h</text>
</a>
</g>
</g>
<!-- Node2 -->
<g id="node2" class="node">
<title>Node2</title>
<g id="a_node2"><a xlink:href="wrap_8cpp.html" target="_top" xlink:title=" ">
<polygon fill="white" stroke="#666666" points="429.06,-266.5 340.06,-266.5 340.06,-247.5 429.06,-247.5 429.06,-266.5"/>
<text text-anchor="middle" x="384.56" y="-254.5" font-family="Helvetica,sans-Serif" font-size="10.00">src/js/wrap.cpp</text>
</a>
</g>
</g>
<!-- Node1&#45;&gt;Node2 -->
<g id="edge1" class="edge">
<title>Node1&#45;&gt;Node2</title>
<path fill="none" stroke="#63b8ff" d="M1126.79,-508.05C857.91,-488.03 79.76,-423.16 6.56,-338 -2.13,-327.89 -2.23,-318.03 6.56,-308 28.27,-283.23 244.64,-266.76 339.92,-260.65"/>
<polygon fill="#63b8ff" stroke="#63b8ff" points="1126.67,-511.55 1136.91,-508.8 1127.19,-504.57 1126.67,-511.55"/>
</g>
<!-- Node3 -->
<g id="node3" class="node">
<title>Node3</title>
<g id="a_node3"><a xlink:href="wrap_8h.html" target="_top" xlink:title=" ">
<polygon fill="white" stroke="#666666" points="728.56,-398.5 650.56,-398.5 650.56,-379.5 728.56,-379.5 728.56,-398.5"/>
<text text-anchor="middle" x="689.56" y="-386.5" font-family="Helvetica,sans-Serif" font-size="10.00">src/js/wrap.h</text>
</a>
</g>
</g>
<!-- Node1&#45;&gt;Node3 -->
<g id="edge2" class="edge">
<title>Node1&#45;&gt;Node3</title>
<path fill="none" stroke="#63b8ff" d="M1162.37,-504.04C1118.19,-495.48 1054.73,-482.74 999.56,-470 896.93,-446.3 776.38,-413.85 720.67,-398.59"/>
<polygon fill="#63b8ff" stroke="#63b8ff" points="1161.84,-507.51 1172.32,-505.97 1163.17,-500.63 1161.84,-507.51"/>
</g>
<!-- Node14 -->
<g id="node14" class="node">
<title>Node14</title>
<g id="a_node14"><a xlink:href="member__frontend_8h.html" target="_top" xlink:title=" ">
<polygon fill="white" stroke="#666666" points="1013.56,-338 893.56,-338 893.56,-308 1013.56,-308 1013.56,-338"/>
<text text-anchor="start" x="901.56" y="-326" font-family="Helvetica,sans-Serif" font-size="10.00">src/node/rpc/member</text>
<text text-anchor="middle" x="953.56" y="-315" font-family="Helvetica,sans-Serif" font-size="10.00">_frontend.h</text>
</a>
</g>
</g>
<!-- Node1&#45;&gt;Node14 -->
<g id="edge43" class="edge">
<title>Node1&#45;&gt;Node14</title>
<path fill="none" stroke="#63b8ff" d="M1180.93,-502.49C1160.03,-494.8 1133.83,-483.69 1112.56,-470 1051.11,-430.45 991.02,-366.44 965.87,-338.18"/>
<polygon fill="#63b8ff" stroke="#63b8ff" points="1179.83,-505.82 1190.42,-505.89 1182.18,-499.23 1179.83,-505.82"/>
</g>
<!-- Node15 -->
<g id="node15" class="node">
<title>Node15</title>
<g id="a_node15"><a xlink:href="node__frontend_8h.html" target="_top" xlink:title=" ">
<polygon fill="white" stroke="#666666" points="1189.56,-332.5 1031.56,-332.5 1031.56,-313.5 1189.56,-313.5 1189.56,-332.5"/>
<text text-anchor="middle" x="1110.56" y="-320.5" font-family="Helvetica,sans-Serif" font-size="10.00">src/node/rpc/node_frontend.h</text>
</a>
</g>
</g>
<!-- Node1&#45;&gt;Node15 -->
<g id="edge48" class="edge">
<title>Node1&#45;&gt;Node15</title>
<path fill="none" stroke="#63b8ff" d="M1175.79,-502.2C1159.51,-495.31 1142.23,-485 1131.56,-470 1100.55,-426.38 1106.18,-356.67 1109.29,-332.55"/>
<polygon fill="#63b8ff" stroke="#63b8ff" points="1174.61,-505.5 1185.2,-505.87 1177.15,-498.98 1174.61,-505.5"/>
</g>
<!-- Node17 -->
<g id="node17" class="node">
<title>Node17</title>
<g id="a_node17"><a xlink:href="historical__queries_8h.html" target="_top" xlink:title=" ">
<polygon fill="white" stroke="#666666" points="1524.56,-206 1418.56,-206 1418.56,-176 1524.56,-176 1524.56,-206"/>
<text text-anchor="start" x="1426.56" y="-194" font-family="Helvetica,sans-Serif" font-size="10.00">src/node/historical</text>
<text text-anchor="middle" x="1471.56" y="-183" font-family="Helvetica,sans-Serif" font-size="10.00">_queries.h</text>
</a>
</g>
</g>
<!-- Node1&#45;&gt;Node17 -->
<g id="edge26" class="edge">
<title>Node1&#45;&gt;Node17</title>
<path fill="none" stroke="#63b8ff" d="M1285.77,-504.25C1386.84,-487.11 1564.56,-448.63 1564.56,-390 1564.56,-390 1564.56,-390 1564.56,-322 1564.56,-285.46 1566.34,-272.06 1545.56,-242 1534.89,-226.57 1517.78,-214.55 1502.69,-206.17"/>
<polygon fill="#63b8ff" stroke="#63b8ff" points="1284.93,-500.84 1275.64,-505.94 1286.08,-507.74 1284.93,-500.84"/>
</g>
<!-- Node19 -->
<g id="node19" class="node">
<title>Node19</title>
<g id="a_node19"><a xlink:href="node__configuration__subsystem_8h.html" target="_top" xlink:title=" ">
<polygon fill="white" stroke="#666666" points="1294.56,-470 1140.56,-470 1140.56,-440 1294.56,-440 1294.56,-470"/>
<text text-anchor="start" x="1148.56" y="-458" font-family="Helvetica,sans-Serif" font-size="10.00">src/node/node_configuration</text>
<text text-anchor="middle" x="1217.56" y="-447" font-family="Helvetica,sans-Serif" font-size="10.00">_subsystem.h</text>
</a>
</g>
</g>
<!-- Node1&#45;&gt;Node19 -->
<g id="edge30" class="edge">
<title>Node1&#45;&gt;Node19</title>
<path fill="none" stroke="#63b8ff" d="M1217.56,-495.65C1217.56,-487.36 1217.56,-477.78 1217.56,-470.11"/>
<polygon fill="#63b8ff" stroke="#63b8ff" points="1214.06,-495.87 1217.56,-505.87 1221.06,-495.87 1214.06,-495.87"/>
</g>
<!-- Node24 -->
<g id="node24" class="node">
<title>Node24</title>
<g id="a_node24"><a xlink:href="acme__subsystem_8h.html" target="_top" xlink:title=" ">
<polygon fill="white" stroke="#666666" points="1716.06,-200.5 1543.06,-200.5 1543.06,-181.5 1716.06,-181.5 1716.06,-200.5"/>
<text text-anchor="middle" x="1629.56" y="-188.5" font-family="Helvetica,sans-Serif" font-size="10.00">src/node/rpc/acme_subsystem.h</text>
</a>
</g>
</g>
<!-- Node1&#45;&gt;Node24 -->
<g id="edge41" class="edge">
<title>Node1&#45;&gt;Node24</title>
<path fill="none" stroke="#63b8ff" d="M1308.21,-510.3C1363.01,-505.22 1433.3,-494.14 1491.56,-470 1547.74,-446.73 1602.56,-450.81 1602.56,-390 1602.56,-390 1602.56,-390 1602.56,-322 1602.56,-275.44 1619.37,-221.42 1626.46,-200.7"/>
<polygon fill="#63b8ff" stroke="#63b8ff" points="1307.82,-506.82 1298.16,-511.18 1308.43,-513.79 1307.82,-506.82"/>
</g>
<!-- Node25 -->
<g id="node25" class="node">
<title>Node25</title>
<g id="a_node25"><a xlink:href="network__identity__subsystem_8h.html" target="_top" xlink:title=" ">
<polygon fill="white" stroke="#666666" points="1800.06,-470 1673.06,-470 1673.06,-440 1800.06,-440 1800.06,-470"/>
<text text-anchor="start" x="1681.06" y="-458" font-family="Helvetica,sans-Serif" font-size="10.00">src/node/rpc/network</text>
<text text-anchor="middle" x="1736.56" y="-447" font-family="Helvetica,sans-Serif" font-size="10.00">_identity_subsystem.h</text>
</a>
</g>
</g>
<!-- Node1&#45;&gt;Node25 -->
<g id="edge44" class="edge">
<title>Node1&#45;&gt;Node25</title>
<path fill="none" stroke="#63b8ff" d="M1305.32,-504.84C1386.17,-495.91 1509.47,-482.22 1616.56,-470 1634.9,-467.91 1654.81,-465.6 1673.04,-463.47"/>
<polygon fill="#63b8ff" stroke="#63b8ff" points="1304.74,-501.38 1295.18,-505.96 1305.51,-508.34 1304.74,-501.38"/>
</g>
<!-- Node28 -->
<g id="node28" class="node">
<title>Node28</title>
<g id="a_node28"><a xlink:href="node__operation_8h.html" target="_top" xlink:title=" ">
<polygon fill="white" stroke="#666666" points="2017.56,-134.5 1853.56,-134.5 1853.56,-115.5 2017.56,-115.5 2017.56,-134.5"/>
<text text-anchor="middle" x="1935.56" y="-122.5" font-family="Helvetica,sans-Serif" font-size="10.00">src/node/rpc/node_operation.h</text>
</a>
</g>
</g>
<!-- Node1&#45;&gt;Node28 -->
<g id="edge49" class="edge">
<title>Node1&#45;&gt;Node28</title>
<path fill="none" stroke="#63b8ff" d="M1308.67,-511.31C1450.46,-505.74 1717.2,-492.6 1809.56,-470 1891.85,-449.87 1982.56,-474.71 1982.56,-390 1982.56,-390 1982.56,-390 1982.56,-256 1982.56,-207.76 1953.59,-155.13 1941.14,-134.74"/>
<polygon fill="#63b8ff" stroke="#63b8ff" points="1308.13,-507.83 1298.27,-511.72 1308.4,-514.83 1308.13,-507.83"/>
</g>
<!-- Node3&#45;&gt;Node2 -->
<g id="edge15" class="edge">
<title>Node3&#45;&gt;Node2</title>
<path fill="none" stroke="#63b8ff" d="M680.21,-370.49C669.36,-351.96 649.7,-323.3 624.56,-308 563.85,-271.03 480.22,-261.02 429.4,-258.52"/>
<polygon fill="#63b8ff" stroke="#63b8ff" points="677.24,-372.36 685.19,-379.37 683.35,-368.94 677.24,-372.36"/>
</g>
<!-- Node4 -->
<g id="node4" class="node">
<title>Node4</title>
<g id="a_node4"><a xlink:href="js__generic__base_8cpp.html" target="_top" xlink:title=" ">
<polygon fill="white" stroke="#666666" points="267.56,-338 149.56,-338 149.56,-308 267.56,-308 267.56,-338"/>
<text text-anchor="start" x="157.56" y="-326" font-family="Helvetica,sans-Serif" font-size="10.00">src/apps/js_generic</text>
<text text-anchor="middle" x="208.56" y="-315" font-family="Helvetica,sans-Serif" font-size="10.00">/js_generic_base.cpp</text>
</a>
</g>
</g>
<!-- Node3&#45;&gt;Node4 -->
<g id="edge3" class="edge">
<title>Node3&#45;&gt;Node4</title>
<path fill="none" stroke="#63b8ff" d="M640.44,-383.38C562.86,-375.78 407.37,-359.35 276.56,-338 273.71,-337.53 270.79,-337.03 267.85,-336.51"/>
<polygon fill="#63b8ff" stroke="#63b8ff" points="640.11,-386.86 650.4,-384.35 640.79,-379.9 640.11,-386.86"/>
</g>
<!-- Node5 -->
<g id="node5" class="node">
<title>Node5</title>
<g id="a_node5"><a xlink:href="src_2enclave_2enclave_8h.html" target="_top" xlink:title=" ">
<polygon fill="white" stroke="#666666" points="1432.56,-74 1310.56,-74 1310.56,-55 1432.56,-55 1432.56,-74"/>
<text text-anchor="middle" x="1371.56" y="-62" font-family="Helvetica,sans-Serif" font-size="10.00">src/enclave/enclave.h</text>
</a>
</g>
</g>
<!-- Node3&#45;&gt;Node5 -->
<g id="edge4" class="edge">
<title>Node3&#45;&gt;Node5</title>
<path fill="none" stroke="#63b8ff" d="M738.61,-378.42C762.95,-371.22 790.86,-358.88 808.56,-338 832.19,-310.12 827.56,-294.54 827.56,-258 827.56,-258 827.56,-258 827.56,-190 827.56,-91.84 1168.37,-71.07 1310.48,-66.68"/>
<polygon fill="#63b8ff" stroke="#63b8ff" points="737.51,-375.09 728.79,-381.1 739.36,-381.84 737.51,-375.09"/>
</g>
<!-- Node7 -->
<g id="node7" class="node">
<title>Node7</title>
<g id="a_node7"><a xlink:href="consensus_8cpp.html" target="_top" xlink:title=" ">
<polygon fill="white" stroke="#666666" points="131.56,-332.5 15.56,-332.5 15.56,-313.5 131.56,-313.5 131.56,-332.5"/>
<text text-anchor="middle" x="73.56" y="-320.5" font-family="Helvetica,sans-Serif" font-size="10.00">src/js/consensus.cpp</text>
</a>
</g>
</g>
<!-- Node3&#45;&gt;Node7 -->
<g id="edge6" class="edge">
<title>Node3&#45;&gt;Node7</title>
<path fill="none" stroke="#63b8ff" d="M640.41,-385.43C544.09,-379.97 323.9,-365.41 140.56,-338 130.81,-336.54 120.33,-334.56 110.63,-332.54"/>
<polygon fill="#63b8ff" stroke="#63b8ff" points="640.26,-388.92 650.44,-385.99 640.65,-381.94 640.26,-388.92"/>
</g>
<!-- Node8 -->
<g id="node8" class="node">
<title>Node8</title>
<g id="a_node8"><a xlink:href="conv_8cpp.html" target="_top" xlink:title=" ">
<polygon fill="white" stroke="#666666" points="373.56,-332.5 285.56,-332.5 285.56,-313.5 373.56,-313.5 373.56,-332.5"/>
<text text-anchor="middle" x="329.56" y="-320.5" font-family="Helvetica,sans-Serif" font-size="10.00">src/js/conv.cpp</text>
</a>
</g>
</g>
<!-- Node3&#45;&gt;Node8 -->
<g id="edge8" class="edge">
<title>Node3&#45;&gt;Node8</title>
<path fill="none" stroke="#63b8ff" d="M639.97,-381.43C579.05,-373.01 472.68,-357.19 382.56,-338 375.11,-336.41 367.15,-334.45 359.71,-332.5"/>
<polygon fill="#63b8ff" stroke="#63b8ff" points="639.7,-384.93 650.08,-382.82 640.65,-377.99 639.7,-384.93"/>
</g>
<!-- Node9 -->
<g id="node9" class="node">
<title>Node9</title>
<g id="a_node9"><a xlink:href="crypto_8cpp.html" target="_top" xlink:title=" ">
<polygon fill="white" stroke="#666666" points="487.56,-332.5 391.56,-332.5 391.56,-313.5 487.56,-313.5 487.56,-332.5"/>
<text text-anchor="middle" x="439.56" y="-320.5" font-family="Helvetica,sans-Serif" font-size="10.00">src/js/crypto.cpp</text>
</a>
</g>
</g>
<!-- Node3&#45;&gt;Node9 -->
<g id="edge10" class="edge">
<title>Node3&#45;&gt;Node9</title>
<path fill="none" stroke="#63b8ff" d="M646.37,-376.94C597.08,-364.32 517.53,-343.96 472.82,-332.51"/>
<polygon fill="#63b8ff" stroke="#63b8ff" points="645.55,-380.35 656.1,-379.44 647.28,-373.56 645.55,-380.35"/>
</g>
<!-- Node10 -->
<g id="node10" class="node">
<title>Node10</title>
<g id="a_node10"><a xlink:href="historical_8cpp.html" target="_top" xlink:title=" ">
<polygon fill="white" stroke="#666666" points="615.56,-332.5 505.56,-332.5 505.56,-313.5 615.56,-313.5 615.56,-332.5"/>
<text text-anchor="middle" x="560.56" y="-320.5" font-family="Helvetica,sans-Serif" font-size="10.00">src/js/historical.cpp</text>
</a>
</g>
</g>
<!-- Node3&#45;&gt;Node10 -->
<g id="edge12" class="edge">
<title>Node3&#45;&gt;Node10</title>
<path fill="none" stroke="#63b8ff" d="M663.08,-374.86C637.66,-362.25 599.99,-343.56 578.09,-332.7"/>
<polygon fill="#63b8ff" stroke="#63b8ff" points="661.65,-378.06 672.16,-379.37 664.76,-371.79 661.65,-378.06"/>
</g>
<!-- Node11 -->
<g id="node11" class="node">
<title>Node11</title>
<g id="a_node11"><a xlink:href="openenclave_8cpp.html" target="_top" xlink:title=" ">
<polygon fill="white" stroke="#666666" points="799.56,-332.5 671.56,-332.5 671.56,-313.5 799.56,-313.5 799.56,-332.5"/>
<text text-anchor="middle" x="735.56" y="-320.5" font-family="Helvetica,sans-Serif" font-size="10.00">src/js/openenclave.cpp</text>
</a>
</g>
</g>
<!-- Node3&#45;&gt;Node11 -->
<g id="edge14" class="edge">
<title>Node3&#45;&gt;Node11</title>
<path fill="none" stroke="#63b8ff" d="M701.85,-370.91C710.64,-358.68 722.12,-342.7 729.16,-332.91"/>
<polygon fill="#63b8ff" stroke="#63b8ff" points="698.76,-369.21 695.76,-379.37 704.44,-373.29 698.76,-369.21"/>
</g>
<!-- Node12 -->
<g id="node12" class="node">
<title>Node12</title>
<g id="a_node12"><a xlink:href="node__state_8h.html" target="_top" xlink:title=" ">
<polygon fill="white" stroke="#666666" points="1210.56,-200.5 1086.56,-200.5 1086.56,-181.5 1210.56,-181.5 1210.56,-200.5"/>
<text text-anchor="middle" x="1148.56" y="-188.5" font-family="Helvetica,sans-Serif" font-size="10.00">src/node/node_state.h</text>
</a>
</g>
</g>
<!-- Node3&#45;&gt;Node12 -->
<g id="edge16" class="edge">
<title>Node3&#45;&gt;Node12</title>
<path fill="none" stroke="#63b8ff" d="M734.78,-376.86C765.74,-368.34 807.25,-355.15 841.56,-338 862.41,-327.58 865.22,-321 884.56,-308 929.38,-277.88 937.64,-264.84 986.56,-242 1027.37,-222.95 1077.26,-208.81 1110.81,-200.52"/>
<polygon fill="#63b8ff" stroke="#63b8ff" points="733.86,-373.48 725.11,-379.46 735.68,-380.24 733.86,-373.48"/>
</g>
<!-- Node3&#45;&gt;Node14 -->
<g id="edge20" class="edge">
<title>Node3&#45;&gt;Node14</title>
<path fill="none" stroke="#63b8ff" d="M734.83,-377.02C779.31,-366.24 847.34,-349.75 895.71,-338.02"/>
<polygon fill="#63b8ff" stroke="#63b8ff" points="733.79,-373.68 724.89,-379.44 735.43,-380.48 733.79,-373.68"/>
</g>
<!-- Node3&#45;&gt;Node15 -->
<g id="edge22" class="edge">
<title>Node3&#45;&gt;Node15</title>
<path fill="none" stroke="#63b8ff" d="M738.76,-380.75C803.76,-371.14 921.79,-353.58 1022.56,-338 1033.87,-336.25 1046,-334.34 1057.52,-332.51"/>
<polygon fill="#63b8ff" stroke="#63b8ff" points="738.17,-377.3 728.79,-382.22 739.2,-384.22 738.17,-377.3"/>
</g>
<!-- Node6 -->
<g id="node6" class="node">
<title>Node6</title>
<g id="a_node6"><a xlink:href="enclave_2main_8cpp.html" target="_top" xlink:title=" ">
<polygon fill="white" stroke="#666666" points="1431.56,-19 1311.56,-19 1311.56,0 1431.56,0 1431.56,-19"/>
<text text-anchor="middle" x="1371.56" y="-7" font-family="Helvetica,sans-Serif" font-size="10.00">src/enclave/main.cpp</text>
</a>
</g>
</g>
<!-- Node5&#45;&gt;Node6 -->
<g id="edge5" class="edge">
<title>Node5&#45;&gt;Node6</title>
<path fill="none" stroke="#63b8ff" d="M1371.56,-44.66C1371.56,-35.93 1371.56,-25.99 1371.56,-19.09"/>
<polygon fill="#63b8ff" stroke="#63b8ff" points="1368.06,-44.75 1371.56,-54.75 1375.06,-44.75 1368.06,-44.75"/>
</g>
<!-- Node7&#45;&gt;Node2 -->
<g id="edge7" class="edge">
<title>Node7&#45;&gt;Node2</title>
<path fill="none" stroke="#63b8ff" d="M124.18,-311.4C129.71,-310.25 135.25,-309.1 140.56,-308 211.49,-293.32 294.06,-276.45 342.67,-266.53"/>
<polygon fill="#63b8ff" stroke="#63b8ff" points="123.38,-307.99 114.3,-313.46 124.81,-314.85 123.38,-307.99"/>
</g>
<!-- Node8&#45;&gt;Node2 -->
<g id="edge9" class="edge">
<title>Node8&#45;&gt;Node2</title>
<path fill="none" stroke="#63b8ff" d="M343.63,-305.62C354.22,-293.31 368.32,-276.89 376.91,-266.91"/>
<polygon fill="#63b8ff" stroke="#63b8ff" points="340.84,-303.5 336.98,-313.37 346.15,-308.07 340.84,-303.5"/>
</g>
<!-- Node9&#45;&gt;Node2 -->
<g id="edge11" class="edge">
<title>Node9&#45;&gt;Node2</title>
<path fill="none" stroke="#63b8ff" d="M425.49,-305.62C414.9,-293.31 400.8,-276.89 392.21,-266.91"/>
<polygon fill="#63b8ff" stroke="#63b8ff" points="422.97,-308.07 432.14,-313.37 428.28,-303.5 422.97,-308.07"/>
</g>
<!-- Node10&#45;&gt;Node2 -->
<g id="edge13" class="edge">
<title>Node10&#45;&gt;Node2</title>
<path fill="none" stroke="#63b8ff" d="M527.12,-309.84C492.35,-297.2 438.81,-277.73 408.2,-266.6"/>
<polygon fill="#63b8ff" stroke="#63b8ff" points="526.23,-313.24 536.82,-313.37 528.62,-306.66 526.23,-313.24"/>
</g>
<!-- Node12&#45;&gt;Node5 -->
<g id="edge17" class="edge">
<title>Node12&#45;&gt;Node5</title>
<path fill="none" stroke="#63b8ff" d="M1148.23,-171.06C1148.98,-152.85 1153.1,-125.82 1169.56,-110 1189.5,-90.84 1258.55,-78.63 1310.41,-71.94"/>
<polygon fill="#63b8ff" stroke="#63b8ff" points="1144.73,-171.04 1148.11,-181.08 1151.73,-171.12 1144.73,-171.04"/>
</g>
<!-- Node13 -->
<g id="node13" class="node">
<title>Node13</title>
<g id="a_node13"><a xlink:href="gov__effects_8h.html" target="_top" xlink:title=" ">
<polygon fill="white" stroke="#666666" points="1322.56,-134.5 1178.56,-134.5 1178.56,-115.5 1322.56,-115.5 1322.56,-134.5"/>
<text text-anchor="middle" x="1250.56" y="-122.5" font-family="Helvetica,sans-Serif" font-size="10.00">src/node/rpc/gov_effects.h</text>
</a>
</g>
</g>
<!-- Node12&#45;&gt;Node13 -->
<g id="edge18" class="edge">
<title>Node12&#45;&gt;Node13</title>
<path fill="none" stroke="#63b8ff" d="M1170.84,-176.02C1190.9,-163.43 1219.76,-145.32 1236.7,-134.7"/>
<polygon fill="#63b8ff" stroke="#63b8ff" points="1168.93,-173.09 1162.32,-181.37 1172.65,-179.02 1168.93,-173.09"/>
</g>
<!-- Node13&#45;&gt;Node5 -->
<g id="edge19" class="edge">
<title>Node13&#45;&gt;Node5</title>
<path fill="none" stroke="#63b8ff" d="M1277.18,-111.13C1300.51,-99.85 1333.77,-83.77 1353.95,-74.02"/>
<polygon fill="#63b8ff" stroke="#63b8ff" points="1275.63,-107.99 1268.16,-115.49 1278.68,-114.29 1275.63,-107.99"/>
</g>
<!-- Node14&#45;&gt;Node5 -->
<g id="edge21" class="edge">
<title>Node14&#45;&gt;Node5</title>
<path fill="none" stroke="#63b8ff" d="M960,-298.35C964.53,-282.32 970.94,-260.73 977.56,-242 988.13,-212.12 985.77,-201.52 1004.56,-176 1031.89,-138.88 1042.51,-128.87 1084.56,-110 1157.59,-77.23 1250.41,-67.99 1310.39,-65.7"/>
<polygon fill="#63b8ff" stroke="#63b8ff" points="956.63,-297.42 957.32,-307.99 963.37,-299.3 956.63,-297.42"/>
</g>
<!-- Node15&#45;&gt;Node5 -->
<g id="edge23" class="edge">
<title>Node15&#45;&gt;Node5</title>
<path fill="none" stroke="#63b8ff" d="M1043.41,-310.49C1021.58,-303.22 999.63,-291.36 986.56,-272 979.1,-260.95 980.84,-254.04 986.56,-242 1044.46,-120.13 1217.17,-82.29 1310.35,-70.63"/>
<polygon fill="#63b8ff" stroke="#63b8ff" points="1042.48,-313.87 1053.06,-313.43 1044.51,-307.17 1042.48,-313.87"/>
</g>
<!-- Node16 -->
<g id="node16" class="node">
<title>Node16</title>
<g id="a_node16"><a xlink:href="jwt__key__auto__refresh_8h.html" target="_top" xlink:title=" ">
<polygon fill="white" stroke="#666666" points="1120.06,-272 995.06,-272 995.06,-242 1120.06,-242 1120.06,-272"/>
<text text-anchor="start" x="1003.06" y="-260" font-family="Helvetica,sans-Serif" font-size="10.00">src/node/jwt_key_auto</text>
<text text-anchor="middle" x="1057.56" y="-249" font-family="Helvetica,sans-Serif" font-size="10.00">_refresh.h</text>
</a>
</g>
</g>
<!-- Node15&#45;&gt;Node16 -->
<g id="edge24" class="edge">
<title>Node15&#45;&gt;Node16</title>
<path fill="none" stroke="#63b8ff" d="M1096.93,-305.54C1088.43,-295.28 1077.6,-282.2 1069.45,-272.36"/>
<polygon fill="#63b8ff" stroke="#63b8ff" points="1094.34,-307.9 1103.41,-313.37 1099.73,-303.43 1094.34,-307.9"/>
</g>
<!-- Node16&#45;&gt;Node12 -->
<g id="edge25" class="edge">
<title>Node16&#45;&gt;Node12</title>
<path fill="none" stroke="#63b8ff" d="M1086.18,-235.87C1103.02,-224.03 1123.47,-209.65 1136.25,-200.66"/>
<polygon fill="#63b8ff" stroke="#63b8ff" points="1083.92,-233.18 1077.76,-241.8 1087.95,-238.91 1083.92,-233.18"/>
</g>
<!-- Node17&#45;&gt;Node5 -->
<g id="edge27" class="edge">
<title>Node17&#45;&gt;Node5</title>
<path fill="none" stroke="#63b8ff" d="M1453.64,-167.69C1431.18,-139.73 1393.78,-93.17 1378.44,-74.07"/>
<polygon fill="#63b8ff" stroke="#63b8ff" points="1451.1,-170.11 1460.09,-175.72 1456.56,-165.73 1451.1,-170.11"/>
</g>
<!-- Node18 -->
<g id="node18" class="node">
<title>Node18</title>
<g id="a_node18"><a xlink:href="historical__transaction__fetcher_8h.html" target="_top" xlink:title=" ">
<polygon fill="white" stroke="#666666" points="1582.06,-140 1457.06,-140 1457.06,-110 1582.06,-110 1582.06,-140"/>
<text text-anchor="start" x="1465.06" y="-128" font-family="Helvetica,sans-Serif" font-size="10.00">src/indexing/historical</text>
<text text-anchor="middle" x="1519.56" y="-117" font-family="Helvetica,sans-Serif" font-size="10.00">_transaction_fetcher.h</text>
</a>
</g>
</g>
<!-- Node17&#45;&gt;Node18 -->
<g id="edge28" class="edge">
<title>Node17&#45;&gt;Node18</title>
<path fill="none" stroke="#63b8ff" d="M1488.42,-167.53C1495.24,-158.43 1502.92,-148.19 1508.94,-140.16"/>
<polygon fill="#63b8ff" stroke="#63b8ff" points="1485.41,-165.7 1482.21,-175.8 1491.01,-169.9 1485.41,-165.7"/>
</g>
<!-- Node18&#45;&gt;Node5 -->
<g id="edge29" class="edge">
<title>Node18&#45;&gt;Node5</title>
<path fill="none" stroke="#63b8ff" d="M1474.51,-106.19C1447.62,-95.57 1414.68,-82.54 1393.42,-74.14"/>
<polygon fill="#63b8ff" stroke="#63b8ff" points="1473.52,-109.57 1484.11,-109.99 1476.1,-103.06 1473.52,-109.57"/>
</g>
<!-- Node20 -->
<g id="node20" class="node">
<title>Node20</title>
<g id="a_node20"><a xlink:href="frontend_8h.html" target="_top" xlink:title=" ">
<polygon fill="white" stroke="#666666" points="1282.06,-398.5 1153.06,-398.5 1153.06,-379.5 1282.06,-379.5 1282.06,-398.5"/>
<text text-anchor="middle" x="1217.56" y="-386.5" font-family="Helvetica,sans-Serif" font-size="10.00">src/node/rpc/frontend.h</text>
</a>
</g>
</g>
<!-- Node19&#45;&gt;Node20 -->
<g id="edge31" class="edge">
<title>Node19&#45;&gt;Node20</title>
<path fill="none" stroke="#63b8ff" d="M1217.56,-429.6C1217.56,-418.8 1217.56,-406.78 1217.56,-398.84"/>
<polygon fill="#63b8ff" stroke="#63b8ff" points="1214.06,-429.8 1217.56,-439.8 1221.06,-429.8 1214.06,-429.8"/>
</g>
<!-- Node20&#45;&gt;Node12 -->
<g id="edge36" class="edge">
<title>Node20&#45;&gt;Node12</title>
<path fill="none" stroke="#63b8ff" d="M1215.62,-368.93C1213.32,-352.15 1208.48,-327.42 1198.56,-308 1188.96,-289.19 1177.16,-290.81 1167.56,-272 1155.36,-248.1 1150.83,-216.16 1149.29,-200.88"/>
<polygon fill="#63b8ff" stroke="#63b8ff" points="1212.18,-369.61 1216.83,-379.12 1219.13,-368.78 1212.18,-369.61"/>
</g>
<!-- Node20&#45;&gt;Node14 -->
<g id="edge37" class="edge">
<title>Node20&#45;&gt;Node14</title>
<path fill="none" stroke="#63b8ff" d="M1172.29,-377.02C1127.82,-366.24 1059.78,-349.75 1011.41,-338.02"/>
<polygon fill="#63b8ff" stroke="#63b8ff" points="1171.69,-380.48 1182.23,-379.44 1173.34,-373.68 1171.69,-380.48"/>
</g>
<!-- Node20&#45;&gt;Node15 -->
<g id="edge38" class="edge">
<title>Node20&#45;&gt;Node15</title>
<path fill="none" stroke="#63b8ff" d="M1194.47,-374.19C1173.41,-361.59 1142.95,-343.37 1125.1,-332.7"/>
<polygon fill="#63b8ff" stroke="#63b8ff" points="1192.75,-377.24 1203.13,-379.37 1196.35,-371.23 1192.75,-377.24"/>
</g>
<!-- Node21 -->
<g id="node21" class="node">
<title>Node21</title>
<g id="a_node21"><a xlink:href="acme__challenge__frontend_8h.html" target="_top" xlink:title=" ">
<polygon fill="white" stroke="#666666" points="1385.56,-338 1245.56,-338 1245.56,-308 1385.56,-308 1385.56,-338"/>
<text text-anchor="start" x="1253.56" y="-326" font-family="Helvetica,sans-Serif" font-size="10.00">src/node/acme_challenge</text>
<text text-anchor="middle" x="1315.56" y="-315" font-family="Helvetica,sans-Serif" font-size="10.00">_frontend.h</text>
</a>
</g>
</g>
<!-- Node20&#45;&gt;Node21 -->
<g id="edge32" class="edge">
<title>Node20&#45;&gt;Node21</title>
<path fill="none" stroke="#63b8ff" d="M1239.59,-373.62C1255.83,-363.01 1277.81,-348.66 1293.95,-338.12"/>
<polygon fill="#63b8ff" stroke="#63b8ff" points="1237.24,-370.97 1230.78,-379.37 1241.06,-376.83 1237.24,-370.97"/>
</g>
<!-- Node23 -->
<g id="node23" class="node">
<title>Node23</title>
<g id="a_node23"><a xlink:href="user__frontend_8h.html" target="_top" xlink:title=" ">
<polygon fill="white" stroke="#666666" points="1536.06,-266.5 1381.06,-266.5 1381.06,-247.5 1536.06,-247.5 1536.06,-266.5"/>
<text text-anchor="middle" x="1458.56" y="-254.5" font-family="Helvetica,sans-Serif" font-size="10.00">src/node/rpc/user_frontend.h</text>
</a>
</g>
</g>
<!-- Node20&#45;&gt;Node23 -->
<g id="edge39" class="edge">
<title>Node20&#45;&gt;Node23</title>
<path fill="none" stroke="#63b8ff" d="M1292.36,-377.52C1325.68,-370.28 1364.18,-358.16 1394.56,-338 1423.02,-319.12 1444.79,-283.56 1453.9,-266.96"/>
<polygon fill="#63b8ff" stroke="#63b8ff" points="1291.28,-374.17 1282.2,-379.62 1292.7,-381.03 1291.28,-374.17"/>
</g>
<!-- Node21&#45;&gt;Node5 -->
<g id="edge33" class="edge">
<title>Node21&#45;&gt;Node5</title>
<path fill="none" stroke="#63b8ff" d="M1325.55,-298.42C1328.77,-290.17 1332.13,-280.78 1334.56,-272 1355.37,-196.89 1367.24,-103.05 1370.58,-74.29"/>
<polygon fill="#63b8ff" stroke="#63b8ff" points="1322.27,-297.21 1321.77,-307.8 1328.76,-299.83 1322.27,-297.21"/>
</g>
<!-- Node22 -->
<g id="node22" class="node">
<title>Node22</title>
<g id="a_node22"><a xlink:href="ccf__acme__client_8h.html" target="_top" xlink:title=" ">
<polygon fill="white" stroke="#666666" points="1325.06,-266.5 1176.06,-266.5 1176.06,-247.5 1325.06,-247.5 1325.06,-266.5"/>
<text text-anchor="middle" x="1250.56" y="-254.5" font-family="Helvetica,sans-Serif" font-size="10.00">src/node/ccf_acme_client.h</text>
</a>
</g>
</g>
<!-- Node21&#45;&gt;Node22 -->
<g id="edge34" class="edge">
<title>Node21&#45;&gt;Node22</title>
<path fill="none" stroke="#63b8ff" d="M1293.83,-300.6C1282.14,-289.1 1268.36,-275.52 1259.54,-266.84"/>
<polygon fill="#63b8ff" stroke="#63b8ff" points="1291.55,-303.27 1301.14,-307.8 1296.47,-298.29 1291.55,-303.27"/>
</g>
<!-- Node22&#45;&gt;Node12 -->
<g id="edge35" class="edge">
<title>Node22&#45;&gt;Node12</title>
<path fill="none" stroke="#63b8ff" d="M1228.28,-242.02C1208.22,-229.43 1179.36,-211.32 1162.42,-200.7"/>
<polygon fill="#63b8ff" stroke="#63b8ff" points="1226.47,-245.02 1236.8,-247.37 1230.19,-239.09 1226.47,-245.02"/>
</g>
<!-- Node23&#45;&gt;Node5 -->
<g id="edge40" class="edge">
<title>Node23&#45;&gt;Node5</title>
<path fill="none" stroke="#63b8ff" d="M1439.43,-240.75C1429.2,-231.66 1417.18,-219.32 1409.56,-206 1383.71,-160.82 1374.86,-97.37 1372.38,-74.31"/>
<polygon fill="#63b8ff" stroke="#63b8ff" points="1437.25,-243.49 1447.13,-247.3 1441.78,-238.16 1437.25,-243.49"/>
</g>
<!-- Node24&#45;&gt;Node5 -->
<g id="edge42" class="edge">
<title>Node24&#45;&gt;Node5</title>
<path fill="none" stroke="#63b8ff" d="M1625.84,-171.57C1621.12,-153.1 1611.12,-125.28 1591.56,-110 1567.27,-91.01 1488.94,-78.49 1432.67,-71.7"/>
<polygon fill="#63b8ff" stroke="#63b8ff" points="1622.45,-172.46 1628.09,-181.43 1629.28,-170.9 1622.45,-172.46"/>
</g>
<!-- Node25&#45;&gt;Node5 -->
<g id="edge46" class="edge">
<title>Node25&#45;&gt;Node5</title>
<path fill="none" stroke="#63b8ff" d="M1749.09,-430.45C1761.47,-404.96 1778.56,-362.74 1778.56,-324 1778.56,-324 1778.56,-324 1778.56,-190 1778.56,-118.6 1546.63,-84.05 1432.93,-71.4"/>
<polygon fill="#63b8ff" stroke="#63b8ff" points="1745.82,-429.17 1744.46,-439.67 1752.08,-432.31 1745.82,-429.17"/>
</g>
<!-- Node26 -->
<g id="node26" class="node">
<title>Node26</title>
<g id="a_node26"><a xlink:href="external__executor_8cpp.html" target="_top" xlink:title=" ">
<polygon fill="white" stroke="#666666" points="1954.56,-404 1806.56,-404 1806.56,-374 1954.56,-374 1954.56,-404"/>
<text text-anchor="start" x="1814.56" y="-392" font-family="Helvetica,sans-Serif" font-size="10.00">src/apps/external_executor</text>
<text text-anchor="middle" x="1880.56" y="-381" font-family="Helvetica,sans-Serif" font-size="10.00">/external_executor.cpp</text>
</a>
</g>
</g>
<!-- Node25&#45;&gt;Node26 -->
<g id="edge45" class="edge">
<title>Node25&#45;&gt;Node26</title>
<path fill="none" stroke="#63b8ff" d="M1777.55,-435.78C1800.25,-425.69 1828.04,-413.34 1849.03,-404.01"/>
<polygon fill="#63b8ff" stroke="#63b8ff" points="1775.88,-432.7 1768.16,-439.95 1778.72,-439.09 1775.88,-432.7"/>
</g>
<!-- Node27 -->
<g id="node27" class="node">
<title>Node27</title>
<g id="a_node27"><a xlink:href="historical__queries__adapter_8cpp.html" target="_top" xlink:title=" ">
<polygon fill="white" stroke="#666666" points="1750.56,-404 1630.56,-404 1630.56,-374 1750.56,-374 1750.56,-404"/>
<text text-anchor="start" x="1638.56" y="-392" font-family="Helvetica,sans-Serif" font-size="10.00">src/node/historical</text>
<text text-anchor="middle" x="1690.56" y="-381" font-family="Helvetica,sans-Serif" font-size="10.00">_queries_adapter.cpp</text>
</a>
</g>
</g>
<!-- Node25&#45;&gt;Node27 -->
<g id="edge47" class="edge">
<title>Node25&#45;&gt;Node27</title>
<path fill="none" stroke="#63b8ff" d="M1720.41,-431.53C1713.87,-422.43 1706.51,-412.19 1700.74,-404.16"/>
<polygon fill="#63b8ff" stroke="#63b8ff" points="1717.67,-433.72 1726.35,-439.8 1723.36,-429.63 1717.67,-433.72"/>
</g>
<!-- Node28&#45;&gt;Node5 -->
<g id="edge50" class="edge">
<title>Node28&#45;&gt;Node5</title>
<path fill="none" stroke="#63b8ff" d="M1843.28,-114.43C1727.39,-102.41 1531.79,-82.12 1432.83,-71.85"/>
<polygon fill="#63b8ff" stroke="#63b8ff" points="1843.24,-117.94 1853.55,-115.49 1843.96,-110.98 1843.24,-117.94"/>
</g>
</g>
</svg>
        <g id="navigator" transform="translate(0 0)" fill="#404254">
                <rect fill="#f2f5e9" fill-opacity="0.5" stroke="#606060" stroke-width=".5" x="0" y="0" width="60" height="60"/>
                <use id="zoomplus" xlink:href="#zoomPlus" x="17" y="9" onmousedown="handleZoom(evt,'in')"/>
                <use id="zoomminus" xlink:href="#zoomMin" x="42" y="9" onmousedown="handleZoom(evt,'out')"/>
                <use id="reset" xlink:href="#resetDef" x="30" y="36" onmousedown="handleReset()"/>
                <g id="arrowUp" xlink:href="#dirArrow" transform="translate(30 24)" onmousedown="handlePan(0,-1)">
                  <use xlink:href="#rim" fill="#404040">
                        <set attributeName="fill" to="#808080" begin="arrowUp.mouseover" end="arrowUp.mouseout"/>
                  </use>
                  <path fill="none" stroke="white" stroke-width="1.5" d="M0,-3.0v7 M-2.5,-0.5L0,-3.0L2.5,-0.5"/>
                </g>
                <g id="arrowRight" xlink:href="#dirArrow" transform="rotate(90) translate(36 -43)" onmousedown="handlePan(1,0)">
                  <use xlink:href="#rim" fill="#404040">
                        <set attributeName="fill" to="#808080" begin="arrowRight.mouseover" end="arrowRight.mouseout"/>
                  </use>
                  <path fill="none" stroke="white" stroke-width="1.5" d="M0,-3.0v7 M-2.5,-0.5L0,-3.0L2.5,-0.5"/>
                </g>
                <g id="arrowDown" xlink:href="#dirArrow" transform="rotate(180) translate(-30 -48)" onmousedown="handlePan(0,1)">
                  <use xlink:href="#rim" fill="#404040">
                        <set attributeName="fill" to="#808080" begin="arrowDown.mouseover" end="arrowDown.mouseout"/>
                  </use>
                  <path fill="none" stroke="white" stroke-width="1.5" d="M0,-3.0v7 M-2.5,-0.5L0,-3.0L2.5,-0.5"/>
                </g>
                <g id="arrowLeft" xlink:href="#dirArrow" transform="rotate(270) translate(-36 17)" onmousedown="handlePan(-1,0)">
                  <use xlink:href="#rim" fill="#404040">
                        <set attributeName="fill" to="#808080" begin="arrowLeft.mouseover" end="arrowLeft.mouseout"/>
                  </use>
                  <path fill="none" stroke="white" stroke-width="1.5" d="M0,-3.0v7 M-2.5,-0.5L0,-3.0L2.5,-0.5"/>
                </g>
        </g>
        <svg viewBox="0 0 15 15" width="100%" height="30px" preserveAspectRatio="xMaxYMin meet">
         <g id="arrow_out" transform="scale(0.3 0.3)">
          <a xlink:href="node__interface_8h__dep__incl_org.svg" target="_base">
           <rect id="button" ry="5" rx="5" y="6" x="6" height="38" width="38"
                fill="#f2f5e9" fill-opacity="0.5" stroke="#606060" stroke-width="1.0"/>
           <path id="arrow"
             d="M 11.500037,31.436501 C 11.940474,20.09759 22.043105,11.32322 32.158766,21.979434 L 37.068811,17.246167 C 37.068811,17.246167 37.088388,32 37.088388,32 L 22.160133,31.978069 C 22.160133,31.978069 26.997745,27.140456 26.997745,27.140456 C 18.528582,18.264221 13.291696,25.230495 11.500037,31.436501 z"
             style="fill:#404040;"/>
          </a>
         </g>
        </svg>
</svg>
