<?xml version="1.0" encoding="UTF-8" standalone="no"?>
<!DOCTYPE svg PUBLIC "-//W3C//DTD SVG 1.1//EN"
 "http://www.w3.org/Graphics/SVG/1.1/DTD/svg11.dtd">
<!-- Generated by graphviz version 2.43.0 (0)
 -->
<!-- Title: src/node/rpc/node_operation_interface.h Pages: 1 -->
<svg width="1939pt" height="599pt"
 viewBox="0.00 0.00 1938.62 599.00" xmlns="http://www.w3.org/2000/svg" xmlns:xlink="http://www.w3.org/1999/xlink">
<g id="graph0" class="graph" transform="scale(1 1) rotate(0) translate(4 595)">
<title>src/node/rpc/node_operation_interface.h</title>
<!-- Node1 -->
<g id="node1" class="node">
<title>Node1</title>
<g id="a_node1"><a xlink:title=" ">
<polygon fill="#999999" stroke="#666666" points="1436.12,-591 1281.12,-591 1281.12,-561 1436.12,-561 1436.12,-591"/>
<text text-anchor="start" x="1289.12" y="-579" font-family="Helvetica,sans-Serif" font-size="10.00">src/node/rpc/node_operation</text>
<text text-anchor="middle" x="1358.62" y="-568" font-family="Helvetica,sans-Serif" font-size="10.00">_interface.h</text>
</a>
</g>
</g>
<!-- Node2 -->
<g id="node2" class="node">
<title>Node2</title>
<g id="a_node2"><a xlink:href="member__frontend_8h.html" target="_top" xlink:title=" ">
<polygon fill="white" stroke="#666666" points="1598.62,-338 1478.62,-338 1478.62,-308 1598.62,-308 1598.62,-338"/>
<text text-anchor="start" x="1486.62" y="-326" font-family="Helvetica,sans-Serif" font-size="10.00">src/node/rpc/member</text>
<text text-anchor="middle" x="1538.62" y="-315" font-family="Helvetica,sans-Serif" font-size="10.00">_frontend.h</text>
</a>
</g>
</g>
<!-- Node1&#45;&gt;Node2 -->
<g id="edge1" class="edge">
<title>Node1&#45;&gt;Node2</title>
<path fill="none" stroke="#63b8ff" d="M1353.16,-550.94C1345.33,-509.74 1336.04,-425.21 1377.62,-374 1390.63,-357.98 1438.15,-344.44 1478.22,-335.51"/>
<polygon fill="#63b8ff" stroke="#63b8ff" points="1349.76,-551.79 1355.19,-560.89 1356.62,-550.39 1349.76,-551.79"/>
</g>
<!-- Node5 -->
<g id="node5" class="node">
<title>Node5</title>
<g id="a_node5"><a xlink:href="node__interface_8h.html" target="_top" xlink:title=" ">
<polygon fill="white" stroke="#666666" points="1313.12,-525 1152.12,-525 1152.12,-506 1313.12,-506 1313.12,-525"/>
<text text-anchor="middle" x="1232.62" y="-513" font-family="Helvetica,sans-Serif" font-size="10.00">src/node/rpc/node_interface.h</text>
</a>
</g>
</g>
<!-- Node1&#45;&gt;Node5 -->
<g id="edge4" class="edge">
<title>Node1&#45;&gt;Node5</title>
<path fill="none" stroke="#63b8ff" d="M1319.36,-556.77C1296.64,-546.22 1269.09,-533.43 1251.23,-525.14"/>
<polygon fill="#63b8ff" stroke="#63b8ff" points="1317.9,-559.95 1328.44,-560.99 1320.85,-553.6 1317.9,-559.95"/>
</g>
<!-- Node29 -->
<g id="node29" class="node">
<title>Node29</title>
<g id="a_node29"><a xlink:href="node__operation_8h.html" target="_top" xlink:title=" ">
<polygon fill="white" stroke="#666666" points="1930.62,-464.5 1766.62,-464.5 1766.62,-445.5 1930.62,-445.5 1930.62,-464.5"/>
<text text-anchor="middle" x="1848.62" y="-452.5" font-family="Helvetica,sans-Serif" font-size="10.00">src/node/rpc/node_operation.h</text>
</a>
</g>
</g>
<!-- Node1&#45;&gt;Node29 -->
<g id="edge53" class="edge">
<title>Node1&#45;&gt;Node29</title>
<path fill="none" stroke="#63b8ff" d="M1426.2,-558.59C1531.94,-532.91 1732.75,-484.14 1813.6,-464.51"/>
<polygon fill="#63b8ff" stroke="#63b8ff" points="1425.16,-555.24 1416.27,-561 1426.82,-562.04 1425.16,-555.24"/>
</g>
<!-- Node3 -->
<g id="node3" class="node">
<title>Node3</title>
<g id="a_node3"><a xlink:href="src_2enclave_2enclave_8h.html" target="_top" xlink:title=" ">
<polygon fill="white" stroke="#666666" points="1395.62,-74 1273.62,-74 1273.62,-55 1395.62,-55 1395.62,-74"/>
<text text-anchor="middle" x="1334.62" y="-62" font-family="Helvetica,sans-Serif" font-size="10.00">src/enclave/enclave.h</text>
</a>
</g>
</g>
<!-- Node2&#45;&gt;Node3 -->
<g id="edge2" class="edge">
<title>Node2&#45;&gt;Node3</title>
<path fill="none" stroke="#63b8ff" d="M1548.54,-298.35C1564.75,-255.53 1590.91,-164.55 1546.62,-110 1527.89,-86.93 1451.53,-75.39 1395.81,-69.93"/>
<polygon fill="#63b8ff" stroke="#63b8ff" points="1545.18,-297.32 1544.78,-307.91 1551.7,-299.88 1545.18,-297.32"/>
</g>
<!-- Node4 -->
<g id="node4" class="node">
<title>Node4</title>
<g id="a_node4"><a xlink:href="enclave_2main_8cpp.html" target="_top" xlink:title=" ">
<polygon fill="white" stroke="#666666" points="1394.62,-19 1274.62,-19 1274.62,0 1394.62,0 1394.62,-19"/>
<text text-anchor="middle" x="1334.62" y="-7" font-family="Helvetica,sans-Serif" font-size="10.00">src/enclave/main.cpp</text>
</a>
</g>
</g>
<!-- Node3&#45;&gt;Node4 -->
<g id="edge3" class="edge">
<title>Node3&#45;&gt;Node4</title>
<path fill="none" stroke="#63b8ff" d="M1334.62,-44.66C1334.62,-35.93 1334.62,-25.99 1334.62,-19.09"/>
<polygon fill="#63b8ff" stroke="#63b8ff" points="1331.12,-44.75 1334.62,-54.75 1338.12,-44.75 1331.12,-44.75"/>
</g>
<!-- Node5&#45;&gt;Node2 -->
<g id="edge45" class="edge">
<title>Node5&#45;&gt;Node2</title>
<path fill="none" stroke="#63b8ff" d="M1260.83,-501.2C1274.55,-493.61 1290.45,-483 1301.62,-470 1332.08,-434.53 1308.89,-404.15 1344.62,-374 1355.04,-365.21 1425.43,-348.44 1478.45,-336.75"/>
<polygon fill="#63b8ff" stroke="#63b8ff" points="1258.99,-498.22 1251.76,-505.97 1262.24,-504.41 1258.99,-498.22"/>
</g>
<!-- Node6 -->
<g id="node6" class="node">
<title>Node6</title>
<g id="a_node6"><a xlink:href="wrap_8cpp.html" target="_top" xlink:title=" ">
<polygon fill="white" stroke="#666666" points="523.12,-266.5 434.12,-266.5 434.12,-247.5 523.12,-247.5 523.12,-266.5"/>
<text text-anchor="middle" x="478.62" y="-254.5" font-family="Helvetica,sans-Serif" font-size="10.00">src/js/wrap.cpp</text>
</a>
</g>
</g>
<!-- Node5&#45;&gt;Node6 -->
<g id="edge5" class="edge">
<title>Node5&#45;&gt;Node6</title>
<path fill="none" stroke="#63b8ff" d="M1186.06,-503.12C1162.91,-496.02 1135.32,-485.27 1113.62,-470 1036.51,-415.72 1060.07,-351.91 976.62,-308 898.48,-266.88 630.5,-259.53 523.39,-258.26"/>
<polygon fill="#63b8ff" stroke="#63b8ff" points="1185.09,-506.49 1195.68,-505.94 1187.07,-499.77 1185.09,-506.49"/>
</g>
<!-- Node7 -->
<g id="node7" class="node">
<title>Node7</title>
<g id="a_node7"><a xlink:href="wrap_8h.html" target="_top" xlink:title=" ">
<polygon fill="white" stroke="#666666" points="766.62,-398.5 688.62,-398.5 688.62,-379.5 766.62,-379.5 766.62,-398.5"/>
<text text-anchor="middle" x="727.62" y="-386.5" font-family="Helvetica,sans-Serif" font-size="10.00">src/js/wrap.h</text>
</a>
</g>
</g>
<!-- Node5&#45;&gt;Node7 -->
<g id="edge6" class="edge">
<title>Node5&#45;&gt;Node7</title>
<path fill="none" stroke="#63b8ff" d="M1161.64,-504.43C1111.09,-496.65 1041.74,-484.73 981.62,-470 895.41,-448.87 795.64,-414.44 751.14,-398.54"/>
<polygon fill="#63b8ff" stroke="#63b8ff" points="1161.4,-507.93 1171.81,-505.98 1162.45,-501.01 1161.4,-507.93"/>
</g>
<!-- Node16 -->
<g id="node16" class="node">
<title>Node16</title>
<g id="a_node16"><a xlink:href="node__frontend_8h.html" target="_top" xlink:title=" ">
<polygon fill="white" stroke="#666666" points="1219.62,-332.5 1061.62,-332.5 1061.62,-313.5 1219.62,-313.5 1219.62,-332.5"/>
<text text-anchor="middle" x="1140.62" y="-320.5" font-family="Helvetica,sans-Serif" font-size="10.00">src/node/rpc/node_frontend.h</text>
</a>
</g>
</g>
<!-- Node5&#45;&gt;Node16 -->
<g id="edge50" class="edge">
<title>Node5&#45;&gt;Node16</title>
<path fill="none" stroke="#63b8ff" d="M1175.03,-502.69C1157.46,-496.1 1140.05,-485.86 1129.62,-470 1100.58,-425.82 1125.99,-357.05 1136.54,-332.81"/>
<polygon fill="#63b8ff" stroke="#63b8ff" points="1174.17,-506.09 1184.77,-505.99 1176.42,-499.46 1174.17,-506.09"/>
</g>
<!-- Node18 -->
<g id="node18" class="node">
<title>Node18</title>
<g id="a_node18"><a xlink:href="historical__queries_8h.html" target="_top" xlink:title=" ">
<polygon fill="white" stroke="#666666" points="131.62,-206 25.62,-206 25.62,-176 131.62,-176 131.62,-206"/>
<text text-anchor="start" x="33.62" y="-194" font-family="Helvetica,sans-Serif" font-size="10.00">src/node/historical</text>
<text text-anchor="middle" x="78.62" y="-183" font-family="Helvetica,sans-Serif" font-size="10.00">_queries.h</text>
</a>
</g>
</g>
<!-- Node5&#45;&gt;Node18 -->
<g id="edge28" class="edge">
<title>Node5&#45;&gt;Node18</title>
<path fill="none" stroke="#63b8ff" d="M1141.86,-513.96C873.87,-511.18 104.62,-494.13 104.62,-390 104.62,-390 104.62,-390 104.62,-322 104.62,-279.19 90.9,-229.96 83.39,-206.24"/>
<polygon fill="#63b8ff" stroke="#63b8ff" points="1141.92,-517.46 1151.95,-514.06 1141.99,-510.46 1141.92,-517.46"/>
</g>
<!-- Node20 -->
<g id="node20" class="node">
<title>Node20</title>
<g id="a_node20"><a xlink:href="node__configuration__subsystem_8h.html" target="_top" xlink:title=" ">
<polygon fill="white" stroke="#666666" points="1292.62,-470 1138.62,-470 1138.62,-440 1292.62,-440 1292.62,-470"/>
<text text-anchor="start" x="1146.62" y="-458" font-family="Helvetica,sans-Serif" font-size="10.00">src/node/node_configuration</text>
<text text-anchor="middle" x="1215.62" y="-447" font-family="Helvetica,sans-Serif" font-size="10.00">_subsystem.h</text>
</a>
</g>
</g>
<!-- Node5&#45;&gt;Node20 -->
<g id="edge32" class="edge">
<title>Node5&#45;&gt;Node20</title>
<path fill="none" stroke="#63b8ff" d="M1227.31,-496.22C1224.86,-487.79 1222,-477.95 1219.72,-470.11"/>
<polygon fill="#63b8ff" stroke="#63b8ff" points="1223.96,-497.24 1230.11,-505.87 1230.68,-495.29 1223.96,-497.24"/>
</g>
<!-- Node25 -->
<g id="node25" class="node">
<title>Node25</title>
<g id="a_node25"><a xlink:href="acme__subsystem_8h.html" target="_top" xlink:title=" ">
<polygon fill="white" stroke="#666666" points="1825.12,-200.5 1652.12,-200.5 1652.12,-181.5 1825.12,-181.5 1825.12,-200.5"/>
<text text-anchor="middle" x="1738.62" y="-188.5" font-family="Helvetica,sans-Serif" font-size="10.00">src/node/rpc/acme_subsystem.h</text>
</a>
</g>
</g>
<!-- Node5&#45;&gt;Node25 -->
<g id="edge43" class="edge">
<title>Node5&#45;&gt;Node25</title>
<path fill="none" stroke="#63b8ff" d="M1323.63,-510.64C1469.3,-501.96 1738.62,-474.48 1738.62,-390 1738.62,-390 1738.62,-390 1738.62,-322 1738.62,-276.18 1738.62,-221.29 1738.62,-200.52"/>
<polygon fill="#63b8ff" stroke="#63b8ff" points="1323.14,-507.17 1313.36,-511.24 1323.54,-514.16 1323.14,-507.17"/>
</g>
<!-- Node26 -->
<g id="node26" class="node">
<title>Node26</title>
<g id="a_node26"><a xlink:href="network__identity__subsystem_8h.html" target="_top" xlink:title=" ">
<polygon fill="white" stroke="#666666" points="1588.12,-470 1461.12,-470 1461.12,-440 1588.12,-440 1588.12,-470"/>
<text text-anchor="start" x="1469.12" y="-458" font-family="Helvetica,sans-Serif" font-size="10.00">src/node/rpc/network</text>
<text text-anchor="middle" x="1524.62" y="-447" font-family="Helvetica,sans-Serif" font-size="10.00">_identity_subsystem.h</text>
</a>
</g>
</g>
<!-- Node5&#45;&gt;Node26 -->
<g id="edge46" class="edge">
<title>Node5&#45;&gt;Node26</title>
<path fill="none" stroke="#63b8ff" d="M1284.91,-504.02C1334.27,-494.14 1408.36,-479.29 1461.09,-468.73"/>
<polygon fill="#63b8ff" stroke="#63b8ff" points="1284.2,-500.6 1275.08,-505.99 1285.57,-507.46 1284.2,-500.6"/>
</g>
<!-- Node5&#45;&gt;Node29 -->
<g id="edge51" class="edge">
<title>Node5&#45;&gt;Node29</title>
<path fill="none" stroke="#63b8ff" d="M1323.53,-508.36C1427.45,-500.97 1602.58,-487.35 1752.62,-470 1766.09,-468.44 1780.58,-466.48 1794.12,-464.52"/>
<polygon fill="#63b8ff" stroke="#63b8ff" points="1323.12,-504.89 1313.39,-509.08 1323.61,-511.87 1323.12,-504.89"/>
</g>
<!-- Node7&#45;&gt;Node2 -->
<g id="edge23" class="edge">
<title>Node7&#45;&gt;Node2</title>
<path fill="none" stroke="#63b8ff" d="M777.16,-385.31C891.43,-378.92 1182.24,-361.56 1424.62,-338 1442.09,-336.3 1461.02,-334.12 1478.34,-331.98"/>
<polygon fill="#63b8ff" stroke="#63b8ff" points="776.77,-381.83 766.98,-385.88 777.16,-388.81 776.77,-381.83"/>
</g>
<!-- Node7&#45;&gt;Node3 -->
<g id="edge8" class="edge">
<title>Node7&#45;&gt;Node3</title>
<path fill="none" stroke="#63b8ff" d="M678.56,-387.26C549.53,-384.8 208.29,-374.85 174.62,-338 165.63,-328.16 166.48,-318.56 174.62,-308 311.32,-130.71 1053.9,-79.6 1273.45,-68.26"/>
<polygon fill="#63b8ff" stroke="#63b8ff" points="678.5,-390.76 688.56,-387.44 678.63,-383.76 678.5,-390.76"/>
</g>
<!-- Node7&#45;&gt;Node6 -->
<g id="edge18" class="edge">
<title>Node7&#45;&gt;Node6</title>
<path fill="none" stroke="#63b8ff" d="M678.35,-386.27C607.58,-382.63 482.56,-371.51 454.62,-338 436.89,-316.73 458.98,-282.66 471.34,-266.74"/>
<polygon fill="#63b8ff" stroke="#63b8ff" points="678.23,-389.77 688.38,-386.76 678.57,-382.78 678.23,-389.77"/>
</g>
<!-- Node8 -->
<g id="node8" class="node">
<title>Node8</title>
<g id="a_node8"><a xlink:href="js__generic__base_8cpp.html" target="_top" xlink:title=" ">
<polygon fill="white" stroke="#666666" points="715.62,-338 597.62,-338 597.62,-308 715.62,-308 715.62,-338"/>
<text text-anchor="start" x="605.62" y="-326" font-family="Helvetica,sans-Serif" font-size="10.00">src/apps/js_generic</text>
<text text-anchor="middle" x="656.62" y="-315" font-family="Helvetica,sans-Serif" font-size="10.00">/js_generic_base.cpp</text>
</a>
</g>
</g>
<!-- Node7&#45;&gt;Node8 -->
<g id="edge7" class="edge">
<title>Node7&#45;&gt;Node8</title>
<path fill="none" stroke="#63b8ff" d="M710.33,-372.41C698.71,-361.94 683.54,-348.26 672.28,-338.12"/>
<polygon fill="#63b8ff" stroke="#63b8ff" points="708.27,-375.27 718.05,-379.37 712.96,-370.07 708.27,-375.27"/>
</g>
<!-- Node9 -->
<g id="node9" class="node">
<title>Node9</title>
<g id="a_node9"><a xlink:href="consensus_8cpp.html" target="_top" xlink:title=" ">
<polygon fill="white" stroke="#666666" points="579.62,-332.5 463.62,-332.5 463.62,-313.5 579.62,-313.5 579.62,-332.5"/>
<text text-anchor="middle" x="521.62" y="-320.5" font-family="Helvetica,sans-Serif" font-size="10.00">src/js/consensus.cpp</text>
</a>
</g>
</g>
<!-- Node7&#45;&gt;Node9 -->
<g id="edge9" class="edge">
<title>Node7&#45;&gt;Node9</title>
<path fill="none" stroke="#63b8ff" d="M690.04,-376.32C649.4,-363.7 585.58,-343.87 549.29,-332.6"/>
<polygon fill="#63b8ff" stroke="#63b8ff" points="689.25,-379.74 699.84,-379.37 691.33,-373.06 689.25,-379.74"/>
</g>
<!-- Node10 -->
<g id="node10" class="node">
<title>Node10</title>
<g id="a_node10"><a xlink:href="conv_8cpp.html" target="_top" xlink:title=" ">
<polygon fill="white" stroke="#666666" points="967.62,-332.5 879.62,-332.5 879.62,-313.5 967.62,-313.5 967.62,-332.5"/>
<text text-anchor="middle" x="923.62" y="-320.5" font-family="Helvetica,sans-Serif" font-size="10.00">src/js/conv.cpp</text>
</a>
</g>
</g>
<!-- Node7&#45;&gt;Node10 -->
<g id="edge11" class="edge">
<title>Node7&#45;&gt;Node10</title>
<path fill="none" stroke="#63b8ff" d="M763.87,-376.16C802.56,-363.53 862.91,-343.82 897.29,-332.6"/>
<polygon fill="#63b8ff" stroke="#63b8ff" points="762.47,-372.94 754.05,-379.37 764.65,-379.59 762.47,-372.94"/>
</g>
<!-- Node11 -->
<g id="node11" class="node">
<title>Node11</title>
<g id="a_node11"><a xlink:href="crypto_8cpp.html" target="_top" xlink:title=" ">
<polygon fill="white" stroke="#666666" points="279.62,-332.5 183.62,-332.5 183.62,-313.5 279.62,-313.5 279.62,-332.5"/>
<text text-anchor="middle" x="231.62" y="-320.5" font-family="Helvetica,sans-Serif" font-size="10.00">src/js/crypto.cpp</text>
</a>
</g>
</g>
<!-- Node7&#45;&gt;Node11 -->
<g id="edge13" class="edge">
<title>Node7&#45;&gt;Node11</title>
<path fill="none" stroke="#63b8ff" d="M678.35,-384.45C596.82,-378.11 428.92,-363.11 288.62,-338 280.4,-336.53 271.59,-334.56 263.42,-332.57"/>
<polygon fill="#63b8ff" stroke="#63b8ff" points="678.09,-387.94 688.32,-385.21 678.62,-380.96 678.09,-387.94"/>
</g>
<!-- Node12 -->
<g id="node12" class="node">
<title>Node12</title>
<g id="a_node12"><a xlink:href="historical_8cpp.html" target="_top" xlink:title=" ">
<polygon fill="white" stroke="#666666" points="407.62,-332.5 297.62,-332.5 297.62,-313.5 407.62,-313.5 407.62,-332.5"/>
<text text-anchor="middle" x="352.62" y="-320.5" font-family="Helvetica,sans-Serif" font-size="10.00">src/js/historical.cpp</text>
</a>
</g>
</g>
<!-- Node7&#45;&gt;Node12 -->
<g id="edge15" class="edge">
<title>Node7&#45;&gt;Node12</title>
<path fill="none" stroke="#63b8ff" d="M678.37,-380.55C617.82,-371.24 511.97,-354.54 421.62,-338 412.48,-336.33 402.69,-334.41 393.44,-332.55"/>
<polygon fill="#63b8ff" stroke="#63b8ff" points="678,-384.03 688.41,-382.08 679.06,-377.11 678,-384.03"/>
</g>
<!-- Node13 -->
<g id="node13" class="node">
<title>Node13</title>
<g id="a_node13"><a xlink:href="openenclave_8cpp.html" target="_top" xlink:title=" ">
<polygon fill="white" stroke="#666666" points="861.62,-332.5 733.62,-332.5 733.62,-313.5 861.62,-313.5 861.62,-332.5"/>
<text text-anchor="middle" x="797.62" y="-320.5" font-family="Helvetica,sans-Serif" font-size="10.00">src/js/openenclave.cpp</text>
</a>
</g>
</g>
<!-- Node7&#45;&gt;Node13 -->
<g id="edge17" class="edge">
<title>Node7&#45;&gt;Node13</title>
<path fill="none" stroke="#63b8ff" d="M744.76,-372.33C758.31,-359.94 776.75,-343.09 787.88,-332.91"/>
<polygon fill="#63b8ff" stroke="#63b8ff" points="742.08,-370.04 737.06,-379.37 746.8,-375.2 742.08,-370.04"/>
</g>
<!-- Node14 -->
<g id="node14" class="node">
<title>Node14</title>
<g id="a_node14"><a xlink:href="node__state_8h.html" target="_top" xlink:title=" ">
<polygon fill="white" stroke="#666666" points="1277.62,-200.5 1153.62,-200.5 1153.62,-181.5 1277.62,-181.5 1277.62,-200.5"/>
<text text-anchor="middle" x="1215.62" y="-188.5" font-family="Helvetica,sans-Serif" font-size="10.00">src/node/node_state.h</text>
</a>
</g>
</g>
<!-- Node7&#45;&gt;Node14 -->
<g id="edge19" class="edge">
<title>Node7&#45;&gt;Node14</title>
<path fill="none" stroke="#63b8ff" d="M776.99,-387.83C829.96,-385.54 914.82,-375.59 976.62,-338 1023.35,-309.58 1008.39,-272.75 1053.62,-242 1085.63,-220.24 1127.5,-207.64 1160.65,-200.53"/>
<polygon fill="#63b8ff" stroke="#63b8ff" points="776.7,-384.34 766.83,-388.19 776.95,-391.33 776.7,-384.34"/>
</g>
<!-- Node7&#45;&gt;Node16 -->
<g id="edge24" class="edge">
<title>Node7&#45;&gt;Node16</title>
<path fill="none" stroke="#63b8ff" d="M776.84,-380.37C854.35,-368.36 1004.39,-345.11 1085.45,-332.55"/>
<polygon fill="#63b8ff" stroke="#63b8ff" points="776.19,-376.93 766.85,-381.92 777.27,-383.85 776.19,-376.93"/>
</g>
<!-- Node9&#45;&gt;Node6 -->
<g id="edge10" class="edge">
<title>Node9&#45;&gt;Node6</title>
<path fill="none" stroke="#63b8ff" d="M510.14,-304.91C501.92,-292.68 491.19,-276.7 484.6,-266.91"/>
<polygon fill="#63b8ff" stroke="#63b8ff" points="507.34,-307.02 515.82,-313.37 513.15,-303.12 507.34,-307.02"/>
</g>
<!-- Node10&#45;&gt;Node6 -->
<g id="edge12" class="edge">
<title>Node10&#45;&gt;Node6</title>
<path fill="none" stroke="#63b8ff" d="M884.22,-310.98C879.66,-309.89 875.05,-308.86 870.62,-308 745.88,-283.68 596.4,-268.37 523.31,-261.77"/>
<polygon fill="#63b8ff" stroke="#63b8ff" points="883.52,-314.41 894.07,-313.46 885.22,-307.63 883.52,-314.41"/>
</g>
<!-- Node11&#45;&gt;Node6 -->
<g id="edge14" class="edge">
<title>Node11&#45;&gt;Node6</title>
<path fill="none" stroke="#63b8ff" d="M274.6,-310.86C323.32,-298.24 401.68,-277.94 445.76,-266.51"/>
<polygon fill="#63b8ff" stroke="#63b8ff" points="273.48,-307.54 264.68,-313.44 275.23,-314.31 273.48,-307.54"/>
</g>
<!-- Node12&#45;&gt;Node6 -->
<g id="edge16" class="edge">
<title>Node12&#45;&gt;Node6</title>
<path fill="none" stroke="#63b8ff" d="M378.82,-308.69C403.64,-296.09 440.2,-277.51 461.5,-266.7"/>
<polygon fill="#63b8ff" stroke="#63b8ff" points="376.95,-305.72 369.61,-313.37 380.12,-311.96 376.95,-305.72"/>
</g>
<!-- Node14&#45;&gt;Node3 -->
<g id="edge20" class="edge">
<title>Node14&#45;&gt;Node3</title>
<path fill="none" stroke="#63b8ff" d="M1245.08,-176.81C1261.8,-168.2 1282.2,-155.64 1296.62,-140 1315.12,-119.93 1326.94,-89.16 1331.92,-74.23"/>
<polygon fill="#63b8ff" stroke="#63b8ff" points="1243.16,-173.86 1235.74,-181.42 1246.25,-180.14 1243.16,-173.86"/>
</g>
<!-- Node15 -->
<g id="node15" class="node">
<title>Node15</title>
<g id="a_node15"><a xlink:href="gov__effects_8h.html" target="_top" xlink:title=" ">
<polygon fill="white" stroke="#666666" points="1287.62,-134.5 1143.62,-134.5 1143.62,-115.5 1287.62,-115.5 1287.62,-134.5"/>
<text text-anchor="middle" x="1215.62" y="-122.5" font-family="Helvetica,sans-Serif" font-size="10.00">src/node/rpc/gov_effects.h</text>
</a>
</g>
</g>
<!-- Node14&#45;&gt;Node15 -->
<g id="edge21" class="edge">
<title>Node14&#45;&gt;Node15</title>
<path fill="none" stroke="#63b8ff" d="M1215.62,-171.08C1215.62,-159.13 1215.62,-144.22 1215.62,-134.91"/>
<polygon fill="#63b8ff" stroke="#63b8ff" points="1212.12,-171.37 1215.62,-181.37 1219.12,-171.37 1212.12,-171.37"/>
</g>
<!-- Node15&#45;&gt;Node3 -->
<g id="edge22" class="edge">
<title>Node15&#45;&gt;Node3</title>
<path fill="none" stroke="#63b8ff" d="M1242.1,-110.98C1265.04,-99.71 1297.55,-83.73 1317.3,-74.02"/>
<polygon fill="#63b8ff" stroke="#63b8ff" points="1240.36,-107.94 1232.93,-115.49 1243.44,-114.22 1240.36,-107.94"/>
</g>
<!-- Node16&#45;&gt;Node3 -->
<g id="edge25" class="edge">
<title>Node16&#45;&gt;Node3</title>
<path fill="none" stroke="#63b8ff" d="M1100.68,-309.44C1082.97,-301.66 1063.85,-289.68 1053.62,-272 1017.4,-209.41 1062.63,-161.36 1134.62,-110 1175.16,-81.08 1231.18,-70.48 1273.61,-66.82"/>
<polygon fill="#63b8ff" stroke="#63b8ff" points="1099.73,-312.84 1110.31,-313.35 1102.36,-306.35 1099.73,-312.84"/>
</g>
<!-- Node17 -->
<g id="node17" class="node">
<title>Node17</title>
<g id="a_node17"><a xlink:href="jwt__key__auto__refresh_8h.html" target="_top" xlink:title=" ">
<polygon fill="white" stroke="#666666" points="1187.12,-272 1062.12,-272 1062.12,-242 1187.12,-242 1187.12,-272"/>
<text text-anchor="start" x="1070.12" y="-260" font-family="Helvetica,sans-Serif" font-size="10.00">src/node/jwt_key_auto</text>
<text text-anchor="middle" x="1124.62" y="-249" font-family="Helvetica,sans-Serif" font-size="10.00">_refresh.h</text>
</a>
</g>
</g>
<!-- Node16&#45;&gt;Node17 -->
<g id="edge26" class="edge">
<title>Node16&#45;&gt;Node17</title>
<path fill="none" stroke="#63b8ff" d="M1135.96,-303.35C1133.49,-293.47 1130.5,-281.51 1128.21,-272.36"/>
<polygon fill="#63b8ff" stroke="#63b8ff" points="1132.64,-304.52 1138.46,-313.37 1139.43,-302.82 1132.64,-304.52"/>
</g>
<!-- Node17&#45;&gt;Node14 -->
<g id="edge27" class="edge">
<title>Node17&#45;&gt;Node14</title>
<path fill="none" stroke="#63b8ff" d="M1153.24,-235.87C1170.09,-224.03 1190.53,-209.65 1203.31,-200.66"/>
<polygon fill="#63b8ff" stroke="#63b8ff" points="1150.98,-233.18 1144.82,-241.8 1155.01,-238.91 1150.98,-233.18"/>
</g>
<!-- Node18&#45;&gt;Node3 -->
<g id="edge29" class="edge">
<title>Node18&#45;&gt;Node3</title>
<path fill="none" stroke="#63b8ff" d="M42.05,-170.73C15.39,-154.31 -12.93,-130.21 6.62,-110 51.15,-63.96 1018.2,-64.31 1273.36,-65.21"/>
<polygon fill="#63b8ff" stroke="#63b8ff" points="40.57,-173.92 50.96,-175.99 44.13,-167.9 40.57,-173.92"/>
</g>
<!-- Node19 -->
<g id="node19" class="node">
<title>Node19</title>
<g id="a_node19"><a xlink:href="historical__transaction__fetcher_8h.html" target="_top" xlink:title=" ">
<polygon fill="white" stroke="#666666" points="141.12,-140 16.12,-140 16.12,-110 141.12,-110 141.12,-140"/>
<text text-anchor="start" x="24.12" y="-128" font-family="Helvetica,sans-Serif" font-size="10.00">src/indexing/historical</text>
<text text-anchor="middle" x="78.62" y="-117" font-family="Helvetica,sans-Serif" font-size="10.00">_transaction_fetcher.h</text>
</a>
</g>
</g>
<!-- Node18&#45;&gt;Node19 -->
<g id="edge30" class="edge">
<title>Node18&#45;&gt;Node19</title>
<path fill="none" stroke="#63b8ff" d="M78.62,-165.54C78.62,-156.96 78.62,-147.61 78.62,-140.16"/>
<polygon fill="#63b8ff" stroke="#63b8ff" points="75.12,-165.8 78.62,-175.8 82.12,-165.8 75.12,-165.8"/>
</g>
<!-- Node19&#45;&gt;Node3 -->
<g id="edge31" class="edge">
<title>Node19&#45;&gt;Node3</title>
<path fill="none" stroke="#63b8ff" d="M151.15,-110.52C152.65,-110.33 154.14,-110.16 155.62,-110 375.53,-85.98 1063.69,-70.81 1273.37,-66.66"/>
<polygon fill="#63b8ff" stroke="#63b8ff" points="150.57,-107.06 141.13,-111.87 151.51,-114 150.57,-107.06"/>
</g>
<!-- Node21 -->
<g id="node21" class="node">
<title>Node21</title>
<g id="a_node21"><a xlink:href="frontend_8h.html" target="_top" xlink:title=" ">
<polygon fill="white" stroke="#666666" points="1292.12,-398.5 1163.12,-398.5 1163.12,-379.5 1292.12,-379.5 1292.12,-398.5"/>
<text text-anchor="middle" x="1227.62" y="-386.5" font-family="Helvetica,sans-Serif" font-size="10.00">src/node/rpc/frontend.h</text>
</a>
</g>
</g>
<!-- Node20&#45;&gt;Node21 -->
<g id="edge33" class="edge">
<title>Node20&#45;&gt;Node21</title>
<path fill="none" stroke="#63b8ff" d="M1220.13,-429.94C1222.17,-419.06 1224.46,-406.86 1225.96,-398.84"/>
<polygon fill="#63b8ff" stroke="#63b8ff" points="1216.69,-429.32 1218.28,-439.8 1223.57,-430.61 1216.69,-429.32"/>
</g>
<!-- Node21&#45;&gt;Node2 -->
<g id="edge39" class="edge">
<title>Node21&#45;&gt;Node2</title>
<path fill="none" stroke="#63b8ff" d="M1279.1,-377.41C1333.94,-366.12 1420.68,-348.27 1478.59,-336.35"/>
<polygon fill="#63b8ff" stroke="#63b8ff" points="1278.33,-373.99 1269.24,-379.44 1279.74,-380.85 1278.33,-373.99"/>
</g>
<!-- Node21&#45;&gt;Node14 -->
<g id="edge38" class="edge">
<title>Node21&#45;&gt;Node14</title>
<path fill="none" stroke="#63b8ff" d="M1228.09,-369.01C1228.3,-359.67 1228.52,-348.25 1228.62,-338 1228.75,-324.67 1229.37,-321.31 1228.62,-308 1226.37,-267.74 1219.76,-219.98 1216.93,-200.7"/>
<polygon fill="#63b8ff" stroke="#63b8ff" points="1224.59,-369.07 1227.85,-379.15 1231.59,-369.23 1224.59,-369.07"/>
</g>
<!-- Node21&#45;&gt;Node16 -->
<g id="edge40" class="edge">
<title>Node21&#45;&gt;Node16</title>
<path fill="none" stroke="#63b8ff" d="M1207.69,-373.33C1190.62,-360.78 1166.63,-343.13 1152.45,-332.7"/>
<polygon fill="#63b8ff" stroke="#63b8ff" points="1205.76,-376.26 1215.89,-379.37 1209.91,-370.62 1205.76,-376.26"/>
</g>
<!-- Node22 -->
<g id="node22" class="node">
<title>Node22</title>
<g id="a_node22"><a xlink:href="acme__challenge__frontend_8h.html" target="_top" xlink:title=" ">
<polygon fill="white" stroke="#666666" points="1415.62,-338 1275.62,-338 1275.62,-308 1415.62,-308 1415.62,-338"/>
<text text-anchor="start" x="1283.62" y="-326" font-family="Helvetica,sans-Serif" font-size="10.00">src/node/acme_challenge</text>
<text text-anchor="middle" x="1345.62" y="-315" font-family="Helvetica,sans-Serif" font-size="10.00">_frontend.h</text>
</a>
</g>
</g>
<!-- Node21&#45;&gt;Node22 -->
<g id="edge34" class="edge">
<title>Node21&#45;&gt;Node22</title>
<path fill="none" stroke="#63b8ff" d="M1252.52,-374.5C1272.21,-363.82 1299.62,-348.95 1319.6,-338.12"/>
<polygon fill="#63b8ff" stroke="#63b8ff" points="1250.66,-371.52 1243.54,-379.37 1253.99,-377.68 1250.66,-371.52"/>
</g>
<!-- Node24 -->
<g id="node24" class="node">
<title>Node24</title>
<g id="a_node24"><a xlink:href="user__frontend_8h.html" target="_top" xlink:title=" ">
<polygon fill="white" stroke="#666666" points="1537.12,-134.5 1382.12,-134.5 1382.12,-115.5 1537.12,-115.5 1537.12,-134.5"/>
<text text-anchor="middle" x="1459.62" y="-122.5" font-family="Helvetica,sans-Serif" font-size="10.00">src/node/rpc/user_frontend.h</text>
</a>
</g>
</g>
<!-- Node21&#45;&gt;Node24 -->
<g id="edge41" class="edge">
<title>Node21&#45;&gt;Node24</title>
<path fill="none" stroke="#63b8ff" d="M1281.59,-377.45C1336.48,-366.24 1414.82,-348.67 1424.62,-338 1479.63,-278.11 1466.33,-166.49 1461.17,-134.67"/>
<polygon fill="#63b8ff" stroke="#63b8ff" points="1280.75,-374.05 1271.64,-379.47 1282.14,-380.91 1280.75,-374.05"/>
</g>
<!-- Node22&#45;&gt;Node3 -->
<g id="edge35" class="edge">
<title>Node22&#45;&gt;Node3</title>
<path fill="none" stroke="#63b8ff" d="M1377.42,-301.61C1387.04,-293.65 1396.42,-283.62 1401.62,-272 1407.07,-259.83 1404.03,-255.11 1401.62,-242 1389.26,-174.62 1352.43,-99.62 1339.32,-74.35"/>
<polygon fill="#63b8ff" stroke="#63b8ff" points="1375.17,-298.93 1369.38,-307.8 1379.44,-304.48 1375.17,-298.93"/>
</g>
<!-- Node23 -->
<g id="node23" class="node">
<title>Node23</title>
<g id="a_node23"><a xlink:href="ccf__acme__client_8h.html" target="_top" xlink:title=" ">
<polygon fill="white" stroke="#666666" points="1392.12,-266.5 1243.12,-266.5 1243.12,-247.5 1392.12,-247.5 1392.12,-266.5"/>
<text text-anchor="middle" x="1317.62" y="-254.5" font-family="Helvetica,sans-Serif" font-size="10.00">src/node/ccf_acme_client.h</text>
</a>
</g>
</g>
<!-- Node22&#45;&gt;Node23 -->
<g id="edge36" class="edge">
<title>Node22&#45;&gt;Node23</title>
<path fill="none" stroke="#63b8ff" d="M1335.39,-298.61C1330.55,-287.56 1325.07,-275.03 1321.49,-266.84"/>
<polygon fill="#63b8ff" stroke="#63b8ff" points="1332.19,-300.04 1339.41,-307.8 1338.61,-297.23 1332.19,-300.04"/>
</g>
<!-- Node23&#45;&gt;Node14 -->
<g id="edge37" class="edge">
<title>Node23&#45;&gt;Node14</title>
<path fill="none" stroke="#63b8ff" d="M1295.34,-242.02C1275.28,-229.43 1246.42,-211.32 1229.49,-200.7"/>
<polygon fill="#63b8ff" stroke="#63b8ff" points="1293.53,-245.02 1303.87,-247.37 1297.25,-239.09 1293.53,-245.02"/>
</g>
<!-- Node24&#45;&gt;Node3 -->
<g id="edge42" class="edge">
<title>Node24&#45;&gt;Node3</title>
<path fill="none" stroke="#63b8ff" d="M1432.13,-111.13C1408.02,-99.85 1373.66,-83.77 1352.82,-74.02"/>
<polygon fill="#63b8ff" stroke="#63b8ff" points="1430.9,-114.42 1441.45,-115.49 1433.87,-108.08 1430.9,-114.42"/>
</g>
<!-- Node25&#45;&gt;Node3 -->
<g id="edge44" class="edge">
<title>Node25&#45;&gt;Node3</title>
<path fill="none" stroke="#63b8ff" d="M1723.86,-174.04C1705.56,-155.36 1672.5,-125.07 1637.62,-110 1558.8,-75.94 1458.84,-67.14 1395.78,-65.29"/>
<polygon fill="#63b8ff" stroke="#63b8ff" points="1721.53,-176.67 1730.97,-181.48 1726.59,-171.84 1721.53,-176.67"/>
</g>
<!-- Node26&#45;&gt;Node3 -->
<g id="edge48" class="edge">
<title>Node26&#45;&gt;Node3</title>
<path fill="none" stroke="#63b8ff" d="M1598.18,-439.31C1633.81,-430.56 1671.13,-418.35 1681.62,-404 1689.49,-393.24 1684.3,-387.06 1681.62,-374 1668.8,-311.49 1618.36,-149.98 1568.62,-110 1542.56,-89.04 1456.01,-76.8 1395.82,-70.63"/>
<polygon fill="#63b8ff" stroke="#63b8ff" points="1597.12,-435.97 1588.2,-441.69 1598.74,-442.78 1597.12,-435.97"/>
</g>
<!-- Node27 -->
<g id="node27" class="node">
<title>Node27</title>
<g id="a_node27"><a xlink:href="external__executor_8cpp.html" target="_top" xlink:title=" ">
<polygon fill="white" stroke="#666666" points="1672.62,-404 1524.62,-404 1524.62,-374 1672.62,-374 1672.62,-404"/>
<text text-anchor="start" x="1532.62" y="-392" font-family="Helvetica,sans-Serif" font-size="10.00">src/apps/external_executor</text>
<text text-anchor="middle" x="1598.62" y="-381" font-family="Helvetica,sans-Serif" font-size="10.00">/external_executor.cpp</text>
</a>
</g>
</g>
<!-- Node26&#45;&gt;Node27 -->
<g id="edge47" class="edge">
<title>Node26&#45;&gt;Node27</title>
<path fill="none" stroke="#63b8ff" d="M1548.67,-433.2C1559.66,-423.7 1572.39,-412.69 1582.24,-404.16"/>
<polygon fill="#63b8ff" stroke="#63b8ff" points="1546.32,-430.61 1541.04,-439.8 1550.9,-435.9 1546.32,-430.61"/>
</g>
<!-- Node28 -->
<g id="node28" class="node">
<title>Node28</title>
<g id="a_node28"><a xlink:href="historical__queries__adapter_8cpp.html" target="_top" xlink:title=" ">
<polygon fill="white" stroke="#666666" points="1506.62,-404 1386.62,-404 1386.62,-374 1506.62,-374 1506.62,-404"/>
<text text-anchor="start" x="1394.62" y="-392" font-family="Helvetica,sans-Serif" font-size="10.00">src/node/historical</text>
<text text-anchor="middle" x="1446.62" y="-381" font-family="Helvetica,sans-Serif" font-size="10.00">_queries_adapter.cpp</text>
</a>
</g>
</g>
<!-- Node26&#45;&gt;Node28 -->
<g id="edge49" class="edge">
<title>Node26&#45;&gt;Node28</title>
<path fill="none" stroke="#63b8ff" d="M1499.27,-433.2C1487.69,-423.7 1474.28,-412.69 1463.88,-404.16"/>
<polygon fill="#63b8ff" stroke="#63b8ff" points="1497.36,-436.16 1507.31,-439.8 1501.8,-430.75 1497.36,-436.16"/>
</g>
<!-- Node29&#45;&gt;Node3 -->
<g id="edge52" class="edge">
<title>Node29&#45;&gt;Node3</title>
<path fill="none" stroke="#63b8ff" d="M1849.8,-435.17C1851.28,-409.89 1853.62,-363.58 1853.62,-324 1853.62,-324 1853.62,-324 1853.62,-190 1853.62,-96.76 1532.88,-73.18 1395.68,-67.35"/>
<polygon fill="#63b8ff" stroke="#63b8ff" points="1846.29,-435.29 1849.18,-445.49 1853.27,-435.72 1846.29,-435.29"/>
</g>
</g>
</svg>
