<?xml version="1.0" encoding="UTF-8" standalone="no"?>
<!DOCTYPE svg PUBLIC "-//W3C//DTD SVG 1.1//EN"
 "http://www.w3.org/Graphics/SVG/1.1/DTD/svg11.dtd">
<!-- Generated by graphviz version 2.43.0 (0)
 -->
<!-- Title: include/ccf/node_startup_state.h Pages: 1 -->
<svg width="1981pt" height="665pt"
 viewBox="0.00 0.00 1981.00 665.00" xmlns="http://www.w3.org/2000/svg" xmlns:xlink="http://www.w3.org/1999/xlink">
<g id="graph0" class="graph" transform="scale(1 1) rotate(0) translate(4 661)">
<title>include/ccf/node_startup_state.h</title>
<!-- Node1 -->
<g id="node1" class="node">
<title>Node1</title>
<g id="a_node1"><a xlink:title=" ">
<polygon fill="#999999" stroke="#666666" points="1004,-657 868,-657 868,-627 1004,-627 1004,-657"/>
<text text-anchor="start" x="876" y="-645" font-family="Helvetica,sans-Serif" font-size="10.00">include/ccf/node_startup</text>
<text text-anchor="middle" x="936" y="-634" font-family="Helvetica,sans-Serif" font-size="10.00">_state.h</text>
</a>
</g>
</g>
<!-- Node2 -->
<g id="node2" class="node">
<title>Node2</title>
<g id="a_node2"><a xlink:href="node__call__types_8h.html" target="_top" xlink:title=" ">
<polygon fill="white" stroke="#666666" points="1272.5,-591 1147.5,-591 1147.5,-561 1272.5,-561 1272.5,-591"/>
<text text-anchor="start" x="1155.5" y="-579" font-family="Helvetica,sans-Serif" font-size="10.00">src/node/rpc/node_call</text>
<text text-anchor="middle" x="1210" y="-568" font-family="Helvetica,sans-Serif" font-size="10.00">_types.h</text>
</a>
</g>
</g>
<!-- Node1&#45;&gt;Node2 -->
<g id="edge1" class="edge">
<title>Node1&#45;&gt;Node2</title>
<path fill="none" stroke="#63b8ff" d="M1006.01,-624.65C1050.53,-614.25 1107.57,-600.93 1150.01,-591.01"/>
<polygon fill="#63b8ff" stroke="#63b8ff" points="1005.07,-621.27 996.13,-626.95 1006.66,-628.09 1005.07,-621.27"/>
</g>
<!-- Node14 -->
<g id="node14" class="node">
<title>Node14</title>
<g id="a_node14"><a xlink:href="node__interface_8h.html" target="_top" xlink:title=" ">
<polygon fill="white" stroke="#666666" points="910.5,-525 749.5,-525 749.5,-506 910.5,-506 910.5,-525"/>
<text text-anchor="middle" x="830" y="-513" font-family="Helvetica,sans-Serif" font-size="10.00">src/node/rpc/node_interface.h</text>
</a>
</g>
</g>
<!-- Node1&#45;&gt;Node14 -->
<g id="edge19" class="edge">
<title>Node1&#45;&gt;Node14</title>
<path fill="none" stroke="#63b8ff" d="M889.01,-622.24C874.68,-614.48 860.07,-604.16 850,-591 834.7,-571.01 831.09,-540.2 830.24,-525.24"/>
<polygon fill="#63b8ff" stroke="#63b8ff" points="887.83,-625.57 898.33,-626.98 891,-619.33 887.83,-625.57"/>
</g>
<!-- Node34 -->
<g id="node34" class="node">
<title>Node34</title>
<g id="a_node34"><a xlink:href="node__operation__interface_8h.html" target="_top" xlink:title=" ">
<polygon fill="white" stroke="#666666" points="1013.5,-591 858.5,-591 858.5,-561 1013.5,-561 1013.5,-591"/>
<text text-anchor="start" x="866.5" y="-579" font-family="Helvetica,sans-Serif" font-size="10.00">src/node/rpc/node_operation</text>
<text text-anchor="middle" x="936" y="-568" font-family="Helvetica,sans-Serif" font-size="10.00">_interface.h</text>
</a>
</g>
</g>
<!-- Node1&#45;&gt;Node34 -->
<g id="edge62" class="edge">
<title>Node1&#45;&gt;Node34</title>
<path fill="none" stroke="#63b8ff" d="M936,-616.54C936,-607.96 936,-598.61 936,-591.16"/>
<polygon fill="#63b8ff" stroke="#63b8ff" points="932.5,-616.8 936,-626.8 939.5,-616.8 932.5,-616.8"/>
</g>
<!-- Node3 -->
<g id="node3" class="node">
<title>Node3</title>
<g id="a_node3"><a xlink:href="call__types_8h.html" target="_top" xlink:title=" ">
<polygon fill="white" stroke="#666666" points="1564.5,-464.5 1427.5,-464.5 1427.5,-445.5 1564.5,-445.5 1564.5,-464.5"/>
<text text-anchor="middle" x="1496" y="-452.5" font-family="Helvetica,sans-Serif" font-size="10.00">src/node/rpc/call_types.h</text>
</a>
</g>
</g>
<!-- Node2&#45;&gt;Node3 -->
<g id="edge2" class="edge">
<title>Node2&#45;&gt;Node3</title>
<path fill="none" stroke="#63b8ff" d="M1282.89,-565.25C1322.85,-557.92 1372.38,-545.51 1413,-525 1444.45,-509.12 1474.47,-479.35 1488.2,-464.66"/>
<polygon fill="#63b8ff" stroke="#63b8ff" points="1282.19,-561.82 1272.95,-567.01 1283.41,-568.71 1282.19,-561.82"/>
</g>
<!-- Node4 -->
<g id="node4" class="node">
<title>Node4</title>
<g id="a_node4"><a xlink:href="common__endpoint__registry_8cpp.html" target="_top" xlink:title=" ">
<polygon fill="white" stroke="#666666" points="1973,-338 1845,-338 1845,-308 1973,-308 1973,-338"/>
<text text-anchor="start" x="1853" y="-326" font-family="Helvetica,sans-Serif" font-size="10.00">src/endpoints/common</text>
<text text-anchor="middle" x="1909" y="-315" font-family="Helvetica,sans-Serif" font-size="10.00">_endpoint_registry.cpp</text>
</a>
</g>
</g>
<!-- Node3&#45;&gt;Node4 -->
<g id="edge3" class="edge">
<title>Node3&#45;&gt;Node4</title>
<path fill="none" stroke="#63b8ff" d="M1560.8,-443.69C1607.85,-435.33 1672.69,-421.97 1728,-404 1784.36,-385.68 1846.95,-355.73 1881.78,-338.13"/>
<polygon fill="#63b8ff" stroke="#63b8ff" points="1559.98,-440.28 1550.74,-445.45 1561.19,-447.18 1559.98,-440.28"/>
</g>
<!-- Node5 -->
<g id="node5" class="node">
<title>Node5</title>
<g id="a_node5"><a xlink:href="wrap_8cpp.html" target="_top" xlink:title=" ">
<polygon fill="white" stroke="#666666" points="641.5,-266.5 552.5,-266.5 552.5,-247.5 641.5,-247.5 641.5,-266.5"/>
<text text-anchor="middle" x="597" y="-254.5" font-family="Helvetica,sans-Serif" font-size="10.00">src/js/wrap.cpp</text>
</a>
</g>
</g>
<!-- Node3&#45;&gt;Node5 -->
<g id="edge4" class="edge">
<title>Node3&#45;&gt;Node5</title>
<path fill="none" stroke="#63b8ff" d="M1464.25,-441.73C1439.28,-431.93 1403.69,-417.62 1373,-404 1328.12,-384.08 1221.35,-321 1174,-308 1123.16,-294.04 768.28,-269.39 641.72,-260.94"/>
<polygon fill="#63b8ff" stroke="#63b8ff" points="1463.01,-445.01 1473.6,-445.39 1465.56,-438.49 1463.01,-445.01"/>
</g>
<!-- Node6 -->
<g id="node6" class="node">
<title>Node6</title>
<g id="a_node6"><a xlink:href="member__frontend_8h.html" target="_top" xlink:title=" ">
<polygon fill="white" stroke="#666666" points="1379,-338 1259,-338 1259,-308 1379,-308 1379,-338"/>
<text text-anchor="start" x="1267" y="-326" font-family="Helvetica,sans-Serif" font-size="10.00">src/node/rpc/member</text>
<text text-anchor="middle" x="1319" y="-315" font-family="Helvetica,sans-Serif" font-size="10.00">_frontend.h</text>
</a>
</g>
</g>
<!-- Node3&#45;&gt;Node6 -->
<g id="edge5" class="edge">
<title>Node3&#45;&gt;Node6</title>
<path fill="none" stroke="#63b8ff" d="M1471.71,-440.23C1455.31,-430.63 1433.39,-417.24 1415,-404 1385.24,-382.58 1352.94,-354.58 1334.42,-338.02"/>
<polygon fill="#63b8ff" stroke="#63b8ff" points="1470.25,-443.42 1480.66,-445.4 1473.76,-437.37 1470.25,-443.42"/>
</g>
<!-- Node9 -->
<g id="node9" class="node">
<title>Node9</title>
<g id="a_node9"><a xlink:href="serialization_8h.html" target="_top" xlink:title=" ">
<polygon fill="white" stroke="#666666" points="1719,-398.5 1571,-398.5 1571,-379.5 1719,-379.5 1719,-398.5"/>
<text text-anchor="middle" x="1645" y="-386.5" font-family="Helvetica,sans-Serif" font-size="10.00">src/node/rpc/serialization.h</text>
</a>
</g>
</g>
<!-- Node3&#45;&gt;Node9 -->
<g id="edge8" class="edge">
<title>Node3&#45;&gt;Node9</title>
<path fill="none" stroke="#63b8ff" d="M1525.43,-441.36C1554.79,-428.75 1599.12,-409.71 1624.75,-398.7"/>
<polygon fill="#63b8ff" stroke="#63b8ff" points="1523.9,-438.21 1516.09,-445.37 1526.66,-444.64 1523.9,-438.21"/>
</g>
<!-- Node7 -->
<g id="node7" class="node">
<title>Node7</title>
<g id="a_node7"><a xlink:href="src_2enclave_2enclave_8h.html" target="_top" xlink:title=" ">
<polygon fill="white" stroke="#666666" points="834,-74 712,-74 712,-55 834,-55 834,-74"/>
<text text-anchor="middle" x="773" y="-62" font-family="Helvetica,sans-Serif" font-size="10.00">src/enclave/enclave.h</text>
</a>
</g>
</g>
<!-- Node6&#45;&gt;Node7 -->
<g id="edge6" class="edge">
<title>Node6&#45;&gt;Node7</title>
<path fill="none" stroke="#63b8ff" d="M1249.12,-310.12C1191.03,-299.69 1113.31,-284.32 1084,-272 953.75,-217.25 819.81,-106 782.91,-74.18"/>
<polygon fill="#63b8ff" stroke="#63b8ff" points="1248.54,-313.57 1258.99,-311.88 1249.76,-306.68 1248.54,-313.57"/>
</g>
<!-- Node8 -->
<g id="node8" class="node">
<title>Node8</title>
<g id="a_node8"><a xlink:href="enclave_2main_8cpp.html" target="_top" xlink:title=" ">
<polygon fill="white" stroke="#666666" points="833,-19 713,-19 713,0 833,0 833,-19"/>
<text text-anchor="middle" x="773" y="-7" font-family="Helvetica,sans-Serif" font-size="10.00">src/enclave/main.cpp</text>
</a>
</g>
</g>
<!-- Node7&#45;&gt;Node8 -->
<g id="edge7" class="edge">
<title>Node7&#45;&gt;Node8</title>
<path fill="none" stroke="#63b8ff" d="M773,-44.66C773,-35.93 773,-25.99 773,-19.09"/>
<polygon fill="#63b8ff" stroke="#63b8ff" points="769.5,-44.75 773,-54.75 776.5,-44.75 769.5,-44.75"/>
</g>
<!-- Node9&#45;&gt;Node4 -->
<g id="edge9" class="edge">
<title>Node9&#45;&gt;Node4</title>
<path fill="none" stroke="#63b8ff" d="M1690.27,-377.02C1734.74,-366.24 1802.78,-349.75 1851.15,-338.02"/>
<polygon fill="#63b8ff" stroke="#63b8ff" points="1689.22,-373.68 1680.33,-379.44 1690.87,-380.48 1689.22,-373.68"/>
</g>
<!-- Node9&#45;&gt;Node6 -->
<g id="edge14" class="edge">
<title>Node9&#45;&gt;Node6</title>
<path fill="none" stroke="#63b8ff" d="M1590.39,-377.51C1538.35,-367.48 1457.8,-351.87 1388,-338 1385.12,-337.43 1382.18,-336.84 1379.21,-336.25"/>
<polygon fill="#63b8ff" stroke="#63b8ff" points="1589.93,-380.98 1600.41,-379.44 1591.25,-374.11 1589.93,-380.98"/>
</g>
<!-- Node10 -->
<g id="node10" class="node">
<title>Node10</title>
<g id="a_node10"><a xlink:href="node__state_8h.html" target="_top" xlink:title=" ">
<polygon fill="white" stroke="#666666" points="1493,-200.5 1369,-200.5 1369,-181.5 1493,-181.5 1493,-200.5"/>
<text text-anchor="middle" x="1431" y="-188.5" font-family="Helvetica,sans-Serif" font-size="10.00">src/node/node_state.h</text>
</a>
</g>
</g>
<!-- Node9&#45;&gt;Node10 -->
<g id="edge10" class="edge">
<title>Node9&#45;&gt;Node10</title>
<path fill="none" stroke="#63b8ff" d="M1704.53,-376.36C1725.72,-369.05 1747.42,-357.18 1760,-338 1786.61,-297.42 1749.59,-266.99 1708,-242 1672.66,-220.76 1563.55,-205.8 1493.28,-198.06"/>
<polygon fill="#63b8ff" stroke="#63b8ff" points="1703.35,-373.07 1694.87,-379.42 1705.46,-379.74 1703.35,-373.07"/>
</g>
<!-- Node12 -->
<g id="node12" class="node">
<title>Node12</title>
<g id="a_node12"><a xlink:href="node__frontend_8h.html" target="_top" xlink:title=" ">
<polygon fill="white" stroke="#666666" points="1555,-332.5 1397,-332.5 1397,-313.5 1555,-313.5 1555,-332.5"/>
<text text-anchor="middle" x="1476" y="-320.5" font-family="Helvetica,sans-Serif" font-size="10.00">src/node/rpc/node_frontend.h</text>
</a>
</g>
</g>
<!-- Node9&#45;&gt;Node12 -->
<g id="edge15" class="edge">
<title>Node9&#45;&gt;Node12</title>
<path fill="none" stroke="#63b8ff" d="M1612.46,-375.68C1579.06,-363.03 1527.97,-343.68 1498.7,-332.6"/>
<polygon fill="#63b8ff" stroke="#63b8ff" points="1611.62,-379.1 1622.21,-379.37 1614.1,-372.55 1611.62,-379.1"/>
</g>
<!-- Node10&#45;&gt;Node7 -->
<g id="edge11" class="edge">
<title>Node10&#45;&gt;Node7</title>
<path fill="none" stroke="#63b8ff" d="M1416.94,-173.65C1399.44,-154.58 1367.62,-123.91 1333,-110 1243.86,-74.19 960.29,-67.14 834.32,-65.8"/>
<polygon fill="#63b8ff" stroke="#63b8ff" points="1414.46,-176.12 1423.73,-181.26 1419.68,-171.46 1414.46,-176.12"/>
</g>
<!-- Node11 -->
<g id="node11" class="node">
<title>Node11</title>
<g id="a_node11"><a xlink:href="gov__effects_8h.html" target="_top" xlink:title=" ">
<polygon fill="white" stroke="#666666" points="1324,-134.5 1180,-134.5 1180,-115.5 1324,-115.5 1324,-134.5"/>
<text text-anchor="middle" x="1252" y="-122.5" font-family="Helvetica,sans-Serif" font-size="10.00">src/node/rpc/gov_effects.h</text>
</a>
</g>
</g>
<!-- Node10&#45;&gt;Node11 -->
<g id="edge12" class="edge">
<title>Node10&#45;&gt;Node11</title>
<path fill="none" stroke="#63b8ff" d="M1397.44,-178C1362.09,-165.36 1307.31,-145.78 1276.04,-134.6"/>
<polygon fill="#63b8ff" stroke="#63b8ff" points="1396.26,-181.3 1406.86,-181.37 1398.62,-174.71 1396.26,-181.3"/>
</g>
<!-- Node11&#45;&gt;Node7 -->
<g id="edge13" class="edge">
<title>Node11&#45;&gt;Node7</title>
<path fill="none" stroke="#63b8ff" d="M1172.2,-114.25C1077.01,-102.63 920.01,-83.45 834,-72.95"/>
<polygon fill="#63b8ff" stroke="#63b8ff" points="1172,-117.76 1182.35,-115.49 1172.85,-110.81 1172,-117.76"/>
</g>
<!-- Node12&#45;&gt;Node7 -->
<g id="edge16" class="edge">
<title>Node12&#45;&gt;Node7</title>
<path fill="none" stroke="#63b8ff" d="M1443.1,-309.99C1321.72,-265.71 900.7,-112.09 796.48,-74.07"/>
<polygon fill="#63b8ff" stroke="#63b8ff" points="1442.02,-313.33 1452.61,-313.47 1444.42,-306.75 1442.02,-313.33"/>
</g>
<!-- Node13 -->
<g id="node13" class="node">
<title>Node13</title>
<g id="a_node13"><a xlink:href="jwt__key__auto__refresh_8h.html" target="_top" xlink:title=" ">
<polygon fill="white" stroke="#666666" points="1493.5,-272 1368.5,-272 1368.5,-242 1493.5,-242 1493.5,-272"/>
<text text-anchor="start" x="1376.5" y="-260" font-family="Helvetica,sans-Serif" font-size="10.00">src/node/jwt_key_auto</text>
<text text-anchor="middle" x="1431" y="-249" font-family="Helvetica,sans-Serif" font-size="10.00">_refresh.h</text>
</a>
</g>
</g>
<!-- Node12&#45;&gt;Node13 -->
<g id="edge17" class="edge">
<title>Node12&#45;&gt;Node13</title>
<path fill="none" stroke="#63b8ff" d="M1463.99,-304.92C1456.85,-294.76 1447.88,-282.01 1441.1,-272.36"/>
<polygon fill="#63b8ff" stroke="#63b8ff" points="1461.32,-307.2 1469.93,-313.37 1467.04,-303.18 1461.32,-307.2"/>
</g>
<!-- Node13&#45;&gt;Node10 -->
<g id="edge18" class="edge">
<title>Node13&#45;&gt;Node10</title>
<path fill="none" stroke="#63b8ff" d="M1431,-231.6C1431,-220.8 1431,-208.78 1431,-200.84"/>
<polygon fill="#63b8ff" stroke="#63b8ff" points="1427.5,-231.8 1431,-241.8 1434.5,-231.8 1427.5,-231.8"/>
</g>
<!-- Node14&#45;&gt;Node5 -->
<g id="edge20" class="edge">
<title>Node14&#45;&gt;Node5</title>
<path fill="none" stroke="#63b8ff" d="M739.37,-506.49C636.55,-492.01 473.27,-451.45 397,-338 358.04,-280.04 482.35,-264.07 552.46,-259.67"/>
<polygon fill="#63b8ff" stroke="#63b8ff" points="739.06,-509.98 749.44,-507.86 740,-503.05 739.06,-509.98"/>
</g>
<!-- Node14&#45;&gt;Node6 -->
<g id="edge54" class="edge">
<title>Node14&#45;&gt;Node6</title>
<path fill="none" stroke="#63b8ff" d="M866.12,-502.61C892.09,-493.93 927.86,-481.68 959,-470 1080.57,-424.42 1222.86,-364.83 1285.98,-338.08"/>
<polygon fill="#63b8ff" stroke="#63b8ff" points="864.72,-499.39 856.34,-505.87 866.93,-506.03 864.72,-499.39"/>
</g>
<!-- Node14&#45;&gt;Node12 -->
<g id="edge59" class="edge">
<title>Node14&#45;&gt;Node12</title>
<path fill="none" stroke="#63b8ff" d="M878.15,-503.63C914.96,-495.1 966.9,-482.6 1012,-470 1180.98,-422.81 1381.27,-356.06 1450.77,-332.58"/>
<polygon fill="#63b8ff" stroke="#63b8ff" points="877.14,-500.27 868.18,-505.93 878.71,-507.09 877.14,-500.27"/>
</g>
<!-- Node15 -->
<g id="node15" class="node">
<title>Node15</title>
<g id="a_node15"><a xlink:href="wrap_8h.html" target="_top" xlink:title=" ">
<polygon fill="white" stroke="#666666" points="804,-398.5 726,-398.5 726,-379.5 804,-379.5 804,-398.5"/>
<text text-anchor="middle" x="765" y="-386.5" font-family="Helvetica,sans-Serif" font-size="10.00">src/js/wrap.h</text>
</a>
</g>
</g>
<!-- Node14&#45;&gt;Node15 -->
<g id="edge21" class="edge">
<title>Node14&#45;&gt;Node15</title>
<path fill="none" stroke="#63b8ff" d="M820.77,-496.82C806.61,-469.7 780.06,-418.85 769.5,-398.62"/>
<polygon fill="#63b8ff" stroke="#63b8ff" points="817.8,-498.7 825.53,-505.94 824.01,-495.46 817.8,-498.7"/>
</g>
<!-- Node22 -->
<g id="node22" class="node">
<title>Node22</title>
<g id="a_node22"><a xlink:href="historical__queries_8h.html" target="_top" xlink:title=" ">
<polygon fill="white" stroke="#666666" points="134,-206 28,-206 28,-176 134,-176 134,-206"/>
<text text-anchor="start" x="36" y="-194" font-family="Helvetica,sans-Serif" font-size="10.00">src/node/historical</text>
<text text-anchor="middle" x="81" y="-183" font-family="Helvetica,sans-Serif" font-size="10.00">_queries.h</text>
</a>
</g>
</g>
<!-- Node14&#45;&gt;Node22 -->
<g id="edge37" class="edge">
<title>Node14&#45;&gt;Node22</title>
<path fill="none" stroke="#63b8ff" d="M738.98,-510.77C592.46,-504.24 316.56,-489.54 276,-470 232.09,-448.85 201,-438.74 201,-390 201,-390 201,-390 201,-322 201,-267.79 143.96,-226.53 108.53,-206.14"/>
<polygon fill="#63b8ff" stroke="#63b8ff" points="739.16,-514.28 749.3,-511.23 739.46,-507.29 739.16,-514.28"/>
</g>
<!-- Node24 -->
<g id="node24" class="node">
<title>Node24</title>
<g id="a_node24"><a xlink:href="node__configuration__subsystem_8h.html" target="_top" xlink:title=" ">
<polygon fill="white" stroke="#666666" points="1371,-470 1217,-470 1217,-440 1371,-440 1371,-470"/>
<text text-anchor="start" x="1225" y="-458" font-family="Helvetica,sans-Serif" font-size="10.00">src/node/node_configuration</text>
<text text-anchor="middle" x="1294" y="-447" font-family="Helvetica,sans-Serif" font-size="10.00">_subsystem.h</text>
</a>
</g>
</g>
<!-- Node14&#45;&gt;Node24 -->
<g id="edge41" class="edge">
<title>Node14&#45;&gt;Node24</title>
<path fill="none" stroke="#63b8ff" d="M917.93,-504.86C993.59,-496.36 1105.6,-483.3 1203,-470 1207.43,-469.39 1211.99,-468.75 1216.58,-468.09"/>
<polygon fill="#63b8ff" stroke="#63b8ff" points="917.52,-501.39 907.97,-505.98 918.3,-508.34 917.52,-501.39"/>
</g>
<!-- Node29 -->
<g id="node29" class="node">
<title>Node29</title>
<g id="a_node29"><a xlink:href="acme__subsystem_8h.html" target="_top" xlink:title=" ">
<polygon fill="white" stroke="#666666" points="325.5,-200.5 152.5,-200.5 152.5,-181.5 325.5,-181.5 325.5,-200.5"/>
<text text-anchor="middle" x="239" y="-188.5" font-family="Helvetica,sans-Serif" font-size="10.00">src/node/rpc/acme_subsystem.h</text>
</a>
</g>
</g>
<!-- Node14&#45;&gt;Node29 -->
<g id="edge52" class="edge">
<title>Node14&#45;&gt;Node29</title>
<path fill="none" stroke="#63b8ff" d="M739.19,-513.95C573.49,-510.48 239,-490.97 239,-390 239,-390 239,-390 239,-322 239,-276.18 239,-221.29 239,-200.52"/>
<polygon fill="#63b8ff" stroke="#63b8ff" points="739.31,-517.46 749.37,-514.15 739.44,-510.46 739.31,-517.46"/>
</g>
<!-- Node30 -->
<g id="node30" class="node">
<title>Node30</title>
<g id="a_node30"><a xlink:href="network__identity__subsystem_8h.html" target="_top" xlink:title=" ">
<polygon fill="white" stroke="#666666" points="949.5,-470 822.5,-470 822.5,-440 949.5,-440 949.5,-470"/>
<text text-anchor="start" x="830.5" y="-458" font-family="Helvetica,sans-Serif" font-size="10.00">src/node/rpc/network</text>
<text text-anchor="middle" x="886" y="-447" font-family="Helvetica,sans-Serif" font-size="10.00">_identity_subsystem.h</text>
</a>
</g>
</g>
<!-- Node14&#45;&gt;Node30 -->
<g id="edge55" class="edge">
<title>Node14&#45;&gt;Node30</title>
<path fill="none" stroke="#63b8ff" d="M845.39,-498.43C853.88,-489.56 864.32,-478.65 872.49,-470.11"/>
<polygon fill="#63b8ff" stroke="#63b8ff" points="842.65,-496.22 838.26,-505.87 847.71,-501.06 842.65,-496.22"/>
</g>
<!-- Node33 -->
<g id="node33" class="node">
<title>Node33</title>
<g id="a_node33"><a xlink:href="node__operation_8h.html" target="_top" xlink:title=" ">
<polygon fill="white" stroke="#666666" points="173,-464.5 9,-464.5 9,-445.5 173,-445.5 173,-464.5"/>
<text text-anchor="middle" x="91" y="-452.5" font-family="Helvetica,sans-Serif" font-size="10.00">src/node/rpc/node_operation.h</text>
</a>
</g>
</g>
<!-- Node14&#45;&gt;Node33 -->
<g id="edge60" class="edge">
<title>Node14&#45;&gt;Node33</title>
<path fill="none" stroke="#63b8ff" d="M739.12,-510.38C614.39,-504.24 383.28,-491.07 187,-470 173.18,-468.52 158.3,-466.54 144.48,-464.53"/>
<polygon fill="#63b8ff" stroke="#63b8ff" points="739.22,-513.89 749.38,-510.88 739.56,-506.9 739.22,-513.89"/>
</g>
<!-- Node15&#45;&gt;Node5 -->
<g id="edge33" class="edge">
<title>Node15&#45;&gt;Node5</title>
<path fill="none" stroke="#63b8ff" d="M715.75,-388.64C627.75,-388.63 449.03,-382.91 410,-338 367.03,-288.56 484.52,-268.76 552.49,-261.61"/>
<polygon fill="#63b8ff" stroke="#63b8ff" points="715.77,-392.14 725.77,-388.62 715.76,-385.14 715.77,-392.14"/>
</g>
<!-- Node15&#45;&gt;Node6 -->
<g id="edge35" class="edge">
<title>Node15&#45;&gt;Node6</title>
<path fill="none" stroke="#63b8ff" d="M800.36,-376.82C804.59,-375.74 808.87,-374.77 813,-374 1002.43,-338.85 1054.09,-363.94 1245,-338 1249.53,-337.38 1254.21,-336.67 1258.91,-335.91"/>
<polygon fill="#63b8ff" stroke="#63b8ff" points="799.39,-373.46 790.68,-379.48 801.25,-380.21 799.39,-373.46"/>
</g>
<!-- Node15&#45;&gt;Node7 -->
<g id="edge23" class="edge">
<title>Node15&#45;&gt;Node7</title>
<path fill="none" stroke="#63b8ff" d="M715.95,-388.92C625.48,-389.46 437.84,-384.76 397,-338 282.85,-207.3 626.48,-103.74 738.77,-74.08"/>
<polygon fill="#63b8ff" stroke="#63b8ff" points="715.99,-392.42 725.96,-388.84 715.94,-385.42 715.99,-392.42"/>
</g>
<!-- Node15&#45;&gt;Node10 -->
<g id="edge34" class="edge">
<title>Node15&#45;&gt;Node10</title>
<path fill="none" stroke="#63b8ff" d="M800.87,-376.76C804.93,-375.72 809.04,-374.77 813,-374 971.29,-343.3 1020.35,-386.88 1174,-338 1226.69,-321.24 1372.79,-229.24 1417.69,-200.55"/>
<polygon fill="#63b8ff" stroke="#63b8ff" points="799.66,-373.46 790.94,-379.49 801.51,-380.21 799.66,-373.46"/>
</g>
<!-- Node15&#45;&gt;Node12 -->
<g id="edge36" class="edge">
<title>Node15&#45;&gt;Node12</title>
<path fill="none" stroke="#63b8ff" d="M800.2,-376.78C804.48,-375.7 808.82,-374.73 813,-374 1065.23,-329.88 1133.5,-366.15 1388,-338 1400.92,-336.57 1414.83,-334.57 1427.7,-332.53"/>
<polygon fill="#63b8ff" stroke="#63b8ff" points="799.13,-373.44 790.41,-379.45 800.98,-380.19 799.13,-373.44"/>
</g>
<!-- Node16 -->
<g id="node16" class="node">
<title>Node16</title>
<g id="a_node16"><a xlink:href="js__generic__base_8cpp.html" target="_top" xlink:title=" ">
<polygon fill="white" stroke="#666666" points="1019,-338 901,-338 901,-308 1019,-308 1019,-338"/>
<text text-anchor="start" x="909" y="-326" font-family="Helvetica,sans-Serif" font-size="10.00">src/apps/js_generic</text>
<text text-anchor="middle" x="960" y="-315" font-family="Helvetica,sans-Serif" font-size="10.00">/js_generic_base.cpp</text>
</a>
</g>
</g>
<!-- Node15&#45;&gt;Node16 -->
<g id="edge22" class="edge">
<title>Node15&#45;&gt;Node16</title>
<path fill="none" stroke="#63b8ff" d="M800.93,-376.21C833.7,-365.45 882.17,-349.54 916.99,-338.12"/>
<polygon fill="#63b8ff" stroke="#63b8ff" points="799.71,-372.92 791.3,-379.37 801.89,-379.58 799.71,-372.92"/>
</g>
<!-- Node17 -->
<g id="node17" class="node">
<title>Node17</title>
<g id="a_node17"><a xlink:href="consensus_8cpp.html" target="_top" xlink:title=" ">
<polygon fill="white" stroke="#666666" points="535,-332.5 419,-332.5 419,-313.5 535,-313.5 535,-332.5"/>
<text text-anchor="middle" x="477" y="-320.5" font-family="Helvetica,sans-Serif" font-size="10.00">src/js/consensus.cpp</text>
</a>
</g>
</g>
<!-- Node15&#45;&gt;Node17 -->
<g id="edge24" class="edge">
<title>Node15&#45;&gt;Node17</title>
<path fill="none" stroke="#63b8ff" d="M716.66,-377.26C659.99,-364.67 567.25,-344.06 515.31,-332.51"/>
<polygon fill="#63b8ff" stroke="#63b8ff" points="715.94,-380.68 726.46,-379.44 717.46,-373.85 715.94,-380.68"/>
</g>
<!-- Node18 -->
<g id="node18" class="node">
<title>Node18</title>
<g id="a_node18"><a xlink:href="conv_8cpp.html" target="_top" xlink:title=" ">
<polygon fill="white" stroke="#666666" points="641,-332.5 553,-332.5 553,-313.5 641,-313.5 641,-332.5"/>
<text text-anchor="middle" x="597" y="-320.5" font-family="Helvetica,sans-Serif" font-size="10.00">src/js/conv.cpp</text>
</a>
</g>
</g>
<!-- Node15&#45;&gt;Node18 -->
<g id="edge26" class="edge">
<title>Node15&#45;&gt;Node18</title>
<path fill="none" stroke="#63b8ff" d="M732.65,-375.68C699.45,-363.03 648.66,-343.68 619.57,-332.6"/>
<polygon fill="#63b8ff" stroke="#63b8ff" points="731.75,-379.08 742.34,-379.37 734.24,-372.54 731.75,-379.08"/>
</g>
<!-- Node19 -->
<g id="node19" class="node">
<title>Node19</title>
<g id="a_node19"><a xlink:href="crypto_8cpp.html" target="_top" xlink:title=" ">
<polygon fill="white" stroke="#666666" points="755,-332.5 659,-332.5 659,-313.5 755,-313.5 755,-332.5"/>
<text text-anchor="middle" x="707" y="-320.5" font-family="Helvetica,sans-Serif" font-size="10.00">src/js/crypto.cpp</text>
</a>
</g>
</g>
<!-- Node15&#45;&gt;Node19 -->
<g id="edge28" class="edge">
<title>Node15&#45;&gt;Node19</title>
<path fill="none" stroke="#63b8ff" d="M750.16,-371.62C739,-359.31 724.12,-342.89 715.07,-332.91"/>
<polygon fill="#63b8ff" stroke="#63b8ff" points="747.87,-374.31 757.18,-379.37 753.06,-369.61 747.87,-374.31"/>
</g>
<!-- Node20 -->
<g id="node20" class="node">
<title>Node20</title>
<g id="a_node20"><a xlink:href="historical_8cpp.html" target="_top" xlink:title=" ">
<polygon fill="white" stroke="#666666" points="883,-332.5 773,-332.5 773,-313.5 883,-313.5 883,-332.5"/>
<text text-anchor="middle" x="828" y="-320.5" font-family="Helvetica,sans-Serif" font-size="10.00">src/js/historical.cpp</text>
</a>
</g>
</g>
<!-- Node15&#45;&gt;Node20 -->
<g id="edge30" class="edge">
<title>Node15&#45;&gt;Node20</title>
<path fill="none" stroke="#63b8ff" d="M780.77,-371.98C792.94,-359.62 809.31,-342.99 819.23,-332.91"/>
<polygon fill="#63b8ff" stroke="#63b8ff" points="778.02,-369.79 773.5,-379.37 783.01,-374.7 778.02,-369.79"/>
</g>
<!-- Node21 -->
<g id="node21" class="node">
<title>Node21</title>
<g id="a_node21"><a xlink:href="openenclave_8cpp.html" target="_top" xlink:title=" ">
<polygon fill="white" stroke="#666666" points="1165,-332.5 1037,-332.5 1037,-313.5 1165,-313.5 1165,-332.5"/>
<text text-anchor="middle" x="1101" y="-320.5" font-family="Helvetica,sans-Serif" font-size="10.00">src/js/openenclave.cpp</text>
</a>
</g>
</g>
<!-- Node15&#45;&gt;Node21 -->
<g id="edge32" class="edge">
<title>Node15&#45;&gt;Node21</title>
<path fill="none" stroke="#63b8ff" d="M801.97,-376.75C805.68,-375.76 809.4,-374.82 813,-374 907.45,-352.4 932.64,-355.13 1028,-338 1037.53,-336.29 1047.74,-334.38 1057.41,-332.53"/>
<polygon fill="#63b8ff" stroke="#63b8ff" points="800.96,-373.39 792.27,-379.44 802.84,-380.14 800.96,-373.39"/>
</g>
<!-- Node17&#45;&gt;Node5 -->
<g id="edge25" class="edge">
<title>Node17&#45;&gt;Node5</title>
<path fill="none" stroke="#63b8ff" d="M502.26,-308.53C525.9,-295.92 560.5,-277.47 580.69,-266.7"/>
<polygon fill="#63b8ff" stroke="#63b8ff" points="500.36,-305.57 493.18,-313.37 503.65,-311.75 500.36,-305.57"/>
</g>
<!-- Node18&#45;&gt;Node5 -->
<g id="edge27" class="edge">
<title>Node18&#45;&gt;Node5</title>
<path fill="none" stroke="#63b8ff" d="M597,-303.08C597,-291.13 597,-276.22 597,-266.91"/>
<polygon fill="#63b8ff" stroke="#63b8ff" points="593.5,-303.37 597,-313.37 600.5,-303.37 593.5,-303.37"/>
</g>
<!-- Node19&#45;&gt;Node5 -->
<g id="edge29" class="edge">
<title>Node19&#45;&gt;Node5</title>
<path fill="none" stroke="#63b8ff" d="M683.26,-308.19C661.62,-295.59 630.29,-277.37 611.95,-266.7"/>
<polygon fill="#63b8ff" stroke="#63b8ff" points="681.76,-311.36 692.16,-313.37 685.28,-305.31 681.76,-311.36"/>
</g>
<!-- Node20&#45;&gt;Node5 -->
<g id="edge31" class="edge">
<title>Node20&#45;&gt;Node5</title>
<path fill="none" stroke="#63b8ff" d="M787.01,-310.64C741.5,-298.03 669.07,-277.97 628.03,-266.6"/>
<polygon fill="#63b8ff" stroke="#63b8ff" points="786.27,-314.07 796.85,-313.37 788.14,-307.33 786.27,-314.07"/>
</g>
<!-- Node22&#45;&gt;Node7 -->
<g id="edge38" class="edge">
<title>Node22&#45;&gt;Node7</title>
<path fill="none" stroke="#63b8ff" d="M125.46,-172.15C181.49,-149.77 272.53,-113.85 289,-110 438.14,-75.17 619.09,-67.36 711.78,-65.76"/>
<polygon fill="#63b8ff" stroke="#63b8ff" points="124.09,-168.93 116.1,-175.89 126.69,-175.43 124.09,-168.93"/>
</g>
<!-- Node23 -->
<g id="node23" class="node">
<title>Node23</title>
<g id="a_node23"><a xlink:href="historical__transaction__fetcher_8h.html" target="_top" xlink:title=" ">
<polygon fill="white" stroke="#666666" points="196.5,-140 71.5,-140 71.5,-110 196.5,-110 196.5,-140"/>
<text text-anchor="start" x="79.5" y="-128" font-family="Helvetica,sans-Serif" font-size="10.00">src/indexing/historical</text>
<text text-anchor="middle" x="134" y="-117" font-family="Helvetica,sans-Serif" font-size="10.00">_transaction_fetcher.h</text>
</a>
</g>
</g>
<!-- Node22&#45;&gt;Node23 -->
<g id="edge39" class="edge">
<title>Node22&#45;&gt;Node23</title>
<path fill="none" stroke="#63b8ff" d="M99.15,-168.09C106.8,-158.85 115.48,-148.36 122.27,-140.16"/>
<polygon fill="#63b8ff" stroke="#63b8ff" points="96.44,-165.86 92.76,-175.8 101.84,-170.33 96.44,-165.86"/>
</g>
<!-- Node23&#45;&gt;Node7 -->
<g id="edge40" class="edge">
<title>Node23&#45;&gt;Node7</title>
<path fill="none" stroke="#63b8ff" d="M207.07,-111.69C211.44,-111.08 215.78,-110.51 220,-110 398.08,-88.38 609.75,-74.66 711.87,-68.79"/>
<polygon fill="#63b8ff" stroke="#63b8ff" points="206.25,-108.27 196.85,-113.16 207.25,-115.2 206.25,-108.27"/>
</g>
<!-- Node25 -->
<g id="node25" class="node">
<title>Node25</title>
<g id="a_node25"><a xlink:href="frontend_8h.html" target="_top" xlink:title=" ">
<polygon fill="white" stroke="#666666" points="1552.5,-398.5 1423.5,-398.5 1423.5,-379.5 1552.5,-379.5 1552.5,-398.5"/>
<text text-anchor="middle" x="1488" y="-386.5" font-family="Helvetica,sans-Serif" font-size="10.00">src/node/rpc/frontend.h</text>
</a>
</g>
</g>
<!-- Node24&#45;&gt;Node25 -->
<g id="edge42" class="edge">
<title>Node24&#45;&gt;Node25</title>
<path fill="none" stroke="#63b8ff" d="M1346.33,-436.74C1383.84,-424.36 1432.74,-408.23 1462.18,-398.52"/>
<polygon fill="#63b8ff" stroke="#63b8ff" points="1344.97,-433.5 1336.57,-439.95 1347.17,-440.15 1344.97,-433.5"/>
</g>
<!-- Node25&#45;&gt;Node6 -->
<g id="edge48" class="edge">
<title>Node25&#45;&gt;Node6</title>
<path fill="none" stroke="#63b8ff" d="M1455.75,-375.79C1427.37,-365.04 1386.06,-349.4 1356.27,-338.12"/>
<polygon fill="#63b8ff" stroke="#63b8ff" points="1454.62,-379.1 1465.21,-379.37 1457.1,-372.55 1454.62,-379.1"/>
</g>
<!-- Node25&#45;&gt;Node10 -->
<g id="edge47" class="edge">
<title>Node25&#45;&gt;Node10</title>
<path fill="none" stroke="#63b8ff" d="M1521.14,-375.19C1537.15,-367.12 1554.85,-354.97 1564,-338 1570.33,-326.26 1568.86,-320.42 1564,-308 1549.44,-270.8 1533.14,-268.21 1503,-242 1484.28,-225.72 1460.21,-209.9 1445.19,-200.56"/>
<polygon fill="#63b8ff" stroke="#63b8ff" points="1519.55,-372.07 1511.98,-379.48 1522.52,-378.41 1519.55,-372.07"/>
</g>
<!-- Node25&#45;&gt;Node12 -->
<g id="edge49" class="edge">
<title>Node25&#45;&gt;Node12</title>
<path fill="none" stroke="#63b8ff" d="M1484.52,-369.45C1482.27,-357.43 1479.43,-342.32 1477.67,-332.91"/>
<polygon fill="#63b8ff" stroke="#63b8ff" points="1481.1,-370.18 1486.38,-379.37 1487.98,-368.89 1481.1,-370.18"/>
</g>
<!-- Node26 -->
<g id="node26" class="node">
<title>Node26</title>
<g id="a_node26"><a xlink:href="acme__challenge__frontend_8h.html" target="_top" xlink:title=" ">
<polygon fill="white" stroke="#666666" points="1751,-338 1611,-338 1611,-308 1751,-308 1751,-338"/>
<text text-anchor="start" x="1619" y="-326" font-family="Helvetica,sans-Serif" font-size="10.00">src/node/acme_challenge</text>
<text text-anchor="middle" x="1681" y="-315" font-family="Helvetica,sans-Serif" font-size="10.00">_frontend.h</text>
</a>
</g>
</g>
<!-- Node25&#45;&gt;Node26 -->
<g id="edge43" class="edge">
<title>Node25&#45;&gt;Node26</title>
<path fill="none" stroke="#63b8ff" d="M1523.56,-376.21C1556,-365.45 1603.97,-349.54 1638.43,-338.12"/>
<polygon fill="#63b8ff" stroke="#63b8ff" points="1522.42,-372.9 1514.03,-379.37 1524.62,-379.54 1522.42,-372.9"/>
</g>
<!-- Node28 -->
<g id="node28" class="node">
<title>Node28</title>
<g id="a_node28"><a xlink:href="user__frontend_8h.html" target="_top" xlink:title=" ">
<polygon fill="white" stroke="#666666" points="1909.5,-134.5 1754.5,-134.5 1754.5,-115.5 1909.5,-115.5 1909.5,-134.5"/>
<text text-anchor="middle" x="1832" y="-122.5" font-family="Helvetica,sans-Serif" font-size="10.00">src/node/rpc/user_frontend.h</text>
</a>
</g>
</g>
<!-- Node25&#45;&gt;Node28 -->
<g id="edge50" class="edge">
<title>Node25&#45;&gt;Node28</title>
<path fill="none" stroke="#63b8ff" d="M1542.99,-377.55C1549.4,-376.35 1555.84,-375.14 1562,-374 1649.94,-357.69 1692.26,-396.41 1760,-338 1824.47,-282.41 1831.33,-166.78 1831.96,-134.52"/>
<polygon fill="#63b8ff" stroke="#63b8ff" points="1542.17,-374.14 1532.99,-379.43 1543.47,-381.02 1542.17,-374.14"/>
</g>
<!-- Node26&#45;&gt;Node7 -->
<g id="edge44" class="edge">
<title>Node26&#45;&gt;Node7</title>
<path fill="none" stroke="#63b8ff" d="M1698.64,-299.74C1709.77,-282.81 1719.97,-259.52 1708,-242 1617.04,-108.83 1527.27,-145.72 1370,-110 1269.28,-87.12 965.11,-72.95 834.11,-67.75"/>
<polygon fill="#63b8ff" stroke="#63b8ff" points="1695.76,-297.76 1692.85,-307.95 1701.48,-301.79 1695.76,-297.76"/>
</g>
<!-- Node27 -->
<g id="node27" class="node">
<title>Node27</title>
<g id="a_node27"><a xlink:href="ccf__acme__client_8h.html" target="_top" xlink:title=" ">
<polygon fill="white" stroke="#666666" points="1698.5,-266.5 1549.5,-266.5 1549.5,-247.5 1698.5,-247.5 1698.5,-266.5"/>
<text text-anchor="middle" x="1624" y="-254.5" font-family="Helvetica,sans-Serif" font-size="10.00">src/node/ccf_acme_client.h</text>
</a>
</g>
</g>
<!-- Node26&#45;&gt;Node27 -->
<g id="edge45" class="edge">
<title>Node26&#45;&gt;Node27</title>
<path fill="none" stroke="#63b8ff" d="M1661.65,-300.27C1651.46,-288.84 1639.53,-275.44 1631.88,-266.84"/>
<polygon fill="#63b8ff" stroke="#63b8ff" points="1659.09,-302.66 1668.35,-307.8 1664.31,-298 1659.09,-302.66"/>
</g>
<!-- Node27&#45;&gt;Node10 -->
<g id="edge46" class="edge">
<title>Node27&#45;&gt;Node10</title>
<path fill="none" stroke="#63b8ff" d="M1588.3,-244.16C1550.21,-231.53 1490.78,-211.82 1456.92,-200.6"/>
<polygon fill="#63b8ff" stroke="#63b8ff" points="1587.38,-247.54 1597.97,-247.37 1589.58,-240.9 1587.38,-247.54"/>
</g>
<!-- Node28&#45;&gt;Node7 -->
<g id="edge51" class="edge">
<title>Node28&#45;&gt;Node7</title>
<path fill="none" stroke="#63b8ff" d="M1772.32,-113.99C1761.58,-112.45 1750.48,-111.04 1740,-110 1398.82,-76.28 987.34,-68.05 834.25,-66.09"/>
<polygon fill="#63b8ff" stroke="#63b8ff" points="1772.06,-117.49 1782.46,-115.49 1773.08,-110.56 1772.06,-117.49"/>
</g>
<!-- Node29&#45;&gt;Node7 -->
<g id="edge53" class="edge">
<title>Node29&#45;&gt;Node7</title>
<path fill="none" stroke="#63b8ff" d="M253.65,-173.78C271.85,-154.85 304.8,-124.31 340,-110 405.89,-83.21 609.02,-71.76 711.92,-67.57"/>
<polygon fill="#63b8ff" stroke="#63b8ff" points="250.86,-171.64 246.59,-181.34 255.98,-176.43 250.86,-171.64"/>
</g>
<!-- Node30&#45;&gt;Node7 -->
<g id="edge57" class="edge">
<title>Node30&#45;&gt;Node7</title>
<path fill="none" stroke="#63b8ff" d="M812.29,-448.12C684.43,-436.25 429.9,-404.66 375,-338 327.26,-280.03 366.18,-225.1 423,-176 506.05,-104.24 635.79,-79.02 711.8,-70.2"/>
<polygon fill="#63b8ff" stroke="#63b8ff" points="812.11,-451.62 822.39,-449.04 812.75,-444.65 812.11,-451.62"/>
</g>
<!-- Node31 -->
<g id="node31" class="node">
<title>Node31</title>
<g id="a_node31"><a xlink:href="external__executor_8cpp.html" target="_top" xlink:title=" ">
<polygon fill="white" stroke="#666666" points="970,-404 822,-404 822,-374 970,-374 970,-404"/>
<text text-anchor="start" x="830" y="-392" font-family="Helvetica,sans-Serif" font-size="10.00">src/apps/external_executor</text>
<text text-anchor="middle" x="896" y="-381" font-family="Helvetica,sans-Serif" font-size="10.00">/external_executor.cpp</text>
</a>
</g>
</g>
<!-- Node30&#45;&gt;Node31 -->
<g id="edge56" class="edge">
<title>Node30&#45;&gt;Node31</title>
<path fill="none" stroke="#63b8ff" d="M889.78,-429.83C891.13,-421.17 892.61,-411.7 893.79,-404.16"/>
<polygon fill="#63b8ff" stroke="#63b8ff" points="886.31,-429.38 888.22,-439.8 893.22,-430.46 886.31,-429.38"/>
</g>
<!-- Node32 -->
<g id="node32" class="node">
<title>Node32</title>
<g id="a_node32"><a xlink:href="historical__queries__adapter_8cpp.html" target="_top" xlink:title=" ">
<polygon fill="white" stroke="#666666" points="1108,-404 988,-404 988,-374 1108,-374 1108,-404"/>
<text text-anchor="start" x="996" y="-392" font-family="Helvetica,sans-Serif" font-size="10.00">src/node/historical</text>
<text text-anchor="middle" x="1048" y="-381" font-family="Helvetica,sans-Serif" font-size="10.00">_queries_adapter.cpp</text>
</a>
</g>
</g>
<!-- Node30&#45;&gt;Node32 -->
<g id="edge58" class="edge">
<title>Node30&#45;&gt;Node32</title>
<path fill="none" stroke="#63b8ff" d="M931.09,-436.19C956.81,-426.02 988.6,-413.47 1012.53,-404.01"/>
<polygon fill="#63b8ff" stroke="#63b8ff" points="929.57,-433.03 921.55,-439.95 932.14,-439.54 929.57,-433.03"/>
</g>
<!-- Node33&#45;&gt;Node7 -->
<g id="edge61" class="edge">
<title>Node33&#45;&gt;Node7</title>
<path fill="none" stroke="#63b8ff" d="M71.1,-439.05C44.32,-417.06 0,-373.22 0,-324 0,-324 0,-324 0,-190 0,-145.02 22.25,-131.05 62,-110 118.67,-79.99 550.08,-69.4 711.92,-66.46"/>
<polygon fill="#63b8ff" stroke="#63b8ff" points="69.1,-441.93 79.1,-445.4 73.45,-436.45 69.1,-441.93"/>
</g>
<!-- Node34&#45;&gt;Node6 -->
<g id="edge63" class="edge">
<title>Node34&#45;&gt;Node6</title>
<path fill="none" stroke="#63b8ff" d="M1023.67,-566.95C1140.17,-554.23 1336.43,-525.08 1380,-470 1397.13,-448.35 1349.76,-370.69 1328.61,-338.32"/>
<polygon fill="#63b8ff" stroke="#63b8ff" points="1023.26,-563.48 1013.69,-568.02 1024.01,-570.44 1023.26,-563.48"/>
</g>
<!-- Node34&#45;&gt;Node14 -->
<g id="edge64" class="edge">
<title>Node34&#45;&gt;Node14</title>
<path fill="none" stroke="#63b8ff" d="M901.69,-556.07C882.83,-545.66 860.35,-533.25 845.65,-525.14"/>
<polygon fill="#63b8ff" stroke="#63b8ff" points="900.16,-559.22 910.61,-560.99 903.55,-553.09 900.16,-559.22"/>
</g>
<!-- Node34&#45;&gt;Node33 -->
<g id="edge65" class="edge">
<title>Node34&#45;&gt;Node33</title>
<path fill="none" stroke="#63b8ff" d="M848.11,-562.84C708.15,-543.44 426.04,-504.18 187,-470 174.75,-468.25 161.61,-466.35 149.12,-464.53"/>
<polygon fill="#63b8ff" stroke="#63b8ff" points="847.96,-566.35 858.35,-564.26 848.92,-559.42 847.96,-566.35"/>
</g>
</g>
</svg>
