<?xml version="1.0" encoding="UTF-8" standalone="no"?>
<!DOCTYPE svg PUBLIC "-//W3C//DTD SVG 1.1//EN"
 "http://www.w3.org/Graphics/SVG/1.1/DTD/svg11.dtd">
<!-- Generated by graphviz version 2.43.0 (0)
 -->
<!-- Title: src/ds/oversized.h Pages: 1 -->
<svg width="2073pt" height="357pt"
 viewBox="0.00 0.00 2073.40 357.00" xmlns="http://www.w3.org/2000/svg" xmlns:xlink="http://www.w3.org/1999/xlink">
<g id="graph0" class="graph" transform="scale(1 1) rotate(0) translate(4 353)">
<title>src/ds/oversized.h</title>
<!-- Node1 -->
<g id="node1" class="node">
<title>Node1</title>
<g id="a_node1"><a xlink:title=" ">
<polygon fill="#999999" stroke="#666666" points="1210.9,-349 1106.9,-349 1106.9,-330 1210.9,-330 1210.9,-349"/>
<text text-anchor="middle" x="1158.9" y="-337" font-family="Helvetica,sans-Serif" font-size="10.00">src/ds/oversized.h</text>
</a>
</g>
</g>
<!-- Node2 -->
<g id="node2" class="node">
<title>Node2</title>
<g id="a_node2"><a xlink:href="messaging_8h.html" target="_top" xlink:title=" ">
<polygon fill="white" stroke="#666666" points="1328.4,-294 1249.4,-294 1249.4,-275 1328.4,-275 1328.4,-294"/>
<text text-anchor="middle" x="1288.9" y="-282" font-family="Helvetica,sans-Serif" font-size="10.00">messaging.h</text>
</a>
</g>
</g>
<!-- Node1&#45;&gt;Node2 -->
<g id="edge1" class="edge">
<title>Node1&#45;&gt;Node2</title>
<path fill="none" stroke="#63b8ff" d="M1179.79,-329.98C1200.98,-321.34 1234.03,-307.87 1258.2,-298.02"/>
<polygon fill="#63b8ff" stroke="#63b8ff" points="1259.69,-301.19 1267.63,-294.17 1257.05,-294.7 1259.69,-301.19"/>
</g>
<!-- Node5 -->
<g id="node5" class="node">
<title>Node5</title>
<g id="a_node5"><a xlink:title=" ">
<polygon fill="#e0e0e0" stroke="#999999" points="1236.4,-129 1157.4,-129 1157.4,-110 1236.4,-110 1236.4,-129"/>
<text text-anchor="middle" x="1196.9" y="-117" font-family="Helvetica,sans-Serif" font-size="10.00">fmt/format.h</text>
</a>
</g>
</g>
<!-- Node1&#45;&gt;Node5 -->
<g id="edge71" class="edge">
<title>Node1&#45;&gt;Node5</title>
<path fill="none" stroke="#63b8ff" d="M1160.39,-329.95C1165.98,-297.88 1185.8,-184.2 1193.65,-139.12"/>
<polygon fill="#63b8ff" stroke="#63b8ff" points="1197.11,-139.68 1195.38,-129.22 1190.21,-138.47 1197.11,-139.68"/>
</g>
<!-- Node18 -->
<g id="node18" class="node">
<title>Node18</title>
<g id="a_node18"><a xlink:href="ring__buffer_8h.html" target="_top" xlink:title=" ">
<polygon fill="white" stroke="#666666" points="941.4,-239 864.4,-239 864.4,-220 941.4,-220 941.4,-239"/>
<text text-anchor="middle" x="902.9" y="-227" font-family="Helvetica,sans-Serif" font-size="10.00">ring_buffer.h</text>
</a>
</g>
</g>
<!-- Node1&#45;&gt;Node18 -->
<g id="edge69" class="edge">
<title>Node1&#45;&gt;Node18</title>
<path fill="none" stroke="#63b8ff" d="M1138.38,-329.84C1093.24,-310.8 985.15,-265.2 932.6,-243.03"/>
<polygon fill="#63b8ff" stroke="#63b8ff" points="933.73,-239.71 923.16,-239.05 931.01,-246.16 933.73,-239.71"/>
</g>
<!-- Node36 -->
<g id="node36" class="node">
<title>Node36</title>
<g id="a_node36"><a xlink:href="serialized_8h.html" target="_top" xlink:title=" ">
<polygon fill="white" stroke="#666666" points="680.4,-74 607.4,-74 607.4,-55 680.4,-55 680.4,-74"/>
<text text-anchor="middle" x="643.9" y="-62" font-family="Helvetica,sans-Serif" font-size="10.00">serialized.h</text>
</a>
</g>
</g>
<!-- Node1&#45;&gt;Node36 -->
<g id="edge70" class="edge">
<title>Node1&#45;&gt;Node36</title>
<path fill="none" stroke="#63b8ff" d="M1106.69,-336.63C934.4,-329.77 394.9,-302.54 394.9,-230.5 394.9,-230.5 394.9,-230.5 394.9,-173.5 394.9,-129.85 525.34,-92.81 597.4,-75.68"/>
<polygon fill="#63b8ff" stroke="#63b8ff" points="598.22,-79.08 607.16,-73.39 596.62,-72.26 598.22,-79.08"/>
</g>
<!-- Node44 -->
<g id="node44" class="node">
<title>Node44</title>
<g id="a_node44"><a xlink:title=" ">
<polygon fill="#e0e0e0" stroke="#999999" points="1439.4,-294 1346.4,-294 1346.4,-275 1439.4,-275 1439.4,-294"/>
<text text-anchor="middle" x="1392.9" y="-282" font-family="Helvetica,sans-Serif" font-size="10.00">unordered_map</text>
</a>
</g>
</g>
<!-- Node1&#45;&gt;Node44 -->
<g id="edge72" class="edge">
<title>Node1&#45;&gt;Node44</title>
<path fill="none" stroke="#63b8ff" d="M1196.49,-329.98C1236.89,-320.84 1301.18,-306.27 1345.13,-296.32"/>
<polygon fill="#63b8ff" stroke="#63b8ff" points="1346.03,-299.7 1355.01,-294.08 1344.48,-292.88 1346.03,-299.7"/>
</g>
<!-- Node3 -->
<g id="node3" class="node">
<title>Node3</title>
<g id="a_node3"><a xlink:href="logger_8h.html" target="_top" xlink:title=" ">
<polygon fill="white" stroke="#666666" points="1364.4,-239 1277.4,-239 1277.4,-220 1364.4,-220 1364.4,-239"/>
<text text-anchor="middle" x="1320.9" y="-227" font-family="Helvetica,sans-Serif" font-size="10.00">ccf/ds/logger.h</text>
</a>
</g>
</g>
<!-- Node2&#45;&gt;Node3 -->
<g id="edge2" class="edge">
<title>Node2&#45;&gt;Node3</title>
<path fill="none" stroke="#63b8ff" d="M1294.18,-274.75C1298.61,-267.42 1305.06,-256.73 1310.52,-247.7"/>
<polygon fill="#63b8ff" stroke="#63b8ff" points="1313.54,-249.46 1315.71,-239.09 1307.55,-245.84 1313.54,-249.46"/>
</g>
<!-- Node10 -->
<g id="node10" class="node">
<title>Node10</title>
<g id="a_node10"><a xlink:title=" ">
<polygon fill="#e0e0e0" stroke="#999999" points="1901.9,-129 1863.9,-129 1863.9,-110 1901.9,-110 1901.9,-129"/>
<text text-anchor="middle" x="1882.9" y="-117" font-family="Helvetica,sans-Serif" font-size="10.00">map</text>
</a>
</g>
</g>
<!-- Node2&#45;&gt;Node10 -->
<g id="edge67" class="edge">
<title>Node2&#45;&gt;Node10</title>
<path fill="none" stroke="#63b8ff" d="M1328.45,-276.47C1331.31,-275.97 1334.15,-275.48 1336.9,-275 1455.94,-254.36 1787.98,-269.94 1872.9,-184 1884.29,-172.47 1885.97,-153.6 1885.3,-139.41"/>
<polygon fill="#63b8ff" stroke="#63b8ff" points="1888.77,-138.93 1884.4,-129.28 1881.8,-139.55 1888.77,-138.93"/>
</g>
<!-- Node2&#45;&gt;Node18 -->
<g id="edge19" class="edge">
<title>Node2&#45;&gt;Node18</title>
<path fill="none" stroke="#63b8ff" d="M1249.04,-278.03C1177.79,-268.24 1028.83,-247.79 951.63,-237.19"/>
<polygon fill="#63b8ff" stroke="#63b8ff" points="952.06,-233.72 941.68,-235.82 951.11,-240.65 952.06,-233.72"/>
</g>
<!-- Node37 -->
<g id="node37" class="node">
<title>Node37</title>
<g id="a_node37"><a xlink:title=" ">
<polygon fill="#e0e0e0" stroke="#999999" points="1524.4,-19 1459.4,-19 1459.4,0 1524.4,0 1524.4,-19"/>
<text text-anchor="middle" x="1491.9" y="-7" font-family="Helvetica,sans-Serif" font-size="10.00">stdexcept</text>
</a>
</g>
</g>
<!-- Node2&#45;&gt;Node37 -->
<g id="edge68" class="edge">
<title>Node2&#45;&gt;Node37</title>
<path fill="none" stroke="#63b8ff" d="M1328.41,-276.2C1331.28,-275.76 1334.13,-275.36 1336.9,-275 1535.91,-249.48 1592.44,-288.42 1786.9,-239 1854.3,-221.87 1929.9,-245.04 1929.9,-175.5 1929.9,-175.5 1929.9,-175.5 1929.9,-118.5 1929.9,-37.6 1644.67,-16.94 1534.56,-11.98"/>
<polygon fill="#63b8ff" stroke="#63b8ff" points="1534.6,-8.47 1524.46,-11.54 1534.3,-15.47 1534.6,-8.47"/>
</g>
<!-- Node41 -->
<g id="node41" class="node">
<title>Node41</title>
<g id="a_node41"><a xlink:title=" ">
<polygon fill="#e0e0e0" stroke="#999999" points="876.9,-129 826.9,-129 826.9,-110 876.9,-110 876.9,-129"/>
<text text-anchor="middle" x="851.9" y="-117" font-family="Helvetica,sans-Serif" font-size="10.00">atomic</text>
</a>
</g>
</g>
<!-- Node2&#45;&gt;Node41 -->
<g id="edge65" class="edge">
<title>Node2&#45;&gt;Node41</title>
<path fill="none" stroke="#63b8ff" d="M1253.41,-274.99C1193.33,-260.03 1068.36,-226.56 967.9,-184 933.9,-169.6 896.83,-148.23 873.97,-134.33"/>
<polygon fill="#63b8ff" stroke="#63b8ff" points="875.73,-131.3 865.38,-129.05 872.07,-137.27 875.73,-131.3"/>
</g>
<!-- Node43 -->
<g id="node43" class="node">
<title>Node43</title>
<g id="a_node43"><a xlink:title=" ">
<polygon fill="#e0e0e0" stroke="#999999" points="2065.4,-239 1958.4,-239 1958.4,-220 2065.4,-220 2065.4,-239"/>
<text text-anchor="middle" x="2011.9" y="-227" font-family="Helvetica,sans-Serif" font-size="10.00">condition_variable</text>
</a>
</g>
</g>
<!-- Node2&#45;&gt;Node43 -->
<g id="edge66" class="edge">
<title>Node2&#45;&gt;Node43</title>
<path fill="none" stroke="#63b8ff" d="M1328.66,-276.09C1331.44,-275.69 1334.21,-275.32 1336.9,-275 1605.29,-243.38 1674.78,-263.77 1943.9,-239 1945.2,-238.88 1946.51,-238.76 1947.83,-238.63"/>
<polygon fill="#63b8ff" stroke="#63b8ff" points="1948.53,-242.07 1958.11,-237.55 1947.8,-235.11 1948.53,-242.07"/>
</g>
<!-- Node4 -->
<g id="node4" class="node">
<title>Node4</title>
<g id="a_node4"><a xlink:href="enum__formatter_8h.html" target="_top" xlink:title=" ">
<polygon fill="white" stroke="#666666" points="1737.9,-184 1601.9,-184 1601.9,-165 1737.9,-165 1737.9,-184"/>
<text text-anchor="middle" x="1669.9" y="-172" font-family="Helvetica,sans-Serif" font-size="10.00">ccf/ds/enum_formatter.h</text>
</a>
</g>
</g>
<!-- Node3&#45;&gt;Node4 -->
<g id="edge3" class="edge">
<title>Node3&#45;&gt;Node4</title>
<path fill="none" stroke="#63b8ff" d="M1364.75,-221.84C1424.95,-212.7 1533.69,-196.19 1603.79,-185.54"/>
<polygon fill="#63b8ff" stroke="#63b8ff" points="1604.48,-188.97 1613.84,-184.01 1603.43,-182.05 1604.48,-188.97"/>
</g>
<!-- Node3&#45;&gt;Node5 -->
<g id="edge13" class="edge">
<title>Node3&#45;&gt;Node5</title>
<path fill="none" stroke="#63b8ff" d="M1279.52,-219.95C1257.83,-213.48 1232.41,-202.44 1215.9,-184 1204.86,-171.68 1200.23,-153.17 1198.29,-139.31"/>
<polygon fill="#63b8ff" stroke="#63b8ff" points="1201.73,-138.58 1197.21,-129 1194.77,-139.31 1201.73,-138.58"/>
</g>
<!-- Node6 -->
<g id="node6" class="node">
<title>Node6</title>
<g id="a_node6"><a xlink:href="thread__ids_8h.html" target="_top" xlink:title=" ">
<polygon fill="white" stroke="#666666" points="1863.9,-184 1755.9,-184 1755.9,-165 1863.9,-165 1863.9,-184"/>
<text text-anchor="middle" x="1809.9" y="-172" font-family="Helvetica,sans-Serif" font-size="10.00">ccf/ds/thread_ids.h</text>
</a>
</g>
</g>
<!-- Node3&#45;&gt;Node6 -->
<g id="edge5" class="edge">
<title>Node3&#45;&gt;Node6</title>
<path fill="none" stroke="#63b8ff" d="M1364.49,-224.38C1439.93,-217.16 1599.95,-201.43 1745.6,-184.12"/>
<polygon fill="#63b8ff" stroke="#63b8ff" points="1746.1,-187.59 1755.62,-182.93 1745.27,-180.64 1746.1,-187.59"/>
</g>
<!-- Node12 -->
<g id="node12" class="node">
<title>Node12</title>
<g id="a_node12"><a xlink:title=" ">
<polygon fill="#e0e0e0" stroke="#999999" points="1304.4,-184 1225.4,-184 1225.4,-165 1304.4,-165 1304.4,-184"/>
<text text-anchor="middle" x="1264.9" y="-172" font-family="Helvetica,sans-Serif" font-size="10.00">fmt/chrono.h</text>
</a>
</g>
</g>
<!-- Node3&#45;&gt;Node12 -->
<g id="edge12" class="edge">
<title>Node3&#45;&gt;Node12</title>
<path fill="none" stroke="#63b8ff" d="M1311.9,-219.98C1303.7,-212.23 1291.39,-200.58 1281.43,-191.14"/>
<polygon fill="#63b8ff" stroke="#63b8ff" points="1283.73,-188.5 1274.06,-184.17 1278.92,-193.59 1283.73,-188.5"/>
</g>
<!-- Node13 -->
<g id="node13" class="node">
<title>Node13</title>
<g id="a_node13"><a xlink:title=" ">
<polygon fill="#e0e0e0" stroke="#999999" points="1381.9,-184 1321.9,-184 1321.9,-165 1381.9,-165 1381.9,-184"/>
<text text-anchor="middle" x="1351.9" y="-172" font-family="Helvetica,sans-Serif" font-size="10.00">iostream</text>
</a>
</g>
</g>
<!-- Node3&#45;&gt;Node13 -->
<g id="edge14" class="edge">
<title>Node3&#45;&gt;Node13</title>
<path fill="none" stroke="#63b8ff" d="M1326.02,-219.75C1330.26,-212.49 1336.43,-201.95 1341.67,-192.98"/>
<polygon fill="#63b8ff" stroke="#63b8ff" points="1344.85,-194.49 1346.87,-184.09 1338.8,-190.95 1344.85,-194.49"/>
</g>
<!-- Node14 -->
<g id="node14" class="node">
<title>Node14</title>
<g id="a_node14"><a xlink:title=" ">
<polygon fill="#e0e0e0" stroke="#999999" points="1509.9,-184 1399.9,-184 1399.9,-165 1509.9,-165 1509.9,-184"/>
<text text-anchor="middle" x="1454.9" y="-172" font-family="Helvetica,sans-Serif" font-size="10.00">nlohmann/json.hpp</text>
</a>
</g>
</g>
<!-- Node3&#45;&gt;Node14 -->
<g id="edge15" class="edge">
<title>Node3&#45;&gt;Node14</title>
<path fill="none" stroke="#63b8ff" d="M1342.43,-219.98C1364.37,-211.3 1398.64,-197.75 1423.59,-187.88"/>
<polygon fill="#63b8ff" stroke="#63b8ff" points="1424.97,-191.1 1432.98,-184.17 1422.39,-184.59 1424.97,-191.1"/>
</g>
<!-- Node15 -->
<g id="node15" class="node">
<title>Node15</title>
<g id="a_node15"><a xlink:title=" ">
<polygon fill="#e0e0e0" stroke="#999999" points="950.9,-129 894.9,-129 894.9,-110 950.9,-110 950.9,-129"/>
<text text-anchor="middle" x="922.9" y="-117" font-family="Helvetica,sans-Serif" font-size="10.00">optional</text>
</a>
</g>
</g>
<!-- Node3&#45;&gt;Node15 -->
<g id="edge16" class="edge">
<title>Node3&#45;&gt;Node15</title>
<path fill="none" stroke="#63b8ff" d="M1277.2,-225.24C1201.97,-219.16 1051.38,-204.78 1002.9,-184 977.32,-173.04 953.04,-151.65 938.08,-136.74"/>
<polygon fill="#63b8ff" stroke="#63b8ff" points="940.25,-133.96 930.77,-129.23 935.24,-138.84 940.25,-133.96"/>
</g>
<!-- Node16 -->
<g id="node16" class="node">
<title>Node16</title>
<g id="a_node16"><a xlink:title=" ">
<polygon fill="#e0e0e0" stroke="#999999" points="1583.9,-184 1527.9,-184 1527.9,-165 1583.9,-165 1583.9,-184"/>
<text text-anchor="middle" x="1555.9" y="-172" font-family="Helvetica,sans-Serif" font-size="10.00">sstream</text>
</a>
</g>
</g>
<!-- Node3&#45;&gt;Node16 -->
<g id="edge17" class="edge">
<title>Node3&#45;&gt;Node16</title>
<path fill="none" stroke="#63b8ff" d="M1359.24,-219.94C1397.11,-211.47 1456.95,-198.06 1517.84,-184.23"/>
<polygon fill="#63b8ff" stroke="#63b8ff" points="1518.64,-187.64 1527.62,-182.01 1517.09,-180.81 1518.64,-187.64"/>
</g>
<!-- Node17 -->
<g id="node17" class="node">
<title>Node17</title>
<g id="a_node17"><a xlink:title=" ">
<polygon fill="#e0e0e0" stroke="#999999" points="879.4,-19 810.4,-19 810.4,0 879.4,0 879.4,-19"/>
<text text-anchor="middle" x="844.9" y="-7" font-family="Helvetica,sans-Serif" font-size="10.00">type_traits</text>
</a>
</g>
</g>
<!-- Node3&#45;&gt;Node17 -->
<g id="edge18" class="edge">
<title>Node3&#45;&gt;Node17</title>
<path fill="none" stroke="#63b8ff" d="M1277.32,-225.67C1207.86,-220.51 1075.84,-207.83 1035.9,-184 974.07,-147.1 993.72,-100.48 937.9,-55 920.84,-41.1 898.73,-30.29 880.34,-22.81"/>
<polygon fill="#63b8ff" stroke="#63b8ff" points="881.43,-19.48 870.84,-19.1 878.88,-26 881.43,-19.48"/>
</g>
<!-- Node4&#45;&gt;Node5 -->
<g id="edge4" class="edge">
<title>Node4&#45;&gt;Node5</title>
<path fill="none" stroke="#63b8ff" d="M1601.88,-165.88C1505.68,-155.1 1332.12,-135.65 1246.89,-126.1"/>
<polygon fill="#63b8ff" stroke="#63b8ff" points="1247.02,-122.59 1236.69,-124.96 1246.24,-129.55 1247.02,-122.59"/>
</g>
<!-- Node6&#45;&gt;Node5 -->
<g id="edge6" class="edge">
<title>Node6&#45;&gt;Node5</title>
<path fill="none" stroke="#63b8ff" d="M1755.62,-165.99C1752.68,-165.64 1749.75,-165.31 1746.9,-165 1562.87,-145.16 1343.34,-129.92 1246.72,-123.64"/>
<polygon fill="#63b8ff" stroke="#63b8ff" points="1246.86,-120.14 1236.65,-122.99 1246.41,-127.12 1246.86,-120.14"/>
</g>
<!-- Node7 -->
<g id="node7" class="node">
<title>Node7</title>
<g id="a_node7"><a xlink:title=" ">
<polygon fill="#e0e0e0" stroke="#999999" points="1699.9,-129 1613.9,-129 1613.9,-110 1699.9,-110 1699.9,-129"/>
<text text-anchor="middle" x="1656.9" y="-117" font-family="Helvetica,sans-Serif" font-size="10.00">fmt/ostream.h</text>
</a>
</g>
</g>
<!-- Node6&#45;&gt;Node7 -->
<g id="edge7" class="edge">
<title>Node6&#45;&gt;Node7</title>
<path fill="none" stroke="#63b8ff" d="M1785.32,-164.98C1759.85,-156.16 1719.86,-142.31 1691.27,-132.41"/>
<polygon fill="#63b8ff" stroke="#63b8ff" points="1692.27,-129.05 1681.67,-129.08 1689.98,-135.66 1692.27,-129.05"/>
</g>
<!-- Node8 -->
<g id="node8" class="node">
<title>Node8</title>
<g id="a_node8"><a xlink:title=" ">
<polygon fill="#e0e0e0" stroke="#999999" points="1779.4,-129 1718.4,-129 1718.4,-110 1779.4,-110 1779.4,-129"/>
<text text-anchor="middle" x="1748.9" y="-117" font-family="Helvetica,sans-Serif" font-size="10.00">fmt/std.h</text>
</a>
</g>
</g>
<!-- Node6&#45;&gt;Node8 -->
<g id="edge8" class="edge">
<title>Node6&#45;&gt;Node8</title>
<path fill="none" stroke="#63b8ff" d="M1800.1,-164.98C1791.08,-157.15 1777.49,-145.34 1766.58,-135.86"/>
<polygon fill="#63b8ff" stroke="#63b8ff" points="1768.72,-133.09 1758.88,-129.17 1764.13,-138.37 1768.72,-133.09"/>
</g>
<!-- Node9 -->
<g id="node9" class="node">
<title>Node9</title>
<g id="a_node9"><a xlink:title=" ">
<polygon fill="#e0e0e0" stroke="#999999" points="1446.9,-129 1402.9,-129 1402.9,-110 1446.9,-110 1446.9,-129"/>
<text text-anchor="middle" x="1424.9" y="-117" font-family="Helvetica,sans-Serif" font-size="10.00">limits</text>
</a>
</g>
</g>
<!-- Node6&#45;&gt;Node9 -->
<g id="edge9" class="edge">
<title>Node6&#45;&gt;Node9</title>
<path fill="none" stroke="#63b8ff" d="M1755.55,-166.02C1674.27,-154.83 1523.51,-134.08 1457.4,-124.97"/>
<polygon fill="#63b8ff" stroke="#63b8ff" points="1457.56,-121.46 1447.17,-123.57 1456.6,-128.4 1457.56,-121.46"/>
</g>
<!-- Node6&#45;&gt;Node10 -->
<g id="edge10" class="edge">
<title>Node6&#45;&gt;Node10</title>
<path fill="none" stroke="#63b8ff" d="M1821.63,-164.98C1832.63,-157 1849.32,-144.88 1862.5,-135.31"/>
<polygon fill="#63b8ff" stroke="#63b8ff" points="1864.92,-137.88 1870.96,-129.17 1860.81,-132.21 1864.92,-137.88"/>
</g>
<!-- Node11 -->
<g id="node11" class="node">
<title>Node11</title>
<g id="a_node11"><a xlink:title=" ">
<polygon fill="#e0e0e0" stroke="#999999" points="1845.9,-129 1797.9,-129 1797.9,-110 1845.9,-110 1845.9,-129"/>
<text text-anchor="middle" x="1821.9" y="-117" font-family="Helvetica,sans-Serif" font-size="10.00">thread</text>
</a>
</g>
</g>
<!-- Node6&#45;&gt;Node11 -->
<g id="edge11" class="edge">
<title>Node6&#45;&gt;Node11</title>
<path fill="none" stroke="#63b8ff" d="M1811.88,-164.75C1813.47,-157.72 1815.76,-147.62 1817.75,-138.84"/>
<polygon fill="#63b8ff" stroke="#63b8ff" points="1821.16,-139.62 1819.95,-129.09 1814.33,-138.07 1821.16,-139.62"/>
</g>
<!-- Node19 -->
<g id="node19" class="node">
<title>Node19</title>
<g id="a_node19"><a xlink:href="mem_8h.html" target="_top" xlink:title=" ">
<polygon fill="white" stroke="#666666" points="1130.9,-184 1044.9,-184 1044.9,-165 1130.9,-165 1130.9,-184"/>
<text text-anchor="middle" x="1087.9" y="-172" font-family="Helvetica,sans-Serif" font-size="10.00">ccf/pal/mem.h</text>
</a>
</g>
</g>
<!-- Node18&#45;&gt;Node19 -->
<g id="edge20" class="edge">
<title>Node18&#45;&gt;Node19</title>
<path fill="none" stroke="#63b8ff" d="M932.62,-219.98C963.95,-211.01 1013.47,-196.82 1048.14,-186.89"/>
<polygon fill="#63b8ff" stroke="#63b8ff" points="1049.29,-190.2 1057.94,-184.08 1047.37,-183.47 1049.29,-190.2"/>
</g>
<!-- Node21 -->
<g id="node21" class="node">
<title>Node21</title>
<g id="a_node21"><a xlink:title=" ">
<polygon fill="#e0e0e0" stroke="#999999" points="1003.9,-19 953.9,-19 953.9,0 1003.9,0 1003.9,-19"/>
<text text-anchor="middle" x="978.9" y="-7" font-family="Helvetica,sans-Serif" font-size="10.00">cstring</text>
</a>
</g>
</g>
<!-- Node18&#45;&gt;Node21 -->
<g id="edge63" class="edge">
<title>Node18&#45;&gt;Node21</title>
<path fill="none" stroke="#63b8ff" d="M909.23,-219.97C921.2,-203.38 947.1,-165.23 959.9,-129 971.89,-95.07 976.35,-52.97 977.98,-29.18"/>
<polygon fill="#63b8ff" stroke="#63b8ff" points="981.48,-29.28 978.58,-19.09 974.49,-28.87 981.48,-29.28"/>
</g>
<!-- Node22 -->
<g id="node22" class="node">
<title>Node22</title>
<g id="a_node22"><a xlink:href="ring__buffer__types_8h.html" target="_top" xlink:title=" ">
<polygon fill="white" stroke="#666666" points="752.9,-184 642.9,-184 642.9,-165 752.9,-165 752.9,-184"/>
<text text-anchor="middle" x="697.9" y="-172" font-family="Helvetica,sans-Serif" font-size="10.00">ring_buffer_types.h</text>
</a>
</g>
</g>
<!-- Node18&#45;&gt;Node22 -->
<g id="edge24" class="edge">
<title>Node18&#45;&gt;Node22</title>
<path fill="none" stroke="#63b8ff" d="M869.96,-219.98C834.95,-210.93 779.43,-196.58 740.97,-186.64"/>
<polygon fill="#63b8ff" stroke="#63b8ff" points="741.65,-183.2 731.09,-184.08 739.9,-189.97 741.65,-183.2"/>
</g>
<!-- Node18&#45;&gt;Node41 -->
<g id="edge62" class="edge">
<title>Node18&#45;&gt;Node41</title>
<path fill="none" stroke="#63b8ff" d="M864.27,-222.55C841.37,-216.82 814.13,-205.65 799.9,-184 788.01,-165.91 808.55,-146.92 827.21,-134.48"/>
<polygon fill="#63b8ff" stroke="#63b8ff" points="829.19,-137.37 835.8,-129.09 825.47,-131.44 829.19,-137.37"/>
</g>
<!-- Node42 -->
<g id="node42" class="node">
<title>Node42</title>
<g id="a_node42"><a xlink:title=" ">
<polygon fill="#e0e0e0" stroke="#999999" points="874.4,-184 809.4,-184 809.4,-165 874.4,-165 874.4,-184"/>
<text text-anchor="middle" x="841.9" y="-172" font-family="Helvetica,sans-Serif" font-size="10.00">functional</text>
</a>
</g>
</g>
<!-- Node18&#45;&gt;Node42 -->
<g id="edge64" class="edge">
<title>Node18&#45;&gt;Node42</title>
<path fill="none" stroke="#63b8ff" d="M893.1,-219.98C884.08,-212.15 870.49,-200.34 859.58,-190.86"/>
<polygon fill="#63b8ff" stroke="#63b8ff" points="861.72,-188.09 851.88,-184.17 857.13,-193.37 861.72,-188.09"/>
</g>
<!-- Node19&#45;&gt;Node9 -->
<g id="edge23" class="edge">
<title>Node19&#45;&gt;Node9</title>
<path fill="none" stroke="#63b8ff" d="M1130.92,-166.73C1199.39,-155.97 1331.61,-135.17 1392.62,-125.58"/>
<polygon fill="#63b8ff" stroke="#63b8ff" points="1393.47,-128.99 1402.81,-123.97 1392.38,-122.07 1393.47,-128.99"/>
</g>
<!-- Node20 -->
<g id="node20" class="node">
<title>Node20</title>
<g id="a_node20"><a xlink:title=" ">
<polygon fill="#e0e0e0" stroke="#999999" points="1098.4,-129 1045.4,-129 1045.4,-110 1098.4,-110 1098.4,-129"/>
<text text-anchor="middle" x="1071.9" y="-117" font-family="Helvetica,sans-Serif" font-size="10.00">stdlib.h</text>
</a>
</g>
</g>
<!-- Node19&#45;&gt;Node20 -->
<g id="edge21" class="edge">
<title>Node19&#45;&gt;Node20</title>
<path fill="none" stroke="#63b8ff" d="M1085.26,-164.75C1083.14,-157.72 1080.09,-147.62 1077.44,-138.84"/>
<polygon fill="#63b8ff" stroke="#63b8ff" points="1080.73,-137.65 1074.49,-129.09 1074.03,-139.67 1080.73,-137.65"/>
</g>
<!-- Node19&#45;&gt;Node21 -->
<g id="edge22" class="edge">
<title>Node19&#45;&gt;Node21</title>
<path fill="none" stroke="#63b8ff" d="M1094.33,-164.95C1102.91,-152.44 1116,-128.61 1106.9,-110 1086.5,-68.3 1039.25,-39.03 1008.22,-23.48"/>
<polygon fill="#63b8ff" stroke="#63b8ff" points="1009.68,-20.3 999.16,-19.1 1006.64,-26.61 1009.68,-20.3"/>
</g>
<!-- Node22&#45;&gt;Node5 -->
<g id="edge57" class="edge">
<title>Node22&#45;&gt;Node5</title>
<path fill="none" stroke="#63b8ff" d="M753.21,-167.63C851.16,-157.22 1053.63,-135.72 1147.33,-125.76"/>
<polygon fill="#63b8ff" stroke="#63b8ff" points="1147.82,-129.23 1157.4,-124.7 1147.08,-122.27 1147.82,-129.23"/>
</g>
<!-- Node22&#45;&gt;Node15 -->
<g id="edge58" class="edge">
<title>Node22&#45;&gt;Node15</title>
<path fill="none" stroke="#63b8ff" d="M734.05,-164.98C775.36,-155.25 842.69,-139.39 884.8,-129.47"/>
<polygon fill="#63b8ff" stroke="#63b8ff" points="885.74,-132.85 894.67,-127.15 884.14,-126.03 885.74,-132.85"/>
</g>
<!-- Node23 -->
<g id="node23" class="node">
<title>Node23</title>
<g id="a_node23"><a xlink:href="include_2ccf_2ds_2hash_8h.html" target="_top" xlink:title=" ">
<polygon fill="white" stroke="#666666" points="320.9,-129 240.9,-129 240.9,-110 320.9,-110 320.9,-129"/>
<text text-anchor="middle" x="280.9" y="-117" font-family="Helvetica,sans-Serif" font-size="10.00">ccf/ds/hash.h</text>
</a>
</g>
</g>
<!-- Node22&#45;&gt;Node23 -->
<g id="edge25" class="edge">
<title>Node22&#45;&gt;Node23</title>
<path fill="none" stroke="#63b8ff" d="M642.52,-166.46C561,-156.1 409.87,-136.89 331.29,-126.9"/>
<polygon fill="#63b8ff" stroke="#63b8ff" points="331.52,-123.41 321.16,-125.62 330.64,-130.35 331.52,-123.41"/>
</g>
<!-- Node27 -->
<g id="node27" class="node">
<title>Node27</title>
<g id="a_node27"><a xlink:title=" ">
<polygon fill="#e0e0e0" stroke="#999999" points="462.4,-19 415.4,-19 415.4,0 462.4,0 462.4,-19"/>
<text text-anchor="middle" x="438.9" y="-7" font-family="Helvetica,sans-Serif" font-size="10.00">vector</text>
</a>
</g>
</g>
<!-- Node22&#45;&gt;Node27 -->
<g id="edge61" class="edge">
<title>Node22&#45;&gt;Node27</title>
<path fill="none" stroke="#63b8ff" d="M652.61,-164.97C600.9,-153.04 516.76,-126.64 464.9,-74 452.76,-61.68 446.03,-42.91 442.47,-28.97"/>
<polygon fill="#63b8ff" stroke="#63b8ff" points="445.85,-28.04 440.26,-19.04 439.02,-29.56 445.85,-28.04"/>
</g>
<!-- Node31 -->
<g id="node31" class="node">
<title>Node31</title>
<g id="a_node31"><a xlink:href="nonstd_8h.html" target="_top" xlink:title=" ">
<polygon fill="white" stroke="#666666" points="588.9,-74 498.9,-74 498.9,-55 588.9,-55 588.9,-74"/>
<text text-anchor="middle" x="543.9" y="-62" font-family="Helvetica,sans-Serif" font-size="10.00">ccf/ds/nonstd.h</text>
</a>
</g>
</g>
<!-- Node22&#45;&gt;Node31 -->
<g id="edge35" class="edge">
<title>Node22&#45;&gt;Node31</title>
<path fill="none" stroke="#63b8ff" d="M685.56,-164.84C659.2,-146.36 597.17,-102.86 564.64,-80.05"/>
<polygon fill="#63b8ff" stroke="#63b8ff" points="566.5,-77.07 556.3,-74.2 562.48,-82.8 566.5,-77.07"/>
</g>
<!-- Node34 -->
<g id="node34" class="node">
<title>Node34</title>
<g id="a_node34"><a xlink:title=" ">
<polygon fill="#e0e0e0" stroke="#999999" points="674.9,-19 630.9,-19 630.9,0 674.9,0 674.9,-19"/>
<text text-anchor="middle" x="652.9" y="-7" font-family="Helvetica,sans-Serif" font-size="10.00">string</text>
</a>
</g>
</g>
<!-- Node22&#45;&gt;Node34 -->
<g id="edge60" class="edge">
<title>Node22&#45;&gt;Node34</title>
<path fill="none" stroke="#63b8ff" d="M715.36,-164.89C733.02,-156.1 761.05,-141.96 784.9,-129 799.77,-120.92 802.5,-117.02 817.9,-110 862.4,-89.71 893.53,-113.84 921.9,-74 926.8,-67.12 927.36,-61.44 921.9,-55 906.71,-37.1 753.52,-20.22 685.33,-13.53"/>
<polygon fill="#63b8ff" stroke="#63b8ff" points="685.44,-10.02 675.15,-12.54 684.77,-16.99 685.44,-10.02"/>
</g>
<!-- Node35 -->
<g id="node35" class="node">
<title>Node35</title>
<g id="a_node35"><a xlink:href="serializer_8h.html" target="_top" xlink:title=" ">
<polygon fill="white" stroke="#666666" points="732.9,-129 662.9,-129 662.9,-110 732.9,-110 732.9,-129"/>
<text text-anchor="middle" x="697.9" y="-117" font-family="Helvetica,sans-Serif" font-size="10.00">serializer.h</text>
</a>
</g>
</g>
<!-- Node22&#45;&gt;Node35 -->
<g id="edge43" class="edge">
<title>Node22&#45;&gt;Node35</title>
<path fill="none" stroke="#63b8ff" d="M697.9,-164.75C697.9,-157.8 697.9,-147.85 697.9,-139.13"/>
<polygon fill="#63b8ff" stroke="#63b8ff" points="701.4,-139.09 697.9,-129.09 694.4,-139.09 701.4,-139.09"/>
</g>
<!-- Node39 -->
<g id="node39" class="node">
<title>Node39</title>
<g id="a_node39"><a xlink:title=" ">
<polygon fill="#e0e0e0" stroke="#999999" points="912.9,-74 872.9,-74 872.9,-55 912.9,-55 912.9,-74"/>
<text text-anchor="middle" x="892.9" y="-62" font-family="Helvetica,sans-Serif" font-size="10.00">span</text>
</a>
</g>
</g>
<!-- Node22&#45;&gt;Node39 -->
<g id="edge59" class="edge">
<title>Node22&#45;&gt;Node39</title>
<path fill="none" stroke="#63b8ff" d="M708.06,-164.82C723.76,-151.71 755.21,-126.63 784.9,-110 810.21,-95.82 840.97,-83.59 863.18,-75.56"/>
<polygon fill="#63b8ff" stroke="#63b8ff" points="864.47,-78.81 872.73,-72.17 862.13,-72.21 864.47,-78.81"/>
</g>
<!-- Node22&#45;&gt;Node41 -->
<g id="edge56" class="edge">
<title>Node22&#45;&gt;Node41</title>
<path fill="none" stroke="#63b8ff" d="M722.64,-164.98C748.27,-156.16 788.53,-142.31 817.31,-132.41"/>
<polygon fill="#63b8ff" stroke="#63b8ff" points="818.65,-135.65 826.96,-129.08 816.37,-129.03 818.65,-135.65"/>
</g>
<!-- Node24 -->
<g id="node24" class="node">
<title>Node24</title>
<g id="a_node24"><a xlink:href="siphash_8h.html" target="_top" xlink:title=" ">
<polygon fill="white" stroke="#666666" points="328.4,-74 233.4,-74 233.4,-55 328.4,-55 328.4,-74"/>
<text text-anchor="middle" x="280.9" y="-62" font-family="Helvetica,sans-Serif" font-size="10.00">ccf/ds/siphash.h</text>
</a>
</g>
</g>
<!-- Node23&#45;&gt;Node24 -->
<g id="edge26" class="edge">
<title>Node23&#45;&gt;Node24</title>
<path fill="none" stroke="#63b8ff" d="M280.9,-109.75C280.9,-102.8 280.9,-92.85 280.9,-84.13"/>
<polygon fill="#63b8ff" stroke="#63b8ff" points="284.4,-84.09 280.9,-74.09 277.4,-84.09 284.4,-84.09"/>
</g>
<!-- Node26 -->
<g id="node26" class="node">
<title>Node26</title>
<g id="a_node26"><a xlink:title=" ">
<polygon fill="#e0e0e0" stroke="#999999" points="305.9,-19 255.9,-19 255.9,0 305.9,0 305.9,-19"/>
<text text-anchor="middle" x="280.9" y="-7" font-family="Helvetica,sans-Serif" font-size="10.00">cstdint</text>
</a>
</g>
</g>
<!-- Node23&#45;&gt;Node26 -->
<g id="edge31" class="edge">
<title>Node23&#45;&gt;Node26</title>
<path fill="none" stroke="#63b8ff" d="M262.55,-109.88C249.11,-102.46 231.88,-90.36 223.9,-74 214.25,-54.23 234.97,-36.03 254.08,-24.23"/>
<polygon fill="#63b8ff" stroke="#63b8ff" points="256,-27.16 262.91,-19.13 252.5,-21.1 256,-27.16"/>
</g>
<!-- Node23&#45;&gt;Node27 -->
<g id="edge34" class="edge">
<title>Node23&#45;&gt;Node27</title>
<path fill="none" stroke="#63b8ff" d="M296.98,-109.88C312.62,-101.31 336.88,-87.53 356.9,-74 379.56,-58.69 404.19,-39.19 420.48,-25.87"/>
<polygon fill="#63b8ff" stroke="#63b8ff" points="423.12,-28.23 428.61,-19.17 418.67,-22.83 423.12,-28.23"/>
</g>
<!-- Node28 -->
<g id="node28" class="node">
<title>Node28</title>
<g id="a_node28"><a xlink:title=" ">
<polygon fill="#e0e0e0" stroke="#999999" points="237.9,-19 195.9,-19 195.9,0 237.9,0 237.9,-19"/>
<text text-anchor="middle" x="216.9" y="-7" font-family="Helvetica,sans-Serif" font-size="10.00">array</text>
</a>
</g>
</g>
<!-- Node23&#45;&gt;Node28 -->
<g id="edge30" class="edge">
<title>Node23&#45;&gt;Node28</title>
<path fill="none" stroke="#63b8ff" d="M240.66,-117.74C174.38,-115.56 46.81,-107.05 18.9,-74 -16.8,-31.73 -19.6,-69.28 185.9,-19 186,-18.98 186.1,-18.95 186.19,-18.93"/>
<polygon fill="#63b8ff" stroke="#63b8ff" points="186.78,-22.39 195.59,-16.51 185.04,-15.61 186.78,-22.39"/>
</g>
<!-- Node29 -->
<g id="node29" class="node">
<title>Node29</title>
<g id="a_node29"><a xlink:title=" ">
<polygon fill="#e0e0e0" stroke="#999999" points="177.4,-74 28.4,-74 28.4,-55 177.4,-55 177.4,-74"/>
<text text-anchor="middle" x="102.9" y="-62" font-family="Helvetica,sans-Serif" font-size="10.00">small_vector/SmallVector.h</text>
</a>
</g>
</g>
<!-- Node23&#45;&gt;Node29 -->
<g id="edge32" class="edge">
<title>Node23&#45;&gt;Node29</title>
<path fill="none" stroke="#63b8ff" d="M252.3,-109.98C222.29,-101.05 174.92,-86.94 141.58,-77.02"/>
<polygon fill="#63b8ff" stroke="#63b8ff" points="142.3,-73.58 131.72,-74.08 140.31,-80.29 142.3,-73.58"/>
</g>
<!-- Node30 -->
<g id="node30" class="node">
<title>Node30</title>
<g id="a_node30"><a xlink:title=" ">
<polygon fill="#e0e0e0" stroke="#999999" points="397.4,-19 324.4,-19 324.4,0 397.4,0 397.4,-19"/>
<text text-anchor="middle" x="360.9" y="-7" font-family="Helvetica,sans-Serif" font-size="10.00">string_view</text>
</a>
</g>
</g>
<!-- Node23&#45;&gt;Node30 -->
<g id="edge33" class="edge">
<title>Node23&#45;&gt;Node30</title>
<path fill="none" stroke="#63b8ff" d="M295.61,-109.98C308.12,-102.08 325.77,-89.25 336.9,-74 346.78,-60.46 353.08,-42.37 356.74,-28.97"/>
<polygon fill="#63b8ff" stroke="#63b8ff" points="360.2,-29.56 359.21,-19.01 353.41,-27.87 360.2,-29.56"/>
</g>
<!-- Node25 -->
<g id="node25" class="node">
<title>Node25</title>
<g id="a_node25"><a xlink:title=" ">
<polygon fill="#e0e0e0" stroke="#999999" points="177.4,-19 124.4,-19 124.4,0 177.4,0 177.4,-19"/>
<text text-anchor="middle" x="150.9" y="-7" font-family="Helvetica,sans-Serif" font-size="10.00">cstddef</text>
</a>
</g>
</g>
<!-- Node24&#45;&gt;Node25 -->
<g id="edge27" class="edge">
<title>Node24&#45;&gt;Node25</title>
<path fill="none" stroke="#63b8ff" d="M260.01,-54.98C238.82,-46.34 205.77,-32.87 181.6,-23.02"/>
<polygon fill="#63b8ff" stroke="#63b8ff" points="182.75,-19.7 172.17,-19.17 180.1,-26.19 182.75,-19.7"/>
</g>
<!-- Node24&#45;&gt;Node26 -->
<g id="edge28" class="edge">
<title>Node24&#45;&gt;Node26</title>
<path fill="none" stroke="#63b8ff" d="M280.9,-54.75C280.9,-47.8 280.9,-37.85 280.9,-29.13"/>
<polygon fill="#63b8ff" stroke="#63b8ff" points="284.4,-29.09 280.9,-19.09 277.4,-29.09 284.4,-29.09"/>
</g>
<!-- Node24&#45;&gt;Node27 -->
<g id="edge29" class="edge">
<title>Node24&#45;&gt;Node27</title>
<path fill="none" stroke="#63b8ff" d="M306.28,-54.98C333.32,-45.91 376.23,-31.52 405.88,-21.58"/>
<polygon fill="#63b8ff" stroke="#63b8ff" points="407.01,-24.89 415.38,-18.39 404.79,-18.25 407.01,-24.89"/>
</g>
<!-- Node31&#45;&gt;Node17 -->
<g id="edge41" class="edge">
<title>Node31&#45;&gt;Node17</title>
<path fill="none" stroke="#63b8ff" d="M588.96,-55.57C645.93,-45.53 743.41,-28.37 800.21,-18.37"/>
<polygon fill="#63b8ff" stroke="#63b8ff" points="801.08,-21.77 810.32,-16.59 799.86,-14.88 801.08,-21.77"/>
</g>
<!-- Node31&#45;&gt;Node27 -->
<g id="edge42" class="edge">
<title>Node31&#45;&gt;Node27</title>
<path fill="none" stroke="#63b8ff" d="M527.03,-54.98C510.29,-46.54 484.4,-33.47 465.01,-23.68"/>
<polygon fill="#63b8ff" stroke="#63b8ff" points="466.58,-20.55 456.08,-19.17 463.43,-26.8 466.58,-20.55"/>
</g>
<!-- Node31&#45;&gt;Node28 -->
<g id="edge37" class="edge">
<title>Node31&#45;&gt;Node28</title>
<path fill="none" stroke="#63b8ff" d="M498.79,-58.56C442.31,-51.96 342.45,-39 248.11,-19.02"/>
<polygon fill="#63b8ff" stroke="#63b8ff" points="248.63,-15.55 238.12,-16.87 247.16,-22.4 248.63,-15.55"/>
</g>
<!-- Node31&#45;&gt;Node30 -->
<g id="edge40" class="edge">
<title>Node31&#45;&gt;Node30</title>
<path fill="none" stroke="#63b8ff" d="M514.5,-54.98C483.51,-46.01 434.52,-31.82 400.23,-21.89"/>
<polygon fill="#63b8ff" stroke="#63b8ff" points="401.11,-18.5 390.53,-19.08 399.16,-25.23 401.11,-18.5"/>
</g>
<!-- Node32 -->
<g id="node32" class="node">
<title>Node32</title>
<g id="a_node32"><a xlink:title=" ">
<polygon fill="#e0e0e0" stroke="#999999" points="544.9,-19 480.9,-19 480.9,0 544.9,0 544.9,-19"/>
<text text-anchor="middle" x="512.9" y="-7" font-family="Helvetica,sans-Serif" font-size="10.00">algorithm</text>
</a>
</g>
</g>
<!-- Node31&#45;&gt;Node32 -->
<g id="edge36" class="edge">
<title>Node31&#45;&gt;Node32</title>
<path fill="none" stroke="#63b8ff" d="M538.78,-54.75C534.54,-47.49 528.37,-36.95 523.12,-27.98"/>
<polygon fill="#63b8ff" stroke="#63b8ff" points="525.99,-25.95 517.92,-19.09 519.95,-29.49 525.99,-25.95"/>
</g>
<!-- Node33 -->
<g id="node33" class="node">
<title>Node33</title>
<g id="a_node33"><a xlink:title=" ">
<polygon fill="#e0e0e0" stroke="#999999" points="612.4,-19 563.4,-19 563.4,0 612.4,0 612.4,-19"/>
<text text-anchor="middle" x="587.9" y="-7" font-family="Helvetica,sans-Serif" font-size="10.00">cctype</text>
</a>
</g>
</g>
<!-- Node31&#45;&gt;Node33 -->
<g id="edge38" class="edge">
<title>Node31&#45;&gt;Node33</title>
<path fill="none" stroke="#63b8ff" d="M551.16,-54.75C557.44,-47.18 566.69,-36.05 574.33,-26.84"/>
<polygon fill="#63b8ff" stroke="#63b8ff" points="577.07,-29.02 580.77,-19.09 571.69,-24.55 577.07,-29.02"/>
</g>
<!-- Node31&#45;&gt;Node34 -->
<g id="edge39" class="edge">
<title>Node31&#45;&gt;Node34</title>
<path fill="none" stroke="#63b8ff" d="M561.41,-54.98C578.87,-46.5 605.91,-33.35 626.07,-23.54"/>
<polygon fill="#63b8ff" stroke="#63b8ff" points="627.6,-26.69 635.07,-19.17 624.54,-20.4 627.6,-26.69"/>
</g>
<!-- Node35&#45;&gt;Node17 -->
<g id="edge54" class="edge">
<title>Node35&#45;&gt;Node17</title>
<path fill="none" stroke="#63b8ff" d="M732.91,-110C765.83,-101.36 811.94,-87.38 824.9,-74 836.57,-61.95 841.44,-43.14 843.46,-29.12"/>
<polygon fill="#63b8ff" stroke="#63b8ff" points="846.95,-29.44 844.55,-19.12 839.99,-28.68 846.95,-29.44"/>
</g>
<!-- Node35&#45;&gt;Node27 -->
<g id="edge55" class="edge">
<title>Node35&#45;&gt;Node27</title>
<path fill="none" stroke="#63b8ff" d="M662.88,-118.04C619.28,-115.96 543.97,-107.33 489.9,-74 471.71,-62.79 457.22,-42.68 448.41,-28.09"/>
<polygon fill="#63b8ff" stroke="#63b8ff" points="451.24,-25.99 443.23,-19.05 445.16,-29.47 451.24,-25.99"/>
</g>
<!-- Node35&#45;&gt;Node31 -->
<g id="edge44" class="edge">
<title>Node35&#45;&gt;Node31</title>
<path fill="none" stroke="#63b8ff" d="M673.16,-109.98C647.52,-101.16 607.27,-87.31 578.49,-77.41"/>
<polygon fill="#63b8ff" stroke="#63b8ff" points="579.43,-74.03 568.84,-74.08 577.15,-80.65 579.43,-74.03"/>
</g>
<!-- Node35&#45;&gt;Node36 -->
<g id="edge45" class="edge">
<title>Node35&#45;&gt;Node36</title>
<path fill="none" stroke="#63b8ff" d="M688.98,-109.75C681.12,-102.03 669.47,-90.6 659.98,-81.28"/>
<polygon fill="#63b8ff" stroke="#63b8ff" points="662.24,-78.6 652.65,-74.09 657.34,-83.59 662.24,-78.6"/>
</g>
<!-- Node38 -->
<g id="node38" class="node">
<title>Node38</title>
<g id="a_node38"><a xlink:title=" ">
<polygon fill="#e0e0e0" stroke="#999999" points="756.9,-74 698.9,-74 698.9,-55 756.9,-55 756.9,-74"/>
<text text-anchor="middle" x="727.9" y="-62" font-family="Helvetica,sans-Serif" font-size="10.00">memory</text>
</a>
</g>
</g>
<!-- Node35&#45;&gt;Node38 -->
<g id="edge51" class="edge">
<title>Node35&#45;&gt;Node38</title>
<path fill="none" stroke="#63b8ff" d="M702.85,-109.75C706.96,-102.49 712.92,-91.95 718,-82.98"/>
<polygon fill="#63b8ff" stroke="#63b8ff" points="721.16,-84.52 723.04,-74.09 715.07,-81.07 721.16,-84.52"/>
</g>
<!-- Node35&#45;&gt;Node39 -->
<g id="edge52" class="edge">
<title>Node35&#45;&gt;Node39</title>
<path fill="none" stroke="#63b8ff" d="M729.23,-109.98C765.97,-100 826.46,-83.56 862.71,-73.71"/>
<polygon fill="#63b8ff" stroke="#63b8ff" points="863.95,-76.99 872.69,-70.99 862.12,-70.24 863.95,-76.99"/>
</g>
<!-- Node40 -->
<g id="node40" class="node">
<title>Node40</title>
<g id="a_node40"><a xlink:title=" ">
<polygon fill="#e0e0e0" stroke="#999999" points="816.4,-74 775.4,-74 775.4,-55 816.4,-55 816.4,-74"/>
<text text-anchor="middle" x="795.9" y="-62" font-family="Helvetica,sans-Serif" font-size="10.00">tuple</text>
</a>
</g>
</g>
<!-- Node35&#45;&gt;Node40 -->
<g id="edge53" class="edge">
<title>Node35&#45;&gt;Node40</title>
<path fill="none" stroke="#63b8ff" d="M713.64,-109.98C729.13,-101.61 752.99,-88.7 771.04,-78.95"/>
<polygon fill="#63b8ff" stroke="#63b8ff" points="772.74,-82.01 779.87,-74.17 769.41,-75.85 772.74,-82.01"/>
</g>
<!-- Node36&#45;&gt;Node21 -->
<g id="edge47" class="edge">
<title>Node36&#45;&gt;Node21</title>
<path fill="none" stroke="#63b8ff" d="M680.54,-56.63C683.7,-56.06 686.86,-55.52 689.9,-55 781.17,-39.54 889.04,-23.53 943.56,-15.59"/>
<polygon fill="#63b8ff" stroke="#63b8ff" points="944.34,-19.02 953.73,-14.12 943.33,-12.09 944.34,-19.02"/>
</g>
<!-- Node36&#45;&gt;Node26 -->
<g id="edge46" class="edge">
<title>Node36&#45;&gt;Node26</title>
<path fill="none" stroke="#63b8ff" d="M607.27,-56.54C604.11,-56 600.95,-55.48 597.9,-55 475.8,-35.97 441.25,-42.08 316.05,-19.01"/>
<polygon fill="#63b8ff" stroke="#63b8ff" points="316.55,-15.54 306.08,-17.15 315.26,-22.42 316.55,-15.54"/>
</g>
<!-- Node36&#45;&gt;Node27 -->
<g id="edge50" class="edge">
<title>Node36&#45;&gt;Node27</title>
<path fill="none" stroke="#63b8ff" d="M610.96,-54.98C572.99,-45.17 510.92,-29.12 472.62,-19.22"/>
<polygon fill="#63b8ff" stroke="#63b8ff" points="473.05,-15.71 462.49,-16.6 471.29,-22.49 473.05,-15.71"/>
</g>
<!-- Node36&#45;&gt;Node34 -->
<g id="edge49" class="edge">
<title>Node36&#45;&gt;Node34</title>
<path fill="none" stroke="#63b8ff" d="M645.38,-54.75C646.56,-47.8 648.26,-37.85 649.73,-29.13"/>
<polygon fill="#63b8ff" stroke="#63b8ff" points="653.22,-29.53 651.44,-19.09 646.32,-28.36 653.22,-29.53"/>
</g>
<!-- Node36&#45;&gt;Node37 -->
<g id="edge48" class="edge">
<title>Node36&#45;&gt;Node37</title>
<path fill="none" stroke="#63b8ff" d="M680.49,-56.3C683.67,-55.81 686.83,-55.37 689.9,-55 978.54,-20.47 1328.89,-12.67 1449.06,-10.96"/>
<polygon fill="#63b8ff" stroke="#63b8ff" points="1449.35,-14.46 1459.3,-10.82 1449.25,-7.46 1449.35,-14.46"/>
</g>
</g>
</svg>
