<?xml version="1.0" encoding="UTF-8" standalone="no"?>
<!DOCTYPE svg PUBLIC "-//W3C//DTD SVG 1.1//EN"
 "http://www.w3.org/Graphics/SVG/1.1/DTD/svg11.dtd">
<!-- Generated by graphviz version 2.43.0 (0)
 -->
<!-- Title: src/quic/quic_session.h Pages: 1 -->
<svg width="2026pt" height="357pt"
 viewBox="0.00 0.00 2026.11 357.00" xmlns="http://www.w3.org/2000/svg" xmlns:xlink="http://www.w3.org/1999/xlink">
<g id="graph0" class="graph" transform="scale(1 1) rotate(0) translate(4 353)">
<title>src/quic/quic_session.h</title>
<!-- Node1 -->
<g id="node1" class="node">
<title>Node1</title>
<g id="a_node1"><a xlink:title=" ">
<polygon fill="#999999" stroke="#666666" points="1145.61,-349 1017.61,-349 1017.61,-330 1145.61,-330 1145.61,-349"/>
<text text-anchor="middle" x="1081.61" y="-337" font-family="Helvetica,sans-Serif" font-size="10.00">src/quic/quic_session.h</text>
</a>
</g>
</g>
<!-- Node2 -->
<g id="node2" class="node">
<title>Node2</title>
<g id="a_node2"><a xlink:href="logger_8h.html" target="_top" xlink:title=" ">
<polygon fill="white" stroke="#666666" points="528.11,-129 441.11,-129 441.11,-110 528.11,-110 528.11,-129"/>
<text text-anchor="middle" x="484.61" y="-117" font-family="Helvetica,sans-Serif" font-size="10.00">ccf/ds/logger.h</text>
</a>
</g>
</g>
<!-- Node1&#45;&gt;Node2 -->
<g id="edge1" class="edge">
<title>Node1&#45;&gt;Node2</title>
<path fill="none" stroke="#63b8ff" d="M1017.46,-332.54C959.73,-326.2 872.95,-314.23 799.61,-294 673.11,-259.11 626.85,-267.49 525.61,-184 510.62,-171.64 499.25,-152.33 492.33,-138.25"/>
<polygon fill="#63b8ff" stroke="#63b8ff" points="495.47,-136.7 488.09,-129.1 489.12,-139.64 495.47,-136.7"/>
</g>
<!-- Node17 -->
<g id="node17" class="node">
<title>Node17</title>
<g id="a_node17"><a xlink:href="messaging_8h.html" target="_top" xlink:title=" ">
<polygon fill="white" stroke="#666666" points="1193.11,-294 1100.11,-294 1100.11,-275 1193.11,-275 1193.11,-294"/>
<text text-anchor="middle" x="1146.61" y="-282" font-family="Helvetica,sans-Serif" font-size="10.00">ds/messaging.h</text>
</a>
</g>
</g>
<!-- Node1&#45;&gt;Node17 -->
<g id="edge18" class="edge">
<title>Node1&#45;&gt;Node17</title>
<path fill="none" stroke="#63b8ff" d="M1092.05,-329.98C1101.75,-322.07 1116.42,-310.11 1128.11,-300.58"/>
<polygon fill="#63b8ff" stroke="#63b8ff" points="1130.44,-303.2 1135.97,-294.17 1126.01,-297.78 1130.44,-303.2"/>
</g>
<!-- Node18 -->
<g id="node18" class="node">
<title>Node18</title>
<g id="a_node18"><a xlink:href="ring__buffer_8h.html" target="_top" xlink:title=" ">
<polygon fill="white" stroke="#666666" points="1684.11,-239 1607.11,-239 1607.11,-220 1684.11,-220 1684.11,-239"/>
<text text-anchor="middle" x="1645.61" y="-227" font-family="Helvetica,sans-Serif" font-size="10.00">ring_buffer.h</text>
</a>
</g>
</g>
<!-- Node1&#45;&gt;Node18 -->
<g id="edge72" class="edge">
<title>Node1&#45;&gt;Node18</title>
<path fill="none" stroke="#63b8ff" d="M1106.68,-329.93C1131.13,-321.4 1169.26,-307.65 1201.61,-294 1219.74,-286.35 1222.65,-280.3 1241.61,-275 1392.63,-232.74 1437.13,-259.42 1592.61,-239 1593.91,-238.83 1595.22,-238.65 1596.55,-238.47"/>
<polygon fill="#63b8ff" stroke="#63b8ff" points="1597.46,-241.87 1606.86,-236.98 1596.46,-234.95 1597.46,-241.87"/>
</g>
<!-- Node44 -->
<g id="node44" class="node">
<title>Node44</title>
<g id="a_node44"><a xlink:href="pending__io_8h.html" target="_top" xlink:title=" ">
<polygon fill="white" stroke="#666666" points="1343.11,-294 1250.11,-294 1250.11,-275 1343.11,-275 1343.11,-294"/>
<text text-anchor="middle" x="1296.61" y="-282" font-family="Helvetica,sans-Serif" font-size="10.00">ds/pending_io.h</text>
</a>
</g>
</g>
<!-- Node1&#45;&gt;Node44 -->
<g id="edge70" class="edge">
<title>Node1&#45;&gt;Node44</title>
<path fill="none" stroke="#63b8ff" d="M1116.15,-329.98C1153.03,-320.89 1211.59,-306.46 1251.95,-296.51"/>
<polygon fill="#63b8ff" stroke="#63b8ff" points="1252.92,-299.87 1261.79,-294.08 1251.25,-293.08 1252.92,-299.87"/>
</g>
<!-- Node46 -->
<g id="node46" class="node">
<title>Node46</title>
<g id="a_node46"><a xlink:href="thread__messaging_8h.html" target="_top" xlink:title=" ">
<polygon fill="white" stroke="#666666" points="832.61,-239 702.61,-239 702.61,-220 832.61,-220 832.61,-239"/>
<text text-anchor="middle" x="767.61" y="-227" font-family="Helvetica,sans-Serif" font-size="10.00">ds/thread_messaging.h</text>
</a>
</g>
</g>
<!-- Node1&#45;&gt;Node46 -->
<g id="edge73" class="edge">
<title>Node1&#45;&gt;Node46</title>
<path fill="none" stroke="#63b8ff" d="M1017.44,-338.29C963.79,-335.63 886.75,-325.82 827.61,-294 807.03,-282.93 789.5,-262.19 778.79,-247.43"/>
<polygon fill="#63b8ff" stroke="#63b8ff" points="781.62,-245.37 773.04,-239.15 775.87,-249.36 781.62,-245.37"/>
</g>
<!-- Node49 -->
<g id="node49" class="node">
<title>Node49</title>
<g id="a_node49"><a xlink:href="session_8h.html" target="_top" xlink:title=" ">
<polygon fill="white" stroke="#666666" points="940.61,-294 836.61,-294 836.61,-275 940.61,-275 940.61,-294"/>
<text text-anchor="middle" x="888.61" y="-282" font-family="Helvetica,sans-Serif" font-size="10.00">enclave/session.h</text>
</a>
</g>
</g>
<!-- Node1&#45;&gt;Node49 -->
<g id="edge81" class="edge">
<title>Node1&#45;&gt;Node49</title>
<path fill="none" stroke="#63b8ff" d="M1050.6,-329.98C1017.78,-320.97 965.81,-306.7 929.62,-296.76"/>
<polygon fill="#63b8ff" stroke="#63b8ff" points="930.43,-293.36 919.86,-294.08 928.58,-300.11 930.43,-293.36"/>
</g>
<!-- Node51 -->
<g id="node51" class="node">
<title>Node51</title>
<g id="a_node51"><a xlink:href="quic_2msg__types_8h.html" target="_top" xlink:title=" ">
<polygon fill="white" stroke="#666666" points="1074.61,-294 972.61,-294 972.61,-275 1074.61,-275 1074.61,-294"/>
<text text-anchor="middle" x="1023.61" y="-282" font-family="Helvetica,sans-Serif" font-size="10.00">quic/msg_types.h</text>
</a>
</g>
</g>
<!-- Node1&#45;&gt;Node51 -->
<g id="edge86" class="edge">
<title>Node1&#45;&gt;Node51</title>
<path fill="none" stroke="#63b8ff" d="M1072.29,-329.98C1063.8,-322.23 1051.05,-310.58 1040.73,-301.14"/>
<polygon fill="#63b8ff" stroke="#63b8ff" points="1042.84,-298.33 1033.1,-294.17 1038.12,-303.5 1042.84,-298.33"/>
</g>
<!-- Node52 -->
<g id="node52" class="node">
<title>Node52</title>
<g id="a_node52"><a xlink:title=" ">
<polygon fill="#e0e0e0" stroke="#999999" points="1426.11,-294 1361.11,-294 1361.11,-275 1426.11,-275 1426.11,-294"/>
<text text-anchor="middle" x="1393.61" y="-282" font-family="Helvetica,sans-Serif" font-size="10.00">exception</text>
</a>
</g>
</g>
<!-- Node1&#45;&gt;Node52 -->
<g id="edge88" class="edge">
<title>Node1&#45;&gt;Node52</title>
<path fill="none" stroke="#63b8ff" d="M1137.78,-329.98C1190.42,-321.83 1271.55,-308.87 1350.8,-294.28"/>
<polygon fill="#63b8ff" stroke="#63b8ff" points="1351.76,-297.66 1360.96,-292.4 1350.49,-290.78 1351.76,-297.66"/>
</g>
<!-- Node3 -->
<g id="node3" class="node">
<title>Node3</title>
<g id="a_node3"><a xlink:href="enum__formatter_8h.html" target="_top" xlink:title=" ">
<polygon fill="white" stroke="#666666" points="528.61,-74 392.61,-74 392.61,-55 528.61,-55 528.61,-74"/>
<text text-anchor="middle" x="460.61" y="-62" font-family="Helvetica,sans-Serif" font-size="10.00">ccf/ds/enum_formatter.h</text>
</a>
</g>
</g>
<!-- Node2&#45;&gt;Node3 -->
<g id="edge2" class="edge">
<title>Node2&#45;&gt;Node3</title>
<path fill="none" stroke="#63b8ff" d="M480.64,-109.75C477.39,-102.57 472.69,-92.18 468.65,-83.27"/>
<polygon fill="#63b8ff" stroke="#63b8ff" points="471.81,-81.75 464.5,-74.09 465.43,-84.64 471.81,-81.75"/>
</g>
<!-- Node4 -->
<g id="node4" class="node">
<title>Node4</title>
<g id="a_node4"><a xlink:title=" ">
<polygon fill="#e0e0e0" stroke="#999999" points="500.11,-19 421.11,-19 421.11,0 500.11,0 500.11,-19"/>
<text text-anchor="middle" x="460.61" y="-7" font-family="Helvetica,sans-Serif" font-size="10.00">fmt/format.h</text>
</a>
</g>
</g>
<!-- Node2&#45;&gt;Node4 -->
<g id="edge12" class="edge">
<title>Node2&#45;&gt;Node4</title>
<path fill="none" stroke="#63b8ff" d="M440.75,-117.71C328.13,-115.23 35.55,-105.76 6.61,-74 -48.85,-13.14 281.88,-9.18 410.79,-9.9"/>
<polygon fill="#63b8ff" stroke="#63b8ff" points="410.78,-13.4 420.8,-9.96 410.83,-6.4 410.78,-13.4"/>
</g>
<!-- Node5 -->
<g id="node5" class="node">
<title>Node5</title>
<g id="a_node5"><a xlink:href="thread__ids_8h.html" target="_top" xlink:title=" ">
<polygon fill="white" stroke="#666666" points="692.61,-74 584.61,-74 584.61,-55 692.61,-55 692.61,-74"/>
<text text-anchor="middle" x="638.61" y="-62" font-family="Helvetica,sans-Serif" font-size="10.00">ccf/ds/thread_ids.h</text>
</a>
</g>
</g>
<!-- Node2&#45;&gt;Node5 -->
<g id="edge4" class="edge">
<title>Node2&#45;&gt;Node5</title>
<path fill="none" stroke="#63b8ff" d="M509.35,-109.98C534.98,-101.16 575.24,-87.31 604.01,-77.41"/>
<polygon fill="#63b8ff" stroke="#63b8ff" points="605.35,-80.65 613.67,-74.08 603.08,-74.03 605.35,-80.65"/>
</g>
<!-- Node11 -->
<g id="node11" class="node">
<title>Node11</title>
<g id="a_node11"><a xlink:title=" ">
<polygon fill="#e0e0e0" stroke="#999999" points="95.11,-74 16.11,-74 16.11,-55 95.11,-55 95.11,-74"/>
<text text-anchor="middle" x="55.61" y="-62" font-family="Helvetica,sans-Serif" font-size="10.00">fmt/chrono.h</text>
</a>
</g>
</g>
<!-- Node2&#45;&gt;Node11 -->
<g id="edge11" class="edge">
<title>Node2&#45;&gt;Node11</title>
<path fill="none" stroke="#63b8ff" d="M441.07,-114.26C371.99,-107.35 232.8,-92.67 105.09,-74.14"/>
<polygon fill="#63b8ff" stroke="#63b8ff" points="105.53,-70.67 95.13,-72.69 104.52,-77.6 105.53,-70.67"/>
</g>
<!-- Node12 -->
<g id="node12" class="node">
<title>Node12</title>
<g id="a_node12"><a xlink:title=" ">
<polygon fill="#e0e0e0" stroke="#999999" points="172.61,-74 112.61,-74 112.61,-55 172.61,-55 172.61,-74"/>
<text text-anchor="middle" x="142.61" y="-62" font-family="Helvetica,sans-Serif" font-size="10.00">iostream</text>
</a>
</g>
</g>
<!-- Node2&#45;&gt;Node12 -->
<g id="edge13" class="edge">
<title>Node2&#45;&gt;Node12</title>
<path fill="none" stroke="#63b8ff" d="M441.05,-113.06C384.01,-105.73 280.69,-91.72 182.86,-74.12"/>
<polygon fill="#63b8ff" stroke="#63b8ff" points="183.26,-70.64 172.8,-72.3 182.01,-77.52 183.26,-70.64"/>
</g>
<!-- Node13 -->
<g id="node13" class="node">
<title>Node13</title>
<g id="a_node13"><a xlink:title=" ">
<polygon fill="#e0e0e0" stroke="#999999" points="300.61,-74 190.61,-74 190.61,-55 300.61,-55 300.61,-74"/>
<text text-anchor="middle" x="245.61" y="-62" font-family="Helvetica,sans-Serif" font-size="10.00">nlohmann/json.hpp</text>
</a>
</g>
</g>
<!-- Node2&#45;&gt;Node13 -->
<g id="edge14" class="edge">
<title>Node2&#45;&gt;Node13</title>
<path fill="none" stroke="#63b8ff" d="M446.21,-109.98C404.87,-100.82 339.01,-86.21 294.11,-76.26"/>
<polygon fill="#63b8ff" stroke="#63b8ff" points="294.83,-72.83 284.31,-74.08 293.31,-79.66 294.83,-72.83"/>
</g>
<!-- Node14 -->
<g id="node14" class="node">
<title>Node14</title>
<g id="a_node14"><a xlink:title=" ">
<polygon fill="#e0e0e0" stroke="#999999" points="804.61,-74 748.61,-74 748.61,-55 804.61,-55 804.61,-74"/>
<text text-anchor="middle" x="776.61" y="-62" font-family="Helvetica,sans-Serif" font-size="10.00">optional</text>
</a>
</g>
</g>
<!-- Node2&#45;&gt;Node14 -->
<g id="edge15" class="edge">
<title>Node2&#45;&gt;Node14</title>
<path fill="none" stroke="#63b8ff" d="M528.47,-111.01C578.44,-102.41 662.5,-87.71 734.61,-74 735.7,-73.79 736.82,-73.58 737.94,-73.36"/>
<polygon fill="#63b8ff" stroke="#63b8ff" points="739.02,-76.72 748.16,-71.35 737.67,-69.85 739.02,-76.72"/>
</g>
<!-- Node15 -->
<g id="node15" class="node">
<title>Node15</title>
<g id="a_node15"><a xlink:title=" ">
<polygon fill="#e0e0e0" stroke="#999999" points="374.61,-74 318.61,-74 318.61,-55 374.61,-55 374.61,-74"/>
<text text-anchor="middle" x="346.61" y="-62" font-family="Helvetica,sans-Serif" font-size="10.00">sstream</text>
</a>
</g>
</g>
<!-- Node2&#45;&gt;Node15 -->
<g id="edge16" class="edge">
<title>Node2&#45;&gt;Node15</title>
<path fill="none" stroke="#63b8ff" d="M462.44,-109.98C439.84,-101.3 404.55,-87.75 378.85,-77.88"/>
<polygon fill="#63b8ff" stroke="#63b8ff" points="379.77,-74.49 369.18,-74.17 377.26,-81.02 379.77,-74.49"/>
</g>
<!-- Node16 -->
<g id="node16" class="node">
<title>Node16</title>
<g id="a_node16"><a xlink:title=" ">
<polygon fill="#e0e0e0" stroke="#999999" points="931.11,-19 862.11,-19 862.11,0 931.11,0 931.11,-19"/>
<text text-anchor="middle" x="896.61" y="-7" font-family="Helvetica,sans-Serif" font-size="10.00">type_traits</text>
</a>
</g>
</g>
<!-- Node2&#45;&gt;Node16 -->
<g id="edge17" class="edge">
<title>Node2&#45;&gt;Node16</title>
<path fill="none" stroke="#63b8ff" d="M528.32,-112.96C572.79,-106.54 643.27,-94.17 701.61,-74 719.45,-67.83 722,-61.83 739.61,-55 776.67,-40.63 820.27,-28.64 852.11,-20.74"/>
<polygon fill="#63b8ff" stroke="#63b8ff" points="853.12,-24.1 862.01,-18.33 851.46,-17.3 853.12,-24.1"/>
</g>
<!-- Node3&#45;&gt;Node4 -->
<g id="edge3" class="edge">
<title>Node3&#45;&gt;Node4</title>
<path fill="none" stroke="#63b8ff" d="M460.61,-54.75C460.61,-47.8 460.61,-37.85 460.61,-29.13"/>
<polygon fill="#63b8ff" stroke="#63b8ff" points="464.11,-29.09 460.61,-19.09 457.11,-29.09 464.11,-29.09"/>
</g>
<!-- Node5&#45;&gt;Node4 -->
<g id="edge5" class="edge">
<title>Node5&#45;&gt;Node4</title>
<path fill="none" stroke="#63b8ff" d="M610.01,-54.98C580,-46.05 532.63,-31.94 499.29,-22.02"/>
<polygon fill="#63b8ff" stroke="#63b8ff" points="500.01,-18.58 489.43,-19.08 498.02,-25.29 500.01,-18.58"/>
</g>
<!-- Node6 -->
<g id="node6" class="node">
<title>Node6</title>
<g id="a_node6"><a xlink:title=" ">
<polygon fill="#e0e0e0" stroke="#999999" points="604.61,-19 518.61,-19 518.61,0 604.61,0 604.61,-19"/>
<text text-anchor="middle" x="561.61" y="-7" font-family="Helvetica,sans-Serif" font-size="10.00">fmt/ostream.h</text>
</a>
</g>
</g>
<!-- Node5&#45;&gt;Node6 -->
<g id="edge6" class="edge">
<title>Node5&#45;&gt;Node6</title>
<path fill="none" stroke="#63b8ff" d="M626.24,-54.98C614.52,-46.92 596.69,-34.65 582.72,-25.03"/>
<polygon fill="#63b8ff" stroke="#63b8ff" points="584.43,-21.96 574.2,-19.17 580.46,-27.72 584.43,-21.96"/>
</g>
<!-- Node7 -->
<g id="node7" class="node">
<title>Node7</title>
<g id="a_node7"><a xlink:title=" ">
<polygon fill="#e0e0e0" stroke="#999999" points="684.11,-19 623.11,-19 623.11,0 684.11,0 684.11,-19"/>
<text text-anchor="middle" x="653.61" y="-7" font-family="Helvetica,sans-Serif" font-size="10.00">fmt/std.h</text>
</a>
</g>
</g>
<!-- Node5&#45;&gt;Node7 -->
<g id="edge7" class="edge">
<title>Node5&#45;&gt;Node7</title>
<path fill="none" stroke="#63b8ff" d="M641.08,-54.75C643.07,-47.72 645.93,-37.62 648.42,-28.84"/>
<polygon fill="#63b8ff" stroke="#63b8ff" points="651.82,-29.66 651.18,-19.09 645.09,-27.76 651.82,-29.66"/>
</g>
<!-- Node8 -->
<g id="node8" class="node">
<title>Node8</title>
<g id="a_node8"><a xlink:title=" ">
<polygon fill="#e0e0e0" stroke="#999999" points="1864.61,-19 1820.61,-19 1820.61,0 1864.61,0 1864.61,-19"/>
<text text-anchor="middle" x="1842.61" y="-7" font-family="Helvetica,sans-Serif" font-size="10.00">limits</text>
</a>
</g>
</g>
<!-- Node5&#45;&gt;Node8 -->
<g id="edge8" class="edge">
<title>Node5&#45;&gt;Node8</title>
<path fill="none" stroke="#63b8ff" d="M692.82,-58.44C707.96,-57.16 724.41,-55.9 739.61,-55 1203.07,-27.52 1321.16,-60.16 1783.61,-19 1792.33,-18.22 1801.73,-17.03 1810.41,-15.78"/>
<polygon fill="#63b8ff" stroke="#63b8ff" points="1811.17,-19.21 1820.54,-14.26 1810.13,-12.29 1811.17,-19.21"/>
</g>
<!-- Node9 -->
<g id="node9" class="node">
<title>Node9</title>
<g id="a_node9"><a xlink:title=" ">
<polygon fill="#e0e0e0" stroke="#999999" points="809.61,-19 771.61,-19 771.61,0 809.61,0 809.61,-19"/>
<text text-anchor="middle" x="790.61" y="-7" font-family="Helvetica,sans-Serif" font-size="10.00">map</text>
</a>
</g>
</g>
<!-- Node5&#45;&gt;Node9 -->
<g id="edge9" class="edge">
<title>Node5&#45;&gt;Node9</title>
<path fill="none" stroke="#63b8ff" d="M663.03,-54.98C689.94,-45.6 733.17,-30.53 761.74,-20.57"/>
<polygon fill="#63b8ff" stroke="#63b8ff" points="763.25,-23.75 771.54,-17.15 760.94,-17.14 763.25,-23.75"/>
</g>
<!-- Node10 -->
<g id="node10" class="node">
<title>Node10</title>
<g id="a_node10"><a xlink:title=" ">
<polygon fill="#e0e0e0" stroke="#999999" points="750.61,-19 702.61,-19 702.61,0 750.61,0 750.61,-19"/>
<text text-anchor="middle" x="726.61" y="-7" font-family="Helvetica,sans-Serif" font-size="10.00">thread</text>
</a>
</g>
</g>
<!-- Node5&#45;&gt;Node10 -->
<g id="edge10" class="edge">
<title>Node5&#45;&gt;Node10</title>
<path fill="none" stroke="#63b8ff" d="M652.75,-54.98C666.39,-46.77 687.3,-34.18 703.39,-24.49"/>
<polygon fill="#63b8ff" stroke="#63b8ff" points="705.45,-27.33 712.21,-19.17 701.84,-21.33 705.45,-27.33"/>
</g>
<!-- Node17&#45;&gt;Node2 -->
<g id="edge19" class="edge">
<title>Node17&#45;&gt;Node2</title>
<path fill="none" stroke="#63b8ff" d="M1130.08,-274.91C1103.61,-261.46 1049.78,-235.38 1001.61,-220 836.95,-167.42 633.44,-138.23 538.33,-126.56"/>
<polygon fill="#63b8ff" stroke="#63b8ff" points="538.72,-123.08 528.37,-125.35 537.88,-130.03 538.72,-123.08"/>
</g>
<!-- Node17&#45;&gt;Node9 -->
<g id="edge68" class="edge">
<title>Node17&#45;&gt;Node9</title>
<path fill="none" stroke="#63b8ff" d="M1133.12,-274.87C1113.2,-262.26 1074.61,-238.3 1040.61,-220 1008.05,-202.48 991.25,-210.64 965.61,-184 922.26,-138.97 954.93,-98.04 909.61,-55 884.87,-31.51 846.58,-20.16 820.14,-14.85"/>
<polygon fill="#63b8ff" stroke="#63b8ff" points="820.43,-11.35 809.96,-12.99 819.17,-18.23 820.43,-11.35"/>
</g>
<!-- Node17&#45;&gt;Node18 -->
<g id="edge20" class="edge">
<title>Node17&#45;&gt;Node18</title>
<path fill="none" stroke="#63b8ff" d="M1193.21,-276.79C1198.07,-276.15 1202.93,-275.54 1207.61,-275 1378.31,-255.14 1422.12,-260.62 1592.61,-239 1593.91,-238.84 1595.23,-238.66 1596.55,-238.48"/>
<polygon fill="#63b8ff" stroke="#63b8ff" points="1597.46,-241.89 1606.86,-237.02 1596.47,-234.96 1597.46,-241.89"/>
</g>
<!-- Node37 -->
<g id="node37" class="node">
<title>Node37</title>
<g id="a_node37"><a xlink:title=" ">
<polygon fill="#e0e0e0" stroke="#999999" points="1774.11,-19 1709.11,-19 1709.11,0 1774.11,0 1774.11,-19"/>
<text text-anchor="middle" x="1741.61" y="-7" font-family="Helvetica,sans-Serif" font-size="10.00">stdexcept</text>
</a>
</g>
</g>
<!-- Node17&#45;&gt;Node37 -->
<g id="edge69" class="edge">
<title>Node17&#45;&gt;Node37</title>
<path fill="none" stroke="#63b8ff" d="M1184.55,-274.9C1324.29,-242.88 1804.3,-129.52 1845.61,-74 1865.58,-47.16 1821.19,-29.25 1784.34,-19.48"/>
<polygon fill="#63b8ff" stroke="#63b8ff" points="1784.76,-15.97 1774.21,-16.94 1783.05,-22.76 1784.76,-15.97"/>
</g>
<!-- Node41 -->
<g id="node41" class="node">
<title>Node41</title>
<g id="a_node41"><a xlink:title=" ">
<polygon fill="#e0e0e0" stroke="#999999" points="1508.61,-129 1458.61,-129 1458.61,-110 1508.61,-110 1508.61,-129"/>
<text text-anchor="middle" x="1483.61" y="-117" font-family="Helvetica,sans-Serif" font-size="10.00">atomic</text>
</a>
</g>
</g>
<!-- Node17&#45;&gt;Node41 -->
<g id="edge66" class="edge">
<title>Node17&#45;&gt;Node41</title>
<path fill="none" stroke="#63b8ff" d="M1147.5,-274.8C1149.36,-261.2 1154.87,-234.92 1170.61,-220 1191.35,-200.34 1371.6,-150.44 1448.78,-129.73"/>
<polygon fill="#63b8ff" stroke="#63b8ff" points="1449.77,-133.09 1458.52,-127.12 1447.96,-126.33 1449.77,-133.09"/>
</g>
<!-- Node43 -->
<g id="node43" class="node">
<title>Node43</title>
<g id="a_node43"><a xlink:title=" ">
<polygon fill="#e0e0e0" stroke="#999999" points="1286.11,-239 1179.11,-239 1179.11,-220 1286.11,-220 1286.11,-239"/>
<text text-anchor="middle" x="1232.61" y="-227" font-family="Helvetica,sans-Serif" font-size="10.00">condition_variable</text>
</a>
</g>
</g>
<!-- Node17&#45;&gt;Node43 -->
<g id="edge67" class="edge">
<title>Node17&#45;&gt;Node43</title>
<path fill="none" stroke="#63b8ff" d="M1160.43,-274.98C1173.76,-266.77 1194.19,-254.18 1209.91,-244.49"/>
<polygon fill="#63b8ff" stroke="#63b8ff" points="1211.86,-247.4 1218.54,-239.17 1208.19,-241.44 1211.86,-247.4"/>
</g>
<!-- Node19 -->
<g id="node19" class="node">
<title>Node19</title>
<g id="a_node19"><a xlink:href="mem_8h.html" target="_top" xlink:title=" ">
<polygon fill="white" stroke="#666666" points="1999.61,-74 1913.61,-74 1913.61,-55 1999.61,-55 1999.61,-74"/>
<text text-anchor="middle" x="1956.61" y="-62" font-family="Helvetica,sans-Serif" font-size="10.00">ccf/pal/mem.h</text>
</a>
</g>
</g>
<!-- Node18&#45;&gt;Node19 -->
<g id="edge21" class="edge">
<title>Node18&#45;&gt;Node19</title>
<path fill="none" stroke="#63b8ff" d="M1661.89,-219.97C1712.79,-193.29 1869.15,-111.34 1931.02,-78.91"/>
<polygon fill="#63b8ff" stroke="#63b8ff" points="1932.88,-81.89 1940.11,-74.15 1929.63,-75.69 1932.88,-81.89"/>
</g>
<!-- Node21 -->
<g id="node21" class="node">
<title>Node21</title>
<g id="a_node21"><a xlink:title=" ">
<polygon fill="#e0e0e0" stroke="#999999" points="1946.61,-19 1896.61,-19 1896.61,0 1946.61,0 1946.61,-19"/>
<text text-anchor="middle" x="1921.61" y="-7" font-family="Helvetica,sans-Serif" font-size="10.00">cstring</text>
</a>
</g>
</g>
<!-- Node18&#45;&gt;Node21 -->
<g id="edge64" class="edge">
<title>Node18&#45;&gt;Node21</title>
<path fill="none" stroke="#63b8ff" d="M1677.05,-219.98C1758.05,-197.32 1970.19,-133.27 2008.61,-74 2024.81,-49.01 1987.18,-30.54 1956.43,-20.14"/>
<polygon fill="#63b8ff" stroke="#63b8ff" points="1957.35,-16.77 1946.76,-17.06 1955.22,-23.43 1957.35,-16.77"/>
</g>
<!-- Node22 -->
<g id="node22" class="node">
<title>Node22</title>
<g id="a_node22"><a xlink:href="ring__buffer__types_8h.html" target="_top" xlink:title=" ">
<polygon fill="white" stroke="#666666" points="1084.61,-184 974.61,-184 974.61,-165 1084.61,-165 1084.61,-184"/>
<text text-anchor="middle" x="1029.61" y="-172" font-family="Helvetica,sans-Serif" font-size="10.00">ring_buffer_types.h</text>
</a>
</g>
</g>
<!-- Node18&#45;&gt;Node22 -->
<g id="edge25" class="edge">
<title>Node18&#45;&gt;Node22</title>
<path fill="none" stroke="#63b8ff" d="M1607.07,-225.18C1504.37,-216.35 1223.15,-192.15 1094.91,-181.12"/>
<polygon fill="#63b8ff" stroke="#63b8ff" points="1095.09,-177.62 1084.83,-180.25 1094.49,-184.6 1095.09,-177.62"/>
</g>
<!-- Node18&#45;&gt;Node41 -->
<g id="edge63" class="edge">
<title>Node18&#45;&gt;Node41</title>
<path fill="none" stroke="#63b8ff" d="M1632.62,-219.84C1604.78,-201.28 1539.09,-157.49 1504.99,-134.75"/>
<polygon fill="#63b8ff" stroke="#63b8ff" points="1506.92,-131.83 1496.65,-129.2 1503.03,-137.66 1506.92,-131.83"/>
</g>
<!-- Node42 -->
<g id="node42" class="node">
<title>Node42</title>
<g id="a_node42"><a xlink:title=" ">
<polygon fill="#e0e0e0" stroke="#999999" points="1710.11,-184 1645.11,-184 1645.11,-165 1710.11,-165 1710.11,-184"/>
<text text-anchor="middle" x="1677.61" y="-172" font-family="Helvetica,sans-Serif" font-size="10.00">functional</text>
</a>
</g>
</g>
<!-- Node18&#45;&gt;Node42 -->
<g id="edge65" class="edge">
<title>Node18&#45;&gt;Node42</title>
<path fill="none" stroke="#63b8ff" d="M1650.89,-219.75C1655.32,-212.42 1661.77,-201.73 1667.23,-192.7"/>
<polygon fill="#63b8ff" stroke="#63b8ff" points="1670.25,-194.46 1672.42,-184.09 1664.26,-190.84 1670.25,-194.46"/>
</g>
<!-- Node19&#45;&gt;Node8 -->
<g id="edge24" class="edge">
<title>Node19&#45;&gt;Node8</title>
<path fill="none" stroke="#63b8ff" d="M1938.29,-54.98C1919.95,-46.46 1891.5,-33.23 1870.38,-23.41"/>
<polygon fill="#63b8ff" stroke="#63b8ff" points="1871.8,-20.21 1861.26,-19.17 1868.85,-26.56 1871.8,-20.21"/>
</g>
<!-- Node20 -->
<g id="node20" class="node">
<title>Node20</title>
<g id="a_node20"><a xlink:title=" ">
<polygon fill="#e0e0e0" stroke="#999999" points="2018.11,-19 1965.11,-19 1965.11,0 2018.11,0 2018.11,-19"/>
<text text-anchor="middle" x="1991.61" y="-7" font-family="Helvetica,sans-Serif" font-size="10.00">stdlib.h</text>
</a>
</g>
</g>
<!-- Node19&#45;&gt;Node20 -->
<g id="edge22" class="edge">
<title>Node19&#45;&gt;Node20</title>
<path fill="none" stroke="#63b8ff" d="M1962.39,-54.75C1967.23,-47.42 1974.29,-36.73 1980.25,-27.7"/>
<polygon fill="#63b8ff" stroke="#63b8ff" points="1983.35,-29.36 1985.94,-19.09 1977.5,-25.5 1983.35,-29.36"/>
</g>
<!-- Node19&#45;&gt;Node21 -->
<g id="edge23" class="edge">
<title>Node19&#45;&gt;Node21</title>
<path fill="none" stroke="#63b8ff" d="M1950.83,-54.75C1945.99,-47.42 1938.93,-36.73 1932.96,-27.7"/>
<polygon fill="#63b8ff" stroke="#63b8ff" points="1935.71,-25.5 1927.28,-19.09 1929.87,-29.36 1935.71,-25.5"/>
</g>
<!-- Node22&#45;&gt;Node4 -->
<g id="edge58" class="edge">
<title>Node22&#45;&gt;Node4</title>
<path fill="none" stroke="#63b8ff" d="M974.34,-166.63C887.36,-154.68 714.18,-126.18 575.61,-74 566.23,-70.47 515.49,-41.84 484.63,-24.25"/>
<polygon fill="#63b8ff" stroke="#63b8ff" points="486.17,-21.1 475.76,-19.18 482.7,-27.18 486.17,-21.1"/>
</g>
<!-- Node22&#45;&gt;Node14 -->
<g id="edge59" class="edge">
<title>Node22&#45;&gt;Node14</title>
<path fill="none" stroke="#63b8ff" d="M1009.33,-164.84C964.72,-145.8 857.89,-100.2 805.96,-78.03"/>
<polygon fill="#63b8ff" stroke="#63b8ff" points="807.2,-74.75 796.63,-74.05 804.45,-81.19 807.2,-74.75"/>
</g>
<!-- Node23 -->
<g id="node23" class="node">
<title>Node23</title>
<g id="a_node23"><a xlink:href="include_2ccf_2ds_2hash_8h.html" target="_top" xlink:title=" ">
<polygon fill="white" stroke="#666666" points="1440.61,-129 1360.61,-129 1360.61,-110 1440.61,-110 1440.61,-129"/>
<text text-anchor="middle" x="1400.61" y="-117" font-family="Helvetica,sans-Serif" font-size="10.00">ccf/ds/hash.h</text>
</a>
</g>
</g>
<!-- Node22&#45;&gt;Node23 -->
<g id="edge26" class="edge">
<title>Node22&#45;&gt;Node23</title>
<path fill="none" stroke="#63b8ff" d="M1084.75,-165.62C1156.56,-155.36 1281.06,-137.58 1350.37,-127.68"/>
<polygon fill="#63b8ff" stroke="#63b8ff" points="1351.19,-131.1 1360.59,-126.22 1350.2,-124.17 1351.19,-131.1"/>
</g>
<!-- Node27 -->
<g id="node27" class="node">
<title>Node27</title>
<g id="a_node27"><a xlink:title=" ">
<polygon fill="#e0e0e0" stroke="#999999" points="1460.11,-19 1413.11,-19 1413.11,0 1460.11,0 1460.11,-19"/>
<text text-anchor="middle" x="1436.61" y="-7" font-family="Helvetica,sans-Serif" font-size="10.00">vector</text>
</a>
</g>
</g>
<!-- Node22&#45;&gt;Node27 -->
<g id="edge62" class="edge">
<title>Node22&#45;&gt;Node27</title>
<path fill="none" stroke="#63b8ff" d="M1067.96,-164.95C1100.97,-157.11 1149.61,-144.4 1190.61,-129 1274.57,-97.47 1368.79,-47.82 1412.24,-24.06"/>
<polygon fill="#63b8ff" stroke="#63b8ff" points="1414.13,-27.01 1421.21,-19.13 1410.76,-20.88 1414.13,-27.01"/>
</g>
<!-- Node31 -->
<g id="node31" class="node">
<title>Node31</title>
<g id="a_node31"><a xlink:href="nonstd_8h.html" target="_top" xlink:title=" ">
<polygon fill="white" stroke="#666666" points="1122.61,-74 1032.61,-74 1032.61,-55 1122.61,-55 1122.61,-74"/>
<text text-anchor="middle" x="1077.61" y="-62" font-family="Helvetica,sans-Serif" font-size="10.00">ccf/ds/nonstd.h</text>
</a>
</g>
</g>
<!-- Node22&#45;&gt;Node31 -->
<g id="edge36" class="edge">
<title>Node22&#45;&gt;Node31</title>
<path fill="none" stroke="#63b8ff" d="M1033.54,-164.66C1041.42,-146.93 1059.28,-106.73 1069.69,-83.32"/>
<polygon fill="#63b8ff" stroke="#63b8ff" points="1072.9,-84.72 1073.76,-74.16 1066.5,-81.87 1072.9,-84.72"/>
</g>
<!-- Node34 -->
<g id="node34" class="node">
<title>Node34</title>
<g id="a_node34"><a xlink:title=" ">
<polygon fill="#e0e0e0" stroke="#999999" points="1064.61,-19 1020.61,-19 1020.61,0 1064.61,0 1064.61,-19"/>
<text text-anchor="middle" x="1042.61" y="-7" font-family="Helvetica,sans-Serif" font-size="10.00">string</text>
</a>
</g>
</g>
<!-- Node22&#45;&gt;Node34 -->
<g id="edge61" class="edge">
<title>Node22&#45;&gt;Node34</title>
<path fill="none" stroke="#63b8ff" d="M1027.69,-164.76C1023.66,-144.99 1015.35,-95.36 1023.61,-55 1025.5,-45.74 1029.4,-36.03 1033.18,-28.04"/>
<polygon fill="#63b8ff" stroke="#63b8ff" points="1036.35,-29.53 1037.73,-19.02 1030.1,-26.37 1036.35,-29.53"/>
</g>
<!-- Node35 -->
<g id="node35" class="node">
<title>Node35</title>
<g id="a_node35"><a xlink:href="serializer_8h.html" target="_top" xlink:title=" ">
<polygon fill="white" stroke="#666666" points="1181.61,-129 1111.61,-129 1111.61,-110 1181.61,-110 1181.61,-129"/>
<text text-anchor="middle" x="1146.61" y="-117" font-family="Helvetica,sans-Serif" font-size="10.00">serializer.h</text>
</a>
</g>
</g>
<!-- Node22&#45;&gt;Node35 -->
<g id="edge44" class="edge">
<title>Node22&#45;&gt;Node35</title>
<path fill="none" stroke="#63b8ff" d="M1048.41,-164.98C1067.23,-156.46 1096.43,-143.23 1118.1,-133.41"/>
<polygon fill="#63b8ff" stroke="#63b8ff" points="1119.8,-136.48 1127.47,-129.17 1116.91,-130.11 1119.8,-136.48"/>
</g>
<!-- Node39 -->
<g id="node39" class="node">
<title>Node39</title>
<g id="a_node39"><a xlink:title=" ">
<polygon fill="#e0e0e0" stroke="#999999" points="900.61,-74 860.61,-74 860.61,-55 900.61,-55 900.61,-74"/>
<text text-anchor="middle" x="880.61" y="-62" font-family="Helvetica,sans-Serif" font-size="10.00">span</text>
</a>
</g>
</g>
<!-- Node22&#45;&gt;Node39 -->
<g id="edge60" class="edge">
<title>Node22&#45;&gt;Node39</title>
<path fill="none" stroke="#63b8ff" d="M1017.67,-164.84C992.27,-146.44 932.66,-103.23 901.08,-80.34"/>
<polygon fill="#63b8ff" stroke="#63b8ff" points="902.76,-77.23 892.61,-74.2 898.65,-82.9 902.76,-77.23"/>
</g>
<!-- Node22&#45;&gt;Node41 -->
<g id="edge57" class="edge">
<title>Node22&#45;&gt;Node41</title>
<path fill="none" stroke="#63b8ff" d="M1084.96,-166.58C1089.57,-166.03 1094.17,-165.5 1098.61,-165 1251.24,-147.77 1293.43,-155.74 1448.55,-128.95"/>
<polygon fill="#63b8ff" stroke="#63b8ff" points="1449.19,-132.39 1458.44,-127.22 1447.99,-125.49 1449.19,-132.39"/>
</g>
<!-- Node24 -->
<g id="node24" class="node">
<title>Node24</title>
<g id="a_node24"><a xlink:href="siphash_8h.html" target="_top" xlink:title=" ">
<polygon fill="white" stroke="#666666" points="1562.11,-74 1467.11,-74 1467.11,-55 1562.11,-55 1562.11,-74"/>
<text text-anchor="middle" x="1514.61" y="-62" font-family="Helvetica,sans-Serif" font-size="10.00">ccf/ds/siphash.h</text>
</a>
</g>
</g>
<!-- Node23&#45;&gt;Node24 -->
<g id="edge27" class="edge">
<title>Node23&#45;&gt;Node24</title>
<path fill="none" stroke="#63b8ff" d="M1418.92,-109.98C1437.26,-101.46 1465.72,-88.23 1486.84,-78.41"/>
<polygon fill="#63b8ff" stroke="#63b8ff" points="1488.37,-81.56 1495.96,-74.17 1485.42,-75.21 1488.37,-81.56"/>
</g>
<!-- Node26 -->
<g id="node26" class="node">
<title>Node26</title>
<g id="a_node26"><a xlink:title=" ">
<polygon fill="#e0e0e0" stroke="#999999" points="1641.61,-19 1591.61,-19 1591.61,0 1641.61,0 1641.61,-19"/>
<text text-anchor="middle" x="1616.61" y="-7" font-family="Helvetica,sans-Serif" font-size="10.00">cstdint</text>
</a>
</g>
</g>
<!-- Node23&#45;&gt;Node26 -->
<g id="edge32" class="edge">
<title>Node23&#45;&gt;Node26</title>
<path fill="none" stroke="#63b8ff" d="M1440.68,-111.29C1443.7,-110.83 1446.7,-110.39 1449.61,-110 1491.64,-104.37 1801.07,-105.37 1829.61,-74 1835.29,-67.75 1834.93,-61.55 1829.61,-55 1818.45,-41.27 1709.56,-23.8 1651.95,-15.42"/>
<polygon fill="#63b8ff" stroke="#63b8ff" points="1652.22,-11.93 1641.82,-13.97 1651.22,-18.85 1652.22,-11.93"/>
</g>
<!-- Node23&#45;&gt;Node27 -->
<g id="edge35" class="edge">
<title>Node23&#45;&gt;Node27</title>
<path fill="none" stroke="#63b8ff" d="M1403.55,-109.66C1409.41,-92.09 1422.63,-52.45 1430.46,-28.95"/>
<polygon fill="#63b8ff" stroke="#63b8ff" points="1433.88,-29.75 1433.72,-19.16 1427.24,-27.54 1433.88,-29.75"/>
</g>
<!-- Node28 -->
<g id="node28" class="node">
<title>Node28</title>
<g id="a_node28"><a xlink:title=" ">
<polygon fill="#e0e0e0" stroke="#999999" points="1291.61,-19 1249.61,-19 1249.61,0 1291.61,0 1291.61,-19"/>
<text text-anchor="middle" x="1270.61" y="-7" font-family="Helvetica,sans-Serif" font-size="10.00">array</text>
</a>
</g>
</g>
<!-- Node23&#45;&gt;Node28 -->
<g id="edge31" class="edge">
<title>Node23&#45;&gt;Node28</title>
<path fill="none" stroke="#63b8ff" d="M1389.97,-109.66C1367.77,-91.22 1316.28,-48.45 1288.75,-25.57"/>
<polygon fill="#63b8ff" stroke="#63b8ff" points="1290.96,-22.86 1281.03,-19.16 1286.49,-28.24 1290.96,-22.86"/>
</g>
<!-- Node29 -->
<g id="node29" class="node">
<title>Node29</title>
<g id="a_node29"><a xlink:title=" ">
<polygon fill="#e0e0e0" stroke="#999999" points="1820.11,-74 1671.11,-74 1671.11,-55 1820.11,-55 1820.11,-74"/>
<text text-anchor="middle" x="1745.61" y="-62" font-family="Helvetica,sans-Serif" font-size="10.00">small_vector/SmallVector.h</text>
</a>
</g>
</g>
<!-- Node23&#45;&gt;Node29 -->
<g id="edge33" class="edge">
<title>Node23&#45;&gt;Node29</title>
<path fill="none" stroke="#63b8ff" d="M1440.71,-111.47C1443.72,-110.96 1446.71,-110.47 1449.61,-110 1527.08,-97.46 1616.15,-84.23 1676.18,-75.49"/>
<polygon fill="#63b8ff" stroke="#63b8ff" points="1676.91,-78.92 1686.3,-74.02 1675.9,-71.99 1676.91,-78.92"/>
</g>
<!-- Node30 -->
<g id="node30" class="node">
<title>Node30</title>
<g id="a_node30"><a xlink:title=" ">
<polygon fill="#e0e0e0" stroke="#999999" points="1391.11,-19 1318.11,-19 1318.11,0 1391.11,0 1391.11,-19"/>
<text text-anchor="middle" x="1354.61" y="-7" font-family="Helvetica,sans-Serif" font-size="10.00">string_view</text>
</a>
</g>
</g>
<!-- Node23&#45;&gt;Node30 -->
<g id="edge34" class="edge">
<title>Node23&#45;&gt;Node30</title>
<path fill="none" stroke="#63b8ff" d="M1397.61,-109.76C1393.31,-97.42 1384.97,-74.24 1376.61,-55 1372.74,-46.11 1368.02,-36.44 1363.95,-28.39"/>
<polygon fill="#63b8ff" stroke="#63b8ff" points="1366.93,-26.54 1359.25,-19.25 1360.71,-29.74 1366.93,-26.54"/>
</g>
<!-- Node25 -->
<g id="node25" class="node">
<title>Node25</title>
<g id="a_node25"><a xlink:title=" ">
<polygon fill="#e0e0e0" stroke="#999999" points="1002.11,-19 949.11,-19 949.11,0 1002.11,0 1002.11,-19"/>
<text text-anchor="middle" x="975.61" y="-7" font-family="Helvetica,sans-Serif" font-size="10.00">cstddef</text>
</a>
</g>
</g>
<!-- Node24&#45;&gt;Node25 -->
<g id="edge28" class="edge">
<title>Node24&#45;&gt;Node25</title>
<path fill="none" stroke="#63b8ff" d="M1466.82,-61.56C1378.82,-57.49 1185.12,-46.23 1012.3,-18.86"/>
<polygon fill="#63b8ff" stroke="#63b8ff" points="1012.69,-15.37 1002.26,-17.24 1011.58,-22.28 1012.69,-15.37"/>
</g>
<!-- Node24&#45;&gt;Node26 -->
<g id="edge29" class="edge">
<title>Node24&#45;&gt;Node26</title>
<path fill="none" stroke="#63b8ff" d="M1531,-54.98C1547.18,-46.57 1572.18,-33.59 1590.99,-23.81"/>
<polygon fill="#63b8ff" stroke="#63b8ff" points="1592.66,-26.89 1599.92,-19.17 1589.43,-20.68 1592.66,-26.89"/>
</g>
<!-- Node24&#45;&gt;Node27 -->
<g id="edge30" class="edge">
<title>Node24&#45;&gt;Node27</title>
<path fill="none" stroke="#63b8ff" d="M1502.08,-54.98C1490.21,-46.92 1472.14,-34.65 1458,-25.03"/>
<polygon fill="#63b8ff" stroke="#63b8ff" points="1459.61,-21.9 1449.37,-19.17 1455.67,-27.69 1459.61,-21.9"/>
</g>
<!-- Node31&#45;&gt;Node16 -->
<g id="edge42" class="edge">
<title>Node31&#45;&gt;Node16</title>
<path fill="none" stroke="#63b8ff" d="M1048.53,-54.98C1018.01,-46.05 969.84,-31.94 935.94,-22.02"/>
<polygon fill="#63b8ff" stroke="#63b8ff" points="936.5,-18.53 925.92,-19.08 934.53,-25.25 936.5,-18.53"/>
</g>
<!-- Node31&#45;&gt;Node27 -->
<g id="edge43" class="edge">
<title>Node31&#45;&gt;Node27</title>
<path fill="none" stroke="#63b8ff" d="M1122.68,-56.33C1125.7,-55.87 1128.7,-55.42 1131.61,-55 1250.97,-37.62 1281.99,-40.89 1400.61,-19 1401.37,-18.86 1402.13,-18.71 1402.9,-18.56"/>
<polygon fill="#63b8ff" stroke="#63b8ff" points="1404,-21.91 1413.05,-16.41 1402.55,-15.06 1404,-21.91"/>
</g>
<!-- Node31&#45;&gt;Node28 -->
<g id="edge38" class="edge">
<title>Node31&#45;&gt;Node28</title>
<path fill="none" stroke="#63b8ff" d="M1108.62,-54.98C1144.6,-45.1 1203.58,-28.91 1239.57,-19.02"/>
<polygon fill="#63b8ff" stroke="#63b8ff" points="1240.8,-22.32 1249.51,-16.29 1238.94,-15.57 1240.8,-22.32"/>
</g>
<!-- Node31&#45;&gt;Node30 -->
<g id="edge41" class="edge">
<title>Node31&#45;&gt;Node30</title>
<path fill="none" stroke="#63b8ff" d="M1122.11,-54.98C1173.01,-45.25 1255.98,-29.37 1307.81,-19.45"/>
<polygon fill="#63b8ff" stroke="#63b8ff" points="1308.58,-22.87 1317.75,-17.55 1307.27,-15.99 1308.58,-22.87"/>
</g>
<!-- Node32 -->
<g id="node32" class="node">
<title>Node32</title>
<g id="a_node32"><a xlink:title=" ">
<polygon fill="#e0e0e0" stroke="#999999" points="1146.61,-19 1082.61,-19 1082.61,0 1146.61,0 1146.61,-19"/>
<text text-anchor="middle" x="1114.61" y="-7" font-family="Helvetica,sans-Serif" font-size="10.00">algorithm</text>
</a>
</g>
</g>
<!-- Node31&#45;&gt;Node32 -->
<g id="edge37" class="edge">
<title>Node31&#45;&gt;Node32</title>
<path fill="none" stroke="#63b8ff" d="M1083.72,-54.75C1088.89,-47.34 1096.45,-36.5 1102.8,-27.41"/>
<polygon fill="#63b8ff" stroke="#63b8ff" points="1105.76,-29.29 1108.61,-19.09 1100.02,-25.29 1105.76,-29.29"/>
</g>
<!-- Node33 -->
<g id="node33" class="node">
<title>Node33</title>
<g id="a_node33"><a xlink:title=" ">
<polygon fill="#e0e0e0" stroke="#999999" points="1214.11,-19 1165.11,-19 1165.11,0 1214.11,0 1214.11,-19"/>
<text text-anchor="middle" x="1189.61" y="-7" font-family="Helvetica,sans-Serif" font-size="10.00">cctype</text>
</a>
</g>
</g>
<!-- Node31&#45;&gt;Node33 -->
<g id="edge39" class="edge">
<title>Node31&#45;&gt;Node33</title>
<path fill="none" stroke="#63b8ff" d="M1095.6,-54.98C1113.54,-46.5 1141.32,-33.35 1162.04,-23.54"/>
<polygon fill="#63b8ff" stroke="#63b8ff" points="1163.74,-26.61 1171.29,-19.17 1160.75,-20.28 1163.74,-26.61"/>
</g>
<!-- Node31&#45;&gt;Node34 -->
<g id="edge40" class="edge">
<title>Node31&#45;&gt;Node34</title>
<path fill="none" stroke="#63b8ff" d="M1071.83,-54.75C1066.99,-47.42 1059.93,-36.73 1053.96,-27.7"/>
<polygon fill="#63b8ff" stroke="#63b8ff" points="1056.71,-25.5 1048.28,-19.09 1050.87,-29.36 1056.71,-25.5"/>
</g>
<!-- Node35&#45;&gt;Node16 -->
<g id="edge55" class="edge">
<title>Node35&#45;&gt;Node16</title>
<path fill="none" stroke="#63b8ff" d="M1120.35,-109.99C1095.21,-101.61 1056.37,-88.06 1023.61,-74 987.25,-58.4 946.56,-37.4 921.27,-23.9"/>
<polygon fill="#63b8ff" stroke="#63b8ff" points="922.83,-20.77 912.36,-19.13 919.52,-26.94 922.83,-20.77"/>
</g>
<!-- Node35&#45;&gt;Node27 -->
<g id="edge56" class="edge">
<title>Node35&#45;&gt;Node27</title>
<path fill="none" stroke="#63b8ff" d="M1171.35,-109.92C1195.93,-101.28 1234.61,-87.34 1267.61,-74 1286.98,-66.17 1291.19,-62.71 1310.61,-55 1341.64,-42.69 1377.59,-30.16 1403.13,-21.54"/>
<polygon fill="#63b8ff" stroke="#63b8ff" points="1404.35,-24.83 1412.72,-18.33 1402.13,-18.19 1404.35,-24.83"/>
</g>
<!-- Node35&#45;&gt;Node31 -->
<g id="edge45" class="edge">
<title>Node35&#45;&gt;Node31</title>
<path fill="none" stroke="#63b8ff" d="M1135.52,-109.98C1125.12,-102 1109.35,-89.88 1096.89,-80.31"/>
<polygon fill="#63b8ff" stroke="#63b8ff" points="1098.96,-77.49 1088.9,-74.17 1094.69,-83.04 1098.96,-77.49"/>
</g>
<!-- Node36 -->
<g id="node36" class="node">
<title>Node36</title>
<g id="a_node36"><a xlink:href="serialized_8h.html" target="_top" xlink:title=" ">
<polygon fill="white" stroke="#666666" points="1653.11,-74 1580.11,-74 1580.11,-55 1653.11,-55 1653.11,-74"/>
<text text-anchor="middle" x="1616.61" y="-62" font-family="Helvetica,sans-Serif" font-size="10.00">serialized.h</text>
</a>
</g>
</g>
<!-- Node35&#45;&gt;Node36 -->
<g id="edge46" class="edge">
<title>Node35&#45;&gt;Node36</title>
<path fill="none" stroke="#63b8ff" d="M1181.71,-115.81C1252.96,-110.14 1419.83,-95.77 1569.52,-74.2"/>
<polygon fill="#63b8ff" stroke="#63b8ff" points="1570.42,-77.61 1579.81,-72.71 1569.41,-70.68 1570.42,-77.61"/>
</g>
<!-- Node38 -->
<g id="node38" class="node">
<title>Node38</title>
<g id="a_node38"><a xlink:title=" ">
<polygon fill="#e0e0e0" stroke="#999999" points="1198.61,-74 1140.61,-74 1140.61,-55 1198.61,-55 1198.61,-74"/>
<text text-anchor="middle" x="1169.61" y="-62" font-family="Helvetica,sans-Serif" font-size="10.00">memory</text>
</a>
</g>
</g>
<!-- Node35&#45;&gt;Node38 -->
<g id="edge52" class="edge">
<title>Node35&#45;&gt;Node38</title>
<path fill="none" stroke="#63b8ff" d="M1150.41,-109.75C1153.52,-102.57 1158.03,-92.18 1161.9,-83.27"/>
<polygon fill="#63b8ff" stroke="#63b8ff" points="1165.11,-84.66 1165.88,-74.09 1158.69,-81.87 1165.11,-84.66"/>
</g>
<!-- Node35&#45;&gt;Node39 -->
<g id="edge53" class="edge">
<title>Node35&#45;&gt;Node39</title>
<path fill="none" stroke="#63b8ff" d="M1111.56,-111.52C1058.99,-101.04 960.6,-81.44 910.93,-71.54"/>
<polygon fill="#63b8ff" stroke="#63b8ff" points="911.32,-68.05 900.83,-69.53 909.95,-74.92 911.32,-68.05"/>
</g>
<!-- Node40 -->
<g id="node40" class="node">
<title>Node40</title>
<g id="a_node40"><a xlink:title=" ">
<polygon fill="#e0e0e0" stroke="#999999" points="1258.11,-74 1217.11,-74 1217.11,-55 1258.11,-55 1258.11,-74"/>
<text text-anchor="middle" x="1237.61" y="-62" font-family="Helvetica,sans-Serif" font-size="10.00">tuple</text>
</a>
</g>
</g>
<!-- Node35&#45;&gt;Node40 -->
<g id="edge54" class="edge">
<title>Node35&#45;&gt;Node40</title>
<path fill="none" stroke="#63b8ff" d="M1161.23,-109.98C1175.47,-101.69 1197.36,-88.94 1214.06,-79.22"/>
<polygon fill="#63b8ff" stroke="#63b8ff" points="1215.84,-82.23 1222.72,-74.17 1212.32,-76.18 1215.84,-82.23"/>
</g>
<!-- Node36&#45;&gt;Node21 -->
<g id="edge48" class="edge">
<title>Node36&#45;&gt;Node21</title>
<path fill="none" stroke="#63b8ff" d="M1653.26,-56.68C1656.42,-56.11 1659.57,-55.54 1662.61,-55 1756.27,-38.36 1779.88,-35.29 1873.61,-19 1877.74,-18.28 1882.06,-17.52 1886.35,-16.77"/>
<polygon fill="#63b8ff" stroke="#63b8ff" points="1886.97,-20.22 1896.2,-15.03 1885.75,-13.32 1886.97,-20.22"/>
</g>
<!-- Node36&#45;&gt;Node26 -->
<g id="edge47" class="edge">
<title>Node36&#45;&gt;Node26</title>
<path fill="none" stroke="#63b8ff" d="M1616.61,-54.75C1616.61,-47.8 1616.61,-37.85 1616.61,-29.13"/>
<polygon fill="#63b8ff" stroke="#63b8ff" points="1620.11,-29.09 1616.61,-19.09 1613.11,-29.09 1620.11,-29.09"/>
</g>
<!-- Node36&#45;&gt;Node27 -->
<g id="edge51" class="edge">
<title>Node36&#45;&gt;Node27</title>
<path fill="none" stroke="#63b8ff" d="M1587.69,-54.98C1555.63,-45.54 1503.98,-30.34 1470.17,-20.38"/>
<polygon fill="#63b8ff" stroke="#63b8ff" points="1470.87,-16.94 1460.28,-17.47 1468.89,-23.65 1470.87,-16.94"/>
</g>
<!-- Node36&#45;&gt;Node34 -->
<g id="edge50" class="edge">
<title>Node36&#45;&gt;Node34</title>
<path fill="none" stroke="#63b8ff" d="M1579.83,-56.2C1577.05,-55.76 1574.29,-55.35 1571.61,-55 1354.78,-26.78 1294.09,-55.65 1074.73,-18.84"/>
<polygon fill="#63b8ff" stroke="#63b8ff" points="1075.29,-15.39 1064.84,-17.16 1074.11,-22.29 1075.29,-15.39"/>
</g>
<!-- Node36&#45;&gt;Node37 -->
<g id="edge49" class="edge">
<title>Node36&#45;&gt;Node37</title>
<path fill="none" stroke="#63b8ff" d="M1636.69,-54.98C1656.98,-46.38 1688.56,-32.99 1711.78,-23.15"/>
<polygon fill="#63b8ff" stroke="#63b8ff" points="1713.32,-26.3 1721.16,-19.17 1710.59,-19.85 1713.32,-26.3"/>
</g>
<!-- Node45 -->
<g id="node45" class="node">
<title>Node45</title>
<g id="a_node45"><a xlink:title=" ">
<polygon fill="#e0e0e0" stroke="#999999" points="1779.11,-239 1702.11,-239 1702.11,-220 1779.11,-220 1779.11,-239"/>
<text text-anchor="middle" x="1740.61" y="-227" font-family="Helvetica,sans-Serif" font-size="10.00">sys/socket.h</text>
</a>
</g>
</g>
<!-- Node44&#45;&gt;Node45 -->
<g id="edge71" class="edge">
<title>Node44&#45;&gt;Node45</title>
<path fill="none" stroke="#63b8ff" d="M1343.34,-276.24C1346.47,-275.81 1349.58,-275.39 1352.61,-275 1500.51,-255.98 1541.02,-260.37 1691.82,-239.17"/>
<polygon fill="#63b8ff" stroke="#63b8ff" points="1692.51,-242.6 1701.92,-237.73 1691.52,-235.67 1692.51,-242.6"/>
</g>
<!-- Node46&#45;&gt;Node2 -->
<g id="edge76" class="edge">
<title>Node46&#45;&gt;Node2</title>
<path fill="none" stroke="#63b8ff" d="M702.34,-223.24C659.4,-217.75 602.97,-206.61 557.61,-184 534.23,-172.35 512.32,-151.43 498.72,-136.79"/>
<polygon fill="#63b8ff" stroke="#63b8ff" points="501.02,-134.11 491.73,-129.02 495.81,-138.79 501.02,-134.11"/>
</g>
<!-- Node46&#45;&gt;Node5 -->
<g id="edge77" class="edge">
<title>Node46&#45;&gt;Node5</title>
<path fill="none" stroke="#63b8ff" d="M764.58,-219.78C759.93,-207.06 750.22,-182.96 737.61,-165 714,-131.37 678.54,-98.88 657.09,-80.61"/>
<polygon fill="#63b8ff" stroke="#63b8ff" points="659.25,-77.86 649.34,-74.12 654.76,-83.23 659.25,-77.86"/>
</g>
<!-- Node46&#45;&gt;Node25 -->
<g id="edge80" class="edge">
<title>Node46&#45;&gt;Node25</title>
<path fill="none" stroke="#63b8ff" d="M769.35,-219.89C775.43,-191.95 798.35,-102.88 851.61,-55 864.81,-43.13 907.58,-29.3 939.21,-20.25"/>
<polygon fill="#63b8ff" stroke="#63b8ff" points="940.36,-23.56 949.04,-17.48 938.47,-16.82 940.36,-23.56"/>
</g>
<!-- Node46&#45;&gt;Node41 -->
<g id="edge78" class="edge">
<title>Node46&#45;&gt;Node41</title>
<path fill="none" stroke="#63b8ff" d="M832.85,-221.78C913.52,-213.09 1046,-197.48 1093.61,-184 1113.71,-178.31 1116.45,-170.48 1136.61,-165 1268.57,-129.15 1309.9,-152.86 1448.3,-128.98"/>
<polygon fill="#63b8ff" stroke="#63b8ff" points="1449.2,-132.38 1458.44,-127.18 1447.98,-125.49 1449.2,-132.38"/>
</g>
<!-- Node47 -->
<g id="node47" class="node">
<title>Node47</title>
<g id="a_node47"><a xlink:href="ccf__assert_8h.html" target="_top" xlink:title=" ">
<polygon fill="white" stroke="#666666" points="658.61,-184 566.61,-184 566.61,-165 658.61,-165 658.61,-184"/>
<text text-anchor="middle" x="612.61" y="-172" font-family="Helvetica,sans-Serif" font-size="10.00">ccf/ccf_assert.h</text>
</a>
</g>
</g>
<!-- Node46&#45;&gt;Node47 -->
<g id="edge74" class="edge">
<title>Node46&#45;&gt;Node47</title>
<path fill="none" stroke="#63b8ff" d="M742.7,-219.98C716.91,-211.16 676.39,-197.31 647.43,-187.41"/>
<polygon fill="#63b8ff" stroke="#63b8ff" points="648.3,-184.01 637.71,-184.08 646.04,-190.63 648.3,-184.01"/>
</g>
<!-- Node48 -->
<g id="node48" class="node">
<title>Node48</title>
<g id="a_node48"><a xlink:title=" ">
<polygon fill="#e0e0e0" stroke="#999999" points="728.61,-184 678.61,-184 678.61,-165 728.61,-165 728.61,-184"/>
<text text-anchor="middle" x="703.61" y="-172" font-family="Helvetica,sans-Serif" font-size="10.00">chrono</text>
</a>
</g>
</g>
<!-- Node46&#45;&gt;Node48 -->
<g id="edge79" class="edge">
<title>Node46&#45;&gt;Node48</title>
<path fill="none" stroke="#63b8ff" d="M757.33,-219.98C747.77,-212.07 733.33,-200.11 721.82,-190.58"/>
<polygon fill="#63b8ff" stroke="#63b8ff" points="724.01,-187.85 714.08,-184.17 719.55,-193.24 724.01,-187.85"/>
</g>
<!-- Node47&#45;&gt;Node2 -->
<g id="edge75" class="edge">
<title>Node47&#45;&gt;Node2</title>
<path fill="none" stroke="#63b8ff" d="M592.04,-164.98C571.17,-156.34 538.64,-142.87 514.83,-133.02"/>
<polygon fill="#63b8ff" stroke="#63b8ff" points="516.13,-129.76 505.55,-129.17 513.45,-136.23 516.13,-129.76"/>
</g>
<!-- Node49&#45;&gt;Node39 -->
<g id="edge85" class="edge">
<title>Node49&#45;&gt;Node39</title>
<path fill="none" stroke="#63b8ff" d="M888.29,-274.95C887.12,-242.95 882.96,-129.68 881.3,-84.4"/>
<polygon fill="#63b8ff" stroke="#63b8ff" points="884.79,-84.09 880.93,-74.22 877.8,-84.35 884.79,-84.09"/>
</g>
<!-- Node49&#45;&gt;Node46 -->
<g id="edge82" class="edge">
<title>Node49&#45;&gt;Node46</title>
<path fill="none" stroke="#63b8ff" d="M869.17,-274.98C849.61,-266.42 819.23,-253.11 796.78,-243.28"/>
<polygon fill="#63b8ff" stroke="#63b8ff" points="797.97,-239.98 787.4,-239.17 795.16,-246.39 797.97,-239.98"/>
</g>
<!-- Node50 -->
<g id="node50" class="node">
<title>Node50</title>
<g id="a_node50"><a xlink:href="tls_2msg__types_8h.html" target="_top" xlink:title=" ">
<polygon fill="white" stroke="#666666" points="992.61,-239 898.61,-239 898.61,-220 992.61,-220 992.61,-239"/>
<text text-anchor="middle" x="945.61" y="-227" font-family="Helvetica,sans-Serif" font-size="10.00">tls/msg_types.h</text>
</a>
</g>
</g>
<!-- Node49&#45;&gt;Node50 -->
<g id="edge83" class="edge">
<title>Node49&#45;&gt;Node50</title>
<path fill="none" stroke="#63b8ff" d="M897.77,-274.98C906.11,-267.23 918.64,-255.58 928.78,-246.14"/>
<polygon fill="#63b8ff" stroke="#63b8ff" points="931.34,-248.54 936.28,-239.17 926.58,-243.42 931.34,-248.54"/>
</g>
<!-- Node50&#45;&gt;Node22 -->
<g id="edge84" class="edge">
<title>Node50&#45;&gt;Node22</title>
<path fill="none" stroke="#63b8ff" d="M959.1,-219.98C972.01,-211.84 991.71,-199.41 1007.01,-189.76"/>
<polygon fill="#63b8ff" stroke="#63b8ff" points="1009.28,-192.47 1015.87,-184.17 1005.54,-186.55 1009.28,-192.47"/>
</g>
<!-- Node51&#45;&gt;Node22 -->
<g id="edge87" class="edge">
<title>Node51&#45;&gt;Node22</title>
<path fill="none" stroke="#63b8ff" d="M1024.1,-274.66C1025.07,-257.17 1027.26,-217.8 1028.56,-194.27"/>
<polygon fill="#63b8ff" stroke="#63b8ff" points="1032.07,-194.34 1029.13,-184.16 1025.08,-193.95 1032.07,-194.34"/>
</g>
</g>
</svg>
