<?xml version="1.0" encoding="UTF-8" standalone="no"?>
<!DOCTYPE svg PUBLIC "-//W3C//DTD SVG 1.1//EN"
 "http://www.w3.org/Graphics/SVG/1.1/DTD/svg11.dtd">
<!-- Generated by graphviz version 2.43.0 (0)
 -->
<!-- Title: include/ccf/node/quote.h Pages: 1 -->
<!--zoomable 665 -->
<svg id="main" version="1.1" xmlns="http://www.w3.org/2000/svg" xmlns:xlink="http://www.w3.org/1999/xlink" xml:space="preserve" onload="init(evt)">
<style type="text/css"><![CDATA[
.edge:hover path { stroke: red; }
.edge:hover polygon { stroke: red; fill: red; }
]]></style>
<script type="text/javascript"><![CDATA[
var edges = document.getElementsByTagName('g');
if (edges && edges.length) {
  for (var i=0;i<edges.length;i++) {
    if (edges[i].id.substr(0,4)=='edge') {
      edges[i].setAttribute('class','edge');
    }
  }
}
]]></script>
        <defs>
                <circle id="rim" cx="0" cy="0" r="7"/>
                <circle id="rim2" cx="0" cy="0" r="3.5"/>
                <g id="zoomPlus">
                        <use xlink:href="#rim" fill="#404040">
                                <set attributeName="fill" to="#808080" begin="zoomplus.mouseover" end="zoomplus.mouseout"/>
                        </use>
                        <path d="M-4,0h8M0,-4v8" fill="none" stroke="white" stroke-width="1.5" pointer-events="none"/>
                </g>
                <g id="zoomMin">
                        <use xlink:href="#rim" fill="#404040">
                                <set attributeName="fill" to="#808080" begin="zoomminus.mouseover" end="zoomminus.mouseout"/>
                        </use>
                        <path d="M-4,0h8" fill="none" stroke="white" stroke-width="1.5" pointer-events="none"/>
                </g>
                <g id="dirArrow">
                        <path fill="none" stroke="white" stroke-width="1.5" d="M0,-3.0v7 M-2.5,-0.5L0,-3.0L2.5,-0.5"/>
                </g>
               <g id="resetDef">
                       <use xlink:href="#rim2" fill="#404040">
                               <set attributeName="fill" to="#808080" begin="reset.mouseover" end="reset.mouseout"/>
                       </use>
               </g>
        </defs>

<script type="text/javascript">
var viewWidth = 2114;
var viewHeight = 665;
var sectionId = 'dynsection-1';
</script>
<script xlink:href="svgpan.js"/>
<svg id="graph" class="graph">
<g id="viewport">
<title>include/ccf/node/quote.h</title>
<!-- Node1 -->
<g id="node1" class="node">
<title>Node1</title>
<g id="a_node1"><a xlink:title=" ">
<polygon fill="#999999" stroke="#666666" points="1486.5,-657 1350.5,-657 1350.5,-638 1486.5,-638 1486.5,-657"/>
<text text-anchor="middle" x="1418.5" y="-645" font-family="Helvetica,sans-Serif" font-size="10.00">include/ccf/node/quote.h</text>
</a>
</g>
</g>
<!-- Node2 -->
<g id="node2" class="node">
<title>Node2</title>
<g id="a_node2"><a xlink:href="executor__code__id_8h.html" target="_top" xlink:title=" ">
<polygon fill="white" stroke="#666666" points="393.5,-602 245.5,-602 245.5,-572 393.5,-572 393.5,-602"/>
<text text-anchor="start" x="253.5" y="-590" font-family="Helvetica,sans-Serif" font-size="10.00">src/apps/external_executor</text>
<text text-anchor="middle" x="319.5" y="-579" font-family="Helvetica,sans-Serif" font-size="10.00">/executor_code_id.h</text>
</a>
</g>
</g>
<!-- Node1&#45;&gt;Node2 -->
<g id="edge1" class="edge">
<title>Node1&#45;&gt;Node2</title>
<path fill="none" stroke="#63b8ff" d="M1339.97,-642.98C1185.23,-635.95 829.99,-619.34 531.5,-602 485.65,-599.34 434.26,-595.95 393.56,-593.18"/>
<polygon fill="#63b8ff" stroke="#63b8ff" points="1340.17,-646.49 1350.32,-643.45 1340.49,-639.5 1340.17,-646.49"/>
</g>
<!-- Node7 -->
<g id="node7" class="node">
<title>Node7</title>
<g id="a_node7"><a xlink:href="quote_8cpp.html" target="_top" xlink:title=" ">
<polygon fill="white" stroke="#666666" points="2024,-596.5 1915,-596.5 1915,-577.5 2024,-577.5 2024,-596.5"/>
<text text-anchor="middle" x="1969.5" y="-584.5" font-family="Helvetica,sans-Serif" font-size="10.00">src/node/quote.cpp</text>
</a>
</g>
</g>
<!-- Node1&#45;&gt;Node7 -->
<g id="edge8" class="edge">
<title>Node1&#45;&gt;Node7</title>
<path fill="none" stroke="#63b8ff" d="M1496.79,-641.88C1592.41,-635.64 1758.92,-622.84 1900.5,-602 1910.54,-600.52 1921.32,-598.53 1931.31,-596.52"/>
<polygon fill="#63b8ff" stroke="#63b8ff" points="1496.38,-638.4 1486.62,-642.54 1496.83,-645.39 1496.38,-638.4"/>
</g>
<!-- Node8 -->
<g id="node8" class="node">
<title>Node8</title>
<g id="a_node8"><a xlink:href="member__frontend_8h.html" target="_top" xlink:title=" ">
<polygon fill="white" stroke="#666666" points="555.5,-338 435.5,-338 435.5,-308 555.5,-308 555.5,-338"/>
<text text-anchor="start" x="443.5" y="-326" font-family="Helvetica,sans-Serif" font-size="10.00">src/node/rpc/member</text>
<text text-anchor="middle" x="495.5" y="-315" font-family="Helvetica,sans-Serif" font-size="10.00">_frontend.h</text>
</a>
</g>
</g>
<!-- Node1&#45;&gt;Node8 -->
<g id="edge9" class="edge">
<title>Node1&#45;&gt;Node8</title>
<path fill="none" stroke="#63b8ff" d="M1340.13,-643.5C1125.74,-634.26 545.5,-601.88 545.5,-522 545.5,-522 545.5,-522 545.5,-454 545.5,-417.46 540.53,-407.74 526.5,-374 521.17,-361.17 512.75,-347.86 506.03,-338.2"/>
<polygon fill="#63b8ff" stroke="#63b8ff" points="1340.22,-647.01 1350.36,-643.94 1340.52,-640.01 1340.22,-647.01"/>
</g>
<!-- Node11 -->
<g id="node11" class="node">
<title>Node11</title>
<g id="a_node11"><a xlink:href="node__frontend_8h.html" target="_top" xlink:title=" ">
<polygon fill="white" stroke="#666666" points="1726.5,-332.5 1568.5,-332.5 1568.5,-313.5 1726.5,-313.5 1726.5,-332.5"/>
<text text-anchor="middle" x="1647.5" y="-320.5" font-family="Helvetica,sans-Serif" font-size="10.00">src/node/rpc/node_frontend.h</text>
</a>
</g>
</g>
<!-- Node1&#45;&gt;Node11 -->
<g id="edge12" class="edge">
<title>Node1&#45;&gt;Node11</title>
<path fill="none" stroke="#63b8ff" d="M1496.78,-641.42C1601.62,-629.93 1784.09,-592.42 1867.5,-470 1875.01,-458.98 1874.39,-451.42 1867.5,-440 1864.54,-435.1 1715.61,-358.76 1664.5,-332.67"/>
<polygon fill="#63b8ff" stroke="#63b8ff" points="1496.16,-637.97 1486.57,-642.49 1496.88,-644.93 1496.16,-637.97"/>
</g>
<!-- Node15 -->
<g id="node15" class="node">
<title>Node15</title>
<g id="a_node15"><a xlink:href="node__operation__interface_8h.html" target="_top" xlink:title=" ">
<polygon fill="white" stroke="#666666" points="1496,-602 1341,-602 1341,-572 1496,-572 1496,-602"/>
<text text-anchor="start" x="1349" y="-590" font-family="Helvetica,sans-Serif" font-size="10.00">src/node/rpc/node_operation</text>
<text text-anchor="middle" x="1418.5" y="-579" font-family="Helvetica,sans-Serif" font-size="10.00">_interface.h</text>
</a>
</g>
</g>
<!-- Node1&#45;&gt;Node15 -->
<g id="edge19" class="edge">
<title>Node1&#45;&gt;Node15</title>
<path fill="none" stroke="#63b8ff" d="M1418.5,-627.65C1418.5,-619.36 1418.5,-609.78 1418.5,-602.11"/>
<polygon fill="#63b8ff" stroke="#63b8ff" points="1415,-627.87 1418.5,-637.87 1422,-627.87 1415,-627.87"/>
</g>
<!-- Node3 -->
<g id="node3" class="node">
<title>Node3</title>
<g id="a_node3"><a xlink:href="executor__auth__policy_8h.html" target="_top" xlink:title=" ">
<polygon fill="white" stroke="#666666" points="291.5,-536 143.5,-536 143.5,-506 291.5,-506 291.5,-536"/>
<text text-anchor="start" x="151.5" y="-524" font-family="Helvetica,sans-Serif" font-size="10.00">src/apps/external_executor</text>
<text text-anchor="middle" x="217.5" y="-513" font-family="Helvetica,sans-Serif" font-size="10.00">/executor_auth_policy.h</text>
</a>
</g>
</g>
<!-- Node2&#45;&gt;Node3 -->
<g id="edge2" class="edge">
<title>Node2&#45;&gt;Node3</title>
<path fill="none" stroke="#63b8ff" d="M288.29,-566.42C272.64,-556.6 254.04,-544.93 239.83,-536.01"/>
<polygon fill="#63b8ff" stroke="#63b8ff" points="286.78,-569.6 297.12,-571.95 290.51,-563.68 286.78,-569.6"/>
</g>
<!-- Node4 -->
<g id="node4" class="node">
<title>Node4</title>
<g id="a_node4"><a xlink:href="external__executor_8cpp.html" target="_top" xlink:title=" ">
<polygon fill="white" stroke="#666666" points="341.5,-404 193.5,-404 193.5,-374 341.5,-374 341.5,-404"/>
<text text-anchor="start" x="201.5" y="-392" font-family="Helvetica,sans-Serif" font-size="10.00">src/apps/external_executor</text>
<text text-anchor="middle" x="267.5" y="-381" font-family="Helvetica,sans-Serif" font-size="10.00">/external_executor.cpp</text>
</a>
</g>
</g>
<!-- Node2&#45;&gt;Node4 -->
<g id="edge7" class="edge">
<title>Node2&#45;&gt;Node4</title>
<path fill="none" stroke="#63b8ff" d="M314.03,-561.73C310.37,-545.84 305.36,-524.63 300.5,-506 290.88,-469.13 278.26,-426.05 271.77,-404.23"/>
<polygon fill="#63b8ff" stroke="#63b8ff" points="310.69,-562.82 316.32,-571.79 317.51,-561.26 310.69,-562.82"/>
</g>
<!-- Node3&#45;&gt;Node4 -->
<g id="edge3" class="edge">
<title>Node3&#45;&gt;Node4</title>
<path fill="none" stroke="#63b8ff" d="M233.66,-497.4C239,-489.1 244.58,-479.42 248.5,-470 257.71,-447.86 263.01,-420.32 265.57,-404.01"/>
<polygon fill="#63b8ff" stroke="#63b8ff" points="230.69,-495.54 228.03,-505.8 236.51,-499.44 230.69,-495.54"/>
</g>
<!-- Node5 -->
<g id="node5" class="node">
<title>Node5</title>
<g id="a_node5"><a xlink:href="external__executor__indexing_8h.html" target="_top" xlink:title=" ">
<polygon fill="white" stroke="#666666" points="239.5,-470 75.5,-470 75.5,-440 239.5,-440 239.5,-470"/>
<text text-anchor="start" x="83.5" y="-458" font-family="Helvetica,sans-Serif" font-size="10.00">src/apps/external_executor</text>
<text text-anchor="middle" x="157.5" y="-447" font-family="Helvetica,sans-Serif" font-size="10.00">/external_executor_indexing.h</text>
</a>
</g>
</g>
<!-- Node3&#45;&gt;Node5 -->
<g id="edge4" class="edge">
<title>Node3&#45;&gt;Node5</title>
<path fill="none" stroke="#63b8ff" d="M197.22,-498.37C188.49,-489.06 178.54,-478.44 170.78,-470.16"/>
<polygon fill="#63b8ff" stroke="#63b8ff" points="194.79,-500.89 204.18,-505.8 199.9,-496.11 194.79,-500.89"/>
</g>
<!-- Node5&#45;&gt;Node4 -->
<g id="edge5" class="edge">
<title>Node5&#45;&gt;Node4</title>
<path fill="none" stroke="#63b8ff" d="M190.68,-434.69C207.66,-424.82 227.95,-413.01 243.42,-404.01"/>
<polygon fill="#63b8ff" stroke="#63b8ff" points="188.52,-431.9 181.64,-439.95 192.04,-437.95 188.52,-431.9"/>
</g>
<!-- Node6 -->
<g id="node6" class="node">
<title>Node6</title>
<g id="a_node6"><a xlink:href="external__executor__indexing_8cpp.html" target="_top" xlink:title=" ">
<polygon fill="white" stroke="#666666" points="175,-404 0,-404 0,-374 175,-374 175,-404"/>
<text text-anchor="start" x="8" y="-392" font-family="Helvetica,sans-Serif" font-size="10.00">src/apps/external_executor</text>
<text text-anchor="middle" x="87.5" y="-381" font-family="Helvetica,sans-Serif" font-size="10.00">/external_executor_indexing.cpp</text>
</a>
</g>
</g>
<!-- Node5&#45;&gt;Node6 -->
<g id="edge6" class="edge">
<title>Node5&#45;&gt;Node6</title>
<path fill="none" stroke="#63b8ff" d="M134.45,-432.92C124.13,-423.49 112.23,-412.61 102.99,-404.16"/>
<polygon fill="#63b8ff" stroke="#63b8ff" points="132.22,-435.63 141.96,-439.8 136.95,-430.47 132.22,-435.63"/>
</g>
<!-- Node9 -->
<g id="node9" class="node">
<title>Node9</title>
<g id="a_node9"><a xlink:href="src_2enclave_2enclave_8h.html" target="_top" xlink:title=" ">
<polygon fill="white" stroke="#666666" points="1615.5,-74 1493.5,-74 1493.5,-55 1615.5,-55 1615.5,-74"/>
<text text-anchor="middle" x="1554.5" y="-62" font-family="Helvetica,sans-Serif" font-size="10.00">src/enclave/enclave.h</text>
</a>
</g>
</g>
<!-- Node8&#45;&gt;Node9 -->
<g id="edge10" class="edge">
<title>Node8&#45;&gt;Node9</title>
<path fill="none" stroke="#63b8ff" d="M495.79,-297.7C497.78,-252.23 509.27,-154.85 569.5,-110 606.61,-82.36 1283.88,-69.66 1493.31,-66.39"/>
<polygon fill="#63b8ff" stroke="#63b8ff" points="492.28,-297.72 495.46,-307.83 499.28,-297.94 492.28,-297.72"/>
</g>
<!-- Node10 -->
<g id="node10" class="node">
<title>Node10</title>
<g id="a_node10"><a xlink:href="enclave_2main_8cpp.html" target="_top" xlink:title=" ">
<polygon fill="white" stroke="#666666" points="1614.5,-19 1494.5,-19 1494.5,0 1614.5,0 1614.5,-19"/>
<text text-anchor="middle" x="1554.5" y="-7" font-family="Helvetica,sans-Serif" font-size="10.00">src/enclave/main.cpp</text>
</a>
</g>
</g>
<!-- Node9&#45;&gt;Node10 -->
<g id="edge11" class="edge">
<title>Node9&#45;&gt;Node10</title>
<path fill="none" stroke="#63b8ff" d="M1554.5,-44.66C1554.5,-35.93 1554.5,-25.99 1554.5,-19.09"/>
<polygon fill="#63b8ff" stroke="#63b8ff" points="1551,-44.75 1554.5,-54.75 1558,-44.75 1551,-44.75"/>
</g>
<!-- Node11&#45;&gt;Node9 -->
<g id="edge13" class="edge">
<title>Node11&#45;&gt;Node9</title>
<path fill="none" stroke="#63b8ff" d="M1625.87,-307.29C1614.48,-298.4 1601.29,-286.08 1593.5,-272 1555.53,-203.36 1553.83,-104.36 1554.26,-74.41"/>
<polygon fill="#63b8ff" stroke="#63b8ff" points="1623.99,-310.26 1634.11,-313.39 1628.16,-304.63 1623.99,-310.26"/>
</g>
<!-- Node12 -->
<g id="node12" class="node">
<title>Node12</title>
<g id="a_node12"><a xlink:href="jwt__key__auto__refresh_8h.html" target="_top" xlink:title=" ">
<polygon fill="white" stroke="#666666" points="1727,-272 1602,-272 1602,-242 1727,-242 1727,-272"/>
<text text-anchor="start" x="1610" y="-260" font-family="Helvetica,sans-Serif" font-size="10.00">src/node/jwt_key_auto</text>
<text text-anchor="middle" x="1664.5" y="-249" font-family="Helvetica,sans-Serif" font-size="10.00">_refresh.h</text>
</a>
</g>
</g>
<!-- Node11&#45;&gt;Node12 -->
<g id="edge14" class="edge">
<title>Node11&#45;&gt;Node12</title>
<path fill="none" stroke="#63b8ff" d="M1652.37,-303.67C1655.01,-293.72 1658.23,-281.61 1660.69,-272.36"/>
<polygon fill="#63b8ff" stroke="#63b8ff" points="1648.98,-302.81 1649.79,-313.37 1655.74,-304.6 1648.98,-302.81"/>
</g>
<!-- Node13 -->
<g id="node13" class="node">
<title>Node13</title>
<g id="a_node13"><a xlink:href="node__state_8h.html" target="_top" xlink:title=" ">
<polygon fill="white" stroke="#666666" points="1776.5,-200.5 1652.5,-200.5 1652.5,-181.5 1776.5,-181.5 1776.5,-200.5"/>
<text text-anchor="middle" x="1714.5" y="-188.5" font-family="Helvetica,sans-Serif" font-size="10.00">src/node/node_state.h</text>
</a>
</g>
</g>
<!-- Node12&#45;&gt;Node13 -->
<g id="edge15" class="edge">
<title>Node12&#45;&gt;Node13</title>
<path fill="none" stroke="#63b8ff" d="M1681.99,-233.61C1690.81,-222.32 1701,-209.28 1707.59,-200.84"/>
<polygon fill="#63b8ff" stroke="#63b8ff" points="1679,-231.76 1675.6,-241.8 1684.51,-236.07 1679,-231.76"/>
</g>
<!-- Node13&#45;&gt;Node9 -->
<g id="edge16" class="edge">
<title>Node13&#45;&gt;Node9</title>
<path fill="none" stroke="#63b8ff" d="M1732.22,-174.37C1749.34,-157.37 1770.51,-129.96 1754.5,-110 1737.28,-88.53 1667.8,-76.75 1615.53,-70.8"/>
<polygon fill="#63b8ff" stroke="#63b8ff" points="1729.66,-171.97 1724.79,-181.38 1734.46,-177.06 1729.66,-171.97"/>
</g>
<!-- Node14 -->
<g id="node14" class="node">
<title>Node14</title>
<g id="a_node14"><a xlink:href="gov__effects_8h.html" target="_top" xlink:title=" ">
<polygon fill="white" stroke="#666666" points="1745.5,-134.5 1601.5,-134.5 1601.5,-115.5 1745.5,-115.5 1745.5,-134.5"/>
<text text-anchor="middle" x="1673.5" y="-122.5" font-family="Helvetica,sans-Serif" font-size="10.00">src/node/rpc/gov_effects.h</text>
</a>
</g>
</g>
<!-- Node13&#45;&gt;Node14 -->
<g id="edge17" class="edge">
<title>Node13&#45;&gt;Node14</title>
<path fill="none" stroke="#63b8ff" d="M1703.55,-172.91C1695.71,-160.68 1685.48,-144.7 1679.2,-134.91"/>
<polygon fill="#63b8ff" stroke="#63b8ff" points="1700.63,-174.84 1708.97,-181.37 1706.52,-171.06 1700.63,-174.84"/>
</g>
<!-- Node14&#45;&gt;Node9 -->
<g id="edge18" class="edge">
<title>Node14&#45;&gt;Node9</title>
<path fill="none" stroke="#63b8ff" d="M1647.02,-110.98C1624.09,-99.71 1591.57,-83.73 1571.82,-74.02"/>
<polygon fill="#63b8ff" stroke="#63b8ff" points="1645.68,-114.22 1656.2,-115.49 1648.77,-107.94 1645.68,-114.22"/>
</g>
<!-- Node15&#45;&gt;Node8 -->
<g id="edge20" class="edge">
<title>Node15&#45;&gt;Node8</title>
<path fill="none" stroke="#63b8ff" d="M1330.6,-582.45C1148.1,-573.62 735.43,-545.65 619.5,-470 577.36,-442.5 593.17,-411.39 559.5,-374 547.05,-360.17 530.42,-347.31 517.23,-338.09"/>
<polygon fill="#63b8ff" stroke="#63b8ff" points="1330.55,-585.95 1340.7,-582.93 1330.88,-578.96 1330.55,-585.95"/>
</g>
<!-- Node16 -->
<g id="node16" class="node">
<title>Node16</title>
<g id="a_node16"><a xlink:href="node__interface_8h.html" target="_top" xlink:title=" ">
<polygon fill="white" stroke="#666666" points="1499,-530.5 1338,-530.5 1338,-511.5 1499,-511.5 1499,-530.5"/>
<text text-anchor="middle" x="1418.5" y="-518.5" font-family="Helvetica,sans-Serif" font-size="10.00">src/node/rpc/node_interface.h</text>
</a>
</g>
</g>
<!-- Node15&#45;&gt;Node16 -->
<g id="edge21" class="edge">
<title>Node15&#45;&gt;Node16</title>
<path fill="none" stroke="#63b8ff" d="M1418.5,-561.6C1418.5,-550.8 1418.5,-538.78 1418.5,-530.84"/>
<polygon fill="#63b8ff" stroke="#63b8ff" points="1415,-561.8 1418.5,-571.8 1422,-561.8 1415,-561.8"/>
</g>
<!-- Node35 -->
<g id="node35" class="node">
<title>Node35</title>
<g id="a_node35"><a xlink:href="node__operation_8h.html" target="_top" xlink:title=" ">
<polygon fill="white" stroke="#666666" points="1858.5,-464.5 1694.5,-464.5 1694.5,-445.5 1858.5,-445.5 1858.5,-464.5"/>
<text text-anchor="middle" x="1776.5" y="-452.5" font-family="Helvetica,sans-Serif" font-size="10.00">src/node/rpc/node_operation.h</text>
</a>
</g>
</g>
<!-- Node15&#45;&gt;Node35 -->
<g id="edge64" class="edge">
<title>Node15&#45;&gt;Node35</title>
<path fill="none" stroke="#63b8ff" d="M1466.72,-568.49C1544.48,-540.25 1694.74,-485.69 1752.8,-464.61"/>
<polygon fill="#63b8ff" stroke="#63b8ff" points="1465.36,-565.26 1457.15,-571.96 1467.75,-571.84 1465.36,-565.26"/>
</g>
<!-- Node16&#45;&gt;Node8 -->
<g id="edge56" class="edge">
<title>Node16&#45;&gt;Node8</title>
<path fill="none" stroke="#63b8ff" d="M1327.65,-519.15C1135.55,-516.64 701.13,-506.91 645.5,-470 605.75,-443.62 631.36,-407.6 597.5,-374 581.26,-357.89 558.79,-346.11 539.08,-338.05"/>
<polygon fill="#63b8ff" stroke="#63b8ff" points="1327.68,-522.65 1337.73,-519.28 1327.77,-515.65 1327.68,-522.65"/>
</g>
<!-- Node16&#45;&gt;Node11 -->
<g id="edge61" class="edge">
<title>Node16&#45;&gt;Node11</title>
<path fill="none" stroke="#63b8ff" d="M1436.24,-504.81C1481.83,-465.79 1601.98,-362.96 1637.48,-332.57"/>
<polygon fill="#63b8ff" stroke="#63b8ff" points="1433.96,-502.16 1428.64,-511.33 1438.51,-507.48 1433.96,-502.16"/>
</g>
<!-- Node17 -->
<g id="node17" class="node">
<title>Node17</title>
<g id="a_node17"><a xlink:href="wrap_8cpp.html" target="_top" xlink:title=" ">
<polygon fill="white" stroke="#666666" points="1132,-266.5 1043,-266.5 1043,-247.5 1132,-247.5 1132,-266.5"/>
<text text-anchor="middle" x="1087.5" y="-254.5" font-family="Helvetica,sans-Serif" font-size="10.00">src/js/wrap.cpp</text>
</a>
</g>
</g>
<!-- Node16&#45;&gt;Node17 -->
<g id="edge22" class="edge">
<title>Node16&#45;&gt;Node17</title>
<path fill="none" stroke="#63b8ff" d="M1327.8,-512.58C1141.39,-495.25 725.51,-445.19 640.5,-338 632.21,-327.55 631.61,-317.94 640.5,-308 667.05,-278.32 935.13,-264.19 1042.95,-259.68"/>
<polygon fill="#63b8ff" stroke="#63b8ff" points="1327.58,-516.07 1337.86,-513.5 1328.22,-509.1 1327.58,-516.07"/>
</g>
<!-- Node18 -->
<g id="node18" class="node">
<title>Node18</title>
<g id="a_node18"><a xlink:href="wrap_8h.html" target="_top" xlink:title=" ">
<polygon fill="white" stroke="#666666" points="1126.5,-398.5 1048.5,-398.5 1048.5,-379.5 1126.5,-379.5 1126.5,-398.5"/>
<text text-anchor="middle" x="1087.5" y="-386.5" font-family="Helvetica,sans-Serif" font-size="10.00">src/js/wrap.h</text>
</a>
</g>
</g>
<!-- Node16&#45;&gt;Node18 -->
<g id="edge23" class="edge">
<title>Node16&#45;&gt;Node18</title>
<path fill="none" stroke="#63b8ff" d="M1387.25,-507.73C1320.71,-481.59 1166.44,-421 1109.3,-398.56"/>
<polygon fill="#63b8ff" stroke="#63b8ff" points="1386.19,-511.07 1396.78,-511.47 1388.75,-504.56 1386.19,-511.07"/>
</g>
<!-- Node25 -->
<g id="node25" class="node">
<title>Node25</title>
<g id="a_node25"><a xlink:href="historical__queries_8h.html" target="_top" xlink:title=" ">
<polygon fill="white" stroke="#666666" points="1353.5,-206 1247.5,-206 1247.5,-176 1353.5,-176 1353.5,-206"/>
<text text-anchor="start" x="1255.5" y="-194" font-family="Helvetica,sans-Serif" font-size="10.00">src/node/historical</text>
<text text-anchor="middle" x="1300.5" y="-183" font-family="Helvetica,sans-Serif" font-size="10.00">_queries.h</text>
</a>
</g>
</g>
<!-- Node16&#45;&gt;Node25 -->
<g id="edge39" class="edge">
<title>Node16&#45;&gt;Node25</title>
<path fill="none" stroke="#63b8ff" d="M1426.61,-502.17C1442.56,-464.33 1473.84,-374.08 1442.5,-308 1419.38,-259.25 1364.62,-224.2 1330.26,-206.08"/>
<polygon fill="#63b8ff" stroke="#63b8ff" points="1423.38,-500.82 1422.59,-511.38 1429.8,-503.62 1423.38,-500.82"/>
</g>
<!-- Node27 -->
<g id="node27" class="node">
<title>Node27</title>
<g id="a_node27"><a xlink:href="node__configuration__subsystem_8h.html" target="_top" xlink:title=" ">
<polygon fill="white" stroke="#666666" points="1676.5,-470 1522.5,-470 1522.5,-440 1676.5,-440 1676.5,-470"/>
<text text-anchor="start" x="1530.5" y="-458" font-family="Helvetica,sans-Serif" font-size="10.00">src/node/node_configuration</text>
<text text-anchor="middle" x="1599.5" y="-447" font-family="Helvetica,sans-Serif" font-size="10.00">_subsystem.h</text>
</a>
</g>
</g>
<!-- Node16&#45;&gt;Node27 -->
<g id="edge43" class="edge">
<title>Node16&#45;&gt;Node27</title>
<path fill="none" stroke="#63b8ff" d="M1452.64,-507.93C1483.04,-497.18 1527.54,-481.44 1559.58,-470.12"/>
<polygon fill="#63b8ff" stroke="#63b8ff" points="1451.17,-504.74 1442.91,-511.37 1453.51,-511.33 1451.17,-504.74"/>
</g>
<!-- Node32 -->
<g id="node32" class="node">
<title>Node32</title>
<g id="a_node32"><a xlink:href="acme__subsystem_8h.html" target="_top" xlink:title=" ">
<polygon fill="white" stroke="#666666" points="1545,-200.5 1372,-200.5 1372,-181.5 1545,-181.5 1545,-200.5"/>
<text text-anchor="middle" x="1458.5" y="-188.5" font-family="Helvetica,sans-Serif" font-size="10.00">src/node/rpc/acme_subsystem.h</text>
</a>
</g>
</g>
<!-- Node16&#45;&gt;Node32 -->
<g id="edge54" class="edge">
<title>Node16&#45;&gt;Node32</title>
<path fill="none" stroke="#63b8ff" d="M1431.18,-502.77C1453.13,-471.74 1497.42,-403.57 1513.5,-338 1526.73,-284.07 1483.5,-222.89 1465.75,-200.65"/>
<polygon fill="#63b8ff" stroke="#63b8ff" points="1428.14,-501 1425.14,-511.16 1433.82,-505.09 1428.14,-501"/>
</g>
<!-- Node33 -->
<g id="node33" class="node">
<title>Node33</title>
<g id="a_node33"><a xlink:href="network__identity__subsystem_8h.html" target="_top" xlink:title=" ">
<polygon fill="white" stroke="#666666" points="503,-470 376,-470 376,-440 503,-440 503,-470"/>
<text text-anchor="start" x="384" y="-458" font-family="Helvetica,sans-Serif" font-size="10.00">src/node/rpc/network</text>
<text text-anchor="middle" x="439.5" y="-447" font-family="Helvetica,sans-Serif" font-size="10.00">_identity_subsystem.h</text>
</a>
</g>
</g>
<!-- Node16&#45;&gt;Node33 -->
<g id="edge57" class="edge">
<title>Node16&#45;&gt;Node33</title>
<path fill="none" stroke="#63b8ff" d="M1327.8,-515.05C1177.85,-506.72 868.82,-488.94 607.5,-470 573.05,-467.5 534.67,-464.33 503.3,-461.64"/>
<polygon fill="#63b8ff" stroke="#63b8ff" points="1327.71,-518.55 1337.88,-515.61 1328.09,-511.56 1327.71,-518.55"/>
</g>
<!-- Node16&#45;&gt;Node35 -->
<g id="edge62" class="edge">
<title>Node16&#45;&gt;Node35</title>
<path fill="none" stroke="#63b8ff" d="M1476.42,-509.65C1546.64,-497.09 1663.65,-476.17 1728.87,-464.51"/>
<polygon fill="#63b8ff" stroke="#63b8ff" points="1475.64,-506.23 1466.41,-511.44 1476.87,-513.12 1475.64,-506.23"/>
</g>
<!-- Node18&#45;&gt;Node8 -->
<g id="edge37" class="edge">
<title>Node18&#45;&gt;Node8</title>
<path fill="none" stroke="#63b8ff" d="M1038.21,-384.74C945.92,-378.3 740.89,-362.43 569.5,-338 564.97,-337.35 560.29,-336.62 555.6,-335.84"/>
<polygon fill="#63b8ff" stroke="#63b8ff" points="1038.15,-388.24 1048.37,-385.44 1038.63,-381.26 1038.15,-388.24"/>
</g>
<!-- Node18&#45;&gt;Node9 -->
<g id="edge25" class="edge">
<title>Node18&#45;&gt;Node9</title>
<path fill="none" stroke="#63b8ff" d="M1038.13,-387.48C936.29,-385.6 706.88,-377.03 640.5,-338 602.87,-315.87 583.5,-301.66 583.5,-258 583.5,-258 583.5,-258 583.5,-190 583.5,-97.85 1280.38,-72.48 1493.39,-66.88"/>
<polygon fill="#63b8ff" stroke="#63b8ff" points="1038.1,-390.98 1048.16,-387.65 1038.22,-383.98 1038.1,-390.98"/>
</g>
<!-- Node18&#45;&gt;Node11 -->
<g id="edge38" class="edge">
<title>Node18&#45;&gt;Node11</title>
<path fill="none" stroke="#63b8ff" d="M1136.86,-382.36C1235.28,-371.11 1456.47,-345.83 1572.78,-332.54"/>
<polygon fill="#63b8ff" stroke="#63b8ff" points="1136.42,-378.89 1126.88,-383.5 1137.21,-385.84 1136.42,-378.89"/>
</g>
<!-- Node18&#45;&gt;Node13 -->
<g id="edge36" class="edge">
<title>Node18&#45;&gt;Node13</title>
<path fill="none" stroke="#63b8ff" d="M1136.93,-387.59C1207.02,-385.56 1338.35,-376.39 1442.5,-338 1517.12,-310.5 1522.93,-278.66 1593.5,-242 1625.98,-225.13 1665.46,-209.7 1690.29,-200.58"/>
<polygon fill="#63b8ff" stroke="#63b8ff" points="1136.54,-384.09 1126.63,-387.84 1136.71,-391.09 1136.54,-384.09"/>
</g>
<!-- Node18&#45;&gt;Node17 -->
<g id="edge35" class="edge">
<title>Node18&#45;&gt;Node17</title>
<path fill="none" stroke="#63b8ff" d="M1038.39,-382.16C1010.56,-376.05 977.9,-363.55 960.5,-338 935.49,-301.28 1000.13,-277.98 1046.09,-266.52"/>
<polygon fill="#63b8ff" stroke="#63b8ff" points="1037.91,-385.63 1048.4,-384.13 1039.26,-378.76 1037.91,-385.63"/>
</g>
<!-- Node19 -->
<g id="node19" class="node">
<title>Node19</title>
<g id="a_node19"><a xlink:href="js__generic__base_8cpp.html" target="_top" xlink:title=" ">
<polygon fill="white" stroke="#666666" points="767.5,-338 649.5,-338 649.5,-308 767.5,-308 767.5,-338"/>
<text text-anchor="start" x="657.5" y="-326" font-family="Helvetica,sans-Serif" font-size="10.00">src/apps/js_generic</text>
<text text-anchor="middle" x="708.5" y="-315" font-family="Helvetica,sans-Serif" font-size="10.00">/js_generic_base.cpp</text>
</a>
</g>
</g>
<!-- Node18&#45;&gt;Node19 -->
<g id="edge24" class="edge">
<title>Node18&#45;&gt;Node19</title>
<path fill="none" stroke="#63b8ff" d="M1037.94,-380.71C976.47,-371.52 868.54,-354.86 776.5,-338 773.65,-337.48 770.75,-336.93 767.81,-336.37"/>
<polygon fill="#63b8ff" stroke="#63b8ff" points="1037.72,-384.22 1048.13,-382.23 1038.76,-377.3 1037.72,-384.22"/>
</g>
<!-- Node20 -->
<g id="node20" class="node">
<title>Node20</title>
<g id="a_node20"><a xlink:href="consensus_8cpp.html" target="_top" xlink:title=" ">
<polygon fill="white" stroke="#666666" points="1085.5,-332.5 969.5,-332.5 969.5,-313.5 1085.5,-313.5 1085.5,-332.5"/>
<text text-anchor="middle" x="1027.5" y="-320.5" font-family="Helvetica,sans-Serif" font-size="10.00">src/js/consensus.cpp</text>
</a>
</g>
</g>
<!-- Node18&#45;&gt;Node20 -->
<g id="edge26" class="edge">
<title>Node18&#45;&gt;Node20</title>
<path fill="none" stroke="#63b8ff" d="M1072.48,-371.98C1060.9,-359.62 1045.3,-342.99 1035.85,-332.91"/>
<polygon fill="#63b8ff" stroke="#63b8ff" points="1070.02,-374.47 1079.41,-379.37 1075.12,-369.68 1070.02,-374.47"/>
</g>
<!-- Node21 -->
<g id="node21" class="node">
<title>Node21</title>
<g id="a_node21"><a xlink:href="conv_8cpp.html" target="_top" xlink:title=" ">
<polygon fill="white" stroke="#666666" points="1191.5,-332.5 1103.5,-332.5 1103.5,-313.5 1191.5,-313.5 1191.5,-332.5"/>
<text text-anchor="middle" x="1147.5" y="-320.5" font-family="Helvetica,sans-Serif" font-size="10.00">src/js/conv.cpp</text>
</a>
</g>
</g>
<!-- Node18&#45;&gt;Node21 -->
<g id="edge28" class="edge">
<title>Node18&#45;&gt;Node21</title>
<path fill="none" stroke="#63b8ff" d="M1102.52,-371.98C1114.1,-359.62 1129.7,-342.99 1139.15,-332.91"/>
<polygon fill="#63b8ff" stroke="#63b8ff" points="1099.88,-369.68 1095.59,-379.37 1104.98,-374.47 1099.88,-369.68"/>
</g>
<!-- Node22 -->
<g id="node22" class="node">
<title>Node22</title>
<g id="a_node22"><a xlink:href="crypto_8cpp.html" target="_top" xlink:title=" ">
<polygon fill="white" stroke="#666666" points="1305.5,-332.5 1209.5,-332.5 1209.5,-313.5 1305.5,-313.5 1305.5,-332.5"/>
<text text-anchor="middle" x="1257.5" y="-320.5" font-family="Helvetica,sans-Serif" font-size="10.00">src/js/crypto.cpp</text>
</a>
</g>
</g>
<!-- Node18&#45;&gt;Node22 -->
<g id="edge30" class="edge">
<title>Node18&#45;&gt;Node22</title>
<path fill="none" stroke="#63b8ff" d="M1119.8,-375.84C1153.39,-363.2 1205.1,-343.73 1234.67,-332.6"/>
<polygon fill="#63b8ff" stroke="#63b8ff" points="1118.55,-372.57 1110.43,-379.37 1121.02,-379.12 1118.55,-372.57"/>
</g>
<!-- Node23 -->
<g id="node23" class="node">
<title>Node23</title>
<g id="a_node23"><a xlink:href="historical_8cpp.html" target="_top" xlink:title=" ">
<polygon fill="white" stroke="#666666" points="1433.5,-332.5 1323.5,-332.5 1323.5,-313.5 1433.5,-313.5 1433.5,-332.5"/>
<text text-anchor="middle" x="1378.5" y="-320.5" font-family="Helvetica,sans-Serif" font-size="10.00">src/js/historical.cpp</text>
</a>
</g>
</g>
<!-- Node18&#45;&gt;Node23 -->
<g id="edge32" class="edge">
<title>Node18&#45;&gt;Node23</title>
<path fill="none" stroke="#63b8ff" d="M1136.35,-377.26C1193.6,-364.67 1287.31,-344.06 1339.79,-332.51"/>
<polygon fill="#63b8ff" stroke="#63b8ff" points="1135.46,-373.87 1126.44,-379.44 1136.96,-380.71 1135.46,-373.87"/>
</g>
<!-- Node24 -->
<g id="node24" class="node">
<title>Node24</title>
<g id="a_node24"><a xlink:href="openenclave_8cpp.html" target="_top" xlink:title=" ">
<polygon fill="white" stroke="#666666" points="913.5,-332.5 785.5,-332.5 785.5,-313.5 913.5,-313.5 913.5,-332.5"/>
<text text-anchor="middle" x="849.5" y="-320.5" font-family="Helvetica,sans-Serif" font-size="10.00">src/js/openenclave.cpp</text>
</a>
</g>
</g>
<!-- Node18&#45;&gt;Node24 -->
<g id="edge34" class="edge">
<title>Node18&#45;&gt;Node24</title>
<path fill="none" stroke="#63b8ff" d="M1045.56,-376.72C998.69,-364.12 923.84,-343.99 881.47,-332.6"/>
<polygon fill="#63b8ff" stroke="#63b8ff" points="1044.84,-380.15 1055.4,-379.37 1046.65,-373.39 1044.84,-380.15"/>
</g>
<!-- Node20&#45;&gt;Node17 -->
<g id="edge27" class="edge">
<title>Node20&#45;&gt;Node17</title>
<path fill="none" stroke="#63b8ff" d="M1042.52,-305.98C1054.1,-293.62 1069.7,-276.99 1079.15,-266.91"/>
<polygon fill="#63b8ff" stroke="#63b8ff" points="1039.88,-303.68 1035.59,-313.37 1044.98,-308.47 1039.88,-303.68"/>
</g>
<!-- Node21&#45;&gt;Node17 -->
<g id="edge29" class="edge">
<title>Node21&#45;&gt;Node17</title>
<path fill="none" stroke="#63b8ff" d="M1132.48,-305.98C1120.9,-293.62 1105.3,-276.99 1095.85,-266.91"/>
<polygon fill="#63b8ff" stroke="#63b8ff" points="1130.02,-308.47 1139.41,-313.37 1135.12,-303.68 1130.02,-308.47"/>
</g>
<!-- Node22&#45;&gt;Node17 -->
<g id="edge31" class="edge">
<title>Node22&#45;&gt;Node17</title>
<path fill="none" stroke="#63b8ff" d="M1225.2,-309.84C1191.61,-297.2 1139.9,-277.73 1110.33,-266.6"/>
<polygon fill="#63b8ff" stroke="#63b8ff" points="1223.98,-313.12 1234.57,-313.37 1226.45,-306.57 1223.98,-313.12"/>
</g>
<!-- Node23&#45;&gt;Node17 -->
<g id="edge33" class="edge">
<title>Node23&#45;&gt;Node17</title>
<path fill="none" stroke="#63b8ff" d="M1329.65,-311.26C1272.4,-298.67 1178.69,-278.06 1126.21,-266.51"/>
<polygon fill="#63b8ff" stroke="#63b8ff" points="1329.04,-314.71 1339.56,-313.44 1330.54,-307.87 1329.04,-314.71"/>
</g>
<!-- Node25&#45;&gt;Node9 -->
<g id="edge40" class="edge">
<title>Node25&#45;&gt;Node9</title>
<path fill="none" stroke="#63b8ff" d="M1306.34,-166.09C1312.03,-147.95 1322.52,-123.84 1340.5,-110 1364.03,-91.89 1438.77,-79.29 1493.31,-72.23"/>
<polygon fill="#63b8ff" stroke="#63b8ff" points="1302.98,-165.13 1303.59,-175.71 1309.71,-167.06 1302.98,-165.13"/>
</g>
<!-- Node26 -->
<g id="node26" class="node">
<title>Node26</title>
<g id="a_node26"><a xlink:href="historical__transaction__fetcher_8h.html" target="_top" xlink:title=" ">
<polygon fill="white" stroke="#666666" points="1474,-140 1349,-140 1349,-110 1474,-110 1474,-140"/>
<text text-anchor="start" x="1357" y="-128" font-family="Helvetica,sans-Serif" font-size="10.00">src/indexing/historical</text>
<text text-anchor="middle" x="1411.5" y="-117" font-family="Helvetica,sans-Serif" font-size="10.00">_transaction_fetcher.h</text>
</a>
</g>
</g>
<!-- Node25&#45;&gt;Node26 -->
<g id="edge41" class="edge">
<title>Node25&#45;&gt;Node26</title>
<path fill="none" stroke="#63b8ff" d="M1333.98,-170.69C1351.12,-160.82 1371.59,-149.01 1387.2,-140.01"/>
<polygon fill="#63b8ff" stroke="#63b8ff" points="1331.77,-167.93 1324.86,-175.95 1335.27,-173.99 1331.77,-167.93"/>
</g>
<!-- Node26&#45;&gt;Node9 -->
<g id="edge42" class="edge">
<title>Node26&#45;&gt;Node9</title>
<path fill="none" stroke="#63b8ff" d="M1455.03,-106.19C1481.01,-95.57 1512.84,-82.54 1533.38,-74.14"/>
<polygon fill="#63b8ff" stroke="#63b8ff" points="1453.68,-102.96 1445.75,-109.99 1456.33,-109.44 1453.68,-102.96"/>
</g>
<!-- Node28 -->
<g id="node28" class="node">
<title>Node28</title>
<g id="a_node28"><a xlink:href="frontend_8h.html" target="_top" xlink:title=" ">
<polygon fill="white" stroke="#666666" points="1943,-398.5 1814,-398.5 1814,-379.5 1943,-379.5 1943,-398.5"/>
<text text-anchor="middle" x="1878.5" y="-386.5" font-family="Helvetica,sans-Serif" font-size="10.00">src/node/rpc/frontend.h</text>
</a>
</g>
</g>
<!-- Node27&#45;&gt;Node28 -->
<g id="edge44" class="edge">
<title>Node27&#45;&gt;Node28</title>
<path fill="none" stroke="#63b8ff" d="M1670.66,-437.68C1725.09,-425.19 1797.95,-408.48 1841.37,-398.52"/>
<polygon fill="#63b8ff" stroke="#63b8ff" points="1669.69,-434.31 1660.73,-439.95 1671.26,-441.13 1669.69,-434.31"/>
</g>
<!-- Node28&#45;&gt;Node8 -->
<g id="edge50" class="edge">
<title>Node28&#45;&gt;Node8</title>
<path fill="none" stroke="#63b8ff" d="M1803.98,-386.44C1611.34,-382.1 1081.14,-368.15 640.5,-338 612.62,-336.09 581.79,-333.22 555.76,-330.58"/>
<polygon fill="#63b8ff" stroke="#63b8ff" points="1803.91,-389.94 1813.99,-386.67 1804.07,-382.94 1803.91,-389.94"/>
</g>
<!-- Node28&#45;&gt;Node11 -->
<g id="edge51" class="edge">
<title>Node28&#45;&gt;Node11</title>
<path fill="none" stroke="#63b8ff" d="M1837.51,-376.64C1792,-364.03 1719.57,-343.97 1678.53,-332.6"/>
<polygon fill="#63b8ff" stroke="#63b8ff" points="1836.77,-380.07 1847.35,-379.37 1838.64,-373.33 1836.77,-380.07"/>
</g>
<!-- Node28&#45;&gt;Node13 -->
<g id="edge49" class="edge">
<title>Node28&#45;&gt;Node13</title>
<path fill="none" stroke="#63b8ff" d="M1850.72,-374.71C1834.41,-365.93 1814.19,-353.24 1799.5,-338 1777.72,-315.4 1732.96,-228.56 1718.85,-200.68"/>
<polygon fill="#63b8ff" stroke="#63b8ff" points="1849.31,-377.92 1859.8,-379.42 1852.53,-371.71 1849.31,-377.92"/>
</g>
<!-- Node29 -->
<g id="node29" class="node">
<title>Node29</title>
<g id="a_node29"><a xlink:href="acme__challenge__frontend_8h.html" target="_top" xlink:title=" ">
<polygon fill="white" stroke="#666666" points="1948.5,-338 1808.5,-338 1808.5,-308 1948.5,-308 1948.5,-338"/>
<text text-anchor="start" x="1816.5" y="-326" font-family="Helvetica,sans-Serif" font-size="10.00">src/node/acme_challenge</text>
<text text-anchor="middle" x="1878.5" y="-315" font-family="Helvetica,sans-Serif" font-size="10.00">_frontend.h</text>
</a>
</g>
</g>
<!-- Node28&#45;&gt;Node29 -->
<g id="edge45" class="edge">
<title>Node28&#45;&gt;Node29</title>
<path fill="none" stroke="#63b8ff" d="M1878.5,-369.35C1878.5,-359.47 1878.5,-347.51 1878.5,-338.36"/>
<polygon fill="#63b8ff" stroke="#63b8ff" points="1875,-369.37 1878.5,-379.37 1882,-369.37 1875,-369.37"/>
</g>
<!-- Node31 -->
<g id="node31" class="node">
<title>Node31</title>
<g id="a_node31"><a xlink:href="user__frontend_8h.html" target="_top" xlink:title=" ">
<polygon fill="white" stroke="#666666" points="2075,-134.5 1920,-134.5 1920,-115.5 2075,-115.5 2075,-134.5"/>
<text text-anchor="middle" x="1997.5" y="-122.5" font-family="Helvetica,sans-Serif" font-size="10.00">src/node/rpc/user_frontend.h</text>
</a>
</g>
</g>
<!-- Node28&#45;&gt;Node31 -->
<g id="edge52" class="edge">
<title>Node28&#45;&gt;Node31</title>
<path fill="none" stroke="#63b8ff" d="M1910.28,-374.98C1926.7,-366.71 1945.72,-354.43 1957.5,-338 2004.87,-271.95 2000.67,-165.55 1998.3,-134.66"/>
<polygon fill="#63b8ff" stroke="#63b8ff" points="1908.51,-371.95 1900.98,-379.4 1911.51,-378.27 1908.51,-371.95"/>
</g>
<!-- Node29&#45;&gt;Node9 -->
<g id="edge46" class="edge">
<title>Node29&#45;&gt;Node9</title>
<path fill="none" stroke="#63b8ff" d="M1914.65,-302.03C1925.3,-294.18 1935.65,-284.1 1941.5,-272 1947.3,-259.99 1947.38,-253.97 1941.5,-242 1899.16,-155.83 1857.76,-150.05 1770.5,-110 1721.26,-87.4 1660.46,-76.19 1615.93,-70.68"/>
<polygon fill="#63b8ff" stroke="#63b8ff" points="1912.41,-299.32 1906.12,-307.85 1916.35,-305.1 1912.41,-299.32"/>
</g>
<!-- Node30 -->
<g id="node30" class="node">
<title>Node30</title>
<g id="a_node30"><a xlink:href="ccf__acme__client_8h.html" target="_top" xlink:title=" ">
<polygon fill="white" stroke="#666666" points="1932,-266.5 1783,-266.5 1783,-247.5 1932,-247.5 1932,-266.5"/>
<text text-anchor="middle" x="1857.5" y="-254.5" font-family="Helvetica,sans-Serif" font-size="10.00">src/node/ccf_acme_client.h</text>
</a>
</g>
</g>
<!-- Node29&#45;&gt;Node30 -->
<g id="edge47" class="edge">
<title>Node29&#45;&gt;Node30</title>
<path fill="none" stroke="#63b8ff" d="M1870.72,-298.28C1867.12,-287.31 1863.06,-274.94 1860.4,-266.84"/>
<polygon fill="#63b8ff" stroke="#63b8ff" points="1867.4,-299.39 1873.84,-307.8 1874.05,-297.2 1867.4,-299.39"/>
</g>
<!-- Node30&#45;&gt;Node13 -->
<g id="edge48" class="edge">
<title>Node30&#45;&gt;Node13</title>
<path fill="none" stroke="#63b8ff" d="M1828.89,-243.19C1800.7,-230.58 1758.42,-211.66 1733.94,-200.7"/>
<polygon fill="#63b8ff" stroke="#63b8ff" points="1827.66,-246.48 1838.21,-247.37 1830.52,-240.09 1827.66,-246.48"/>
</g>
<!-- Node31&#45;&gt;Node9 -->
<g id="edge53" class="edge">
<title>Node31&#45;&gt;Node9</title>
<path fill="none" stroke="#63b8ff" d="M1933.1,-113.99C1923.84,-112.61 1914.43,-111.25 1905.5,-110 1804.06,-95.85 1685.84,-81.26 1615.75,-72.8"/>
<polygon fill="#63b8ff" stroke="#63b8ff" points="1932.64,-117.46 1943.05,-115.48 1933.68,-110.54 1932.64,-117.46"/>
</g>
<!-- Node32&#45;&gt;Node9 -->
<g id="edge55" class="edge">
<title>Node32&#45;&gt;Node9</title>
<path fill="none" stroke="#63b8ff" d="M1471.31,-173.39C1492,-146.55 1532.05,-94.61 1547.86,-74.12"/>
<polygon fill="#63b8ff" stroke="#63b8ff" points="1468.43,-171.39 1465.1,-181.44 1473.98,-175.66 1468.43,-171.39"/>
</g>
<!-- Node33&#45;&gt;Node4 -->
<g id="edge58" class="edge">
<title>Node33&#45;&gt;Node4</title>
<path fill="none" stroke="#63b8ff" d="M392.35,-436.46C364.91,-426.25 330.79,-413.55 305.16,-404.01"/>
<polygon fill="#63b8ff" stroke="#63b8ff" points="391.16,-439.75 401.75,-439.95 393.6,-433.19 391.16,-439.75"/>
</g>
<!-- Node33&#45;&gt;Node9 -->
<g id="edge59" class="edge">
<title>Node33&#45;&gt;Node9</title>
<path fill="none" stroke="#63b8ff" d="M412.91,-433.28C403.96,-425.05 394.68,-414.94 388.5,-404 370.52,-372.18 369.5,-360.54 369.5,-324 369.5,-324 369.5,-324 369.5,-190 369.5,-106.9 457.84,-129.99 538.5,-110 720.91,-64.79 1302.48,-64 1493.25,-65.01"/>
<polygon fill="#63b8ff" stroke="#63b8ff" points="410.77,-436.06 420.61,-439.99 415.38,-430.78 410.77,-436.06"/>
</g>
<!-- Node34 -->
<g id="node34" class="node">
<title>Node34</title>
<g id="a_node34"><a xlink:href="historical__queries__adapter_8cpp.html" target="_top" xlink:title=" ">
<polygon fill="white" stroke="#666666" points="517.5,-404 397.5,-404 397.5,-374 517.5,-374 517.5,-404"/>
<text text-anchor="start" x="405.5" y="-392" font-family="Helvetica,sans-Serif" font-size="10.00">src/node/historical</text>
<text text-anchor="middle" x="457.5" y="-381" font-family="Helvetica,sans-Serif" font-size="10.00">_queries_adapter.cpp</text>
</a>
</g>
</g>
<!-- Node33&#45;&gt;Node34 -->
<g id="edge60" class="edge">
<title>Node33&#45;&gt;Node34</title>
<path fill="none" stroke="#63b8ff" d="M446.22,-430.11C448.68,-421.38 451.37,-411.78 453.52,-404.16"/>
<polygon fill="#63b8ff" stroke="#63b8ff" points="442.83,-429.22 443.49,-439.8 449.57,-431.12 442.83,-429.22"/>
</g>
<!-- Node35&#45;&gt;Node9 -->
<g id="edge63" class="edge">
<title>Node35&#45;&gt;Node9</title>
<path fill="none" stroke="#63b8ff" d="M1833.6,-443.48C1927.33,-424.57 2103.5,-381.4 2103.5,-324 2103.5,-324 2103.5,-324 2103.5,-190 2103.5,-153.46 2112.2,-133.84 2084.5,-110 2049.64,-79.99 1747.98,-69.74 1615.95,-66.67"/>
<polygon fill="#63b8ff" stroke="#63b8ff" points="1832.82,-440.07 1823.7,-445.45 1834.19,-446.93 1832.82,-440.07"/>
</g>
</g>
</svg>
        <g id="navigator" transform="translate(0 0)" fill="#404254">
                <rect fill="#f2f5e9" fill-opacity="0.5" stroke="#606060" stroke-width=".5" x="0" y="0" width="60" height="60"/>
                <use id="zoomplus" xlink:href="#zoomPlus" x="17" y="9" onmousedown="handleZoom(evt,'in')"/>
                <use id="zoomminus" xlink:href="#zoomMin" x="42" y="9" onmousedown="handleZoom(evt,'out')"/>
                <use id="reset" xlink:href="#resetDef" x="30" y="36" onmousedown="handleReset()"/>
                <g id="arrowUp" xlink:href="#dirArrow" transform="translate(30 24)" onmousedown="handlePan(0,-1)">
                  <use xlink:href="#rim" fill="#404040">
                        <set attributeName="fill" to="#808080" begin="arrowUp.mouseover" end="arrowUp.mouseout"/>
                  </use>
                  <path fill="none" stroke="white" stroke-width="1.5" d="M0,-3.0v7 M-2.5,-0.5L0,-3.0L2.5,-0.5"/>
                </g>
                <g id="arrowRight" xlink:href="#dirArrow" transform="rotate(90) translate(36 -43)" onmousedown="handlePan(1,0)">
                  <use xlink:href="#rim" fill="#404040">
                        <set attributeName="fill" to="#808080" begin="arrowRight.mouseover" end="arrowRight.mouseout"/>
                  </use>
                  <path fill="none" stroke="white" stroke-width="1.5" d="M0,-3.0v7 M-2.5,-0.5L0,-3.0L2.5,-0.5"/>
                </g>
                <g id="arrowDown" xlink:href="#dirArrow" transform="rotate(180) translate(-30 -48)" onmousedown="handlePan(0,1)">
                  <use xlink:href="#rim" fill="#404040">
                        <set attributeName="fill" to="#808080" begin="arrowDown.mouseover" end="arrowDown.mouseout"/>
                  </use>
                  <path fill="none" stroke="white" stroke-width="1.5" d="M0,-3.0v7 M-2.5,-0.5L0,-3.0L2.5,-0.5"/>
                </g>
                <g id="arrowLeft" xlink:href="#dirArrow" transform="rotate(270) translate(-36 17)" onmousedown="handlePan(-1,0)">
                  <use xlink:href="#rim" fill="#404040">
                        <set attributeName="fill" to="#808080" begin="arrowLeft.mouseover" end="arrowLeft.mouseout"/>
                  </use>
                  <path fill="none" stroke="white" stroke-width="1.5" d="M0,-3.0v7 M-2.5,-0.5L0,-3.0L2.5,-0.5"/>
                </g>
        </g>
        <svg viewBox="0 0 15 15" width="100%" height="30px" preserveAspectRatio="xMaxYMin meet">
         <g id="arrow_out" transform="scale(0.3 0.3)">
          <a xlink:href="quote_8h__dep__incl_org.svg" target="_base">
           <rect id="button" ry="5" rx="5" y="6" x="6" height="38" width="38"
                fill="#f2f5e9" fill-opacity="0.5" stroke="#606060" stroke-width="1.0"/>
           <path id="arrow"
             d="M 11.500037,31.436501 C 11.940474,20.09759 22.043105,11.32322 32.158766,21.979434 L 37.068811,17.246167 C 37.068811,17.246167 37.088388,32 37.088388,32 L 22.160133,31.978069 C 22.160133,31.978069 26.997745,27.140456 26.997745,27.140456 C 18.528582,18.264221 13.291696,25.230495 11.500037,31.436501 z"
             style="fill:#404040;"/>
          </a>
         </g>
        </svg>
</svg>
