<?xml version="1.0" encoding="UTF-8" standalone="no"?>
<!DOCTYPE svg PUBLIC "-//W3C//DTD SVG 1.1//EN"
 "http://www.w3.org/Graphics/SVG/1.1/DTD/svg11.dtd">
<!-- Generated by graphviz version 2.43.0 (0)
 -->
<!-- Title: src/consensus/aft/request.h Pages: 1 -->
<!--zoomable 698 -->
<svg id="main" version="1.1" xmlns="http://www.w3.org/2000/svg" xmlns:xlink="http://www.w3.org/1999/xlink" xml:space="preserve" onload="init(evt)">
<style type="text/css"><![CDATA[
.edge:hover path { stroke: red; }
.edge:hover polygon { stroke: red; fill: red; }
]]></style>
<script type="text/javascript"><![CDATA[
var edges = document.getElementsByTagName('g');
if (edges && edges.length) {
  for (var i=0;i<edges.length;i++) {
    if (edges[i].id.substr(0,4)=='edge') {
      edges[i].setAttribute('class','edge');
    }
  }
}
]]></script>
        <defs>
                <circle id="rim" cx="0" cy="0" r="7"/>
                <circle id="rim2" cx="0" cy="0" r="3.5"/>
                <g id="zoomPlus">
                        <use xlink:href="#rim" fill="#404040">
                                <set attributeName="fill" to="#808080" begin="zoomplus.mouseover" end="zoomplus.mouseout"/>
                        </use>
                        <path d="M-4,0h8M0,-4v8" fill="none" stroke="white" stroke-width="1.5" pointer-events="none"/>
                </g>
                <g id="zoomMin">
                        <use xlink:href="#rim" fill="#404040">
                                <set attributeName="fill" to="#808080" begin="zoomminus.mouseover" end="zoomminus.mouseout"/>
                        </use>
                        <path d="M-4,0h8" fill="none" stroke="white" stroke-width="1.5" pointer-events="none"/>
                </g>
                <g id="dirArrow">
                        <path fill="none" stroke="white" stroke-width="1.5" d="M0,-3.0v7 M-2.5,-0.5L0,-3.0L2.5,-0.5"/>
                </g>
               <g id="resetDef">
                       <use xlink:href="#rim2" fill="#404040">
                               <set attributeName="fill" to="#808080" begin="reset.mouseover" end="reset.mouseout"/>
                       </use>
               </g>
        </defs>

<script type="text/javascript">
var viewWidth = 2578;
var viewHeight = 698;
var sectionId = 'dynsection-1';
</script>
<script xlink:href="svgpan.js"/>
<svg id="graph" class="graph">
<g id="viewport">
<title>src/consensus/aft/request.h</title>
<!-- Node1 -->
<g id="node1" class="node">
<title>Node1</title>
<g id="a_node1"><a xlink:title=" ">
<polygon fill="#999999" stroke="#666666" points="938.5,-690 789.5,-690 789.5,-671 938.5,-671 938.5,-690"/>
<text text-anchor="middle" x="864" y="-678" font-family="Helvetica,sans-Serif" font-size="10.00">src/consensus/aft/request.h</text>
</a>
</g>
</g>
<!-- Node2 -->
<g id="node2" class="node">
<title>Node2</title>
<g id="a_node2"><a xlink:href="deserialise_8h.html" target="_top" xlink:title=" ">
<polygon fill="white" stroke="#666666" points="877.5,-635 766.5,-635 766.5,-616 877.5,-616 877.5,-635"/>
<text text-anchor="middle" x="822" y="-623" font-family="Helvetica,sans-Serif" font-size="10.00">src/kv/deserialise.h</text>
</a>
</g>
</g>
<!-- Node1&#45;&gt;Node2 -->
<g id="edge1" class="edge">
<title>Node1&#45;&gt;Node2</title>
<path fill="none" stroke="#63b8ff" d="M850.67,-662.67C843.39,-653.5 834.7,-642.52 828.81,-635.09"/>
<polygon fill="#63b8ff" stroke="#63b8ff" points="848.11,-665.08 857.06,-670.75 853.6,-660.74 848.11,-665.08"/>
</g>
<!-- Node3 -->
<g id="node3" class="node">
<title>Node3</title>
<g id="a_node3"><a xlink:href="store_8h.html" target="_top" xlink:title=" ">
<polygon fill="white" stroke="#666666" points="779.5,-580 696.5,-580 696.5,-561 779.5,-561 779.5,-580"/>
<text text-anchor="middle" x="738" y="-568" font-family="Helvetica,sans-Serif" font-size="10.00">src/kv/store.h</text>
</a>
</g>
</g>
<!-- Node1&#45;&gt;Node3 -->
<g id="edge76" class="edge">
<title>Node1&#45;&gt;Node3</title>
<path fill="none" stroke="#63b8ff" d="M811.59,-667.9C792.11,-661.21 771.29,-650.85 757,-635 742.82,-619.27 739.21,-593.35 738.3,-580.01"/>
<polygon fill="#63b8ff" stroke="#63b8ff" points="810.73,-671.3 821.32,-670.99 812.85,-664.62 810.73,-671.3"/>
</g>
<!-- Node18 -->
<g id="node18" class="node">
<title>Node18</title>
<g id="a_node18"><a xlink:href="frontend_8h.html" target="_top" xlink:title=" ">
<polygon fill="white" stroke="#666666" points="1439.5,-387.5 1310.5,-387.5 1310.5,-368.5 1439.5,-368.5 1439.5,-387.5"/>
<text text-anchor="middle" x="1375" y="-375.5" font-family="Helvetica,sans-Serif" font-size="10.00">src/node/rpc/frontend.h</text>
</a>
</g>
</g>
<!-- Node1&#45;&gt;Node18 -->
<g id="edge77" class="edge">
<title>Node1&#45;&gt;Node18</title>
<path fill="none" stroke="#63b8ff" d="M948.8,-678.65C1092.88,-674.89 1370,-656.59 1370,-571.5 1370,-571.5 1370,-571.5 1370,-509 1370,-463.15 1373.14,-408.27 1374.45,-387.51"/>
<polygon fill="#63b8ff" stroke="#63b8ff" points="948.57,-675.15 938.66,-678.9 948.74,-682.15 948.57,-675.15"/>
</g>
<!-- Node25 -->
<g id="node25" class="node">
<title>Node25</title>
<g id="a_node25"><a xlink:href="network__tables_8h.html" target="_top" xlink:title=" ">
<polygon fill="white" stroke="#666666" points="962,-525 850,-525 850,-495 962,-495 962,-525"/>
<text text-anchor="start" x="858" y="-513" font-family="Helvetica,sans-Serif" font-size="10.00">src/service/network</text>
<text text-anchor="middle" x="906" y="-502" font-family="Helvetica,sans-Serif" font-size="10.00">_tables.h</text>
</a>
</g>
</g>
<!-- Node1&#45;&gt;Node25 -->
<g id="edge78" class="edge">
<title>Node1&#45;&gt;Node25</title>
<path fill="none" stroke="#63b8ff" d="M874.06,-662.2C878.34,-654.16 883.01,-644.34 886,-635 898.35,-596.37 903.31,-548.41 905.1,-525.08"/>
<polygon fill="#63b8ff" stroke="#63b8ff" points="870.99,-660.52 869.19,-670.96 877.11,-663.92 870.99,-660.52"/>
</g>
<!-- Node2&#45;&gt;Node3 -->
<g id="edge2" class="edge">
<title>Node2&#45;&gt;Node3</title>
<path fill="none" stroke="#63b8ff" d="M799.69,-610.42C784.45,-600.81 764.73,-588.37 751.74,-580.17"/>
<polygon fill="#63b8ff" stroke="#63b8ff" points="798.18,-613.61 808.5,-615.98 801.91,-607.69 798.18,-613.61"/>
</g>
<!-- Node4 -->
<g id="node4" class="node">
<title>Node4</title>
<g id="a_node4"><a xlink:href="indexer_8h.html" target="_top" xlink:title=" ">
<polygon fill="white" stroke="#666666" points="273.5,-453.5 150.5,-453.5 150.5,-434.5 273.5,-434.5 273.5,-453.5"/>
<text text-anchor="middle" x="212" y="-441.5" font-family="Helvetica,sans-Serif" font-size="10.00">src/indexing/indexer.h</text>
</a>
</g>
</g>
<!-- Node3&#45;&gt;Node4 -->
<g id="edge3" class="edge">
<title>Node3&#45;&gt;Node4</title>
<path fill="none" stroke="#63b8ff" d="M686.3,-568.62C614.71,-566.18 482,-557.25 374,-525 315.69,-507.59 252.72,-470.62 225.64,-453.74"/>
<polygon fill="#63b8ff" stroke="#63b8ff" points="686.31,-572.12 696.41,-568.93 686.53,-565.12 686.31,-572.12"/>
</g>
<!-- Node9 -->
<g id="node9" class="node">
<title>Node9</title>
<g id="a_node9"><a xlink:href="visit__each__entry__in__map_8cpp.html" target="_top" xlink:title=" ">
<polygon fill="white" stroke="#666666" points="831.5,-525 670.5,-525 670.5,-495 831.5,-495 831.5,-525"/>
<text text-anchor="start" x="678.5" y="-513" font-family="Helvetica,sans-Serif" font-size="10.00">src/indexing/strategies</text>
<text text-anchor="middle" x="751" y="-502" font-family="Helvetica,sans-Serif" font-size="10.00">/visit_each_entry_in_map.cpp</text>
</a>
</g>
</g>
<!-- Node3&#45;&gt;Node9 -->
<g id="edge9" class="edge">
<title>Node3&#45;&gt;Node9</title>
<path fill="none" stroke="#63b8ff" d="M742.13,-550.93C743.98,-542.58 746.14,-532.87 747.86,-525.11"/>
<polygon fill="#63b8ff" stroke="#63b8ff" points="738.67,-550.35 739.92,-560.87 745.5,-551.87 738.67,-550.35"/>
</g>
<!-- Node10 -->
<g id="node10" class="node">
<title>Node10</title>
<g id="a_node10"><a xlink:href="historical__queries_8h.html" target="_top" xlink:title=" ">
<polygon fill="white" stroke="#666666" points="106,-393 0,-393 0,-363 106,-363 106,-393"/>
<text text-anchor="start" x="8" y="-381" font-family="Helvetica,sans-Serif" font-size="10.00">src/node/historical</text>
<text text-anchor="middle" x="53" y="-370" font-family="Helvetica,sans-Serif" font-size="10.00">_queries.h</text>
</a>
</g>
</g>
<!-- Node3&#45;&gt;Node10 -->
<g id="edge10" class="edge">
<title>Node3&#45;&gt;Node10</title>
<path fill="none" stroke="#63b8ff" d="M686.01,-567.87C602.97,-564.46 435.63,-554.28 297,-525 204.59,-505.48 167.14,-519.96 95,-459 74.27,-441.48 62.38,-411.11 56.85,-393.25"/>
<polygon fill="#63b8ff" stroke="#63b8ff" points="686.07,-571.38 696.2,-568.27 686.34,-564.38 686.07,-571.38"/>
</g>
<!-- Node12 -->
<g id="node12" class="node">
<title>Node12</title>
<g id="a_node12"><a xlink:href="history_8h.html" target="_top" xlink:title=" ">
<polygon fill="white" stroke="#666666" points="485,-519.5 383,-519.5 383,-500.5 485,-500.5 485,-519.5"/>
<text text-anchor="middle" x="434" y="-507.5" font-family="Helvetica,sans-Serif" font-size="10.00">src/node/history.h</text>
</a>
</g>
</g>
<!-- Node3&#45;&gt;Node12 -->
<g id="edge14" class="edge">
<title>Node3&#45;&gt;Node12</title>
<path fill="none" stroke="#63b8ff" d="M686.24,-559.54C627.76,-548.29 533.56,-530.16 478.33,-519.53"/>
<polygon fill="#63b8ff" stroke="#63b8ff" points="685.89,-563.04 696.37,-561.49 687.21,-556.16 685.89,-563.04"/>
</g>
<!-- Node14 -->
<g id="node14" class="node">
<title>Node14</title>
<g id="a_node14"><a xlink:href="snapshotter_8h.html" target="_top" xlink:title=" ">
<polygon fill="white" stroke="#666666" points="651.5,-321.5 524.5,-321.5 524.5,-302.5 651.5,-302.5 651.5,-321.5"/>
<text text-anchor="middle" x="588" y="-309.5" font-family="Helvetica,sans-Serif" font-size="10.00">src/node/snapshotter.h</text>
</a>
</g>
</g>
<!-- Node3&#45;&gt;Node14 -->
<g id="edge39" class="edge">
<title>Node3&#45;&gt;Node14</title>
<path fill="none" stroke="#63b8ff" d="M702.9,-556.66C687.92,-549.51 671.49,-539.14 661,-525 616.92,-465.62 653.19,-430.51 623,-363 615.91,-347.14 603.54,-331.08 595.56,-321.59"/>
<polygon fill="#63b8ff" stroke="#63b8ff" points="701.91,-560.05 712.47,-560.91 704.75,-553.65 701.91,-560.05"/>
</g>
<!-- Node3&#45;&gt;Node18 -->
<g id="edge25" class="edge">
<title>Node3&#45;&gt;Node18</title>
<path fill="none" stroke="#63b8ff" d="M789.89,-568.48C891.39,-564.52 1120.95,-545.84 1289,-459 1324.14,-440.84 1355.41,-404.26 1368.49,-387.61"/>
<polygon fill="#63b8ff" stroke="#63b8ff" points="789.47,-564.99 779.6,-568.85 789.72,-571.99 789.47,-564.99"/>
</g>
<!-- Node3&#45;&gt;Node25 -->
<g id="edge40" class="edge">
<title>Node3&#45;&gt;Node25</title>
<path fill="none" stroke="#63b8ff" d="M772.22,-557.58C799.27,-548.16 837.08,-535 865.61,-525.06"/>
<polygon fill="#63b8ff" stroke="#63b8ff" points="770.72,-554.4 762.43,-560.99 773.02,-561.01 770.72,-554.4"/>
</g>
<!-- Node5 -->
<g id="node5" class="node">
<title>Node5</title>
<g id="a_node5"><a xlink:href="node__state_8h.html" target="_top" xlink:title=" ">
<polygon fill="white" stroke="#666666" points="984,-189.5 860,-189.5 860,-170.5 984,-170.5 984,-189.5"/>
<text text-anchor="middle" x="922" y="-177.5" font-family="Helvetica,sans-Serif" font-size="10.00">src/node/node_state.h</text>
</a>
</g>
</g>
<!-- Node4&#45;&gt;Node5 -->
<g id="edge4" class="edge">
<title>Node4&#45;&gt;Node5</title>
<path fill="none" stroke="#63b8ff" d="M187.04,-429.11C174.32,-420.53 160.06,-408.24 153,-393 147.39,-380.9 145.96,-374.33 153,-363 222.85,-250.55 292.75,-267.48 420,-231 573.65,-186.95 763.35,-180.29 859.62,-180.1"/>
<polygon fill="#63b8ff" stroke="#63b8ff" points="185.18,-432.07 195.5,-434.45 188.91,-426.15 185.18,-432.07"/>
</g>
<!-- Node6 -->
<g id="node6" class="node">
<title>Node6</title>
<g id="a_node6"><a xlink:href="src_2enclave_2enclave_8h.html" target="_top" xlink:title=" ">
<polygon fill="white" stroke="#666666" points="1557,-74 1435,-74 1435,-55 1557,-55 1557,-74"/>
<text text-anchor="middle" x="1496" y="-62" font-family="Helvetica,sans-Serif" font-size="10.00">src/enclave/enclave.h</text>
</a>
</g>
</g>
<!-- Node5&#45;&gt;Node6 -->
<g id="edge5" class="edge">
<title>Node5&#45;&gt;Node6</title>
<path fill="none" stroke="#63b8ff" d="M962.79,-167.7C1017.07,-152.96 1116.19,-127.03 1202,-110 1282,-94.12 1375.24,-80.89 1434.91,-73.09"/>
<polygon fill="#63b8ff" stroke="#63b8ff" points="961.59,-164.4 952.87,-170.41 963.44,-171.16 961.59,-164.4"/>
</g>
<!-- Node8 -->
<g id="node8" class="node">
<title>Node8</title>
<g id="a_node8"><a xlink:href="gov__effects_8h.html" target="_top" xlink:title=" ">
<polygon fill="white" stroke="#666666" points="1355,-129 1211,-129 1211,-110 1355,-110 1355,-129"/>
<text text-anchor="middle" x="1283" y="-117" font-family="Helvetica,sans-Serif" font-size="10.00">src/node/rpc/gov_effects.h</text>
</a>
</g>
</g>
<!-- Node5&#45;&gt;Node8 -->
<g id="edge7" class="edge">
<title>Node5&#45;&gt;Node8</title>
<path fill="none" stroke="#63b8ff" d="M984.44,-168.88C1053.98,-157.61 1165.18,-139.59 1230.44,-129.02"/>
<polygon fill="#63b8ff" stroke="#63b8ff" points="983.8,-165.44 974.49,-170.49 984.92,-172.35 983.8,-165.44"/>
</g>
<!-- Node7 -->
<g id="node7" class="node">
<title>Node7</title>
<g id="a_node7"><a xlink:href="enclave_2main_8cpp.html" target="_top" xlink:title=" ">
<polygon fill="white" stroke="#666666" points="1556,-19 1436,-19 1436,0 1556,0 1556,-19"/>
<text text-anchor="middle" x="1496" y="-7" font-family="Helvetica,sans-Serif" font-size="10.00">src/enclave/main.cpp</text>
</a>
</g>
</g>
<!-- Node6&#45;&gt;Node7 -->
<g id="edge6" class="edge">
<title>Node6&#45;&gt;Node7</title>
<path fill="none" stroke="#63b8ff" d="M1496,-44.66C1496,-35.93 1496,-25.99 1496,-19.09"/>
<polygon fill="#63b8ff" stroke="#63b8ff" points="1492.5,-44.75 1496,-54.75 1499.5,-44.75 1492.5,-44.75"/>
</g>
<!-- Node8&#45;&gt;Node6 -->
<g id="edge8" class="edge">
<title>Node8&#45;&gt;Node6</title>
<path fill="none" stroke="#63b8ff" d="M1326.95,-107.56C1366.84,-97.64 1424.87,-83.2 1461.51,-74.08"/>
<polygon fill="#63b8ff" stroke="#63b8ff" points="1326.08,-104.17 1317.22,-109.98 1327.77,-110.97 1326.08,-104.17"/>
</g>
<!-- Node10&#45;&gt;Node6 -->
<g id="edge11" class="edge">
<title>Node10&#45;&gt;Node6</title>
<path fill="none" stroke="#63b8ff" d="M53.59,-352.86C54.18,-326.76 55,-283.93 55,-247 55,-247 55,-247 55,-179 55,-108.7 1159.5,-74.5 1434.54,-67.07"/>
<polygon fill="#63b8ff" stroke="#63b8ff" points="50.09,-352.88 53.36,-362.96 57.09,-353.04 50.09,-352.88"/>
</g>
<!-- Node11 -->
<g id="node11" class="node">
<title>Node11</title>
<g id="a_node11"><a xlink:href="historical__transaction__fetcher_8h.html" target="_top" xlink:title=" ">
<polygon fill="white" stroke="#666666" points="526.5,-195 401.5,-195 401.5,-165 526.5,-165 526.5,-195"/>
<text text-anchor="start" x="409.5" y="-183" font-family="Helvetica,sans-Serif" font-size="10.00">src/indexing/historical</text>
<text text-anchor="middle" x="464" y="-172" font-family="Helvetica,sans-Serif" font-size="10.00">_transaction_fetcher.h</text>
</a>
</g>
</g>
<!-- Node10&#45;&gt;Node11 -->
<g id="edge12" class="edge">
<title>Node10&#45;&gt;Node11</title>
<path fill="none" stroke="#63b8ff" d="M60.72,-353.44C73.4,-316.24 99.28,-246.5 120,-231 163.3,-198.59 314.62,-187.05 401.46,-183.05"/>
<polygon fill="#63b8ff" stroke="#63b8ff" points="57.38,-352.4 57.51,-363 64.01,-354.63 57.38,-352.4"/>
</g>
<!-- Node11&#45;&gt;Node6 -->
<g id="edge13" class="edge">
<title>Node11&#45;&gt;Node6</title>
<path fill="none" stroke="#63b8ff" d="M536.68,-171.01C730.13,-149.73 1255.07,-92 1434.73,-72.24"/>
<polygon fill="#63b8ff" stroke="#63b8ff" points="536.17,-167.54 526.62,-172.11 536.94,-174.5 536.17,-167.54"/>
</g>
<!-- Node12&#45;&gt;Node5 -->
<g id="edge16" class="edge">
<title>Node12&#45;&gt;Node5</title>
<path fill="none" stroke="#63b8ff" d="M434,-490.16C434,-464.87 434,-418.55 434,-379 434,-379 434,-379 434,-311 434,-223.87 728.14,-193.67 859.7,-184.52"/>
<polygon fill="#63b8ff" stroke="#63b8ff" points="430.5,-490.48 434,-500.48 437.5,-490.48 430.5,-490.48"/>
</g>
<!-- Node12&#45;&gt;Node10 -->
<g id="edge15" class="edge">
<title>Node12&#45;&gt;Node10</title>
<path fill="none" stroke="#63b8ff" d="M372.6,-508.44C311.11,-505.66 215.22,-495.17 141,-459 108.52,-443.17 79.32,-411.6 64.1,-393.21"/>
<polygon fill="#63b8ff" stroke="#63b8ff" points="372.78,-511.95 382.91,-508.85 373.06,-504.95 372.78,-511.95"/>
</g>
<!-- Node13 -->
<g id="node13" class="node">
<title>Node13</title>
<g id="a_node13"><a xlink:href="snapshot__serdes_8h.html" target="_top" xlink:title=" ">
<polygon fill="white" stroke="#666666" points="614,-387.5 462,-387.5 462,-368.5 614,-368.5 614,-387.5"/>
<text text-anchor="middle" x="538" y="-375.5" font-family="Helvetica,sans-Serif" font-size="10.00">src/node/snapshot_serdes.h</text>
</a>
</g>
</g>
<!-- Node12&#45;&gt;Node13 -->
<g id="edge17" class="edge">
<title>Node12&#45;&gt;Node13</title>
<path fill="none" stroke="#63b8ff" d="M447.23,-492.46C469.54,-464.58 513.88,-409.15 531.01,-387.73"/>
<polygon fill="#63b8ff" stroke="#63b8ff" points="444.34,-490.48 440.82,-500.47 449.8,-494.85 444.34,-490.48"/>
</g>
<!-- Node15 -->
<g id="node15" class="node">
<title>Node15</title>
<g id="a_node15"><a xlink:href="tx__receipt__impl_8h.html" target="_top" xlink:title=" ">
<polygon fill="white" stroke="#666666" points="406,-459 296,-459 296,-429 406,-429 406,-459"/>
<text text-anchor="start" x="304" y="-447" font-family="Helvetica,sans-Serif" font-size="10.00">src/node/tx_receipt</text>
<text text-anchor="middle" x="351" y="-436" font-family="Helvetica,sans-Serif" font-size="10.00">_impl.h</text>
</a>
</g>
</g>
<!-- Node12&#45;&gt;Node15 -->
<g id="edge20" class="edge">
<title>Node12&#45;&gt;Node15</title>
<path fill="none" stroke="#63b8ff" d="M414.57,-494.02C400.9,-483.48 382.72,-469.46 369.31,-459.12"/>
<polygon fill="#63b8ff" stroke="#63b8ff" points="412.75,-497.03 422.81,-500.37 417.02,-491.49 412.75,-497.03"/>
</g>
<!-- Node13&#45;&gt;Node14 -->
<g id="edge18" class="edge">
<title>Node13&#45;&gt;Node14</title>
<path fill="none" stroke="#63b8ff" d="M551.07,-360.27C560.66,-347.99 573.31,-331.8 581.04,-321.91"/>
<polygon fill="#63b8ff" stroke="#63b8ff" points="548.14,-358.33 544.74,-368.37 553.66,-362.64 548.14,-358.33"/>
</g>
<!-- Node14&#45;&gt;Node5 -->
<g id="edge19" class="edge">
<title>Node14&#45;&gt;Node5</title>
<path fill="none" stroke="#63b8ff" d="M599.65,-293.95C613.3,-275.39 637.68,-246.31 666,-231 726.65,-198.22 805.71,-186.75 859.83,-182.83"/>
<polygon fill="#63b8ff" stroke="#63b8ff" points="596.62,-292.17 593.68,-302.34 602.33,-296.22 596.62,-292.17"/>
</g>
<!-- Node15&#45;&gt;Node10 -->
<g id="edge21" class="edge">
<title>Node15&#45;&gt;Node10</title>
<path fill="none" stroke="#63b8ff" d="M286.2,-429.08C232.31,-417.51 156.56,-401.24 106.18,-390.42"/>
<polygon fill="#63b8ff" stroke="#63b8ff" points="285.48,-432.51 295.99,-431.19 286.95,-425.67 285.48,-432.51"/>
</g>
<!-- Node15&#45;&gt;Node13 -->
<g id="edge24" class="edge">
<title>Node15&#45;&gt;Node13</title>
<path fill="none" stroke="#63b8ff" d="M401.91,-425.58C438,-413.23 484.86,-397.19 513.11,-387.52"/>
<polygon fill="#63b8ff" stroke="#63b8ff" points="400.37,-422.41 392.04,-428.95 402.63,-429.03 400.37,-422.41"/>
</g>
<!-- Node16 -->
<g id="node16" class="node">
<title>Node16</title>
<g id="a_node16"><a xlink:href="historical__queries__adapter_8cpp.html" target="_top" xlink:title=" ">
<polygon fill="white" stroke="#666666" points="282,-393 162,-393 162,-363 282,-363 282,-393"/>
<text text-anchor="start" x="170" y="-381" font-family="Helvetica,sans-Serif" font-size="10.00">src/node/historical</text>
<text text-anchor="middle" x="222" y="-370" font-family="Helvetica,sans-Serif" font-size="10.00">_queries_adapter.cpp</text>
</a>
</g>
</g>
<!-- Node15&#45;&gt;Node16 -->
<g id="edge22" class="edge">
<title>Node15&#45;&gt;Node16</title>
<path fill="none" stroke="#63b8ff" d="M313.46,-424.38C293.28,-414.36 268.8,-402.22 250.24,-393.01"/>
<polygon fill="#63b8ff" stroke="#63b8ff" points="312.18,-427.65 322.69,-428.95 315.29,-421.38 312.18,-427.65"/>
</g>
<!-- Node17 -->
<g id="node17" class="node">
<title>Node17</title>
<g id="a_node17"><a xlink:href="historical__queries__utils_8cpp.html" target="_top" xlink:title=" ">
<polygon fill="white" stroke="#666666" points="406,-393 300,-393 300,-363 406,-363 406,-393"/>
<text text-anchor="start" x="308" y="-381" font-family="Helvetica,sans-Serif" font-size="10.00">src/node/historical</text>
<text text-anchor="middle" x="353" y="-370" font-family="Helvetica,sans-Serif" font-size="10.00">_queries_utils.cpp</text>
</a>
</g>
</g>
<!-- Node15&#45;&gt;Node17 -->
<g id="edge23" class="edge">
<title>Node15&#45;&gt;Node17</title>
<path fill="none" stroke="#63b8ff" d="M351.76,-418.54C352.03,-409.96 352.32,-400.61 352.56,-393.16"/>
<polygon fill="#63b8ff" stroke="#63b8ff" points="348.26,-418.69 351.44,-428.8 355.25,-418.91 348.26,-418.69"/>
</g>
<!-- Node18&#45;&gt;Node5 -->
<g id="edge30" class="edge">
<title>Node18&#45;&gt;Node5</title>
<path fill="none" stroke="#63b8ff" d="M1403.29,-363.88C1432.27,-348.64 1470.53,-322.33 1451,-297 1394.45,-223.66 1111.67,-194.5 984.33,-184.96"/>
<polygon fill="#63b8ff" stroke="#63b8ff" points="1401.64,-360.8 1394.29,-368.43 1404.79,-367.05 1401.64,-360.8"/>
</g>
<!-- Node19 -->
<g id="node19" class="node">
<title>Node19</title>
<g id="a_node19"><a xlink:href="acme__challenge__frontend_8h.html" target="_top" xlink:title=" ">
<polygon fill="white" stroke="#666666" points="1442,-327 1302,-327 1302,-297 1442,-297 1442,-327"/>
<text text-anchor="start" x="1310" y="-315" font-family="Helvetica,sans-Serif" font-size="10.00">src/node/acme_challenge</text>
<text text-anchor="middle" x="1372" y="-304" font-family="Helvetica,sans-Serif" font-size="10.00">_frontend.h</text>
</a>
</g>
</g>
<!-- Node18&#45;&gt;Node19 -->
<g id="edge26" class="edge">
<title>Node18&#45;&gt;Node19</title>
<path fill="none" stroke="#63b8ff" d="M1374.13,-358.35C1373.66,-348.47 1373.1,-336.51 1372.67,-327.36"/>
<polygon fill="#63b8ff" stroke="#63b8ff" points="1370.63,-358.54 1374.6,-368.37 1377.62,-358.22 1370.63,-358.54"/>
</g>
<!-- Node21 -->
<g id="node21" class="node">
<title>Node21</title>
<g id="a_node21"><a xlink:href="member__frontend_8h.html" target="_top" xlink:title=" ">
<polygon fill="white" stroke="#666666" points="1108,-327 988,-327 988,-297 1108,-297 1108,-327"/>
<text text-anchor="start" x="996" y="-315" font-family="Helvetica,sans-Serif" font-size="10.00">src/node/rpc/member</text>
<text text-anchor="middle" x="1048" y="-304" font-family="Helvetica,sans-Serif" font-size="10.00">_frontend.h</text>
</a>
</g>
</g>
<!-- Node18&#45;&gt;Node21 -->
<g id="edge31" class="edge">
<title>Node18&#45;&gt;Node21</title>
<path fill="none" stroke="#63b8ff" d="M1320.18,-366.52C1267.93,-356.5 1187.07,-340.9 1117,-327 1114.12,-326.43 1111.18,-325.84 1108.2,-325.25"/>
<polygon fill="#63b8ff" stroke="#63b8ff" points="1319.75,-370 1330.23,-368.45 1321.07,-363.13 1319.75,-370"/>
</g>
<!-- Node22 -->
<g id="node22" class="node">
<title>Node22</title>
<g id="a_node22"><a xlink:href="node__frontend_8h.html" target="_top" xlink:title=" ">
<polygon fill="white" stroke="#666666" points="1284,-321.5 1126,-321.5 1126,-302.5 1284,-302.5 1284,-321.5"/>
<text text-anchor="middle" x="1205" y="-309.5" font-family="Helvetica,sans-Serif" font-size="10.00">src/node/rpc/node_frontend.h</text>
</a>
</g>
</g>
<!-- Node18&#45;&gt;Node22 -->
<g id="edge33" class="edge">
<title>Node18&#45;&gt;Node22</title>
<path fill="none" stroke="#63b8ff" d="M1342.7,-364.84C1309.11,-352.2 1257.4,-332.73 1227.83,-321.6"/>
<polygon fill="#63b8ff" stroke="#63b8ff" points="1341.48,-368.12 1352.07,-368.37 1343.95,-361.57 1341.48,-368.12"/>
</g>
<!-- Node24 -->
<g id="node24" class="node">
<title>Node24</title>
<g id="a_node24"><a xlink:href="user__frontend_8h.html" target="_top" xlink:title=" ">
<polygon fill="white" stroke="#666666" points="1653.5,-321.5 1498.5,-321.5 1498.5,-302.5 1653.5,-302.5 1653.5,-321.5"/>
<text text-anchor="middle" x="1576" y="-309.5" font-family="Helvetica,sans-Serif" font-size="10.00">src/node/rpc/user_frontend.h</text>
</a>
</g>
</g>
<!-- Node18&#45;&gt;Node24 -->
<g id="edge37" class="edge">
<title>Node18&#45;&gt;Node24</title>
<path fill="none" stroke="#63b8ff" d="M1411.67,-365.32C1451.32,-352.7 1513.59,-332.87 1549,-321.6"/>
<polygon fill="#63b8ff" stroke="#63b8ff" points="1410.57,-362 1402.11,-368.37 1412.7,-368.67 1410.57,-362"/>
</g>
<!-- Node19&#45;&gt;Node6 -->
<g id="edge27" class="edge">
<title>Node19&#45;&gt;Node6</title>
<path fill="none" stroke="#63b8ff" d="M1452.19,-297.88C1492.73,-289.44 1535.88,-277.04 1548,-261 1588.45,-207.45 1576.07,-170.96 1548,-110 1540.65,-94.03 1524.41,-81.65 1512.03,-74.05"/>
<polygon fill="#63b8ff" stroke="#63b8ff" points="1451.34,-294.48 1442.23,-299.89 1452.73,-301.34 1451.34,-294.48"/>
</g>
<!-- Node20 -->
<g id="node20" class="node">
<title>Node20</title>
<g id="a_node20"><a xlink:href="ccf__acme__client_8h.html" target="_top" xlink:title=" ">
<polygon fill="white" stroke="#666666" points="894.5,-255.5 745.5,-255.5 745.5,-236.5 894.5,-236.5 894.5,-255.5"/>
<text text-anchor="middle" x="820" y="-243.5" font-family="Helvetica,sans-Serif" font-size="10.00">src/node/ccf_acme_client.h</text>
</a>
</g>
</g>
<!-- Node19&#45;&gt;Node20 -->
<g id="edge28" class="edge">
<title>Node19&#45;&gt;Node20</title>
<path fill="none" stroke="#63b8ff" d="M1291.76,-296.89C1145.42,-276.49 986.05,-261.3 894.75,-253.27"/>
<polygon fill="#63b8ff" stroke="#63b8ff" points="1291.44,-300.38 1301.83,-298.3 1292.41,-293.44 1291.44,-300.38"/>
</g>
<!-- Node20&#45;&gt;Node5 -->
<g id="edge29" class="edge">
<title>Node20&#45;&gt;Node5</title>
<path fill="none" stroke="#63b8ff" d="M842.28,-231.02C862.34,-218.43 891.2,-200.32 908.14,-189.7"/>
<polygon fill="#63b8ff" stroke="#63b8ff" points="840.37,-228.09 833.76,-236.37 844.09,-234.02 840.37,-228.09"/>
</g>
<!-- Node21&#45;&gt;Node6 -->
<g id="edge32" class="edge">
<title>Node21&#45;&gt;Node6</title>
<path fill="none" stroke="#63b8ff" d="M1112.06,-294.06C1139.77,-285.69 1172.15,-274.48 1200,-261 1319.74,-203.05 1448.14,-103.71 1485.35,-74.08"/>
<polygon fill="#63b8ff" stroke="#63b8ff" points="1111.07,-290.71 1102.47,-296.9 1113.06,-297.42 1111.07,-290.71"/>
</g>
<!-- Node22&#45;&gt;Node6 -->
<g id="edge34" class="edge">
<title>Node22&#45;&gt;Node6</title>
<path fill="none" stroke="#63b8ff" d="M1264.81,-300.7C1342.43,-287.2 1468.43,-264.8 1472,-261 1522.56,-207.15 1504.89,-104.99 1498.13,-74.38"/>
<polygon fill="#63b8ff" stroke="#63b8ff" points="1263.92,-297.3 1254.67,-302.46 1265.12,-304.2 1263.92,-297.3"/>
</g>
<!-- Node23 -->
<g id="node23" class="node">
<title>Node23</title>
<g id="a_node23"><a xlink:href="jwt__key__auto__refresh_8h.html" target="_top" xlink:title=" ">
<polygon fill="white" stroke="#666666" points="1190.5,-261 1065.5,-261 1065.5,-231 1190.5,-231 1190.5,-261"/>
<text text-anchor="start" x="1073.5" y="-249" font-family="Helvetica,sans-Serif" font-size="10.00">src/node/jwt_key_auto</text>
<text text-anchor="middle" x="1128" y="-238" font-family="Helvetica,sans-Serif" font-size="10.00">_refresh.h</text>
</a>
</g>
</g>
<!-- Node22&#45;&gt;Node23 -->
<g id="edge35" class="edge">
<title>Node22&#45;&gt;Node23</title>
<path fill="none" stroke="#63b8ff" d="M1186.61,-295.71C1173.97,-285.21 1157.31,-271.36 1144.98,-261.12"/>
<polygon fill="#63b8ff" stroke="#63b8ff" points="1184.69,-298.67 1194.62,-302.37 1189.16,-293.28 1184.69,-298.67"/>
</g>
<!-- Node23&#45;&gt;Node5 -->
<g id="edge36" class="edge">
<title>Node23&#45;&gt;Node5</title>
<path fill="none" stroke="#63b8ff" d="M1073.19,-227.97C1033.27,-215.57 980.88,-199.29 949.42,-189.52"/>
<polygon fill="#63b8ff" stroke="#63b8ff" points="1072.2,-231.33 1082.79,-230.95 1074.28,-224.65 1072.2,-231.33"/>
</g>
<!-- Node24&#45;&gt;Node6 -->
<g id="edge38" class="edge">
<title>Node24&#45;&gt;Node6</title>
<path fill="none" stroke="#63b8ff" d="M1583.41,-292.46C1597.16,-254.81 1622.07,-168.08 1586,-110 1574.6,-91.64 1553.12,-80.63 1534.01,-74.15"/>
<polygon fill="#63b8ff" stroke="#63b8ff" points="1580.03,-291.5 1579.74,-302.09 1586.57,-294 1580.03,-291.5"/>
</g>
<!-- Node25&#45;&gt;Node20 -->
<g id="edge41" class="edge">
<title>Node25&#45;&gt;Node20</title>
<path fill="none" stroke="#63b8ff" d="M864.34,-490.24C828.95,-471.51 781.39,-438.9 765,-393 746.24,-340.45 793.29,-277.93 812.38,-255.52"/>
<polygon fill="#63b8ff" stroke="#63b8ff" points="863,-493.49 873.5,-494.92 866.19,-487.25 863,-493.49"/>
</g>
<!-- Node26 -->
<g id="node26" class="node">
<title>Node26</title>
<g id="a_node26"><a xlink:href="network__state_8h.html" target="_top" xlink:title=" ">
<polygon fill="white" stroke="#666666" points="1280,-453.5 1140,-453.5 1140,-434.5 1280,-434.5 1280,-453.5"/>
<text text-anchor="middle" x="1210" y="-441.5" font-family="Helvetica,sans-Serif" font-size="10.00">src/node/network_state.h</text>
</a>
</g>
</g>
<!-- Node25&#45;&gt;Node26 -->
<g id="edge42" class="edge">
<title>Node25&#45;&gt;Node26</title>
<path fill="none" stroke="#63b8ff" d="M972.25,-495.05C1032.3,-482.41 1118.87,-464.19 1169.29,-453.57"/>
<polygon fill="#63b8ff" stroke="#63b8ff" points="971.18,-491.7 962.11,-497.19 972.62,-498.55 971.18,-491.7"/>
</g>
<!-- Node37 -->
<g id="node37" class="node">
<title>Node37</title>
<g id="a_node37"><a xlink:href="genesis__gen_8h.html" target="_top" xlink:title=" ">
<polygon fill="white" stroke="#666666" points="938,-459 828,-459 828,-429 938,-429 938,-459"/>
<text text-anchor="start" x="836" y="-447" font-family="Helvetica,sans-Serif" font-size="10.00">src/service/genesis</text>
<text text-anchor="middle" x="883" y="-436" font-family="Helvetica,sans-Serif" font-size="10.00">_gen.h</text>
</a>
</g>
</g>
<!-- Node25&#45;&gt;Node37 -->
<g id="edge70" class="edge">
<title>Node25&#45;&gt;Node37</title>
<path fill="none" stroke="#63b8ff" d="M897.41,-485.11C894.28,-476.38 890.83,-466.78 888.09,-459.16"/>
<polygon fill="#63b8ff" stroke="#63b8ff" points="894.22,-486.57 900.9,-494.8 900.81,-484.2 894.22,-486.57"/>
</g>
<!-- Node26&#45;&gt;Node5 -->
<g id="edge61" class="edge">
<title>Node26&#45;&gt;Node5</title>
<path fill="none" stroke="#63b8ff" d="M1210,-424.43C1208.93,-406.05 1204.28,-378.5 1187,-363 1117.16,-300.36 1051.66,-386.36 979,-327 956.35,-308.49 931.54,-218.09 924.17,-189.61"/>
<polygon fill="#63b8ff" stroke="#63b8ff" points="1206.5,-424.59 1210.28,-434.49 1213.5,-424.4 1206.5,-424.59"/>
</g>
<!-- Node26&#45;&gt;Node6 -->
<g id="edge43" class="edge">
<title>Node26&#45;&gt;Node6</title>
<path fill="none" stroke="#63b8ff" d="M1290.43,-437.42C1425.19,-425.84 1682,-393.25 1682,-313 1682,-313 1682,-313 1682,-179 1682,-115.64 1602.37,-86.6 1547.32,-74.1"/>
<polygon fill="#63b8ff" stroke="#63b8ff" points="1289.83,-433.96 1280.15,-438.28 1290.41,-440.94 1289.83,-433.96"/>
</g>
<!-- Node26&#45;&gt;Node14 -->
<g id="edge69" class="edge">
<title>Node26&#45;&gt;Node14</title>
<path fill="none" stroke="#63b8ff" d="M1163.94,-432.04C1126.06,-422.69 1071.14,-408.35 1024,-393 988.68,-381.5 981.96,-372.3 946,-363 844.84,-336.85 723.83,-323.56 651.58,-317.47"/>
<polygon fill="#63b8ff" stroke="#63b8ff" points="1163.12,-435.45 1173.67,-434.43 1164.79,-428.65 1163.12,-435.45"/>
</g>
<!-- Node26&#45;&gt;Node19 -->
<g id="edge60" class="edge">
<title>Node26&#45;&gt;Node19</title>
<path fill="none" stroke="#63b8ff" d="M1226.87,-427.47C1245.01,-410.97 1274.91,-384.37 1302,-363 1318.06,-350.33 1336.98,-336.9 1351.1,-327.15"/>
<polygon fill="#63b8ff" stroke="#63b8ff" points="1224.43,-424.95 1219.41,-434.28 1229.16,-430.12 1224.43,-424.95"/>
</g>
<!-- Node26&#45;&gt;Node22 -->
<g id="edge62" class="edge">
<title>Node26&#45;&gt;Node22</title>
<path fill="none" stroke="#63b8ff" d="M1215.21,-424.26C1219.03,-408.03 1223.07,-383.93 1220,-363 1217.82,-348.12 1212.16,-331.51 1208.45,-321.68"/>
<polygon fill="#63b8ff" stroke="#63b8ff" points="1211.78,-423.55 1212.68,-434.1 1218.56,-425.29 1211.78,-423.55"/>
</g>
<!-- Node26&#45;&gt;Node24 -->
<g id="edge63" class="edge">
<title>Node26&#45;&gt;Node24</title>
<path fill="none" stroke="#63b8ff" d="M1290.08,-433.52C1337.51,-426.14 1398.09,-413.58 1449,-393 1495.63,-374.15 1544.13,-338.25 1565.18,-321.73"/>
<polygon fill="#63b8ff" stroke="#63b8ff" points="1289.53,-430.06 1280.16,-435.02 1290.58,-436.98 1289.53,-430.06"/>
</g>
<!-- Node27 -->
<g id="node27" class="node">
<title>Node27</title>
<g id="a_node27"><a xlink:href="wrap_8h.html" target="_top" xlink:title=" ">
<polygon fill="white" stroke="#666666" points="1986,-387.5 1908,-387.5 1908,-368.5 1986,-368.5 1986,-387.5"/>
<text text-anchor="middle" x="1947" y="-375.5" font-family="Helvetica,sans-Serif" font-size="10.00">src/js/wrap.h</text>
</a>
</g>
</g>
<!-- Node26&#45;&gt;Node27 -->
<g id="edge44" class="edge">
<title>Node26&#45;&gt;Node27</title>
<path fill="none" stroke="#63b8ff" d="M1290.43,-436.02C1447.91,-422.34 1791.68,-392.49 1907.79,-382.41"/>
<polygon fill="#63b8ff" stroke="#63b8ff" points="1289.99,-432.54 1280.33,-436.89 1290.6,-439.51 1289.99,-432.54"/>
</g>
<!-- Node35 -->
<g id="node35" class="node">
<title>Node35</title>
<g id="a_node35"><a xlink:href="secret__broadcast_8h.html" target="_top" xlink:title=" ">
<polygon fill="white" stroke="#666666" points="937.5,-387.5 784.5,-387.5 784.5,-368.5 937.5,-368.5 937.5,-387.5"/>
<text text-anchor="middle" x="861" y="-375.5" font-family="Helvetica,sans-Serif" font-size="10.00">src/node/secret_broadcast.h</text>
</a>
</g>
</g>
<!-- Node26&#45;&gt;Node35 -->
<g id="edge64" class="edge">
<title>Node26&#45;&gt;Node35</title>
<path fill="none" stroke="#63b8ff" d="M1153.12,-432.57C1084.62,-420.01 970.89,-399.15 907.43,-387.51"/>
<polygon fill="#63b8ff" stroke="#63b8ff" points="1152.83,-436.07 1163.29,-434.44 1154.09,-429.19 1152.83,-436.07"/>
</g>
<!-- Node36 -->
<g id="node36" class="node">
<title>Node36</title>
<g id="a_node36"><a xlink:href="share__manager_8h.html" target="_top" xlink:title=" ">
<polygon fill="white" stroke="#666666" points="1177.5,-387.5 1032.5,-387.5 1032.5,-368.5 1177.5,-368.5 1177.5,-387.5"/>
<text text-anchor="middle" x="1105" y="-375.5" font-family="Helvetica,sans-Serif" font-size="10.00">src/node/share_manager.h</text>
</a>
</g>
</g>
<!-- Node26&#45;&gt;Node36 -->
<g id="edge66" class="edge">
<title>Node26&#45;&gt;Node36</title>
<path fill="none" stroke="#63b8ff" d="M1187.06,-429.02C1166.41,-416.43 1136.7,-398.32 1119.27,-387.7"/>
<polygon fill="#63b8ff" stroke="#63b8ff" points="1185.48,-432.15 1195.84,-434.37 1189.12,-426.18 1185.48,-432.15"/>
</g>
<!-- Node27&#45;&gt;Node5 -->
<g id="edge57" class="edge">
<title>Node27&#45;&gt;Node5</title>
<path fill="none" stroke="#63b8ff" d="M1898.03,-367.26C1855.54,-358.32 1792.61,-343.93 1739,-327 1704.37,-316.06 1697.71,-307.69 1663,-297 1418.78,-221.78 1113.53,-193.72 984.34,-184.72"/>
<polygon fill="#63b8ff" stroke="#63b8ff" points="1897.33,-370.69 1907.84,-369.3 1898.76,-363.83 1897.33,-370.69"/>
</g>
<!-- Node27&#45;&gt;Node6 -->
<g id="edge46" class="edge">
<title>Node27&#45;&gt;Node6</title>
<path fill="none" stroke="#63b8ff" d="M1937.19,-359.42C1924.5,-334.98 1904,-289.02 1904,-247 1904,-247 1904,-247 1904,-179 1904,-107.87 1670.9,-79.42 1557.08,-69.77"/>
<polygon fill="#63b8ff" stroke="#63b8ff" points="1934.25,-361.35 1942.07,-368.5 1940.42,-358.03 1934.25,-361.35"/>
</g>
<!-- Node27&#45;&gt;Node21 -->
<g id="edge58" class="edge">
<title>Node27&#45;&gt;Node21</title>
<path fill="none" stroke="#63b8ff" d="M1897.6,-376.43C1768.64,-374.43 1411.46,-365.55 1117,-327 1114.09,-326.62 1111.12,-326.19 1108.13,-325.72"/>
<polygon fill="#63b8ff" stroke="#63b8ff" points="1897.87,-379.94 1907.92,-376.59 1897.98,-372.94 1897.87,-379.94"/>
</g>
<!-- Node27&#45;&gt;Node22 -->
<g id="edge59" class="edge">
<title>Node27&#45;&gt;Node22</title>
<path fill="none" stroke="#63b8ff" d="M1897.77,-374.61C1788.62,-369.01 1518.15,-353.47 1293,-327 1280.4,-325.52 1266.85,-323.55 1254.24,-321.56"/>
<polygon fill="#63b8ff" stroke="#63b8ff" points="1897.66,-378.11 1907.82,-375.12 1898.01,-371.12 1897.66,-378.11"/>
</g>
<!-- Node28 -->
<g id="node28" class="node">
<title>Node28</title>
<g id="a_node28"><a xlink:href="js__generic__base_8cpp.html" target="_top" xlink:title=" ">
<polygon fill="white" stroke="#666666" points="2050,-327 1932,-327 1932,-297 2050,-297 2050,-327"/>
<text text-anchor="start" x="1940" y="-315" font-family="Helvetica,sans-Serif" font-size="10.00">src/apps/js_generic</text>
<text text-anchor="middle" x="1991" y="-304" font-family="Helvetica,sans-Serif" font-size="10.00">/js_generic_base.cpp</text>
</a>
</g>
</g>
<!-- Node27&#45;&gt;Node28 -->
<g id="edge45" class="edge">
<title>Node27&#45;&gt;Node28</title>
<path fill="none" stroke="#63b8ff" d="M1958.74,-359.92C1965.73,-349.76 1974.5,-337.01 1981.13,-327.36"/>
<polygon fill="#63b8ff" stroke="#63b8ff" points="1955.72,-358.15 1952.93,-368.37 1961.48,-362.11 1955.72,-358.15"/>
</g>
<!-- Node29 -->
<g id="node29" class="node">
<title>Node29</title>
<g id="a_node29"><a xlink:href="consensus_8cpp.html" target="_top" xlink:title=" ">
<polygon fill="white" stroke="#666666" points="2350,-321.5 2234,-321.5 2234,-302.5 2350,-302.5 2350,-321.5"/>
<text text-anchor="middle" x="2292" y="-309.5" font-family="Helvetica,sans-Serif" font-size="10.00">src/js/consensus.cpp</text>
</a>
</g>
</g>
<!-- Node27&#45;&gt;Node29 -->
<g id="edge47" class="edge">
<title>Node27&#45;&gt;Node29</title>
<path fill="none" stroke="#63b8ff" d="M1996.47,-368.11C2051.19,-358.23 2141.94,-341.74 2220,-327 2229.26,-325.25 2239.18,-323.34 2248.61,-321.52"/>
<polygon fill="#63b8ff" stroke="#63b8ff" points="1995.58,-364.71 1986.36,-369.93 1996.82,-371.6 1995.58,-364.71"/>
</g>
<!-- Node30 -->
<g id="node30" class="node">
<title>Node30</title>
<g id="a_node30"><a xlink:href="wrap_8cpp.html" target="_top" xlink:title=" ">
<polygon fill="white" stroke="#666666" points="2336.5,-255.5 2247.5,-255.5 2247.5,-236.5 2336.5,-236.5 2336.5,-255.5"/>
<text text-anchor="middle" x="2292" y="-243.5" font-family="Helvetica,sans-Serif" font-size="10.00">src/js/wrap.cpp</text>
</a>
</g>
</g>
<!-- Node27&#45;&gt;Node30 -->
<g id="edge56" class="edge">
<title>Node27&#45;&gt;Node30</title>
<path fill="none" stroke="#63b8ff" d="M1996.36,-373.39C2046.41,-368.23 2125.07,-355.92 2187,-327 2206.5,-317.9 2207.93,-310.1 2225,-297 2244.11,-282.33 2266.61,-265.66 2280.07,-255.75"/>
<polygon fill="#63b8ff" stroke="#63b8ff" points="1995.75,-369.93 1986.14,-374.39 1996.43,-376.9 1995.75,-369.93"/>
</g>
<!-- Node31 -->
<g id="node31" class="node">
<title>Node31</title>
<g id="a_node31"><a xlink:href="conv_8cpp.html" target="_top" xlink:title=" ">
<polygon fill="white" stroke="#666666" points="2456,-321.5 2368,-321.5 2368,-302.5 2456,-302.5 2456,-321.5"/>
<text text-anchor="middle" x="2412" y="-309.5" font-family="Helvetica,sans-Serif" font-size="10.00">src/js/conv.cpp</text>
</a>
</g>
</g>
<!-- Node27&#45;&gt;Node31 -->
<g id="edge49" class="edge">
<title>Node27&#45;&gt;Node31</title>
<path fill="none" stroke="#63b8ff" d="M1996.16,-373.23C2073.75,-366.8 2229.14,-351.91 2359,-327 2366.76,-325.51 2375.06,-323.52 2382.73,-321.5"/>
<polygon fill="#63b8ff" stroke="#63b8ff" points="1995.87,-369.75 1986.19,-374.05 1996.44,-376.72 1995.87,-369.75"/>
</g>
<!-- Node32 -->
<g id="node32" class="node">
<title>Node32</title>
<g id="a_node32"><a xlink:href="crypto_8cpp.html" target="_top" xlink:title=" ">
<polygon fill="white" stroke="#666666" points="2570,-321.5 2474,-321.5 2474,-302.5 2570,-302.5 2570,-321.5"/>
<text text-anchor="middle" x="2522" y="-309.5" font-family="Helvetica,sans-Serif" font-size="10.00">src/js/crypto.cpp</text>
</a>
</g>
</g>
<!-- Node27&#45;&gt;Node32 -->
<g id="edge51" class="edge">
<title>Node27&#45;&gt;Node32</title>
<path fill="none" stroke="#63b8ff" d="M1996.43,-374.61C2088.94,-369.62 2294.33,-356.04 2465,-327 2473.44,-325.56 2482.48,-323.56 2490.81,-321.52"/>
<polygon fill="#63b8ff" stroke="#63b8ff" points="1996.04,-371.13 1986.24,-375.15 1996.41,-378.12 1996.04,-371.13"/>
</g>
<!-- Node33 -->
<g id="node33" class="node">
<title>Node33</title>
<g id="a_node33"><a xlink:href="historical_8cpp.html" target="_top" xlink:title=" ">
<polygon fill="white" stroke="#666666" points="2178,-321.5 2068,-321.5 2068,-302.5 2178,-302.5 2178,-321.5"/>
<text text-anchor="middle" x="2123" y="-309.5" font-family="Helvetica,sans-Serif" font-size="10.00">src/js/historical.cpp</text>
</a>
</g>
</g>
<!-- Node27&#45;&gt;Node33 -->
<g id="edge53" class="edge">
<title>Node27&#45;&gt;Node33</title>
<path fill="none" stroke="#63b8ff" d="M1980.44,-364.84C2015.21,-352.2 2068.75,-332.73 2099.36,-321.6"/>
<polygon fill="#63b8ff" stroke="#63b8ff" points="1978.94,-361.66 1970.74,-368.37 1981.33,-368.24 1978.94,-361.66"/>
</g>
<!-- Node34 -->
<g id="node34" class="node">
<title>Node34</title>
<g id="a_node34"><a xlink:href="openenclave_8cpp.html" target="_top" xlink:title=" ">
<polygon fill="white" stroke="#666666" points="1876,-321.5 1748,-321.5 1748,-302.5 1876,-302.5 1876,-321.5"/>
<text text-anchor="middle" x="1812" y="-309.5" font-family="Helvetica,sans-Serif" font-size="10.00">src/js/openenclave.cpp</text>
</a>
</g>
</g>
<!-- Node27&#45;&gt;Node34 -->
<g id="edge55" class="edge">
<title>Node27&#45;&gt;Node34</title>
<path fill="none" stroke="#63b8ff" d="M1919.64,-364.03C1893.03,-351.42 1853.37,-332.61 1830.35,-321.7"/>
<polygon fill="#63b8ff" stroke="#63b8ff" points="1918.26,-367.25 1928.79,-368.37 1921.26,-360.92 1918.26,-367.25"/>
</g>
<!-- Node29&#45;&gt;Node30 -->
<g id="edge48" class="edge">
<title>Node29&#45;&gt;Node30</title>
<path fill="none" stroke="#63b8ff" d="M2292,-292.08C2292,-280.13 2292,-265.22 2292,-255.91"/>
<polygon fill="#63b8ff" stroke="#63b8ff" points="2288.5,-292.37 2292,-302.37 2295.5,-292.37 2288.5,-292.37"/>
</g>
<!-- Node31&#45;&gt;Node30 -->
<g id="edge50" class="edge">
<title>Node31&#45;&gt;Node30</title>
<path fill="none" stroke="#63b8ff" d="M2386.74,-297.53C2363.1,-284.92 2328.5,-266.47 2308.31,-255.7"/>
<polygon fill="#63b8ff" stroke="#63b8ff" points="2385.35,-300.75 2395.82,-302.37 2388.64,-294.57 2385.35,-300.75"/>
</g>
<!-- Node32&#45;&gt;Node30 -->
<g id="edge52" class="edge">
<title>Node32&#45;&gt;Node30</title>
<path fill="none" stroke="#63b8ff" d="M2481.19,-299.64C2435.87,-287.03 2363.75,-266.97 2322.89,-255.6"/>
<polygon fill="#63b8ff" stroke="#63b8ff" points="2480.41,-303.06 2490.98,-302.37 2482.29,-296.32 2480.41,-303.06"/>
</g>
<!-- Node33&#45;&gt;Node30 -->
<g id="edge54" class="edge">
<title>Node33&#45;&gt;Node30</title>
<path fill="none" stroke="#63b8ff" d="M2155.54,-298.68C2188.94,-286.03 2240.03,-266.68 2269.3,-255.6"/>
<polygon fill="#63b8ff" stroke="#63b8ff" points="2153.9,-295.55 2145.79,-302.37 2156.38,-302.1 2153.9,-295.55"/>
</g>
<!-- Node35&#45;&gt;Node5 -->
<g id="edge65" class="edge">
<title>Node35&#45;&gt;Node5</title>
<path fill="none" stroke="#63b8ff" d="M834,-363.64C786.62,-338.42 697.06,-281.79 736,-231 751.16,-211.23 811.68,-197.54 859.63,-189.54"/>
<polygon fill="#63b8ff" stroke="#63b8ff" points="832.65,-366.88 843.14,-368.39 835.88,-360.67 832.65,-366.88"/>
</g>
<!-- Node36&#45;&gt;Node5 -->
<g id="edge67" class="edge">
<title>Node36&#45;&gt;Node5</title>
<path fill="none" stroke="#63b8ff" d="M1022.59,-368.69C994.5,-361.76 965.34,-349.29 946,-327 910.65,-286.25 917.15,-214.11 920.62,-189.5"/>
<polygon fill="#63b8ff" stroke="#63b8ff" points="1021.94,-372.13 1032.46,-370.92 1023.48,-365.3 1021.94,-372.13"/>
</g>
<!-- Node36&#45;&gt;Node21 -->
<g id="edge68" class="edge">
<title>Node36&#45;&gt;Node21</title>
<path fill="none" stroke="#63b8ff" d="M1090.62,-360.85C1081.44,-350.54 1069.64,-337.3 1060.79,-327.36"/>
<polygon fill="#63b8ff" stroke="#63b8ff" points="1088.05,-363.23 1097.31,-368.37 1093.28,-358.57 1088.05,-363.23"/>
</g>
<!-- Node37&#45;&gt;Node5 -->
<g id="edge71" class="edge">
<title>Node37&#45;&gt;Node5</title>
<path fill="none" stroke="#63b8ff" d="M818.14,-426.42C799,-418.86 779.35,-408.12 765,-393 713.79,-339.06 677.26,-289.65 723,-231 739.81,-209.44 808.01,-195.76 859.93,-188.26"/>
<polygon fill="#63b8ff" stroke="#63b8ff" points="817.18,-429.79 827.78,-429.98 819.61,-423.23 817.18,-429.79"/>
</g>
<!-- Node37&#45;&gt;Node21 -->
<g id="edge72" class="edge">
<title>Node37&#45;&gt;Node21</title>
<path fill="none" stroke="#63b8ff" d="M909,-422.52C942.76,-395.92 1000.81,-350.18 1030.05,-327.14"/>
<polygon fill="#63b8ff" stroke="#63b8ff" points="906.66,-419.9 900.97,-428.84 910.99,-425.4 906.66,-419.9"/>
</g>
<!-- Node37&#45;&gt;Node22 -->
<g id="edge73" class="edge">
<title>Node37&#45;&gt;Node22</title>
<path fill="none" stroke="#63b8ff" d="M827.78,-425.44C790.6,-410.81 752.19,-388.34 775,-363 826.13,-306.2 1041.24,-337.01 1117,-327 1129.12,-325.4 1142.13,-323.45 1154.34,-321.53"/>
<polygon fill="#63b8ff" stroke="#63b8ff" points="826.58,-428.73 837.17,-428.99 829.05,-422.18 826.58,-428.73"/>
</g>
<!-- Node37&#45;&gt;Node35 -->
<g id="edge74" class="edge">
<title>Node37&#45;&gt;Node35</title>
<path fill="none" stroke="#63b8ff" d="M874.85,-419.28C871.07,-408.31 866.82,-395.94 864.04,-387.84"/>
<polygon fill="#63b8ff" stroke="#63b8ff" points="871.56,-420.48 878.12,-428.8 878.18,-418.2 871.56,-420.48"/>
</g>
<!-- Node37&#45;&gt;Node36 -->
<g id="edge75" class="edge">
<title>Node37&#45;&gt;Node36</title>
<path fill="none" stroke="#63b8ff" d="M941.52,-426.13C984.61,-413.71 1041.41,-397.33 1075.46,-387.52"/>
<polygon fill="#63b8ff" stroke="#63b8ff" points="940.36,-422.82 931.72,-428.95 942.3,-429.55 940.36,-422.82"/>
</g>
</g>
</svg>
        <g id="navigator" transform="translate(0 0)" fill="#404254">
                <rect fill="#f2f5e9" fill-opacity="0.5" stroke="#606060" stroke-width=".5" x="0" y="0" width="60" height="60"/>
                <use id="zoomplus" xlink:href="#zoomPlus" x="17" y="9" onmousedown="handleZoom(evt,'in')"/>
                <use id="zoomminus" xlink:href="#zoomMin" x="42" y="9" onmousedown="handleZoom(evt,'out')"/>
                <use id="reset" xlink:href="#resetDef" x="30" y="36" onmousedown="handleReset()"/>
                <g id="arrowUp" xlink:href="#dirArrow" transform="translate(30 24)" onmousedown="handlePan(0,-1)">
                  <use xlink:href="#rim" fill="#404040">
                        <set attributeName="fill" to="#808080" begin="arrowUp.mouseover" end="arrowUp.mouseout"/>
                  </use>
                  <path fill="none" stroke="white" stroke-width="1.5" d="M0,-3.0v7 M-2.5,-0.5L0,-3.0L2.5,-0.5"/>
                </g>
                <g id="arrowRight" xlink:href="#dirArrow" transform="rotate(90) translate(36 -43)" onmousedown="handlePan(1,0)">
                  <use xlink:href="#rim" fill="#404040">
                        <set attributeName="fill" to="#808080" begin="arrowRight.mouseover" end="arrowRight.mouseout"/>
                  </use>
                  <path fill="none" stroke="white" stroke-width="1.5" d="M0,-3.0v7 M-2.5,-0.5L0,-3.0L2.5,-0.5"/>
                </g>
                <g id="arrowDown" xlink:href="#dirArrow" transform="rotate(180) translate(-30 -48)" onmousedown="handlePan(0,1)">
                  <use xlink:href="#rim" fill="#404040">
                        <set attributeName="fill" to="#808080" begin="arrowDown.mouseover" end="arrowDown.mouseout"/>
                  </use>
                  <path fill="none" stroke="white" stroke-width="1.5" d="M0,-3.0v7 M-2.5,-0.5L0,-3.0L2.5,-0.5"/>
                </g>
                <g id="arrowLeft" xlink:href="#dirArrow" transform="rotate(270) translate(-36 17)" onmousedown="handlePan(-1,0)">
                  <use xlink:href="#rim" fill="#404040">
                        <set attributeName="fill" to="#808080" begin="arrowLeft.mouseover" end="arrowLeft.mouseout"/>
                  </use>
                  <path fill="none" stroke="white" stroke-width="1.5" d="M0,-3.0v7 M-2.5,-0.5L0,-3.0L2.5,-0.5"/>
                </g>
        </g>
        <svg viewBox="0 0 15 15" width="100%" height="30px" preserveAspectRatio="xMaxYMin meet">
         <g id="arrow_out" transform="scale(0.3 0.3)">
          <a xlink:href="request_8h__dep__incl_org.svg" target="_base">
           <rect id="button" ry="5" rx="5" y="6" x="6" height="38" width="38"
                fill="#f2f5e9" fill-opacity="0.5" stroke="#606060" stroke-width="1.0"/>
           <path id="arrow"
             d="M 11.500037,31.436501 C 11.940474,20.09759 22.043105,11.32322 32.158766,21.979434 L 37.068811,17.246167 C 37.068811,17.246167 37.088388,32 37.088388,32 L 22.160133,31.978069 C 22.160133,31.978069 26.997745,27.140456 26.997745,27.140456 C 18.528582,18.264221 13.291696,25.230495 11.500037,31.436501 z"
             style="fill:#404040;"/>
          </a>
         </g>
        </svg>
</svg>
