<?xml version="1.0" encoding="UTF-8" standalone="no"?>
<!DOCTYPE svg PUBLIC "-//W3C//DTD SVG 1.1//EN"
 "http://www.w3.org/Graphics/SVG/1.1/DTD/svg11.dtd">
<!-- Generated by graphviz version 2.43.0 (0)
 -->
<!-- Title: include/ccf/service/tables/service.h Pages: 1 -->
<svg width="2164pt" height="577pt"
 viewBox="0.00 0.00 2163.91 577.00" xmlns="http://www.w3.org/2000/svg" xmlns:xlink="http://www.w3.org/1999/xlink">
<g id="graph0" class="graph" transform="scale(1 1) rotate(0) translate(4 573)">
<title>include/ccf/service/tables/service.h</title>
<!-- Node1 -->
<g id="node1" class="node">
<title>Node1</title>
<g id="a_node1"><a xlink:title=" ">
<polygon fill="#999999" stroke="#666666" points="662.5,-569 555.5,-569 555.5,-539 662.5,-539 662.5,-569"/>
<text text-anchor="start" x="563.5" y="-557" font-family="Helvetica,sans-Serif" font-size="10.00">include/ccf/service</text>
<text text-anchor="middle" x="609" y="-546" font-family="Helvetica,sans-Serif" font-size="10.00">/tables/service.h</text>
</a>
</g>
</g>
<!-- Node2 -->
<g id="node2" class="node">
<title>Node2</title>
<g id="a_node2"><a xlink:href="historical__queries__adapter_8cpp.html" target="_top" xlink:title=" ">
<polygon fill="white" stroke="#666666" points="359,-503 239,-503 239,-473 359,-473 359,-503"/>
<text text-anchor="start" x="247" y="-491" font-family="Helvetica,sans-Serif" font-size="10.00">src/node/historical</text>
<text text-anchor="middle" x="299" y="-480" font-family="Helvetica,sans-Serif" font-size="10.00">_queries_adapter.cpp</text>
</a>
</g>
</g>
<!-- Node1&#45;&gt;Node2 -->
<g id="edge1" class="edge">
<title>Node1&#45;&gt;Node2</title>
<path fill="none" stroke="#63b8ff" d="M545.45,-539.88C490.86,-528.61 412.71,-512.48 359.14,-501.42"/>
<polygon fill="#63b8ff" stroke="#63b8ff" points="544.85,-543.33 555.36,-541.93 546.27,-536.48 544.85,-543.33"/>
</g>
<!-- Node3 -->
<g id="node3" class="node">
<title>Node3</title>
<g id="a_node3"><a xlink:href="historical__queries__utils_8cpp.html" target="_top" xlink:title=" ">
<polygon fill="white" stroke="#666666" points="483,-503 377,-503 377,-473 483,-473 483,-503"/>
<text text-anchor="start" x="385" y="-491" font-family="Helvetica,sans-Serif" font-size="10.00">src/node/historical</text>
<text text-anchor="middle" x="430" y="-480" font-family="Helvetica,sans-Serif" font-size="10.00">_queries_utils.cpp</text>
</a>
</g>
</g>
<!-- Node1&#45;&gt;Node3 -->
<g id="edge2" class="edge">
<title>Node1&#45;&gt;Node3</title>
<path fill="none" stroke="#63b8ff" d="M559.93,-535.46C531.38,-525.25 495.87,-512.55 469.19,-503.01"/>
<polygon fill="#63b8ff" stroke="#63b8ff" points="559.12,-538.88 569.72,-538.95 561.48,-532.29 559.12,-538.88"/>
</g>
<!-- Node4 -->
<g id="node4" class="node">
<title>Node4</title>
<g id="a_node4"><a xlink:href="node__state_8h.html" target="_top" xlink:title=" ">
<polygon fill="white" stroke="#666666" points="954,-184 830,-184 830,-165 954,-165 954,-184"/>
<text text-anchor="middle" x="892" y="-172" font-family="Helvetica,sans-Serif" font-size="10.00">src/node/node_state.h</text>
</a>
</g>
</g>
<!-- Node1&#45;&gt;Node4 -->
<g id="edge3" class="edge">
<title>Node1&#45;&gt;Node4</title>
<path fill="none" stroke="#63b8ff" d="M672.83,-548.12C765,-540.67 940.61,-524.98 1089,-503 1483.54,-444.55 1897.06,-645.32 1950,-250 1951.77,-236.78 1959.23,-229.62 1950,-220 1915.41,-183.92 1175.89,-177.03 954.24,-175.77"/>
<polygon fill="#63b8ff" stroke="#63b8ff" points="672.51,-544.64 662.82,-548.92 673.07,-551.61 672.51,-544.64"/>
</g>
<!-- Node8 -->
<g id="node8" class="node">
<title>Node8</title>
<g id="a_node8"><a xlink:href="frontend_8h.html" target="_top" xlink:title=" ">
<polygon fill="white" stroke="#666666" points="655.5,-371 526.5,-371 526.5,-352 655.5,-352 655.5,-371"/>
<text text-anchor="middle" x="591" y="-359" font-family="Helvetica,sans-Serif" font-size="10.00">src/node/rpc/frontend.h</text>
</a>
</g>
</g>
<!-- Node1&#45;&gt;Node8 -->
<g id="edge8" class="edge">
<title>Node1&#45;&gt;Node8</title>
<path fill="none" stroke="#63b8ff" d="M623.77,-530.22C628.31,-521.98 632.7,-512.39 635,-503 638.17,-490.05 637.51,-486.09 635,-473 627.34,-433.05 605.41,-389.15 595.71,-371.04"/>
<polygon fill="#63b8ff" stroke="#63b8ff" points="620.74,-528.47 618.7,-538.86 626.78,-532.01 620.74,-528.47"/>
</g>
<!-- Node15 -->
<g id="node15" class="node">
<title>Node15</title>
<g id="a_node15"><a xlink:href="node__call__types_8h.html" target="_top" xlink:title=" ">
<polygon fill="white" stroke="#666666" points="626.5,-503 501.5,-503 501.5,-473 626.5,-473 626.5,-503"/>
<text text-anchor="start" x="509.5" y="-491" font-family="Helvetica,sans-Serif" font-size="10.00">src/node/rpc/node_call</text>
<text text-anchor="middle" x="564" y="-480" font-family="Helvetica,sans-Serif" font-size="10.00">_types.h</text>
</a>
</g>
</g>
<!-- Node1&#45;&gt;Node15 -->
<g id="edge22" class="edge">
<title>Node1&#45;&gt;Node15</title>
<path fill="none" stroke="#63b8ff" d="M593.2,-530.53C586.8,-521.43 579.61,-511.19 573.96,-503.16"/>
<polygon fill="#63b8ff" stroke="#63b8ff" points="590.4,-532.63 599.01,-538.8 596.12,-528.6 590.4,-532.63"/>
</g>
<!-- Node20 -->
<g id="node20" class="node">
<title>Node20</title>
<g id="a_node20"><a xlink:href="network__tables_8h.html" target="_top" xlink:title=" ">
<polygon fill="white" stroke="#666666" points="1080,-503 968,-503 968,-473 1080,-473 1080,-503"/>
<text text-anchor="start" x="976" y="-491" font-family="Helvetica,sans-Serif" font-size="10.00">src/service/network</text>
<text text-anchor="middle" x="1024" y="-480" font-family="Helvetica,sans-Serif" font-size="10.00">_tables.h</text>
</a>
</g>
</g>
<!-- Node1&#45;&gt;Node20 -->
<g id="edge32" class="edge">
<title>Node1&#45;&gt;Node20</title>
<path fill="none" stroke="#63b8ff" d="M672.86,-543.15C753.55,-530.71 891.14,-509.49 967.95,-497.64"/>
<polygon fill="#63b8ff" stroke="#63b8ff" points="672.18,-539.72 662.83,-544.7 673.25,-546.63 672.18,-539.72"/>
</g>
<!-- Node5 -->
<g id="node5" class="node">
<title>Node5</title>
<g id="a_node5"><a xlink:href="src_2enclave_2enclave_8h.html" target="_top" xlink:title=" ">
<polygon fill="white" stroke="#666666" points="729,-74 607,-74 607,-55 729,-55 729,-74"/>
<text text-anchor="middle" x="668" y="-62" font-family="Helvetica,sans-Serif" font-size="10.00">src/enclave/enclave.h</text>
</a>
</g>
</g>
<!-- Node4&#45;&gt;Node5 -->
<g id="edge4" class="edge">
<title>Node4&#45;&gt;Node5</title>
<path fill="none" stroke="#63b8ff" d="M840.98,-162.43C812.87,-155.17 777.91,-144.17 749,-129 719.89,-113.72 690.78,-87.6 676.71,-74.12"/>
<polygon fill="#63b8ff" stroke="#63b8ff" points="840.46,-165.91 851.01,-164.94 842.16,-159.12 840.46,-165.91"/>
</g>
<!-- Node7 -->
<g id="node7" class="node">
<title>Node7</title>
<g id="a_node7"><a xlink:href="gov__effects_8h.html" target="_top" xlink:title=" ">
<polygon fill="white" stroke="#666666" points="902,-129 758,-129 758,-110 902,-110 902,-129"/>
<text text-anchor="middle" x="830" y="-117" font-family="Helvetica,sans-Serif" font-size="10.00">src/node/rpc/gov_effects.h</text>
</a>
</g>
</g>
<!-- Node4&#45;&gt;Node7 -->
<g id="edge6" class="edge">
<title>Node4&#45;&gt;Node7</title>
<path fill="none" stroke="#63b8ff" d="M874.25,-158.32C863.19,-148.87 849.37,-137.06 840.14,-129.17"/>
<polygon fill="#63b8ff" stroke="#63b8ff" points="872.16,-161.15 882.04,-164.98 876.71,-155.83 872.16,-161.15"/>
</g>
<!-- Node6 -->
<g id="node6" class="node">
<title>Node6</title>
<g id="a_node6"><a xlink:href="enclave_2main_8cpp.html" target="_top" xlink:title=" ">
<polygon fill="white" stroke="#666666" points="728,-19 608,-19 608,0 728,0 728,-19"/>
<text text-anchor="middle" x="668" y="-7" font-family="Helvetica,sans-Serif" font-size="10.00">src/enclave/main.cpp</text>
</a>
</g>
</g>
<!-- Node5&#45;&gt;Node6 -->
<g id="edge5" class="edge">
<title>Node5&#45;&gt;Node6</title>
<path fill="none" stroke="#63b8ff" d="M668,-44.66C668,-35.93 668,-25.99 668,-19.09"/>
<polygon fill="#63b8ff" stroke="#63b8ff" points="664.5,-44.75 668,-54.75 671.5,-44.75 664.5,-44.75"/>
</g>
<!-- Node7&#45;&gt;Node5 -->
<g id="edge7" class="edge">
<title>Node7&#45;&gt;Node5</title>
<path fill="none" stroke="#63b8ff" d="M794.23,-106.8C764,-96.91 721.39,-82.97 694.23,-74.08"/>
<polygon fill="#63b8ff" stroke="#63b8ff" points="793.38,-110.2 803.97,-109.98 795.56,-103.55 793.38,-110.2"/>
</g>
<!-- Node8&#45;&gt;Node4 -->
<g id="edge13" class="edge">
<title>Node8&#45;&gt;Node4</title>
<path fill="none" stroke="#63b8ff" d="M558.97,-347.2C545.97,-340.01 532.31,-329.75 525,-316 503.45,-275.49 524.91,-245.58 563,-220 605.41,-191.52 746.81,-181.15 829.79,-177.46"/>
<polygon fill="#63b8ff" stroke="#63b8ff" points="557.72,-350.49 568.22,-351.89 560.89,-344.25 557.72,-350.49"/>
</g>
<!-- Node9 -->
<g id="node9" class="node">
<title>Node9</title>
<g id="a_node9"><a xlink:href="acme__challenge__frontend_8h.html" target="_top" xlink:title=" ">
<polygon fill="white" stroke="#666666" points="850,-316 710,-316 710,-286 850,-286 850,-316"/>
<text text-anchor="start" x="718" y="-304" font-family="Helvetica,sans-Serif" font-size="10.00">src/node/acme_challenge</text>
<text text-anchor="middle" x="780" y="-293" font-family="Helvetica,sans-Serif" font-size="10.00">_frontend.h</text>
</a>
</g>
</g>
<!-- Node8&#45;&gt;Node9 -->
<g id="edge9" class="edge">
<title>Node8&#45;&gt;Node9</title>
<path fill="none" stroke="#63b8ff" d="M628.3,-348.95C658.8,-339.51 702.04,-326.13 734.56,-316.06"/>
<polygon fill="#63b8ff" stroke="#63b8ff" points="627,-345.69 618.48,-351.99 629.07,-352.38 627,-345.69"/>
</g>
<!-- Node11 -->
<g id="node11" class="node">
<title>Node11</title>
<g id="a_node11"><a xlink:href="member__frontend_8h.html" target="_top" xlink:title=" ">
<polygon fill="white" stroke="#666666" points="304,-316 184,-316 184,-286 304,-286 304,-316"/>
<text text-anchor="start" x="192" y="-304" font-family="Helvetica,sans-Serif" font-size="10.00">src/node/rpc/member</text>
<text text-anchor="middle" x="244" y="-293" font-family="Helvetica,sans-Serif" font-size="10.00">_frontend.h</text>
</a>
</g>
</g>
<!-- Node8&#45;&gt;Node11 -->
<g id="edge14" class="edge">
<title>Node8&#45;&gt;Node11</title>
<path fill="none" stroke="#63b8ff" d="M523.16,-350.44C466.79,-341.9 384.54,-328.98 313,-316 310.11,-315.48 307.16,-314.93 304.18,-314.36"/>
<polygon fill="#63b8ff" stroke="#63b8ff" points="522.97,-353.96 533.38,-351.99 524.01,-347.03 522.97,-353.96"/>
</g>
<!-- Node12 -->
<g id="node12" class="node">
<title>Node12</title>
<g id="a_node12"><a xlink:href="node__frontend_8h.html" target="_top" xlink:title=" ">
<polygon fill="white" stroke="#666666" points="692,-310.5 534,-310.5 534,-291.5 692,-291.5 692,-310.5"/>
<text text-anchor="middle" x="613" y="-298.5" font-family="Helvetica,sans-Serif" font-size="10.00">src/node/rpc/node_frontend.h</text>
</a>
</g>
</g>
<!-- Node8&#45;&gt;Node12 -->
<g id="edge16" class="edge">
<title>Node8&#45;&gt;Node12</title>
<path fill="none" stroke="#63b8ff" d="M597.84,-342.32C601.8,-331.78 606.62,-318.98 609.74,-310.67"/>
<polygon fill="#63b8ff" stroke="#63b8ff" points="594.49,-341.28 594.25,-351.87 601.04,-343.74 594.49,-341.28"/>
</g>
<!-- Node14 -->
<g id="node14" class="node">
<title>Node14</title>
<g id="a_node14"><a xlink:href="user__frontend_8h.html" target="_top" xlink:title=" ">
<polygon fill="white" stroke="#666666" points="477.5,-310.5 322.5,-310.5 322.5,-291.5 477.5,-291.5 477.5,-310.5"/>
<text text-anchor="middle" x="400" y="-298.5" font-family="Helvetica,sans-Serif" font-size="10.00">src/node/rpc/user_frontend.h</text>
</a>
</g>
</g>
<!-- Node8&#45;&gt;Node14 -->
<g id="edge20" class="edge">
<title>Node8&#45;&gt;Node14</title>
<path fill="none" stroke="#63b8ff" d="M553.33,-348.96C516.39,-337.65 460.92,-320.66 427.81,-310.52"/>
<polygon fill="#63b8ff" stroke="#63b8ff" points="552.64,-352.41 563.23,-351.99 554.69,-345.72 552.64,-352.41"/>
</g>
<!-- Node9&#45;&gt;Node5 -->
<g id="edge10" class="edge">
<title>Node9&#45;&gt;Node5</title>
<path fill="none" stroke="#63b8ff" d="M699.97,-283.98C639.99,-271.59 567.48,-255.62 563,-250 514.12,-188.57 619.27,-101.64 655.97,-74.17"/>
<polygon fill="#63b8ff" stroke="#63b8ff" points="699.36,-287.43 709.86,-286.01 700.77,-280.57 699.36,-287.43"/>
</g>
<!-- Node10 -->
<g id="node10" class="node">
<title>Node10</title>
<g id="a_node10"><a xlink:href="ccf__acme__client_8h.html" target="_top" xlink:title=" ">
<polygon fill="white" stroke="#666666" points="864.5,-244.5 715.5,-244.5 715.5,-225.5 864.5,-225.5 864.5,-244.5"/>
<text text-anchor="middle" x="790" y="-232.5" font-family="Helvetica,sans-Serif" font-size="10.00">src/node/ccf_acme_client.h</text>
</a>
</g>
</g>
<!-- Node9&#45;&gt;Node10 -->
<g id="edge11" class="edge">
<title>Node9&#45;&gt;Node10</title>
<path fill="none" stroke="#63b8ff" d="M783.81,-275.6C785.5,-264.8 787.38,-252.78 788.62,-244.84"/>
<polygon fill="#63b8ff" stroke="#63b8ff" points="780.31,-275.38 782.22,-285.8 787.22,-276.46 780.31,-275.38"/>
</g>
<!-- Node10&#45;&gt;Node4 -->
<g id="edge12" class="edge">
<title>Node10&#45;&gt;Node4</title>
<path fill="none" stroke="#63b8ff" d="M813.94,-220.27C833.41,-209.1 860.29,-193.69 876.89,-184.17"/>
<polygon fill="#63b8ff" stroke="#63b8ff" points="811.98,-217.36 805.05,-225.37 815.47,-223.43 811.98,-217.36"/>
</g>
<!-- Node11&#45;&gt;Node5 -->
<g id="edge15" class="edge">
<title>Node11&#45;&gt;Node5</title>
<path fill="none" stroke="#63b8ff" d="M265.35,-278.65C305.9,-239.31 398.4,-155.3 492,-110 529.31,-91.95 574.73,-80.7 610.08,-74.03"/>
<polygon fill="#63b8ff" stroke="#63b8ff" points="262.65,-276.4 257.95,-285.89 267.54,-281.4 262.65,-276.4"/>
</g>
<!-- Node12&#45;&gt;Node5 -->
<g id="edge17" class="edge">
<title>Node12&#45;&gt;Node5</title>
<path fill="none" stroke="#63b8ff" d="M575.94,-287.5C558.73,-279.62 539.91,-267.55 530,-250 499.39,-195.83 493.37,-160.3 530,-110 547.63,-85.78 578.69,-74.47 606.89,-69.29"/>
<polygon fill="#63b8ff" stroke="#63b8ff" points="574.7,-290.78 585.27,-291.46 577.43,-284.33 574.7,-290.78"/>
</g>
<!-- Node13 -->
<g id="node13" class="node">
<title>Node13</title>
<g id="a_node13"><a xlink:href="jwt__key__auto__refresh_8h.html" target="_top" xlink:title=" ">
<polygon fill="white" stroke="#666666" points="697.5,-250 572.5,-250 572.5,-220 697.5,-220 697.5,-250"/>
<text text-anchor="start" x="580.5" y="-238" font-family="Helvetica,sans-Serif" font-size="10.00">src/node/jwt_key_auto</text>
<text text-anchor="middle" x="635" y="-227" font-family="Helvetica,sans-Serif" font-size="10.00">_refresh.h</text>
</a>
</g>
</g>
<!-- Node12&#45;&gt;Node13 -->
<g id="edge18" class="edge">
<title>Node12&#45;&gt;Node13</title>
<path fill="none" stroke="#63b8ff" d="M619.3,-281.67C622.72,-271.72 626.88,-259.61 630.06,-250.36"/>
<polygon fill="#63b8ff" stroke="#63b8ff" points="615.91,-280.77 615.97,-291.37 622.53,-283.05 615.91,-280.77"/>
</g>
<!-- Node13&#45;&gt;Node4 -->
<g id="edge19" class="edge">
<title>Node13&#45;&gt;Node4</title>
<path fill="none" stroke="#63b8ff" d="M706.58,-217.71C754.53,-206.79 815.75,-192.86 854.42,-184.05"/>
<polygon fill="#63b8ff" stroke="#63b8ff" points="705.53,-214.36 696.56,-219.99 707.09,-221.18 705.53,-214.36"/>
</g>
<!-- Node14&#45;&gt;Node5 -->
<g id="edge21" class="edge">
<title>Node14&#45;&gt;Node5</title>
<path fill="none" stroke="#63b8ff" d="M405.99,-281.51C419.28,-243.47 454.88,-156.16 515,-110 541.33,-89.78 576.59,-78.74 606.63,-72.72"/>
<polygon fill="#63b8ff" stroke="#63b8ff" points="402.59,-280.65 402.71,-291.25 409.22,-282.89 402.59,-280.65"/>
</g>
<!-- Node16 -->
<g id="node16" class="node">
<title>Node16</title>
<g id="a_node16"><a xlink:href="call__types_8h.html" target="_top" xlink:title=" ">
<polygon fill="white" stroke="#666666" points="395.5,-431.5 258.5,-431.5 258.5,-412.5 395.5,-412.5 395.5,-431.5"/>
<text text-anchor="middle" x="327" y="-419.5" font-family="Helvetica,sans-Serif" font-size="10.00">src/node/rpc/call_types.h</text>
</a>
</g>
</g>
<!-- Node15&#45;&gt;Node16 -->
<g id="edge23" class="edge">
<title>Node15&#45;&gt;Node16</title>
<path fill="none" stroke="#63b8ff" d="M502.1,-470.29C456.03,-457.84 395.04,-441.37 358.54,-431.52"/>
<polygon fill="#63b8ff" stroke="#63b8ff" points="501.42,-473.73 511.99,-472.95 503.25,-466.97 501.42,-473.73"/>
</g>
<!-- Node16&#45;&gt;Node11 -->
<g id="edge26" class="edge">
<title>Node16&#45;&gt;Node11</title>
<path fill="none" stroke="#63b8ff" d="M325.09,-402.28C322.87,-387.59 318.11,-367.16 308,-352 298.14,-337.22 282.49,-324.88 269.12,-316.15"/>
<polygon fill="#63b8ff" stroke="#63b8ff" points="321.62,-402.73 326.35,-412.21 328.57,-401.85 321.62,-402.73"/>
</g>
<!-- Node17 -->
<g id="node17" class="node">
<title>Node17</title>
<g id="a_node17"><a xlink:href="common__endpoint__registry_8cpp.html" target="_top" xlink:title=" ">
<polygon fill="white" stroke="#666666" points="128,-316 0,-316 0,-286 128,-286 128,-316"/>
<text text-anchor="start" x="8" y="-304" font-family="Helvetica,sans-Serif" font-size="10.00">src/endpoints/common</text>
<text text-anchor="middle" x="64" y="-293" font-family="Helvetica,sans-Serif" font-size="10.00">_endpoint_registry.cpp</text>
</a>
</g>
</g>
<!-- Node16&#45;&gt;Node17 -->
<g id="edge24" class="edge">
<title>Node16&#45;&gt;Node17</title>
<path fill="none" stroke="#63b8ff" d="M259.41,-410.49C223.09,-402.97 178.41,-390.61 142,-371 115.42,-356.68 90.32,-331.68 76.09,-316.03"/>
<polygon fill="#63b8ff" stroke="#63b8ff" points="258.93,-413.96 269.42,-412.49 260.3,-407.1 258.93,-413.96"/>
</g>
<!-- Node18 -->
<g id="node18" class="node">
<title>Node18</title>
<g id="a_node18"><a xlink:href="wrap_8cpp.html" target="_top" xlink:title=" ">
<polygon fill="white" stroke="#666666" points="1313.5,-244.5 1224.5,-244.5 1224.5,-225.5 1313.5,-225.5 1313.5,-244.5"/>
<text text-anchor="middle" x="1269" y="-232.5" font-family="Helvetica,sans-Serif" font-size="10.00">src/js/wrap.cpp</text>
</a>
</g>
</g>
<!-- Node16&#45;&gt;Node18 -->
<g id="edge25" class="edge">
<title>Node16&#45;&gt;Node18</title>
<path fill="none" stroke="#63b8ff" d="M405.9,-417.21C535.2,-410.42 786.4,-394.65 872,-371 956.12,-347.76 966.6,-314.74 1049,-286 1108.17,-265.36 1179.32,-250.99 1224.35,-243.11"/>
<polygon fill="#63b8ff" stroke="#63b8ff" points="405.48,-413.73 395.67,-417.74 405.84,-420.72 405.48,-413.73"/>
</g>
<!-- Node19 -->
<g id="node19" class="node">
<title>Node19</title>
<g id="a_node19"><a xlink:href="serialization_8h.html" target="_top" xlink:title=" ">
<polygon fill="white" stroke="#666666" points="299,-371 151,-371 151,-352 299,-352 299,-371"/>
<text text-anchor="middle" x="225" y="-359" font-family="Helvetica,sans-Serif" font-size="10.00">src/node/rpc/serialization.h</text>
</a>
</g>
</g>
<!-- Node16&#45;&gt;Node19 -->
<g id="edge27" class="edge">
<title>Node16&#45;&gt;Node19</title>
<path fill="none" stroke="#63b8ff" d="M303.06,-407.27C283.59,-396.1 256.71,-380.69 240.11,-371.17"/>
<polygon fill="#63b8ff" stroke="#63b8ff" points="301.53,-410.43 311.95,-412.37 305.02,-404.36 301.53,-410.43"/>
</g>
<!-- Node19&#45;&gt;Node4 -->
<g id="edge29" class="edge">
<title>Node19&#45;&gt;Node4</title>
<path fill="none" stroke="#63b8ff" d="M203.49,-345.81C183.42,-330.33 158.81,-305.51 175,-286 257.77,-186.21 671.12,-175.46 829.82,-175.07"/>
<polygon fill="#63b8ff" stroke="#63b8ff" points="201.55,-348.73 211.68,-351.84 205.7,-343.09 201.55,-348.73"/>
</g>
<!-- Node19&#45;&gt;Node11 -->
<g id="edge30" class="edge">
<title>Node19&#45;&gt;Node11</title>
<path fill="none" stroke="#63b8ff" d="M230.94,-342.22C233.67,-333.79 236.87,-323.95 239.42,-316.11"/>
<polygon fill="#63b8ff" stroke="#63b8ff" points="227.56,-341.28 227.8,-351.87 234.22,-343.44 227.56,-341.28"/>
</g>
<!-- Node19&#45;&gt;Node12 -->
<g id="edge31" class="edge">
<title>Node19&#45;&gt;Node12</title>
<path fill="none" stroke="#63b8ff" d="M291.65,-350.45C366.37,-339.19 486.22,-321.11 556.51,-310.52"/>
<polygon fill="#63b8ff" stroke="#63b8ff" points="290.78,-347.04 281.42,-351.99 291.83,-353.96 290.78,-347.04"/>
</g>
<!-- Node19&#45;&gt;Node17 -->
<g id="edge28" class="edge">
<title>Node19&#45;&gt;Node17</title>
<path fill="none" stroke="#63b8ff" d="M191.86,-348.46C165.96,-339.05 129.92,-325.95 102.71,-316.06"/>
<polygon fill="#63b8ff" stroke="#63b8ff" points="191,-351.87 201.59,-351.99 193.39,-345.29 191,-351.87"/>
</g>
<!-- Node20&#45;&gt;Node10 -->
<g id="edge33" class="edge">
<title>Node20&#45;&gt;Node10</title>
<path fill="none" stroke="#63b8ff" d="M1090.28,-482.02C1120.91,-476.02 1154.69,-463.36 1174,-437 1196.32,-406.52 1197.75,-382.16 1175,-352 1139.93,-305.5 1104.83,-332.6 1049,-316 964.19,-290.79 864.27,-259.46 817.16,-244.6"/>
<polygon fill="#63b8ff" stroke="#63b8ff" points="1089.29,-478.64 1080.04,-483.81 1090.5,-485.53 1089.29,-478.64"/>
</g>
<!-- Node21 -->
<g id="node21" class="node">
<title>Node21</title>
<g id="a_node21"><a xlink:href="network__state_8h.html" target="_top" xlink:title=" ">
<polygon fill="white" stroke="#666666" points="1165,-431.5 1025,-431.5 1025,-412.5 1165,-412.5 1165,-431.5"/>
<text text-anchor="middle" x="1095" y="-419.5" font-family="Helvetica,sans-Serif" font-size="10.00">src/node/network_state.h</text>
</a>
</g>
</g>
<!-- Node20&#45;&gt;Node21 -->
<g id="edge34" class="edge">
<title>Node20&#45;&gt;Node21</title>
<path fill="none" stroke="#63b8ff" d="M1047.37,-465.93C1060.22,-454.35 1075.47,-440.61 1085.19,-431.84"/>
<polygon fill="#63b8ff" stroke="#63b8ff" points="1044.84,-463.5 1039.76,-472.8 1049.53,-468.7 1044.84,-463.5"/>
</g>
<!-- Node32 -->
<g id="node32" class="node">
<title>Node32</title>
<g id="a_node32"><a xlink:href="genesis__gen_8h.html" target="_top" xlink:title=" ">
<polygon fill="white" stroke="#666666" points="921,-437 811,-437 811,-407 921,-407 921,-437"/>
<text text-anchor="start" x="819" y="-425" font-family="Helvetica,sans-Serif" font-size="10.00">src/service/genesis</text>
<text text-anchor="middle" x="866" y="-414" font-family="Helvetica,sans-Serif" font-size="10.00">_gen.h</text>
</a>
</g>
</g>
<!-- Node20&#45;&gt;Node32 -->
<g id="edge63" class="edge">
<title>Node20&#45;&gt;Node32</title>
<path fill="none" stroke="#63b8ff" d="M980.03,-469.19C954.94,-459.02 923.93,-446.47 900.59,-437.01"/>
<polygon fill="#63b8ff" stroke="#63b8ff" points="978.74,-472.44 989.33,-472.95 981.37,-465.96 978.74,-472.44"/>
</g>
<!-- Node21&#45;&gt;Node4 -->
<g id="edge53" class="edge">
<title>Node21&#45;&gt;Node4</title>
<path fill="none" stroke="#63b8ff" d="M1175.46,-420.81C1295.47,-419.13 1527.95,-410.46 1721,-371 1832.22,-348.26 2005.53,-301.98 1927,-220 1893.23,-184.75 1172.22,-177.28 954.02,-175.83"/>
<polygon fill="#63b8ff" stroke="#63b8ff" points="1175.21,-417.31 1165.25,-420.94 1175.3,-424.31 1175.21,-417.31"/>
</g>
<!-- Node21&#45;&gt;Node5 -->
<g id="edge35" class="edge">
<title>Node21&#45;&gt;Node5</title>
<path fill="none" stroke="#63b8ff" d="M1175.22,-421.18C1303.08,-420.12 1560.47,-412.4 1774,-371 1852.79,-355.72 1874.11,-351.68 1946,-316 2001.44,-288.48 2060,-297.9 2060,-236 2060,-236 2060,-236 2060,-173.5 2060,-156.95 2413.01,-187.5 1756,-110 1554.88,-86.28 928.34,-71.09 729.33,-66.77"/>
<polygon fill="#63b8ff" stroke="#63b8ff" points="1175.09,-417.68 1165.12,-421.26 1175.14,-424.68 1175.09,-417.68"/>
</g>
<!-- Node21&#45;&gt;Node9 -->
<g id="edge52" class="edge">
<title>Node21&#45;&gt;Node9</title>
<path fill="none" stroke="#63b8ff" d="M1121.93,-407.53C1146.04,-393.73 1175.16,-371.58 1158,-352 1147.95,-340.53 956.56,-319.67 850.07,-308.88"/>
<polygon fill="#63b8ff" stroke="#63b8ff" points="1120.13,-404.52 1113.04,-412.39 1123.49,-410.66 1120.13,-404.52"/>
</g>
<!-- Node21&#45;&gt;Node12 -->
<g id="edge54" class="edge">
<title>Node21&#45;&gt;Node12</title>
<path fill="none" stroke="#63b8ff" d="M1060.99,-409.2C1017.54,-394.43 939.84,-368.99 872,-352 801.59,-334.37 719.08,-319.4 666.45,-310.56"/>
<polygon fill="#63b8ff" stroke="#63b8ff" points="1059.91,-412.53 1070.5,-412.45 1062.17,-405.91 1059.91,-412.53"/>
</g>
<!-- Node21&#45;&gt;Node14 -->
<g id="edge55" class="edge">
<title>Node21&#45;&gt;Node14</title>
<path fill="none" stroke="#63b8ff" d="M1014.69,-414.17C856.59,-400.7 519.94,-371.94 517,-371 474.32,-357.35 430.55,-325.95 410.81,-310.67"/>
<polygon fill="#63b8ff" stroke="#63b8ff" points="1014.58,-417.67 1024.84,-415.03 1015.18,-410.7 1014.58,-417.67"/>
</g>
<!-- Node22 -->
<g id="node22" class="node">
<title>Node22</title>
<g id="a_node22"><a xlink:href="wrap_8h.html" target="_top" xlink:title=" ">
<polygon fill="white" stroke="#666666" points="1392,-371 1314,-371 1314,-352 1392,-352 1392,-371"/>
<text text-anchor="middle" x="1353" y="-359" font-family="Helvetica,sans-Serif" font-size="10.00">src/js/wrap.h</text>
</a>
</g>
</g>
<!-- Node21&#45;&gt;Node22 -->
<g id="edge36" class="edge">
<title>Node21&#45;&gt;Node22</title>
<path fill="none" stroke="#63b8ff" d="M1142.4,-410.25C1192.25,-398.95 1269.66,-381.4 1315.44,-371.02"/>
<polygon fill="#63b8ff" stroke="#63b8ff" points="1141.49,-406.87 1132.52,-412.49 1143.04,-413.7 1141.49,-406.87"/>
</g>
<!-- Node29 -->
<g id="node29" class="node">
<title>Node29</title>
<g id="a_node29"><a xlink:href="secret__broadcast_8h.html" target="_top" xlink:title=" ">
<polygon fill="white" stroke="#666666" points="1149.5,-371 996.5,-371 996.5,-352 1149.5,-352 1149.5,-371"/>
<text text-anchor="middle" x="1073" y="-359" font-family="Helvetica,sans-Serif" font-size="10.00">src/node/secret_broadcast.h</text>
</a>
</g>
</g>
<!-- Node21&#45;&gt;Node29 -->
<g id="edge56" class="edge">
<title>Node21&#45;&gt;Node29</title>
<path fill="none" stroke="#63b8ff" d="M1088.16,-402.82C1084.2,-392.28 1079.38,-379.48 1076.26,-371.17"/>
<polygon fill="#63b8ff" stroke="#63b8ff" points="1084.96,-404.24 1091.75,-412.37 1091.51,-401.78 1084.96,-404.24"/>
</g>
<!-- Node30 -->
<g id="node30" class="node">
<title>Node30</title>
<g id="a_node30"><a xlink:href="share__manager_8h.html" target="_top" xlink:title=" ">
<polygon fill="white" stroke="#666666" points="863.5,-371 718.5,-371 718.5,-352 863.5,-352 863.5,-371"/>
<text text-anchor="middle" x="791" y="-359" font-family="Helvetica,sans-Serif" font-size="10.00">src/node/share_manager.h</text>
</a>
</g>
</g>
<!-- Node21&#45;&gt;Node30 -->
<g id="edge58" class="edge">
<title>Node21&#45;&gt;Node30</title>
<path fill="none" stroke="#63b8ff" d="M1040.97,-410.6C982.32,-399.32 889.77,-381.51 835.26,-371.02"/>
<polygon fill="#63b8ff" stroke="#63b8ff" points="1040.31,-414.04 1050.8,-412.49 1041.64,-407.17 1040.31,-414.04"/>
</g>
<!-- Node31 -->
<g id="node31" class="node">
<title>Node31</title>
<g id="a_node31"><a xlink:href="snapshotter_8h.html" target="_top" xlink:title=" ">
<polygon fill="white" stroke="#666666" points="1917.5,-244.5 1790.5,-244.5 1790.5,-225.5 1917.5,-225.5 1917.5,-244.5"/>
<text text-anchor="middle" x="1854" y="-232.5" font-family="Helvetica,sans-Serif" font-size="10.00">src/node/snapshotter.h</text>
</a>
</g>
</g>
<!-- Node21&#45;&gt;Node31 -->
<g id="edge61" class="edge">
<title>Node21&#45;&gt;Node31</title>
<path fill="none" stroke="#63b8ff" d="M1175.17,-416C1363.71,-403.42 1822.81,-367.74 1868,-316 1885.81,-295.61 1869.03,-260.8 1859.53,-244.68"/>
<polygon fill="#63b8ff" stroke="#63b8ff" points="1174.78,-412.52 1165.04,-416.67 1175.25,-419.5 1174.78,-412.52"/>
</g>
<!-- Node22&#45;&gt;Node4 -->
<g id="edge49" class="edge">
<title>Node22&#45;&gt;Node4</title>
<path fill="none" stroke="#63b8ff" d="M1402.44,-359.78C1522.36,-357.54 1821.11,-348.68 1851,-316 1860,-306.16 1859.83,-295.99 1851,-286 1791.44,-218.55 1156.96,-186.51 954.03,-177.93"/>
<polygon fill="#63b8ff" stroke="#63b8ff" points="1402.02,-356.29 1392.08,-359.97 1402.14,-363.29 1402.02,-356.29"/>
</g>
<!-- Node22&#45;&gt;Node5 -->
<g id="edge38" class="edge">
<title>Node22&#45;&gt;Node5</title>
<path fill="none" stroke="#63b8ff" d="M1402.48,-358.69C1513.91,-354.21 1781.48,-341.13 1868,-316 1942.07,-294.49 2022,-313.13 2022,-236 2022,-236 2022,-236 2022,-173.5 2022,-107.73 993.43,-74.56 729.25,-67.13"/>
<polygon fill="#63b8ff" stroke="#63b8ff" points="1402.05,-355.2 1392.2,-359.1 1402.33,-362.2 1402.05,-355.2"/>
</g>
<!-- Node22&#45;&gt;Node11 -->
<g id="edge50" class="edge">
<title>Node22&#45;&gt;Node11</title>
<path fill="none" stroke="#63b8ff" d="M1303.65,-358.34C1264.22,-356.61 1207.57,-354.14 1158,-352 782.45,-335.82 686.13,-361.51 313,-316 310.09,-315.64 307.12,-315.23 304.12,-314.78"/>
<polygon fill="#63b8ff" stroke="#63b8ff" points="1303.64,-361.84 1313.78,-358.78 1303.95,-354.84 1303.64,-361.84"/>
</g>
<!-- Node22&#45;&gt;Node12 -->
<g id="edge51" class="edge">
<title>Node22&#45;&gt;Node12</title>
<path fill="none" stroke="#63b8ff" d="M1303.92,-358.65C1195.09,-354.23 925.43,-341.46 701,-316 688.24,-314.55 674.51,-312.57 661.77,-310.56"/>
<polygon fill="#63b8ff" stroke="#63b8ff" points="1303.81,-362.15 1313.94,-359.06 1304.09,-355.16 1303.81,-362.15"/>
</g>
<!-- Node22&#45;&gt;Node18 -->
<g id="edge48" class="edge">
<title>Node22&#45;&gt;Node18</title>
<path fill="none" stroke="#63b8ff" d="M1341.55,-343.54C1323.38,-316.6 1288.58,-265.02 1274.81,-244.62"/>
<polygon fill="#63b8ff" stroke="#63b8ff" points="1338.73,-345.61 1347.23,-351.94 1344.53,-341.7 1338.73,-345.61"/>
</g>
<!-- Node23 -->
<g id="node23" class="node">
<title>Node23</title>
<g id="a_node23"><a xlink:href="js__generic__base_8cpp.html" target="_top" xlink:title=" ">
<polygon fill="white" stroke="#666666" points="1842,-316 1724,-316 1724,-286 1842,-286 1842,-316"/>
<text text-anchor="start" x="1732" y="-304" font-family="Helvetica,sans-Serif" font-size="10.00">src/apps/js_generic</text>
<text text-anchor="middle" x="1783" y="-293" font-family="Helvetica,sans-Serif" font-size="10.00">/js_generic_base.cpp</text>
</a>
</g>
</g>
<!-- Node22&#45;&gt;Node23 -->
<g id="edge37" class="edge">
<title>Node22&#45;&gt;Node23</title>
<path fill="none" stroke="#63b8ff" d="M1402.52,-355.69C1472.41,-348.62 1603.86,-334.24 1715,-316 1717.85,-315.53 1720.77,-315.03 1723.71,-314.5"/>
<polygon fill="#63b8ff" stroke="#63b8ff" points="1401.85,-352.24 1392.25,-356.72 1402.55,-359.21 1401.85,-352.24"/>
</g>
<!-- Node24 -->
<g id="node24" class="node">
<title>Node24</title>
<g id="a_node24"><a xlink:href="consensus_8cpp.html" target="_top" xlink:title=" ">
<polygon fill="white" stroke="#666666" points="1454,-310.5 1338,-310.5 1338,-291.5 1454,-291.5 1454,-310.5"/>
<text text-anchor="middle" x="1396" y="-298.5" font-family="Helvetica,sans-Serif" font-size="10.00">src/js/consensus.cpp</text>
</a>
</g>
</g>
<!-- Node22&#45;&gt;Node24 -->
<g id="edge39" class="edge">
<title>Node22&#45;&gt;Node24</title>
<path fill="none" stroke="#63b8ff" d="M1365.4,-343.63C1373.32,-332.85 1383.27,-319.32 1389.63,-310.67"/>
<polygon fill="#63b8ff" stroke="#63b8ff" points="1362.45,-341.74 1359.34,-351.87 1368.09,-345.88 1362.45,-341.74"/>
</g>
<!-- Node25 -->
<g id="node25" class="node">
<title>Node25</title>
<g id="a_node25"><a xlink:href="conv_8cpp.html" target="_top" xlink:title=" ">
<polygon fill="white" stroke="#666666" points="1560,-310.5 1472,-310.5 1472,-291.5 1560,-291.5 1560,-310.5"/>
<text text-anchor="middle" x="1516" y="-298.5" font-family="Helvetica,sans-Serif" font-size="10.00">src/js/conv.cpp</text>
</a>
</g>
</g>
<!-- Node22&#45;&gt;Node25 -->
<g id="edge41" class="edge">
<title>Node22&#45;&gt;Node25</title>
<path fill="none" stroke="#63b8ff" d="M1386.37,-348.52C1417.88,-337.21 1464.37,-320.53 1492.27,-310.52"/>
<polygon fill="#63b8ff" stroke="#63b8ff" points="1384.93,-345.32 1376.7,-351.99 1387.3,-351.91 1384.93,-345.32"/>
</g>
<!-- Node26 -->
<g id="node26" class="node">
<title>Node26</title>
<g id="a_node26"><a xlink:href="crypto_8cpp.html" target="_top" xlink:title=" ">
<polygon fill="white" stroke="#666666" points="1154,-310.5 1058,-310.5 1058,-291.5 1154,-291.5 1154,-310.5"/>
<text text-anchor="middle" x="1106" y="-298.5" font-family="Helvetica,sans-Serif" font-size="10.00">src/js/crypto.cpp</text>
</a>
</g>
</g>
<!-- Node22&#45;&gt;Node26 -->
<g id="edge43" class="edge">
<title>Node22&#45;&gt;Node26</title>
<path fill="none" stroke="#63b8ff" d="M1305.96,-349.63C1267.49,-340.71 1211.69,-327.68 1163,-316 1155.77,-314.26 1148.02,-312.38 1140.65,-310.57"/>
<polygon fill="#63b8ff" stroke="#63b8ff" points="1305.3,-353.07 1315.84,-351.92 1306.89,-346.25 1305.3,-353.07"/>
</g>
<!-- Node27 -->
<g id="node27" class="node">
<title>Node27</title>
<g id="a_node27"><a xlink:href="historical_8cpp.html" target="_top" xlink:title=" ">
<polygon fill="white" stroke="#666666" points="1282,-310.5 1172,-310.5 1172,-291.5 1282,-291.5 1282,-310.5"/>
<text text-anchor="middle" x="1227" y="-298.5" font-family="Helvetica,sans-Serif" font-size="10.00">src/js/historical.cpp</text>
</a>
</g>
</g>
<!-- Node22&#45;&gt;Node27 -->
<g id="edge45" class="edge">
<title>Node22&#45;&gt;Node27</title>
<path fill="none" stroke="#63b8ff" d="M1325.29,-347.63C1300.99,-336.35 1266.35,-320.27 1245.34,-310.52"/>
<polygon fill="#63b8ff" stroke="#63b8ff" points="1324.13,-350.96 1334.68,-351.99 1327.08,-344.61 1324.13,-350.96"/>
</g>
<!-- Node28 -->
<g id="node28" class="node">
<title>Node28</title>
<g id="a_node28"><a xlink:href="openenclave_8cpp.html" target="_top" xlink:title=" ">
<polygon fill="white" stroke="#666666" points="1706,-310.5 1578,-310.5 1578,-291.5 1706,-291.5 1706,-310.5"/>
<text text-anchor="middle" x="1642" y="-298.5" font-family="Helvetica,sans-Serif" font-size="10.00">src/js/openenclave.cpp</text>
</a>
</g>
</g>
<!-- Node22&#45;&gt;Node28 -->
<g id="edge47" class="edge">
<title>Node22&#45;&gt;Node28</title>
<path fill="none" stroke="#63b8ff" d="M1402.26,-350.53C1457.9,-339.27 1547.53,-321.12 1600,-310.5"/>
<polygon fill="#63b8ff" stroke="#63b8ff" points="1401.38,-347.14 1392.28,-352.55 1402.77,-354 1401.38,-347.14"/>
</g>
<!-- Node24&#45;&gt;Node18 -->
<g id="edge40" class="edge">
<title>Node24&#45;&gt;Node18</title>
<path fill="none" stroke="#63b8ff" d="M1369.93,-286.86C1344.9,-274.25 1307.82,-255.56 1286.26,-244.7"/>
<polygon fill="#63b8ff" stroke="#63b8ff" points="1368.37,-289.99 1378.87,-291.37 1371.52,-283.74 1368.37,-289.99"/>
</g>
<!-- Node25&#45;&gt;Node18 -->
<g id="edge42" class="edge">
<title>Node25&#45;&gt;Node18</title>
<path fill="none" stroke="#63b8ff" d="M1473.99,-288.88C1470.28,-287.9 1466.57,-286.93 1463,-286 1406.63,-271.29 1340.97,-254.42 1302.31,-244.52"/>
<polygon fill="#63b8ff" stroke="#63b8ff" points="1473.21,-292.29 1483.78,-291.46 1475,-285.52 1473.21,-292.29"/>
</g>
<!-- Node26&#45;&gt;Node18 -->
<g id="edge44" class="edge">
<title>Node26&#45;&gt;Node18</title>
<path fill="none" stroke="#63b8ff" d="M1137.39,-287.68C1169.6,-275.03 1218.88,-255.68 1247.11,-244.6"/>
<polygon fill="#63b8ff" stroke="#63b8ff" points="1136.01,-284.46 1127.98,-291.37 1138.57,-290.97 1136.01,-284.46"/>
</g>
<!-- Node27&#45;&gt;Node18 -->
<g id="edge46" class="edge">
<title>Node27&#45;&gt;Node18</title>
<path fill="none" stroke="#63b8ff" d="M1238.22,-282.91C1246.24,-270.68 1256.73,-254.7 1263.16,-244.91"/>
<polygon fill="#63b8ff" stroke="#63b8ff" points="1235.22,-281.09 1232.66,-291.37 1241.08,-284.93 1235.22,-281.09"/>
</g>
<!-- Node29&#45;&gt;Node4 -->
<g id="edge57" class="edge">
<title>Node29&#45;&gt;Node4</title>
<path fill="none" stroke="#63b8ff" d="M1063.09,-342.85C1058.64,-334.74 1053.41,-324.96 1049,-316 1028.33,-274.06 1039.86,-252.24 1006,-220 986.69,-201.61 958.92,-190.56 935.62,-184.07"/>
<polygon fill="#63b8ff" stroke="#63b8ff" points="1060.11,-344.69 1068.03,-351.73 1066.23,-341.29 1060.11,-344.69"/>
</g>
<!-- Node30&#45;&gt;Node4 -->
<g id="edge59" class="edge">
<title>Node30&#45;&gt;Node4</title>
<path fill="none" stroke="#63b8ff" d="M821,-347.35C834.51,-339.98 849.53,-329.52 859,-316 888.76,-273.52 891.97,-207.88 892.11,-184.3"/>
<polygon fill="#63b8ff" stroke="#63b8ff" points="819.28,-344.29 811.97,-351.96 822.46,-350.53 819.28,-344.29"/>
</g>
<!-- Node30&#45;&gt;Node11 -->
<g id="edge60" class="edge">
<title>Node30&#45;&gt;Node11</title>
<path fill="none" stroke="#63b8ff" d="M707.97,-353.85C591.86,-344.37 386.93,-326.91 313,-316 310.1,-315.57 307.13,-315.1 304.14,-314.6"/>
<polygon fill="#63b8ff" stroke="#63b8ff" points="707.98,-357.37 718.23,-354.69 708.55,-350.39 707.98,-357.37"/>
</g>
<!-- Node31&#45;&gt;Node4 -->
<g id="edge62" class="edge">
<title>Node31&#45;&gt;Node4</title>
<path fill="none" stroke="#63b8ff" d="M1802.03,-223.72C1793.37,-222.28 1784.45,-220.97 1776,-220 1468.94,-184.86 1098.72,-177.47 954.12,-175.91"/>
<polygon fill="#63b8ff" stroke="#63b8ff" points="1801.59,-227.2 1812.04,-225.46 1802.79,-220.3 1801.59,-227.2"/>
</g>
<!-- Node32&#45;&gt;Node4 -->
<g id="edge64" class="edge">
<title>Node32&#45;&gt;Node4</title>
<path fill="none" stroke="#63b8ff" d="M874.71,-397.46C887.51,-360.08 909.18,-284.74 902,-220 900.6,-207.41 897.05,-193.17 894.57,-184.27"/>
<polygon fill="#63b8ff" stroke="#63b8ff" points="871.38,-396.37 871.36,-406.96 877.98,-398.69 871.38,-396.37"/>
</g>
<!-- Node32&#45;&gt;Node11 -->
<g id="edge65" class="edge">
<title>Node32&#45;&gt;Node11</title>
<path fill="none" stroke="#63b8ff" d="M800.93,-416.75C720.22,-410.61 578.75,-397.04 460,-371 395.78,-356.92 323.43,-331.85 280.88,-316.11"/>
<polygon fill="#63b8ff" stroke="#63b8ff" points="800.71,-420.24 810.95,-417.49 801.23,-413.26 800.71,-420.24"/>
</g>
<!-- Node32&#45;&gt;Node12 -->
<g id="edge66" class="edge">
<title>Node32&#45;&gt;Node12</title>
<path fill="none" stroke="#63b8ff" d="M801.3,-405.36C772.25,-397.09 738.05,-385.6 709,-371 674.71,-353.76 639.29,-324.89 622.69,-310.58"/>
<polygon fill="#63b8ff" stroke="#63b8ff" points="800.37,-408.73 810.94,-408.04 802.24,-401.99 800.37,-408.73"/>
</g>
<!-- Node32&#45;&gt;Node29 -->
<g id="edge67" class="edge">
<title>Node32&#45;&gt;Node29</title>
<path fill="none" stroke="#63b8ff" d="M925.6,-404.16C963.92,-393.33 1012.1,-379.71 1042.73,-371.05"/>
<polygon fill="#63b8ff" stroke="#63b8ff" points="924.25,-400.9 915.58,-406.99 926.16,-407.64 924.25,-400.9"/>
</g>
<!-- Node32&#45;&gt;Node30 -->
<g id="edge68" class="edge">
<title>Node32&#45;&gt;Node30</title>
<path fill="none" stroke="#63b8ff" d="M839.76,-400.53C826.91,-390.51 812.13,-378.98 802.24,-371.27"/>
<polygon fill="#63b8ff" stroke="#63b8ff" points="837.81,-403.45 847.84,-406.84 842.11,-397.93 837.81,-403.45"/>
</g>
</g>
</svg>
