<?xml version="1.0" encoding="UTF-8" standalone="no"?>
<!DOCTYPE svg PUBLIC "-//W3C//DTD SVG 1.1//EN"
 "http://www.w3.org/Graphics/SVG/1.1/DTD/svg11.dtd">
<!-- Generated by graphviz version 2.43.0 (0)
 -->
<!-- Title: src/enclave/session.h Pages: 1 -->
<svg width="1821pt" height="302pt"
 viewBox="0.00 0.00 1821.00 302.00" xmlns="http://www.w3.org/2000/svg" xmlns:xlink="http://www.w3.org/1999/xlink">
<g id="graph0" class="graph" transform="scale(1 1) rotate(0) translate(4 298)">
<title>src/enclave/session.h</title>
<!-- Node1 -->
<g id="node1" class="node">
<title>Node1</title>
<g id="a_node1"><a xlink:title=" ">
<polygon fill="#999999" stroke="#666666" points="736.5,-294 615.5,-294 615.5,-275 736.5,-275 736.5,-294"/>
<text text-anchor="middle" x="676" y="-282" font-family="Helvetica,sans-Serif" font-size="10.00">src/enclave/session.h</text>
</a>
</g>
</g>
<!-- Node2 -->
<g id="node2" class="node">
<title>Node2</title>
<g id="a_node2"><a xlink:href="thread__messaging_8h.html" target="_top" xlink:title=" ">
<polygon fill="white" stroke="#666666" points="635,-239 505,-239 505,-220 635,-220 635,-239"/>
<text text-anchor="middle" x="570" y="-227" font-family="Helvetica,sans-Serif" font-size="10.00">ds/thread_messaging.h</text>
</a>
</g>
</g>
<!-- Node1&#45;&gt;Node2 -->
<g id="edge1" class="edge">
<title>Node1&#45;&gt;Node2</title>
<path fill="none" stroke="#63b8ff" d="M658.97,-274.98C642.07,-266.54 615.94,-253.47 596.36,-243.68"/>
<polygon fill="#63b8ff" stroke="#63b8ff" points="597.85,-240.51 587.34,-239.17 594.72,-246.77 597.85,-240.51"/>
</g>
<!-- Node22 -->
<g id="node22" class="node">
<title>Node22</title>
<g id="a_node22"><a xlink:href="tls_2msg__types_8h.html" target="_top" xlink:title=" ">
<polygon fill="white" stroke="#666666" points="874,-239 780,-239 780,-220 874,-220 874,-239"/>
<text text-anchor="middle" x="827" y="-227" font-family="Helvetica,sans-Serif" font-size="10.00">tls/msg_types.h</text>
</a>
</g>
</g>
<!-- Node1&#45;&gt;Node22 -->
<g id="edge25" class="edge">
<title>Node1&#45;&gt;Node22</title>
<path fill="none" stroke="#63b8ff" d="M700.26,-274.98C725.32,-266.19 764.63,-252.39 792.83,-242.49"/>
<polygon fill="#63b8ff" stroke="#63b8ff" points="794.02,-245.78 802.3,-239.17 791.7,-239.18 794.02,-245.78"/>
</g>
<!-- Node40 -->
<g id="node40" class="node">
<title>Node40</title>
<g id="a_node40"><a xlink:title=" ">
<polygon fill="#e0e0e0" stroke="#999999" points="923,-74 883,-74 883,-55 923,-55 923,-74"/>
<text text-anchor="middle" x="903" y="-62" font-family="Helvetica,sans-Serif" font-size="10.00">span</text>
</a>
</g>
</g>
<!-- Node1&#45;&gt;Node40 -->
<g id="edge64" class="edge">
<title>Node1&#45;&gt;Node40</title>
<path fill="none" stroke="#63b8ff" d="M673.67,-274.93C666.69,-247.1 648.95,-158.35 692,-110 703.99,-96.54 817.35,-78.15 872.78,-69.86"/>
<polygon fill="#63b8ff" stroke="#63b8ff" points="873.35,-73.31 882.73,-68.39 872.33,-66.39 873.35,-73.31"/>
</g>
<!-- Node3 -->
<g id="node3" class="node">
<title>Node3</title>
<g id="a_node3"><a xlink:href="ccf__assert_8h.html" target="_top" xlink:title=" ">
<polygon fill="white" stroke="#666666" points="466,-184 374,-184 374,-165 466,-165 466,-184"/>
<text text-anchor="middle" x="420" y="-172" font-family="Helvetica,sans-Serif" font-size="10.00">ccf/ccf_assert.h</text>
</a>
</g>
</g>
<!-- Node2&#45;&gt;Node3 -->
<g id="edge2" class="edge">
<title>Node2&#45;&gt;Node3</title>
<path fill="none" stroke="#63b8ff" d="M545.9,-219.98C521.12,-211.23 482.3,-197.51 454.31,-187.62"/>
<polygon fill="#63b8ff" stroke="#63b8ff" points="455.13,-184.2 444.54,-184.17 452.8,-190.8 455.13,-184.2"/>
</g>
<!-- Node4 -->
<g id="node4" class="node">
<title>Node4</title>
<g id="a_node4"><a xlink:href="logger_8h.html" target="_top" xlink:title=" ">
<polygon fill="white" stroke="#666666" points="465.5,-129 378.5,-129 378.5,-110 465.5,-110 465.5,-129"/>
<text text-anchor="middle" x="422" y="-117" font-family="Helvetica,sans-Serif" font-size="10.00">ccf/ds/logger.h</text>
</a>
</g>
</g>
<!-- Node2&#45;&gt;Node4 -->
<g id="edge20" class="edge">
<title>Node2&#45;&gt;Node4</title>
<path fill="none" stroke="#63b8ff" d="M558.14,-219.84C532.92,-201.44 473.71,-158.23 442.33,-135.34"/>
<polygon fill="#63b8ff" stroke="#63b8ff" points="444.06,-132.26 433.92,-129.2 439.93,-137.92 444.06,-132.26"/>
</g>
<!-- Node7 -->
<g id="node7" class="node">
<title>Node7</title>
<g id="a_node7"><a xlink:href="thread__ids_8h.html" target="_top" xlink:title=" ">
<polygon fill="white" stroke="#666666" points="715,-74 607,-74 607,-55 715,-55 715,-74"/>
<text text-anchor="middle" x="661" y="-62" font-family="Helvetica,sans-Serif" font-size="10.00">ccf/ds/thread_ids.h</text>
</a>
</g>
</g>
<!-- Node2&#45;&gt;Node7 -->
<g id="edge21" class="edge">
<title>Node2&#45;&gt;Node7</title>
<path fill="none" stroke="#63b8ff" d="M568.85,-219.89C567.53,-207.31 566.43,-183.38 574,-165 588.52,-129.76 620.82,-98.36 641.72,-80.65"/>
<polygon fill="#63b8ff" stroke="#63b8ff" points="644.14,-83.2 649.64,-74.14 639.69,-77.79 644.14,-83.2"/>
</g>
<!-- Node19 -->
<g id="node19" class="node">
<title>Node19</title>
<g id="a_node19"><a xlink:title=" ">
<polygon fill="#e0e0e0" stroke="#999999" points="751,-129 701,-129 701,-110 751,-110 751,-129"/>
<text text-anchor="middle" x="726" y="-117" font-family="Helvetica,sans-Serif" font-size="10.00">atomic</text>
</a>
</g>
</g>
<!-- Node2&#45;&gt;Node19 -->
<g id="edge22" class="edge">
<title>Node2&#45;&gt;Node19</title>
<path fill="none" stroke="#63b8ff" d="M570.15,-219.85C570.86,-206.32 574.2,-180.15 589,-165 615.81,-137.56 659.69,-127.02 690.55,-122.99"/>
<polygon fill="#63b8ff" stroke="#63b8ff" points="691.33,-126.42 700.87,-121.82 690.54,-119.47 691.33,-126.42"/>
</g>
<!-- Node20 -->
<g id="node20" class="node">
<title>Node20</title>
<g id="a_node20"><a xlink:title=" ">
<polygon fill="#e0e0e0" stroke="#999999" points="648,-184 598,-184 598,-165 648,-165 648,-184"/>
<text text-anchor="middle" x="623" y="-172" font-family="Helvetica,sans-Serif" font-size="10.00">chrono</text>
</a>
</g>
</g>
<!-- Node2&#45;&gt;Node20 -->
<g id="edge23" class="edge">
<title>Node2&#45;&gt;Node20</title>
<path fill="none" stroke="#63b8ff" d="M578.75,-219.75C586.47,-212.03 597.9,-200.6 607.22,-191.28"/>
<polygon fill="#63b8ff" stroke="#63b8ff" points="609.81,-193.64 614.41,-184.09 604.86,-188.69 609.81,-193.64"/>
</g>
<!-- Node21 -->
<g id="node21" class="node">
<title>Node21</title>
<g id="a_node21"><a xlink:title=" ">
<polygon fill="#e0e0e0" stroke="#999999" points="1464.5,-19 1411.5,-19 1411.5,0 1464.5,0 1464.5,-19"/>
<text text-anchor="middle" x="1438" y="-7" font-family="Helvetica,sans-Serif" font-size="10.00">cstddef</text>
</a>
</g>
</g>
<!-- Node2&#45;&gt;Node21 -->
<g id="edge24" class="edge">
<title>Node2&#45;&gt;Node21</title>
<path fill="none" stroke="#63b8ff" d="M635.41,-226.02C756.58,-219.85 1022.94,-198.82 1235,-129 1288.81,-111.28 1301.28,-102.91 1350,-74 1374.97,-59.18 1401.77,-39.19 1419.15,-25.62"/>
<polygon fill="#63b8ff" stroke="#63b8ff" points="1421.64,-28.12 1427.32,-19.18 1417.3,-22.62 1421.64,-28.12"/>
</g>
<!-- Node3&#45;&gt;Node4 -->
<g id="edge3" class="edge">
<title>Node3&#45;&gt;Node4</title>
<path fill="none" stroke="#63b8ff" d="M420.33,-164.75C420.59,-157.8 420.97,-147.85 421.3,-139.13"/>
<polygon fill="#63b8ff" stroke="#63b8ff" points="424.8,-139.21 421.68,-129.09 417.8,-138.95 424.8,-139.21"/>
</g>
<!-- Node5 -->
<g id="node5" class="node">
<title>Node5</title>
<g id="a_node5"><a xlink:href="enum__formatter_8h.html" target="_top" xlink:title=" ">
<polygon fill="white" stroke="#666666" points="136,-74 0,-74 0,-55 136,-55 136,-74"/>
<text text-anchor="middle" x="68" y="-62" font-family="Helvetica,sans-Serif" font-size="10.00">ccf/ds/enum_formatter.h</text>
</a>
</g>
</g>
<!-- Node4&#45;&gt;Node5 -->
<g id="edge4" class="edge">
<title>Node4&#45;&gt;Node5</title>
<path fill="none" stroke="#63b8ff" d="M378.24,-111.95C317.32,-102.83 206.43,-86.23 135.04,-75.54"/>
<polygon fill="#63b8ff" stroke="#63b8ff" points="135.22,-72.02 124.81,-74.01 134.18,-78.95 135.22,-72.02"/>
</g>
<!-- Node6 -->
<g id="node6" class="node">
<title>Node6</title>
<g id="a_node6"><a xlink:title=" ">
<polygon fill="#e0e0e0" stroke="#999999" points="407.5,-19 328.5,-19 328.5,0 407.5,0 407.5,-19"/>
<text text-anchor="middle" x="368" y="-7" font-family="Helvetica,sans-Serif" font-size="10.00">fmt/format.h</text>
</a>
</g>
</g>
<!-- Node4&#45;&gt;Node6 -->
<g id="edge14" class="edge">
<title>Node4&#45;&gt;Node6</title>
<path fill="none" stroke="#63b8ff" d="M400.21,-109.87C385.36,-102.69 366.84,-90.91 358,-74 350.66,-59.95 354.54,-41.95 359.45,-28.7"/>
<polygon fill="#63b8ff" stroke="#63b8ff" points="362.77,-29.83 363.42,-19.26 356.32,-27.12 362.77,-29.83"/>
</g>
<!-- Node4&#45;&gt;Node7 -->
<g id="edge6" class="edge">
<title>Node4&#45;&gt;Node7</title>
<path fill="none" stroke="#63b8ff" d="M460.4,-109.98C501.74,-100.82 567.6,-86.21 612.49,-76.26"/>
<polygon fill="#63b8ff" stroke="#63b8ff" points="613.29,-79.66 622.3,-74.08 611.78,-72.83 613.29,-79.66"/>
</g>
<!-- Node13 -->
<g id="node13" class="node">
<title>Node13</title>
<g id="a_node13"><a xlink:title=" ">
<polygon fill="#e0e0e0" stroke="#999999" points="233.5,-74 154.5,-74 154.5,-55 233.5,-55 233.5,-74"/>
<text text-anchor="middle" x="194" y="-62" font-family="Helvetica,sans-Serif" font-size="10.00">fmt/chrono.h</text>
</a>
</g>
</g>
<!-- Node4&#45;&gt;Node13 -->
<g id="edge13" class="edge">
<title>Node4&#45;&gt;Node13</title>
<path fill="none" stroke="#63b8ff" d="M385.37,-109.98C346.09,-100.86 283.63,-86.33 240.81,-76.38"/>
<polygon fill="#63b8ff" stroke="#63b8ff" points="241.45,-72.94 230.92,-74.08 239.87,-79.76 241.45,-72.94"/>
</g>
<!-- Node14 -->
<g id="node14" class="node">
<title>Node14</title>
<g id="a_node14"><a xlink:title=" ">
<polygon fill="#e0e0e0" stroke="#999999" points="311,-74 251,-74 251,-55 311,-55 311,-74"/>
<text text-anchor="middle" x="281" y="-62" font-family="Helvetica,sans-Serif" font-size="10.00">iostream</text>
</a>
</g>
</g>
<!-- Node4&#45;&gt;Node14 -->
<g id="edge15" class="edge">
<title>Node4&#45;&gt;Node14</title>
<path fill="none" stroke="#63b8ff" d="M399.35,-109.98C376.15,-101.27 339.88,-87.63 313.6,-77.75"/>
<polygon fill="#63b8ff" stroke="#63b8ff" points="314.66,-74.41 304.07,-74.17 312.2,-80.97 314.66,-74.41"/>
</g>
<!-- Node15 -->
<g id="node15" class="node">
<title>Node15</title>
<g id="a_node15"><a xlink:title=" ">
<polygon fill="#e0e0e0" stroke="#999999" points="477,-74 367,-74 367,-55 477,-55 477,-74"/>
<text text-anchor="middle" x="422" y="-62" font-family="Helvetica,sans-Serif" font-size="10.00">nlohmann/json.hpp</text>
</a>
</g>
</g>
<!-- Node4&#45;&gt;Node15 -->
<g id="edge16" class="edge">
<title>Node4&#45;&gt;Node15</title>
<path fill="none" stroke="#63b8ff" d="M422,-109.75C422,-102.8 422,-92.85 422,-84.13"/>
<polygon fill="#63b8ff" stroke="#63b8ff" points="425.5,-84.09 422,-74.09 418.5,-84.09 425.5,-84.09"/>
</g>
<!-- Node16 -->
<g id="node16" class="node">
<title>Node16</title>
<g id="a_node16"><a xlink:title=" ">
<polygon fill="#e0e0e0" stroke="#999999" points="827,-74 771,-74 771,-55 827,-55 827,-74"/>
<text text-anchor="middle" x="799" y="-62" font-family="Helvetica,sans-Serif" font-size="10.00">optional</text>
</a>
</g>
</g>
<!-- Node4&#45;&gt;Node16 -->
<g id="edge17" class="edge">
<title>Node4&#45;&gt;Node16</title>
<path fill="none" stroke="#63b8ff" d="M465.51,-113.67C529.54,-106.35 652.84,-91.44 757,-74 758.1,-73.82 759.22,-73.62 760.34,-73.43"/>
<polygon fill="#63b8ff" stroke="#63b8ff" points="761.39,-76.79 770.58,-71.52 760.11,-69.91 761.39,-76.79"/>
</g>
<!-- Node17 -->
<g id="node17" class="node">
<title>Node17</title>
<g id="a_node17"><a xlink:title=" ">
<polygon fill="#e0e0e0" stroke="#999999" points="551,-74 495,-74 495,-55 551,-55 551,-74"/>
<text text-anchor="middle" x="523" y="-62" font-family="Helvetica,sans-Serif" font-size="10.00">sstream</text>
</a>
</g>
</g>
<!-- Node4&#45;&gt;Node17 -->
<g id="edge18" class="edge">
<title>Node4&#45;&gt;Node17</title>
<path fill="none" stroke="#63b8ff" d="M438.23,-109.98C454.18,-101.61 478.78,-88.7 497.38,-78.95"/>
<polygon fill="#63b8ff" stroke="#63b8ff" points="499.25,-81.92 506.48,-74.17 496,-75.72 499.25,-81.92"/>
</g>
<!-- Node18 -->
<g id="node18" class="node">
<title>Node18</title>
<g id="a_node18"><a xlink:title=" ">
<polygon fill="#e0e0e0" stroke="#999999" points="904.5,-19 835.5,-19 835.5,0 904.5,0 904.5,-19"/>
<text text-anchor="middle" x="870" y="-7" font-family="Helvetica,sans-Serif" font-size="10.00">type_traits</text>
</a>
</g>
</g>
<!-- Node4&#45;&gt;Node18 -->
<g id="edge19" class="edge">
<title>Node4&#45;&gt;Node18</title>
<path fill="none" stroke="#63b8ff" d="M465.72,-116.4C525.34,-112.57 634.9,-102.05 724,-74 742.01,-68.33 744.81,-62.82 762,-55 787.45,-43.41 816.81,-31.4 838.49,-22.78"/>
<polygon fill="#63b8ff" stroke="#63b8ff" points="839.86,-26 847.87,-19.07 837.29,-19.49 839.86,-26"/>
</g>
<!-- Node5&#45;&gt;Node6 -->
<g id="edge5" class="edge">
<title>Node5&#45;&gt;Node6</title>
<path fill="none" stroke="#63b8ff" d="M116.2,-54.98C171.55,-45.21 261.93,-29.24 318.02,-19.33"/>
<polygon fill="#63b8ff" stroke="#63b8ff" points="318.84,-22.74 328.08,-17.55 317.62,-15.85 318.84,-22.74"/>
</g>
<!-- Node7&#45;&gt;Node6 -->
<g id="edge7" class="edge">
<title>Node7&#45;&gt;Node6</title>
<path fill="none" stroke="#63b8ff" d="M613.92,-54.98C560.17,-45.26 472.59,-29.42 417.74,-19.5"/>
<polygon fill="#63b8ff" stroke="#63b8ff" points="418.36,-16.05 407.9,-17.72 417.12,-22.94 418.36,-16.05"/>
</g>
<!-- Node8 -->
<g id="node8" class="node">
<title>Node8</title>
<g id="a_node8"><a xlink:title=" ">
<polygon fill="#e0e0e0" stroke="#999999" points="541,-19 455,-19 455,0 541,0 541,-19"/>
<text text-anchor="middle" x="498" y="-7" font-family="Helvetica,sans-Serif" font-size="10.00">fmt/ostream.h</text>
</a>
</g>
</g>
<!-- Node7&#45;&gt;Node8 -->
<g id="edge8" class="edge">
<title>Node7&#45;&gt;Node8</title>
<path fill="none" stroke="#63b8ff" d="M634.81,-54.98C607.56,-46.13 564.7,-32.19 534.22,-22.28"/>
<polygon fill="#63b8ff" stroke="#63b8ff" points="534.99,-18.85 524.39,-19.08 532.82,-25.5 534.99,-18.85"/>
</g>
<!-- Node9 -->
<g id="node9" class="node">
<title>Node9</title>
<g id="a_node9"><a xlink:title=" ">
<polygon fill="#e0e0e0" stroke="#999999" points="620.5,-19 559.5,-19 559.5,0 620.5,0 620.5,-19"/>
<text text-anchor="middle" x="590" y="-7" font-family="Helvetica,sans-Serif" font-size="10.00">fmt/std.h</text>
</a>
</g>
</g>
<!-- Node7&#45;&gt;Node9 -->
<g id="edge9" class="edge">
<title>Node7&#45;&gt;Node9</title>
<path fill="none" stroke="#63b8ff" d="M649.59,-54.98C638.89,-47 622.66,-34.88 609.84,-25.31"/>
<polygon fill="#63b8ff" stroke="#63b8ff" points="611.72,-22.35 601.61,-19.17 607.53,-27.96 611.72,-22.35"/>
</g>
<!-- Node10 -->
<g id="node10" class="node">
<title>Node10</title>
<g id="a_node10"><a xlink:title=" ">
<polygon fill="#e0e0e0" stroke="#999999" points="683,-19 639,-19 639,0 683,0 683,-19"/>
<text text-anchor="middle" x="661" y="-7" font-family="Helvetica,sans-Serif" font-size="10.00">limits</text>
</a>
</g>
</g>
<!-- Node7&#45;&gt;Node10 -->
<g id="edge10" class="edge">
<title>Node7&#45;&gt;Node10</title>
<path fill="none" stroke="#63b8ff" d="M661,-54.75C661,-47.8 661,-37.85 661,-29.13"/>
<polygon fill="#63b8ff" stroke="#63b8ff" points="664.5,-29.09 661,-19.09 657.5,-29.09 664.5,-29.09"/>
</g>
<!-- Node11 -->
<g id="node11" class="node">
<title>Node11</title>
<g id="a_node11"><a xlink:title=" ">
<polygon fill="#e0e0e0" stroke="#999999" points="739,-19 701,-19 701,0 739,0 739,-19"/>
<text text-anchor="middle" x="720" y="-7" font-family="Helvetica,sans-Serif" font-size="10.00">map</text>
</a>
</g>
</g>
<!-- Node7&#45;&gt;Node11 -->
<g id="edge11" class="edge">
<title>Node7&#45;&gt;Node11</title>
<path fill="none" stroke="#63b8ff" d="M670.48,-54.98C679.2,-47.15 692.34,-35.34 702.9,-25.86"/>
<polygon fill="#63b8ff" stroke="#63b8ff" points="705.25,-28.46 710.35,-19.17 700.57,-23.25 705.25,-28.46"/>
</g>
<!-- Node12 -->
<g id="node12" class="node">
<title>Node12</title>
<g id="a_node12"><a xlink:title=" ">
<polygon fill="#e0e0e0" stroke="#999999" points="805,-19 757,-19 757,0 805,0 805,-19"/>
<text text-anchor="middle" x="781" y="-7" font-family="Helvetica,sans-Serif" font-size="10.00">thread</text>
</a>
</g>
</g>
<!-- Node7&#45;&gt;Node12 -->
<g id="edge12" class="edge">
<title>Node7&#45;&gt;Node12</title>
<path fill="none" stroke="#63b8ff" d="M680.28,-54.98C699.67,-46.42 729.81,-33.11 752.07,-23.28"/>
<polygon fill="#63b8ff" stroke="#63b8ff" points="753.64,-26.41 761.37,-19.17 750.81,-20.01 753.64,-26.41"/>
</g>
<!-- Node23 -->
<g id="node23" class="node">
<title>Node23</title>
<g id="a_node23"><a xlink:href="ring__buffer__types_8h.html" target="_top" xlink:title=" ">
<polygon fill="white" stroke="#666666" points="939.5,-184 814.5,-184 814.5,-165 939.5,-165 939.5,-184"/>
<text text-anchor="middle" x="877" y="-172" font-family="Helvetica,sans-Serif" font-size="10.00">ds/ring_buffer_types.h</text>
</a>
</g>
</g>
<!-- Node22&#45;&gt;Node23 -->
<g id="edge26" class="edge">
<title>Node22&#45;&gt;Node23</title>
<path fill="none" stroke="#63b8ff" d="M835.26,-219.75C842.46,-212.11 853.11,-200.82 861.85,-191.56"/>
<polygon fill="#63b8ff" stroke="#63b8ff" points="864.58,-193.76 868.9,-184.09 859.49,-188.96 864.58,-193.76"/>
</g>
<!-- Node23&#45;&gt;Node6 -->
<g id="edge59" class="edge">
<title>Node23&#45;&gt;Node6</title>
<path fill="none" stroke="#63b8ff" d="M863.89,-164.79C842.85,-151.18 799.83,-124.9 760,-110 690.92,-84.16 667.51,-98.68 598,-74 580.21,-67.68 577.77,-61.4 560,-55 512.91,-38.04 456.95,-25.93 417.63,-18.67"/>
<polygon fill="#63b8ff" stroke="#63b8ff" points="418.22,-15.22 407.76,-16.88 416.98,-22.11 418.22,-15.22"/>
</g>
<!-- Node23&#45;&gt;Node16 -->
<g id="edge60" class="edge">
<title>Node23&#45;&gt;Node16</title>
<path fill="none" stroke="#63b8ff" d="M869.57,-164.83C862.11,-156 850.4,-141.83 841,-129 829.92,-113.88 818.22,-96.02 810,-83.1"/>
<polygon fill="#63b8ff" stroke="#63b8ff" points="812.75,-80.9 804.45,-74.31 806.83,-84.63 812.75,-80.9"/>
</g>
<!-- Node23&#45;&gt;Node19 -->
<g id="edge58" class="edge">
<title>Node23&#45;&gt;Node19</title>
<path fill="none" stroke="#63b8ff" d="M852.74,-164.98C827.68,-156.19 788.37,-142.39 760.17,-132.49"/>
<polygon fill="#63b8ff" stroke="#63b8ff" points="761.3,-129.18 750.7,-129.17 758.98,-135.78 761.3,-129.18"/>
</g>
<!-- Node24 -->
<g id="node24" class="node">
<title>Node24</title>
<g id="a_node24"><a xlink:href="include_2ccf_2ds_2hash_8h.html" target="_top" xlink:title=" ">
<polygon fill="white" stroke="#666666" points="1695,-129 1615,-129 1615,-110 1695,-110 1695,-129"/>
<text text-anchor="middle" x="1655" y="-117" font-family="Helvetica,sans-Serif" font-size="10.00">ccf/ds/hash.h</text>
</a>
</g>
</g>
<!-- Node23&#45;&gt;Node24 -->
<g id="edge27" class="edge">
<title>Node23&#45;&gt;Node24</title>
<path fill="none" stroke="#63b8ff" d="M939.68,-169.23C1089.81,-159 1467.65,-133.26 1604.51,-123.94"/>
<polygon fill="#63b8ff" stroke="#63b8ff" points="1604.97,-127.42 1614.71,-123.24 1604.49,-120.43 1604.97,-127.42"/>
</g>
<!-- Node27 -->
<g id="node27" class="node">
<title>Node27</title>
<g id="a_node27"><a xlink:title=" ">
<polygon fill="#e0e0e0" stroke="#999999" points="1378.5,-19 1331.5,-19 1331.5,0 1378.5,0 1378.5,-19"/>
<text text-anchor="middle" x="1355" y="-7" font-family="Helvetica,sans-Serif" font-size="10.00">vector</text>
</a>
</g>
</g>
<!-- Node23&#45;&gt;Node27 -->
<g id="edge63" class="edge">
<title>Node23&#45;&gt;Node27</title>
<path fill="none" stroke="#63b8ff" d="M939.66,-167.44C1050.16,-155.55 1273.33,-125.68 1330,-74 1342.71,-62.41 1349.04,-43.54 1352.15,-29.38"/>
<polygon fill="#63b8ff" stroke="#63b8ff" points="1355.64,-29.72 1354,-19.26 1348.76,-28.46 1355.64,-29.72"/>
</g>
<!-- Node31 -->
<g id="node31" class="node">
<title>Node31</title>
<g id="a_node31"><a xlink:href="nonstd_8h.html" target="_top" xlink:title=" ">
<polygon fill="white" stroke="#666666" points="1297,-74 1207,-74 1207,-55 1297,-55 1297,-74"/>
<text text-anchor="middle" x="1252" y="-62" font-family="Helvetica,sans-Serif" font-size="10.00">ccf/ds/nonstd.h</text>
</a>
</g>
</g>
<!-- Node23&#45;&gt;Node31 -->
<g id="edge37" class="edge">
<title>Node23&#45;&gt;Node31</title>
<path fill="none" stroke="#63b8ff" d="M937.52,-164.99C983.29,-157.72 1047.38,-145.77 1102,-129 1146.69,-115.28 1196.21,-92.8 1225.69,-78.6"/>
<polygon fill="#63b8ff" stroke="#63b8ff" points="1227.42,-81.64 1234.88,-74.12 1224.36,-75.35 1227.42,-81.64"/>
</g>
<!-- Node34 -->
<g id="node34" class="node">
<title>Node34</title>
<g id="a_node34"><a xlink:title=" ">
<polygon fill="#e0e0e0" stroke="#999999" points="1119,-19 1075,-19 1075,0 1119,0 1119,-19"/>
<text text-anchor="middle" x="1097" y="-7" font-family="Helvetica,sans-Serif" font-size="10.00">string</text>
</a>
</g>
</g>
<!-- Node23&#45;&gt;Node34 -->
<g id="edge62" class="edge">
<title>Node23&#45;&gt;Node34</title>
<path fill="none" stroke="#63b8ff" d="M873.36,-164.82C865.01,-143.37 847.19,-87.31 874,-55 900.04,-23.62 1009.27,-28.03 1064.7,-18.81"/>
<polygon fill="#63b8ff" stroke="#63b8ff" points="1065.57,-22.21 1074.7,-16.85 1064.22,-15.34 1065.57,-22.21"/>
</g>
<!-- Node35 -->
<g id="node35" class="node">
<title>Node35</title>
<g id="a_node35"><a xlink:href="serializer_8h.html" target="_top" xlink:title=" ">
<polygon fill="white" stroke="#666666" points="1093,-129 1023,-129 1023,-110 1093,-110 1093,-129"/>
<text text-anchor="middle" x="1058" y="-117" font-family="Helvetica,sans-Serif" font-size="10.00">serializer.h</text>
</a>
</g>
</g>
<!-- Node23&#45;&gt;Node35 -->
<g id="edge45" class="edge">
<title>Node23&#45;&gt;Node35</title>
<path fill="none" stroke="#63b8ff" d="M906.08,-164.98C936.6,-156.05 984.76,-141.94 1018.66,-132.02"/>
<polygon fill="#63b8ff" stroke="#63b8ff" points="1020.08,-135.25 1028.69,-129.08 1018.11,-128.53 1020.08,-135.25"/>
</g>
<!-- Node23&#45;&gt;Node40 -->
<g id="edge61" class="edge">
<title>Node23&#45;&gt;Node40</title>
<path fill="none" stroke="#63b8ff" d="M879.13,-164.66C883.36,-147.09 892.9,-107.45 898.56,-83.95"/>
<polygon fill="#63b8ff" stroke="#63b8ff" points="901.98,-84.7 900.92,-74.16 895.17,-83.06 901.98,-84.7"/>
</g>
<!-- Node25 -->
<g id="node25" class="node">
<title>Node25</title>
<g id="a_node25"><a xlink:href="siphash_8h.html" target="_top" xlink:title=" ">
<polygon fill="white" stroke="#666666" points="1562.5,-74 1467.5,-74 1467.5,-55 1562.5,-55 1562.5,-74"/>
<text text-anchor="middle" x="1515" y="-62" font-family="Helvetica,sans-Serif" font-size="10.00">ccf/ds/siphash.h</text>
</a>
</g>
</g>
<!-- Node24&#45;&gt;Node25 -->
<g id="edge28" class="edge">
<title>Node24&#45;&gt;Node25</title>
<path fill="none" stroke="#63b8ff" d="M1632.51,-109.98C1609.48,-101.27 1573.46,-87.63 1547.37,-77.75"/>
<polygon fill="#63b8ff" stroke="#63b8ff" points="1548.49,-74.44 1537.9,-74.17 1546.02,-80.98 1548.49,-74.44"/>
</g>
<!-- Node26 -->
<g id="node26" class="node">
<title>Node26</title>
<g id="a_node26"><a xlink:title=" ">
<polygon fill="#e0e0e0" stroke="#999999" points="1540,-19 1490,-19 1490,0 1540,0 1540,-19"/>
<text text-anchor="middle" x="1515" y="-7" font-family="Helvetica,sans-Serif" font-size="10.00">cstdint</text>
</a>
</g>
</g>
<!-- Node24&#45;&gt;Node26 -->
<g id="edge33" class="edge">
<title>Node24&#45;&gt;Node26</title>
<path fill="none" stroke="#63b8ff" d="M1683.75,-109.95C1715.21,-99.14 1758.72,-79.02 1739,-55 1715.49,-26.37 1606.95,-15.82 1550.04,-12.22"/>
<polygon fill="#63b8ff" stroke="#63b8ff" points="1550.24,-8.72 1540.05,-11.62 1549.82,-15.71 1550.24,-8.72"/>
</g>
<!-- Node24&#45;&gt;Node27 -->
<g id="edge36" class="edge">
<title>Node24&#45;&gt;Node27</title>
<path fill="none" stroke="#63b8ff" d="M1614.81,-113.28C1574.36,-107.14 1510.73,-95 1459,-74 1427.55,-61.23 1394.68,-39.53 1374.51,-25.1"/>
<polygon fill="#63b8ff" stroke="#63b8ff" points="1376.34,-22.1 1366.19,-19.05 1372.22,-27.76 1376.34,-22.1"/>
</g>
<!-- Node28 -->
<g id="node28" class="node">
<title>Node28</title>
<g id="a_node28"><a xlink:title=" ">
<polygon fill="#e0e0e0" stroke="#999999" points="1813,-19 1771,-19 1771,0 1813,0 1813,-19"/>
<text text-anchor="middle" x="1792" y="-7" font-family="Helvetica,sans-Serif" font-size="10.00">array</text>
</a>
</g>
</g>
<!-- Node24&#45;&gt;Node28 -->
<g id="edge32" class="edge">
<title>Node24&#45;&gt;Node28</title>
<path fill="none" stroke="#63b8ff" d="M1695.15,-116.34C1725.41,-112.41 1765.29,-101.85 1787,-74 1796.67,-61.6 1797.14,-43.38 1795.65,-29.64"/>
<polygon fill="#63b8ff" stroke="#63b8ff" points="1799.05,-28.73 1794.09,-19.37 1792.13,-29.78 1799.05,-28.73"/>
</g>
<!-- Node29 -->
<g id="node29" class="node">
<title>Node29</title>
<g id="a_node29"><a xlink:title=" ">
<polygon fill="#e0e0e0" stroke="#999999" points="1729.5,-74 1580.5,-74 1580.5,-55 1729.5,-55 1729.5,-74"/>
<text text-anchor="middle" x="1655" y="-62" font-family="Helvetica,sans-Serif" font-size="10.00">small_vector/SmallVector.h</text>
</a>
</g>
</g>
<!-- Node24&#45;&gt;Node29 -->
<g id="edge34" class="edge">
<title>Node24&#45;&gt;Node29</title>
<path fill="none" stroke="#63b8ff" d="M1655,-109.75C1655,-102.8 1655,-92.85 1655,-84.13"/>
<polygon fill="#63b8ff" stroke="#63b8ff" points="1658.5,-84.09 1655,-74.09 1651.5,-84.09 1658.5,-84.09"/>
</g>
<!-- Node30 -->
<g id="node30" class="node">
<title>Node30</title>
<g id="a_node30"><a xlink:title=" ">
<polygon fill="#e0e0e0" stroke="#999999" points="1712.5,-19 1639.5,-19 1639.5,0 1712.5,0 1712.5,-19"/>
<text text-anchor="middle" x="1676" y="-7" font-family="Helvetica,sans-Serif" font-size="10.00">string_view</text>
</a>
</g>
</g>
<!-- Node24&#45;&gt;Node30 -->
<g id="edge35" class="edge">
<title>Node24&#45;&gt;Node30</title>
<path fill="none" stroke="#63b8ff" d="M1695.18,-114.54C1721.51,-109.62 1754.08,-98.62 1771,-74 1787.6,-49.85 1753.41,-32.43 1721.52,-22.01"/>
<polygon fill="#63b8ff" stroke="#63b8ff" points="1722.34,-18.6 1711.76,-19 1720.28,-25.29 1722.34,-18.6"/>
</g>
<!-- Node25&#45;&gt;Node21 -->
<g id="edge29" class="edge">
<title>Node25&#45;&gt;Node21</title>
<path fill="none" stroke="#63b8ff" d="M1502.63,-54.98C1490.91,-46.92 1473.08,-34.65 1459.11,-25.03"/>
<polygon fill="#63b8ff" stroke="#63b8ff" points="1460.82,-21.96 1450.6,-19.17 1456.85,-27.72 1460.82,-21.96"/>
</g>
<!-- Node25&#45;&gt;Node26 -->
<g id="edge30" class="edge">
<title>Node25&#45;&gt;Node26</title>
<path fill="none" stroke="#63b8ff" d="M1515,-54.75C1515,-47.8 1515,-37.85 1515,-29.13"/>
<polygon fill="#63b8ff" stroke="#63b8ff" points="1518.5,-29.09 1515,-19.09 1511.5,-29.09 1518.5,-29.09"/>
</g>
<!-- Node25&#45;&gt;Node27 -->
<g id="edge31" class="edge">
<title>Node25&#45;&gt;Node27</title>
<path fill="none" stroke="#63b8ff" d="M1489.29,-54.98C1461.83,-45.89 1418.21,-31.44 1388.18,-21.49"/>
<polygon fill="#63b8ff" stroke="#63b8ff" points="1389.15,-18.13 1378.56,-18.3 1386.95,-24.77 1389.15,-18.13"/>
</g>
<!-- Node31&#45;&gt;Node18 -->
<g id="edge43" class="edge">
<title>Node31&#45;&gt;Node18</title>
<path fill="none" stroke="#63b8ff" d="M1206.93,-56.3C1203.91,-55.85 1200.91,-55.41 1198,-55 1075.23,-37.56 1041.34,-38.99 914.64,-19"/>
<polygon fill="#63b8ff" stroke="#63b8ff" points="914.98,-15.51 904.55,-17.39 913.88,-22.42 914.98,-15.51"/>
</g>
<!-- Node31&#45;&gt;Node27 -->
<g id="edge44" class="edge">
<title>Node31&#45;&gt;Node27</title>
<path fill="none" stroke="#63b8ff" d="M1268.55,-54.98C1284.89,-46.57 1310.13,-33.59 1329.13,-23.81"/>
<polygon fill="#63b8ff" stroke="#63b8ff" points="1330.86,-26.86 1338.15,-19.17 1327.66,-20.63 1330.86,-26.86"/>
</g>
<!-- Node31&#45;&gt;Node28 -->
<g id="edge39" class="edge">
<title>Node31&#45;&gt;Node28</title>
<path fill="none" stroke="#63b8ff" d="M1297.08,-59.63C1380.85,-52.35 1566.15,-35.84 1722,-19 1734.71,-17.63 1748.7,-15.96 1760.8,-14.47"/>
<polygon fill="#63b8ff" stroke="#63b8ff" points="1761.39,-17.92 1770.88,-13.21 1760.52,-10.97 1761.39,-17.92"/>
</g>
<!-- Node31&#45;&gt;Node30 -->
<g id="edge42" class="edge">
<title>Node31&#45;&gt;Node30</title>
<path fill="none" stroke="#63b8ff" d="M1297.38,-57.83C1378.4,-47.7 1547.15,-26.61 1629.2,-16.35"/>
<polygon fill="#63b8ff" stroke="#63b8ff" points="1629.75,-19.81 1639.24,-15.1 1628.88,-12.86 1629.75,-19.81"/>
</g>
<!-- Node32 -->
<g id="node32" class="node">
<title>Node32</title>
<g id="a_node32"><a xlink:title=" ">
<polygon fill="#e0e0e0" stroke="#999999" points="1231,-19 1167,-19 1167,0 1231,0 1231,-19"/>
<text text-anchor="middle" x="1199" y="-7" font-family="Helvetica,sans-Serif" font-size="10.00">algorithm</text>
</a>
</g>
</g>
<!-- Node31&#45;&gt;Node32 -->
<g id="edge38" class="edge">
<title>Node31&#45;&gt;Node32</title>
<path fill="none" stroke="#63b8ff" d="M1243.25,-54.75C1235.53,-47.03 1224.1,-35.6 1214.78,-26.28"/>
<polygon fill="#63b8ff" stroke="#63b8ff" points="1217.14,-23.69 1207.59,-19.09 1212.19,-28.64 1217.14,-23.69"/>
</g>
<!-- Node33 -->
<g id="node33" class="node">
<title>Node33</title>
<g id="a_node33"><a xlink:title=" ">
<polygon fill="#e0e0e0" stroke="#999999" points="1298.5,-19 1249.5,-19 1249.5,0 1298.5,0 1298.5,-19"/>
<text text-anchor="middle" x="1274" y="-7" font-family="Helvetica,sans-Serif" font-size="10.00">cctype</text>
</a>
</g>
</g>
<!-- Node31&#45;&gt;Node33 -->
<g id="edge40" class="edge">
<title>Node31&#45;&gt;Node33</title>
<path fill="none" stroke="#63b8ff" d="M1255.63,-54.75C1258.58,-47.65 1262.83,-37.4 1266.51,-28.56"/>
<polygon fill="#63b8ff" stroke="#63b8ff" points="1269.83,-29.67 1270.43,-19.09 1263.37,-26.98 1269.83,-29.67"/>
</g>
<!-- Node31&#45;&gt;Node34 -->
<g id="edge41" class="edge">
<title>Node31&#45;&gt;Node34</title>
<path fill="none" stroke="#63b8ff" d="M1227.1,-54.98C1200.46,-45.88 1158.12,-31.4 1129.02,-21.45"/>
<polygon fill="#63b8ff" stroke="#63b8ff" points="1129.92,-18.06 1119.33,-18.13 1127.66,-24.68 1129.92,-18.06"/>
</g>
<!-- Node35&#45;&gt;Node18 -->
<g id="edge56" class="edge">
<title>Node35&#45;&gt;Node18</title>
<path fill="none" stroke="#63b8ff" d="M1040.09,-109.92C1022.33,-101.27 994.45,-87.33 971,-74 942.9,-58.02 911.51,-37.92 891.3,-24.66"/>
<polygon fill="#63b8ff" stroke="#63b8ff" points="893.13,-21.67 882.85,-19.09 889.27,-27.52 893.13,-21.67"/>
</g>
<!-- Node35&#45;&gt;Node27 -->
<g id="edge57" class="edge">
<title>Node35&#45;&gt;Node27</title>
<path fill="none" stroke="#63b8ff" d="M1093.28,-115.31C1152.95,-109.41 1270.76,-95.39 1306,-74 1323.99,-63.08 1337.82,-42.92 1346.12,-28.24"/>
<polygon fill="#63b8ff" stroke="#63b8ff" points="1349.36,-29.6 1350.98,-19.13 1343.19,-26.31 1349.36,-29.6"/>
</g>
<!-- Node35&#45;&gt;Node31 -->
<g id="edge46" class="edge">
<title>Node35&#45;&gt;Node31</title>
<path fill="none" stroke="#63b8ff" d="M1089.17,-109.98C1122.16,-100.97 1174.4,-86.7 1210.77,-76.76"/>
<polygon fill="#63b8ff" stroke="#63b8ff" points="1211.86,-80.09 1220.59,-74.08 1210.02,-73.34 1211.86,-80.09"/>
</g>
<!-- Node36 -->
<g id="node36" class="node">
<title>Node36</title>
<g id="a_node36"><a xlink:href="serialized_8h.html" target="_top" xlink:title=" ">
<polygon fill="white" stroke="#666666" points="1052.5,-74 979.5,-74 979.5,-55 1052.5,-55 1052.5,-74"/>
<text text-anchor="middle" x="1016" y="-62" font-family="Helvetica,sans-Serif" font-size="10.00">serialized.h</text>
</a>
</g>
</g>
<!-- Node35&#45;&gt;Node36 -->
<g id="edge47" class="edge">
<title>Node35&#45;&gt;Node36</title>
<path fill="none" stroke="#63b8ff" d="M1051.06,-109.75C1045.13,-102.26 1036.43,-91.28 1029.18,-82.13"/>
<polygon fill="#63b8ff" stroke="#63b8ff" points="1031.76,-79.75 1022.81,-74.09 1026.27,-84.1 1031.76,-79.75"/>
</g>
<!-- Node39 -->
<g id="node39" class="node">
<title>Node39</title>
<g id="a_node39"><a xlink:title=" ">
<polygon fill="#e0e0e0" stroke="#999999" points="1129,-74 1071,-74 1071,-55 1129,-55 1129,-74"/>
<text text-anchor="middle" x="1100" y="-62" font-family="Helvetica,sans-Serif" font-size="10.00">memory</text>
</a>
</g>
</g>
<!-- Node35&#45;&gt;Node39 -->
<g id="edge53" class="edge">
<title>Node35&#45;&gt;Node39</title>
<path fill="none" stroke="#63b8ff" d="M1064.94,-109.75C1070.87,-102.26 1079.57,-91.28 1086.82,-82.13"/>
<polygon fill="#63b8ff" stroke="#63b8ff" points="1089.73,-84.1 1093.19,-74.09 1084.24,-79.75 1089.73,-84.1"/>
</g>
<!-- Node35&#45;&gt;Node40 -->
<g id="edge54" class="edge">
<title>Node35&#45;&gt;Node40</title>
<path fill="none" stroke="#63b8ff" d="M1033.1,-109.98C1005.84,-100.67 962.16,-85.73 933.03,-75.77"/>
<polygon fill="#63b8ff" stroke="#63b8ff" points="933.98,-72.4 923.39,-72.47 931.72,-79.02 933.98,-72.4"/>
</g>
<!-- Node41 -->
<g id="node41" class="node">
<title>Node41</title>
<g id="a_node41"><a xlink:title=" ">
<polygon fill="#e0e0e0" stroke="#999999" points="1188.5,-74 1147.5,-74 1147.5,-55 1188.5,-55 1188.5,-74"/>
<text text-anchor="middle" x="1168" y="-62" font-family="Helvetica,sans-Serif" font-size="10.00">tuple</text>
</a>
</g>
</g>
<!-- Node35&#45;&gt;Node41 -->
<g id="edge55" class="edge">
<title>Node35&#45;&gt;Node41</title>
<path fill="none" stroke="#63b8ff" d="M1075.67,-109.98C1093.29,-101.5 1120.58,-88.35 1140.93,-78.54"/>
<polygon fill="#63b8ff" stroke="#63b8ff" points="1142.52,-81.66 1150.01,-74.17 1139.48,-75.36 1142.52,-81.66"/>
</g>
<!-- Node36&#45;&gt;Node26 -->
<g id="edge48" class="edge">
<title>Node36&#45;&gt;Node26</title>
<path fill="none" stroke="#63b8ff" d="M1052.61,-56.41C1055.78,-55.89 1058.94,-55.42 1062,-55 1244.14,-30.27 1292.14,-45.7 1474,-19 1475.94,-18.71 1477.93,-18.4 1479.93,-18.05"/>
<polygon fill="#63b8ff" stroke="#63b8ff" points="1480.74,-21.46 1489.93,-16.18 1479.46,-14.58 1480.74,-21.46"/>
</g>
<!-- Node36&#45;&gt;Node27 -->
<g id="edge52" class="edge">
<title>Node36&#45;&gt;Node27</title>
<path fill="none" stroke="#63b8ff" d="M1052.64,-56.6C1055.8,-56.05 1058.96,-55.5 1062,-55 1171.01,-36.96 1198.95,-36.83 1308,-19 1312.23,-18.31 1316.68,-17.55 1321.07,-16.78"/>
<polygon fill="#63b8ff" stroke="#63b8ff" points="1321.89,-20.19 1331.12,-14.98 1320.66,-13.29 1321.89,-20.19"/>
</g>
<!-- Node36&#45;&gt;Node34 -->
<g id="edge51" class="edge">
<title>Node36&#45;&gt;Node34</title>
<path fill="none" stroke="#63b8ff" d="M1029.01,-54.98C1041.46,-46.84 1060.46,-34.41 1075.21,-24.76"/>
<polygon fill="#63b8ff" stroke="#63b8ff" points="1077.3,-27.57 1083.75,-19.17 1073.46,-21.72 1077.3,-27.57"/>
</g>
<!-- Node37 -->
<g id="node37" class="node">
<title>Node37</title>
<g id="a_node37"><a xlink:title=" ">
<polygon fill="#e0e0e0" stroke="#999999" points="973,-19 923,-19 923,0 973,0 973,-19"/>
<text text-anchor="middle" x="948" y="-7" font-family="Helvetica,sans-Serif" font-size="10.00">cstring</text>
</a>
</g>
</g>
<!-- Node36&#45;&gt;Node37 -->
<g id="edge49" class="edge">
<title>Node36&#45;&gt;Node37</title>
<path fill="none" stroke="#63b8ff" d="M1005.07,-54.98C994.92,-47.07 979.58,-35.11 967.35,-25.58"/>
<polygon fill="#63b8ff" stroke="#63b8ff" points="969.16,-22.56 959.12,-19.17 964.86,-28.08 969.16,-22.56"/>
</g>
<!-- Node38 -->
<g id="node38" class="node">
<title>Node38</title>
<g id="a_node38"><a xlink:title=" ">
<polygon fill="#e0e0e0" stroke="#999999" points="1056.5,-19 991.5,-19 991.5,0 1056.5,0 1056.5,-19"/>
<text text-anchor="middle" x="1024" y="-7" font-family="Helvetica,sans-Serif" font-size="10.00">stdexcept</text>
</a>
</g>
</g>
<!-- Node36&#45;&gt;Node38 -->
<g id="edge50" class="edge">
<title>Node36&#45;&gt;Node38</title>
<path fill="none" stroke="#63b8ff" d="M1017.32,-54.75C1018.37,-47.8 1019.87,-37.85 1021.19,-29.13"/>
<polygon fill="#63b8ff" stroke="#63b8ff" points="1024.67,-29.5 1022.7,-19.09 1017.75,-28.45 1024.67,-29.5"/>
</g>
</g>
</svg>
