<?xml version="1.0" encoding="UTF-8" standalone="no"?>
<!DOCTYPE svg PUBLIC "-//W3C//DTD SVG 1.1//EN"
 "http://www.w3.org/Graphics/SVG/1.1/DTD/svg11.dtd">
<!-- Generated by graphviz version 2.43.0 (0)
 -->
<!-- Title: src/node/session_metrics.h Pages: 1 -->
<svg width="2145pt" height="654pt"
 viewBox="0.00 0.00 2144.50 654.00" xmlns="http://www.w3.org/2000/svg" xmlns:xlink="http://www.w3.org/1999/xlink">
<g id="graph0" class="graph" transform="scale(1 1) rotate(0) translate(4 650)">
<title>src/node/session_metrics.h</title>
<!-- Node1 -->
<g id="node1" class="node">
<title>Node1</title>
<g id="a_node1"><a xlink:title=" ">
<polygon fill="#999999" stroke="#666666" points="879,-646 730,-646 730,-627 879,-627 879,-646"/>
<text text-anchor="middle" x="804.5" y="-634" font-family="Helvetica,sans-Serif" font-size="10.00">src/node/session_metrics.h</text>
</a>
</g>
</g>
<!-- Node2 -->
<g id="node2" class="node">
<title>Node2</title>
<g id="a_node2"><a xlink:href="rpc__sessions_8h.html" target="_top" xlink:title=" ">
<polygon fill="white" stroke="#666666" points="413.5,-332.5 267.5,-332.5 267.5,-313.5 413.5,-313.5 413.5,-332.5"/>
<text text-anchor="middle" x="340.5" y="-320.5" font-family="Helvetica,sans-Serif" font-size="10.00">src/enclave/rpc_sessions.h</text>
</a>
</g>
</g>
<!-- Node1&#45;&gt;Node2 -->
<g id="edge1" class="edge">
<title>Node1&#45;&gt;Node2</title>
<path fill="none" stroke="#63b8ff" d="M719.92,-634.47C635.89,-628.42 519.5,-604.22 519.5,-516.5 519.5,-516.5 519.5,-516.5 519.5,-454 519.5,-383.71 428.03,-347.49 375.86,-332.54"/>
<polygon fill="#63b8ff" stroke="#63b8ff" points="719.79,-637.97 729.99,-635.12 720.24,-630.98 719.79,-637.97"/>
</g>
<!-- Node9 -->
<g id="node9" class="node">
<title>Node9</title>
<g id="a_node9"><a xlink:href="node__frontend_8h.html" target="_top" xlink:title=" ">
<polygon fill="white" stroke="#666666" points="837.5,-332.5 679.5,-332.5 679.5,-313.5 837.5,-313.5 837.5,-332.5"/>
<text text-anchor="middle" x="758.5" y="-320.5" font-family="Helvetica,sans-Serif" font-size="10.00">src/node/rpc/node_frontend.h</text>
</a>
</g>
</g>
<!-- Node1&#45;&gt;Node9 -->
<g id="edge12" class="edge">
<title>Node1&#45;&gt;Node9</title>
<path fill="none" stroke="#63b8ff" d="M795.02,-617.75C783.77,-594.97 766.5,-553.93 766.5,-516.5 766.5,-516.5 766.5,-516.5 766.5,-454 766.5,-408.1 761.47,-353.25 759.39,-332.51"/>
<polygon fill="#63b8ff" stroke="#63b8ff" points="792.01,-619.54 799.69,-626.85 798.24,-616.35 792.01,-619.54"/>
</g>
<!-- Node11 -->
<g id="node11" class="node">
<title>Node11</title>
<g id="a_node11"><a xlink:href="node__interface_8h.html" target="_top" xlink:title=" ">
<polygon fill="white" stroke="#666666" points="1022,-525 861,-525 861,-506 1022,-506 1022,-525"/>
<text text-anchor="middle" x="941.5" y="-513" font-family="Helvetica,sans-Serif" font-size="10.00">src/node/rpc/node_interface.h</text>
</a>
</g>
</g>
<!-- Node1&#45;&gt;Node11 -->
<g id="edge16" class="edge">
<title>Node1&#45;&gt;Node11</title>
<path fill="none" stroke="#63b8ff" d="M822.07,-620.24C851.11,-595.02 908.2,-545.43 931.37,-525.3"/>
<polygon fill="#63b8ff" stroke="#63b8ff" points="819.61,-617.74 814.35,-626.94 824.2,-623.03 819.61,-617.74"/>
</g>
<!-- Node32 -->
<g id="node32" class="node">
<title>Node32</title>
<g id="a_node32"><a xlink:href="node__operation__interface_8h.html" target="_top" xlink:title=" ">
<polygon fill="white" stroke="#666666" points="1081,-591 926,-591 926,-561 1081,-561 1081,-591"/>
<text text-anchor="start" x="934" y="-579" font-family="Helvetica,sans-Serif" font-size="10.00">src/node/rpc/node_operation</text>
<text text-anchor="middle" x="1003.5" y="-568" font-family="Helvetica,sans-Serif" font-size="10.00">_interface.h</text>
</a>
</g>
</g>
<!-- Node1&#45;&gt;Node32 -->
<g id="edge59" class="edge">
<title>Node1&#45;&gt;Node32</title>
<path fill="none" stroke="#63b8ff" d="M843.36,-624.08C875.49,-614.63 921.27,-601.17 955.66,-591.06"/>
<polygon fill="#63b8ff" stroke="#63b8ff" points="842.04,-620.82 833.44,-626.99 844.02,-627.53 842.04,-620.82"/>
</g>
<!-- Node3 -->
<g id="node3" class="node">
<title>Node3</title>
<g id="a_node3"><a xlink:href="src_2enclave_2enclave_8h.html" target="_top" xlink:title=" ">
<polygon fill="white" stroke="#666666" points="835.5,-74 713.5,-74 713.5,-55 835.5,-55 835.5,-74"/>
<text text-anchor="middle" x="774.5" y="-62" font-family="Helvetica,sans-Serif" font-size="10.00">src/enclave/enclave.h</text>
</a>
</g>
</g>
<!-- Node2&#45;&gt;Node3 -->
<g id="edge2" class="edge">
<title>Node2&#45;&gt;Node3</title>
<path fill="none" stroke="#63b8ff" d="M279.78,-311.08C233.76,-299.73 181.7,-278.4 202.5,-242 259.83,-141.67 317.17,-147.43 426.5,-110 523.17,-76.91 642.57,-68.08 713.41,-65.92"/>
<polygon fill="#63b8ff" stroke="#63b8ff" points="279.25,-314.55 289.79,-313.42 280.85,-307.73 279.25,-314.55"/>
</g>
<!-- Node5 -->
<g id="node5" class="node">
<title>Node5</title>
<g id="a_node5"><a xlink:href="ccf__acme__client_8h.html" target="_top" xlink:title=" ">
<polygon fill="white" stroke="#666666" points="618,-266.5 469,-266.5 469,-247.5 618,-247.5 618,-266.5"/>
<text text-anchor="middle" x="543.5" y="-254.5" font-family="Helvetica,sans-Serif" font-size="10.00">src/node/ccf_acme_client.h</text>
</a>
</g>
</g>
<!-- Node2&#45;&gt;Node5 -->
<g id="edge4" class="edge">
<title>Node2&#45;&gt;Node5</title>
<path fill="none" stroke="#63b8ff" d="M377.54,-310.32C417.58,-297.7 480.47,-277.87 516.23,-266.6"/>
<polygon fill="#63b8ff" stroke="#63b8ff" points="376.36,-307.02 367.88,-313.37 378.47,-313.7 376.36,-307.02"/>
</g>
<!-- Node6 -->
<g id="node6" class="node">
<title>Node6</title>
<g id="a_node6"><a xlink:href="node__state_8h.html" target="_top" xlink:title=" ">
<polygon fill="white" stroke="#666666" points="587.5,-200.5 463.5,-200.5 463.5,-181.5 587.5,-181.5 587.5,-200.5"/>
<text text-anchor="middle" x="525.5" y="-188.5" font-family="Helvetica,sans-Serif" font-size="10.00">src/node/node_state.h</text>
</a>
</g>
</g>
<!-- Node2&#45;&gt;Node6 -->
<g id="edge9" class="edge">
<title>Node2&#45;&gt;Node6</title>
<path fill="none" stroke="#63b8ff" d="M355.39,-305.92C371.89,-288.69 399.85,-261.23 427.5,-242 452.43,-224.66 484.2,-209.57 504.69,-200.63"/>
<polygon fill="#63b8ff" stroke="#63b8ff" points="352.57,-303.8 348.26,-313.47 357.66,-308.6 352.57,-303.8"/>
</g>
<!-- Node8 -->
<g id="node8" class="node">
<title>Node8</title>
<g id="a_node8"><a xlink:href="quote__endorsements__client_8h.html" target="_top" xlink:title=" ">
<polygon fill="white" stroke="#666666" points="375.5,-272 211.5,-272 211.5,-242 375.5,-242 375.5,-272"/>
<text text-anchor="start" x="219.5" y="-260" font-family="Helvetica,sans-Serif" font-size="10.00">src/node/quote_endorsements</text>
<text text-anchor="middle" x="293.5" y="-249" font-family="Helvetica,sans-Serif" font-size="10.00">_client.h</text>
</a>
</g>
</g>
<!-- Node2&#45;&gt;Node8 -->
<g id="edge10" class="edge">
<title>Node2&#45;&gt;Node8</title>
<path fill="none" stroke="#63b8ff" d="M328.19,-305.24C320.69,-295.02 311.2,-282.1 304.05,-272.36"/>
<polygon fill="#63b8ff" stroke="#63b8ff" points="325.42,-307.38 334.16,-313.37 331.06,-303.24 325.42,-307.38"/>
</g>
<!-- Node4 -->
<g id="node4" class="node">
<title>Node4</title>
<g id="a_node4"><a xlink:href="enclave_2main_8cpp.html" target="_top" xlink:title=" ">
<polygon fill="white" stroke="#666666" points="834.5,-19 714.5,-19 714.5,0 834.5,0 834.5,-19"/>
<text text-anchor="middle" x="774.5" y="-7" font-family="Helvetica,sans-Serif" font-size="10.00">src/enclave/main.cpp</text>
</a>
</g>
</g>
<!-- Node3&#45;&gt;Node4 -->
<g id="edge3" class="edge">
<title>Node3&#45;&gt;Node4</title>
<path fill="none" stroke="#63b8ff" d="M774.5,-44.66C774.5,-35.93 774.5,-25.99 774.5,-19.09"/>
<polygon fill="#63b8ff" stroke="#63b8ff" points="771,-44.75 774.5,-54.75 778,-44.75 771,-44.75"/>
</g>
<!-- Node5&#45;&gt;Node6 -->
<g id="edge5" class="edge">
<title>Node5&#45;&gt;Node6</title>
<path fill="none" stroke="#63b8ff" d="M538.28,-237.45C534.9,-225.43 530.65,-210.32 528,-200.91"/>
<polygon fill="#63b8ff" stroke="#63b8ff" points="535,-238.69 541.07,-247.37 541.73,-236.79 535,-238.69"/>
</g>
<!-- Node6&#45;&gt;Node3 -->
<g id="edge6" class="edge">
<title>Node6&#45;&gt;Node3</title>
<path fill="none" stroke="#63b8ff" d="M544.54,-175.07C572.44,-153.27 622.16,-114.79 631.5,-110 664.46,-93.08 705.04,-81.21 734.54,-74.01"/>
<polygon fill="#63b8ff" stroke="#63b8ff" points="542.37,-172.32 536.65,-181.24 546.68,-177.84 542.37,-172.32"/>
</g>
<!-- Node7 -->
<g id="node7" class="node">
<title>Node7</title>
<g id="a_node7"><a xlink:href="gov__effects_8h.html" target="_top" xlink:title=" ">
<polygon fill="white" stroke="#666666" points="579.5,-134.5 435.5,-134.5 435.5,-115.5 579.5,-115.5 579.5,-134.5"/>
<text text-anchor="middle" x="507.5" y="-122.5" font-family="Helvetica,sans-Serif" font-size="10.00">src/node/rpc/gov_effects.h</text>
</a>
</g>
</g>
<!-- Node6&#45;&gt;Node7 -->
<g id="edge7" class="edge">
<title>Node6&#45;&gt;Node7</title>
<path fill="none" stroke="#63b8ff" d="M520.28,-171.45C516.9,-159.43 512.65,-144.32 510,-134.91"/>
<polygon fill="#63b8ff" stroke="#63b8ff" points="517,-172.69 523.07,-181.37 523.73,-170.79 517,-172.69"/>
</g>
<!-- Node7&#45;&gt;Node3 -->
<g id="edge8" class="edge">
<title>Node7&#45;&gt;Node3</title>
<path fill="none" stroke="#63b8ff" d="M556.24,-113.32C607.8,-102.02 688.15,-84.42 735.63,-74.02"/>
<polygon fill="#63b8ff" stroke="#63b8ff" points="555.34,-109.93 546.32,-115.49 556.84,-116.77 555.34,-109.93"/>
</g>
<!-- Node8&#45;&gt;Node6 -->
<g id="edge11" class="edge">
<title>Node8&#45;&gt;Node6</title>
<path fill="none" stroke="#63b8ff" d="M354.09,-239.29C399.19,-226.84 458.89,-210.37 494.62,-200.52"/>
<polygon fill="#63b8ff" stroke="#63b8ff" points="353.12,-235.92 344.41,-241.95 354.98,-242.67 353.12,-235.92"/>
</g>
<!-- Node9&#45;&gt;Node3 -->
<g id="edge13" class="edge">
<title>Node9&#45;&gt;Node3</title>
<path fill="none" stroke="#63b8ff" d="M779.11,-307.04C799.07,-290.69 824.19,-263.9 808.5,-242 779.52,-201.56 731.48,-246.44 702.5,-206 694.73,-195.16 702.4,-189.33 702.5,-176 702.72,-146.66 689.1,-135.56 703.5,-110 713.28,-92.64 732.93,-81.11 749.08,-74.15"/>
<polygon fill="#63b8ff" stroke="#63b8ff" points="776.74,-304.45 771.01,-313.36 781.04,-309.97 776.74,-304.45"/>
</g>
<!-- Node10 -->
<g id="node10" class="node">
<title>Node10</title>
<g id="a_node10"><a xlink:href="jwt__key__auto__refresh_8h.html" target="_top" xlink:title=" ">
<polygon fill="white" stroke="#666666" points="799,-272 674,-272 674,-242 799,-242 799,-272"/>
<text text-anchor="start" x="682" y="-260" font-family="Helvetica,sans-Serif" font-size="10.00">src/node/jwt_key_auto</text>
<text text-anchor="middle" x="736.5" y="-249" font-family="Helvetica,sans-Serif" font-size="10.00">_refresh.h</text>
</a>
</g>
</g>
<!-- Node9&#45;&gt;Node10 -->
<g id="edge14" class="edge">
<title>Node9&#45;&gt;Node10</title>
<path fill="none" stroke="#63b8ff" d="M752.2,-303.67C748.78,-293.72 744.62,-281.61 741.44,-272.36"/>
<polygon fill="#63b8ff" stroke="#63b8ff" points="748.97,-305.05 755.53,-313.37 755.59,-302.77 748.97,-305.05"/>
</g>
<!-- Node10&#45;&gt;Node6 -->
<g id="edge15" class="edge">
<title>Node10&#45;&gt;Node6</title>
<path fill="none" stroke="#63b8ff" d="M680.62,-239.05C639.7,-226.64 585.87,-210.31 553.58,-200.52"/>
<polygon fill="#63b8ff" stroke="#63b8ff" points="679.61,-242.4 690.2,-241.95 681.64,-235.7 679.61,-242.4"/>
</g>
<!-- Node11&#45;&gt;Node9 -->
<g id="edge56" class="edge">
<title>Node11&#45;&gt;Node9</title>
<path fill="none" stroke="#63b8ff" d="M905.76,-502.12C888.04,-494.74 867.15,-484.05 851.5,-470 804.75,-428.05 772.35,-357.28 762.03,-332.71"/>
<polygon fill="#63b8ff" stroke="#63b8ff" points="904.63,-505.44 915.22,-505.87 907.22,-498.93 904.63,-505.44"/>
</g>
<!-- Node12 -->
<g id="node12" class="node">
<title>Node12</title>
<g id="a_node12"><a xlink:href="wrap_8cpp.html" target="_top" xlink:title=" ">
<polygon fill="white" stroke="#666666" points="1662,-266.5 1573,-266.5 1573,-247.5 1662,-247.5 1662,-266.5"/>
<text text-anchor="middle" x="1617.5" y="-254.5" font-family="Helvetica,sans-Serif" font-size="10.00">src/js/wrap.cpp</text>
</a>
</g>
</g>
<!-- Node11&#45;&gt;Node12 -->
<g id="edge17" class="edge">
<title>Node11&#45;&gt;Node12</title>
<path fill="none" stroke="#63b8ff" d="M1032.38,-512.69C1256.01,-506.11 1823.24,-475.9 1938.5,-338 1947.05,-327.77 1947.17,-318.13 1938.5,-308 1903.47,-267.09 1742.02,-259.39 1662.3,-258.12"/>
<polygon fill="#63b8ff" stroke="#63b8ff" points="1032.21,-509.19 1022.31,-512.97 1032.41,-516.19 1032.21,-509.19"/>
</g>
<!-- Node13 -->
<g id="node13" class="node">
<title>Node13</title>
<g id="a_node13"><a xlink:href="wrap_8h.html" target="_top" xlink:title=" ">
<polygon fill="white" stroke="#666666" points="1468.5,-398.5 1390.5,-398.5 1390.5,-379.5 1468.5,-379.5 1468.5,-398.5"/>
<text text-anchor="middle" x="1429.5" y="-386.5" font-family="Helvetica,sans-Serif" font-size="10.00">src/js/wrap.h</text>
</a>
</g>
</g>
<!-- Node11&#45;&gt;Node13 -->
<g id="edge18" class="edge">
<title>Node11&#45;&gt;Node13</title>
<path fill="none" stroke="#63b8ff" d="M991.11,-503.78C1030.61,-495.11 1087.23,-482.34 1136.5,-470 1233.17,-445.78 1346.8,-413.72 1399.66,-398.59"/>
<polygon fill="#63b8ff" stroke="#63b8ff" points="990.22,-500.4 981.21,-505.95 991.72,-507.23 990.22,-500.4"/>
</g>
<!-- Node20 -->
<g id="node20" class="node">
<title>Node20</title>
<g id="a_node20"><a xlink:href="member__frontend_8h.html" target="_top" xlink:title=" ">
<polygon fill="white" stroke="#666666" points="1051.5,-338 931.5,-338 931.5,-308 1051.5,-308 1051.5,-338"/>
<text text-anchor="start" x="939.5" y="-326" font-family="Helvetica,sans-Serif" font-size="10.00">src/node/rpc/member</text>
<text text-anchor="middle" x="991.5" y="-315" font-family="Helvetica,sans-Serif" font-size="10.00">_frontend.h</text>
</a>
</g>
</g>
<!-- Node11&#45;&gt;Node20 -->
<g id="edge51" class="edge">
<title>Node11&#45;&gt;Node20</title>
<path fill="none" stroke="#63b8ff" d="M941.57,-495.84C942.21,-468.37 945.51,-415.76 960.5,-374 965.19,-360.93 973.65,-347.63 980.55,-338.04"/>
<polygon fill="#63b8ff" stroke="#63b8ff" points="938.07,-495.93 941.43,-505.98 945.07,-496.02 938.07,-495.93"/>
</g>
<!-- Node21 -->
<g id="node21" class="node">
<title>Node21</title>
<g id="a_node21"><a xlink:href="historical__queries_8h.html" target="_top" xlink:title=" ">
<polygon fill="white" stroke="#666666" points="817.5,-206 711.5,-206 711.5,-176 817.5,-176 817.5,-206"/>
<text text-anchor="start" x="719.5" y="-194" font-family="Helvetica,sans-Serif" font-size="10.00">src/node/historical</text>
<text text-anchor="middle" x="764.5" y="-183" font-family="Helvetica,sans-Serif" font-size="10.00">_queries.h</text>
</a>
</g>
</g>
<!-- Node11&#45;&gt;Node21 -->
<g id="edge35" class="edge">
<title>Node11&#45;&gt;Node21</title>
<path fill="none" stroke="#63b8ff" d="M924,-498.81C901.56,-476.87 865.5,-434.66 865.5,-390 865.5,-390 865.5,-390 865.5,-322 865.5,-270.84 816.12,-227.67 786.42,-206.32"/>
<polygon fill="#63b8ff" stroke="#63b8ff" points="921.89,-501.63 931.56,-505.95 926.69,-496.54 921.89,-501.63"/>
</g>
<!-- Node23 -->
<g id="node23" class="node">
<title>Node23</title>
<g id="a_node23"><a xlink:href="node__configuration__subsystem_8h.html" target="_top" xlink:title=" ">
<polygon fill="white" stroke="#666666" points="726.5,-470 572.5,-470 572.5,-440 726.5,-440 726.5,-470"/>
<text text-anchor="start" x="580.5" y="-458" font-family="Helvetica,sans-Serif" font-size="10.00">src/node/node_configuration</text>
<text text-anchor="middle" x="649.5" y="-447" font-family="Helvetica,sans-Serif" font-size="10.00">_subsystem.h</text>
</a>
</g>
</g>
<!-- Node11&#45;&gt;Node23 -->
<g id="edge39" class="edge">
<title>Node11&#45;&gt;Node23</title>
<path fill="none" stroke="#63b8ff" d="M888.99,-503.98C841.6,-494.49 771.54,-480.45 719.42,-470.01"/>
<polygon fill="#63b8ff" stroke="#63b8ff" points="888.55,-507.46 899.04,-505.99 889.92,-500.6 888.55,-507.46"/>
</g>
<!-- Node27 -->
<g id="node27" class="node">
<title>Node27</title>
<g id="a_node27"><a xlink:href="acme__subsystem_8h.html" target="_top" xlink:title=" ">
<polygon fill="white" stroke="#666666" points="1009,-200.5 836,-200.5 836,-181.5 1009,-181.5 1009,-200.5"/>
<text text-anchor="middle" x="922.5" y="-188.5" font-family="Helvetica,sans-Serif" font-size="10.00">src/node/rpc/acme_subsystem.h</text>
</a>
</g>
</g>
<!-- Node11&#45;&gt;Node27 -->
<g id="edge49" class="edge">
<title>Node11&#45;&gt;Node27</title>
<path fill="none" stroke="#63b8ff" d="M932.34,-496.55C921.1,-472.82 903.5,-429.37 903.5,-390 903.5,-390 903.5,-390 903.5,-322 903.5,-275.93 915.33,-221.62 920.32,-200.76"/>
<polygon fill="#63b8ff" stroke="#63b8ff" points="929.29,-498.29 936.84,-505.72 935.58,-495.2 929.29,-498.29"/>
</g>
<!-- Node28 -->
<g id="node28" class="node">
<title>Node28</title>
<g id="a_node28"><a xlink:href="network__identity__subsystem_8h.html" target="_top" xlink:title=" ">
<polygon fill="white" stroke="#666666" points="1127,-470 1000,-470 1000,-440 1127,-440 1127,-470"/>
<text text-anchor="start" x="1008" y="-458" font-family="Helvetica,sans-Serif" font-size="10.00">src/node/rpc/network</text>
<text text-anchor="middle" x="1063.5" y="-447" font-family="Helvetica,sans-Serif" font-size="10.00">_identity_subsystem.h</text>
</a>
</g>
</g>
<!-- Node11&#45;&gt;Node28 -->
<g id="edge52" class="edge">
<title>Node11&#45;&gt;Node28</title>
<path fill="none" stroke="#63b8ff" d="M968.43,-501.59C987.81,-492.29 1013.97,-479.75 1033.93,-470.18"/>
<polygon fill="#63b8ff" stroke="#63b8ff" points="966.74,-498.51 959.24,-505.99 969.77,-504.83 966.74,-498.51"/>
</g>
<!-- Node31 -->
<g id="node31" class="node">
<title>Node31</title>
<g id="a_node31"><a xlink:href="node__operation_8h.html" target="_top" xlink:title=" ">
<polygon fill="white" stroke="#666666" points="2136.5,-464.5 1972.5,-464.5 1972.5,-445.5 2136.5,-445.5 2136.5,-464.5"/>
<text text-anchor="middle" x="2054.5" y="-452.5" font-family="Helvetica,sans-Serif" font-size="10.00">src/node/rpc/node_operation.h</text>
</a>
</g>
</g>
<!-- Node11&#45;&gt;Node31 -->
<g id="edge57" class="edge">
<title>Node11&#45;&gt;Node31</title>
<path fill="none" stroke="#63b8ff" d="M1032.22,-513.6C1210.22,-511.16 1617.62,-502.23 1958.5,-470 1972.92,-468.64 1988.49,-466.61 2002.8,-464.52"/>
<polygon fill="#63b8ff" stroke="#63b8ff" points="1032.06,-510.1 1022.11,-513.74 1032.16,-517.1 1032.06,-510.1"/>
</g>
<!-- Node13&#45;&gt;Node3 -->
<g id="edge20" class="edge">
<title>Node13&#45;&gt;Node3</title>
<path fill="none" stroke="#63b8ff" d="M1478.83,-388.26C1590.95,-388.05 1861.19,-382.76 1938.5,-338 1976.28,-316.12 1995.5,-301.66 1995.5,-258 1995.5,-258 1995.5,-258 1995.5,-190 1995.5,-72.14 1083.48,-65.01 835.89,-65.24"/>
<polygon fill="#63b8ff" stroke="#63b8ff" points="1478.8,-384.76 1468.8,-388.27 1478.8,-391.76 1478.8,-384.76"/>
</g>
<!-- Node13&#45;&gt;Node6 -->
<g id="edge31" class="edge">
<title>Node13&#45;&gt;Node6</title>
<path fill="none" stroke="#63b8ff" d="M1379.94,-382.72C1321.11,-375.72 1220.42,-361.45 1136.5,-338 1101.53,-328.23 1095.02,-319.29 1060.5,-308 950.46,-272.01 921.6,-266.76 808.5,-242 730.27,-224.88 638.9,-209.57 581.61,-200.53"/>
<polygon fill="#63b8ff" stroke="#63b8ff" points="1379.73,-386.22 1390.07,-383.9 1380.54,-379.26 1379.73,-386.22"/>
</g>
<!-- Node13&#45;&gt;Node9 -->
<g id="edge34" class="edge">
<title>Node13&#45;&gt;Node9</title>
<path fill="none" stroke="#63b8ff" d="M1380.07,-383.29C1264.81,-372.29 977.42,-344.88 837.51,-331.54"/>
<polygon fill="#63b8ff" stroke="#63b8ff" points="1379.74,-386.77 1390.03,-384.24 1380.41,-379.8 1379.74,-386.77"/>
</g>
<!-- Node13&#45;&gt;Node12 -->
<g id="edge30" class="edge">
<title>Node13&#45;&gt;Node12</title>
<path fill="none" stroke="#63b8ff" d="M1479.1,-383.01C1533.99,-376.34 1617.27,-362.43 1636.5,-338 1653.37,-316.58 1634.49,-282.59 1623.81,-266.71"/>
<polygon fill="#63b8ff" stroke="#63b8ff" points="1478.39,-379.57 1468.86,-384.21 1479.2,-386.52 1478.39,-379.57"/>
</g>
<!-- Node14 -->
<g id="node14" class="node">
<title>Node14</title>
<g id="a_node14"><a xlink:href="js__generic__base_8cpp.html" target="_top" xlink:title=" ">
<polygon fill="white" stroke="#666666" points="1929.5,-338 1811.5,-338 1811.5,-308 1929.5,-308 1929.5,-338"/>
<text text-anchor="start" x="1819.5" y="-326" font-family="Helvetica,sans-Serif" font-size="10.00">src/apps/js_generic</text>
<text text-anchor="middle" x="1870.5" y="-315" font-family="Helvetica,sans-Serif" font-size="10.00">/js_generic_base.cpp</text>
</a>
</g>
</g>
<!-- Node13&#45;&gt;Node14 -->
<g id="edge19" class="edge">
<title>Node13&#45;&gt;Node14</title>
<path fill="none" stroke="#63b8ff" d="M1478.63,-382.52C1550.13,-374.3 1686.92,-357.62 1802.5,-338 1805.35,-337.52 1808.27,-337 1811.21,-336.46"/>
<polygon fill="#63b8ff" stroke="#63b8ff" points="1478.1,-379.06 1468.57,-383.67 1478.9,-386.01 1478.1,-379.06"/>
</g>
<!-- Node15 -->
<g id="node15" class="node">
<title>Node15</title>
<g id="a_node15"><a xlink:href="consensus_8cpp.html" target="_top" xlink:title=" ">
<polygon fill="white" stroke="#666666" points="1261.5,-332.5 1145.5,-332.5 1145.5,-313.5 1261.5,-313.5 1261.5,-332.5"/>
<text text-anchor="middle" x="1203.5" y="-320.5" font-family="Helvetica,sans-Serif" font-size="10.00">src/js/consensus.cpp</text>
</a>
</g>
</g>
<!-- Node13&#45;&gt;Node15 -->
<g id="edge21" class="edge">
<title>Node13&#45;&gt;Node15</title>
<path fill="none" stroke="#63b8ff" d="M1389.4,-376.64C1344.87,-364.03 1274.01,-343.97 1233.86,-332.6"/>
<polygon fill="#63b8ff" stroke="#63b8ff" points="1388.45,-380.01 1399.02,-379.37 1390.35,-373.28 1388.45,-380.01"/>
</g>
<!-- Node16 -->
<g id="node16" class="node">
<title>Node16</title>
<g id="a_node16"><a xlink:href="conv_8cpp.html" target="_top" xlink:title=" ">
<polygon fill="white" stroke="#666666" points="1513.5,-332.5 1425.5,-332.5 1425.5,-313.5 1513.5,-313.5 1513.5,-332.5"/>
<text text-anchor="middle" x="1469.5" y="-320.5" font-family="Helvetica,sans-Serif" font-size="10.00">src/js/conv.cpp</text>
</a>
</g>
</g>
<!-- Node13&#45;&gt;Node16 -->
<g id="edge23" class="edge">
<title>Node13&#45;&gt;Node16</title>
<path fill="none" stroke="#63b8ff" d="M1440.41,-370.55C1448.02,-358.36 1457.87,-342.61 1463.93,-332.91"/>
<polygon fill="#63b8ff" stroke="#63b8ff" points="1437.23,-369.03 1434.89,-379.37 1443.16,-372.74 1437.23,-369.03"/>
</g>
<!-- Node17 -->
<g id="node17" class="node">
<title>Node17</title>
<g id="a_node17"><a xlink:href="crypto_8cpp.html" target="_top" xlink:title=" ">
<polygon fill="white" stroke="#666666" points="1627.5,-332.5 1531.5,-332.5 1531.5,-313.5 1627.5,-313.5 1627.5,-332.5"/>
<text text-anchor="middle" x="1579.5" y="-320.5" font-family="Helvetica,sans-Serif" font-size="10.00">src/js/crypto.cpp</text>
</a>
</g>
</g>
<!-- Node13&#45;&gt;Node17 -->
<g id="edge25" class="edge">
<title>Node13&#45;&gt;Node17</title>
<path fill="none" stroke="#63b8ff" d="M1459.13,-375.36C1488.69,-362.75 1533.31,-343.71 1559.11,-332.7"/>
<polygon fill="#63b8ff" stroke="#63b8ff" points="1457.55,-372.23 1449.73,-379.37 1460.3,-378.66 1457.55,-372.23"/>
</g>
<!-- Node18 -->
<g id="node18" class="node">
<title>Node18</title>
<g id="a_node18"><a xlink:href="historical_8cpp.html" target="_top" xlink:title=" ">
<polygon fill="white" stroke="#666666" points="1793.5,-332.5 1683.5,-332.5 1683.5,-313.5 1793.5,-313.5 1793.5,-332.5"/>
<text text-anchor="middle" x="1738.5" y="-320.5" font-family="Helvetica,sans-Serif" font-size="10.00">src/js/historical.cpp</text>
</a>
</g>
</g>
<!-- Node13&#45;&gt;Node18 -->
<g id="edge27" class="edge">
<title>Node13&#45;&gt;Node18</title>
<path fill="none" stroke="#63b8ff" d="M1478.7,-377.81C1539.15,-365.29 1640.65,-344.27 1697.23,-332.55"/>
<polygon fill="#63b8ff" stroke="#63b8ff" points="1477.72,-374.44 1468.64,-379.89 1479.14,-381.29 1477.72,-374.44"/>
</g>
<!-- Node19 -->
<g id="node19" class="node">
<title>Node19</title>
<g id="a_node19"><a xlink:href="openenclave_8cpp.html" target="_top" xlink:title=" ">
<polygon fill="white" stroke="#666666" points="1407.5,-332.5 1279.5,-332.5 1279.5,-313.5 1407.5,-313.5 1407.5,-332.5"/>
<text text-anchor="middle" x="1343.5" y="-320.5" font-family="Helvetica,sans-Serif" font-size="10.00">src/js/openenclave.cpp</text>
</a>
</g>
</g>
<!-- Node13&#45;&gt;Node19 -->
<g id="edge29" class="edge">
<title>Node13&#45;&gt;Node19</title>
<path fill="none" stroke="#63b8ff" d="M1409.79,-373.33C1392.93,-360.78 1369.21,-343.13 1355.19,-332.7"/>
<polygon fill="#63b8ff" stroke="#63b8ff" points="1407.79,-376.21 1417.9,-379.37 1411.97,-370.59 1407.79,-376.21"/>
</g>
<!-- Node13&#45;&gt;Node20 -->
<g id="edge32" class="edge">
<title>Node13&#45;&gt;Node20</title>
<path fill="none" stroke="#63b8ff" d="M1380.33,-380.81C1299.52,-369.01 1138.92,-345.54 1051.53,-332.77"/>
<polygon fill="#63b8ff" stroke="#63b8ff" points="1379.84,-384.28 1390.24,-382.26 1380.86,-377.35 1379.84,-384.28"/>
</g>
<!-- Node15&#45;&gt;Node12 -->
<g id="edge22" class="edge">
<title>Node15&#45;&gt;Node12</title>
<path fill="none" stroke="#63b8ff" d="M1252.48,-311.4C1258.53,-310.19 1264.65,-309.03 1270.5,-308 1378.69,-288.92 1506.82,-271.89 1572.99,-263.5"/>
<polygon fill="#63b8ff" stroke="#63b8ff" points="1251.5,-308.02 1242.39,-313.44 1252.89,-314.88 1251.5,-308.02"/>
</g>
<!-- Node16&#45;&gt;Node12 -->
<g id="edge24" class="edge">
<title>Node16&#45;&gt;Node12</title>
<path fill="none" stroke="#63b8ff" d="M1498.73,-309.36C1527.9,-296.75 1571.93,-277.71 1597.38,-266.7"/>
<polygon fill="#63b8ff" stroke="#63b8ff" points="1497.25,-306.19 1489.46,-313.37 1500.03,-312.61 1497.25,-306.19"/>
</g>
<!-- Node17&#45;&gt;Node12 -->
<g id="edge26" class="edge">
<title>Node17&#45;&gt;Node12</title>
<path fill="none" stroke="#63b8ff" d="M1589.86,-304.55C1597.1,-292.36 1606.45,-276.61 1612.21,-266.91"/>
<polygon fill="#63b8ff" stroke="#63b8ff" points="1586.72,-302.98 1584.62,-313.37 1592.74,-306.56 1586.72,-302.98"/>
</g>
<!-- Node18&#45;&gt;Node12 -->
<g id="edge28" class="edge">
<title>Node18&#45;&gt;Node12</title>
<path fill="none" stroke="#63b8ff" d="M1713.03,-308.53C1689.2,-295.92 1654.3,-277.47 1633.95,-266.7"/>
<polygon fill="#63b8ff" stroke="#63b8ff" points="1711.71,-311.79 1722.18,-313.37 1714.98,-305.6 1711.71,-311.79"/>
</g>
<!-- Node20&#45;&gt;Node3 -->
<g id="edge33" class="edge">
<title>Node20&#45;&gt;Node3</title>
<path fill="none" stroke="#63b8ff" d="M1004.95,-298.99C1020.76,-268.61 1042.05,-214.49 1018.5,-176 979.74,-112.63 894.34,-85.32 835.6,-73.74"/>
<polygon fill="#63b8ff" stroke="#63b8ff" points="1001.77,-297.51 1000.08,-307.96 1007.92,-300.85 1001.77,-297.51"/>
</g>
<!-- Node21&#45;&gt;Node3 -->
<g id="edge36" class="edge">
<title>Node21&#45;&gt;Node3</title>
<path fill="none" stroke="#63b8ff" d="M813.52,-170.95C826.56,-163.37 839.07,-153.23 846.5,-140 853.03,-128.37 852.99,-121.65 846.5,-110 836.7,-92.42 816.77,-80.91 800.35,-74.01"/>
<polygon fill="#63b8ff" stroke="#63b8ff" points="811.64,-167.99 804.47,-175.79 814.94,-174.16 811.64,-167.99"/>
</g>
<!-- Node22 -->
<g id="node22" class="node">
<title>Node22</title>
<g id="a_node22"><a xlink:href="historical__transaction__fetcher_8h.html" target="_top" xlink:title=" ">
<polygon fill="white" stroke="#666666" points="837,-140 712,-140 712,-110 837,-110 837,-140"/>
<text text-anchor="start" x="720" y="-128" font-family="Helvetica,sans-Serif" font-size="10.00">src/indexing/historical</text>
<text text-anchor="middle" x="774.5" y="-117" font-family="Helvetica,sans-Serif" font-size="10.00">_transaction_fetcher.h</text>
</a>
</g>
</g>
<!-- Node21&#45;&gt;Node22 -->
<g id="edge37" class="edge">
<title>Node21&#45;&gt;Node22</title>
<path fill="none" stroke="#63b8ff" d="M768.28,-165.83C769.63,-157.17 771.11,-147.7 772.29,-140.16"/>
<polygon fill="#63b8ff" stroke="#63b8ff" points="764.81,-165.38 766.72,-175.8 771.72,-166.46 764.81,-165.38"/>
</g>
<!-- Node22&#45;&gt;Node3 -->
<g id="edge38" class="edge">
<title>Node22&#45;&gt;Node3</title>
<path fill="none" stroke="#63b8ff" d="M774.5,-99.75C774.5,-90.72 774.5,-81.03 774.5,-74.27"/>
<polygon fill="#63b8ff" stroke="#63b8ff" points="771,-99.84 774.5,-109.84 778,-99.84 771,-99.84"/>
</g>
<!-- Node24 -->
<g id="node24" class="node">
<title>Node24</title>
<g id="a_node24"><a xlink:href="frontend_8h.html" target="_top" xlink:title=" ">
<polygon fill="white" stroke="#666666" points="695,-398.5 566,-398.5 566,-379.5 695,-379.5 695,-398.5"/>
<text text-anchor="middle" x="630.5" y="-386.5" font-family="Helvetica,sans-Serif" font-size="10.00">src/node/rpc/frontend.h</text>
</a>
</g>
</g>
<!-- Node23&#45;&gt;Node24 -->
<g id="edge40" class="edge">
<title>Node23&#45;&gt;Node24</title>
<path fill="none" stroke="#63b8ff" d="M642.36,-429.94C639.13,-419.06 635.51,-406.86 633.13,-398.84"/>
<polygon fill="#63b8ff" stroke="#63b8ff" points="639.08,-431.21 645.28,-439.8 645.79,-429.21 639.08,-431.21"/>
</g>
<!-- Node24&#45;&gt;Node6 -->
<g id="edge44" class="edge">
<title>Node24&#45;&gt;Node6</title>
<path fill="none" stroke="#63b8ff" d="M589.63,-376.36C565.59,-368.19 535.5,-355.56 512.5,-338 482.82,-315.34 472.73,-307.28 460.5,-272 456.13,-259.4 454.61,-253.96 460.5,-242 470,-222.71 490.9,-208.78 506.46,-200.6"/>
<polygon fill="#63b8ff" stroke="#63b8ff" points="588.6,-379.7 599.19,-379.48 590.77,-373.05 588.6,-379.7"/>
</g>
<!-- Node24&#45;&gt;Node9 -->
<g id="edge46" class="edge">
<title>Node24&#45;&gt;Node9</title>
<path fill="none" stroke="#63b8ff" d="M656.78,-374.86C682,-362.25 719.37,-343.56 741.1,-332.7"/>
<polygon fill="#63b8ff" stroke="#63b8ff" points="655.14,-371.77 647.76,-379.37 658.27,-378.03 655.14,-371.77"/>
</g>
<!-- Node24&#45;&gt;Node20 -->
<g id="edge45" class="edge">
<title>Node24&#45;&gt;Node20</title>
<path fill="none" stroke="#63b8ff" d="M688.73,-377.68C755.4,-365.86 864.05,-346.59 931.46,-334.64"/>
<polygon fill="#63b8ff" stroke="#63b8ff" points="688.05,-374.24 678.81,-379.44 689.27,-381.14 688.05,-374.24"/>
</g>
<!-- Node25 -->
<g id="node25" class="node">
<title>Node25</title>
<g id="a_node25"><a xlink:href="acme__challenge__frontend_8h.html" target="_top" xlink:title=" ">
<polygon fill="white" stroke="#666666" points="661.5,-338 521.5,-338 521.5,-308 661.5,-308 661.5,-338"/>
<text text-anchor="start" x="529.5" y="-326" font-family="Helvetica,sans-Serif" font-size="10.00">src/node/acme_challenge</text>
<text text-anchor="middle" x="591.5" y="-315" font-family="Helvetica,sans-Serif" font-size="10.00">_frontend.h</text>
</a>
</g>
</g>
<!-- Node24&#45;&gt;Node25 -->
<g id="edge41" class="edge">
<title>Node24&#45;&gt;Node25</title>
<path fill="none" stroke="#63b8ff" d="M619.9,-370.61C613.74,-360.5 606.07,-347.91 600.25,-338.36"/>
<polygon fill="#63b8ff" stroke="#63b8ff" points="617.05,-372.65 625.24,-379.37 623.03,-369.01 617.05,-372.65"/>
</g>
<!-- Node26 -->
<g id="node26" class="node">
<title>Node26</title>
<g id="a_node26"><a xlink:href="user__frontend_8h.html" target="_top" xlink:title=" ">
<polygon fill="white" stroke="#666666" points="155,-134.5 0,-134.5 0,-115.5 155,-115.5 155,-134.5"/>
<text text-anchor="middle" x="77.5" y="-122.5" font-family="Helvetica,sans-Serif" font-size="10.00">src/node/rpc/user_frontend.h</text>
</a>
</g>
</g>
<!-- Node24&#45;&gt;Node26 -->
<g id="edge47" class="edge">
<title>Node24&#45;&gt;Node26</title>
<path fill="none" stroke="#63b8ff" d="M555.64,-383.67C462.38,-377.29 309.14,-363.3 258.5,-338 163.26,-290.42 98.04,-168.05 81.58,-134.58"/>
<polygon fill="#63b8ff" stroke="#63b8ff" points="555.65,-387.18 565.86,-384.35 556.12,-380.19 555.65,-387.18"/>
</g>
<!-- Node25&#45;&gt;Node3 -->
<g id="edge42" class="edge">
<title>Node25&#45;&gt;Node3</title>
<path fill="none" stroke="#63b8ff" d="M609.4,-299.6C615.6,-291.23 622.3,-281.46 627.5,-272 664.88,-204.02 640.9,-167.94 692.5,-110 707.69,-92.94 731.02,-81.18 748.92,-74.05"/>
<polygon fill="#63b8ff" stroke="#63b8ff" points="606.47,-297.67 603.19,-307.74 612.04,-301.91 606.47,-297.67"/>
</g>
<!-- Node25&#45;&gt;Node5 -->
<g id="edge43" class="edge">
<title>Node25&#45;&gt;Node5</title>
<path fill="none" stroke="#63b8ff" d="M574.71,-299.61C566.24,-288.32 556.46,-275.28 550.13,-266.84"/>
<polygon fill="#63b8ff" stroke="#63b8ff" points="572.05,-301.9 580.85,-307.8 577.65,-297.7 572.05,-301.9"/>
</g>
<!-- Node26&#45;&gt;Node3 -->
<g id="edge48" class="edge">
<title>Node26&#45;&gt;Node3</title>
<path fill="none" stroke="#63b8ff" d="M139.02,-113.96C149.19,-112.5 159.63,-111.11 169.5,-110 367.82,-87.65 604.04,-74.01 713.38,-68.42"/>
<polygon fill="#63b8ff" stroke="#63b8ff" points="138.37,-110.52 128.98,-115.45 139.39,-117.45 138.37,-110.52"/>
</g>
<!-- Node27&#45;&gt;Node3 -->
<g id="edge50" class="edge">
<title>Node27&#45;&gt;Node3</title>
<path fill="none" stroke="#63b8ff" d="M912.72,-172.6C902.16,-155.02 883.94,-127.98 862.5,-110 843.21,-93.83 817.06,-81.56 798.29,-74.04"/>
<polygon fill="#63b8ff" stroke="#63b8ff" points="909.72,-174.39 917.77,-181.27 915.77,-170.86 909.72,-174.39"/>
</g>
<!-- Node28&#45;&gt;Node3 -->
<g id="edge54" class="edge">
<title>Node28&#45;&gt;Node3</title>
<path fill="none" stroke="#63b8ff" d="M1137.01,-437.93C1192.7,-425.41 1260.37,-409.29 1264.5,-404 1272.71,-393.5 1272.55,-384.63 1264.5,-374 1228.82,-326.89 1183.69,-373.57 1136.5,-338 1038.05,-263.79 1084.73,-172.57 978.5,-110 934.93,-84.34 878.27,-73.43 835.72,-68.81"/>
<polygon fill="#63b8ff" stroke="#63b8ff" points="1136.11,-434.55 1127.12,-440.15 1137.64,-441.38 1136.11,-434.55"/>
</g>
<!-- Node29 -->
<g id="node29" class="node">
<title>Node29</title>
<g id="a_node29"><a xlink:href="external__executor_8cpp.html" target="_top" xlink:title=" ">
<polygon fill="white" stroke="#666666" points="1255.5,-404 1107.5,-404 1107.5,-374 1255.5,-374 1255.5,-404"/>
<text text-anchor="start" x="1115.5" y="-392" font-family="Helvetica,sans-Serif" font-size="10.00">src/apps/external_executor</text>
<text text-anchor="middle" x="1181.5" y="-381" font-family="Helvetica,sans-Serif" font-size="10.00">/external_executor.cpp</text>
</a>
</g>
</g>
<!-- Node28&#45;&gt;Node29 -->
<g id="edge53" class="edge">
<title>Node28&#45;&gt;Node29</title>
<path fill="none" stroke="#63b8ff" d="M1098.34,-435.11C1116.7,-425.14 1138.85,-413.13 1155.66,-404.01"/>
<polygon fill="#63b8ff" stroke="#63b8ff" points="1096.52,-432.11 1089.4,-439.95 1099.85,-438.26 1096.52,-432.11"/>
</g>
<!-- Node30 -->
<g id="node30" class="node">
<title>Node30</title>
<g id="a_node30"><a xlink:href="historical__queries__adapter_8cpp.html" target="_top" xlink:title=" ">
<polygon fill="white" stroke="#666666" points="1089.5,-404 969.5,-404 969.5,-374 1089.5,-374 1089.5,-404"/>
<text text-anchor="start" x="977.5" y="-392" font-family="Helvetica,sans-Serif" font-size="10.00">src/node/historical</text>
<text text-anchor="middle" x="1029.5" y="-381" font-family="Helvetica,sans-Serif" font-size="10.00">_queries_adapter.cpp</text>
</a>
</g>
</g>
<!-- Node28&#45;&gt;Node30 -->
<g id="edge55" class="edge">
<title>Node28&#45;&gt;Node30</title>
<path fill="none" stroke="#63b8ff" d="M1051.26,-430.96C1046.5,-422 1041.2,-412.03 1037.02,-404.16"/>
<polygon fill="#63b8ff" stroke="#63b8ff" points="1048.17,-432.61 1055.95,-439.8 1054.35,-429.32 1048.17,-432.61"/>
</g>
<!-- Node31&#45;&gt;Node3 -->
<g id="edge58" class="edge">
<title>Node31&#45;&gt;Node3</title>
<path fill="none" stroke="#63b8ff" d="M2053.56,-435.17C2052.37,-409.88 2050.5,-363.57 2050.5,-324 2050.5,-324 2050.5,-324 2050.5,-190 2050.5,-100.01 1952.25,-129.95 1864.5,-110 1666.43,-64.98 1035.03,-64.16 835.53,-65.08"/>
<polygon fill="#63b8ff" stroke="#63b8ff" points="2050.08,-435.67 2054.06,-445.49 2057.07,-435.33 2050.08,-435.67"/>
</g>
<!-- Node32&#45;&gt;Node11 -->
<g id="edge61" class="edge">
<title>Node32&#45;&gt;Node11</title>
<path fill="none" stroke="#63b8ff" d="M981.2,-553.96C970.72,-544.07 958.81,-532.83 950.79,-525.27"/>
<polygon fill="#63b8ff" stroke="#63b8ff" points="978.82,-556.52 988.49,-560.84 983.62,-551.43 978.82,-556.52"/>
</g>
<!-- Node32&#45;&gt;Node20 -->
<g id="edge60" class="edge">
<title>Node32&#45;&gt;Node20</title>
<path fill="none" stroke="#63b8ff" d="M1062.07,-557.9C1158.66,-526.85 1334.11,-456.7 1264.5,-374 1234.29,-338.11 1102.55,-346.94 1056.5,-338 1054.91,-337.69 1053.31,-337.38 1051.68,-337.05"/>
<polygon fill="#63b8ff" stroke="#63b8ff" points="1060.88,-554.6 1052.41,-560.96 1063,-561.28 1060.88,-554.6"/>
</g>
<!-- Node32&#45;&gt;Node31 -->
<g id="edge62" class="edge">
<title>Node32&#45;&gt;Node31</title>
<path fill="none" stroke="#63b8ff" d="M1091.34,-566.39C1259.76,-549.65 1639.69,-510.76 1958.5,-470 1971.45,-468.34 1985.35,-466.41 1998.45,-464.51"/>
<polygon fill="#63b8ff" stroke="#63b8ff" points="1090.89,-562.92 1081.29,-567.39 1091.58,-569.88 1090.89,-562.92"/>
</g>
</g>
</svg>
