<?xml version="1.0" encoding="UTF-8" standalone="no"?>
<!DOCTYPE svg PUBLIC "-//W3C//DTD SVG 1.1//EN"
 "http://www.w3.org/Graphics/SVG/1.1/DTD/svg11.dtd">
<!-- Generated by graphviz version 2.43.0 (0)
 -->
<!-- Title: src/host/sig_term.h Pages: 1 -->
<svg width="1913pt" height="522pt"
 viewBox="0.00 0.00 1912.78 522.00" xmlns="http://www.w3.org/2000/svg" xmlns:xlink="http://www.w3.org/1999/xlink">
<g id="graph0" class="graph" transform="scale(1 1) rotate(0) translate(4 518)">
<title>src/host/sig_term.h</title>
<!-- Node1 -->
<g id="node1" class="node">
<title>Node1</title>
<g id="a_node1"><a xlink:title=" ">
<polygon fill="#999999" stroke="#666666" points="440.78,-514 330.78,-514 330.78,-495 440.78,-495 440.78,-514"/>
<text text-anchor="middle" x="385.78" y="-502" font-family="Helvetica,sans-Serif" font-size="10.00">src/host/sig_term.h</text>
</a>
</g>
</g>
<!-- Node2 -->
<g id="node2" class="node">
<title>Node2</title>
<g id="a_node2"><a xlink:href="src_2host_2enclave_8h.html" target="_top" xlink:title=" ">
<polygon fill="white" stroke="#666666" points="600.78,-459 536.78,-459 536.78,-440 600.78,-440 600.78,-459"/>
<text text-anchor="middle" x="568.78" y="-447" font-family="Helvetica,sans-Serif" font-size="10.00">enclave.h</text>
</a>
</g>
</g>
<!-- Node1&#45;&gt;Node2 -->
<g id="edge1" class="edge">
<title>Node1&#45;&gt;Node2</title>
<path fill="none" stroke="#63b8ff" d="M415.18,-494.98C446.17,-486.01 495.15,-471.82 529.45,-461.89"/>
<polygon fill="#63b8ff" stroke="#63b8ff" points="530.51,-465.23 539.14,-459.08 528.56,-458.5 530.51,-465.23"/>
</g>
<!-- Node49 -->
<g id="node49" class="node">
<title>Node49</title>
<g id="a_node49"><a xlink:title=" ">
<polygon fill="#e0e0e0" stroke="#999999" points="410.78,-349 360.78,-349 360.78,-330 410.78,-330 410.78,-349"/>
<text text-anchor="middle" x="385.78" y="-337" font-family="Helvetica,sans-Serif" font-size="10.00">chrono</text>
</a>
</g>
</g>
<!-- Node1&#45;&gt;Node49 -->
<g id="edge88" class="edge">
<title>Node1&#45;&gt;Node49</title>
<path fill="none" stroke="#63b8ff" d="M385.78,-494.74C385.78,-469.31 385.78,-395.08 385.78,-359.69"/>
<polygon fill="#63b8ff" stroke="#63b8ff" points="389.28,-359.31 385.78,-349.31 382.28,-359.31 389.28,-359.31"/>
</g>
<!-- Node52 -->
<g id="node52" class="node">
<title>Node52</title>
<g id="a_node52"><a xlink:href="signal_8h.html" target="_top" xlink:title=" ">
<polygon fill="white" stroke="#666666" points="357.28,-404 302.28,-404 302.28,-385 357.28,-385 357.28,-404"/>
<text text-anchor="middle" x="329.78" y="-392" font-family="Helvetica,sans-Serif" font-size="10.00">signal.h</text>
</a>
</g>
</g>
<!-- Node1&#45;&gt;Node52 -->
<g id="edge83" class="edge">
<title>Node1&#45;&gt;Node52</title>
<path fill="none" stroke="#63b8ff" d="M381.19,-494.66C372,-476.93 351.15,-436.73 339.02,-413.32"/>
<polygon fill="#63b8ff" stroke="#63b8ff" points="341.98,-411.42 334.27,-404.16 335.76,-414.65 341.98,-411.42"/>
</g>
<!-- Node3 -->
<g id="node3" class="node">
<title>Node3</title>
<g id="a_node3"><a xlink:href="logger_8h.html" target="_top" xlink:title=" ">
<polygon fill="white" stroke="#666666" points="1328.28,-239 1241.28,-239 1241.28,-220 1328.28,-220 1328.28,-239"/>
<text text-anchor="middle" x="1284.78" y="-227" font-family="Helvetica,sans-Serif" font-size="10.00">ccf/ds/logger.h</text>
</a>
</g>
</g>
<!-- Node2&#45;&gt;Node3 -->
<g id="edge2" class="edge">
<title>Node2&#45;&gt;Node3</title>
<path fill="none" stroke="#63b8ff" d="M596.84,-439.95C708.24,-406.04 1119.27,-280.89 1246.79,-242.07"/>
<polygon fill="#63b8ff" stroke="#63b8ff" points="1247.97,-245.37 1256.51,-239.1 1245.93,-238.67 1247.97,-245.37"/>
</g>
<!-- Node18 -->
<g id="node18" class="node">
<title>Node18</title>
<g id="a_node18"><a xlink:title=" ">
<polygon fill="#e0e0e0" stroke="#999999" points="1149.28,-404 1070.28,-404 1070.28,-385 1149.28,-385 1149.28,-404"/>
<text text-anchor="middle" x="1109.78" y="-392" font-family="Helvetica,sans-Serif" font-size="10.00">ccf/version.h</text>
</a>
</g>
</g>
<!-- Node2&#45;&gt;Node18 -->
<g id="edge19" class="edge">
<title>Node2&#45;&gt;Node18</title>
<path fill="none" stroke="#63b8ff" d="M601.05,-446.28C679.24,-440.74 884.95,-425.23 1055.78,-404 1057.07,-403.84 1058.39,-403.67 1059.71,-403.5"/>
<polygon fill="#63b8ff" stroke="#63b8ff" points="1060.58,-406.91 1070.01,-402.06 1059.62,-399.98 1060.58,-406.91"/>
</g>
<!-- Node19 -->
<g id="node19" class="node">
<title>Node19</title>
<g id="a_node19"><a xlink:href="interface_8h.html" target="_top" xlink:title=" ">
<polygon fill="white" stroke="#666666" points="677.78,-404 567.78,-404 567.78,-385 677.78,-385 677.78,-404"/>
<text text-anchor="middle" x="622.78" y="-392" font-family="Helvetica,sans-Serif" font-size="10.00">enclave/interface.h</text>
</a>
</g>
</g>
<!-- Node2&#45;&gt;Node19 -->
<g id="edge20" class="edge">
<title>Node2&#45;&gt;Node19</title>
<path fill="none" stroke="#63b8ff" d="M577.69,-439.75C585.56,-432.03 597.21,-420.6 606.69,-411.28"/>
<polygon fill="#63b8ff" stroke="#63b8ff" points="609.34,-413.59 614.02,-404.09 604.44,-408.6 609.34,-413.59"/>
</g>
<!-- Node50 -->
<g id="node50" class="node">
<title>Node50</title>
<g id="a_node50"><a xlink:title=" ">
<polygon fill="#e0e0e0" stroke="#999999" points="463.78,-404 413.78,-404 413.78,-385 463.78,-385 463.78,-404"/>
<text text-anchor="middle" x="438.78" y="-392" font-family="Helvetica,sans-Serif" font-size="10.00">dlfcn.h</text>
</a>
</g>
</g>
<!-- Node2&#45;&gt;Node50 -->
<g id="edge81" class="edge">
<title>Node2&#45;&gt;Node50</title>
<path fill="none" stroke="#63b8ff" d="M547.89,-439.98C526.69,-431.34 493.65,-417.87 469.48,-408.02"/>
<polygon fill="#63b8ff" stroke="#63b8ff" points="470.62,-404.7 460.04,-404.17 467.98,-411.19 470.62,-404.7"/>
</g>
<!-- Node51 -->
<g id="node51" class="node">
<title>Node51</title>
<g id="a_node51"><a xlink:title=" ">
<polygon fill="#e0e0e0" stroke="#999999" points="549.78,-404 481.78,-404 481.78,-385 549.78,-385 549.78,-404"/>
<text text-anchor="middle" x="515.78" y="-392" font-family="Helvetica,sans-Serif" font-size="10.00">filesystem</text>
</a>
</g>
</g>
<!-- Node2&#45;&gt;Node51 -->
<g id="edge82" class="edge">
<title>Node2&#45;&gt;Node51</title>
<path fill="none" stroke="#63b8ff" d="M560.02,-439.75C552.31,-432.03 540.87,-420.6 531.56,-411.28"/>
<polygon fill="#63b8ff" stroke="#63b8ff" points="533.91,-408.69 524.37,-404.09 528.96,-413.64 533.91,-408.69"/>
</g>
<!-- Node4 -->
<g id="node4" class="node">
<title>Node4</title>
<g id="a_node4"><a xlink:href="enum__formatter_8h.html" target="_top" xlink:title=" ">
<polygon fill="white" stroke="#666666" points="1670.78,-184 1534.78,-184 1534.78,-165 1670.78,-165 1670.78,-184"/>
<text text-anchor="middle" x="1602.78" y="-172" font-family="Helvetica,sans-Serif" font-size="10.00">ccf/ds/enum_formatter.h</text>
</a>
</g>
</g>
<!-- Node3&#45;&gt;Node4 -->
<g id="edge3" class="edge">
<title>Node3&#45;&gt;Node4</title>
<path fill="none" stroke="#63b8ff" d="M1328.33,-221.24C1383.51,-212.04 1478.96,-196.14 1541.49,-185.71"/>
<polygon fill="#63b8ff" stroke="#63b8ff" points="1542.32,-189.12 1551.61,-184.03 1541.17,-182.22 1542.32,-189.12"/>
</g>
<!-- Node5 -->
<g id="node5" class="node">
<title>Node5</title>
<g id="a_node5"><a xlink:title=" ">
<polygon fill="#e0e0e0" stroke="#999999" points="1509.28,-129 1430.28,-129 1430.28,-110 1509.28,-110 1509.28,-129"/>
<text text-anchor="middle" x="1469.78" y="-117" font-family="Helvetica,sans-Serif" font-size="10.00">fmt/format.h</text>
</a>
</g>
</g>
<!-- Node3&#45;&gt;Node5 -->
<g id="edge13" class="edge">
<title>Node3&#45;&gt;Node5</title>
<path fill="none" stroke="#63b8ff" d="M1328.44,-226.8C1426.34,-222.54 1656.67,-209.86 1679.78,-184 1685.4,-177.7 1685.09,-171.56 1679.78,-165 1674.69,-158.72 1580.08,-140.52 1519.6,-129.44"/>
<polygon fill="#63b8ff" stroke="#63b8ff" points="1519.94,-125.94 1509.47,-127.59 1518.68,-132.83 1519.94,-125.94"/>
</g>
<!-- Node6 -->
<g id="node6" class="node">
<title>Node6</title>
<g id="a_node6"><a xlink:href="thread__ids_8h.html" target="_top" xlink:title=" ">
<polygon fill="white" stroke="#666666" points="1834.78,-184 1726.78,-184 1726.78,-165 1834.78,-165 1834.78,-184"/>
<text text-anchor="middle" x="1780.78" y="-172" font-family="Helvetica,sans-Serif" font-size="10.00">ccf/ds/thread_ids.h</text>
</a>
</g>
</g>
<!-- Node3&#45;&gt;Node6 -->
<g id="edge5" class="edge">
<title>Node3&#45;&gt;Node6</title>
<path fill="none" stroke="#63b8ff" d="M1328.55,-224.25C1406.06,-216.66 1572.5,-200.06 1712.78,-184 1714.04,-183.86 1715.32,-183.71 1716.6,-183.56"/>
<polygon fill="#63b8ff" stroke="#63b8ff" points="1717.08,-187.03 1726.6,-182.38 1716.26,-180.08 1717.08,-187.03"/>
</g>
<!-- Node12 -->
<g id="node12" class="node">
<title>Node12</title>
<g id="a_node12"><a xlink:title=" ">
<polygon fill="#e0e0e0" stroke="#999999" points="1237.28,-184 1158.28,-184 1158.28,-165 1237.28,-165 1237.28,-184"/>
<text text-anchor="middle" x="1197.78" y="-172" font-family="Helvetica,sans-Serif" font-size="10.00">fmt/chrono.h</text>
</a>
</g>
</g>
<!-- Node3&#45;&gt;Node12 -->
<g id="edge12" class="edge">
<title>Node3&#45;&gt;Node12</title>
<path fill="none" stroke="#63b8ff" d="M1270.8,-219.98C1257.31,-211.77 1236.64,-199.18 1220.73,-189.49"/>
<polygon fill="#63b8ff" stroke="#63b8ff" points="1222.37,-186.38 1212.01,-184.17 1218.73,-192.36 1222.37,-186.38"/>
</g>
<!-- Node13 -->
<g id="node13" class="node">
<title>Node13</title>
<g id="a_node13"><a xlink:title=" ">
<polygon fill="#e0e0e0" stroke="#999999" points="1314.78,-184 1254.78,-184 1254.78,-165 1314.78,-165 1314.78,-184"/>
<text text-anchor="middle" x="1284.78" y="-172" font-family="Helvetica,sans-Serif" font-size="10.00">iostream</text>
</a>
</g>
</g>
<!-- Node3&#45;&gt;Node13 -->
<g id="edge14" class="edge">
<title>Node3&#45;&gt;Node13</title>
<path fill="none" stroke="#63b8ff" d="M1284.78,-219.75C1284.78,-212.8 1284.78,-202.85 1284.78,-194.13"/>
<polygon fill="#63b8ff" stroke="#63b8ff" points="1288.28,-194.09 1284.78,-184.09 1281.28,-194.09 1288.28,-194.09"/>
</g>
<!-- Node14 -->
<g id="node14" class="node">
<title>Node14</title>
<g id="a_node14"><a xlink:title=" ">
<polygon fill="#e0e0e0" stroke="#999999" points="1442.78,-184 1332.78,-184 1332.78,-165 1442.78,-165 1442.78,-184"/>
<text text-anchor="middle" x="1387.78" y="-172" font-family="Helvetica,sans-Serif" font-size="10.00">nlohmann/json.hpp</text>
</a>
</g>
</g>
<!-- Node3&#45;&gt;Node14 -->
<g id="edge15" class="edge">
<title>Node3&#45;&gt;Node14</title>
<path fill="none" stroke="#63b8ff" d="M1301.32,-219.98C1317.67,-211.57 1342.91,-198.59 1361.91,-188.81"/>
<polygon fill="#63b8ff" stroke="#63b8ff" points="1363.64,-191.86 1370.93,-184.17 1360.43,-185.63 1363.64,-191.86"/>
</g>
<!-- Node15 -->
<g id="node15" class="node">
<title>Node15</title>
<g id="a_node15"><a xlink:title=" ">
<polygon fill="#e0e0e0" stroke="#999999" points="921.78,-129 865.78,-129 865.78,-110 921.78,-110 921.78,-129"/>
<text text-anchor="middle" x="893.78" y="-117" font-family="Helvetica,sans-Serif" font-size="10.00">optional</text>
</a>
</g>
</g>
<!-- Node3&#45;&gt;Node15 -->
<g id="edge16" class="edge">
<title>Node3&#45;&gt;Node15</title>
<path fill="none" stroke="#63b8ff" d="M1241.11,-229.32C1179.12,-228.94 1063.2,-222.5 973.78,-184 948.22,-173 923.93,-151.62 908.96,-136.72"/>
<polygon fill="#63b8ff" stroke="#63b8ff" points="911.14,-133.94 901.65,-129.22 906.12,-138.83 911.14,-133.94"/>
</g>
<!-- Node16 -->
<g id="node16" class="node">
<title>Node16</title>
<g id="a_node16"><a xlink:title=" ">
<polygon fill="#e0e0e0" stroke="#999999" points="1516.78,-184 1460.78,-184 1460.78,-165 1516.78,-165 1516.78,-184"/>
<text text-anchor="middle" x="1488.78" y="-172" font-family="Helvetica,sans-Serif" font-size="10.00">sstream</text>
</a>
</g>
</g>
<!-- Node3&#45;&gt;Node16 -->
<g id="edge17" class="edge">
<title>Node3&#45;&gt;Node16</title>
<path fill="none" stroke="#63b8ff" d="M1317.55,-219.98C1353.95,-210.53 1412.6,-195.29 1450.92,-185.33"/>
<polygon fill="#63b8ff" stroke="#63b8ff" points="1451.88,-188.7 1460.68,-182.8 1450.12,-181.93 1451.88,-188.7"/>
</g>
<!-- Node17 -->
<g id="node17" class="node">
<title>Node17</title>
<g id="a_node17"><a xlink:title=" ">
<polygon fill="#e0e0e0" stroke="#999999" points="848.28,-19 779.28,-19 779.28,0 848.28,0 848.28,-19"/>
<text text-anchor="middle" x="813.78" y="-7" font-family="Helvetica,sans-Serif" font-size="10.00">type_traits</text>
</a>
</g>
</g>
<!-- Node3&#45;&gt;Node17 -->
<g id="edge18" class="edge">
<title>Node3&#45;&gt;Node17</title>
<path fill="none" stroke="#63b8ff" d="M1241.2,-225.41C1173.22,-219.94 1045.67,-206.93 1006.78,-184 944.05,-147.02 962.46,-100.7 905.78,-55 888.68,-41.22 866.61,-30.36 848.38,-22.82"/>
<polygon fill="#63b8ff" stroke="#63b8ff" points="849.55,-19.52 838.97,-19.08 846.97,-26.03 849.55,-19.52"/>
</g>
<!-- Node4&#45;&gt;Node5 -->
<g id="edge4" class="edge">
<title>Node4&#45;&gt;Node5</title>
<path fill="none" stroke="#63b8ff" d="M1581.41,-164.98C1559.63,-156.3 1525.61,-142.75 1500.85,-132.88"/>
<polygon fill="#63b8ff" stroke="#63b8ff" points="1502.12,-129.62 1491.53,-129.17 1499.53,-136.12 1502.12,-129.62"/>
</g>
<!-- Node6&#45;&gt;Node5 -->
<g id="edge6" class="edge">
<title>Node6&#45;&gt;Node5</title>
<path fill="none" stroke="#63b8ff" d="M1729.35,-164.92C1678.5,-156.41 1598.17,-142.89 1519.42,-129.27"/>
<polygon fill="#63b8ff" stroke="#63b8ff" points="1519.77,-125.78 1509.32,-127.53 1518.58,-132.68 1519.77,-125.78"/>
</g>
<!-- Node7 -->
<g id="node7" class="node">
<title>Node7</title>
<g id="a_node7"><a xlink:title=" ">
<polygon fill="#e0e0e0" stroke="#999999" points="1740.78,-129 1654.78,-129 1654.78,-110 1740.78,-110 1740.78,-129"/>
<text text-anchor="middle" x="1697.78" y="-117" font-family="Helvetica,sans-Serif" font-size="10.00">fmt/ostream.h</text>
</a>
</g>
</g>
<!-- Node6&#45;&gt;Node7 -->
<g id="edge7" class="edge">
<title>Node6&#45;&gt;Node7</title>
<path fill="none" stroke="#63b8ff" d="M1767.44,-164.98C1754.69,-156.84 1735.22,-144.41 1720.11,-134.76"/>
<polygon fill="#63b8ff" stroke="#63b8ff" points="1721.67,-131.6 1711.35,-129.17 1717.9,-137.5 1721.67,-131.6"/>
</g>
<!-- Node8 -->
<g id="node8" class="node">
<title>Node8</title>
<g id="a_node8"><a xlink:title=" ">
<polygon fill="#e0e0e0" stroke="#999999" points="1820.28,-129 1759.28,-129 1759.28,-110 1820.28,-110 1820.28,-129"/>
<text text-anchor="middle" x="1789.78" y="-117" font-family="Helvetica,sans-Serif" font-size="10.00">fmt/std.h</text>
</a>
</g>
</g>
<!-- Node6&#45;&gt;Node8 -->
<g id="edge8" class="edge">
<title>Node6&#45;&gt;Node8</title>
<path fill="none" stroke="#63b8ff" d="M1782.26,-164.75C1783.44,-157.8 1785.13,-147.85 1786.61,-139.13"/>
<polygon fill="#63b8ff" stroke="#63b8ff" points="1790.09,-139.53 1788.32,-129.09 1783.19,-138.36 1790.09,-139.53"/>
</g>
<!-- Node9 -->
<g id="node9" class="node">
<title>Node9</title>
<g id="a_node9"><a xlink:title=" ">
<polygon fill="#e0e0e0" stroke="#999999" points="1570.78,-129 1526.78,-129 1526.78,-110 1570.78,-110 1570.78,-129"/>
<text text-anchor="middle" x="1548.78" y="-117" font-family="Helvetica,sans-Serif" font-size="10.00">limits</text>
</a>
</g>
</g>
<!-- Node6&#45;&gt;Node9 -->
<g id="edge9" class="edge">
<title>Node6&#45;&gt;Node9</title>
<path fill="none" stroke="#63b8ff" d="M1739.45,-164.98C1700.86,-156.88 1641.44,-144.06 1581.16,-129.25"/>
<polygon fill="#63b8ff" stroke="#63b8ff" points="1581.64,-125.76 1571.09,-126.76 1579.96,-132.56 1581.64,-125.76"/>
</g>
<!-- Node10 -->
<g id="node10" class="node">
<title>Node10</title>
<g id="a_node10"><a xlink:title=" ">
<polygon fill="#e0e0e0" stroke="#999999" points="1876.78,-129 1838.78,-129 1838.78,-110 1876.78,-110 1876.78,-129"/>
<text text-anchor="middle" x="1857.78" y="-117" font-family="Helvetica,sans-Serif" font-size="10.00">map</text>
</a>
</g>
</g>
<!-- Node6&#45;&gt;Node10 -->
<g id="edge10" class="edge">
<title>Node6&#45;&gt;Node10</title>
<path fill="none" stroke="#63b8ff" d="M1793.15,-164.98C1804.86,-156.92 1822.7,-144.65 1836.66,-135.03"/>
<polygon fill="#63b8ff" stroke="#63b8ff" points="1838.93,-137.72 1845.18,-129.17 1834.96,-131.96 1838.93,-137.72"/>
</g>
<!-- Node11 -->
<g id="node11" class="node">
<title>Node11</title>
<g id="a_node11"><a xlink:title=" ">
<polygon fill="#e0e0e0" stroke="#999999" points="1636.78,-129 1588.78,-129 1588.78,-110 1636.78,-110 1636.78,-129"/>
<text text-anchor="middle" x="1612.78" y="-117" font-family="Helvetica,sans-Serif" font-size="10.00">thread</text>
</a>
</g>
</g>
<!-- Node6&#45;&gt;Node11 -->
<g id="edge11" class="edge">
<title>Node6&#45;&gt;Node11</title>
<path fill="none" stroke="#63b8ff" d="M1753.78,-164.98C1724.66,-155.8 1678.22,-141.15 1646.66,-131.19"/>
<polygon fill="#63b8ff" stroke="#63b8ff" points="1647.56,-127.8 1636.97,-128.13 1645.46,-134.48 1647.56,-127.8"/>
</g>
<!-- Node20 -->
<g id="node20" class="node">
<title>Node20</title>
<g id="a_node20"><a xlink:href="oversized_8h.html" target="_top" xlink:title=" ">
<polygon fill="white" stroke="#666666" points="818.28,-349 731.28,-349 731.28,-330 818.28,-330 818.28,-349"/>
<text text-anchor="middle" x="774.78" y="-337" font-family="Helvetica,sans-Serif" font-size="10.00">ds/oversized.h</text>
</a>
</g>
</g>
<!-- Node19&#45;&gt;Node20 -->
<g id="edge21" class="edge">
<title>Node19&#45;&gt;Node20</title>
<path fill="none" stroke="#63b8ff" d="M647.2,-384.98C672.5,-376.16 712.23,-362.31 740.63,-352.41"/>
<polygon fill="#63b8ff" stroke="#63b8ff" points="741.87,-355.68 750.16,-349.08 739.57,-349.07 741.87,-355.68"/>
</g>
<!-- Node26 -->
<g id="node26" class="node">
<title>Node26</title>
<g id="a_node26"><a xlink:href="ring__buffer__types_8h.html" target="_top" xlink:title=" ">
<polygon fill="white" stroke="#666666" points="723.78,-184 613.78,-184 613.78,-165 723.78,-165 723.78,-184"/>
<text text-anchor="middle" x="668.78" y="-172" font-family="Helvetica,sans-Serif" font-size="10.00">ring_buffer_types.h</text>
</a>
</g>
</g>
<!-- Node19&#45;&gt;Node26 -->
<g id="edge78" class="edge">
<title>Node19&#45;&gt;Node26</title>
<path fill="none" stroke="#63b8ff" d="M624.58,-384.95C631.35,-352.88 655.34,-239.2 664.85,-194.12"/>
<polygon fill="#63b8ff" stroke="#63b8ff" points="668.3,-194.73 666.94,-184.22 661.45,-193.29 668.3,-194.73"/>
</g>
<!-- Node31 -->
<g id="node31" class="node">
<title>Node31</title>
<g id="a_node31"><a xlink:title=" ">
<polygon fill="#e0e0e0" stroke="#999999" points="236.28,-19 189.28,-19 189.28,0 236.28,0 236.28,-19"/>
<text text-anchor="middle" x="212.78" y="-7" font-family="Helvetica,sans-Serif" font-size="10.00">vector</text>
</a>
</g>
</g>
<!-- Node19&#45;&gt;Node31 -->
<g id="edge80" class="edge">
<title>Node19&#45;&gt;Node31</title>
<path fill="none" stroke="#63b8ff" d="M567.57,-385C513.37,-373.15 438.78,-345.88 438.78,-285.5 438.78,-285.5 438.78,-285.5 438.78,-228.5 438.78,-23.33 112.57,-247.95 3.78,-74 -0.7,-66.84 -1.54,-61.56 3.78,-55 25.44,-28.24 125.57,-16.89 178.99,-12.67"/>
<polygon fill="#63b8ff" stroke="#63b8ff" points="179.3,-16.16 189.01,-11.92 178.78,-9.18 179.3,-16.16"/>
</g>
<!-- Node19&#45;&gt;Node49 -->
<g id="edge79" class="edge">
<title>Node19&#45;&gt;Node49</title>
<path fill="none" stroke="#63b8ff" d="M584.7,-384.98C539.51,-374.88 464.79,-358.17 420.93,-348.36"/>
<polygon fill="#63b8ff" stroke="#63b8ff" points="421.53,-344.91 411.01,-346.14 420,-351.74 421.53,-344.91"/>
</g>
<!-- Node20&#45;&gt;Node5 -->
<g id="edge76" class="edge">
<title>Node20&#45;&gt;Node5</title>
<path fill="none" stroke="#63b8ff" d="M783.8,-329.72C807.12,-307.56 872.2,-249.04 937.78,-220 1009.59,-188.2 1036.46,-209.39 1110.78,-184 1129.02,-177.77 1131.33,-170.62 1149.78,-165 1242.66,-136.7 1356.25,-126.32 1420.07,-122.57"/>
<polygon fill="#63b8ff" stroke="#63b8ff" points="1420.47,-126.06 1430.26,-122.01 1420.08,-119.07 1420.47,-126.06"/>
</g>
<!-- Node21 -->
<g id="node21" class="node">
<title>Node21</title>
<g id="a_node21"><a xlink:href="messaging_8h.html" target="_top" xlink:title=" ">
<polygon fill="white" stroke="#666666" points="1013.28,-294 934.28,-294 934.28,-275 1013.28,-275 1013.28,-294"/>
<text text-anchor="middle" x="973.78" y="-282" font-family="Helvetica,sans-Serif" font-size="10.00">messaging.h</text>
</a>
</g>
</g>
<!-- Node20&#45;&gt;Node21 -->
<g id="edge22" class="edge">
<title>Node20&#45;&gt;Node21</title>
<path fill="none" stroke="#63b8ff" d="M806.75,-329.98C840.59,-320.97 894.17,-306.7 931.49,-296.76"/>
<polygon fill="#63b8ff" stroke="#63b8ff" points="932.79,-300.04 941.55,-294.08 930.99,-293.27 932.79,-300.04"/>
</g>
<!-- Node22 -->
<g id="node22" class="node">
<title>Node22</title>
<g id="a_node22"><a xlink:href="ring__buffer_8h.html" target="_top" xlink:title=" ">
<polygon fill="white" stroke="#666666" points="851.28,-239 774.28,-239 774.28,-220 851.28,-220 851.28,-239"/>
<text text-anchor="middle" x="812.78" y="-227" font-family="Helvetica,sans-Serif" font-size="10.00">ring_buffer.h</text>
</a>
</g>
</g>
<!-- Node20&#45;&gt;Node22 -->
<g id="edge74" class="edge">
<title>Node20&#45;&gt;Node22</title>
<path fill="none" stroke="#63b8ff" d="M778.86,-329.75C782.92,-320.86 789.2,-306.64 793.78,-294 799.17,-279.1 804.25,-261.86 807.81,-249.11"/>
<polygon fill="#63b8ff" stroke="#63b8ff" points="811.25,-249.8 810.5,-239.23 804.49,-247.96 811.25,-249.8"/>
</g>
<!-- Node40 -->
<g id="node40" class="node">
<title>Node40</title>
<g id="a_node40"><a xlink:href="serialized_8h.html" target="_top" xlink:title=" ">
<polygon fill="white" stroke="#666666" points="726.28,-74 653.28,-74 653.28,-55 726.28,-55 726.28,-74"/>
<text text-anchor="middle" x="689.78" y="-62" font-family="Helvetica,sans-Serif" font-size="10.00">serialized.h</text>
</a>
</g>
</g>
<!-- Node20&#45;&gt;Node40 -->
<g id="edge75" class="edge">
<title>Node20&#45;&gt;Node40</title>
<path fill="none" stroke="#63b8ff" d="M748.56,-329.88C728.95,-322.52 702.28,-310.5 682.78,-294 637.02,-255.29 622.97,-241.1 604.78,-184 594.43,-151.54 603.9,-136.92 624.78,-110 634.76,-97.13 649.52,-86.6 662.45,-79.03"/>
<polygon fill="#63b8ff" stroke="#63b8ff" points="664.4,-81.95 671.45,-74.04 661.01,-75.82 664.4,-81.95"/>
</g>
<!-- Node48 -->
<g id="node48" class="node">
<title>Node48</title>
<g id="a_node48"><a xlink:title=" ">
<polygon fill="#e0e0e0" stroke="#999999" points="784.28,-294 691.28,-294 691.28,-275 784.28,-275 784.28,-294"/>
<text text-anchor="middle" x="737.78" y="-282" font-family="Helvetica,sans-Serif" font-size="10.00">unordered_map</text>
</a>
</g>
</g>
<!-- Node20&#45;&gt;Node48 -->
<g id="edge77" class="edge">
<title>Node20&#45;&gt;Node48</title>
<path fill="none" stroke="#63b8ff" d="M768.67,-329.75C763.49,-322.34 755.93,-311.5 749.58,-302.41"/>
<polygon fill="#63b8ff" stroke="#63b8ff" points="752.37,-300.29 743.77,-294.09 746.63,-304.29 752.37,-300.29"/>
</g>
<!-- Node21&#45;&gt;Node3 -->
<g id="edge23" class="edge">
<title>Node21&#45;&gt;Node3</title>
<path fill="none" stroke="#63b8ff" d="M1013.48,-276.73C1068.78,-267.31 1169.15,-250.2 1231.09,-239.65"/>
<polygon fill="#63b8ff" stroke="#63b8ff" points="1231.79,-243.08 1241.06,-237.95 1230.61,-236.18 1231.79,-243.08"/>
</g>
<!-- Node21&#45;&gt;Node10 -->
<g id="edge72" class="edge">
<title>Node21&#45;&gt;Node10</title>
<path fill="none" stroke="#63b8ff" d="M1013.51,-281.64C1175.62,-273.68 1781.26,-240.38 1843.78,-184 1855.95,-173.02 1858.82,-154.07 1859.02,-139.72"/>
<polygon fill="#63b8ff" stroke="#63b8ff" points="1862.51,-139.34 1858.74,-129.44 1855.51,-139.53 1862.51,-139.34"/>
</g>
<!-- Node21&#45;&gt;Node22 -->
<g id="edge24" class="edge">
<title>Node21&#45;&gt;Node22</title>
<path fill="none" stroke="#63b8ff" d="M947.91,-274.98C921,-266.13 878.66,-252.19 848.55,-242.28"/>
<polygon fill="#63b8ff" stroke="#63b8ff" points="849.44,-238.88 838.85,-239.08 847.25,-245.53 849.44,-238.88"/>
</g>
<!-- Node41 -->
<g id="node41" class="node">
<title>Node41</title>
<g id="a_node41"><a xlink:title=" ">
<polygon fill="#e0e0e0" stroke="#999999" points="1505.28,-19 1440.28,-19 1440.28,0 1505.28,0 1505.28,-19"/>
<text text-anchor="middle" x="1472.78" y="-7" font-family="Helvetica,sans-Serif" font-size="10.00">stdexcept</text>
</a>
</g>
</g>
<!-- Node21&#45;&gt;Node41 -->
<g id="edge73" class="edge">
<title>Node21&#45;&gt;Node41</title>
<path fill="none" stroke="#63b8ff" d="M1013.48,-283.13C1191.18,-280.98 1904.78,-266.67 1904.78,-175.5 1904.78,-175.5 1904.78,-175.5 1904.78,-118.5 1904.78,-38.83 1624.77,-17.44 1515.62,-12.13"/>
<polygon fill="#63b8ff" stroke="#63b8ff" points="1515.75,-8.63 1505.6,-11.66 1515.43,-15.62 1515.75,-8.63"/>
</g>
<!-- Node45 -->
<g id="node45" class="node">
<title>Node45</title>
<g id="a_node45"><a xlink:title=" ">
<polygon fill="#e0e0e0" stroke="#999999" points="847.78,-129 797.78,-129 797.78,-110 847.78,-110 847.78,-129"/>
<text text-anchor="middle" x="822.78" y="-117" font-family="Helvetica,sans-Serif" font-size="10.00">atomic</text>
</a>
</g>
</g>
<!-- Node21&#45;&gt;Node45 -->
<g id="edge70" class="edge">
<title>Node21&#45;&gt;Node45</title>
<path fill="none" stroke="#63b8ff" d="M965.66,-274.74C941.49,-248.65 869.72,-171.17 838.06,-137"/>
<polygon fill="#63b8ff" stroke="#63b8ff" points="840.3,-134.26 830.93,-129.31 835.16,-139.02 840.3,-134.26"/>
</g>
<!-- Node47 -->
<g id="node47" class="node">
<title>Node47</title>
<g id="a_node47"><a xlink:title=" ">
<polygon fill="#e0e0e0" stroke="#999999" points="1053.28,-239 946.28,-239 946.28,-220 1053.28,-220 1053.28,-239"/>
<text text-anchor="middle" x="999.78" y="-227" font-family="Helvetica,sans-Serif" font-size="10.00">condition_variable</text>
</a>
</g>
</g>
<!-- Node21&#45;&gt;Node47 -->
<g id="edge71" class="edge">
<title>Node21&#45;&gt;Node47</title>
<path fill="none" stroke="#63b8ff" d="M978.07,-274.75C981.59,-267.57 986.69,-257.18 991.06,-248.27"/>
<polygon fill="#63b8ff" stroke="#63b8ff" points="994.3,-249.61 995.56,-239.09 988.02,-246.53 994.3,-249.61"/>
</g>
<!-- Node23 -->
<g id="node23" class="node">
<title>Node23</title>
<g id="a_node23"><a xlink:href="mem_8h.html" target="_top" xlink:title=" ">
<polygon fill="white" stroke="#666666" points="1101.78,-184 1015.78,-184 1015.78,-165 1101.78,-165 1101.78,-184"/>
<text text-anchor="middle" x="1058.78" y="-172" font-family="Helvetica,sans-Serif" font-size="10.00">ccf/pal/mem.h</text>
</a>
</g>
</g>
<!-- Node22&#45;&gt;Node23 -->
<g id="edge25" class="edge">
<title>Node22&#45;&gt;Node23</title>
<path fill="none" stroke="#63b8ff" d="M851.48,-220.16C894.09,-210.98 962.7,-196.2 1009.21,-186.18"/>
<polygon fill="#63b8ff" stroke="#63b8ff" points="1010.03,-189.58 1019.07,-184.05 1008.56,-182.74 1010.03,-189.58"/>
</g>
<!-- Node25 -->
<g id="node25" class="node">
<title>Node25</title>
<g id="a_node25"><a xlink:title=" ">
<polygon fill="#e0e0e0" stroke="#999999" points="1010.78,-19 960.78,-19 960.78,0 1010.78,0 1010.78,-19"/>
<text text-anchor="middle" x="985.78" y="-7" font-family="Helvetica,sans-Serif" font-size="10.00">cstring</text>
</a>
</g>
</g>
<!-- Node22&#45;&gt;Node25 -->
<g id="edge68" class="edge">
<title>Node22&#45;&gt;Node25</title>
<path fill="none" stroke="#63b8ff" d="M826.47,-219.89C850.36,-204.3 900.03,-169.25 930.78,-129 954.9,-97.43 971.76,-53.58 980,-29.04"/>
<polygon fill="#63b8ff" stroke="#63b8ff" points="983.43,-29.83 983.18,-19.23 976.77,-27.67 983.43,-29.83"/>
</g>
<!-- Node22&#45;&gt;Node26 -->
<g id="edge29" class="edge">
<title>Node22&#45;&gt;Node26</title>
<path fill="none" stroke="#63b8ff" d="M789.64,-219.98C765.95,-211.27 728.91,-197.63 702.07,-187.75"/>
<polygon fill="#63b8ff" stroke="#63b8ff" points="702.93,-184.34 692.33,-184.17 700.51,-190.91 702.93,-184.34"/>
</g>
<!-- Node22&#45;&gt;Node45 -->
<g id="edge67" class="edge">
<title>Node22&#45;&gt;Node45</title>
<path fill="none" stroke="#63b8ff" d="M800.47,-219.93C785.18,-208.15 762.22,-186.03 771.78,-165 777.4,-152.63 788.35,-142.36 798.66,-134.81"/>
<polygon fill="#63b8ff" stroke="#63b8ff" points="800.73,-137.63 807.05,-129.12 796.81,-131.84 800.73,-137.63"/>
</g>
<!-- Node46 -->
<g id="node46" class="node">
<title>Node46</title>
<g id="a_node46"><a xlink:title=" ">
<polygon fill="#e0e0e0" stroke="#999999" points="845.28,-184 780.28,-184 780.28,-165 845.28,-165 845.28,-184"/>
<text text-anchor="middle" x="812.78" y="-172" font-family="Helvetica,sans-Serif" font-size="10.00">functional</text>
</a>
</g>
</g>
<!-- Node22&#45;&gt;Node46 -->
<g id="edge69" class="edge">
<title>Node22&#45;&gt;Node46</title>
<path fill="none" stroke="#63b8ff" d="M812.78,-219.75C812.78,-212.8 812.78,-202.85 812.78,-194.13"/>
<polygon fill="#63b8ff" stroke="#63b8ff" points="816.28,-194.09 812.78,-184.09 809.28,-194.09 816.28,-194.09"/>
</g>
<!-- Node23&#45;&gt;Node9 -->
<g id="edge28" class="edge">
<title>Node23&#45;&gt;Node9</title>
<path fill="none" stroke="#63b8ff" d="M1102.17,-169.41C1205.36,-159.66 1460.52,-135.48 1516.5,-128.67"/>
<polygon fill="#63b8ff" stroke="#63b8ff" points="1517.18,-132.11 1526.6,-127.26 1516.21,-125.18 1517.18,-132.11"/>
</g>
<!-- Node24 -->
<g id="node24" class="node">
<title>Node24</title>
<g id="a_node24"><a xlink:title=" ">
<polygon fill="#e0e0e0" stroke="#999999" points="1069.28,-129 1016.28,-129 1016.28,-110 1069.28,-110 1069.28,-129"/>
<text text-anchor="middle" x="1042.78" y="-117" font-family="Helvetica,sans-Serif" font-size="10.00">stdlib.h</text>
</a>
</g>
</g>
<!-- Node23&#45;&gt;Node24 -->
<g id="edge26" class="edge">
<title>Node23&#45;&gt;Node24</title>
<path fill="none" stroke="#63b8ff" d="M1056.13,-164.75C1054.01,-157.72 1050.96,-147.62 1048.31,-138.84"/>
<polygon fill="#63b8ff" stroke="#63b8ff" points="1051.61,-137.65 1045.37,-129.09 1044.91,-139.67 1051.61,-137.65"/>
</g>
<!-- Node23&#45;&gt;Node25 -->
<g id="edge27" class="edge">
<title>Node23&#45;&gt;Node25</title>
<path fill="none" stroke="#63b8ff" d="M1065.32,-164.74C1073.71,-152.36 1086.33,-129.14 1078.78,-110 1064.37,-73.5 1029.56,-42.5 1006.85,-25.22"/>
<polygon fill="#63b8ff" stroke="#63b8ff" points="1008.65,-22.2 998.52,-19.08 1004.49,-27.83 1008.65,-22.2"/>
</g>
<!-- Node26&#45;&gt;Node5 -->
<g id="edge62" class="edge">
<title>Node26&#45;&gt;Node5</title>
<path fill="none" stroke="#63b8ff" d="M723.82,-168.77C739.32,-167.48 756.21,-166.14 771.78,-165 1014.58,-147.24 1305.19,-130.01 1419.8,-123.36"/>
<polygon fill="#63b8ff" stroke="#63b8ff" points="1420.23,-126.85 1430.02,-122.77 1419.83,-119.86 1420.23,-126.85"/>
</g>
<!-- Node26&#45;&gt;Node15 -->
<g id="edge63" class="edge">
<title>Node26&#45;&gt;Node15</title>
<path fill="none" stroke="#63b8ff" d="M704.93,-164.98C746.24,-155.25 813.56,-139.39 855.68,-129.47"/>
<polygon fill="#63b8ff" stroke="#63b8ff" points="856.62,-132.85 865.55,-127.15 855.01,-126.03 856.62,-132.85"/>
</g>
<!-- Node27 -->
<g id="node27" class="node">
<title>Node27</title>
<g id="a_node27"><a xlink:href="include_2ccf_2ds_2hash_8h.html" target="_top" xlink:title=" ">
<polygon fill="white" stroke="#666666" points="372.78,-129 292.78,-129 292.78,-110 372.78,-110 372.78,-129"/>
<text text-anchor="middle" x="332.78" y="-117" font-family="Helvetica,sans-Serif" font-size="10.00">ccf/ds/hash.h</text>
</a>
</g>
</g>
<!-- Node26&#45;&gt;Node27 -->
<g id="edge30" class="edge">
<title>Node26&#45;&gt;Node27</title>
<path fill="none" stroke="#63b8ff" d="M614.79,-164.98C550.83,-154.9 445.11,-138.22 382.89,-128.41"/>
<polygon fill="#63b8ff" stroke="#63b8ff" points="383.34,-124.93 372.92,-126.83 382.25,-131.85 383.34,-124.93"/>
</g>
<!-- Node26&#45;&gt;Node31 -->
<g id="edge66" class="edge">
<title>Node26&#45;&gt;Node31</title>
<path fill="none" stroke="#63b8ff" d="M613.58,-169.28C462.95,-157.19 53.56,-120.32 15.78,-74 -28.96,-19.15 111.76,-11.11 179.04,-10.32"/>
<polygon fill="#63b8ff" stroke="#63b8ff" points="179.19,-13.82 189.17,-10.25 179.14,-6.82 179.19,-13.82"/>
</g>
<!-- Node35 -->
<g id="node35" class="node">
<title>Node35</title>
<g id="a_node35"><a xlink:href="nonstd_8h.html" target="_top" xlink:title=" ">
<polygon fill="white" stroke="#666666" points="634.78,-74 544.78,-74 544.78,-55 634.78,-55 634.78,-74"/>
<text text-anchor="middle" x="589.78" y="-62" font-family="Helvetica,sans-Serif" font-size="10.00">ccf/ds/nonstd.h</text>
</a>
</g>
</g>
<!-- Node26&#45;&gt;Node35 -->
<g id="edge40" class="edge">
<title>Node26&#45;&gt;Node35</title>
<path fill="none" stroke="#63b8ff" d="M658.89,-164.97C649.4,-156.48 635.05,-142.75 624.78,-129 614.07,-114.68 604.47,-96.7 598.05,-83.53"/>
<polygon fill="#63b8ff" stroke="#63b8ff" points="601.05,-81.71 593.61,-74.17 594.73,-84.7 601.05,-81.71"/>
</g>
<!-- Node38 -->
<g id="node38" class="node">
<title>Node38</title>
<g id="a_node38"><a xlink:title=" ">
<polygon fill="#e0e0e0" stroke="#999999" points="749.78,-19 705.78,-19 705.78,0 749.78,0 749.78,-19"/>
<text text-anchor="middle" x="727.78" y="-7" font-family="Helvetica,sans-Serif" font-size="10.00">string</text>
</a>
</g>
</g>
<!-- Node26&#45;&gt;Node38 -->
<g id="edge65" class="edge">
<title>Node26&#45;&gt;Node38</title>
<path fill="none" stroke="#63b8ff" d="M686.24,-164.89C703.9,-156.1 731.92,-141.96 755.78,-129 770.65,-120.92 773.4,-117.07 788.78,-110 832.46,-89.92 863.01,-113.24 890.78,-74 895.65,-67.11 895.9,-61.71 890.78,-55 882.75,-44.48 805.05,-26.68 759.89,-17.09"/>
<polygon fill="#63b8ff" stroke="#63b8ff" points="760.49,-13.64 749.98,-15.01 759.04,-20.49 760.49,-13.64"/>
</g>
<!-- Node39 -->
<g id="node39" class="node">
<title>Node39</title>
<g id="a_node39"><a xlink:href="serializer_8h.html" target="_top" xlink:title=" ">
<polygon fill="white" stroke="#666666" points="703.78,-129 633.78,-129 633.78,-110 703.78,-110 703.78,-129"/>
<text text-anchor="middle" x="668.78" y="-117" font-family="Helvetica,sans-Serif" font-size="10.00">serializer.h</text>
</a>
</g>
</g>
<!-- Node26&#45;&gt;Node39 -->
<g id="edge48" class="edge">
<title>Node26&#45;&gt;Node39</title>
<path fill="none" stroke="#63b8ff" d="M668.78,-164.75C668.78,-157.8 668.78,-147.85 668.78,-139.13"/>
<polygon fill="#63b8ff" stroke="#63b8ff" points="672.28,-139.09 668.78,-129.09 665.28,-139.09 672.28,-139.09"/>
</g>
<!-- Node43 -->
<g id="node43" class="node">
<title>Node43</title>
<g id="a_node43"><a xlink:title=" ">
<polygon fill="#e0e0e0" stroke="#999999" points="881.78,-74 841.78,-74 841.78,-55 881.78,-55 881.78,-74"/>
<text text-anchor="middle" x="861.78" y="-62" font-family="Helvetica,sans-Serif" font-size="10.00">span</text>
</a>
</g>
</g>
<!-- Node26&#45;&gt;Node43 -->
<g id="edge64" class="edge">
<title>Node26&#45;&gt;Node43</title>
<path fill="none" stroke="#63b8ff" d="M678.95,-164.84C694.67,-151.77 726.14,-126.73 755.78,-110 780.38,-96.11 810.19,-83.97 831.92,-75.9"/>
<polygon fill="#63b8ff" stroke="#63b8ff" points="833.39,-79.09 841.59,-72.38 831,-72.51 833.39,-79.09"/>
</g>
<!-- Node26&#45;&gt;Node45 -->
<g id="edge61" class="edge">
<title>Node26&#45;&gt;Node45</title>
<path fill="none" stroke="#63b8ff" d="M693.52,-164.98C719.15,-156.16 759.41,-142.31 788.18,-132.41"/>
<polygon fill="#63b8ff" stroke="#63b8ff" points="789.52,-135.65 797.84,-129.08 787.24,-129.03 789.52,-135.65"/>
</g>
<!-- Node28 -->
<g id="node28" class="node">
<title>Node28</title>
<g id="a_node28"><a xlink:href="siphash_8h.html" target="_top" xlink:title=" ">
<polygon fill="white" stroke="#666666" points="336.28,-74 241.28,-74 241.28,-55 336.28,-55 336.28,-74"/>
<text text-anchor="middle" x="288.78" y="-62" font-family="Helvetica,sans-Serif" font-size="10.00">ccf/ds/siphash.h</text>
</a>
</g>
</g>
<!-- Node27&#45;&gt;Node28 -->
<g id="edge31" class="edge">
<title>Node27&#45;&gt;Node28</title>
<path fill="none" stroke="#63b8ff" d="M325.51,-109.75C319.23,-102.18 309.99,-91.05 302.35,-81.84"/>
<polygon fill="#63b8ff" stroke="#63b8ff" points="304.99,-79.55 295.91,-74.09 299.6,-84.02 304.99,-79.55"/>
</g>
<!-- Node30 -->
<g id="node30" class="node">
<title>Node30</title>
<g id="a_node30"><a xlink:title=" ">
<polygon fill="#e0e0e0" stroke="#999999" points="385.78,-19 335.78,-19 335.78,0 385.78,0 385.78,-19"/>
<text text-anchor="middle" x="360.78" y="-7" font-family="Helvetica,sans-Serif" font-size="10.00">cstdint</text>
</a>
</g>
</g>
<!-- Node27&#45;&gt;Node30 -->
<g id="edge36" class="edge">
<title>Node27&#45;&gt;Node30</title>
<path fill="none" stroke="#63b8ff" d="M335.5,-109.67C338.23,-100.72 342.49,-86.45 345.78,-74 349.76,-58.92 353.79,-41.7 356.68,-28.99"/>
<polygon fill="#63b8ff" stroke="#63b8ff" points="360.11,-29.69 358.88,-19.16 353.28,-28.15 360.11,-29.69"/>
</g>
<!-- Node27&#45;&gt;Node31 -->
<g id="edge39" class="edge">
<title>Node27&#45;&gt;Node31</title>
<path fill="none" stroke="#63b8ff" d="M292.59,-118.84C217.75,-118.52 61.55,-113.06 27.78,-74 -15.57,-23.88 114.66,-13.27 179.03,-11.06"/>
<polygon fill="#63b8ff" stroke="#63b8ff" points="179.23,-14.56 189.13,-10.77 179.03,-7.56 179.23,-14.56"/>
</g>
<!-- Node32 -->
<g id="node32" class="node">
<title>Node32</title>
<g id="a_node32"><a xlink:title=" ">
<polygon fill="#e0e0e0" stroke="#999999" points="445.78,-19 403.78,-19 403.78,0 445.78,0 445.78,-19"/>
<text text-anchor="middle" x="424.78" y="-7" font-family="Helvetica,sans-Serif" font-size="10.00">array</text>
</a>
</g>
</g>
<!-- Node27&#45;&gt;Node32 -->
<g id="edge35" class="edge">
<title>Node27&#45;&gt;Node32</title>
<path fill="none" stroke="#63b8ff" d="M340.3,-109.66C355.68,-91.61 390.89,-50.28 410.66,-27.08"/>
<polygon fill="#63b8ff" stroke="#63b8ff" points="413.58,-29.04 417.4,-19.16 408.25,-24.5 413.58,-29.04"/>
</g>
<!-- Node33 -->
<g id="node33" class="node">
<title>Node33</title>
<g id="a_node33"><a xlink:title=" ">
<polygon fill="#e0e0e0" stroke="#999999" points="185.28,-74 36.28,-74 36.28,-55 185.28,-55 185.28,-74"/>
<text text-anchor="middle" x="110.78" y="-62" font-family="Helvetica,sans-Serif" font-size="10.00">small_vector/SmallVector.h</text>
</a>
</g>
</g>
<!-- Node27&#45;&gt;Node33 -->
<g id="edge37" class="edge">
<title>Node27&#45;&gt;Node33</title>
<path fill="none" stroke="#63b8ff" d="M297.11,-109.98C258.95,-100.87 198.3,-86.4 156.62,-76.45"/>
<polygon fill="#63b8ff" stroke="#63b8ff" points="157.26,-73 146.72,-74.08 155.64,-79.81 157.26,-73"/>
</g>
<!-- Node34 -->
<g id="node34" class="node">
<title>Node34</title>
<g id="a_node34"><a xlink:title=" ">
<polygon fill="#e0e0e0" stroke="#999999" points="537.28,-19 464.28,-19 464.28,0 537.28,0 537.28,-19"/>
<text text-anchor="middle" x="500.78" y="-7" font-family="Helvetica,sans-Serif" font-size="10.00">string_view</text>
</a>
</g>
</g>
<!-- Node27&#45;&gt;Node34 -->
<g id="edge38" class="edge">
<title>Node27&#45;&gt;Node34</title>
<path fill="none" stroke="#63b8ff" d="M346.24,-109.84C375.12,-91.28 443.24,-47.49 478.6,-24.75"/>
<polygon fill="#63b8ff" stroke="#63b8ff" points="480.73,-27.55 487.25,-19.2 476.94,-21.66 480.73,-27.55"/>
</g>
<!-- Node29 -->
<g id="node29" class="node">
<title>Node29</title>
<g id="a_node29"><a xlink:title=" ">
<polygon fill="#e0e0e0" stroke="#999999" points="315.28,-19 262.28,-19 262.28,0 315.28,0 315.28,-19"/>
<text text-anchor="middle" x="288.78" y="-7" font-family="Helvetica,sans-Serif" font-size="10.00">cstddef</text>
</a>
</g>
</g>
<!-- Node28&#45;&gt;Node29 -->
<g id="edge32" class="edge">
<title>Node28&#45;&gt;Node29</title>
<path fill="none" stroke="#63b8ff" d="M288.78,-54.75C288.78,-47.8 288.78,-37.85 288.78,-29.13"/>
<polygon fill="#63b8ff" stroke="#63b8ff" points="292.28,-29.09 288.78,-19.09 285.28,-29.09 292.28,-29.09"/>
</g>
<!-- Node28&#45;&gt;Node30 -->
<g id="edge33" class="edge">
<title>Node28&#45;&gt;Node30</title>
<path fill="none" stroke="#63b8ff" d="M300.34,-54.98C311.2,-47 327.66,-34.88 340.66,-25.31"/>
<polygon fill="#63b8ff" stroke="#63b8ff" points="343.02,-27.92 349,-19.17 338.87,-22.28 343.02,-27.92"/>
</g>
<!-- Node28&#45;&gt;Node31 -->
<g id="edge34" class="edge">
<title>Node28&#45;&gt;Node31</title>
<path fill="none" stroke="#63b8ff" d="M276.57,-54.98C265,-46.92 247.4,-34.65 233.62,-25.03"/>
<polygon fill="#63b8ff" stroke="#63b8ff" points="235.41,-22.02 225.21,-19.17 231.41,-27.76 235.41,-22.02"/>
</g>
<!-- Node35&#45;&gt;Node17 -->
<g id="edge46" class="edge">
<title>Node35&#45;&gt;Node17</title>
<path fill="none" stroke="#63b8ff" d="M625.77,-54.98C664.73,-45.77 726.92,-31.05 769.01,-21.09"/>
<polygon fill="#63b8ff" stroke="#63b8ff" points="770.06,-24.44 778.98,-18.73 768.44,-17.63 770.06,-24.44"/>
</g>
<!-- Node35&#45;&gt;Node31 -->
<g id="edge47" class="edge">
<title>Node35&#45;&gt;Node31</title>
<path fill="none" stroke="#63b8ff" d="M544.71,-56.31C541.69,-55.85 538.69,-55.42 535.78,-55 410.69,-37.17 378.4,-39.84 253.78,-19 251.42,-18.61 248.99,-18.17 246.54,-17.72"/>
<polygon fill="#63b8ff" stroke="#63b8ff" points="247.05,-14.25 236.57,-15.76 245.7,-21.12 247.05,-14.25"/>
</g>
<!-- Node35&#45;&gt;Node32 -->
<g id="edge42" class="edge">
<title>Node35&#45;&gt;Node32</title>
<path fill="none" stroke="#63b8ff" d="M563.27,-54.98C533.97,-45.57 486.82,-30.43 455.82,-20.47"/>
<polygon fill="#63b8ff" stroke="#63b8ff" points="456.57,-17.04 445.97,-17.31 454.43,-23.7 456.57,-17.04"/>
</g>
<!-- Node35&#45;&gt;Node34 -->
<g id="edge45" class="edge">
<title>Node35&#45;&gt;Node34</title>
<path fill="none" stroke="#63b8ff" d="M575.48,-54.98C561.68,-46.77 540.54,-34.18 524.26,-24.49"/>
<polygon fill="#63b8ff" stroke="#63b8ff" points="525.72,-21.28 515.34,-19.17 522.14,-27.29 525.72,-21.28"/>
</g>
<!-- Node36 -->
<g id="node36" class="node">
<title>Node36</title>
<g id="a_node36"><a xlink:title=" ">
<polygon fill="#e0e0e0" stroke="#999999" points="619.78,-19 555.78,-19 555.78,0 619.78,0 619.78,-19"/>
<text text-anchor="middle" x="587.78" y="-7" font-family="Helvetica,sans-Serif" font-size="10.00">algorithm</text>
</a>
</g>
</g>
<!-- Node35&#45;&gt;Node36 -->
<g id="edge41" class="edge">
<title>Node35&#45;&gt;Node36</title>
<path fill="none" stroke="#63b8ff" d="M589.45,-54.75C589.18,-47.8 588.81,-37.85 588.48,-29.13"/>
<polygon fill="#63b8ff" stroke="#63b8ff" points="591.97,-28.95 588.1,-19.09 584.98,-29.21 591.97,-28.95"/>
</g>
<!-- Node37 -->
<g id="node37" class="node">
<title>Node37</title>
<g id="a_node37"><a xlink:title=" ">
<polygon fill="#e0e0e0" stroke="#999999" points="687.28,-19 638.28,-19 638.28,0 687.28,0 687.28,-19"/>
<text text-anchor="middle" x="662.78" y="-7" font-family="Helvetica,sans-Serif" font-size="10.00">cctype</text>
</a>
</g>
</g>
<!-- Node35&#45;&gt;Node37 -->
<g id="edge43" class="edge">
<title>Node35&#45;&gt;Node37</title>
<path fill="none" stroke="#63b8ff" d="M601.5,-54.98C612.51,-47 629.2,-34.88 642.38,-25.31"/>
<polygon fill="#63b8ff" stroke="#63b8ff" points="644.8,-27.88 650.83,-19.17 640.69,-22.21 644.8,-27.88"/>
</g>
<!-- Node35&#45;&gt;Node38 -->
<g id="edge44" class="edge">
<title>Node35&#45;&gt;Node38</title>
<path fill="none" stroke="#63b8ff" d="M611.95,-54.98C634.68,-46.25 670.26,-32.59 695.99,-22.71"/>
<polygon fill="#63b8ff" stroke="#63b8ff" points="697.58,-25.85 705.66,-18.99 695.07,-19.31 697.58,-25.85"/>
</g>
<!-- Node39&#45;&gt;Node17 -->
<g id="edge59" class="edge">
<title>Node39&#45;&gt;Node17</title>
<path fill="none" stroke="#63b8ff" d="M703.86,-109.93C736.53,-101.29 782.06,-87.36 794.78,-74 806.3,-61.9 810.86,-43.1 812.65,-29.09"/>
<polygon fill="#63b8ff" stroke="#63b8ff" points="816.14,-29.38 813.58,-19.11 809.17,-28.74 816.14,-29.38"/>
</g>
<!-- Node39&#45;&gt;Node31 -->
<g id="edge60" class="edge">
<title>Node39&#45;&gt;Node31</title>
<path fill="none" stroke="#63b8ff" d="M633.55,-117.11C535.34,-112.91 263.63,-99.14 232.78,-74 219.63,-63.28 214.98,-43.98 213.41,-29.47"/>
<polygon fill="#63b8ff" stroke="#63b8ff" points="216.88,-28.84 212.71,-19.1 209.89,-29.32 216.88,-28.84"/>
</g>
<!-- Node39&#45;&gt;Node35 -->
<g id="edge49" class="edge">
<title>Node39&#45;&gt;Node35</title>
<path fill="none" stroke="#63b8ff" d="M656.08,-109.98C643.95,-101.84 625.42,-89.41 611.03,-79.76"/>
<polygon fill="#63b8ff" stroke="#63b8ff" points="612.95,-76.84 602.7,-74.17 609.05,-82.65 612.95,-76.84"/>
</g>
<!-- Node39&#45;&gt;Node40 -->
<g id="edge50" class="edge">
<title>Node39&#45;&gt;Node40</title>
<path fill="none" stroke="#63b8ff" d="M672.24,-109.75C675.06,-102.65 679.12,-92.4 682.62,-83.56"/>
<polygon fill="#63b8ff" stroke="#63b8ff" points="685.94,-84.68 686.37,-74.09 679.44,-82.1 685.94,-84.68"/>
</g>
<!-- Node42 -->
<g id="node42" class="node">
<title>Node42</title>
<g id="a_node42"><a xlink:title=" ">
<polygon fill="#e0e0e0" stroke="#999999" points="526.78,-74 468.78,-74 468.78,-55 526.78,-55 526.78,-74"/>
<text text-anchor="middle" x="497.78" y="-62" font-family="Helvetica,sans-Serif" font-size="10.00">memory</text>
</a>
</g>
</g>
<!-- Node39&#45;&gt;Node42 -->
<g id="edge56" class="edge">
<title>Node39&#45;&gt;Node42</title>
<path fill="none" stroke="#63b8ff" d="M641.3,-109.98C612.59,-101.09 567.36,-87.07 535.35,-77.15"/>
<polygon fill="#63b8ff" stroke="#63b8ff" points="536.05,-73.7 525.47,-74.08 533.98,-80.39 536.05,-73.7"/>
</g>
<!-- Node39&#45;&gt;Node43 -->
<g id="edge57" class="edge">
<title>Node39&#45;&gt;Node43</title>
<path fill="none" stroke="#63b8ff" d="M699.78,-109.98C736.15,-100 796.02,-83.56 831.89,-73.71"/>
<polygon fill="#63b8ff" stroke="#63b8ff" points="833.05,-77.02 841.77,-70.99 831.2,-70.27 833.05,-77.02"/>
</g>
<!-- Node44 -->
<g id="node44" class="node">
<title>Node44</title>
<g id="a_node44"><a xlink:title=" ">
<polygon fill="#e0e0e0" stroke="#999999" points="785.28,-74 744.28,-74 744.28,-55 785.28,-55 785.28,-74"/>
<text text-anchor="middle" x="764.78" y="-62" font-family="Helvetica,sans-Serif" font-size="10.00">tuple</text>
</a>
</g>
</g>
<!-- Node39&#45;&gt;Node44 -->
<g id="edge58" class="edge">
<title>Node39&#45;&gt;Node44</title>
<path fill="none" stroke="#63b8ff" d="M684.2,-109.98C699.23,-101.69 722.32,-88.94 739.93,-79.22"/>
<polygon fill="#63b8ff" stroke="#63b8ff" points="742.01,-82.07 749.07,-74.17 738.63,-75.94 742.01,-82.07"/>
</g>
<!-- Node40&#45;&gt;Node25 -->
<g id="edge52" class="edge">
<title>Node40&#45;&gt;Node25</title>
<path fill="none" stroke="#63b8ff" d="M726.43,-56.7C729.59,-56.13 732.74,-55.55 735.78,-55 812.36,-41.11 902.21,-25.21 950.61,-16.68"/>
<polygon fill="#63b8ff" stroke="#63b8ff" points="951.33,-20.11 960.57,-14.93 950.12,-13.22 951.33,-20.11"/>
</g>
<!-- Node40&#45;&gt;Node30 -->
<g id="edge51" class="edge">
<title>Node40&#45;&gt;Node30</title>
<path fill="none" stroke="#63b8ff" d="M653.14,-56.6C649.98,-56.04 646.82,-55.5 643.78,-55 536.57,-37.35 506.19,-40.39 395.82,-19.03"/>
<polygon fill="#63b8ff" stroke="#63b8ff" points="396.45,-15.59 385.96,-17.1 395.1,-22.46 396.45,-15.59"/>
</g>
<!-- Node40&#45;&gt;Node31 -->
<g id="edge55" class="edge">
<title>Node40&#45;&gt;Node31</title>
<path fill="none" stroke="#63b8ff" d="M653.17,-56.43C650,-55.91 646.83,-55.42 643.78,-55 471.35,-31.16 425.94,-44.71 253.78,-19 251.41,-18.65 248.98,-18.24 246.53,-17.81"/>
<polygon fill="#63b8ff" stroke="#63b8ff" points="247.02,-14.34 236.54,-15.9 245.71,-21.22 247.02,-14.34"/>
</g>
<!-- Node40&#45;&gt;Node38 -->
<g id="edge54" class="edge">
<title>Node40&#45;&gt;Node38</title>
<path fill="none" stroke="#63b8ff" d="M696.05,-54.75C701.36,-47.34 709.13,-36.5 715.65,-27.41"/>
<polygon fill="#63b8ff" stroke="#63b8ff" points="718.64,-29.26 721.62,-19.09 712.95,-25.18 718.64,-29.26"/>
</g>
<!-- Node40&#45;&gt;Node41 -->
<g id="edge53" class="edge">
<title>Node40&#45;&gt;Node41</title>
<path fill="none" stroke="#63b8ff" d="M726.37,-56.32C729.55,-55.82 732.71,-55.37 735.78,-55 998.28,-22.94 1316.34,-13.65 1429.92,-11.26"/>
<polygon fill="#63b8ff" stroke="#63b8ff" points="1430.03,-14.75 1439.96,-11.05 1429.89,-7.76 1430.03,-14.75"/>
</g>
<!-- Node52&#45;&gt;Node49 -->
<g id="edge87" class="edge">
<title>Node52&#45;&gt;Node49</title>
<path fill="none" stroke="#63b8ff" d="M338.77,-384.98C346.97,-377.23 359.28,-365.58 369.25,-356.14"/>
<polygon fill="#63b8ff" stroke="#63b8ff" points="371.76,-358.59 376.61,-349.17 366.95,-353.5 371.76,-358.59"/>
</g>
<!-- Node53 -->
<g id="node53" class="node">
<title>Node53</title>
<g id="a_node53"><a xlink:href="proxy_8h.html" target="_top" xlink:title=" ">
<polygon fill="white" stroke="#666666" points="342.78,-349 290.78,-349 290.78,-330 342.78,-330 342.78,-349"/>
<text text-anchor="middle" x="316.78" y="-337" font-family="Helvetica,sans-Serif" font-size="10.00">proxy.h</text>
</a>
</g>
</g>
<!-- Node52&#45;&gt;Node53 -->
<g id="edge84" class="edge">
<title>Node52&#45;&gt;Node53</title>
<path fill="none" stroke="#63b8ff" d="M327.63,-384.75C325.91,-377.72 323.43,-367.62 321.28,-358.84"/>
<polygon fill="#63b8ff" stroke="#63b8ff" points="324.66,-357.97 318.88,-349.09 317.87,-359.63 324.66,-357.97"/>
</g>
<!-- Node53&#45;&gt;Node42 -->
<g id="edge85" class="edge">
<title>Node53&#45;&gt;Node42</title>
<path fill="none" stroke="#63b8ff" d="M330.27,-329.92C354.02,-313.66 400.78,-275.87 400.78,-230.5 400.78,-230.5 400.78,-230.5 400.78,-173.5 400.78,-130.52 443.82,-96.87 472.57,-79.2"/>
<polygon fill="#63b8ff" stroke="#63b8ff" points="474.49,-82.13 481.32,-74.03 470.93,-76.1 474.49,-82.13"/>
</g>
<!-- Node54 -->
<g id="node54" class="node">
<title>Node54</title>
<g id="a_node54"><a xlink:title=" ">
<polygon fill="#e0e0e0" stroke="#999999" points="335.28,-294 298.28,-294 298.28,-275 335.28,-275 335.28,-294"/>
<text text-anchor="middle" x="316.78" y="-282" font-family="Helvetica,sans-Serif" font-size="10.00">uv.h</text>
</a>
</g>
</g>
<!-- Node53&#45;&gt;Node54 -->
<g id="edge86" class="edge">
<title>Node53&#45;&gt;Node54</title>
<path fill="none" stroke="#63b8ff" d="M316.78,-329.75C316.78,-322.8 316.78,-312.85 316.78,-304.13"/>
<polygon fill="#63b8ff" stroke="#63b8ff" points="320.28,-304.09 316.78,-294.09 313.28,-304.09 320.28,-304.09"/>
</g>
</g>
</svg>
