<?xml version="1.0" encoding="UTF-8" standalone="no"?>
<!DOCTYPE svg PUBLIC "-//W3C//DTD SVG 1.1//EN"
 "http://www.w3.org/Graphics/SVG/1.1/DTD/svg11.dtd">
<!-- Generated by graphviz version 2.43.0 (0)
 -->
<!-- Title: src/host/enclave.h Pages: 1 -->
<svg width="2065pt" height="467pt"
 viewBox="0.00 0.00 2065.00 467.00" xmlns="http://www.w3.org/2000/svg" xmlns:xlink="http://www.w3.org/1999/xlink">
<g id="graph0" class="graph" transform="scale(1 1) rotate(0) translate(4 463)">
<title>src/host/enclave.h</title>
<!-- Node1 -->
<g id="node1" class="node">
<title>Node1</title>
<g id="a_node1"><a xlink:title=" ">
<polygon fill="#999999" stroke="#666666" points="1598.5,-459 1493.5,-459 1493.5,-440 1598.5,-440 1598.5,-459"/>
<text text-anchor="middle" x="1546" y="-447" font-family="Helvetica,sans-Serif" font-size="10.00">src/host/enclave.h</text>
</a>
</g>
</g>
<!-- Node2 -->
<g id="node2" class="node">
<title>Node2</title>
<g id="a_node2"><a xlink:href="logger_8h.html" target="_top" xlink:title=" ">
<polygon fill="white" stroke="#666666" points="697.5,-239 610.5,-239 610.5,-220 697.5,-220 697.5,-239"/>
<text text-anchor="middle" x="654" y="-227" font-family="Helvetica,sans-Serif" font-size="10.00">ccf/ds/logger.h</text>
</a>
</g>
</g>
<!-- Node1&#45;&gt;Node2 -->
<g id="edge1" class="edge">
<title>Node1&#45;&gt;Node2</title>
<path fill="none" stroke="#63b8ff" d="M1493.21,-441.26C1370.11,-423.59 1055.24,-373.73 802,-294 757.91,-280.12 709.05,-257.69 679.96,-243.53"/>
<polygon fill="#63b8ff" stroke="#63b8ff" points="681.41,-240.35 670.89,-239.08 678.32,-246.63 681.41,-240.35"/>
</g>
<!-- Node17 -->
<g id="node17" class="node">
<title>Node17</title>
<g id="a_node17"><a xlink:title=" ">
<polygon fill="#e0e0e0" stroke="#999999" points="1585.5,-404 1506.5,-404 1506.5,-385 1585.5,-385 1585.5,-404"/>
<text text-anchor="middle" x="1546" y="-392" font-family="Helvetica,sans-Serif" font-size="10.00">ccf/version.h</text>
</a>
</g>
</g>
<!-- Node1&#45;&gt;Node17 -->
<g id="edge18" class="edge">
<title>Node1&#45;&gt;Node17</title>
<path fill="none" stroke="#63b8ff" d="M1546,-439.75C1546,-432.8 1546,-422.85 1546,-414.13"/>
<polygon fill="#63b8ff" stroke="#63b8ff" points="1549.5,-414.09 1546,-404.09 1542.5,-414.09 1549.5,-414.09"/>
</g>
<!-- Node18 -->
<g id="node18" class="node">
<title>Node18</title>
<g id="a_node18"><a xlink:href="interface_8h.html" target="_top" xlink:title=" ">
<polygon fill="white" stroke="#666666" points="1488,-404 1378,-404 1378,-385 1488,-385 1488,-404"/>
<text text-anchor="middle" x="1433" y="-392" font-family="Helvetica,sans-Serif" font-size="10.00">enclave/interface.h</text>
</a>
</g>
</g>
<!-- Node1&#45;&gt;Node18 -->
<g id="edge19" class="edge">
<title>Node1&#45;&gt;Node18</title>
<path fill="none" stroke="#63b8ff" d="M1527.84,-439.98C1509.75,-431.5 1481.72,-418.35 1460.81,-408.54"/>
<polygon fill="#63b8ff" stroke="#63b8ff" points="1462.03,-405.25 1451.49,-404.17 1459.05,-411.59 1462.03,-405.25"/>
</g>
<!-- Node49 -->
<g id="node49" class="node">
<title>Node49</title>
<g id="a_node49"><a xlink:title=" ">
<polygon fill="#e0e0e0" stroke="#999999" points="1654,-404 1604,-404 1604,-385 1654,-385 1654,-404"/>
<text text-anchor="middle" x="1629" y="-392" font-family="Helvetica,sans-Serif" font-size="10.00">dlfcn.h</text>
</a>
</g>
</g>
<!-- Node1&#45;&gt;Node49 -->
<g id="edge80" class="edge">
<title>Node1&#45;&gt;Node49</title>
<path fill="none" stroke="#63b8ff" d="M1559.34,-439.98C1572.09,-431.84 1591.55,-419.41 1606.67,-409.76"/>
<polygon fill="#63b8ff" stroke="#63b8ff" points="1608.88,-412.5 1615.42,-404.17 1605.11,-406.6 1608.88,-412.5"/>
</g>
<!-- Node50 -->
<g id="node50" class="node">
<title>Node50</title>
<g id="a_node50"><a xlink:title=" ">
<polygon fill="#e0e0e0" stroke="#999999" points="1740,-404 1672,-404 1672,-385 1740,-385 1740,-404"/>
<text text-anchor="middle" x="1706" y="-392" font-family="Helvetica,sans-Serif" font-size="10.00">filesystem</text>
</a>
</g>
</g>
<!-- Node1&#45;&gt;Node50 -->
<g id="edge81" class="edge">
<title>Node1&#45;&gt;Node50</title>
<path fill="none" stroke="#63b8ff" d="M1571.71,-439.98C1598.45,-431.13 1640.53,-417.19 1670.45,-407.28"/>
<polygon fill="#63b8ff" stroke="#63b8ff" points="1671.7,-410.55 1680.09,-404.08 1669.5,-403.9 1671.7,-410.55"/>
</g>
<!-- Node3 -->
<g id="node3" class="node">
<title>Node3</title>
<g id="a_node3"><a xlink:href="enum__formatter_8h.html" target="_top" xlink:title=" ">
<polygon fill="white" stroke="#666666" points="408,-184 272,-184 272,-165 408,-165 408,-184"/>
<text text-anchor="middle" x="340" y="-172" font-family="Helvetica,sans-Serif" font-size="10.00">ccf/ds/enum_formatter.h</text>
</a>
</g>
</g>
<!-- Node2&#45;&gt;Node3 -->
<g id="edge2" class="edge">
<title>Node2&#45;&gt;Node3</title>
<path fill="none" stroke="#63b8ff" d="M610.34,-221.13C555.75,-211.92 462.01,-196.09 400.52,-185.71"/>
<polygon fill="#63b8ff" stroke="#63b8ff" points="401,-182.25 390.56,-184.03 399.84,-189.15 401,-182.25"/>
</g>
<!-- Node4 -->
<g id="node4" class="node">
<title>Node4</title>
<g id="a_node4"><a xlink:title=" ">
<polygon fill="#e0e0e0" stroke="#999999" points="447.5,-129 368.5,-129 368.5,-110 447.5,-110 447.5,-129"/>
<text text-anchor="middle" x="408" y="-117" font-family="Helvetica,sans-Serif" font-size="10.00">fmt/format.h</text>
</a>
</g>
</g>
<!-- Node2&#45;&gt;Node4 -->
<g id="edge12" class="edge">
<title>Node2&#45;&gt;Node4</title>
<path fill="none" stroke="#63b8ff" d="M610.26,-227.4C567.52,-224.43 502.18,-214.7 455,-184 437.63,-172.7 424.39,-152.61 416.45,-138.05"/>
<polygon fill="#63b8ff" stroke="#63b8ff" points="419.5,-136.33 411.82,-129.03 413.28,-139.52 419.5,-136.33"/>
</g>
<!-- Node5 -->
<g id="node5" class="node">
<title>Node5</title>
<g id="a_node5"><a xlink:href="thread__ids_8h.html" target="_top" xlink:title=" ">
<polygon fill="white" stroke="#666666" points="216,-184 108,-184 108,-165 216,-165 216,-184"/>
<text text-anchor="middle" x="162" y="-172" font-family="Helvetica,sans-Serif" font-size="10.00">ccf/ds/thread_ids.h</text>
</a>
</g>
</g>
<!-- Node2&#45;&gt;Node5 -->
<g id="edge4" class="edge">
<title>Node2&#45;&gt;Node5</title>
<path fill="none" stroke="#63b8ff" d="M610.34,-223.8C523.37,-214.43 328.15,-193.4 226.41,-182.44"/>
<polygon fill="#63b8ff" stroke="#63b8ff" points="226.59,-178.94 216.27,-181.35 225.84,-185.9 226.59,-178.94"/>
</g>
<!-- Node11 -->
<g id="node11" class="node">
<title>Node11</title>
<g id="a_node11"><a xlink:title=" ">
<polygon fill="#e0e0e0" stroke="#999999" points="543.5,-184 464.5,-184 464.5,-165 543.5,-165 543.5,-184"/>
<text text-anchor="middle" x="504" y="-172" font-family="Helvetica,sans-Serif" font-size="10.00">fmt/chrono.h</text>
</a>
</g>
</g>
<!-- Node2&#45;&gt;Node11 -->
<g id="edge11" class="edge">
<title>Node2&#45;&gt;Node11</title>
<path fill="none" stroke="#63b8ff" d="M629.9,-219.98C605.12,-211.23 566.3,-197.51 538.31,-187.62"/>
<polygon fill="#63b8ff" stroke="#63b8ff" points="539.13,-184.2 528.54,-184.17 536.8,-190.8 539.13,-184.2"/>
</g>
<!-- Node12 -->
<g id="node12" class="node">
<title>Node12</title>
<g id="a_node12"><a xlink:title=" ">
<polygon fill="#e0e0e0" stroke="#999999" points="621,-184 561,-184 561,-165 621,-165 621,-184"/>
<text text-anchor="middle" x="591" y="-172" font-family="Helvetica,sans-Serif" font-size="10.00">iostream</text>
</a>
</g>
</g>
<!-- Node2&#45;&gt;Node12 -->
<g id="edge13" class="edge">
<title>Node2&#45;&gt;Node12</title>
<path fill="none" stroke="#63b8ff" d="M643.88,-219.98C634.56,-212.15 620.53,-200.34 609.26,-190.86"/>
<polygon fill="#63b8ff" stroke="#63b8ff" points="611.21,-187.93 601.31,-184.17 606.71,-193.29 611.21,-187.93"/>
</g>
<!-- Node13 -->
<g id="node13" class="node">
<title>Node13</title>
<g id="a_node13"><a xlink:title=" ">
<polygon fill="#e0e0e0" stroke="#999999" points="749,-184 639,-184 639,-165 749,-165 749,-184"/>
<text text-anchor="middle" x="694" y="-172" font-family="Helvetica,sans-Serif" font-size="10.00">nlohmann/json.hpp</text>
</a>
</g>
</g>
<!-- Node2&#45;&gt;Node13 -->
<g id="edge14" class="edge">
<title>Node2&#45;&gt;Node13</title>
<path fill="none" stroke="#63b8ff" d="M660.61,-219.75C666.26,-212.26 674.54,-201.28 681.45,-192.13"/>
<polygon fill="#63b8ff" stroke="#63b8ff" points="684.29,-194.18 687.52,-184.09 678.7,-189.96 684.29,-194.18"/>
</g>
<!-- Node14 -->
<g id="node14" class="node">
<title>Node14</title>
<g id="a_node14"><a xlink:title=" ">
<polygon fill="#e0e0e0" stroke="#999999" points="1115,-129 1059,-129 1059,-110 1115,-110 1115,-129"/>
<text text-anchor="middle" x="1087" y="-117" font-family="Helvetica,sans-Serif" font-size="10.00">optional</text>
</a>
</g>
</g>
<!-- Node2&#45;&gt;Node14 -->
<g id="edge15" class="edge">
<title>Node2&#45;&gt;Node14</title>
<path fill="none" stroke="#63b8ff" d="M697.67,-221.18C700.48,-220.76 703.28,-220.37 706,-220 781.08,-209.89 980.26,-223.35 1045,-184 1061.91,-173.73 1073.4,-153.76 1080.03,-138.95"/>
<polygon fill="#63b8ff" stroke="#63b8ff" points="1083.44,-139.86 1084.01,-129.28 1076.97,-137.2 1083.44,-139.86"/>
</g>
<!-- Node15 -->
<g id="node15" class="node">
<title>Node15</title>
<g id="a_node15"><a xlink:title=" ">
<polygon fill="#e0e0e0" stroke="#999999" points="823,-184 767,-184 767,-165 823,-165 823,-184"/>
<text text-anchor="middle" x="795" y="-172" font-family="Helvetica,sans-Serif" font-size="10.00">sstream</text>
</a>
</g>
</g>
<!-- Node2&#45;&gt;Node15 -->
<g id="edge16" class="edge">
<title>Node2&#45;&gt;Node15</title>
<path fill="none" stroke="#63b8ff" d="M676.65,-219.98C699.85,-211.27 736.12,-197.63 762.4,-187.75"/>
<polygon fill="#63b8ff" stroke="#63b8ff" points="763.8,-190.97 771.93,-184.17 761.34,-184.41 763.8,-190.97"/>
</g>
<!-- Node16 -->
<g id="node16" class="node">
<title>Node16</title>
<g id="a_node16"><a xlink:title=" ">
<polygon fill="#e0e0e0" stroke="#999999" points="1210.5,-19 1141.5,-19 1141.5,0 1210.5,0 1210.5,-19"/>
<text text-anchor="middle" x="1176" y="-7" font-family="Helvetica,sans-Serif" font-size="10.00">type_traits</text>
</a>
</g>
</g>
<!-- Node2&#45;&gt;Node16 -->
<g id="edge17" class="edge">
<title>Node2&#45;&gt;Node16</title>
<path fill="none" stroke="#63b8ff" d="M697.67,-221.22C700.49,-220.79 703.28,-220.38 706,-220 773.8,-210.47 955.75,-223.04 1012,-184 1042.37,-162.92 1030.44,-141.37 1050,-110 1066.13,-84.13 1067.8,-74.79 1091,-55 1106.68,-41.63 1127.06,-30.79 1143.93,-23.15"/>
<polygon fill="#63b8ff" stroke="#63b8ff" points="1145.62,-26.23 1153.39,-19.04 1142.83,-19.81 1145.62,-26.23"/>
</g>
<!-- Node3&#45;&gt;Node4 -->
<g id="edge3" class="edge">
<title>Node3&#45;&gt;Node4</title>
<path fill="none" stroke="#63b8ff" d="M350.93,-164.98C361.08,-157.07 376.42,-145.11 388.65,-135.58"/>
<polygon fill="#63b8ff" stroke="#63b8ff" points="391.14,-138.08 396.88,-129.17 386.84,-132.56 391.14,-138.08"/>
</g>
<!-- Node5&#45;&gt;Node4 -->
<g id="edge5" class="edge">
<title>Node5&#45;&gt;Node4</title>
<path fill="none" stroke="#63b8ff" d="M201.52,-164.98C244.17,-155.8 312.15,-141.15 358.36,-131.19"/>
<polygon fill="#63b8ff" stroke="#63b8ff" points="359.13,-134.61 368.17,-129.08 357.65,-127.77 359.13,-134.61"/>
</g>
<!-- Node6 -->
<g id="node6" class="node">
<title>Node6</title>
<g id="a_node6"><a xlink:title=" ">
<polygon fill="#e0e0e0" stroke="#999999" points="142,-129 56,-129 56,-110 142,-110 142,-129"/>
<text text-anchor="middle" x="99" y="-117" font-family="Helvetica,sans-Serif" font-size="10.00">fmt/ostream.h</text>
</a>
</g>
</g>
<!-- Node5&#45;&gt;Node6 -->
<g id="edge6" class="edge">
<title>Node5&#45;&gt;Node6</title>
<path fill="none" stroke="#63b8ff" d="M151.88,-164.98C142.56,-157.15 128.53,-145.34 117.26,-135.86"/>
<polygon fill="#63b8ff" stroke="#63b8ff" points="119.21,-132.93 109.31,-129.17 114.71,-138.29 119.21,-132.93"/>
</g>
<!-- Node7 -->
<g id="node7" class="node">
<title>Node7</title>
<g id="a_node7"><a xlink:title=" ">
<polygon fill="#e0e0e0" stroke="#999999" points="221.5,-129 160.5,-129 160.5,-110 221.5,-110 221.5,-129"/>
<text text-anchor="middle" x="191" y="-117" font-family="Helvetica,sans-Serif" font-size="10.00">fmt/std.h</text>
</a>
</g>
</g>
<!-- Node5&#45;&gt;Node7 -->
<g id="edge7" class="edge">
<title>Node5&#45;&gt;Node7</title>
<path fill="none" stroke="#63b8ff" d="M166.79,-164.75C170.76,-157.49 176.53,-146.95 181.43,-137.98"/>
<polygon fill="#63b8ff" stroke="#63b8ff" points="184.57,-139.54 186.3,-129.09 178.43,-136.18 184.57,-139.54"/>
</g>
<!-- Node8 -->
<g id="node8" class="node">
<title>Node8</title>
<g id="a_node8"><a xlink:title=" ">
<polygon fill="#e0e0e0" stroke="#999999" points="350,-129 306,-129 306,-110 350,-110 350,-129"/>
<text text-anchor="middle" x="328" y="-117" font-family="Helvetica,sans-Serif" font-size="10.00">limits</text>
</a>
</g>
</g>
<!-- Node5&#45;&gt;Node8 -->
<g id="edge8" class="edge">
<title>Node5&#45;&gt;Node8</title>
<path fill="none" stroke="#63b8ff" d="M188.67,-164.98C217.9,-155.65 264.78,-140.68 295.98,-130.72"/>
<polygon fill="#63b8ff" stroke="#63b8ff" points="297.45,-133.93 305.91,-127.55 295.32,-127.26 297.45,-133.93"/>
</g>
<!-- Node9 -->
<g id="node9" class="node">
<title>Node9</title>
<g id="a_node9"><a xlink:title=" ">
<polygon fill="#e0e0e0" stroke="#999999" points="38,-129 0,-129 0,-110 38,-110 38,-129"/>
<text text-anchor="middle" x="19" y="-117" font-family="Helvetica,sans-Serif" font-size="10.00">map</text>
</a>
</g>
</g>
<!-- Node5&#45;&gt;Node9 -->
<g id="edge9" class="edge">
<title>Node5&#45;&gt;Node9</title>
<path fill="none" stroke="#63b8ff" d="M139.02,-164.98C114.24,-155.8 74.73,-141.16 47.87,-131.2"/>
<polygon fill="#63b8ff" stroke="#63b8ff" points="48.84,-127.83 38.25,-127.63 46.41,-134.39 48.84,-127.83"/>
</g>
<!-- Node10 -->
<g id="node10" class="node">
<title>Node10</title>
<g id="a_node10"><a xlink:title=" ">
<polygon fill="#e0e0e0" stroke="#999999" points="288,-129 240,-129 240,-110 288,-110 288,-129"/>
<text text-anchor="middle" x="264" y="-117" font-family="Helvetica,sans-Serif" font-size="10.00">thread</text>
</a>
</g>
</g>
<!-- Node5&#45;&gt;Node10 -->
<g id="edge10" class="edge">
<title>Node5&#45;&gt;Node10</title>
<path fill="none" stroke="#63b8ff" d="M178.39,-164.98C194.57,-156.57 219.57,-143.59 238.38,-133.81"/>
<polygon fill="#63b8ff" stroke="#63b8ff" points="240.05,-136.89 247.31,-129.17 236.83,-130.68 240.05,-136.89"/>
</g>
<!-- Node19 -->
<g id="node19" class="node">
<title>Node19</title>
<g id="a_node19"><a xlink:href="oversized_8h.html" target="_top" xlink:title=" ">
<polygon fill="white" stroke="#666666" points="1254.5,-349 1167.5,-349 1167.5,-330 1254.5,-330 1254.5,-349"/>
<text text-anchor="middle" x="1211" y="-337" font-family="Helvetica,sans-Serif" font-size="10.00">ds/oversized.h</text>
</a>
</g>
</g>
<!-- Node18&#45;&gt;Node19 -->
<g id="edge20" class="edge">
<title>Node18&#45;&gt;Node19</title>
<path fill="none" stroke="#63b8ff" d="M1397.33,-384.98C1359.17,-375.87 1298.53,-361.4 1256.85,-351.45"/>
<polygon fill="#63b8ff" stroke="#63b8ff" points="1257.49,-348 1246.95,-349.08 1255.86,-354.81 1257.49,-348"/>
</g>
<!-- Node25 -->
<g id="node25" class="node">
<title>Node25</title>
<g id="a_node25"><a xlink:href="ring__buffer__types_8h.html" target="_top" xlink:title=" ">
<polygon fill="white" stroke="#666666" points="1367,-184 1257,-184 1257,-165 1367,-165 1367,-184"/>
<text text-anchor="middle" x="1312" y="-172" font-family="Helvetica,sans-Serif" font-size="10.00">ring_buffer_types.h</text>
</a>
</g>
</g>
<!-- Node18&#45;&gt;Node25 -->
<g id="edge77" class="edge">
<title>Node18&#45;&gt;Node25</title>
<path fill="none" stroke="#63b8ff" d="M1428.26,-384.95C1410.3,-352.61 1346.28,-237.26 1321.7,-192.98"/>
<polygon fill="#63b8ff" stroke="#63b8ff" points="1324.76,-191.27 1316.84,-184.22 1318.63,-194.67 1324.76,-191.27"/>
</g>
<!-- Node30 -->
<g id="node30" class="node">
<title>Node30</title>
<g id="a_node30"><a xlink:title=" ">
<polygon fill="#e0e0e0" stroke="#999999" points="1814.5,-19 1767.5,-19 1767.5,0 1814.5,0 1814.5,-19"/>
<text text-anchor="middle" x="1791" y="-7" font-family="Helvetica,sans-Serif" font-size="10.00">vector</text>
</a>
</g>
</g>
<!-- Node18&#45;&gt;Node30 -->
<g id="edge79" class="edge">
<title>Node18&#45;&gt;Node30</title>
<path fill="none" stroke="#63b8ff" d="M1488.1,-385.41C1640.59,-362.83 2057,-299.87 2057,-285.5 2057,-285.5 2057,-285.5 2057,-118.5 2057,-80.28 2032.16,-74.02 1999,-55 1943.63,-23.24 1868.2,-14.08 1825.05,-11.48"/>
<polygon fill="#63b8ff" stroke="#63b8ff" points="1824.97,-7.98 1814.81,-10.95 1824.61,-14.97 1824.97,-7.98"/>
</g>
<!-- Node48 -->
<g id="node48" class="node">
<title>Node48</title>
<g id="a_node48"><a xlink:title=" ">
<polygon fill="#e0e0e0" stroke="#999999" points="1511,-349 1461,-349 1461,-330 1511,-330 1511,-349"/>
<text text-anchor="middle" x="1486" y="-337" font-family="Helvetica,sans-Serif" font-size="10.00">chrono</text>
</a>
</g>
</g>
<!-- Node18&#45;&gt;Node48 -->
<g id="edge78" class="edge">
<title>Node18&#45;&gt;Node48</title>
<path fill="none" stroke="#63b8ff" d="M1441.75,-384.75C1449.47,-377.03 1460.9,-365.6 1470.22,-356.28"/>
<polygon fill="#63b8ff" stroke="#63b8ff" points="1472.81,-358.64 1477.41,-349.09 1467.86,-353.69 1472.81,-358.64"/>
</g>
<!-- Node19&#45;&gt;Node4 -->
<g id="edge75" class="edge">
<title>Node19&#45;&gt;Node4</title>
<path fill="none" stroke="#63b8ff" d="M1167.5,-338.62C997.15,-338.09 379.15,-326.24 263,-184 257.66,-177.46 257.98,-171.79 263,-165 274.55,-149.37 321,-136.97 358.25,-129.27"/>
<polygon fill="#63b8ff" stroke="#63b8ff" points="359.36,-132.62 368.48,-127.22 357.99,-125.75 359.36,-132.62"/>
</g>
<!-- Node20 -->
<g id="node20" class="node">
<title>Node20</title>
<g id="a_node20"><a xlink:href="messaging_8h.html" target="_top" xlink:title=" ">
<polygon fill="white" stroke="#666666" points="890.5,-294 811.5,-294 811.5,-275 890.5,-275 890.5,-294"/>
<text text-anchor="middle" x="851" y="-282" font-family="Helvetica,sans-Serif" font-size="10.00">messaging.h</text>
</a>
</g>
</g>
<!-- Node19&#45;&gt;Node20 -->
<g id="edge21" class="edge">
<title>Node19&#45;&gt;Node20</title>
<path fill="none" stroke="#63b8ff" d="M1167.22,-332.05C1099.88,-322.14 971.31,-303.21 900.62,-292.81"/>
<polygon fill="#63b8ff" stroke="#63b8ff" points="901.03,-289.33 890.63,-291.33 900.01,-296.25 901.03,-289.33"/>
</g>
<!-- Node21 -->
<g id="node21" class="node">
<title>Node21</title>
<g id="a_node21"><a xlink:href="ring__buffer_8h.html" target="_top" xlink:title=" ">
<polygon fill="white" stroke="#666666" points="1212.5,-239 1135.5,-239 1135.5,-220 1212.5,-220 1212.5,-239"/>
<text text-anchor="middle" x="1174" y="-227" font-family="Helvetica,sans-Serif" font-size="10.00">ring_buffer.h</text>
</a>
</g>
</g>
<!-- Node19&#45;&gt;Node21 -->
<g id="edge73" class="edge">
<title>Node19&#45;&gt;Node21</title>
<path fill="none" stroke="#63b8ff" d="M1207.46,-329.69C1203.9,-320.76 1198.35,-306.5 1194,-294 1188.77,-278.97 1183.38,-261.74 1179.52,-249.03"/>
<polygon fill="#63b8ff" stroke="#63b8ff" points="1182.79,-247.75 1176.55,-239.18 1176.08,-249.77 1182.79,-247.75"/>
</g>
<!-- Node39 -->
<g id="node39" class="node">
<title>Node39</title>
<g id="a_node39"><a xlink:href="serialized_8h.html" target="_top" xlink:title=" ">
<polygon fill="white" stroke="#666666" points="1412.5,-74 1339.5,-74 1339.5,-55 1412.5,-55 1412.5,-74"/>
<text text-anchor="middle" x="1376" y="-62" font-family="Helvetica,sans-Serif" font-size="10.00">serialized.h</text>
</a>
</g>
</g>
<!-- Node19&#45;&gt;Node39 -->
<g id="edge74" class="edge">
<title>Node19&#45;&gt;Node39</title>
<path fill="none" stroke="#63b8ff" d="M1254.61,-332.37C1309.02,-321.99 1395,-295.32 1395,-230.5 1395,-230.5 1395,-230.5 1395,-173.5 1395,-141.56 1386.84,-105.1 1381.22,-83.77"/>
<polygon fill="#63b8ff" stroke="#63b8ff" points="1384.58,-82.81 1378.56,-74.09 1377.83,-84.66 1384.58,-82.81"/>
</g>
<!-- Node47 -->
<g id="node47" class="node">
<title>Node47</title>
<g id="a_node47"><a xlink:title=" ">
<polygon fill="#e0e0e0" stroke="#999999" points="1295.5,-294 1202.5,-294 1202.5,-275 1295.5,-275 1295.5,-294"/>
<text text-anchor="middle" x="1249" y="-282" font-family="Helvetica,sans-Serif" font-size="10.00">unordered_map</text>
</a>
</g>
</g>
<!-- Node19&#45;&gt;Node47 -->
<g id="edge76" class="edge">
<title>Node19&#45;&gt;Node47</title>
<path fill="none" stroke="#63b8ff" d="M1217.27,-329.75C1222.59,-322.34 1230.36,-311.5 1236.88,-302.41"/>
<polygon fill="#63b8ff" stroke="#63b8ff" points="1239.86,-304.26 1242.84,-294.09 1234.17,-300.18 1239.86,-304.26"/>
</g>
<!-- Node20&#45;&gt;Node2 -->
<g id="edge22" class="edge">
<title>Node20&#45;&gt;Node2</title>
<path fill="none" stroke="#63b8ff" d="M819.35,-274.98C785.84,-265.97 732.8,-251.7 695.86,-241.76"/>
<polygon fill="#63b8ff" stroke="#63b8ff" points="696.47,-238.3 685.9,-239.08 694.65,-245.06 696.47,-238.3"/>
</g>
<!-- Node20&#45;&gt;Node9 -->
<g id="edge71" class="edge">
<title>Node20&#45;&gt;Node9</title>
<path fill="none" stroke="#63b8ff" d="M811.25,-281.04C675.28,-272.19 229.93,-239.55 99,-184 73.38,-173.13 49.11,-151.72 34.16,-136.78"/>
<polygon fill="#63b8ff" stroke="#63b8ff" points="36.34,-134 26.86,-129.26 31.31,-138.87 36.34,-134"/>
</g>
<!-- Node20&#45;&gt;Node21 -->
<g id="edge23" class="edge">
<title>Node20&#45;&gt;Node21</title>
<path fill="none" stroke="#63b8ff" d="M890.61,-277C949.73,-267.3 1060.96,-249.05 1125.08,-238.53"/>
<polygon fill="#63b8ff" stroke="#63b8ff" points="1126.03,-241.92 1135.33,-236.85 1124.89,-235.01 1126.03,-241.92"/>
</g>
<!-- Node40 -->
<g id="node40" class="node">
<title>Node40</title>
<g id="a_node40"><a xlink:title=" ">
<polygon fill="#e0e0e0" stroke="#999999" points="1076.5,-19 1011.5,-19 1011.5,0 1076.5,0 1076.5,-19"/>
<text text-anchor="middle" x="1044" y="-7" font-family="Helvetica,sans-Serif" font-size="10.00">stdexcept</text>
</a>
</g>
</g>
<!-- Node20&#45;&gt;Node40 -->
<g id="edge72" class="edge">
<title>Node20&#45;&gt;Node40</title>
<path fill="none" stroke="#63b8ff" d="M854.05,-274.88C863.7,-248.36 895.59,-166.38 940,-110 966.07,-76.9 1002.92,-44.24 1025.03,-25.8"/>
<polygon fill="#63b8ff" stroke="#63b8ff" points="1027.51,-28.29 1033,-19.24 1023.06,-22.89 1027.51,-28.29"/>
</g>
<!-- Node44 -->
<g id="node44" class="node">
<title>Node44</title>
<g id="a_node44"><a xlink:title=" ">
<polygon fill="#e0e0e0" stroke="#999999" points="1183,-129 1133,-129 1133,-110 1183,-110 1183,-129"/>
<text text-anchor="middle" x="1158" y="-117" font-family="Helvetica,sans-Serif" font-size="10.00">atomic</text>
</a>
</g>
</g>
<!-- Node20&#45;&gt;Node44 -->
<g id="edge69" class="edge">
<title>Node20&#45;&gt;Node44</title>
<path fill="none" stroke="#63b8ff" d="M873.22,-274.9C913.28,-259.06 999.75,-223.28 1068,-184 1093.55,-169.3 1120.96,-149.28 1138.72,-135.68"/>
<polygon fill="#63b8ff" stroke="#63b8ff" points="1141.31,-138.1 1147.08,-129.21 1137.03,-132.57 1141.31,-138.1"/>
</g>
<!-- Node46 -->
<g id="node46" class="node">
<title>Node46</title>
<g id="a_node46"><a xlink:title=" ">
<polygon fill="#e0e0e0" stroke="#999999" points="822.5,-239 715.5,-239 715.5,-220 822.5,-220 822.5,-239"/>
<text text-anchor="middle" x="769" y="-227" font-family="Helvetica,sans-Serif" font-size="10.00">condition_variable</text>
</a>
</g>
</g>
<!-- Node20&#45;&gt;Node46 -->
<g id="edge70" class="edge">
<title>Node20&#45;&gt;Node46</title>
<path fill="none" stroke="#63b8ff" d="M837.83,-274.98C825.23,-266.84 806,-254.41 791.06,-244.76"/>
<polygon fill="#63b8ff" stroke="#63b8ff" points="792.71,-241.66 782.41,-239.17 788.91,-247.54 792.71,-241.66"/>
</g>
<!-- Node22 -->
<g id="node22" class="node">
<title>Node22</title>
<g id="a_node22"><a xlink:href="mem_8h.html" target="_top" xlink:title=" ">
<polygon fill="white" stroke="#666666" points="1003,-184 917,-184 917,-165 1003,-165 1003,-184"/>
<text text-anchor="middle" x="960" y="-172" font-family="Helvetica,sans-Serif" font-size="10.00">ccf/pal/mem.h</text>
</a>
</g>
</g>
<!-- Node21&#45;&gt;Node22 -->
<g id="edge24" class="edge">
<title>Node21&#45;&gt;Node22</title>
<path fill="none" stroke="#63b8ff" d="M1139.62,-219.98C1102.91,-210.89 1044.62,-196.46 1004.45,-186.51"/>
<polygon fill="#63b8ff" stroke="#63b8ff" points="1005.2,-183.09 994.65,-184.08 1003.52,-189.88 1005.2,-183.09"/>
</g>
<!-- Node24 -->
<g id="node24" class="node">
<title>Node24</title>
<g id="a_node24"><a xlink:title=" ">
<polygon fill="#e0e0e0" stroke="#999999" points="946,-19 896,-19 896,0 946,0 946,-19"/>
<text text-anchor="middle" x="921" y="-7" font-family="Helvetica,sans-Serif" font-size="10.00">cstring</text>
</a>
</g>
</g>
<!-- Node21&#45;&gt;Node24 -->
<g id="edge67" class="edge">
<title>Node21&#45;&gt;Node24</title>
<path fill="none" stroke="#63b8ff" d="M1135.28,-227.91C1068.65,-225.97 936.67,-217.86 908,-184 870.33,-139.5 896.86,-63.46 912.19,-28.75"/>
<polygon fill="#63b8ff" stroke="#63b8ff" points="915.5,-29.93 916.5,-19.38 909.14,-27 915.5,-29.93"/>
</g>
<!-- Node21&#45;&gt;Node25 -->
<g id="edge28" class="edge">
<title>Node21&#45;&gt;Node25</title>
<path fill="none" stroke="#63b8ff" d="M1196.17,-219.98C1218.77,-211.3 1254.06,-197.75 1279.75,-187.88"/>
<polygon fill="#63b8ff" stroke="#63b8ff" points="1281.34,-191.02 1289.42,-184.17 1278.83,-184.49 1281.34,-191.02"/>
</g>
<!-- Node21&#45;&gt;Node44 -->
<g id="edge66" class="edge">
<title>Node21&#45;&gt;Node44</title>
<path fill="none" stroke="#63b8ff" d="M1185.08,-219.71C1198.81,-207.68 1219.33,-185.26 1210,-165 1204.25,-152.52 1193.09,-142.24 1182.58,-134.71"/>
<polygon fill="#63b8ff" stroke="#63b8ff" points="1184.3,-131.65 1174.03,-129.05 1180.43,-137.49 1184.3,-131.65"/>
</g>
<!-- Node45 -->
<g id="node45" class="node">
<title>Node45</title>
<g id="a_node45"><a xlink:title=" ">
<polygon fill="#e0e0e0" stroke="#999999" points="1200.5,-184 1135.5,-184 1135.5,-165 1200.5,-165 1200.5,-184"/>
<text text-anchor="middle" x="1168" y="-172" font-family="Helvetica,sans-Serif" font-size="10.00">functional</text>
</a>
</g>
</g>
<!-- Node21&#45;&gt;Node45 -->
<g id="edge68" class="edge">
<title>Node21&#45;&gt;Node45</title>
<path fill="none" stroke="#63b8ff" d="M1173.01,-219.75C1172.22,-212.8 1171.1,-202.85 1170.11,-194.13"/>
<polygon fill="#63b8ff" stroke="#63b8ff" points="1173.58,-193.63 1168.97,-184.09 1166.62,-194.42 1173.58,-193.63"/>
</g>
<!-- Node22&#45;&gt;Node8 -->
<g id="edge27" class="edge">
<title>Node22&#45;&gt;Node8</title>
<path fill="none" stroke="#63b8ff" d="M916.68,-170.52C791.16,-161.87 432.03,-136.9 360.19,-128.52"/>
<polygon fill="#63b8ff" stroke="#63b8ff" points="360.62,-125.04 350.23,-127.15 359.67,-131.98 360.62,-125.04"/>
</g>
<!-- Node23 -->
<g id="node23" class="node">
<title>Node23</title>
<g id="a_node23"><a xlink:title=" ">
<polygon fill="#e0e0e0" stroke="#999999" points="1002.5,-129 949.5,-129 949.5,-110 1002.5,-110 1002.5,-129"/>
<text text-anchor="middle" x="976" y="-117" font-family="Helvetica,sans-Serif" font-size="10.00">stdlib.h</text>
</a>
</g>
</g>
<!-- Node22&#45;&gt;Node23 -->
<g id="edge25" class="edge">
<title>Node22&#45;&gt;Node23</title>
<path fill="none" stroke="#63b8ff" d="M962.64,-164.75C964.76,-157.72 967.81,-147.62 970.46,-138.84"/>
<polygon fill="#63b8ff" stroke="#63b8ff" points="973.87,-139.67 973.41,-129.09 967.17,-137.65 973.87,-139.67"/>
</g>
<!-- Node22&#45;&gt;Node24 -->
<g id="edge26" class="edge">
<title>Node22&#45;&gt;Node24</title>
<path fill="none" stroke="#63b8ff" d="M955.31,-164.9C950.73,-156.12 943.88,-141.98 940,-129 929.68,-94.52 924.64,-52.62 922.45,-29.01"/>
<polygon fill="#63b8ff" stroke="#63b8ff" points="925.93,-28.67 921.59,-19 918.96,-29.27 925.93,-28.67"/>
</g>
<!-- Node25&#45;&gt;Node4 -->
<g id="edge61" class="edge">
<title>Node25&#45;&gt;Node4</title>
<path fill="none" stroke="#63b8ff" d="M1256.97,-168.63C1241.76,-167.36 1225.25,-166.06 1210,-165 925.51,-145.26 583.76,-128.66 457.77,-122.78"/>
<polygon fill="#63b8ff" stroke="#63b8ff" points="457.81,-119.28 447.66,-122.31 457.49,-126.27 457.81,-119.28"/>
</g>
<!-- Node25&#45;&gt;Node14 -->
<g id="edge62" class="edge">
<title>Node25&#45;&gt;Node14</title>
<path fill="none" stroke="#63b8ff" d="M1275.85,-164.98C1234.54,-155.25 1167.21,-139.39 1125.1,-129.47"/>
<polygon fill="#63b8ff" stroke="#63b8ff" points="1125.76,-126.03 1115.23,-127.15 1124.16,-132.85 1125.76,-126.03"/>
</g>
<!-- Node26 -->
<g id="node26" class="node">
<title>Node26</title>
<g id="a_node26"><a xlink:href="include_2ccf_2ds_2hash_8h.html" target="_top" xlink:title=" ">
<polygon fill="white" stroke="#666666" points="1665,-129 1585,-129 1585,-110 1665,-110 1665,-129"/>
<text text-anchor="middle" x="1625" y="-117" font-family="Helvetica,sans-Serif" font-size="10.00">ccf/ds/hash.h</text>
</a>
</g>
</g>
<!-- Node25&#45;&gt;Node26 -->
<g id="edge29" class="edge">
<title>Node25&#45;&gt;Node26</title>
<path fill="none" stroke="#63b8ff" d="M1362.29,-164.98C1420.65,-155.1 1516.32,-138.9 1574.69,-129.02"/>
<polygon fill="#63b8ff" stroke="#63b8ff" points="1575.51,-132.43 1584.79,-127.31 1574.34,-125.53 1575.51,-132.43"/>
</g>
<!-- Node25&#45;&gt;Node30 -->
<g id="edge65" class="edge">
<title>Node25&#45;&gt;Node30</title>
<path fill="none" stroke="#63b8ff" d="M1367.05,-174.2C1512.79,-174.75 1902.91,-167.32 1981,-74 2024.66,-21.82 1890.67,-12.31 1825.02,-10.72"/>
<polygon fill="#63b8ff" stroke="#63b8ff" points="1824.8,-7.22 1814.73,-10.53 1824.66,-14.22 1824.8,-7.22"/>
</g>
<!-- Node34 -->
<g id="node34" class="node">
<title>Node34</title>
<g id="a_node34"><a xlink:href="nonstd_8h.html" target="_top" xlink:title=" ">
<polygon fill="white" stroke="#666666" points="1521,-74 1431,-74 1431,-55 1521,-55 1521,-74"/>
<text text-anchor="middle" x="1476" y="-62" font-family="Helvetica,sans-Serif" font-size="10.00">ccf/ds/nonstd.h</text>
</a>
</g>
</g>
<!-- Node25&#45;&gt;Node34 -->
<g id="edge39" class="edge">
<title>Node25&#45;&gt;Node34</title>
<path fill="none" stroke="#63b8ff" d="M1325.14,-164.84C1353.33,-146.28 1419.83,-102.49 1454.36,-79.75"/>
<polygon fill="#63b8ff" stroke="#63b8ff" points="1456.37,-82.62 1462.79,-74.2 1452.52,-76.77 1456.37,-82.62"/>
</g>
<!-- Node37 -->
<g id="node37" class="node">
<title>Node37</title>
<g id="a_node37"><a xlink:title=" ">
<polygon fill="#e0e0e0" stroke="#999999" points="1308,-19 1264,-19 1264,0 1308,0 1308,-19"/>
<text text-anchor="middle" x="1286" y="-7" font-family="Helvetica,sans-Serif" font-size="10.00">string</text>
</a>
</g>
</g>
<!-- Node25&#45;&gt;Node37 -->
<g id="edge64" class="edge">
<title>Node25&#45;&gt;Node37</title>
<path fill="none" stroke="#63b8ff" d="M1294.54,-164.89C1276.87,-156.1 1248.85,-141.96 1225,-129 1210.13,-120.92 1207.27,-117.3 1192,-110 1152.01,-90.89 1124.05,-110.56 1099,-74 1094.23,-67.03 1093.77,-61.63 1099,-55 1108.61,-42.84 1202.76,-24.89 1253.68,-15.96"/>
<polygon fill="#63b8ff" stroke="#63b8ff" points="1254.59,-19.36 1263.85,-14.2 1253.4,-12.46 1254.59,-19.36"/>
</g>
<!-- Node38 -->
<g id="node38" class="node">
<title>Node38</title>
<g id="a_node38"><a xlink:href="serializer_8h.html" target="_top" xlink:title=" ">
<polygon fill="white" stroke="#666666" points="1347,-129 1277,-129 1277,-110 1347,-110 1347,-129"/>
<text text-anchor="middle" x="1312" y="-117" font-family="Helvetica,sans-Serif" font-size="10.00">serializer.h</text>
</a>
</g>
</g>
<!-- Node25&#45;&gt;Node38 -->
<g id="edge47" class="edge">
<title>Node25&#45;&gt;Node38</title>
<path fill="none" stroke="#63b8ff" d="M1312,-164.75C1312,-157.8 1312,-147.85 1312,-139.13"/>
<polygon fill="#63b8ff" stroke="#63b8ff" points="1315.5,-139.09 1312,-129.09 1308.5,-139.09 1315.5,-139.09"/>
</g>
<!-- Node42 -->
<g id="node42" class="node">
<title>Node42</title>
<g id="a_node42"><a xlink:title=" ">
<polygon fill="#e0e0e0" stroke="#999999" points="1148,-74 1108,-74 1108,-55 1148,-55 1148,-74"/>
<text text-anchor="middle" x="1128" y="-62" font-family="Helvetica,sans-Serif" font-size="10.00">span</text>
</a>
</g>
</g>
<!-- Node25&#45;&gt;Node42 -->
<g id="edge63" class="edge">
<title>Node25&#45;&gt;Node42</title>
<path fill="none" stroke="#63b8ff" d="M1301.75,-164.96C1285.95,-152.05 1254.36,-127.21 1225,-110 1203.26,-97.25 1177.24,-85.49 1157.62,-77.26"/>
<polygon fill="#63b8ff" stroke="#63b8ff" points="1158.86,-73.99 1148.28,-73.41 1156.19,-80.46 1158.86,-73.99"/>
</g>
<!-- Node25&#45;&gt;Node44 -->
<g id="edge60" class="edge">
<title>Node25&#45;&gt;Node44</title>
<path fill="none" stroke="#63b8ff" d="M1287.26,-164.98C1261.63,-156.16 1221.37,-142.31 1192.59,-132.41"/>
<polygon fill="#63b8ff" stroke="#63b8ff" points="1193.53,-129.03 1182.94,-129.08 1191.25,-135.65 1193.53,-129.03"/>
</g>
<!-- Node27 -->
<g id="node27" class="node">
<title>Node27</title>
<g id="a_node27"><a xlink:href="siphash_8h.html" target="_top" xlink:title=" ">
<polygon fill="white" stroke="#666666" points="1748.5,-74 1653.5,-74 1653.5,-55 1748.5,-55 1748.5,-74"/>
<text text-anchor="middle" x="1701" y="-62" font-family="Helvetica,sans-Serif" font-size="10.00">ccf/ds/siphash.h</text>
</a>
</g>
</g>
<!-- Node26&#45;&gt;Node27 -->
<g id="edge30" class="edge">
<title>Node26&#45;&gt;Node27</title>
<path fill="none" stroke="#63b8ff" d="M1637.21,-109.98C1648.78,-101.92 1666.38,-89.65 1680.16,-80.03"/>
<polygon fill="#63b8ff" stroke="#63b8ff" points="1682.37,-82.76 1688.57,-74.17 1678.36,-77.02 1682.37,-82.76"/>
</g>
<!-- Node29 -->
<g id="node29" class="node">
<title>Node29</title>
<g id="a_node29"><a xlink:title=" ">
<polygon fill="#e0e0e0" stroke="#999999" points="1678,-19 1628,-19 1628,0 1678,0 1678,-19"/>
<text text-anchor="middle" x="1653" y="-7" font-family="Helvetica,sans-Serif" font-size="10.00">cstdint</text>
</a>
</g>
</g>
<!-- Node26&#45;&gt;Node29 -->
<g id="edge35" class="edge">
<title>Node26&#45;&gt;Node29</title>
<path fill="none" stroke="#63b8ff" d="M1627.29,-109.66C1631.85,-92.09 1642.12,-52.45 1648.22,-28.95"/>
<polygon fill="#63b8ff" stroke="#63b8ff" points="1651.63,-29.72 1650.76,-19.16 1644.86,-27.96 1651.63,-29.72"/>
</g>
<!-- Node26&#45;&gt;Node30 -->
<g id="edge38" class="edge">
<title>Node26&#45;&gt;Node30</title>
<path fill="none" stroke="#63b8ff" d="M1665.24,-116.14C1750.6,-110.71 1943.61,-96.11 1963,-74 2003.39,-27.94 1885.86,-15.25 1825.01,-11.78"/>
<polygon fill="#63b8ff" stroke="#63b8ff" points="1824.87,-8.27 1814.71,-11.25 1824.51,-15.26 1824.87,-8.27"/>
</g>
<!-- Node31 -->
<g id="node31" class="node">
<title>Node31</title>
<g id="a_node31"><a xlink:title=" ">
<polygon fill="#e0e0e0" stroke="#999999" points="1518,-19 1476,-19 1476,0 1518,0 1518,-19"/>
<text text-anchor="middle" x="1497" y="-7" font-family="Helvetica,sans-Serif" font-size="10.00">array</text>
</a>
</g>
</g>
<!-- Node26&#45;&gt;Node31 -->
<g id="edge34" class="edge">
<title>Node26&#45;&gt;Node31</title>
<path fill="none" stroke="#63b8ff" d="M1614.53,-109.66C1592.76,-91.3 1542.41,-48.81 1515.21,-25.87"/>
<polygon fill="#63b8ff" stroke="#63b8ff" points="1517.16,-22.93 1507.26,-19.16 1512.65,-28.28 1517.16,-22.93"/>
</g>
<!-- Node32 -->
<g id="node32" class="node">
<title>Node32</title>
<g id="a_node32"><a xlink:title=" ">
<polygon fill="#e0e0e0" stroke="#999999" points="1953.5,-74 1804.5,-74 1804.5,-55 1953.5,-55 1953.5,-74"/>
<text text-anchor="middle" x="1879" y="-62" font-family="Helvetica,sans-Serif" font-size="10.00">small_vector/SmallVector.h</text>
</a>
</g>
</g>
<!-- Node26&#45;&gt;Node32 -->
<g id="edge36" class="edge">
<title>Node26&#45;&gt;Node32</title>
<path fill="none" stroke="#63b8ff" d="M1665.25,-110.1C1709.39,-100.89 1780.31,-86.09 1828.24,-76.09"/>
<polygon fill="#63b8ff" stroke="#63b8ff" points="1829.03,-79.5 1838.1,-74.03 1827.6,-72.65 1829.03,-79.5"/>
</g>
<!-- Node33 -->
<g id="node33" class="node">
<title>Node33</title>
<g id="a_node33"><a xlink:title=" ">
<polygon fill="#e0e0e0" stroke="#999999" points="1609.5,-19 1536.5,-19 1536.5,0 1609.5,0 1609.5,-19"/>
<text text-anchor="middle" x="1573" y="-7" font-family="Helvetica,sans-Serif" font-size="10.00">string_view</text>
</a>
</g>
</g>
<!-- Node26&#45;&gt;Node33 -->
<g id="edge37" class="edge">
<title>Node26&#45;&gt;Node33</title>
<path fill="none" stroke="#63b8ff" d="M1620.74,-109.66C1612.21,-91.93 1592.85,-51.73 1581.58,-28.32"/>
<polygon fill="#63b8ff" stroke="#63b8ff" points="1584.66,-26.65 1577.17,-19.16 1578.35,-29.69 1584.66,-26.65"/>
</g>
<!-- Node28 -->
<g id="node28" class="node">
<title>Node28</title>
<g id="a_node28"><a xlink:title=" ">
<polygon fill="#e0e0e0" stroke="#999999" points="1749.5,-19 1696.5,-19 1696.5,0 1749.5,0 1749.5,-19"/>
<text text-anchor="middle" x="1723" y="-7" font-family="Helvetica,sans-Serif" font-size="10.00">cstddef</text>
</a>
</g>
</g>
<!-- Node27&#45;&gt;Node28 -->
<g id="edge31" class="edge">
<title>Node27&#45;&gt;Node28</title>
<path fill="none" stroke="#63b8ff" d="M1704.63,-54.75C1707.58,-47.65 1711.83,-37.4 1715.51,-28.56"/>
<polygon fill="#63b8ff" stroke="#63b8ff" points="1718.83,-29.67 1719.43,-19.09 1712.37,-26.98 1718.83,-29.67"/>
</g>
<!-- Node27&#45;&gt;Node29 -->
<g id="edge32" class="edge">
<title>Node27&#45;&gt;Node29</title>
<path fill="none" stroke="#63b8ff" d="M1693.07,-54.75C1686.15,-47.11 1675.93,-35.82 1667.55,-26.56"/>
<polygon fill="#63b8ff" stroke="#63b8ff" points="1670.09,-24.15 1660.78,-19.09 1664.9,-28.85 1670.09,-24.15"/>
</g>
<!-- Node27&#45;&gt;Node30 -->
<g id="edge33" class="edge">
<title>Node27&#45;&gt;Node30</title>
<path fill="none" stroke="#63b8ff" d="M1715.46,-54.98C1729.42,-46.77 1750.79,-34.18 1767.25,-24.49"/>
<polygon fill="#63b8ff" stroke="#63b8ff" points="1769.44,-27.26 1776.28,-19.17 1765.88,-21.23 1769.44,-27.26"/>
</g>
<!-- Node34&#45;&gt;Node16 -->
<g id="edge45" class="edge">
<title>Node34&#45;&gt;Node16</title>
<path fill="none" stroke="#63b8ff" d="M1430.76,-55.51C1374.05,-45.49 1277.45,-28.42 1220.9,-18.43"/>
<polygon fill="#63b8ff" stroke="#63b8ff" points="1221.28,-14.95 1210.83,-16.65 1220.06,-21.84 1221.28,-14.95"/>
</g>
<!-- Node34&#45;&gt;Node30 -->
<g id="edge46" class="edge">
<title>Node34&#45;&gt;Node30</title>
<path fill="none" stroke="#63b8ff" d="M1521.36,-57.84C1575.44,-50.77 1668.73,-37.55 1757.36,-19.18"/>
<polygon fill="#63b8ff" stroke="#63b8ff" points="1758.23,-22.57 1767.3,-17.09 1756.79,-15.72 1758.23,-22.57"/>
</g>
<!-- Node34&#45;&gt;Node31 -->
<g id="edge41" class="edge">
<title>Node34&#45;&gt;Node31</title>
<path fill="none" stroke="#63b8ff" d="M1479.47,-54.75C1482.28,-47.65 1486.34,-37.4 1489.85,-28.56"/>
<polygon fill="#63b8ff" stroke="#63b8ff" points="1493.17,-29.68 1493.6,-19.09 1486.66,-27.1 1493.17,-29.68"/>
</g>
<!-- Node34&#45;&gt;Node33 -->
<g id="edge44" class="edge">
<title>Node34&#45;&gt;Node33</title>
<path fill="none" stroke="#63b8ff" d="M1491.58,-54.98C1506.77,-46.69 1530.1,-33.94 1547.9,-24.22"/>
<polygon fill="#63b8ff" stroke="#63b8ff" points="1550.03,-27.04 1557.13,-19.17 1546.68,-20.89 1550.03,-27.04"/>
</g>
<!-- Node35 -->
<g id="node35" class="node">
<title>Node35</title>
<g id="a_node35"><a xlink:title=" ">
<polygon fill="#e0e0e0" stroke="#999999" points="1390,-19 1326,-19 1326,0 1390,0 1390,-19"/>
<text text-anchor="middle" x="1358" y="-7" font-family="Helvetica,sans-Serif" font-size="10.00">algorithm</text>
</a>
</g>
</g>
<!-- Node34&#45;&gt;Node35 -->
<g id="edge40" class="edge">
<title>Node34&#45;&gt;Node35</title>
<path fill="none" stroke="#63b8ff" d="M1457.04,-54.98C1437.97,-46.42 1408.34,-33.11 1386.45,-23.28"/>
<polygon fill="#63b8ff" stroke="#63b8ff" points="1387.86,-20.07 1377.3,-19.17 1384.99,-26.46 1387.86,-20.07"/>
</g>
<!-- Node36 -->
<g id="node36" class="node">
<title>Node36</title>
<g id="a_node36"><a xlink:title=" ">
<polygon fill="#e0e0e0" stroke="#999999" points="1457.5,-19 1408.5,-19 1408.5,0 1457.5,0 1457.5,-19"/>
<text text-anchor="middle" x="1433" y="-7" font-family="Helvetica,sans-Serif" font-size="10.00">cctype</text>
</a>
</g>
</g>
<!-- Node34&#45;&gt;Node36 -->
<g id="edge42" class="edge">
<title>Node34&#45;&gt;Node36</title>
<path fill="none" stroke="#63b8ff" d="M1468.9,-54.75C1462.83,-47.26 1453.91,-36.28 1446.49,-27.13"/>
<polygon fill="#63b8ff" stroke="#63b8ff" points="1448.99,-24.65 1439.97,-19.09 1443.55,-29.06 1448.99,-24.65"/>
</g>
<!-- Node34&#45;&gt;Node37 -->
<g id="edge43" class="edge">
<title>Node34&#45;&gt;Node37</title>
<path fill="none" stroke="#63b8ff" d="M1445.47,-54.98C1410.53,-45.24 1353.55,-29.34 1318,-19.43"/>
<polygon fill="#63b8ff" stroke="#63b8ff" points="1318.71,-15.99 1308.14,-16.68 1316.83,-22.73 1318.71,-15.99"/>
</g>
<!-- Node38&#45;&gt;Node16 -->
<g id="edge58" class="edge">
<title>Node38&#45;&gt;Node16</title>
<path fill="none" stroke="#63b8ff" d="M1280.54,-109.96C1250.12,-101.11 1206.91,-86.81 1195,-74 1183.74,-61.89 1179.13,-43.35 1177.26,-29.43"/>
<polygon fill="#63b8ff" stroke="#63b8ff" points="1180.7,-28.67 1176.24,-19.06 1173.73,-29.36 1180.7,-28.67"/>
</g>
<!-- Node38&#45;&gt;Node30 -->
<g id="edge59" class="edge">
<title>Node38&#45;&gt;Node30</title>
<path fill="none" stroke="#63b8ff" d="M1347.1,-116.91C1446.39,-112.14 1724.22,-96.89 1758,-74 1773.25,-63.67 1781.9,-44.02 1786.48,-29.3"/>
<polygon fill="#63b8ff" stroke="#63b8ff" points="1789.97,-29.81 1789.24,-19.24 1783.22,-27.96 1789.97,-29.81"/>
</g>
<!-- Node38&#45;&gt;Node34 -->
<g id="edge48" class="edge">
<title>Node38&#45;&gt;Node34</title>
<path fill="none" stroke="#63b8ff" d="M1338.35,-109.98C1365.76,-101.13 1408.89,-87.19 1439.56,-77.28"/>
<polygon fill="#63b8ff" stroke="#63b8ff" points="1441,-80.49 1449.44,-74.08 1438.85,-73.83 1441,-80.49"/>
</g>
<!-- Node38&#45;&gt;Node39 -->
<g id="edge49" class="edge">
<title>Node38&#45;&gt;Node39</title>
<path fill="none" stroke="#63b8ff" d="M1322.28,-109.98C1331.84,-102.07 1346.28,-90.11 1357.78,-80.58"/>
<polygon fill="#63b8ff" stroke="#63b8ff" points="1360.06,-83.24 1365.53,-74.17 1355.6,-77.85 1360.06,-83.24"/>
</g>
<!-- Node41 -->
<g id="node41" class="node">
<title>Node41</title>
<g id="a_node41"><a xlink:title=" ">
<polygon fill="#e0e0e0" stroke="#999999" points="1262,-74 1204,-74 1204,-55 1262,-55 1262,-74"/>
<text text-anchor="middle" x="1233" y="-62" font-family="Helvetica,sans-Serif" font-size="10.00">memory</text>
</a>
</g>
</g>
<!-- Node38&#45;&gt;Node41 -->
<g id="edge55" class="edge">
<title>Node38&#45;&gt;Node41</title>
<path fill="none" stroke="#63b8ff" d="M1299.31,-109.98C1287.17,-101.84 1268.64,-89.41 1254.25,-79.76"/>
<polygon fill="#63b8ff" stroke="#63b8ff" points="1256.18,-76.84 1245.92,-74.17 1252.28,-82.65 1256.18,-76.84"/>
</g>
<!-- Node38&#45;&gt;Node42 -->
<g id="edge56" class="edge">
<title>Node38&#45;&gt;Node42</title>
<path fill="none" stroke="#63b8ff" d="M1282.44,-109.98C1248.28,-100.15 1192.39,-84.05 1158.03,-74.15"/>
<polygon fill="#63b8ff" stroke="#63b8ff" points="1158.69,-70.7 1148.11,-71.29 1156.75,-77.42 1158.69,-70.7"/>
</g>
<!-- Node43 -->
<g id="node43" class="node">
<title>Node43</title>
<g id="a_node43"><a xlink:title=" ">
<polygon fill="#e0e0e0" stroke="#999999" points="1321.5,-74 1280.5,-74 1280.5,-55 1321.5,-55 1321.5,-74"/>
<text text-anchor="middle" x="1301" y="-62" font-family="Helvetica,sans-Serif" font-size="10.00">tuple</text>
</a>
</g>
</g>
<!-- Node38&#45;&gt;Node43 -->
<g id="edge57" class="edge">
<title>Node38&#45;&gt;Node43</title>
<path fill="none" stroke="#63b8ff" d="M1310.18,-109.75C1308.74,-102.8 1306.68,-92.85 1304.87,-84.13"/>
<polygon fill="#63b8ff" stroke="#63b8ff" points="1308.24,-83.17 1302.78,-74.09 1301.39,-84.59 1308.24,-83.17"/>
</g>
<!-- Node39&#45;&gt;Node24 -->
<g id="edge51" class="edge">
<title>Node39&#45;&gt;Node24</title>
<path fill="none" stroke="#63b8ff" d="M1339.2,-56.31C1336.43,-55.84 1333.67,-55.4 1331,-55 1312.55,-52.26 1052.34,-24.48 956.29,-14.25"/>
<polygon fill="#63b8ff" stroke="#63b8ff" points="956.51,-10.76 946.2,-13.18 955.77,-17.72 956.51,-10.76"/>
</g>
<!-- Node39&#45;&gt;Node29 -->
<g id="edge50" class="edge">
<title>Node39&#45;&gt;Node29</title>
<path fill="none" stroke="#63b8ff" d="M1412.66,-56.72C1415.82,-56.14 1418.96,-55.56 1422,-55 1506.46,-39.48 1530.34,-37.9 1617.95,-19.12"/>
<polygon fill="#63b8ff" stroke="#63b8ff" points="1618.75,-22.52 1627.79,-16.99 1617.28,-15.68 1618.75,-22.52"/>
</g>
<!-- Node39&#45;&gt;Node30 -->
<g id="edge54" class="edge">
<title>Node39&#45;&gt;Node30</title>
<path fill="none" stroke="#63b8ff" d="M1412.62,-56.47C1415.79,-55.94 1418.95,-55.44 1422,-55 1567.86,-33.77 1609.12,-45.87 1757.4,-19.04"/>
<polygon fill="#63b8ff" stroke="#63b8ff" points="1758.12,-22.47 1767.33,-17.22 1756.86,-15.59 1758.12,-22.47"/>
</g>
<!-- Node39&#45;&gt;Node37 -->
<g id="edge53" class="edge">
<title>Node39&#45;&gt;Node37</title>
<path fill="none" stroke="#63b8ff" d="M1361.54,-54.98C1347.58,-46.77 1326.21,-34.18 1309.75,-24.49"/>
<polygon fill="#63b8ff" stroke="#63b8ff" points="1311.12,-21.23 1300.72,-19.17 1307.56,-27.26 1311.12,-21.23"/>
</g>
<!-- Node39&#45;&gt;Node40 -->
<g id="edge52" class="edge">
<title>Node39&#45;&gt;Node40</title>
<path fill="none" stroke="#63b8ff" d="M1339.18,-56.44C1336.41,-55.94 1333.66,-55.46 1331,-55 1244.46,-40.12 1142.83,-24.89 1086.71,-16.67"/>
<polygon fill="#63b8ff" stroke="#63b8ff" points="1087.17,-13.2 1076.77,-15.22 1086.16,-20.13 1087.17,-13.2"/>
</g>
</g>
</svg>
