<?xml version="1.0" encoding="UTF-8" standalone="no"?>
<!DOCTYPE svg PUBLIC "-//W3C//DTD SVG 1.1//EN"
 "http://www.w3.org/Graphics/SVG/1.1/DTD/svg11.dtd">
<!-- Generated by graphviz version 2.43.0 (0)
 -->
<!-- Title: include/ccf/node/startup_config.h Pages: 1 -->
<svg width="2199pt" height="676pt"
 viewBox="0.00 0.00 2198.88 676.00" xmlns="http://www.w3.org/2000/svg" xmlns:xlink="http://www.w3.org/1999/xlink">
<g id="graph0" class="graph" transform="scale(1 1) rotate(0) translate(4 672)">
<title>include/ccf/node/startup_config.h</title>
<!-- Node1 -->
<g id="node1" class="node">
<title>Node1</title>
<g id="a_node1"><a xlink:title=" ">
<polygon fill="#999999" stroke="#666666" points="1849.38,-668 1715.38,-668 1715.38,-638 1849.38,-638 1849.38,-668"/>
<text text-anchor="start" x="1723.38" y="-656" font-family="Helvetica,sans-Serif" font-size="10.00">include/ccf/node/startup</text>
<text text-anchor="middle" x="1782.38" y="-645" font-family="Helvetica,sans-Serif" font-size="10.00">_config.h</text>
</a>
</g>
</g>
<!-- Node2 -->
<g id="node2" class="node">
<title>Node2</title>
<g id="a_node2"><a xlink:href="node__configuration__interface_8h.html" target="_top" xlink:title=" ">
<polygon fill="white" stroke="#666666" points="1770.88,-602 1627.88,-602 1627.88,-572 1770.88,-572 1770.88,-602"/>
<text text-anchor="start" x="1635.88" y="-590" font-family="Helvetica,sans-Serif" font-size="10.00">include/ccf/node/node</text>
<text text-anchor="middle" x="1699.38" y="-579" font-family="Helvetica,sans-Serif" font-size="10.00">_configuration_interface.h</text>
</a>
</g>
</g>
<!-- Node1&#45;&gt;Node2 -->
<g id="edge1" class="edge">
<title>Node1&#45;&gt;Node2</title>
<path fill="none" stroke="#63b8ff" d="M1755.77,-631.48C1743.37,-621.91 1728.92,-610.77 1717.75,-602.16"/>
<polygon fill="#63b8ff" stroke="#63b8ff" points="1753.91,-634.46 1763.96,-637.8 1758.18,-628.92 1753.91,-634.46"/>
</g>
<!-- Node15 -->
<g id="node15" class="node">
<title>Node15</title>
<g id="a_node15"><a xlink:href="common_2configuration_8h.html" target="_top" xlink:title=" ">
<polygon fill="white" stroke="#666666" points="1941.38,-596.5 1789.38,-596.5 1789.38,-577.5 1941.38,-577.5 1941.38,-596.5"/>
<text text-anchor="middle" x="1865.38" y="-584.5" font-family="Helvetica,sans-Serif" font-size="10.00">src/common/configuration.h</text>
</a>
</g>
</g>
<!-- Node1&#45;&gt;Node15 -->
<g id="edge21" class="edge">
<title>Node1&#45;&gt;Node15</title>
<path fill="none" stroke="#63b8ff" d="M1808.86,-631.58C1824.05,-619.87 1842.34,-605.77 1853.91,-596.84"/>
<polygon fill="#63b8ff" stroke="#63b8ff" points="1806.59,-628.92 1800.8,-637.8 1810.86,-634.46 1806.59,-628.92"/>
</g>
<!-- Node3 -->
<g id="node3" class="node">
<title>Node3</title>
<g id="a_node3"><a xlink:href="node__configuration__subsystem_8h.html" target="_top" xlink:title=" ">
<polygon fill="white" stroke="#666666" points="1837.38,-470 1683.38,-470 1683.38,-440 1837.38,-440 1837.38,-470"/>
<text text-anchor="start" x="1691.38" y="-458" font-family="Helvetica,sans-Serif" font-size="10.00">src/node/node_configuration</text>
<text text-anchor="middle" x="1760.38" y="-447" font-family="Helvetica,sans-Serif" font-size="10.00">_subsystem.h</text>
</a>
</g>
</g>
<!-- Node2&#45;&gt;Node3 -->
<g id="edge2" class="edge">
<title>Node2&#45;&gt;Node3</title>
<path fill="none" stroke="#63b8ff" d="M1710.29,-562.75C1722.92,-535.84 1743.3,-492.4 1753.75,-470.14"/>
<polygon fill="#63b8ff" stroke="#63b8ff" points="1707.11,-561.3 1706.03,-571.84 1713.44,-564.27 1707.11,-561.3"/>
</g>
<!-- Node4 -->
<g id="node4" class="node">
<title>Node4</title>
<g id="a_node4"><a xlink:href="frontend_8h.html" target="_top" xlink:title=" ">
<polygon fill="white" stroke="#666666" points="1929.88,-398.5 1800.88,-398.5 1800.88,-379.5 1929.88,-379.5 1929.88,-398.5"/>
<text text-anchor="middle" x="1865.38" y="-386.5" font-family="Helvetica,sans-Serif" font-size="10.00">src/node/rpc/frontend.h</text>
</a>
</g>
</g>
<!-- Node3&#45;&gt;Node4 -->
<g id="edge3" class="edge">
<title>Node3&#45;&gt;Node4</title>
<path fill="none" stroke="#63b8ff" d="M1792.13,-434.65C1811.9,-422.6 1836.36,-407.69 1851.41,-398.52"/>
<polygon fill="#63b8ff" stroke="#63b8ff" points="1790.14,-431.76 1783.43,-439.95 1793.79,-437.74 1790.14,-431.76"/>
</g>
<!-- Node5 -->
<g id="node5" class="node">
<title>Node5</title>
<g id="a_node5"><a xlink:href="acme__challenge__frontend_8h.html" target="_top" xlink:title=" ">
<polygon fill="white" stroke="#666666" points="2077.38,-338 1937.38,-338 1937.38,-308 2077.38,-308 2077.38,-338"/>
<text text-anchor="start" x="1945.38" y="-326" font-family="Helvetica,sans-Serif" font-size="10.00">src/node/acme_challenge</text>
<text text-anchor="middle" x="2007.38" y="-315" font-family="Helvetica,sans-Serif" font-size="10.00">_frontend.h</text>
</a>
</g>
</g>
<!-- Node4&#45;&gt;Node5 -->
<g id="edge4" class="edge">
<title>Node4&#45;&gt;Node5</title>
<path fill="none" stroke="#63b8ff" d="M1893.74,-375.22C1917.53,-364.5 1951.47,-349.2 1976.06,-338.12"/>
<polygon fill="#63b8ff" stroke="#63b8ff" points="1892.21,-372.07 1884.53,-379.37 1895.09,-378.45 1892.21,-372.07"/>
</g>
<!-- Node9 -->
<g id="node9" class="node">
<title>Node9</title>
<g id="a_node9"><a xlink:href="node__state_8h.html" target="_top" xlink:title=" ">
<polygon fill="white" stroke="#666666" points="1699.38,-200.5 1575.38,-200.5 1575.38,-181.5 1699.38,-181.5 1699.38,-200.5"/>
<text text-anchor="middle" x="1637.38" y="-188.5" font-family="Helvetica,sans-Serif" font-size="10.00">src/node/node_state.h</text>
</a>
</g>
</g>
<!-- Node4&#45;&gt;Node9 -->
<g id="edge12" class="edge">
<title>Node4&#45;&gt;Node9</title>
<path fill="none" stroke="#63b8ff" d="M1878.53,-371.05C1890,-354.05 1902.98,-327.63 1890.38,-308 1883.52,-297.3 1716.88,-225.77 1657.87,-200.68"/>
<polygon fill="#63b8ff" stroke="#63b8ff" points="1875.5,-369.27 1872.49,-379.43 1881.18,-373.37 1875.5,-369.27"/>
</g>
<!-- Node11 -->
<g id="node11" class="node">
<title>Node11</title>
<g id="a_node11"><a xlink:href="member__frontend_8h.html" target="_top" xlink:title=" ">
<polygon fill="white" stroke="#666666" points="1521.38,-338 1401.38,-338 1401.38,-308 1521.38,-308 1521.38,-338"/>
<text text-anchor="start" x="1409.38" y="-326" font-family="Helvetica,sans-Serif" font-size="10.00">src/node/rpc/member</text>
<text text-anchor="middle" x="1461.38" y="-315" font-family="Helvetica,sans-Serif" font-size="10.00">_frontend.h</text>
</a>
</g>
</g>
<!-- Node4&#45;&gt;Node11 -->
<g id="edge13" class="edge">
<title>Node4&#45;&gt;Node11</title>
<path fill="none" stroke="#63b8ff" d="M1791.44,-378.09C1723.44,-368.71 1619.9,-353.75 1530.38,-338 1527.49,-337.49 1524.54,-336.96 1521.56,-336.4"/>
<polygon fill="#63b8ff" stroke="#63b8ff" points="1791.24,-381.59 1801.62,-379.49 1792.19,-374.66 1791.24,-381.59"/>
</g>
<!-- Node12 -->
<g id="node12" class="node">
<title>Node12</title>
<g id="a_node12"><a xlink:href="node__frontend_8h.html" target="_top" xlink:title=" ">
<polygon fill="white" stroke="#666666" points="1697.38,-332.5 1539.38,-332.5 1539.38,-313.5 1697.38,-313.5 1697.38,-332.5"/>
<text text-anchor="middle" x="1618.38" y="-320.5" font-family="Helvetica,sans-Serif" font-size="10.00">src/node/rpc/node_frontend.h</text>
</a>
</g>
</g>
<!-- Node4&#45;&gt;Node12 -->
<g id="edge15" class="edge">
<title>Node4&#45;&gt;Node12</title>
<path fill="none" stroke="#63b8ff" d="M1822.4,-376.86C1773.68,-364.24 1695.32,-343.94 1651.24,-332.51"/>
<polygon fill="#63b8ff" stroke="#63b8ff" points="1821.77,-380.31 1832.33,-379.44 1823.53,-373.54 1821.77,-380.31"/>
</g>
<!-- Node14 -->
<g id="node14" class="node">
<title>Node14</title>
<g id="a_node14"><a xlink:href="user__frontend_8h.html" target="_top" xlink:title=" ">
<polygon fill="white" stroke="#666666" points="2190.88,-266.5 2035.88,-266.5 2035.88,-247.5 2190.88,-247.5 2190.88,-266.5"/>
<text text-anchor="middle" x="2113.38" y="-254.5" font-family="Helvetica,sans-Serif" font-size="10.00">src/node/rpc/user_frontend.h</text>
</a>
</g>
</g>
<!-- Node4&#45;&gt;Node14 -->
<g id="edge19" class="edge">
<title>Node4&#45;&gt;Node14</title>
<path fill="none" stroke="#63b8ff" d="M1940.21,-379C1995.59,-370.91 2064.97,-357.32 2086.38,-338 2107.39,-319.05 2112.07,-283.2 2113.1,-266.71"/>
<polygon fill="#63b8ff" stroke="#63b8ff" points="1939.45,-375.57 1930.05,-380.44 1940.44,-382.5 1939.45,-375.57"/>
</g>
<!-- Node6 -->
<g id="node6" class="node">
<title>Node6</title>
<g id="a_node6"><a xlink:href="src_2enclave_2enclave_8h.html" target="_top" xlink:title=" ">
<polygon fill="white" stroke="#666666" points="1493.38,-74 1371.38,-74 1371.38,-55 1493.38,-55 1493.38,-74"/>
<text text-anchor="middle" x="1432.38" y="-62" font-family="Helvetica,sans-Serif" font-size="10.00">src/enclave/enclave.h</text>
</a>
</g>
</g>
<!-- Node5&#45;&gt;Node6 -->
<g id="edge5" class="edge">
<title>Node5&#45;&gt;Node6</title>
<path fill="none" stroke="#63b8ff" d="M2006.91,-297.32C2005.4,-280.16 2000.89,-257.64 1988.38,-242 1904.95,-137.69 1845.81,-150.05 1718.38,-110 1643,-86.31 1552.32,-74.93 1493.57,-69.68"/>
<polygon fill="#63b8ff" stroke="#63b8ff" points="2003.44,-297.93 2007.53,-307.7 2010.43,-297.51 2003.44,-297.93"/>
</g>
<!-- Node8 -->
<g id="node8" class="node">
<title>Node8</title>
<g id="a_node8"><a xlink:href="ccf__acme__client_8h.html" target="_top" xlink:title=" ">
<polygon fill="white" stroke="#666666" points="1979.88,-266.5 1830.88,-266.5 1830.88,-247.5 1979.88,-247.5 1979.88,-266.5"/>
<text text-anchor="middle" x="1905.38" y="-254.5" font-family="Helvetica,sans-Serif" font-size="10.00">src/node/ccf_acme_client.h</text>
</a>
</g>
</g>
<!-- Node5&#45;&gt;Node8 -->
<g id="edge7" class="edge">
<title>Node5&#45;&gt;Node8</title>
<path fill="none" stroke="#63b8ff" d="M1976.28,-302.49C1957.12,-290.46 1933.51,-275.65 1918.96,-266.52"/>
<polygon fill="#63b8ff" stroke="#63b8ff" points="1974.67,-305.6 1985,-307.95 1978.39,-299.68 1974.67,-305.6"/>
</g>
<!-- Node7 -->
<g id="node7" class="node">
<title>Node7</title>
<g id="a_node7"><a xlink:href="enclave_2main_8cpp.html" target="_top" xlink:title=" ">
<polygon fill="white" stroke="#666666" points="1492.38,-19 1372.38,-19 1372.38,0 1492.38,0 1492.38,-19"/>
<text text-anchor="middle" x="1432.38" y="-7" font-family="Helvetica,sans-Serif" font-size="10.00">src/enclave/main.cpp</text>
</a>
</g>
</g>
<!-- Node6&#45;&gt;Node7 -->
<g id="edge6" class="edge">
<title>Node6&#45;&gt;Node7</title>
<path fill="none" stroke="#63b8ff" d="M1432.38,-44.66C1432.38,-35.93 1432.38,-25.99 1432.38,-19.09"/>
<polygon fill="#63b8ff" stroke="#63b8ff" points="1428.88,-44.75 1432.38,-54.75 1435.88,-44.75 1428.88,-44.75"/>
</g>
<!-- Node8&#45;&gt;Node9 -->
<g id="edge8" class="edge">
<title>Node8&#45;&gt;Node9</title>
<path fill="none" stroke="#63b8ff" d="M1859.74,-245.1C1806.96,-232.49 1721.16,-212.01 1673.04,-200.51"/>
<polygon fill="#63b8ff" stroke="#63b8ff" points="1858.98,-248.52 1869.52,-247.44 1860.6,-241.71 1858.98,-248.52"/>
</g>
<!-- Node9&#45;&gt;Node6 -->
<g id="edge9" class="edge">
<title>Node9&#45;&gt;Node6</title>
<path fill="none" stroke="#63b8ff" d="M1614.04,-176.07C1597.74,-166.22 1575.55,-152.59 1556.38,-140 1536.91,-127.21 1533.18,-122.29 1513.38,-110 1491.71,-96.54 1465.71,-82.63 1449.12,-74.03"/>
<polygon fill="#63b8ff" stroke="#63b8ff" points="1612.52,-179.23 1622.89,-181.39 1616.12,-173.24 1612.52,-179.23"/>
</g>
<!-- Node10 -->
<g id="node10" class="node">
<title>Node10</title>
<g id="a_node10"><a xlink:href="gov__effects_8h.html" target="_top" xlink:title=" ">
<polygon fill="white" stroke="#666666" points="1709.38,-134.5 1565.38,-134.5 1565.38,-115.5 1709.38,-115.5 1709.38,-134.5"/>
<text text-anchor="middle" x="1637.38" y="-122.5" font-family="Helvetica,sans-Serif" font-size="10.00">src/node/rpc/gov_effects.h</text>
</a>
</g>
</g>
<!-- Node9&#45;&gt;Node10 -->
<g id="edge10" class="edge">
<title>Node9&#45;&gt;Node10</title>
<path fill="none" stroke="#63b8ff" d="M1637.38,-171.08C1637.38,-159.13 1637.38,-144.22 1637.38,-134.91"/>
<polygon fill="#63b8ff" stroke="#63b8ff" points="1633.88,-171.37 1637.38,-181.37 1640.88,-171.37 1633.88,-171.37"/>
</g>
<!-- Node10&#45;&gt;Node6 -->
<g id="edge11" class="edge">
<title>Node10&#45;&gt;Node6</title>
<path fill="none" stroke="#63b8ff" d="M1597.71,-112.68C1558.07,-101.37 1498,-84.22 1462.23,-74.02"/>
<polygon fill="#63b8ff" stroke="#63b8ff" points="1597,-116.12 1607.57,-115.49 1598.92,-109.38 1597,-116.12"/>
</g>
<!-- Node11&#45;&gt;Node6 -->
<g id="edge14" class="edge">
<title>Node11&#45;&gt;Node6</title>
<path fill="none" stroke="#63b8ff" d="M1458.62,-297.57C1452.37,-242.24 1437.35,-109.45 1433.37,-74.21"/>
<polygon fill="#63b8ff" stroke="#63b8ff" points="1455.18,-298.3 1459.78,-307.84 1462.14,-297.51 1455.18,-298.3"/>
</g>
<!-- Node12&#45;&gt;Node6 -->
<g id="edge16" class="edge">
<title>Node12&#45;&gt;Node6</title>
<path fill="none" stroke="#63b8ff" d="M1595.92,-307.6C1582.79,-298.45 1566.48,-285.77 1554.38,-272 1524.02,-237.43 1455.16,-108.65 1436.9,-74.09"/>
<polygon fill="#63b8ff" stroke="#63b8ff" points="1594.17,-310.63 1604.41,-313.33 1598.09,-304.83 1594.17,-310.63"/>
</g>
<!-- Node13 -->
<g id="node13" class="node">
<title>Node13</title>
<g id="a_node13"><a xlink:href="jwt__key__auto__refresh_8h.html" target="_top" xlink:title=" ">
<polygon fill="white" stroke="#666666" points="1688.88,-272 1563.88,-272 1563.88,-242 1688.88,-242 1688.88,-272"/>
<text text-anchor="start" x="1571.88" y="-260" font-family="Helvetica,sans-Serif" font-size="10.00">src/node/jwt_key_auto</text>
<text text-anchor="middle" x="1626.38" y="-249" font-family="Helvetica,sans-Serif" font-size="10.00">_refresh.h</text>
</a>
</g>
</g>
<!-- Node12&#45;&gt;Node13 -->
<g id="edge17" class="edge">
<title>Node12&#45;&gt;Node13</title>
<path fill="none" stroke="#63b8ff" d="M1620.71,-303.35C1621.95,-293.47 1623.44,-281.51 1624.59,-272.36"/>
<polygon fill="#63b8ff" stroke="#63b8ff" points="1617.23,-303.01 1619.46,-313.37 1624.18,-303.88 1617.23,-303.01"/>
</g>
<!-- Node13&#45;&gt;Node9 -->
<g id="edge18" class="edge">
<title>Node13&#45;&gt;Node9</title>
<path fill="none" stroke="#63b8ff" d="M1630.52,-231.94C1632.39,-221.06 1634.48,-208.86 1635.86,-200.84"/>
<polygon fill="#63b8ff" stroke="#63b8ff" points="1627.07,-231.35 1628.82,-241.8 1633.97,-232.53 1627.07,-231.35"/>
</g>
<!-- Node14&#45;&gt;Node6 -->
<g id="edge20" class="edge">
<title>Node14&#45;&gt;Node6</title>
<path fill="none" stroke="#63b8ff" d="M2107.85,-237.56C2097.1,-205.31 2070.06,-139.31 2021.38,-110 1976.96,-83.25 1635.1,-70.99 1493.5,-67.02"/>
<polygon fill="#63b8ff" stroke="#63b8ff" points="2104.63,-238.97 2110.99,-247.45 2111.3,-236.86 2104.63,-238.97"/>
</g>
<!-- Node15&#45;&gt;Node4 -->
<g id="edge24" class="edge">
<title>Node15&#45;&gt;Node4</title>
<path fill="none" stroke="#63b8ff" d="M1865.38,-567.26C1865.38,-525.88 1865.38,-428.08 1865.38,-398.57"/>
<polygon fill="#63b8ff" stroke="#63b8ff" points="1861.88,-567.33 1865.38,-577.33 1868.88,-567.33 1861.88,-567.33"/>
</g>
<!-- Node16 -->
<g id="node16" class="node">
<title>Node16</title>
<g id="a_node16"><a xlink:href="host_2configuration_8h.html" target="_top" xlink:title=" ">
<polygon fill="white" stroke="#666666" points="2024.88,-530.5 1893.88,-530.5 1893.88,-511.5 2024.88,-511.5 2024.88,-530.5"/>
<text text-anchor="middle" x="1959.38" y="-518.5" font-family="Helvetica,sans-Serif" font-size="10.00">src/host/configuration.h</text>
</a>
</g>
</g>
<!-- Node15&#45;&gt;Node16 -->
<g id="edge22" class="edge">
<title>Node15&#45;&gt;Node16</title>
<path fill="none" stroke="#63b8ff" d="M1886.42,-571.68C1904.88,-559.11 1931.14,-541.23 1946.61,-530.7"/>
<polygon fill="#63b8ff" stroke="#63b8ff" points="1884.36,-568.85 1878.06,-577.37 1888.3,-574.63 1884.36,-568.85"/>
</g>
<!-- Node18 -->
<g id="node18" class="node">
<title>Node18</title>
<g id="a_node18"><a xlink:href="node__call__types_8h.html" target="_top" xlink:title=" ">
<polygon fill="white" stroke="#666666" points="1679.88,-536 1554.88,-536 1554.88,-506 1679.88,-506 1679.88,-536"/>
<text text-anchor="start" x="1562.88" y="-524" font-family="Helvetica,sans-Serif" font-size="10.00">src/node/rpc/node_call</text>
<text text-anchor="middle" x="1617.38" y="-513" font-family="Helvetica,sans-Serif" font-size="10.00">_types.h</text>
</a>
</g>
</g>
<!-- Node15&#45;&gt;Node18 -->
<g id="edge25" class="edge">
<title>Node15&#45;&gt;Node18</title>
<path fill="none" stroke="#63b8ff" d="M1822.32,-574.89C1780.54,-564.1 1716.98,-547.7 1671.73,-536.02"/>
<polygon fill="#63b8ff" stroke="#63b8ff" points="1821.64,-578.33 1832.19,-577.44 1823.39,-571.55 1821.64,-578.33"/>
</g>
<!-- Node23 -->
<g id="node23" class="node">
<title>Node23</title>
<g id="a_node23"><a xlink:href="node__interface_8h.html" target="_top" xlink:title=" ">
<polygon fill="white" stroke="#666666" points="1342.88,-530.5 1181.88,-530.5 1181.88,-511.5 1342.88,-511.5 1342.88,-530.5"/>
<text text-anchor="middle" x="1262.38" y="-518.5" font-family="Helvetica,sans-Serif" font-size="10.00">src/node/rpc/node_interface.h</text>
</a>
</g>
</g>
<!-- Node15&#45;&gt;Node23 -->
<g id="edge35" class="edge">
<title>Node15&#45;&gt;Node23</title>
<path fill="none" stroke="#63b8ff" d="M1806.3,-575.86C1797.3,-574.47 1788.1,-573.13 1779.38,-572 1625.57,-552.06 1445.06,-536.35 1343.16,-528.18"/>
<polygon fill="#63b8ff" stroke="#63b8ff" points="1805.92,-579.35 1816.35,-577.45 1807.02,-572.43 1805.92,-579.35"/>
</g>
<!-- Node17 -->
<g id="node17" class="node">
<title>Node17</title>
<g id="a_node17"><a xlink:href="host_2main_8cpp.html" target="_top" xlink:title=" ">
<polygon fill="white" stroke="#666666" points="2010.88,-464.5 1907.88,-464.5 1907.88,-445.5 2010.88,-445.5 2010.88,-464.5"/>
<text text-anchor="middle" x="1959.38" y="-452.5" font-family="Helvetica,sans-Serif" font-size="10.00">src/host/main.cpp</text>
</a>
</g>
</g>
<!-- Node16&#45;&gt;Node17 -->
<g id="edge23" class="edge">
<title>Node16&#45;&gt;Node17</title>
<path fill="none" stroke="#63b8ff" d="M1959.38,-501.08C1959.38,-489.13 1959.38,-474.22 1959.38,-464.91"/>
<polygon fill="#63b8ff" stroke="#63b8ff" points="1955.88,-501.37 1959.38,-511.37 1962.88,-501.37 1955.88,-501.37"/>
</g>
<!-- Node19 -->
<g id="node19" class="node">
<title>Node19</title>
<g id="a_node19"><a xlink:href="call__types_8h.html" target="_top" xlink:title=" ">
<polygon fill="white" stroke="#666666" points="1664.88,-464.5 1527.88,-464.5 1527.88,-445.5 1664.88,-445.5 1664.88,-464.5"/>
<text text-anchor="middle" x="1596.38" y="-452.5" font-family="Helvetica,sans-Serif" font-size="10.00">src/node/rpc/call_types.h</text>
</a>
</g>
</g>
<!-- Node18&#45;&gt;Node19 -->
<g id="edge26" class="edge">
<title>Node18&#45;&gt;Node19</title>
<path fill="none" stroke="#63b8ff" d="M1609.6,-496.28C1606,-485.31 1601.94,-472.94 1599.29,-464.84"/>
<polygon fill="#63b8ff" stroke="#63b8ff" points="1606.28,-497.39 1612.72,-505.8 1612.93,-495.2 1606.28,-497.39"/>
</g>
<!-- Node19&#45;&gt;Node11 -->
<g id="edge29" class="edge">
<title>Node19&#45;&gt;Node11</title>
<path fill="none" stroke="#63b8ff" d="M1576.56,-438.89C1564.34,-429.29 1548.54,-416.39 1535.38,-404 1512.25,-382.21 1487.61,-354.56 1473.4,-338.13"/>
<polygon fill="#63b8ff" stroke="#63b8ff" points="1574.7,-441.87 1584.74,-445.23 1578.99,-436.34 1574.7,-441.87"/>
</g>
<!-- Node20 -->
<g id="node20" class="node">
<title>Node20</title>
<g id="a_node20"><a xlink:href="common__endpoint__registry_8cpp.html" target="_top" xlink:title=" ">
<polygon fill="white" stroke="#666666" points="1881.38,-338 1753.38,-338 1753.38,-308 1881.38,-308 1881.38,-338"/>
<text text-anchor="start" x="1761.38" y="-326" font-family="Helvetica,sans-Serif" font-size="10.00">src/endpoints/common</text>
<text text-anchor="middle" x="1817.38" y="-315" font-family="Helvetica,sans-Serif" font-size="10.00">_endpoint_registry.cpp</text>
</a>
</g>
</g>
<!-- Node19&#45;&gt;Node20 -->
<g id="edge27" class="edge">
<title>Node19&#45;&gt;Node20</title>
<path fill="none" stroke="#63b8ff" d="M1626.23,-441.32C1647.6,-431.87 1676.83,-418.19 1701.38,-404 1737.18,-383.31 1776.27,-355.07 1798.7,-338.27"/>
<polygon fill="#63b8ff" stroke="#63b8ff" points="1624.76,-438.14 1617,-445.35 1627.57,-444.55 1624.76,-438.14"/>
</g>
<!-- Node21 -->
<g id="node21" class="node">
<title>Node21</title>
<g id="a_node21"><a xlink:href="wrap_8cpp.html" target="_top" xlink:title=" ">
<polygon fill="white" stroke="#666666" points="1027.88,-266.5 938.88,-266.5 938.88,-247.5 1027.88,-247.5 1027.88,-266.5"/>
<text text-anchor="middle" x="983.38" y="-254.5" font-family="Helvetica,sans-Serif" font-size="10.00">src/js/wrap.cpp</text>
</a>
</g>
</g>
<!-- Node19&#45;&gt;Node21 -->
<g id="edge28" class="edge">
<title>Node19&#45;&gt;Node21</title>
<path fill="none" stroke="#63b8ff" d="M1570.16,-440.87C1505.19,-408.53 1337.74,-326.31 1278.38,-308 1191.89,-281.32 1086.47,-267.8 1027.96,-261.88"/>
<polygon fill="#63b8ff" stroke="#63b8ff" points="1568.82,-444.12 1579.33,-445.45 1571.94,-437.85 1568.82,-444.12"/>
</g>
<!-- Node22 -->
<g id="node22" class="node">
<title>Node22</title>
<g id="a_node22"><a xlink:href="serialization_8h.html" target="_top" xlink:title=" ">
<polygon fill="white" stroke="#666666" points="1692.38,-398.5 1544.38,-398.5 1544.38,-379.5 1692.38,-379.5 1692.38,-398.5"/>
<text text-anchor="middle" x="1618.38" y="-386.5" font-family="Helvetica,sans-Serif" font-size="10.00">src/node/rpc/serialization.h</text>
</a>
</g>
</g>
<!-- Node19&#45;&gt;Node22 -->
<g id="edge30" class="edge">
<title>Node19&#45;&gt;Node22</title>
<path fill="none" stroke="#63b8ff" d="M1602.63,-435.82C1606.78,-423.74 1612.05,-408.41 1615.32,-398.91"/>
<polygon fill="#63b8ff" stroke="#63b8ff" points="1599.29,-434.77 1599.35,-445.37 1605.91,-437.05 1599.29,-434.77"/>
</g>
<!-- Node22&#45;&gt;Node9 -->
<g id="edge32" class="edge">
<title>Node22&#45;&gt;Node9</title>
<path fill="none" stroke="#63b8ff" d="M1658.77,-375.56C1676.68,-367.8 1696.02,-355.81 1706.38,-338 1716.38,-320.81 1705.79,-257.18 1697.38,-242 1687.2,-223.61 1667.35,-209.16 1653.28,-200.62"/>
<polygon fill="#63b8ff" stroke="#63b8ff" points="1657.02,-372.49 1649.03,-379.44 1659.61,-378.99 1657.02,-372.49"/>
</g>
<!-- Node22&#45;&gt;Node11 -->
<g id="edge33" class="edge">
<title>Node22&#45;&gt;Node11</title>
<path fill="none" stroke="#63b8ff" d="M1587.73,-375.5C1561.39,-364.77 1523.44,-349.3 1496.01,-338.12"/>
<polygon fill="#63b8ff" stroke="#63b8ff" points="1586.63,-378.83 1597.21,-379.37 1589.27,-372.35 1586.63,-378.83"/>
</g>
<!-- Node22&#45;&gt;Node12 -->
<g id="edge34" class="edge">
<title>Node22&#45;&gt;Node12</title>
<path fill="none" stroke="#63b8ff" d="M1618.38,-369.08C1618.38,-357.13 1618.38,-342.22 1618.38,-332.91"/>
<polygon fill="#63b8ff" stroke="#63b8ff" points="1614.88,-369.37 1618.38,-379.37 1621.88,-369.37 1614.88,-369.37"/>
</g>
<!-- Node22&#45;&gt;Node20 -->
<g id="edge31" class="edge">
<title>Node22&#45;&gt;Node20</title>
<path fill="none" stroke="#63b8ff" d="M1655.05,-376.21C1688.49,-365.45 1737.96,-349.54 1773.49,-338.12"/>
<polygon fill="#63b8ff" stroke="#63b8ff" points="1653.67,-372.98 1645.22,-379.37 1655.81,-379.64 1653.67,-372.98"/>
</g>
<!-- Node23&#45;&gt;Node3 -->
<g id="edge57" class="edge">
<title>Node23&#45;&gt;Node3</title>
<path fill="none" stroke="#63b8ff" d="M1349.95,-510.34C1433.24,-500.91 1562.01,-485.73 1673.38,-470 1676.56,-469.55 1679.81,-469.08 1683.09,-468.6"/>
<polygon fill="#63b8ff" stroke="#63b8ff" points="1349.31,-506.89 1339.76,-511.49 1350.09,-513.84 1349.31,-506.89"/>
</g>
<!-- Node23&#45;&gt;Node11 -->
<g id="edge60" class="edge">
<title>Node23&#45;&gt;Node11</title>
<path fill="none" stroke="#63b8ff" d="M1278.37,-504.25C1316.26,-466.93 1411.05,-373.58 1447.13,-338.04"/>
<polygon fill="#63b8ff" stroke="#63b8ff" points="1275.86,-501.81 1271.19,-511.33 1280.77,-506.8 1275.86,-501.81"/>
</g>
<!-- Node23&#45;&gt;Node12 -->
<g id="edge65" class="edge">
<title>Node23&#45;&gt;Node12</title>
<path fill="none" stroke="#63b8ff" d="M1286.95,-506.47C1355.39,-468.8 1546.81,-363.41 1602.81,-332.57"/>
<polygon fill="#63b8ff" stroke="#63b8ff" points="1285.21,-503.44 1278.14,-511.33 1288.59,-509.57 1285.21,-503.44"/>
</g>
<!-- Node23&#45;&gt;Node21 -->
<g id="edge36" class="edge">
<title>Node23&#45;&gt;Node21</title>
<path fill="none" stroke="#63b8ff" d="M1171.47,-512.79C983.5,-495.81 562.45,-446.27 476.38,-338 468.09,-327.56 467.43,-317.88 476.38,-308 507.16,-274.04 820.39,-262.3 938.58,-259.05"/>
<polygon fill="#63b8ff" stroke="#63b8ff" points="1171.33,-516.29 1181.6,-513.7 1171.95,-509.32 1171.33,-516.29"/>
</g>
<!-- Node24 -->
<g id="node24" class="node">
<title>Node24</title>
<g id="a_node24"><a xlink:href="wrap_8h.html" target="_top" xlink:title=" ">
<polygon fill="white" stroke="#666666" points="1070.38,-398.5 992.38,-398.5 992.38,-379.5 1070.38,-379.5 1070.38,-398.5"/>
<text text-anchor="middle" x="1031.38" y="-386.5" font-family="Helvetica,sans-Serif" font-size="10.00">src/js/wrap.h</text>
</a>
</g>
</g>
<!-- Node23&#45;&gt;Node24 -->
<g id="edge37" class="edge">
<title>Node23&#45;&gt;Node24</title>
<path fill="none" stroke="#63b8ff" d="M1238.24,-506.41C1190.62,-479.61 1085.82,-420.63 1046.6,-398.56"/>
<polygon fill="#63b8ff" stroke="#63b8ff" points="1236.8,-509.62 1247.23,-511.47 1240.23,-503.52 1236.8,-509.62"/>
</g>
<!-- Node31 -->
<g id="node31" class="node">
<title>Node31</title>
<g id="a_node31"><a xlink:href="historical__queries_8h.html" target="_top" xlink:title=" ">
<polygon fill="white" stroke="#666666" points="518.38,-206 412.38,-206 412.38,-176 518.38,-176 518.38,-206"/>
<text text-anchor="start" x="420.38" y="-194" font-family="Helvetica,sans-Serif" font-size="10.00">src/node/historical</text>
<text text-anchor="middle" x="465.38" y="-183" font-family="Helvetica,sans-Serif" font-size="10.00">_queries.h</text>
</a>
</g>
</g>
<!-- Node23&#45;&gt;Node31 -->
<g id="edge53" class="edge">
<title>Node23&#45;&gt;Node31</title>
<path fill="none" stroke="#63b8ff" d="M1171.74,-516.03C946.86,-504.97 381.38,-469.27 381.38,-390 381.38,-390 381.38,-390 381.38,-322 381.38,-273.09 423.84,-228.02 448.38,-206.05"/>
<polygon fill="#63b8ff" stroke="#63b8ff" points="1171.71,-519.53 1181.86,-516.52 1172.05,-512.54 1171.71,-519.53"/>
</g>
<!-- Node33 -->
<g id="node33" class="node">
<title>Node33</title>
<g id="a_node33"><a xlink:href="acme__subsystem_8h.html" target="_top" xlink:title=" ">
<polygon fill="white" stroke="#666666" points="1432.88,-200.5 1259.88,-200.5 1259.88,-181.5 1432.88,-181.5 1432.88,-200.5"/>
<text text-anchor="middle" x="1346.38" y="-188.5" font-family="Helvetica,sans-Serif" font-size="10.00">src/node/rpc/acme_subsystem.h</text>
</a>
</g>
</g>
<!-- Node23&#45;&gt;Node33 -->
<g id="edge58" class="edge">
<title>Node23&#45;&gt;Node33</title>
<path fill="none" stroke="#63b8ff" d="M1267.16,-501.35C1282.94,-439.74 1333.02,-244.19 1344.17,-200.65"/>
<polygon fill="#63b8ff" stroke="#63b8ff" points="1263.72,-500.67 1264.63,-511.23 1270.5,-502.41 1263.72,-500.67"/>
</g>
<!-- Node34 -->
<g id="node34" class="node">
<title>Node34</title>
<g id="a_node34"><a xlink:href="network__identity__subsystem_8h.html" target="_top" xlink:title=" ">
<polygon fill="white" stroke="#666666" points="228.88,-470 101.88,-470 101.88,-440 228.88,-440 228.88,-470"/>
<text text-anchor="start" x="109.88" y="-458" font-family="Helvetica,sans-Serif" font-size="10.00">src/node/rpc/network</text>
<text text-anchor="middle" x="165.38" y="-447" font-family="Helvetica,sans-Serif" font-size="10.00">_identity_subsystem.h</text>
</a>
</g>
</g>
<!-- Node23&#45;&gt;Node34 -->
<g id="edge61" class="edge">
<title>Node23&#45;&gt;Node34</title>
<path fill="none" stroke="#63b8ff" d="M1171.62,-516.09C1004.76,-508.69 638.07,-491.44 329.38,-470 296.31,-467.7 259.54,-464.61 229.21,-461.92"/>
<polygon fill="#63b8ff" stroke="#63b8ff" points="1171.69,-519.6 1181.83,-516.54 1172,-512.6 1171.69,-519.6"/>
</g>
<!-- Node37 -->
<g id="node37" class="node">
<title>Node37</title>
<g id="a_node37"><a xlink:href="node__operation_8h.html" target="_top" xlink:title=" ">
<polygon fill="white" stroke="#666666" points="384.38,-134.5 220.38,-134.5 220.38,-115.5 384.38,-115.5 384.38,-134.5"/>
<text text-anchor="middle" x="302.38" y="-122.5" font-family="Helvetica,sans-Serif" font-size="10.00">src/node/rpc/node_operation.h</text>
</a>
</g>
</g>
<!-- Node23&#45;&gt;Node37 -->
<g id="edge66" class="edge">
<title>Node23&#45;&gt;Node37</title>
<path fill="none" stroke="#63b8ff" d="M1171.47,-519.93C991.79,-518.85 597.51,-511.66 469.38,-470 406.3,-449.49 343.38,-456.33 343.38,-390 343.38,-390 343.38,-390 343.38,-256 343.38,-208.2 317.86,-154.89 307.09,-134.53"/>
<polygon fill="#63b8ff" stroke="#63b8ff" points="1171.67,-523.43 1181.69,-519.98 1171.71,-516.43 1171.67,-523.43"/>
</g>
<!-- Node24&#45;&gt;Node6 -->
<g id="edge39" class="edge">
<title>Node24&#45;&gt;Node6</title>
<path fill="none" stroke="#63b8ff" d="M982.14,-387.27C852.65,-384.85 510.18,-374.98 476.38,-338 467.39,-328.16 468.2,-318.52 476.38,-308 588.62,-163.73 1178.58,-91.43 1371.37,-71.4"/>
<polygon fill="#63b8ff" stroke="#63b8ff" points="982.12,-390.77 992.18,-387.45 982.25,-383.77 982.12,-390.77"/>
</g>
<!-- Node24&#45;&gt;Node9 -->
<g id="edge50" class="edge">
<title>Node24&#45;&gt;Node9</title>
<path fill="none" stroke="#63b8ff" d="M1080.4,-380.85C1130.72,-372.86 1210.98,-358.33 1278.38,-338 1413.33,-297.29 1567.84,-225.43 1619.51,-200.67"/>
<polygon fill="#63b8ff" stroke="#63b8ff" points="1079.78,-377.4 1070.44,-382.4 1080.86,-384.32 1079.78,-377.4"/>
</g>
<!-- Node24&#45;&gt;Node11 -->
<g id="edge51" class="edge">
<title>Node24&#45;&gt;Node11</title>
<path fill="none" stroke="#63b8ff" d="M1080.9,-380.63C1160.24,-368.82 1315.63,-345.69 1401.24,-332.95"/>
<polygon fill="#63b8ff" stroke="#63b8ff" points="1080.06,-377.22 1070.68,-382.15 1081.09,-384.14 1080.06,-377.22"/>
</g>
<!-- Node24&#45;&gt;Node12 -->
<g id="edge52" class="edge">
<title>Node24&#45;&gt;Node12</title>
<path fill="none" stroke="#63b8ff" d="M1080.76,-384.01C1170.47,-376.54 1366.14,-359.28 1530.38,-338 1542.5,-336.43 1555.52,-334.5 1567.73,-332.57"/>
<polygon fill="#63b8ff" stroke="#63b8ff" points="1080.29,-380.53 1070.61,-384.85 1080.87,-387.51 1080.29,-380.53"/>
</g>
<!-- Node24&#45;&gt;Node21 -->
<g id="edge49" class="edge">
<title>Node24&#45;&gt;Node21</title>
<path fill="none" stroke="#63b8ff" d="M982.12,-385.11C884.05,-378.84 671.95,-362.59 650.38,-338 641.59,-327.98 641.68,-318.1 650.38,-308 687.1,-265.36 856.89,-258.58 938.86,-257.83"/>
<polygon fill="#63b8ff" stroke="#63b8ff" points="982.17,-388.62 992.37,-385.75 982.61,-381.63 982.17,-388.62"/>
</g>
<!-- Node25 -->
<g id="node25" class="node">
<title>Node25</title>
<g id="a_node25"><a xlink:href="js__generic__base_8cpp.html" target="_top" xlink:title=" ">
<polygon fill="white" stroke="#666666" points="603.38,-338 485.38,-338 485.38,-308 603.38,-308 603.38,-338"/>
<text text-anchor="start" x="493.38" y="-326" font-family="Helvetica,sans-Serif" font-size="10.00">src/apps/js_generic</text>
<text text-anchor="middle" x="544.38" y="-315" font-family="Helvetica,sans-Serif" font-size="10.00">/js_generic_base.cpp</text>
</a>
</g>
</g>
<!-- Node24&#45;&gt;Node25 -->
<g id="edge38" class="edge">
<title>Node24&#45;&gt;Node25</title>
<path fill="none" stroke="#63b8ff" d="M982.17,-383.17C904.46,-375.3 748.65,-358.49 617.38,-338 612.92,-337.3 608.31,-336.54 603.69,-335.73"/>
<polygon fill="#63b8ff" stroke="#63b8ff" points="981.86,-386.66 992.16,-384.18 982.56,-379.69 981.86,-386.66"/>
</g>
<!-- Node26 -->
<g id="node26" class="node">
<title>Node26</title>
<g id="a_node26"><a xlink:href="consensus_8cpp.html" target="_top" xlink:title=" ">
<polygon fill="white" stroke="#666666" points="921.38,-332.5 805.38,-332.5 805.38,-313.5 921.38,-313.5 921.38,-332.5"/>
<text text-anchor="middle" x="863.38" y="-320.5" font-family="Helvetica,sans-Serif" font-size="10.00">src/js/consensus.cpp</text>
</a>
</g>
</g>
<!-- Node24&#45;&gt;Node26 -->
<g id="edge40" class="edge">
<title>Node24&#45;&gt;Node26</title>
<path fill="none" stroke="#63b8ff" d="M999.03,-375.68C965.83,-363.03 915.04,-343.68 885.95,-332.6"/>
<polygon fill="#63b8ff" stroke="#63b8ff" points="998.13,-379.08 1008.73,-379.37 1000.63,-372.54 998.13,-379.08"/>
</g>
<!-- Node27 -->
<g id="node27" class="node">
<title>Node27</title>
<g id="a_node27"><a xlink:href="conv_8cpp.html" target="_top" xlink:title=" ">
<polygon fill="white" stroke="#666666" points="1027.38,-332.5 939.38,-332.5 939.38,-313.5 1027.38,-313.5 1027.38,-332.5"/>
<text text-anchor="middle" x="983.38" y="-320.5" font-family="Helvetica,sans-Serif" font-size="10.00">src/js/conv.cpp</text>
</a>
</g>
</g>
<!-- Node24&#45;&gt;Node27 -->
<g id="edge42" class="edge">
<title>Node24&#45;&gt;Node27</title>
<path fill="none" stroke="#63b8ff" d="M1018.83,-371.27C1009.63,-358.99 997.48,-342.8 990.06,-332.91"/>
<polygon fill="#63b8ff" stroke="#63b8ff" points="1016.11,-373.47 1024.91,-379.37 1021.71,-369.27 1016.11,-373.47"/>
</g>
<!-- Node28 -->
<g id="node28" class="node">
<title>Node28</title>
<g id="a_node28"><a xlink:href="crypto_8cpp.html" target="_top" xlink:title=" ">
<polygon fill="white" stroke="#666666" points="1141.38,-332.5 1045.38,-332.5 1045.38,-313.5 1141.38,-313.5 1141.38,-332.5"/>
<text text-anchor="middle" x="1093.38" y="-320.5" font-family="Helvetica,sans-Serif" font-size="10.00">src/js/crypto.cpp</text>
</a>
</g>
</g>
<!-- Node24&#45;&gt;Node28 -->
<g id="edge44" class="edge">
<title>Node24&#45;&gt;Node28</title>
<path fill="none" stroke="#63b8ff" d="M1046.9,-371.98C1058.87,-359.62 1074.99,-342.99 1084.76,-332.91"/>
<polygon fill="#63b8ff" stroke="#63b8ff" points="1044.19,-369.75 1039.74,-379.37 1049.22,-374.62 1044.19,-369.75"/>
</g>
<!-- Node29 -->
<g id="node29" class="node">
<title>Node29</title>
<g id="a_node29"><a xlink:href="historical_8cpp.html" target="_top" xlink:title=" ">
<polygon fill="white" stroke="#666666" points="1269.38,-332.5 1159.38,-332.5 1159.38,-313.5 1269.38,-313.5 1269.38,-332.5"/>
<text text-anchor="middle" x="1214.38" y="-320.5" font-family="Helvetica,sans-Serif" font-size="10.00">src/js/historical.cpp</text>
</a>
</g>
</g>
<!-- Node24&#45;&gt;Node29 -->
<g id="edge46" class="edge">
<title>Node24&#45;&gt;Node29</title>
<path fill="none" stroke="#63b8ff" d="M1065.69,-376C1101.83,-363.36 1157.84,-343.78 1189.8,-332.6"/>
<polygon fill="#63b8ff" stroke="#63b8ff" points="1064.35,-372.76 1056.06,-379.37 1066.66,-379.37 1064.35,-372.76"/>
</g>
<!-- Node30 -->
<g id="node30" class="node">
<title>Node30</title>
<g id="a_node30"><a xlink:href="openenclave_8cpp.html" target="_top" xlink:title=" ">
<polygon fill="white" stroke="#666666" points="787.38,-332.5 659.38,-332.5 659.38,-313.5 787.38,-313.5 787.38,-332.5"/>
<text text-anchor="middle" x="723.38" y="-320.5" font-family="Helvetica,sans-Serif" font-size="10.00">src/js/openenclave.cpp</text>
</a>
</g>
</g>
<!-- Node24&#45;&gt;Node30 -->
<g id="edge48" class="edge">
<title>Node24&#45;&gt;Node30</title>
<path fill="none" stroke="#63b8ff" d="M982.34,-377.81C922.08,-365.29 820.92,-344.27 764.52,-332.55"/>
<polygon fill="#63b8ff" stroke="#63b8ff" points="981.87,-381.29 992.37,-379.89 983.3,-374.43 981.87,-381.29"/>
</g>
<!-- Node26&#45;&gt;Node21 -->
<g id="edge41" class="edge">
<title>Node26&#45;&gt;Node21</title>
<path fill="none" stroke="#63b8ff" d="M888.64,-308.53C912.28,-295.92 946.88,-277.47 967.07,-266.7"/>
<polygon fill="#63b8ff" stroke="#63b8ff" points="886.74,-305.57 879.57,-313.37 890.04,-311.75 886.74,-305.57"/>
</g>
<!-- Node27&#45;&gt;Node21 -->
<g id="edge43" class="edge">
<title>Node27&#45;&gt;Node21</title>
<path fill="none" stroke="#63b8ff" d="M983.38,-303.08C983.38,-291.13 983.38,-276.22 983.38,-266.91"/>
<polygon fill="#63b8ff" stroke="#63b8ff" points="979.88,-303.37 983.38,-313.37 986.88,-303.37 979.88,-303.37"/>
</g>
<!-- Node28&#45;&gt;Node21 -->
<g id="edge45" class="edge">
<title>Node28&#45;&gt;Node21</title>
<path fill="none" stroke="#63b8ff" d="M1069.65,-308.19C1048,-295.59 1016.68,-277.37 998.33,-266.7"/>
<polygon fill="#63b8ff" stroke="#63b8ff" points="1068.14,-311.36 1078.55,-313.37 1071.66,-305.31 1068.14,-311.36"/>
</g>
<!-- Node29&#45;&gt;Node21 -->
<g id="edge47" class="edge">
<title>Node29&#45;&gt;Node21</title>
<path fill="none" stroke="#63b8ff" d="M1173.39,-310.64C1127.88,-298.03 1055.45,-277.97 1014.41,-266.6"/>
<polygon fill="#63b8ff" stroke="#63b8ff" points="1172.66,-314.07 1183.23,-313.37 1174.53,-307.33 1172.66,-314.07"/>
</g>
<!-- Node31&#45;&gt;Node6 -->
<g id="edge54" class="edge">
<title>Node31&#45;&gt;Node6</title>
<path fill="none" stroke="#63b8ff" d="M493.8,-169.95C527.05,-146.53 577.91,-110.85 580.38,-110 654.52,-84.61 1188.31,-70.79 1371.14,-66.76"/>
<polygon fill="#63b8ff" stroke="#63b8ff" points="491.51,-167.28 485.36,-175.9 495.55,-173 491.51,-167.28"/>
</g>
<!-- Node32 -->
<g id="node32" class="node">
<title>Node32</title>
<g id="a_node32"><a xlink:href="historical__transaction__fetcher_8h.html" target="_top" xlink:title=" ">
<polygon fill="white" stroke="#666666" points="527.88,-140 402.88,-140 402.88,-110 527.88,-110 527.88,-140"/>
<text text-anchor="start" x="410.88" y="-128" font-family="Helvetica,sans-Serif" font-size="10.00">src/indexing/historical</text>
<text text-anchor="middle" x="465.38" y="-117" font-family="Helvetica,sans-Serif" font-size="10.00">_transaction_fetcher.h</text>
</a>
</g>
</g>
<!-- Node31&#45;&gt;Node32 -->
<g id="edge55" class="edge">
<title>Node31&#45;&gt;Node32</title>
<path fill="none" stroke="#63b8ff" d="M465.38,-165.54C465.38,-156.96 465.38,-147.61 465.38,-140.16"/>
<polygon fill="#63b8ff" stroke="#63b8ff" points="461.88,-165.8 465.38,-175.8 468.88,-165.8 461.88,-165.8"/>
</g>
<!-- Node32&#45;&gt;Node6 -->
<g id="edge56" class="edge">
<title>Node32&#45;&gt;Node6</title>
<path fill="none" stroke="#63b8ff" d="M537.91,-110.54C539.42,-110.35 540.91,-110.17 542.38,-110 852.45,-74.21 1226.56,-67.19 1371.19,-65.83"/>
<polygon fill="#63b8ff" stroke="#63b8ff" points="537.32,-107.09 527.9,-111.93 538.28,-114.03 537.32,-107.09"/>
</g>
<!-- Node33&#45;&gt;Node6 -->
<g id="edge59" class="edge">
<title>Node33&#45;&gt;Node6</title>
<path fill="none" stroke="#63b8ff" d="M1358.1,-173.04C1376.71,-146.1 1412.33,-94.52 1426.43,-74.12"/>
<polygon fill="#63b8ff" stroke="#63b8ff" points="1355.1,-171.23 1352.29,-181.44 1360.86,-175.2 1355.1,-171.23"/>
</g>
<!-- Node34&#45;&gt;Node6 -->
<g id="edge63" class="edge">
<title>Node34&#45;&gt;Node6</title>
<path fill="none" stroke="#63b8ff" d="M91.87,-443.62C66.02,-436.46 38.85,-424.39 20.38,-404 -4.15,-376.91 1.38,-360.54 1.38,-324 1.38,-324 1.38,-324 1.38,-190 1.38,-90.12 113.5,-129.86 211.38,-110 436.81,-64.26 1156.59,-64.08 1371.34,-65.1"/>
<polygon fill="#63b8ff" stroke="#63b8ff" points="91.14,-447.04 101.69,-446.12 92.87,-440.26 91.14,-447.04"/>
</g>
<!-- Node35 -->
<g id="node35" class="node">
<title>Node35</title>
<g id="a_node35"><a xlink:href="external__executor_8cpp.html" target="_top" xlink:title=" ">
<polygon fill="white" stroke="#666666" points="315.38,-404 167.38,-404 167.38,-374 315.38,-374 315.38,-404"/>
<text text-anchor="start" x="175.38" y="-392" font-family="Helvetica,sans-Serif" font-size="10.00">src/apps/external_executor</text>
<text text-anchor="middle" x="241.38" y="-381" font-family="Helvetica,sans-Serif" font-size="10.00">/external_executor.cpp</text>
</a>
</g>
</g>
<!-- Node34&#45;&gt;Node35 -->
<g id="edge62" class="edge">
<title>Node34&#45;&gt;Node35</title>
<path fill="none" stroke="#63b8ff" d="M190.08,-433.2C201.36,-423.7 214.44,-412.69 224.56,-404.16"/>
<polygon fill="#63b8ff" stroke="#63b8ff" points="187.64,-430.68 182.25,-439.8 192.15,-436.03 187.64,-430.68"/>
</g>
<!-- Node36 -->
<g id="node36" class="node">
<title>Node36</title>
<g id="a_node36"><a xlink:href="historical__queries__adapter_8cpp.html" target="_top" xlink:title=" ">
<polygon fill="white" stroke="#666666" points="149.38,-404 29.38,-404 29.38,-374 149.38,-374 149.38,-404"/>
<text text-anchor="start" x="37.38" y="-392" font-family="Helvetica,sans-Serif" font-size="10.00">src/node/historical</text>
<text text-anchor="middle" x="89.38" y="-381" font-family="Helvetica,sans-Serif" font-size="10.00">_queries_adapter.cpp</text>
</a>
</g>
</g>
<!-- Node34&#45;&gt;Node36 -->
<g id="edge64" class="edge">
<title>Node34&#45;&gt;Node36</title>
<path fill="none" stroke="#63b8ff" d="M140.68,-433.2C129.4,-423.7 116.33,-412.69 106.2,-404.16"/>
<polygon fill="#63b8ff" stroke="#63b8ff" points="138.61,-436.03 148.52,-439.8 143.12,-430.68 138.61,-436.03"/>
</g>
<!-- Node37&#45;&gt;Node6 -->
<g id="edge67" class="edge">
<title>Node37&#45;&gt;Node6</title>
<path fill="none" stroke="#63b8ff" d="M361.41,-113.95C372.03,-112.42 383.02,-111.02 393.38,-110 763.54,-73.71 1210.75,-67.01 1371.32,-65.78"/>
<polygon fill="#63b8ff" stroke="#63b8ff" points="360.75,-110.51 351.37,-115.45 361.78,-117.44 360.75,-110.51"/>
</g>
</g>
</svg>
