<?xml version="1.0" encoding="UTF-8" standalone="no"?>
<!DOCTYPE svg PUBLIC "-//W3C//DTD SVG 1.1//EN"
 "http://www.w3.org/Graphics/SVG/1.1/DTD/svg11.dtd">
<!-- Generated by graphviz version 2.43.0 (0)
 -->
<!-- Title: ccf::ODataAuthErrorDetails Pages: 1 -->
<svg width="155pt" height="182pt"
 viewBox="0.00 0.00 155.00 182.00" xmlns="http://www.w3.org/2000/svg" xmlns:xlink="http://www.w3.org/1999/xlink">
<g id="graph0" class="graph" transform="scale(1 1) rotate(0) translate(4 178)">
<title>ccf::ODataAuthErrorDetails</title>
<!-- Node1 -->
<g id="node1" class="node">
<title>Node1</title>
<g id="a_node1"><a xlink:title=" ">
<polygon fill="#999999" stroke="#666666" points="147,-19 0,-19 0,0 147,0 147,-19"/>
<text text-anchor="middle" x="73.5" y="-7" font-family="Helvetica,sans-Serif" font-size="10.00">ccf::ODataAuthErrorDetails</text>
</a>
</g>
</g>
<!-- Node2 -->
<g id="node2" class="node">
<title>Node2</title>
<g id="a_node2"><a xlink:title=" ">
<polygon fill="white" stroke="#666666" points="106,-107 41,-107 41,-88 106,-88 106,-107"/>
<text text-anchor="middle" x="73.5" y="-95" font-family="Helvetica,sans-Serif" font-size="10.00">std::string</text>
</a>
</g>
</g>
<!-- Node2&#45;&gt;Node1 -->
<g id="edge1" class="edge">
<title>Node2&#45;&gt;Node1</title>
<path fill="none" stroke="#9a32cd" stroke-dasharray="5,2" d="M73.5,-77.91C73.5,-59.67 73.5,-32.65 73.5,-19.03"/>
<polygon fill="#9a32cd" stroke="#9a32cd" points="70,-77.94 73.5,-87.94 77,-77.94 70,-77.94"/>
<text text-anchor="middle" x="103.5" y="-62" font-family="Helvetica,sans-Serif" font-size="10.00"> auth_policy</text>
<text text-anchor="middle" x="103.5" y="-51" font-family="Helvetica,sans-Serif" font-size="10.00">code</text>
<text text-anchor="middle" x="103.5" y="-40" font-family="Helvetica,sans-Serif" font-size="10.00">message</text>
</g>
<!-- Node3 -->
<g id="node3" class="node">
<title>Node3</title>
<g id="a_node3"><a xlink:title=" ">
<polygon fill="white" stroke="#666666" points="125.5,-174 21.5,-174 21.5,-144 125.5,-144 125.5,-174"/>
<text text-anchor="start" x="29.5" y="-162" font-family="Helvetica,sans-Serif" font-size="10.00">std::basic_string&lt;</text>
<text text-anchor="middle" x="73.5" y="-151" font-family="Helvetica,sans-Serif" font-size="10.00"> Char &gt;</text>
</a>
</g>
</g>
<!-- Node3&#45;&gt;Node2 -->
<g id="edge2" class="edge">
<title>Node3&#45;&gt;Node2</title>
<path fill="none" stroke="#63b8ff" d="M73.5,-133.79C73.5,-124.36 73.5,-114.15 73.5,-107.16"/>
<polygon fill="#63b8ff" stroke="#63b8ff" points="70,-133.9 73.5,-143.9 77,-133.9 70,-133.9"/>
</g>
</g>
</svg>
