<?xml version="1.0" encoding="UTF-8" standalone="no"?>
<!DOCTYPE svg PUBLIC "-//W3C//DTD SVG 1.1//EN"
 "http://www.w3.org/Graphics/SVG/1.1/DTD/svg11.dtd">
<!-- Generated by graphviz version 2.43.0 (0)
 -->
<!-- Title: ccf::GovernanceProtectedHeader Pages: 1 -->
<svg width="149pt" height="227pt"
 viewBox="0.00 0.00 149.00 227.00" xmlns="http://www.w3.org/2000/svg" xmlns:xlink="http://www.w3.org/1999/xlink">
<g id="graph0" class="graph" transform="scale(1 1) rotate(0) translate(4 223)">
<title>ccf::GovernanceProtectedHeader</title>
<!-- Node1 -->
<g id="node1" class="node">
<title>Node1</title>
<g id="a_node1"><a xlink:title=" ">
<polygon fill="#999999" stroke="#666666" points="141,-30 0,-30 0,0 141,0 141,-30"/>
<text text-anchor="start" x="8" y="-18" font-family="Helvetica,sans-Serif" font-size="10.00">ccf::GovernanceProtected</text>
<text text-anchor="middle" x="70.5" y="-7" font-family="Helvetica,sans-Serif" font-size="10.00">Header</text>
</a>
</g>
</g>
<!-- Node2 -->
<g id="node2" class="node">
<title>Node2</title>
<g id="a_node2"><a xlink:href="structccf_1_1ProtectedHeader.html" target="_top" xlink:title=" ">
<polygon fill="white" stroke="#666666" points="129.5,-86 11.5,-86 11.5,-67 129.5,-67 129.5,-86"/>
<text text-anchor="middle" x="70.5" y="-74" font-family="Helvetica,sans-Serif" font-size="10.00">ccf::ProtectedHeader</text>
</a>
</g>
</g>
<!-- Node2&#45;&gt;Node1 -->
<g id="edge1" class="edge">
<title>Node2&#45;&gt;Node1</title>
<path fill="none" stroke="#63b8ff" d="M70.5,-56.73C70.5,-48.09 70.5,-38 70.5,-30.02"/>
<polygon fill="#63b8ff" stroke="#63b8ff" points="67,-56.98 70.5,-66.98 74,-56.98 67,-56.98"/>
</g>
<!-- Node3 -->
<g id="node3" class="node">
<title>Node3</title>
<g id="a_node3"><a xlink:title=" ">
<polygon fill="white" stroke="#666666" points="103,-152 38,-152 38,-133 103,-133 103,-152"/>
<text text-anchor="middle" x="70.5" y="-140" font-family="Helvetica,sans-Serif" font-size="10.00">std::string</text>
</a>
</g>
</g>
<!-- Node3&#45;&gt;Node2 -->
<g id="edge2" class="edge">
<title>Node3&#45;&gt;Node2</title>
<path fill="none" stroke="#9a32cd" stroke-dasharray="5,2" d="M70.5,-122.58C70.5,-110.63 70.5,-95.72 70.5,-86.41"/>
<polygon fill="#9a32cd" stroke="#9a32cd" points="67,-122.87 70.5,-132.87 74,-122.87 67,-122.87"/>
<text text-anchor="middle" x="80" y="-107" font-family="Helvetica,sans-Serif" font-size="10.00"> kid</text>
</g>
<!-- Node4 -->
<g id="node4" class="node">
<title>Node4</title>
<g id="a_node4"><a xlink:title=" ">
<polygon fill="white" stroke="#666666" points="122.5,-219 18.5,-219 18.5,-189 122.5,-189 122.5,-219"/>
<text text-anchor="start" x="26.5" y="-207" font-family="Helvetica,sans-Serif" font-size="10.00">std::basic_string&lt;</text>
<text text-anchor="middle" x="70.5" y="-196" font-family="Helvetica,sans-Serif" font-size="10.00"> Char &gt;</text>
</a>
</g>
</g>
<!-- Node4&#45;&gt;Node3 -->
<g id="edge3" class="edge">
<title>Node4&#45;&gt;Node3</title>
<path fill="none" stroke="#63b8ff" d="M70.5,-178.79C70.5,-169.36 70.5,-159.15 70.5,-152.16"/>
<polygon fill="#63b8ff" stroke="#63b8ff" points="67,-178.9 70.5,-188.9 74,-178.9 67,-178.9"/>
</g>
</g>
</svg>
