<?xml version="1.0" encoding="UTF-8" standalone="no"?>
<!DOCTYPE svg PUBLIC "-//W3C//DTD SVG 1.1//EN"
 "http://www.w3.org/Graphics/SVG/1.1/DTD/svg11.dtd">
<!-- Generated by graphviz version 2.43.0 (0)
 -->
<!-- Title: ccf::MemberCOSESign1AuthnIdentity Pages: 1 -->
<svg width="901pt" height="150pt"
 viewBox="0.00 0.00 901.00 149.50" xmlns="http://www.w3.org/2000/svg" xmlns:xlink="http://www.w3.org/1999/xlink">
<g id="graph0" class="graph" transform="scale(1 1) rotate(0) translate(4 145.5)">
<title>ccf::MemberCOSESign1AuthnIdentity</title>
<!-- Node1 -->
<g id="node1" class="node">
<title>Node1</title>
<g id="a_node1"><a xlink:title=" ">
<polygon fill="#999999" stroke="#666666" points="893,-91 735,-91 735,-61 893,-61 893,-91"/>
<text text-anchor="start" x="743" y="-79" font-family="Helvetica,sans-Serif" font-size="10.00">ccf::MemberCOSESign1Authn</text>
<text text-anchor="middle" x="814" y="-68" font-family="Helvetica,sans-Serif" font-size="10.00">Identity</text>
</a>
</g>
</g>
<!-- Node2 -->
<g id="node2" class="node">
<title>Node2</title>
<g id="a_node2"><a xlink:href="structccf_1_1COSESign1AuthnIdentity.html" target="_top" xlink:title=" ">
<polygon fill="white" stroke="#666666" points="590.5,-141.5 435.5,-141.5 435.5,-122.5 590.5,-122.5 590.5,-141.5"/>
<text text-anchor="middle" x="513" y="-129.5" font-family="Helvetica,sans-Serif" font-size="10.00">ccf::COSESign1AuthnIdentity</text>
</a>
</g>
</g>
<!-- Node2&#45;&gt;Node1 -->
<g id="edge1" class="edge">
<title>Node2&#45;&gt;Node1</title>
<path fill="none" stroke="#63b8ff" d="M600.56,-121.5C636.72,-116.52 679.06,-109.91 717,-102 731.71,-98.93 747.5,-94.95 761.95,-91.02"/>
<polygon fill="#63b8ff" stroke="#63b8ff" points="599.97,-118.04 590.53,-122.86 600.91,-124.98 599.97,-118.04"/>
</g>
<!-- Node3 -->
<g id="node3" class="node">
<title>Node3</title>
<g id="a_node3"><a xlink:href="structccf_1_1AuthnIdentity.html" target="_top" xlink:title=" ">
<polygon fill="white" stroke="#666666" points="371,-141.5 269,-141.5 269,-122.5 371,-122.5 371,-141.5"/>
<text text-anchor="middle" x="320" y="-129.5" font-family="Helvetica,sans-Serif" font-size="10.00">ccf::AuthnIdentity</text>
</a>
</g>
</g>
<!-- Node3&#45;&gt;Node2 -->
<g id="edge2" class="edge">
<title>Node3&#45;&gt;Node2</title>
<path fill="none" stroke="#63b8ff" d="M381.54,-132C398.57,-132 417.32,-132 435.16,-132"/>
<polygon fill="#63b8ff" stroke="#63b8ff" points="381.18,-128.5 371.18,-132 381.18,-135.5 381.18,-128.5"/>
</g>
<!-- Node4 -->
<g id="node4" class="node">
<title>Node4</title>
<g id="a_node4"><a xlink:href="structccf_1_1EntityId.html" target="_top" xlink:title=" ">
<polygon fill="white" stroke="#666666" points="610,-104.5 416,-104.5 416,-85.5 610,-85.5 610,-104.5"/>
<text text-anchor="middle" x="513" y="-92.5" font-family="Helvetica,sans-Serif" font-size="10.00">ccf::EntityId&lt; MemberIdFormatter &gt;</text>
</a>
</g>
</g>
<!-- Node4&#45;&gt;Node1 -->
<g id="edge3" class="edge">
<title>Node4&#45;&gt;Node1</title>
<path fill="none" stroke="#9a32cd" stroke-dasharray="5,2" d="M620.28,-88.25C658.07,-85.85 699.89,-83.19 734.89,-80.96"/>
<polygon fill="#9a32cd" stroke="#9a32cd" points="620.01,-84.76 610.25,-88.88 620.45,-91.74 620.01,-84.76"/>
<text text-anchor="middle" x="672.5" y="-90" font-family="Helvetica,sans-Serif" font-size="10.00"> member_id</text>
</g>
<!-- Node5 -->
<g id="node5" class="node">
<title>Node5</title>
<g id="a_node5"><a xlink:href="classcrypto_1_1Pem.html" target="_top" xlink:title=" ">
<polygon fill="white" stroke="#666666" points="550.5,-67.5 475.5,-67.5 475.5,-48.5 550.5,-48.5 550.5,-67.5"/>
<text text-anchor="middle" x="513" y="-55.5" font-family="Helvetica,sans-Serif" font-size="10.00">crypto::Pem</text>
</a>
</g>
</g>
<!-- Node5&#45;&gt;Node1 -->
<g id="edge4" class="edge">
<title>Node5&#45;&gt;Node1</title>
<path fill="none" stroke="#9a32cd" stroke-dasharray="5,2" d="M560.76,-57.26C601.96,-57.01 663.56,-57.59 717,-62 722.79,-62.48 728.76,-63.08 734.77,-63.77"/>
<polygon fill="#9a32cd" stroke="#9a32cd" points="560.71,-53.77 550.74,-57.35 560.77,-60.76 560.71,-53.77"/>
<text text-anchor="middle" x="672.5" y="-65" font-family="Helvetica,sans-Serif" font-size="10.00"> member_cert</text>
</g>
<!-- Node6 -->
<g id="node6" class="node">
<title>Node6</title>
<g id="a_node6"><a xlink:href="structccf_1_1GovernanceProtectedHeader.html" target="_top" xlink:title=" ">
<polygon fill="white" stroke="#666666" points="583.5,-30 442.5,-30 442.5,0 583.5,0 583.5,-30"/>
<text text-anchor="start" x="450.5" y="-18" font-family="Helvetica,sans-Serif" font-size="10.00">ccf::GovernanceProtected</text>
<text text-anchor="middle" x="513" y="-7" font-family="Helvetica,sans-Serif" font-size="10.00">Header</text>
</a>
</g>
</g>
<!-- Node6&#45;&gt;Node1 -->
<g id="edge5" class="edge">
<title>Node6&#45;&gt;Node1</title>
<path fill="none" stroke="#9a32cd" stroke-dasharray="5,2" d="M594.12,-21.77C631.76,-25.94 677.03,-32.38 717,-42 736.94,-46.8 758.52,-54.23 776.16,-60.92"/>
<polygon fill="#9a32cd" stroke="#9a32cd" points="594.03,-18.24 583.72,-20.65 593.29,-25.2 594.03,-18.24"/>
<text text-anchor="middle" x="672.5" y="-45" font-family="Helvetica,sans-Serif" font-size="10.00"> protected_header</text>
</g>
<!-- Node7 -->
<g id="node7" class="node">
<title>Node7</title>
<g id="a_node7"><a xlink:href="structccf_1_1ProtectedHeader.html" target="_top" xlink:title=" ">
<polygon fill="white" stroke="#666666" points="379,-24.5 261,-24.5 261,-5.5 379,-5.5 379,-24.5"/>
<text text-anchor="middle" x="320" y="-12.5" font-family="Helvetica,sans-Serif" font-size="10.00">ccf::ProtectedHeader</text>
</a>
</g>
</g>
<!-- Node7&#45;&gt;Node6 -->
<g id="edge6" class="edge">
<title>Node7&#45;&gt;Node6</title>
<path fill="none" stroke="#63b8ff" d="M389.11,-15C406.42,-15 425.04,-15 442.42,-15"/>
<polygon fill="#63b8ff" stroke="#63b8ff" points="389.08,-11.5 379.08,-15 389.08,-18.5 389.08,-11.5"/>
</g>
<!-- Node8 -->
<g id="node8" class="node">
<title>Node8</title>
<g id="a_node8"><a xlink:title=" ">
<polygon fill="white" stroke="#666666" points="206,-24.5 141,-24.5 141,-5.5 206,-5.5 206,-24.5"/>
<text text-anchor="middle" x="173.5" y="-12.5" font-family="Helvetica,sans-Serif" font-size="10.00">std::string</text>
</a>
</g>
</g>
<!-- Node8&#45;&gt;Node7 -->
<g id="edge7" class="edge">
<title>Node8&#45;&gt;Node7</title>
<path fill="none" stroke="#9a32cd" stroke-dasharray="5,2" d="M216.43,-15C230.3,-15 246.01,-15 260.88,-15"/>
<polygon fill="#9a32cd" stroke="#9a32cd" points="216.21,-11.5 206.21,-15 216.21,-18.5 216.21,-11.5"/>
<text text-anchor="middle" x="233.5" y="-18" font-family="Helvetica,sans-Serif" font-size="10.00"> kid</text>
</g>
<!-- Node9 -->
<g id="node9" class="node">
<title>Node9</title>
<g id="a_node9"><a xlink:title=" ">
<polygon fill="white" stroke="#666666" points="104,-30 0,-30 0,0 104,0 104,-30"/>
<text text-anchor="start" x="8" y="-18" font-family="Helvetica,sans-Serif" font-size="10.00">std::basic_string&lt;</text>
<text text-anchor="middle" x="52" y="-7" font-family="Helvetica,sans-Serif" font-size="10.00"> Char &gt;</text>
</a>
</g>
</g>
<!-- Node9&#45;&gt;Node8 -->
<g id="edge8" class="edge">
<title>Node9&#45;&gt;Node8</title>
<path fill="none" stroke="#63b8ff" d="M114.1,-15C123.41,-15 132.68,-15 141,-15"/>
<polygon fill="#63b8ff" stroke="#63b8ff" points="114.03,-11.5 104.03,-15 114.03,-18.5 114.03,-11.5"/>
</g>
</g>
</svg>
