<?xml version="1.0" encoding="UTF-8" standalone="no"?>
<!DOCTYPE svg PUBLIC "-//W3C//DTD SVG 1.1//EN"
 "http://www.w3.org/Graphics/SVG/1.1/DTD/svg11.dtd">
<!-- Generated by graphviz version 2.43.0 (0)
 -->
<!-- Title: src/node/tx_receipt_impl.h Pages: 1 -->
<svg width="461pt" height="401pt"
 viewBox="0.00 0.00 461.00 401.00" xmlns="http://www.w3.org/2000/svg" xmlns:xlink="http://www.w3.org/1999/xlink">
<g id="graph0" class="graph" transform="scale(1 1) rotate(0) translate(4 397)">
<title>src/node/tx_receipt_impl.h</title>
<!-- Node1 -->
<g id="node1" class="node">
<title>Node1</title>
<g id="a_node1"><a xlink:title=" ">
<polygon fill="#999999" stroke="#666666" points="219,-393 109,-393 109,-363 219,-363 219,-393"/>
<text text-anchor="start" x="117" y="-381" font-family="Helvetica,sans-Serif" font-size="10.00">src/node/tx_receipt</text>
<text text-anchor="middle" x="164" y="-370" font-family="Helvetica,sans-Serif" font-size="10.00">_impl.h</text>
</a>
</g>
</g>
<!-- Node2 -->
<g id="node2" class="node">
<title>Node2</title>
<g id="a_node2"><a xlink:href="historical__queries_8h.html" target="_top" xlink:title=" ">
<polygon fill="white" stroke="#666666" points="106,-206 0,-206 0,-176 106,-176 106,-206"/>
<text text-anchor="start" x="8" y="-194" font-family="Helvetica,sans-Serif" font-size="10.00">src/node/historical</text>
<text text-anchor="middle" x="53" y="-183" font-family="Helvetica,sans-Serif" font-size="10.00">_queries.h</text>
</a>
</g>
</g>
<!-- Node1&#45;&gt;Node2 -->
<g id="edge1" class="edge">
<title>Node1&#45;&gt;Node2</title>
<path fill="none" stroke="#63b8ff" d="M99.06,-368.89C73.14,-362.11 45.76,-349.7 30,-327 3.97,-289.5 29.92,-232.31 44.53,-206.06"/>
<polygon fill="#63b8ff" stroke="#63b8ff" points="98.35,-372.32 108.89,-371.22 99.97,-365.51 98.35,-372.32"/>
</g>
<!-- Node6 -->
<g id="node6" class="node">
<title>Node6</title>
<g id="a_node6"><a xlink:href="historical__queries__adapter_8cpp.html" target="_top" xlink:title=" ">
<polygon fill="white" stroke="#666666" points="159,-327 39,-327 39,-297 159,-297 159,-327"/>
<text text-anchor="start" x="47" y="-315" font-family="Helvetica,sans-Serif" font-size="10.00">src/node/historical</text>
<text text-anchor="middle" x="99" y="-304" font-family="Helvetica,sans-Serif" font-size="10.00">_queries_adapter.cpp</text>
</a>
</g>
</g>
<!-- Node1&#45;&gt;Node6 -->
<g id="edge6" class="edge">
<title>Node1&#45;&gt;Node6</title>
<path fill="none" stroke="#63b8ff" d="M142.31,-355.65C132.79,-346.27 121.88,-335.53 113.39,-327.16"/>
<polygon fill="#63b8ff" stroke="#63b8ff" points="139.99,-358.27 149.57,-362.8 144.9,-353.29 139.99,-358.27"/>
</g>
<!-- Node7 -->
<g id="node7" class="node">
<title>Node7</title>
<g id="a_node7"><a xlink:href="historical__queries__utils_8cpp.html" target="_top" xlink:title=" ">
<polygon fill="white" stroke="#666666" points="283,-327 177,-327 177,-297 283,-297 283,-327"/>
<text text-anchor="start" x="185" y="-315" font-family="Helvetica,sans-Serif" font-size="10.00">src/node/historical</text>
<text text-anchor="middle" x="230" y="-304" font-family="Helvetica,sans-Serif" font-size="10.00">_queries_utils.cpp</text>
</a>
</g>
</g>
<!-- Node1&#45;&gt;Node7 -->
<g id="edge7" class="edge">
<title>Node1&#45;&gt;Node7</title>
<path fill="none" stroke="#63b8ff" d="M186.02,-355.65C195.69,-346.27 206.77,-335.53 215.39,-327.16"/>
<polygon fill="#63b8ff" stroke="#63b8ff" points="183.39,-353.32 178.65,-362.8 188.26,-358.35 183.39,-353.32"/>
</g>
<!-- Node8 -->
<g id="node8" class="node">
<title>Node8</title>
<g id="a_node8"><a xlink:href="snapshot__serdes_8h.html" target="_top" xlink:title=" ">
<polygon fill="white" stroke="#666666" points="453,-321.5 301,-321.5 301,-302.5 453,-302.5 453,-321.5"/>
<text text-anchor="middle" x="377" y="-309.5" font-family="Helvetica,sans-Serif" font-size="10.00">src/node/snapshot_serdes.h</text>
</a>
</g>
</g>
<!-- Node1&#45;&gt;Node8 -->
<g id="edge8" class="edge">
<title>Node1&#45;&gt;Node8</title>
<path fill="none" stroke="#63b8ff" d="M220.41,-360.05C261.72,-347.64 316.05,-331.31 348.65,-321.52"/>
<polygon fill="#63b8ff" stroke="#63b8ff" points="219.31,-356.73 210.74,-362.95 221.33,-363.43 219.31,-356.73"/>
</g>
<!-- Node3 -->
<g id="node3" class="node">
<title>Node3</title>
<g id="a_node3"><a xlink:href="src_2enclave_2enclave_8h.html" target="_top" xlink:title=" ">
<polygon fill="white" stroke="#666666" points="250,-74 128,-74 128,-55 250,-55 250,-74"/>
<text text-anchor="middle" x="189" y="-62" font-family="Helvetica,sans-Serif" font-size="10.00">src/enclave/enclave.h</text>
</a>
</g>
</g>
<!-- Node2&#45;&gt;Node3 -->
<g id="edge2" class="edge">
<title>Node2&#45;&gt;Node3</title>
<path fill="none" stroke="#63b8ff" d="M52.98,-165.76C54.22,-148.33 58.59,-125.28 72,-110 88.48,-91.22 113.77,-80.33 136.62,-74.03"/>
<polygon fill="#63b8ff" stroke="#63b8ff" points="49.48,-165.64 52.56,-175.77 56.48,-165.93 49.48,-165.64"/>
</g>
<!-- Node5 -->
<g id="node5" class="node">
<title>Node5</title>
<g id="a_node5"><a xlink:href="historical__transaction__fetcher_8h.html" target="_top" xlink:title=" ">
<polygon fill="white" stroke="#666666" points="206.5,-140 81.5,-140 81.5,-110 206.5,-110 206.5,-140"/>
<text text-anchor="start" x="89.5" y="-128" font-family="Helvetica,sans-Serif" font-size="10.00">src/indexing/historical</text>
<text text-anchor="middle" x="144" y="-117" font-family="Helvetica,sans-Serif" font-size="10.00">_transaction_fetcher.h</text>
</a>
</g>
</g>
<!-- Node2&#45;&gt;Node5 -->
<g id="edge4" class="edge">
<title>Node2&#45;&gt;Node5</title>
<path fill="none" stroke="#63b8ff" d="M81.4,-170.03C95.17,-160.34 111.38,-148.94 123.86,-140.16"/>
<polygon fill="#63b8ff" stroke="#63b8ff" points="79.36,-167.18 73.2,-175.8 83.39,-172.91 79.36,-167.18"/>
</g>
<!-- Node4 -->
<g id="node4" class="node">
<title>Node4</title>
<g id="a_node4"><a xlink:href="enclave_2main_8cpp.html" target="_top" xlink:title=" ">
<polygon fill="white" stroke="#666666" points="249,-19 129,-19 129,0 249,0 249,-19"/>
<text text-anchor="middle" x="189" y="-7" font-family="Helvetica,sans-Serif" font-size="10.00">src/enclave/main.cpp</text>
</a>
</g>
</g>
<!-- Node3&#45;&gt;Node4 -->
<g id="edge3" class="edge">
<title>Node3&#45;&gt;Node4</title>
<path fill="none" stroke="#63b8ff" d="M189,-44.66C189,-35.93 189,-25.99 189,-19.09"/>
<polygon fill="#63b8ff" stroke="#63b8ff" points="185.5,-44.75 189,-54.75 192.5,-44.75 185.5,-44.75"/>
</g>
<!-- Node5&#45;&gt;Node3 -->
<g id="edge5" class="edge">
<title>Node5&#45;&gt;Node3</title>
<path fill="none" stroke="#63b8ff" d="M161.08,-101.8C168.46,-92.21 176.66,-81.54 182.26,-74.27"/>
<polygon fill="#63b8ff" stroke="#63b8ff" points="158.22,-99.78 154.89,-109.84 163.76,-104.05 158.22,-99.78"/>
</g>
<!-- Node9 -->
<g id="node9" class="node">
<title>Node9</title>
<g id="a_node9"><a xlink:href="snapshotter_8h.html" target="_top" xlink:title=" ">
<polygon fill="white" stroke="#666666" points="419.5,-261 292.5,-261 292.5,-242 419.5,-242 419.5,-261"/>
<text text-anchor="middle" x="356" y="-249" font-family="Helvetica,sans-Serif" font-size="10.00">src/node/snapshotter.h</text>
</a>
</g>
</g>
<!-- Node8&#45;&gt;Node9 -->
<g id="edge9" class="edge">
<title>Node8&#45;&gt;Node9</title>
<path fill="none" stroke="#63b8ff" d="M370.47,-292.82C366.69,-282.28 362.09,-269.48 359.11,-261.17"/>
<polygon fill="#63b8ff" stroke="#63b8ff" points="367.23,-294.14 373.9,-302.37 373.82,-291.77 367.23,-294.14"/>
</g>
<!-- Node10 -->
<g id="node10" class="node">
<title>Node10</title>
<g id="a_node10"><a xlink:href="node__state_8h.html" target="_top" xlink:title=" ">
<polygon fill="white" stroke="#666666" points="397,-200.5 273,-200.5 273,-181.5 397,-181.5 397,-200.5"/>
<text text-anchor="middle" x="335" y="-188.5" font-family="Helvetica,sans-Serif" font-size="10.00">src/node/node_state.h</text>
</a>
</g>
</g>
<!-- Node9&#45;&gt;Node10 -->
<g id="edge10" class="edge">
<title>Node9&#45;&gt;Node10</title>
<path fill="none" stroke="#63b8ff" d="M349.47,-232.32C345.69,-221.78 341.09,-208.98 338.11,-200.67"/>
<polygon fill="#63b8ff" stroke="#63b8ff" points="346.23,-233.64 352.9,-241.87 352.82,-231.27 346.23,-233.64"/>
</g>
<!-- Node10&#45;&gt;Node3 -->
<g id="edge11" class="edge">
<title>Node10&#45;&gt;Node3</title>
<path fill="none" stroke="#63b8ff" d="M308.76,-176.46C292.21,-167.3 270.86,-154.29 254,-140 229.39,-119.13 205.87,-88.74 195.11,-74.06"/>
<polygon fill="#63b8ff" stroke="#63b8ff" points="307.42,-179.71 317.88,-181.39 310.75,-173.56 307.42,-179.71"/>
</g>
<!-- Node11 -->
<g id="node11" class="node">
<title>Node11</title>
<g id="a_node11"><a xlink:href="gov__effects_8h.html" target="_top" xlink:title=" ">
<polygon fill="white" stroke="#666666" points="407,-134.5 263,-134.5 263,-115.5 407,-115.5 407,-134.5"/>
<text text-anchor="middle" x="335" y="-122.5" font-family="Helvetica,sans-Serif" font-size="10.00">src/node/rpc/gov_effects.h</text>
</a>
</g>
</g>
<!-- Node10&#45;&gt;Node11 -->
<g id="edge12" class="edge">
<title>Node10&#45;&gt;Node11</title>
<path fill="none" stroke="#63b8ff" d="M335,-171.08C335,-159.13 335,-144.22 335,-134.91"/>
<polygon fill="#63b8ff" stroke="#63b8ff" points="331.5,-171.37 335,-181.37 338.5,-171.37 331.5,-171.37"/>
</g>
<!-- Node11&#45;&gt;Node3 -->
<g id="edge13" class="edge">
<title>Node11&#45;&gt;Node3</title>
<path fill="none" stroke="#63b8ff" d="M304.38,-111.73C276.16,-100.42 235.03,-83.94 210.26,-74.02"/>
<polygon fill="#63b8ff" stroke="#63b8ff" points="303.19,-115.02 313.77,-115.49 305.79,-108.53 303.19,-115.02"/>
</g>
</g>
</svg>
