<?xml version="1.0" encoding="UTF-8" standalone="no"?>
<!DOCTYPE svg PUBLIC "-//W3C//DTD SVG 1.1//EN"
 "http://www.w3.org/Graphics/SVG/1.1/DTD/svg11.dtd">
<!-- Generated by graphviz version 2.43.0 (0)
 -->
<!-- Title: src/kv/untyped_map.h Pages: 1 -->
<svg width="2402pt" height="643pt"
 viewBox="0.00 0.00 2402.00 643.00" xmlns="http://www.w3.org/2000/svg" xmlns:xlink="http://www.w3.org/1999/xlink">
<g id="graph0" class="graph" transform="scale(1 1) rotate(0) translate(4 639)">
<title>src/kv/untyped_map.h</title>
<!-- Node1 -->
<g id="node1" class="node">
<title>Node1</title>
<g id="a_node1"><a xlink:title=" ">
<polygon fill="#999999" stroke="#666666" points="1164.5,-635 1039.5,-635 1039.5,-616 1164.5,-616 1164.5,-635"/>
<text text-anchor="middle" x="1102" y="-623" font-family="Helvetica,sans-Serif" font-size="10.00">src/kv/untyped_map.h</text>
</a>
</g>
</g>
<!-- Node2 -->
<g id="node2" class="node">
<title>Node2</title>
<g id="a_node2"><a xlink:href="js__generic__base_8cpp.html" target="_top" xlink:title=" ">
<polygon fill="white" stroke="#666666" points="222,-327 104,-327 104,-297 222,-297 222,-327"/>
<text text-anchor="start" x="112" y="-315" font-family="Helvetica,sans-Serif" font-size="10.00">src/apps/js_generic</text>
<text text-anchor="middle" x="163" y="-304" font-family="Helvetica,sans-Serif" font-size="10.00">/js_generic_base.cpp</text>
</a>
</g>
</g>
<!-- Node1&#45;&gt;Node2 -->
<g id="edge1" class="edge">
<title>Node1&#45;&gt;Node2</title>
<path fill="none" stroke="#63b8ff" d="M1029.27,-620.96C842.22,-610.89 359,-578.35 359,-511 359,-511 359,-511 359,-443 359,-376.55 279.78,-342.05 222.07,-325.73"/>
<polygon fill="#63b8ff" stroke="#63b8ff" points="1029.12,-624.46 1039.29,-621.49 1029.49,-617.47 1029.12,-624.46"/>
</g>
<!-- Node3 -->
<g id="node3" class="node">
<title>Node3</title>
<g id="a_node3"><a xlink:href="wrap_8cpp.html" target="_top" xlink:title=" ">
<polygon fill="white" stroke="#666666" points="503.5,-255.5 414.5,-255.5 414.5,-236.5 503.5,-236.5 503.5,-255.5"/>
<text text-anchor="middle" x="459" y="-243.5" font-family="Helvetica,sans-Serif" font-size="10.00">src/js/wrap.cpp</text>
</a>
</g>
</g>
<!-- Node1&#45;&gt;Node3 -->
<g id="edge2" class="edge">
<title>Node1&#45;&gt;Node3</title>
<path fill="none" stroke="#63b8ff" d="M1028.93,-624.66C782.9,-624.24 0,-614.75 0,-511 0,-511 0,-511 0,-443 0,-365.58 29.62,-338.46 95,-297 147.25,-263.86 329.35,-252.23 414.48,-248.55"/>
<polygon fill="#63b8ff" stroke="#63b8ff" points="1029.19,-628.16 1039.19,-624.67 1029.2,-621.16 1029.19,-628.16"/>
</g>
<!-- Node4 -->
<g id="node4" class="node">
<title>Node4</title>
<g id="a_node4"><a xlink:href="store_8h.html" target="_top" xlink:title=" ">
<polygon fill="white" stroke="#666666" points="1693.5,-580 1610.5,-580 1610.5,-561 1693.5,-561 1693.5,-580"/>
<text text-anchor="middle" x="1652" y="-568" font-family="Helvetica,sans-Serif" font-size="10.00">src/kv/store.h</text>
</a>
</g>
</g>
<!-- Node1&#45;&gt;Node4 -->
<g id="edge3" class="edge">
<title>Node1&#45;&gt;Node4</title>
<path fill="none" stroke="#63b8ff" d="M1174.83,-617.48C1291.61,-606.23 1517.08,-584.5 1610.2,-575.53"/>
<polygon fill="#63b8ff" stroke="#63b8ff" points="1174.17,-614.03 1164.56,-618.47 1174.85,-621 1174.17,-614.03"/>
</g>
<!-- Node37 -->
<g id="node37" class="node">
<title>Node37</title>
<g id="a_node37"><a xlink:href="tx_8cpp.html" target="_top" xlink:title=" ">
<polygon fill="white" stroke="#666666" points="1790.5,-580 1711.5,-580 1711.5,-561 1790.5,-561 1790.5,-580"/>
<text text-anchor="middle" x="1751" y="-568" font-family="Helvetica,sans-Serif" font-size="10.00">src/kv/tx.cpp</text>
</a>
</g>
</g>
<!-- Node1&#45;&gt;Node37 -->
<g id="edge77" class="edge">
<title>Node1&#45;&gt;Node37</title>
<path fill="none" stroke="#63b8ff" d="M1174.78,-621.49C1288.05,-616.28 1513.23,-603.77 1703,-580 1705.77,-579.65 1708.63,-579.25 1711.5,-578.82"/>
<polygon fill="#63b8ff" stroke="#63b8ff" points="1174.33,-618.01 1164.5,-621.96 1174.65,-625 1174.33,-618.01"/>
</g>
<!-- Node5 -->
<g id="node5" class="node">
<title>Node5</title>
<g id="a_node5"><a xlink:href="indexer_8h.html" target="_top" xlink:title=" ">
<polygon fill="white" stroke="#666666" points="1713.5,-453.5 1590.5,-453.5 1590.5,-434.5 1713.5,-434.5 1713.5,-453.5"/>
<text text-anchor="middle" x="1652" y="-441.5" font-family="Helvetica,sans-Serif" font-size="10.00">src/indexing/indexer.h</text>
</a>
</g>
</g>
<!-- Node4&#45;&gt;Node5 -->
<g id="edge4" class="edge">
<title>Node4&#45;&gt;Node5</title>
<path fill="none" stroke="#63b8ff" d="M1652,-550.74C1652,-523.36 1652,-473.58 1652,-453.62"/>
<polygon fill="#63b8ff" stroke="#63b8ff" points="1648.5,-550.94 1652,-560.94 1655.5,-550.94 1648.5,-550.94"/>
</g>
<!-- Node10 -->
<g id="node10" class="node">
<title>Node10</title>
<g id="a_node10"><a xlink:href="visit__each__entry__in__map_8cpp.html" target="_top" xlink:title=" ">
<polygon fill="white" stroke="#666666" points="1931.5,-525 1770.5,-525 1770.5,-495 1931.5,-495 1931.5,-525"/>
<text text-anchor="start" x="1778.5" y="-513" font-family="Helvetica,sans-Serif" font-size="10.00">src/indexing/strategies</text>
<text text-anchor="middle" x="1851" y="-502" font-family="Helvetica,sans-Serif" font-size="10.00">/visit_each_entry_in_map.cpp</text>
</a>
</g>
</g>
<!-- Node4&#45;&gt;Node10 -->
<g id="edge10" class="edge">
<title>Node4&#45;&gt;Node10</title>
<path fill="none" stroke="#63b8ff" d="M1690.86,-558.08C1722.99,-548.63 1768.77,-535.17 1803.16,-525.06"/>
<polygon fill="#63b8ff" stroke="#63b8ff" points="1689.54,-554.82 1680.94,-560.99 1691.52,-561.53 1689.54,-554.82"/>
</g>
<!-- Node11 -->
<g id="node11" class="node">
<title>Node11</title>
<g id="a_node11"><a xlink:href="historical__queries_8h.html" target="_top" xlink:title=" ">
<polygon fill="white" stroke="#666666" points="2394,-393 2288,-393 2288,-363 2394,-363 2394,-393"/>
<text text-anchor="start" x="2296" y="-381" font-family="Helvetica,sans-Serif" font-size="10.00">src/node/historical</text>
<text text-anchor="middle" x="2341" y="-370" font-family="Helvetica,sans-Serif" font-size="10.00">_queries.h</text>
</a>
</g>
</g>
<!-- Node4&#45;&gt;Node11 -->
<g id="edge11" class="edge">
<title>Node4&#45;&gt;Node11</title>
<path fill="none" stroke="#63b8ff" d="M1703.89,-561C1863.42,-540.96 1910.06,-566.84 2061,-525 2127.29,-506.63 2139.98,-490.76 2201,-459 2242.72,-437.29 2289.97,-409.62 2317.53,-393.16"/>
<polygon fill="#63b8ff" stroke="#63b8ff" points="1703.18,-557.56 1693.72,-562.32 1704.08,-564.5 1703.18,-557.56"/>
</g>
<!-- Node13 -->
<g id="node13" class="node">
<title>Node13</title>
<g id="a_node13"><a xlink:href="history_8h.html" target="_top" xlink:title=" ">
<polygon fill="white" stroke="#666666" points="2052,-519.5 1950,-519.5 1950,-500.5 2052,-500.5 2052,-519.5"/>
<text text-anchor="middle" x="2001" y="-507.5" font-family="Helvetica,sans-Serif" font-size="10.00">src/node/history.h</text>
</a>
</g>
</g>
<!-- Node4&#45;&gt;Node13 -->
<g id="edge15" class="edge">
<title>Node4&#45;&gt;Node13</title>
<path fill="none" stroke="#63b8ff" d="M1703.62,-560.93C1810.32,-544.24 1839.02,-544.58 1941,-525 1949.3,-523.41 1958.19,-521.46 1966.52,-519.54"/>
<polygon fill="#63b8ff" stroke="#63b8ff" points="1703.07,-557.48 1693.74,-562.49 1704.16,-564.39 1703.07,-557.48"/>
</g>
<!-- Node15 -->
<g id="node15" class="node">
<title>Node15</title>
<g id="a_node15"><a xlink:href="snapshotter_8h.html" target="_top" xlink:title=" ">
<polygon fill="white" stroke="#666666" points="1285.5,-321.5 1158.5,-321.5 1158.5,-302.5 1285.5,-302.5 1285.5,-321.5"/>
<text text-anchor="middle" x="1222" y="-309.5" font-family="Helvetica,sans-Serif" font-size="10.00">src/node/snapshotter.h</text>
</a>
</g>
</g>
<!-- Node4&#45;&gt;Node15 -->
<g id="edge40" class="edge">
<title>Node4&#45;&gt;Node15</title>
<path fill="none" stroke="#63b8ff" d="M1600.13,-567.52C1472.43,-561.46 1148.46,-538.39 1083,-459 1071.03,-444.49 1074.27,-383.39 1090,-363 1102.28,-347.09 1153,-331.05 1187.87,-321.57"/>
<polygon fill="#63b8ff" stroke="#63b8ff" points="1600.28,-571.03 1610.43,-567.99 1600.6,-564.04 1600.28,-571.03"/>
</g>
<!-- Node19 -->
<g id="node19" class="node">
<title>Node19</title>
<g id="a_node19"><a xlink:href="frontend_8h.html" target="_top" xlink:title=" ">
<polygon fill="white" stroke="#666666" points="1931.5,-387.5 1802.5,-387.5 1802.5,-368.5 1931.5,-368.5 1931.5,-387.5"/>
<text text-anchor="middle" x="1867" y="-375.5" font-family="Helvetica,sans-Serif" font-size="10.00">src/node/rpc/frontend.h</text>
</a>
</g>
</g>
<!-- Node4&#45;&gt;Node19 -->
<g id="edge26" class="edge">
<title>Node4&#45;&gt;Node19</title>
<path fill="none" stroke="#63b8ff" d="M1669.5,-554C1712.72,-515.7 1823.48,-417.56 1857.15,-387.73"/>
<polygon fill="#63b8ff" stroke="#63b8ff" points="1666.96,-551.57 1661.8,-560.82 1671.6,-556.81 1666.96,-551.57"/>
</g>
<!-- Node26 -->
<g id="node26" class="node">
<title>Node26</title>
<g id="a_node26"><a xlink:href="network__tables_8h.html" target="_top" xlink:title=" ">
<polygon fill="white" stroke="#666666" points="1562,-525 1450,-525 1450,-495 1562,-495 1562,-525"/>
<text text-anchor="start" x="1458" y="-513" font-family="Helvetica,sans-Serif" font-size="10.00">src/service/network</text>
<text text-anchor="middle" x="1506" y="-502" font-family="Helvetica,sans-Serif" font-size="10.00">_tables.h</text>
</a>
</g>
</g>
<!-- Node4&#45;&gt;Node26 -->
<g id="edge41" class="edge">
<title>Node4&#45;&gt;Node26</title>
<path fill="none" stroke="#63b8ff" d="M1621.32,-557.21C1597.89,-547.82 1565.56,-534.87 1541.1,-525.06"/>
<polygon fill="#63b8ff" stroke="#63b8ff" points="1620.19,-560.52 1630.77,-560.99 1622.79,-554.03 1620.19,-560.52"/>
</g>
<!-- Node6 -->
<g id="node6" class="node">
<title>Node6</title>
<g id="a_node6"><a xlink:href="node__state_8h.html" target="_top" xlink:title=" ">
<polygon fill="white" stroke="#666666" points="1390,-189.5 1266,-189.5 1266,-170.5 1390,-170.5 1390,-189.5"/>
<text text-anchor="middle" x="1328" y="-177.5" font-family="Helvetica,sans-Serif" font-size="10.00">src/node/node_state.h</text>
</a>
</g>
</g>
<!-- Node5&#45;&gt;Node6 -->
<g id="edge5" class="edge">
<title>Node5&#45;&gt;Node6</title>
<path fill="none" stroke="#63b8ff" d="M1639.51,-426.11C1633.37,-416.83 1626.54,-404.83 1623,-393 1617.84,-375.73 1625.98,-244.47 1614,-231 1585.12,-198.51 1465.3,-187.1 1390.21,-183.12"/>
<polygon fill="#63b8ff" stroke="#63b8ff" points="1636.69,-428.18 1645.28,-434.38 1642.43,-424.17 1636.69,-428.18"/>
</g>
<!-- Node7 -->
<g id="node7" class="node">
<title>Node7</title>
<g id="a_node7"><a xlink:href="src_2enclave_2enclave_8h.html" target="_top" xlink:title=" ">
<polygon fill="white" stroke="#666666" points="1439,-74 1317,-74 1317,-55 1439,-55 1439,-74"/>
<text text-anchor="middle" x="1378" y="-62" font-family="Helvetica,sans-Serif" font-size="10.00">src/enclave/enclave.h</text>
</a>
</g>
</g>
<!-- Node6&#45;&gt;Node7 -->
<g id="edge6" class="edge">
<title>Node6&#45;&gt;Node7</title>
<path fill="none" stroke="#63b8ff" d="M1293.33,-166.55C1264.3,-154.13 1230.13,-133.54 1247,-110 1263.02,-87.64 1290.91,-76.38 1316.86,-70.77"/>
<polygon fill="#63b8ff" stroke="#63b8ff" points="1292.31,-169.91 1302.89,-170.44 1294.95,-163.43 1292.31,-169.91"/>
</g>
<!-- Node9 -->
<g id="node9" class="node">
<title>Node9</title>
<g id="a_node9"><a xlink:href="gov__effects_8h.html" target="_top" xlink:title=" ">
<polygon fill="white" stroke="#666666" points="1400,-129 1256,-129 1256,-110 1400,-110 1400,-129"/>
<text text-anchor="middle" x="1328" y="-117" font-family="Helvetica,sans-Serif" font-size="10.00">src/node/rpc/gov_effects.h</text>
</a>
</g>
</g>
<!-- Node6&#45;&gt;Node9 -->
<g id="edge8" class="edge">
<title>Node6&#45;&gt;Node9</title>
<path fill="none" stroke="#63b8ff" d="M1328,-160.16C1328,-149.74 1328,-137.3 1328,-129.17"/>
<polygon fill="#63b8ff" stroke="#63b8ff" points="1324.5,-160.37 1328,-170.37 1331.5,-160.37 1324.5,-160.37"/>
</g>
<!-- Node8 -->
<g id="node8" class="node">
<title>Node8</title>
<g id="a_node8"><a xlink:href="enclave_2main_8cpp.html" target="_top" xlink:title=" ">
<polygon fill="white" stroke="#666666" points="1438,-19 1318,-19 1318,0 1438,0 1438,-19"/>
<text text-anchor="middle" x="1378" y="-7" font-family="Helvetica,sans-Serif" font-size="10.00">src/enclave/main.cpp</text>
</a>
</g>
</g>
<!-- Node7&#45;&gt;Node8 -->
<g id="edge7" class="edge">
<title>Node7&#45;&gt;Node8</title>
<path fill="none" stroke="#63b8ff" d="M1378,-44.66C1378,-35.93 1378,-25.99 1378,-19.09"/>
<polygon fill="#63b8ff" stroke="#63b8ff" points="1374.5,-44.75 1378,-54.75 1381.5,-44.75 1374.5,-44.75"/>
</g>
<!-- Node9&#45;&gt;Node7 -->
<g id="edge9" class="edge">
<title>Node9&#45;&gt;Node7</title>
<path fill="none" stroke="#63b8ff" d="M1343.34,-102.24C1352.1,-92.95 1362.74,-81.68 1369.9,-74.09"/>
<polygon fill="#63b8ff" stroke="#63b8ff" points="1340.57,-100.07 1336.26,-109.75 1345.66,-104.88 1340.57,-100.07"/>
</g>
<!-- Node11&#45;&gt;Node7 -->
<g id="edge12" class="edge">
<title>Node11&#45;&gt;Node7</title>
<path fill="none" stroke="#63b8ff" d="M2277.97,-362.14C2222.33,-344.84 2150,-310.19 2150,-247 2150,-247 2150,-247 2150,-179 2150,-107.29 1621.82,-76.55 1439.22,-68.07"/>
<polygon fill="#63b8ff" stroke="#63b8ff" points="2277.21,-365.57 2287.8,-365.08 2279.21,-358.86 2277.21,-365.57"/>
</g>
<!-- Node12 -->
<g id="node12" class="node">
<title>Node12</title>
<g id="a_node12"><a xlink:href="historical__transaction__fetcher_8h.html" target="_top" xlink:title=" ">
<polygon fill="white" stroke="#666666" points="2353.5,-195 2228.5,-195 2228.5,-165 2353.5,-165 2353.5,-195"/>
<text text-anchor="start" x="2236.5" y="-183" font-family="Helvetica,sans-Serif" font-size="10.00">src/indexing/historical</text>
<text text-anchor="middle" x="2291" y="-172" font-family="Helvetica,sans-Serif" font-size="10.00">_transaction_fetcher.h</text>
</a>
</g>
</g>
<!-- Node11&#45;&gt;Node12 -->
<g id="edge13" class="edge">
<title>Node11&#45;&gt;Node12</title>
<path fill="none" stroke="#63b8ff" d="M2334.92,-353.16C2324.4,-311.93 2303.13,-228.55 2294.63,-195.23"/>
<polygon fill="#63b8ff" stroke="#63b8ff" points="2331.54,-354.08 2337.4,-362.9 2338.32,-352.35 2331.54,-354.08"/>
</g>
<!-- Node12&#45;&gt;Node7 -->
<g id="edge14" class="edge">
<title>Node12&#45;&gt;Node7</title>
<path fill="none" stroke="#63b8ff" d="M2263.02,-159.06C2238.28,-142.63 2200.54,-120.39 2164,-110 2028.18,-71.37 1599.56,-66.11 1439.28,-65.52"/>
<polygon fill="#63b8ff" stroke="#63b8ff" points="2261.28,-162.11 2271.52,-164.82 2265.21,-156.32 2261.28,-162.11"/>
</g>
<!-- Node13&#45;&gt;Node6 -->
<g id="edge17" class="edge">
<title>Node13&#45;&gt;Node6</title>
<path fill="none" stroke="#63b8ff" d="M2003.07,-490.33C2007.78,-444.11 2017.11,-325.97 1993,-297 1916.62,-205.24 1540.57,-186.06 1390.25,-182.06"/>
<polygon fill="#63b8ff" stroke="#63b8ff" points="1999.58,-490.12 2002,-500.44 2006.54,-490.86 1999.58,-490.12"/>
</g>
<!-- Node13&#45;&gt;Node11 -->
<g id="edge16" class="edge">
<title>Node13&#45;&gt;Node11</title>
<path fill="none" stroke="#63b8ff" d="M2038.13,-497.37C2068.44,-487.68 2112.26,-473.21 2150,-459 2206.86,-437.59 2271.88,-409.58 2309.52,-393.02"/>
<polygon fill="#63b8ff" stroke="#63b8ff" points="2036.87,-494.1 2028.4,-500.47 2038.99,-500.77 2036.87,-494.1"/>
</g>
<!-- Node14 -->
<g id="node14" class="node">
<title>Node14</title>
<g id="a_node14"><a xlink:href="snapshot__serdes_8h.html" target="_top" xlink:title=" ">
<polygon fill="white" stroke="#666666" points="1784,-387.5 1632,-387.5 1632,-368.5 1784,-368.5 1784,-387.5"/>
<text text-anchor="middle" x="1708" y="-375.5" font-family="Helvetica,sans-Serif" font-size="10.00">src/node/snapshot_serdes.h</text>
</a>
</g>
</g>
<!-- Node13&#45;&gt;Node14 -->
<g id="edge18" class="edge">
<title>Node13&#45;&gt;Node14</title>
<path fill="none" stroke="#63b8ff" d="M1972.61,-496.4C1913.32,-470.1 1777.67,-409.91 1727.3,-387.56"/>
<polygon fill="#63b8ff" stroke="#63b8ff" points="1971.22,-499.61 1981.78,-500.47 1974.05,-493.22 1971.22,-499.61"/>
</g>
<!-- Node16 -->
<g id="node16" class="node">
<title>Node16</title>
<g id="a_node16"><a xlink:href="tx__receipt__impl_8h.html" target="_top" xlink:title=" ">
<polygon fill="white" stroke="#666666" points="2141,-459 2031,-459 2031,-429 2141,-429 2141,-459"/>
<text text-anchor="start" x="2039" y="-447" font-family="Helvetica,sans-Serif" font-size="10.00">src/node/tx_receipt</text>
<text text-anchor="middle" x="2086" y="-436" font-family="Helvetica,sans-Serif" font-size="10.00">_impl.h</text>
</a>
</g>
</g>
<!-- Node13&#45;&gt;Node16 -->
<g id="edge21" class="edge">
<title>Node13&#45;&gt;Node16</title>
<path fill="none" stroke="#63b8ff" d="M2020.5,-494.32C2034.55,-483.74 2053.38,-469.56 2067.25,-459.12"/>
<polygon fill="#63b8ff" stroke="#63b8ff" points="2018.35,-491.56 2012.46,-500.37 2022.56,-497.15 2018.35,-491.56"/>
</g>
<!-- Node14&#45;&gt;Node15 -->
<g id="edge19" class="edge">
<title>Node14&#45;&gt;Node15</title>
<path fill="none" stroke="#63b8ff" d="M1633.08,-367.13C1537.83,-354.59 1375.05,-333.15 1285.57,-321.37"/>
<polygon fill="#63b8ff" stroke="#63b8ff" points="1632.84,-370.63 1643.21,-368.47 1633.75,-363.69 1632.84,-370.63"/>
</g>
<!-- Node15&#45;&gt;Node6 -->
<g id="edge20" class="edge">
<title>Node15&#45;&gt;Node6</title>
<path fill="none" stroke="#63b8ff" d="M1235.48,-294.46C1258.22,-266.58 1303.42,-211.15 1320.88,-189.73"/>
<polygon fill="#63b8ff" stroke="#63b8ff" points="1232.56,-292.51 1228.95,-302.47 1237.99,-296.93 1232.56,-292.51"/>
</g>
<!-- Node16&#45;&gt;Node11 -->
<g id="edge22" class="edge">
<title>Node16&#45;&gt;Node11</title>
<path fill="none" stroke="#63b8ff" d="M2150.96,-426.7C2193.36,-416.05 2248.02,-402.34 2287.83,-392.35"/>
<polygon fill="#63b8ff" stroke="#63b8ff" points="2149.86,-423.36 2141.02,-429.19 2151.57,-430.15 2149.86,-423.36"/>
</g>
<!-- Node16&#45;&gt;Node14 -->
<g id="edge25" class="edge">
<title>Node16&#45;&gt;Node14</title>
<path fill="none" stroke="#63b8ff" d="M2020.43,-431.9C1945.92,-419.28 1825.91,-398.96 1758.38,-387.53"/>
<polygon fill="#63b8ff" stroke="#63b8ff" points="2020.19,-435.41 2030.63,-433.63 2021.36,-428.5 2020.19,-435.41"/>
</g>
<!-- Node17 -->
<g id="node17" class="node">
<title>Node17</title>
<g id="a_node17"><a xlink:href="historical__queries__adapter_8cpp.html" target="_top" xlink:title=" ">
<polygon fill="white" stroke="#666666" points="2146,-393 2026,-393 2026,-363 2146,-363 2146,-393"/>
<text text-anchor="start" x="2034" y="-381" font-family="Helvetica,sans-Serif" font-size="10.00">src/node/historical</text>
<text text-anchor="middle" x="2086" y="-370" font-family="Helvetica,sans-Serif" font-size="10.00">_queries_adapter.cpp</text>
</a>
</g>
</g>
<!-- Node16&#45;&gt;Node17 -->
<g id="edge23" class="edge">
<title>Node16&#45;&gt;Node17</title>
<path fill="none" stroke="#63b8ff" d="M2086,-418.54C2086,-409.96 2086,-400.61 2086,-393.16"/>
<polygon fill="#63b8ff" stroke="#63b8ff" points="2082.5,-418.8 2086,-428.8 2089.5,-418.8 2082.5,-418.8"/>
</g>
<!-- Node18 -->
<g id="node18" class="node">
<title>Node18</title>
<g id="a_node18"><a xlink:href="historical__queries__utils_8cpp.html" target="_top" xlink:title=" ">
<polygon fill="white" stroke="#666666" points="2270,-393 2164,-393 2164,-363 2270,-363 2270,-393"/>
<text text-anchor="start" x="2172" y="-381" font-family="Helvetica,sans-Serif" font-size="10.00">src/node/historical</text>
<text text-anchor="middle" x="2217" y="-370" font-family="Helvetica,sans-Serif" font-size="10.00">_queries_utils.cpp</text>
</a>
</g>
</g>
<!-- Node16&#45;&gt;Node18 -->
<g id="edge24" class="edge">
<title>Node16&#45;&gt;Node18</title>
<path fill="none" stroke="#63b8ff" d="M2123.84,-424.51C2144.39,-414.47 2169.39,-402.26 2188.32,-393.01"/>
<polygon fill="#63b8ff" stroke="#63b8ff" points="2122.2,-421.42 2114.75,-428.95 2125.27,-427.71 2122.2,-421.42"/>
</g>
<!-- Node19&#45;&gt;Node6 -->
<g id="edge31" class="edge">
<title>Node19&#45;&gt;Node6</title>
<path fill="none" stroke="#63b8ff" d="M1852.38,-360.81C1836.15,-343.49 1808.59,-315.95 1781,-297 1725.95,-259.18 1709.7,-251.08 1646,-231 1559.65,-203.78 1455.24,-190.99 1390.21,-185.26"/>
<polygon fill="#63b8ff" stroke="#63b8ff" points="1850.04,-363.43 1859.39,-368.41 1855.19,-358.69 1850.04,-363.43"/>
</g>
<!-- Node20 -->
<g id="node20" class="node">
<title>Node20</title>
<g id="a_node20"><a xlink:href="acme__challenge__frontend_8h.html" target="_top" xlink:title=" ">
<polygon fill="white" stroke="#666666" points="1772,-327 1632,-327 1632,-297 1772,-297 1772,-327"/>
<text text-anchor="start" x="1640" y="-315" font-family="Helvetica,sans-Serif" font-size="10.00">src/node/acme_challenge</text>
<text text-anchor="middle" x="1702" y="-304" font-family="Helvetica,sans-Serif" font-size="10.00">_frontend.h</text>
</a>
</g>
</g>
<!-- Node19&#45;&gt;Node20 -->
<g id="edge27" class="edge">
<title>Node19&#45;&gt;Node20</title>
<path fill="none" stroke="#63b8ff" d="M1835.15,-364.65C1807.46,-353.9 1767.34,-338.35 1738.39,-327.12"/>
<polygon fill="#63b8ff" stroke="#63b8ff" points="1834.16,-368.02 1844.75,-368.37 1836.69,-361.49 1834.16,-368.02"/>
</g>
<!-- Node22 -->
<g id="node22" class="node">
<title>Node22</title>
<g id="a_node22"><a xlink:href="member__frontend_8h.html" target="_top" xlink:title=" ">
<polygon fill="white" stroke="#666666" points="1538,-327 1418,-327 1418,-297 1538,-297 1538,-327"/>
<text text-anchor="start" x="1426" y="-315" font-family="Helvetica,sans-Serif" font-size="10.00">src/node/rpc/member</text>
<text text-anchor="middle" x="1478" y="-304" font-family="Helvetica,sans-Serif" font-size="10.00">_frontend.h</text>
</a>
</g>
</g>
<!-- Node19&#45;&gt;Node22 -->
<g id="edge32" class="edge">
<title>Node19&#45;&gt;Node22</title>
<path fill="none" stroke="#63b8ff" d="M1813.3,-366.65C1806.48,-365.39 1799.58,-364.14 1793,-363 1704.49,-347.61 1601.64,-331.64 1538.18,-322.01"/>
<polygon fill="#63b8ff" stroke="#63b8ff" points="1812.74,-370.1 1823.21,-368.49 1814.02,-363.22 1812.74,-370.1"/>
</g>
<!-- Node23 -->
<g id="node23" class="node">
<title>Node23</title>
<g id="a_node23"><a xlink:href="node__frontend_8h.html" target="_top" xlink:title=" ">
<polygon fill="white" stroke="#666666" points="1140,-321.5 982,-321.5 982,-302.5 1140,-302.5 1140,-321.5"/>
<text text-anchor="middle" x="1061" y="-309.5" font-family="Helvetica,sans-Serif" font-size="10.00">src/node/rpc/node_frontend.h</text>
</a>
</g>
</g>
<!-- Node19&#45;&gt;Node23 -->
<g id="edge34" class="edge">
<title>Node19&#45;&gt;Node23</title>
<path fill="none" stroke="#63b8ff" d="M1817.17,-366.65C1809.12,-365.24 1800.85,-363.96 1793,-363 1508.88,-328.32 1434.62,-357.28 1150,-327 1136.78,-325.59 1122.53,-323.58 1109.38,-321.51"/>
<polygon fill="#63b8ff" stroke="#63b8ff" points="1816.74,-370.13 1827.21,-368.48 1818,-363.24 1816.74,-370.13"/>
</g>
<!-- Node25 -->
<g id="node25" class="node">
<title>Node25</title>
<g id="a_node25"><a xlink:href="user__frontend_8h.html" target="_top" xlink:title=" ">
<polygon fill="white" stroke="#666666" points="1983.5,-321.5 1828.5,-321.5 1828.5,-302.5 1983.5,-302.5 1983.5,-321.5"/>
<text text-anchor="middle" x="1906" y="-309.5" font-family="Helvetica,sans-Serif" font-size="10.00">src/node/rpc/user_frontend.h</text>
</a>
</g>
</g>
<!-- Node19&#45;&gt;Node25 -->
<g id="edge38" class="edge">
<title>Node19&#45;&gt;Node25</title>
<path fill="none" stroke="#63b8ff" d="M1877.63,-359.55C1885.06,-347.36 1894.66,-331.61 1900.57,-321.91"/>
<polygon fill="#63b8ff" stroke="#63b8ff" points="1874.47,-358.01 1872.26,-368.37 1880.45,-361.65 1874.47,-358.01"/>
</g>
<!-- Node20&#45;&gt;Node7 -->
<g id="edge28" class="edge">
<title>Node20&#45;&gt;Node7</title>
<path fill="none" stroke="#63b8ff" d="M1684.66,-288.8C1670.86,-271.9 1650.52,-248.62 1630,-231 1548.4,-160.93 1435.42,-96.71 1394.02,-74.1"/>
<polygon fill="#63b8ff" stroke="#63b8ff" points="1682.25,-291.39 1691.24,-296.99 1687.7,-287 1682.25,-291.39"/>
</g>
<!-- Node21 -->
<g id="node21" class="node">
<title>Node21</title>
<g id="a_node21"><a xlink:href="ccf__acme__client_8h.html" target="_top" xlink:title=" ">
<polygon fill="white" stroke="#666666" points="1604.5,-255.5 1455.5,-255.5 1455.5,-236.5 1604.5,-236.5 1604.5,-255.5"/>
<text text-anchor="middle" x="1530" y="-243.5" font-family="Helvetica,sans-Serif" font-size="10.00">src/node/ccf_acme_client.h</text>
</a>
</g>
</g>
<!-- Node20&#45;&gt;Node21 -->
<g id="edge29" class="edge">
<title>Node20&#45;&gt;Node21</title>
<path fill="none" stroke="#63b8ff" d="M1654.75,-293.42C1621.61,-281.09 1578.77,-265.15 1552.89,-255.52"/>
<polygon fill="#63b8ff" stroke="#63b8ff" points="1653.66,-296.75 1664.25,-296.95 1656.1,-290.19 1653.66,-296.75"/>
</g>
<!-- Node21&#45;&gt;Node6 -->
<g id="edge30" class="edge">
<title>Node21&#45;&gt;Node6</title>
<path fill="none" stroke="#63b8ff" d="M1493.15,-233.32C1453.3,-220.7 1390.72,-200.87 1355.13,-189.6"/>
<polygon fill="#63b8ff" stroke="#63b8ff" points="1492.17,-236.68 1502.76,-236.37 1494.28,-230.01 1492.17,-236.68"/>
</g>
<!-- Node22&#45;&gt;Node7 -->
<g id="edge33" class="edge">
<title>Node22&#45;&gt;Node7</title>
<path fill="none" stroke="#63b8ff" d="M1461.91,-288.37C1456.57,-280.07 1450.98,-270.39 1447,-261 1420,-197.28 1437.69,-172.98 1409,-110 1402.83,-96.46 1392.47,-82.68 1385.44,-74.12"/>
<polygon fill="#63b8ff" stroke="#63b8ff" points="1459.06,-290.4 1467.52,-296.77 1464.88,-286.51 1459.06,-290.4"/>
</g>
<!-- Node23&#45;&gt;Node7 -->
<g id="edge35" class="edge">
<title>Node23&#45;&gt;Node7</title>
<path fill="none" stroke="#63b8ff" d="M1067.88,-293.17C1074.93,-276.19 1086.97,-250.42 1102,-231 1151.52,-167.02 1167.69,-150.02 1238,-110 1268.59,-92.59 1306.88,-81.02 1335.68,-74.05"/>
<polygon fill="#63b8ff" stroke="#63b8ff" points="1064.62,-291.88 1064.15,-302.47 1071.12,-294.48 1064.62,-291.88"/>
</g>
<!-- Node24 -->
<g id="node24" class="node">
<title>Node24</title>
<g id="a_node24"><a xlink:href="jwt__key__auto__refresh_8h.html" target="_top" xlink:title=" ">
<polygon fill="white" stroke="#666666" points="1235.5,-261 1110.5,-261 1110.5,-231 1235.5,-231 1235.5,-261"/>
<text text-anchor="start" x="1118.5" y="-249" font-family="Helvetica,sans-Serif" font-size="10.00">src/node/jwt_key_auto</text>
<text text-anchor="middle" x="1173" y="-238" font-family="Helvetica,sans-Serif" font-size="10.00">_refresh.h</text>
</a>
</g>
</g>
<!-- Node23&#45;&gt;Node24 -->
<g id="edge36" class="edge">
<title>Node23&#45;&gt;Node24</title>
<path fill="none" stroke="#63b8ff" d="M1084.88,-297.35C1103.55,-286.68 1129.42,-271.9 1148.3,-261.12"/>
<polygon fill="#63b8ff" stroke="#63b8ff" points="1083.05,-294.37 1076.1,-302.37 1086.52,-300.45 1083.05,-294.37"/>
</g>
<!-- Node24&#45;&gt;Node6 -->
<g id="edge37" class="edge">
<title>Node24&#45;&gt;Node6</title>
<path fill="none" stroke="#63b8ff" d="M1216.35,-227.1C1246.1,-214.82 1284.25,-199.06 1307.37,-189.52"/>
<polygon fill="#63b8ff" stroke="#63b8ff" points="1214.92,-223.9 1207.02,-230.95 1217.59,-230.37 1214.92,-223.9"/>
</g>
<!-- Node25&#45;&gt;Node7 -->
<g id="edge39" class="edge">
<title>Node25&#45;&gt;Node7</title>
<path fill="none" stroke="#63b8ff" d="M1879.73,-297.8C1813.96,-264.89 1636.69,-177.04 1486,-110 1456.35,-96.81 1421.58,-82.73 1399.67,-74.02"/>
<polygon fill="#63b8ff" stroke="#63b8ff" points="1878.45,-301.07 1888.96,-302.42 1881.58,-294.81 1878.45,-301.07"/>
</g>
<!-- Node26&#45;&gt;Node21 -->
<g id="edge42" class="edge">
<title>Node26&#45;&gt;Node21</title>
<path fill="none" stroke="#63b8ff" d="M1513.23,-484.88C1523.19,-450.3 1540.61,-384.47 1547,-327 1548.47,-313.75 1549.18,-310.15 1547,-297 1544.52,-281.98 1538.11,-265.42 1533.91,-255.63"/>
<polygon fill="#63b8ff" stroke="#63b8ff" points="1509.85,-483.98 1510.41,-494.56 1516.57,-485.94 1509.85,-483.98"/>
</g>
<!-- Node27 -->
<g id="node27" class="node">
<title>Node27</title>
<g id="a_node27"><a xlink:href="network__state_8h.html" target="_top" xlink:title=" ">
<polygon fill="white" stroke="#666666" points="1232,-453.5 1092,-453.5 1092,-434.5 1232,-434.5 1232,-453.5"/>
<text text-anchor="middle" x="1162" y="-441.5" font-family="Helvetica,sans-Serif" font-size="10.00">src/node/network_state.h</text>
</a>
</g>
</g>
<!-- Node26&#45;&gt;Node27 -->
<g id="edge43" class="edge">
<title>Node26&#45;&gt;Node27</title>
<path fill="none" stroke="#63b8ff" d="M1439.77,-496.68C1371.65,-484 1267.34,-464.6 1207.82,-453.53"/>
<polygon fill="#63b8ff" stroke="#63b8ff" points="1439.49,-500.19 1449.96,-498.57 1440.77,-493.3 1439.49,-500.19"/>
</g>
<!-- Node36 -->
<g id="node36" class="node">
<title>Node36</title>
<g id="a_node36"><a xlink:href="genesis__gen_8h.html" target="_top" xlink:title=" ">
<polygon fill="white" stroke="#666666" points="1456,-459 1346,-459 1346,-429 1456,-429 1456,-459"/>
<text text-anchor="start" x="1354" y="-447" font-family="Helvetica,sans-Serif" font-size="10.00">src/service/genesis</text>
<text text-anchor="middle" x="1401" y="-436" font-family="Helvetica,sans-Serif" font-size="10.00">_gen.h</text>
</a>
</g>
</g>
<!-- Node26&#45;&gt;Node36 -->
<g id="edge71" class="edge">
<title>Node26&#45;&gt;Node36</title>
<path fill="none" stroke="#63b8ff" d="M1474.33,-489.69C1458.12,-479.82 1438.75,-468.01 1423.99,-459.01"/>
<polygon fill="#63b8ff" stroke="#63b8ff" points="1472.6,-492.74 1482.96,-494.95 1476.24,-486.76 1472.6,-492.74"/>
</g>
<!-- Node27&#45;&gt;Node6 -->
<g id="edge62" class="edge">
<title>Node27&#45;&gt;Node6</title>
<path fill="none" stroke="#63b8ff" d="M1081.51,-440.36C844.26,-431.76 160.17,-400.72 95,-327 86.17,-317.01 86.61,-307.36 95,-297 169.39,-205.16 1025.56,-185.51 1265.72,-181.79"/>
<polygon fill="#63b8ff" stroke="#63b8ff" points="1081.67,-443.87 1091.79,-440.73 1081.92,-436.87 1081.67,-443.87"/>
</g>
<!-- Node27&#45;&gt;Node7 -->
<g id="edge44" class="edge">
<title>Node27&#45;&gt;Node7</title>
<path fill="none" stroke="#63b8ff" d="M1081.87,-441.27C863.91,-436.23 270.99,-420.16 187,-393 86.67,-360.56 0,-352.44 0,-247 0,-247 0,-247 0,-179 0,-32.21 177.37,-128.49 323,-110 517.25,-85.33 1121.95,-70.85 1316.82,-66.73"/>
<polygon fill="#63b8ff" stroke="#63b8ff" points="1081.88,-444.77 1091.96,-441.5 1082.04,-437.77 1081.88,-444.77"/>
</g>
<!-- Node27&#45;&gt;Node15 -->
<g id="edge70" class="edge">
<title>Node27&#45;&gt;Node15</title>
<path fill="none" stroke="#63b8ff" d="M1134.87,-429.16C1121.43,-420.71 1106.5,-408.53 1099,-393 1093.2,-380.99 1091.56,-374.06 1099,-363 1109.59,-347.27 1157.35,-331.11 1190.15,-321.57"/>
<polygon fill="#63b8ff" stroke="#63b8ff" points="1133.43,-432.38 1143.83,-434.41 1136.97,-426.34 1133.43,-432.38"/>
</g>
<!-- Node27&#45;&gt;Node20 -->
<g id="edge61" class="edge">
<title>Node27&#45;&gt;Node20</title>
<path fill="none" stroke="#63b8ff" d="M1227.89,-432.86C1283.02,-423.9 1363.59,-409.67 1433,-393 1514.25,-373.48 1607.36,-344.21 1659.98,-327.01"/>
<polygon fill="#63b8ff" stroke="#63b8ff" points="1227.21,-429.43 1217.9,-434.47 1228.33,-436.34 1227.21,-429.43"/>
</g>
<!-- Node27&#45;&gt;Node23 -->
<g id="edge63" class="edge">
<title>Node27&#45;&gt;Node23</title>
<path fill="none" stroke="#63b8ff" d="M1097.09,-432.55C1053.73,-424.09 1002.29,-410.68 989,-393 968.23,-365.37 1015.08,-335.9 1042.66,-321.67"/>
<polygon fill="#63b8ff" stroke="#63b8ff" points="1096.58,-436.01 1107.06,-434.43 1097.88,-429.13 1096.58,-436.01"/>
</g>
<!-- Node27&#45;&gt;Node25 -->
<g id="edge64" class="edge">
<title>Node27&#45;&gt;Node25</title>
<path fill="none" stroke="#63b8ff" d="M1242.54,-436.21C1272.22,-433.8 1306.13,-431.15 1337,-429 1404.07,-424.32 1894.9,-441.93 1941,-393 1960.96,-371.81 1931.29,-337.41 1915.21,-321.53"/>
<polygon fill="#63b8ff" stroke="#63b8ff" points="1241.91,-432.75 1232.23,-437.05 1242.48,-439.73 1241.91,-432.75"/>
</g>
<!-- Node28 -->
<g id="node28" class="node">
<title>Node28</title>
<g id="a_node28"><a xlink:href="wrap_8h.html" target="_top" xlink:title=" ">
<polygon fill="white" stroke="#666666" points="716,-387.5 638,-387.5 638,-368.5 716,-368.5 716,-387.5"/>
<text text-anchor="middle" x="677" y="-375.5" font-family="Helvetica,sans-Serif" font-size="10.00">src/js/wrap.h</text>
</a>
</g>
</g>
<!-- Node27&#45;&gt;Node28 -->
<g id="edge45" class="edge">
<title>Node27&#45;&gt;Node28</title>
<path fill="none" stroke="#63b8ff" d="M1087.19,-433.13C982.73,-419.34 796.93,-394.83 716.23,-384.18"/>
<polygon fill="#63b8ff" stroke="#63b8ff" points="1086.97,-436.63 1097.35,-434.47 1087.89,-429.69 1086.97,-436.63"/>
</g>
<!-- Node34 -->
<g id="node34" class="node">
<title>Node34</title>
<g id="a_node34"><a xlink:href="secret__broadcast_8h.html" target="_top" xlink:title=" ">
<polygon fill="white" stroke="#666666" points="1260.5,-387.5 1107.5,-387.5 1107.5,-368.5 1260.5,-368.5 1260.5,-387.5"/>
<text text-anchor="middle" x="1184" y="-375.5" font-family="Helvetica,sans-Serif" font-size="10.00">src/node/secret_broadcast.h</text>
</a>
</g>
</g>
<!-- Node27&#45;&gt;Node34 -->
<g id="edge65" class="edge">
<title>Node27&#45;&gt;Node34</title>
<path fill="none" stroke="#63b8ff" d="M1168.25,-424.82C1172.4,-412.74 1177.67,-397.41 1180.94,-387.91"/>
<polygon fill="#63b8ff" stroke="#63b8ff" points="1164.91,-423.77 1164.97,-434.37 1171.53,-426.05 1164.91,-423.77"/>
</g>
<!-- Node35 -->
<g id="node35" class="node">
<title>Node35</title>
<g id="a_node35"><a xlink:href="share__manager_8h.html" target="_top" xlink:title=" ">
<polygon fill="white" stroke="#666666" points="1423.5,-387.5 1278.5,-387.5 1278.5,-368.5 1423.5,-368.5 1423.5,-387.5"/>
<text text-anchor="middle" x="1351" y="-375.5" font-family="Helvetica,sans-Serif" font-size="10.00">src/node/share_manager.h</text>
</a>
</g>
</g>
<!-- Node27&#45;&gt;Node35 -->
<g id="edge67" class="edge">
<title>Node27&#45;&gt;Node35</title>
<path fill="none" stroke="#63b8ff" d="M1197.43,-431C1234.76,-418.36 1292.6,-398.78 1325.61,-387.6"/>
<polygon fill="#63b8ff" stroke="#63b8ff" points="1195.84,-427.85 1187.49,-434.37 1198.08,-434.48 1195.84,-427.85"/>
</g>
<!-- Node28&#45;&gt;Node2 -->
<g id="edge46" class="edge">
<title>Node28&#45;&gt;Node2</title>
<path fill="none" stroke="#63b8ff" d="M627.95,-372.68C546.36,-365.21 377.72,-348.59 236,-327 231.53,-326.32 226.93,-325.56 222.3,-324.77"/>
<polygon fill="#63b8ff" stroke="#63b8ff" points="627.66,-376.16 637.93,-373.58 628.29,-369.19 627.66,-376.16"/>
</g>
<!-- Node28&#45;&gt;Node3 -->
<g id="edge57" class="edge">
<title>Node28&#45;&gt;Node3</title>
<path fill="none" stroke="#63b8ff" d="M627.55,-373.95C563.95,-368.89 458.8,-356.22 435,-327 417.51,-305.53 439.48,-271.56 451.76,-255.7"/>
<polygon fill="#63b8ff" stroke="#63b8ff" points="627.53,-377.46 637.77,-374.73 628.06,-370.48 627.53,-377.46"/>
</g>
<!-- Node28&#45;&gt;Node6 -->
<g id="edge58" class="edge">
<title>Node28&#45;&gt;Node6</title>
<path fill="none" stroke="#63b8ff" d="M726.6,-374.36C780.16,-369.94 866.96,-358.19 935,-327 954.56,-318.03 954.89,-308.62 973,-297 1027.2,-262.21 1041.4,-252.8 1102,-231 1157.77,-210.94 1224.3,-197.39 1270.68,-189.52"/>
<polygon fill="#63b8ff" stroke="#63b8ff" points="726.05,-370.89 716.34,-375.14 726.58,-377.87 726.05,-370.89"/>
</g>
<!-- Node28&#45;&gt;Node7 -->
<g id="edge47" class="edge">
<title>Node28&#45;&gt;Node7</title>
<path fill="none" stroke="#63b8ff" d="M627.58,-377.74C530.74,-378.12 320.9,-373.42 269,-327 241.76,-302.64 250,-283.54 250,-247 250,-247 250,-247 250,-179 250,-70.81 1082.11,-64.74 1316.95,-65.18"/>
<polygon fill="#63b8ff" stroke="#63b8ff" points="627.73,-381.24 637.71,-377.68 627.69,-374.24 627.73,-381.24"/>
</g>
<!-- Node28&#45;&gt;Node22 -->
<g id="edge59" class="edge">
<title>Node28&#45;&gt;Node22</title>
<path fill="none" stroke="#63b8ff" d="M726.18,-373.07C865.96,-361.9 1265.35,-329.99 1417.83,-317.81"/>
<polygon fill="#63b8ff" stroke="#63b8ff" points="725.87,-369.58 716.18,-373.87 726.42,-376.56 725.87,-369.58"/>
</g>
<!-- Node28&#45;&gt;Node23 -->
<g id="edge60" class="edge">
<title>Node28&#45;&gt;Node23</title>
<path fill="none" stroke="#63b8ff" d="M726.17,-368.81C799.24,-356.63 935.82,-333.86 1009.96,-321.51"/>
<polygon fill="#63b8ff" stroke="#63b8ff" points="725.58,-365.36 716.29,-370.45 726.73,-372.26 725.58,-365.36"/>
</g>
<!-- Node29 -->
<g id="node29" class="node">
<title>Node29</title>
<g id="a_node29"><a xlink:href="consensus_8cpp.html" target="_top" xlink:title=" ">
<polygon fill="white" stroke="#666666" points="560,-321.5 444,-321.5 444,-302.5 560,-302.5 560,-321.5"/>
<text text-anchor="middle" x="502" y="-309.5" font-family="Helvetica,sans-Serif" font-size="10.00">src/js/consensus.cpp</text>
</a>
</g>
</g>
<!-- Node28&#45;&gt;Node29 -->
<g id="edge48" class="edge">
<title>Node28&#45;&gt;Node29</title>
<path fill="none" stroke="#63b8ff" d="M643.75,-364.84C609.17,-352.2 555.94,-332.73 525.51,-321.6"/>
<polygon fill="#63b8ff" stroke="#63b8ff" points="642.8,-368.22 653.4,-368.37 645.21,-361.65 642.8,-368.22"/>
</g>
<!-- Node30 -->
<g id="node30" class="node">
<title>Node30</title>
<g id="a_node30"><a xlink:href="conv_8cpp.html" target="_top" xlink:title=" ">
<polygon fill="white" stroke="#666666" points="666,-321.5 578,-321.5 578,-302.5 666,-302.5 666,-321.5"/>
<text text-anchor="middle" x="622" y="-309.5" font-family="Helvetica,sans-Serif" font-size="10.00">src/js/conv.cpp</text>
</a>
</g>
</g>
<!-- Node28&#45;&gt;Node30 -->
<g id="edge50" class="edge">
<title>Node28&#45;&gt;Node30</title>
<path fill="none" stroke="#63b8ff" d="M662.93,-360.62C652.34,-348.31 638.24,-331.89 629.65,-321.91"/>
<polygon fill="#63b8ff" stroke="#63b8ff" points="660.41,-363.07 669.58,-368.37 665.72,-358.5 660.41,-363.07"/>
</g>
<!-- Node31 -->
<g id="node31" class="node">
<title>Node31</title>
<g id="a_node31"><a xlink:href="crypto_8cpp.html" target="_top" xlink:title=" ">
<polygon fill="white" stroke="#666666" points="780,-321.5 684,-321.5 684,-302.5 780,-302.5 780,-321.5"/>
<text text-anchor="middle" x="732" y="-309.5" font-family="Helvetica,sans-Serif" font-size="10.00">src/js/crypto.cpp</text>
</a>
</g>
</g>
<!-- Node28&#45;&gt;Node31 -->
<g id="edge52" class="edge">
<title>Node28&#45;&gt;Node31</title>
<path fill="none" stroke="#63b8ff" d="M691.07,-360.62C701.66,-348.31 715.76,-331.89 724.35,-321.91"/>
<polygon fill="#63b8ff" stroke="#63b8ff" points="688.28,-358.5 684.42,-368.37 693.59,-363.07 688.28,-358.5"/>
</g>
<!-- Node32 -->
<g id="node32" class="node">
<title>Node32</title>
<g id="a_node32"><a xlink:href="historical_8cpp.html" target="_top" xlink:title=" ">
<polygon fill="white" stroke="#666666" points="388,-321.5 278,-321.5 278,-302.5 388,-302.5 388,-321.5"/>
<text text-anchor="middle" x="333" y="-309.5" font-family="Helvetica,sans-Serif" font-size="10.00">src/js/historical.cpp</text>
</a>
</g>
</g>
<!-- Node28&#45;&gt;Node32 -->
<g id="edge54" class="edge">
<title>Node28&#45;&gt;Node32</title>
<path fill="none" stroke="#63b8ff" d="M627.61,-368.33C572.52,-358.59 480.79,-342.15 402,-327 393,-325.27 383.35,-323.35 374.2,-321.5"/>
<polygon fill="#63b8ff" stroke="#63b8ff" points="627.33,-371.84 637.79,-370.13 628.55,-364.94 627.33,-371.84"/>
</g>
<!-- Node33 -->
<g id="node33" class="node">
<title>Node33</title>
<g id="a_node33"><a xlink:href="openenclave_8cpp.html" target="_top" xlink:title=" ">
<polygon fill="white" stroke="#666666" points="926,-321.5 798,-321.5 798,-302.5 926,-302.5 926,-321.5"/>
<text text-anchor="middle" x="862" y="-309.5" font-family="Helvetica,sans-Serif" font-size="10.00">src/js/openenclave.cpp</text>
</a>
</g>
</g>
<!-- Node28&#45;&gt;Node33 -->
<g id="edge56" class="edge">
<title>Node28&#45;&gt;Node33</title>
<path fill="none" stroke="#63b8ff" d="M711.68,-365C748.22,-352.36 804.84,-332.78 837.15,-321.6"/>
<polygon fill="#63b8ff" stroke="#63b8ff" points="710.26,-361.79 701.95,-368.37 712.54,-368.41 710.26,-361.79"/>
</g>
<!-- Node29&#45;&gt;Node3 -->
<g id="edge49" class="edge">
<title>Node29&#45;&gt;Node3</title>
<path fill="none" stroke="#63b8ff" d="M490.52,-293.91C482.3,-281.68 471.56,-265.7 464.98,-255.91"/>
<polygon fill="#63b8ff" stroke="#63b8ff" points="487.72,-296.02 496.2,-302.37 493.53,-292.12 487.72,-296.02"/>
</g>
<!-- Node30&#45;&gt;Node3 -->
<g id="edge51" class="edge">
<title>Node30&#45;&gt;Node3</title>
<path fill="none" stroke="#63b8ff" d="M590.61,-298.68C558.4,-286.03 509.12,-266.68 480.89,-255.6"/>
<polygon fill="#63b8ff" stroke="#63b8ff" points="589.43,-301.97 600.02,-302.37 591.99,-295.46 589.43,-301.97"/>
</g>
<!-- Node31&#45;&gt;Node3 -->
<g id="edge53" class="edge">
<title>Node31&#45;&gt;Node3</title>
<path fill="none" stroke="#63b8ff" d="M687.71,-300.06C683.42,-299.02 679.13,-297.98 675,-297 612.47,-282.09 539.61,-265.35 496.5,-255.52"/>
<polygon fill="#63b8ff" stroke="#63b8ff" points="687.11,-303.52 697.66,-302.49 688.77,-296.72 687.11,-303.52"/>
</g>
<!-- Node32&#45;&gt;Node3 -->
<g id="edge55" class="edge">
<title>Node32&#45;&gt;Node3</title>
<path fill="none" stroke="#63b8ff" d="M359.19,-297.69C384.02,-285.09 420.58,-266.51 441.87,-255.7"/>
<polygon fill="#63b8ff" stroke="#63b8ff" points="357.32,-294.72 349.99,-302.37 360.49,-300.96 357.32,-294.72"/>
</g>
<!-- Node34&#45;&gt;Node6 -->
<g id="edge66" class="edge">
<title>Node34&#45;&gt;Node6</title>
<path fill="none" stroke="#63b8ff" d="M1233.99,-365.32C1255.7,-357.81 1279.64,-345.81 1295,-327 1329.36,-284.94 1329.61,-214.24 1328.55,-189.7"/>
<polygon fill="#63b8ff" stroke="#63b8ff" points="1232.65,-362.07 1224.21,-368.46 1234.8,-368.73 1232.65,-362.07"/>
</g>
<!-- Node35&#45;&gt;Node6 -->
<g id="edge68" class="edge">
<title>Node35&#45;&gt;Node6</title>
<path fill="none" stroke="#63b8ff" d="M1348.8,-358.26C1343.95,-316.88 1332.47,-219.08 1329.01,-189.57"/>
<polygon fill="#63b8ff" stroke="#63b8ff" points="1345.34,-358.8 1349.98,-368.33 1352.29,-357.99 1345.34,-358.8"/>
</g>
<!-- Node35&#45;&gt;Node22 -->
<g id="edge69" class="edge">
<title>Node35&#45;&gt;Node22</title>
<path fill="none" stroke="#63b8ff" d="M1377.22,-363.79C1398.45,-353.09 1428.29,-338.05 1449.99,-327.12"/>
<polygon fill="#63b8ff" stroke="#63b8ff" points="1375.48,-360.74 1368.13,-368.37 1378.63,-366.99 1375.48,-360.74"/>
</g>
<!-- Node36&#45;&gt;Node6 -->
<g id="edge72" class="edge">
<title>Node36&#45;&gt;Node6</title>
<path fill="none" stroke="#63b8ff" d="M1419.21,-420.55C1424.76,-412.37 1430.15,-402.73 1433,-393 1436.74,-380.2 1436.86,-375.76 1433,-363 1427.43,-344.6 1419.01,-343.42 1409,-327 1377.93,-276.01 1344.41,-212.54 1332.51,-189.7"/>
<polygon fill="#63b8ff" stroke="#63b8ff" points="1416.28,-418.64 1413.23,-428.79 1421.94,-422.75 1416.28,-418.64"/>
</g>
<!-- Node36&#45;&gt;Node22 -->
<g id="edge73" class="edge">
<title>Node36&#45;&gt;Node22</title>
<path fill="none" stroke="#63b8ff" d="M1436.35,-423.31C1447.55,-415.34 1458.86,-405.12 1466,-393 1478.11,-372.42 1479.43,-343.9 1478.95,-327.05"/>
<polygon fill="#63b8ff" stroke="#63b8ff" points="1434.26,-420.5 1427.88,-428.96 1438.14,-426.32 1434.26,-420.5"/>
</g>
<!-- Node36&#45;&gt;Node23 -->
<g id="edge74" class="edge">
<title>Node36&#45;&gt;Node23</title>
<path fill="none" stroke="#63b8ff" d="M1335.62,-435.43C1252.54,-425.31 1117.62,-407.03 1099,-393 1075.18,-375.05 1065.64,-338.36 1062.41,-321.65"/>
<polygon fill="#63b8ff" stroke="#63b8ff" points="1335.39,-438.92 1345.74,-436.65 1336.23,-431.98 1335.39,-438.92"/>
</g>
<!-- Node36&#45;&gt;Node34 -->
<g id="edge75" class="edge">
<title>Node36&#45;&gt;Node34</title>
<path fill="none" stroke="#63b8ff" d="M1343.53,-426.05C1301.44,-413.64 1246.09,-397.31 1212.88,-387.52"/>
<polygon fill="#63b8ff" stroke="#63b8ff" points="1342.8,-429.48 1353.38,-428.95 1344.78,-422.77 1342.8,-429.48"/>
</g>
<!-- Node36&#45;&gt;Node35 -->
<g id="edge76" class="edge">
<title>Node36&#45;&gt;Node35</title>
<path fill="none" stroke="#63b8ff" d="M1383.51,-420.61C1374.69,-409.32 1364.5,-396.28 1357.91,-387.84"/>
<polygon fill="#63b8ff" stroke="#63b8ff" points="1380.99,-423.07 1389.9,-428.8 1386.5,-418.76 1380.99,-423.07"/>
</g>
</g>
</svg>
