<?xml version="1.0" encoding="UTF-8" standalone="no"?>
<!DOCTYPE svg PUBLIC "-//W3C//DTD SVG 1.1//EN"
 "http://www.w3.org/Graphics/SVG/1.1/DTD/svg11.dtd">
<!-- Generated by graphviz version 2.43.0 (0)
 -->
<!-- Title: src/kv/committable_tx.h Pages: 1 -->
<svg width="2438pt" height="720pt"
 viewBox="0.00 0.00 2437.50 720.00" xmlns="http://www.w3.org/2000/svg" xmlns:xlink="http://www.w3.org/1999/xlink">
<g id="graph0" class="graph" transform="scale(1 1) rotate(0) translate(4 716)">
<title>src/kv/committable_tx.h</title>
<!-- Node1 -->
<g id="node1" class="node">
<title>Node1</title>
<g id="a_node1"><a xlink:title=" ">
<polygon fill="#999999" stroke="#666666" points="1253.5,-712 1118.5,-712 1118.5,-693 1253.5,-693 1253.5,-712"/>
<text text-anchor="middle" x="1186" y="-700" font-family="Helvetica,sans-Serif" font-size="10.00">src/kv/committable_tx.h</text>
</a>
</g>
</g>
<!-- Node2 -->
<g id="node2" class="node">
<title>Node2</title>
<g id="a_node2"><a xlink:href="deserialise_8h.html" target="_top" xlink:title=" ">
<polygon fill="white" stroke="#666666" points="1241.5,-651.5 1130.5,-651.5 1130.5,-632.5 1241.5,-632.5 1241.5,-651.5"/>
<text text-anchor="middle" x="1186" y="-639.5" font-family="Helvetica,sans-Serif" font-size="10.00">src/kv/deserialise.h</text>
</a>
</g>
</g>
<!-- Node1&#45;&gt;Node2 -->
<g id="edge1" class="edge">
<title>Node1&#45;&gt;Node2</title>
<path fill="none" stroke="#63b8ff" d="M1186,-682.66C1186,-672.24 1186,-659.8 1186,-651.67"/>
<polygon fill="#63b8ff" stroke="#63b8ff" points="1182.5,-682.87 1186,-692.87 1189.5,-682.87 1182.5,-682.87"/>
</g>
<!-- Node3 -->
<g id="node3" class="node">
<title>Node3</title>
<g id="a_node3"><a xlink:href="store_8h.html" target="_top" xlink:title=" ">
<polygon fill="white" stroke="#666666" points="1143.5,-585.5 1060.5,-585.5 1060.5,-566.5 1143.5,-566.5 1143.5,-585.5"/>
<text text-anchor="middle" x="1102" y="-573.5" font-family="Helvetica,sans-Serif" font-size="10.00">src/kv/store.h</text>
</a>
</g>
</g>
<!-- Node1&#45;&gt;Node3 -->
<g id="edge76" class="edge">
<title>Node1&#45;&gt;Node3</title>
<path fill="none" stroke="#63b8ff" d="M1157.23,-687.99C1144.34,-680.56 1130.03,-670.15 1121,-657 1105.56,-634.52 1102.58,-601.05 1102.07,-585.51"/>
<polygon fill="#63b8ff" stroke="#63b8ff" points="1155.81,-691.2 1166.27,-692.88 1159.13,-685.04 1155.81,-691.2"/>
</g>
<!-- Node38 -->
<g id="node38" class="node">
<title>Node38</title>
<g id="a_node38"><a xlink:href="endpoint__context__impl_8h.html" target="_top" xlink:title=" ">
<polygon fill="white" stroke="#666666" points="2240,-657 2094,-657 2094,-627 2240,-627 2240,-657"/>
<text text-anchor="start" x="2102" y="-645" font-family="Helvetica,sans-Serif" font-size="10.00">src/node/endpoint_context</text>
<text text-anchor="middle" x="2167" y="-634" font-family="Helvetica,sans-Serif" font-size="10.00">_impl.h</text>
</a>
</g>
</g>
<!-- Node1&#45;&gt;Node38 -->
<g id="edge77" class="edge">
<title>Node1&#45;&gt;Node38</title>
<path fill="none" stroke="#63b8ff" d="M1264.02,-696.85C1449.29,-685.8 1913.65,-658.11 2093.88,-647.36"/>
<polygon fill="#63b8ff" stroke="#63b8ff" points="1263.59,-693.37 1253.82,-697.46 1264.01,-700.35 1263.59,-693.37"/>
</g>
<!-- Node2&#45;&gt;Node3 -->
<g id="edge2" class="edge">
<title>Node2&#45;&gt;Node3</title>
<path fill="none" stroke="#63b8ff" d="M1166.3,-625.99C1149.85,-613.46 1126.99,-596.04 1113.42,-585.7"/>
<polygon fill="#63b8ff" stroke="#63b8ff" points="1164.6,-629.09 1174.67,-632.37 1168.84,-623.52 1164.6,-629.09"/>
</g>
<!-- Node4 -->
<g id="node4" class="node">
<title>Node4</title>
<g id="a_node4"><a xlink:href="indexer_8h.html" target="_top" xlink:title=" ">
<polygon fill="white" stroke="#666666" points="613.5,-453.5 490.5,-453.5 490.5,-434.5 613.5,-434.5 613.5,-453.5"/>
<text text-anchor="middle" x="552" y="-441.5" font-family="Helvetica,sans-Serif" font-size="10.00">src/indexing/indexer.h</text>
</a>
</g>
</g>
<!-- Node3&#45;&gt;Node4 -->
<g id="edge3" class="edge">
<title>Node3&#45;&gt;Node4</title>
<path fill="none" stroke="#63b8ff" d="M1050.02,-574.01C942.84,-571.24 701.17,-561.08 628,-525 594.49,-508.48 567.94,-470.71 557.18,-453.65"/>
<polygon fill="#63b8ff" stroke="#63b8ff" points="1050.19,-577.51 1060.27,-574.26 1050.36,-570.52 1050.19,-577.51"/>
</g>
<!-- Node9 -->
<g id="node9" class="node">
<title>Node9</title>
<g id="a_node9"><a xlink:href="visit__each__entry__in__map_8cpp.html" target="_top" xlink:title=" ">
<polygon fill="white" stroke="#666666" points="1797.5,-525 1636.5,-525 1636.5,-495 1797.5,-495 1797.5,-525"/>
<text text-anchor="start" x="1644.5" y="-513" font-family="Helvetica,sans-Serif" font-size="10.00">src/indexing/strategies</text>
<text text-anchor="middle" x="1717" y="-502" font-family="Helvetica,sans-Serif" font-size="10.00">/visit_each_entry_in_map.cpp</text>
</a>
</g>
</g>
<!-- Node3&#45;&gt;Node9 -->
<g id="edge9" class="edge">
<title>Node3&#45;&gt;Node9</title>
<path fill="none" stroke="#63b8ff" d="M1153.73,-571.1C1248.02,-563.76 1454.06,-546.67 1627,-525 1629.98,-524.63 1633.02,-524.23 1636.08,-523.82"/>
<polygon fill="#63b8ff" stroke="#63b8ff" points="1153.31,-567.62 1143.61,-571.88 1153.85,-574.6 1153.31,-567.62"/>
</g>
<!-- Node10 -->
<g id="node10" class="node">
<title>Node10</title>
<g id="a_node10"><a xlink:href="historical__queries_8h.html" target="_top" xlink:title=" ">
<polygon fill="white" stroke="#666666" points="106,-393 0,-393 0,-363 106,-363 106,-393"/>
<text text-anchor="start" x="8" y="-381" font-family="Helvetica,sans-Serif" font-size="10.00">src/node/historical</text>
<text text-anchor="middle" x="53" y="-370" font-family="Helvetica,sans-Serif" font-size="10.00">_queries.h</text>
</a>
</g>
</g>
<!-- Node3&#45;&gt;Node10 -->
<g id="edge10" class="edge">
<title>Node3&#45;&gt;Node10</title>
<path fill="none" stroke="#63b8ff" d="M1049.83,-573.72C900.35,-569.7 472.48,-555.78 336,-525 258.55,-507.53 240.09,-496.3 170,-459 132.86,-439.23 93.13,-410.18 70.85,-393.06"/>
<polygon fill="#63b8ff" stroke="#63b8ff" points="1050.01,-577.22 1060.1,-573.99 1050.2,-570.23 1050.01,-577.22"/>
</g>
<!-- Node12 -->
<g id="node12" class="node">
<title>Node12</title>
<g id="a_node12"><a xlink:href="history_8h.html" target="_top" xlink:title=" ">
<polygon fill="white" stroke="#666666" points="447,-519.5 345,-519.5 345,-500.5 447,-500.5 447,-519.5"/>
<text text-anchor="middle" x="396" y="-507.5" font-family="Helvetica,sans-Serif" font-size="10.00">src/node/history.h</text>
</a>
</g>
</g>
<!-- Node3&#45;&gt;Node12 -->
<g id="edge14" class="edge">
<title>Node3&#45;&gt;Node12</title>
<path fill="none" stroke="#63b8ff" d="M1050.33,-570.32C919.7,-558.47 577.39,-527.44 447.23,-515.64"/>
<polygon fill="#63b8ff" stroke="#63b8ff" points="1050.2,-573.82 1060.47,-571.24 1050.83,-566.85 1050.2,-573.82"/>
</g>
<!-- Node14 -->
<g id="node14" class="node">
<title>Node14</title>
<g id="a_node14"><a xlink:href="snapshotter_8h.html" target="_top" xlink:title=" ">
<polygon fill="white" stroke="#666666" points="639.5,-321.5 512.5,-321.5 512.5,-302.5 639.5,-302.5 639.5,-321.5"/>
<text text-anchor="middle" x="576" y="-309.5" font-family="Helvetica,sans-Serif" font-size="10.00">src/node/snapshotter.h</text>
</a>
</g>
</g>
<!-- Node3&#45;&gt;Node14 -->
<g id="edge39" class="edge">
<title>Node3&#45;&gt;Node14</title>
<path fill="none" stroke="#63b8ff" d="M1059.24,-563.74C976.49,-540.67 790.74,-482.52 656,-393 624.59,-372.13 595.29,-337.57 582.61,-321.59"/>
<polygon fill="#63b8ff" stroke="#63b8ff" points="1058.48,-567.16 1069.05,-566.45 1060.34,-560.41 1058.48,-567.16"/>
</g>
<!-- Node18 -->
<g id="node18" class="node">
<title>Node18</title>
<g id="a_node18"><a xlink:href="frontend_8h.html" target="_top" xlink:title=" ">
<polygon fill="white" stroke="#666666" points="2245.5,-387.5 2116.5,-387.5 2116.5,-368.5 2245.5,-368.5 2245.5,-387.5"/>
<text text-anchor="middle" x="2181" y="-375.5" font-family="Helvetica,sans-Serif" font-size="10.00">src/node/rpc/frontend.h</text>
</a>
</g>
</g>
<!-- Node3&#45;&gt;Node18 -->
<g id="edge25" class="edge">
<title>Node3&#45;&gt;Node18</title>
<path fill="none" stroke="#63b8ff" d="M1153.74,-574.52C1270.83,-572.74 1564.81,-564.35 1807,-525 1923.4,-506.08 1956.59,-507.68 2064,-459 2107.26,-439.39 2151.79,-403.88 2171.09,-387.59"/>
<polygon fill="#63b8ff" stroke="#63b8ff" points="1153.57,-571.02 1143.62,-574.66 1153.67,-578.02 1153.57,-571.02"/>
</g>
<!-- Node25 -->
<g id="node25" class="node">
<title>Node25</title>
<g id="a_node25"><a xlink:href="network__tables_8h.html" target="_top" xlink:title=" ">
<polygon fill="white" stroke="#666666" points="1618,-525 1506,-525 1506,-495 1618,-495 1618,-525"/>
<text text-anchor="start" x="1514" y="-513" font-family="Helvetica,sans-Serif" font-size="10.00">src/service/network</text>
<text text-anchor="middle" x="1562" y="-502" font-family="Helvetica,sans-Serif" font-size="10.00">_tables.h</text>
</a>
</g>
</g>
<!-- Node3&#45;&gt;Node25 -->
<g id="edge40" class="edge">
<title>Node3&#45;&gt;Node25</title>
<path fill="none" stroke="#63b8ff" d="M1153.55,-567.83C1240.59,-555.72 1416.01,-531.31 1505.98,-518.79"/>
<polygon fill="#63b8ff" stroke="#63b8ff" points="1153.06,-564.36 1143.63,-569.21 1154.02,-571.3 1153.06,-564.36"/>
</g>
<!-- Node5 -->
<g id="node5" class="node">
<title>Node5</title>
<g id="a_node5"><a xlink:href="node__state_8h.html" target="_top" xlink:title=" ">
<polygon fill="white" stroke="#666666" points="1684,-189.5 1560,-189.5 1560,-170.5 1684,-170.5 1684,-189.5"/>
<text text-anchor="middle" x="1622" y="-177.5" font-family="Helvetica,sans-Serif" font-size="10.00">src/node/node_state.h</text>
</a>
</g>
</g>
<!-- Node4&#45;&gt;Node5 -->
<g id="edge4" class="edge">
<title>Node4&#45;&gt;Node5</title>
<path fill="none" stroke="#63b8ff" d="M567.96,-426.21C581.95,-409.38 598.15,-383.14 585,-363 563.24,-329.68 524.76,-360.32 503,-327 495.71,-315.84 494.87,-307.57 503,-297 572.51,-206.57 638.38,-249.03 751,-231 1051.24,-182.94 1416.21,-179.51 1559.76,-180.27"/>
<polygon fill="#63b8ff" stroke="#63b8ff" points="565.01,-424.26 561.02,-434.07 570.26,-428.89 565.01,-424.26"/>
</g>
<!-- Node6 -->
<g id="node6" class="node">
<title>Node6</title>
<g id="a_node6"><a xlink:href="src_2enclave_2enclave_8h.html" target="_top" xlink:title=" ">
<polygon fill="white" stroke="#666666" points="1683,-74 1561,-74 1561,-55 1683,-55 1683,-74"/>
<text text-anchor="middle" x="1622" y="-62" font-family="Helvetica,sans-Serif" font-size="10.00">src/enclave/enclave.h</text>
</a>
</g>
</g>
<!-- Node5&#45;&gt;Node6 -->
<g id="edge5" class="edge">
<title>Node5&#45;&gt;Node6</title>
<path fill="none" stroke="#63b8ff" d="M1606.92,-162.33C1596.4,-148.61 1585.19,-128.5 1591,-110 1595.4,-95.99 1605.95,-82.53 1613.52,-74.15"/>
<polygon fill="#63b8ff" stroke="#63b8ff" points="1604.48,-164.86 1613.55,-170.33 1609.87,-160.4 1604.48,-164.86"/>
</g>
<!-- Node8 -->
<g id="node8" class="node">
<title>Node8</title>
<g id="a_node8"><a xlink:href="gov__effects_8h.html" target="_top" xlink:title=" ">
<polygon fill="white" stroke="#666666" points="1744,-129 1600,-129 1600,-110 1744,-110 1744,-129"/>
<text text-anchor="middle" x="1672" y="-117" font-family="Helvetica,sans-Serif" font-size="10.00">src/node/rpc/gov_effects.h</text>
</a>
</g>
</g>
<!-- Node5&#45;&gt;Node8 -->
<g id="edge7" class="edge">
<title>Node5&#45;&gt;Node8</title>
<path fill="none" stroke="#63b8ff" d="M1636.14,-162.45C1645.4,-151.62 1657.12,-137.91 1664.59,-129.17"/>
<polygon fill="#63b8ff" stroke="#63b8ff" points="1633.21,-160.49 1629.38,-170.37 1638.54,-165.04 1633.21,-160.49"/>
</g>
<!-- Node7 -->
<g id="node7" class="node">
<title>Node7</title>
<g id="a_node7"><a xlink:href="enclave_2main_8cpp.html" target="_top" xlink:title=" ">
<polygon fill="white" stroke="#666666" points="1682,-19 1562,-19 1562,0 1682,0 1682,-19"/>
<text text-anchor="middle" x="1622" y="-7" font-family="Helvetica,sans-Serif" font-size="10.00">src/enclave/main.cpp</text>
</a>
</g>
</g>
<!-- Node6&#45;&gt;Node7 -->
<g id="edge6" class="edge">
<title>Node6&#45;&gt;Node7</title>
<path fill="none" stroke="#63b8ff" d="M1622,-44.66C1622,-35.93 1622,-25.99 1622,-19.09"/>
<polygon fill="#63b8ff" stroke="#63b8ff" points="1618.5,-44.75 1622,-54.75 1625.5,-44.75 1618.5,-44.75"/>
</g>
<!-- Node8&#45;&gt;Node6 -->
<g id="edge8" class="edge">
<title>Node8&#45;&gt;Node6</title>
<path fill="none" stroke="#63b8ff" d="M1656.66,-102.24C1647.9,-92.95 1637.26,-81.68 1630.1,-74.09"/>
<polygon fill="#63b8ff" stroke="#63b8ff" points="1654.34,-104.88 1663.74,-109.75 1659.43,-100.07 1654.34,-104.88"/>
</g>
<!-- Node10&#45;&gt;Node6 -->
<g id="edge11" class="edge">
<title>Node10&#45;&gt;Node6</title>
<path fill="none" stroke="#63b8ff" d="M72.85,-354.7C92.6,-330.13 120,-288.56 120,-247 120,-247 120,-247 120,-179 120,-105.49 1278.97,-73.55 1560.79,-66.87"/>
<polygon fill="#63b8ff" stroke="#63b8ff" points="69.94,-352.72 66.24,-362.65 75.32,-357.2 69.94,-352.72"/>
</g>
<!-- Node11 -->
<g id="node11" class="node">
<title>Node11</title>
<g id="a_node11"><a xlink:href="historical__transaction__fetcher_8h.html" target="_top" xlink:title=" ">
<polygon fill="white" stroke="#666666" points="581.5,-195 456.5,-195 456.5,-165 581.5,-165 581.5,-195"/>
<text text-anchor="start" x="464.5" y="-183" font-family="Helvetica,sans-Serif" font-size="10.00">src/indexing/historical</text>
<text text-anchor="middle" x="519" y="-172" font-family="Helvetica,sans-Serif" font-size="10.00">_transaction_fetcher.h</text>
</a>
</g>
</g>
<!-- Node10&#45;&gt;Node11 -->
<g id="edge12" class="edge">
<title>Node10&#45;&gt;Node11</title>
<path fill="none" stroke="#63b8ff" d="M92.41,-358.47C153.78,-329.86 276.12,-273.76 382,-231 414.05,-218.06 450.87,-204.7 478.26,-195.05"/>
<polygon fill="#63b8ff" stroke="#63b8ff" points="90.68,-355.42 83.1,-362.82 93.64,-361.76 90.68,-355.42"/>
</g>
<!-- Node11&#45;&gt;Node6 -->
<g id="edge13" class="edge">
<title>Node11&#45;&gt;Node6</title>
<path fill="none" stroke="#63b8ff" d="M548.55,-159.19C574.95,-142.68 615.31,-120.26 654,-110 826.27,-64.32 1376.45,-63.77 1560.99,-64.94"/>
<polygon fill="#63b8ff" stroke="#63b8ff" points="546.38,-156.43 539.83,-164.75 550.14,-162.33 546.38,-156.43"/>
</g>
<!-- Node12&#45;&gt;Node5 -->
<g id="edge16" class="edge">
<title>Node12&#45;&gt;Node5</title>
<path fill="none" stroke="#63b8ff" d="M396,-490.16C396,-464.87 396,-418.55 396,-379 396,-379 396,-379 396,-311 396,-238.95 467.78,-250.99 537,-231 635.11,-202.67 1344.08,-186.48 1559.86,-182.17"/>
<polygon fill="#63b8ff" stroke="#63b8ff" points="392.5,-490.48 396,-500.48 399.5,-490.48 392.5,-490.48"/>
</g>
<!-- Node12&#45;&gt;Node10 -->
<g id="edge15" class="edge">
<title>Node12&#45;&gt;Node10</title>
<path fill="none" stroke="#63b8ff" d="M359.69,-497.32C329.8,-487.54 286.43,-472.99 249,-459 190.99,-437.32 124.43,-409.52 85.71,-393.05"/>
<polygon fill="#63b8ff" stroke="#63b8ff" points="358.68,-500.67 369.28,-500.44 360.85,-494.02 358.68,-500.67"/>
</g>
<!-- Node13 -->
<g id="node13" class="node">
<title>Node13</title>
<g id="a_node13"><a xlink:href="snapshot__serdes_8h.html" target="_top" xlink:title=" ">
<polygon fill="white" stroke="#666666" points="576,-387.5 424,-387.5 424,-368.5 576,-368.5 576,-387.5"/>
<text text-anchor="middle" x="500" y="-375.5" font-family="Helvetica,sans-Serif" font-size="10.00">src/node/snapshot_serdes.h</text>
</a>
</g>
</g>
<!-- Node12&#45;&gt;Node13 -->
<g id="edge17" class="edge">
<title>Node12&#45;&gt;Node13</title>
<path fill="none" stroke="#63b8ff" d="M409.23,-492.46C431.54,-464.58 475.88,-409.15 493.01,-387.73"/>
<polygon fill="#63b8ff" stroke="#63b8ff" points="406.34,-490.48 402.82,-500.47 411.8,-494.85 406.34,-490.48"/>
</g>
<!-- Node15 -->
<g id="node15" class="node">
<title>Node15</title>
<g id="a_node15"><a xlink:href="tx__receipt__impl_8h.html" target="_top" xlink:title=" ">
<polygon fill="white" stroke="#666666" points="368,-459 258,-459 258,-429 368,-429 368,-459"/>
<text text-anchor="start" x="266" y="-447" font-family="Helvetica,sans-Serif" font-size="10.00">src/node/tx_receipt</text>
<text text-anchor="middle" x="313" y="-436" font-family="Helvetica,sans-Serif" font-size="10.00">_impl.h</text>
</a>
</g>
</g>
<!-- Node12&#45;&gt;Node15 -->
<g id="edge20" class="edge">
<title>Node12&#45;&gt;Node15</title>
<path fill="none" stroke="#63b8ff" d="M376.57,-494.02C362.9,-483.48 344.72,-469.46 331.31,-459.12"/>
<polygon fill="#63b8ff" stroke="#63b8ff" points="374.75,-497.03 384.81,-500.37 379.02,-491.49 374.75,-497.03"/>
</g>
<!-- Node13&#45;&gt;Node14 -->
<g id="edge18" class="edge">
<title>Node13&#45;&gt;Node14</title>
<path fill="none" stroke="#63b8ff" d="M518.19,-361.68C532.94,-349.26 553.22,-332.18 565.43,-321.91"/>
<polygon fill="#63b8ff" stroke="#63b8ff" points="515.64,-359.25 510.25,-368.37 520.15,-364.6 515.64,-359.25"/>
</g>
<!-- Node14&#45;&gt;Node5 -->
<g id="edge19" class="edge">
<title>Node14&#45;&gt;Node5</title>
<path fill="none" stroke="#63b8ff" d="M613.13,-299.44C672.32,-281.54 792,-247.45 896,-231 1139.65,-192.46 1433.96,-183.62 1559.92,-181.6"/>
<polygon fill="#63b8ff" stroke="#63b8ff" points="612.03,-296.12 603.48,-302.38 614.07,-302.82 612.03,-296.12"/>
</g>
<!-- Node15&#45;&gt;Node10 -->
<g id="edge21" class="edge">
<title>Node15&#45;&gt;Node10</title>
<path fill="none" stroke="#63b8ff" d="M247.9,-426.98C204.18,-416.21 147.3,-402.21 106.28,-392.12"/>
<polygon fill="#63b8ff" stroke="#63b8ff" points="247.31,-430.44 257.86,-429.43 248.99,-423.64 247.31,-430.44"/>
</g>
<!-- Node15&#45;&gt;Node13 -->
<g id="edge24" class="edge">
<title>Node15&#45;&gt;Node13</title>
<path fill="none" stroke="#63b8ff" d="M363.91,-425.58C400,-413.23 446.86,-397.19 475.11,-387.52"/>
<polygon fill="#63b8ff" stroke="#63b8ff" points="362.37,-422.41 354.04,-428.95 364.63,-429.03 362.37,-422.41"/>
</g>
<!-- Node16 -->
<g id="node16" class="node">
<title>Node16</title>
<g id="a_node16"><a xlink:href="historical__queries__adapter_8cpp.html" target="_top" xlink:title=" ">
<polygon fill="white" stroke="#666666" points="244,-393 124,-393 124,-363 244,-363 244,-393"/>
<text text-anchor="start" x="132" y="-381" font-family="Helvetica,sans-Serif" font-size="10.00">src/node/historical</text>
<text text-anchor="middle" x="184" y="-370" font-family="Helvetica,sans-Serif" font-size="10.00">_queries_adapter.cpp</text>
</a>
</g>
</g>
<!-- Node15&#45;&gt;Node16 -->
<g id="edge22" class="edge">
<title>Node15&#45;&gt;Node16</title>
<path fill="none" stroke="#63b8ff" d="M275.46,-424.38C255.28,-414.36 230.8,-402.22 212.24,-393.01"/>
<polygon fill="#63b8ff" stroke="#63b8ff" points="274.18,-427.65 284.69,-428.95 277.29,-421.38 274.18,-427.65"/>
</g>
<!-- Node17 -->
<g id="node17" class="node">
<title>Node17</title>
<g id="a_node17"><a xlink:href="historical__queries__utils_8cpp.html" target="_top" xlink:title=" ">
<polygon fill="white" stroke="#666666" points="368,-393 262,-393 262,-363 368,-363 368,-393"/>
<text text-anchor="start" x="270" y="-381" font-family="Helvetica,sans-Serif" font-size="10.00">src/node/historical</text>
<text text-anchor="middle" x="315" y="-370" font-family="Helvetica,sans-Serif" font-size="10.00">_queries_utils.cpp</text>
</a>
</g>
</g>
<!-- Node15&#45;&gt;Node17 -->
<g id="edge23" class="edge">
<title>Node15&#45;&gt;Node17</title>
<path fill="none" stroke="#63b8ff" d="M313.76,-418.54C314.03,-409.96 314.32,-400.61 314.56,-393.16"/>
<polygon fill="#63b8ff" stroke="#63b8ff" points="310.26,-418.69 313.44,-428.8 317.25,-418.91 310.26,-418.69"/>
</g>
<!-- Node18&#45;&gt;Node5 -->
<g id="edge30" class="edge">
<title>Node18&#45;&gt;Node5</title>
<path fill="none" stroke="#63b8ff" d="M2200.97,-361.58C2210.83,-352.67 2221.71,-340.56 2227,-327 2231.84,-314.58 2233.12,-308.85 2227,-297 2203.74,-251.97 2181.48,-248.73 2134,-231 2053.05,-200.78 1801.95,-187.68 1684.18,-183.08"/>
<polygon fill="#63b8ff" stroke="#63b8ff" points="2198.45,-359.13 2193.08,-368.26 2202.98,-364.47 2198.45,-359.13"/>
</g>
<!-- Node19 -->
<g id="node19" class="node">
<title>Node19</title>
<g id="a_node19"><a xlink:href="acme__challenge__frontend_8h.html" target="_top" xlink:title=" ">
<polygon fill="white" stroke="#666666" points="2218,-327 2078,-327 2078,-297 2218,-297 2218,-327"/>
<text text-anchor="start" x="2086" y="-315" font-family="Helvetica,sans-Serif" font-size="10.00">src/node/acme_challenge</text>
<text text-anchor="middle" x="2148" y="-304" font-family="Helvetica,sans-Serif" font-size="10.00">_frontend.h</text>
</a>
</g>
</g>
<!-- Node18&#45;&gt;Node19 -->
<g id="edge26" class="edge">
<title>Node18&#45;&gt;Node19</title>
<path fill="none" stroke="#63b8ff" d="M2171.87,-359.3C2166.69,-349.24 2160.28,-336.81 2155.4,-327.36"/>
<polygon fill="#63b8ff" stroke="#63b8ff" points="2168.86,-361.08 2176.55,-368.37 2175.08,-357.88 2168.86,-361.08"/>
</g>
<!-- Node21 -->
<g id="node21" class="node">
<title>Node21</title>
<g id="a_node21"><a xlink:href="member__frontend_8h.html" target="_top" xlink:title=" ">
<polygon fill="white" stroke="#666666" points="2022,-327 1902,-327 1902,-297 2022,-297 2022,-327"/>
<text text-anchor="start" x="1910" y="-315" font-family="Helvetica,sans-Serif" font-size="10.00">src/node/rpc/member</text>
<text text-anchor="middle" x="1962" y="-304" font-family="Helvetica,sans-Serif" font-size="10.00">_frontend.h</text>
</a>
</g>
</g>
<!-- Node18&#45;&gt;Node21 -->
<g id="edge31" class="edge">
<title>Node18&#45;&gt;Node21</title>
<path fill="none" stroke="#63b8ff" d="M2141.59,-365.48C2104.78,-354.73 2049.74,-338.64 2010.3,-327.12"/>
<polygon fill="#63b8ff" stroke="#63b8ff" points="2140.88,-368.92 2151.46,-368.37 2142.85,-362.2 2140.88,-368.92"/>
</g>
<!-- Node22 -->
<g id="node22" class="node">
<title>Node22</title>
<g id="a_node22"><a xlink:href="node__frontend_8h.html" target="_top" xlink:title=" ">
<polygon fill="white" stroke="#666666" points="1808,-321.5 1650,-321.5 1650,-302.5 1808,-302.5 1808,-321.5"/>
<text text-anchor="middle" x="1729" y="-309.5" font-family="Helvetica,sans-Serif" font-size="10.00">src/node/rpc/node_frontend.h</text>
</a>
</g>
</g>
<!-- Node18&#45;&gt;Node22 -->
<g id="edge33" class="edge">
<title>Node18&#45;&gt;Node22</title>
<path fill="none" stroke="#63b8ff" d="M2110.58,-367.03C2022.25,-354.52 1872.33,-333.29 1789.13,-321.51"/>
<polygon fill="#63b8ff" stroke="#63b8ff" points="2110.12,-370.5 2120.51,-368.44 2111.1,-363.57 2110.12,-370.5"/>
</g>
<!-- Node24 -->
<g id="node24" class="node">
<title>Node24</title>
<g id="a_node24"><a xlink:href="user__frontend_8h.html" target="_top" xlink:title=" ">
<polygon fill="white" stroke="#666666" points="2429.5,-321.5 2274.5,-321.5 2274.5,-302.5 2429.5,-302.5 2429.5,-321.5"/>
<text text-anchor="middle" x="2352" y="-309.5" font-family="Helvetica,sans-Serif" font-size="10.00">src/node/rpc/user_frontend.h</text>
</a>
</g>
</g>
<!-- Node18&#45;&gt;Node24 -->
<g id="edge37" class="edge">
<title>Node18&#45;&gt;Node24</title>
<path fill="none" stroke="#63b8ff" d="M2213.49,-364.84C2247.28,-352.2 2299.29,-332.73 2329.03,-321.6"/>
<polygon fill="#63b8ff" stroke="#63b8ff" points="2212.2,-361.59 2204.06,-368.37 2214.65,-368.14 2212.2,-361.59"/>
</g>
<!-- Node19&#45;&gt;Node6 -->
<g id="edge27" class="edge">
<title>Node19&#45;&gt;Node6</title>
<path fill="none" stroke="#63b8ff" d="M2149.8,-286.33C2149.73,-268.99 2146.78,-246.24 2134,-231 2019.81,-94.81 1792.57,-69.64 1683.38,-65.69"/>
<polygon fill="#63b8ff" stroke="#63b8ff" points="2146.28,-286.72 2149.5,-296.82 2153.28,-286.92 2146.28,-286.72"/>
</g>
<!-- Node20 -->
<g id="node20" class="node">
<title>Node20</title>
<g id="a_node20"><a xlink:href="ccf__acme__client_8h.html" target="_top" xlink:title=" ">
<polygon fill="white" stroke="#666666" points="2124.5,-255.5 1975.5,-255.5 1975.5,-236.5 2124.5,-236.5 2124.5,-255.5"/>
<text text-anchor="middle" x="2050" y="-243.5" font-family="Helvetica,sans-Serif" font-size="10.00">src/node/ccf_acme_client.h</text>
</a>
</g>
</g>
<!-- Node19&#45;&gt;Node20 -->
<g id="edge28" class="edge">
<title>Node19&#45;&gt;Node20</title>
<path fill="none" stroke="#63b8ff" d="M2117.68,-291.2C2099.44,-279.29 2077.15,-264.73 2063.26,-255.66"/>
<polygon fill="#63b8ff" stroke="#63b8ff" points="2115.96,-294.26 2126.25,-296.8 2119.79,-288.4 2115.96,-294.26"/>
</g>
<!-- Node20&#45;&gt;Node5 -->
<g id="edge29" class="edge">
<title>Node20&#45;&gt;Node5</title>
<path fill="none" stroke="#63b8ff" d="M1982.81,-234.95C1899.11,-222.44 1757.56,-201.27 1678.94,-189.51"/>
<polygon fill="#63b8ff" stroke="#63b8ff" points="1982.31,-238.42 1992.72,-236.44 1983.35,-231.49 1982.31,-238.42"/>
</g>
<!-- Node21&#45;&gt;Node6 -->
<g id="edge32" class="edge">
<title>Node21&#45;&gt;Node6</title>
<path fill="none" stroke="#63b8ff" d="M1947.24,-288.56C1918.75,-247.03 1852.09,-158.07 1774,-110 1744.26,-91.69 1706.62,-80.6 1676.24,-74.07"/>
<polygon fill="#63b8ff" stroke="#63b8ff" points="1944.38,-290.58 1952.88,-296.9 1950.17,-286.65 1944.38,-290.58"/>
</g>
<!-- Node22&#45;&gt;Node6 -->
<g id="edge34" class="edge">
<title>Node22&#45;&gt;Node6</title>
<path fill="none" stroke="#63b8ff" d="M1752.83,-296.75C1764.89,-288.09 1778.36,-275.84 1785,-261 1804.88,-216.6 1789.86,-149.49 1753,-110 1734.89,-90.6 1708.01,-79.65 1683.3,-73.48"/>
<polygon fill="#63b8ff" stroke="#63b8ff" points="1750.76,-293.92 1744.42,-302.4 1754.67,-299.73 1750.76,-293.92"/>
</g>
<!-- Node23 -->
<g id="node23" class="node">
<title>Node23</title>
<g id="a_node23"><a xlink:href="jwt__key__auto__refresh_8h.html" target="_top" xlink:title=" ">
<polygon fill="white" stroke="#666666" points="1775.5,-261 1650.5,-261 1650.5,-231 1775.5,-231 1775.5,-261"/>
<text text-anchor="start" x="1658.5" y="-249" font-family="Helvetica,sans-Serif" font-size="10.00">src/node/jwt_key_auto</text>
<text text-anchor="middle" x="1713" y="-238" font-family="Helvetica,sans-Serif" font-size="10.00">_refresh.h</text>
</a>
</g>
</g>
<!-- Node22&#45;&gt;Node23 -->
<g id="edge35" class="edge">
<title>Node22&#45;&gt;Node23</title>
<path fill="none" stroke="#63b8ff" d="M1724.34,-292.35C1721.87,-282.47 1718.88,-270.51 1716.59,-261.36"/>
<polygon fill="#63b8ff" stroke="#63b8ff" points="1721.02,-293.52 1726.84,-302.37 1727.81,-291.82 1721.02,-293.52"/>
</g>
<!-- Node23&#45;&gt;Node5 -->
<g id="edge36" class="edge">
<title>Node23&#45;&gt;Node5</title>
<path fill="none" stroke="#63b8ff" d="M1684.38,-224.87C1667.54,-213.03 1647.09,-198.65 1634.31,-189.66"/>
<polygon fill="#63b8ff" stroke="#63b8ff" points="1682.61,-227.91 1692.8,-230.8 1686.64,-222.18 1682.61,-227.91"/>
</g>
<!-- Node24&#45;&gt;Node6 -->
<g id="edge38" class="edge">
<title>Node24&#45;&gt;Node6</title>
<path fill="none" stroke="#63b8ff" d="M2332.35,-296.52C2279,-258.08 2125.62,-153.47 1980,-110 1878.73,-79.77 1755.41,-70.06 1683.12,-66.95"/>
<polygon fill="#63b8ff" stroke="#63b8ff" points="2330.44,-299.45 2340.59,-302.5 2334.55,-293.79 2330.44,-299.45"/>
</g>
<!-- Node25&#45;&gt;Node20 -->
<g id="edge41" class="edge">
<title>Node25&#45;&gt;Node20</title>
<path fill="none" stroke="#63b8ff" d="M1627.7,-495.06C1627.8,-495.04 1627.9,-495.02 1628,-495 1800.36,-463.07 1890.31,-522 2009,-393 2046.44,-352.31 2050.04,-280.13 2050.13,-255.51"/>
<polygon fill="#63b8ff" stroke="#63b8ff" points="1627.29,-491.57 1618.13,-496.89 1628.61,-498.44 1627.29,-491.57"/>
</g>
<!-- Node26 -->
<g id="node26" class="node">
<title>Node26</title>
<g id="a_node26"><a xlink:href="network__state_8h.html" target="_top" xlink:title=" ">
<polygon fill="white" stroke="#666666" points="1632,-453.5 1492,-453.5 1492,-434.5 1632,-434.5 1632,-453.5"/>
<text text-anchor="middle" x="1562" y="-441.5" font-family="Helvetica,sans-Serif" font-size="10.00">src/node/network_state.h</text>
</a>
</g>
</g>
<!-- Node25&#45;&gt;Node26 -->
<g id="edge42" class="edge">
<title>Node25&#45;&gt;Node26</title>
<path fill="none" stroke="#63b8ff" d="M1562,-484.6C1562,-473.8 1562,-461.78 1562,-453.84"/>
<polygon fill="#63b8ff" stroke="#63b8ff" points="1558.5,-484.8 1562,-494.8 1565.5,-484.8 1558.5,-484.8"/>
</g>
<!-- Node37 -->
<g id="node37" class="node">
<title>Node37</title>
<g id="a_node37"><a xlink:href="genesis__gen_8h.html" target="_top" xlink:title=" ">
<polygon fill="white" stroke="#666666" points="1846,-459 1736,-459 1736,-429 1846,-429 1846,-459"/>
<text text-anchor="start" x="1744" y="-447" font-family="Helvetica,sans-Serif" font-size="10.00">src/service/genesis</text>
<text text-anchor="middle" x="1791" y="-436" font-family="Helvetica,sans-Serif" font-size="10.00">_gen.h</text>
</a>
</g>
</g>
<!-- Node25&#45;&gt;Node37 -->
<g id="edge70" class="edge">
<title>Node25&#45;&gt;Node37</title>
<path fill="none" stroke="#63b8ff" d="M1621.92,-492.25C1658.92,-481.91 1705.84,-468.8 1740.86,-459.01"/>
<polygon fill="#63b8ff" stroke="#63b8ff" points="1620.94,-488.89 1612.26,-494.95 1622.83,-495.63 1620.94,-488.89"/>
</g>
<!-- Node26&#45;&gt;Node5 -->
<g id="edge61" class="edge">
<title>Node26&#45;&gt;Node5</title>
<path fill="none" stroke="#63b8ff" d="M1560.29,-423.68C1559.26,-407.4 1558.7,-383.52 1562,-363 1573.08,-294.02 1606.36,-215.74 1617.96,-189.84"/>
<polygon fill="#63b8ff" stroke="#63b8ff" points="1556.83,-424.34 1561.08,-434.05 1563.81,-423.81 1556.83,-424.34"/>
</g>
<!-- Node26&#45;&gt;Node6 -->
<g id="edge43" class="edge">
<title>Node26&#45;&gt;Node6</title>
<path fill="none" stroke="#63b8ff" d="M1481.77,-440.89C1295.21,-434.62 838.6,-410.87 714,-327 679.98,-304.1 668,-288.01 668,-247 668,-247 668,-247 668,-179 668,-163.54 615.72,-159.72 798,-110 941.66,-70.82 1395.33,-65.93 1560.82,-65.47"/>
<polygon fill="#63b8ff" stroke="#63b8ff" points="1481.68,-444.39 1491.79,-441.22 1481.91,-437.4 1481.68,-444.39"/>
</g>
<!-- Node26&#45;&gt;Node14 -->
<g id="edge69" class="edge">
<title>Node26&#45;&gt;Node14</title>
<path fill="none" stroke="#63b8ff" d="M1481.55,-443.37C1296.84,-443.41 847.28,-438.65 704,-393 703.9,-392.97 622.68,-342.19 589.69,-321.56"/>
<polygon fill="#63b8ff" stroke="#63b8ff" points="1481.74,-446.87 1491.74,-443.36 1481.74,-439.87 1481.74,-446.87"/>
</g>
<!-- Node26&#45;&gt;Node19 -->
<g id="edge60" class="edge">
<title>Node26&#45;&gt;Node19</title>
<path fill="none" stroke="#63b8ff" d="M1642.37,-435.25C1757.82,-423.88 1960.35,-402.96 1993,-393 2043.98,-377.45 2098.12,-345.47 2126.99,-327"/>
<polygon fill="#63b8ff" stroke="#63b8ff" points="1641.78,-431.79 1632.17,-436.26 1642.46,-438.76 1641.78,-431.79"/>
</g>
<!-- Node26&#45;&gt;Node22 -->
<g id="edge62" class="edge">
<title>Node26&#45;&gt;Node22</title>
<path fill="none" stroke="#63b8ff" d="M1561.81,-424.21C1562.64,-406.3 1566.66,-379.67 1582,-363 1602.45,-340.79 1633.14,-328.44 1661.2,-321.58"/>
<polygon fill="#63b8ff" stroke="#63b8ff" points="1558.31,-424.23 1561.63,-434.29 1565.31,-424.35 1558.31,-424.23"/>
</g>
<!-- Node26&#45;&gt;Node24 -->
<g id="edge63" class="edge">
<title>Node26&#45;&gt;Node24</title>
<path fill="none" stroke="#63b8ff" d="M1642.37,-435.91C1669.27,-433.61 1699.42,-431.11 1727,-429 1844.26,-420.03 2145.73,-436.5 2255,-393 2294.75,-377.18 2330.49,-338.69 2345.06,-321.52"/>
<polygon fill="#63b8ff" stroke="#63b8ff" points="1641.9,-432.44 1632.23,-436.78 1642.49,-439.41 1641.9,-432.44"/>
</g>
<!-- Node27 -->
<g id="node27" class="node">
<title>Node27</title>
<g id="a_node27"><a xlink:href="wrap_8h.html" target="_top" xlink:title=" ">
<polygon fill="white" stroke="#666666" points="1308,-387.5 1230,-387.5 1230,-368.5 1308,-368.5 1308,-387.5"/>
<text text-anchor="middle" x="1269" y="-375.5" font-family="Helvetica,sans-Serif" font-size="10.00">src/js/wrap.h</text>
</a>
</g>
</g>
<!-- Node26&#45;&gt;Node27 -->
<g id="edge44" class="edge">
<title>Node26&#45;&gt;Node27</title>
<path fill="none" stroke="#63b8ff" d="M1512.82,-432.26C1455.17,-419.67 1360.82,-399.06 1307.98,-387.51"/>
<polygon fill="#63b8ff" stroke="#63b8ff" points="1512.27,-435.72 1522.79,-434.44 1513.77,-428.88 1512.27,-435.72"/>
</g>
<!-- Node35 -->
<g id="node35" class="node">
<title>Node35</title>
<g id="a_node35"><a xlink:href="secret__broadcast_8h.html" target="_top" xlink:title=" ">
<polygon fill="white" stroke="#666666" points="1743.5,-387.5 1590.5,-387.5 1590.5,-368.5 1743.5,-368.5 1743.5,-387.5"/>
<text text-anchor="middle" x="1667" y="-375.5" font-family="Helvetica,sans-Serif" font-size="10.00">src/node/secret_broadcast.h</text>
</a>
</g>
</g>
<!-- Node26&#45;&gt;Node35 -->
<g id="edge64" class="edge">
<title>Node26&#45;&gt;Node35</title>
<path fill="none" stroke="#63b8ff" d="M1584.94,-429.02C1605.59,-416.43 1635.3,-398.32 1652.73,-387.7"/>
<polygon fill="#63b8ff" stroke="#63b8ff" points="1582.88,-426.18 1576.16,-434.37 1586.52,-432.15 1582.88,-426.18"/>
</g>
<!-- Node36 -->
<g id="node36" class="node">
<title>Node36</title>
<g id="a_node36"><a xlink:href="share__manager_8h.html" target="_top" xlink:title=" ">
<polygon fill="white" stroke="#666666" points="1983.5,-387.5 1838.5,-387.5 1838.5,-368.5 1983.5,-368.5 1983.5,-387.5"/>
<text text-anchor="middle" x="1911" y="-375.5" font-family="Helvetica,sans-Serif" font-size="10.00">src/node/share_manager.h</text>
</a>
</g>
</g>
<!-- Node26&#45;&gt;Node36 -->
<g id="edge66" class="edge">
<title>Node26&#45;&gt;Node36</title>
<path fill="none" stroke="#63b8ff" d="M1618.88,-432.57C1687.38,-420.01 1801.11,-399.15 1864.57,-387.51"/>
<polygon fill="#63b8ff" stroke="#63b8ff" points="1617.91,-429.19 1608.71,-434.44 1619.17,-436.07 1617.91,-429.19"/>
</g>
<!-- Node27&#45;&gt;Node5 -->
<g id="edge57" class="edge">
<title>Node27&#45;&gt;Node5</title>
<path fill="none" stroke="#63b8ff" d="M1318.21,-372.85C1383.8,-366.43 1495.32,-352.13 1527,-327 1563.63,-297.95 1543.1,-269.24 1570,-231 1581.67,-214.41 1599.4,-198.79 1610.84,-189.56"/>
<polygon fill="#63b8ff" stroke="#63b8ff" points="1317.72,-369.38 1308.1,-373.81 1318.38,-376.35 1317.72,-369.38"/>
</g>
<!-- Node27&#45;&gt;Node6 -->
<g id="edge46" class="edge">
<title>Node27&#45;&gt;Node6</title>
<path fill="none" stroke="#63b8ff" d="M1219.64,-374.86C1097.59,-369.19 788.71,-352.47 750,-327 716.1,-304.69 706,-287.58 706,-247 706,-247 706,-247 706,-179 706,-92.62 1355.85,-71.23 1560.83,-66.63"/>
<polygon fill="#63b8ff" stroke="#63b8ff" points="1219.67,-378.36 1229.82,-375.32 1219.99,-371.37 1219.67,-378.36"/>
</g>
<!-- Node27&#45;&gt;Node21 -->
<g id="edge58" class="edge">
<title>Node27&#45;&gt;Node21</title>
<path fill="none" stroke="#63b8ff" d="M1318.2,-372.6C1414.16,-363.99 1633,-344.28 1817,-327 1844.82,-324.39 1875.64,-321.42 1901.69,-318.89"/>
<polygon fill="#63b8ff" stroke="#63b8ff" points="1317.86,-369.11 1308.21,-373.49 1318.48,-376.09 1317.86,-369.11"/>
</g>
<!-- Node27&#45;&gt;Node22 -->
<g id="edge59" class="edge">
<title>Node27&#45;&gt;Node22</title>
<path fill="none" stroke="#63b8ff" d="M1318.33,-370.14C1402.92,-358.37 1575.41,-334.37 1667.63,-321.54"/>
<polygon fill="#63b8ff" stroke="#63b8ff" points="1317.64,-366.7 1308.22,-371.54 1318.61,-373.63 1317.64,-366.7"/>
</g>
<!-- Node28 -->
<g id="node28" class="node">
<title>Node28</title>
<g id="a_node28"><a xlink:href="js__generic__base_8cpp.html" target="_top" xlink:title=" ">
<polygon fill="white" stroke="#666666" points="1390,-327 1272,-327 1272,-297 1390,-297 1390,-327"/>
<text text-anchor="start" x="1280" y="-315" font-family="Helvetica,sans-Serif" font-size="10.00">src/apps/js_generic</text>
<text text-anchor="middle" x="1331" y="-304" font-family="Helvetica,sans-Serif" font-size="10.00">/js_generic_base.cpp</text>
</a>
</g>
</g>
<!-- Node27&#45;&gt;Node28 -->
<g id="edge45" class="edge">
<title>Node27&#45;&gt;Node28</title>
<path fill="none" stroke="#63b8ff" d="M1284.35,-361.16C1294.38,-350.81 1307.36,-337.4 1317.09,-327.36"/>
<polygon fill="#63b8ff" stroke="#63b8ff" points="1281.81,-358.75 1277.36,-368.37 1286.83,-363.62 1281.81,-358.75"/>
</g>
<!-- Node29 -->
<g id="node29" class="node">
<title>Node29</title>
<g id="a_node29"><a xlink:href="consensus_8cpp.html" target="_top" xlink:title=" ">
<polygon fill="white" stroke="#666666" points="888,-321.5 772,-321.5 772,-302.5 888,-302.5 888,-321.5"/>
<text text-anchor="middle" x="830" y="-309.5" font-family="Helvetica,sans-Serif" font-size="10.00">src/js/consensus.cpp</text>
</a>
</g>
</g>
<!-- Node27&#45;&gt;Node29 -->
<g id="edge47" class="edge">
<title>Node27&#45;&gt;Node29</title>
<path fill="none" stroke="#63b8ff" d="M1219.71,-371.53C1148.32,-363.34 1012.09,-346.73 897,-327 887.75,-325.41 877.82,-323.47 868.53,-321.55"/>
<polygon fill="#63b8ff" stroke="#63b8ff" points="1219.43,-375.02 1229.76,-372.67 1220.22,-368.06 1219.43,-375.02"/>
</g>
<!-- Node30 -->
<g id="node30" class="node">
<title>Node30</title>
<g id="a_node30"><a xlink:href="wrap_8cpp.html" target="_top" xlink:title=" ">
<polygon fill="white" stroke="#666666" points="994.5,-255.5 905.5,-255.5 905.5,-236.5 994.5,-236.5 994.5,-255.5"/>
<text text-anchor="middle" x="950" y="-243.5" font-family="Helvetica,sans-Serif" font-size="10.00">src/js/wrap.cpp</text>
</a>
</g>
</g>
<!-- Node27&#45;&gt;Node30 -->
<g id="edge56" class="edge">
<title>Node27&#45;&gt;Node30</title>
<path fill="none" stroke="#63b8ff" d="M1219.55,-375.81C1098.2,-372.37 793.31,-360.45 763,-327 719.02,-278.46 836.96,-258.26 905.26,-250.82"/>
<polygon fill="#63b8ff" stroke="#63b8ff" points="1219.59,-379.31 1229.69,-376.09 1219.79,-372.31 1219.59,-379.31"/>
</g>
<!-- Node31 -->
<g id="node31" class="node">
<title>Node31</title>
<g id="a_node31"><a xlink:href="conv_8cpp.html" target="_top" xlink:title=" ">
<polygon fill="white" stroke="#666666" points="994,-321.5 906,-321.5 906,-302.5 994,-302.5 994,-321.5"/>
<text text-anchor="middle" x="950" y="-309.5" font-family="Helvetica,sans-Serif" font-size="10.00">src/js/conv.cpp</text>
</a>
</g>
</g>
<!-- Node27&#45;&gt;Node31 -->
<g id="edge49" class="edge">
<title>Node27&#45;&gt;Node31</title>
<path fill="none" stroke="#63b8ff" d="M1219.69,-368.83C1166.13,-359.7 1078.14,-343.96 1003,-327 995.76,-325.37 988.01,-323.43 980.74,-321.52"/>
<polygon fill="#63b8ff" stroke="#63b8ff" points="1219.16,-372.29 1229.61,-370.51 1220.33,-365.39 1219.16,-372.29"/>
</g>
<!-- Node32 -->
<g id="node32" class="node">
<title>Node32</title>
<g id="a_node32"><a xlink:href="crypto_8cpp.html" target="_top" xlink:title=" ">
<polygon fill="white" stroke="#666666" points="1254,-321.5 1158,-321.5 1158,-302.5 1254,-302.5 1254,-321.5"/>
<text text-anchor="middle" x="1206" y="-309.5" font-family="Helvetica,sans-Serif" font-size="10.00">src/js/crypto.cpp</text>
</a>
</g>
</g>
<!-- Node27&#45;&gt;Node32 -->
<g id="edge51" class="edge">
<title>Node27&#45;&gt;Node32</title>
<path fill="none" stroke="#63b8ff" d="M1253.23,-360.98C1241.06,-348.62 1224.69,-331.99 1214.77,-321.91"/>
<polygon fill="#63b8ff" stroke="#63b8ff" points="1250.99,-363.7 1260.5,-368.37 1255.98,-358.79 1250.99,-363.7"/>
</g>
<!-- Node33 -->
<g id="node33" class="node">
<title>Node33</title>
<g id="a_node33"><a xlink:href="historical_8cpp.html" target="_top" xlink:title=" ">
<polygon fill="white" stroke="#666666" points="1518,-321.5 1408,-321.5 1408,-302.5 1518,-302.5 1518,-321.5"/>
<text text-anchor="middle" x="1463" y="-309.5" font-family="Helvetica,sans-Serif" font-size="10.00">src/js/historical.cpp</text>
</a>
</g>
</g>
<!-- Node27&#45;&gt;Node33 -->
<g id="edge53" class="edge">
<title>Node27&#45;&gt;Node33</title>
<path fill="none" stroke="#63b8ff" d="M1304.88,-365.16C1343.17,-352.53 1402.91,-332.82 1436.94,-321.6"/>
<polygon fill="#63b8ff" stroke="#63b8ff" points="1303.56,-361.91 1295.16,-368.37 1305.76,-368.56 1303.56,-361.91"/>
</g>
<!-- Node34 -->
<g id="node34" class="node">
<title>Node34</title>
<g id="a_node34"><a xlink:href="openenclave_8cpp.html" target="_top" xlink:title=" ">
<polygon fill="white" stroke="#666666" points="1140,-321.5 1012,-321.5 1012,-302.5 1140,-302.5 1140,-321.5"/>
<text text-anchor="middle" x="1076" y="-309.5" font-family="Helvetica,sans-Serif" font-size="10.00">src/js/openenclave.cpp</text>
</a>
</g>
</g>
<!-- Node27&#45;&gt;Node34 -->
<g id="edge55" class="edge">
<title>Node27&#45;&gt;Node34</title>
<path fill="none" stroke="#63b8ff" d="M1233.3,-365.16C1195.21,-352.53 1135.78,-332.82 1101.92,-321.6"/>
<polygon fill="#63b8ff" stroke="#63b8ff" points="1232.38,-368.54 1242.97,-368.37 1234.58,-361.9 1232.38,-368.54"/>
</g>
<!-- Node29&#45;&gt;Node30 -->
<g id="edge48" class="edge">
<title>Node29&#45;&gt;Node30</title>
<path fill="none" stroke="#63b8ff" d="M855.26,-297.53C878.9,-284.92 913.5,-266.47 933.69,-255.7"/>
<polygon fill="#63b8ff" stroke="#63b8ff" points="853.36,-294.57 846.18,-302.37 856.65,-300.75 853.36,-294.57"/>
</g>
<!-- Node31&#45;&gt;Node30 -->
<g id="edge50" class="edge">
<title>Node31&#45;&gt;Node30</title>
<path fill="none" stroke="#63b8ff" d="M950,-292.08C950,-280.13 950,-265.22 950,-255.91"/>
<polygon fill="#63b8ff" stroke="#63b8ff" points="946.5,-292.37 950,-302.37 953.5,-292.37 946.5,-292.37"/>
</g>
<!-- Node32&#45;&gt;Node30 -->
<g id="edge52" class="edge">
<title>Node32&#45;&gt;Node30</title>
<path fill="none" stroke="#63b8ff" d="M1161.77,-299.94C1111.3,-287.32 1029.84,-266.96 984.06,-255.51"/>
<polygon fill="#63b8ff" stroke="#63b8ff" points="1161.19,-303.41 1171.74,-302.44 1162.89,-296.61 1161.19,-303.41"/>
</g>
<!-- Node33&#45;&gt;Node30 -->
<g id="edge54" class="edge">
<title>Node33&#45;&gt;Node30</title>
<path fill="none" stroke="#63b8ff" d="M1417.15,-300.37C1411.07,-299.13 1404.9,-297.97 1399,-297 1251.76,-272.77 1075.39,-256.94 994.5,-250.4"/>
<polygon fill="#63b8ff" stroke="#63b8ff" points="1416.74,-303.86 1427.25,-302.49 1418.18,-297.01 1416.74,-303.86"/>
</g>
<!-- Node35&#45;&gt;Node5 -->
<g id="edge65" class="edge">
<title>Node35&#45;&gt;Node5</title>
<path fill="none" stroke="#63b8ff" d="M1655.99,-359.54C1650.62,-350.22 1644.57,-338.36 1641,-327 1625.21,-276.77 1622.53,-212.84 1622.08,-189.78"/>
<polygon fill="#63b8ff" stroke="#63b8ff" points="1653.05,-361.44 1661.2,-368.2 1659.05,-357.83 1653.05,-361.44"/>
</g>
<!-- Node36&#45;&gt;Node5 -->
<g id="edge67" class="edge">
<title>Node36&#45;&gt;Node5</title>
<path fill="none" stroke="#63b8ff" d="M1904.63,-358.95C1892.69,-327.84 1863.94,-264.27 1818,-231 1779.03,-202.78 1725.64,-190.45 1684.42,-185.08"/>
<polygon fill="#63b8ff" stroke="#63b8ff" points="1901.41,-360.33 1908.15,-368.5 1907.97,-357.91 1901.41,-360.33"/>
</g>
<!-- Node36&#45;&gt;Node21 -->
<g id="edge68" class="edge">
<title>Node36&#45;&gt;Node21</title>
<path fill="none" stroke="#63b8ff" d="M1924.11,-360.54C1932.29,-350.28 1942.71,-337.2 1950.56,-327.36"/>
<polygon fill="#63b8ff" stroke="#63b8ff" points="1921.37,-358.37 1917.88,-368.37 1926.85,-362.73 1921.37,-358.37"/>
</g>
<!-- Node37&#45;&gt;Node5 -->
<g id="edge71" class="edge">
<title>Node37&#45;&gt;Node5</title>
<path fill="none" stroke="#63b8ff" d="M1799.79,-419.5C1814.86,-374.69 1839.08,-277.34 1785,-231 1756.9,-206.92 1717.38,-194.44 1684.29,-187.97"/>
<polygon fill="#63b8ff" stroke="#63b8ff" points="1796.48,-418.38 1796.48,-428.97 1803.09,-420.69 1796.48,-418.38"/>
</g>
<!-- Node37&#45;&gt;Node21 -->
<g id="edge72" class="edge">
<title>Node37&#45;&gt;Node21</title>
<path fill="none" stroke="#63b8ff" d="M1856.32,-435.54C1908.71,-428.06 1976.16,-414.52 1993,-393 2008.61,-373.06 1989.82,-344.32 1975.43,-327.27"/>
<polygon fill="#63b8ff" stroke="#63b8ff" points="1855.83,-432.08 1846.4,-436.92 1856.79,-439.01 1855.83,-432.08"/>
</g>
<!-- Node37&#45;&gt;Node22 -->
<g id="edge73" class="edge">
<title>Node37&#45;&gt;Node22</title>
<path fill="none" stroke="#63b8ff" d="M1779.96,-419.7C1772.39,-403.73 1762.11,-382.07 1753,-363 1746.11,-348.58 1738.07,-331.83 1733.26,-321.85"/>
<polygon fill="#63b8ff" stroke="#63b8ff" points="1776.84,-421.29 1784.29,-428.83 1783.17,-418.29 1776.84,-421.29"/>
</g>
<!-- Node37&#45;&gt;Node35 -->
<g id="edge74" class="edge">
<title>Node37&#45;&gt;Node35</title>
<path fill="none" stroke="#63b8ff" d="M1754.76,-424.3C1731.2,-412.14 1701.6,-396.86 1683.5,-387.52"/>
<polygon fill="#63b8ff" stroke="#63b8ff" points="1753.3,-427.48 1763.79,-428.95 1756.51,-421.26 1753.3,-427.48"/>
</g>
<!-- Node37&#45;&gt;Node36 -->
<g id="edge75" class="edge">
<title>Node37&#45;&gt;Node36</title>
<path fill="none" stroke="#63b8ff" d="M1826.37,-424.14C1849.12,-412 1877.59,-396.82 1895.03,-387.52"/>
<polygon fill="#63b8ff" stroke="#63b8ff" points="1824.51,-421.16 1817.33,-428.95 1827.81,-427.34 1824.51,-421.16"/>
</g>
<!-- Node38&#45;&gt;Node18 -->
<g id="edge79" class="edge">
<title>Node38&#45;&gt;Node18</title>
<path fill="none" stroke="#63b8ff" d="M2168.29,-616.82C2171.29,-560.66 2178.62,-423.5 2180.54,-387.68"/>
<polygon fill="#63b8ff" stroke="#63b8ff" points="2164.79,-616.74 2167.75,-626.91 2171.78,-617.11 2164.79,-616.74"/>
</g>
<!-- Node39 -->
<g id="node39" class="node">
<title>Node39</title>
<g id="a_node39"><a xlink:href="external__executor_8cpp.html" target="_top" xlink:title=" ">
<polygon fill="white" stroke="#666666" points="2343,-591 2195,-591 2195,-561 2343,-561 2343,-591"/>
<text text-anchor="start" x="2203" y="-579" font-family="Helvetica,sans-Serif" font-size="10.00">src/apps/external_executor</text>
<text text-anchor="middle" x="2269" y="-568" font-family="Helvetica,sans-Serif" font-size="10.00">/external_executor.cpp</text>
</a>
</g>
</g>
<!-- Node38&#45;&gt;Node39 -->
<g id="edge78" class="edge">
<title>Node38&#45;&gt;Node39</title>
<path fill="none" stroke="#63b8ff" d="M2198.21,-621.42C2213.86,-611.6 2232.46,-599.93 2246.67,-591.01"/>
<polygon fill="#63b8ff" stroke="#63b8ff" points="2195.99,-618.68 2189.38,-626.95 2199.72,-624.6 2195.99,-618.68"/>
</g>
</g>
</svg>
