<?xml version="1.0" encoding="UTF-8" standalone="no"?>
<!DOCTYPE svg PUBLIC "-//W3C//DTD SVG 1.1//EN"
 "http://www.w3.org/Graphics/SVG/1.1/DTD/svg11.dtd">
<!-- Generated by graphviz version 2.43.0 (0)
 -->
<!-- Title: src/ds/dl_list.h Pages: 1 -->
<svg width="2480pt" height="698pt"
 viewBox="0.00 0.00 2480.26 698.00" xmlns="http://www.w3.org/2000/svg" xmlns:xlink="http://www.w3.org/1999/xlink">
<g id="graph0" class="graph" transform="scale(1 1) rotate(0) translate(4 694)">
<title>src/ds/dl_list.h</title>
<!-- Node1 -->
<g id="node1" class="node">
<title>Node1</title>
<g id="a_node1"><a xlink:title=" ">
<polygon fill="#999999" stroke="#666666" points="1916.26,-690 1830.26,-690 1830.26,-671 1916.26,-671 1916.26,-690"/>
<text text-anchor="middle" x="1873.26" y="-678" font-family="Helvetica,sans-Serif" font-size="10.00">src/ds/dl_list.h</text>
</a>
</g>
</g>
<!-- Node2 -->
<g id="node2" class="node">
<title>Node2</title>
<g id="a_node2"><a xlink:href="untyped__map_8h.html" target="_top" xlink:title=" ">
<polygon fill="white" stroke="#666666" points="1369.76,-635 1244.76,-635 1244.76,-616 1369.76,-616 1369.76,-635"/>
<text text-anchor="middle" x="1307.26" y="-623" font-family="Helvetica,sans-Serif" font-size="10.00">src/kv/untyped_map.h</text>
</a>
</g>
</g>
<!-- Node1&#45;&gt;Node2 -->
<g id="edge1" class="edge">
<title>Node1&#45;&gt;Node2</title>
<path fill="none" stroke="#63b8ff" d="M1820.22,-674.53C1715.4,-664.72 1482.17,-642.88 1369.95,-632.37"/>
<polygon fill="#63b8ff" stroke="#63b8ff" points="1819.97,-678.03 1830.26,-675.47 1820.62,-671.06 1819.97,-678.03"/>
</g>
<!-- Node14 -->
<g id="node14" class="node">
<title>Node14</title>
<g id="a_node14"><a xlink:href="history_8h.html" target="_top" xlink:title=" ">
<polygon fill="white" stroke="#666666" points="2029.26,-519.5 1927.26,-519.5 1927.26,-500.5 2029.26,-500.5 2029.26,-519.5"/>
<text text-anchor="middle" x="1978.26" y="-507.5" font-family="Helvetica,sans-Serif" font-size="10.00">src/node/history.h</text>
</a>
</g>
</g>
<!-- Node1&#45;&gt;Node14 -->
<g id="edge79" class="edge">
<title>Node1&#45;&gt;Node14</title>
<path fill="none" stroke="#63b8ff" d="M1877.2,-660.76C1880.4,-647.71 1885.65,-630.18 1893.26,-616 1914.68,-576.12 1952.11,-536.69 1969.24,-519.7"/>
<polygon fill="#63b8ff" stroke="#63b8ff" points="1873.7,-660.35 1874.9,-670.88 1880.53,-661.9 1873.7,-660.35"/>
</g>
<!-- Node39 -->
<g id="node39" class="node">
<title>Node39</title>
<g id="a_node39"><a xlink:href="request__tracker_8h.html" target="_top" xlink:title=" ">
<polygon fill="white" stroke="#666666" points="2046.76,-635 1901.76,-635 1901.76,-616 2046.76,-616 2046.76,-635"/>
<text text-anchor="middle" x="1974.26" y="-623" font-family="Helvetica,sans-Serif" font-size="10.00">src/node/request_tracker.h</text>
</a>
</g>
</g>
<!-- Node1&#45;&gt;Node39 -->
<g id="edge80" class="edge">
<title>Node1&#45;&gt;Node39</title>
<path fill="none" stroke="#63b8ff" d="M1898.54,-666.23C1917.07,-656.51 1941.68,-643.6 1957.74,-635.17"/>
<polygon fill="#63b8ff" stroke="#63b8ff" points="1896.72,-663.24 1889.49,-670.98 1899.97,-669.44 1896.72,-663.24"/>
</g>
<!-- Node3 -->
<g id="node3" class="node">
<title>Node3</title>
<g id="a_node3"><a xlink:href="js__generic__base_8cpp.html" target="_top" xlink:title=" ">
<polygon fill="white" stroke="#666666" points="732.26,-327 614.26,-327 614.26,-297 732.26,-297 732.26,-327"/>
<text text-anchor="start" x="622.26" y="-315" font-family="Helvetica,sans-Serif" font-size="10.00">src/apps/js_generic</text>
<text text-anchor="middle" x="673.26" y="-304" font-family="Helvetica,sans-Serif" font-size="10.00">/js_generic_base.cpp</text>
</a>
</g>
</g>
<!-- Node2&#45;&gt;Node3 -->
<g id="edge2" class="edge">
<title>Node2&#45;&gt;Node3</title>
<path fill="none" stroke="#63b8ff" d="M1234.28,-616.07C1130.65,-602.04 953.26,-569.48 953.26,-511 953.26,-511 953.26,-511 953.26,-443 953.26,-394.23 811.74,-349.1 729.92,-327.08"/>
<polygon fill="#63b8ff" stroke="#63b8ff" points="1234.01,-619.57 1244.38,-617.41 1234.93,-612.63 1234.01,-619.57"/>
</g>
<!-- Node4 -->
<g id="node4" class="node">
<title>Node4</title>
<g id="a_node4"><a xlink:href="wrap_8cpp.html" target="_top" xlink:title=" ">
<polygon fill="white" stroke="#666666" points="986.76,-255.5 897.76,-255.5 897.76,-236.5 986.76,-236.5 986.76,-255.5"/>
<text text-anchor="middle" x="942.26" y="-243.5" font-family="Helvetica,sans-Serif" font-size="10.00">src/js/wrap.cpp</text>
</a>
</g>
</g>
<!-- Node2&#45;&gt;Node4 -->
<g id="edge3" class="edge">
<title>Node2&#45;&gt;Node4</title>
<path fill="none" stroke="#63b8ff" d="M1234.51,-622.02C959.96,-612.17 2.26,-573.34 2.26,-511 2.26,-511 2.26,-511 2.26,-377 2.26,-340.46 -6.78,-320.43 21.26,-297 38.27,-282.79 715.34,-255.74 897.52,-248.71"/>
<polygon fill="#63b8ff" stroke="#63b8ff" points="1234.64,-625.52 1244.76,-622.38 1234.89,-618.53 1234.64,-625.52"/>
</g>
<!-- Node5 -->
<g id="node5" class="node">
<title>Node5</title>
<g id="a_node5"><a xlink:href="store_8h.html" target="_top" xlink:title=" ">
<polygon fill="white" stroke="#666666" points="1711.76,-580 1628.76,-580 1628.76,-561 1711.76,-561 1711.76,-580"/>
<text text-anchor="middle" x="1670.26" y="-568" font-family="Helvetica,sans-Serif" font-size="10.00">src/kv/store.h</text>
</a>
</g>
</g>
<!-- Node2&#45;&gt;Node5 -->
<g id="edge4" class="edge">
<title>Node2&#45;&gt;Node5</title>
<path fill="none" stroke="#63b8ff" d="M1375.81,-614.49C1450.33,-603.61 1567.03,-586.57 1628.75,-577.56"/>
<polygon fill="#63b8ff" stroke="#63b8ff" points="1374.97,-611.08 1365.58,-615.98 1375.98,-618 1374.97,-611.08"/>
</g>
<!-- Node38 -->
<g id="node38" class="node">
<title>Node38</title>
<g id="a_node38"><a xlink:href="tx_8cpp.html" target="_top" xlink:title=" ">
<polygon fill="white" stroke="#666666" points="1346.76,-580 1267.76,-580 1267.76,-561 1346.76,-561 1346.76,-580"/>
<text text-anchor="middle" x="1307.26" y="-568" font-family="Helvetica,sans-Serif" font-size="10.00">src/kv/tx.cpp</text>
</a>
</g>
</g>
<!-- Node2&#45;&gt;Node38 -->
<g id="edge78" class="edge">
<title>Node2&#45;&gt;Node38</title>
<path fill="none" stroke="#63b8ff" d="M1307.26,-605.66C1307.26,-596.93 1307.26,-586.99 1307.26,-580.09"/>
<polygon fill="#63b8ff" stroke="#63b8ff" points="1303.76,-605.75 1307.26,-615.75 1310.76,-605.75 1303.76,-605.75"/>
</g>
<!-- Node6 -->
<g id="node6" class="node">
<title>Node6</title>
<g id="a_node6"><a xlink:href="indexer_8h.html" target="_top" xlink:title=" ">
<polygon fill="white" stroke="#666666" points="1823.76,-453.5 1700.76,-453.5 1700.76,-434.5 1823.76,-434.5 1823.76,-453.5"/>
<text text-anchor="middle" x="1762.26" y="-441.5" font-family="Helvetica,sans-Serif" font-size="10.00">src/indexing/indexer.h</text>
</a>
</g>
</g>
<!-- Node5&#45;&gt;Node6 -->
<g id="edge5" class="edge">
<title>Node5&#45;&gt;Node6</title>
<path fill="none" stroke="#63b8ff" d="M1682.54,-552.89C1702.37,-526.05 1740.75,-474.11 1755.89,-453.62"/>
<polygon fill="#63b8ff" stroke="#63b8ff" points="1679.71,-550.82 1676.59,-560.94 1685.34,-554.98 1679.71,-550.82"/>
</g>
<!-- Node11 -->
<g id="node11" class="node">
<title>Node11</title>
<g id="a_node11"><a xlink:href="visit__each__entry__in__map_8cpp.html" target="_top" xlink:title=" ">
<polygon fill="white" stroke="#666666" points="1536.76,-525 1375.76,-525 1375.76,-495 1536.76,-495 1536.76,-525"/>
<text text-anchor="start" x="1383.76" y="-513" font-family="Helvetica,sans-Serif" font-size="10.00">src/indexing/strategies</text>
<text text-anchor="middle" x="1456.26" y="-502" font-family="Helvetica,sans-Serif" font-size="10.00">/visit_each_entry_in_map.cpp</text>
</a>
</g>
</g>
<!-- Node5&#45;&gt;Node11 -->
<g id="edge11" class="edge">
<title>Node5&#45;&gt;Node11</title>
<path fill="none" stroke="#63b8ff" d="M1629.37,-558.32C1594.77,-548.86 1545.01,-535.26 1507.71,-525.06"/>
<polygon fill="#63b8ff" stroke="#63b8ff" points="1628.58,-561.73 1639.14,-560.99 1630.42,-554.98 1628.58,-561.73"/>
</g>
<!-- Node12 -->
<g id="node12" class="node">
<title>Node12</title>
<g id="a_node12"><a xlink:href="historical__queries_8h.html" target="_top" xlink:title=" ">
<polygon fill="white" stroke="#666666" points="2472.26,-393 2366.26,-393 2366.26,-363 2472.26,-363 2472.26,-393"/>
<text text-anchor="start" x="2374.26" y="-381" font-family="Helvetica,sans-Serif" font-size="10.00">src/node/historical</text>
<text text-anchor="middle" x="2419.26" y="-370" font-family="Helvetica,sans-Serif" font-size="10.00">_queries.h</text>
</a>
</g>
</g>
<!-- Node5&#45;&gt;Node12 -->
<g id="edge12" class="edge">
<title>Node5&#45;&gt;Node12</title>
<path fill="none" stroke="#63b8ff" d="M1722.1,-567.65C1830.3,-562.21 2086.4,-540.97 2282.26,-459 2325.96,-440.71 2372.78,-410.88 2398.81,-393.28"/>
<polygon fill="#63b8ff" stroke="#63b8ff" points="1721.92,-564.16 1712.1,-568.13 1722.25,-571.15 1721.92,-564.16"/>
</g>
<!-- Node5&#45;&gt;Node14 -->
<g id="edge16" class="edge">
<title>Node5&#45;&gt;Node14</title>
<path fill="none" stroke="#63b8ff" d="M1721.68,-559.73C1780.87,-548.49 1877.12,-530.21 1933.39,-519.52"/>
<polygon fill="#63b8ff" stroke="#63b8ff" points="1720.97,-556.31 1711.8,-561.61 1722.28,-563.18 1720.97,-556.31"/>
</g>
<!-- Node16 -->
<g id="node16" class="node">
<title>Node16</title>
<g id="a_node16"><a xlink:href="snapshotter_8h.html" target="_top" xlink:title=" ">
<polygon fill="white" stroke="#666666" points="1947.76,-321.5 1820.76,-321.5 1820.76,-302.5 1947.76,-302.5 1947.76,-321.5"/>
<text text-anchor="middle" x="1884.26" y="-309.5" font-family="Helvetica,sans-Serif" font-size="10.00">src/node/snapshotter.h</text>
</a>
</g>
</g>
<!-- Node5&#45;&gt;Node16 -->
<g id="edge41" class="edge">
<title>Node5&#45;&gt;Node16</title>
<path fill="none" stroke="#63b8ff" d="M1699.74,-556.71C1736.07,-539.52 1797.39,-505.65 1833.26,-459 1867.31,-414.73 1879.7,-346.02 1883.15,-321.8"/>
<polygon fill="#63b8ff" stroke="#63b8ff" points="1698.24,-553.54 1690.63,-560.91 1701.18,-559.9 1698.24,-553.54"/>
</g>
<!-- Node20 -->
<g id="node20" class="node">
<title>Node20</title>
<g id="a_node20"><a xlink:href="frontend_8h.html" target="_top" xlink:title=" ">
<polygon fill="white" stroke="#666666" points="461.76,-387.5 332.76,-387.5 332.76,-368.5 461.76,-368.5 461.76,-387.5"/>
<text text-anchor="middle" x="397.26" y="-375.5" font-family="Helvetica,sans-Serif" font-size="10.00">src/node/rpc/frontend.h</text>
</a>
</g>
</g>
<!-- Node5&#45;&gt;Node20 -->
<g id="edge27" class="edge">
<title>Node5&#45;&gt;Node20</title>
<path fill="none" stroke="#63b8ff" d="M1618.56,-561.96C1558.24,-553.16 1455.5,-538.12 1367.26,-525 1019.63,-473.31 602.1,-410.08 453.29,-387.5"/>
<polygon fill="#63b8ff" stroke="#63b8ff" points="1618.19,-565.45 1628.59,-563.43 1619.2,-558.52 1618.19,-565.45"/>
</g>
<!-- Node27 -->
<g id="node27" class="node">
<title>Node27</title>
<g id="a_node27"><a xlink:href="network__tables_8h.html" target="_top" xlink:title=" ">
<polygon fill="white" stroke="#666666" points="1667.26,-525 1555.26,-525 1555.26,-495 1667.26,-495 1667.26,-525"/>
<text text-anchor="start" x="1563.26" y="-513" font-family="Helvetica,sans-Serif" font-size="10.00">src/service/network</text>
<text text-anchor="middle" x="1611.26" y="-502" font-family="Helvetica,sans-Serif" font-size="10.00">_tables.h</text>
</a>
</g>
</g>
<!-- Node5&#45;&gt;Node27 -->
<g id="edge42" class="edge">
<title>Node5&#45;&gt;Node27</title>
<path fill="none" stroke="#63b8ff" d="M1654.32,-553.7C1645.33,-544.78 1634.19,-533.74 1625.5,-525.11"/>
<polygon fill="#63b8ff" stroke="#63b8ff" points="1651.99,-556.31 1661.56,-560.87 1656.92,-551.34 1651.99,-556.31"/>
</g>
<!-- Node7 -->
<g id="node7" class="node">
<title>Node7</title>
<g id="a_node7"><a xlink:href="node__state_8h.html" target="_top" xlink:title=" ">
<polygon fill="white" stroke="#666666" points="1702.26,-189.5 1578.26,-189.5 1578.26,-170.5 1702.26,-170.5 1702.26,-189.5"/>
<text text-anchor="middle" x="1640.26" y="-177.5" font-family="Helvetica,sans-Serif" font-size="10.00">src/node/node_state.h</text>
</a>
</g>
</g>
<!-- Node6&#45;&gt;Node7 -->
<g id="edge6" class="edge">
<title>Node6&#45;&gt;Node7</title>
<path fill="none" stroke="#63b8ff" d="M1765.57,-424.36C1771.62,-383.83 1779.77,-286.84 1731.26,-231 1713.88,-211 1686.46,-197.48 1666.25,-189.59"/>
<polygon fill="#63b8ff" stroke="#63b8ff" points="1762.09,-423.99 1763.93,-434.42 1768.99,-425.11 1762.09,-423.99"/>
</g>
<!-- Node8 -->
<g id="node8" class="node">
<title>Node8</title>
<g id="a_node8"><a xlink:href="src_2enclave_2enclave_8h.html" target="_top" xlink:title=" ">
<polygon fill="white" stroke="#666666" points="1544.26,-74 1422.26,-74 1422.26,-55 1544.26,-55 1544.26,-74"/>
<text text-anchor="middle" x="1483.26" y="-62" font-family="Helvetica,sans-Serif" font-size="10.00">src/enclave/enclave.h</text>
</a>
</g>
</g>
<!-- Node7&#45;&gt;Node8 -->
<g id="edge7" class="edge">
<title>Node7&#45;&gt;Node8</title>
<path fill="none" stroke="#63b8ff" d="M1615.97,-165.23C1599.56,-155.65 1577.64,-142.25 1559.26,-129 1534.15,-110.9 1506.78,-86.86 1492.74,-74.18"/>
<polygon fill="#63b8ff" stroke="#63b8ff" points="1614.51,-168.43 1624.92,-170.41 1618.01,-162.37 1614.51,-168.43"/>
</g>
<!-- Node10 -->
<g id="node10" class="node">
<title>Node10</title>
<g id="a_node10"><a xlink:href="gov__effects_8h.html" target="_top" xlink:title=" ">
<polygon fill="white" stroke="#666666" points="1712.26,-129 1568.26,-129 1568.26,-110 1712.26,-110 1712.26,-129"/>
<text text-anchor="middle" x="1640.26" y="-117" font-family="Helvetica,sans-Serif" font-size="10.00">src/node/rpc/gov_effects.h</text>
</a>
</g>
</g>
<!-- Node7&#45;&gt;Node10 -->
<g id="edge9" class="edge">
<title>Node7&#45;&gt;Node10</title>
<path fill="none" stroke="#63b8ff" d="M1640.26,-160.16C1640.26,-149.74 1640.26,-137.3 1640.26,-129.17"/>
<polygon fill="#63b8ff" stroke="#63b8ff" points="1636.76,-160.37 1640.26,-170.37 1643.76,-160.37 1636.76,-160.37"/>
</g>
<!-- Node9 -->
<g id="node9" class="node">
<title>Node9</title>
<g id="a_node9"><a xlink:href="enclave_2main_8cpp.html" target="_top" xlink:title=" ">
<polygon fill="white" stroke="#666666" points="1543.26,-19 1423.26,-19 1423.26,0 1543.26,0 1543.26,-19"/>
<text text-anchor="middle" x="1483.26" y="-7" font-family="Helvetica,sans-Serif" font-size="10.00">src/enclave/main.cpp</text>
</a>
</g>
</g>
<!-- Node8&#45;&gt;Node9 -->
<g id="edge8" class="edge">
<title>Node8&#45;&gt;Node9</title>
<path fill="none" stroke="#63b8ff" d="M1483.26,-44.66C1483.26,-35.93 1483.26,-25.99 1483.26,-19.09"/>
<polygon fill="#63b8ff" stroke="#63b8ff" points="1479.76,-44.75 1483.26,-54.75 1486.76,-44.75 1479.76,-44.75"/>
</g>
<!-- Node10&#45;&gt;Node8 -->
<g id="edge10" class="edge">
<title>Node10&#45;&gt;Node8</title>
<path fill="none" stroke="#63b8ff" d="M1605.22,-106.67C1575.94,-96.79 1534.89,-82.93 1508.68,-74.08"/>
<polygon fill="#63b8ff" stroke="#63b8ff" points="1604.44,-110.1 1615.04,-109.98 1606.68,-103.47 1604.44,-110.1"/>
</g>
<!-- Node12&#45;&gt;Node8 -->
<g id="edge13" class="edge">
<title>Node12&#45;&gt;Node8</title>
<path fill="none" stroke="#63b8ff" d="M2356.21,-361.25C2251.53,-334.19 2053.26,-278.76 2053.26,-247 2053.26,-247 2053.26,-247 2053.26,-179 2053.26,-76.14 1691.75,-65.13 1544.53,-64.91"/>
<polygon fill="#63b8ff" stroke="#63b8ff" points="2355.49,-364.67 2366.04,-363.77 2357.23,-357.89 2355.49,-364.67"/>
</g>
<!-- Node13 -->
<g id="node13" class="node">
<title>Node13</title>
<g id="a_node13"><a xlink:href="historical__transaction__fetcher_8h.html" target="_top" xlink:title=" ">
<polygon fill="white" stroke="#666666" points="2363.76,-195 2238.76,-195 2238.76,-165 2363.76,-165 2363.76,-195"/>
<text text-anchor="start" x="2246.76" y="-183" font-family="Helvetica,sans-Serif" font-size="10.00">src/indexing/historical</text>
<text text-anchor="middle" x="2301.26" y="-172" font-family="Helvetica,sans-Serif" font-size="10.00">_transaction_fetcher.h</text>
</a>
</g>
</g>
<!-- Node12&#45;&gt;Node13 -->
<g id="edge14" class="edge">
<title>Node12&#45;&gt;Node13</title>
<path fill="none" stroke="#63b8ff" d="M2405.53,-354.2C2380.94,-313.35 2330.06,-228.84 2309.83,-195.23"/>
<polygon fill="#63b8ff" stroke="#63b8ff" points="2402.62,-356.14 2410.78,-362.9 2408.62,-352.53 2402.62,-356.14"/>
</g>
<!-- Node13&#45;&gt;Node8 -->
<g id="edge15" class="edge">
<title>Node13&#45;&gt;Node8</title>
<path fill="none" stroke="#63b8ff" d="M2253.38,-161.65C2206.58,-145.46 2132.99,-122.06 2067.26,-110 1878.73,-75.42 1651.21,-67.64 1544.33,-65.94"/>
<polygon fill="#63b8ff" stroke="#63b8ff" points="2252.35,-164.99 2262.95,-164.98 2254.66,-158.38 2252.35,-164.99"/>
</g>
<!-- Node14&#45;&gt;Node7 -->
<g id="edge18" class="edge">
<title>Node14&#45;&gt;Node7</title>
<path fill="none" stroke="#63b8ff" d="M1967.44,-491.63C1954.43,-469.65 1933.35,-430.15 1925.26,-393 1922.43,-379.97 1920.52,-375.46 1925.26,-363 1932.87,-342.99 1949.65,-347.01 1957.26,-327 1962,-314.54 1964.05,-308.48 1957.26,-297 1905.66,-209.73 1779.03,-187.44 1702.35,-182.15"/>
<polygon fill="#63b8ff" stroke="#63b8ff" points="1964.59,-493.69 1972.77,-500.43 1970.58,-490.07 1964.59,-493.69"/>
</g>
<!-- Node14&#45;&gt;Node12 -->
<g id="edge17" class="edge">
<title>Node14&#45;&gt;Node12</title>
<path fill="none" stroke="#63b8ff" d="M2039.18,-500.3C2090.32,-492.17 2164.97,-478.37 2228.26,-459 2287.73,-440.8 2354.05,-410.66 2390.8,-393.03"/>
<polygon fill="#63b8ff" stroke="#63b8ff" points="2038.61,-496.85 2029.27,-501.85 2039.69,-503.76 2038.61,-496.85"/>
</g>
<!-- Node15 -->
<g id="node15" class="node">
<title>Node15</title>
<g id="a_node15"><a xlink:href="snapshot__serdes_8h.html" target="_top" xlink:title=" ">
<polygon fill="white" stroke="#666666" points="2086.26,-387.5 1934.26,-387.5 1934.26,-368.5 2086.26,-368.5 2086.26,-387.5"/>
<text text-anchor="middle" x="2010.26" y="-375.5" font-family="Helvetica,sans-Serif" font-size="10.00">src/node/snapshot_serdes.h</text>
</a>
</g>
</g>
<!-- Node14&#45;&gt;Node15 -->
<g id="edge19" class="edge">
<title>Node14&#45;&gt;Node15</title>
<path fill="none" stroke="#63b8ff" d="M1982.79,-490.61C1989.78,-462.19 2002.95,-408.69 2008.11,-387.73"/>
<polygon fill="#63b8ff" stroke="#63b8ff" points="1979.35,-489.92 1980.36,-500.47 1986.15,-491.6 1979.35,-489.92"/>
</g>
<!-- Node17 -->
<g id="node17" class="node">
<title>Node17</title>
<g id="a_node17"><a xlink:href="tx__receipt__impl_8h.html" target="_top" xlink:title=" ">
<polygon fill="white" stroke="#666666" points="2219.26,-459 2109.26,-459 2109.26,-429 2219.26,-429 2219.26,-459"/>
<text text-anchor="start" x="2117.26" y="-447" font-family="Helvetica,sans-Serif" font-size="10.00">src/node/tx_receipt</text>
<text text-anchor="middle" x="2164.26" y="-436" font-family="Helvetica,sans-Serif" font-size="10.00">_impl.h</text>
</a>
</g>
</g>
<!-- Node14&#45;&gt;Node17 -->
<g id="edge22" class="edge">
<title>Node14&#45;&gt;Node17</title>
<path fill="none" stroke="#63b8ff" d="M2012.94,-497.07C2044.19,-486.31 2090.17,-470.49 2123.24,-459.12"/>
<polygon fill="#63b8ff" stroke="#63b8ff" points="2011.66,-493.81 2003.35,-500.37 2013.94,-500.42 2011.66,-493.81"/>
</g>
<!-- Node15&#45;&gt;Node16 -->
<g id="edge20" class="edge">
<title>Node15&#45;&gt;Node16</title>
<path fill="none" stroke="#63b8ff" d="M1984.07,-363.69C1959.24,-351.09 1922.68,-332.51 1901.39,-321.7"/>
<polygon fill="#63b8ff" stroke="#63b8ff" points="1982.77,-366.96 1993.27,-368.37 1985.94,-360.72 1982.77,-366.96"/>
</g>
<!-- Node16&#45;&gt;Node7 -->
<g id="edge21" class="edge">
<title>Node16&#45;&gt;Node7</title>
<path fill="none" stroke="#63b8ff" d="M1871.69,-293.66C1857.67,-275.52 1833.38,-247.45 1806.26,-231 1771.01,-209.61 1725.94,-196.8 1691.67,-189.5"/>
<polygon fill="#63b8ff" stroke="#63b8ff" points="1869.24,-296.23 1878.04,-302.12 1874.84,-292.02 1869.24,-296.23"/>
</g>
<!-- Node17&#45;&gt;Node12 -->
<g id="edge23" class="edge">
<title>Node17&#45;&gt;Node12</title>
<path fill="none" stroke="#63b8ff" d="M2229.23,-426.7C2271.62,-416.05 2326.28,-402.34 2366.09,-392.35"/>
<polygon fill="#63b8ff" stroke="#63b8ff" points="2228.13,-423.36 2219.28,-429.19 2229.83,-430.15 2228.13,-423.36"/>
</g>
<!-- Node17&#45;&gt;Node15 -->
<g id="edge26" class="edge">
<title>Node17&#45;&gt;Node15</title>
<path fill="none" stroke="#63b8ff" d="M2121.19,-425.1C2091.63,-412.82 2053.73,-397.06 2030.76,-387.52"/>
<polygon fill="#63b8ff" stroke="#63b8ff" points="2119.89,-428.35 2130.47,-428.95 2122.57,-421.89 2119.89,-428.35"/>
</g>
<!-- Node18 -->
<g id="node18" class="node">
<title>Node18</title>
<g id="a_node18"><a xlink:href="historical__queries__adapter_8cpp.html" target="_top" xlink:title=" ">
<polygon fill="white" stroke="#666666" points="2224.26,-393 2104.26,-393 2104.26,-363 2224.26,-363 2224.26,-393"/>
<text text-anchor="start" x="2112.26" y="-381" font-family="Helvetica,sans-Serif" font-size="10.00">src/node/historical</text>
<text text-anchor="middle" x="2164.26" y="-370" font-family="Helvetica,sans-Serif" font-size="10.00">_queries_adapter.cpp</text>
</a>
</g>
</g>
<!-- Node17&#45;&gt;Node18 -->
<g id="edge24" class="edge">
<title>Node17&#45;&gt;Node18</title>
<path fill="none" stroke="#63b8ff" d="M2164.26,-418.54C2164.26,-409.96 2164.26,-400.61 2164.26,-393.16"/>
<polygon fill="#63b8ff" stroke="#63b8ff" points="2160.76,-418.8 2164.26,-428.8 2167.76,-418.8 2160.76,-418.8"/>
</g>
<!-- Node19 -->
<g id="node19" class="node">
<title>Node19</title>
<g id="a_node19"><a xlink:href="historical__queries__utils_8cpp.html" target="_top" xlink:title=" ">
<polygon fill="white" stroke="#666666" points="2348.26,-393 2242.26,-393 2242.26,-363 2348.26,-363 2348.26,-393"/>
<text text-anchor="start" x="2250.26" y="-381" font-family="Helvetica,sans-Serif" font-size="10.00">src/node/historical</text>
<text text-anchor="middle" x="2295.26" y="-370" font-family="Helvetica,sans-Serif" font-size="10.00">_queries_utils.cpp</text>
</a>
</g>
</g>
<!-- Node17&#45;&gt;Node19 -->
<g id="edge25" class="edge">
<title>Node17&#45;&gt;Node19</title>
<path fill="none" stroke="#63b8ff" d="M2202.1,-424.51C2222.65,-414.47 2247.65,-402.26 2266.58,-393.01"/>
<polygon fill="#63b8ff" stroke="#63b8ff" points="2200.46,-421.42 2193.01,-428.95 2203.53,-427.71 2200.46,-421.42"/>
</g>
<!-- Node20&#45;&gt;Node7 -->
<g id="edge32" class="edge">
<title>Node20&#45;&gt;Node7</title>
<path fill="none" stroke="#63b8ff" d="M393.37,-358.05C387.82,-325 382.43,-257.77 423.26,-231 471.93,-199.1 1336.71,-185.09 1578.13,-181.79"/>
<polygon fill="#63b8ff" stroke="#63b8ff" points="389.98,-359.01 395.26,-368.2 396.86,-357.72 389.98,-359.01"/>
</g>
<!-- Node21 -->
<g id="node21" class="node">
<title>Node21</title>
<g id="a_node21"><a xlink:href="acme__challenge__frontend_8h.html" target="_top" xlink:title=" ">
<polygon fill="white" stroke="#666666" points="344.26,-327 204.26,-327 204.26,-297 344.26,-297 344.26,-327"/>
<text text-anchor="start" x="212.26" y="-315" font-family="Helvetica,sans-Serif" font-size="10.00">src/node/acme_challenge</text>
<text text-anchor="middle" x="274.26" y="-304" font-family="Helvetica,sans-Serif" font-size="10.00">_frontend.h</text>
</a>
</g>
</g>
<!-- Node20&#45;&gt;Node21 -->
<g id="edge28" class="edge">
<title>Node20&#45;&gt;Node21</title>
<path fill="none" stroke="#63b8ff" d="M371.59,-363.64C351.05,-352.95 322.31,-338 301.39,-327.12"/>
<polygon fill="#63b8ff" stroke="#63b8ff" points="370.19,-366.86 380.67,-368.37 373.42,-360.65 370.19,-366.86"/>
</g>
<!-- Node23 -->
<g id="node23" class="node">
<title>Node23</title>
<g id="a_node23"><a xlink:href="member__frontend_8h.html" target="_top" xlink:title=" ">
<polygon fill="white" stroke="#666666" points="1612.26,-327 1492.26,-327 1492.26,-297 1612.26,-297 1612.26,-327"/>
<text text-anchor="start" x="1500.26" y="-315" font-family="Helvetica,sans-Serif" font-size="10.00">src/node/rpc/member</text>
<text text-anchor="middle" x="1552.26" y="-304" font-family="Helvetica,sans-Serif" font-size="10.00">_frontend.h</text>
</a>
</g>
</g>
<!-- Node20&#45;&gt;Node23 -->
<g id="edge33" class="edge">
<title>Node20&#45;&gt;Node23</title>
<path fill="none" stroke="#63b8ff" d="M472.22,-374.49C639.91,-368.61 1058.03,-352.49 1407.26,-327 1435.13,-324.97 1465.96,-322.08 1492,-319.46"/>
<polygon fill="#63b8ff" stroke="#63b8ff" points="471.89,-371 462.02,-374.85 472.13,-377.99 471.89,-371"/>
</g>
<!-- Node24 -->
<g id="node24" class="node">
<title>Node24</title>
<g id="a_node24"><a xlink:href="node__frontend_8h.html" target="_top" xlink:title=" ">
<polygon fill="white" stroke="#666666" points="558.26,-321.5 400.26,-321.5 400.26,-302.5 558.26,-302.5 558.26,-321.5"/>
<text text-anchor="middle" x="479.26" y="-309.5" font-family="Helvetica,sans-Serif" font-size="10.00">src/node/rpc/node_frontend.h</text>
</a>
</g>
</g>
<!-- Node20&#45;&gt;Node24 -->
<g id="edge35" class="edge">
<title>Node20&#45;&gt;Node24</title>
<path fill="none" stroke="#63b8ff" d="M416.5,-361.99C432.55,-349.46 454.87,-332.04 468.12,-321.7"/>
<polygon fill="#63b8ff" stroke="#63b8ff" points="414.05,-359.46 408.32,-368.37 418.36,-364.98 414.05,-359.46"/>
</g>
<!-- Node26 -->
<g id="node26" class="node">
<title>Node26</title>
<g id="a_node26"><a xlink:href="user__frontend_8h.html" target="_top" xlink:title=" ">
<polygon fill="white" stroke="#666666" points="185.76,-321.5 30.76,-321.5 30.76,-302.5 185.76,-302.5 185.76,-321.5"/>
<text text-anchor="middle" x="108.26" y="-309.5" font-family="Helvetica,sans-Serif" font-size="10.00">src/node/rpc/user_frontend.h</text>
</a>
</g>
</g>
<!-- Node20&#45;&gt;Node26 -->
<g id="edge39" class="edge">
<title>Node20&#45;&gt;Node26</title>
<path fill="none" stroke="#63b8ff" d="M348.75,-366.26C291.89,-353.67 198.82,-333.06 146.71,-321.51"/>
<polygon fill="#63b8ff" stroke="#63b8ff" points="348.07,-369.69 358.59,-368.44 349.58,-362.86 348.07,-369.69"/>
</g>
<!-- Node21&#45;&gt;Node8 -->
<g id="edge29" class="edge">
<title>Node21&#45;&gt;Node8</title>
<path fill="none" stroke="#63b8ff" d="M225.92,-292.8C193.94,-277.98 161.15,-255.55 180.26,-231 314.87,-58.07 441.61,-142.95 658.26,-110 941.34,-66.95 1284.59,-63.98 1422.04,-64.76"/>
<polygon fill="#63b8ff" stroke="#63b8ff" points="224.75,-296.11 235.31,-296.97 227.59,-289.71 224.75,-296.11"/>
</g>
<!-- Node22 -->
<g id="node22" class="node">
<title>Node22</title>
<g id="a_node22"><a xlink:href="ccf__acme__client_8h.html" target="_top" xlink:title=" ">
<polygon fill="white" stroke="#666666" points="338.76,-255.5 189.76,-255.5 189.76,-236.5 338.76,-236.5 338.76,-255.5"/>
<text text-anchor="middle" x="264.26" y="-243.5" font-family="Helvetica,sans-Serif" font-size="10.00">src/node/ccf_acme_client.h</text>
</a>
</g>
</g>
<!-- Node21&#45;&gt;Node22 -->
<g id="edge30" class="edge">
<title>Node21&#45;&gt;Node22</title>
<path fill="none" stroke="#63b8ff" d="M270.45,-286.6C268.76,-275.8 266.88,-263.78 265.64,-255.84"/>
<polygon fill="#63b8ff" stroke="#63b8ff" points="267.04,-287.46 272.04,-296.8 273.96,-286.38 267.04,-287.46"/>
</g>
<!-- Node22&#45;&gt;Node7 -->
<g id="edge31" class="edge">
<title>Node22&#45;&gt;Node7</title>
<path fill="none" stroke="#63b8ff" d="M343.01,-235.38C358.64,-233.72 374.96,-232.15 390.26,-231 845.33,-196.66 1395.5,-185.01 1578.07,-181.93"/>
<polygon fill="#63b8ff" stroke="#63b8ff" points="342.41,-231.93 332.84,-236.49 343.16,-238.89 342.41,-231.93"/>
</g>
<!-- Node23&#45;&gt;Node8 -->
<g id="edge34" class="edge">
<title>Node23&#45;&gt;Node8</title>
<path fill="none" stroke="#63b8ff" d="M1545.47,-286.82C1530.51,-233.62 1495.32,-108.42 1485.72,-74.25"/>
<polygon fill="#63b8ff" stroke="#63b8ff" points="1542.18,-288.06 1548.25,-296.74 1548.92,-286.17 1542.18,-288.06"/>
</g>
<!-- Node24&#45;&gt;Node8 -->
<g id="edge36" class="edge">
<title>Node24&#45;&gt;Node8</title>
<path fill="none" stroke="#63b8ff" d="M457.23,-296.69C434.5,-280.19 404.79,-252.58 423.26,-231 553.84,-78.45 1216.46,-65.47 1422.22,-65.17"/>
<polygon fill="#63b8ff" stroke="#63b8ff" points="455.27,-299.59 465.48,-302.43 459.27,-293.85 455.27,-299.59"/>
</g>
<!-- Node25 -->
<g id="node25" class="node">
<title>Node25</title>
<g id="a_node25"><a xlink:href="jwt__key__auto__refresh_8h.html" target="_top" xlink:title=" ">
<polygon fill="white" stroke="#666666" points="557.76,-261 432.76,-261 432.76,-231 557.76,-231 557.76,-261"/>
<text text-anchor="start" x="440.76" y="-249" font-family="Helvetica,sans-Serif" font-size="10.00">src/node/jwt_key_auto</text>
<text text-anchor="middle" x="495.26" y="-238" font-family="Helvetica,sans-Serif" font-size="10.00">_refresh.h</text>
</a>
</g>
</g>
<!-- Node24&#45;&gt;Node25 -->
<g id="edge37" class="edge">
<title>Node24&#45;&gt;Node25</title>
<path fill="none" stroke="#63b8ff" d="M483.92,-292.35C486.4,-282.47 489.38,-270.51 491.67,-261.36"/>
<polygon fill="#63b8ff" stroke="#63b8ff" points="480.45,-291.82 481.42,-302.37 487.24,-293.52 480.45,-291.82"/>
</g>
<!-- Node25&#45;&gt;Node7 -->
<g id="edge38" class="edge">
<title>Node25&#45;&gt;Node7</title>
<path fill="none" stroke="#63b8ff" d="M567.79,-231.54C569.29,-231.35 570.79,-231.17 572.26,-231 952.65,-187.71 1413.34,-181.72 1578.03,-181.03"/>
<polygon fill="#63b8ff" stroke="#63b8ff" points="567.2,-228.08 557.77,-232.92 568.16,-235.02 567.2,-228.08"/>
</g>
<!-- Node26&#45;&gt;Node8 -->
<g id="edge40" class="edge">
<title>Node26&#45;&gt;Node8</title>
<path fill="none" stroke="#63b8ff" d="M117.31,-293.21C133.14,-263.49 168.41,-203.24 212.26,-165 251.97,-130.37 266.36,-123.56 317.26,-110 424.13,-81.53 1197.12,-69.25 1422.03,-66.26"/>
<polygon fill="#63b8ff" stroke="#63b8ff" points="114.05,-291.88 112.53,-302.37 120.26,-295.12 114.05,-291.88"/>
</g>
<!-- Node27&#45;&gt;Node22 -->
<g id="edge43" class="edge">
<title>Node27&#45;&gt;Node22</title>
<path fill="none" stroke="#63b8ff" d="M1544.91,-494.94C953.31,-410.46 787.22,-516.42 206.26,-393 120.87,-374.86 71.56,-398.35 21.26,-327 -22.88,-264.38 102.8,-249.83 189.48,-247"/>
<polygon fill="#63b8ff" stroke="#63b8ff" points="1544.58,-498.43 1554.98,-496.39 1545.58,-491.5 1544.58,-498.43"/>
</g>
<!-- Node28 -->
<g id="node28" class="node">
<title>Node28</title>
<g id="a_node28"><a xlink:href="network__state_8h.html" target="_top" xlink:title=" ">
<polygon fill="white" stroke="#666666" points="1275.26,-453.5 1135.26,-453.5 1135.26,-434.5 1275.26,-434.5 1275.26,-453.5"/>
<text text-anchor="middle" x="1205.26" y="-441.5" font-family="Helvetica,sans-Serif" font-size="10.00">src/node/network_state.h</text>
</a>
</g>
</g>
<!-- Node27&#45;&gt;Node28 -->
<g id="edge44" class="edge">
<title>Node27&#45;&gt;Node28</title>
<path fill="none" stroke="#63b8ff" d="M1544.93,-494.83C1444.55,-476.91 1339.15,-462.26 1272.44,-453.51"/>
<polygon fill="#63b8ff" stroke="#63b8ff" points="1544.48,-498.3 1554.94,-496.63 1545.71,-491.41 1544.48,-498.3"/>
</g>
<!-- Node37 -->
<g id="node37" class="node">
<title>Node37</title>
<g id="a_node37"><a xlink:href="genesis__gen_8h.html" target="_top" xlink:title=" ">
<polygon fill="white" stroke="#666666" points="1666.26,-459 1556.26,-459 1556.26,-429 1666.26,-429 1666.26,-459"/>
<text text-anchor="start" x="1564.26" y="-447" font-family="Helvetica,sans-Serif" font-size="10.00">src/service/genesis</text>
<text text-anchor="middle" x="1611.26" y="-436" font-family="Helvetica,sans-Serif" font-size="10.00">_gen.h</text>
</a>
</g>
</g>
<!-- Node27&#45;&gt;Node37 -->
<g id="edge72" class="edge">
<title>Node27&#45;&gt;Node37</title>
<path fill="none" stroke="#63b8ff" d="M1611.26,-484.54C1611.26,-475.96 1611.26,-466.61 1611.26,-459.16"/>
<polygon fill="#63b8ff" stroke="#63b8ff" points="1607.76,-484.8 1611.26,-494.8 1614.76,-484.8 1607.76,-484.8"/>
</g>
<!-- Node28&#45;&gt;Node7 -->
<g id="edge63" class="edge">
<title>Node28&#45;&gt;Node7</title>
<path fill="none" stroke="#63b8ff" d="M1125.05,-437.38C946.74,-423.3 538.22,-381.41 605.26,-297 666.09,-220.41 1363.49,-190.42 1577.92,-182.97"/>
<polygon fill="#63b8ff" stroke="#63b8ff" points="1124.93,-440.88 1135.17,-438.17 1125.48,-433.9 1124.93,-440.88"/>
</g>
<!-- Node28&#45;&gt;Node8 -->
<g id="edge45" class="edge">
<title>Node28&#45;&gt;Node8</title>
<path fill="none" stroke="#63b8ff" d="M1231.18,-429.93C1289.54,-400.45 1426.5,-331.05 1430.26,-327 1456.55,-298.69 1464.26,-285.63 1464.26,-247 1464.26,-247 1464.26,-247 1464.26,-179 1464.26,-139.44 1475.63,-93.18 1480.78,-74.25"/>
<polygon fill="#63b8ff" stroke="#63b8ff" points="1229.55,-426.83 1222.2,-434.46 1232.7,-433.08 1229.55,-426.83"/>
</g>
<!-- Node28&#45;&gt;Node16 -->
<g id="edge71" class="edge">
<title>Node28&#45;&gt;Node16</title>
<path fill="none" stroke="#63b8ff" d="M1285.45,-442.25C1383.93,-439.66 1555.35,-429.65 1697.26,-393 1763.93,-375.78 1837.53,-338.38 1868.83,-321.53"/>
<polygon fill="#63b8ff" stroke="#63b8ff" points="1285.19,-438.76 1275.28,-442.5 1285.36,-445.76 1285.19,-438.76"/>
</g>
<!-- Node28&#45;&gt;Node21 -->
<g id="edge62" class="edge">
<title>Node28&#45;&gt;Node21</title>
<path fill="none" stroke="#63b8ff" d="M1124.92,-442.66C920.34,-441.2 391.02,-433.52 323.26,-393 298.66,-378.29 284.73,-345.99 278.42,-327.24"/>
<polygon fill="#63b8ff" stroke="#63b8ff" points="1124.98,-446.16 1135,-442.73 1125.03,-439.16 1124.98,-446.16"/>
</g>
<!-- Node28&#45;&gt;Node24 -->
<g id="edge64" class="edge">
<title>Node28&#45;&gt;Node24</title>
<path fill="none" stroke="#63b8ff" d="M1124.84,-433.34C1110.66,-431.79 1096.04,-430.27 1082.26,-429 969.13,-418.57 677.33,-436.24 572.26,-393 533.66,-377.11 499.65,-338.66 485.83,-321.51"/>
<polygon fill="#63b8ff" stroke="#63b8ff" points="1124.74,-436.86 1135.07,-434.48 1125.52,-429.9 1124.74,-436.86"/>
</g>
<!-- Node28&#45;&gt;Node26 -->
<g id="edge65" class="edge">
<title>Node28&#45;&gt;Node26</title>
<path fill="none" stroke="#63b8ff" d="M1124.91,-442.24C932.41,-439.83 449.24,-430.16 292.26,-393 225.82,-377.27 153.26,-338.73 122.9,-321.53"/>
<polygon fill="#63b8ff" stroke="#63b8ff" points="1124.91,-445.74 1134.96,-442.36 1125,-438.74 1124.91,-445.74"/>
</g>
<!-- Node29 -->
<g id="node29" class="node">
<title>Node29</title>
<g id="a_node29"><a xlink:href="wrap_8h.html" target="_top" xlink:title=" ">
<polygon fill="white" stroke="#666666" points="1143.26,-387.5 1065.26,-387.5 1065.26,-368.5 1143.26,-368.5 1143.26,-387.5"/>
<text text-anchor="middle" x="1104.26" y="-375.5" font-family="Helvetica,sans-Serif" font-size="10.00">src/js/wrap.h</text>
</a>
</g>
</g>
<!-- Node28&#45;&gt;Node29 -->
<g id="edge46" class="edge">
<title>Node28&#45;&gt;Node29</title>
<path fill="none" stroke="#63b8ff" d="M1182.93,-428.85C1163.08,-416.27 1134.68,-398.28 1117.99,-387.7"/>
<polygon fill="#63b8ff" stroke="#63b8ff" points="1181.32,-431.97 1191.64,-434.37 1185.07,-426.06 1181.32,-431.97"/>
</g>
<!-- Node35 -->
<g id="node35" class="node">
<title>Node35</title>
<g id="a_node35"><a xlink:href="secret__broadcast_8h.html" target="_top" xlink:title=" ">
<polygon fill="white" stroke="#666666" points="1687.76,-387.5 1534.76,-387.5 1534.76,-368.5 1687.76,-368.5 1687.76,-387.5"/>
<text text-anchor="middle" x="1611.26" y="-375.5" font-family="Helvetica,sans-Serif" font-size="10.00">src/node/secret_broadcast.h</text>
</a>
</g>
</g>
<!-- Node28&#45;&gt;Node35 -->
<g id="edge66" class="edge">
<title>Node28&#45;&gt;Node35</title>
<path fill="none" stroke="#63b8ff" d="M1271.05,-432.92C1335.95,-422.94 1437.98,-407.15 1526.26,-393 1537.19,-391.25 1548.9,-389.34 1560.03,-387.51"/>
<polygon fill="#63b8ff" stroke="#63b8ff" points="1270.31,-429.5 1260.96,-434.48 1271.37,-436.42 1270.31,-429.5"/>
</g>
<!-- Node36 -->
<g id="node36" class="node">
<title>Node36</title>
<g id="a_node36"><a xlink:href="share__manager_8h.html" target="_top" xlink:title=" ">
<polygon fill="white" stroke="#666666" points="1516.76,-387.5 1371.76,-387.5 1371.76,-368.5 1516.76,-368.5 1516.76,-387.5"/>
<text text-anchor="middle" x="1444.26" y="-375.5" font-family="Helvetica,sans-Serif" font-size="10.00">src/node/share_manager.h</text>
</a>
</g>
</g>
<!-- Node28&#45;&gt;Node36 -->
<g id="edge68" class="edge">
<title>Node28&#45;&gt;Node36</title>
<path fill="none" stroke="#63b8ff" d="M1247.38,-431.72C1294.44,-419.12 1369.61,-398.99 1412.16,-387.6"/>
<polygon fill="#63b8ff" stroke="#63b8ff" points="1246.25,-428.4 1237.49,-434.37 1248.06,-435.16 1246.25,-428.4"/>
</g>
<!-- Node29&#45;&gt;Node3 -->
<g id="edge47" class="edge">
<title>Node29&#45;&gt;Node3</title>
<path fill="none" stroke="#63b8ff" d="M1054.91,-371.25C984.92,-362.86 852.93,-346.16 741.26,-327 738.41,-326.51 735.5,-325.99 732.56,-325.45"/>
<polygon fill="#63b8ff" stroke="#63b8ff" points="1054.84,-374.77 1065.18,-372.48 1055.67,-367.82 1054.84,-374.77"/>
</g>
<!-- Node29&#45;&gt;Node4 -->
<g id="edge58" class="edge">
<title>Node29&#45;&gt;Node4</title>
<path fill="none" stroke="#63b8ff" d="M1067.64,-364.86C1046.16,-356.52 1019.38,-343.88 999.26,-327 974.18,-305.95 954.66,-271.48 946.46,-255.55"/>
<polygon fill="#63b8ff" stroke="#63b8ff" points="1066.5,-368.17 1077.1,-368.39 1068.95,-361.61 1066.5,-368.17"/>
</g>
<!-- Node29&#45;&gt;Node7 -->
<g id="edge59" class="edge">
<title>Node29&#45;&gt;Node7</title>
<path fill="none" stroke="#63b8ff" d="M1153.44,-373.89C1279.33,-365.73 1604.56,-343.16 1621.26,-327 1659.84,-289.68 1647.91,-215.34 1642.38,-189.83"/>
<polygon fill="#63b8ff" stroke="#63b8ff" points="1153.06,-370.41 1143.31,-374.55 1153.51,-377.4 1153.06,-370.41"/>
</g>
<!-- Node29&#45;&gt;Node8 -->
<g id="edge48" class="edge">
<title>Node29&#45;&gt;Node8</title>
<path fill="none" stroke="#63b8ff" d="M1153.76,-375.32C1230.05,-371.69 1371.33,-360.52 1407.26,-327 1433.99,-302.07 1426.26,-283.54 1426.26,-247 1426.26,-247 1426.26,-247 1426.26,-179 1426.26,-135.78 1459.67,-92.21 1475.34,-74.16"/>
<polygon fill="#63b8ff" stroke="#63b8ff" points="1153.28,-371.84 1143.44,-375.78 1153.59,-378.83 1153.28,-371.84"/>
</g>
<!-- Node29&#45;&gt;Node23 -->
<g id="edge60" class="edge">
<title>Node29&#45;&gt;Node23</title>
<path fill="none" stroke="#63b8ff" d="M1153.78,-369.93C1236.56,-358.1 1402.75,-334.36 1492.12,-321.59"/>
<polygon fill="#63b8ff" stroke="#63b8ff" points="1153.03,-366.5 1143.63,-371.38 1154.02,-373.43 1153.03,-366.5"/>
</g>
<!-- Node29&#45;&gt;Node24 -->
<g id="edge61" class="edge">
<title>Node29&#45;&gt;Node24</title>
<path fill="none" stroke="#63b8ff" d="M1054.97,-372.24C965.41,-363.55 769.96,-344.4 605.26,-327 588.96,-325.28 571.47,-323.37 554.87,-321.54"/>
<polygon fill="#63b8ff" stroke="#63b8ff" points="1054.82,-375.74 1065.11,-373.22 1055.49,-368.77 1054.82,-375.74"/>
</g>
<!-- Node30 -->
<g id="node30" class="node">
<title>Node30</title>
<g id="a_node30"><a xlink:href="consensus_8cpp.html" target="_top" xlink:title=" ">
<polygon fill="white" stroke="#666666" points="1124.26,-321.5 1008.26,-321.5 1008.26,-302.5 1124.26,-302.5 1124.26,-321.5"/>
<text text-anchor="middle" x="1066.26" y="-309.5" font-family="Helvetica,sans-Serif" font-size="10.00">src/js/consensus.cpp</text>
</a>
</g>
</g>
<!-- Node29&#45;&gt;Node30 -->
<g id="edge49" class="edge">
<title>Node29&#45;&gt;Node30</title>
<path fill="none" stroke="#63b8ff" d="M1093.9,-359.55C1086.67,-347.36 1077.31,-331.61 1071.55,-321.91"/>
<polygon fill="#63b8ff" stroke="#63b8ff" points="1091.02,-361.56 1099.14,-368.37 1097.04,-357.98 1091.02,-361.56"/>
</g>
<!-- Node31 -->
<g id="node31" class="node">
<title>Node31</title>
<g id="a_node31"><a xlink:href="conv_8cpp.html" target="_top" xlink:title=" ">
<polygon fill="white" stroke="#666666" points="838.26,-321.5 750.26,-321.5 750.26,-302.5 838.26,-302.5 838.26,-321.5"/>
<text text-anchor="middle" x="794.26" y="-309.5" font-family="Helvetica,sans-Serif" font-size="10.00">src/js/conv.cpp</text>
</a>
</g>
</g>
<!-- Node29&#45;&gt;Node31 -->
<g id="edge51" class="edge">
<title>Node29&#45;&gt;Node31</title>
<path fill="none" stroke="#63b8ff" d="M1054.97,-368.41C1003.08,-359.13 919.12,-343.46 847.26,-327 840.12,-325.36 832.48,-323.45 825.28,-321.56"/>
<polygon fill="#63b8ff" stroke="#63b8ff" points="1054.45,-371.87 1064.91,-370.18 1055.67,-364.98 1054.45,-371.87"/>
</g>
<!-- Node32 -->
<g id="node32" class="node">
<title>Node32</title>
<g id="a_node32"><a xlink:href="crypto_8cpp.html" target="_top" xlink:title=" ">
<polygon fill="white" stroke="#666666" points="952.26,-321.5 856.26,-321.5 856.26,-302.5 952.26,-302.5 952.26,-321.5"/>
<text text-anchor="middle" x="904.26" y="-309.5" font-family="Helvetica,sans-Serif" font-size="10.00">src/js/crypto.cpp</text>
</a>
</g>
</g>
<!-- Node29&#45;&gt;Node32 -->
<g id="edge53" class="edge">
<title>Node29&#45;&gt;Node32</title>
<path fill="none" stroke="#63b8ff" d="M1067.52,-365.24C1028.05,-352.61 966.28,-332.85 931.13,-321.6"/>
<polygon fill="#63b8ff" stroke="#63b8ff" points="1066.7,-368.65 1077.29,-368.37 1068.83,-361.99 1066.7,-368.65"/>
</g>
<!-- Node33 -->
<g id="node33" class="node">
<title>Node33</title>
<g id="a_node33"><a xlink:href="historical_8cpp.html" target="_top" xlink:title=" ">
<polygon fill="white" stroke="#666666" points="1398.26,-321.5 1288.26,-321.5 1288.26,-302.5 1398.26,-302.5 1398.26,-321.5"/>
<text text-anchor="middle" x="1343.26" y="-309.5" font-family="Helvetica,sans-Serif" font-size="10.00">src/js/historical.cpp</text>
</a>
</g>
</g>
<!-- Node29&#45;&gt;Node33 -->
<g id="edge55" class="edge">
<title>Node29&#45;&gt;Node33</title>
<path fill="none" stroke="#63b8ff" d="M1146.38,-365.72C1193.44,-353.12 1268.61,-332.99 1311.16,-321.6"/>
<polygon fill="#63b8ff" stroke="#63b8ff" points="1145.25,-362.4 1136.49,-368.37 1147.06,-369.16 1145.25,-362.4"/>
</g>
<!-- Node34 -->
<g id="node34" class="node">
<title>Node34</title>
<g id="a_node34"><a xlink:href="openenclave_8cpp.html" target="_top" xlink:title=" ">
<polygon fill="white" stroke="#666666" points="1270.26,-321.5 1142.26,-321.5 1142.26,-302.5 1270.26,-302.5 1270.26,-321.5"/>
<text text-anchor="middle" x="1206.26" y="-309.5" font-family="Helvetica,sans-Serif" font-size="10.00">src/js/openenclave.cpp</text>
</a>
</g>
</g>
<!-- Node29&#45;&gt;Node34 -->
<g id="edge57" class="edge">
<title>Node29&#45;&gt;Node34</title>
<path fill="none" stroke="#63b8ff" d="M1126.54,-363.02C1146.6,-350.43 1175.46,-332.32 1192.4,-321.7"/>
<polygon fill="#63b8ff" stroke="#63b8ff" points="1124.63,-360.09 1118.02,-368.37 1128.35,-366.02 1124.63,-360.09"/>
</g>
<!-- Node30&#45;&gt;Node4 -->
<g id="edge50" class="edge">
<title>Node30&#45;&gt;Node4</title>
<path fill="none" stroke="#63b8ff" d="M1040.48,-297.69C1016.05,-285.09 980.07,-266.51 959.12,-255.7"/>
<polygon fill="#63b8ff" stroke="#63b8ff" points="1039.05,-300.89 1049.54,-302.37 1042.26,-294.67 1039.05,-300.89"/>
</g>
<!-- Node31&#45;&gt;Node4 -->
<g id="edge52" class="edge">
<title>Node31&#45;&gt;Node4</title>
<path fill="none" stroke="#63b8ff" d="M823.49,-298.36C852.66,-285.75 896.69,-266.71 922.15,-255.7"/>
<polygon fill="#63b8ff" stroke="#63b8ff" points="822.01,-295.19 814.22,-302.37 824.79,-301.61 822.01,-295.19"/>
</g>
<!-- Node32&#45;&gt;Node4 -->
<g id="edge54" class="edge">
<title>Node32&#45;&gt;Node4</title>
<path fill="none" stroke="#63b8ff" d="M914.62,-293.55C921.86,-281.36 931.21,-265.61 936.97,-255.91"/>
<polygon fill="#63b8ff" stroke="#63b8ff" points="911.48,-291.98 909.39,-302.37 917.5,-295.56 911.48,-291.98"/>
</g>
<!-- Node33&#45;&gt;Node4 -->
<g id="edge56" class="edge">
<title>Node33&#45;&gt;Node4</title>
<path fill="none" stroke="#63b8ff" d="M1296.06,-300.3C1290.41,-299.13 1284.72,-298 1279.26,-297 1174.98,-277.88 1051.51,-261.02 986.85,-252.63"/>
<polygon fill="#63b8ff" stroke="#63b8ff" points="1295.61,-303.78 1306.12,-302.43 1297.06,-296.93 1295.61,-303.78"/>
</g>
<!-- Node35&#45;&gt;Node7 -->
<g id="edge67" class="edge">
<title>Node35&#45;&gt;Node7</title>
<path fill="none" stroke="#63b8ff" d="M1647.57,-364.23C1664.34,-356.29 1682.64,-344.25 1692.26,-327 1713.05,-289.74 1708.98,-270.26 1692.26,-231 1684.61,-213.02 1666.97,-198.39 1654.36,-189.7"/>
<polygon fill="#63b8ff" stroke="#63b8ff" points="1645.71,-361.22 1637.95,-368.44 1648.51,-367.64 1645.71,-361.22"/>
</g>
<!-- Node36&#45;&gt;Node7 -->
<g id="edge69" class="edge">
<title>Node36&#45;&gt;Node7</title>
<path fill="none" stroke="#63b8ff" d="M1503.96,-366.66C1562.66,-355.89 1644.82,-338.95 1654.26,-327 1687.25,-285.24 1657.04,-214.35 1644.84,-189.73"/>
<polygon fill="#63b8ff" stroke="#63b8ff" points="1503.24,-363.24 1494.03,-368.47 1504.49,-370.12 1503.24,-363.24"/>
</g>
<!-- Node36&#45;&gt;Node23 -->
<g id="edge70" class="edge">
<title>Node36&#45;&gt;Node23</title>
<path fill="none" stroke="#63b8ff" d="M1467.54,-363.21C1485.52,-352.55 1510.32,-337.85 1528.44,-327.12"/>
<polygon fill="#63b8ff" stroke="#63b8ff" points="1465.65,-360.26 1458.83,-368.37 1469.21,-366.28 1465.65,-360.26"/>
</g>
<!-- Node37&#45;&gt;Node7 -->
<g id="edge73" class="edge">
<title>Node37&#45;&gt;Node7</title>
<path fill="none" stroke="#63b8ff" d="M1675.62,-424.67C1690.48,-417.29 1704.49,-407.07 1713.26,-393 1729.53,-366.9 1779.99,-361.05 1711.26,-231 1700.84,-211.27 1678.73,-197.64 1661.94,-189.66"/>
<polygon fill="#63b8ff" stroke="#63b8ff" points="1673.96,-421.58 1666.3,-428.91 1676.85,-427.96 1673.96,-421.58"/>
</g>
<!-- Node37&#45;&gt;Node23 -->
<g id="edge74" class="edge">
<title>Node37&#45;&gt;Node23</title>
<path fill="none" stroke="#63b8ff" d="M1662.96,-424.25C1676.51,-416.71 1689.49,-406.51 1697.26,-393 1703.91,-381.44 1705,-373.86 1697.26,-363 1678.02,-336.01 1643.2,-323.44 1612.5,-317.66"/>
<polygon fill="#63b8ff" stroke="#63b8ff" points="1661.33,-421.15 1654.03,-428.83 1664.52,-427.38 1661.33,-421.15"/>
</g>
<!-- Node37&#45;&gt;Node24 -->
<g id="edge75" class="edge">
<title>Node37&#45;&gt;Node24</title>
<path fill="none" stroke="#63b8ff" d="M1546.01,-438.14C1442.18,-430.18 1233,-413.2 1056.26,-393 864.1,-371.04 637.02,-337.24 534.45,-321.55"/>
<polygon fill="#63b8ff" stroke="#63b8ff" points="1545.79,-441.63 1556.03,-438.91 1546.33,-434.65 1545.79,-441.63"/>
</g>
<!-- Node37&#45;&gt;Node35 -->
<g id="edge76" class="edge">
<title>Node37&#45;&gt;Node35</title>
<path fill="none" stroke="#63b8ff" d="M1611.26,-418.6C1611.26,-407.8 1611.26,-395.78 1611.26,-387.84"/>
<polygon fill="#63b8ff" stroke="#63b8ff" points="1607.76,-418.8 1611.26,-428.8 1614.76,-418.8 1607.76,-418.8"/>
</g>
<!-- Node37&#45;&gt;Node36 -->
<g id="edge77" class="edge">
<title>Node37&#45;&gt;Node36</title>
<path fill="none" stroke="#63b8ff" d="M1564.97,-425.26C1532.85,-412.95 1491.51,-397.11 1466.49,-387.52"/>
<polygon fill="#63b8ff" stroke="#63b8ff" points="1564.02,-428.64 1574.61,-428.95 1566.53,-422.11 1564.02,-428.64"/>
</g>
</g>
</svg>
