<?xml version="1.0" encoding="UTF-8" standalone="no"?>
<!DOCTYPE svg PUBLIC "-//W3C//DTD SVG 1.1//EN"
 "http://www.w3.org/Graphics/SVG/1.1/DTD/svg11.dtd">
<!-- Generated by graphviz version 2.43.0 (0)
 -->
<!-- Title: include/ccf/network_identity_interface.h Pages: 1 -->
<svg width="392pt" height="225pt"
 viewBox="0.00 0.00 392.00 225.00" xmlns="http://www.w3.org/2000/svg" xmlns:xlink="http://www.w3.org/1999/xlink">
<g id="graph0" class="graph" transform="scale(1 1) rotate(0) translate(4 221)">
<title>include/ccf/network_identity_interface.h</title>
<!-- Node1 -->
<g id="node1" class="node">
<title>Node1</title>
<g id="a_node1"><a xlink:title=" ">
<polygon fill="#999999" stroke="#666666" points="246.5,-217 129.5,-217 129.5,-187 246.5,-187 246.5,-217"/>
<text text-anchor="start" x="137.5" y="-205" font-family="Helvetica,sans-Serif" font-size="10.00">include/ccf/network</text>
<text text-anchor="middle" x="188" y="-194" font-family="Helvetica,sans-Serif" font-size="10.00">_identity_interface.h</text>
</a>
</g>
</g>
<!-- Node2 -->
<g id="node2" class="node">
<title>Node2</title>
<g id="a_node2"><a xlink:href="historical__queries__utils_8h.html" target="_top" xlink:title=" ">
<polygon fill="white" stroke="#666666" points="176.5,-151 59.5,-151 59.5,-121 176.5,-121 176.5,-151"/>
<text text-anchor="start" x="67.5" y="-139" font-family="Helvetica,sans-Serif" font-size="10.00">include/ccf/historical</text>
<text text-anchor="middle" x="118" y="-128" font-family="Helvetica,sans-Serif" font-size="10.00">_queries_utils.h</text>
</a>
</g>
</g>
<!-- Node1&#45;&gt;Node2 -->
<g id="edge1" class="edge">
<title>Node1&#45;&gt;Node2</title>
<path fill="none" stroke="#63b8ff" d="M164.95,-179.92C154.63,-170.49 142.73,-159.61 133.49,-151.16"/>
<polygon fill="#63b8ff" stroke="#63b8ff" points="162.72,-182.63 172.46,-186.8 167.45,-177.47 162.72,-182.63"/>
</g>
<!-- Node5 -->
<g id="node5" class="node">
<title>Node5</title>
<g id="a_node5"><a xlink:href="network__identity__subsystem_8h.html" target="_top" xlink:title=" ">
<polygon fill="white" stroke="#666666" points="321.5,-151 194.5,-151 194.5,-121 321.5,-121 321.5,-151"/>
<text text-anchor="start" x="202.5" y="-139" font-family="Helvetica,sans-Serif" font-size="10.00">src/node/rpc/network</text>
<text text-anchor="middle" x="258" y="-128" font-family="Helvetica,sans-Serif" font-size="10.00">_identity_subsystem.h</text>
</a>
</g>
</g>
<!-- Node1&#45;&gt;Node5 -->
<g id="edge4" class="edge">
<title>Node1&#45;&gt;Node5</title>
<path fill="none" stroke="#63b8ff" d="M211.05,-179.92C221.37,-170.49 233.27,-159.61 242.51,-151.16"/>
<polygon fill="#63b8ff" stroke="#63b8ff" points="208.55,-177.47 203.54,-186.8 213.28,-182.63 208.55,-177.47"/>
</g>
<!-- Node3 -->
<g id="node3" class="node">
<title>Node3</title>
<g id="a_node3"><a xlink:href="historical__queries__adapter_8cpp.html" target="_top" xlink:title=" ">
<polygon fill="white" stroke="#666666" points="244,-85 124,-85 124,-55 244,-55 244,-85"/>
<text text-anchor="start" x="132" y="-73" font-family="Helvetica,sans-Serif" font-size="10.00">src/node/historical</text>
<text text-anchor="middle" x="184" y="-62" font-family="Helvetica,sans-Serif" font-size="10.00">_queries_adapter.cpp</text>
</a>
</g>
</g>
<!-- Node2&#45;&gt;Node3 -->
<g id="edge2" class="edge">
<title>Node2&#45;&gt;Node3</title>
<path fill="none" stroke="#63b8ff" d="M140.02,-113.65C149.69,-104.27 160.77,-93.53 169.39,-85.16"/>
<polygon fill="#63b8ff" stroke="#63b8ff" points="137.39,-111.32 132.65,-120.8 142.26,-116.35 137.39,-111.32"/>
</g>
<!-- Node4 -->
<g id="node4" class="node">
<title>Node4</title>
<g id="a_node4"><a xlink:href="historical__queries__utils_8cpp.html" target="_top" xlink:title=" ">
<polygon fill="white" stroke="#666666" points="106,-85 0,-85 0,-55 106,-55 106,-85"/>
<text text-anchor="start" x="8" y="-73" font-family="Helvetica,sans-Serif" font-size="10.00">src/node/historical</text>
<text text-anchor="middle" x="53" y="-62" font-family="Helvetica,sans-Serif" font-size="10.00">_queries_utils.cpp</text>
</a>
</g>
</g>
<!-- Node2&#45;&gt;Node4 -->
<g id="edge3" class="edge">
<title>Node2&#45;&gt;Node4</title>
<path fill="none" stroke="#63b8ff" d="M96.31,-113.65C86.79,-104.27 75.88,-93.53 67.39,-85.16"/>
<polygon fill="#63b8ff" stroke="#63b8ff" points="93.99,-116.27 103.57,-120.8 98.9,-111.29 93.99,-116.27"/>
</g>
<!-- Node5&#45;&gt;Node3 -->
<g id="edge7" class="edge">
<title>Node5&#45;&gt;Node3</title>
<path fill="none" stroke="#63b8ff" d="M233.95,-114.2C222.97,-104.7 210.24,-93.69 200.38,-85.16"/>
<polygon fill="#63b8ff" stroke="#63b8ff" points="231.72,-116.9 241.58,-120.8 236.3,-111.61 231.72,-116.9"/>
</g>
<!-- Node6 -->
<g id="node6" class="node">
<title>Node6</title>
<g id="a_node6"><a xlink:href="src_2enclave_2enclave_8h.html" target="_top" xlink:title=" ">
<polygon fill="white" stroke="#666666" points="384,-79.5 262,-79.5 262,-60.5 384,-60.5 384,-79.5"/>
<text text-anchor="middle" x="323" y="-67.5" font-family="Helvetica,sans-Serif" font-size="10.00">src/enclave/enclave.h</text>
</a>
</g>
</g>
<!-- Node5&#45;&gt;Node6 -->
<g id="edge5" class="edge">
<title>Node5&#45;&gt;Node6</title>
<path fill="none" stroke="#63b8ff" d="M279.73,-113.6C291.42,-102.1 305.2,-88.52 314.02,-79.84"/>
<polygon fill="#63b8ff" stroke="#63b8ff" points="277.1,-111.29 272.43,-120.8 282.01,-116.27 277.1,-111.29"/>
</g>
<!-- Node7 -->
<g id="node7" class="node">
<title>Node7</title>
<g id="a_node7"><a xlink:href="enclave_2main_8cpp.html" target="_top" xlink:title=" ">
<polygon fill="white" stroke="#666666" points="383,-19 263,-19 263,0 383,0 383,-19"/>
<text text-anchor="middle" x="323" y="-7" font-family="Helvetica,sans-Serif" font-size="10.00">src/enclave/main.cpp</text>
</a>
</g>
</g>
<!-- Node6&#45;&gt;Node7 -->
<g id="edge6" class="edge">
<title>Node6&#45;&gt;Node7</title>
<path fill="none" stroke="#63b8ff" d="M323,-50.16C323,-39.74 323,-27.3 323,-19.17"/>
<polygon fill="#63b8ff" stroke="#63b8ff" points="319.5,-50.37 323,-60.37 326.5,-50.37 319.5,-50.37"/>
</g>
</g>
</svg>
