<?xml version="1.0" encoding="UTF-8" standalone="no"?>
<!DOCTYPE svg PUBLIC "-//W3C//DTD SVG 1.1//EN"
 "http://www.w3.org/Graphics/SVG/1.1/DTD/svg11.dtd">
<!-- Generated by graphviz version 2.43.0 (0)
 -->
<!-- Title: src/service/tables/node_signature.h Pages: 1 -->
<svg width="2662pt" height="786pt"
 viewBox="0.00 0.00 2661.60 786.00" xmlns="http://www.w3.org/2000/svg" xmlns:xlink="http://www.w3.org/1999/xlink">
<g id="graph0" class="graph" transform="scale(1 1) rotate(0) translate(4 782)">
<title>src/service/tables/node_signature.h</title>
<!-- Node1 -->
<g id="node1" class="node">
<title>Node1</title>
<g id="a_node1"><a xlink:title=" ">
<polygon fill="#999999" stroke="#666666" points="841,-778 737,-778 737,-748 841,-748 841,-778"/>
<text text-anchor="start" x="745" y="-766" font-family="Helvetica,sans-Serif" font-size="10.00">src/service/tables</text>
<text text-anchor="middle" x="789" y="-755" font-family="Helvetica,sans-Serif" font-size="10.00">/node_signature.h</text>
</a>
</g>
</g>
<!-- Node2 -->
<g id="node2" class="node">
<title>Node2</title>
<g id="a_node2"><a xlink:href="historical__queries_8h.html" target="_top" xlink:title=" ">
<polygon fill="white" stroke="#666666" points="106,-393 0,-393 0,-363 106,-363 106,-393"/>
<text text-anchor="start" x="8" y="-381" font-family="Helvetica,sans-Serif" font-size="10.00">src/node/historical</text>
<text text-anchor="middle" x="53" y="-370" font-family="Helvetica,sans-Serif" font-size="10.00">_queries.h</text>
</a>
</g>
</g>
<!-- Node1&#45;&gt;Node2 -->
<g id="edge1" class="edge">
<title>Node1&#45;&gt;Node2</title>
<path fill="none" stroke="#63b8ff" d="M726.98,-757.24C558.34,-743.46 104,-700.5 104,-637.5 104,-637.5 104,-637.5 104,-509 104,-464.15 77.37,-416.23 62.59,-393.1"/>
<polygon fill="#63b8ff" stroke="#63b8ff" points="726.7,-760.73 736.95,-758.04 727.27,-753.75 726.7,-760.73"/>
</g>
<!-- Node6 -->
<g id="node6" class="node">
<title>Node6</title>
<g id="a_node6"><a xlink:href="backup__signatures_8h.html" target="_top" xlink:title=" ">
<polygon fill="white" stroke="#666666" points="1127.5,-591 1008.5,-591 1008.5,-561 1127.5,-561 1127.5,-591"/>
<text text-anchor="start" x="1016.5" y="-579" font-family="Helvetica,sans-Serif" font-size="10.00">src/service/tables</text>
<text text-anchor="middle" x="1068" y="-568" font-family="Helvetica,sans-Serif" font-size="10.00">/backup_signatures.h</text>
</a>
</g>
</g>
<!-- Node1&#45;&gt;Node6 -->
<g id="edge6" class="edge">
<title>Node1&#45;&gt;Node6</title>
<path fill="none" stroke="#63b8ff" d="M851.46,-755.24C888.53,-748.8 934.98,-736.28 970,-712 1016.17,-679.99 1048.65,-618.97 1061.66,-591.29"/>
<polygon fill="#63b8ff" stroke="#63b8ff" points="850.58,-751.84 841.27,-756.9 851.7,-758.75 850.58,-751.84"/>
</g>
<!-- Node29 -->
<g id="node29" class="node">
<title>Node29</title>
<g id="a_node29"><a xlink:href="signatures_8h.html" target="_top" xlink:title=" ">
<polygon fill="white" stroke="#666666" points="758,-712 656,-712 656,-682 758,-682 758,-712"/>
<text text-anchor="start" x="664" y="-700" font-family="Helvetica,sans-Serif" font-size="10.00">src/service/tables</text>
<text text-anchor="middle" x="707" y="-689" font-family="Helvetica,sans-Serif" font-size="10.00">/signatures.h</text>
</a>
</g>
</g>
<!-- Node1&#45;&gt;Node29 -->
<g id="edge55" class="edge">
<title>Node1&#45;&gt;Node29</title>
<path fill="none" stroke="#63b8ff" d="M762.71,-741.48C750.45,-731.91 736.18,-720.77 725.15,-712.16"/>
<polygon fill="#63b8ff" stroke="#63b8ff" points="760.76,-744.4 770.8,-747.8 765.07,-738.88 760.76,-744.4"/>
</g>
<!-- Node42 -->
<g id="node42" class="node">
<title>Node42</title>
<g id="a_node42"><a xlink:href="view__change_8h.html" target="_top" xlink:title=" ">
<polygon fill="white" stroke="#666666" points="961,-712 859,-712 859,-682 961,-682 961,-712"/>
<text text-anchor="start" x="867" y="-700" font-family="Helvetica,sans-Serif" font-size="10.00">src/service/tables</text>
<text text-anchor="middle" x="910" y="-689" font-family="Helvetica,sans-Serif" font-size="10.00">/view_change.h</text>
</a>
</g>
</g>
<!-- Node1&#45;&gt;Node42 -->
<g id="edge86" class="edge">
<title>Node1&#45;&gt;Node42</title>
<path fill="none" stroke="#63b8ff" d="M824.47,-743.24C843.35,-733.25 866.18,-721.18 883.51,-712.01"/>
<polygon fill="#63b8ff" stroke="#63b8ff" points="822.76,-740.19 815.55,-747.95 826.03,-746.37 822.76,-740.19"/>
</g>
<!-- Node3 -->
<g id="node3" class="node">
<title>Node3</title>
<g id="a_node3"><a xlink:href="src_2enclave_2enclave_8h.html" target="_top" xlink:title=" ">
<polygon fill="white" stroke="#666666" points="1560,-74 1438,-74 1438,-55 1560,-55 1560,-74"/>
<text text-anchor="middle" x="1499" y="-62" font-family="Helvetica,sans-Serif" font-size="10.00">src/enclave/enclave.h</text>
</a>
</g>
</g>
<!-- Node2&#45;&gt;Node3 -->
<g id="edge2" class="edge">
<title>Node2&#45;&gt;Node3</title>
<path fill="none" stroke="#63b8ff" d="M116.01,-360.99C198.02,-338.27 331,-294.17 331,-247 331,-247 331,-247 331,-179 331,-66.69 1197.52,-63.65 1437.85,-64.96"/>
<polygon fill="#63b8ff" stroke="#63b8ff" points="114.99,-357.64 106.27,-363.66 116.84,-364.39 114.99,-357.64"/>
</g>
<!-- Node5 -->
<g id="node5" class="node">
<title>Node5</title>
<g id="a_node5"><a xlink:href="historical__transaction__fetcher_8h.html" target="_top" xlink:title=" ">
<polygon fill="white" stroke="#666666" points="195.5,-195 70.5,-195 70.5,-165 195.5,-165 195.5,-195"/>
<text text-anchor="start" x="78.5" y="-183" font-family="Helvetica,sans-Serif" font-size="10.00">src/indexing/historical</text>
<text text-anchor="middle" x="133" y="-172" font-family="Helvetica,sans-Serif" font-size="10.00">_transaction_fetcher.h</text>
</a>
</g>
</g>
<!-- Node2&#45;&gt;Node5 -->
<g id="edge4" class="edge">
<title>Node2&#45;&gt;Node5</title>
<path fill="none" stroke="#63b8ff" d="M62.62,-353.42C79.41,-312.29 113.56,-228.63 127.19,-195.23"/>
<polygon fill="#63b8ff" stroke="#63b8ff" points="59.29,-352.32 58.75,-362.9 65.77,-354.97 59.29,-352.32"/>
</g>
<!-- Node4 -->
<g id="node4" class="node">
<title>Node4</title>
<g id="a_node4"><a xlink:href="enclave_2main_8cpp.html" target="_top" xlink:title=" ">
<polygon fill="white" stroke="#666666" points="1559,-19 1439,-19 1439,0 1559,0 1559,-19"/>
<text text-anchor="middle" x="1499" y="-7" font-family="Helvetica,sans-Serif" font-size="10.00">src/enclave/main.cpp</text>
</a>
</g>
</g>
<!-- Node3&#45;&gt;Node4 -->
<g id="edge3" class="edge">
<title>Node3&#45;&gt;Node4</title>
<path fill="none" stroke="#63b8ff" d="M1499,-44.66C1499,-35.93 1499,-25.99 1499,-19.09"/>
<polygon fill="#63b8ff" stroke="#63b8ff" points="1495.5,-44.75 1499,-54.75 1502.5,-44.75 1495.5,-44.75"/>
</g>
<!-- Node5&#45;&gt;Node3 -->
<g id="edge5" class="edge">
<title>Node5&#45;&gt;Node3</title>
<path fill="none" stroke="#63b8ff" d="M171.05,-160.6C207.53,-143.96 264.65,-120.51 317,-110 534.57,-66.3 1227.23,-64.67 1437.74,-65.22"/>
<polygon fill="#63b8ff" stroke="#63b8ff" points="169.39,-157.51 161.78,-164.88 172.32,-163.87 169.39,-157.51"/>
</g>
<!-- Node7 -->
<g id="node7" class="node">
<title>Node7</title>
<g id="a_node7"><a xlink:href="network__tables_8h.html" target="_top" xlink:title=" ">
<polygon fill="white" stroke="#666666" points="1192,-525 1080,-525 1080,-495 1192,-495 1192,-525"/>
<text text-anchor="start" x="1088" y="-513" font-family="Helvetica,sans-Serif" font-size="10.00">src/service/network</text>
<text text-anchor="middle" x="1136" y="-502" font-family="Helvetica,sans-Serif" font-size="10.00">_tables.h</text>
</a>
</g>
</g>
<!-- Node6&#45;&gt;Node7 -->
<g id="edge7" class="edge">
<title>Node6&#45;&gt;Node7</title>
<path fill="none" stroke="#63b8ff" d="M1090.39,-553.92C1100.42,-544.49 1111.98,-533.61 1120.95,-525.16"/>
<polygon fill="#63b8ff" stroke="#63b8ff" points="1087.97,-551.39 1083.09,-560.8 1092.77,-556.49 1087.97,-551.39"/>
</g>
<!-- Node8 -->
<g id="node8" class="node">
<title>Node8</title>
<g id="a_node8"><a xlink:href="ccf__acme__client_8h.html" target="_top" xlink:title=" ">
<polygon fill="white" stroke="#666666" points="1210.5,-255.5 1061.5,-255.5 1061.5,-236.5 1210.5,-236.5 1210.5,-255.5"/>
<text text-anchor="middle" x="1136" y="-243.5" font-family="Helvetica,sans-Serif" font-size="10.00">src/node/ccf_acme_client.h</text>
</a>
</g>
</g>
<!-- Node7&#45;&gt;Node8 -->
<g id="edge8" class="edge">
<title>Node7&#45;&gt;Node8</title>
<path fill="none" stroke="#63b8ff" d="M1152.11,-486.48C1170.38,-458.24 1196.47,-408.05 1187,-363 1178.04,-320.37 1152.43,-274.29 1141.29,-255.6"/>
<polygon fill="#63b8ff" stroke="#63b8ff" points="1149.17,-484.59 1146.51,-494.85 1154.99,-488.48 1149.17,-484.59"/>
</g>
<!-- Node11 -->
<g id="node11" class="node">
<title>Node11</title>
<g id="a_node11"><a xlink:href="network__state_8h.html" target="_top" xlink:title=" ">
<polygon fill="white" stroke="#666666" points="1500,-453.5 1360,-453.5 1360,-434.5 1500,-434.5 1500,-453.5"/>
<text text-anchor="middle" x="1430" y="-441.5" font-family="Helvetica,sans-Serif" font-size="10.00">src/node/network_state.h</text>
</a>
</g>
</g>
<!-- Node7&#45;&gt;Node11 -->
<g id="edge13" class="edge">
<title>Node7&#45;&gt;Node11</title>
<path fill="none" stroke="#63b8ff" d="M1202.15,-494.6C1260.18,-481.97 1342.6,-464.03 1390.77,-453.54"/>
<polygon fill="#63b8ff" stroke="#63b8ff" points="1201.36,-491.19 1192.34,-496.74 1202.85,-498.03 1201.36,-491.19"/>
</g>
<!-- Node28 -->
<g id="node28" class="node">
<title>Node28</title>
<g id="a_node28"><a xlink:href="genesis__gen_8h.html" target="_top" xlink:title=" ">
<polygon fill="white" stroke="#666666" points="1140,-459 1030,-459 1030,-429 1140,-429 1140,-459"/>
<text text-anchor="start" x="1038" y="-447" font-family="Helvetica,sans-Serif" font-size="10.00">src/service/genesis</text>
<text text-anchor="middle" x="1085" y="-436" font-family="Helvetica,sans-Serif" font-size="10.00">_gen.h</text>
</a>
</g>
</g>
<!-- Node7&#45;&gt;Node28 -->
<g id="edge49" class="edge">
<title>Node7&#45;&gt;Node28</title>
<path fill="none" stroke="#63b8ff" d="M1118.32,-486.81C1111.01,-477.64 1102.75,-467.28 1096.29,-459.16"/>
<polygon fill="#63b8ff" stroke="#63b8ff" points="1115.71,-489.16 1124.68,-494.8 1121.19,-484.79 1115.71,-489.16"/>
</g>
<!-- Node9 -->
<g id="node9" class="node">
<title>Node9</title>
<g id="a_node9"><a xlink:href="node__state_8h.html" target="_top" xlink:title=" ">
<polygon fill="white" stroke="#666666" points="1096,-189.5 972,-189.5 972,-170.5 1096,-170.5 1096,-189.5"/>
<text text-anchor="middle" x="1034" y="-177.5" font-family="Helvetica,sans-Serif" font-size="10.00">src/node/node_state.h</text>
</a>
</g>
</g>
<!-- Node8&#45;&gt;Node9 -->
<g id="edge9" class="edge">
<title>Node8&#45;&gt;Node9</title>
<path fill="none" stroke="#63b8ff" d="M1113.72,-231.02C1093.66,-218.43 1064.8,-200.32 1047.86,-189.7"/>
<polygon fill="#63b8ff" stroke="#63b8ff" points="1111.91,-234.02 1122.24,-236.37 1115.63,-228.09 1111.91,-234.02"/>
</g>
<!-- Node9&#45;&gt;Node3 -->
<g id="edge10" class="edge">
<title>Node9&#45;&gt;Node3</title>
<path fill="none" stroke="#63b8ff" d="M1061.17,-166.08C1095.04,-150.49 1155.05,-124.58 1209,-110 1286.57,-89.04 1378.66,-77.01 1437.92,-70.87"/>
<polygon fill="#63b8ff" stroke="#63b8ff" points="1059.53,-162.98 1051.94,-170.37 1062.48,-169.33 1059.53,-162.98"/>
</g>
<!-- Node10 -->
<g id="node10" class="node">
<title>Node10</title>
<g id="a_node10"><a xlink:href="gov__effects_8h.html" target="_top" xlink:title=" ">
<polygon fill="white" stroke="#666666" points="1362,-129 1218,-129 1218,-110 1362,-110 1362,-129"/>
<text text-anchor="middle" x="1290" y="-117" font-family="Helvetica,sans-Serif" font-size="10.00">src/node/rpc/gov_effects.h</text>
</a>
</g>
</g>
<!-- Node9&#45;&gt;Node10 -->
<g id="edge11" class="edge">
<title>Node9&#45;&gt;Node10</title>
<path fill="none" stroke="#63b8ff" d="M1081.04,-168.25C1130.49,-156.95 1207.3,-139.4 1252.73,-129.02"/>
<polygon fill="#63b8ff" stroke="#63b8ff" points="1080.19,-164.85 1071.22,-170.49 1081.75,-171.68 1080.19,-164.85"/>
</g>
<!-- Node10&#45;&gt;Node3 -->
<g id="edge12" class="edge">
<title>Node10&#45;&gt;Node3</title>
<path fill="none" stroke="#63b8ff" d="M1333.37,-107.5C1372.51,-97.58 1429.28,-83.18 1465.16,-74.08"/>
<polygon fill="#63b8ff" stroke="#63b8ff" points="1332.41,-104.13 1323.58,-109.98 1334.13,-110.92 1332.41,-104.13"/>
</g>
<!-- Node11&#45;&gt;Node3 -->
<g id="edge14" class="edge">
<title>Node11&#45;&gt;Node3</title>
<path fill="none" stroke="#63b8ff" d="M1510.15,-442.79C1779.61,-441.05 2636,-426.57 2636,-313 2636,-313 2636,-313 2636,-179 2636,-156.33 2728.38,-166.19 2485,-110 2307.81,-69.09 1746.65,-65.43 1560.02,-65.37"/>
<polygon fill="#63b8ff" stroke="#63b8ff" points="1510.03,-439.29 1500.05,-442.85 1510.07,-446.29 1510.03,-439.29"/>
</g>
<!-- Node11&#45;&gt;Node9 -->
<g id="edge38" class="edge">
<title>Node11&#45;&gt;Node9</title>
<path fill="none" stroke="#63b8ff" d="M1424.73,-424.64C1419.59,-408.01 1410.94,-383.09 1400,-363 1382.53,-330.92 1378.35,-321.22 1351,-297 1277.18,-231.63 1163.47,-202.08 1094.18,-189.5"/>
<polygon fill="#63b8ff" stroke="#63b8ff" points="1421.39,-425.67 1427.6,-434.25 1428.09,-423.67 1421.39,-425.67"/>
</g>
<!-- Node12 -->
<g id="node12" class="node">
<title>Node12</title>
<g id="a_node12"><a xlink:href="wrap_8h.html" target="_top" xlink:title=" ">
<polygon fill="white" stroke="#666666" points="2091,-387.5 2013,-387.5 2013,-368.5 2091,-368.5 2091,-387.5"/>
<text text-anchor="middle" x="2052" y="-375.5" font-family="Helvetica,sans-Serif" font-size="10.00">src/js/wrap.h</text>
</a>
</g>
</g>
<!-- Node11&#45;&gt;Node12 -->
<g id="edge15" class="edge">
<title>Node11&#45;&gt;Node12</title>
<path fill="none" stroke="#63b8ff" d="M1510.42,-434.73C1645.39,-420.84 1912.57,-393.35 2012.8,-383.03"/>
<polygon fill="#63b8ff" stroke="#63b8ff" points="1509.73,-431.28 1500.14,-435.78 1510.45,-438.24 1509.73,-431.28"/>
</g>
<!-- Node21 -->
<g id="node21" class="node">
<title>Node21</title>
<g id="a_node21"><a xlink:href="node__frontend_8h.html" target="_top" xlink:title=" ">
<polygon fill="white" stroke="#666666" points="1556,-321.5 1398,-321.5 1398,-302.5 1556,-302.5 1556,-321.5"/>
<text text-anchor="middle" x="1477" y="-309.5" font-family="Helvetica,sans-Serif" font-size="10.00">src/node/rpc/node_frontend.h</text>
</a>
</g>
</g>
<!-- Node11&#45;&gt;Node21 -->
<g id="edge39" class="edge">
<title>Node11&#45;&gt;Node21</title>
<path fill="none" stroke="#63b8ff" d="M1452.28,-428.29C1463.46,-419.53 1475.9,-407.32 1482,-393 1492.25,-368.93 1484.75,-337.07 1480.04,-321.84"/>
<polygon fill="#63b8ff" stroke="#63b8ff" points="1450.09,-425.56 1444.1,-434.3 1454.23,-431.2 1450.09,-425.56"/>
</g>
<!-- Node23 -->
<g id="node23" class="node">
<title>Node23</title>
<g id="a_node23"><a xlink:href="acme__challenge__frontend_8h.html" target="_top" xlink:title=" ">
<polygon fill="white" stroke="#666666" points="1342,-327 1202,-327 1202,-297 1342,-297 1342,-327"/>
<text text-anchor="start" x="1210" y="-315" font-family="Helvetica,sans-Serif" font-size="10.00">src/node/acme_challenge</text>
<text text-anchor="middle" x="1272" y="-304" font-family="Helvetica,sans-Serif" font-size="10.00">_frontend.h</text>
</a>
</g>
</g>
<!-- Node11&#45;&gt;Node23 -->
<g id="edge35" class="edge">
<title>Node11&#45;&gt;Node23</title>
<path fill="none" stroke="#63b8ff" d="M1420.82,-425.32C1410.95,-407.69 1393.83,-380.75 1373,-363 1354.83,-347.52 1331.04,-335.44 1311.11,-327.03"/>
<polygon fill="#63b8ff" stroke="#63b8ff" points="1417.94,-427.35 1425.77,-434.48 1424.1,-424.02 1417.94,-427.35"/>
</g>
<!-- Node24 -->
<g id="node24" class="node">
<title>Node24</title>
<g id="a_node24"><a xlink:href="user__frontend_8h.html" target="_top" xlink:title=" ">
<polygon fill="white" stroke="#666666" points="1729.5,-321.5 1574.5,-321.5 1574.5,-302.5 1729.5,-302.5 1729.5,-321.5"/>
<text text-anchor="middle" x="1652" y="-309.5" font-family="Helvetica,sans-Serif" font-size="10.00">src/node/rpc/user_frontend.h</text>
</a>
</g>
</g>
<!-- Node11&#45;&gt;Node24 -->
<g id="edge40" class="edge">
<title>Node11&#45;&gt;Node24</title>
<path fill="none" stroke="#63b8ff" d="M1453.2,-429.41C1498.97,-402.61 1599.69,-343.63 1637.38,-321.56"/>
<polygon fill="#63b8ff" stroke="#63b8ff" points="1451.43,-426.4 1444.57,-434.47 1454.96,-432.44 1451.43,-426.4"/>
</g>
<!-- Node25 -->
<g id="node25" class="node">
<title>Node25</title>
<g id="a_node25"><a xlink:href="secret__broadcast_8h.html" target="_top" xlink:title=" ">
<polygon fill="white" stroke="#666666" points="1177.5,-387.5 1024.5,-387.5 1024.5,-368.5 1177.5,-368.5 1177.5,-387.5"/>
<text text-anchor="middle" x="1101" y="-375.5" font-family="Helvetica,sans-Serif" font-size="10.00">src/node/secret_broadcast.h</text>
</a>
</g>
</g>
<!-- Node11&#45;&gt;Node25 -->
<g id="edge42" class="edge">
<title>Node11&#45;&gt;Node25</title>
<path fill="none" stroke="#63b8ff" d="M1375.98,-432.49C1311.36,-419.92 1204.47,-399.13 1144.77,-387.51"/>
<polygon fill="#63b8ff" stroke="#63b8ff" points="1375.49,-435.96 1385.97,-434.44 1376.82,-429.09 1375.49,-435.96"/>
</g>
<!-- Node26 -->
<g id="node26" class="node">
<title>Node26</title>
<g id="a_node26"><a xlink:href="share__manager_8h.html" target="_top" xlink:title=" ">
<polygon fill="white" stroke="#666666" points="967.5,-387.5 822.5,-387.5 822.5,-368.5 967.5,-368.5 967.5,-387.5"/>
<text text-anchor="middle" x="895" y="-375.5" font-family="Helvetica,sans-Serif" font-size="10.00">src/node/share_manager.h</text>
</a>
</g>
</g>
<!-- Node11&#45;&gt;Node26 -->
<g id="edge44" class="edge">
<title>Node11&#45;&gt;Node26</title>
<path fill="none" stroke="#63b8ff" d="M1349.64,-433.39C1245.51,-420.93 1065.57,-399.4 966.16,-387.51"/>
<polygon fill="#63b8ff" stroke="#63b8ff" points="1349.44,-436.89 1359.78,-434.6 1350.27,-429.94 1349.44,-436.89"/>
</g>
<!-- Node27 -->
<g id="node27" class="node">
<title>Node27</title>
<g id="a_node27"><a xlink:href="snapshotter_8h.html" target="_top" xlink:title=" ">
<polygon fill="white" stroke="#666666" points="753.5,-321.5 626.5,-321.5 626.5,-302.5 753.5,-302.5 753.5,-321.5"/>
<text text-anchor="middle" x="690" y="-309.5" font-family="Helvetica,sans-Serif" font-size="10.00">src/node/snapshotter.h</text>
</a>
</g>
</g>
<!-- Node11&#45;&gt;Node27 -->
<g id="edge47" class="edge">
<title>Node11&#45;&gt;Node27</title>
<path fill="none" stroke="#63b8ff" d="M1349.51,-438.69C1193.86,-430.03 862.53,-409.9 813,-393 765.99,-376.96 719.23,-338.94 699.61,-321.73"/>
<polygon fill="#63b8ff" stroke="#63b8ff" points="1349.77,-442.21 1359.95,-439.27 1350.16,-435.22 1349.77,-442.21"/>
</g>
<!-- Node12&#45;&gt;Node3 -->
<g id="edge17" class="edge">
<title>Node12&#45;&gt;Node3</title>
<path fill="none" stroke="#63b8ff" d="M2101.15,-374.86C2221.14,-369.26 2521.92,-352.8 2559,-327 2591.47,-304.41 2598,-286.56 2598,-247 2598,-247 2598,-247 2598,-179 2598,-73.8 1790.97,-65.55 1560.05,-65.35"/>
<polygon fill="#63b8ff" stroke="#63b8ff" points="2100.96,-371.37 2091.13,-375.32 2101.28,-378.36 2100.96,-371.37"/>
</g>
<!-- Node12&#45;&gt;Node9 -->
<g id="edge28" class="edge">
<title>Node12&#45;&gt;Node9</title>
<path fill="none" stroke="#63b8ff" d="M2002.76,-375.2C1946.03,-371.54 1851.11,-360.46 1777,-327 1757.39,-318.15 1758.04,-307.02 1739,-297 1651.29,-250.85 1623.11,-250.77 1526,-231 1373.51,-199.95 1190.32,-187.8 1096.34,-183.36"/>
<polygon fill="#63b8ff" stroke="#63b8ff" points="2002.7,-378.7 2012.89,-375.8 2003.12,-371.72 2002.7,-378.7"/>
</g>
<!-- Node13 -->
<g id="node13" class="node">
<title>Node13</title>
<g id="a_node13"><a xlink:href="js__generic__base_8cpp.html" target="_top" xlink:title=" ">
<polygon fill="white" stroke="#666666" points="2050,-327 1932,-327 1932,-297 2050,-297 2050,-327"/>
<text text-anchor="start" x="1940" y="-315" font-family="Helvetica,sans-Serif" font-size="10.00">src/apps/js_generic</text>
<text text-anchor="middle" x="1991" y="-304" font-family="Helvetica,sans-Serif" font-size="10.00">/js_generic_base.cpp</text>
</a>
</g>
</g>
<!-- Node12&#45;&gt;Node13 -->
<g id="edge16" class="edge">
<title>Node12&#45;&gt;Node13</title>
<path fill="none" stroke="#63b8ff" d="M2036.61,-360.85C2026.78,-350.54 2014.16,-337.3 2004.69,-327.36"/>
<polygon fill="#63b8ff" stroke="#63b8ff" points="2034.34,-363.54 2043.77,-368.37 2039.41,-358.72 2034.34,-363.54"/>
</g>
<!-- Node14 -->
<g id="node14" class="node">
<title>Node14</title>
<g id="a_node14"><a xlink:href="consensus_8cpp.html" target="_top" xlink:title=" ">
<polygon fill="white" stroke="#666666" points="2532,-321.5 2416,-321.5 2416,-302.5 2532,-302.5 2532,-321.5"/>
<text text-anchor="middle" x="2474" y="-309.5" font-family="Helvetica,sans-Serif" font-size="10.00">src/js/consensus.cpp</text>
</a>
</g>
</g>
<!-- Node12&#45;&gt;Node14 -->
<g id="edge18" class="edge">
<title>Node12&#45;&gt;Node14</title>
<path fill="none" stroke="#63b8ff" d="M2101.09,-371.13C2169.75,-362.68 2298.24,-346 2407,-327 2416.25,-325.38 2426.17,-323.43 2435.47,-321.51"/>
<polygon fill="#63b8ff" stroke="#63b8ff" points="2100.51,-367.67 2091,-372.36 2101.36,-374.62 2100.51,-367.67"/>
</g>
<!-- Node15 -->
<g id="node15" class="node">
<title>Node15</title>
<g id="a_node15"><a xlink:href="wrap_8cpp.html" target="_top" xlink:title=" ">
<polygon fill="white" stroke="#666666" points="2387.5,-255.5 2298.5,-255.5 2298.5,-236.5 2387.5,-236.5 2387.5,-255.5"/>
<text text-anchor="middle" x="2343" y="-243.5" font-family="Helvetica,sans-Serif" font-size="10.00">src/js/wrap.cpp</text>
</a>
</g>
</g>
<!-- Node12&#45;&gt;Node15 -->
<g id="edge27" class="edge">
<title>Node12&#45;&gt;Node15</title>
<path fill="none" stroke="#63b8ff" d="M2101.41,-375.63C2219.77,-371.82 2511.89,-359.24 2541,-327 2587.65,-275.34 2459.37,-256.42 2387.66,-250.01"/>
<polygon fill="#63b8ff" stroke="#63b8ff" points="2101.06,-372.13 2091.18,-375.95 2101.28,-379.13 2101.06,-372.13"/>
</g>
<!-- Node16 -->
<g id="node16" class="node">
<title>Node16</title>
<g id="a_node16"><a xlink:href="conv_8cpp.html" target="_top" xlink:title=" ">
<polygon fill="white" stroke="#666666" points="2156,-321.5 2068,-321.5 2068,-302.5 2156,-302.5 2156,-321.5"/>
<text text-anchor="middle" x="2112" y="-309.5" font-family="Helvetica,sans-Serif" font-size="10.00">src/js/conv.cpp</text>
</a>
</g>
</g>
<!-- Node12&#45;&gt;Node16 -->
<g id="edge20" class="edge">
<title>Node12&#45;&gt;Node16</title>
<path fill="none" stroke="#63b8ff" d="M2067.02,-360.98C2078.6,-348.62 2094.2,-331.99 2103.65,-321.91"/>
<polygon fill="#63b8ff" stroke="#63b8ff" points="2064.38,-358.68 2060.09,-368.37 2069.48,-363.47 2064.38,-358.68"/>
</g>
<!-- Node17 -->
<g id="node17" class="node">
<title>Node17</title>
<g id="a_node17"><a xlink:href="crypto_8cpp.html" target="_top" xlink:title=" ">
<polygon fill="white" stroke="#666666" points="2270,-321.5 2174,-321.5 2174,-302.5 2270,-302.5 2270,-321.5"/>
<text text-anchor="middle" x="2222" y="-309.5" font-family="Helvetica,sans-Serif" font-size="10.00">src/js/crypto.cpp</text>
</a>
</g>
</g>
<!-- Node12&#45;&gt;Node17 -->
<g id="edge22" class="edge">
<title>Node12&#45;&gt;Node17</title>
<path fill="none" stroke="#63b8ff" d="M2084.3,-364.84C2117.89,-352.2 2169.6,-332.73 2199.17,-321.6"/>
<polygon fill="#63b8ff" stroke="#63b8ff" points="2083.05,-361.57 2074.93,-368.37 2085.52,-368.12 2083.05,-361.57"/>
</g>
<!-- Node18 -->
<g id="node18" class="node">
<title>Node18</title>
<g id="a_node18"><a xlink:href="historical_8cpp.html" target="_top" xlink:title=" ">
<polygon fill="white" stroke="#666666" points="2398,-321.5 2288,-321.5 2288,-302.5 2398,-302.5 2398,-321.5"/>
<text text-anchor="middle" x="2343" y="-309.5" font-family="Helvetica,sans-Serif" font-size="10.00">src/js/historical.cpp</text>
</a>
</g>
</g>
<!-- Node12&#45;&gt;Node18 -->
<g id="edge24" class="edge">
<title>Node12&#45;&gt;Node18</title>
<path fill="none" stroke="#63b8ff" d="M2100.85,-366.26C2158.1,-353.67 2251.81,-333.06 2304.29,-321.51"/>
<polygon fill="#63b8ff" stroke="#63b8ff" points="2099.96,-362.87 2090.94,-368.44 2101.46,-369.71 2099.96,-362.87"/>
</g>
<!-- Node19 -->
<g id="node19" class="node">
<title>Node19</title>
<g id="a_node19"><a xlink:href="openenclave_8cpp.html" target="_top" xlink:title=" ">
<polygon fill="white" stroke="#666666" points="1914,-321.5 1786,-321.5 1786,-302.5 1914,-302.5 1914,-321.5"/>
<text text-anchor="middle" x="1850" y="-309.5" font-family="Helvetica,sans-Serif" font-size="10.00">src/js/openenclave.cpp</text>
</a>
</g>
</g>
<!-- Node12&#45;&gt;Node19 -->
<g id="edge26" class="edge">
<title>Node12&#45;&gt;Node19</title>
<path fill="none" stroke="#63b8ff" d="M2015.15,-365.32C1975.3,-352.7 1912.72,-332.87 1877.13,-321.6"/>
<polygon fill="#63b8ff" stroke="#63b8ff" points="2014.17,-368.68 2024.76,-368.37 2016.28,-362.01 2014.17,-368.68"/>
</g>
<!-- Node20 -->
<g id="node20" class="node">
<title>Node20</title>
<g id="a_node20"><a xlink:href="member__frontend_8h.html" target="_top" xlink:title=" ">
<polygon fill="white" stroke="#666666" points="930,-327 810,-327 810,-297 930,-297 930,-327"/>
<text text-anchor="start" x="818" y="-315" font-family="Helvetica,sans-Serif" font-size="10.00">src/node/rpc/member</text>
<text text-anchor="middle" x="870" y="-304" font-family="Helvetica,sans-Serif" font-size="10.00">_frontend.h</text>
</a>
</g>
</g>
<!-- Node12&#45;&gt;Node20 -->
<g id="edge29" class="edge">
<title>Node12&#45;&gt;Node20</title>
<path fill="none" stroke="#63b8ff" d="M2002.47,-374.32C1813.26,-364.07 1136.38,-327.42 930.1,-316.25"/>
<polygon fill="#63b8ff" stroke="#63b8ff" points="2002.5,-377.82 2012.67,-374.87 2002.88,-370.83 2002.5,-377.82"/>
</g>
<!-- Node12&#45;&gt;Node21 -->
<g id="edge31" class="edge">
<title>Node12&#45;&gt;Node21</title>
<path fill="none" stroke="#63b8ff" d="M2002.65,-372.8C1914.72,-365.13 1725.23,-347.7 1566,-327 1553.75,-325.41 1540.58,-323.46 1528.23,-321.54"/>
<polygon fill="#63b8ff" stroke="#63b8ff" points="2002.59,-376.31 2012.86,-373.69 2003.2,-369.34 2002.59,-376.31"/>
</g>
<!-- Node14&#45;&gt;Node15 -->
<g id="edge19" class="edge">
<title>Node14&#45;&gt;Node15</title>
<path fill="none" stroke="#63b8ff" d="M2447.11,-297.86C2421.3,-285.25 2383.04,-266.56 2360.81,-255.7"/>
<polygon fill="#63b8ff" stroke="#63b8ff" points="2445.81,-301.12 2456.33,-302.37 2448.88,-294.83 2445.81,-301.12"/>
</g>
<!-- Node16&#45;&gt;Node15 -->
<g id="edge21" class="edge">
<title>Node16&#45;&gt;Node15</title>
<path fill="none" stroke="#63b8ff" d="M2152.99,-299.64C2198.5,-287.03 2270.93,-266.97 2311.97,-255.6"/>
<polygon fill="#63b8ff" stroke="#63b8ff" points="2151.86,-296.33 2143.15,-302.37 2153.73,-303.07 2151.86,-296.33"/>
</g>
<!-- Node17&#45;&gt;Node15 -->
<g id="edge23" class="edge">
<title>Node17&#45;&gt;Node15</title>
<path fill="none" stroke="#63b8ff" d="M2247.47,-297.53C2271.3,-284.92 2306.2,-266.47 2326.55,-255.7"/>
<polygon fill="#63b8ff" stroke="#63b8ff" points="2245.52,-294.6 2238.32,-302.37 2248.79,-300.79 2245.52,-294.6"/>
</g>
<!-- Node18&#45;&gt;Node15 -->
<g id="edge25" class="edge">
<title>Node18&#45;&gt;Node15</title>
<path fill="none" stroke="#63b8ff" d="M2343,-292.08C2343,-280.13 2343,-265.22 2343,-255.91"/>
<polygon fill="#63b8ff" stroke="#63b8ff" points="2339.5,-292.37 2343,-302.37 2346.5,-292.37 2339.5,-292.37"/>
</g>
<!-- Node20&#45;&gt;Node3 -->
<g id="edge30" class="edge">
<title>Node20&#45;&gt;Node3</title>
<path fill="none" stroke="#63b8ff" d="M878.79,-287.42C892.06,-255.02 920.31,-197.11 963,-165 1037.32,-109.11 1313.34,-80.4 1437.64,-70.07"/>
<polygon fill="#63b8ff" stroke="#63b8ff" points="875.43,-286.39 875,-296.98 881.94,-288.97 875.43,-286.39"/>
</g>
<!-- Node21&#45;&gt;Node3 -->
<g id="edge32" class="edge">
<title>Node21&#45;&gt;Node3</title>
<path fill="none" stroke="#63b8ff" d="M1513.62,-298.39C1530.63,-290.49 1549.22,-278.42 1559,-261 1591.86,-202.48 1589.17,-169.95 1559,-110 1550.6,-93.32 1532.67,-81.32 1518.58,-74.02"/>
<polygon fill="#63b8ff" stroke="#63b8ff" points="1512.2,-295.2 1504.4,-302.37 1514.97,-301.62 1512.2,-295.2"/>
</g>
<!-- Node22 -->
<g id="node22" class="node">
<title>Node22</title>
<g id="a_node22"><a xlink:href="jwt__key__auto__refresh_8h.html" target="_top" xlink:title=" ">
<polygon fill="white" stroke="#666666" points="1516.5,-261 1391.5,-261 1391.5,-231 1516.5,-231 1516.5,-261"/>
<text text-anchor="start" x="1399.5" y="-249" font-family="Helvetica,sans-Serif" font-size="10.00">src/node/jwt_key_auto</text>
<text text-anchor="middle" x="1454" y="-238" font-family="Helvetica,sans-Serif" font-size="10.00">_refresh.h</text>
</a>
</g>
</g>
<!-- Node21&#45;&gt;Node22 -->
<g id="edge33" class="edge">
<title>Node21&#45;&gt;Node22</title>
<path fill="none" stroke="#63b8ff" d="M1470.41,-292.67C1466.84,-282.72 1462.49,-270.61 1459.16,-261.36"/>
<polygon fill="#63b8ff" stroke="#63b8ff" points="1467.22,-294.14 1473.9,-302.37 1473.81,-291.77 1467.22,-294.14"/>
</g>
<!-- Node22&#45;&gt;Node9 -->
<g id="edge34" class="edge">
<title>Node22&#45;&gt;Node9</title>
<path fill="none" stroke="#63b8ff" d="M1381.44,-231.73C1379.95,-231.49 1378.47,-231.24 1377,-231 1279.01,-214.95 1164.85,-198.82 1096.06,-189.38"/>
<polygon fill="#63b8ff" stroke="#63b8ff" points="1380.97,-235.2 1391.42,-233.43 1382.15,-228.3 1380.97,-235.2"/>
</g>
<!-- Node23&#45;&gt;Node3 -->
<g id="edge36" class="edge">
<title>Node23&#45;&gt;Node3</title>
<path fill="none" stroke="#63b8ff" d="M1352.48,-300.33C1422.61,-290.21 1514.84,-274.57 1526,-261 1573.01,-203.84 1521.47,-103.96 1504.21,-74.14"/>
<polygon fill="#63b8ff" stroke="#63b8ff" points="1351.7,-296.9 1342.3,-301.78 1352.69,-303.83 1351.7,-296.9"/>
</g>
<!-- Node23&#45;&gt;Node8 -->
<g id="edge37" class="edge">
<title>Node23&#45;&gt;Node8</title>
<path fill="none" stroke="#63b8ff" d="M1232.94,-292.62C1206.99,-280.41 1174.12,-264.94 1154.1,-255.52"/>
<polygon fill="#63b8ff" stroke="#63b8ff" points="1231.62,-295.86 1242.15,-296.95 1234.6,-289.53 1231.62,-295.86"/>
</g>
<!-- Node24&#45;&gt;Node3 -->
<g id="edge41" class="edge">
<title>Node24&#45;&gt;Node3</title>
<path fill="none" stroke="#63b8ff" d="M1649.34,-292.07C1643.08,-253.67 1624.23,-165.54 1577,-110 1562.66,-93.14 1540.23,-81.29 1523.09,-74.08"/>
<polygon fill="#63b8ff" stroke="#63b8ff" points="1645.93,-292.94 1650.9,-302.3 1652.85,-291.89 1645.93,-292.94"/>
</g>
<!-- Node25&#45;&gt;Node9 -->
<g id="edge43" class="edge">
<title>Node25&#45;&gt;Node9</title>
<path fill="none" stroke="#63b8ff" d="M1092.58,-359.17C1082.19,-336.68 1064.52,-296.63 1053,-261 1044.74,-235.46 1038.37,-204.29 1035.56,-189.53"/>
<polygon fill="#63b8ff" stroke="#63b8ff" points="1089.5,-360.86 1096.91,-368.45 1095.85,-357.9 1089.5,-360.86"/>
</g>
<!-- Node26&#45;&gt;Node9 -->
<g id="edge45" class="edge">
<title>Node26&#45;&gt;Node9</title>
<path fill="none" stroke="#63b8ff" d="M911.24,-361.08C920.19,-351.72 931.07,-339.34 939,-327 964.28,-287.68 955.1,-269.24 982,-231 993.67,-214.41 1011.4,-198.79 1022.84,-189.56"/>
<polygon fill="#63b8ff" stroke="#63b8ff" points="908.51,-358.87 903.99,-368.45 913.5,-363.78 908.51,-358.87"/>
</g>
<!-- Node26&#45;&gt;Node20 -->
<g id="edge46" class="edge">
<title>Node26&#45;&gt;Node20</title>
<path fill="none" stroke="#63b8ff" d="M887.96,-358.98C884.06,-348.98 879.26,-336.71 875.61,-327.36"/>
<polygon fill="#63b8ff" stroke="#63b8ff" points="884.73,-360.33 891.63,-368.37 891.25,-357.78 884.73,-360.33"/>
</g>
<!-- Node27&#45;&gt;Node9 -->
<g id="edge48" class="edge">
<title>Node27&#45;&gt;Node9</title>
<path fill="none" stroke="#63b8ff" d="M701.63,-293.92C715.26,-275.32 739.62,-246.21 768,-231 831.99,-196.71 915.63,-185.6 971.89,-182.18"/>
<polygon fill="#63b8ff" stroke="#63b8ff" points="698.6,-292.14 695.67,-302.32 704.31,-296.19 698.6,-292.14"/>
</g>
<!-- Node28&#45;&gt;Node9 -->
<g id="edge50" class="edge">
<title>Node28&#45;&gt;Node9</title>
<path fill="none" stroke="#63b8ff" d="M1044.75,-423.7C1032.99,-415.91 1021.54,-405.72 1015,-393 978.48,-322.03 1017.11,-219.9 1030.08,-189.71"/>
<polygon fill="#63b8ff" stroke="#63b8ff" points="1042.95,-426.7 1053.3,-428.94 1046.61,-420.73 1042.95,-426.7"/>
</g>
<!-- Node28&#45;&gt;Node20 -->
<g id="edge51" class="edge">
<title>Node28&#45;&gt;Node20</title>
<path fill="none" stroke="#63b8ff" d="M1019.5,-440.3C947.56,-435.8 838.77,-423.94 813,-393 794.66,-370.99 824.94,-343.41 847.92,-327.06"/>
<polygon fill="#63b8ff" stroke="#63b8ff" points="1019.65,-443.82 1029.84,-440.91 1020.06,-436.83 1019.65,-443.82"/>
</g>
<!-- Node28&#45;&gt;Node21 -->
<g id="edge52" class="edge">
<title>Node28&#45;&gt;Node21</title>
<path fill="none" stroke="#63b8ff" d="M1150.17,-440.58C1210.28,-436.33 1300.86,-424.68 1373,-393 1413.46,-375.23 1452.32,-338.45 1468.77,-321.68"/>
<polygon fill="#63b8ff" stroke="#63b8ff" points="1149.8,-437.1 1140.05,-441.25 1150.26,-444.09 1149.8,-437.1"/>
</g>
<!-- Node28&#45;&gt;Node25 -->
<g id="edge53" class="edge">
<title>Node28&#45;&gt;Node25</title>
<path fill="none" stroke="#63b8ff" d="M1091.01,-418.94C1093.74,-408.06 1096.78,-395.86 1098.79,-387.84"/>
<polygon fill="#63b8ff" stroke="#63b8ff" points="1087.58,-418.25 1088.55,-428.8 1094.37,-419.94 1087.58,-418.25"/>
</g>
<!-- Node28&#45;&gt;Node26 -->
<g id="edge54" class="edge">
<title>Node28&#45;&gt;Node26</title>
<path fill="none" stroke="#63b8ff" d="M1033.75,-425.74C997.01,-413.36 949.12,-397.23 920.29,-387.52"/>
<polygon fill="#63b8ff" stroke="#63b8ff" points="1032.71,-429.08 1043.3,-428.95 1034.94,-422.45 1032.71,-429.08"/>
</g>
<!-- Node29&#45;&gt;Node7 -->
<g id="edge85" class="edge">
<title>Node29&#45;&gt;Node7</title>
<path fill="none" stroke="#63b8ff" d="M750.7,-677.96C771.88,-668.9 797.53,-657.43 820,-646 887.27,-611.79 897.66,-590.8 967,-561 1003.4,-545.35 1046.22,-532.74 1079.65,-524.1"/>
<polygon fill="#63b8ff" stroke="#63b8ff" points="749.15,-674.82 741.32,-681.95 751.89,-681.26 749.15,-674.82"/>
</g>
<!-- Node30 -->
<g id="node30" class="node">
<title>Node30</title>
<g id="a_node30"><a xlink:href="raft_8h.html" target="_top" xlink:title=" ">
<polygon fill="white" stroke="#666666" points="706.5,-585.5 577.5,-585.5 577.5,-566.5 706.5,-566.5 706.5,-585.5"/>
<text text-anchor="middle" x="642" y="-573.5" font-family="Helvetica,sans-Serif" font-size="10.00">src/consensus/aft/raft.h</text>
</a>
</g>
</g>
<!-- Node29&#45;&gt;Node30 -->
<g id="edge56" class="edge">
<title>Node29&#45;&gt;Node30</title>
<path fill="none" stroke="#63b8ff" d="M694.36,-672.86C679.82,-646.24 656.67,-603.86 646.76,-585.71"/>
<polygon fill="#63b8ff" stroke="#63b8ff" points="691.42,-674.78 699.29,-681.88 697.57,-671.43 691.42,-674.78"/>
</g>
<!-- Node31 -->
<g id="node31" class="node">
<title>Node31</title>
<g id="a_node31"><a xlink:href="deserialise_8h.html" target="_top" xlink:title=" ">
<polygon fill="white" stroke="#666666" points="811.5,-646 700.5,-646 700.5,-627 811.5,-627 811.5,-646"/>
<text text-anchor="middle" x="756" y="-634" font-family="Helvetica,sans-Serif" font-size="10.00">src/kv/deserialise.h</text>
</a>
</g>
</g>
<!-- Node29&#45;&gt;Node31 -->
<g id="edge58" class="edge">
<title>Node29&#45;&gt;Node31</title>
<path fill="none" stroke="#63b8ff" d="M725.35,-674.09C733.45,-664.42 742.5,-653.61 748.66,-646.27"/>
<polygon fill="#63b8ff" stroke="#63b8ff" points="722.6,-671.93 718.86,-681.84 727.97,-676.42 722.6,-671.93"/>
</g>
<!-- Node35 -->
<g id="node35" class="node">
<title>Node35</title>
<g id="a_node35"><a xlink:href="history_8h.html" target="_top" xlink:title=" ">
<polygon fill="white" stroke="#666666" points="573,-519.5 471,-519.5 471,-500.5 573,-500.5 573,-519.5"/>
<text text-anchor="middle" x="522" y="-507.5" font-family="Helvetica,sans-Serif" font-size="10.00">src/node/history.h</text>
</a>
</g>
</g>
<!-- Node29&#45;&gt;Node35 -->
<g id="edge82" class="edge">
<title>Node29&#45;&gt;Node35</title>
<path fill="none" stroke="#63b8ff" d="M673.89,-676.44C643.67,-657.4 599.09,-626.25 568,-591 547.86,-568.17 532.28,-535.16 525.58,-519.66"/>
<polygon fill="#63b8ff" stroke="#63b8ff" points="672.44,-679.65 682.78,-681.95 676.12,-673.7 672.44,-679.65"/>
</g>
<!-- Node41 -->
<g id="node41" class="node">
<title>Node41</title>
<g id="a_node41"><a xlink:href="src_2node_2hooks_8h.html" target="_top" xlink:title=" ">
<polygon fill="white" stroke="#666666" points="465.5,-646 366.5,-646 366.5,-627 465.5,-627 465.5,-646"/>
<text text-anchor="middle" x="416" y="-634" font-family="Helvetica,sans-Serif" font-size="10.00">src/node/hooks.h</text>
</a>
</g>
</g>
<!-- Node29&#45;&gt;Node41 -->
<g id="edge83" class="edge">
<title>Node29&#45;&gt;Node41</title>
<path fill="none" stroke="#63b8ff" d="M646.15,-683.77C589.93,-672.47 507.88,-655.97 458.45,-646.03"/>
<polygon fill="#63b8ff" stroke="#63b8ff" points="645.48,-687.2 655.98,-685.74 646.86,-680.34 645.48,-687.2"/>
</g>
<!-- Node30&#45;&gt;Node9 -->
<g id="edge57" class="edge">
<title>Node30&#45;&gt;Node9</title>
<path fill="none" stroke="#63b8ff" d="M640.8,-556.23C638.32,-519.19 632.1,-434.11 623,-363 619.26,-333.78 602.54,-322.66 617,-297 644.8,-247.66 672.85,-250.56 726,-231 807.72,-200.92 908.26,-188.9 971.75,-184.12"/>
<polygon fill="#63b8ff" stroke="#63b8ff" points="637.32,-556.74 641.47,-566.49 644.31,-556.29 637.32,-556.74"/>
</g>
<!-- Node32 -->
<g id="node32" class="node">
<title>Node32</title>
<g id="a_node32"><a xlink:href="store_8h.html" target="_top" xlink:title=" ">
<polygon fill="white" stroke="#666666" points="807.5,-585.5 724.5,-585.5 724.5,-566.5 807.5,-566.5 807.5,-585.5"/>
<text text-anchor="middle" x="766" y="-573.5" font-family="Helvetica,sans-Serif" font-size="10.00">src/kv/store.h</text>
</a>
</g>
</g>
<!-- Node31&#45;&gt;Node32 -->
<g id="edge59" class="edge">
<title>Node31&#45;&gt;Node32</title>
<path fill="none" stroke="#63b8ff" d="M759.16,-616.99C760.96,-606.51 763.11,-593.89 764.52,-585.67"/>
<polygon fill="#63b8ff" stroke="#63b8ff" points="755.71,-616.42 757.48,-626.87 762.61,-617.6 755.71,-616.42"/>
</g>
<!-- Node32&#45;&gt;Node2 -->
<g id="edge63" class="edge">
<title>Node32&#45;&gt;Node2</title>
<path fill="none" stroke="#63b8ff" d="M727.57,-563.9C723.35,-562.84 719.1,-561.85 715,-561 603.79,-537.92 573.38,-547.21 462,-525 346.77,-502.02 315.67,-501.17 206,-459 157.74,-440.44 105.05,-410.57 75.81,-393.06"/>
<polygon fill="#63b8ff" stroke="#63b8ff" points="726.73,-567.29 737.29,-566.44 728.51,-560.52 726.73,-567.29"/>
</g>
<!-- Node32&#45;&gt;Node7 -->
<g id="edge81" class="edge">
<title>Node32&#45;&gt;Node7</title>
<path fill="none" stroke="#63b8ff" d="M814.25,-564.44C820.22,-563.23 826.24,-562.05 832,-561 935.51,-542.08 962.38,-543.32 1066,-525 1070.52,-524.2 1075.19,-523.34 1079.88,-522.45"/>
<polygon fill="#63b8ff" stroke="#63b8ff" points="813.4,-561.04 804.32,-566.49 814.82,-567.89 813.4,-561.04"/>
</g>
<!-- Node32&#45;&gt;Node27 -->
<g id="edge80" class="edge">
<title>Node32&#45;&gt;Node27</title>
<path fill="none" stroke="#63b8ff" d="M752.93,-558.24C736.93,-536.67 710.57,-497.38 699,-459 683.91,-408.91 687.28,-344.9 689.17,-321.8"/>
<polygon fill="#63b8ff" stroke="#63b8ff" points="750.24,-560.49 759.07,-566.35 755.82,-556.26 750.24,-560.49"/>
</g>
<!-- Node33 -->
<g id="node33" class="node">
<title>Node33</title>
<g id="a_node33"><a xlink:href="indexer_8h.html" target="_top" xlink:title=" ">
<polygon fill="white" stroke="#666666" points="831.5,-453.5 708.5,-453.5 708.5,-434.5 831.5,-434.5 831.5,-453.5"/>
<text text-anchor="middle" x="770" y="-441.5" font-family="Helvetica,sans-Serif" font-size="10.00">src/indexing/indexer.h</text>
</a>
</g>
</g>
<!-- Node32&#45;&gt;Node33 -->
<g id="edge60" class="edge">
<title>Node32&#45;&gt;Node33</title>
<path fill="none" stroke="#63b8ff" d="M766.58,-556.23C767.45,-527.72 769.09,-474.59 769.73,-453.73"/>
<polygon fill="#63b8ff" stroke="#63b8ff" points="763.07,-556.37 766.26,-566.47 770.07,-556.58 763.07,-556.37"/>
</g>
<!-- Node34 -->
<g id="node34" class="node">
<title>Node34</title>
<g id="a_node34"><a xlink:href="visit__each__entry__in__map_8cpp.html" target="_top" xlink:title=" ">
<polygon fill="white" stroke="#666666" points="955.5,-525 794.5,-525 794.5,-495 955.5,-495 955.5,-525"/>
<text text-anchor="start" x="802.5" y="-513" font-family="Helvetica,sans-Serif" font-size="10.00">src/indexing/strategies</text>
<text text-anchor="middle" x="875" y="-502" font-family="Helvetica,sans-Serif" font-size="10.00">/visit_each_entry_in_map.cpp</text>
</a>
</g>
</g>
<!-- Node32&#45;&gt;Node34 -->
<g id="edge62" class="edge">
<title>Node32&#45;&gt;Node34</title>
<path fill="none" stroke="#63b8ff" d="M789.49,-561.21C807.64,-550.55 832.67,-535.85 850.96,-525.12"/>
<polygon fill="#63b8ff" stroke="#63b8ff" points="787.55,-558.29 780.7,-566.37 791.1,-564.32 787.55,-558.29"/>
</g>
<!-- Node32&#45;&gt;Node35 -->
<g id="edge64" class="edge">
<title>Node32&#45;&gt;Node35</title>
<path fill="none" stroke="#63b8ff" d="M725.41,-563.8C721.89,-562.85 718.39,-561.9 715,-561 659.15,-546.1 594.03,-529.36 555.51,-519.53"/>
<polygon fill="#63b8ff" stroke="#63b8ff" points="724.71,-567.24 735.27,-566.49 726.55,-560.48 724.71,-567.24"/>
</g>
<!-- Node40 -->
<g id="node40" class="node">
<title>Node40</title>
<g id="a_node40"><a xlink:href="frontend_8h.html" target="_top" xlink:title=" ">
<polygon fill="white" stroke="#666666" points="1363.5,-387.5 1234.5,-387.5 1234.5,-368.5 1363.5,-368.5 1363.5,-387.5"/>
<text text-anchor="middle" x="1299" y="-375.5" font-family="Helvetica,sans-Serif" font-size="10.00">src/node/rpc/frontend.h</text>
</a>
</g>
</g>
<!-- Node32&#45;&gt;Node40 -->
<g id="edge74" class="edge">
<title>Node32&#45;&gt;Node40</title>
<path fill="none" stroke="#63b8ff" d="M815.17,-564.19C889.41,-546.97 1033.69,-509.98 1149,-459 1200.29,-436.32 1258.07,-403.24 1284.46,-387.69"/>
<polygon fill="#63b8ff" stroke="#63b8ff" points="814.13,-560.84 805.17,-566.49 815.7,-567.66 814.13,-560.84"/>
</g>
<!-- Node33&#45;&gt;Node9 -->
<g id="edge61" class="edge">
<title>Node33&#45;&gt;Node9</title>
<path fill="none" stroke="#63b8ff" d="M769.05,-424.04C768.54,-393.95 771.72,-334.8 801,-297 849.56,-234.3 941.05,-203.05 993.78,-189.6"/>
<polygon fill="#63b8ff" stroke="#63b8ff" points="765.57,-424.5 769.4,-434.37 772.56,-424.26 765.57,-424.5"/>
</g>
<!-- Node35&#45;&gt;Node2 -->
<g id="edge65" class="edge">
<title>Node35&#45;&gt;Node2</title>
<path fill="none" stroke="#63b8ff" d="M467.01,-498.55C460.6,-497.34 454.16,-496.14 448,-495 359.62,-478.65 331.99,-493.51 249,-459 227.48,-450.05 226.85,-439.4 206,-429 174.24,-413.16 136.34,-400.74 106.2,-392.23"/>
<polygon fill="#63b8ff" stroke="#63b8ff" points="466.53,-502.02 477.01,-500.43 467.83,-495.14 466.53,-502.02"/>
</g>
<!-- Node35&#45;&gt;Node9 -->
<g id="edge66" class="edge">
<title>Node35&#45;&gt;Node9</title>
<path fill="none" stroke="#63b8ff" d="M504.8,-492.94C478.45,-466.31 433.16,-411.16 453,-363 484.48,-286.58 509.57,-266.95 584,-231 650.98,-198.65 864.85,-186.81 971.83,-182.83"/>
<polygon fill="#63b8ff" stroke="#63b8ff" points="502.67,-495.76 512.27,-500.25 507.57,-490.76 502.67,-495.76"/>
</g>
<!-- Node36 -->
<g id="node36" class="node">
<title>Node36</title>
<g id="a_node36"><a xlink:href="snapshot__serdes_8h.html" target="_top" xlink:title=" ">
<polygon fill="white" stroke="#666666" points="614,-387.5 462,-387.5 462,-368.5 614,-368.5 614,-387.5"/>
<text text-anchor="middle" x="538" y="-375.5" font-family="Helvetica,sans-Serif" font-size="10.00">src/node/snapshot_serdes.h</text>
</a>
</g>
</g>
<!-- Node35&#45;&gt;Node36 -->
<g id="edge67" class="edge">
<title>Node35&#45;&gt;Node36</title>
<path fill="none" stroke="#63b8ff" d="M524.31,-490.23C527.82,-461.72 534.36,-408.59 536.93,-387.73"/>
<polygon fill="#63b8ff" stroke="#63b8ff" points="520.8,-490.12 523.05,-500.47 527.75,-490.97 520.8,-490.12"/>
</g>
<!-- Node37 -->
<g id="node37" class="node">
<title>Node37</title>
<g id="a_node37"><a xlink:href="tx__receipt__impl_8h.html" target="_top" xlink:title=" ">
<polygon fill="white" stroke="#666666" points="368,-459 258,-459 258,-429 368,-429 368,-459"/>
<text text-anchor="start" x="266" y="-447" font-family="Helvetica,sans-Serif" font-size="10.00">src/node/tx_receipt</text>
<text text-anchor="middle" x="313" y="-436" font-family="Helvetica,sans-Serif" font-size="10.00">_impl.h</text>
</a>
</g>
</g>
<!-- Node35&#45;&gt;Node37 -->
<g id="edge69" class="edge">
<title>Node35&#45;&gt;Node37</title>
<path fill="none" stroke="#63b8ff" d="M483.94,-497.35C448.82,-486.59 396.57,-470.59 359.1,-459.12"/>
<polygon fill="#63b8ff" stroke="#63b8ff" points="483.23,-500.79 493.81,-500.37 485.28,-494.09 483.23,-500.79"/>
</g>
<!-- Node36&#45;&gt;Node27 -->
<g id="edge68" class="edge">
<title>Node36&#45;&gt;Node27</title>
<path fill="none" stroke="#63b8ff" d="M568.02,-364.36C597.98,-351.75 643.2,-332.71 669.34,-321.7"/>
<polygon fill="#63b8ff" stroke="#63b8ff" points="566.36,-361.26 558.5,-368.37 569.07,-367.71 566.36,-361.26"/>
</g>
<!-- Node37&#45;&gt;Node2 -->
<g id="edge70" class="edge">
<title>Node37&#45;&gt;Node2</title>
<path fill="none" stroke="#63b8ff" d="M247.9,-426.98C204.18,-416.21 147.3,-402.21 106.28,-392.12"/>
<polygon fill="#63b8ff" stroke="#63b8ff" points="247.31,-430.44 257.86,-429.43 248.99,-423.64 247.31,-430.44"/>
</g>
<!-- Node37&#45;&gt;Node36 -->
<g id="edge73" class="edge">
<title>Node37&#45;&gt;Node36</title>
<path fill="none" stroke="#63b8ff" d="M372.04,-426.21C415.74,-413.78 473.47,-397.35 508.06,-387.52"/>
<polygon fill="#63b8ff" stroke="#63b8ff" points="371.04,-422.85 362.38,-428.95 372.95,-429.59 371.04,-422.85"/>
</g>
<!-- Node38 -->
<g id="node38" class="node">
<title>Node38</title>
<g id="a_node38"><a xlink:href="historical__queries__adapter_8cpp.html" target="_top" xlink:title=" ">
<polygon fill="white" stroke="#666666" points="244,-393 124,-393 124,-363 244,-363 244,-393"/>
<text text-anchor="start" x="132" y="-381" font-family="Helvetica,sans-Serif" font-size="10.00">src/node/historical</text>
<text text-anchor="middle" x="184" y="-370" font-family="Helvetica,sans-Serif" font-size="10.00">_queries_adapter.cpp</text>
</a>
</g>
</g>
<!-- Node37&#45;&gt;Node38 -->
<g id="edge71" class="edge">
<title>Node37&#45;&gt;Node38</title>
<path fill="none" stroke="#63b8ff" d="M275.46,-424.38C255.28,-414.36 230.8,-402.22 212.24,-393.01"/>
<polygon fill="#63b8ff" stroke="#63b8ff" points="274.18,-427.65 284.69,-428.95 277.29,-421.38 274.18,-427.65"/>
</g>
<!-- Node39 -->
<g id="node39" class="node">
<title>Node39</title>
<g id="a_node39"><a xlink:href="historical__queries__utils_8cpp.html" target="_top" xlink:title=" ">
<polygon fill="white" stroke="#666666" points="368,-393 262,-393 262,-363 368,-363 368,-393"/>
<text text-anchor="start" x="270" y="-381" font-family="Helvetica,sans-Serif" font-size="10.00">src/node/historical</text>
<text text-anchor="middle" x="315" y="-370" font-family="Helvetica,sans-Serif" font-size="10.00">_queries_utils.cpp</text>
</a>
</g>
</g>
<!-- Node37&#45;&gt;Node39 -->
<g id="edge72" class="edge">
<title>Node37&#45;&gt;Node39</title>
<path fill="none" stroke="#63b8ff" d="M313.76,-418.54C314.03,-409.96 314.32,-400.61 314.56,-393.16"/>
<polygon fill="#63b8ff" stroke="#63b8ff" points="310.26,-418.69 313.44,-428.8 317.25,-418.91 310.26,-418.69"/>
</g>
<!-- Node40&#45;&gt;Node9 -->
<g id="edge76" class="edge">
<title>Node40&#45;&gt;Node9</title>
<path fill="none" stroke="#63b8ff" d="M1246.87,-365.31C1226.43,-357.9 1205.04,-345.99 1193,-327 1169.33,-289.67 1245.87,-266.1 1219,-231 1203.88,-211.25 1143.33,-197.52 1095.56,-189.51"/>
<polygon fill="#63b8ff" stroke="#63b8ff" points="1245.87,-368.66 1256.46,-368.5 1248.07,-362.02 1245.87,-368.66"/>
</g>
<!-- Node40&#45;&gt;Node20 -->
<g id="edge77" class="edge">
<title>Node40&#45;&gt;Node20</title>
<path fill="none" stroke="#63b8ff" d="M1231.53,-366.93C1148.71,-354.58 1009.52,-333.81 930.18,-321.98"/>
<polygon fill="#63b8ff" stroke="#63b8ff" points="1231.18,-370.42 1241.59,-368.44 1232.21,-363.5 1231.18,-370.42"/>
</g>
<!-- Node40&#45;&gt;Node21 -->
<g id="edge78" class="edge">
<title>Node40&#45;&gt;Node21</title>
<path fill="none" stroke="#63b8ff" d="M1332.82,-364.84C1367.99,-352.2 1422.13,-332.73 1453.09,-321.6"/>
<polygon fill="#63b8ff" stroke="#63b8ff" points="1331.23,-361.69 1323.01,-368.37 1333.6,-368.28 1331.23,-361.69"/>
</g>
<!-- Node40&#45;&gt;Node23 -->
<g id="edge75" class="edge">
<title>Node40&#45;&gt;Node23</title>
<path fill="none" stroke="#63b8ff" d="M1291.4,-358.98C1287.18,-348.98 1282,-336.71 1278.06,-327.36"/>
<polygon fill="#63b8ff" stroke="#63b8ff" points="1288.25,-360.52 1295.36,-368.37 1294.7,-357.79 1288.25,-360.52"/>
</g>
<!-- Node40&#45;&gt;Node24 -->
<g id="edge79" class="edge">
<title>Node40&#45;&gt;Node24</title>
<path fill="none" stroke="#63b8ff" d="M1356.11,-366.65C1425.35,-354.09 1540.72,-333.17 1605.04,-321.51"/>
<polygon fill="#63b8ff" stroke="#63b8ff" points="1355.46,-363.21 1346.24,-368.44 1356.7,-370.09 1355.46,-363.21"/>
</g>
<!-- Node41&#45;&gt;Node9 -->
<g id="edge84" class="edge">
<title>Node41&#45;&gt;Node9</title>
<path fill="none" stroke="#63b8ff" d="M411.11,-616.89C405.19,-592.68 396,-548.99 396,-511 396,-511 396,-511 396,-311 396,-194.22 811.63,-181.26 971.96,-180.61"/>
<polygon fill="#63b8ff" stroke="#63b8ff" points="407.78,-617.99 413.63,-626.82 414.56,-616.27 407.78,-617.99"/>
</g>
<!-- Node42&#45;&gt;Node7 -->
<g id="edge87" class="edge">
<title>Node42&#45;&gt;Node7</title>
<path fill="none" stroke="#63b8ff" d="M919.89,-672.33C933.53,-642.42 960.81,-591.19 999,-561 1022.44,-542.47 1053.38,-530.4 1079.92,-522.77"/>
<polygon fill="#63b8ff" stroke="#63b8ff" points="916.64,-671.04 915.79,-681.6 923.04,-673.87 916.64,-671.04"/>
</g>
</g>
</svg>
