<?xml version="1.0" encoding="UTF-8" standalone="no"?>
<!DOCTYPE svg PUBLIC "-//W3C//DTD SVG 1.1//EN"
 "http://www.w3.org/Graphics/SVG/1.1/DTD/svg11.dtd">
<!-- Generated by graphviz version 2.43.0 (0)
 -->
<!-- Title: include/ccf/service/tables/service.h Pages: 1 -->
<svg width="2556pt" height="577pt"
 viewBox="0.00 0.00 2555.58 577.00" xmlns="http://www.w3.org/2000/svg" xmlns:xlink="http://www.w3.org/1999/xlink">
<g id="graph0" class="graph" transform="scale(1 1) rotate(0) translate(4 573)">
<title>include/ccf/service/tables/service.h</title>
<!-- Node1 -->
<g id="node1" class="node">
<title>Node1</title>
<g id="a_node1"><a xlink:title=" ">
<polygon fill="#999999" stroke="#666666" points="415.5,-569 308.5,-569 308.5,-539 415.5,-539 415.5,-569"/>
<text text-anchor="start" x="316.5" y="-557" font-family="Helvetica,sans-Serif" font-size="10.00">include/ccf/service</text>
<text text-anchor="middle" x="362" y="-546" font-family="Helvetica,sans-Serif" font-size="10.00">/tables/service.h</text>
</a>
</g>
</g>
<!-- Node2 -->
<g id="node2" class="node">
<title>Node2</title>
<g id="a_node2"><a xlink:href="historical__queries__adapter_8cpp.html" target="_top" xlink:title=" ">
<polygon fill="white" stroke="#666666" points="120,-503 0,-503 0,-473 120,-473 120,-503"/>
<text text-anchor="start" x="8" y="-491" font-family="Helvetica,sans-Serif" font-size="10.00">src/node/historical</text>
<text text-anchor="middle" x="60" y="-480" font-family="Helvetica,sans-Serif" font-size="10.00">_queries_adapter.cpp</text>
</a>
</g>
</g>
<!-- Node1&#45;&gt;Node2 -->
<g id="edge1" class="edge">
<title>Node1&#45;&gt;Node2</title>
<path fill="none" stroke="#63b8ff" d="M298.47,-539.54C245.91,-528.4 171.75,-512.68 120.14,-501.74"/>
<polygon fill="#63b8ff" stroke="#63b8ff" points="297.85,-542.98 308.36,-541.63 299.3,-536.13 297.85,-542.98"/>
</g>
<!-- Node3 -->
<g id="node3" class="node">
<title>Node3</title>
<g id="a_node3"><a xlink:href="historical__queries__utils_8cpp.html" target="_top" xlink:title=" ">
<polygon fill="white" stroke="#666666" points="244,-503 138,-503 138,-473 244,-473 244,-503"/>
<text text-anchor="start" x="146" y="-491" font-family="Helvetica,sans-Serif" font-size="10.00">src/node/historical</text>
<text text-anchor="middle" x="191" y="-480" font-family="Helvetica,sans-Serif" font-size="10.00">_queries_utils.cpp</text>
</a>
</g>
</g>
<!-- Node1&#45;&gt;Node3 -->
<g id="edge2" class="edge">
<title>Node1&#45;&gt;Node3</title>
<path fill="none" stroke="#63b8ff" d="M314.77,-535.32C287.55,-525.14 253.81,-512.51 228.44,-503.01"/>
<polygon fill="#63b8ff" stroke="#63b8ff" points="313.88,-538.73 324.47,-538.95 316.33,-532.17 313.88,-538.73"/>
</g>
<!-- Node4 -->
<g id="node4" class="node">
<title>Node4</title>
<g id="a_node4"><a xlink:href="node__state_8h.html" target="_top" xlink:title=" ">
<polygon fill="white" stroke="#666666" points="1176,-184 1052,-184 1052,-165 1176,-165 1176,-184"/>
<text text-anchor="middle" x="1114" y="-172" font-family="Helvetica,sans-Serif" font-size="10.00">src/node/node_state.h</text>
</a>
</g>
</g>
<!-- Node1&#45;&gt;Node4 -->
<g id="edge3" class="edge">
<title>Node1&#45;&gt;Node4</title>
<path fill="none" stroke="#63b8ff" d="M335.5,-532.15C308.95,-508.72 272,-468.03 272,-423 272,-423 272,-423 272,-300 272,-221.17 856.95,-187.26 1051.74,-178.15"/>
<polygon fill="#63b8ff" stroke="#63b8ff" points="333.47,-535.03 343.35,-538.86 338.02,-529.7 333.47,-535.03"/>
</g>
<!-- Node8 -->
<g id="node8" class="node">
<title>Node8</title>
<g id="a_node8"><a xlink:href="frontend_8h.html" target="_top" xlink:title=" ">
<polygon fill="white" stroke="#666666" points="1042.5,-371 913.5,-371 913.5,-352 1042.5,-352 1042.5,-371"/>
<text text-anchor="middle" x="978" y="-359" font-family="Helvetica,sans-Serif" font-size="10.00">src/node/rpc/frontend.h</text>
</a>
</g>
</g>
<!-- Node1&#45;&gt;Node8 -->
<g id="edge8" class="edge">
<title>Node1&#45;&gt;Node8</title>
<path fill="none" stroke="#63b8ff" d="M416.86,-536.03C544.13,-496.68 855.81,-400.29 950.36,-371.05"/>
<polygon fill="#63b8ff" stroke="#63b8ff" points="415.82,-532.69 407.3,-538.99 417.88,-539.38 415.82,-532.69"/>
</g>
<!-- Node15 -->
<g id="node15" class="node">
<title>Node15</title>
<g id="a_node15"><a xlink:href="node__call__types_8h.html" target="_top" xlink:title=" ">
<polygon fill="white" stroke="#666666" points="470.5,-503 345.5,-503 345.5,-473 470.5,-473 470.5,-503"/>
<text text-anchor="start" x="353.5" y="-491" font-family="Helvetica,sans-Serif" font-size="10.00">src/node/rpc/node_call</text>
<text text-anchor="middle" x="408" y="-480" font-family="Helvetica,sans-Serif" font-size="10.00">_types.h</text>
</a>
</g>
</g>
<!-- Node1&#45;&gt;Node15 -->
<g id="edge22" class="edge">
<title>Node1&#45;&gt;Node15</title>
<path fill="none" stroke="#63b8ff" d="M378.15,-530.53C384.69,-521.43 392.05,-511.19 397.82,-503.16"/>
<polygon fill="#63b8ff" stroke="#63b8ff" points="375.2,-528.63 372.21,-538.8 380.89,-532.72 375.2,-528.63"/>
</g>
<!-- Node21 -->
<g id="node21" class="node">
<title>Node21</title>
<g id="a_node21"><a xlink:href="network__tables_8h.html" target="_top" xlink:title=" ">
<polygon fill="white" stroke="#666666" points="1199,-503 1087,-503 1087,-473 1199,-473 1199,-503"/>
<text text-anchor="start" x="1095" y="-491" font-family="Helvetica,sans-Serif" font-size="10.00">src/service/network</text>
<text text-anchor="middle" x="1143" y="-480" font-family="Helvetica,sans-Serif" font-size="10.00">_tables.h</text>
</a>
</g>
</g>
<!-- Node1&#45;&gt;Node21 -->
<g id="edge35" class="edge">
<title>Node1&#45;&gt;Node21</title>
<path fill="none" stroke="#63b8ff" d="M426.06,-547.75C575.56,-535.5 945.49,-505.18 1086.85,-493.6"/>
<polygon fill="#63b8ff" stroke="#63b8ff" points="425.36,-544.3 415.68,-548.6 425.93,-551.27 425.36,-544.3"/>
</g>
<!-- Node5 -->
<g id="node5" class="node">
<title>Node5</title>
<g id="a_node5"><a xlink:href="src_2enclave_2enclave_8h.html" target="_top" xlink:title=" ">
<polygon fill="white" stroke="#666666" points="1175,-74 1053,-74 1053,-55 1175,-55 1175,-74"/>
<text text-anchor="middle" x="1114" y="-62" font-family="Helvetica,sans-Serif" font-size="10.00">src/enclave/enclave.h</text>
</a>
</g>
</g>
<!-- Node4&#45;&gt;Node5 -->
<g id="edge4" class="edge">
<title>Node4&#45;&gt;Node5</title>
<path fill="none" stroke="#63b8ff" d="M1129.86,-157.09C1139.97,-144.59 1150.26,-126.74 1145,-110 1140.6,-95.99 1130.05,-82.53 1122.48,-74.15"/>
<polygon fill="#63b8ff" stroke="#63b8ff" points="1127.05,-154.98 1123.08,-164.81 1132.31,-159.6 1127.05,-154.98"/>
</g>
<!-- Node7 -->
<g id="node7" class="node">
<title>Node7</title>
<g id="a_node7"><a xlink:href="gov__effects_8h.html" target="_top" xlink:title=" ">
<polygon fill="white" stroke="#666666" points="1136,-129 992,-129 992,-110 1136,-110 1136,-129"/>
<text text-anchor="middle" x="1064" y="-117" font-family="Helvetica,sans-Serif" font-size="10.00">src/node/rpc/gov_effects.h</text>
</a>
</g>
</g>
<!-- Node4&#45;&gt;Node7 -->
<g id="edge6" class="edge">
<title>Node4&#45;&gt;Node7</title>
<path fill="none" stroke="#63b8ff" d="M1098.66,-157.24C1089.9,-147.95 1079.26,-136.68 1072.1,-129.09"/>
<polygon fill="#63b8ff" stroke="#63b8ff" points="1096.34,-159.88 1105.74,-164.75 1101.43,-155.07 1096.34,-159.88"/>
</g>
<!-- Node6 -->
<g id="node6" class="node">
<title>Node6</title>
<g id="a_node6"><a xlink:href="enclave_2main_8cpp.html" target="_top" xlink:title=" ">
<polygon fill="white" stroke="#666666" points="1174,-19 1054,-19 1054,0 1174,0 1174,-19"/>
<text text-anchor="middle" x="1114" y="-7" font-family="Helvetica,sans-Serif" font-size="10.00">src/enclave/main.cpp</text>
</a>
</g>
</g>
<!-- Node5&#45;&gt;Node6 -->
<g id="edge5" class="edge">
<title>Node5&#45;&gt;Node6</title>
<path fill="none" stroke="#63b8ff" d="M1114,-44.66C1114,-35.93 1114,-25.99 1114,-19.09"/>
<polygon fill="#63b8ff" stroke="#63b8ff" points="1110.5,-44.75 1114,-54.75 1117.5,-44.75 1110.5,-44.75"/>
</g>
<!-- Node7&#45;&gt;Node5 -->
<g id="edge7" class="edge">
<title>Node7&#45;&gt;Node5</title>
<path fill="none" stroke="#63b8ff" d="M1079.34,-102.24C1088.1,-92.95 1098.74,-81.68 1105.9,-74.09"/>
<polygon fill="#63b8ff" stroke="#63b8ff" points="1076.57,-100.07 1072.26,-109.75 1081.66,-104.88 1076.57,-100.07"/>
</g>
<!-- Node8&#45;&gt;Node4 -->
<g id="edge13" class="edge">
<title>Node8&#45;&gt;Node4</title>
<path fill="none" stroke="#63b8ff" d="M974.96,-341.65C971.34,-312.3 968.9,-255.4 997,-220 1011.93,-201.19 1035.77,-190.33 1058.05,-184.06"/>
<polygon fill="#63b8ff" stroke="#63b8ff" points="971.52,-342.36 976.4,-351.76 978.46,-341.37 971.52,-342.36"/>
</g>
<!-- Node9 -->
<g id="node9" class="node">
<title>Node9</title>
<g id="a_node9"><a xlink:href="acme__challenge__frontend_8h.html" target="_top" xlink:title=" ">
<polygon fill="white" stroke="#666666" points="1443,-316 1303,-316 1303,-286 1443,-286 1443,-316"/>
<text text-anchor="start" x="1311" y="-304" font-family="Helvetica,sans-Serif" font-size="10.00">src/node/acme_challenge</text>
<text text-anchor="middle" x="1373" y="-293" font-family="Helvetica,sans-Serif" font-size="10.00">_frontend.h</text>
</a>
</g>
</g>
<!-- Node8&#45;&gt;Node9 -->
<g id="edge9" class="edge">
<title>Node8&#45;&gt;Node9</title>
<path fill="none" stroke="#63b8ff" d="M1045.71,-350.47C1117.44,-339.85 1230.17,-323.15 1302.82,-312.39"/>
<polygon fill="#63b8ff" stroke="#63b8ff" points="1044.82,-347.07 1035.44,-351.99 1045.84,-353.99 1044.82,-347.07"/>
</g>
<!-- Node11 -->
<g id="node11" class="node">
<title>Node11</title>
<g id="a_node11"><a xlink:href="member__frontend_8h.html" target="_top" xlink:title=" ">
<polygon fill="white" stroke="#666666" points="738,-316 618,-316 618,-286 738,-286 738,-316"/>
<text text-anchor="start" x="626" y="-304" font-family="Helvetica,sans-Serif" font-size="10.00">src/node/rpc/member</text>
<text text-anchor="middle" x="678" y="-293" font-family="Helvetica,sans-Serif" font-size="10.00">_frontend.h</text>
</a>
</g>
</g>
<!-- Node8&#45;&gt;Node11 -->
<g id="edge14" class="edge">
<title>Node8&#45;&gt;Node11</title>
<path fill="none" stroke="#63b8ff" d="M924.3,-350.03C872.01,-339.83 792.69,-324.36 738.27,-313.75"/>
<polygon fill="#63b8ff" stroke="#63b8ff" points="923.89,-353.51 934.38,-351.99 925.23,-346.64 923.89,-353.51"/>
</g>
<!-- Node12 -->
<g id="node12" class="node">
<title>Node12</title>
<g id="a_node12"><a xlink:href="node__frontend_8h.html" target="_top" xlink:title=" ">
<polygon fill="white" stroke="#666666" points="1164,-310.5 1006,-310.5 1006,-291.5 1164,-291.5 1164,-310.5"/>
<text text-anchor="middle" x="1085" y="-298.5" font-family="Helvetica,sans-Serif" font-size="10.00">src/node/rpc/node_frontend.h</text>
</a>
</g>
</g>
<!-- Node8&#45;&gt;Node12 -->
<g id="edge16" class="edge">
<title>Node8&#45;&gt;Node12</title>
<path fill="none" stroke="#63b8ff" d="M1002.83,-346.92C1023.28,-335.74 1051.66,-320.23 1069.15,-310.67"/>
<polygon fill="#63b8ff" stroke="#63b8ff" points="1000.88,-344 993.79,-351.87 1004.24,-350.14 1000.88,-344"/>
</g>
<!-- Node14 -->
<g id="node14" class="node">
<title>Node14</title>
<g id="a_node14"><a xlink:href="user__frontend_8h.html" target="_top" xlink:title=" ">
<polygon fill="white" stroke="#666666" points="949.5,-310.5 794.5,-310.5 794.5,-291.5 949.5,-291.5 949.5,-310.5"/>
<text text-anchor="middle" x="872" y="-298.5" font-family="Helvetica,sans-Serif" font-size="10.00">src/node/rpc/user_frontend.h</text>
</a>
</g>
</g>
<!-- Node8&#45;&gt;Node14 -->
<g id="edge20" class="edge">
<title>Node8&#45;&gt;Node14</title>
<path fill="none" stroke="#63b8ff" d="M953.4,-346.92C933.14,-335.74 905.03,-320.23 887.7,-310.67"/>
<polygon fill="#63b8ff" stroke="#63b8ff" points="951.91,-350.1 962.36,-351.87 955.3,-343.97 951.91,-350.1"/>
</g>
<!-- Node9&#45;&gt;Node5 -->
<g id="edge10" class="edge">
<title>Node9&#45;&gt;Node5</title>
<path fill="none" stroke="#63b8ff" d="M1453,-284.06C1502.76,-273.34 1558.66,-259.48 1566,-250 1574.16,-239.46 1573.75,-230.85 1566,-220 1475.8,-93.85 1276.2,-69.56 1175.15,-65.63"/>
<polygon fill="#63b8ff" stroke="#63b8ff" points="1452.2,-280.66 1443.15,-286.16 1453.66,-287.5 1452.2,-280.66"/>
</g>
<!-- Node10 -->
<g id="node10" class="node">
<title>Node10</title>
<g id="a_node10"><a xlink:href="ccf__acme__client_8h.html" target="_top" xlink:title=" ">
<polygon fill="white" stroke="#666666" points="1336.5,-244.5 1187.5,-244.5 1187.5,-225.5 1336.5,-225.5 1336.5,-244.5"/>
<text text-anchor="middle" x="1262" y="-232.5" font-family="Helvetica,sans-Serif" font-size="10.00">src/node/ccf_acme_client.h</text>
</a>
</g>
</g>
<!-- Node9&#45;&gt;Node10 -->
<g id="edge11" class="edge">
<title>Node9&#45;&gt;Node10</title>
<path fill="none" stroke="#63b8ff" d="M1339.72,-280.81C1318.77,-268.73 1292.76,-253.73 1276.77,-244.52"/>
<polygon fill="#63b8ff" stroke="#63b8ff" points="1338.23,-283.99 1348.64,-285.95 1341.73,-277.93 1338.23,-283.99"/>
</g>
<!-- Node10&#45;&gt;Node4 -->
<g id="edge12" class="edge">
<title>Node10&#45;&gt;Node4</title>
<path fill="none" stroke="#63b8ff" d="M1230.96,-221.73C1202.36,-210.42 1160.66,-193.94 1135.55,-184.02"/>
<polygon fill="#63b8ff" stroke="#63b8ff" points="1229.89,-225.07 1240.48,-225.49 1232.47,-218.56 1229.89,-225.07"/>
</g>
<!-- Node11&#45;&gt;Node5 -->
<g id="edge15" class="edge">
<title>Node11&#45;&gt;Node5</title>
<path fill="none" stroke="#63b8ff" d="M701.25,-279.05C745.61,-240.13 846.8,-156.44 946,-110 983.44,-92.47 1028.92,-80.96 1063.11,-74.05"/>
<polygon fill="#63b8ff" stroke="#63b8ff" points="698.81,-276.53 693.64,-285.77 703.45,-281.77 698.81,-276.53"/>
</g>
<!-- Node12&#45;&gt;Node5 -->
<g id="edge17" class="edge">
<title>Node12&#45;&gt;Node5</title>
<path fill="none" stroke="#63b8ff" d="M1046.65,-287.51C1028.64,-279.63 1008.62,-267.56 997,-250 962.49,-197.85 946.58,-160.83 983,-110 999.02,-87.64 1026.91,-76.38 1052.86,-70.77"/>
<polygon fill="#63b8ff" stroke="#63b8ff" points="1045.8,-290.94 1056.38,-291.46 1048.43,-284.46 1045.8,-290.94"/>
</g>
<!-- Node13 -->
<g id="node13" class="node">
<title>Node13</title>
<g id="a_node13"><a xlink:href="jwt__key__auto__refresh_8h.html" target="_top" xlink:title=" ">
<polygon fill="white" stroke="#666666" points="1131.5,-250 1006.5,-250 1006.5,-220 1131.5,-220 1131.5,-250"/>
<text text-anchor="start" x="1014.5" y="-238" font-family="Helvetica,sans-Serif" font-size="10.00">src/node/jwt_key_auto</text>
<text text-anchor="middle" x="1069" y="-227" font-family="Helvetica,sans-Serif" font-size="10.00">_refresh.h</text>
</a>
</g>
</g>
<!-- Node12&#45;&gt;Node13 -->
<g id="edge18" class="edge">
<title>Node12&#45;&gt;Node13</title>
<path fill="none" stroke="#63b8ff" d="M1080.34,-281.35C1077.87,-271.47 1074.88,-259.51 1072.59,-250.36"/>
<polygon fill="#63b8ff" stroke="#63b8ff" points="1077.02,-282.52 1082.84,-291.37 1083.81,-280.82 1077.02,-282.52"/>
</g>
<!-- Node13&#45;&gt;Node4 -->
<g id="edge19" class="edge">
<title>Node13&#45;&gt;Node4</title>
<path fill="none" stroke="#63b8ff" d="M1086.08,-211.8C1093.46,-202.21 1101.66,-191.54 1107.26,-184.27"/>
<polygon fill="#63b8ff" stroke="#63b8ff" points="1083.22,-209.78 1079.89,-219.84 1088.76,-214.05 1083.22,-209.78"/>
</g>
<!-- Node14&#45;&gt;Node5 -->
<g id="edge21" class="edge">
<title>Node14&#45;&gt;Node5</title>
<path fill="none" stroke="#63b8ff" d="M876.25,-281.12C885.81,-243.01 912.64,-156.57 968,-110 991.83,-89.96 1024.54,-78.94 1052.96,-72.88"/>
<polygon fill="#63b8ff" stroke="#63b8ff" points="872.74,-280.76 873.82,-291.3 879.55,-282.38 872.74,-280.76"/>
</g>
<!-- Node16 -->
<g id="node16" class="node">
<title>Node16</title>
<g id="a_node16"><a xlink:href="call__types_8h.html" target="_top" xlink:title=" ">
<polygon fill="white" stroke="#666666" points="566.5,-431.5 429.5,-431.5 429.5,-412.5 566.5,-412.5 566.5,-431.5"/>
<text text-anchor="middle" x="498" y="-419.5" font-family="Helvetica,sans-Serif" font-size="10.00">src/node/rpc/call_types.h</text>
</a>
</g>
</g>
<!-- Node15&#45;&gt;Node16 -->
<g id="edge23" class="edge">
<title>Node15&#45;&gt;Node16</title>
<path fill="none" stroke="#63b8ff" d="M436.3,-466.87C452.96,-455.03 473.18,-440.65 485.82,-431.66"/>
<polygon fill="#63b8ff" stroke="#63b8ff" points="434.1,-464.15 427.97,-472.8 438.15,-469.85 434.1,-464.15"/>
</g>
<!-- Node16&#45;&gt;Node11 -->
<g id="edge28" class="edge">
<title>Node16&#45;&gt;Node11</title>
<path fill="none" stroke="#63b8ff" d="M544.82,-409.51C570.54,-401.6 602,-389.2 626,-371 645.84,-355.96 661.82,-331.41 670.6,-316.01"/>
<polygon fill="#63b8ff" stroke="#63b8ff" points="543.52,-406.24 534.91,-412.42 545.49,-412.96 543.52,-406.24"/>
</g>
<!-- Node17 -->
<g id="node17" class="node">
<title>Node17</title>
<g id="a_node17"><a xlink:href="common__endpoint__registry_8cpp.html" target="_top" xlink:title=" ">
<polygon fill="white" stroke="#666666" points="428,-316 300,-316 300,-286 428,-286 428,-316"/>
<text text-anchor="start" x="308" y="-304" font-family="Helvetica,sans-Serif" font-size="10.00">src/endpoints/common</text>
<text text-anchor="middle" x="364" y="-293" font-family="Helvetica,sans-Serif" font-size="10.00">_endpoint_registry.cpp</text>
</a>
</g>
</g>
<!-- Node16&#45;&gt;Node17 -->
<g id="edge24" class="edge">
<title>Node16&#45;&gt;Node17</title>
<path fill="none" stroke="#63b8ff" d="M480.75,-405.68C454.62,-382.47 405.36,-338.73 379.99,-316.2"/>
<polygon fill="#63b8ff" stroke="#63b8ff" points="478.56,-408.42 488.36,-412.44 483.21,-403.18 478.56,-408.42"/>
</g>
<!-- Node18 -->
<g id="node18" class="node">
<title>Node18</title>
<g id="a_node18"><a xlink:href="wrap_8cpp.html" target="_top" xlink:title=" ">
<polygon fill="white" stroke="#666666" points="2172.5,-244.5 2083.5,-244.5 2083.5,-225.5 2172.5,-225.5 2172.5,-244.5"/>
<text text-anchor="middle" x="2128" y="-232.5" font-family="Helvetica,sans-Serif" font-size="10.00">src/js/wrap.cpp</text>
</a>
</g>
</g>
<!-- Node16&#45;&gt;Node18 -->
<g id="edge25" class="edge">
<title>Node16&#45;&gt;Node18</title>
<path fill="none" stroke="#63b8ff" d="M576.74,-415.03C684.1,-406.63 882.36,-390.18 1051,-371 1140.37,-360.84 1363.28,-330.83 1452,-316 1519.92,-304.65 1535.86,-295.95 1604,-286 1780.56,-260.22 1992.61,-244.68 2083.31,-238.76"/>
<polygon fill="#63b8ff" stroke="#63b8ff" points="576.34,-411.55 566.64,-415.82 576.88,-418.53 576.34,-411.55"/>
</g>
<!-- Node19 -->
<g id="node19" class="node">
<title>Node19</title>
<g id="a_node19"><a xlink:href="resharing_8h.html" target="_top" xlink:title=" ">
<polygon fill="white" stroke="#666666" points="562,-310.5 446,-310.5 446,-291.5 562,-291.5 562,-310.5"/>
<text text-anchor="middle" x="504" y="-298.5" font-family="Helvetica,sans-Serif" font-size="10.00">src/node/resharing.h</text>
</a>
</g>
</g>
<!-- Node16&#45;&gt;Node19 -->
<g id="edge26" class="edge">
<title>Node16&#45;&gt;Node19</title>
<path fill="none" stroke="#63b8ff" d="M480.25,-405.31C467.14,-391.71 452.74,-371.25 460,-352 466.53,-334.69 482.09,-319.49 492.83,-310.52"/>
<polygon fill="#63b8ff" stroke="#63b8ff" points="478.02,-408.02 487.64,-412.46 482.89,-402.99 478.02,-408.02"/>
</g>
<!-- Node20 -->
<g id="node20" class="node">
<title>Node20</title>
<g id="a_node20"><a xlink:href="serialization_8h.html" target="_top" xlink:title=" ">
<polygon fill="white" stroke="#666666" points="617,-371 469,-371 469,-352 617,-352 617,-371"/>
<text text-anchor="middle" x="543" y="-359" font-family="Helvetica,sans-Serif" font-size="10.00">src/node/rpc/serialization.h</text>
</a>
</g>
</g>
<!-- Node16&#45;&gt;Node20 -->
<g id="edge29" class="edge">
<title>Node16&#45;&gt;Node20</title>
<path fill="none" stroke="#63b8ff" d="M510.98,-404.13C519.27,-393.35 529.68,-379.82 536.33,-371.17"/>
<polygon fill="#63b8ff" stroke="#63b8ff" points="507.96,-402.31 504.64,-412.37 513.51,-406.58 507.96,-402.31"/>
</g>
<!-- Node19&#45;&gt;Node4 -->
<g id="edge27" class="edge">
<title>Node19&#45;&gt;Node4</title>
<path fill="none" stroke="#63b8ff" d="M532.51,-287.37C574.3,-269.4 655.06,-236.8 727,-220 839.78,-193.66 974.85,-182.64 1051.92,-178.24"/>
<polygon fill="#63b8ff" stroke="#63b8ff" points="531.01,-284.2 523.23,-291.39 533.8,-290.62 531.01,-284.2"/>
</g>
<!-- Node20&#45;&gt;Node4 -->
<g id="edge31" class="edge">
<title>Node20&#45;&gt;Node4</title>
<path fill="none" stroke="#63b8ff" d="M554.03,-343.38C565.75,-326.49 585.77,-301.08 609,-286 649.85,-259.48 770.55,-230.99 818,-220 897.86,-201.51 991.7,-188.91 1051.96,-181.96"/>
<polygon fill="#63b8ff" stroke="#63b8ff" points="551.07,-341.51 548.41,-351.76 556.88,-345.41 551.07,-341.51"/>
</g>
<!-- Node20&#45;&gt;Node11 -->
<g id="edge33" class="edge">
<title>Node20&#45;&gt;Node11</title>
<path fill="none" stroke="#63b8ff" d="M571.95,-347.95C593.57,-338.59 623.13,-325.78 645.54,-316.06"/>
<polygon fill="#63b8ff" stroke="#63b8ff" points="570.41,-344.81 562.63,-351.99 573.2,-351.23 570.41,-344.81"/>
</g>
<!-- Node20&#45;&gt;Node12 -->
<g id="edge34" class="edge">
<title>Node20&#45;&gt;Node12</title>
<path fill="none" stroke="#63b8ff" d="M627.2,-351.54C711.05,-342.61 843.44,-328.46 958,-316 974.21,-314.24 991.58,-312.33 1008.11,-310.51"/>
<polygon fill="#63b8ff" stroke="#63b8ff" points="626.8,-348.07 617.22,-352.61 627.54,-355.03 626.8,-348.07"/>
</g>
<!-- Node20&#45;&gt;Node17 -->
<g id="edge30" class="edge">
<title>Node20&#45;&gt;Node17</title>
<path fill="none" stroke="#63b8ff" d="M507.29,-348.83C478.43,-339.4 437.7,-326.09 407.03,-316.06"/>
<polygon fill="#63b8ff" stroke="#63b8ff" points="506.38,-352.21 516.97,-351.99 508.55,-345.56 506.38,-352.21"/>
</g>
<!-- Node20&#45;&gt;Node19 -->
<g id="edge32" class="edge">
<title>Node20&#45;&gt;Node19</title>
<path fill="none" stroke="#63b8ff" d="M531.54,-343.3C524.39,-332.58 515.49,-319.23 509.78,-310.67"/>
<polygon fill="#63b8ff" stroke="#63b8ff" points="528.79,-345.49 537.25,-351.87 534.61,-341.61 528.79,-345.49"/>
</g>
<!-- Node21&#45;&gt;Node10 -->
<g id="edge36" class="edge">
<title>Node21&#45;&gt;Node10</title>
<path fill="none" stroke="#63b8ff" d="M1153.37,-463.31C1165.28,-436.26 1185.58,-390.72 1204,-352 1223.25,-311.54 1247.62,-263.89 1257.52,-244.67"/>
<polygon fill="#63b8ff" stroke="#63b8ff" points="1150.05,-462.16 1149.23,-472.73 1156.46,-464.98 1150.05,-462.16"/>
</g>
<!-- Node22 -->
<g id="node22" class="node">
<title>Node22</title>
<g id="a_node22"><a xlink:href="network__state_8h.html" target="_top" xlink:title=" ">
<polygon fill="white" stroke="#666666" points="1484,-431.5 1344,-431.5 1344,-412.5 1484,-412.5 1484,-431.5"/>
<text text-anchor="middle" x="1414" y="-419.5" font-family="Helvetica,sans-Serif" font-size="10.00">src/node/network_state.h</text>
</a>
</g>
</g>
<!-- Node21&#45;&gt;Node22 -->
<g id="edge37" class="edge">
<title>Node21&#45;&gt;Node22</title>
<path fill="none" stroke="#63b8ff" d="M1209.16,-471.37C1262.27,-458.83 1334.82,-441.7 1377.81,-431.55"/>
<polygon fill="#63b8ff" stroke="#63b8ff" points="1208.08,-468.03 1199.15,-473.74 1209.69,-474.85 1208.08,-468.03"/>
</g>
<!-- Node33 -->
<g id="node33" class="node">
<title>Node33</title>
<g id="a_node33"><a xlink:href="genesis__gen_8h.html" target="_top" xlink:title=" ">
<polygon fill="white" stroke="#666666" points="1141,-437 1031,-437 1031,-407 1141,-407 1141,-437"/>
<text text-anchor="start" x="1039" y="-425" font-family="Helvetica,sans-Serif" font-size="10.00">src/service/genesis</text>
<text text-anchor="middle" x="1086" y="-414" font-family="Helvetica,sans-Serif" font-size="10.00">_gen.h</text>
</a>
</g>
</g>
<!-- Node21&#45;&gt;Node33 -->
<g id="edge66" class="edge">
<title>Node21&#45;&gt;Node33</title>
<path fill="none" stroke="#63b8ff" d="M1123.48,-465.09C1115.26,-455.85 1105.91,-445.36 1098.61,-437.16"/>
<polygon fill="#63b8ff" stroke="#63b8ff" points="1121.09,-467.66 1130.35,-472.8 1126.31,-463 1121.09,-467.66"/>
</g>
<!-- Node22&#45;&gt;Node4 -->
<g id="edge56" class="edge">
<title>Node22&#45;&gt;Node4</title>
<path fill="none" stroke="#63b8ff" d="M1426.54,-403.84C1444.2,-377.41 1472.09,-325.65 1452,-286 1440.79,-263.88 1384.79,-229.78 1362,-220 1302,-194.27 1227.67,-183.41 1176.11,-178.84"/>
<polygon fill="#63b8ff" stroke="#63b8ff" points="1423.45,-402.16 1420.61,-412.36 1429.2,-406.16 1423.45,-402.16"/>
</g>
<!-- Node22&#45;&gt;Node5 -->
<g id="edge38" class="edge">
<title>Node22&#45;&gt;Node5</title>
<path fill="none" stroke="#63b8ff" d="M1494.32,-420.3C1739.72,-417.1 2463,-399.4 2463,-302 2463,-302 2463,-302 2463,-173.5 2463,-157.71 2784.67,-185.12 2168,-110 1973.81,-86.35 1369.77,-71.18 1175.11,-66.81"/>
<polygon fill="#63b8ff" stroke="#63b8ff" points="1494,-416.8 1484.05,-420.43 1494.09,-423.8 1494,-416.8"/>
</g>
<!-- Node22&#45;&gt;Node9 -->
<g id="edge55" class="edge">
<title>Node22&#45;&gt;Node9</title>
<path fill="none" stroke="#63b8ff" d="M1415.36,-402.15C1415.74,-387.95 1414.88,-368.21 1409,-352 1404.11,-338.53 1394.48,-325.46 1386.4,-316.06"/>
<polygon fill="#63b8ff" stroke="#63b8ff" points="1411.86,-402.03 1414.86,-412.19 1418.85,-402.37 1411.86,-402.03"/>
</g>
<!-- Node22&#45;&gt;Node12 -->
<g id="edge57" class="edge">
<title>Node22&#45;&gt;Node12</title>
<path fill="none" stroke="#63b8ff" d="M1408.47,-402.29C1402.75,-386.33 1392.19,-364.1 1375,-352 1341.79,-328.61 1237.96,-314.99 1164.05,-308.02"/>
<polygon fill="#63b8ff" stroke="#63b8ff" points="1405.25,-403.71 1411.68,-412.13 1411.91,-401.54 1405.25,-403.71"/>
</g>
<!-- Node22&#45;&gt;Node14 -->
<g id="edge58" class="edge">
<title>Node22&#45;&gt;Node14</title>
<path fill="none" stroke="#63b8ff" d="M1333.65,-417.47C1198.78,-410.92 938.21,-395.27 904,-371 883.75,-356.63 875.99,-326.16 873.29,-310.98"/>
<polygon fill="#63b8ff" stroke="#63b8ff" points="1333.77,-420.98 1343.92,-417.97 1334.1,-413.99 1333.77,-420.98"/>
</g>
<!-- Node23 -->
<g id="node23" class="node">
<title>Node23</title>
<g id="a_node23"><a xlink:href="wrap_8h.html" target="_top" xlink:title=" ">
<polygon fill="white" stroke="#666666" points="1924,-371 1846,-371 1846,-352 1924,-352 1924,-371"/>
<text text-anchor="middle" x="1885" y="-359" font-family="Helvetica,sans-Serif" font-size="10.00">src/js/wrap.h</text>
</a>
</g>
</g>
<!-- Node22&#45;&gt;Node23 -->
<g id="edge39" class="edge">
<title>Node22&#45;&gt;Node23</title>
<path fill="none" stroke="#63b8ff" d="M1492.42,-411.26C1594.33,-398.6 1768.36,-376.99 1845.82,-367.37"/>
<polygon fill="#63b8ff" stroke="#63b8ff" points="1491.98,-407.79 1482.49,-412.49 1492.84,-414.73 1491.98,-407.79"/>
</g>
<!-- Node30 -->
<g id="node30" class="node">
<title>Node30</title>
<g id="a_node30"><a xlink:href="secret__broadcast_8h.html" target="_top" xlink:title=" ">
<polygon fill="white" stroke="#666666" points="1366.5,-371 1213.5,-371 1213.5,-352 1366.5,-352 1366.5,-371"/>
<text text-anchor="middle" x="1290" y="-359" font-family="Helvetica,sans-Serif" font-size="10.00">src/node/secret_broadcast.h</text>
</a>
</g>
</g>
<!-- Node22&#45;&gt;Node30 -->
<g id="edge59" class="edge">
<title>Node22&#45;&gt;Node30</title>
<path fill="none" stroke="#63b8ff" d="M1386.73,-408.13C1362.81,-396.85 1328.72,-380.77 1308.05,-371.02"/>
<polygon fill="#63b8ff" stroke="#63b8ff" points="1385.43,-411.39 1395.97,-412.49 1388.42,-405.06 1385.43,-411.39"/>
</g>
<!-- Node31 -->
<g id="node31" class="node">
<title>Node31</title>
<g id="a_node31"><a xlink:href="share__manager_8h.html" target="_top" xlink:title=" ">
<polygon fill="white" stroke="#666666" points="856.5,-371 711.5,-371 711.5,-352 856.5,-352 856.5,-371"/>
<text text-anchor="middle" x="784" y="-359" font-family="Helvetica,sans-Serif" font-size="10.00">src/node/share_manager.h</text>
</a>
</g>
</g>
<!-- Node22&#45;&gt;Node31 -->
<g id="edge61" class="edge">
<title>Node22&#45;&gt;Node31</title>
<path fill="none" stroke="#63b8ff" d="M1333.72,-413.75C1227.74,-404.14 1035.34,-386.59 871,-371 866.32,-370.56 861.49,-370.09 856.63,-369.63"/>
<polygon fill="#63b8ff" stroke="#63b8ff" points="1333.42,-417.24 1343.7,-414.65 1334.05,-410.26 1333.42,-417.24"/>
</g>
<!-- Node32 -->
<g id="node32" class="node">
<title>Node32</title>
<g id="a_node32"><a xlink:href="snapshotter_8h.html" target="_top" xlink:title=" ">
<polygon fill="white" stroke="#666666" points="1557.5,-244.5 1430.5,-244.5 1430.5,-225.5 1557.5,-225.5 1557.5,-244.5"/>
<text text-anchor="middle" x="1494" y="-232.5" font-family="Helvetica,sans-Serif" font-size="10.00">src/node/snapshotter.h</text>
</a>
</g>
</g>
<!-- Node22&#45;&gt;Node32 -->
<g id="edge64" class="edge">
<title>Node22&#45;&gt;Node32</title>
<path fill="none" stroke="#63b8ff" d="M1444.08,-407.71C1459.06,-399.42 1475.89,-387.22 1485,-371 1508.7,-328.81 1500.09,-267.11 1495.82,-244.61"/>
<polygon fill="#63b8ff" stroke="#63b8ff" points="1442.35,-404.66 1435.08,-412.36 1445.57,-410.88 1442.35,-404.66"/>
</g>
<!-- Node23&#45;&gt;Node4 -->
<g id="edge52" class="edge">
<title>Node23&#45;&gt;Node4</title>
<path fill="none" stroke="#63b8ff" d="M1835.87,-358.48C1765.04,-354.63 1638.9,-343.96 1604,-316 1568.19,-287.31 1602.64,-247.62 1566,-220 1535.54,-197.04 1292.89,-183.36 1176.22,-178.06"/>
<polygon fill="#63b8ff" stroke="#63b8ff" points="1835.73,-361.98 1845.9,-359 1836.1,-354.99 1835.73,-361.98"/>
</g>
<!-- Node23&#45;&gt;Node5 -->
<g id="edge41" class="edge">
<title>Node23&#45;&gt;Node5</title>
<path fill="none" stroke="#63b8ff" d="M1934.46,-358.88C2053.79,-354.59 2350.4,-341.47 2387,-316 2419.31,-293.52 2425,-275.36 2425,-236 2425,-236 2425,-236 2425,-173.5 2425,-109.95 1433.55,-75.25 1175.04,-67.29"/>
<polygon fill="#63b8ff" stroke="#63b8ff" points="1934.02,-355.4 1924.15,-359.25 1934.27,-362.39 1934.02,-355.4"/>
</g>
<!-- Node23&#45;&gt;Node11 -->
<g id="edge53" class="edge">
<title>Node23&#45;&gt;Node11</title>
<path fill="none" stroke="#63b8ff" d="M1835.82,-360.08C1680.99,-358.43 1189.89,-350.61 785,-316 769.79,-314.7 753.42,-312.81 738.16,-310.83"/>
<polygon fill="#63b8ff" stroke="#63b8ff" points="1835.91,-363.58 1845.95,-360.19 1835.99,-356.58 1835.91,-363.58"/>
</g>
<!-- Node23&#45;&gt;Node12 -->
<g id="edge54" class="edge">
<title>Node23&#45;&gt;Node12</title>
<path fill="none" stroke="#63b8ff" d="M1835.88,-356.91C1701.73,-347.1 1328.19,-319.78 1164.06,-307.78"/>
<polygon fill="#63b8ff" stroke="#63b8ff" points="1835.64,-360.4 1845.87,-357.64 1836.15,-353.42 1835.64,-360.4"/>
</g>
<!-- Node23&#45;&gt;Node18 -->
<g id="edge51" class="edge">
<title>Node23&#45;&gt;Node18</title>
<path fill="none" stroke="#63b8ff" d="M1934.2,-359.64C2051.34,-357.09 2339.15,-347.63 2368,-316 2425.64,-252.8 2256.69,-239.46 2172.54,-236.69"/>
<polygon fill="#63b8ff" stroke="#63b8ff" points="1934,-356.14 1924.08,-359.85 1934.15,-363.14 1934,-356.14"/>
</g>
<!-- Node24 -->
<g id="node24" class="node">
<title>Node24</title>
<g id="a_node24"><a xlink:href="js__generic__base_8cpp.html" target="_top" xlink:title=" ">
<polygon fill="white" stroke="#666666" points="2011,-316 1893,-316 1893,-286 2011,-286 2011,-316"/>
<text text-anchor="start" x="1901" y="-304" font-family="Helvetica,sans-Serif" font-size="10.00">src/apps/js_generic</text>
<text text-anchor="middle" x="1952" y="-293" font-family="Helvetica,sans-Serif" font-size="10.00">/js_generic_base.cpp</text>
</a>
</g>
</g>
<!-- Node23&#45;&gt;Node24 -->
<g id="edge40" class="edge">
<title>Node23&#45;&gt;Node24</title>
<path fill="none" stroke="#63b8ff" d="M1902.48,-345.23C1912.8,-336.23 1925.76,-324.91 1935.83,-316.11"/>
<polygon fill="#63b8ff" stroke="#63b8ff" points="1900.12,-342.65 1894.89,-351.87 1904.72,-347.93 1900.12,-342.65"/>
</g>
<!-- Node25 -->
<g id="node25" class="node">
<title>Node25</title>
<g id="a_node25"><a xlink:href="consensus_8cpp.html" target="_top" xlink:title=" ">
<polygon fill="white" stroke="#666666" points="1875,-310.5 1759,-310.5 1759,-291.5 1875,-291.5 1875,-310.5"/>
<text text-anchor="middle" x="1817" y="-298.5" font-family="Helvetica,sans-Serif" font-size="10.00">src/js/consensus.cpp</text>
</a>
</g>
</g>
<!-- Node23&#45;&gt;Node25 -->
<g id="edge42" class="edge">
<title>Node23&#45;&gt;Node25</title>
<path fill="none" stroke="#63b8ff" d="M1867.24,-345.22C1854.45,-334.21 1837.64,-319.75 1827.07,-310.67"/>
<polygon fill="#63b8ff" stroke="#63b8ff" points="1865.1,-348 1874.97,-351.87 1869.67,-342.69 1865.1,-348"/>
</g>
<!-- Node26 -->
<g id="node26" class="node">
<title>Node26</title>
<g id="a_node26"><a xlink:href="conv_8cpp.html" target="_top" xlink:title=" ">
<polygon fill="white" stroke="#666666" points="2117,-310.5 2029,-310.5 2029,-291.5 2117,-291.5 2117,-310.5"/>
<text text-anchor="middle" x="2073" y="-298.5" font-family="Helvetica,sans-Serif" font-size="10.00">src/js/conv.cpp</text>
</a>
</g>
</g>
<!-- Node23&#45;&gt;Node26 -->
<g id="edge44" class="edge">
<title>Node23&#45;&gt;Node26</title>
<path fill="none" stroke="#63b8ff" d="M1922.08,-348.96C1958.44,-337.65 2013.03,-320.66 2045.63,-310.52"/>
<polygon fill="#63b8ff" stroke="#63b8ff" points="1920.85,-345.68 1912.34,-351.99 1922.93,-352.36 1920.85,-345.68"/>
</g>
<!-- Node27 -->
<g id="node27" class="node">
<title>Node27</title>
<g id="a_node27"><a xlink:href="crypto_8cpp.html" target="_top" xlink:title=" ">
<polygon fill="white" stroke="#666666" points="2231,-310.5 2135,-310.5 2135,-291.5 2231,-291.5 2231,-310.5"/>
<text text-anchor="middle" x="2183" y="-298.5" font-family="Helvetica,sans-Serif" font-size="10.00">src/js/crypto.cpp</text>
</a>
</g>
</g>
<!-- Node23&#45;&gt;Node27 -->
<g id="edge46" class="edge">
<title>Node23&#45;&gt;Node27</title>
<path fill="none" stroke="#63b8ff" d="M1934.36,-352.25C1983.19,-343.89 2059.98,-330.19 2126,-316 2133.67,-314.35 2141.88,-312.43 2149.62,-310.54"/>
<polygon fill="#63b8ff" stroke="#63b8ff" points="1933.65,-348.82 1924.38,-353.95 1934.82,-355.72 1933.65,-348.82"/>
</g>
<!-- Node28 -->
<g id="node28" class="node">
<title>Node28</title>
<g id="a_node28"><a xlink:href="historical_8cpp.html" target="_top" xlink:title=" ">
<polygon fill="white" stroke="#666666" points="2359,-310.5 2249,-310.5 2249,-291.5 2359,-291.5 2359,-310.5"/>
<text text-anchor="middle" x="2304" y="-298.5" font-family="Helvetica,sans-Serif" font-size="10.00">src/js/historical.cpp</text>
</a>
</g>
</g>
<!-- Node23&#45;&gt;Node28 -->
<g id="edge48" class="edge">
<title>Node23&#45;&gt;Node28</title>
<path fill="none" stroke="#63b8ff" d="M1934.14,-355.76C2002.85,-348.82 2131.4,-334.64 2240,-316 2248.97,-314.46 2258.58,-312.52 2267.56,-310.57"/>
<polygon fill="#63b8ff" stroke="#63b8ff" points="1933.64,-352.3 1924.04,-356.78 1934.34,-359.26 1933.64,-352.3"/>
</g>
<!-- Node29 -->
<g id="node29" class="node">
<title>Node29</title>
<g id="a_node29"><a xlink:href="openenclave_8cpp.html" target="_top" xlink:title=" ">
<polygon fill="white" stroke="#666666" points="1741,-310.5 1613,-310.5 1613,-291.5 1741,-291.5 1741,-310.5"/>
<text text-anchor="middle" x="1677" y="-298.5" font-family="Helvetica,sans-Serif" font-size="10.00">src/js/openenclave.cpp</text>
</a>
</g>
</g>
<!-- Node23&#45;&gt;Node29 -->
<g id="edge50" class="edge">
<title>Node23&#45;&gt;Node29</title>
<path fill="none" stroke="#63b8ff" d="M1845.01,-349.25C1804.78,-337.94 1743.65,-320.75 1707.28,-310.52"/>
<polygon fill="#63b8ff" stroke="#63b8ff" points="1844.18,-352.66 1854.76,-351.99 1846.08,-345.92 1844.18,-352.66"/>
</g>
<!-- Node25&#45;&gt;Node18 -->
<g id="edge43" class="edge">
<title>Node25&#45;&gt;Node18</title>
<path fill="none" stroke="#63b8ff" d="M1867.62,-289.4C1873.15,-288.25 1878.69,-287.1 1884,-286 1954.93,-271.32 2037.5,-254.45 2086.11,-244.53"/>
<polygon fill="#63b8ff" stroke="#63b8ff" points="1866.82,-285.99 1857.74,-291.46 1868.24,-292.85 1866.82,-285.99"/>
</g>
<!-- Node26&#45;&gt;Node18 -->
<g id="edge45" class="edge">
<title>Node26&#45;&gt;Node18</title>
<path fill="none" stroke="#63b8ff" d="M2087.07,-283.62C2097.66,-271.31 2111.76,-254.89 2120.35,-244.91"/>
<polygon fill="#63b8ff" stroke="#63b8ff" points="2084.28,-281.5 2080.42,-291.37 2089.59,-286.07 2084.28,-281.5"/>
</g>
<!-- Node27&#45;&gt;Node18 -->
<g id="edge47" class="edge">
<title>Node27&#45;&gt;Node18</title>
<path fill="none" stroke="#63b8ff" d="M2168.93,-283.62C2158.34,-271.31 2144.24,-254.89 2135.65,-244.91"/>
<polygon fill="#63b8ff" stroke="#63b8ff" points="2166.41,-286.07 2175.58,-291.37 2171.72,-281.5 2166.41,-286.07"/>
</g>
<!-- Node28&#45;&gt;Node18 -->
<g id="edge49" class="edge">
<title>Node28&#45;&gt;Node18</title>
<path fill="none" stroke="#63b8ff" d="M2270.56,-287.84C2235.79,-275.2 2182.25,-255.73 2151.64,-244.6"/>
<polygon fill="#63b8ff" stroke="#63b8ff" points="2269.67,-291.24 2280.26,-291.37 2272.06,-284.66 2269.67,-291.24"/>
</g>
<!-- Node30&#45;&gt;Node4 -->
<g id="edge60" class="edge">
<title>Node30&#45;&gt;Node4</title>
<path fill="none" stroke="#63b8ff" d="M1286.64,-341.4C1284.84,-325.56 1284.62,-302.97 1294,-286 1307.42,-261.72 1332.24,-274.63 1345,-250 1351.13,-238.16 1353.49,-230.28 1345,-220 1323.94,-194.49 1237.03,-183.45 1176.04,-178.78"/>
<polygon fill="#63b8ff" stroke="#63b8ff" points="1283.22,-342.17 1288.12,-351.57 1290.15,-341.17 1283.22,-342.17"/>
</g>
<!-- Node31&#45;&gt;Node4 -->
<g id="edge62" class="edge">
<title>Node31&#45;&gt;Node4</title>
<path fill="none" stroke="#63b8ff" d="M778.7,-341.73C775.29,-325.43 773.4,-302 785,-286 846.19,-201.61 974.93,-180.82 1051.97,-176.2"/>
<polygon fill="#63b8ff" stroke="#63b8ff" points="775.36,-342.82 781.15,-351.69 782.16,-341.14 775.36,-342.82"/>
</g>
<!-- Node31&#45;&gt;Node11 -->
<g id="edge63" class="edge">
<title>Node31&#45;&gt;Node11</title>
<path fill="none" stroke="#63b8ff" d="M759.2,-346.81C742.47,-337.58 720.46,-325.43 703.58,-316.11"/>
<polygon fill="#63b8ff" stroke="#63b8ff" points="757.91,-350.1 768.36,-351.87 761.3,-343.97 757.91,-350.1"/>
</g>
<!-- Node32&#45;&gt;Node4 -->
<g id="edge65" class="edge">
<title>Node32&#45;&gt;Node4</title>
<path fill="none" stroke="#63b8ff" d="M1437.9,-223.71C1430.54,-222.43 1423.09,-221.16 1416,-220 1332.97,-206.43 1236.78,-192.58 1175.69,-184.01"/>
<polygon fill="#63b8ff" stroke="#63b8ff" points="1437.39,-227.18 1447.85,-225.47 1438.61,-220.28 1437.39,-227.18"/>
</g>
<!-- Node33&#45;&gt;Node4 -->
<g id="edge67" class="edge">
<title>Node33&#45;&gt;Node4</title>
<path fill="none" stroke="#63b8ff" d="M1111.15,-400.05C1132.22,-380.73 1160.76,-349.97 1173,-316 1191.3,-265.23 1142.97,-206.15 1122.58,-184.25"/>
<polygon fill="#63b8ff" stroke="#63b8ff" points="1108.63,-397.61 1103.49,-406.88 1113.29,-402.84 1108.63,-397.61"/>
</g>
<!-- Node33&#45;&gt;Node11 -->
<g id="edge68" class="edge">
<title>Node33&#45;&gt;Node11</title>
<path fill="none" stroke="#63b8ff" d="M1020.76,-420.57C924.21,-418.62 749.56,-409.68 702,-371 685.47,-357.56 680.3,-332.04 678.7,-316.09"/>
<polygon fill="#63b8ff" stroke="#63b8ff" points="1020.93,-424.07 1030.99,-420.76 1021.05,-417.07 1020.93,-424.07"/>
</g>
<!-- Node33&#45;&gt;Node12 -->
<g id="edge69" class="edge">
<title>Node33&#45;&gt;Node12</title>
<path fill="none" stroke="#63b8ff" d="M1085.8,-396.8C1085.57,-370.12 1085.22,-328.62 1085.07,-310.71"/>
<polygon fill="#63b8ff" stroke="#63b8ff" points="1082.3,-396.91 1085.88,-406.88 1089.3,-396.85 1082.3,-396.91"/>
</g>
<!-- Node33&#45;&gt;Node30 -->
<g id="edge70" class="edge">
<title>Node33&#45;&gt;Node30</title>
<path fill="none" stroke="#63b8ff" d="M1144.74,-404.16C1182.5,-393.33 1229.98,-379.71 1260.17,-371.05"/>
<polygon fill="#63b8ff" stroke="#63b8ff" points="1143.51,-400.87 1134.86,-406.99 1145.44,-407.6 1143.51,-400.87"/>
</g>
<!-- Node33&#45;&gt;Node31 -->
<g id="edge71" class="edge">
<title>Node33&#45;&gt;Node31</title>
<path fill="none" stroke="#63b8ff" d="M1021.1,-408.43C962.76,-397.13 878.66,-380.84 827.88,-371"/>
<polygon fill="#63b8ff" stroke="#63b8ff" points="1020.48,-411.87 1030.96,-410.34 1021.81,-405 1020.48,-411.87"/>
</g>
</g>
</svg>
