<?xml version="1.0" encoding="UTF-8" standalone="no"?>
<!DOCTYPE svg PUBLIC "-//W3C//DTD SVG 1.1//EN"
 "http://www.w3.org/Graphics/SVG/1.1/DTD/svg11.dtd">
<!-- Generated by graphviz version 2.43.0 (0)
 -->
<!-- Title: src/service/tables/snapshot_evidence.h Pages: 1 -->
<svg width="2478pt" height="709pt"
 viewBox="0.00 0.00 2478.10 709.00" xmlns="http://www.w3.org/2000/svg" xmlns:xlink="http://www.w3.org/1999/xlink">
<g id="graph0" class="graph" transform="scale(1 1) rotate(0) translate(4 705)">
<title>src/service/tables/snapshot_evidence.h</title>
<!-- Node1 -->
<g id="node1" class="node">
<title>Node1</title>
<g id="a_node1"><a xlink:title=" ">
<polygon fill="#999999" stroke="#666666" points="749,-701 627,-701 627,-671 749,-671 749,-701"/>
<text text-anchor="start" x="635" y="-689" font-family="Helvetica,sans-Serif" font-size="10.00">src/service/tables</text>
<text text-anchor="middle" x="688" y="-678" font-family="Helvetica,sans-Serif" font-size="10.00">/snapshot_evidence.h</text>
</a>
</g>
</g>
<!-- Node2 -->
<g id="node2" class="node">
<title>Node2</title>
<g id="a_node2"><a xlink:href="deserialise_8h.html" target="_top" xlink:title=" ">
<polygon fill="white" stroke="#666666" points="743.5,-635 632.5,-635 632.5,-616 743.5,-616 743.5,-635"/>
<text text-anchor="middle" x="688" y="-623" font-family="Helvetica,sans-Serif" font-size="10.00">src/kv/deserialise.h</text>
</a>
</g>
</g>
<!-- Node1&#45;&gt;Node2 -->
<g id="edge1" class="edge">
<title>Node1&#45;&gt;Node2</title>
<path fill="none" stroke="#63b8ff" d="M688,-660.75C688,-651.72 688,-642.03 688,-635.27"/>
<polygon fill="#63b8ff" stroke="#63b8ff" points="684.5,-660.84 688,-670.84 691.5,-660.84 684.5,-660.84"/>
</g>
<!-- Node14 -->
<g id="node14" class="node">
<title>Node14</title>
<g id="a_node14"><a xlink:href="snapshotter_8h.html" target="_top" xlink:title=" ">
<polygon fill="white" stroke="#666666" points="659.5,-321.5 532.5,-321.5 532.5,-302.5 659.5,-302.5 659.5,-321.5"/>
<text text-anchor="middle" x="596" y="-309.5" font-family="Helvetica,sans-Serif" font-size="10.00">src/node/snapshotter.h</text>
</a>
</g>
</g>
<!-- Node1&#45;&gt;Node14 -->
<g id="edge76" class="edge">
<title>Node1&#45;&gt;Node14</title>
<path fill="none" stroke="#63b8ff" d="M655.02,-665.13C643.84,-656.99 632.13,-646.73 624,-635 607.14,-610.69 604,-601.09 604,-571.5 604,-571.5 604,-571.5 604,-443 604,-397.1 598.97,-342.25 596.89,-321.51"/>
<polygon fill="#63b8ff" stroke="#63b8ff" points="653.18,-668.11 663.4,-670.92 657.16,-662.35 653.18,-668.11"/>
</g>
<!-- Node25 -->
<g id="node25" class="node">
<title>Node25</title>
<g id="a_node25"><a xlink:href="network__tables_8h.html" target="_top" xlink:title=" ">
<polygon fill="white" stroke="#666666" points="1040,-525 928,-525 928,-495 1040,-495 1040,-525"/>
<text text-anchor="start" x="936" y="-513" font-family="Helvetica,sans-Serif" font-size="10.00">src/service/network</text>
<text text-anchor="middle" x="984" y="-502" font-family="Helvetica,sans-Serif" font-size="10.00">_tables.h</text>
</a>
</g>
</g>
<!-- Node1&#45;&gt;Node25 -->
<g id="edge77" class="edge">
<title>Node1&#45;&gt;Node25</title>
<path fill="none" stroke="#63b8ff" d="M720.66,-665.8C780.59,-630.57 906.84,-556.36 959.8,-525.22"/>
<polygon fill="#63b8ff" stroke="#63b8ff" points="718.82,-662.82 711.97,-670.91 722.37,-668.86 718.82,-662.82"/>
</g>
<!-- Node3 -->
<g id="node3" class="node">
<title>Node3</title>
<g id="a_node3"><a xlink:href="store_8h.html" target="_top" xlink:title=" ">
<polygon fill="white" stroke="#666666" points="725.5,-580 642.5,-580 642.5,-561 725.5,-561 725.5,-580"/>
<text text-anchor="middle" x="684" y="-568" font-family="Helvetica,sans-Serif" font-size="10.00">src/kv/store.h</text>
</a>
</g>
</g>
<!-- Node2&#45;&gt;Node3 -->
<g id="edge2" class="edge">
<title>Node2&#45;&gt;Node3</title>
<path fill="none" stroke="#63b8ff" d="M686.58,-605.66C685.92,-596.93 685.17,-586.99 684.65,-580.09"/>
<polygon fill="#63b8ff" stroke="#63b8ff" points="683.1,-606.04 687.34,-615.75 690.08,-605.51 683.1,-606.04"/>
</g>
<!-- Node4 -->
<g id="node4" class="node">
<title>Node4</title>
<g id="a_node4"><a xlink:href="indexer_8h.html" target="_top" xlink:title=" ">
<polygon fill="white" stroke="#666666" points="793.5,-453.5 670.5,-453.5 670.5,-434.5 793.5,-434.5 793.5,-453.5"/>
<text text-anchor="middle" x="732" y="-441.5" font-family="Helvetica,sans-Serif" font-size="10.00">src/indexing/indexer.h</text>
</a>
</g>
</g>
<!-- Node3&#45;&gt;Node4 -->
<g id="edge3" class="edge">
<title>Node3&#45;&gt;Node4</title>
<path fill="none" stroke="#63b8ff" d="M686.91,-550.71C689.67,-535.34 694.52,-513.25 702,-495 708.29,-479.64 718.83,-463.44 725.6,-453.78"/>
<polygon fill="#63b8ff" stroke="#63b8ff" points="683.39,-550.53 685.2,-560.97 690.3,-551.69 683.39,-550.53"/>
</g>
<!-- Node9 -->
<g id="node9" class="node">
<title>Node9</title>
<g id="a_node9"><a xlink:href="visit__each__entry__in__map_8cpp.html" target="_top" xlink:title=" ">
<polygon fill="white" stroke="#666666" points="871.5,-525 710.5,-525 710.5,-495 871.5,-495 871.5,-525"/>
<text text-anchor="start" x="718.5" y="-513" font-family="Helvetica,sans-Serif" font-size="10.00">src/indexing/strategies</text>
<text text-anchor="middle" x="791" y="-502" font-family="Helvetica,sans-Serif" font-size="10.00">/visit_each_entry_in_map.cpp</text>
</a>
</g>
</g>
<!-- Node3&#45;&gt;Node9 -->
<g id="edge9" class="edge">
<title>Node3&#45;&gt;Node9</title>
<path fill="none" stroke="#63b8ff" d="M709.03,-555.81C725.92,-546.58 748.14,-534.43 765.18,-525.11"/>
<polygon fill="#63b8ff" stroke="#63b8ff" points="706.88,-553 699.79,-560.87 710.24,-559.14 706.88,-553"/>
</g>
<!-- Node10 -->
<g id="node10" class="node">
<title>Node10</title>
<g id="a_node10"><a xlink:href="historical__queries_8h.html" target="_top" xlink:title=" ">
<polygon fill="white" stroke="#666666" points="106,-393 0,-393 0,-363 106,-363 106,-393"/>
<text text-anchor="start" x="8" y="-381" font-family="Helvetica,sans-Serif" font-size="10.00">src/node/historical</text>
<text text-anchor="middle" x="53" y="-370" font-family="Helvetica,sans-Serif" font-size="10.00">_queries.h</text>
</a>
</g>
</g>
<!-- Node3&#45;&gt;Node10 -->
<g id="edge10" class="edge">
<title>Node3&#45;&gt;Node10</title>
<path fill="none" stroke="#63b8ff" d="M632.26,-566.94C563.61,-562.64 439.07,-551.63 336,-525 259.13,-505.14 240.09,-496.3 170,-459 132.86,-439.23 93.13,-410.18 70.85,-393.06"/>
<polygon fill="#63b8ff" stroke="#63b8ff" points="632.19,-570.45 642.38,-567.56 632.61,-563.46 632.19,-570.45"/>
</g>
<!-- Node12 -->
<g id="node12" class="node">
<title>Node12</title>
<g id="a_node12"><a xlink:href="history_8h.html" target="_top" xlink:title=" ">
<polygon fill="white" stroke="#666666" points="447,-519.5 345,-519.5 345,-500.5 447,-500.5 447,-519.5"/>
<text text-anchor="middle" x="396" y="-507.5" font-family="Helvetica,sans-Serif" font-size="10.00">src/node/history.h</text>
</a>
</g>
</g>
<!-- Node3&#45;&gt;Node12 -->
<g id="edge14" class="edge">
<title>Node3&#45;&gt;Node12</title>
<path fill="none" stroke="#63b8ff" d="M632.44,-559.03C576.9,-547.75 489.56,-530.01 438.03,-519.54"/>
<polygon fill="#63b8ff" stroke="#63b8ff" points="631.93,-562.5 642.43,-561.06 633.33,-555.64 631.93,-562.5"/>
</g>
<!-- Node3&#45;&gt;Node14 -->
<g id="edge39" class="edge">
<title>Node3&#45;&gt;Node14</title>
<path fill="none" stroke="#63b8ff" d="M678.8,-551.01C668.41,-514.61 643.85,-431.26 618,-363 612.43,-348.28 604.83,-331.62 600.18,-321.74"/>
<polygon fill="#63b8ff" stroke="#63b8ff" points="675.46,-552.07 681.56,-560.73 682.2,-550.16 675.46,-552.07"/>
</g>
<!-- Node18 -->
<g id="node18" class="node">
<title>Node18</title>
<g id="a_node18"><a xlink:href="frontend_8h.html" target="_top" xlink:title=" ">
<polygon fill="white" stroke="#666666" points="1105.5,-387.5 976.5,-387.5 976.5,-368.5 1105.5,-368.5 1105.5,-387.5"/>
<text text-anchor="middle" x="1041" y="-375.5" font-family="Helvetica,sans-Serif" font-size="10.00">src/node/rpc/frontend.h</text>
</a>
</g>
</g>
<!-- Node3&#45;&gt;Node18 -->
<g id="edge25" class="edge">
<title>Node3&#45;&gt;Node18</title>
<path fill="none" stroke="#63b8ff" d="M735.84,-565.14C777.1,-559.98 835.29,-548.85 881,-525 899,-515.61 1000.53,-418.13 1031.82,-387.89"/>
<polygon fill="#63b8ff" stroke="#63b8ff" points="735.26,-561.68 725.74,-566.33 736.08,-568.64 735.26,-561.68"/>
</g>
<!-- Node3&#45;&gt;Node25 -->
<g id="edge40" class="edge">
<title>Node3&#45;&gt;Node25</title>
<path fill="none" stroke="#63b8ff" d="M735.43,-559.65C782.05,-550.69 852.66,-537.07 914,-525 918.5,-524.11 923.16,-523.19 927.84,-522.26"/>
<polygon fill="#63b8ff" stroke="#63b8ff" points="734.73,-556.22 725.57,-561.54 736.05,-563.09 734.73,-556.22"/>
</g>
<!-- Node5 -->
<g id="node5" class="node">
<title>Node5</title>
<g id="a_node5"><a xlink:href="node__state_8h.html" target="_top" xlink:title=" ">
<polygon fill="white" stroke="#666666" points="1196,-189.5 1072,-189.5 1072,-170.5 1196,-170.5 1196,-189.5"/>
<text text-anchor="middle" x="1134" y="-177.5" font-family="Helvetica,sans-Serif" font-size="10.00">src/node/node_state.h</text>
</a>
</g>
</g>
<!-- Node4&#45;&gt;Node5 -->
<g id="edge4" class="edge">
<title>Node4&#45;&gt;Node5</title>
<path fill="none" stroke="#63b8ff" d="M724.9,-424.86C714.52,-395.05 699.29,-335.22 727,-297 757.19,-255.35 788.69,-278.67 837,-261 870.33,-248.81 877.13,-241.58 911,-231 969.89,-212.6 1039.52,-198.1 1085.11,-189.56"/>
<polygon fill="#63b8ff" stroke="#63b8ff" points="721.67,-426.21 728.41,-434.38 728.23,-423.79 721.67,-426.21"/>
</g>
<!-- Node6 -->
<g id="node6" class="node">
<title>Node6</title>
<g id="a_node6"><a xlink:href="src_2enclave_2enclave_8h.html" target="_top" xlink:title=" ">
<polygon fill="white" stroke="#666666" points="1195,-74 1073,-74 1073,-55 1195,-55 1195,-74"/>
<text text-anchor="middle" x="1134" y="-62" font-family="Helvetica,sans-Serif" font-size="10.00">src/enclave/enclave.h</text>
</a>
</g>
</g>
<!-- Node5&#45;&gt;Node6 -->
<g id="edge5" class="edge">
<title>Node5&#45;&gt;Node6</title>
<path fill="none" stroke="#63b8ff" d="M1118.92,-162.33C1108.4,-148.61 1097.19,-128.5 1103,-110 1107.4,-95.99 1117.95,-82.53 1125.52,-74.15"/>
<polygon fill="#63b8ff" stroke="#63b8ff" points="1116.48,-164.86 1125.55,-170.33 1121.87,-160.4 1116.48,-164.86"/>
</g>
<!-- Node8 -->
<g id="node8" class="node">
<title>Node8</title>
<g id="a_node8"><a xlink:href="gov__effects_8h.html" target="_top" xlink:title=" ">
<polygon fill="white" stroke="#666666" points="1256,-129 1112,-129 1112,-110 1256,-110 1256,-129"/>
<text text-anchor="middle" x="1184" y="-117" font-family="Helvetica,sans-Serif" font-size="10.00">src/node/rpc/gov_effects.h</text>
</a>
</g>
</g>
<!-- Node5&#45;&gt;Node8 -->
<g id="edge7" class="edge">
<title>Node5&#45;&gt;Node8</title>
<path fill="none" stroke="#63b8ff" d="M1148.14,-162.45C1157.4,-151.62 1169.12,-137.91 1176.59,-129.17"/>
<polygon fill="#63b8ff" stroke="#63b8ff" points="1145.21,-160.49 1141.38,-170.37 1150.54,-165.04 1145.21,-160.49"/>
</g>
<!-- Node7 -->
<g id="node7" class="node">
<title>Node7</title>
<g id="a_node7"><a xlink:href="enclave_2main_8cpp.html" target="_top" xlink:title=" ">
<polygon fill="white" stroke="#666666" points="1194,-19 1074,-19 1074,0 1194,0 1194,-19"/>
<text text-anchor="middle" x="1134" y="-7" font-family="Helvetica,sans-Serif" font-size="10.00">src/enclave/main.cpp</text>
</a>
</g>
</g>
<!-- Node6&#45;&gt;Node7 -->
<g id="edge6" class="edge">
<title>Node6&#45;&gt;Node7</title>
<path fill="none" stroke="#63b8ff" d="M1134,-44.66C1134,-35.93 1134,-25.99 1134,-19.09"/>
<polygon fill="#63b8ff" stroke="#63b8ff" points="1130.5,-44.75 1134,-54.75 1137.5,-44.75 1130.5,-44.75"/>
</g>
<!-- Node8&#45;&gt;Node6 -->
<g id="edge8" class="edge">
<title>Node8&#45;&gt;Node6</title>
<path fill="none" stroke="#63b8ff" d="M1168.66,-102.24C1159.9,-92.95 1149.26,-81.68 1142.1,-74.09"/>
<polygon fill="#63b8ff" stroke="#63b8ff" points="1166.34,-104.88 1175.74,-109.75 1171.43,-100.07 1166.34,-104.88"/>
</g>
<!-- Node10&#45;&gt;Node6 -->
<g id="edge11" class="edge">
<title>Node10&#45;&gt;Node6</title>
<path fill="none" stroke="#63b8ff" d="M72.85,-354.7C92.6,-330.13 120,-288.56 120,-247 120,-247 120,-247 120,-179 120,-82.57 853.63,-68.07 1072.85,-65.89"/>
<polygon fill="#63b8ff" stroke="#63b8ff" points="69.94,-352.72 66.24,-362.65 75.32,-357.2 69.94,-352.72"/>
</g>
<!-- Node11 -->
<g id="node11" class="node">
<title>Node11</title>
<g id="a_node11"><a xlink:href="historical__transaction__fetcher_8h.html" target="_top" xlink:title=" ">
<polygon fill="white" stroke="#666666" points="589.5,-195 464.5,-195 464.5,-165 589.5,-165 589.5,-195"/>
<text text-anchor="start" x="472.5" y="-183" font-family="Helvetica,sans-Serif" font-size="10.00">src/indexing/historical</text>
<text text-anchor="middle" x="527" y="-172" font-family="Helvetica,sans-Serif" font-size="10.00">_transaction_fetcher.h</text>
</a>
</g>
</g>
<!-- Node10&#45;&gt;Node11 -->
<g id="edge12" class="edge">
<title>Node10&#45;&gt;Node11</title>
<path fill="none" stroke="#63b8ff" d="M91.84,-358.46C152.92,-329.61 275.47,-272.92 382,-231 415.58,-217.79 454.23,-204.56 483.18,-195.02"/>
<polygon fill="#63b8ff" stroke="#63b8ff" points="90.12,-355.41 82.58,-362.85 93.11,-361.73 90.12,-355.41"/>
</g>
<!-- Node11&#45;&gt;Node6 -->
<g id="edge13" class="edge">
<title>Node11&#45;&gt;Node6</title>
<path fill="none" stroke="#63b8ff" d="M577.34,-161.74C624.91,-146.05 698.54,-123.37 764,-110 871.6,-88.02 999.19,-75.62 1072.95,-69.76"/>
<polygon fill="#63b8ff" stroke="#63b8ff" points="575.98,-158.5 567.59,-164.97 578.19,-165.14 575.98,-158.5"/>
</g>
<!-- Node12&#45;&gt;Node5 -->
<g id="edge16" class="edge">
<title>Node12&#45;&gt;Node5</title>
<path fill="none" stroke="#63b8ff" d="M396,-490.16C396,-464.87 396,-418.55 396,-379 396,-379 396,-379 396,-311 396,-242.62 893.79,-198.87 1071.71,-185.42"/>
<polygon fill="#63b8ff" stroke="#63b8ff" points="392.5,-490.48 396,-500.48 399.5,-490.48 392.5,-490.48"/>
</g>
<!-- Node12&#45;&gt;Node10 -->
<g id="edge15" class="edge">
<title>Node12&#45;&gt;Node10</title>
<path fill="none" stroke="#63b8ff" d="M359.69,-497.32C329.8,-487.54 286.43,-472.99 249,-459 190.99,-437.32 124.43,-409.52 85.71,-393.05"/>
<polygon fill="#63b8ff" stroke="#63b8ff" points="358.68,-500.67 369.28,-500.44 360.85,-494.02 358.68,-500.67"/>
</g>
<!-- Node13 -->
<g id="node13" class="node">
<title>Node13</title>
<g id="a_node13"><a xlink:href="snapshot__serdes_8h.html" target="_top" xlink:title=" ">
<polygon fill="white" stroke="#666666" points="576,-387.5 424,-387.5 424,-368.5 576,-368.5 576,-387.5"/>
<text text-anchor="middle" x="500" y="-375.5" font-family="Helvetica,sans-Serif" font-size="10.00">src/node/snapshot_serdes.h</text>
</a>
</g>
</g>
<!-- Node12&#45;&gt;Node13 -->
<g id="edge17" class="edge">
<title>Node12&#45;&gt;Node13</title>
<path fill="none" stroke="#63b8ff" d="M409.23,-492.46C431.54,-464.58 475.88,-409.15 493.01,-387.73"/>
<polygon fill="#63b8ff" stroke="#63b8ff" points="406.34,-490.48 402.82,-500.47 411.8,-494.85 406.34,-490.48"/>
</g>
<!-- Node15 -->
<g id="node15" class="node">
<title>Node15</title>
<g id="a_node15"><a xlink:href="tx__receipt__impl_8h.html" target="_top" xlink:title=" ">
<polygon fill="white" stroke="#666666" points="368,-459 258,-459 258,-429 368,-429 368,-459"/>
<text text-anchor="start" x="266" y="-447" font-family="Helvetica,sans-Serif" font-size="10.00">src/node/tx_receipt</text>
<text text-anchor="middle" x="313" y="-436" font-family="Helvetica,sans-Serif" font-size="10.00">_impl.h</text>
</a>
</g>
</g>
<!-- Node12&#45;&gt;Node15 -->
<g id="edge20" class="edge">
<title>Node12&#45;&gt;Node15</title>
<path fill="none" stroke="#63b8ff" d="M376.57,-494.02C362.9,-483.48 344.72,-469.46 331.31,-459.12"/>
<polygon fill="#63b8ff" stroke="#63b8ff" points="374.75,-497.03 384.81,-500.37 379.02,-491.49 374.75,-497.03"/>
</g>
<!-- Node13&#45;&gt;Node14 -->
<g id="edge18" class="edge">
<title>Node13&#45;&gt;Node14</title>
<path fill="none" stroke="#63b8ff" d="M521.48,-362.68C540.34,-350.11 567.16,-332.23 582.95,-321.7"/>
<polygon fill="#63b8ff" stroke="#63b8ff" points="519.33,-359.91 512.95,-368.37 523.21,-365.73 519.33,-359.91"/>
</g>
<!-- Node14&#45;&gt;Node5 -->
<g id="edge19" class="edge">
<title>Node14&#45;&gt;Node5</title>
<path fill="none" stroke="#63b8ff" d="M633.17,-299.38C686.87,-282.84 789.42,-252.18 878,-231 948.91,-214.05 1031.88,-198.64 1083.7,-189.54"/>
<polygon fill="#63b8ff" stroke="#63b8ff" points="631.94,-296.1 623.42,-302.4 634.01,-302.79 631.94,-296.1"/>
</g>
<!-- Node15&#45;&gt;Node10 -->
<g id="edge21" class="edge">
<title>Node15&#45;&gt;Node10</title>
<path fill="none" stroke="#63b8ff" d="M247.9,-426.98C204.18,-416.21 147.3,-402.21 106.28,-392.12"/>
<polygon fill="#63b8ff" stroke="#63b8ff" points="247.31,-430.44 257.86,-429.43 248.99,-423.64 247.31,-430.44"/>
</g>
<!-- Node15&#45;&gt;Node13 -->
<g id="edge24" class="edge">
<title>Node15&#45;&gt;Node13</title>
<path fill="none" stroke="#63b8ff" d="M363.91,-425.58C400,-413.23 446.86,-397.19 475.11,-387.52"/>
<polygon fill="#63b8ff" stroke="#63b8ff" points="362.37,-422.41 354.04,-428.95 364.63,-429.03 362.37,-422.41"/>
</g>
<!-- Node16 -->
<g id="node16" class="node">
<title>Node16</title>
<g id="a_node16"><a xlink:href="historical__queries__adapter_8cpp.html" target="_top" xlink:title=" ">
<polygon fill="white" stroke="#666666" points="244,-393 124,-393 124,-363 244,-363 244,-393"/>
<text text-anchor="start" x="132" y="-381" font-family="Helvetica,sans-Serif" font-size="10.00">src/node/historical</text>
<text text-anchor="middle" x="184" y="-370" font-family="Helvetica,sans-Serif" font-size="10.00">_queries_adapter.cpp</text>
</a>
</g>
</g>
<!-- Node15&#45;&gt;Node16 -->
<g id="edge22" class="edge">
<title>Node15&#45;&gt;Node16</title>
<path fill="none" stroke="#63b8ff" d="M275.46,-424.38C255.28,-414.36 230.8,-402.22 212.24,-393.01"/>
<polygon fill="#63b8ff" stroke="#63b8ff" points="274.18,-427.65 284.69,-428.95 277.29,-421.38 274.18,-427.65"/>
</g>
<!-- Node17 -->
<g id="node17" class="node">
<title>Node17</title>
<g id="a_node17"><a xlink:href="historical__queries__utils_8cpp.html" target="_top" xlink:title=" ">
<polygon fill="white" stroke="#666666" points="368,-393 262,-393 262,-363 368,-363 368,-393"/>
<text text-anchor="start" x="270" y="-381" font-family="Helvetica,sans-Serif" font-size="10.00">src/node/historical</text>
<text text-anchor="middle" x="315" y="-370" font-family="Helvetica,sans-Serif" font-size="10.00">_queries_utils.cpp</text>
</a>
</g>
</g>
<!-- Node15&#45;&gt;Node17 -->
<g id="edge23" class="edge">
<title>Node15&#45;&gt;Node17</title>
<path fill="none" stroke="#63b8ff" d="M313.76,-418.54C314.03,-409.96 314.32,-400.61 314.56,-393.16"/>
<polygon fill="#63b8ff" stroke="#63b8ff" points="310.26,-418.69 313.44,-428.8 317.25,-418.91 310.26,-418.69"/>
</g>
<!-- Node18&#45;&gt;Node5 -->
<g id="edge30" class="edge">
<title>Node18&#45;&gt;Node5</title>
<path fill="none" stroke="#63b8ff" d="M1054.74,-360.19C1061.98,-350.8 1070.65,-338.68 1077,-327 1103.91,-277.52 1124.57,-212.6 1131.49,-189.56"/>
<polygon fill="#63b8ff" stroke="#63b8ff" points="1051.83,-358.23 1048.36,-368.24 1057.31,-362.57 1051.83,-358.23"/>
</g>
<!-- Node19 -->
<g id="node19" class="node">
<title>Node19</title>
<g id="a_node19"><a xlink:href="acme__challenge__frontend_8h.html" target="_top" xlink:title=" ">
<polygon fill="white" stroke="#666666" points="1068,-327 928,-327 928,-297 1068,-297 1068,-327"/>
<text text-anchor="start" x="936" y="-315" font-family="Helvetica,sans-Serif" font-size="10.00">src/node/acme_challenge</text>
<text text-anchor="middle" x="998" y="-304" font-family="Helvetica,sans-Serif" font-size="10.00">_frontend.h</text>
</a>
</g>
</g>
<!-- Node18&#45;&gt;Node19 -->
<g id="edge26" class="edge">
<title>Node18&#45;&gt;Node19</title>
<path fill="none" stroke="#63b8ff" d="M1029.53,-359.92C1022.7,-349.76 1014.13,-337.01 1007.65,-327.36"/>
<polygon fill="#63b8ff" stroke="#63b8ff" points="1026.72,-362.02 1035.2,-368.37 1032.53,-358.12 1026.72,-362.02"/>
</g>
<!-- Node21 -->
<g id="node21" class="node">
<title>Node21</title>
<g id="a_node21"><a xlink:href="member__frontend_8h.html" target="_top" xlink:title=" ">
<polygon fill="white" stroke="#666666" points="2450,-327 2330,-327 2330,-297 2450,-297 2450,-327"/>
<text text-anchor="start" x="2338" y="-315" font-family="Helvetica,sans-Serif" font-size="10.00">src/node/rpc/member</text>
<text text-anchor="middle" x="2390" y="-304" font-family="Helvetica,sans-Serif" font-size="10.00">_frontend.h</text>
</a>
</g>
</g>
<!-- Node18&#45;&gt;Node21 -->
<g id="edge31" class="edge">
<title>Node18&#45;&gt;Node21</title>
<path fill="none" stroke="#63b8ff" d="M1111.67,-367.26C1125.67,-365.61 1140.28,-364.08 1154,-363 1620.82,-326.18 1739.44,-352.87 2207,-327 2248.04,-324.73 2294.19,-321.19 2329.87,-318.24"/>
<polygon fill="#63b8ff" stroke="#63b8ff" points="1111.1,-363.81 1101.6,-368.48 1111.94,-370.75 1111.1,-363.81"/>
</g>
<!-- Node22 -->
<g id="node22" class="node">
<title>Node22</title>
<g id="a_node22"><a xlink:href="node__frontend_8h.html" target="_top" xlink:title=" ">
<polygon fill="white" stroke="#666666" points="1358,-321.5 1200,-321.5 1200,-302.5 1358,-302.5 1358,-321.5"/>
<text text-anchor="middle" x="1279" y="-309.5" font-family="Helvetica,sans-Serif" font-size="10.00">src/node/rpc/node_frontend.h</text>
</a>
</g>
</g>
<!-- Node18&#45;&gt;Node22 -->
<g id="edge33" class="edge">
<title>Node18&#45;&gt;Node22</title>
<path fill="none" stroke="#63b8ff" d="M1082.94,-365.72C1129.81,-353.12 1204.66,-332.99 1247.03,-321.6"/>
<polygon fill="#63b8ff" stroke="#63b8ff" points="1081.85,-362.39 1073.1,-368.37 1083.66,-369.15 1081.85,-362.39"/>
</g>
<!-- Node24 -->
<g id="node24" class="node">
<title>Node24</title>
<g id="a_node24"><a xlink:href="user__frontend_8h.html" target="_top" xlink:title=" ">
<polygon fill="white" stroke="#666666" points="909.5,-321.5 754.5,-321.5 754.5,-302.5 909.5,-302.5 909.5,-321.5"/>
<text text-anchor="middle" x="832" y="-309.5" font-family="Helvetica,sans-Serif" font-size="10.00">src/node/rpc/user_frontend.h</text>
</a>
</g>
</g>
<!-- Node18&#45;&gt;Node24 -->
<g id="edge37" class="edge">
<title>Node18&#45;&gt;Node24</title>
<path fill="none" stroke="#63b8ff" d="M1003.13,-365.4C961.91,-352.78 896.97,-332.89 860.07,-321.6"/>
<polygon fill="#63b8ff" stroke="#63b8ff" points="1002.23,-368.79 1012.81,-368.37 1004.28,-362.09 1002.23,-368.79"/>
</g>
<!-- Node19&#45;&gt;Node6 -->
<g id="edge27" class="edge">
<title>Node19&#45;&gt;Node6</title>
<path fill="none" stroke="#63b8ff" d="M945.71,-292.37C932.01,-284.83 918.87,-274.61 911,-261 904.32,-249.46 905.01,-242.91 911,-231 953.91,-145.73 1063.84,-93.36 1111.45,-74"/>
<polygon fill="#63b8ff" stroke="#63b8ff" points="944.25,-295.55 954.75,-296.95 947.41,-289.31 944.25,-295.55"/>
</g>
<!-- Node20 -->
<g id="node20" class="node">
<title>Node20</title>
<g id="a_node20"><a xlink:href="ccf__acme__client_8h.html" target="_top" xlink:title=" ">
<polygon fill="white" stroke="#666666" points="1068.5,-255.5 919.5,-255.5 919.5,-236.5 1068.5,-236.5 1068.5,-255.5"/>
<text text-anchor="middle" x="994" y="-243.5" font-family="Helvetica,sans-Serif" font-size="10.00">src/node/ccf_acme_client.h</text>
</a>
</g>
</g>
<!-- Node19&#45;&gt;Node20 -->
<g id="edge28" class="edge">
<title>Node19&#45;&gt;Node20</title>
<path fill="none" stroke="#63b8ff" d="M996.48,-286.6C995.8,-275.8 995.05,-263.78 994.55,-255.84"/>
<polygon fill="#63b8ff" stroke="#63b8ff" points="993,-287.03 997.11,-296.8 999.98,-286.6 993,-287.03"/>
</g>
<!-- Node20&#45;&gt;Node5 -->
<g id="edge29" class="edge">
<title>Node20&#45;&gt;Node5</title>
<path fill="none" stroke="#63b8ff" d="M1022.01,-232.19C1049.6,-219.58 1091,-200.66 1114.97,-189.7"/>
<polygon fill="#63b8ff" stroke="#63b8ff" points="1020.52,-229.03 1012.88,-236.37 1023.43,-235.39 1020.52,-229.03"/>
</g>
<!-- Node21&#45;&gt;Node6 -->
<g id="edge32" class="edge">
<title>Node21&#45;&gt;Node6</title>
<path fill="none" stroke="#63b8ff" d="M2395.78,-287.07C2404.51,-244.38 2415.22,-155.31 2366,-110 2322.55,-70 1437.96,-65.9 1195.17,-65.52"/>
<polygon fill="#63b8ff" stroke="#63b8ff" points="2392.36,-286.36 2393.64,-296.87 2399.2,-287.85 2392.36,-286.36"/>
</g>
<!-- Node22&#45;&gt;Node6 -->
<g id="edge34" class="edge">
<title>Node22&#45;&gt;Node6</title>
<path fill="none" stroke="#63b8ff" d="M1302.83,-296.75C1314.89,-288.09 1328.36,-275.84 1335,-261 1340.45,-248.83 1338.46,-243.88 1335,-231 1318.89,-171 1313.04,-149.4 1265,-110 1242.34,-91.42 1211.53,-80.44 1185.48,-74.04"/>
<polygon fill="#63b8ff" stroke="#63b8ff" points="1300.76,-293.92 1294.42,-302.4 1304.67,-299.73 1300.76,-293.92"/>
</g>
<!-- Node23 -->
<g id="node23" class="node">
<title>Node23</title>
<g id="a_node23"><a xlink:href="jwt__key__auto__refresh_8h.html" target="_top" xlink:title=" ">
<polygon fill="white" stroke="#666666" points="1325.5,-261 1200.5,-261 1200.5,-231 1325.5,-231 1325.5,-261"/>
<text text-anchor="start" x="1208.5" y="-249" font-family="Helvetica,sans-Serif" font-size="10.00">src/node/jwt_key_auto</text>
<text text-anchor="middle" x="1263" y="-238" font-family="Helvetica,sans-Serif" font-size="10.00">_refresh.h</text>
</a>
</g>
</g>
<!-- Node22&#45;&gt;Node23 -->
<g id="edge35" class="edge">
<title>Node22&#45;&gt;Node23</title>
<path fill="none" stroke="#63b8ff" d="M1274.34,-292.35C1271.87,-282.47 1268.88,-270.51 1266.59,-261.36"/>
<polygon fill="#63b8ff" stroke="#63b8ff" points="1271.02,-293.52 1276.84,-302.37 1277.81,-291.82 1271.02,-293.52"/>
</g>
<!-- Node23&#45;&gt;Node5 -->
<g id="edge36" class="edge">
<title>Node23&#45;&gt;Node5</title>
<path fill="none" stroke="#63b8ff" d="M1225.63,-226.46C1201.06,-214.27 1170.08,-198.9 1151.17,-189.52"/>
<polygon fill="#63b8ff" stroke="#63b8ff" points="1224.18,-229.65 1234.69,-230.95 1227.29,-223.38 1224.18,-229.65"/>
</g>
<!-- Node24&#45;&gt;Node6 -->
<g id="edge38" class="edge">
<title>Node24&#45;&gt;Node6</title>
<path fill="none" stroke="#63b8ff" d="M841.28,-293.45C857.1,-264.54 891.46,-206.03 931,-165 959.68,-135.24 969.41,-129.22 1006,-110 1036.72,-93.86 1074.53,-81.55 1101.07,-74.01"/>
<polygon fill="#63b8ff" stroke="#63b8ff" points="838.14,-291.9 836.47,-302.36 844.3,-295.22 838.14,-291.9"/>
</g>
<!-- Node25&#45;&gt;Node20 -->
<g id="edge41" class="edge">
<title>Node25&#45;&gt;Node20</title>
<path fill="none" stroke="#63b8ff" d="M934.26,-491.32C846.32,-457.4 678.69,-379.24 746,-297 752.27,-289.34 872.66,-267.68 943.36,-255.53"/>
<polygon fill="#63b8ff" stroke="#63b8ff" points="933.21,-494.66 943.8,-494.94 935.7,-488.12 933.21,-494.66"/>
</g>
<!-- Node26 -->
<g id="node26" class="node">
<title>Node26</title>
<g id="a_node26"><a xlink:href="network__state_8h.html" target="_top" xlink:title=" ">
<polygon fill="white" stroke="#666666" points="1256,-453.5 1116,-453.5 1116,-434.5 1256,-434.5 1256,-453.5"/>
<text text-anchor="middle" x="1186" y="-441.5" font-family="Helvetica,sans-Serif" font-size="10.00">src/node/network_state.h</text>
</a>
</g>
</g>
<!-- Node25&#45;&gt;Node26 -->
<g id="edge42" class="edge">
<title>Node25&#45;&gt;Node26</title>
<path fill="none" stroke="#63b8ff" d="M1037.99,-491.89C1077.11,-479.5 1128.33,-463.27 1159.12,-453.52"/>
<polygon fill="#63b8ff" stroke="#63b8ff" points="1036.81,-488.6 1028.33,-494.95 1038.92,-495.27 1036.81,-488.6"/>
</g>
<!-- Node37 -->
<g id="node37" class="node">
<title>Node37</title>
<g id="a_node37"><a xlink:href="genesis__gen_8h.html" target="_top" xlink:title=" ">
<polygon fill="white" stroke="#666666" points="1970,-459 1860,-459 1860,-429 1970,-429 1970,-459"/>
<text text-anchor="start" x="1868" y="-447" font-family="Helvetica,sans-Serif" font-size="10.00">src/service/genesis</text>
<text text-anchor="middle" x="1915" y="-436" font-family="Helvetica,sans-Serif" font-size="10.00">_gen.h</text>
</a>
</g>
</g>
<!-- Node25&#45;&gt;Node37 -->
<g id="edge70" class="edge">
<title>Node25&#45;&gt;Node37</title>
<path fill="none" stroke="#63b8ff" d="M1050.25,-504.45C1225.4,-492.41 1698.32,-459.9 1859.96,-448.78"/>
<polygon fill="#63b8ff" stroke="#63b8ff" points="1049.88,-500.96 1040.14,-505.14 1050.36,-507.95 1049.88,-500.96"/>
</g>
<!-- Node26&#45;&gt;Node5 -->
<g id="edge61" class="edge">
<title>Node26&#45;&gt;Node5</title>
<path fill="none" stroke="#63b8ff" d="M1172.41,-426.24C1165.68,-417 1158.13,-404.99 1154,-393 1128.12,-317.85 1131.6,-219.4 1133.38,-189.79"/>
<polygon fill="#63b8ff" stroke="#63b8ff" points="1169.84,-428.65 1178.7,-434.46 1175.4,-424.39 1169.84,-428.65"/>
</g>
<!-- Node26&#45;&gt;Node6 -->
<g id="edge43" class="edge">
<title>Node26&#45;&gt;Node6</title>
<path fill="none" stroke="#63b8ff" d="M1266.38,-439.75C1499.24,-429.57 2162.05,-394.85 2230,-327 2250.06,-306.97 2240.49,-165.74 2240,-165 2206.53,-113.88 2173.51,-123.84 2114,-110 1938.16,-69.11 1381.48,-65.43 1195.32,-65.37"/>
<polygon fill="#63b8ff" stroke="#63b8ff" points="1266.13,-436.26 1256.29,-440.19 1266.43,-443.25 1266.13,-436.26"/>
</g>
<!-- Node26&#45;&gt;Node14 -->
<g id="edge69" class="edge">
<title>Node26&#45;&gt;Node14</title>
<path fill="none" stroke="#63b8ff" d="M1118.34,-432.89C1059.98,-423.77 973.58,-409.31 899,-393 797.48,-370.8 678.78,-337.19 625.05,-321.56"/>
<polygon fill="#63b8ff" stroke="#63b8ff" points="1118.12,-436.4 1128.54,-434.47 1119.2,-429.48 1118.12,-436.4"/>
</g>
<!-- Node26&#45;&gt;Node19 -->
<g id="edge60" class="edge">
<title>Node26&#45;&gt;Node19</title>
<path fill="none" stroke="#63b8ff" d="M1105.75,-435.01C1050.95,-427.7 985.25,-414.66 968,-393 952.2,-373.16 970.89,-344.13 985.05,-327.04"/>
<polygon fill="#63b8ff" stroke="#63b8ff" points="1105.48,-438.5 1115.84,-436.31 1106.37,-431.56 1105.48,-438.5"/>
</g>
<!-- Node26&#45;&gt;Node22 -->
<g id="edge62" class="edge">
<title>Node26&#45;&gt;Node22</title>
<path fill="none" stroke="#63b8ff" d="M1265.84,-431.98C1288.68,-424.72 1311.13,-412.73 1325,-393 1342.32,-368.36 1309.39,-336.77 1290.68,-321.72"/>
<polygon fill="#63b8ff" stroke="#63b8ff" points="1264.68,-428.67 1256.05,-434.81 1266.63,-435.4 1264.68,-428.67"/>
</g>
<!-- Node26&#45;&gt;Node24 -->
<g id="edge63" class="edge">
<title>Node26&#45;&gt;Node24</title>
<path fill="none" stroke="#63b8ff" d="M1107.18,-432.86C1062.03,-425.33 1004.98,-412.84 957,-393 911.05,-374 863.34,-338.18 842.64,-321.7"/>
<polygon fill="#63b8ff" stroke="#63b8ff" points="1106.78,-436.34 1117.21,-434.48 1107.9,-429.43 1106.78,-436.34"/>
</g>
<!-- Node27 -->
<g id="node27" class="node">
<title>Node27</title>
<g id="a_node27"><a xlink:href="wrap_8h.html" target="_top" xlink:title=" ">
<polygon fill="white" stroke="#666666" points="1781,-387.5 1703,-387.5 1703,-368.5 1781,-368.5 1781,-387.5"/>
<text text-anchor="middle" x="1742" y="-375.5" font-family="Helvetica,sans-Serif" font-size="10.00">src/js/wrap.h</text>
</a>
</g>
</g>
<!-- Node26&#45;&gt;Node27 -->
<g id="edge44" class="edge">
<title>Node26&#45;&gt;Node27</title>
<path fill="none" stroke="#63b8ff" d="M1266.09,-433.78C1387.13,-419.85 1612.11,-393.95 1702.7,-383.52"/>
<polygon fill="#63b8ff" stroke="#63b8ff" points="1265.67,-430.31 1256.14,-434.93 1266.47,-437.26 1265.67,-430.31"/>
</g>
<!-- Node35 -->
<g id="node35" class="node">
<title>Node35</title>
<g id="a_node35"><a xlink:href="secret__broadcast_8h.html" target="_top" xlink:title=" ">
<polygon fill="white" stroke="#666666" points="1315.5,-387.5 1162.5,-387.5 1162.5,-368.5 1315.5,-368.5 1315.5,-387.5"/>
<text text-anchor="middle" x="1239" y="-375.5" font-family="Helvetica,sans-Serif" font-size="10.00">src/node/secret_broadcast.h</text>
</a>
</g>
</g>
<!-- Node26&#45;&gt;Node35 -->
<g id="edge64" class="edge">
<title>Node26&#45;&gt;Node35</title>
<path fill="none" stroke="#63b8ff" d="M1199.56,-426.62C1209.76,-414.31 1223.35,-397.89 1231.63,-387.91"/>
<polygon fill="#63b8ff" stroke="#63b8ff" points="1196.83,-424.43 1193.15,-434.37 1202.22,-428.9 1196.83,-424.43"/>
</g>
<!-- Node36 -->
<g id="node36" class="node">
<title>Node36</title>
<g id="a_node36"><a xlink:href="share__manager_8h.html" target="_top" xlink:title=" ">
<polygon fill="white" stroke="#666666" points="2374.5,-387.5 2229.5,-387.5 2229.5,-368.5 2374.5,-368.5 2374.5,-387.5"/>
<text text-anchor="middle" x="2302" y="-375.5" font-family="Helvetica,sans-Serif" font-size="10.00">src/node/share_manager.h</text>
</a>
</g>
</g>
<!-- Node26&#45;&gt;Node36 -->
<g id="edge66" class="edge">
<title>Node26&#45;&gt;Node36</title>
<path fill="none" stroke="#63b8ff" d="M1266.14,-442.13C1439.61,-439.58 1862.68,-429.79 2215,-393 2228.09,-391.63 2242.2,-389.61 2255.17,-387.51"/>
<polygon fill="#63b8ff" stroke="#63b8ff" points="1266.02,-438.63 1256.07,-442.27 1266.12,-445.63 1266.02,-438.63"/>
</g>
<!-- Node27&#45;&gt;Node5 -->
<g id="edge57" class="edge">
<title>Node27&#45;&gt;Node5</title>
<path fill="none" stroke="#63b8ff" d="M1692.78,-371.82C1605.2,-362.3 1429.19,-341.63 1405,-327 1359.82,-299.67 1378.81,-260.48 1335,-231 1293.68,-203.2 1238.24,-190.84 1196.05,-185.36"/>
<polygon fill="#63b8ff" stroke="#63b8ff" points="1692.43,-375.3 1702.75,-372.9 1693.18,-368.34 1692.43,-375.3"/>
</g>
<!-- Node27&#45;&gt;Node6 -->
<g id="edge46" class="edge">
<title>Node27&#45;&gt;Node6</title>
<path fill="none" stroke="#63b8ff" d="M1791.33,-374.88C1904.65,-369.56 2176.25,-354.1 2207,-327 2234.42,-302.84 2226,-283.54 2226,-247 2226,-247 2226,-247 2226,-179 2226,-74.52 1425.02,-65.75 1195.05,-65.39"/>
<polygon fill="#63b8ff" stroke="#63b8ff" points="1791.02,-371.39 1781.19,-375.35 1791.34,-378.38 1791.02,-371.39"/>
</g>
<!-- Node27&#45;&gt;Node21 -->
<g id="edge58" class="edge">
<title>Node27&#45;&gt;Node21</title>
<path fill="none" stroke="#63b8ff" d="M1791.16,-372.14C1908.02,-360.6 2202.14,-331.55 2329.57,-318.97"/>
<polygon fill="#63b8ff" stroke="#63b8ff" points="1790.68,-368.67 1781.08,-373.14 1791.37,-375.64 1790.68,-368.67"/>
</g>
<!-- Node27&#45;&gt;Node22 -->
<g id="edge59" class="edge">
<title>Node27&#45;&gt;Node22</title>
<path fill="none" stroke="#63b8ff" d="M1692.83,-370.6C1621.92,-361.3 1486.83,-343.4 1372,-327 1359.88,-325.27 1346.88,-323.35 1334.55,-321.5"/>
<polygon fill="#63b8ff" stroke="#63b8ff" points="1692.45,-374.08 1702.82,-371.9 1693.36,-367.13 1692.45,-374.08"/>
</g>
<!-- Node28 -->
<g id="node28" class="node">
<title>Node28</title>
<g id="a_node28"><a xlink:href="js__generic__base_8cpp.html" target="_top" xlink:title=" ">
<polygon fill="white" stroke="#666666" points="1678,-327 1560,-327 1560,-297 1678,-297 1678,-327"/>
<text text-anchor="start" x="1568" y="-315" font-family="Helvetica,sans-Serif" font-size="10.00">src/apps/js_generic</text>
<text text-anchor="middle" x="1619" y="-304" font-family="Helvetica,sans-Serif" font-size="10.00">/js_generic_base.cpp</text>
</a>
</g>
</g>
<!-- Node27&#45;&gt;Node28 -->
<g id="edge45" class="edge">
<title>Node27&#45;&gt;Node28</title>
<path fill="none" stroke="#63b8ff" d="M1716.33,-363.64C1695.79,-352.95 1667.05,-338 1646.13,-327.12"/>
<polygon fill="#63b8ff" stroke="#63b8ff" points="1714.93,-366.86 1725.41,-368.37 1718.16,-360.65 1714.93,-366.86"/>
</g>
<!-- Node29 -->
<g id="node29" class="node">
<title>Node29</title>
<g id="a_node29"><a xlink:href="consensus_8cpp.html" target="_top" xlink:title=" ">
<polygon fill="white" stroke="#666666" points="2198,-321.5 2082,-321.5 2082,-302.5 2198,-302.5 2198,-321.5"/>
<text text-anchor="middle" x="2140" y="-309.5" font-family="Helvetica,sans-Serif" font-size="10.00">src/js/consensus.cpp</text>
</a>
</g>
</g>
<!-- Node27&#45;&gt;Node29 -->
<g id="edge47" class="edge">
<title>Node27&#45;&gt;Node29</title>
<path fill="none" stroke="#63b8ff" d="M1791.02,-370.47C1855.76,-361.65 1973.23,-344.94 2073,-327 2082.12,-325.36 2091.91,-323.42 2101.1,-321.51"/>
<polygon fill="#63b8ff" stroke="#63b8ff" points="1790.54,-367 1781.1,-371.82 1791.48,-373.94 1790.54,-367"/>
</g>
<!-- Node30 -->
<g id="node30" class="node">
<title>Node30</title>
<g id="a_node30"><a xlink:href="wrap_8cpp.html" target="_top" xlink:title=" ">
<polygon fill="white" stroke="#666666" points="1939.5,-255.5 1850.5,-255.5 1850.5,-236.5 1939.5,-236.5 1939.5,-255.5"/>
<text text-anchor="middle" x="1895" y="-243.5" font-family="Helvetica,sans-Serif" font-size="10.00">src/js/wrap.cpp</text>
</a>
</g>
</g>
<!-- Node27&#45;&gt;Node30 -->
<g id="edge56" class="edge">
<title>Node27&#45;&gt;Node30</title>
<path fill="none" stroke="#63b8ff" d="M1730.82,-359.25C1721.39,-341.78 1711.42,-315.15 1725,-297 1740.07,-276.86 1805.23,-262.05 1850.36,-253.98"/>
<polygon fill="#63b8ff" stroke="#63b8ff" points="1728.06,-361.47 1736.13,-368.35 1734.11,-357.95 1728.06,-361.47"/>
</g>
<!-- Node31 -->
<g id="node31" class="node">
<title>Node31</title>
<g id="a_node31"><a xlink:href="conv_8cpp.html" target="_top" xlink:title=" ">
<polygon fill="white" stroke="#666666" points="1822,-321.5 1734,-321.5 1734,-302.5 1822,-302.5 1822,-321.5"/>
<text text-anchor="middle" x="1778" y="-309.5" font-family="Helvetica,sans-Serif" font-size="10.00">src/js/conv.cpp</text>
</a>
</g>
</g>
<!-- Node27&#45;&gt;Node31 -->
<g id="edge49" class="edge">
<title>Node27&#45;&gt;Node31</title>
<path fill="none" stroke="#63b8ff" d="M1751.82,-359.55C1758.67,-347.36 1767.53,-331.61 1772.99,-321.91"/>
<polygon fill="#63b8ff" stroke="#63b8ff" points="1748.71,-357.94 1746.86,-368.37 1754.81,-361.37 1748.71,-357.94"/>
</g>
<!-- Node32 -->
<g id="node32" class="node">
<title>Node32</title>
<g id="a_node32"><a xlink:href="crypto_8cpp.html" target="_top" xlink:title=" ">
<polygon fill="white" stroke="#666666" points="2064,-321.5 1968,-321.5 1968,-302.5 2064,-302.5 2064,-321.5"/>
<text text-anchor="middle" x="2016" y="-309.5" font-family="Helvetica,sans-Serif" font-size="10.00">src/js/crypto.cpp</text>
</a>
</g>
</g>
<!-- Node27&#45;&gt;Node32 -->
<g id="edge51" class="edge">
<title>Node27&#45;&gt;Node32</title>
<path fill="none" stroke="#63b8ff" d="M1789.52,-366.26C1833.51,-356.26 1900.73,-340.87 1959,-327 1966.34,-325.25 1974.19,-323.35 1981.66,-321.52"/>
<polygon fill="#63b8ff" stroke="#63b8ff" points="1788.65,-362.87 1779.67,-368.49 1790.2,-369.69 1788.65,-362.87"/>
</g>
<!-- Node33 -->
<g id="node33" class="node">
<title>Node33</title>
<g id="a_node33"><a xlink:href="historical_8cpp.html" target="_top" xlink:title=" ">
<polygon fill="white" stroke="#666666" points="1950,-321.5 1840,-321.5 1840,-302.5 1950,-302.5 1950,-321.5"/>
<text text-anchor="middle" x="1895" y="-309.5" font-family="Helvetica,sans-Serif" font-size="10.00">src/js/historical.cpp</text>
</a>
</g>
</g>
<!-- Node27&#45;&gt;Node33 -->
<g id="edge53" class="edge">
<title>Node27&#45;&gt;Node33</title>
<path fill="none" stroke="#63b8ff" d="M1772.22,-364.36C1802.37,-351.75 1847.89,-332.71 1874.2,-321.7"/>
<polygon fill="#63b8ff" stroke="#63b8ff" points="1770.51,-361.28 1762.63,-368.37 1773.21,-367.74 1770.51,-361.28"/>
</g>
<!-- Node34 -->
<g id="node34" class="node">
<title>Node34</title>
<g id="a_node34"><a xlink:href="openenclave_8cpp.html" target="_top" xlink:title=" ">
<polygon fill="white" stroke="#666666" points="1542,-321.5 1414,-321.5 1414,-302.5 1542,-302.5 1542,-321.5"/>
<text text-anchor="middle" x="1478" y="-309.5" font-family="Helvetica,sans-Serif" font-size="10.00">src/js/openenclave.cpp</text>
</a>
</g>
</g>
<!-- Node27&#45;&gt;Node34 -->
<g id="edge55" class="edge">
<title>Node27&#45;&gt;Node34</title>
<path fill="none" stroke="#63b8ff" d="M1696.71,-366.02C1644.69,-353.41 1560.43,-332.98 1513.12,-321.51"/>
<polygon fill="#63b8ff" stroke="#63b8ff" points="1696.13,-369.48 1706.67,-368.44 1697.78,-362.68 1696.13,-369.48"/>
</g>
<!-- Node29&#45;&gt;Node30 -->
<g id="edge48" class="edge">
<title>Node29&#45;&gt;Node30</title>
<path fill="none" stroke="#63b8ff" d="M2097.37,-299.86C2049.04,-287.24 1971.32,-266.94 1927.59,-255.51"/>
<polygon fill="#63b8ff" stroke="#63b8ff" points="2096.65,-303.29 2107.21,-302.44 2098.42,-296.52 2096.65,-303.29"/>
</g>
<!-- Node31&#45;&gt;Node30 -->
<g id="edge50" class="edge">
<title>Node31&#45;&gt;Node30</title>
<path fill="none" stroke="#63b8ff" d="M1802.63,-297.53C1825.67,-284.92 1859.41,-266.47 1879.1,-255.7"/>
<polygon fill="#63b8ff" stroke="#63b8ff" points="1800.87,-294.5 1793.78,-302.37 1804.23,-300.64 1800.87,-294.5"/>
</g>
<!-- Node32&#45;&gt;Node30 -->
<g id="edge52" class="edge">
<title>Node32&#45;&gt;Node30</title>
<path fill="none" stroke="#63b8ff" d="M1990.53,-297.53C1966.7,-284.92 1931.8,-266.47 1911.45,-255.7"/>
<polygon fill="#63b8ff" stroke="#63b8ff" points="1989.21,-300.79 1999.68,-302.37 1992.48,-294.6 1989.21,-300.79"/>
</g>
<!-- Node33&#45;&gt;Node30 -->
<g id="edge54" class="edge">
<title>Node33&#45;&gt;Node30</title>
<path fill="none" stroke="#63b8ff" d="M1895,-292.08C1895,-280.13 1895,-265.22 1895,-255.91"/>
<polygon fill="#63b8ff" stroke="#63b8ff" points="1891.5,-292.37 1895,-302.37 1898.5,-292.37 1891.5,-292.37"/>
</g>
<!-- Node35&#45;&gt;Node5 -->
<g id="edge65" class="edge">
<title>Node35&#45;&gt;Node5</title>
<path fill="none" stroke="#63b8ff" d="M1220.88,-361.42C1211.02,-352.2 1199.2,-339.83 1191,-327 1160.67,-279.54 1142.12,-213.37 1136.13,-189.78"/>
<polygon fill="#63b8ff" stroke="#63b8ff" points="1218.82,-364.27 1228.58,-368.37 1223.51,-359.07 1218.82,-364.27"/>
</g>
<!-- Node36&#45;&gt;Node5 -->
<g id="edge67" class="edge">
<title>Node36&#45;&gt;Node5</title>
<path fill="none" stroke="#63b8ff" d="M2286.99,-360.53C2269.51,-342.32 2238.92,-313.42 2207,-297 2101.75,-242.85 2065.92,-249.37 1949,-231 1670.49,-187.24 1332.85,-181.29 1196.03,-180.82"/>
<polygon fill="#63b8ff" stroke="#63b8ff" points="2284.66,-363.16 2294.06,-368.05 2289.76,-358.37 2284.66,-363.16"/>
</g>
<!-- Node36&#45;&gt;Node21 -->
<g id="edge68" class="edge">
<title>Node36&#45;&gt;Node21</title>
<path fill="none" stroke="#63b8ff" d="M2322.19,-362.32C2336.73,-351.74 2356.23,-337.56 2370.59,-327.12"/>
<polygon fill="#63b8ff" stroke="#63b8ff" points="2319.9,-359.66 2313.87,-368.37 2324.01,-365.32 2319.9,-359.66"/>
</g>
<!-- Node37&#45;&gt;Node5 -->
<g id="edge71" class="edge">
<title>Node37&#45;&gt;Node5</title>
<path fill="none" stroke="#63b8ff" d="M1980.56,-442.35C2096.5,-440.23 2332.24,-431.18 2404,-393 2447.41,-369.9 2490.9,-334.43 2459,-297 2376.15,-199.79 1446.81,-183.96 1196.04,-181.46"/>
<polygon fill="#63b8ff" stroke="#63b8ff" points="1980.34,-438.86 1970.4,-442.53 1980.46,-445.86 1980.34,-438.86"/>
</g>
<!-- Node37&#45;&gt;Node21 -->
<g id="edge72" class="edge">
<title>Node37&#45;&gt;Node21</title>
<path fill="none" stroke="#63b8ff" d="M1980.54,-440.59C2102.94,-435.44 2356.45,-421.43 2384,-393 2400.87,-375.6 2397.58,-344.89 2393.74,-327.01"/>
<polygon fill="#63b8ff" stroke="#63b8ff" points="1980.03,-437.11 1970.18,-441.02 1980.32,-444.1 1980.03,-437.11"/>
</g>
<!-- Node37&#45;&gt;Node22 -->
<g id="edge73" class="edge">
<title>Node37&#45;&gt;Node22</title>
<path fill="none" stroke="#63b8ff" d="M1850.09,-429.73C1719.77,-403.09 1429.46,-343.75 1320.97,-321.58"/>
<polygon fill="#63b8ff" stroke="#63b8ff" points="1849.45,-433.17 1859.95,-431.75 1850.85,-426.32 1849.45,-433.17"/>
</g>
<!-- Node37&#45;&gt;Node35 -->
<g id="edge74" class="edge">
<title>Node37&#45;&gt;Node35</title>
<path fill="none" stroke="#63b8ff" d="M1849.73,-436.82C1724.15,-424.93 1449.46,-398.93 1315.51,-386.24"/>
<polygon fill="#63b8ff" stroke="#63b8ff" points="1849.68,-440.33 1859.97,-437.79 1850.34,-433.36 1849.68,-440.33"/>
</g>
<!-- Node37&#45;&gt;Node36 -->
<g id="edge75" class="edge">
<title>Node37&#45;&gt;Node36</title>
<path fill="none" stroke="#63b8ff" d="M1979.99,-432.25C2056.15,-419.66 2180.78,-399.05 2250.55,-387.51"/>
<polygon fill="#63b8ff" stroke="#63b8ff" points="1979.33,-428.81 1970.04,-433.9 1980.47,-435.72 1979.33,-428.81"/>
</g>
</g>
</svg>
